<svg version="1.1" xmlns="http://www.w3.org/2000/svg" xmlns:xlink="http://www.w3.org/1999/xlink" width="118" height="118" viewBox="0,0,118,118"><g transform="translate(-185,-122.16667)"><g data-paper-data="{&quot;isPaintingLayer&quot;:true}" fill-rule="nonzero" stroke-linejoin="miter" stroke-miterlimit="10" stroke-dasharray="" stroke-dashoffset="0" style="mix-blend-mode: normal"><path d="M185,240.16667v-118h118v118z" fill="none" stroke="none" stroke-width="NaN" stroke-linecap="butt"/><g><path d="M235.68493,183.93706c2.89236,2.89236 3.04459,21.54046 -0.15223,25.72677c-3.19682,4.18631 -14.30957,3.04459 -19.10479,1.14172c-4.79523,-1.90287 -3.34905,-15.22294 -3.34905,-20.93155c0,-5.7086 3.57739,-7.7637 7.7637,-8.37262c6.85032,-0.91338 12.48281,0.15223 14.84237,2.43567z" fill="#cfebe2" stroke="none" stroke-width="1" stroke-linecap="butt"/><path d="M234.69544,186.90554c1.59841,2.20733 2.35956,17.73473 0.30446,21.15989c-2.0551,3.42516 -13.16785,3.72962 -17.20193,1.44618c-3.1207,-1.75064 -3.65351,-7.00256 -3.72962,-14.9946c-0.07612,-8.14428 2.74013,-10.04714 5.63249,-10.57994c11.26498,-2.28344 13.4723,0.68503 14.9946,2.96848z" fill="#dd3333" stroke="none" stroke-width="1" stroke-linecap="butt"/><path d="M217.87409,209.51161c-0.45669,-0.22834 -0.83726,-0.60892 -1.21784,-0.98949c3.19682,-1.59841 11.49332,-3.42516 18.1153,-0.07612c-2.5879,3.1207 -13.09173,3.27293 -16.89747,1.06561z" fill="#d42a2a" stroke="none" stroke-width="1" stroke-linecap="butt"/><path d="M222.28874,190.3307c0,-0.42037 0.34078,-0.76115 0.76115,-0.76115c0.42037,0 0.76115,0.34078 0.76115,0.76115c0,0.42037 -0.34078,0.76115 -0.76115,0.76115c-0.42037,0 -0.76115,-0.34078 -0.76115,-0.76115z" fill="#cf2f51" stroke="none" stroke-width="1" stroke-linecap="butt"/><path d="M225.10499,202.20459c-5.48026,0.07612 -9.8188,-1.14172 -12.25447,-2.0551c-0.07612,-2.43567 0,-4.79523 0.07612,-6.92644c1.90287,1.14172 6.62198,2.66402 14.23345,2.0551c5.7086,-0.45669 8.75319,-0.98949 10.65606,-1.75064c0.07612,2.43567 0.07612,5.09969 -0.15223,7.53536c-2.20733,0.45669 -6.16529,1.06561 -12.55893,1.14172z" fill="#f0e0da" stroke="none" stroke-width="1" stroke-linecap="butt"/><g stroke="none" stroke-width="1" stroke-linecap="butt"><path d="M235.30436,184.46987c0.83726,-0.22834 3.65351,1.75064 3.65351,1.75064c0,0 -1.82675,1.44618 -3.50128,2.20733c-1.59841,0.76115 -3.27293,0.30446 -4.49077,0.07612c-1.29395,-0.22834 -2.89236,0.15223 -3.88185,0.5328c-0.98949,0.45669 -1.37006,-0.07612 -3.1207,-0.45669c-1.75064,-0.38057 -4.94746,2.0551 -6.08918,0.60892c-1.14172,-1.44618 -1.90287,-1.59841 -3.72962,-1.21784c-1.82675,0.45669 -2.43567,-2.28344 -2.43567,-2.28344c0.60892,-0.38057 3.1207,-1.67452 3.1207,-1.67452c13.01562,1.82675 20.47486,0.45669 20.47486,0.45669z" fill="#e5e4e1"/><path d="M215.28619,184.31764l-3.1207,2.5879c-0.30446,-0.60892 -0.45669,-1.21784 -0.45669,-1.21784c0.5328,-0.30446 2.35956,-1.29395 2.89236,-1.59841z" fill="#e6818b"/><path d="M217.56963,185.1549l-2.89236,2.81624c-0.15223,0 -0.38057,0 -0.5328,0.07612c-0.38057,0.07612 -0.68503,0.07612 -0.98949,-0.07612l3.57739,-3.04459z" fill="#e6818b"/><path d="M220.0053,185.30713l-2.20733,3.80574c-0.30446,-0.45669 -0.60892,-0.68503 -0.91338,-0.91338l1.97898,-2.96848z" fill="#e6818b"/><path d="M221.14702,185.99216l1.14172,0.30446l-0.91338,2.81624c-0.45669,0.15223 -0.83726,0.30446 -1.29395,0.38057z" fill="#e6818b"/><path d="M223.96327,186.14439l1.14172,0.22834l-0.60892,2.43567c-0.15223,-0.07612 -0.30446,-0.07612 -0.5328,-0.15223c-0.22834,-0.07612 -0.38057,-0.07612 -0.60892,-0.07612z" fill="#e6818b"/><path d="M226.93174,186.06827h0.98949l0.15223,2.66402c-0.38057,0.07612 -0.68503,0.15223 -0.98949,0.30446c-0.07612,0 -0.15223,0.07612 -0.22834,0.07612z" fill="#e6818b"/><path d="M230.88971,188.58006c-0.15223,-0.07612 -0.22834,-0.07612 -0.38057,-0.07612l-0.15223,-2.81624l0.68503,-0.22834l0.5328,3.19682c-0.22834,0 -0.38057,-0.07612 -0.68503,-0.07612z" fill="#e6818b"/><path d="M233.70595,188.88452l-1.44618,-3.57739l0.76115,-0.22834l1.82675,3.65351c-0.45669,0.07612 -0.83726,0.15223 -1.14172,0.15223z" fill="#e6818b"/><path d="M237.35945,187.36223l-3.34905,-2.5879h0.83726l3.42516,1.97898c-0.22834,0.22834 -0.5328,0.38057 -0.91338,0.60892z" fill="#e6818b"/><path d="M214.67727,184.69821c0,0 -1.44618,-2.20733 -0.30446,-3.88185c1.14172,-1.67452 6.16529,-2.74013 12.4067,-2.66402c6.24141,0.07612 11.03664,1.44618 9.286,6.62198c0,0 -10.57994,4.49077 -21.38823,-0.07612z" fill="#d3d2cf"/><path d="M214.29669,180.96859c0,-0.07612 0.07612,-0.07612 0.07612,-0.15223c1.21784,-1.67452 6.16529,-2.74013 12.4067,-2.66402c4.18631,0.07612 7.68759,0.68503 8.98154,2.66402c-1.5223,0.60892 -4.26242,1.21784 -9.286,1.59841c-7.45924,0.60892 -10.73218,-0.60892 -12.17836,-1.44618z" fill="#e5e4e1"/><path d="M222.66931,178.22846c-2.13121,0.91338 -6.39364,2.81624 -6.54586,3.34905c-0.30446,0.91338 -0.22834,2.66402 -0.15223,3.57739c-0.38057,-0.15223 -0.83726,-0.30446 -1.21784,-0.45669c-0.07612,-1.14172 -0.15223,-3.1207 0.5328,-3.72962c0.60892,-0.60892 2.89236,-1.67452 4.56688,-2.35956c0.83726,-0.15223 1.82675,-0.22834 2.81624,-0.38057z" fill="#e6818b"/><path d="M219.54861,181.88197c-0.22834,0.83726 0,3.19682 0.15223,4.33854c-0.38057,-0.07612 -0.83726,-0.22834 -1.21784,-0.30446c-0.22834,-1.37006 -0.5328,-3.95796 0.22834,-4.71911c0.76115,-0.76115 4.643,-2.35956 6.46975,-3.04459c0.5328,0 1.06561,0 1.59841,0c0.15223,0 0.22834,0 0.38057,0c-2.13121,0.91338 -7.45924,3.1207 -7.61147,3.72962z" fill="#e6818b"/><path d="M231.34639,178.53292c-2.43567,1.06561 -8.22039,3.50128 -8.37262,4.1102c-0.30446,0.98949 -0.15223,3.27293 -0.07612,3.95796c-0.38057,0 -0.76115,0 -1.14172,-0.07612c-0.15223,-0.91338 -0.45669,-3.72962 0.38057,-4.56688c0.83726,-0.83726 5.93695,-2.96848 7.68759,-3.65351c0.5328,0.07612 0.98949,0.15223 1.5223,0.22834z" fill="#e6818b"/><path d="M226.70339,183.02369c-0.15223,0.68503 -0.07612,2.51178 0.07612,3.72962c-0.45669,0 -0.83726,0 -1.21784,0c-0.15223,-1.37006 -0.38057,-3.72962 0.30446,-4.41465c0.91338,-0.91338 6.01306,-2.89236 7.15478,-3.34905c0.38057,0.07612 0.68503,0.22834 0.98949,0.38057c-2.35956,0.91338 -7.2309,3.04459 -7.30701,3.65351z" fill="#e6818b"/><path d="M230.05244,186.29662c-0.38057,0.07612 -0.76115,0.15223 -1.14172,0.22834c-0.07612,-1.06561 0.07612,-3.42516 0.83726,-4.18631c0.45669,-0.45669 3.1207,-1.75064 5.02357,-2.5879c0.22834,0.22834 0.45669,0.38057 0.68503,0.60892c-2.13121,0.98949 -5.02357,2.13121 -5.09969,2.51178c-0.22834,0.83726 -0.38057,2.51178 -0.30446,3.42516z" fill="#e6818b"/><path d="M226.70339,178.15234c2.43567,0.07612 4.643,0.30446 6.31752,0.83726l-6.31752,-0.83726c0,0 0.07612,0 0,0z" fill="#e6818b"/><path d="M229.74798,178.38069c0.5328,0.07612 0.98949,0.15223 1.44618,0.22834c0.07612,0 0.07612,0 0.07612,0c-0.15223,0.07612 -0.22834,0.07612 -0.38057,0.15223l-1.5223,-0.22834c0.15223,-0.07612 0.30446,-0.15223 0.38057,-0.15223z" fill="#d1303e"/><path d="M223.96327,184.24152c6.01306,0 10.73218,-1.67452 12.33058,-2.28344c0.07612,0.30446 0.07612,0.60892 0.07612,0.91338c-2.13121,0.98949 -10.57994,4.33854 -22.22549,0.60892c-0.07612,-0.30446 -0.15223,-0.5328 -0.15223,-0.83726c1.37006,0.60892 4.56688,1.67452 9.97103,1.59841z" fill="#e6818b"/><path d="M230.28079,183.70872c-0.07612,0.30446 -0.15223,0.68503 -0.15223,1.06561c-0.38057,0 -0.83726,0.07612 -1.21784,0.15223c0,-0.38057 0.07612,-0.68503 0.15223,-1.06561c0.38057,-0.07612 0.76115,-0.15223 1.21784,-0.15223z" fill="#d1303e"/><path d="M226.55117,185.1549c-0.38057,0.07612 -0.83726,0.07612 -1.21784,0.07612c0,-0.38057 0,-0.68503 0,-0.98949c0.38057,0 0.83726,-0.07612 1.21784,-0.07612c0,0.30446 0,0.60892 0,0.98949z" fill="#d1303e"/><path d="M222.74543,185.1549c-0.38057,0 -0.83726,0 -1.21784,-0.07612c0,-0.30446 0,-0.5328 0,-0.83726c0.38057,0 0.83726,0 1.21784,0c0,0.30446 0,0.60892 0,0.91338z" fill="#d1303e"/><path d="M218.25466,183.86095c0.38057,0.07612 0.76115,0.07612 1.14172,0.15223c0.07612,0.30446 0.07612,0.5328 0.07612,0.76115c-0.38057,-0.07612 -0.76115,-0.15223 -1.21784,-0.22834c0,-0.22834 0,-0.45669 0,-0.68503z" fill="#d1303e"/><path d="M215.97122,184.01318c-0.45669,-0.15223 -0.83726,-0.22834 -1.21784,-0.38057c0,-0.22834 0,-0.45669 0,-0.68503c0.30446,0.07612 0.68503,0.22834 1.14172,0.38057c0,0.22834 0,0.45669 0.07612,0.68503z" fill="#d1303e"/><path d="M231.87919,186.06827c0,-0.98949 -0.07612,-3.42516 -0.91338,-3.42516c-0.98949,0 -14.00511,-0.76115 -16.97358,-0.91338c0.07612,-0.22834 0.07612,-0.38057 0.15223,-0.60892c3.34905,0.15223 16.89747,0.91338 17.50638,0.91338c1.06561,0 1.06561,2.89236 0.98949,3.80574c-0.22834,0.07612 -0.45669,0.15223 -0.76115,0.22834z" fill="#e6818b"/><path d="M231.57474,183.32815c0.30446,-0.07612 0.60892,-0.15223 0.91338,-0.22834c0.07612,0.38057 0.15223,0.68503 0.15223,1.06561c-0.22834,0.07612 -0.5328,0.15223 -0.83726,0.22834c-0.07612,-0.38057 -0.07612,-0.76115 -0.22834,-1.06561z" fill="#d1303e"/><path d="M229.59575,182.567c0.07612,0 0.07612,-0.07612 0.15223,-0.15223c0.07612,-0.07612 0.30446,-0.22834 0.5328,-0.38057c0.83726,0.07612 1.37006,0.07612 1.44618,0.07612h0.07612c-0.45669,0.22834 -0.83726,0.38057 -1.06561,0.5328c-0.30446,-0.07612 -0.68503,-0.07612 -1.14172,-0.07612z" fill="#d1303e"/><path d="M227.2362,182.49088c-0.5328,0 -0.98949,-0.07612 -1.5223,-0.07612c0.07612,0 0.07612,-0.07612 0.07612,-0.07612c0.15223,-0.15223 0.45669,-0.38057 0.76115,-0.5328c0.60892,0 1.21784,0.07612 1.75064,0.07612c-0.45669,0.22834 -0.76115,0.38057 -1.06561,0.60892z" fill="#d1303e"/><path d="M221.90817,182.18642c0.07612,-0.07612 0.07612,-0.07612 0.15223,-0.15223c0.15223,-0.07612 0.38057,-0.22834 0.60892,-0.38057c0.60892,0 1.21784,0.07612 1.75064,0.07612c-0.38057,0.15223 -0.76115,0.38057 -0.98949,0.5328c-0.45669,-0.07612 -0.98949,-0.07612 -1.5223,-0.07612z" fill="#d1303e"/><path d="M220.0053,181.42528c-0.30446,0.22834 -0.5328,0.38057 -0.5328,0.45669c0,0.07612 0,0.07612 0,0.15223c-0.38057,0 -0.76115,-0.07612 -1.14172,-0.07612c0.07612,-0.22834 0.15223,-0.45669 0.30446,-0.60892c0.45669,0.07612 0.91338,0.07612 1.37006,0.07612z" fill="#d1303e"/><path d="M216.42791,181.34916c-0.15223,0.07612 -0.30446,0.22834 -0.30446,0.30446c-0.07612,0.07612 -0.07612,0.15223 -0.07612,0.22834c-0.45669,0 -0.83726,-0.07612 -1.21784,-0.07612c0.07612,-0.22834 0.15223,-0.45669 0.22834,-0.60892c0.45669,0 0.91338,0 1.37006,0.15223z" fill="#d1303e"/><path d="M234.54321,185.38324c-0.22834,0.07612 -0.5328,0.15223 -0.83726,0.22834c0,-0.83726 -0.15223,-3.88185 -0.76115,-4.03408c-2.66402,-0.76115 -16.36466,-1.21784 -18.03919,-1.29395c0.45669,-0.30446 1.06561,-0.60892 1.82675,-0.91338c4.643,0.38057 15.83186,1.37006 16.89747,1.59841c1.06561,0.22834 0.98949,3.27293 0.91338,4.41465z" fill="#e6818b"/><path d="M231.42251,181.27305c0.30446,-0.15223 0.68503,-0.30446 0.98949,-0.45669c0.60892,0.07612 0.98949,0.15223 1.14172,0.15223c0.15223,0 0.22834,0.07612 0.30446,0.15223c-0.30446,0.15223 -0.68503,0.30446 -0.98949,0.45669c-0.30446,-0.15223 -0.76115,-0.22834 -1.44618,-0.30446z" fill="#d1303e"/><path d="M228.14957,180.96859c0.38057,-0.15223 0.68503,-0.30446 1.06561,-0.45669c0.60892,0.07612 1.14172,0.07612 1.67452,0.15223c-0.30446,0.15223 -0.68503,0.30446 -0.98949,0.45669c-0.5328,-0.07612 -1.14172,-0.07612 -1.75064,-0.15223z" fill="#d1303e"/><path d="M224.41995,180.66413c0.38057,-0.15223 0.83726,-0.38057 1.21784,-0.5328c0.5328,0.07612 1.14172,0.07612 1.67452,0.15223c-0.38057,0.22834 -0.76115,0.38057 -1.14172,0.5328c-0.60892,0 -1.21784,-0.07612 -1.75064,-0.15223z" fill="#d1303e"/><path d="M223.126,179.90298c-0.45669,0.15223 -0.91338,0.38057 -1.37006,0.60892c-0.60892,0 -1.21784,-0.07612 -1.82675,-0.07612c0.38057,-0.22834 0.91338,-0.45669 1.44618,-0.68503c0.5328,0.07612 1.14172,0.15223 1.75064,0.15223z" fill="#d1303e"/><path d="M216.19956,180.35967c0.45669,-0.30446 1.06561,-0.60892 1.67452,-0.91338c0.5328,0.07612 1.14172,0.07612 1.75064,0.15223c-0.60892,0.22834 -1.14172,0.5328 -1.67452,0.76115c-0.68503,0 -1.29395,0 -1.75064,0z" fill="#d1303e"/><path d="M233.47761,182.94757c0.30446,-0.07612 0.68503,-0.22834 0.98949,-0.30446c0.07612,0.30446 0.07612,0.68503 0.07612,0.98949c-0.30446,0.07612 -0.60892,0.22834 -0.98949,0.30446c0,-0.38057 -0.07612,-0.68503 -0.07612,-0.98949z" fill="#d1303e"/><path d="M235.5327,185.00267c0.15223,-3.72962 -0.68503,-4.643 -1.37006,-5.02357c-0.60892,-0.30446 -11.64555,-0.91338 -15.45129,-1.14172c0.98949,-0.22834 2.20733,-0.45669 3.50128,-0.5328c3.65351,0.30446 9.286,0.76115 11.8739,1.14172c0.83726,0.38057 1.44618,0.91338 1.82675,1.5223c0.15223,1.21784 0.07612,2.96848 0.07612,3.80574c0,0.07612 -0.22834,0.15223 -0.45669,0.22834z" fill="#e6818b"/><path d="M235.38047,180.35967c-0.22834,0.15223 -0.38057,0.22834 -0.60892,0.30446c-0.15223,-0.30446 -0.38057,-0.45669 -0.60892,-0.60892c0.15223,-0.07612 0.38057,-0.15223 0.5328,-0.22834c0.15223,0.07612 0.30446,0.15223 0.38057,0.22834c0.07612,0.07612 0.07612,0.07612 0.15223,0.15223c0.07612,0.07612 0.15223,0.15223 0.15223,0.15223z" fill="#d1303e"/><path d="M232.33589,179.21795c0.5328,0 1.06561,0.07612 1.5223,0.15223c-0.22834,0.07612 -0.60892,0.22834 -0.91338,0.38057c-0.45669,-0.07612 -0.98949,-0.07612 -1.67452,-0.15223c0.38057,-0.15223 0.76115,-0.30446 1.06561,-0.38057z" fill="#d1303e"/><path d="M228.60626,178.83738c0.5328,0.07612 1.06561,0.07612 1.59841,0.22834c-0.30446,0.15223 -0.68503,0.30446 -1.06561,0.45669c-0.5328,-0.07612 -1.14172,-0.07612 -1.75064,-0.15223c0.38057,-0.22834 0.83726,-0.38057 1.21784,-0.5328z" fill="#d1303e"/><path d="M222.28874,178.30457c0.15223,0 0.22834,0 0.30446,0c-0.45669,0.15223 -0.91338,0.38057 -1.44618,0.60892c-0.68503,0 -1.29395,-0.07612 -1.82675,-0.07612c0.15223,-0.07612 0.38057,-0.15223 0.60892,-0.22834c-0.07612,0 -0.07612,0 0,0c0.68503,-0.15223 1.5223,-0.22834 2.35956,-0.30446z" fill="#d1303e"/><path d="M226.09448,178.60903c-0.38057,0.15223 -0.83726,0.30446 -1.29395,0.5328c-0.60892,0 -1.21784,-0.07612 -1.82675,-0.07612c0.5328,-0.22834 0.98949,-0.45669 1.44618,-0.60892c0.5328,0.07612 1.06561,0.15223 1.67452,0.15223z" fill="#d1303e"/><path d="M235.45658,182.33865c0.22834,-0.07612 0.45669,-0.15223 0.60892,-0.22834c0,0.30446 0,0.60892 0,0.91338c-0.22834,0.07612 -0.38057,0.15223 -0.60892,0.22834c0,-0.38057 -0.07612,-0.68503 0,-0.91338z" fill="#d1303e"/><path d="M230.88971,187.28611c-1.5223,-0.38057 -2.74013,0.38057 -4.26242,0.76115c-1.44618,0.38057 -1.14172,-0.30446 -3.1207,-0.38057c-1.97898,0 -2.51178,0.98949 -4.49077,0.91338c-1.97898,-0.07612 -2.5879,-1.90287 -4.1102,-1.67452c-1.14172,0.15223 -1.97898,-0.83726 -2.43567,-1.67452c0.30446,-0.15223 0.60892,-0.30446 0.91338,-0.45669c0.60892,0.83726 1.29395,1.14172 2.13121,1.06561c1.14172,0 3.04459,1.37006 3.72962,1.90287c0.68503,0.5328 3.04459,-1.06561 4.87134,-0.68503c1.82675,0.38057 2.66402,0.30446 3.95796,-0.30446c1.21784,-0.60892 4.49077,-0.38057 6.16529,-0.30446c1.14172,0.07612 2.20733,-0.91338 2.66402,-1.5223c0.38057,0.22834 0.68503,0.45669 0.98949,0.60892c-1.90287,1.90287 -5.55638,2.13121 -7.00256,1.75064z" fill="#e6818b"/><path d="M224.6483,187.89503c-0.22834,-0.07612 -0.60892,-0.15223 -1.14172,-0.15223l0.22834,-0.76115c0.15223,0 0.22834,0.07612 0.38057,0.07612c0.30446,0.07612 0.5328,0.15223 0.76115,0.15223z" fill="#d1303e"/><path d="M220.61422,187.59057c0.38057,-0.07612 0.83726,-0.22834 1.29395,-0.38057l-0.30446,0.83726c-0.38057,0.15223 -0.83726,0.30446 -1.29395,0.45669z" fill="#d1303e"/><path d="M217.11294,187.97114l0.76115,-1.14172c0.30446,0.22834 0.60892,0.38057 0.91338,0.60892l-0.60892,1.06561c-0.38057,-0.15223 -0.76115,-0.38057 -1.06561,-0.5328z" fill="#d1303e"/><path d="M216.50402,186.14439l-0.91338,0.91338c-0.22834,-0.07612 -0.45669,-0.07612 -0.68503,-0.07612c-0.15223,0.07612 -0.38057,0 -0.5328,0l1.21784,-1.06561c0.22834,-0.07612 0.60892,0.07612 0.91338,0.22834z" fill="#d1303e"/><path d="M212.46994,185.30713c0,-0.07612 0.07612,-0.07612 0.07612,-0.07612c0.15223,-0.07612 0.22834,-0.15223 0.30446,-0.15223c0.07612,-0.07612 0.07612,-0.07612 0.15223,-0.07612c0.07612,-0.07612 0.22834,-0.15223 0.30446,-0.22834c0.07612,0 0.07612,0 0.07612,0c0.15223,0.30446 0.38057,0.45669 0.60892,0.60892l-0.91338,0.76115c-0.22834,-0.22834 -0.45669,-0.60892 -0.60892,-0.83726z" fill="#d1303e"/><path d="M237.28334,186.14439c-0.30446,0.15223 -0.5328,0.30446 -0.83726,0.45669l-0.68503,-0.5328c0.22834,-0.15223 0.45669,-0.30446 0.60892,-0.45669z" fill="#d1303e"/><path d="M232.64034,186.37273c0.30446,0 0.68503,0.07612 0.98949,0.07612l0.45669,0.83726c-0.30446,0.07612 -0.68503,0.15223 -0.98949,0.15223z" fill="#d1303e"/><path d="M231.19416,186.37273l0.15223,1.06561c-0.15223,0 -0.30446,-0.07612 -0.45669,-0.07612c-0.15223,-0.07612 -0.22834,-0.07612 -0.38057,-0.07612l-0.07612,-0.91338c0.30446,0 0.5328,0 0.76115,0z" fill="#d1303e"/><path d="M226.93174,187.20999c0.30446,-0.07612 0.60892,-0.22834 0.98949,-0.38057l0.07612,0.91338c-0.38057,0.15223 -0.76115,0.30446 -1.14172,0.38057z" fill="#d1303e"/><path d="M214.37281,184.01318c0,0 3.95796,2.66402 10.8844,2.43567c6.92644,-0.22834 10.96052,-2.35956 10.96052,-2.35956c0,0 0.15223,0.07612 0.15223,0.5328c0,0 -6.77421,2.81624 -12.25447,2.35956c-7.99204,-0.68503 -9.97103,-2.5879 -9.97103,-2.5879z" fill="#c6aa8b"/></g><g fill="#f0e0da" stroke="#f0e0da"><path d="M225.78158,195.36834c0,0 0.46279,-1.8166 1.06038,-2.30937c0.4369,-0.36025 2.19659,-0.37624 2.19659,-0.37624" stroke-width="3.5" stroke-linecap="round"/><path d="M220.50771,198.18847c0.3879,-2.63293 2.80294,-4.44782 5.39412,-4.05367c2.59119,0.39416 4.37731,2.84809 3.9894,5.48102c-0.3879,2.63293 -2.80294,4.44782 -5.39412,4.05367c-2.59119,-0.39416 -4.37731,-2.84809 -3.9894,-5.48102z" stroke-width="2" stroke-linecap="butt"/><path d="M226.21493,193.90754c0,0 -2.40586,0.02234 -3.62086,-0.83892c-1.215,-0.86128 -1.24695,-2.90388 -1.24695,-2.90388c0,0 2.09393,-0.64622 3.30892,0.21505c1.215,0.86128 1.55889,3.52775 1.55889,3.52775z" stroke-width="2" stroke-linecap="butt"/></g><path d="M225.51671,194.92879c0,0 0.36391,-1.42845 0.83381,-1.81593c0.34354,-0.28328 1.72725,-0.29585 1.72725,-0.29585" fill="none" stroke="#009602" stroke-width="2" stroke-linecap="round"/><path d="M221.3697,198.37277c0.30502,-2.07035 2.20404,-3.49746 4.24157,-3.18753c2.03754,0.30994 3.44201,2.23954 3.13699,4.3099c-0.30502,2.07035 -2.20404,3.49746 -4.24157,3.18753c-2.03754,-0.30994 -3.44201,-2.23954 -3.13699,-4.3099z" fill="#ff4c4c" stroke="#ff0000" stroke-width="2" stroke-linecap="butt"/><path d="M225.61219,193.1669c0,0 -1.52388,0.50814 -2.47927,-0.16909c-0.95539,-0.67725 -0.98052,-2.28341 -0.98052,-2.28341c0,0 1.52388,-0.50814 2.47927,0.16909c0.95539,0.67725 0.98052,2.28341 0.98052,2.28341z" fill="#94e095" stroke="#00e005" stroke-width="2" stroke-linecap="butt"/><g fill="#de7474" stroke="none" stroke-width="1" stroke-linecap="butt"><path d="M216.80848,206.23867c0,-0.42037 0.34078,-0.76115 0.76115,-0.76115c0.42037,0 0.76115,0.34078 0.76115,0.76115c0,0.42037 -0.34078,0.76115 -0.76115,0.76115c-0.42037,0 -0.76115,-0.34078 -0.76115,-0.76115z"/><path d="M231.95531,192.61414c0,-0.42037 0.34078,-0.76115 0.76115,-0.76115c0.42037,0 0.76115,0.34078 0.76115,0.76115c0,0.42037 -0.34078,0.76115 -0.76115,0.76115c-0.42037,0 -0.76115,-0.34078 -0.76115,-0.76115z"/><path d="M232.86869,204.03135c0,-0.42037 0.34078,-0.76115 0.76115,-0.76115c0.42037,0 0.76115,0.34078 0.76115,0.76115c0,0.42037 -0.34078,0.76115 -0.76115,0.76115c-0.42037,0 -0.76115,-0.34078 -0.76115,-0.76115z"/><path d="M226.93174,206.99982c0,-0.42037 0.34078,-0.76115 0.76115,-0.76115c0.42037,0 0.76115,0.34078 0.76115,0.76115c0,0.42037 -0.34078,0.76115 -0.76115,0.76115c-0.42037,0 -0.76115,-0.34078 -0.76115,-0.76115z"/><path d="M217.56963,206.99982c0,-0.42037 0.34078,-0.76115 0.76115,-0.76115c0.42037,0 0.76115,0.34078 0.76115,0.76115c0,0.42037 -0.34078,0.76115 -0.76115,0.76115c-0.42037,0 -0.76115,-0.34078 -0.76115,-0.76115z"/><path d="M230.43302,204.79249c0,-0.42037 0.34078,-0.76115 0.76115,-0.76115c0.42037,0 0.76115,0.34078 0.76115,0.76115c0,0.42037 -0.34078,0.76115 -0.76115,0.76115c-0.42037,0 -0.76115,-0.34078 -0.76115,-0.76115z"/><path d="M216.73237,191.54853c0,-0.42037 0.34078,-0.76115 0.76115,-0.76115c0.42037,0 0.76115,0.34078 0.76115,0.76115c0,0.42037 -0.34078,0.76115 -0.76115,0.76115c-0.42037,0 -0.76115,-0.34078 -0.76115,-0.76115z"/><path d="M226.24671,190.25459c0,-0.42037 0.34078,-0.76115 0.76115,-0.76115c0.42037,0 0.76115,0.34078 0.76115,0.76115c0,0.42037 -0.34078,0.76115 -0.76115,0.76115c-0.42037,0 -0.76115,-0.34078 -0.76115,-0.76115z"/><path d="M219.32027,202.81351c0,-0.42037 0.34078,-0.76115 0.76115,-0.76115c0.42037,0 0.76115,0.34078 0.76115,0.76115c0,0.42037 -0.34078,0.76115 -0.76115,0.76115c-0.42037,0 -0.76115,-0.34078 -0.76115,-0.76115z"/><path d="M224.49607,208.90269c0,-0.42037 0.34078,-0.76115 0.76115,-0.76115c0.42037,0 0.76115,0.34078 0.76115,0.76115c0,0.42037 -0.34078,0.76115 -0.76115,0.76115c-0.42037,0 -0.76115,-0.34078 -0.76115,-0.76115z"/><path d="M230.66136,190.8635c0,-0.42037 0.34078,-0.76115 0.76115,-0.76115c0.42037,0 0.76115,0.34078 0.76115,0.76115c0,0.42037 -0.34078,0.76115 -0.76115,0.76115c-0.42037,0 -0.76115,-0.34078 -0.76115,-0.76115z"/><path d="M218.86358,193.52752c0,-0.42037 0.34078,-0.76115 0.76115,-0.76115c0.42037,0 0.76115,0.34078 0.76115,0.76115c0,0.42037 -0.34078,0.76115 -0.76115,0.76115c-0.42037,0 -0.76115,-0.34078 -0.76115,-0.76115z"/></g></g><g><path d="M265.01826,183.93707c2.89236,2.89236 3.04458,21.54047 -0.15223,25.72678c-3.19682,4.18631 -14.30956,3.04459 -19.10479,1.14172c-4.79523,-1.90287 -3.34904,-15.22294 -3.34904,-20.93154c0,-5.70861 3.57739,-7.7637 7.7637,-8.37262c6.85032,-0.91338 12.48281,0.15222 14.84237,2.43567z" fill="#cfebe2" stroke="none" stroke-width="1" stroke-linecap="butt"/><path d="M264.02877,186.90555c1.59841,2.20733 2.35956,17.73473 0.30446,21.15989c-2.05509,3.42516 -13.16784,3.72962 -17.20192,1.44618c-3.1207,-1.75064 -3.65351,-7.00256 -3.72962,-14.9946c-0.07611,-8.14427 2.74012,-10.04714 5.63248,-10.57994c11.26498,-2.28344 13.4723,0.68503 14.9946,2.96847z" fill="#dd3333" stroke="none" stroke-width="1" stroke-linecap="butt"/><path d="M247.20742,209.51162c-0.45669,-0.22834 -0.83726,-0.60892 -1.21784,-0.9895c3.19682,-1.59841 11.49332,-3.42517 18.1153,-0.07612c-2.5879,3.1207 -13.09173,3.27294 -16.89747,1.06561z" fill="#d42a2a" stroke="none" stroke-width="1" stroke-linecap="butt"/><path d="M251.62207,190.3307c0,-0.42037 0.34078,-0.76114 0.76115,-0.76114c0.42037,0 0.76115,0.34078 0.76115,0.76114c0,0.42037 -0.34078,0.76115 -0.76115,0.76115c-0.42037,0 -0.76115,-0.34078 -0.76115,-0.76115z" fill="#cf2f51" stroke="none" stroke-width="1" stroke-linecap="butt"/><path d="M254.43832,202.2046c-5.48026,0.07611 -9.81879,-1.14172 -12.25446,-2.05509c-0.07611,-2.43567 0,-4.79523 0.07611,-6.92644c1.90287,1.14172 6.62198,2.66402 14.23345,2.0551c5.7086,-0.45669 8.75319,-0.98949 10.65606,-1.75064c0.07611,2.43567 0.07611,5.09969 -0.15223,7.53536c-2.20733,0.45669 -6.16529,1.06561 -12.55892,1.14172z" fill="#f0e0da" stroke="none" stroke-width="1" stroke-linecap="butt"/><g stroke="none" stroke-width="1" stroke-linecap="butt"><path d="M264.63769,184.46987c0.83726,-0.22834 3.65351,1.75064 3.65351,1.75064c0,0 -1.82675,1.44618 -3.50127,2.20733c-1.59841,0.76115 -3.27293,0.30446 -4.49077,0.07611c-1.29395,-0.22834 -2.89236,0.15223 -3.88185,0.5328c-0.98949,0.45669 -1.37007,-0.07612 -3.1207,-0.45669c-1.75064,-0.38057 -4.94745,2.05509 -6.08917,0.60891c-1.14172,-1.44618 -1.90287,-1.59841 -3.72962,-1.21784c-1.82675,0.45669 -2.43567,-2.28344 -2.43567,-2.28344c0.60891,-0.38057 3.1207,-1.67452 3.1207,-1.67452c13.01561,1.82675 20.47485,0.45669 20.47485,0.45669z" fill="#e5e4e1"/><path d="M244.61952,184.31765l-3.12071,2.5879c-0.30446,-0.60891 -0.45668,-1.21784 -0.45668,-1.21784c0.5328,-0.30446 2.35956,-1.29395 2.89236,-1.5984z" fill="#e6818b"/><path d="M246.90296,185.15491l-2.89236,2.81624c-0.15223,0 -0.38057,0 -0.5328,0.07612c-0.38057,0.07611 -0.68503,0.07611 -0.98949,-0.07612l3.57739,-3.04459z" fill="#e6818b"/><path d="M249.33863,185.30713l-2.20733,3.80573c-0.30446,-0.45669 -0.60891,-0.68503 -0.91338,-0.91338l1.97898,-2.96848z" fill="#e6818b"/><path d="M250.48035,185.99216l1.14172,0.30447l-0.91338,2.81624c-0.45669,0.15223 -0.83726,0.30446 -1.29395,0.38057z" fill="#e6818b"/><path d="M253.2966,186.1444l1.14172,0.22834l-0.60891,2.43567c-0.15223,-0.07611 -0.30446,-0.07611 -0.5328,-0.15222c-0.22834,-0.07611 -0.38057,-0.07612 -0.60891,-0.07612z" fill="#e6818b"/><path d="M256.26507,186.06828h0.9895l0.15222,2.66402c-0.38057,0.07611 -0.68503,0.15223 -0.98949,0.30446c-0.07612,0 -0.15223,0.07611 -0.22834,0.07611z" fill="#e6818b"/><path d="M260.22304,188.58007c-0.15223,-0.07611 -0.22834,-0.07611 -0.38057,-0.07611l-0.15223,-2.81625l0.68503,-0.22834l0.5328,3.19682c-0.22834,0 -0.38057,-0.07612 -0.68503,-0.07612z" fill="#e6818b"/><path d="M263.03928,188.88452l-1.44618,-3.57739l0.76114,-0.22835l1.82676,3.65351c-0.45669,0.07611 -0.83726,0.15222 -1.14172,0.15222z" fill="#e6818b"/><path d="M266.69279,187.36223l-3.34905,-2.5879h0.83726l3.42516,1.97898c-0.22834,0.22834 -0.5328,0.38057 -0.91337,0.60891z" fill="#e6818b"/><path d="M244.0106,184.69822c0,0 -1.44618,-2.20733 -0.30446,-3.88185c1.14172,-1.67452 6.16529,-2.74013 12.4067,-2.66402c6.24141,0.07611 11.03664,1.44618 9.28599,6.62198c0,0 -10.57994,4.49077 -21.38823,-0.07612z" fill="#d3d2cf"/><path d="M243.63003,180.9686c0,-0.07611 0.07612,-0.07612 0.07612,-0.15223c1.21784,-1.67452 6.16529,-2.74013 12.4067,-2.66402c4.18631,0.07611 7.68759,0.68503 8.98154,2.66402c-1.52229,0.60891 -4.26243,1.21784 -9.28599,1.59841c-7.45924,0.60891 -10.73217,-0.60891 -12.17835,-1.44618z" fill="#e5e4e1"/><path d="M252.00265,178.22847c-2.13121,0.91338 -6.39363,2.81624 -6.54586,3.34904c-0.30446,0.91338 -0.22834,2.66402 -0.15223,3.57739c-0.38057,-0.15223 -0.83727,-0.30446 -1.21784,-0.45669c-0.07611,-1.14172 -0.15223,-3.12071 0.5328,-3.72962c0.60891,-0.60891 2.89236,-1.67452 4.56689,-2.35956c0.83726,-0.15223 1.82675,-0.22834 2.81624,-0.38057z" fill="#e6818b"/><path d="M248.88194,181.88197c-0.22834,0.83726 0,3.19682 0.15223,4.33854c-0.38057,-0.07611 -0.83727,-0.22835 -1.21784,-0.30446c-0.22834,-1.37007 -0.5328,-3.95796 0.22835,-4.71911c0.76115,-0.76115 4.64299,-2.35956 6.46975,-3.04459c0.5328,0 1.06561,0 1.59841,0c0.15223,0 0.22834,0 0.38057,0c-2.13121,0.91338 -7.45924,3.12071 -7.61147,3.72962z" fill="#e6818b"/><path d="M260.67973,178.53293c-2.43567,1.06561 -8.22039,3.50127 -8.37262,4.11019c-0.30446,0.98949 -0.15223,3.27293 -0.07612,3.95797c-0.38057,0 -0.76115,0 -1.14172,-0.07612c-0.15223,-0.91338 -0.45669,-3.72962 0.38057,-4.56688c0.83726,-0.83726 5.93694,-2.96848 7.68758,-3.65351c0.53281,0.07611 0.9895,0.15223 1.5223,0.22834z" fill="#e6818b"/><path d="M256.03673,183.02369c-0.15223,0.68503 -0.07611,2.51179 0.07611,3.72962c-0.45669,0 -0.83726,0 -1.21783,0c-0.15223,-1.37007 -0.38057,-3.72962 0.30446,-4.41465c0.91337,-0.91338 6.01306,-2.89236 7.15478,-3.34905c0.38057,0.07611 0.68503,0.22834 0.9895,0.38057c-2.35956,0.91338 -7.2309,3.04458 -7.30701,3.6535z" fill="#e6818b"/><path d="M259.38577,186.29663c-0.38057,0.07611 -0.76115,0.15223 -1.14172,0.22834c-0.07611,-1.06561 0.07612,-3.42516 0.83726,-4.18631c0.45669,-0.45669 3.1207,-1.75064 5.02357,-2.5879c0.22834,0.22834 0.45668,0.38057 0.68503,0.60891c-2.13121,0.98949 -5.02357,2.13121 -5.09969,2.51179c-0.22834,0.83726 -0.38057,2.51179 -0.30446,3.42517z" fill="#e6818b"/><path d="M256.03673,178.15235c2.43567,0.07611 4.64299,0.30446 6.31752,0.83726l-6.31752,-0.83726c0,0 0.07611,0 0,0z" fill="#e6818b"/><path d="M259.08131,178.3807c0.5328,0.07611 0.98949,0.15223 1.44618,0.22834c0.07611,0 0.07611,0 0.07611,0c-0.15223,0.07611 -0.22834,0.07612 -0.38057,0.15223l-1.52229,-0.22834c0.15223,-0.07611 0.30446,-0.15223 0.38057,-0.15223z" fill="#d1303e"/><path d="M253.2966,184.24153c6.01306,0 10.73217,-1.67453 12.33058,-2.28344c0.07612,0.30446 0.07612,0.60892 0.07612,0.91338c-2.13121,0.98949 -10.57994,4.33854 -22.22549,0.60891c-0.07611,-0.30446 -0.15222,-0.53281 -0.15222,-0.83726c1.37007,0.60891 4.56688,1.67452 9.97102,1.59841z" fill="#e6818b"/><path d="M259.61412,183.70873c-0.07611,0.30446 -0.15223,0.68503 -0.15223,1.06561c-0.38057,0 -0.83726,0.07612 -1.21784,0.15223c0,-0.38057 0.07612,-0.68503 0.15223,-1.06561c0.38057,-0.07611 0.76114,-0.15223 1.21783,-0.15223z" fill="#d1303e"/><path d="M255.8845,185.15491c-0.38057,0.07611 -0.83726,0.07612 -1.21783,0.07612c0,-0.38057 0,-0.68503 0,-0.9895c0.38057,0 0.83726,-0.07611 1.21783,-0.07611c0,0.30446 0,0.60892 0,0.98949z" fill="#d1303e"/><path d="M252.07876,185.15491c-0.38057,0 -0.83726,-0.00001 -1.21783,-0.07612c0,-0.30446 0,-0.5328 0,-0.83726c0.38057,0 0.83726,0 1.21783,0c0,0.30446 0,0.60892 0,0.91338z" fill="#d1303e"/><path d="M247.58799,183.86095c0.38057,0.07611 0.76115,0.07612 1.14172,0.15223c0.07611,0.30446 0.07612,0.5328 0.07612,0.76114c-0.38057,-0.07611 -0.76115,-0.15223 -1.21784,-0.22834c0,-0.22834 0,-0.45669 0,-0.68503z" fill="#d1303e"/><path d="M245.30455,184.01319c-0.45669,-0.15223 -0.83727,-0.22834 -1.21784,-0.38057c0,-0.22834 0,-0.45669 0,-0.68503c0.30446,0.07611 0.68503,0.22834 1.14172,0.38057c0,0.22834 0.00001,0.45669 0.07612,0.68503z" fill="#d1303e"/><path d="M261.21253,186.06828c0,-0.98949 -0.07612,-3.42516 -0.91338,-3.42516c-0.98949,0 -14.0051,-0.76114 -16.97358,-0.91338c0.07611,-0.22834 0.07611,-0.38057 0.15222,-0.60891c3.34905,0.15223 16.89747,0.91338 17.50638,0.91338c1.06561,0 1.0656,2.89236 0.98949,3.80573c-0.22834,0.07611 -0.45668,0.15223 -0.76114,0.22834z" fill="#e6818b"/><path d="M260.90807,183.32815c0.30446,-0.07611 0.60892,-0.15223 0.91338,-0.22834c0.07611,0.38057 0.15222,0.68503 0.15222,1.06561c-0.22834,0.07611 -0.5328,0.15223 -0.83726,0.22834c-0.07612,-0.38057 -0.07612,-0.76115 -0.22835,-1.06561z" fill="#d1303e"/><path d="M258.92909,182.56701c0.07612,0 0.07612,-0.07612 0.15223,-0.15223c0.07611,-0.07611 0.30446,-0.22834 0.5328,-0.38057c0.83726,0.07611 1.37007,0.07612 1.44618,0.07612h0.07612c-0.45669,0.22834 -0.83726,0.38057 -1.06561,0.5328c-0.30446,-0.07611 -0.68503,-0.07612 -1.14172,-0.07612z" fill="#d1303e"/><path d="M256.56953,182.49089c-0.53281,0 -0.9895,-0.07611 -1.5223,-0.07611c0.07612,0 0.07612,-0.07612 0.07612,-0.07612c0.15223,-0.15223 0.45668,-0.38057 0.76114,-0.5328c0.60892,0 1.21784,0.07612 1.75064,0.07612c-0.45669,0.22834 -0.76114,0.38057 -1.0656,0.60891z" fill="#d1303e"/><path d="M251.2415,182.18643c0.07611,-0.07611 0.07612,-0.07611 0.15223,-0.15222c0.15223,-0.07611 0.38057,-0.22834 0.60892,-0.38057c0.60891,0 1.21783,0.07612 1.75064,0.07612c-0.38057,0.15223 -0.76115,0.38057 -0.98949,0.5328c-0.45669,-0.07611 -0.98949,-0.07611 -1.5223,-0.07611z" fill="#d1303e"/><path d="M249.33863,181.42529c-0.30446,0.22834 -0.5328,0.38057 -0.5328,0.45668c0,0.07611 0,0.07612 0,0.15223c-0.38057,0 -0.76115,-0.07612 -1.14172,-0.07612c0.07611,-0.22834 0.15223,-0.45669 0.30446,-0.60892c0.45669,0.07611 0.91337,0.07612 1.37006,0.07612z" fill="#d1303e"/><path d="M245.76124,181.34917c-0.15223,0.07611 -0.30446,0.22835 -0.30446,0.30446c-0.07611,0.07611 -0.07611,0.15223 -0.07611,0.22834c-0.45669,0 -0.83726,-0.07611 -1.21784,-0.07611c0.07611,-0.22834 0.15223,-0.45669 0.22834,-0.60892c0.45669,0 0.91337,0 1.37006,0.15223z" fill="#d1303e"/><path d="M263.87654,185.38325c-0.22834,0.07611 -0.53281,0.15223 -0.83726,0.22835c0,-0.83726 -0.15223,-3.88185 -0.76115,-4.03408c-2.66402,-0.76115 -16.36466,-1.21784 -18.03918,-1.29395c0.45669,-0.30446 1.06561,-0.60891 1.82675,-0.91338c4.643,0.38057 15.83186,1.37006 16.89747,1.59841c1.06561,0.22834 0.98949,3.27293 0.91337,4.41465z" fill="#e6818b"/><path d="M260.75584,181.27305c0.30446,-0.15223 0.68503,-0.30445 0.98949,-0.45668c0.60892,0.07611 0.98949,0.15223 1.14172,0.15223c0.15223,0 0.22835,0.07612 0.30446,0.15223c-0.30446,0.15223 -0.68503,0.30446 -0.98949,0.45669c-0.30446,-0.15223 -0.76115,-0.22835 -1.44618,-0.30446z" fill="#d1303e"/><path d="M257.48291,180.9686c0.38057,-0.15223 0.68503,-0.30446 1.06561,-0.45669c0.60892,0.07611 1.14172,0.07612 1.67453,0.15223c-0.30446,0.15223 -0.68503,0.30446 -0.98949,0.45669c-0.53281,-0.07611 -1.14172,-0.07612 -1.75064,-0.15223z" fill="#d1303e"/><path d="M253.75329,180.66414c0.38057,-0.15223 0.83726,-0.38057 1.21783,-0.5328c0.53281,0.07611 1.14172,0.07612 1.67453,0.15223c-0.38057,0.22834 -0.76115,0.38057 -1.14172,0.5328c-0.60892,0 -1.21783,-0.07612 -1.75064,-0.15223z" fill="#d1303e"/><path d="M252.45933,179.90299c-0.45669,0.15223 -0.91337,0.38057 -1.37006,0.60892c-0.60891,0 -1.21784,-0.07612 -1.82675,-0.07612c0.38057,-0.22834 0.91338,-0.45668 1.44618,-0.68503c0.5328,0.07611 1.14172,0.15223 1.75064,0.15223z" fill="#d1303e"/><path d="M245.53289,180.35968c0.45669,-0.30446 1.06561,-0.60891 1.67452,-0.91337c0.5328,0.07611 1.14172,0.07611 1.75064,0.15222c-0.60891,0.22834 -1.14172,0.5328 -1.67452,0.76115c-0.68503,0 -1.29395,0 -1.75064,0z" fill="#d1303e"/><path d="M262.81094,182.94758c0.30446,-0.07611 0.68503,-0.22835 0.98949,-0.30446c0.07611,0.30446 0.07612,0.68503 0.07612,0.98949c-0.30446,0.07611 -0.60892,0.22835 -0.9895,0.30446c0,-0.38057 -0.07611,-0.68503 -0.07611,-0.98949z" fill="#d1303e"/><path d="M264.86603,185.00268c0.15223,-3.72962 -0.68503,-4.64299 -1.37007,-5.02357c-0.60891,-0.30446 -11.64555,-0.91338 -15.45128,-1.14172c0.98949,-0.22834 2.20732,-0.45669 3.50127,-0.5328c3.65351,0.30446 9.28599,0.76115 11.87389,1.14172c0.83726,0.38057 1.44619,0.91337 1.82675,1.52229c0.15223,1.21784 0.07612,2.96848 0.07612,3.80573c0,0.07611 -0.22834,0.15223 -0.45669,0.22834z" fill="#e6818b"/><path d="M264.71381,180.35968c-0.22834,0.15223 -0.38058,0.22835 -0.60892,0.30446c-0.15223,-0.30446 -0.38057,-0.45668 -0.60892,-0.60891c0.15223,-0.07611 0.38058,-0.15223 0.53281,-0.22834c0.15223,0.07611 0.30446,0.15223 0.38057,0.22834c0.07611,0.07611 0.07612,0.07612 0.15223,0.15223c0.07612,0.07611 0.15223,0.15223 0.15223,0.15223z" fill="#d1303e"/><path d="M261.66922,179.21796c0.5328,0 1.06561,0.07612 1.52229,0.15223c-0.22834,0.07611 -0.60892,0.22834 -0.91337,0.38057c-0.45669,-0.07611 -0.9895,-0.07612 -1.67453,-0.15223c0.38057,-0.15223 0.76115,-0.30446 1.06561,-0.38057z" fill="#d1303e"/><path d="M257.93959,178.83739c0.5328,0.07611 1.06561,0.07611 1.59841,0.22834c-0.30446,0.15223 -0.68503,0.30446 -1.06561,0.45669c-0.53281,-0.07611 -1.14172,-0.07612 -1.75064,-0.15223c0.38057,-0.22834 0.83726,-0.38057 1.21783,-0.5328z" fill="#d1303e"/><path d="M251.62207,178.30458c0.15223,0 0.22835,0 0.30446,0c-0.45669,0.15223 -0.91338,0.38057 -1.44618,0.60891c-0.68503,0 -1.29395,-0.07611 -1.82675,-0.07611c0.15223,-0.07611 0.38057,-0.15223 0.60891,-0.22834c-0.07611,0 -0.07611,0 0,0c0.68503,-0.15223 1.5223,-0.22835 2.35956,-0.30446z" fill="#d1303e"/><path d="M255.42781,178.60904c-0.38057,0.15223 -0.83726,0.30446 -1.29395,0.5328c-0.60892,0 -1.21784,-0.07612 -1.82675,-0.07612c0.5328,-0.22834 0.98949,-0.45668 1.44618,-0.60891c0.53281,0.07611 1.06561,0.15223 1.67452,0.15223z" fill="#d1303e"/><path d="M264.78992,182.33866c0.22834,-0.07611 0.45668,-0.15223 0.60892,-0.22835c0,0.30446 0,0.60891 0,0.91338c-0.22834,0.07611 -0.38057,0.15223 -0.60892,0.22835c0,-0.38057 -0.07611,-0.68503 0,-0.91338z" fill="#d1303e"/><path d="M260.22304,187.28612c-1.52229,-0.38057 -2.74013,0.38057 -4.26242,0.76115c-1.44618,0.38057 -1.14172,-0.30446 -3.1207,-0.38057c-1.97898,0 -2.51179,0.98949 -4.49077,0.91338c-1.97898,-0.07611 -2.5879,-1.90286 -4.1102,-1.67452c-1.14172,0.15223 -1.97898,-0.83726 -2.43568,-1.67452c0.30446,-0.15223 0.60892,-0.30446 0.91338,-0.45669c0.60891,0.83726 1.29395,1.14172 2.13121,1.06561c1.14172,0 3.04459,1.37006 3.72962,1.90287c0.68503,0.5328 3.04459,-1.06561 4.87135,-0.68503c1.82675,0.38057 2.66401,0.30446 3.95796,-0.30446c1.21784,-0.60891 4.49077,-0.38057 6.1653,-0.30446c1.14172,0.07611 2.20732,-0.91338 2.66401,-1.5223c0.38057,0.22834 0.68503,0.45668 0.98949,0.60891c-1.90287,1.90287 -5.55638,2.13121 -7.00256,1.75064z" fill="#e6818b"/><path d="M253.98163,187.89503c-0.22834,-0.07611 -0.60891,-0.15223 -1.14172,-0.15223l0.22834,-0.76114c0.15223,0 0.22834,0.07612 0.38058,0.07612c0.30446,0.07611 0.5328,0.15223 0.76114,0.15223z" fill="#d1303e"/><path d="M249.94755,187.59058c0.38057,-0.07611 0.83726,-0.22834 1.29395,-0.38057l-0.30446,0.83726c-0.38057,0.15223 -0.83726,0.30446 -1.29395,0.45669z" fill="#d1303e"/><path d="M246.44627,187.97115l0.76115,-1.14172c0.30446,0.22834 0.60891,0.38057 0.91337,0.60891l-0.60891,1.06561c-0.38057,-0.15223 -0.76115,-0.38057 -1.06561,-0.5328z" fill="#d1303e"/><path d="M245.83735,186.1444l-0.91338,0.91338c-0.22834,-0.07611 -0.45669,-0.07612 -0.68503,-0.07612c-0.15223,0.07611 -0.38057,0 -0.5328,0l1.21784,-1.06561c0.22834,-0.07611 0.60891,0.07611 0.91338,0.22834z" fill="#d1303e"/><path d="M241.80327,185.30713c0,-0.07611 0.07612,-0.07612 0.07612,-0.07612c0.15223,-0.07611 0.22835,-0.15223 0.30446,-0.15223c0.07611,-0.07611 0.07611,-0.07611 0.15222,-0.07611c0.07611,-0.07611 0.22835,-0.15223 0.30446,-0.22834c0.07611,0 0.07612,0 0.07612,0c0.15223,0.30446 0.38057,0.45668 0.60891,0.60891l-0.91338,0.76115c-0.22834,-0.22834 -0.45669,-0.60891 -0.60892,-0.83726z" fill="#d1303e"/><path d="M266.61667,186.1444c-0.30446,0.15223 -0.53281,0.30446 -0.83726,0.45669l-0.68503,-0.5328c0.22834,-0.15223 0.45668,-0.30446 0.60892,-0.45669z" fill="#d1303e"/><path d="M261.97367,186.37274c0.30446,0 0.68503,0.07612 0.9895,0.07612l0.45668,0.83726c-0.30446,0.07611 -0.68503,0.15222 -0.98949,0.15222z" fill="#d1303e"/><path d="M260.52749,186.37274l0.15223,1.06561c-0.15223,0 -0.30446,-0.07612 -0.45669,-0.07612c-0.15223,-0.07611 -0.22834,-0.07611 -0.38057,-0.07611l-0.07611,-0.91338c0.30446,0 0.5328,0 0.76115,0z" fill="#d1303e"/><path d="M256.26507,187.21c0.30446,-0.07611 0.60892,-0.22835 0.9895,-0.38058l0.07611,0.91338c-0.38057,0.15223 -0.76115,0.30446 -1.14172,0.38057z" fill="#d1303e"/><path d="M243.70614,184.01319c0,0 3.95796,2.66402 10.8844,2.43567c6.92644,-0.22834 10.96052,-2.35956 10.96052,-2.35956c0,0 0.15223,0.07611 0.15223,0.5328c0,0 -6.77421,2.81625 -12.25446,2.35956c-7.99205,-0.68503 -9.97103,-2.5879 -9.97103,-2.5879z" fill="#c6aa8b"/></g><g fill="#f0e0da" stroke="#f0e0da"><path d="M255.11491,195.36835c0,0 0.46279,-1.8166 1.06038,-2.30937c0.4369,-0.36025 2.19659,-0.37625 2.19659,-0.37625" stroke-width="3.5" stroke-linecap="round"/><path d="M249.84104,198.18847c0.3879,-2.63292 2.80294,-4.44781 5.39412,-4.05367c2.59119,0.39416 4.37731,2.84809 3.9894,5.48102c-0.3879,2.63293 -2.80293,4.44781 -5.39412,4.05367c-2.5912,-0.39416 -4.37731,-2.84809 -3.98941,-5.48102z" stroke-width="2" stroke-linecap="butt"/><path d="M255.54826,193.90755c0,0 -2.40586,0.02234 -3.62086,-0.83892c-1.215,-0.86128 -1.24695,-2.90388 -1.24695,-2.90388c0,0 2.09392,-0.64622 3.30892,0.21505c1.215,0.86128 1.55888,3.52775 1.55888,3.52775z" stroke-width="2" stroke-linecap="butt"/></g><path d="M254.85004,194.9288c0,0 0.36391,-1.42846 0.83381,-1.81593c0.34355,-0.28328 1.72725,-0.29585 1.72725,-0.29585" fill="none" stroke="#009602" stroke-width="2" stroke-linecap="round"/><path d="M250.70304,198.37278c0.30502,-2.07035 2.20404,-3.49746 4.24157,-3.18753c2.03754,0.30994 3.44201,2.23954 3.13699,4.3099c-0.30502,2.07035 -2.20404,3.49745 -4.24157,3.18753c-2.03753,-0.30994 -3.44201,-2.23954 -3.13699,-4.3099z" fill="#ff4c4c" stroke="#ff0000" stroke-width="2" stroke-linecap="butt"/><path d="M254.94552,193.16691c0,0 -1.52387,0.50815 -2.47926,-0.16909c-0.95539,-0.67725 -0.98052,-2.28341 -0.98052,-2.28341c0,0 1.52388,-0.50815 2.47927,0.16909c0.95539,0.67725 0.98051,2.28341 0.98051,2.28341z" fill="#94e095" stroke="#00e005" stroke-width="2" stroke-linecap="butt"/><g fill="#de7474" stroke="none" stroke-width="1" stroke-linecap="butt"><path d="M246.14181,206.23868c0,-0.42037 0.34078,-0.76114 0.76115,-0.76114c0.42037,0 0.76115,0.34078 0.76115,0.76114c0,0.42037 -0.34078,0.76115 -0.76115,0.76115c-0.42037,0 -0.76115,-0.34078 -0.76115,-0.76115z"/><path d="M261.28864,192.61415c0,-0.42037 0.34078,-0.76114 0.76115,-0.76114c0.42037,0 0.76115,0.34078 0.76115,0.76114c0,0.42037 -0.34078,0.76115 -0.76115,0.76115c-0.42037,0 -0.76115,-0.34078 -0.76115,-0.76115z"/><path d="M262.20202,204.03136c0,-0.42037 0.34078,-0.76115 0.76115,-0.76115c0.42037,0 0.76114,0.34078 0.76114,0.76115c0,0.42037 -0.34078,0.76114 -0.76114,0.76114c-0.42037,0 -0.76115,-0.34078 -0.76115,-0.76114z"/><path d="M256.26507,206.99983c0,-0.42037 0.34078,-0.76115 0.76115,-0.76115c0.42037,0 0.76115,0.34078 0.76115,0.76115c0,0.42037 -0.34078,0.76115 -0.76115,0.76115c-0.42037,0 -0.76115,-0.34078 -0.76115,-0.76115z"/><path d="M246.90296,206.99983c0,-0.42037 0.34078,-0.76115 0.76115,-0.76115c0.42037,0 0.76114,0.34078 0.76114,0.76115c0,0.42037 -0.34078,0.76115 -0.76114,0.76115c-0.42037,0 -0.76115,-0.34078 -0.76115,-0.76115z"/><path d="M259.76635,204.7925c0,-0.42037 0.34078,-0.76114 0.76115,-0.76114c0.42037,0 0.76115,0.34078 0.76115,0.76114c0,0.42037 -0.34078,0.76115 -0.76115,0.76115c-0.42037,0 -0.76115,-0.34078 -0.76115,-0.76115z"/><path d="M246.0657,191.54854c0,-0.42037 0.34078,-0.76115 0.76115,-0.76115c0.42037,0 0.76114,0.34078 0.76114,0.76115c0,0.42037 -0.34078,0.76114 -0.76114,0.76114c-0.42037,0 -0.76115,-0.34078 -0.76115,-0.76114z"/><path d="M255.58004,190.25459c0,-0.42037 0.34078,-0.76115 0.76115,-0.76115c0.42037,0 0.76115,0.34078 0.76115,0.76115c0,0.42037 -0.34078,0.76115 -0.76115,0.76115c-0.42037,0 -0.76115,-0.34078 -0.76115,-0.76115z"/><path d="M248.6536,202.81352c0,-0.42037 0.34078,-0.76115 0.76115,-0.76115c0.42037,0 0.76114,0.34078 0.76114,0.76115c0,0.42037 -0.34078,0.76114 -0.76114,0.76114c-0.42037,0 -0.76115,-0.34078 -0.76115,-0.76114z"/><path d="M253.8294,208.9027c0,-0.42037 0.34078,-0.76115 0.76115,-0.76115c0.42037,0 0.76114,0.34078 0.76114,0.76115c0,0.42037 -0.34078,0.76114 -0.76114,0.76114c-0.42037,0 -0.76115,-0.34078 -0.76115,-0.76114z"/><path d="M259.99469,190.86351c0,-0.42037 0.34078,-0.76114 0.76115,-0.76114c0.42037,0 0.76114,0.34078 0.76114,0.76114c0,0.42037 -0.34078,0.76115 -0.76114,0.76115c-0.42037,0 -0.76115,-0.34078 -0.76115,-0.76115z"/><path d="M248.19691,193.52752c0,-0.42037 0.34078,-0.76114 0.76114,-0.76114c0.42037,0 0.76115,0.34078 0.76115,0.76114c0,0.42037 -0.34078,0.76115 -0.76115,0.76115c-0.42037,0 -0.76114,-0.34078 -0.76114,-0.76115z"/></g></g><g><path d="M250.01826,153.2704c2.89236,2.89236 3.04459,21.54047 -0.15223,25.72678c-3.19682,4.18631 -14.30956,3.04459 -19.10479,1.14172c-4.79523,-1.90287 -3.34904,-15.22294 -3.34904,-20.93154c0,-5.70861 3.57739,-7.7637 7.7637,-8.37262c6.85032,-0.91338 12.48281,0.15222 14.84237,2.43567z" fill="#cfebe2" stroke="none" stroke-width="1" stroke-linecap="butt"/><path d="M249.02877,156.23888c1.59841,2.20733 2.35955,17.73473 0.30446,21.15989c-2.05509,3.42516 -13.16785,3.72962 -17.20193,1.44618c-3.1207,-1.75064 -3.65351,-7.00256 -3.72962,-14.9946c-0.07611,-8.14427 2.74012,-10.04714 5.63248,-10.57994c11.26498,-2.28344 13.47231,0.68503 14.9946,2.96847z" fill="#dd3333" stroke="none" stroke-width="1" stroke-linecap="butt"/><path d="M232.20742,178.84495c-0.45669,-0.22834 -0.83726,-0.60892 -1.21784,-0.9895c3.19682,-1.59841 11.49332,-3.42517 18.11531,-0.07612c-2.5879,3.1207 -13.09173,3.27294 -16.89747,1.06561z" fill="#d42a2a" stroke="none" stroke-width="1" stroke-linecap="butt"/><path d="M236.62207,159.66404c0,-0.42037 0.34078,-0.76114 0.76115,-0.76114c0.42037,0 0.76115,0.34078 0.76115,0.76114c0,0.42037 -0.34078,0.76115 -0.76115,0.76115c-0.42037,0 -0.76115,-0.34078 -0.76115,-0.76115z" fill="#cf2f51" stroke="none" stroke-width="1" stroke-linecap="butt"/><path d="M239.43832,171.53793c-5.48026,0.07611 -9.81879,-1.14172 -12.25446,-2.05509c-0.07611,-2.43567 0,-4.79523 0.07611,-6.92644c1.90287,1.14172 6.62198,2.66402 14.23345,2.0551c5.70861,-0.45669 8.75319,-0.98949 10.65606,-1.75064c0.07611,2.43567 0.07611,5.09969 -0.15223,7.53536c-2.20733,0.45669 -6.16529,1.06561 -12.55892,1.14172z" fill="#f0e0da" stroke="none" stroke-width="1" stroke-linecap="butt"/><g stroke="none" stroke-width="1" stroke-linecap="butt"><path d="M249.63769,153.80321c0.83726,-0.22834 3.65351,1.75064 3.65351,1.75064c0,0 -1.82675,1.44618 -3.50128,2.20733c-1.59841,0.76115 -3.27293,0.30446 -4.49077,0.07611c-1.29395,-0.22834 -2.89236,0.15223 -3.88185,0.5328c-0.98949,0.45669 -1.37007,-0.07612 -3.12071,-0.45669c-1.75064,-0.38057 -4.94745,2.05509 -6.08917,0.60891c-1.14172,-1.44618 -1.90287,-1.59841 -3.72962,-1.21784c-1.82675,0.45669 -2.43567,-2.28344 -2.43567,-2.28344c0.60891,-0.38057 3.1207,-1.67452 3.1207,-1.67452c13.01561,1.82675 20.47485,0.45669 20.47485,0.45669z" fill="#e5e4e1"/><path d="M229.61952,153.65098l-3.12071,2.5879c-0.30446,-0.60891 -0.45668,-1.21784 -0.45668,-1.21784c0.5328,-0.30446 2.35956,-1.29395 2.89236,-1.5984z" fill="#e6818b"/><path d="M231.90296,154.48824l-2.89236,2.81624c-0.15223,0 -0.38057,0 -0.5328,0.07612c-0.38057,0.07611 -0.68503,0.07611 -0.98949,-0.07612l3.57739,-3.04459z" fill="#e6818b"/><path d="M234.33863,154.64047l-2.20733,3.80573c-0.30446,-0.45669 -0.60891,-0.68503 -0.91338,-0.91338l1.97898,-2.96848z" fill="#e6818b"/><path d="M235.48035,155.3255l1.14172,0.30447l-0.91338,2.81624c-0.45669,0.15223 -0.83726,0.30446 -1.29395,0.38057z" fill="#e6818b"/><path d="M238.2966,155.47773l1.14172,0.22834l-0.60891,2.43567c-0.15223,-0.07611 -0.30446,-0.07611 -0.5328,-0.15222c-0.22834,-0.07611 -0.38057,-0.07612 -0.60891,-0.07612z" fill="#e6818b"/><path d="M241.26507,155.40162h0.9895l0.15223,2.66402c-0.38057,0.07611 -0.68503,0.15223 -0.98949,0.30446c-0.07611,0 -0.15223,0.07611 -0.22834,0.07611z" fill="#e6818b"/><path d="M245.22304,157.9134c-0.15223,-0.07611 -0.22834,-0.07611 -0.38057,-0.07611l-0.15223,-2.81625l0.68503,-0.22834l0.5328,3.19682c-0.22834,0 -0.38057,-0.07612 -0.68503,-0.07612z" fill="#e6818b"/><path d="M248.03928,158.21786l-1.44618,-3.57739l0.76114,-0.22835l1.82676,3.65351c-0.45669,0.07611 -0.83726,0.15222 -1.14172,0.15222z" fill="#e6818b"/><path d="M251.69279,156.69557l-3.34905,-2.5879h0.83726l3.42517,1.97898c-0.22834,0.22834 -0.53281,0.38057 -0.91337,0.60891z" fill="#e6818b"/><path d="M229.0106,154.03155c0,0 -1.44618,-2.20733 -0.30446,-3.88185c1.14172,-1.67452 6.16529,-2.74013 12.4067,-2.66402c6.24141,0.07611 11.03664,1.44618 9.28599,6.62198c0,0 -10.57994,4.49077 -21.38823,-0.07612z" fill="#d3d2cf"/><path d="M228.63003,150.30193c0,-0.07611 0.07612,-0.07612 0.07612,-0.15223c1.21784,-1.67452 6.16529,-2.74013 12.4067,-2.66402c4.18631,0.07611 7.68759,0.68503 8.98154,2.66402c-1.5223,0.60891 -4.26243,1.21784 -9.286,1.59841c-7.45925,0.60891 -10.73218,-0.60891 -12.17836,-1.44618z" fill="#e5e4e1"/><path d="M237.00265,147.5618c-2.13121,0.91338 -6.39363,2.81624 -6.54586,3.34904c-0.30446,0.91338 -0.22834,2.66402 -0.15223,3.57739c-0.38057,-0.15223 -0.83727,-0.30446 -1.21784,-0.45669c-0.07611,-1.14172 -0.15223,-3.12071 0.5328,-3.72962c0.60891,-0.60891 2.89236,-1.67452 4.56689,-2.35956c0.83726,-0.15223 1.82675,-0.22834 2.81624,-0.38057z" fill="#e6818b"/><path d="M233.88194,151.21531c-0.22834,0.83726 0,3.19682 0.15223,4.33854c-0.38057,-0.07611 -0.83727,-0.22835 -1.21784,-0.30446c-0.22834,-1.37007 -0.5328,-3.95796 0.22835,-4.71911c0.76115,-0.76115 4.64299,-2.35956 6.46975,-3.04459c0.5328,0 1.06561,0 1.59841,0c0.15223,0 0.22834,0 0.38057,0c-2.13121,0.91338 -7.45924,3.12071 -7.61147,3.72962z" fill="#e6818b"/><path d="M245.67973,147.86626c-2.43567,1.06561 -8.22039,3.50127 -8.37262,4.11019c-0.30446,0.98949 -0.15223,3.27293 -0.07612,3.95797c-0.38057,0 -0.76115,0 -1.14172,-0.07612c-0.15223,-0.91338 -0.45669,-3.72962 0.38057,-4.56688c0.83726,-0.83726 5.93694,-2.96848 7.68758,-3.65351c0.5328,0.07611 0.9895,0.15223 1.5223,0.22834z" fill="#e6818b"/><path d="M241.03673,152.35703c-0.15223,0.68503 -0.07611,2.51179 0.07612,3.72962c-0.45669,0 -0.83726,0 -1.21784,0c-0.15223,-1.37007 -0.38057,-3.72962 0.30446,-4.41465c0.91338,-0.91338 6.01306,-2.89236 7.15478,-3.34905c0.38057,0.07611 0.68503,0.22834 0.9895,0.38057c-2.35956,0.91338 -7.2309,3.04458 -7.30701,3.6535z" fill="#e6818b"/><path d="M244.38577,155.62996c-0.38057,0.07611 -0.76115,0.15223 -1.14172,0.22834c-0.07611,-1.06561 0.07612,-3.42516 0.83726,-4.18631c0.45669,-0.45669 3.1207,-1.75064 5.02357,-2.5879c0.22834,0.22834 0.45669,0.38057 0.68503,0.60891c-2.13121,0.98949 -5.02358,2.13121 -5.09969,2.51179c-0.22834,0.83726 -0.38057,2.51179 -0.30446,3.42517z" fill="#e6818b"/><path d="M241.03673,147.48568c2.43567,0.07611 4.643,0.30446 6.31752,0.83726l-6.31752,-0.83726c0,0 0.07611,0 0,0z" fill="#e6818b"/><path d="M244.08131,147.71403c0.5328,0.07611 0.98949,0.15223 1.44618,0.22834c0.07611,0 0.07611,0 0.07611,0c-0.15223,0.07611 -0.22834,0.07612 -0.38057,0.15223l-1.5223,-0.22834c0.15223,-0.07611 0.30446,-0.15223 0.38057,-0.15223z" fill="#d1303e"/><path d="M238.2966,153.57486c6.01307,0 10.73218,-1.67453 12.33059,-2.28344c0.07611,0.30446 0.07611,0.60892 0.07611,0.91338c-2.13121,0.98949 -10.57995,4.33854 -22.22549,0.60891c-0.07611,-0.30446 -0.15222,-0.53281 -0.15222,-0.83726c1.37007,0.60891 4.56688,1.67452 9.97102,1.59841z" fill="#e6818b"/><path d="M244.61412,153.04206c-0.07611,0.30446 -0.15223,0.68503 -0.15223,1.06561c-0.38057,0 -0.83726,0.07612 -1.21784,0.15223c0,-0.38057 0.07612,-0.68503 0.15223,-1.06561c0.38057,-0.07611 0.76114,-0.15223 1.21784,-0.15223z" fill="#d1303e"/><path d="M240.8845,154.48824c-0.38057,0.07611 -0.83726,0.07612 -1.21783,0.07612c0,-0.38057 0,-0.68503 0,-0.9895c0.38057,0 0.83726,-0.07611 1.21783,-0.07611c0,0.30446 0,0.60892 0,0.98949z" fill="#d1303e"/><path d="M237.07876,154.48824c-0.38057,0 -0.83726,-0.00001 -1.21783,-0.07612c0,-0.30446 0,-0.5328 0,-0.83726c0.38057,0 0.83726,0 1.21783,0c0,0.30446 0,0.60892 0,0.91338z" fill="#d1303e"/><path d="M232.58799,153.19429c0.38057,0.07611 0.76115,0.07612 1.14172,0.15223c0.07611,0.30446 0.07612,0.5328 0.07612,0.76114c-0.38057,-0.07611 -0.76115,-0.15223 -1.21784,-0.22834c0,-0.22834 0,-0.45669 0,-0.68503z" fill="#d1303e"/><path d="M230.30455,153.34652c-0.45669,-0.15223 -0.83727,-0.22834 -1.21784,-0.38057c0,-0.22834 0,-0.45669 0,-0.68503c0.30446,0.07611 0.68503,0.22834 1.14172,0.38057c0,0.22834 0.00001,0.45669 0.07612,0.68503z" fill="#d1303e"/><path d="M246.21253,155.40162c0,-0.98949 -0.07612,-3.42516 -0.91338,-3.42516c-0.98949,0 -14.0051,-0.76114 -16.97358,-0.91338c0.07611,-0.22834 0.07611,-0.38057 0.15222,-0.60891c3.34905,0.15223 16.89747,0.91338 17.50638,0.91338c1.06561,0 1.06561,2.89236 0.98949,3.80573c-0.22834,0.07611 -0.45668,0.15223 -0.76114,0.22834z" fill="#e6818b"/><path d="M245.90807,152.66149c0.30446,-0.07611 0.60892,-0.15223 0.91338,-0.22834c0.07611,0.38057 0.15222,0.68503 0.15222,1.06561c-0.22834,0.07611 -0.5328,0.15223 -0.83726,0.22834c-0.07611,-0.38057 -0.07612,-0.76115 -0.22835,-1.06561z" fill="#d1303e"/><path d="M243.92909,151.90034c0.07611,0 0.07611,-0.07612 0.15222,-0.15223c0.07611,-0.07611 0.30446,-0.22834 0.5328,-0.38057c0.83726,0.07611 1.37007,0.07612 1.44618,0.07612h0.07612c-0.45669,0.22834 -0.83725,0.38057 -1.06561,0.5328c-0.30446,-0.07611 -0.68503,-0.07612 -1.14172,-0.07612z" fill="#d1303e"/><path d="M241.56953,151.82422c-0.5328,0 -0.9895,-0.07611 -1.5223,-0.07611c0.07611,0 0.07612,-0.07612 0.07612,-0.07612c0.15223,-0.15223 0.45668,-0.38057 0.76114,-0.5328c0.60891,0 1.21784,0.07612 1.75064,0.07612c-0.45669,0.22834 -0.76114,0.38057 -1.0656,0.60891z" fill="#d1303e"/><path d="M236.2415,151.51976c0.07611,-0.07611 0.07612,-0.07611 0.15223,-0.15222c0.15223,-0.07611 0.38057,-0.22834 0.60892,-0.38057c0.60891,0 1.21783,0.07612 1.75064,0.07612c-0.38057,0.15223 -0.76115,0.38057 -0.98949,0.5328c-0.45669,-0.07611 -0.98949,-0.07611 -1.5223,-0.07611z" fill="#d1303e"/><path d="M234.33863,150.75862c-0.30446,0.22834 -0.5328,0.38057 -0.5328,0.45668c0,0.07611 0,0.07612 0,0.15223c-0.38057,0 -0.76115,-0.07612 -1.14172,-0.07612c0.07611,-0.22834 0.15223,-0.45669 0.30446,-0.60892c0.45669,0.07611 0.91337,0.07612 1.37006,0.07612z" fill="#d1303e"/><path d="M230.76124,150.6825c-0.15223,0.07611 -0.30446,0.22835 -0.30446,0.30446c-0.07611,0.07611 -0.07611,0.15223 -0.07611,0.22834c-0.45669,0 -0.83726,-0.07611 -1.21784,-0.07611c0.07611,-0.22834 0.15223,-0.45669 0.22834,-0.60892c0.45669,0 0.91337,0 1.37006,0.15223z" fill="#d1303e"/><path d="M248.87654,154.71658c-0.22834,0.07611 -0.53281,0.15223 -0.83726,0.22835c0,-0.83726 -0.15223,-3.88185 -0.76115,-4.03408c-2.66402,-0.76115 -16.36466,-1.21784 -18.03919,-1.29395c0.45669,-0.30446 1.06561,-0.60891 1.82675,-0.91338c4.643,0.38057 15.83186,1.37006 16.89747,1.59841c1.06561,0.22834 0.98949,3.27293 0.91338,4.41465z" fill="#e6818b"/><path d="M245.75584,150.60639c0.30446,-0.15223 0.68503,-0.30445 0.98949,-0.45668c0.60891,0.07611 0.98949,0.15223 1.14172,0.15223c0.15223,0 0.22835,0.07612 0.30446,0.15223c-0.30446,0.15223 -0.68503,0.30446 -0.98949,0.45669c-0.30446,-0.15223 -0.76115,-0.22835 -1.44618,-0.30446z" fill="#d1303e"/><path d="M242.48291,150.30193c0.38057,-0.15223 0.68503,-0.30446 1.06561,-0.45669c0.60891,0.07611 1.14172,0.07612 1.67453,0.15223c-0.30446,0.15223 -0.68503,0.30446 -0.98949,0.45669c-0.5328,-0.07611 -1.14172,-0.07612 -1.75064,-0.15223z" fill="#d1303e"/><path d="M238.75329,149.99747c0.38057,-0.15223 0.83726,-0.38057 1.21784,-0.5328c0.5328,0.07611 1.14172,0.07612 1.67452,0.15223c-0.38057,0.22834 -0.76115,0.38057 -1.14172,0.5328c-0.60891,0 -1.21784,-0.07612 -1.75064,-0.15223z" fill="#d1303e"/><path d="M237.45933,149.23632c-0.45669,0.15223 -0.91337,0.38057 -1.37006,0.60892c-0.60891,0 -1.21784,-0.07612 -1.82675,-0.07612c0.38057,-0.22834 0.91338,-0.45668 1.44618,-0.68503c0.5328,0.07611 1.14172,0.15223 1.75064,0.15223z" fill="#d1303e"/><path d="M230.53289,149.69301c0.45669,-0.30446 1.06561,-0.60891 1.67452,-0.91337c0.5328,0.07611 1.14172,0.07611 1.75064,0.15222c-0.60891,0.22834 -1.14172,0.5328 -1.67452,0.76115c-0.68503,0 -1.29395,0 -1.75064,0z" fill="#d1303e"/><path d="M247.81094,152.28091c0.30446,-0.07611 0.68503,-0.22835 0.98949,-0.30446c0.07611,0.30446 0.07612,0.68503 0.07612,0.98949c-0.30446,0.07611 -0.60892,0.22835 -0.9895,0.30446c0,-0.38057 -0.07611,-0.68503 -0.07611,-0.98949z" fill="#d1303e"/><path d="M249.86603,154.33601c0.15223,-3.72962 -0.68503,-4.64299 -1.37006,-5.02357c-0.60891,-0.30446 -11.64555,-0.91338 -15.45129,-1.14172c0.98949,-0.22834 2.20732,-0.45669 3.50127,-0.5328c3.65351,0.30446 9.286,0.76115 11.8739,1.14172c0.83726,0.38057 1.44618,0.91337 1.82675,1.52229c0.15223,1.21784 0.07612,2.96848 0.07612,3.80573c0,0.07611 -0.22835,0.15223 -0.45669,0.22834z" fill="#e6818b"/><path d="M249.71381,149.69301c-0.22834,0.15223 -0.38058,0.22835 -0.60892,0.30446c-0.15223,-0.30446 -0.38057,-0.45668 -0.60891,-0.60891c0.15223,-0.07611 0.38057,-0.15223 0.5328,-0.22834c0.15223,0.07611 0.30446,0.15223 0.38057,0.22834c0.07611,0.07611 0.07612,0.07612 0.15223,0.15223c0.07611,0.07611 0.15223,0.15223 0.15223,0.15223z" fill="#d1303e"/><path d="M246.66922,148.55129c0.5328,0 1.0656,0.07612 1.52229,0.15223c-0.22834,0.07611 -0.60891,0.22834 -0.91338,0.38057c-0.45669,-0.07611 -0.98949,-0.07612 -1.67452,-0.15223c0.38057,-0.15223 0.76115,-0.30446 1.06561,-0.38057z" fill="#d1303e"/><path d="M242.93959,148.17072c0.5328,0.07611 1.06561,0.07611 1.59841,0.22834c-0.30446,0.15223 -0.68504,0.30446 -1.06561,0.45669c-0.5328,-0.07611 -1.14172,-0.07612 -1.75064,-0.15223c0.38057,-0.22834 0.83726,-0.38057 1.21783,-0.5328z" fill="#d1303e"/><path d="M236.62207,147.63792c0.15223,0 0.22835,0 0.30446,0c-0.45669,0.15223 -0.91338,0.38057 -1.44618,0.60891c-0.68503,0 -1.29395,-0.07611 -1.82675,-0.07611c0.15223,-0.07611 0.38057,-0.15223 0.60891,-0.22834c-0.07611,0 -0.07611,0 0,0c0.68503,-0.15223 1.5223,-0.22835 2.35956,-0.30446z" fill="#d1303e"/><path d="M240.42781,147.94238c-0.38057,0.15223 -0.83726,0.30446 -1.29395,0.5328c-0.60891,0 -1.21784,-0.07612 -1.82675,-0.07612c0.5328,-0.22834 0.98949,-0.45668 1.44618,-0.60891c0.5328,0.07611 1.06561,0.15223 1.67452,0.15223z" fill="#d1303e"/><path d="M249.78992,151.672c0.22834,-0.07611 0.45668,-0.15223 0.60891,-0.22835c0,0.30446 0,0.60891 0,0.91338c-0.22834,0.07611 -0.38057,0.15223 -0.60891,0.22835c0,-0.38057 -0.07611,-0.68503 0,-0.91338z" fill="#d1303e"/><path d="M245.22304,156.61945c-1.5223,-0.38057 -2.74013,0.38057 -4.26243,0.76115c-1.44618,0.38057 -1.14172,-0.30446 -3.1207,-0.38057c-1.97898,0 -2.51179,0.98949 -4.49077,0.91338c-1.97898,-0.07611 -2.5879,-1.90286 -4.1102,-1.67452c-1.14172,0.15223 -1.97898,-0.83726 -2.43568,-1.67452c0.30446,-0.15223 0.60892,-0.30446 0.91338,-0.45669c0.60891,0.83726 1.29395,1.14172 2.13121,1.06561c1.14172,0 3.04459,1.37006 3.72962,1.90287c0.68503,0.5328 3.04459,-1.06561 4.87134,-0.68503c1.82675,0.38057 2.66401,0.30446 3.95796,-0.30446c1.21784,-0.60891 4.49077,-0.38057 6.16529,-0.30446c1.14172,0.07611 2.20732,-0.91338 2.66402,-1.5223c0.38057,0.22834 0.68503,0.45668 0.98949,0.60891c-1.90287,1.90287 -5.55638,2.13121 -7.00256,1.75064z" fill="#e6818b"/><path d="M238.98163,157.22837c-0.22834,-0.07611 -0.60891,-0.15223 -1.14172,-0.15223l0.22834,-0.76114c0.15223,0 0.22834,0.07612 0.38057,0.07612c0.30446,0.07611 0.5328,0.15223 0.76114,0.15223z" fill="#d1303e"/><path d="M234.94755,156.92391c0.38057,-0.07611 0.83726,-0.22834 1.29395,-0.38057l-0.30446,0.83726c-0.38057,0.15223 -0.83726,0.30446 -1.29395,0.45669z" fill="#d1303e"/><path d="M231.44627,157.30448l0.76115,-1.14172c0.30446,0.22834 0.60891,0.38057 0.91337,0.60891l-0.60891,1.06561c-0.38057,-0.15223 -0.76115,-0.38057 -1.06561,-0.5328z" fill="#d1303e"/><path d="M230.83735,155.47773l-0.91338,0.91338c-0.22834,-0.07611 -0.45669,-0.07612 -0.68503,-0.07612c-0.15223,0.07611 -0.38057,0 -0.5328,0l1.21784,-1.06561c0.22834,-0.07611 0.60891,0.07611 0.91338,0.22834z" fill="#d1303e"/><path d="M226.80327,154.64047c0,-0.07611 0.07612,-0.07612 0.07612,-0.07612c0.15223,-0.07611 0.22835,-0.15223 0.30446,-0.15223c0.07611,-0.07611 0.07611,-0.07611 0.15222,-0.07611c0.07611,-0.07611 0.22835,-0.15223 0.30446,-0.22834c0.07611,0 0.07612,0 0.07612,0c0.15223,0.30446 0.38057,0.45668 0.60891,0.60891l-0.91338,0.76115c-0.22834,-0.22834 -0.45669,-0.60891 -0.60892,-0.83726z" fill="#d1303e"/><path d="M251.61667,155.47773c-0.30446,0.15223 -0.5328,0.30446 -0.83726,0.45669l-0.68503,-0.5328c0.22834,-0.15223 0.45668,-0.30446 0.60891,-0.45669z" fill="#d1303e"/><path d="M246.97367,155.70608c0.30446,0 0.68503,0.07612 0.9895,0.07612l0.45668,0.83726c-0.30446,0.07611 -0.68503,0.15222 -0.98949,0.15222z" fill="#d1303e"/><path d="M245.52749,155.70608l0.15223,1.06561c-0.15223,0 -0.30446,-0.07612 -0.45669,-0.07612c-0.15223,-0.07611 -0.22834,-0.07611 -0.38057,-0.07611l-0.07611,-0.91338c0.30446,0 0.5328,0 0.76114,0z" fill="#d1303e"/><path d="M241.26507,156.54334c0.30446,-0.07611 0.60892,-0.22835 0.9895,-0.38058l0.07612,0.91338c-0.38057,0.15223 -0.76115,0.30446 -1.14172,0.38057z" fill="#d1303e"/><path d="M228.70614,153.34652c0,0 3.95796,2.66402 10.8844,2.43567c6.92644,-0.22834 10.96052,-2.35956 10.96052,-2.35956c0,0 0.15223,0.07611 0.15223,0.5328c0,0 -6.77421,2.81625 -12.25447,2.35956c-7.99204,-0.68503 -9.97103,-2.5879 -9.97103,-2.5879z" fill="#c6aa8b"/></g><g fill="#f0e0da" stroke="#f0e0da"><path d="M240.11491,164.70168c0,0 0.46279,-1.8166 1.06038,-2.30937c0.43689,-0.36025 2.19659,-0.37625 2.19659,-0.37625" stroke-width="3.5" stroke-linecap="round"/><path d="M234.84104,167.52181c0.3879,-2.63292 2.80294,-4.44781 5.39412,-4.05367c2.59119,0.39416 4.37731,2.84809 3.98941,5.48102c-0.3879,2.63293 -2.80294,4.44781 -5.39412,4.05367c-2.59119,-0.39416 -4.37731,-2.84809 -3.98941,-5.48102z" stroke-width="2" stroke-linecap="butt"/><path d="M240.54826,163.24088c0,0 -2.40586,0.02234 -3.62086,-0.83892c-1.215,-0.86128 -1.24695,-2.90388 -1.24695,-2.90388c0,0 2.09392,-0.64622 3.30892,0.21505c1.215,0.86128 1.55889,3.52775 1.55889,3.52775z" stroke-width="2" stroke-linecap="butt"/></g><path d="M239.85004,164.26214c0,0 0.3639,-1.42846 0.83381,-1.81593c0.34355,-0.28328 1.72725,-0.29585 1.72725,-0.29585" fill="none" stroke="#009602" stroke-width="2" stroke-linecap="round"/><path d="M235.70304,167.70611c0.30502,-2.07035 2.20404,-3.49746 4.24157,-3.18753c2.03753,0.30994 3.44201,2.23954 3.13699,4.3099c-0.30502,2.07035 -2.20404,3.49745 -4.24157,3.18753c-2.03753,-0.30994 -3.44201,-2.23954 -3.13699,-4.3099z" fill="#ff4c4c" stroke="#ff0000" stroke-width="2" stroke-linecap="butt"/><path d="M239.94552,162.50025c0,0 -1.52388,0.50815 -2.47926,-0.16909c-0.95539,-0.67725 -0.98052,-2.28341 -0.98052,-2.28341c0,0 1.52388,-0.50815 2.47927,0.16909c0.95539,0.67725 0.98051,2.28341 0.98051,2.28341z" fill="#94e095" stroke="#00e005" stroke-width="2" stroke-linecap="butt"/><g fill="#de7474" stroke="none" stroke-width="1" stroke-linecap="butt"><path d="M231.14181,175.57201c0,-0.42037 0.34078,-0.76114 0.76115,-0.76114c0.42037,0 0.76115,0.34078 0.76115,0.76114c0,0.42037 -0.34078,0.76115 -0.76115,0.76115c-0.42037,0 -0.76115,-0.34078 -0.76115,-0.76115z"/><path d="M246.28864,161.94748c0,-0.42037 0.34078,-0.76114 0.76115,-0.76114c0.42037,0 0.76115,0.34078 0.76115,0.76114c0,0.42037 -0.34078,0.76115 -0.76115,0.76115c-0.42037,0 -0.76115,-0.34078 -0.76115,-0.76115z"/><path d="M247.20202,173.36469c0,-0.42037 0.34078,-0.76115 0.76115,-0.76115c0.42037,0 0.76114,0.34078 0.76114,0.76115c0,0.42037 -0.34078,0.76114 -0.76114,0.76114c-0.42037,0 -0.76115,-0.34078 -0.76115,-0.76114z"/><path d="M241.26507,176.33316c0,-0.42037 0.34078,-0.76115 0.76115,-0.76115c0.42037,0 0.76115,0.34078 0.76115,0.76115c0,0.42037 -0.34078,0.76115 -0.76115,0.76115c-0.42037,0 -0.76115,-0.34078 -0.76115,-0.76115z"/><path d="M231.90296,176.33316c0,-0.42037 0.34078,-0.76115 0.76115,-0.76115c0.42037,0 0.76114,0.34078 0.76114,0.76115c0,0.42037 -0.34078,0.76115 -0.76114,0.76115c-0.42037,0 -0.76115,-0.34078 -0.76115,-0.76115z"/><path d="M244.76635,174.12583c0,-0.42037 0.34078,-0.76114 0.76115,-0.76114c0.42037,0 0.76115,0.34078 0.76115,0.76114c0,0.42037 -0.34078,0.76115 -0.76115,0.76115c-0.42037,0 -0.76115,-0.34078 -0.76115,-0.76115z"/><path d="M231.0657,160.88188c0,-0.42037 0.34078,-0.76115 0.76115,-0.76115c0.42037,0 0.76114,0.34078 0.76114,0.76115c0,0.42037 -0.34078,0.76114 -0.76114,0.76114c-0.42037,0 -0.76115,-0.34078 -0.76115,-0.76114z"/><path d="M240.58004,159.58793c0,-0.42037 0.34078,-0.76115 0.76115,-0.76115c0.42037,0 0.76114,0.34078 0.76114,0.76115c0,0.42037 -0.34078,0.76115 -0.76114,0.76115c-0.42037,0 -0.76115,-0.34078 -0.76115,-0.76115z"/><path d="M233.6536,172.14686c0,-0.42037 0.34078,-0.76115 0.76115,-0.76115c0.42037,0 0.76114,0.34078 0.76114,0.76115c0,0.42037 -0.34078,0.76114 -0.76114,0.76114c-0.42037,0 -0.76115,-0.34078 -0.76115,-0.76114z"/><path d="M238.8294,178.23603c0,-0.42037 0.34078,-0.76115 0.76115,-0.76115c0.42037,0 0.76114,0.34078 0.76114,0.76115c0,0.42037 -0.34078,0.76114 -0.76114,0.76114c-0.42037,0 -0.76115,-0.34078 -0.76115,-0.76114z"/><path d="M244.99469,160.19684c0,-0.42037 0.34078,-0.76114 0.76115,-0.76114c0.42037,0 0.76114,0.34078 0.76114,0.76114c0,0.42037 -0.34078,0.76115 -0.76114,0.76115c-0.42037,0 -0.76115,-0.34078 -0.76115,-0.76115z"/><path d="M233.19691,162.86086c0,-0.42037 0.34078,-0.76114 0.76114,-0.76114c0.42037,0 0.76115,0.34078 0.76115,0.76114c0,0.42037 -0.34078,0.76115 -0.76115,0.76115c-0.42037,0 -0.76114,-0.34078 -0.76114,-0.76115z"/></g></g></g></g></svg>