<svg version="1.1" xmlns="http://www.w3.org/2000/svg" xmlns:xlink="http://www.w3.org/1999/xlink" width="122" height="122" viewBox="0,0,122,122"><g transform="translate(-179,-119)"><g data-paper-data="{&quot;isPaintingLayer&quot;:true}" fill-rule="nonzero" stroke-linejoin="miter" stroke-miterlimit="10" stroke-dasharray="" stroke-dashoffset="0" style="mix-blend-mode: normal"><path d="M222.51076,204.82184c0,0 -5.14879,-0.46436 -9.06815,-5.17179c-5.93396,-7.12707 -7.91947,-12.57831 -9.61246,-22.86598c-1.44121,-8.75765 -0.45616,-20.35297 6.13416,-19.91194c3.72629,0.24937 6.29367,8.62035 5.76914,18.30365c-0.52452,9.68331 6.77732,29.64606 6.77732,29.64606z" fill="#cecece" stroke="#000000" stroke-width="2" stroke-linecap="butt"/><path d="M225.89562,155.43024c0,0 -9.39565,-7.77358 -8.95933,-9.27176c0.28889,-0.99197 11.74996,0 11.74996,0" fill="#cecece" stroke="#000000" stroke-width="2" stroke-linecap="round"/><path d="M230.30185,143.16085c0,0 -7.46666,-8.15972 -7.19684,-9.27176c0.31296,-1.28984 11.74995,0 11.74995,0" fill="#cecece" stroke="#000000" stroke-width="2" stroke-linecap="round"/><path d="M262.17635,147.80759c-0.25883,12.62596 16.29062,62.48633 0.87849,62.48633c-12.55285,0 -28.43719,3.7525 -37.19428,-1.09826c-4.76866,-2.64147 -5.77072,-10.38422 -6.77627,-16.80254c-4.03746,-25.77083 14.88943,-59.0617 14.88943,-59.0617c0,0 2.27085,0.19948 5.50306,0.82205c8.03764,1.5482 22.90907,3.43439 22.69957,13.65411z" fill="#cecece" stroke="#000000" stroke-width="2" stroke-linecap="butt"/><path d="M237.20495,157.59133l5.87498,-10.31745" fill="none" stroke="#ffb0b0" stroke-width="1" stroke-linecap="round"/><path d="M264.23505,196.65718c0,8.24236 -4.41246,11.524 -12.3402,11.524c-7.92774,0 -14.35444,-2.6016 -14.35444,-10.84398c0,-8.24237 5.75529,-15.60415 13.68303,-15.60415c7.92773,0 13.01162,6.68176 13.01162,14.92412z" fill="#e2e2e2" stroke="#000000" stroke-width="2" stroke-linecap="butt"/><path d="M265.58771,155.80568c7.866,2.36456 16.6974,6.54277 9.6976,11.75036c-2.69083,2.00189 -0.23649,5.71816 -3.84714,6.53586c-5.21735,1.18159 -31.98663,1.0944 -33.02767,-1.47184c-2.48958,-6.13701 -0.19741,-16.18693 9.17042,-18.37603c9.36783,-2.1891 7.91993,-1.47053 18.00678,1.56165z" fill="#e2e2e2" stroke="#000000" stroke-width="2" stroke-linecap="butt"/><path d="M278.62352,161.35579c0,2.23305 -2.30288,4.87987 -5.14363,4.87987c-2.84075,0 -5.14363,-2.64681 -5.14363,-4.87987c0,-2.23305 2.67028,-2.37023 5.51103,-2.37023c2.84075,0 4.77622,0.13716 4.77622,2.37023z" fill="#4d4d4d" stroke="#000000" stroke-width="2" stroke-linecap="butt"/><path d="M237.64558,152.64176c0,-1.15504 0.98637,-2.09137 2.20312,-2.09137c1.21675,0 2.20312,0.93633 2.20312,2.09137c0,1.15504 -0.98636,2.09137 -2.20312,2.09137c-1.21675,0 -2.20312,-0.93633 -2.20312,-2.09137z" fill="#000000" stroke="none" stroke-width="0.5" stroke-linecap="butt"/><path d="M255.56425,149.78353c0,-1.15504 0.98637,-2.09137 2.20312,-2.09137c1.21675,0 2.20312,0.93633 2.20312,2.09137c0,1.15504 -0.98636,2.09137 -2.20312,2.09137c-1.21675,0 -2.20312,-0.93633 -2.20312,-2.09137z" fill="#000000" stroke="none" stroke-width="0.5" stroke-linecap="butt"/><path d="M237.79245,209.45737c0,0 1.29965,4.75951 -1.09529,6.73771c-1.30267,1.07599 -6.59417,-0.04533 -7.12967,-0.04533c-1.27706,0 -0.29375,-6.69239 -0.29375,-6.69239" fill="#cecece" stroke="#000000" stroke-width="2" stroke-linecap="round"/><path d="M264.81734,208.89967c0,0 1.29964,4.75951 -1.0953,6.73772c-1.30266,1.07599 -6.59416,-0.04533 -7.12966,-0.04533c-1.27706,0 -0.29375,-6.6924 -0.29375,-6.6924" fill="#cecece" stroke="#000000" stroke-width="2" stroke-linecap="round"/><path d="M246.31116,180.89649c0,0 1.29964,4.75951 -1.09529,6.73771c-1.30265,1.07599 -6.59416,-0.04532 -7.12966,-0.04532c-1.27706,0 -0.29376,-6.6924 -0.29376,-6.6924" fill="#cecece" stroke="#000000" stroke-width="2" stroke-linecap="round"/><path d="M266.57983,180.89649c0,0 1.29964,4.75951 -1.0953,6.73771c-1.30266,1.07599 -6.59416,-0.04532 -7.12966,-0.04532c-1.27706,0 -0.29376,-6.6924 -0.29376,-6.6924" fill="#cecece" stroke="#000000" stroke-width="2" stroke-linecap="round"/><path d="M261.31081,169.05211l-0.84128,6.55346c0,0 -1.24212,0.31644 -1.79669,-0.76085c-0.67405,-1.30929 -1.95952,-6.07984 -1.95952,-6.07984" data-paper-data="{&quot;index&quot;:null}" fill="#ffffff" stroke="#000000" stroke-width="2" stroke-linecap="round"/><path d="M273.50221,169.3179c0,0 -1.38273,4.93982 -2.10868,6.21962c-0.59727,1.053 -1.8257,0.68448 -1.8257,0.68448l-0.57791,-6.58335" fill="#ffffff" stroke="#000000" stroke-width="2" stroke-linecap="round"/><path d="M238.33798,157.83034l-1.51071,-1.43409" fill="none" stroke="#ffb0b0" stroke-width="1" stroke-linecap="round"/><path d="M239.09334,155.91824l-1.5107,-1.43408" fill="none" stroke="#ffb0b0" stroke-width="1" stroke-linecap="round"/><path d="M242.11475,147.55274l1.51071,1.43408" fill="none" stroke="#ffb0b0" stroke-width="1" stroke-linecap="round"/><path d="M273.84728,169.30302l-21.38728,-0.83655" fill="none" stroke="#000000" stroke-width="2" stroke-linecap="round"/><path d="M238.44446,146.6693l3.72222,3.76996" fill="none" stroke="#000000" stroke-width="1.5" stroke-linecap="round"/><path d="M258.83333,144.08097l-3.72222,3.76996" data-paper-data="{&quot;index&quot;:null}" fill="none" stroke="#000000" stroke-width="1.5" stroke-linecap="round"/><path d="M179,241v-122h122v122z" fill="none" stroke="none" stroke-width="none" stroke-linecap="butt"/></g></g></svg>