<svg version="1.1" xmlns="http://www.w3.org/2000/svg" xmlns:xlink="http://www.w3.org/1999/xlink" width="40.54748" height="40.54748" viewBox="0,0,40.54748,40.54748"><defs><radialGradient cx="240" cy="180" r="9.32829" gradientUnits="userSpaceOnUse" id="color-1"><stop offset="0" stop-color="#ffed30"/><stop offset="1" stop-color="#ffed30" stop-opacity="0"/></radialGradient><radialGradient cx="240" cy="180" r="9.32827" gradientUnits="userSpaceOnUse" id="color-2"><stop offset="0" stop-color="#ffed30"/><stop offset="1" stop-color="#ffed30" stop-opacity="0"/></radialGradient><radialGradient cx="240" cy="180" r="9.32827" gradientUnits="userSpaceOnUse" id="color-3"><stop offset="0" stop-color="#ffed30"/><stop offset="1" stop-color="#ffed30" stop-opacity="0"/></radialGradient><radialGradient cx="240" cy="180" r="9.32827" gradientUnits="userSpaceOnUse" id="color-4"><stop offset="0" stop-color="#ffed30"/><stop offset="1" stop-color="#ffed30" stop-opacity="0"/></radialGradient></defs><g transform="translate(-219.94395,-157.22275)"><g data-paper-data="{&quot;isPaintingLayer&quot;:true}" fill-rule="nonzero" stroke-linejoin="miter" stroke-miterlimit="10" stroke-dasharray="" stroke-dashoffset="0" style="mix-blend-mode: normal"><path d="M230.67171,180c0,-5.15187 4.17642,-9.32829 9.32829,-9.32829c5.15187,0 9.32829,4.17642 9.32829,9.32829c0,5.15187 -4.17642,9.32829 -9.32829,9.32829c-5.15187,0 -9.32829,-4.17642 -9.32829,-9.32829z" fill="url(#color-1)" stroke="none" stroke-width="0" stroke-linecap="butt"/><path d="M230.67173,180c0,-5.15187 4.1764,-9.32827 9.32827,-9.32827c5.15187,0 9.32827,4.1764 9.32827,9.32827c0,5.15187 -4.1764,9.32827 -9.32827,9.32827c-5.15187,0 -9.32827,-4.1764 -9.32827,-9.32827z" fill="url(#color-2)" stroke="none" stroke-width="0" stroke-linecap="butt"/><path d="M230.67173,180c0,-5.15187 4.1764,-9.32827 9.32827,-9.32827c5.15187,0 9.32827,4.1764 9.32827,9.32827c0,5.15187 -4.1764,9.32827 -9.32827,9.32827c-5.15187,0 -9.32827,-4.1764 -9.32827,-9.32827z" fill="url(#color-3)" stroke="none" stroke-width="0" stroke-linecap="butt"/><path d="M230.67173,180c0,-5.15187 4.1764,-9.32827 9.32827,-9.32827c5.15187,0 9.32827,4.1764 9.32827,9.32827c0,5.15187 -4.1764,9.32827 -9.32827,9.32827c-5.15187,0 -9.32827,-4.1764 -9.32827,-9.32827z" fill="url(#color-4)" stroke="none" stroke-width="0" stroke-linecap="butt"/><path d="M233.71387,180c0,-3.47174 2.8144,-6.28613 6.28613,-6.28613c3.47174,0 6.28613,2.8144 6.28613,6.28613c0,3.47174 -2.8144,6.28613 -6.28613,6.28613c-3.47174,0 -6.28613,-2.8144 -6.28613,-6.28613z" fill="#fff8ed" stroke="none" stroke-width="0.5" stroke-linecap="butt"/><path d="" data-paper-data="{&quot;index&quot;:null}" fill="none" stroke="#cdcdcd" stroke-width="1.5" stroke-linecap="round"/><path d="" fill="none" stroke="#cdcdcd" stroke-width="1.5" stroke-linecap="round"/><path d="" data-paper-data="{&quot;index&quot;:null}" fill="none" stroke="#cdcdcd" stroke-width="1.5" stroke-linecap="round"/><path d="" fill="none" stroke="#cdcdcd" stroke-width="1.5" stroke-linecap="round"/><path d="" data-paper-data="{&quot;index&quot;:null}" fill="none" stroke="#cdcdcd" stroke-width="1.5" stroke-linecap="round"/><path d="" data-paper-data="{&quot;index&quot;:null}" fill="none" stroke="#cdcdcd" stroke-width="1.5" stroke-linecap="round"/><path d="" data-paper-data="{&quot;index&quot;:null}" fill="none" stroke="#cdcdcd" stroke-width="1.5" stroke-linecap="round"/><path d="" fill="none" stroke="#cdcdcd" stroke-width="1.5" stroke-linecap="round"/><path d="" data-paper-data="{&quot;index&quot;:null}" fill="none" stroke="#cdcdcd" stroke-width="1.5" stroke-linecap="round"/><path d="" data-paper-data="{&quot;index&quot;:null}" fill="none" stroke="#cdcdcd" stroke-width="1.5" stroke-linecap="round"/><path d="" fill="none" stroke="#cdcdcd" stroke-width="1.5" stroke-linecap="round"/><path d="" data-paper-data="{&quot;index&quot;:null}" fill="none" stroke="#cdcdcd" stroke-width="1.5" stroke-linecap="round"/><path d="M219.94395,197.77023v-40.54748h40.54748v40.54748z" fill="none" stroke="none" stroke-width="0" stroke-linecap="butt"/></g></g></svg>