<svg version="1.1" xmlns="http://www.w3.org/2000/svg" xmlns:xlink="http://www.w3.org/1999/xlink" width="62.11111" height="62.11111" viewBox="0,0,62.11111,62.11111"><g transform="translate(-208.94448,-148.94448)"><g data-paper-data="{&quot;isPaintingLayer&quot;:true}" fill-rule="nonzero" stroke-linejoin="miter" stroke-miterlimit="10" stroke-dasharray="" stroke-dashoffset="0" style="mix-blend-mode: normal"><path d="M239.12445,186.06548c-0.37969,0.31514 -0.69589,-0.05624 -0.69589,-0.05624l-0.44936,-0.29225c-0.15487,-0.23792 -0.30782,-0.47482 -0.47358,-0.70549c-0.65416,-0.91258 -1.11511,-2.08998 -0.93508,-3.24835c0.07338,-0.47213 0.38592,-0.94104 0.35284,-1.4361c-0.04421,-0.66164 -0.17018,-1.38018 -0.44278,-1.98624c-0.14427,-0.33953 -0.52831,-1.01107 -0.8879,-1.0695c-1.10124,-0.17895 -2.00924,0.5555 -2.43779,1.46029c0,0 -0.20978,0.44289 -0.65716,0.2402c-0.44738,-0.20269 -0.2376,-0.64557 -0.2376,-0.64557c0.71078,-1.50063 3.04871,-2.94634 4.49654,-1.39953c0.27921,0.2983 0.45842,0.64882 0.62793,1.01243c0.30549,0.67918 0.47503,1.48942 0.51595,2.23389c0.03717,0.67635 -0.28256,1.23939 -0.39016,1.88251c-0.13705,0.81917 0.35083,1.76002 0.80339,2.38804c0.17428,0.24253 0.33573,0.49186 0.49857,0.74201l0.37557,0.19339c0,0 0.31621,0.37137 -0.06349,0.6865z" data-paper-data="{&quot;index&quot;:null}" fill="#ffd500" stroke="#7f1818" stroke-width="0.5" stroke-linecap="butt"/><path d="M237.00994,186.37573c0,-5.31906 3.26589,-12.0983 5.12809,-12.0983c1.86219,0 2.48739,3.66268 2.48739,8.98175c0,1.09613 0.66541,0.87198 0.91252,1.94109c0.12528,0.54204 -0.74516,4.16899 -0.74516,4.16899c0,0 -1.72138,0.6038 -2.95242,0.6038c0,0 -3.02964,0.46892 -3.89044,-0.39348c-0.8608,-0.8624 -0.93998,-3.20385 -0.93998,-3.20385z" data-paper-data="{&quot;index&quot;:null}" fill="#ffd500" stroke="#7f1818" stroke-width="0.5" stroke-linecap="butt"/><path d="M242.36469,185.90831c0.00695,-0.30418 0.56502,-2.10722 1.72177,-2.52443c0.37394,-0.13487 1.86779,0.71659 1.84884,1.10814c-0.02577,0.53245 -1.15633,4.87952 -1.15633,4.87952" data-paper-data="{&quot;origRot&quot;:0,&quot;index&quot;:null}" fill="#ffd500" stroke="#7f1818" stroke-width="0.5" stroke-linecap="round"/><path d="M237.51385,189.6848c0,0 -1.9159,-4.07176 -2.03974,-4.59067c-0.09108,-0.38162 1.22027,-1.48662 1.61291,-1.42102c1.21459,0.2029 2.0969,1.87575 2.16001,2.17361" data-paper-data="{&quot;index&quot;:null,&quot;origRot&quot;:0}" fill="#ffd500" stroke="#7f1818" stroke-width="0.5" stroke-linecap="round"/><path d="M237.23419,190.00929c0,-0.7512 0.66819,-1.03374 1.49244,-1.03374c0.82425,0 1.49244,0.60897 1.49244,1.36018c0,0.75122 -0.66819,0.59849 -1.49244,0.59849c-0.82425,0 -1.49244,-0.17371 -1.49244,-0.92492z" data-paper-data="{&quot;index&quot;:null}" fill="#ffd500" stroke="#7f1818" stroke-width="0.5" stroke-linecap="butt"/><path d="M242.88548,190.28408c0,-0.75122 0.66819,-1.03374 1.49244,-1.03374c0.82425,0 1.49244,0.60896 1.49244,1.36018c0,0.75121 -0.66819,0.59849 -1.49244,0.59849c-0.82425,0 -1.49244,-0.1737 -1.49244,-0.92492z" data-paper-data="{&quot;index&quot;:null}" fill="#ffd500" stroke="#7f1818" stroke-width="0.5" stroke-linecap="butt"/><path d="M241.19186,180.27331l-0.01092,9.98407c0,0 0.23236,1.26174 -0.39647,1.80657c-0.61231,0.53052 -1.69,0.47693 -2.11083,-0.11734c-0.42083,-0.59426 0.89701,-0.80963 0.9103,-1.57796c0.04169,-2.40996 -0.57187,-10.12035 -0.57187,-10.12035" data-paper-data="{&quot;origRot&quot;:0,&quot;index&quot;:null}" fill="#ffd500" stroke="#7f1818" stroke-width="0.5" stroke-linecap="round"/><path d="M238.0713,173.38981c-0.7183,-1.27079 0.35724,-4.17919 0.35724,-4.17919c0,0 0.07664,-0.71266 0.12568,-1.30837c0.03139,-0.38129 0.37583,-1.04969 0.37583,-1.04969c0,0 0.64392,0.36593 0.91426,0.69319c0.4346,0.52613 1.03976,1.2754 1.03976,1.2754l1.31046,-0.21671c0.56831,0 1.23825,0.26774 1.23825,0.26774c0,0 0.53712,-0.65058 0.8809,-1.1135c0.37587,-0.50614 1.18468,-1.00616 1.18468,-1.00616c0,0 0.20138,0.96542 0.23574,1.58334c0.02528,0.45458 0.13862,1.23748 0.13862,1.23748c0,0 0.84822,2.6258 0.3958,3.67112c-0.31702,0.73252 -1.10415,1.86695 -1.10415,1.86695c0,0 -1.42163,1.68273 -2.96983,1.68273c-1.49483,0 -3.22534,-1.76192 -3.22534,-1.76192c0,0 -0.56302,-1.04995 -0.89788,-1.64237z" data-paper-data="{&quot;index&quot;:null}" fill="#ffd500" stroke="#7f1818" stroke-width="0.5" stroke-linecap="butt"/><path d="M244.74523,172.62612c-0.40785,0 -0.73849,-0.32545 -0.73849,-0.7269c0,-0.40145 0.33064,-0.7269 0.73849,-0.7269c0.40785,0 0.73849,0.32545 0.73849,0.7269c0,0.40145 -0.33064,0.7269 -0.73849,0.7269z" data-paper-data="{&quot;index&quot;:null}" fill="#7f1818" stroke="#7f1818" stroke-width="0" stroke-linecap="butt"/><path d="M240.53585,172.55343c-0.40785,0 -0.73849,-0.32545 -0.73849,-0.7269c0,-0.40145 0.33064,-0.7269 0.73849,-0.7269c0.40785,0 0.73849,0.32545 0.73849,0.7269c0,0.40145 -0.33064,0.7269 -0.73849,0.7269z" data-paper-data="{&quot;index&quot;:null}" fill="#7f1818" stroke="#7f1818" stroke-width="0" stroke-linecap="butt"/><path d="M241.86253,173.74982c0.02628,-0.40903 0.38938,-0.54089 0.82511,-0.51378c0.43573,0.02711 0.78288,0.14369 0.7566,0.55274c-0.02627,0.40904 -0.64144,0.94164 -0.85175,0.92855c-0.26667,-0.0166 -0.75624,-0.55845 -0.72996,-0.9675z" data-paper-data="{&quot;origRot&quot;:0,&quot;index&quot;:null}" fill="#ff3131" stroke="#7f1818" stroke-width="0.5" stroke-linecap="butt"/><path d="M240.6097,173.57107h0.66464" data-paper-data="{&quot;index&quot;:null}" fill="none" stroke="#7f1818" stroke-width="0.5" stroke-linecap="round"/><path d="M241.34819,174.29796l-0.51694,0.21808" data-paper-data="{&quot;index&quot;:null}" fill="none" stroke="#7f1818" stroke-width="0.5" stroke-linecap="round"/><path d="M244.15444,173.57107l0.88619,0.14538" data-paper-data="{&quot;index&quot;:null}" fill="none" stroke="#7f1818" stroke-width="0.5" stroke-linecap="round"/><path d="M244.00675,174.29796l0.59079,0.29076" data-paper-data="{&quot;index&quot;:null}" fill="none" stroke="#7f1818" stroke-width="0.5" stroke-linecap="round"/><path d="M244.35687,180.3183c0,0 -0.61355,7.71039 -0.57187,10.12035c0.01328,0.76833 1.33112,0.98369 0.9103,1.57796c-0.42083,0.59427 -1.49852,0.64786 -2.11083,0.11734c-0.62883,-0.54482 -0.39647,-1.80657 -0.39647,-1.80657l-0.01092,-9.98407" data-paper-data="{&quot;origRot&quot;:0,&quot;index&quot;:null}" fill="#ffd500" stroke="#7f1818" stroke-width="0.5" stroke-linecap="round"/><path d="M208.94449,211.05559v-62.11111h62.11111v62.11111z" data-paper-data="{&quot;index&quot;:null}" fill="none" stroke="none" stroke-width="NaN" stroke-linecap="butt"/></g></g></svg>