<svg version="1.1" xmlns="http://www.w3.org/2000/svg" xmlns:xlink="http://www.w3.org/1999/xlink" width="54.7715" height="54.7715" viewBox="0,0,54.7715,54.7715"><g transform="translate(-212.61425,-152.61425)"><g data-paper-data="{&quot;isPaintingLayer&quot;:true}" fill-rule="nonzero" stroke-linejoin="miter" stroke-miterlimit="10" stroke-dasharray="" stroke-dashoffset="0" style="mix-blend-mode: normal"><path d="M257.0556,172.14076l-0.03935,2.24916l-5.76301,-0.10081" data-paper-data="{&quot;index&quot;:null}" fill="none" stroke="#ffffff" stroke-width="3" stroke-linecap="round"/><path d="M267.38575,207.11357l-54.49932,0.27218l-0.27218,-54.49932l54.49932,-0.27218z" data-paper-data="{&quot;index&quot;:null}" fill="none" stroke="none" stroke-width="0" stroke-linecap="butt"/><path d="M226.57784,176.49863c0,0 -5.88004,-1.52536 -5.91377,-3.30075c-0.01446,-0.76087 5.79028,-3.19808 5.79028,-3.19808" data-paper-data="{&quot;index&quot;:null}" fill="none" stroke="#ffffff" stroke-width="2.5" stroke-linecap="round"/><path d="M226.67609,188.24889c0,0 -5.88004,-1.52536 -5.91378,-3.30075c-0.01446,-0.76087 5.79029,-3.19808 5.79029,-3.19808" data-paper-data="{&quot;index&quot;:null}" fill="none" stroke="#ffffff" stroke-width="2.5" stroke-linecap="round"/><path d="M257.2358,182.51947l-0.03935,2.24916l-5.76301,-0.10081" data-paper-data="{&quot;index&quot;:null}" fill="none" stroke="#ffffff" stroke-width="3" stroke-linecap="round"/><path d="M249.95469,168.24519c0.99688,0.95988 0.77669,1.39766 0.80298,2.78131c0.07887,4.15094 0.27629,14.54069 0.30159,15.87213c0.02529,1.33143 0.33109,1.68096 -0.69929,2.67603c-1.03038,0.99507 -1.47348,0.77814 -2.90563,0.80535c-4.29649,0.08164 -9.52542,0.18099 -15.62218,0.29684c-1.44549,0.02747 -1.97185,0.1897 -2.9683,-0.69374c-0.99646,-0.88342 -0.77515,-1.31609 -0.80045,-2.64754c-0.0759,-3.99433 -0.18389,-9.67783 -0.30158,-15.87213c-0.02629,-1.38365 -0.17456,-1.8458 0.69674,-2.8098c0.87131,-0.964 1.2657,-0.77418 2.56488,-0.79887c6.29185,-0.11955 11.9719,-0.22748 16.12208,-0.30633c0,0 1.81228,-0.26313 2.80916,0.69675z" data-paper-data="{&quot;index&quot;:null}" fill="#3c0000" stroke="#ff3333" stroke-width="2.5" stroke-linecap="butt"/><g fill="none" stroke="#ffffff" stroke-width="2.5" stroke-linecap="round"><path d="M238.14375,180.95209l4.01915,4.01914"/><path d="M238.14375,184.97123l4.01914,-4.01914" data-paper-data="{&quot;index&quot;:null}"/></g><g fill="none" stroke="#ffffff" stroke-width="2.5" stroke-linecap="round"><path d="M238.03264,169.61876l4.01914,4.01914"/><path d="M238.03264,173.6379l4.01914,-4.01914" data-paper-data="{&quot;index&quot;:null}"/></g><path d="M234.75088,173.23867l-0.01729,-4.99997" data-paper-data="{&quot;index&quot;:null}" fill="none" stroke="#ffffff" stroke-width="2.5" stroke-linecap="round"/><path d="M234.77142,185.6079l-0.01729,-4.99997" data-paper-data="{&quot;index&quot;:null}" fill="none" stroke="#ffffff" stroke-width="2.5" stroke-linecap="round"/></g></g></svg>