<svg version="1.1" xmlns="http://www.w3.org/2000/svg" xmlns:xlink="http://www.w3.org/1999/xlink" width="81.27777" height="81.27777" viewBox="0,0,81.27777,81.27777"><defs><radialGradient cx="236.16768" cy="172.13" r="4.11381" gradientUnits="userSpaceOnUse" id="color-1"><stop offset="0" stop-color="#ff0000"/><stop offset="1" stop-color="#ff0000" stop-opacity="0"/></radialGradient><radialGradient cx="244.07643" cy="171.97519" r="4.11381" gradientUnits="userSpaceOnUse" id="color-2"><stop offset="0" stop-color="#ff0000"/><stop offset="1" stop-color="#ff0000" stop-opacity="0"/></radialGradient><linearGradient x1="248.93371" y1="181.83544" x2="256.0868" y2="194.489" gradientUnits="userSpaceOnUse" id="color-3"><stop offset="0" stop-color="#1b6ba1"/><stop offset="1" stop-color="#a0d3f5"/></linearGradient><linearGradient x1="225.84528" y1="181.94479" x2="224.37026" y2="191.52112" gradientUnits="userSpaceOnUse" id="color-4"><stop offset="0" stop-color="#1b6ba1"/><stop offset="1" stop-color="#a0d3f5"/></linearGradient><linearGradient x1="272.17939" y1="154.35022" x2="249.09222" y2="160.75986" gradientUnits="userSpaceOnUse" id="color-5"><stop offset="0" stop-color="#6aa7f6"/><stop offset="1" stop-color="#6af69d"/></linearGradient></defs><g transform="translate(-199.36114,-139.36112)"><g data-paper-data="{&quot;isPaintingLayer&quot;:true}" fill-rule="nonzero" stroke-linejoin="miter" stroke-miterlimit="10" stroke-dasharray="" stroke-dashoffset="0" style="mix-blend-mode: normal"><path d="M252.35691,198.59272c-0.79145,0.22759 -4.20123,-1.75327 -5.09323,-1.69689c-2.8959,0.18304 -2.84594,0.71751 -5.83232,0.97202c-0.6549,0.05581 -1.17457,0.03858 -1.60661,-0.02396c-1.62523,-0.23519 -2.01084,-1.11112 -3.69272,-1.14935c-1.56379,-0.03555 -2.93455,2.12919 -4.69057,1.85688c-5.94597,-0.92208 8.15035,-12.68687 8.15035,-12.68687z" fill="#0a283c" stroke="none" stroke-width="0" stroke-linecap="butt"/><path d="M248.90442,171.60854c0.69201,3.27364 0.48942,5.72639 2.82466,10.58955c0.4128,0.85969 2.33244,14.45043 3.50123,15.93151c1.80336,2.28522 -9.6689,2.45277 -10.1171,2.72292c-1.05689,0.63706 -1.69523,-4.65756 -2.85956,-7.94318c-1.98844,-5.61113 -2.12433,-12.27235 -2.12433,-12.27235c0,0 0.28072,9.36793 -0.85378,11.82396c-1.43754,3.11209 -2.77928,7.46865 -4.02763,8.37288c-1.76384,1.2776 -10.79239,0.29931 -9.93457,-1.70257c0.5477,-1.27815 2.37103,-14.9222 2.92165,-16.48699c1.38428,-3.93402 1.98509,-8.07079 2.60021,-11.95841c0.79296,-5.01153 3.89919,-7.41859 8.80394,-7.41859c4.90474,0 8.2159,3.3771 9.26527,8.34127z" fill="#1b6ba1" stroke="none" stroke-width="0" stroke-linecap="butt"/><path d="M247.46952,171.98021c0,3.9118 -3.42692,5.77581 -7.55938,5.77581c-4.13246,0 -7.40561,-1.86399 -7.40561,-5.77581c0,-3.9118 3.35002,-7.08295 7.4825,-7.08295c4.13246,0 7.48251,3.17113 7.48251,7.08295z" fill="#0a283c" stroke="none" stroke-width="NaN" stroke-linecap="butt"/><g stroke="none" stroke-linecap="butt"><path d="M232.05389,172.13c0,-2.272 1.8418,-4.11379 4.1138,-4.11379c2.272,0 4.11381,1.8418 4.11381,4.11379c0,2.272 -1.84181,4.11381 -4.11381,4.11381c-2.272,0 -4.1138,-1.84181 -4.1138,-4.11381z" fill="url(#color-1)" stroke-width="0"/><path d="M234.67717,172.18962c0,-0.79027 0.64063,-1.43088 1.43089,-1.43088c0.79027,0 1.43088,0.64063 1.43088,1.43088c0,0.79027 -0.64062,1.43089 -1.43088,1.43089c-0.79027,0 -1.43089,-0.64062 -1.43089,-1.43089z" fill="#ffffff" stroke-width="0.5"/></g><g stroke="none" stroke-linecap="butt"><path d="M239.96262,171.97519c0,-2.272 1.8418,-4.11381 4.11379,-4.11381c2.272,0 4.11381,1.84181 4.11381,4.11381c0,2.272 -1.84181,4.11379 -4.11381,4.11379c-2.272,0 -4.11379,-1.8418 -4.11379,-4.11379z" fill="url(#color-2)" stroke-width="0"/><path d="M242.58593,172.0348c0,-0.79026 0.64064,-1.43089 1.4309,-1.43089c0.79026,0 1.43088,0.64064 1.43088,1.43089c0,0.79026 -0.64062,1.43088 -1.43088,1.43088c-0.79026,0 -1.4309,-0.64062 -1.4309,-1.43088z" fill="#ffffff" stroke-width="0.5"/></g><path d="M240.15873,180.91888c-0.9317,-0.10227 -1.74294,0.32454 -1.53564,-1.56406c0.2073,-1.8886 0.87973,-1.57802 1.81143,-1.47575c0.9317,0.10227 1.76988,-0.0425 1.56258,1.8461c-0.20731,1.88861 -0.90667,1.29598 -1.83837,1.19371z" fill="#a0d3f5" stroke="none" stroke-width="0" stroke-linecap="butt"/><path d="M238.15757,188.95925l1.94347,-9.49381l2.05394,9.49381c0,0 -1.68498,2.74821 -2.38748,2.74821c-0.61953,0 -1.60992,-2.74821 -1.60992,-2.74821z" fill="#a0d3f5" stroke="none" stroke-width="0" stroke-linecap="butt"/><path d="M233.23422,163.42393c0,0 -0.20331,-3.19275 0.99452,-3.72744c1.19782,-0.53469 3.47045,2.17154 3.47045,2.17154" fill="none" stroke="#ffffff" stroke-width="1.5" stroke-linecap="round"/><path d="M243.98588,162.91041c0,0 2.47884,-1.97115 3.47802,-1.2865c0.99918,0.68465 0.10172,4.10245 0.10172,4.10245" data-paper-data="{&quot;index&quot;:null}" fill="none" stroke="#ffffff" stroke-width="1.5" stroke-linecap="round"/><path d="M199.36114,220.63889v-81.27777h81.27777v81.27777z" fill="none" stroke="none" stroke-width="NaN" stroke-linecap="butt"/><g stroke-linecap="butt"><path d="M256.78758,182.10869c-0.64609,0.26045 0.24596,1.4053 0.42722,2.25852c0.57197,2.69228 3.42837,3.81272 3.42837,3.81272c0,0 -9.08026,3.24091 -11.81906,-0.45492c-0.97925,-1.28376 -3.53022,-4.21867 -2.80059,-5.3156c1.3895,-2.08904 2.88375,-2.27687 3.29739,-2.44362c0.79129,-0.31898 3.01791,1.64465 3.73997,2.75003z" data-paper-data="{&quot;index&quot;:null}" fill="url(#color-3)" stroke="none" stroke-width="0"/><path d="M259.37451,188.78507c-1.08129,0.10779 -3.52393,-1.33712 -2.87617,-2.96824c-0.77586,-2.7761 0.02429,-3.60118 1.10558,-3.70897c1.08129,-0.10779 3.17605,2.15753 3.30774,3.90529c0.1317,1.74778 -0.45586,2.66413 -1.53715,2.77191z" data-paper-data="{&quot;index&quot;:null}" fill="#0a283c" stroke="none" stroke-width="0"/><path d="M262.50158,187.99142c-1.51891,0.40204 -3.01007,-0.25377 -3.33062,-1.46479c-0.29667,-1.12083 -0.41793,-2.237 0.90855,-2.72878c0.10674,-0.03959 2.22593,0.9049 2.33904,0.87495c0.56523,-0.14961 0.27586,-2.65024 0.49129,-3.08022c0.3635,-0.72548 1.00941,0.63653 1.21067,1.3969c0.32055,1.21101 -0.10002,4.59992 -1.61894,5.00196z" fill="none" stroke="#ffffff" stroke-width="1.5"/></g><g stroke-linecap="butt"><path d="M232.28609,184.68723c-0.16292,1.05778 -8.41763,8.08071 -9.60197,7.62306c-1.18435,-0.45764 -3.2438,-3.68391 -3.08086,-4.74168c0.04186,-0.27177 0.37273,-0.64195 0.94393,-1.05597c0.83003,-0.60163 2.16755,-1.29583 3.86312,-1.91522c1.70577,-0.62311 5.1129,-4.0886 6.86781,-3.62151c1.09266,0.29081 1.15443,2.7605 1.00797,3.71129z" fill="url(#color-4)" stroke="none" stroke-width="0"/><path d="M222.44583,188.54895c0.62392,1.55702 1.85816,3.3363 0.85298,3.73908c-1.00518,0.4028 -1.18198,-0.05459 -3.25448,-1.85556c-1.26613,-1.10025 -1.02277,-3.18335 -0.01759,-3.58614c1.00518,-0.4028 1.79515,0.14559 2.41909,1.70262z" fill="#0a283c" stroke="none" stroke-width="0"/><path d="M217.1996,193.29424c-0.61882,-1.08922 -0.03585,-1.08505 1.33028,-1.8612c0.10175,-0.0578 0.95398,-2.21574 1.05791,-2.26219c1.29155,-0.57734 1.98627,0.30462 2.55901,1.31271c0.61882,1.08922 0.01299,2.60141 -1.35314,3.37755c-1.36613,0.77614 -2.97525,0.52236 -3.59406,-0.56685z" data-paper-data="{&quot;index&quot;:null}" fill="none" stroke="#ffffff" stroke-width="1.5"/></g><g><path d="M261.27456,204.01929c0,0 -1.82331,-10.88421 -0.23138,-17.08444c2.33004,-9.07503 3.4219,-6.1885 4.53995,-10.58912c1.11805,-4.40062 1.82079,-13.39326 1.9884,-15.10622c0.06436,-0.65772 1.63135,-1.57177 2.13776,-2.17691c0.83917,-1.00276 0.97793,-2.18389 2.40675,-2.64615c1.16329,-0.37636 3.73512,-0.12749 3.73512,-0.12749" fill="none" stroke="#91aed5" stroke-width="2" stroke-linecap="round"/><path d="M271.54428,152.06253c0.19257,0.69362 -1.96725,1.33768 -1.70017,2.88481c0.26707,1.54711 2.82685,0.31535 2.38606,1.08846c-0.91737,1.60899 -4.31447,3.58124 -4.9481,4.88679c-4.54358,-4.36777 -7.71248,-6.71736 -14.22534,-4.90921c-1.70121,0.47231 -3.88913,1.25717 -4.797,3.30322c-0.62752,-2.6119 2.63844,-6.07119 7.46855,-7.16047c6.72202,-1.51594 15.81599,-0.09359 15.81599,-0.09359z" fill="url(#color-5)" stroke="#ffffff" stroke-width="0" stroke-linecap="butt"/></g></g></g></svg>