<svg version="1.1" xmlns="http://www.w3.org/2000/svg" xmlns:xlink="http://www.w3.org/1999/xlink" width="79.65088" height="39.38335" viewBox="0,0,79.65088,39.38335"><g transform="translate(-200.17456,-160.30832)"><g data-paper-data="{&quot;isPaintingLayer&quot;:true}" fill-rule="nonzero" stroke-linecap="butt" stroke-linejoin="miter" stroke-miterlimit="10" stroke-dasharray="" stroke-dashoffset="0" style="mix-blend-mode: normal"><path d="M200.17456,199.69167v-39.38335h79.65088v39.38335z" fill="none" stroke="none" stroke-width="0"/><path d="M209.732,190.72425c-1.55642,-0.97686 -1.19278,-1.40944 -1.19278,-2.7908c0,-4.14408 0,-9.8158 0,-16.09841c0,-1.29728 -0.31375,-1.68734 1.19278,-2.57533c1.50654,-0.888 2.24587,-0.74876 4.4468,-0.74876c9.85307,0 45.50262,0 51.85627,0c2.11788,0 2.79918,-0.22912 4.23402,0.74876c1.43485,0.97787 1.19278,1.50635 1.19278,2.94972c0,6.08781 0,11.30905 0,15.59923c0,1.43006 0.35834,1.86822 -1.19278,2.91559c-1.55111,1.04737 -2.11614,0.74876 -4.23402,0.74876c-2.11788,0 -45.2535,0 -51.85627,0c-2.20092,0 -2.89037,0.22809 -4.4468,-0.74876z" fill="#0c0c0c" stroke="#ffffff" stroke-width="2"/><g fill="none" stroke="#ffffff" stroke-width="0.5"><path d="M268.62137,183.88473c0,-2.19385 0,-7.80414 0,-7.80414"/><path d="M216.01722,188.40329c61.08349,0 -12.74196,0 48.34152,0"/><path d="M211.59142,184.13537c0,-1.67476 0,-5.10133 0,-7.76955"/><path d="M216.01728,171.69456c15.01618,0 48.25993,0 48.25993,0"/><path d="M268.61945,176.24055c-2.49154,0 -4.51135,-2.01979 -4.51135,-4.51135"/><path d="M264.10809,188.14545c0,-2.49154 2.01979,-4.51135 4.51135,-4.51135" data-paper-data="{&quot;index&quot;:null}"/><path d="M211.75647,183.75947c2.49156,0 4.51135,2.01979 4.51135,4.51135" data-paper-data="{&quot;index&quot;:null}"/><path d="M216.26784,172.10512c0,2.49156 -2.01979,4.51135 -4.51135,4.51135" data-paper-data="{&quot;index&quot;:null}"/><path d="M211.25524,185.88981c1.45341,0 2.63162,1.17821 2.63162,2.63162" data-paper-data="{&quot;index&quot;:null}"/><path d="M213.88688,171.35322c0,1.45341 -1.17821,2.63162 -2.63162,2.63162" data-paper-data="{&quot;index&quot;:null}"/><path d="M266.11313,188.64677c0,-1.45341 1.17821,-2.63162 2.63162,-2.63162" data-paper-data="{&quot;index&quot;:null}"/><path d="M268.74478,174.11016c-1.45341,0 -2.63162,-1.17821 -2.63162,-2.63162" data-paper-data="{&quot;index&quot;:null}"/><path d="M267.64671,177.18064c0,0 0,4.0638 0,5.6529"/><path d="M212.84456,177.38724c0,1.93271 0,4.41474 0,5.62785"/><path d="M217.20555,187.24538c24.63531,0 32.52254,0 46.21516,0"/><path d="M217.20558,172.85253c14.81218,0 46.13466,0 46.13466,0"/></g><text transform="translate(215.41872,182.65356) scale(0.22113,0.22113)" font-size="40" xml:space="preserve" fill="#ffffff" fill-rule="nonzero" stroke="none" stroke-width="1" stroke-linecap="butt" stroke-linejoin="miter" stroke-miterlimit="10" stroke-dasharray="" stroke-dashoffset="0" font-family="Malgun Gothic" font-weight="normal" text-anchor="start" style="mix-blend-mode: normal"><tspan x="0" dy="0">How to play</tspan></text></g></g></svg>