<svg version="1.1" xmlns="http://www.w3.org/2000/svg" xmlns:xlink="http://www.w3.org/1999/xlink" width="180.5" height="180.5" viewBox="0,0,180.5,180.5"><defs><radialGradient cx="240" cy="180" r="80.25" gradientUnits="userSpaceOnUse" id="color-1"><stop offset="0" stop-color="#94fffd"/><stop offset="1" stop-color="#94fffd" stop-opacity="0"/></radialGradient><radialGradient cx="240.72475" cy="178.18812" r="61.5" gradientUnits="userSpaceOnUse" id="color-2"><stop offset="0" stop-color="#94fffd"/><stop offset="1" stop-color="#94fffd" stop-opacity="0"/></radialGradient><radialGradient cx="240" cy="180" r="80.25" gradientUnits="userSpaceOnUse" id="color-3"><stop offset="0" stop-color="#94fffd"/><stop offset="1" stop-color="#94fffd" stop-opacity="0"/></radialGradient><radialGradient cx="240.72475" cy="178.18812" r="61.5" gradientUnits="userSpaceOnUse" id="color-4"><stop offset="0" stop-color="#94fffd"/><stop offset="1" stop-color="#94fffd" stop-opacity="0"/></radialGradient><radialGradient cx="240" cy="180" r="80.25" gradientUnits="userSpaceOnUse" id="color-5"><stop offset="0" stop-color="#94fffd"/><stop offset="1" stop-color="#94fffd" stop-opacity="0"/></radialGradient><radialGradient cx="240" cy="180" r="61.5" gradientUnits="userSpaceOnUse" id="color-6"><stop offset="0" stop-color="#94fffd"/><stop offset="1" stop-color="#94fffd" stop-opacity="0"/></radialGradient><radialGradient cx="240.72475" cy="178.18812" r="48" gradientUnits="userSpaceOnUse" id="color-7"><stop offset="0" stop-color="#94fffd"/><stop offset="1" stop-color="#94fffd" stop-opacity="0"/></radialGradient><radialGradient cx="240.72475" cy="178.18812" r="48" gradientUnits="userSpaceOnUse" id="color-8"><stop offset="0" stop-color="#94fffd" stop-opacity="0"/><stop offset="1" stop-color="#94fffd" stop-opacity="0"/></radialGradient><radialGradient cx="240.72475" cy="178.18812" r="48" gradientUnits="userSpaceOnUse" id="color-9"><stop offset="0" stop-color="#94fffd"/><stop offset="1" stop-color="#94fffd" stop-opacity="0"/></radialGradient><radialGradient cx="240.72475" cy="178.18812" r="48" gradientUnits="userSpaceOnUse" id="color-10"><stop offset="0" stop-color="#94fffd" stop-opacity="0"/><stop offset="1" stop-color="#94fffd" stop-opacity="0"/></radialGradient></defs><g transform="translate(-149.75,-89.75)"><g data-paper-data="{&quot;isPaintingLayer&quot;:true}" fill-rule="nonzero" stroke-linejoin="miter" stroke-miterlimit="10" stroke-dasharray="" stroke-dashoffset="0" style="mix-blend-mode: normal"><path d="M159.75,180c0,-44.32085 35.92915,-80.25 80.25,-80.25c44.32085,0 80.25,35.92915 80.25,80.25c0,44.32085 -35.92915,80.25 -80.25,80.25c-44.32085,0 -80.25,-35.92915 -80.25,-80.25z" fill="none" stroke="url(#color-1)" stroke-width="20" stroke-linecap="butt"/><path d="M179.22475,178.18812c0,-33.96551 27.53449,-61.5 61.5,-61.5c33.96551,0 61.5,27.53449 61.5,61.5c0,33.96551 -27.53449,61.5 -61.5,61.5c-33.96551,0 -61.5,-27.53449 -61.5,-61.5z" fill="none" stroke="url(#color-2)" stroke-width="20" stroke-linecap="butt"/><path d="M159.75,180c0,-44.32085 35.92915,-80.25 80.25,-80.25c44.32085,0 80.25,35.92915 80.25,80.25c0,44.32085 -35.92915,80.25 -80.25,80.25c-44.32085,0 -80.25,-35.92915 -80.25,-80.25z" fill="none" stroke="url(#color-3)" stroke-width="20" stroke-linecap="butt"/><path d="M179.22475,178.18812c0,-33.96551 27.53449,-61.5 61.5,-61.5c33.96551,0 61.5,27.53449 61.5,61.5c0,33.96551 -27.53449,61.5 -61.5,61.5c-33.96551,0 -61.5,-27.53449 -61.5,-61.5z" fill="none" stroke="url(#color-4)" stroke-width="20" stroke-linecap="butt"/><path d="M159.75,180c0,-44.32085 35.92915,-80.25 80.25,-80.25c44.32085,0 80.25,35.92915 80.25,80.25c0,44.32085 -35.92915,80.25 -80.25,80.25c-44.32085,0 -80.25,-35.92915 -80.25,-80.25z" fill="none" stroke="url(#color-5)" stroke-width="20" stroke-linecap="butt"/><path d="M178.5,180c0,-33.96551 27.53449,-61.5 61.5,-61.5c33.96551,0 61.5,27.53449 61.5,61.5c0,33.96551 -27.53449,61.5 -61.5,61.5c-33.96551,0 -61.5,-27.53449 -61.5,-61.5z" fill="none" stroke="url(#color-6)" stroke-width="20" stroke-linecap="butt"/><path d="M275.00296,154.19705l0.87723,4.24815" fill="#94fffd" stroke="#94fffd" stroke-width="0.5" stroke-linecap="round"/><path d="M275.43412,153.79577l3.47353,3.63035" fill="#94fffd" stroke="#94fffd" stroke-width="0.5" stroke-linecap="round"/><path d="M192.72475,178.18812c0,-26.50967 21.49033,-48 48,-48c26.50967,0 48,21.49033 48,48c0,26.50967 -21.49033,48 -48,48c-26.50967,0 -48,-21.49033 -48,-48z" fill="url(#color-7)" stroke="url(#color-8)" stroke-width="0" stroke-linecap="butt"/><path d="M192.72475,178.18812c0,-26.50967 21.49033,-48 48,-48c26.50967,0 48,21.49033 48,48c0,26.50967 -21.49033,48 -48,48c-26.50967,0 -48,-21.49033 -48,-48z" fill="url(#color-9)" stroke="url(#color-10)" stroke-width="0" stroke-linecap="butt"/></g></g></svg>