<svg version="1.1" xmlns="http://www.w3.org/2000/svg" xmlns:xlink="http://www.w3.org/1999/xlink" width="86.44836" height="86.44836" viewBox="0,0,86.44836,86.44836"><defs><linearGradient x1="222.7163" y1="200.06948" x2="265.95947" y2="187.97467" gradientUnits="userSpaceOnUse" id="color-1"><stop offset="0" stop-color="#ff22c0"/><stop offset="1" stop-color="#ff6a1a"/></linearGradient></defs><g transform="translate(-196.77583,-136.77582)"><g data-paper-data="{&quot;isPaintingLayer&quot;:true}" fill-rule="nonzero" stroke-linejoin="miter" stroke-miterlimit="10" stroke-dasharray="" stroke-dashoffset="0" style="mix-blend-mode: normal"><path d="M240.08923,152.61877c0,0 3.37988,10.14359 1.13539,15.81624c-3.28517,8.30282 -5.14578,5.58826 -6.72006,9.61491c-1.57431,4.02664 -2.54406,9.01601 -2.73267,10.59416c-0.07241,0.60595 -3.77294,2.71743 -4.54846,3.25697c-1.28511,0.89405 -2.24206,3.33962 -4.48616,3.70991c-1.82705,0.30146 -3.60671,0.58344 -3.60671,0.58344" fill="none" stroke="#ffd0d0" stroke-width="2" stroke-linecap="round"/><path d="M223.91476,204.3544c-0.36337,-1.29919 3.6819,-2.51392 3.17582,-5.41232c-0.50606,-2.89838 -5.29875,-0.58083 -4.47547,-2.03123c0.40008,-0.70484 1.74577,-0.91966 2.52741,-1.67489c1.3708,-1.3245 1.46236,-2.44859 2.76351,-3.85821c1.1343,-1.22885 2.72788,-1.36856 3.15011,-2.24279c0.40702,0.38976 1.61802,-0.62809 2.00575,-0.2544c7.73843,7.45841 11.91018,11.61245 23.52696,8.36332c3.18641,-0.89122 9.24185,-2.72982 10.93587,-6.56744c1.18536,4.89253 -6.88073,11.74697 -15.92861,13.80565c-12.59186,2.86506 -27.68136,-0.12765 -27.68136,-0.12765z" fill="url(#color-1)" stroke="#ffffff" stroke-width="0.5" stroke-linecap="butt"/><path d="M281.94661,169.61083c5.73779,23.16647 -8.39095,46.59798 -31.55742,52.33577c-23.16647,5.73779 -46.59798,-8.39095 -52.33577,-31.55742c-5.73779,-23.16647 8.39095,-46.59798 31.55742,-52.33577c23.16647,-5.73779 46.59798,8.39095 52.33577,31.55742z" fill="none" stroke="none" stroke-width="0" stroke-linecap="butt"/></g></g></svg>