<svg version="1.1" xmlns="http://www.w3.org/2000/svg" xmlns:xlink="http://www.w3.org/1999/xlink" width="24.34724" height="24.6061" viewBox="0,0,24.34724,24.6061"><g transform="translate(-228.95713,-168.95328)"><g data-paper-data="{&quot;isPaintingLayer&quot;:true}" fill-rule="nonzero" stroke-linejoin="miter" stroke-miterlimit="10" stroke-dasharray="" stroke-dashoffset="0" style="mix-blend-mode: normal"><path d="M236.19128,182.61251c0,0 -0.59548,2.71481 -0.03633,3.42275c0.53652,0.67927 3.32615,0.74243 3.32615,0.74243l-1.7735,2.42022" data-paper-data="{&quot;index&quot;:null}" fill="none" stroke="#728e9e" stroke-width="2" stroke-linecap="round"/><path d="M248.82622,180.60714l-3.08082,1.41391c0,0 0.81011,-2.52375 0.33542,-3.12475c-0.54782,-0.69359 -3.43452,-0.79897 -3.43452,-0.79897" data-paper-data="{&quot;index&quot;:null}" fill="none" stroke="#728e9e" stroke-width="2" stroke-linecap="round"/><path d="M235.68999,185.36591c0,0 -0.59548,2.71481 -0.03633,3.42275c0.53652,0.67927 3.32615,0.74243 3.32615,0.74243l-1.7735,2.42022" data-paper-data="{&quot;index&quot;:null}" fill="none" stroke="#84a4b7" stroke-width="2" stroke-linecap="round"/><path d="M252.30437,180.08999l-3.08082,1.41391c0,0 0.81011,-2.52375 0.33542,-3.12475c-0.54782,-0.69359 -3.43452,-0.79897 -3.43452,-0.79897" data-paper-data="{&quot;index&quot;:null}" fill="none" stroke="#84a4b7" stroke-width="2" stroke-linecap="round"/><path d="M238.97373,185.97397c0,0 -0.59548,2.71481 -0.03633,3.42275c0.53652,0.67927 3.32615,0.74243 3.32615,0.74243l-1.77351,2.42023" data-paper-data="{&quot;index&quot;:null}" fill="none" stroke="#98bdd3" stroke-width="2" stroke-linecap="round"/><path d="M251.43042,183.98987l-3.08082,1.41391c0,0 0.81011,-2.52375 0.33542,-3.12475c-0.54782,-0.69359 -3.43452,-0.79897 -3.43452,-0.79897" data-paper-data="{&quot;index&quot;:null}" fill="#a1c8e0" stroke="#98bdd3" stroke-width="2" stroke-linecap="round"/><path d="M244.19859,172.81679c1.27897,1.61929 3.59257,3.03641 3.14462,5.0483c-0.40629,1.8248 -3.07064,4.60982 -4.74548,5.93267c-1.89799,1.4991 -4.85801,3.37292 -6.93754,3.14142c-1.77867,-0.19801 -3.08927,-2.62672 -4.21368,-4.05031c-1.39775,-1.76967 -2.15555,-4.05156 -1.50148,-6.23182c0.48724,-1.62419 1.95795,-3.20811 3.4613,-4.39552c1.66681,-1.31651 3.61161,-2.57898 5.47289,-2.55799c2.07096,0.02335 4.03483,1.48691 5.31937,3.11324z" data-paper-data="{&quot;index&quot;:null}" fill="#1c304b" stroke="#a1c8e0" stroke-width="1.5" stroke-linecap="butt"/><path d="M239.7446,176.79678l-0.48514,1.09998l-1.23149,0.25588l-0.4566,1.03527l-1.11288,0.20437" data-paper-data="{&quot;index&quot;:null}" fill="none" stroke="#a1c8e0" stroke-width="1.5" stroke-linecap="round"/><path d="M232.12042,176.925l0.74617,0.08762" data-paper-data="{&quot;index&quot;:null}" fill="none" stroke="#a1c8e0" stroke-width="1.5" stroke-linecap="round"/><path d="M238.2578,172.59515l0.08762,-0.74617" data-paper-data="{&quot;index&quot;:null}" fill="none" stroke="#a1c8e0" stroke-width="1.5" stroke-linecap="round"/><path d="M233.32492,182.26159l0.28862,-2.45799" data-paper-data="{&quot;index&quot;:null}" fill="none" stroke="#a1c8e0" stroke-width="1" stroke-linecap="round"/><path d="M234.73696,181.22595l-2.80913,-0.32985" data-paper-data="{&quot;index&quot;:null}" fill="none" stroke="#a1c8e0" stroke-width="1" stroke-linecap="round"/><path d="M241.95461,175.84376l0.28862,-2.45799" data-paper-data="{&quot;index&quot;:null}" fill="none" stroke="#a1c8e0" stroke-width="1" stroke-linecap="round"/><path d="M240.55752,174.47827l2.80913,0.32985" data-paper-data="{&quot;index&quot;:null}" fill="none" stroke="#a1c8e0" stroke-width="1" stroke-linecap="round"/></g></g></svg>