<svg version="1.1" xmlns="http://www.w3.org/2000/svg" xmlns:xlink="http://www.w3.org/1999/xlink" width="62.11111" height="62.11111" viewBox="0,0,62.11111,62.11111"><defs><linearGradient x1="244.25625" y1="166.22964" x2="262.28701" y2="181.33412" gradientUnits="userSpaceOnUse" id="color-1"><stop offset="0" stop-color="#ffff00"/><stop offset="1" stop-color="#ffc600"/></linearGradient><linearGradient x1="235.17832" y1="166.07261" x2="218.04181" y2="181.75808" gradientUnits="userSpaceOnUse" id="color-2"><stop offset="0" stop-color="#ffff00"/><stop offset="1" stop-color="#ffc600"/></linearGradient></defs><g transform="translate(-208.9445,-148.94448)"><g data-paper-data="{&quot;isPaintingLayer&quot;:true}" fill-rule="nonzero" stroke-linejoin="miter" stroke-miterlimit="10" stroke-dasharray="" stroke-dashoffset="0" style="mix-blend-mode: normal"><path d="M208.94451,211.05559v-62.11111h62.11111v62.11111z" data-paper-data="{&quot;index&quot;:null}" fill="none" stroke="none" stroke-width="NaN" stroke-linecap="butt"/><path d="M246.80713,163.23483c0.02628,-0.26605 0.33258,-0.20097 0.33258,-0.20097c0,0 5.27127,5.63677 7.42451,9.13361c2.15325,3.49684 3.04538,10.7154 -0.28751,11.5152c-2.16148,2.59663 -0.77437,-6.06415 -3.55097,-10.41802c-2.7766,-4.35387 -3.99743,-9.23165 -3.9186,-10.02982z" data-paper-data="{&quot;index&quot;:null,&quot;origRot&quot;:0}" fill="url(#color-1)" stroke="#9e3200" stroke-width="1.5" stroke-linecap="butt"/><path d="M240.00739,157.11932c6.8423,0 10.37025,9.08476 10.37025,17.79321c0,5.14123 2.40384,9.86104 0.01484,14.40955c-1.29974,2.47465 -6.8634,2.97862 -10.38509,2.97862c-5.72743,0 -9.79511,-0.50636 -10.87499,-2.6761c-1.30405,-2.62014 -0.40373,-9.96088 -0.40373,-12.88942c0,-8.70845 4.43643,-19.61586 11.27872,-19.61586z" data-paper-data="{&quot;index&quot;:null}" fill="#ffff00" stroke="#9e3200" stroke-width="1.5" stroke-linecap="butt"/><path d="M229.95605,190.2084c0,0 -0.33069,-4.04146 9.53893,-4.10097c9.16373,-0.05525 9.23611,4.70851 9.23611,4.70851c0,0 -5.18875,1.7053 -9.84176,1.5695c-10.40863,-0.30377 -8.93329,-2.17705 -8.93329,-2.17705z" data-paper-data="{&quot;index&quot;:null}" fill="#ffff94" stroke="#9e3200" stroke-width="1.5" stroke-linecap="butt"/><path d="M239.88492,173.08974c0.78048,0 1.41318,0.16165 1.41318,0.8607c0,0.69905 -1.03647,1.67076 -1.41318,1.67076c-0.47766,0 -1.41318,-0.87046 -1.41318,-1.5695c0,-0.69904 0.6327,-0.96196 1.41318,-0.96196z" data-paper-data="{&quot;index&quot;:null}" fill="#ff3131" stroke="#9e3200" stroke-width="1.5" stroke-linecap="butt"/><path d="M251.36186,183.22254c0,0 0.0893,8.79149 -3.91858,8.11023c-2.70307,-0.45947 -3.05756,-9.01173 -3.05756,-9.01173" data-paper-data="{&quot;index&quot;:null}" fill="#ffff00" stroke="#9e3200" stroke-width="1.5" stroke-linecap="round"/><path d="M245.8465,173.20539c-1.04528,0 -1.89265,-0.85003 -1.89265,-1.8986c0,-1.04857 0.84737,-1.8986 1.89265,-1.8986c1.04528,0 1.89265,0.85003 1.89265,1.8986c0,1.04857 -0.84737,1.8986 -1.89265,1.8986z" data-paper-data="{&quot;index&quot;:null}" fill="#9e3200" stroke="none" stroke-width="0.5" stroke-linecap="butt"/><path d="M231.95636,171.30678c0,-1.04857 0.84737,-1.8986 1.89265,-1.8986c1.04528,0 1.89265,0.85003 1.89265,1.8986c0,1.04857 -0.84737,1.8986 -1.89265,1.8986c-1.04528,0 -1.89265,-0.85003 -1.89265,-1.8986z" data-paper-data="{&quot;index&quot;:null}" fill="#9e3200" stroke="none" stroke-width="0.5" stroke-linecap="butt"/><path d="M241.18595,177.81311c0,0 -1.0661,0.22357 -1.51651,0.22246c-0.42147,-0.00104 -1.10492,-0.2289 -1.10492,-0.2289" data-paper-data="{&quot;index&quot;:null}" fill="none" stroke="#9e3200" stroke-width="1.5" stroke-linecap="round"/><path d="M232.54777,167.44117c0,-0.95499 0.74126,-1.74782 1.75,-1.73032c1.00874,0.0175 2.00162,0.77708 1.8125,1.79211" fill="none" stroke="#9e3200" stroke-width="1.5" stroke-linecap="round"/><path d="M243.81561,167.19398c0,-0.95499 0.74126,-1.74782 1.75,-1.73032c1.00874,0.0175 2.00161,0.77707 1.8125,1.79211" fill="none" stroke="#9e3200" stroke-width="1.5" stroke-linecap="round"/><path d="M229.12216,173.26849c-2.52283,4.38361 -0.64238,12.71031 -2.94888,10.31316c-3.37315,-0.58659 -2.89561,-7.64326 -0.94605,-11.15961c1.94957,-3.51635 6.88952,-9.287 6.88952,-9.287c0,0 0.30206,-0.08059 0.34353,0.17613c0.12438,0.77017 -0.81527,5.57372 -3.33811,9.95732z" data-paper-data="{&quot;index&quot;:null,&quot;origRot&quot;:0}" fill="url(#color-2)" stroke="#9e3200" stroke-width="1.5" stroke-linecap="butt"/><path d="M235.36107,182.90024c0,0 -0.35449,8.55227 -3.05756,9.01173c-4.00788,0.68125 -3.91858,-8.11023 -3.91858,-8.11023" data-paper-data="{&quot;index&quot;:null}" fill="#ffff00" stroke="#9e3200" stroke-width="1.5" stroke-linecap="round"/></g></g></svg>