<svg version="1.1" xmlns="http://www.w3.org/2000/svg" xmlns:xlink="http://www.w3.org/1999/xlink" width="86.44937" height="86.44937" viewBox="0,0,86.44937,86.44937"><defs><linearGradient x1="256.94497" y1="159.64372" x2="213.91056" y2="172.46147" gradientUnits="userSpaceOnUse" id="color-1"><stop offset="0" stop-color="#ff22c0"/><stop offset="1" stop-color="#ff6a1a"/></linearGradient></defs><g transform="translate(-196.77531,-136.77531)"><g data-paper-data="{&quot;isPaintingLayer&quot;:true}" fill-rule="nonzero" stroke-linejoin="miter" stroke-miterlimit="10" stroke-dasharray="" stroke-dashoffset="0" style="mix-blend-mode: normal"><g><g><path d="M240.36963,207.37888c0,0 -3.54938,-10.08554 -1.40027,-15.79499c3.14557,-8.35671 5.05142,-5.67371 6.558,-9.72617c1.50661,-4.05246 2.39262,-9.05738 2.55476,-10.63846c0.06225,-0.60708 3.72688,-2.78027 4.49324,-3.33273c1.26994,-0.91547 2.18578,-3.37673 4.42336,-3.78456c1.82175,-0.33204 3.59642,-0.6438 3.59642,-0.6438" fill="none" stroke="#ffd0d0" stroke-width="2" stroke-linecap="round"/><path d="M255.67488,155.37948c0.38509,1.29292 -3.63925,2.57527 -3.08467,5.46479c0.55456,2.8895 5.30774,0.49195 4.50888,1.95594c-0.38821,0.71145 -1.73011,0.94878 -2.49899,1.71701c-1.34841,1.34729 -1.42113,2.47275 -2.69847,3.90398c-1.11355,1.24769 -2.70456,1.41408 -3.11208,2.29526c-0.41349,-0.38289 -1.60728,0.65512 -2.00121,0.28797c-7.86233,-7.32769 -12.10311,-11.41124 -23.66381,-7.9679c-3.17103,0.94449 -9.19481,2.88431 -10.82428,6.74978c-1.26719,-4.87198 6.68291,-11.86062 15.69503,-14.07063c12.54208,-3.07566 27.67962,-0.33623 27.67962,-0.33623z" fill="url(#color-1)" stroke="#ffffff" stroke-width="0.5" stroke-linecap="butt"/></g><path d="M198.23339,191.09063c-6.12519,-23.06706 7.60892,-46.73205 30.67598,-52.85724c23.06706,-6.12519 46.73205,7.60892 52.85724,30.67598c6.12519,23.06706 -7.60892,46.73205 -30.67598,52.85724c-23.06706,6.12519 -46.73205,-7.60892 -52.85724,-30.67598z" fill="none" stroke="none" stroke-width="0" stroke-linecap="butt"/></g></g></g></svg>