<svg version="1.1" xmlns="http://www.w3.org/2000/svg" xmlns:xlink="http://www.w3.org/1999/xlink" width="77.1" height="77.1" viewBox="0,0,77.1,77.1"><g transform="translate(-201.45,-141.45)"><g data-paper-data="{&quot;isPaintingLayer&quot;:true}" fill-rule="nonzero" stroke-linejoin="miter" stroke-miterlimit="10" stroke-dasharray="" stroke-dashoffset="0" style="mix-blend-mode: normal"><path d="M216.625,203.375v-46.75h46.75v46.75z" fill="none" stroke="none" stroke-width="2" stroke-linecap="butt"/><path d="M201.45,218.55v-77.1h77.1v77.1z" fill="none" stroke="none" stroke-width="NaN" stroke-linecap="butt"/><g stroke="#00be78"><path d="M247.60416,170.65857c0,0 1.94796,6.24559 1.40235,12.28626c-0.54561,6.04067 -3.42927,10.15446 -3.42927,10.15446" fill="none" stroke-width="2.5" stroke-linecap="round"/><path d="M250.33674,187.66469c0.37948,0.67078 -0.16186,2.45472 -1.20908,3.98454c-1.04722,1.52982 -2.20379,2.2262 -2.58325,1.55543c-0.37948,-0.67078 0.16186,-2.45471 1.20908,-3.98453c1.04722,-1.52982 2.20379,-2.2262 2.58325,-1.55543z" fill="#00ffb7" stroke-width="1" stroke-linecap="butt"/><path d="M244.94794,183.98568c0.50314,-0.61599 1.51291,0.21487 2.25539,1.85578c0.74248,1.64091 0.93649,3.4705 0.43335,4.0865c-0.50313,0.61599 -1.51291,-0.21487 -2.25538,-1.85578c-0.74248,-1.64091 -0.93648,-3.47049 -0.43334,-4.08649z" data-paper-data="{&quot;index&quot;:null}" fill="#00ffb7" stroke-width="1" stroke-linecap="butt"/><path d="M249.53262,182.975c1.04723,-1.52982 2.2038,-2.22619 2.58325,-1.55542c0.37947,0.67077 -0.16187,2.45471 -1.20909,3.98453c-1.04722,1.52982 -2.20379,2.22619 -2.58325,1.55542c-0.37946,-0.67077 0.16187,-2.45471 1.20909,-3.98453z" fill="#00ffb7" stroke-width="1" stroke-linecap="butt"/><path d="M247.66228,178.37978c0.29649,0.65527 0.50553,1.34063 0.61763,1.96678c0.16862,0.94183 0.11794,1.74971 -0.18428,2.11972c-0.50314,0.61599 -1.5129,-0.21488 -2.25538,-1.85578c-0.74248,-1.64091 -0.93649,-3.47049 -0.43335,-4.08649z" data-paper-data="{&quot;index&quot;:null}" fill="#00ffb7" stroke-width="1" stroke-linecap="butt"/><path d="M252.73113,174.04239c0.37948,0.67078 -0.16186,2.45471 -1.20908,3.98453c-1.04722,1.52982 -2.2038,2.2262 -2.58325,1.55543c-0.37948,-0.67078 0.16186,-2.45471 1.20908,-3.98453c1.04722,-1.52982 2.2038,-2.2262 2.58325,-1.55543z" fill="#00ffb7" stroke-width="1" stroke-linecap="butt"/><path d="M247.88061,171.5642c0.74248,1.64091 0.93649,3.4705 0.43335,4.0865c-0.50313,0.61599 -1.51291,-0.21487 -2.25538,-1.85578c-0.74248,-1.64091 -0.93648,-3.47049 -0.43334,-4.08648z" data-paper-data="{&quot;index&quot;:null}" fill="#00ffb7" stroke-width="1" stroke-linecap="butt"/><path d="M250.42701,169.35271c1.04723,-1.52982 2.2038,-2.2262 2.58326,-1.55542c0.37947,0.67077 -0.16187,2.45471 -1.20909,3.98453c-1.04722,1.52982 -2.20379,2.2262 -2.58325,1.55543c-0.37946,-0.67077 0.16187,-2.45472 1.20909,-3.98454z" fill="#00ffb7" stroke-width="1" stroke-linecap="butt"/></g><path d="M236.37822,187.69355c0.46337,0.21351 0.9772,1.38846 1.14769,2.62435c0.17049,1.23588 -0.06695,2.06469 -0.5303,1.85119c-0.46337,-0.21351 -0.97719,-1.38846 -1.14768,-2.62435c-0.17049,-1.23588 0.06694,-2.06469 0.53029,-1.85119z" fill="#00ffb7" stroke="#00be78" stroke-width="1" stroke-linecap="butt"/><path d="M231.57404,188.99495c-0.0309,-0.52955 0.79315,-0.47644 1.84056,0.11861c1.04741,0.59504 1.92155,1.50669 1.95245,2.03624c0.03089,0.52954 -0.79314,0.47643 -1.84055,-0.1186c-1.04741,-0.59504 -1.92155,-1.5067 -1.95246,-2.03624z" data-paper-data="{&quot;index&quot;:null}" fill="#00ffb7" stroke="#00be78" stroke-width="1" stroke-linecap="butt"/><path d="M216.625,203.375v-46.75h46.75v46.75z" fill="none" stroke="none" stroke-width="2" stroke-linecap="butt"/><g stroke="#00be78"><path d="M242.63306,181.85153c0.17938,0.47761 -0.28136,1.67439 -1.02908,2.67308c-0.74773,0.99869 -1.49929,1.42112 -1.67866,0.94351c-0.17938,-0.47761 0.28136,-1.67438 1.02908,-2.67308c0.74773,-0.99869 1.49929,-1.42112 1.67866,-0.94351z" fill="#00ffb7" stroke-width="1" stroke-linecap="butt"/><path d="M237.27393,179.58118c0.18966,-0.49537 0.91892,-0.10799 1.62883,0.86524c0.70991,0.97323 1.13165,2.16376 0.94198,2.65913c-0.18966,0.49537 -0.91891,0.10799 -1.62883,-0.86523c-0.7099,-0.97323 -1.13165,-2.16376 -0.94199,-2.65914z" data-paper-data="{&quot;index&quot;:null}" fill="#00ffb7" stroke-width="1" stroke-linecap="butt"/><path d="M240.5074,177.53491c0.35299,-1.19661 0.91035,-1.85438 1.24486,-1.46917c0.33451,0.38521 0.31952,1.66752 -0.03347,2.86413c-0.35299,1.19661 -0.91034,1.85438 -1.24486,1.46917c-0.33451,-0.38521 -0.31952,-1.66752 0.03347,-2.86413z" fill="#00ffb7" stroke-width="1" stroke-linecap="butt"/><path d="M238.32998,175.9443c0.70991,0.97323 1.13166,2.16376 0.94199,2.65914c-0.18966,0.49536 -0.91893,0.10799 -1.62884,-0.86525c-0.70991,-0.97323 -1.13165,-2.16375 -0.94199,-2.65913z" data-paper-data="{&quot;index&quot;:null}" fill="#00ffb7" stroke-width="1" stroke-linecap="butt"/><path d="M240.95476,171.15134c0.33452,0.38522 0.31953,1.66753 -0.03347,2.86414c-0.35299,1.19661 -0.91033,1.85438 -1.24485,1.46917c-0.33452,-0.38522 -0.31954,-1.66752 0.03346,-2.86413c0.35299,-1.19661 0.91034,-1.85439 1.24486,-1.46918z" fill="#00ffb7" stroke-width="1" stroke-linecap="butt"/><path d="M236.78072,169.4957c0.18966,-0.49537 0.91893,-0.10799 1.62884,0.86524c0.70991,0.97323 1.13165,2.16376 0.94199,2.65913c-0.18966,0.49537 -0.91892,0.108 -1.62883,-0.86523c-0.7099,-0.97323 -1.13165,-2.16376 -0.94199,-2.65913z" data-paper-data="{&quot;index&quot;:null}" fill="#00ffb7" stroke-width="1" stroke-linecap="butt"/><path d="M238.96939,167.70974c0.35299,-1.19661 0.91035,-1.85438 1.24486,-1.46917c0.33451,0.38521 0.31952,1.66752 -0.03347,2.86413c-0.35299,1.19661 -0.91034,1.85438 -1.24486,1.46917c-0.33451,-0.38521 -0.31952,-1.66751 0.03348,-2.86412z" fill="#00ffb7" stroke-width="1" stroke-linecap="butt"/><path d="M237.68446,165.55619c0.70991,0.97323 1.13166,2.16377 0.94199,2.65914c-0.18966,0.49536 -0.91893,0.10798 -1.62884,-0.86525c-0.70991,-0.97323 -1.13165,-2.16376 -0.94199,-2.65913z" data-paper-data="{&quot;index&quot;:null}" fill="#00ffb7" stroke-width="1" stroke-linecap="butt"/><path d="M238.4143,167.76094c0,0 1.29451,8.89581 1.75883,12.08662c0.30442,2.09193 -0.27141,6.31905 -0.27141,6.31905" fill="none" stroke-width="1.5" stroke-linecap="round"/></g><path d="M236.60534,177.66812c0.42784,-0.76457 1.52765,0.04206 2.45651,1.80163c0.92886,1.75958 1.33502,3.80579 0.90719,4.57036c-0.42783,0.76456 -1.52765,-0.04206 -2.45651,-1.80164c-0.92886,-1.75958 -1.33501,-3.80579 -0.90718,-4.57036z" data-paper-data="{&quot;index&quot;:null}" fill="#00ffb7" stroke="#00be78" stroke-width="1" stroke-linecap="butt"/><g stroke-width="1" stroke-linecap="butt"><path d="M237.76952,192.04963c0,1.24296 -0.08427,0 -2.25057,0c-2.1663,0 -1.22175,-2.67948 -1.22175,-3.92244c0,-1.24296 8.76506,-1.99336 10.93136,-1.99336c2.1663,0 -7.45904,4.67284 -7.45904,5.9158z" fill="#d853db" stroke="#d34ed9"/><path d="M240.5988,189.73475c0,-1.02988 0.83488,-1.86476 1.86476,-1.86476c1.02988,0 1.86476,0.83487 1.86476,1.86476c0,1.02988 -0.83488,1.86476 -1.86476,1.86476c-1.02988,0 -1.86476,-0.83488 -1.86476,-1.86476z" fill="#ffffff" stroke="#ffbaba"/><path d="M240.66311,195.50401c-3.76438,0 -6.81603,-3.70743 -6.81603,-3.70743c0,0 1.20409,-0.34586 2.31851,-0.82441c1.15606,-0.49643 2.56845,0.28782 2.56845,0.28782c0,0 1.60557,-1.01727 2.18601,-1.0108c0.51272,0.00573 1.36275,0.69121 2.4107,0.94346c0.84228,0.20275 1.89688,-0.51363 2.59459,-0.45075c0.87317,0.0787 1.5538,1.05467 1.5538,1.05467c0,0 -3.05164,3.70743 -6.81603,3.70743z" data-paper-data="{&quot;index&quot;:null}" fill="#ff99f3" stroke="#d94ecb"/><path d="M245.7888,185.97069c-0.62594,0.18702 -1.9391,-0.01879 -2.63737,0.28336c-0.86876,0.37591 -1.35592,0.97032 -1.83421,1.08339c-0.54146,0.12799 -2.5075,-0.14116 -2.5075,-0.14116c0,0 -0.96992,0.7741 -2.27875,0.7224c-1.26169,-0.04984 -2.61177,3.92181 -2.61177,3.92181c0,0 -0.64412,-1.26643 -0.61836,-1.9806c0.03965,-1.09876 1.04316,-2.62885 1.31198,-2.99019c0.67675,-0.90966 1.95359,-2.15469 4.08636,-2.64086c3.53063,-0.80481 8.06985,0.77472 8.06985,0.77472z" fill="#ff99f3" stroke="#d94ecb"/></g><path d="M235.96975,194.84426c0,0 -2.75224,-3.98162 -3.42008,-6.9186c-0.66784,-2.93698 -1.17566,-13.29225 -1.17566,-13.29225" fill="none" stroke="#00be78" stroke-width="1.5" stroke-linecap="round"/><path d="M235.87669,188.11698c0.36293,0.35858 0.44581,1.63829 0.18511,2.85834c-0.26069,1.22005 -0.76623,1.91841 -1.12917,1.55984c-0.36293,-0.35858 -0.4458,-1.63828 -0.1851,-2.85833c0.26069,-1.22005 0.76623,-1.91842 1.12916,-1.55985z" fill="#00ffb7" stroke="#00be78" stroke-width="1" stroke-linecap="butt"/><path d="M230.91652,187.70408c0.15133,-0.5084 0.908,-0.17778 1.69008,0.73847c0.78208,0.91625 1.29341,2.07114 1.14208,2.57953c-0.15133,0.5084 -0.908,0.17777 -1.69009,-0.73846c-0.78207,-0.91624 -1.29341,-2.07113 -1.14208,-2.57953z" data-paper-data="{&quot;index&quot;:null}" fill="#00ffb7" stroke="#00be78" stroke-width="1" stroke-linecap="butt"/><path d="M233.54966,185.91549c0.26069,-1.22005 0.76624,-1.91841 1.12917,-1.55984c0.36292,0.35857 0.44579,1.63829 0.1851,2.85834c-0.26069,1.22005 -0.76623,1.91841 -1.12916,1.55984c-0.36292,-0.35857 -0.4458,-1.63828 -0.1851,-2.85833z" fill="#00ffb7" stroke="#00be78" stroke-width="1" stroke-linecap="butt"/><path d="M231.32087,184.3002c0.78208,0.91625 1.29341,2.07113 1.14208,2.57954c-0.15133,0.50839 -0.90801,0.17777 -1.69009,-0.73848c-0.78208,-0.91625 -1.2934,-2.07113 -1.14208,-2.57953z" data-paper-data="{&quot;index&quot;:null}" fill="#00ffb7" stroke="#00be78" stroke-width="1" stroke-linecap="butt"/><path d="M233.39739,180.15945c0.36293,0.35858 0.4458,1.63829 0.18511,2.85834c-0.26069,1.22005 -0.76623,1.91841 -1.12917,1.55984c-0.36293,-0.35858 -0.4458,-1.63828 -0.1851,-2.85833c0.26069,-1.22005 0.76623,-1.91842 1.12916,-1.55985z" fill="#00ffb7" stroke="#00be78" stroke-width="1" stroke-linecap="butt"/><path d="M228.58875,178.80355c0.15133,-0.5084 0.90802,-0.17776 1.69009,0.73847c0.78208,0.91625 1.29341,2.07113 1.14208,2.57953c-0.15133,0.5084 -0.90801,0.17777 -1.69009,-0.73846c-0.78207,-0.91624 -1.2934,-2.07113 -1.14208,-2.57953z" data-paper-data="{&quot;index&quot;:null}" fill="#00ffb7" stroke="#00be78" stroke-width="1" stroke-linecap="butt"/><path d="M233.38898,174.92101c0.36292,0.35857 0.4458,1.63828 0.1851,2.85833c-0.26069,1.22005 -0.76623,1.91841 -1.12917,1.55984c-0.36292,-0.35857 -0.44579,-1.63829 -0.18509,-2.85834z" fill="#00ffb7" stroke="#00be78" stroke-width="1" stroke-linecap="butt"/><path d="M230.56436,174.80659c0.78208,0.91625 1.29341,2.07114 1.14208,2.57954c-0.15133,0.50839 -0.90801,0.17777 -1.69009,-0.73848c-0.78208,-0.91625 -1.29341,-2.07113 -1.14208,-2.57953z" data-paper-data="{&quot;index&quot;:null}" fill="#00ffb7" stroke="#00be78" stroke-width="1" stroke-linecap="butt"/></g></g></svg>