<svg version="1.1" xmlns="http://www.w3.org/2000/svg" xmlns:xlink="http://www.w3.org/1999/xlink" width="32.4475" height="32.4475" viewBox="0,0,32.4475,32.4475"><g transform="translate(-223.77625,-163.77625)"><g data-paper-data="{&quot;isPaintingLayer&quot;:true}" fill-rule="nonzero" stroke-linejoin="miter" stroke-miterlimit="10" stroke-dasharray="" stroke-dashoffset="0" style="mix-blend-mode: normal"><path d="M248.52143,187.81726c0,0 0.03868,0.76854 -1.00621,1.60203c-0.96498,0.76976 -3.42018,-0.46261 -4.53268,-0.25865c-0.92142,0.16894 -2.90841,0.81083 -3.83145,1.01679c-2.28538,0.50994 -3.46726,-0.63602 -4.69315,-0.65305c-0.81798,-0.01136 -2.39308,1.2374 -3.2279,0.66364c-0.91404,-0.62821 -0.4898,-2.37075 -0.4898,-2.37075c0,0 -0.0779,-7.59947 3.26364,-12.31694c3.34155,-4.71747 8.67709,-5.90853 12.94202,0.11254c4.26493,6.02107 1.57553,12.20439 1.57553,12.20439z" data-paper-data="{&quot;index&quot;:null}" fill="#2a650f" stroke="#63ec23" stroke-width="2" stroke-linecap="butt"/><path d="M223.77625,196.22375v-32.4475h32.4475v32.4475z" data-paper-data="{&quot;index&quot;:null}" fill="none" stroke="none" stroke-width="0" stroke-linecap="butt"/><path d="M226.82265,189.76289c0,-0.60995 1.29627,-0.45886 4.17171,-0.65818c0.88665,-0.06146 1.92345,-0.51821 3.1187,-0.57937c1.42164,-0.07275 3.05741,0.48755 4.6596,0.48755c1.52734,0 3.89433,-1.06392 5.25961,-0.99753c5.17605,0.25171 9.29039,0.93905 9.29039,1.74753c0,1.02173 -5.93223,1.85 -13.25,1.85c-7.31777,0 -13.25,-0.82827 -13.25,-1.85z" data-paper-data="{&quot;index&quot;:null}" fill="#4cb61b" stroke="none" stroke-width="NaN" stroke-linecap="butt"/><path d="M247.17098,170.06114c0,0 0.71625,1.08828 0.73564,1.92223c0.01802,0.77474 -0.6231,2.91696 -0.6231,2.91696" data-paper-data="{&quot;index&quot;:null}" fill="none" stroke="#ffffff" stroke-width="2" stroke-linecap="round"/><path d="M234.17881,175.05017c0,0 -1.10765,-2.02007 -1.15982,-2.69829c-0.05942,-0.77249 0.8222,-1.69074 0.8222,-1.69074" data-paper-data="{&quot;index&quot;:null}" fill="none" stroke="#ffffff" stroke-width="2" stroke-linecap="round"/><path d="M240.82265,188.71289c-0.60751,0 -1.1,0.10751 -1.1,-0.5c0,-0.60752 0.49248,-1.1 1.1,-1.1c0.60751,0 1.1,0.49248 1.1,1.1c0,0.60751 -0.49249,0.5 -1.1,0.5z" data-paper-data="{&quot;index&quot;:null}" fill="none" stroke="#398814" stroke-width="1" stroke-linecap="butt"/><path d="M236.22266,179.01289c-0.60751,0 -1.1,-0.49249 -1.1,-1.1c0,-0.60752 0.49248,-1.1 1.1,-1.1c0.60751,0 1.1,0.49248 1.1,1.1c0,0.60751 -0.49249,1.1 -1.1,1.1z" data-paper-data="{&quot;index&quot;:null}" fill="none" stroke="#398814" stroke-width="1" stroke-linecap="butt"/><path d="M245.12265,186.11289c-0.60751,0 -1.1,-0.49249 -1.1,-1.1c0,-0.60751 0.49249,-1.1 1.1,-1.1c0.60751,0 1.1,0.49249 1.1,1.1c0,0.60751 -0.49249,1.1 -1.1,1.1z" data-paper-data="{&quot;index&quot;:null}" fill="none" stroke="#398814" stroke-width="1" stroke-linecap="butt"/><path d="M235.02266,187.01289c-1.21502,0 -2.2,-0.98498 -2.2,-2.2c0,-1.21502 0.98498,-2.2 2.2,-2.2c1.21502,0 2.2,0.98498 2.2,2.2c0,1.21502 -0.98498,2.2 -2.2,2.2z" data-paper-data="{&quot;index&quot;:null}" fill="none" stroke="#398814" stroke-width="1" stroke-linecap="butt"/><path d="M243.52266,179.81289c-1.5464,0 -2.8,-1.2536 -2.8,-2.8c0,-1.5464 1.2536,-2.8 2.8,-2.8c1.5464,0 2.8,1.2536 2.8,2.8c0,1.5464 -1.2536,2.8 -2.8,2.8z" data-paper-data="{&quot;index&quot;:null}" fill="none" stroke="#398814" stroke-width="1" stroke-linecap="butt"/><path d="M242.44433,179.55175l1.80063,-1.80063" data-paper-data="{&quot;index&quot;:null}" fill="none" stroke="#63ec23" stroke-width="1" stroke-linecap="round"/><path d="M237.71768,179.55174l-1.46301,-1.46301" data-paper-data="{&quot;index&quot;:null}" fill="none" stroke="#63ec23" stroke-width="1" stroke-linecap="round"/><path d="M240.42266,171.01289v-2.7" data-paper-data="{&quot;index&quot;:null}" fill="none" stroke="#63ec23" stroke-width="1" stroke-linecap="round"/><path d="M236.82266,168.31289c0,0 0.99848,-0.6457 1.52996,-0.73189c0.66965,-0.10859 2.17004,0.83189 2.17004,0.83189c0,0 1.49488,-1.01342 2.07322,-0.82631c0.55394,0.17922 1.32678,1.22631 1.32678,1.22631" data-paper-data="{&quot;index&quot;:null}" fill="none" stroke="#63ec23" stroke-width="2" stroke-linecap="round"/><path d="M242.92266,183.21289h-5.5" data-paper-data="{&quot;index&quot;:null}" fill="none" stroke="#63ec23" stroke-width="1" stroke-linecap="round"/><path d="M244.92266,181.31289l2,-2" data-paper-data="{&quot;index&quot;:null}" fill="none" stroke="#63ec23" stroke-width="1" stroke-linecap="round"/><path d="M246.42266,181.31289l-1.7,-1.7" data-paper-data="{&quot;index&quot;:null}" fill="none" stroke="#63ec23" stroke-width="1" stroke-linecap="round"/><path d="M234.52266,181.51289l1.9,-1.9" data-paper-data="{&quot;index&quot;:null}" fill="none" stroke="#63ec23" stroke-width="1" stroke-linecap="round"/><path d="M236.32266,181.81289l-1.9,-1.9" data-paper-data="{&quot;index&quot;:null}" fill="none" stroke="#63ec23" stroke-width="1" stroke-linecap="round"/><path d="M248.52143,187.81726c0,0 0.03868,0.76854 -1.00621,1.60203c-0.96498,0.76976 -3.42018,-0.46261 -4.53268,-0.25865c-0.92142,0.16894 -2.90841,0.81083 -3.83145,1.01679c-2.28538,0.50994 -3.46726,-0.63602 -4.69315,-0.65305c-0.81798,-0.01136 -2.39308,1.2374 -3.2279,0.66364c-0.91404,-0.62821 -0.4898,-2.37075 -0.4898,-2.37075c0,0 -0.0779,-7.59947 3.26364,-12.31694c3.34155,-4.71747 8.67709,-5.90853 12.94202,0.11254c4.26493,6.02107 1.57553,12.20439 1.57553,12.20439z" data-paper-data="{&quot;index&quot;:null}" fill="none" stroke="#63ec23" stroke-width="2" stroke-linecap="butt"/></g></g></svg>