<svg version="1.1" xmlns="http://www.w3.org/2000/svg" xmlns:xlink="http://www.w3.org/1999/xlink" width="32.2" height="32.2" viewBox="0,0,32.2,32.2"><defs><radialGradient cx="240" cy="180" r="10.23077" gradientUnits="userSpaceOnUse" id="color-1"><stop offset="0" stop-color="#59f5ff"/><stop offset="1" stop-color="#59f5ff" stop-opacity="0"/></radialGradient></defs><g transform="translate(-223.9,-163.9)"><g data-paper-data="{&quot;isPaintingLayer&quot;:true}" fill-rule="nonzero" stroke-linecap="butt" stroke-linejoin="miter" stroke-miterlimit="10" stroke-dasharray="" stroke-dashoffset="0" style="mix-blend-mode: normal"><path d="M229.76923,180c0,-5.6503 4.58047,-10.23077 10.23077,-10.23077c5.6503,0 10.23077,4.58047 10.23077,10.23077c0,5.6503 -4.58047,10.23077 -10.23077,10.23077c-5.6503,0 -10.23077,-4.58047 -10.23077,-10.23077z" fill="url(#color-1)" stroke="#ffe400" stroke-width="0"/><path d="M223.9,196.1v-32.2h32.2v32.2z" fill="none" stroke="none" stroke-width="NaN"/><path d="M233.19894,177.15078c0,0 2.23715,-2.77534 4.8083,-3.24592c0,0 4.84391,-0.26336 6.26697,0.64868c0,0 2.70456,2.65023 3.26947,3.96191c0,0 -5.44535,6.96364 -7.59497,7.81017c-0.01011,0.05901 -6.52867,-5.85677 -6.74977,-9.17484z" fill="#7fccef" stroke="none" stroke-width="1"/><path d="M239.9386,186.38463l0.16662,-4.16279l3.41904,-2.93728l3.58943,-1.45023c0.20571,0.21748 0.3423,0.48386 0.42998,0.68112c0,0 -5.38634,6.97375 -7.60508,7.86918z" fill="#678fe4" stroke="none" stroke-width="1"/><path d="M239.83508,176.70858l3.68919,2.57598c-0.44161,1.86814 -3.58566,7.10007 -3.58566,7.10007c-1.40797,-2.06359 -2.00351,-7.45037 -2.00351,-7.45037z" fill="#73b5e4" stroke="none" stroke-width="1"/><path d="M247.54368,178.51545c-1.61685,0.57336 -2.53236,0.59871 -4.01941,0.76911c-2.23564,0.28509 -5.58917,-0.3503 -5.58917,-0.3503c-1.0622,-0.18202 -4.73615,-1.78348 -4.73615,-1.78348c0,0 2.28605,-2.70622 4.8083,-3.24592c0,0 4.7849,-0.27347 6.26697,0.64868c0,0 2.70456,2.65023 3.26947,3.96191z" fill="#92d7ef" stroke="none" stroke-width="1"/><path d="M242.59669,175.48097l0.97648,3.87272c-2.23564,0.28509 -5.58917,-0.3503 -5.58917,-0.3503l0.89332,-3.79529l0.95082,-1.29493c0.79748,-0.04558 1.69277,0.04709 2.52904,0.12965z" fill="#7fccef" stroke="none" stroke-width="1"/><path d="M243.40775,176.77408c0.29506,0.05056 2.68253,1.00637 4.04824,1.54411c0.0489,0.06912 0.03879,0.12813 0.08769,0.19726c-1.61685,0.57336 -2.53236,0.59871 -4.01941,0.76911c-2.23564,0.28509 -5.58917,-0.3503 -5.58917,-0.3503c-1.0622,-0.18202 -4.73615,-1.78348 -4.73615,-1.78348c0,0 0.07924,-0.10791 0.22759,-0.26472c1.80234,-0.23785 4.41227,-0.5803 4.88436,-0.4994c0.70814,0.12134 4.67367,0.37566 5.09686,0.38743z" fill="#83cdef" stroke="none" stroke-width="1"/><path d="M238.00724,173.90486c0,0 4.7849,-0.27347 6.31587,0.7178c-0.5951,0.99142 -1.67752,0.92743 -1.67752,0.92743l-3.75816,-0.40101c-0.61713,-0.65245 -0.88019,-1.24422 -0.88019,-1.24422z" fill="#bee6f1" stroke="none" stroke-width="1"/><path d="M247.55379,178.45644c-1.61685,0.57336 -2.53236,0.59871 -4.01941,0.76911l-0.93769,-3.74458l1.22566,-1.12635c0.17703,0.03034 0.34396,0.11968 0.45187,0.19892c0,0 2.70456,2.65023 3.27958,3.9029z" fill="#73b5e4" stroke="none" stroke-width="1"/><path d="M247.54368,178.51545c0,0 -0.08935,0.16692 -0.24782,0.38274c-0.16858,0.27483 -0.40629,0.59856 -0.66422,1.04032c-0.15847,0.21582 -0.31694,0.43164 -0.47541,0.64746c-0.15847,0.21582 -0.38606,0.48054 -0.61366,0.74526c-0.38606,0.48054 -0.90026,0.99987 -1.35545,1.52931c-0.50409,0.46032 -1.01829,0.97965 -1.45325,1.39107c-0.49398,0.40131 -0.92894,0.81273 -1.34368,1.10612c-0.83959,0.6458 -1.38247,0.97799 -1.38247,0.97799c0,0 0.5631,-0.45021 1.28467,-1.11623c0.36584,-0.36252 0.8008,-0.77394 1.29478,-1.17525c0.44508,-0.47043 0.94916,-0.93075 1.45325,-1.39107c0.50409,-0.46032 0.95928,-0.98976 1.34534,-1.4703c0.44508,-0.47043 0.83114,-0.95097 1.13797,-1.3236c0.30683,-0.37263 0.61366,-0.74526 0.77213,-0.96108c0.15847,-0.21582 0.24782,-0.38274 0.24782,-0.38274z" fill="#3b73e4" stroke="none" stroke-width="1"/><path d="M233.19894,177.15078c0,0 0.29506,0.05056 0.69802,0.18036c0.40297,0.1298 0.92396,0.27981 1.43484,0.48884c0.51088,0.20903 1.02176,0.41806 1.41461,0.60687c0.39286,0.18881 0.61879,0.28827 0.61879,0.28827c0,0 -0.30517,0.00845 -0.70814,-0.12134c-0.40297,-0.1298 -0.92396,-0.27981 -1.43484,-0.48884c-0.51088,-0.20903 -1.02176,-0.41806 -1.41461,-0.60687c-0.39286,-0.18881 -0.60868,-0.34728 -0.60868,-0.34728z" fill="#bee6f1" stroke="none" stroke-width="1"/><path d="M237.95199,179.54459c0,0 0.11636,0.3844 0.2125,0.88683c0.14504,0.57155 0.26985,1.26112 0.45368,1.96081c0.12481,0.68957 0.29853,1.44827 0.39466,1.9507c0.07757,0.25627 0.09614,0.50243 0.19394,0.64067c0.0978,0.13825 0.08769,0.19726 0.08769,0.19726c0,0 -0.0489,-0.06912 -0.1467,-0.20737c-0.0978,-0.13825 -0.18549,-0.3355 -0.32207,-0.60189c-0.21416,-0.52265 -0.39799,-1.22234 -0.5717,-1.98103c-0.17371,-0.7587 -0.23952,-1.43816 -0.32554,-1.99959c0.0809,-0.47209 0.02355,-0.84638 0.02355,-0.84638z" fill="#bee6f1" stroke="none" stroke-width="1"/><path d="M243.40775,176.77408c0.29506,0.05056 2.68253,1.00637 4.04824,1.54411c0.0489,0.06912 0.03879,0.12813 0.08769,0.19726c-1.61685,0.57336 -2.53236,0.59871 -4.01941,0.76911l-0.59871,-2.53236c0.23605,0.04045 0.41308,0.07078 0.4822,0.02188z" fill="#679fe4" stroke="none" stroke-width="1"/><path d="M242.92555,176.7522l0.59871,2.53236c-2.23564,0.28509 -5.58917,-0.3503 -5.58917,-0.3503l0.61185,-2.50715c0.95429,0.10278 3.3552,0.27121 4.37861,0.3251z" fill="#7cbfef" stroke="none" stroke-width="1"/></g></g></svg>