<svg version="1.1" xmlns="http://www.w3.org/2000/svg" xmlns:xlink="http://www.w3.org/1999/xlink" width="56.83333" height="56.83333" viewBox="0,0,56.83333,56.83333"><g transform="translate(-211.58349,-151.58336)"><g data-paper-data="{&quot;isPaintingLayer&quot;:true}" fill-rule="nonzero" stroke-linejoin="miter" stroke-miterlimit="10" stroke-dasharray="" stroke-dashoffset="0" style="mix-blend-mode: normal"><path d="M211.5835,208.41669v-56.83333h56.83333v56.83333z" fill="none" stroke="none" stroke-width="0" stroke-linecap="butt"/><path d="M226.35259,186.64788c0,0 -1.21788,-2.50397 -0.54278,-3.87267c0.6751,-1.36869 2.69938,-2.60243 6.12591,-2.65647c7.92281,-0.12494 18.86625,3.59567 18.67964,1.53509c-0.17415,-1.92316 -1.69007,-3.86204 -1.98678,-5.83694c-0.16169,-1.07624 2.87674,-2.0014 4.52067,-0.85535c0.85272,0.59446 0.84825,3.51444 0.84825,3.51444" data-paper-data="{&quot;index&quot;:null}" fill="none" stroke="#400071" stroke-width="1.5" stroke-linecap="round"/><path d="M255.71031,180.68071c0,0 -0.38647,1.51915 -1.23886,2.13855c-1.75816,1.2776 -12.59499,-6.85251 -14.65639,-6.27149c-0.79964,0.22538 -1.94103,-3.35783 -3.34002,-4.95345c-1.38428,-1.57884 -3.03047,-1.1691 -3.03047,-1.1691" data-paper-data="{&quot;index&quot;:null}" fill="none" stroke="#400071" stroke-width="1.5" stroke-linecap="round"/><path d="M230.77116,182.5949l-2.04128,-2.74192l3.45461,0.64818" fill="none" stroke="#400071" stroke-width="2" stroke-linecap="round"/><path d="M240.1942,175.24828l1.67013,-2.8271l0.81054,2.35016" fill="none" stroke="#400071" stroke-width="2" stroke-linecap="round"/><path d="M242.46865,175.27081l2.88529,-1.83305l-0.90174,3.39726" fill="none" stroke="#400071" stroke-width="2" stroke-linecap="round"/><path d="M247.69529,178.5844l2.23043,-0.48215l-1.91917,2.98902" fill="none" stroke="#400071" stroke-width="2" stroke-linecap="round"/><path d="M249.92816,183.50711l2.58782,1.22101l-3.40072,0.50751" fill="none" stroke="#400071" stroke-width="2" stroke-linecap="round"/><path d="M231.53071,184.729l-3.42992,0.08284l2.49761,-2.48074" data-paper-data="{&quot;index&quot;:null}" fill="none" stroke="#400071" stroke-width="2" stroke-linecap="round"/><path d="M232.40154,178.62143l-1.24643,-3.19651l3.18324,1.50303" data-paper-data="{&quot;index&quot;:null}" fill="none" stroke="#400071" stroke-width="2" stroke-linecap="round"/><path d="M247.19352,177.15581c-0.00707,0.20761 -0.02781,0.41153 -0.06134,0.61093c0.01348,0.00034 0.02697,0.00074 0.04048,0.00121c2.53554,0.08642 4.52097,2.21192 4.43455,4.74748c-0.08642,2.53554 -2.21192,4.52097 -4.74748,4.43455c-5.61544,-0.19138 -8.7802,0.0072 -14.39564,-0.18417c-2.53554,-0.08642 -4.52097,-2.21192 -4.43455,-4.74748c0.06855,-2.01139 1.42028,-3.67658 3.24193,-4.23597c-0.01577,-0.18291 -0.02076,-0.36874 -0.01435,-0.55682c0.08642,-2.53554 2.05907,-4.44288 4.59462,-4.35646c1.1878,0.04048 2.40773,0.45036 3.19764,1.21832c0.87635,-1.06773 2.22244,-1.72976 3.7096,-1.67907c2.53554,0.08642 4.52097,2.21192 4.43455,4.74748z" data-paper-data="{&quot;index&quot;:null}" fill="#000000" stroke="#400071" stroke-width="2" stroke-linecap="butt"/></g></g></svg>