<svg version="1.1" xmlns="http://www.w3.org/2000/svg" xmlns:xlink="http://www.w3.org/1999/xlink" width="88.25" height="88.25" viewBox="0,0,88.25,88.25"><defs><radialGradient cx="240" cy="180" r="21.64286" gradientUnits="userSpaceOnUse" id="color-1"><stop offset="0" stop-color="#ffeb00"/><stop offset="1" stop-color="#ffeb00" stop-opacity="0"/></radialGradient></defs><g transform="translate(-195.875,-135.875)"><g data-paper-data="{&quot;isPaintingLayer&quot;:true}" fill-rule="nonzero" stroke-linecap="butt" stroke-linejoin="miter" stroke-miterlimit="10" stroke-dasharray="" stroke-dashoffset="0" style="mix-blend-mode: normal"><path d="M218.35714,180c0,-11.95302 9.68984,-21.64286 21.64286,-21.64286c11.95302,0 21.64286,9.68984 21.64286,21.64286c0,11.95302 -9.68984,21.64286 -21.64286,21.64286c-11.95302,0 -21.64286,-9.68984 -21.64286,-21.64286z" fill="url(#color-1)" stroke="#8719ff" stroke-width="0"/><path d="M195.875,224.125v-88.25h88.25v88.25z" fill="none" stroke="none" stroke-width="NaN"/><path d="M214.64287,180.00002c0,-14.00436 11.35278,-25.35714 25.35714,-25.35714c14.00436,0 25.35714,11.35278 25.35714,25.35714c0,14.00436 -11.35278,25.35714 -25.35714,25.35714c-14.00436,0 -25.35714,-11.35278 -25.35714,-25.35714z" fill="none" stroke="#545454" stroke-width="1"/><text transform="translate(234.81926,213.5463) scale(0.36433,0.36433)" font-size="40" xml:space="preserve" fill="#ffffff" fill-rule="nonzero" stroke="none" stroke-width="1" stroke-linecap="butt" stroke-linejoin="miter" stroke-miterlimit="10" stroke-dasharray="" stroke-dashoffset="0" font-family="Sans Serif" font-weight="normal" text-anchor="start" style="mix-blend-mode: normal"><tspan x="0" dy="0">D</tspan></text><path d="M231.75057,217.2062c-0.76295,-0.7628 -0.58469,-1.10059 -0.58469,-2.17926c0,-3.23602 0,-7.66491 0,-12.57085c0,-1.01301 -0.1538,-1.3176 0.58469,-2.01101c0.73849,-0.69341 1.1009,-0.5847 2.17977,-0.5847c4.82987,0 9.26146,0 12.37595,0c1.03816,0 1.37213,-0.1789 2.07547,0.5847c0.70335,0.7636 0.58469,1.17627 0.58469,2.30336c0,4.75382 0,8.83095 0,12.18105c0,1.11669 0.17565,1.45885 -0.58469,2.27671c-0.76034,0.81787 -1.03731,0.5847 -2.07547,0.5847c-1.03816,0 -9.13935,0 -12.37595,0c-1.07887,0 -1.41682,0.17811 -2.17977,-0.5847z" fill="none" stroke="#ffffff" stroke-width="1.5"/><path d="M232.24851,183.55016l0.94217,-19.24721l10.22928,-1.74975l-3.49949,14.80555c0,0 7.83102,0.98965 7.83102,0.98965l-8.03196,19.0984l0.04083,-13.02803z" fill="#ffeb00" stroke="#ff9300" stroke-width="1.5"/></g></g></svg>