<svg version="1.1" xmlns="http://www.w3.org/2000/svg" xmlns:xlink="http://www.w3.org/1999/xlink" width="122" height="122" viewBox="0,0,122,122"><g transform="translate(-179,-119)"><g data-paper-data="{&quot;isPaintingLayer&quot;:true}" fill-rule="nonzero" stroke-linejoin="miter" stroke-miterlimit="10" stroke-dasharray="" stroke-dashoffset="0" style="mix-blend-mode: normal"><path d="M228.36209,207.72145c0,0 -5.14561,0.4984 -9.86987,-3.40065c-7.15259,-5.90318 -10.11446,-10.89172 -13.68567,-20.68707c-3.0401,-8.33854 -4.22218,-19.91544 2.33563,-20.70406c3.70791,-0.4459 7.78295,7.30386 9.06303,16.9165c1.2801,9.61265 12.15689,27.87528 12.15689,27.87528z" fill="#cecece" stroke="#000000" stroke-width="2" stroke-linecap="butt"/><path d="M222.52985,158.55874c0,0 -10.67413,-5.89659 -10.52317,-7.4497c0.09995,-1.02834 11.5462,-2.17873 11.5462,-2.17873" fill="#cecece" stroke="#000000" stroke-width="2" stroke-linecap="round"/><path d="M224.58463,145.6851c0,0 -8.85019,-6.63372 -8.79124,-7.77651c0.06837,-1.3255 11.54619,-2.17872 11.54619,-2.17872" fill="#cecece" stroke="#000000" stroke-width="2" stroke-linecap="round"/><path d="M256.768,144.34095c2.08682,12.455 27.59459,58.38205 12.44973,61.23983c-12.33517,2.3276 -27.24824,8.96037 -36.75292,5.8175c-5.17576,-1.71144 -7.59613,-9.13411 -9.77436,-15.25468c-8.74598,-24.57528 3.67976,-60.79835 3.67976,-60.79835c0,0 2.26846,-0.22505 5.56006,-0.21261c8.18533,0.03098 23.14861,-0.87306 24.83773,9.20828z" fill="#cecece" stroke="#000000" stroke-width="2" stroke-linecap="butt"/><path d="M237.90377,147.35744l-3.85999,11.22789" fill="none" stroke="#ffb0b0" stroke-width="1" stroke-linecap="round"/><path d="M267.84889,191.96169c1.52833,8.09943 -2.19911,12.14233 -9.98938,13.61233c-7.79026,1.46999 -14.58791,0.10518 -16.11625,-7.99427c-1.52833,-8.09944 2.7621,-16.40072 10.55236,-17.87072c7.79025,-1.46999 14.02494,4.15322 15.55327,12.25265z" fill="#e2e2e2" stroke="#000000" stroke-width="2" stroke-linecap="butt"/><path d="M261.60324,151.5678c8.16804,0.86501 17.62103,3.33321 11.70823,9.74842c-2.27297,2.46612 0.8279,5.66285 -2.56852,7.13587c-4.90778,2.12852 -31.22901,7.00652 -32.72784,4.67781c-3.58436,-5.56896 -3.19543,-15.86962 5.60403,-19.75778c8.79947,-3.88816 7.50992,-2.91358 17.98408,-1.80432z" fill="#e2e2e2" stroke="#000000" stroke-width="2" stroke-linecap="butt"/><path d="M275.44212,154.60451c0.41406,2.19433 -1.3581,5.22226 -4.14959,5.749c-2.79149,0.52674 -5.54521,-1.64716 -5.95928,-3.84149c-0.41406,-2.19433 2.18448,-2.82426 4.97596,-3.351c2.79149,-0.52674 4.71883,-0.75085 5.13289,1.4435z" fill="#4d4d4d" stroke="#000000" stroke-width="2" stroke-linecap="butt"/><path d="M233.559,153.63989c-0.21417,-1.13501 0.58147,-2.238 1.77712,-2.46361c1.19565,-0.22561 2.33853,0.51158 2.55271,1.64659c0.21417,1.13501 -0.58146,2.238 -1.77712,2.46361c-1.19565,0.22561 -2.33853,-0.51158 -2.55271,-1.64659z" fill="#000000" stroke="none" stroke-width="0.5" stroke-linecap="butt"/><path d="M250.63695,147.50867c-0.21417,-1.13501 0.58147,-2.238 1.77712,-2.46361c1.19565,-0.22561 2.33853,0.51158 2.55271,1.64659c0.21417,1.13501 -0.58146,2.238 -1.77712,2.46361c-1.19565,0.22561 -2.33853,-0.51158 -2.55271,-1.64659z" fill="#000000" stroke="none" stroke-width="0.5" stroke-linecap="butt"/><path d="M234.38936,211.6145c0,0 -2.30498,4.36224 -5.40524,4.1689c-1.68631,-0.10516 -4.78189,-4.54078 -5.17273,-4.90685c-0.93208,-0.87298 4.36044,-5.08536 4.36044,-5.08536" fill="#cecece" stroke="#000000" stroke-width="2" stroke-linecap="round"/><path d="M272.8367,197.64871c0,0 4.86768,0.8048 5.66617,3.80671c0.43432,1.6328 -2.7926,5.97381 -3.01604,6.46047c-0.53285,1.16058 -6.20457,-2.52544 -6.20457,-2.52544" fill="#cecece" stroke="#000000" stroke-width="2" stroke-linecap="round"/><path d="M247.31342,179.79783c0,0 2.15963,4.43599 0.17304,6.82396c-1.08055,1.29887 -6.48821,1.17818 -7.01442,1.27748c-1.25491,0.2368 -1.5296,-6.52187 -1.5296,-6.52187" fill="#cecece" stroke="#000000" stroke-width="2" stroke-linecap="round"/><path d="M267.2306,176.03953c0,0 2.15963,4.43599 0.17303,6.82396c-1.08056,1.29888 -6.48821,1.17818 -7.01442,1.27748c-1.25491,0.2368 -1.5296,-6.52187 -1.5296,-6.52187" fill="#cecece" stroke="#000000" stroke-width="2" stroke-linecap="round"/><path d="M259.85672,165.37756l0.38848,6.59581c0,0 -1.1619,0.54127 -1.90661,-0.41451c-0.90514,-1.1616 -3.05289,-5.61106 -3.05289,-5.61106" data-paper-data="{&quot;index&quot;:null}" fill="#ffffff" stroke="#000000" stroke-width="2" stroke-linecap="round"/><path d="M271.88598,163.37816c0,0 -0.44279,5.11055 -0.91884,6.50276c-0.39166,1.14549 -1.66712,1.01114 -1.66712,1.01114l-1.7886,-6.36203" fill="#ffffff" stroke="#000000" stroke-width="2" stroke-linecap="round"/><path d="M233.45105,157.481l1.75043,1.1291" fill="none" stroke="#ffb0b0" stroke-width="1" stroke-linecap="round"/><path d="M235.58919,156.5911l-1.75042,-1.12909" fill="none" stroke="#ffb0b0" stroke-width="1" stroke-linecap="round"/><path d="M237.00704,147.81043l1.75043,1.12909" fill="none" stroke="#ffb0b0" stroke-width="1" stroke-linecap="round"/><path d="M272.22231,163.29955l-21.17151,3.14368" fill="none" stroke="#000000" stroke-width="2" stroke-linecap="round"/><path d="M237.5933,150.63726l-4.35671,-3.01439" fill="none" stroke="#000000" stroke-width="1.5" stroke-linecap="round"/><path d="M249.83332,145.69361l2.95863,-4.39477" data-paper-data="{&quot;index&quot;:null}" fill="none" stroke="#000000" stroke-width="1.5" stroke-linecap="round"/><path d="M179,241v-122h122v122z" fill="none" stroke="none" stroke-width="none" stroke-linecap="butt"/></g></g></svg>