<svg version="1.1" xmlns="http://www.w3.org/2000/svg" xmlns:xlink="http://www.w3.org/1999/xlink" width="40.54748" height="40.54748" viewBox="0,0,40.54748,40.54748"><g transform="translate(-219.94395,-157.22275)"><g data-paper-data="{&quot;isPaintingLayer&quot;:true}" fill-rule="nonzero" stroke-linejoin="miter" stroke-miterlimit="10" stroke-dasharray="" stroke-dashoffset="0" style="mix-blend-mode: normal"><path d="M241.00745,183.36858c-3.76586,0 -6.8187,-3.05283 -6.8187,-6.8187c0,-3.76586 3.05283,-6.8187 6.8187,-6.8187c3.76586,0 6.8187,3.05283 6.8187,6.8187c0,3.76586 -3.05283,6.8187 -6.8187,6.8187z" data-paper-data="{&quot;index&quot;:null}" fill="#8e1b1b" stroke="#f5f5f5" stroke-width="2" stroke-linecap="butt"/><path d="M233.55763,174.55956l-2.82475,-0.0251l-0.09622,-2.41762" fill="none" stroke="#ff3030" stroke-width="2" stroke-linecap="round"/><path d="M233.92959,179.06305l-3.47357,0.13581l0.01777,-1.99992" fill="none" stroke="#ff3030" stroke-width="2" stroke-linecap="round"/><path d="M245.45553,169.94289c0,0 1.26409,-0.61293 1.84489,-0.54964c0.52326,0.05702 1.48535,0.91257 1.48535,0.91257" fill="none" stroke="#ff3030" stroke-width="2" stroke-linecap="round"/><path d="M249.59873,181.98018c0,0 -1.20001,1.175 -1.73701,1.22388c-0.57275,0.05214 -1.59915,-0.92019 -1.59915,-0.92019" fill="none" stroke="#ff3030" stroke-width="2" stroke-linecap="round"/><path d="M241.048,169.77227c3.76572,0.03346 6.7913,3.11331 6.75784,6.87902c-0.03346,3.76572 -3.11331,6.7913 -6.87902,6.75784c-3.76572,-0.03346 -6.7913,-3.11331 -6.75784,-6.87902c0.03346,-3.76572 3.11331,-6.7913 6.87902,-6.75784z" fill="none" stroke="#f5f5f5" stroke-width="2" stroke-linecap="butt"/><path d="" data-paper-data="{&quot;index&quot;:null}" fill="none" stroke="#cdcdcd" stroke-width="1.5" stroke-linecap="round"/><path d="" fill="none" stroke="#cdcdcd" stroke-width="1.5" stroke-linecap="round"/><path d="" data-paper-data="{&quot;index&quot;:null}" fill="none" stroke="#cdcdcd" stroke-width="1.5" stroke-linecap="round"/><path d="" fill="none" stroke="#cdcdcd" stroke-width="1.5" stroke-linecap="round"/><path d="" data-paper-data="{&quot;index&quot;:null}" fill="none" stroke="#cdcdcd" stroke-width="1.5" stroke-linecap="round"/><path d="" data-paper-data="{&quot;index&quot;:null}" fill="none" stroke="#cdcdcd" stroke-width="1.5" stroke-linecap="round"/><path d="" data-paper-data="{&quot;index&quot;:null}" fill="none" stroke="#cdcdcd" stroke-width="1.5" stroke-linecap="round"/><path d="" fill="none" stroke="#cdcdcd" stroke-width="1.5" stroke-linecap="round"/><path d="" data-paper-data="{&quot;index&quot;:null}" fill="none" stroke="#cdcdcd" stroke-width="1.5" stroke-linecap="round"/><path d="" data-paper-data="{&quot;index&quot;:null}" fill="none" stroke="#cdcdcd" stroke-width="1.5" stroke-linecap="round"/><path d="" fill="none" stroke="#cdcdcd" stroke-width="1.5" stroke-linecap="round"/><path d="" data-paper-data="{&quot;index&quot;:null}" fill="none" stroke="#cdcdcd" stroke-width="1.5" stroke-linecap="round"/><path d="M219.94395,197.77023v-40.54748h40.54748v40.54748z" fill="none" stroke="none" stroke-width="0" stroke-linecap="butt"/><path d="M238.36897,178.28599l4.09144,-4.01936" fill="none" stroke="#ff3030" stroke-width="2" stroke-linecap="round"/><path d="M242.53598,178.26745l-3.9643,-4.03538" fill="none" stroke="#ff3030" stroke-width="2" stroke-linecap="round"/><path d="M244.47218,172.95112l1.64093,2.90359l-1.69721,3.42949" fill="none" stroke="#ffffff" stroke-width="2" stroke-linecap="round"/></g></g></svg>