<svg version="1.1" xmlns="http://www.w3.org/2000/svg" xmlns:xlink="http://www.w3.org/1999/xlink" width="62.11111" height="62.11111" viewBox="0,0,62.11111,62.11111"><defs><linearGradient x1="240.11495" y1="169.55322" x2="240.11495" y2="175.55322" gradientUnits="userSpaceOnUse" id="color-1"><stop offset="0" stop-color="#5500ff" stop-opacity="0"/><stop offset="1" stop-color="#5500ff"/></linearGradient><linearGradient x1="240.09114" y1="175.26751" x2="240.09114" y2="179.17227" gradientUnits="userSpaceOnUse" id="color-2"><stop offset="0" stop-color="#ffffff"/><stop offset="1" stop-color="#9966ff"/></linearGradient></defs><g transform="translate(-208.94453,-148.94448)"><g data-paper-data="{&quot;isPaintingLayer&quot;:true}" fill-rule="nonzero" stroke-linejoin="miter" stroke-miterlimit="10" stroke-dasharray="" stroke-dashoffset="0" style="mix-blend-mode: normal"><path d="M208.94454,211.05559v-62.11111h62.11111v62.11111z" data-paper-data="{&quot;index&quot;:null}" fill="none" stroke="none" stroke-width="NaN" stroke-linecap="butt"/><path d="M229.89522,188.91586v-14.37714h20.34716v14.37714z" fill="#000000" stroke="#51008a" stroke-width="1.5" stroke-linecap="butt"/><path d="M230.42144,187.3883h19.44858" fill="none" stroke="#51008a" stroke-width="0.5" stroke-linecap="round"/><path d="M231.23616,186.54277v-3.74873l3.60836,3.74873z" fill="none" stroke="#51008a" stroke-width="0.5" stroke-linecap="butt"/><path d="M236.38032,182.59171v3.74873l-3.60836,-3.74873z" data-paper-data="{&quot;index&quot;:null}" fill="none" stroke="#51008a" stroke-width="0.5" stroke-linecap="butt"/><path d="M241.17753,182.59172l-3.60836,3.74873v-3.74873z" data-paper-data="{&quot;index&quot;:null}" fill="none" stroke="#51008a" stroke-width="0.5" stroke-linecap="butt"/><path d="M239.105,186.54277l3.60836,-3.74874v3.74874z" data-paper-data="{&quot;index&quot;:null}" fill="none" stroke="#51008a" stroke-width="0.5" stroke-linecap="butt"/><path d="M243.79178,186.54277v-3.74874l3.60836,3.74874z" data-paper-data="{&quot;index&quot;:null}" fill="none" stroke="#51008a" stroke-width="0.5" stroke-linecap="butt"/><path d="M248.93593,182.59172v3.74873l-3.60836,-3.74873z" data-paper-data="{&quot;index&quot;:null}" fill="none" stroke="#51008a" stroke-width="0.5" stroke-linecap="butt"/><path d="M230.37212,181.67763h19.44858" fill="none" stroke="#51008a" stroke-width="0.5" stroke-linecap="round"/><path d="M230.24631,179.75395h19.44858" fill="none" stroke="#51008a" stroke-width="1.5" stroke-linecap="round"/><path d="M230.82923,179.07703l-6.85715,-9.76191l31.95238,-0.04762l-6.42857,9.85715z" fill="url(#color-1)" stroke="none" stroke-width="0" stroke-linecap="butt"/><path d="M230.68637,179.17227v-3.90476h18.80952v3.90476z" fill="url(#color-2)" stroke="#51008a" stroke-width="0" stroke-linecap="butt"/><g><g><path d="M234.02166,173.42518c0,0 1.44862,-3.4148 1.97923,-4.66562c0.55143,-1.29987 2.1839,-1.56434 3.70669,-0.91835c2.25832,0.95801 9.48388,4.02322 13.68936,5.80725c1.64949,0.69974 2.7761,2.12526 2.1788,3.53328c-0.52983,1.24896 -1.93673,4.56544 -1.93673,4.56544z" fill="#000000" stroke="#51008a" stroke-width="1.5" stroke-linecap="butt"/><path d="M234.59881,172.18853l19.6297,8.32724" fill="none" stroke="#51008a" stroke-width="0.5" stroke-linecap="round"/><path d="M242.23786,172.51392l3.3454,1.41917l-2.38229,0.96311z" data-paper-data="{&quot;index&quot;:null}" fill="none" stroke="#51008a" stroke-width="0.5" stroke-linecap="butt"/><path d="M246.70695,174.43932l0.96311,2.38229l-3.3454,-1.41917z" data-paper-data="{&quot;index&quot;:null}" fill="none" stroke="#51008a" stroke-width="0.5" stroke-linecap="butt"/><path d="M247.87222,174.90411l3.3454,1.41917l-2.38229,0.96311z" data-paper-data="{&quot;index&quot;:null}" fill="none" stroke="#51008a" stroke-width="0.5" stroke-linecap="butt"/><path d="M252.3413,176.8295l0.96311,2.38229l-3.3454,-1.41917z" data-paper-data="{&quot;index&quot;:null}" fill="none" stroke="#51008a" stroke-width="0.5" stroke-linecap="butt"/><path d="M236.29976,169.06046l18.57325,7.87908" fill="none" stroke="#51008a" stroke-width="0.5" stroke-linecap="round"/><path d="M254.32618,179.53812l-0.96311,-2.38229l2.03061,0.86142" data-paper-data="{&quot;index&quot;:null}" fill="none" stroke="#51008a" stroke-width="0.5" stroke-linecap="butt"/><g stroke="#ae00ff" stroke-linecap="butt"><path d="M244.94404,175.0331l1.52771,3.77883l-3.77883,1.52771l-1.52771,-3.77883z" data-paper-data="{&quot;index&quot;:null}" fill="none" stroke-width="0.35"/><path d="M242.6572,178.82096l0.00077,-0.70008l0.46049,-0.46945l0.71777,-0.00691l0.48715,0.50301l-0.01081,0.67525l-0.48764,0.50581" fill="none" stroke-width="0.35"/><path d="M243.33908,176.25483c0.312,0.31409 0.29338,0.8148 0.29338,0.8148c0,0 -0.5245,-0.00855 -0.8365,-0.32264" fill="none" stroke-width="0.35"/><path d="M244.8396,176.21654c-0.17155,0.40814 -0.65463,0.61263 -0.65463,0.61263c0,0 -0.20492,-0.45723 -0.03337,-0.86535" data-paper-data="{&quot;index&quot;:null}" fill="none" stroke-width="0.35"/><path d="M245.20457,177.76876c-0.44268,-0.00606 -0.81334,-0.37725 -0.81334,-0.37725c0,0 0.34707,-0.36137 0.78975,-0.35531" data-paper-data="{&quot;index&quot;:null}" fill="none" stroke-width="0.35"/><path d="M242.17965,177.60475l-0.29942,-0.74062l0.74061,-0.29942" fill="none" stroke-width="0.35"/><path d="M245.45731,177.76798l0.29942,0.74061l-0.74061,0.29942" data-paper-data="{&quot;index&quot;:null}" fill="none" stroke-width="0.35"/><path d="M242.9439,179.70766l0.59639,-1.40587" fill="none" stroke-width="0.35"/><path d="M244.52013,176.04565l-0.15961,-0.39481l0.3948,-0.15962l0.15961,0.39481z" fill="#ae00ff" stroke-width="0"/></g></g><path d="M236.63872,170.13867l3.3454,1.41917l-2.38229,0.96311z" fill="none" stroke="#51008a" stroke-width="0.5" stroke-linecap="butt"/><path d="M241.1078,172.06407l0.96311,2.38229l-3.34539,-1.41917z" data-paper-data="{&quot;index&quot;:null}" fill="none" stroke="#51008a" stroke-width="0.5" stroke-linecap="butt"/><path d="M235.42051,169.63941l0.96311,2.38229l-2.0306,-0.86141" data-paper-data="{&quot;index&quot;:null}" fill="none" stroke="#51008a" stroke-width="0.5" stroke-linecap="butt"/></g></g></g></svg>