<svg version="1.1" xmlns="http://www.w3.org/2000/svg" xmlns:xlink="http://www.w3.org/1999/xlink" width="59.55556" height="59.55556" viewBox="0,0,59.55556,59.55556"><g transform="translate(-210.22222,-150.22222)"><g data-paper-data="{&quot;isPaintingLayer&quot;:true}" fill-rule="nonzero" stroke-linejoin="miter" stroke-miterlimit="10" stroke-dasharray="" stroke-dashoffset="0" style="mix-blend-mode: normal"><path d="M239.84626,195.14667c-1.38376,-0.01949 -1.52182,-0.48956 -2.48623,-1.48171c-2.89325,-2.97646 -6.85303,-7.05013 -11.23932,-11.56258c-0.90571,-0.93176 -1.3195,-1.07442 -1.26021,-2.37248c0.05929,-1.29806 0.48984,-1.52209 1.48218,-2.48668c4.44248,-4.31828 8.51863,-8.28047 11.38331,-11.06507c0.95489,-0.9282 1.10212,-1.39135 2.43176,-1.31784c1.32965,0.07351 1.58947,0.55916 2.59718,1.59586c4.25028,4.37253 7.89557,8.12265 10.89082,11.20405c0.99841,1.02713 1.46589,1.1848 1.49777,2.61687c0.03188,1.43207 -0.43135,1.46523 -1.38625,2.39343c-0.95489,0.9282 -8.40631,8.17129 -11.38331,11.06507c-0.99234,0.9646 -1.14394,1.43058 -2.5277,1.41109z" fill="#131423" stroke="#ffffff" stroke-width="1" stroke-linecap="butt"/><path d="M239.84626,195.14667c-1.38376,-0.01949 -1.52182,-0.48956 -2.48623,-1.48171c-2.89325,-2.97646 -6.85303,-7.05013 -11.23932,-11.56258c-0.90571,-0.93176 -1.3195,-1.07442 -1.26021,-2.37248c0.05929,-1.29806 0.48984,-1.52209 1.48218,-2.48668c4.44248,-4.31828 8.51863,-8.28047 11.38331,-11.06507c0.95489,-0.9282 1.10212,-1.39135 2.43176,-1.31784c1.32965,0.07351 1.58947,0.55916 2.59718,1.59586c4.25028,4.37253 7.89557,8.12265 10.89082,11.20405c0.99841,1.02713 1.46589,1.1848 1.49777,2.61687c0.03188,1.43207 -0.43135,1.46523 -1.38625,2.39343c-0.95489,0.9282 -8.40631,8.17129 -11.38331,11.06507c-0.99234,0.9646 -1.14394,1.43058 -2.5277,1.41109z" fill="none" stroke="#ffffff" stroke-width="1" stroke-linecap="butt"/><path d="M240.75566,174.91821c0,0 0.4781,-1.87671 1.09547,-2.38578c0.45135,-0.37217 2.26927,-0.38869 2.26927,-0.38869" fill="none" stroke="#009602" stroke-width="2" stroke-linecap="round"/><path d="M235.3073,179.44293c0.40074,-2.72004 2.89568,-4.59498 5.5726,-4.1878c2.67693,0.4072 4.52214,2.94232 4.1214,5.66237c-0.40074,2.72004 -2.89568,4.59498 -5.5726,4.1878c-2.67693,-0.4072 -4.52214,-2.94232 -4.1214,-5.66237z" fill="#ff4c4c" stroke="#ff0000" stroke-width="2" stroke-linecap="butt"/><path d="M240.8811,172.60343c0,0 -2.00208,0.6676 -3.25728,-0.22216c-1.2552,-0.88977 -1.28821,-2.99996 -1.28821,-2.99996c0,0 2.00208,-0.6676 3.25728,0.22216c1.2552,0.88977 1.28821,2.99996 1.28821,2.99996z" fill="#94e095" stroke="#00e005" stroke-width="2" stroke-linecap="butt"/><path d="M240.71422,188.65668c0.0366,0.0281 0.0732,0.05621 0.1098,0.08432c0.1847,-0.29249 0.6857,-0.55217 0.6857,-0.55217c0.70738,-0.25757 1.48963,0.10708 1.7472,0.81446c0.51236,1.40714 -1.89003,3.08595 -2.57905,3.52996" fill="none" stroke="#7d1313" stroke-width="1.5" stroke-linecap="butt"/><path d="M235.85714,197.57143v-8.85714h8.85714v8.85714z" fill="none" stroke="none" stroke-width="0" stroke-linecap="butt"/><path d="M240.71319,192.48252c-0.00763,0.00455 -0.01159,0.00686 -0.01159,0.00686c-1.10644,-0.84966 -3.10964,-2.78119 -2.25998,-3.88764c0.8302,-1.08111 1.91131,-0.2509 1.91131,-0.2509c0.06566,0.05042 0.41521,0.27118 0.48087,0.3216" fill="#ff5858" stroke="#ff2626" stroke-width="1.5" stroke-linecap="butt"/><path d="M210.22222,209.77778v-59.55556h59.55556v59.55556z" fill="none" stroke="none" stroke-width="0" stroke-linecap="butt"/></g></g></svg>