<svg version="1.1" xmlns="http://www.w3.org/2000/svg" xmlns:xlink="http://www.w3.org/1999/xlink" width="44.32327" height="38.97467" viewBox="0,0,44.32327,38.97467"><g transform="translate(-217.28431,-161.27475)"><g data-paper-data="{&quot;isPaintingLayer&quot;:true}" fill-rule="nonzero" stroke-linejoin="miter" stroke-miterlimit="10" stroke-dasharray="" stroke-dashoffset="0" style="mix-blend-mode: normal"><path d="M222.30945,191.64132c1.26189,2.0108 5.42859,5.08392 5.42859,5.08392c0,0 3.6891,-20.89798 12.93436,-29.3208c9.24525,-8.42282 17.43253,-1.77201 18.93518,0.80332c1.74133,2.98435 -1.06085,14.60421 -7.93195,17.5822c-8.17061,3.54123 -31.78712,-1.57303 -31.78712,-1.57303c0,0 1.15906,5.41357 2.42095,7.42436z" fill="none" stroke="#335cff" stroke-width="4" stroke-linecap="butt"/><path d="M242.33538,174.9783c-0.66259,-1.13559 -0.27917,-2.59332 0.85645,-3.25592c1.13559,-0.66259 2.59332,-0.27917 3.25592,0.85645c0.66259,1.13559 0.27917,2.59332 -0.85645,3.25592c-1.13559,0.66259 -2.59332,0.27917 -3.25592,-0.85645z" fill="#ffffff" stroke="#3c0e47" stroke-width="0" stroke-linecap="butt"/><path d="M249.12073,171.01919c-0.66259,-1.13559 -0.27917,-2.59332 0.85645,-3.25592c1.13559,-0.66259 2.59332,-0.27917 3.25592,0.85645c0.66259,1.13559 0.27917,2.59332 -0.85645,3.25592c-1.13559,0.66259 -2.59332,0.27917 -3.25592,-0.85645z" fill="#ffffff" stroke="#3c0e47" stroke-width="0" stroke-linecap="butt"/><path d="M247.18523,179.03896l6.78534,-3.95912" fill="none" stroke="#335cff" stroke-width="4" stroke-linecap="round"/></g></g></svg>