<svg version="1.1" xmlns="http://www.w3.org/2000/svg" xmlns:xlink="http://www.w3.org/1999/xlink" width="31.11411" height="31.11411" viewBox="0,0,31.11411,31.11411"><g transform="translate(-224.44295,-164.44294)"><g data-paper-data="{&quot;isPaintingLayer&quot;:true}" fill="none" fill-rule="nonzero" stroke-linejoin="miter" stroke-miterlimit="10" stroke-dasharray="" stroke-dashoffset="0" style="mix-blend-mode: normal"><path d="M224.44295,195.55705v-31.11411h31.11411v31.11411z" stroke="none" stroke-width="2" stroke-linecap="butt"/><path d="M229.30536,190.90908l-0.81622,-0.96042l12.6964,-11.6116l0.10544,1.45703z" stroke="#7b0000" stroke-width="1.75" stroke-linecap="butt"/><path d="M246.51152,170.5193c0,0 -1.08647,2.45914 -1.74494,3.51668c-0.85888,1.3794 -2.96871,4.05373 -2.96871,4.05373c0,0 -0.21524,0.61985 0.02332,-0.42318c0.29605,-1.29442 1.05956,-4.37837 1.07415,-5.29786c0.01794,-1.13019 -0.95464,-3.27775 -0.95464,-3.27775" stroke="#ffb900" stroke-width="1.75" stroke-linecap="round"/><path d="M251.51086,178.8039c0,0 -2.58082,-0.64306 -4.00033,-0.68481c-1.02577,-0.03017 -3.67049,1.11222 -4.97347,1.23524c-0.91856,0.08673 -0.73919,-0.8361 -0.73919,-0.8361c0,0 3.30683,-1.94925 4.59248,-2.76261c0.93067,-0.58879 3.26361,-1.66536 3.26361,-1.66536" stroke="#ffb900" stroke-width="1.75" stroke-linecap="round"/><path d="M248.36841,183.80322c0,0 -1.3177,-2.33161 -2.29524,-3.15709c-1.13996,-0.96262 -4.13246,-2.27075 -4.13246,-2.27075c0,0 -1.24933,-3.95055 -2.03902,-5.40653c-0.72908,-1.34423 -2.5318,-3.02091 -2.5318,-3.02091" stroke="#ffb900" stroke-width="1.75" stroke-linecap="round"/><path d="M239.94098,178.23255l1.85689,1.99973" stroke="#ffb900" stroke-width="1.75" stroke-linecap="round"/></g></g></svg>