<svg version="1.1" xmlns="http://www.w3.org/2000/svg" xmlns:xlink="http://www.w3.org/1999/xlink" width="54.5" height="54.5" viewBox="0,0,54.5,54.5"><g transform="translate(-212.59668,-145.56612)"><g data-paper-data="{&quot;isPaintingLayer&quot;:true}" fill-rule="nonzero" stroke-linejoin="miter" stroke-miterlimit="10" stroke-dasharray="" stroke-dashoffset="0" style="mix-blend-mode: normal"><path d="M212.59668,200.06612v-54.5h54.5v54.5z" fill="none" stroke="none" stroke-width="0" stroke-linecap="butt"/><path d="M233.94425,185.39489v5.875h-2.16618" data-paper-data="{&quot;index&quot;:null}" fill="none" stroke="#ffffff" stroke-width="3" stroke-linecap="round"/><g><path d="M230.75471,160.22286c0,0 2.32649,-5.85 3.0875,-5.85c1.7757,0 3.4125,5.85 3.4125,5.85" fill="none" stroke="#ffffff" stroke-width="2.5" stroke-linecap="round"/><path d="M242.50471,160.09786c0,0 2.32649,-5.85 3.0875,-5.85c1.7757,0 3.4125,5.85 3.4125,5.85" fill="none" stroke="#ffffff" stroke-width="2.5" stroke-linecap="round"/><path d="M247.90178,191.23523h-2.24951v-5.76389" fill="none" stroke="#ffffff" stroke-width="3" stroke-linecap="round"/><path d="M229.33368,183.64331c-0.97865,-0.97847 -0.75,-1.41177 -0.75,-2.79541c0,-4.15093 0,-9.83201 0,-16.125c0,-1.29942 -0.19728,-1.69013 0.75,-2.57959c0.94728,-0.88946 1.41216,-0.75 2.79606,-0.75c6.19542,0 11.87995,0 15.875,0c1.33168,0 1.76007,-0.22949 2.66227,0.75c0.9022,0.97949 0.75,1.50883 0.75,2.95459c0,6.09786 0,11.32773 0,15.625c0,1.43242 0.22531,1.87131 -0.75,2.92041c-0.97531,1.0491 -1.33059,0.75 -2.66227,0.75c-1.33168,0 -11.72331,0 -15.875,0c-1.3839,0 -1.81741,0.22847 -2.79606,-0.75z" fill="#3c0000" stroke="#ff3333" stroke-width="2.5" stroke-linecap="butt"/><path d="M231.48853,169.02143h5" fill="none" stroke="#ffffff" stroke-width="2.5" stroke-linecap="round"/><path d="M248.52899,168.89643h-5" fill="none" stroke="#ffffff" stroke-width="2.5" stroke-linecap="round"/><path d="M231.57827,174.02143c0,0 1.50974,-1.16911 2.27946,-1.16911c0.88169,0 2.72054,1.16911 2.72054,1.16911" fill="none" stroke="#ffffff" stroke-width="2.5" stroke-linecap="round"/><path d="M243.61873,174.01335c0,0 1.44508,-1.40293 2.28084,-1.40293c0.83087,0 2.71916,1.40293 2.71916,1.40293" fill="none" stroke="#ffffff" stroke-width="2.5" stroke-linecap="round"/></g></g></g></svg>