<svg version="1.1" xmlns="http://www.w3.org/2000/svg" xmlns:xlink="http://www.w3.org/1999/xlink" width="122" height="122" viewBox="0,0,122,122"><g transform="translate(-179,-119)"><g data-paper-data="{&quot;isPaintingLayer&quot;:true}" fill-rule="nonzero" stroke-linejoin="miter" stroke-miterlimit="10" stroke-dasharray="" stroke-dashoffset="0" style="mix-blend-mode: normal"><path d="M221.70862,203.53164c0,0 -5.06938,-1.01344 -8.46173,-6.11377c-5.13605,-7.72192 -6.52597,-13.35454 -7.10677,-23.76439c-0.49443,-8.86166 1.7275,-20.28466 8.23261,-19.13994c3.67811,0.64724 5.33367,9.24514 3.77449,18.81647c-1.55917,9.57134 3.56141,30.20162 3.56141,30.20162z" fill="#cecece" stroke="#000000" stroke-width="2" stroke-linecap="butt"/><path d="M230.36683,154.78719c0,0 -8.50853,-8.73566 -7.91418,-10.17845c0.39353,-0.9553 11.6823,1.25913 11.6823,1.25913" fill="#cecece" stroke="#000000" stroke-width="2" stroke-linecap="round"/><path d="M236.06248,143.06062c0,0 -6.54926,-8.91287 -6.16183,-9.98958c0.44937,-1.24888 11.68229,1.25913 11.68229,1.25913" fill="#cecece" stroke="#000000" stroke-width="2" stroke-linecap="round"/><path d="M267.25549,151.09627c-1.61034,12.52553 9.50076,63.87222 -5.82262,62.22065c-12.48057,-1.34517 -28.67556,0.68356 -36.86241,-5.07769c-4.45813,-3.13727 -4.62472,-10.94282 -4.93668,-17.43194c-1.2526,-26.05508 21.13277,-57.12605 21.13277,-57.12605c0,0 2.23639,0.44168 5.38328,1.40703c7.82545,2.4006 22.40912,5.86956 21.10568,16.00798z" fill="#cecece" stroke="#000000" stroke-width="2" stroke-linecap="butt"/><path d="M247.0881,149.46929l-5.30152,10.62352" fill="none" stroke="#ffb0b0" stroke-width="1" stroke-linecap="round"/><path d="M264.06758,199.8852c-0.88325,8.1949 -5.62196,10.9848 -13.50406,10.13526c-7.88209,-0.84954 -13.993,-4.12484 -13.10974,-12.31976c0.88325,-8.19491 7.3943,-14.89756 15.27639,-14.04802c7.88208,0.84954 12.22067,8.03762 11.33742,16.23251z" fill="#e2e2e2" stroke="#000000" stroke-width="2" stroke-linecap="butt"/><path d="M270.04662,154.46636c7.82359,1.89181 17.53256,2.96965 11.57601,8.38823c-0.12184,0.11083 -0.24988,0.2222 -0.38426,0.33411c-2.57725,2.14616 -0.94114,10.64275 -4.50163,11.65684c-0.09484,0.02701 -0.59559,3.22343 -0.70481,3.25035c-5.81558,1.43393 -31.19574,-0.45317 -32.35391,-2.9124c-2.82173,-5.99156 -1.083,-16.15186 8.15098,-18.85038c9.23398,-2.69852 18.21764,-1.86674 18.21764,-1.86674z" fill="#e2e2e2" stroke="#000000" stroke-width="2" stroke-linecap="butt"/><path d="M256.86121,171.64019c0,0 2.99522,-1.94985 4.38051,-2.35265c3.54647,-1.03122 17.44768,-3.99436 17.44768,-3.99436l-1.25825,8.36712c0,0 -9.63844,-0.68457 -12.09224,-1.15255c-2.64459,-0.50437 -6.21984,0.11085 -7.4061,-0.44156c-0.40401,-0.18814 -1.07161,-0.42601 -1.07161,-0.42601z" fill="#ffffff" stroke="#000000" stroke-width="0" stroke-linecap="butt"/><path d="M283.22593,156.72712c0.12221,2.22971 -2.03236,4.99859 -4.86885,5.15406c-2.83648,0.15547 -5.28078,-2.36134 -5.403,-4.59105c-0.12221,-2.22971 2.53656,-2.51283 5.37305,-2.66829c2.83648,-0.15547 4.77656,-0.12444 4.89878,2.10528z" fill="#4d4d4d" stroke="#000000" stroke-width="2" stroke-linecap="butt"/><path d="M256.76547,172.50386c0,0 8.15076,-0.10529 13.56922,-0.36606c2.93608,-0.1413 8.11061,1.75305 8.11061,1.75305" fill="none" stroke="#000000" stroke-width="2" stroke-linecap="round"/><path d="M267.68135,168.57766l-0.48135,6.58967c0,0 -1.22293,0.38394 -1.83565,-0.66138c-0.74469,-1.27044 -2.28934,-5.96348 -2.28934,-5.96348" data-paper-data="{&quot;index&quot;:null}" fill="#ffffff" stroke="#000000" stroke-width="2" stroke-linecap="round"/><path d="M279.47426,166.19447c0,0 -1.1103,5.00808 -1.76513,6.3257c-0.53874,1.08412 -1.7855,0.78336 -1.7855,0.78336l-0.93734,-6.54186" fill="#ffffff" stroke="#000000" stroke-width="2" stroke-linecap="round"/><path d="M241.34406,158.92019l1.58694,1.34926" fill="none" stroke="#ffb0b0" stroke-width="1" stroke-linecap="round"/><path d="M241.99367,156.96961l1.58691,1.34925" fill="none" stroke="#ffb0b0" stroke-width="1" stroke-linecap="round"/><path d="M246.13962,149.80056l1.58692,1.34925" fill="none" stroke="#ffb0b0" stroke-width="1" stroke-linecap="round"/><path d="M256.27353,171.764c0,0 5.75856,-3.18659 9.39908,-3.62487c1.4621,-0.17601 14.51077,-3.14301 14.51077,-3.14301" fill="none" stroke="#000000" stroke-width="2" stroke-linecap="round"/><path d="M270.32439,171.90375l-1.47143,-3.35307" fill="none" stroke="#000000" stroke-width="0.5" stroke-linecap="round"/><path d="M272.07902,167.37234l-1.05705,4.20702" fill="none" stroke="#000000" stroke-width="0.5" stroke-linecap="round"/><path d="M272.64176,167.19845l1.54962,4.77949" fill="none" stroke="#000000" stroke-width="0.5" stroke-linecap="round"/><path d="M261.5528,171.09688l0.50803,-1.17241" fill="none" stroke="#000000" stroke-width="0.5" stroke-linecap="round"/><path d="M236.35772,210.36742c0,0 0.5622,4.90163 -2.10525,6.49341c-1.45089,0.8658 -6.51088,-1.04568 -7.04019,-1.12695c-1.26226,-0.19384 0.72543,-6.65943 0.72543,-6.65943" fill="#cecece" stroke="#000000" stroke-width="2" stroke-linecap="round"/><path d="M266.5118,209.21835c0,0 2.95979,3.94736 1.46079,6.66803c-0.81533,1.47983 -6.14819,2.38427 -6.64611,2.58131c-1.18746,0.46992 -2.7357,-6.11476 -2.7357,-6.11476" fill="#cecece" stroke="#000000" stroke-width="2" stroke-linecap="round"/><path d="M241.38424,185.72449c0,0 -2.7903,4.06894 -5.84789,3.52115c-1.6631,-0.29794 -4.22926,-5.05948 -4.57553,-5.46796c-0.82576,-0.97417 4.91516,-4.55145 4.91516,-4.55145" fill="#cecece" stroke="#000000" stroke-width="2" stroke-linecap="round"/><path d="M268.35323,182.94879c0,0 4.93173,-0.14124 6.28974,2.65248c0.73865,1.51956 -1.59826,6.39771 -1.72446,6.91811c-0.301,1.24108 -6.57309,-1.29188 -6.57309,-1.29188" fill="#cecece" stroke="#000000" stroke-width="2" stroke-linecap="round"/><path d="M240.4913,150.18605l5.25076,-3.02202l4.50893,4.27447l-0.23121,4.83328l-4.52283,2.4022l-4.22953,-1.9044l-0.35756,-5.29787l4.85629,-0.70601l1.83644,3.12102l-2.03661,1.9756l-2.26196,-1.06835l0.30937,-1.90548" fill="none" stroke="#000000" stroke-width="1.5" stroke-linecap="round"/><path d="M265.65518,150.43567l-2.11864,5.67578l-6.1989,-0.41852l-2.90327,-3.87106l1.95298,-4.73418l4.47263,-1.2293l3.65306,3.85363l-3.29128,3.63999l-3.4046,-1.23369l0.30952,-2.82046l2.42377,-0.61901l0.97647,1.66525" fill="none" stroke="#000000" stroke-width="1.5" stroke-linecap="round"/><path d="M179,241v-122h122v122z" fill="none" stroke="none" stroke-width="none" stroke-linecap="butt"/></g></g></svg>