<svg version="1.1" xmlns="http://www.w3.org/2000/svg" xmlns:xlink="http://www.w3.org/1999/xlink" width="56.83333" height="56.83333" viewBox="0,0,56.83333,56.83333"><g transform="translate(-211.58334,-151.58336)"><g data-paper-data="{&quot;isPaintingLayer&quot;:true}" fill-rule="nonzero" stroke-linejoin="miter" stroke-miterlimit="10" stroke-dasharray="" stroke-dashoffset="0" style="mix-blend-mode: normal"><path d="M235.9798,191.75842v-7.5085h7.79215v7.5085z" data-paper-data="{&quot;index&quot;:null}" fill="#000000" stroke="#220735" stroke-width="2.5" stroke-linecap="butt"/><path d="M211.58335,208.41669v-56.83333h56.83333v56.83333z" fill="none" stroke="none" stroke-width="0" stroke-linecap="butt"/><path d="M230.48357,183.46497l-2.04429,-2.72399l3.44437,0.63254" fill="none" stroke="#400071" stroke-width="2" stroke-linecap="round"/><path d="M232.8452,173.19022l-2.04429,-2.72399l3.44437,0.63254" fill="none" stroke="#400071" stroke-width="2" stroke-linecap="round"/><path d="M237.98407,165.41498l-2.04429,-2.72399l3.44437,0.63254" fill="none" stroke="#400071" stroke-width="2" stroke-linecap="round"/><path d="M244.13359,169.851l3.44437,-0.63254l-2.04429,2.72399" data-paper-data="{&quot;index&quot;:null}" fill="none" stroke="#400071" stroke-width="2" stroke-linecap="round"/><path d="M247.18953,180.26659l3.44437,-0.63254l-2.04429,2.72399" data-paper-data="{&quot;index&quot;:null}" fill="none" stroke="#400071" stroke-width="2" stroke-linecap="round"/><path d="M250.52319,184.98887l3.44437,-0.63254l-2.04429,2.72399" data-paper-data="{&quot;index&quot;:null}" fill="none" stroke="#400071" stroke-width="2" stroke-linecap="round"/><path d="M241.63705,163.74407l3.44437,-0.63254l-2.04429,2.72399" data-paper-data="{&quot;index&quot;:null}" fill="none" stroke="#400071" stroke-width="2" stroke-linecap="round"/><path d="M233.58517,175.5659l13.34294,-0.00514l5.99167,12.1385l-25.49425,-0.18686z" data-paper-data="{&quot;index&quot;:null}" fill="#000000" stroke="#430e68" stroke-width="2.5" stroke-linecap="butt"/><path d="M230.2952,176.46413l9.79098,-16.35585l9.45336,16.35585z" data-paper-data="{&quot;index&quot;:null}" fill="#000000" stroke="#430e68" stroke-width="2.5" stroke-linecap="butt"/></g></g></svg>