<svg version="1.1" xmlns="http://www.w3.org/2000/svg" xmlns:xlink="http://www.w3.org/1999/xlink" width="42.86718" height="42.86718" viewBox="0,0,42.86718,42.86718"><g transform="translate(-218.56641,-158.56641)"><g data-paper-data="{&quot;isPaintingLayer&quot;:true}" fill-rule="nonzero" stroke-linejoin="miter" stroke-miterlimit="10" stroke-dasharray="" stroke-dashoffset="0" style="mix-blend-mode: normal"><path d="M218.56641,201.43359v-42.86718h42.86718v42.86718z" fill="none" stroke="none" stroke-width="0" stroke-linecap="butt"/><path d="" data-paper-data="{&quot;index&quot;:null}" fill="none" stroke="#cdcdcd" stroke-width="1.5" stroke-linecap="round"/><path d="" fill="none" stroke="#cdcdcd" stroke-width="1.5" stroke-linecap="round"/><path d="" data-paper-data="{&quot;index&quot;:null}" fill="none" stroke="#cdcdcd" stroke-width="1.5" stroke-linecap="round"/><path d="" fill="none" stroke="#cdcdcd" stroke-width="1.5" stroke-linecap="round"/><path d="" data-paper-data="{&quot;index&quot;:null}" fill="none" stroke="#cdcdcd" stroke-width="1.5" stroke-linecap="round"/><path d="" data-paper-data="{&quot;index&quot;:null}" fill="none" stroke="#cdcdcd" stroke-width="1.5" stroke-linecap="round"/><path d="" data-paper-data="{&quot;index&quot;:null}" fill="none" stroke="#cdcdcd" stroke-width="1.5" stroke-linecap="round"/><path d="" fill="none" stroke="#cdcdcd" stroke-width="1.5" stroke-linecap="round"/><path d="" data-paper-data="{&quot;index&quot;:null}" fill="none" stroke="#cdcdcd" stroke-width="1.5" stroke-linecap="round"/><path d="" data-paper-data="{&quot;index&quot;:null}" fill="none" stroke="#cdcdcd" stroke-width="1.5" stroke-linecap="round"/><path d="" fill="none" stroke="#cdcdcd" stroke-width="1.5" stroke-linecap="round"/><path d="" data-paper-data="{&quot;index&quot;:null}" fill="none" stroke="#cdcdcd" stroke-width="1.5" stroke-linecap="round"/><path d="M233.47994,185.82723l1.80091,0.58258l-0.66026,2.04103l2.52127,0.81562l-0.73793,2.28114l2.28114,0.73793l-0.81561,2.52127" data-paper-data="{&quot;index&quot;:null}" fill="none" stroke="#7affea" stroke-width="2" stroke-linecap="round"/><path d="M244.87431,192.09941l-2.52126,-0.81562l0.73793,-2.28114l-2.28114,-0.73793l0.81561,-2.52127l-2.04102,-0.66026l0.58258,-1.80091" data-paper-data="{&quot;index&quot;:null}" fill="none" stroke="#7affea" stroke-width="2" stroke-linecap="round"/><path d="M248.35122,178.56916l1.80091,0.58258l-0.66026,2.04103l2.52127,0.81562l-0.73794,2.28114l2.28115,0.73793l-0.81562,2.52127" data-paper-data="{&quot;index&quot;:null}" fill="none" stroke="#7affea" stroke-width="2" stroke-linecap="round"/><path d="M245.93166,168.43008c1.43277,2.80303 6.56309,7.15589 4.66563,10.13171c-0.26899,0.42187 -2.0276,0.29093 -3.6327,1.21557c-0.69619,0.40105 -0.96784,1.77471 -1.73507,2.18986c-1.0265,0.55543 -2.63631,-0.0106 -3.56175,0.46818c-1.38748,0.71784 -1.94601,2.3963 -2.37241,2.61426c-0.90325,0.4617 -2.51653,0.30119 -3.39505,0.68098c-1.34947,0.58338 -1.94939,1.58234 -3.25852,1.36455c-2.43418,-0.40497 -3.58594,-6.19825 -4.65515,-8.29001c-2.01859,-3.94909 0.2934,-9.16867 5.16394,-11.65826c4.87054,-2.48959 10.76246,-2.66592 12.78104,1.28318z" fill="#8493a5" stroke="#7affea" stroke-width="2" stroke-linecap="butt"/><path d="M249.80465,189.45034l-2.52127,-0.81562l0.73793,-2.28114l-2.28114,-0.73794l0.81562,-2.52127l-2.04102,-0.66026l0.58258,-1.80091" data-paper-data="{&quot;index&quot;:null}" fill="none" stroke="#7affea" stroke-width="2" stroke-linecap="round"/><path d="M231.3147,177.01806l4.15657,1.4548" fill="none" stroke="#ffffff" stroke-width="1.5" stroke-linecap="round"/><path d="M232.97732,179.512l1.03914,-4.15657" fill="none" stroke="#ffffff" stroke-width="1.5" stroke-linecap="round"/><path d="M241.15068,172.41277l4.15657,1.4548" fill="none" stroke="#ffffff" stroke-width="1.5" stroke-linecap="round"/><path d="M242.81331,174.90671l1.03914,-4.15657" fill="none" stroke="#ffffff" stroke-width="1.5" stroke-linecap="round"/></g></g></svg>