<svg version="1.1" xmlns="http://www.w3.org/2000/svg" xmlns:xlink="http://www.w3.org/1999/xlink" width="64.91667" height="60.5" viewBox="0,0,64.91667,60.5"><defs><linearGradient x1="239.69477" y1="164.23706" x2="239.69477" y2="190.07446" gradientUnits="userSpaceOnUse" id="color-1"><stop offset="0" stop-color="#e62020"/><stop offset="1" stop-color="#c00b0b"/></linearGradient></defs><g transform="translate(-207.65278,-141.30555)"><g data-paper-data="{&quot;isPaintingLayer&quot;:true}" fill-rule="nonzero" stroke-linejoin="miter" stroke-miterlimit="10" stroke-dasharray="" stroke-dashoffset="0" style="mix-blend-mode: normal"><path d="M251.72218,156.57778c0,0 -2.93441,-0.82409 -2.96296,-1.98944c-0.02854,-1.16535 3.14405,-2.39012 3.14405,-2.39012" data-paper-data="{&quot;index&quot;:null}" fill="none" stroke="#e62020" stroke-width="1.5" stroke-linecap="round"/><path d="M244.92396,145.90461c1.51911,1.64257 -0.00567,3.48449 -2.66409,5.43135c-3.12236,2.28661 -4.40766,2.24029 -4.68246,1.86507c-0.27479,-0.37522 -1.35979,-3.23631 3.1527,-3.54466c3.55009,-0.68261 3.87806,-4.09321 4.19383,-3.75177z" fill="#000000" stroke="#00199d" stroke-width="1" stroke-linecap="butt"/><path d="M229.73998,187.33458l7.15783,-23.21781l5.67034,-0.2389l7.20171,22.67477z" fill="#5e0000" stroke="#000000" stroke-width="1" stroke-linecap="butt"/><path d="M245.9816,177.30298c0.69727,-0.21892 2.13467,2.38148 2.68012,4.11877c0.54543,1.73729 -0.00763,1.95357 -0.70492,2.17249c-0.69727,0.21892 -1.27472,0.35757 -1.82016,-1.37972c-0.54543,-1.73729 -0.85232,-4.69262 -0.15503,-4.91154z" data-paper-data="{&quot;index&quot;:null}" fill="#eef0f3" stroke="none" stroke-width="0" stroke-linecap="butt"/><path d="M233.39958,182.34819c-0.54543,1.73729 -1.12288,1.59864 -1.82016,1.37972c-0.69727,-0.21892 -1.25035,-0.43519 -0.7049,-2.17248c0.54543,-1.73729 1.98283,-4.3377 2.6801,-4.11878c0.69727,0.21892 0.3904,3.17425 -0.15503,4.91154z" fill="#eef0f3" stroke="none" stroke-width="0" stroke-linecap="butt"/><path d="M239.384,189.36296c0,2.44166 -0.79444,2.49622 -1.77442,2.49622c-0.97998,0 -1.77442,-0.05456 -1.77442,-2.49622c0,-2.44166 0.79444,-6.3458 1.77442,-6.3458c0.97998,0 1.77442,3.90414 1.77442,6.3458z" fill="#eef0f3" stroke="none" stroke-width="0" stroke-linecap="butt"/><path d="M244.15588,189.30282c0,2.44166 -0.79444,2.49621 -1.77442,2.49621c-0.97998,0 -1.77442,-0.05455 -1.77442,-2.49621c0,-2.44166 0.79444,-6.34581 1.77442,-6.34581c0.97998,0 1.77442,3.90415 1.77442,6.34581z" fill="#eef0f3" stroke="none" stroke-width="0" stroke-linecap="butt"/><path d="M246.34132,171.09414c0,3.38842 -3.19119,6.13528 -7.12775,6.13528c-3.93655,0 -7.12775,-2.74686 -7.12775,-6.13528c0,-3.38842 3.1912,-6.13528 7.12775,-6.13528c3.93655,0 7.12775,2.74686 7.12775,6.13528z" fill="#000000" stroke="#00199d" stroke-width="1" stroke-linecap="butt"/><path d="M251.21346,160.63769c0,0.0326 -0.0024,0.06741 -0.00242,0.10446c-0.00488,8.10505 -5.22538,17.95453 -5.22538,17.95453c0,0 -0.46436,-6.24118 -0.92303,-8.23719c-0.40647,-1.76881 -1.69135,-3.13984 -1.69135,-3.13984l-7.43586,1.0172c0,0 -1.48238,2.2108 -1.64461,3.26817c-0.28584,1.86298 0.07896,6.93611 0.07896,6.93611c0,0 -6.01324,-7.97045 -5.89294,-17.90346c0.04235,-3.49732 2.33479,-8.17219 5.35513,-9.29916c2.11463,-0.78902 7.63722,1.35939 7.63722,1.35939c0,0 9.74426,1.99342 9.74426,7.93977z" fill="#000000" stroke="#00199d" stroke-width="1" stroke-linecap="butt"/><path d="M244.60617,181.6805c0,0 -7.04672,-18.06478 -7.04672,-18.76673c0,-8.35393 11.56714,17.86449 11.56714,17.86449z" data-paper-data="{&quot;index&quot;:null}" fill="#1c1c1c" stroke="#000000" stroke-width="1" stroke-linecap="butt"/><path d="M230.47097,180.78744c0,0 11.90047,-26.1073 11.90047,-17.75338c0,0.70195 -7.15782,18.76673 -7.15782,18.76673z" fill="#1c1c1c" stroke="#000000" stroke-width="1" stroke-linecap="butt"/><path d="M237.98557,157.18822c0.62909,0 2.54747,3.73655 1.04254,5.0496c-1.61166,1.40618 -4.44992,0.24349 -5.8915,2.20493c-0.86901,1.1824 -1.21813,3.58643 -1.27121,5.20244c-0.06614,2.01367 0.54952,4.08404 0.81483,5.22802c0.20072,0.8655 -4.44385,5.39059 -4.44385,5.39059c0,0 -0.37942,0.12047 -0.11417,-0.67948c0.23817,-0.71823 1.75838,-3.31474 1.7722,-4.85343c0.01997,-2.22369 -1.72985,-5.30066 -1.58681,-8.20439c0.40479,-8.21785 8.37516,-9.33828 9.67797,-9.33828z" fill="#000000" stroke="#00199d" stroke-width="1" stroke-linecap="butt"/><path d="M251.29787,166.5526c0.14303,2.90373 -2.05122,5.86958 -2.03126,8.09328c0.01382,1.53869 1.20071,4.24632 1.43888,4.96454c0.26525,0.79996 -0.11416,0.67948 -0.11416,0.67948c0,0 -4.31124,-4.52508 -4.11052,-5.39058c0.26531,-1.14398 1.32541,-3.21437 1.25927,-5.22804c-0.05308,-1.616 -0.29109,-4.02003 -1.16011,-5.20243c-1.44159,-1.96144 -4.27984,-0.79874 -5.8915,-2.20493c-1.50493,-1.31305 0.41346,-5.0496 1.04255,-5.0496c1.30281,0 9.16208,1.12042 9.56685,9.33828z" data-paper-data="{&quot;index&quot;:null}" fill="#000000" stroke="#00199d" stroke-width="1" stroke-linecap="butt"/><path d="M235.78332,176.62983c0.81137,-4.63302 2.07689,-12.39277 2.07689,-12.39277l3.60898,0.30075c0,0 2.2556,8.98261 2.75482,12.9564c0.50324,4.00582 2.43644,10.38171 2.43644,10.38171c0,0 -1.53589,2.38939 -7.82212,2.18628c-4.85923,-0.157 -6.55368,-1.76523 -6.55368,-1.76523z" fill="url(#color-1)" stroke="#000000" stroke-width="1" stroke-linecap="butt"/><path d="M235.51436,167.6656l3.42854,2.40599c0,0 0.73918,1.4513 0.25918,1.73389c-1.21707,0.71651 -7.93998,3.79989 -7.93998,3.79989z" fill="#5e0000" stroke="#000000" stroke-width="1" stroke-linecap="butt"/><path d="M240.24781,171.62504c-0.48,-0.28258 0.25918,-1.73389 0.25918,-1.73389l3.42854,-2.40599l3.80781,7.93977c0,0 -6.27845,-3.08339 -7.49554,-3.79989z" data-paper-data="{&quot;index&quot;:null}" fill="#5e0000" stroke="#000000" stroke-width="1" stroke-linecap="butt"/><path d="M246.92718,163.20707c0,3.62096 -3.23161,6.55632 -7.21798,6.55632c-3.98637,0 -7.21797,-2.93536 -7.21797,-6.55632c0,-3.62096 3.05115,-9.26307 7.03752,-9.26307c3.98637,0 7.39842,5.64211 7.39842,9.26307z" fill="#eef0f3" stroke="none" stroke-width="NaN" stroke-linecap="butt"/><path d="M234.57549,163.42416c0,-0.6644 0.53859,-1.203 1.20299,-1.203c0.6644,0 1.203,0.5386 1.203,1.203c0,0.6644 -0.5386,1.20299 -1.203,1.20299c-0.6644,0 -1.20299,-0.53859 -1.20299,-1.20299z" fill="#000000" stroke="none" stroke-width="0.5" stroke-linecap="butt"/><path d="M242.51526,162.86278c0,-0.6644 0.5386,-1.203 1.203,-1.203c0.6644,0 1.203,0.5386 1.203,1.203c0,0.6644 -0.5386,1.20299 -1.203,1.20299c-0.6644,0 -1.203,-0.53859 -1.203,-1.20299z" fill="#000000" stroke="none" stroke-width="0.5" stroke-linecap="butt"/><path d="M241.55286,165.02817c0,0 -0.91885,0.52983 -1.43186,0.58683c-0.43721,0.04857 -1.45533,-0.26604 -1.45533,-0.26604" fill="none" stroke="#000000" stroke-width="1" stroke-linecap="round"/><path d="M252.46142,154.65359c0,0 -3.03911,0.49353 -3.66335,-0.60374c-0.62425,-1.09727 1.75519,-3.52734 1.75519,-3.52734" fill="none" stroke="#e62020" stroke-width="1.5" stroke-linecap="round"/><path d="M241.16739,165.42593l-0.17235,0.73934l-0.68505,-0.59888" fill="none" stroke="#000000" stroke-width="1" stroke-linecap="round"/><path d="M229.42058,158.70469c0.37156,-6.40488 7.90676,-6.42266 9.10267,-6.42266c0.57747,0 2.33845,2.91221 0.957,3.9356c-1.47941,1.09596 -4.08479,0.18976 -5.40808,1.71848c-0.79771,0.92155 -1.11819,2.79521 -1.1669,4.0547c-0.06072,1.56943 0.5882,3.18305 0.83173,4.07466c0.09106,0.33339 -0.87935,1.36344 -1.88426,2.32012c-1.0284,0.97904 -2.86571,-0.70521 -2.86571,-0.70521c0,0 -0.23718,0.09389 0.00632,-0.52958c0.21863,-0.55979 2.17376,-0.08362 2.18645,-1.28286c0.01834,-1.73311 -1.89048,-4.90013 -1.75918,-7.16324z" fill="#000000" stroke="#00199d" stroke-width="1" stroke-linecap="butt"/><path d="M238.91715,172.12108c0.41022,0.33798 0.3438,1.0962 -0.14835,1.69354c-0.49214,0.59734 -2.19195,0.71793 -2.19195,0.71793c0,0 0.21428,-1.34453 0.70642,-1.94187c0.49214,-0.59733 1.22367,-0.80757 1.63388,-0.4696z" fill="#5e0000" stroke="#000000" stroke-width="1" stroke-linecap="butt"/><path d="M241.53795,172.30669c0.59862,0.49059 0.62927,1.81114 0.62927,1.81114c0,0 -1.25071,0.16816 -1.84933,-0.32243c-0.59862,-0.49059 -0.81077,-1.22155 -0.47386,-1.63264c0.33692,-0.41109 1.0953,-0.34665 1.69392,0.14393z" data-paper-data="{&quot;index&quot;:null}" fill="#5e0000" stroke="#000000" stroke-width="1" stroke-linecap="butt"/><path d="M249.91503,159.43986c0.13129,2.26311 -1.66975,2.40927 -1.65142,4.14239c0.01269,1.19923 2.33791,0.54262 2.55654,1.10241c0.24349,0.62347 -0.10479,0.40928 -0.10479,0.40928c0,0 -0.96506,1.23408 -2.06839,1.2895c-1.41809,0.07124 -3.02541,-1.13796 -2.69079,-2.36307c0.24353,-0.8916 0.85569,-0.58043 0.79498,-2.14986c-0.04871,-1.25949 -1.03084,-1.87 -1.82855,-2.79155c-1.3233,-1.52872 -5.19182,-0.80298 -6.67122,-1.89893c-1.38145,-1.02338 1.22162,-5.80024 1.79909,-5.80024c0.43439,0 4.27186,-0.68386 5.85997,-0.09878c2.78398,1.02566 3.76799,4.08046 4.00459,8.15885z" data-paper-data="{&quot;index&quot;:null}" fill="#000000" stroke="#00199d" stroke-width="1" stroke-linecap="butt"/><path d="M240.86769,171.10585c0,1.15191 -0.16087,1.25143 -1.23598,1.25143c-1.07512,0 -1.29779,-0.09952 -1.29779,-1.25143c0,-1.15191 0.25356,-1.03514 1.32869,-1.03514c1.07512,0 1.20508,-0.11677 1.20508,1.03515z" fill="#5e0000" stroke="#000000" stroke-width="1" stroke-linecap="butt"/><path d="M240.03959,189.94543l-0.41937,-16.68153" fill="none" stroke="#000000" stroke-width="1" stroke-linecap="round"/><path d="M235.54839,183.95718l2.2456,0.32081" fill="none" stroke="#000000" stroke-width="1" stroke-linecap="round"/><path d="M241.85744,184.17106l2.24559,-0.53466" fill="none" stroke="#000000" stroke-width="1" stroke-linecap="round"/><path d="M207.65278,201.80555v-60.5h64.91667v60.5z" fill="none" stroke="none" stroke-width="NaN" stroke-linecap="butt"/></g></g></svg>