<svg version="1.1" xmlns="http://www.w3.org/2000/svg" xmlns:xlink="http://www.w3.org/1999/xlink" width="54.5" height="54.5" viewBox="0,0,54.5,54.5"><g transform="translate(-212.59668,-145.56612)"><g data-paper-data="{&quot;isPaintingLayer&quot;:true}" fill-rule="nonzero" stroke-linejoin="miter" stroke-miterlimit="10" stroke-dasharray="" stroke-dashoffset="0" style="mix-blend-mode: normal"><path d="M212.59668,200.06612v-54.5h54.5v54.5z" fill="none" stroke="none" stroke-width="0" stroke-linecap="butt"/><path d="M231.96839,160.62059c0,0 2.9099,-5.58279 3.66695,-5.50533c1.76648,0.18075 2.79928,6.16698 2.79928,6.16698" fill="none" stroke="#ffffff" stroke-width="2.5" stroke-linecap="round"/><path d="M243.67008,161.69231c0,0 2.9099,-5.58279 3.66695,-5.50533c1.76648,0.18075 2.79928,6.16698 2.79928,6.16698" fill="none" stroke="#ffffff" stroke-width="2.5" stroke-linecap="round"/><path d="M236.75011,191.2699h-2.16618v-6.375" data-paper-data="{&quot;index&quot;:null}" fill="none" stroke="#ffffff" stroke-width="3" stroke-linecap="round"/><path d="M247.08341,191.35215h-2.24951v-5.76389" fill="none" stroke="#ffffff" stroke-width="3" stroke-linecap="round"/><path d="M228.55814,182.48326c-0.87396,-1.07301 -0.6024,-1.48078 -0.46155,-2.85723c0.42254,-4.12937 1.00083,-9.78094 1.64141,-16.04124c0.13227,-1.29267 -0.02421,-1.70143 1.00869,-2.48985c1.0329,-0.78841 1.48117,-0.60236 2.85788,-0.46148c6.16324,0.63065 11.81824,1.2093 15.79254,1.61597c1.32476,0.13556 1.77429,-0.04913 2.5721,1.0171c0.79781,1.06624 0.59252,1.57734 0.44535,3.01559c-0.62072,6.06619 -1.15309,11.26889 -1.59052,15.54384c-0.14581,1.42498 0.03365,1.88452 -1.04338,2.8289c-1.07704,0.94437 -1.40002,0.61066 -2.72479,0.4751c-1.32476,-0.13556 -11.66241,-1.19335 -15.79254,-1.61597c-1.37671,-0.14087 -1.83123,0.04228 -2.70519,-1.03072z" fill="#3c0000" stroke="#ff3333" stroke-width="2.5" stroke-linecap="butt"/><path d="M231.91077,168.65346l4.92488,0.86346" fill="none" stroke="#ffffff" stroke-width="2.5" stroke-linecap="round"/><path d="M249.44447,170.17941l-4.99823,0.13313" fill="none" stroke="#ffffff" stroke-width="2.5" stroke-linecap="round"/><path d="M231.99027,173.62493c0.09838,-0.96148 0.95757,-1.66115 1.91905,-1.56277c0.96148,0.09838 1.66115,0.95757 1.56277,1.91905c-0.09838,0.96148 -0.95757,1.66115 -1.91905,1.56277c-0.96148,-0.09838 -1.66115,-0.95757 -1.56277,-1.91905z" fill="#ffffff" stroke="none" stroke-width="0.5" stroke-linecap="butt"/><path d="M244.84931,174.78804c0.09838,-0.96148 0.95757,-1.66115 1.91905,-1.56277c0.96148,0.09838 1.66115,0.95757 1.56277,1.91905c-0.09838,0.96148 -0.95757,1.66115 -1.91905,1.56277c-0.96148,-0.09838 -1.66115,-0.95757 -1.56277,-1.91905z" fill="#ffffff" stroke="none" stroke-width="0.5" stroke-linecap="butt"/></g></g></svg>