<svg version="1.1" xmlns="http://www.w3.org/2000/svg" xmlns:xlink="http://www.w3.org/1999/xlink" width="54.5" height="54.5" viewBox="0,0,54.5,54.5"><g transform="translate(-212.59668,-145.56612)"><g data-paper-data="{&quot;isPaintingLayer&quot;:true}" fill-rule="nonzero" stroke-linejoin="miter" stroke-miterlimit="10" stroke-dasharray="" stroke-dashoffset="0" style="mix-blend-mode: normal"><path d="M212.59668,200.06612v-54.5h54.5v54.5z" fill="none" stroke="none" stroke-width="0" stroke-linecap="butt"/><path d="M234.99645,185.39489v5.875h-2.16618" data-paper-data="{&quot;index&quot;:null}" fill="none" stroke="#ffffff" stroke-width="3" stroke-linecap="round"/><path d="M226.30098,161.38051c0,0 0.84825,-6.23823 1.58684,-6.42161c1.72338,-0.42789 4.72163,4.8553 4.72163,4.8553" fill="none" stroke="#ffffff" stroke-width="2.5" stroke-linecap="round"/><path d="M237.67462,158.42777c0,0 0.84825,-6.23823 1.58684,-6.42161c1.72338,-0.42789 4.72163,4.8553 4.72163,4.8553" fill="none" stroke="#ffffff" stroke-width="2.5" stroke-linecap="round"/><path d="M253.27388,185.55211l-1.76533,1.39424l-3.57243,-4.52329" fill="none" stroke="#ffffff" stroke-width="3" stroke-linecap="round"/><path d="M225.27831,166.27111c-0.31312,-1.26113 -0.59874,-1.59279 0.10629,-2.68431c0.70502,-1.09151 1.18981,-1.06818 2.53293,-1.40167c6.01286,-1.49292 11.52987,-2.86273 15.40719,-3.82543c1.29245,-0.32089 1.65291,-0.64686 2.76454,0.08638c1.11165,0.73322 1.09148,1.28364 1.43987,2.68679c1.46941,5.91818 2.72967,10.99393 3.76518,15.16456c0.34517,1.3902 0.6696,1.76187 -0.02416,3.01508c-0.69377,1.2532 -1.11066,1.04854 -2.40308,1.36943c-1.29245,0.32089 -11.37785,2.82499 -15.40719,3.82543c-1.34312,0.33348 -1.7088,0.65968 -2.89439,-0.05413c-1.18559,-0.71381 -1.40151,-2.53232 -1.40151,-2.53232z" fill="#3c0000" stroke="#ff3333" stroke-width="2.5" stroke-linecap="butt"/><path d="M233.98605,168.53811l-4.85266,1.20486" fill="none" stroke="#ffffff" stroke-width="2.5" stroke-linecap="round"/><path d="M245.64158,165.51539l-4.85266,1.20486" fill="none" stroke="#ffffff" stroke-width="2.5" stroke-linecap="round"/><path d="M230.42534,174.57402c0,0 1.18353,-1.49846 1.93057,-1.68394c0.8557,-0.21246 2.92209,0.47909 2.92209,0.47909" fill="none" stroke="#ffffff" stroke-width="2.5" stroke-linecap="round"/><path d="M242.10906,171.66475c0,0 1.06443,-1.70982 1.87557,-1.91121c0.80638,-0.20022 2.9771,0.70636 2.9771,0.70636" fill="none" stroke="#ffffff" stroke-width="2.5" stroke-linecap="round"/></g></g></svg>