<svg version="1.1" xmlns="http://www.w3.org/2000/svg" xmlns:xlink="http://www.w3.org/1999/xlink" width="28.71466" height="38.22657" viewBox="0,0,28.71466,38.22657"><g transform="translate(-226.46539,-118.85657)"><g data-paper-data="{&quot;isPaintingLayer&quot;:true}" fill-rule="nonzero" stroke-width="1.5" stroke-linejoin="miter" stroke-miterlimit="10" stroke-dasharray="" stroke-dashoffset="0" style="mix-blend-mode: normal"><path d="M248.48592,135.61885c1.25328,-1.94298 0.38452,-5.34393 0.38452,-5.34393c0,0 4.17893,1.86668 5.55961,8.35389c1.0305,4.84192 0.69844,9.00278 -2.57563,13.53552c-1.38698,2.50983 -7.67636,4.23078 -11.42718,4.16711c-3.57226,-0.06337 -8.61845,-2.7254 -10.2195,-4.83341c-2.63458,-3.97369 -1.92145,-2.82681 -2.99235,-7.4727c-1.07895,-4.68084 3.5066,-13.64975 3.5066,-13.64975c0,0 0.14092,2.09312 0.71308,3.26528c0.57216,1.17216 1.94132,2.1726 1.94132,2.1726c0,0 0.009,0.7608 0.203,-0.18684c0.5321,-2.59915 -0.00588,-4.76415 3.50775,-9.97735c3.85728,-5.72308 9.21958,-5.9824 9.21958,-5.9824c0,0 -2.7353,5.61844 -2.22879,9.32615c0.50651,3.7077 4.40799,6.62586 4.40799,6.62586z" fill="#ff9400" stroke="#ff2222" stroke-linecap="round"/><path d="M238.52202,148.5404l-5.48104,-10.62747c0,0 0.76544,-1.64165 2.17274,-2.9412c1.11091,-1.02586 2.82231,-1.67144 3.48566,-2.28401c0.99666,-0.92035 2.4859,-2.29559 2.4859,-2.29559c0,0 0.78878,0.3735 1.14844,0.77816c0.35965,0.40467 0.03277,0.42106 0.85168,1.4723c0.15329,0.19678 1.11919,0.40328 1.29772,0.61635c0.3676,0.43871 -0.01712,0.90534 0.41065,1.37265c0.25703,0.28079 0.87398,0.30941 1.13451,0.60138c0.40322,0.45187 0.44773,1.16325 0.8176,1.54035c0.40408,0.41196 0.95049,0.23625 1.25144,0.51869c0.47952,0.45003 0.52009,1.59914 0.52009,1.59914l-0.79175,0.52627c0,0 -2.53878,7.6448 -5.50811,9.1842c-1.41898,0.73565 -3.7955,-0.06124 -3.7955,-0.06124z" fill="#fff94d" stroke="#ff7b00" stroke-linecap="butt"/><path d="M242.69157,133.03659l-1.95108,1.95108l2.30582,2.30582l-1.86239,1.86239l-2.83793,-1.59634" fill="none" stroke="#ff7b00" stroke-linecap="round"/><path d="M242.60289,136.67268l1.72937,-1.72937" fill="none" stroke="#ff7b00" stroke-linecap="round"/><path d="M243.40105,139.95404l2.92662,-2.92662" fill="none" stroke="#ff7b00" stroke-linecap="round"/><path d="M241.0509,135.20938l-2.43884,-2.43884" fill="none" stroke="#ff7b00" stroke-linecap="round"/><path d="M248.45611,138.88982l-3.37003,3.19266l-3.0153,-2.83793" fill="none" stroke="#ff7b00" stroke-linecap="round"/><path d="M244.46178,146.37022v5.645h-7.09482v-5.67586" fill="#fff94d" stroke="#ff7b00" stroke-linecap="round"/></g></g></svg>