<svg version="1.1" xmlns="http://www.w3.org/2000/svg" xmlns:xlink="http://www.w3.org/1999/xlink" width="88.25" height="88.25" viewBox="0,0,88.25,88.25"><defs><linearGradient x1="272.12036" y1="-156.86129" x2="272.12036" y2="367.04086" gradientUnits="userSpaceOnUse" id="color-1"><stop offset="0" stop-color="#96b2ff"/><stop offset="1" stop-color="#96b2ff" stop-opacity="0"/></linearGradient><radialGradient cx="240" cy="180" r="21.64286" gradientUnits="userSpaceOnUse" id="color-2"><stop offset="0" stop-color="#008fff"/><stop offset="1" stop-color="#008fff" stop-opacity="0"/></radialGradient></defs><g transform="translate(-195.875,-135.875)"><g data-paper-data="{&quot;isPaintingLayer&quot;:true}" fill-rule="nonzero" stroke-linejoin="miter" stroke-miterlimit="10" stroke-dasharray="" stroke-dashoffset="0" style="mix-blend-mode: normal"><path d="M214.43147,178.87301c0.16116,-14.07254 10.70712,-24.64363 24.94593,-24.33392c14.23881,0.30971 26.36132,10.61011 26.19141,25.4462c-0.16991,14.8361 -11.66277,25.80375 -26.77456,25.47505c-15.11179,-0.3287 -24.52394,-12.51479 -24.36278,-26.58733z" fill="url(#color-1)" stroke="#ffffff" stroke-width="1.5" stroke-linecap="butt"/><path d="M218.35714,180c0,-11.95302 9.68984,-21.64286 21.64286,-21.64286c11.95302,0 21.64286,9.68984 21.64286,21.64286c0,11.95302 -9.68984,21.64286 -21.64286,21.64286c-11.95302,0 -21.64286,-9.68984 -21.64286,-21.64286z" fill="url(#color-2)" stroke="#8719ff" stroke-width="0" stroke-linecap="butt"/><path d="M195.875,224.125v-88.25h88.25v88.25z" fill="none" stroke="none" stroke-width="NaN" stroke-linecap="butt"/><path d="M214.64287,180.00002c0,-14.00436 11.35278,-25.35714 25.35714,-25.35714c14.00436,0 25.35714,11.35278 25.35714,25.35714c0,14.00436 -11.35278,25.35714 -25.35714,25.35714c-14.00436,0 -25.35714,-11.35278 -25.35714,-25.35714z" fill="none" stroke="#ffffff" stroke-width="1" stroke-linecap="butt"/><g fill="none" stroke="#68d5ff" stroke-width="2"><g><path d="M222.08042,180h35.83916" stroke-linecap="round"/><path d="M222.16757,173.39269c3.64911,0 6.60731,2.9582 6.60731,6.60731c0,3.64911 -2.9582,6.60731 -6.60731,6.60731" stroke-linecap="butt"/><path d="M257.83243,186.60731c-3.64911,0 -6.60731,-2.95818 -6.60731,-6.60731c0,-3.64912 2.95818,-6.60731 6.60731,-6.60731" data-paper-data="{&quot;index&quot;:null}" stroke-linecap="butt"/></g><g><path d="M230.99402,195.49206l18.01195,-30.9841" stroke-linecap="round"/><path d="M225.32559,192.09602c1.83396,-3.15477 5.87814,-4.22551 9.03292,-2.39154c3.15477,1.83396 4.22551,5.87814 2.39154,9.03292" stroke-linecap="butt"/><path d="M254.67441,167.90398c-1.83397,3.15478 -5.87814,4.22551 -9.03292,2.39154c-3.15478,-1.83397 -4.22551,-5.87814 -2.39154,-9.03292" data-paper-data="{&quot;index&quot;:null}" stroke-linecap="butt"/></g><g data-paper-data="{&quot;index&quot;:null}"><path d="M231.10362,164.44476l17.79277,31.11049" stroke-linecap="round"/><path d="M243.1176,198.75987c-1.81164,-3.16765 -0.71239,-7.20416 2.45526,-9.01581c3.16765,-1.81164 7.20415,-0.71239 9.01581,2.45526" stroke-linecap="butt"/><path d="M236.8824,161.24013c1.81165,3.16765 0.7124,7.20416 -2.45526,9.01581c-3.16765,1.81165 -7.20415,0.7124 -9.01581,-2.45526" data-paper-data="{&quot;index&quot;:null}" stroke-linecap="butt"/></g><path d="M247.04536,183.86948l-14.09072,-7.73895" stroke-linecap="round"/><path d="M247.04536,176.13053l-14.09072,7.73895" data-paper-data="{&quot;index&quot;:null}" stroke-linecap="round"/><path d="M240.01553,188.03802l-0.03108,-16.07604" data-paper-data="{&quot;index&quot;:null}" stroke-linecap="round"/></g></g></g></svg>