<svg version="1.1" xmlns="http://www.w3.org/2000/svg" xmlns:xlink="http://www.w3.org/1999/xlink" width="122" height="122" viewBox="0,0,122,122"><defs><radialGradient cx="240" cy="180" r="6.42421" gradientUnits="userSpaceOnUse" id="color-1"><stop offset="0" stop-color="#30fffd"/><stop offset="1" stop-color="#30fffd" stop-opacity="0"/></radialGradient><radialGradient cx="240" cy="180" r="6.4242" gradientUnits="userSpaceOnUse" id="color-2"><stop offset="0" stop-color="#30fffd"/><stop offset="1" stop-color="#30fffd" stop-opacity="0"/></radialGradient><radialGradient cx="240" cy="180" r="6.4242" gradientUnits="userSpaceOnUse" id="color-3"><stop offset="0" stop-color="#30fffd"/><stop offset="1" stop-color="#30fffd" stop-opacity="0"/></radialGradient><radialGradient cx="240" cy="180" r="6.4242" gradientUnits="userSpaceOnUse" id="color-4"><stop offset="0" stop-color="#30fffd"/><stop offset="1" stop-color="#30fffd" stop-opacity="0"/></radialGradient></defs><g transform="translate(-179,-119)"><g data-paper-data="{&quot;isPaintingLayer&quot;:true}" fill-rule="nonzero" stroke-linejoin="miter" stroke-miterlimit="10" stroke-dasharray="" stroke-dashoffset="0" style="mix-blend-mode: normal"><path d="M233.57579,180c0,-3.54799 2.87622,-6.42421 6.42421,-6.42421c3.54799,0 6.42421,2.87622 6.42421,6.42421c0,3.54799 -2.87622,6.42421 -6.42421,6.42421c-3.54799,0 -6.42421,-2.87622 -6.42421,-6.42421z" fill="url(#color-1)" stroke="none" stroke-width="0" stroke-linecap="butt"/><path d="M233.5758,180c0,-3.54799 2.87621,-6.4242 6.4242,-6.4242c3.54799,0 6.4242,2.87621 6.4242,6.4242c0,3.54799 -2.87621,6.4242 -6.4242,6.4242c-3.54799,0 -6.4242,-2.87621 -6.4242,-6.4242z" fill="url(#color-2)" stroke="none" stroke-width="0" stroke-linecap="butt"/><path d="M233.5758,180c0,-3.54799 2.87621,-6.4242 6.4242,-6.4242c3.54799,0 6.4242,2.87621 6.4242,6.4242c0,3.54799 -2.87621,6.4242 -6.4242,6.4242c-3.54799,0 -6.4242,-2.87621 -6.4242,-6.4242z" fill="url(#color-3)" stroke="none" stroke-width="0" stroke-linecap="butt"/><path d="M233.5758,180c0,-3.54799 2.87621,-6.4242 6.4242,-6.4242c3.54799,0 6.4242,2.87621 6.4242,6.4242c0,3.54799 -2.87621,6.4242 -6.4242,6.4242c-3.54799,0 -6.4242,-2.87621 -6.4242,-6.4242z" fill="url(#color-4)" stroke="none" stroke-width="0" stroke-linecap="butt"/><path d="M235.67086,180c0,-2.39092 1.93823,-4.32914 4.32914,-4.32914c2.39092,0 4.32914,1.93823 4.32914,4.32914c0,2.39092 -1.93823,4.32914 -4.32914,4.32914c-2.39092,0 -4.32914,-1.93823 -4.32914,-4.32914z" fill="#ffeded" stroke="none" stroke-width="0.5" stroke-linecap="butt"/><path d="" data-paper-data="{&quot;index&quot;:null}" fill="none" stroke="#cdcdcd" stroke-width="1.5" stroke-linecap="round"/><path d="" fill="none" stroke="#cdcdcd" stroke-width="1.5" stroke-linecap="round"/><path d="" data-paper-data="{&quot;index&quot;:null}" fill="none" stroke="#cdcdcd" stroke-width="1.5" stroke-linecap="round"/><path d="" fill="none" stroke="#cdcdcd" stroke-width="1.5" stroke-linecap="round"/><path d="" data-paper-data="{&quot;index&quot;:null}" fill="none" stroke="#cdcdcd" stroke-width="1.5" stroke-linecap="round"/><path d="" data-paper-data="{&quot;index&quot;:null}" fill="none" stroke="#cdcdcd" stroke-width="1.5" stroke-linecap="round"/><path d="" data-paper-data="{&quot;index&quot;:null}" fill="none" stroke="#cdcdcd" stroke-width="1.5" stroke-linecap="round"/><path d="" fill="none" stroke="#cdcdcd" stroke-width="1.5" stroke-linecap="round"/><path d="" data-paper-data="{&quot;index&quot;:null}" fill="none" stroke="#cdcdcd" stroke-width="1.5" stroke-linecap="round"/><path d="" data-paper-data="{&quot;index&quot;:null}" fill="none" stroke="#cdcdcd" stroke-width="1.5" stroke-linecap="round"/><path d="" fill="none" stroke="#cdcdcd" stroke-width="1.5" stroke-linecap="round"/><path d="" data-paper-data="{&quot;index&quot;:null}" fill="none" stroke="#cdcdcd" stroke-width="1.5" stroke-linecap="round"/><path d="M219.94395,197.77023v-40.54748h40.54748v40.54748z" fill="none" stroke="none" stroke-width="0" stroke-linecap="butt"/><path d="M179,241v-122h122v122z" fill="none" stroke="none" stroke-width="NaN" stroke-linecap="butt"/></g></g></svg>