<svg version="1.1" xmlns="http://www.w3.org/2000/svg" xmlns:xlink="http://www.w3.org/1999/xlink" width="65.4" height="65.4" viewBox="0,0,65.4,65.4"><g transform="translate(-207.1,-147.7)"><g data-paper-data="{&quot;isPaintingLayer&quot;:true}" fill-rule="nonzero" stroke-linejoin="miter" stroke-miterlimit="10" stroke-dasharray="" stroke-dashoffset="0" style="mix-blend-mode: normal"><path d="M239.84627,195.14667c-1.38376,-0.01949 -1.52182,-0.48956 -2.48623,-1.48171c-2.89325,-2.97646 -6.85303,-7.05013 -11.23932,-11.56258c-0.90571,-0.93176 -1.3195,-1.07442 -1.26021,-2.37248c0.05929,-1.29806 0.48984,-1.52209 1.48218,-2.48668c4.44248,-4.31828 8.51863,-8.28047 11.38331,-11.06507c0.95489,-0.9282 1.10212,-1.39135 2.43176,-1.31784c1.32965,0.07351 1.58947,0.55916 2.59718,1.59586c4.25028,4.37253 7.89557,8.12265 10.89082,11.20405c0.99841,1.02713 1.46589,1.1848 1.49777,2.61687c0.03188,1.43207 -0.43135,1.46523 -1.38625,2.39343c-0.95489,0.9282 -8.40631,8.17129 -11.38331,11.06507c-0.99234,0.9646 -1.14394,1.43058 -2.5277,1.41109z" fill="#151723" stroke="#ffffff" stroke-width="1" stroke-linecap="butt"/><path d="M239.84626,194.89024c-1.38376,-0.01949 -1.52182,-0.48956 -2.48623,-1.48171c-2.89325,-2.97646 -6.85303,-7.05013 -11.23932,-11.56258c-0.90571,-0.93176 -1.3195,-1.07442 -1.26021,-2.37248c0.05929,-1.29806 0.48984,-1.52209 1.48218,-2.48668c4.44248,-4.31828 8.51863,-8.28047 11.38331,-11.06507c0.95489,-0.9282 1.10212,-1.39135 2.43176,-1.31784c1.32965,0.07351 1.58947,0.55916 2.59718,1.59586c4.25028,4.37253 7.89557,8.12265 10.89082,11.20405c0.99841,1.02713 1.46589,1.1848 1.49777,2.61687c0.03188,1.43207 -0.43135,1.46523 -1.38625,2.39343c-0.95489,0.9282 -8.40631,8.17129 -11.38331,11.06507c-0.99234,0.9646 -1.14394,1.43058 -2.5277,1.41109z" fill="none" stroke="#ffffff" stroke-width="1" stroke-linecap="butt"/><path d="M207.1,213.1v-65.4h65.4v65.4z" fill="none" stroke="none" stroke-width="0" stroke-linecap="butt"/><path d="M239.56748,192.72305c0,0 -5.88209,-2.34514 -7.45424,-5.124c-0.55369,-0.97867 -2.61634,-16.70473 -2.61634,-16.70473l10.62895,-2.81738l10.17724,3.48242c0,0 -0.34421,13.38499 -1.87195,15.87501c-1.92334,3.13478 -8.86366,5.28867 -8.86366,5.28867z" fill="#12aeff" stroke="#0e30cc" stroke-width="1.15823" stroke-linecap="butt"/><path d="M233.15,182.8v-5.6h13.7v5.6z" fill="#09679a" stroke="none" stroke-width="0" stroke-linecap="butt"/><path d="M242.8,186.85h-5.6v-13.7h5.6z" fill="#09679a" stroke="none" stroke-width="0" stroke-linecap="butt"/><path d="M245.0574,178.09994l-8.22902,9.46349l-2.63119,-1.86231l5.8203,-11.01039l10.32859,-9.56622z" fill="#ffffff" stroke="#eeeeee" stroke-width="2" stroke-linecap="butt"/><path d="M229.38739,192.90022l3.25975,-4.58784l2.37889,1.69024l-3.25974,4.58784z" fill="#dec100" stroke="#fce33f" stroke-width="2" stroke-linecap="butt"/><path d="M235.6822,186.72775l14.51017,-21.14161" fill="none" stroke="#eeeeee" stroke-width="2" stroke-linecap="round"/><path d="M229.44101,185.26725l1.08659,-1.52929l5.01073,2.78129l3.99502,3.6175l-1.08659,1.52929l-4.67897,-2.45224z" fill="#dec100" stroke="#fce33f" stroke-width="2" stroke-linecap="butt"/><path d="M243.22155,194.64606c0,0 -0.60118,-2.81529 -1.46269,-3.86477c-0.64364,-0.78407 -3.24605,-1.87134 -3.24605,-1.87134c0,0 2.44759,-1.04123 3.33445,-1.95671c0.81152,-0.8377 1.78079,-3.32356 1.78079,-3.32356c0,0 0.54524,2.37192 1.34459,3.34567c0.76906,0.93686 3.36415,2.39044 3.36415,2.39044c0,0 -2.74574,0.39331 -3.39808,1.0667c-0.94311,0.97354 -1.71717,4.21357 -1.71717,4.21357z" fill="#ffffff" stroke="#ffffff" stroke-width="2" stroke-linecap="butt"/><path d="M251.61827,186.12754c0,0 -0.32116,-1.50395 -0.78138,-2.06459c-0.34384,-0.41886 -1.73407,-0.99969 -1.73407,-0.99969c0,0 1.30753,-0.55623 1.7813,-1.04529c0.43352,-0.4475 0.95131,-1.77547 0.95131,-1.77547c0,0 0.29127,1.2671 0.71829,1.78729c0.41084,0.50048 1.79716,1.27699 1.79716,1.27699c0,0 -1.4668,0.21011 -1.81529,0.56984c-0.50382,0.52007 -0.91732,2.25092 -0.91732,2.25092z" fill="#ffffff" stroke="#ffffff" stroke-width="1.5" stroke-linecap="butt"/></g></g></svg>