<svg version="1.1" xmlns="http://www.w3.org/2000/svg" xmlns:xlink="http://www.w3.org/1999/xlink" width="77.1" height="77.1" viewBox="0,0,77.1,77.1"><defs><linearGradient x1="243.66494" y1="163.26917" x2="243.66494" y2="191.71157" gradientUnits="userSpaceOnUse" id="color-1"><stop offset="0" stop-color="#505050"/><stop offset="1" stop-color="#444444"/></linearGradient><linearGradient x1="232.65895" y1="175.138" x2="232.65895" y2="194.06206" gradientUnits="userSpaceOnUse" id="color-2"><stop offset="0" stop-color="#505050"/><stop offset="1" stop-color="#444444"/></linearGradient><linearGradient x1="242.47644" y1="187.79736" x2="242.47644" y2="196.73083" gradientUnits="userSpaceOnUse" id="color-3"><stop offset="0" stop-color="#505050"/><stop offset="1" stop-color="#444444"/></linearGradient></defs><g transform="translate(-201.45,-141.45)"><g data-paper-data="{&quot;isPaintingLayer&quot;:true}" fill-rule="nonzero" stroke-linejoin="miter" stroke-miterlimit="10" stroke-dasharray="" stroke-dashoffset="0" style="mix-blend-mode: normal"><path d="M216.625,203.375v-46.75h46.75v46.75z" fill="none" stroke="none" stroke-width="2" stroke-linecap="butt"/><path d="M232.13474,175.08469c0.61888,-5.11411 1.86133,-11.81552 4.32927,-11.81552c5.54806,0 17.53423,0.2773 17.53423,9.40639c0,3.64426 2.02301,10.48339 0.80886,13.21596c-1.64911,3.71147 -6.59595,5.50539 -9.99525,5.82005" data-paper-data="{&quot;index&quot;:null}" fill="url(#color-1)" stroke="#ababab" stroke-width="2" stroke-linecap="butt"/><path d="M238.90528,191.68162c-2.11132,1.13152 -5.4844,2.38044 -6.51224,2.38044c-2.21387,0 -6.11681,-1.16769 -7.33046,-3.89916c-0.80639,-1.81486 0.53721,-6.35716 0.53721,-8.77754c0,-6.06319 7.96075,-6.24736 11.64557,-6.24736c2.80397,0 3.22609,8.95196 3.26767,13.23182" fill="url(#color-2)" stroke="#ababab" stroke-width="2" stroke-linecap="butt"/><path d="M245.62883,191.19889c0,1.05623 0.58633,3.03842 0.23444,3.8304c-0.52962,1.19197 -2.23282,1.70154 -3.19892,1.70154c-0.6051,0 -3.07283,-0.99192 -3.53847,-1.51179c0,0 -0.69347,-7.42167 0.91455,-7.42167c1.60802,0 5.5884,2.34529 5.5884,3.40152z" data-paper-data="{&quot;index&quot;:null}" fill="url(#color-3)" stroke="#ababab" stroke-width="2" stroke-linecap="butt"/><path d="M246.80798,195.36423l-4.11854,-12.71569" fill="none" stroke="#ffffff" stroke-width="0.5" stroke-linecap="round"/><path d="M251.14435,186.38605l-12.71569,4.11854" data-paper-data="{&quot;index&quot;:null}" fill="none" stroke="#ffffff" stroke-width="0.5" stroke-linecap="round"/><path d="M249.53372,191.32572l-9.95892,-5.50052" fill="none" stroke="#ffffff" stroke-width="0.5" stroke-linecap="round"/><path d="M247.45213,183.71283l-5.89647,9.92253" fill="none" stroke="#ffffff" stroke-width="0.5" stroke-linecap="round"/><path d="M243.99892,185.92894c0,0 0.41207,0.59394 0.64639,0.65088c0.27532,0.06692 0.90246,-0.27444 0.90246,-0.27444c0,0 0.35835,0.60308 0.57701,0.8255c0.21785,0.2216 0.73254,0.50655 0.73254,0.50655c0,0 -0.57357,0.67606 -0.65254,0.9752c-0.06688,0.25333 0.20894,0.70516 0.20894,0.70516c0,0 -0.5752,0.13806 -0.7605,0.34164c-0.19224,0.2112 -0.37287,0.90355 -0.37287,0.90355c0,0 -0.62929,-0.34622 -0.97417,-0.34321c-0.27997,0.00244 -0.94127,0.35991 -0.94127,0.35991c0,0 -0.14182,-0.54342 -0.43349,-0.70576c-0.30979,-0.17242 -1.37417,-0.30031 -1.37417,-0.30031c0,0 0.19148,-0.86176 0.21714,-1.24267c0.0247,-0.36662 -0.06593,-1.00156 -0.06593,-1.00156c0,0 0.82657,-0.22121 1.20552,-0.45291c0.38446,-0.23507 1.08496,-0.94754 1.08496,-0.94754z" fill="none" stroke="#ffffff" stroke-width="0.5" stroke-linecap="round"/><path d="M242.96366,183.41041c0,0 1.20238,0.92092 1.87477,1.08929c0.59132,0.14807 1.94768,-0.1321 1.94768,-0.1321c0,0 0.32898,1.18539 0.74311,1.62373c0.39191,0.41481 1.67871,0.93963 1.67871,0.93963c0,0 -0.76743,1.16208 -0.89722,1.73662c-0.13321,0.58962 0.10795,1.75703 0.10795,1.75703c0,0 -0.97675,0.57041 -1.33141,0.99751c-0.4229,0.50928 -1.03748,1.85525 -1.03748,1.85525c0,0 -1.64763,-0.59813 -2.25364,-0.66446c-0.69138,-0.07568 -1.67236,0.23474 -1.67236,0.23474c0,0 -0.62216,-1.22268 -1.09033,-1.62322c-0.49226,-0.42116 -1.79461,-0.84501 -1.79461,-0.84501c0,0 0.71117,-1.70775 0.89861,-2.40932c0.17563,-0.65737 0.19291,-1.67615 0.19291,-1.67615c0,0 1.17795,-0.37286 1.56505,-0.79674c0.47325,-0.51822 1.06829,-2.0868 1.06829,-2.0868z" fill="none" stroke="#ffffff" stroke-width="0.5" stroke-linecap="round"/><path d="M201.45,218.55v-77.1h77.1v77.1z" fill="none" stroke="none" stroke-width="NaN" stroke-linecap="butt"/></g></g></svg>