<svg version="1.1" xmlns="http://www.w3.org/2000/svg" xmlns:xlink="http://www.w3.org/1999/xlink" width="21.2" height="21.56923" viewBox="0,0,21.2,21.56923"><g transform="translate(-229.4,-169.59044)"><g data-paper-data="{&quot;isPaintingLayer&quot;:true}" fill-rule="nonzero" stroke-linejoin="miter" stroke-miterlimit="10" stroke-dasharray="" stroke-dashoffset="0" style="mix-blend-mode: normal"><path d="M235.39185,179.68949c0,0 -2.15,2.26134 -2.15,3.16346c0,0.8656 2.15,2.14423 2.15,2.14423l-2.89185,0.8" fill="none" stroke="#9e9e9e" stroke-width="2" stroke-linecap="round"/><path d="M246.55001,185.94718l-3.29402,-0.8c0,0 2.2,-0.97837 2.2,-1.74423c0,-0.88384 -2.2,-3.25577 -2.2,-3.25577" fill="none" stroke="#9e9e9e" stroke-width="2" stroke-linecap="round"/><path d="M233.29185,181.53949c0,0 -2.15,2.26134 -2.15,3.16346c0,0.8656 2.15,2.14423 2.15,2.14423l-2.89185,0.8" fill="none" stroke="#b8b8b8" stroke-width="2" stroke-linecap="round"/><path d="M249.6,187.69718l-3.29402,-0.8c0,0 2.2,-0.97837 2.2,-1.74423c0,-0.88384 -2.2,-3.25577 -2.2,-3.25577" fill="none" stroke="#b8b8b8" stroke-width="2" stroke-linecap="round"/><path d="M235.49186,184.05199c0,0 -2.15,2.26134 -2.15,3.16346c0,0.8656 2.15,2.14423 2.15,2.14423l-2.89186,0.8" fill="none" stroke="#d4d4d4" stroke-width="2" stroke-linecap="round"/><path d="M246.75,190.09718l-3.29402,-0.8c0,0 2.2,-0.97837 2.2,-1.74423c0,-0.88384 -2.2,-3.25577 -2.2,-3.25577" fill="none" stroke="#d4d4d4" stroke-width="2" stroke-linecap="round"/><path d="M247.74712,177.46545c0,2.06346 0.93722,4.60955 -0.66132,5.91072c-1.44988,1.18017 -5.26693,1.71428 -7.40118,1.71428c-2.41861,0 -5.9029,-0.36422 -7.39131,-1.83482c-1.27307,-1.25784 -0.79619,-3.97609 -0.79619,-5.79018c0,-2.25509 0.81969,-4.51549 2.68434,-5.82103c1.38907,-0.97257 3.52494,-1.30397 5.44066,-1.30397c2.12402,0 4.43269,0.21471 5.88031,1.38485c1.6107,1.30195 2.24469,3.66772 2.24469,5.74015z" fill="#000000" stroke="#e0e0e0" stroke-width="1.5" stroke-linecap="butt"/><path d="M235.97297,177.38574c0,-0.94973 0.35213,-1.81722 0.93295,-2.47903c0.68911,-0.7852 1.70015,-0.04232 2.82696,-0.04232c1.08408,0 2.06099,-0.77976 2.74718,-0.04575c0.6282,0.67198 1.01272,1.57463 1.01272,2.5671c0,1.5081 -0.88789,2.80882 -2.16944,3.40794c-0.48305,0.22582 -1.02202,0.08656 -1.59046,0.08656c-0.78394,0 -1.51183,0.02549 -2.11428,-0.38492c-0.99335,-0.67672 -1.64562,-1.81697 -1.64562,-3.10957z" fill="none" stroke="#e0e0e0" stroke-width="1" stroke-linecap="butt"/><path d="M237.98706,177.38574c0,-0.95211 0.77183,-1.56888 1.72395,-1.56888c0.95211,0 1.72395,0.61676 1.72395,1.56888c0,0.95211 -0.77183,1.56888 -1.72395,1.56888c-0.95211,0 -1.72395,-0.61676 -1.72395,-1.56888z" fill="#e0e0e0" stroke="#e0e0e0" stroke-width="1" stroke-linecap="butt"/><path d="M241.785,182.4592l-1.0625,0.5625l-1.125,-0.5625l-1,0.52941l-1,-0.52941" fill="none" stroke="#e0e0e0" stroke-width="1" stroke-linecap="round"/><path d="M240.92719,171.9449l-1.32702,0.70775l-1.06162,-0.61928" fill="none" stroke="#e0e0e0" stroke-width="1" stroke-linecap="round"/></g></g></svg>