<svg version="1.1" xmlns="http://www.w3.org/2000/svg" xmlns:xlink="http://www.w3.org/1999/xlink" width="32.2" height="32.2" viewBox="0,0,32.2,32.2"><defs><radialGradient cx="240" cy="180" r="10.23077" gradientUnits="userSpaceOnUse" id="color-1"><stop offset="0" stop-color="#ffd95a"/><stop offset="1" stop-color="#ffd95a" stop-opacity="0"/></radialGradient></defs><g transform="translate(-223.9,-163.9)"><g data-paper-data="{&quot;isPaintingLayer&quot;:true}" fill-rule="nonzero" stroke-linejoin="miter" stroke-miterlimit="10" stroke-dasharray="" stroke-dashoffset="0" style="mix-blend-mode: normal"><path d="M229.76923,180c0,-5.6503 4.58047,-10.23077 10.23077,-10.23077c5.6503,0 10.23077,4.58047 10.23077,10.23077c0,5.6503 -4.58047,10.23077 -10.23077,10.23077c-5.6503,0 -10.23077,-4.58047 -10.23077,-10.23077z" fill="url(#color-1)" stroke="#ffe400" stroke-width="0" stroke-linecap="butt"/><path d="M233.87637,179.69231c0,-1.33171 4.7892,-6.12091 6.12091,-6.12091c1.33171,0 5.97252,4.7892 5.97252,6.12091c0,1.33171 -4.64081,6.12091 -5.97252,6.12091c-1.33171,0 -6.12091,-4.7892 -6.12091,-6.12091z" fill="#846500" stroke="#ffe400" stroke-width="2" stroke-linecap="butt"/><path d="M236.7027,179.10237c0,-0.52034 0.42181,-0.94215 0.94214,-0.94215c0.52034,0 0.94215,0.42182 0.94215,0.94215c0,0.52034 -0.42182,0.94215 -0.94215,0.94215c-0.52034,0 -0.94214,-0.42182 -0.94214,-0.94215z" fill="#ffe400" stroke="none" stroke-width="2" stroke-linecap="butt"/><path d="M241.35065,178.47427c0,-0.52034 0.42182,-0.94215 0.94215,-0.94215c0.52034,0 0.94215,0.42182 0.94215,0.94215c0,0.52034 -0.42182,0.94215 -0.94215,0.94215c-0.52034,0 -0.94215,-0.42182 -0.94215,-0.94215z" fill="#ffe400" stroke="none" stroke-width="2" stroke-linecap="butt"/><path d="M241.79032,181.61478c0,0 -1.00496,0.50248 -1.50744,0.50248c-0.50248,0 -1.50744,-0.50248 -1.50744,-0.50248" fill="#d4c300" stroke="#ffe400" stroke-width="2" stroke-linecap="round"/><path d="M223.9,196.1v-32.2h32.2v32.2z" fill="none" stroke="none" stroke-width="NaN" stroke-linecap="butt"/></g></g></svg>