<svg version="1.1" xmlns="http://www.w3.org/2000/svg" xmlns:xlink="http://www.w3.org/1999/xlink" width="56.83333" height="56.83333" viewBox="0,0,56.83333,56.83333"><g transform="translate(-211.58335,-151.58336)"><g data-paper-data="{&quot;isPaintingLayer&quot;:true}" fill-rule="nonzero" stroke-linejoin="miter" stroke-miterlimit="10" stroke-dasharray="" stroke-dashoffset="0" style="mix-blend-mode: normal"><path d="M235.97981,191.75842v-7.5085h7.79215v7.5085z" data-paper-data="{&quot;index&quot;:null}" fill="#000000" stroke="#220735" stroke-width="2.5" stroke-linecap="butt"/><path d="M211.58336,208.41669v-56.83333h56.83333v56.83333z" fill="none" stroke="none" stroke-width="0" stroke-linecap="butt"/><path d="M229.16115,185.30337l-1.60483,-3.00396l3.30757,1.15057" fill="none" stroke="#400071" stroke-width="2" stroke-linecap="round"/><path d="M231.74835,175.03005l-2.59348,-2.20751l3.49914,-0.14071" fill="none" stroke="#400071" stroke-width="2" stroke-linecap="round"/><path d="M237.98408,165.41498l-2.04429,-2.72399l3.44437,0.63254" fill="none" stroke="#400071" stroke-width="2" stroke-linecap="round"/><path d="M245.52221,172.76708l3.44437,-0.63254l-2.04429,2.72399" data-paper-data="{&quot;index&quot;:null}" fill="none" stroke="#400071" stroke-width="2" stroke-linecap="round"/><path d="M247.43882,179.84341l3.49028,0.28596l-2.68295,2.09787" data-paper-data="{&quot;index&quot;:null}" fill="none" stroke="#400071" stroke-width="2" stroke-linecap="round"/><path d="M250.5232,184.98887l3.44437,-0.63254l-2.04429,2.72399" data-paper-data="{&quot;index&quot;:null}" fill="none" stroke="#400071" stroke-width="2" stroke-linecap="round"/><path d="M242.88681,166.10471l3.44437,-0.63254l-2.04429,2.72399" data-paper-data="{&quot;index&quot;:null}" fill="none" stroke="#400071" stroke-width="2" stroke-linecap="round"/><path d="M235.86698,169.28928l-2.74851,-2.01121l3.47938,-0.39716" fill="none" stroke="#400071" stroke-width="2" stroke-linecap="round"/><path d="M233.58518,175.5659l13.34294,-0.00514l5.99167,12.1385l-25.49425,-0.18686z" data-paper-data="{&quot;index&quot;:null}" fill="#000000" stroke="#430e68" stroke-width="2.5" stroke-linecap="butt"/><path d="M230.29521,176.46413l9.79098,-16.35585l9.45336,16.35585z" data-paper-data="{&quot;index&quot;:null}" fill="#000000" stroke="#430e68" stroke-width="2.5" stroke-linecap="butt"/></g></g></svg>