<svg version="1.1" xmlns="http://www.w3.org/2000/svg" xmlns:xlink="http://www.w3.org/1999/xlink" width="77.1" height="77.1" viewBox="0,0,77.1,77.1"><defs><linearGradient x1="239.89842" y1="168.87589" x2="239.89842" y2="191.2296" gradientUnits="userSpaceOnUse" id="color-1"><stop offset="0" stop-color="#e954ff"/><stop offset="1" stop-color="#ff4d4d"/></linearGradient></defs><g transform="translate(-201.45,-141.45)"><g data-paper-data="{&quot;isPaintingLayer&quot;:true}" fill="none" fill-rule="nonzero" stroke-linecap="butt" stroke-linejoin="miter" stroke-miterlimit="10" stroke-dasharray="" stroke-dashoffset="0" style="mix-blend-mode: normal"><path d="M224.44298,195.55707v-31.11411h31.11411v31.11411z" stroke="none" stroke-width="2"/><path d="M247.76718,170.90054l-11.71751,12.80019c0,0 -2.11978,2.95886 -1.19551,4.54149c0.92427,1.58262 2.64847,-0.33721 3.68404,-0.28042c1.66481,0.0913 1.92198,1.14758 1.55201,1.52749c-0.36562,0.37543 -4.11744,3.53448 -7.21756,0.2902c-2.60434,-2.72545 1.48812,-7.65232 1.48812,-7.65232l11.61849,-13.25129c0,0 1.34123,-0.33773 1.81205,0.19542c0.47081,0.53315 -0.02411,1.82922 -0.02411,1.82922z" stroke="url(#color-1)" stroke-width="2"/><path d="M201.45,218.55v-77.1h77.1v77.1z" stroke="none" stroke-width="NaN"/></g></g></svg>