<svg version="1.1" xmlns="http://www.w3.org/2000/svg" xmlns:xlink="http://www.w3.org/1999/xlink" width="508.64555" height="379.33384" viewBox="0,0,508.64555,379.33384"><g transform="translate(15.65724,12.58385)"><g data-paper-data="{&quot;isPaintingLayer&quot;:true}" fill-rule="nonzero" stroke-linejoin="miter" stroke-miterlimit="10" stroke-dasharray="" stroke-dashoffset="0" style="mix-blend-mode: normal"><path d="M-5.99997,366.5v-373h492v373z" fill="#001718" stroke="#000000" stroke-width="0.5" stroke-linecap="butt"/><g stroke-width="2.5" stroke-linecap="butt"><path d="M463.68794,221.45051v-20.5201h7.46185v20.5201z" data-paper-data="{&quot;index&quot;:null}" fill="#391810" stroke="#642a1c"/><path d="M445.03327,200.93041l10.6432,-20.87073l24.32433,-0.00885l10.92288,20.87958z" data-paper-data="{&quot;index&quot;:null}" fill="#1c4635" stroke="#1f7049"/><path d="M448.50019,179.73956l19.87552,-40.29402l19.19016,40.29402z" data-paper-data="{&quot;index&quot;:null}" fill="#1c4635" stroke="#1f7049"/></g><path d="M75.50007,344.5v-329h329v329z" fill="#030009" stroke="none" stroke-width="0" stroke-linecap="butt"/><g data-paper-data="{&quot;index&quot;:null}" fill="#082a19" stroke="#000000" stroke-width="0" stroke-linecap="butt"><path d="M241.43343,138.45558v-37h37v37z"/><path d="M281.56674,178.54447v-37h37v37z"/><path d="M321.43341,138.45558v-37h37v37z"/><path d="M361.56677,178.54447v-37h37v37z"/><path d="M241.43343,58.45557v-37h37v37z"/><path d="M281.56674,98.54447v-37h37v37z"/><path d="M321.43341,58.45557v-37h37v37z"/><path d="M361.56677,98.54447v-37h37v37z"/><path d="M81.43336,138.45558v-37h37v37z"/><path d="M121.56676,178.54447v-37h37v37z"/><path d="M161.43338,138.45558v-37h37v37z"/><path d="M201.56676,178.54447v-37h37v37z"/><path d="M81.43336,58.45557v-37h37v37z"/><path d="M121.56676,98.54447v-37h37v37z"/><path d="M161.43338,58.45557v-37h37v37z"/><path d="M201.56676,98.54447v-37h37v37z"/><path d="M241.43343,298.45556v-37h37v37z"/><path d="M281.56674,338.54446v-37h37v37z"/><path d="M321.43341,298.45556v-37h37v37z"/><path d="M361.56677,338.54446v-37h37v37z"/><path d="M241.43343,218.45558v-37h37v37z"/><path d="M281.56674,258.54447v-37h37v37z"/><path d="M321.43341,218.45558v-37h37v37z"/><path d="M361.56677,258.54447v-37h37v37z"/><path d="M81.43336,298.45556v-37h37v37z"/><path d="M121.56676,338.54446v-37h37v37z"/><path d="M161.43338,298.45556v-37h37v37z"/><path d="M201.56676,338.54446v-37h37v37z"/><path d="M81.43336,218.45558v-37h37v37z"/><path d="M121.56676,258.54447v-37h37v37z"/><path d="M161.43338,218.45558v-37h37v37z"/><path d="M201.56676,258.54447v-37h37v37z"/></g><g data-paper-data="{&quot;index&quot;:null}" fill="#0a4440" stroke="#000000" stroke-width="0" stroke-linecap="butt"><path d="M281.56674,138.54447v-37h37v37z"/><path d="M241.43343,178.45558v-37h37v37z"/><path d="M361.56677,138.54447v-37h37v37z"/><path d="M321.43336,178.45558v-37h37v37z"/><path d="M281.56674,58.54447v-37h37v37z"/><path d="M241.43343,98.45558v-37h37v37z"/><path d="M361.56677,58.54447v-37h37v37z"/><path d="M321.43336,98.45558v-37h37v37z"/><path d="M121.56676,138.54447v-37h37v37z"/><path d="M81.43336,178.45558v-37h37v37z"/><path d="M201.56676,138.54447v-37h37v37z"/><path d="M161.43338,178.45558v-37h37v37z"/><path d="M121.56676,58.54447v-37h37v37z"/><path d="M81.43336,98.45558v-37h37v37z"/><path d="M201.56676,58.54447v-37h37v37z"/><path d="M161.43338,98.45558v-37h37v37z"/><path d="M281.56674,298.54445v-37h37v37z"/><path d="M241.43343,338.45557v-37h37v37z"/><path d="M361.56677,298.54445v-37h37v37z"/><path d="M321.43336,338.45557v-37h37v37z"/><path d="M281.56674,218.54447v-37h37v37z"/><path d="M241.43343,258.45556v-37h37v37z"/><path d="M361.56677,218.54447v-37h37v37z"/><path d="M321.43336,258.45556v-37h37v37z"/><path d="M121.56676,298.54445v-37h37v37z"/><path d="M81.43336,338.45557v-37h37v37z"/><path d="M201.56676,298.54445v-37h37v37z"/><path d="M161.43338,338.45557v-37h37v37z"/><path d="M121.56676,218.54447v-37h37v37z"/><path d="M81.43336,258.45556v-37h37v37z"/><path d="M201.56676,218.54447v-37h37v37z"/><path d="M161.43338,258.45556v-37h37v37z"/></g><g fill="#2e735f" stroke="#0e5853" stroke-width="1" stroke-linecap="butt"><g><g><g><g><path d="M12.75134,37.10025c-0.53101,-0.8274 -0.14659,-3.26856 0.85861,-5.45248c1.00521,-2.18392 2.25054,-3.28359 2.78156,-2.45618c0.53102,0.8274 0.14659,3.26856 -0.85861,5.45248c-1.00521,2.18392 -2.25054,3.28359 -2.78156,2.45618z"/><path d="M18.62437,38.28148c-1.0837,-2.0529 -1.55757,-4.44023 -1.05841,-5.33224c0.49915,-0.89202 1.78231,0.04906 2.86601,2.10197c1.0837,2.0529 1.55757,4.44023 1.05841,5.33225c-0.49916,0.89202 -1.78231,-0.04906 -2.86601,-2.10196z" data-paper-data="{&quot;index&quot;:null}"/><path d="M12.80074,46.46388c-0.53101,-0.8274 -0.14661,-3.26856 0.8586,-5.45248c1.00521,-2.18392 2.25055,-3.28359 2.78157,-2.45619c0.53102,0.8274 0.14661,3.26857 -0.8586,5.45249c-1.00521,2.18392 -2.25055,3.28359 -2.78157,2.45618z"/><path d="M18.67378,47.64512c-1.0837,-2.0529 -1.55757,-4.44023 -1.05842,-5.33224c0.49916,-0.89202 1.78231,0.04907 2.86601,2.10197c1.0837,2.0529 1.55757,4.44022 1.05842,5.33224c-0.49916,0.89202 -1.78231,-0.04906 -2.86601,-2.10196z" data-paper-data="{&quot;index&quot;:null}"/></g><g><path d="M12.75134,55.85025c-0.53101,-0.8274 -0.14659,-3.26856 0.85861,-5.45248c1.00521,-2.18392 2.25054,-3.28359 2.78156,-2.45618c0.53102,0.8274 0.14659,3.26856 -0.85861,5.45248c-1.00521,2.18392 -2.25054,3.28359 -2.78156,2.45618z"/><path d="M18.62437,57.03148c-1.0837,-2.0529 -1.55757,-4.44023 -1.05841,-5.33224c0.49915,-0.89202 1.78231,0.04906 2.86601,2.10197c1.0837,2.0529 1.55757,4.44023 1.05841,5.33224c-0.49916,0.89202 -1.78231,-0.04906 -2.86601,-2.10196z" data-paper-data="{&quot;index&quot;:null}"/><path d="M12.80074,65.21388c-0.53101,-0.8274 -0.14661,-3.26856 0.8586,-5.45248c1.00521,-2.18392 2.25055,-3.28359 2.78157,-2.45618c0.53102,0.82741 0.14661,3.26857 -0.8586,5.45249c-1.00521,2.18392 -2.25055,3.28359 -2.78157,2.45618z"/><path d="M18.67378,66.39512c-1.0837,-2.0529 -1.55757,-4.44023 -1.05842,-5.33224c0.49916,-0.89202 1.78231,0.04907 2.86601,2.10197c1.0837,2.0529 1.55757,4.44022 1.05842,5.33224c-0.49916,0.89202 -1.78231,-0.04906 -2.86601,-2.10196z" data-paper-data="{&quot;index&quot;:null}"/></g></g><g><g><path d="M12.75134,-0.52475c-0.53101,-0.8274 -0.14659,-3.26856 0.85861,-5.45248c1.00521,-2.18392 2.25054,-3.28359 2.78156,-2.45618c0.53102,0.82741 0.14659,3.26856 -0.85861,5.45248c-1.00521,2.18392 -2.25054,3.28359 -2.78156,2.45619z"/><path d="M18.62437,0.65648c-1.0837,-2.0529 -1.55757,-4.44023 -1.05841,-5.33224c0.49915,-0.89201 1.78231,0.04906 2.86601,2.10197c1.0837,2.0529 1.55757,4.44023 1.05841,5.33225c-0.49916,0.89202 -1.78231,-0.04907 -2.86601,-2.10196z" data-paper-data="{&quot;index&quot;:null}"/><path d="M12.80074,8.83888c-0.53101,-0.82741 -0.14661,-3.26856 0.8586,-5.45248c1.00521,-2.18392 2.25055,-3.28359 2.78157,-2.45619c0.53102,0.8274 0.14661,3.26857 -0.8586,5.45249c-1.00521,2.18392 -2.25055,3.28358 -2.78157,2.45618z"/><path d="M18.67378,10.02012c-1.0837,-2.0529 -1.55757,-4.44023 -1.05842,-5.33224c0.49916,-0.89202 1.78231,0.04907 2.86601,2.10197c1.0837,2.0529 1.55757,4.44023 1.05842,5.33224c-0.49916,0.89202 -1.78231,-0.04906 -2.86601,-2.10196z" data-paper-data="{&quot;index&quot;:null}"/></g><g><path d="M12.75134,18.22525c-0.53101,-0.8274 -0.14659,-3.26856 0.85861,-5.45248c1.00521,-2.18392 2.25054,-3.28359 2.78156,-2.45619c0.53102,0.8274 0.14659,3.26856 -0.85861,5.45248c-1.00521,2.18392 -2.25054,3.28359 -2.78156,2.45619z"/><path d="M18.62437,19.40648c-1.0837,-2.0529 -1.55757,-4.44023 -1.05841,-5.33224c0.49915,-0.89202 1.78231,0.04906 2.86601,2.10197c1.0837,2.0529 1.55757,4.44023 1.05841,5.33224c-0.49916,0.89202 -1.78231,-0.04906 -2.86601,-2.10196z" data-paper-data="{&quot;index&quot;:null}"/><path d="M12.80074,27.58888c-0.53101,-0.8274 -0.14661,-3.26856 0.8586,-5.45248c1.00521,-2.18392 2.25055,-3.28359 2.78157,-2.45618c0.53102,0.8274 0.14661,3.26856 -0.8586,5.45248c-1.00521,2.18392 -2.25055,3.28359 -2.78157,2.45618z"/><path d="M18.67378,28.77011c-1.0837,-2.0529 -1.55757,-4.44023 -1.05842,-5.33224c0.49916,-0.89202 1.78231,0.04907 2.86601,2.10197c1.0837,2.0529 1.55757,4.44022 1.05842,5.33224c-0.49916,0.89202 -1.78231,-0.04906 -2.86601,-2.10196z" data-paper-data="{&quot;index&quot;:null}"/></g></g></g><g><g><g><path d="M12.75134,112.16275c-0.53101,-0.8274 -0.14659,-3.26856 0.85861,-5.45248c1.00521,-2.18392 2.25054,-3.28359 2.78156,-2.45619c0.53102,0.8274 0.14659,3.26856 -0.85861,5.45248c-1.00521,2.18392 -2.25054,3.28359 -2.78156,2.45619z"/><path d="M18.62437,113.34398c-1.0837,-2.0529 -1.55757,-4.44023 -1.05841,-5.33224c0.49915,-0.89202 1.78231,0.04906 2.86601,2.10196c1.0837,2.0529 1.55757,4.44023 1.05841,5.33225c-0.49916,0.89202 -1.78231,-0.04906 -2.86601,-2.10196z" data-paper-data="{&quot;index&quot;:null}"/><path d="M12.80074,121.52638c-0.53101,-0.8274 -0.14661,-3.26856 0.8586,-5.45248c1.00521,-2.18392 2.25055,-3.28359 2.78157,-2.45618c0.53102,0.8274 0.14661,3.26856 -0.8586,5.45248c-1.00521,2.18392 -2.25055,3.28358 -2.78157,2.45618z"/><path d="M18.67378,122.70762c-1.0837,-2.0529 -1.55757,-4.44023 -1.05842,-5.33224c0.49916,-0.89202 1.78231,0.04907 2.86601,2.10197c1.0837,2.0529 1.55757,4.44023 1.05842,5.33224c-0.49916,0.89201 -1.78231,-0.04907 -2.86601,-2.10197z" data-paper-data="{&quot;index&quot;:null}"/></g><g><path d="M12.75134,130.91275c-0.53101,-0.8274 -0.14659,-3.26856 0.85861,-5.45248c1.00521,-2.18392 2.25054,-3.28359 2.78156,-2.45619c0.53102,0.8274 0.14659,3.26856 -0.85861,5.45248c-1.00521,2.18392 -2.25054,3.28359 -2.78156,2.45619z"/><path d="M18.62437,132.09398c-1.0837,-2.0529 -1.55757,-4.44023 -1.05841,-5.33224c0.49915,-0.89201 1.78231,0.04907 2.86601,2.10197c1.0837,2.0529 1.55757,4.44023 1.05841,5.33225c-0.49916,0.89201 -1.78231,-0.04907 -2.86601,-2.10197z" data-paper-data="{&quot;index&quot;:null}"/><path d="M12.80074,140.27638c-0.53101,-0.8274 -0.14661,-3.26856 0.8586,-5.45248c1.00521,-2.18392 2.25055,-3.28359 2.78157,-2.45619c0.53102,0.8274 0.14661,3.26856 -0.8586,5.45248c-1.00521,2.18392 -2.25055,3.28358 -2.78157,2.45618z"/><path d="M18.67378,141.45762c-1.0837,-2.0529 -1.55757,-4.44023 -1.05842,-5.33224c0.49916,-0.89201 1.78231,0.04907 2.86601,2.10197c1.0837,2.0529 1.55757,4.44023 1.05842,5.33224c-0.49916,0.89201 -1.78231,-0.04907 -2.86601,-2.10197z" data-paper-data="{&quot;index&quot;:null}"/></g></g><g><g><path d="M12.75134,74.53775c-0.53101,-0.8274 -0.14659,-3.26856 0.85861,-5.45248c1.00521,-2.18392 2.25054,-3.28359 2.78156,-2.45619c0.53102,0.8274 0.14659,3.26856 -0.85861,5.45248c-1.00521,2.18392 -2.25054,3.28359 -2.78156,2.45619z"/><path d="M18.62437,75.71898c-1.0837,-2.0529 -1.55757,-4.44023 -1.05841,-5.33224c0.49915,-0.89202 1.78231,0.04906 2.86601,2.10196c1.0837,2.0529 1.55757,4.44023 1.05841,5.33225c-0.49916,0.89202 -1.78231,-0.04906 -2.86601,-2.10196z" data-paper-data="{&quot;index&quot;:null}"/><path d="M12.80074,83.90138c-0.53101,-0.8274 -0.14661,-3.26856 0.8586,-5.45248c1.00521,-2.18392 2.25055,-3.28359 2.78157,-2.45618c0.53102,0.8274 0.14661,3.26856 -0.8586,5.45248c-1.00521,2.18392 -2.25055,3.28359 -2.78157,2.45618z"/><path d="M18.67378,85.08262c-1.0837,-2.0529 -1.55757,-4.44023 -1.05842,-5.33224c0.49916,-0.89202 1.78231,0.04907 2.86601,2.10197c1.0837,2.0529 1.55757,4.44022 1.05842,5.33224c-0.49916,0.89202 -1.78231,-0.04906 -2.86601,-2.10196z" data-paper-data="{&quot;index&quot;:null}"/></g><g><path d="M12.75134,93.28775c-0.53101,-0.8274 -0.14659,-3.26856 0.85861,-5.45248c1.00521,-2.18392 2.25054,-3.28359 2.78156,-2.45619c0.53102,0.8274 0.14659,3.26856 -0.85861,5.45248c-1.00521,2.18392 -2.25054,3.28359 -2.78156,2.45619z"/><path d="M18.62437,94.46898c-1.0837,-2.0529 -1.55757,-4.44023 -1.05841,-5.33224c0.49915,-0.89202 1.78231,0.04906 2.86601,2.10196c1.0837,2.0529 1.55757,4.44023 1.05841,5.33225c-0.49916,0.89202 -1.78231,-0.04906 -2.86601,-2.10196z" data-paper-data="{&quot;index&quot;:null}"/><path d="M12.80074,102.65138c-0.53101,-0.8274 -0.14661,-3.26856 0.8586,-5.45248c1.00521,-2.18392 2.25055,-3.28359 2.78157,-2.45618c0.53102,0.8274 0.14661,3.26856 -0.8586,5.45248c-1.00521,2.18392 -2.25055,3.28359 -2.78157,2.45618z"/><path d="M18.67378,103.83262c-1.0837,-2.0529 -1.55757,-4.44023 -1.05842,-5.33224c0.49916,-0.89202 1.78231,0.04907 2.86601,2.10197c1.0837,2.0529 1.55757,4.44022 1.05842,5.33224c-0.49916,0.89202 -1.78231,-0.04906 -2.86601,-2.10196z" data-paper-data="{&quot;index&quot;:null}"/></g></g></g></g><g data-paper-data="{&quot;index&quot;:null}"><g><path d="M77.3337,2.01907c-1.0052,2.18392 -2.25056,3.28358 -2.78156,2.45618c-0.53101,-0.82741 -0.1466,-3.26856 0.8586,-5.45248c1.0052,-2.18393 2.25056,-3.28359 2.78156,-2.45619c0.53101,0.82741 0.1466,3.26856 -0.8586,5.45248z"/><path d="M83.29123,7.75845c-0.49916,0.89201 -1.78231,-0.04907 -2.86601,-2.10197c-1.0837,-2.0529 -1.55758,-4.44023 -1.05842,-5.33224c0.49916,-0.89202 1.78231,0.04906 2.86601,2.10196c1.0837,2.0529 1.55757,4.44023 1.05841,5.33225z" data-paper-data="{&quot;index&quot;:null}"/><path d="M77.38316,11.3827c-1.00521,2.18392 -2.25056,3.28358 -2.78157,2.45618c-0.53101,-0.8274 -0.1466,-3.26856 0.8586,-5.45248c1.0052,-2.18392 2.25056,-3.28359 2.78156,-2.45619c0.531,0.82741 0.1466,3.26857 -0.8586,5.45249z"/><path d="M83.34063,17.12207c-0.49916,0.89202 -1.78231,-0.04906 -2.86601,-2.10196c-1.0837,-2.0529 -1.55757,-4.44023 -1.05842,-5.33225c0.49914,-0.89202 1.78231,0.04907 2.86601,2.10197c1.0837,2.0529 1.55757,4.44023 1.05841,5.33224z" data-paper-data="{&quot;index&quot;:null}"/></g><g><path d="M74.55218,23.22525c-0.53101,-0.82741 -0.1466,-3.26856 0.8586,-5.45248c1.0052,-2.18393 2.25056,-3.28359 2.78156,-2.45619c0.53101,0.82741 0.1466,3.26856 -0.8586,5.45248c-1.0052,2.18392 -2.25056,3.28359 -2.78156,2.45619z"/><path d="M83.29123,26.50845c-0.49916,0.89201 -1.78231,-0.04907 -2.86601,-2.10197c-1.0837,-2.0529 -1.55758,-4.44023 -1.05842,-5.33224c0.49916,-0.89202 1.78231,0.04906 2.86601,2.10196c1.0837,2.0529 1.55757,4.44023 1.05841,5.33225z" data-paper-data="{&quot;index&quot;:null}"/><path d="M77.38316,30.1327c-1.00521,2.18392 -2.25056,3.28358 -2.78157,2.45618c-0.53101,-0.8274 -0.1466,-3.26856 0.8586,-5.45248c1.0052,-2.18392 2.25056,-3.28359 2.78156,-2.45619c0.531,0.82741 0.1466,3.26857 -0.8586,5.45249z"/><path d="M83.34063,35.87208c-0.49916,0.89202 -1.78231,-0.04906 -2.86601,-2.10196c-1.0837,-2.0529 -1.55757,-4.44023 -1.05842,-5.33225c0.49914,-0.89202 1.78231,0.04907 2.86601,2.10197c1.0837,2.0529 1.55757,4.44023 1.05841,5.33224z" data-paper-data="{&quot;index&quot;:null}"/></g></g><g data-paper-data="{&quot;index&quot;:null}"><g><g><g><path d="M459.46714,38.64406c-1.0052,-2.18392 -1.38962,-4.62508 -0.85861,-5.45248c0.531,-0.8274 1.77636,0.27226 2.78156,2.45618c1.0052,2.18392 1.38962,4.62508 0.85861,5.45248c-0.531,0.8274 -1.77636,-0.27226 -2.78156,-2.45618z"/><path d="M453.50968,44.38345c-0.49915,-0.89202 -0.02529,-3.27934 1.05841,-5.33224c1.0837,-2.0529 2.36686,-2.99398 2.86601,-2.10196c0.49915,0.89202 0.02528,3.27934 -1.05842,5.33225c-1.0837,2.0529 -2.36685,2.99398 -2.86601,2.10197z" data-paper-data="{&quot;index&quot;:null}"/><path d="M459.41774,48.0077c-1.0052,-2.18392 -1.3896,-4.62508 -0.8586,-5.45249c0.531,-0.8274 1.77636,0.27227 2.78156,2.45619c1.0052,2.18392 1.38962,4.62508 0.8586,5.45248c-0.531,0.8274 -1.77636,-0.27226 -2.78157,-2.45618z"/><path d="M453.46025,53.74708c-0.49915,-0.89202 -0.02528,-3.27934 1.05842,-5.33224c1.0837,-2.0529 2.36686,-2.99399 2.86601,-2.10197c0.49915,0.89202 0.02528,3.27934 -1.05842,5.33225c-1.0837,2.0529 -2.36685,2.99398 -2.86601,2.10197z" data-paper-data="{&quot;index&quot;:null}"/></g><g><path d="M459.46714,57.39406c-1.0052,-2.18392 -1.38962,-4.62507 -0.85861,-5.45248c0.531,-0.8274 1.77636,0.27227 2.78156,2.45619c1.0052,2.18392 1.38962,4.62507 0.85861,5.45248c-0.531,0.8274 -1.77636,-0.27227 -2.78156,-2.45619z"/><path d="M453.50968,63.13344c-0.49915,-0.89202 -0.02529,-3.27935 1.05841,-5.33224c1.0837,-2.0529 2.36686,-2.99398 2.86601,-2.10196c0.49915,0.89202 0.02528,3.27935 -1.05842,5.33225c-1.0837,2.0529 -2.36685,2.99398 -2.86601,2.10196z" data-paper-data="{&quot;index&quot;:null}"/><path d="M459.41774,66.7577c-1.0052,-2.18392 -1.3896,-4.62508 -0.8586,-5.45248c0.531,-0.8274 1.77636,0.27226 2.78156,2.45618c1.0052,2.18392 1.38962,4.62508 0.8586,5.45248c-0.531,0.8274 -1.77636,-0.27226 -2.78157,-2.45618z"/><path d="M453.46025,72.49707c-0.49915,-0.89202 -0.02528,-3.27934 1.05842,-5.33224c1.0837,-2.0529 2.36686,-2.99398 2.86601,-2.10197c0.49915,0.89202 0.02528,3.27935 -1.05842,5.33225c-1.0837,2.0529 -2.36685,2.99398 -2.86601,2.10196z" data-paper-data="{&quot;index&quot;:null}"/></g></g><g><g><path d="M459.46714,1.01906c-1.0052,-2.18392 -1.38962,-4.62507 -0.85861,-5.45248c0.531,-0.8274 1.77636,0.27226 2.78156,2.45618c1.0052,2.18392 1.38962,4.62507 0.85861,5.45248c-0.531,0.82741 -1.77636,-0.27226 -2.78156,-2.45618z"/><path d="M453.50968,6.75844c-0.49915,-0.89202 -0.02529,-3.27934 1.05841,-5.33224c1.0837,-2.0529 2.36686,-2.99398 2.86601,-2.10196c0.49915,0.89202 0.02528,3.27935 -1.05842,5.33225c-1.0837,2.0529 -2.36685,2.99398 -2.86601,2.10196z" data-paper-data="{&quot;index&quot;:null}"/><path d="M459.41774,10.3827c-1.0052,-2.18392 -1.3896,-4.62508 -0.8586,-5.45248c0.531,-0.82741 1.77636,0.27226 2.78156,2.45618c1.0052,2.18392 1.38962,4.62508 0.8586,5.45248c-0.531,0.8274 -1.77636,-0.27226 -2.78157,-2.45618z"/><path d="M453.46025,16.12207c-0.49915,-0.89202 -0.02528,-3.27934 1.05842,-5.33224c1.0837,-2.0529 2.36686,-2.99399 2.86601,-2.10197c0.49915,0.89202 0.02528,3.27934 -1.05842,5.33225c-1.0837,2.0529 -2.36685,2.99398 -2.86601,2.10197z" data-paper-data="{&quot;index&quot;:null}"/></g><g><path d="M459.46714,19.76906c-1.0052,-2.18392 -1.38962,-4.62508 -0.85861,-5.45248c0.531,-0.8274 1.77636,0.27227 2.78156,2.45619c1.0052,2.18392 1.38962,4.62508 0.85861,5.45248c-0.531,0.8274 -1.77636,-0.27227 -2.78156,-2.45619z"/><path d="M453.50968,25.50845c-0.49915,-0.89202 -0.02529,-3.27934 1.05841,-5.33224c1.0837,-2.0529 2.36686,-2.99398 2.86601,-2.10196c0.49915,0.89202 0.02528,3.27934 -1.05842,5.33225c-1.0837,2.0529 -2.36685,2.99398 -2.86601,2.10197z" data-paper-data="{&quot;index&quot;:null}"/><path d="M459.41774,29.1327c-1.0052,-2.18392 -1.3896,-4.62508 -0.8586,-5.45249c0.531,-0.8274 1.77636,0.27227 2.78156,2.45619c1.0052,2.18392 1.38962,4.62508 0.8586,5.45248c-0.531,0.8274 -1.77636,-0.27226 -2.78157,-2.45618z"/><path d="M453.46025,34.87208c-0.49915,-0.89202 -0.02528,-3.27934 1.05842,-5.33224c1.0837,-2.0529 2.36686,-2.99399 2.86601,-2.10197c0.49915,0.89202 0.02528,3.27934 -1.05842,5.33225c-1.0837,2.0529 -2.36685,2.99398 -2.86601,2.10197z" data-paper-data="{&quot;index&quot;:null}"/></g></g></g><g><g><g><path d="M459.46714,113.70656c-1.0052,-2.18392 -1.38962,-4.62507 -0.85861,-5.45248c0.531,-0.8274 1.77636,0.27227 2.78156,2.45619c1.0052,2.18392 1.38962,4.62507 0.85861,5.45248c-0.531,0.8274 -1.77636,-0.27227 -2.78156,-2.45619z"/><path d="M453.50968,119.44595c-0.49915,-0.89201 -0.02529,-3.27935 1.05841,-5.33224c1.0837,-2.0529 2.36687,-2.99398 2.86601,-2.10196c0.49915,0.89202 0.02528,3.27935 -1.05842,5.33225c-1.0837,2.0529 -2.36685,2.99398 -2.86601,2.10196z" data-paper-data="{&quot;index&quot;:null}"/><path d="M459.41774,123.0702c-1.0052,-2.18392 -1.3896,-4.62508 -0.8586,-5.45248c0.531,-0.8274 1.77636,0.27227 2.78156,2.45619c1.0052,2.18392 1.38962,4.62507 0.8586,5.45248c-0.531,0.8274 -1.77636,-0.27226 -2.78157,-2.45618z"/><path d="M453.46025,128.80958c-0.49915,-0.89201 -0.02528,-3.27934 1.05842,-5.33224c1.0837,-2.0529 2.36686,-2.99398 2.86601,-2.10197c0.49915,0.89201 0.02528,3.27935 -1.05842,5.33225c-1.0837,2.0529 -2.36685,2.99398 -2.86601,2.10197z" data-paper-data="{&quot;index&quot;:null}"/></g><g><path d="M459.46714,132.45656c-1.0052,-2.18392 -1.38962,-4.62508 -0.85861,-5.45248c0.531,-0.8274 1.77636,0.27227 2.78156,2.45619c1.0052,2.18392 1.38962,4.62508 0.85861,5.45248c-0.531,0.8274 -1.77636,-0.27227 -2.78156,-2.45619z"/><path d="M453.50968,138.19595c-0.49915,-0.89201 -0.02529,-3.27935 1.05841,-5.33224c1.0837,-2.0529 2.36687,-2.99398 2.86601,-2.10197c0.49915,0.89201 0.02528,3.27935 -1.05842,5.33225c-1.0837,2.0529 -2.36685,2.99398 -2.86601,2.10197z" data-paper-data="{&quot;index&quot;:null}"/><path d="M459.41774,141.8202c-1.0052,-2.18392 -1.3896,-4.62508 -0.8586,-5.45248c0.531,-0.8274 1.77636,0.27227 2.78156,2.45619c1.0052,2.18392 1.38962,4.62507 0.8586,5.45248c-0.531,0.8274 -1.77636,-0.27226 -2.78157,-2.45618z"/><path d="M453.46025,147.55958c-0.49915,-0.89201 -0.02528,-3.27934 1.05842,-5.33224c1.0837,-2.0529 2.36686,-2.99398 2.86601,-2.10197c0.49915,0.89201 0.02528,3.27935 -1.05842,5.33225c-1.0837,2.0529 -2.36685,2.99398 -2.86601,2.10197z" data-paper-data="{&quot;index&quot;:null}"/></g></g><g><g><path d="M459.46714,76.08155c-1.0052,-2.18392 -1.38962,-4.62507 -0.85861,-5.45248c0.531,-0.8274 1.77636,0.27227 2.78156,2.45619c1.0052,2.18392 1.38962,4.62507 0.85861,5.45248c-0.531,0.8274 -1.77636,-0.27227 -2.78156,-2.45619z"/><path d="M453.50968,81.82094c-0.49915,-0.89202 -0.02529,-3.27935 1.05841,-5.33224c1.0837,-2.0529 2.36687,-2.99398 2.86601,-2.10196c0.49915,0.89202 0.02528,3.27935 -1.05842,5.33225c-1.0837,2.0529 -2.36685,2.99398 -2.86601,2.10196z" data-paper-data="{&quot;index&quot;:null}"/><path d="M459.41774,85.4452c-1.0052,-2.18392 -1.3896,-4.62508 -0.8586,-5.45248c0.531,-0.8274 1.77636,0.27226 2.78156,2.45618c1.0052,2.18392 1.38962,4.62508 0.8586,5.45248c-0.531,0.8274 -1.77636,-0.27226 -2.78157,-2.45618z"/><path d="M453.46025,91.18458c-0.49915,-0.89202 -0.02528,-3.27934 1.05842,-5.33224c1.0837,-2.0529 2.36686,-2.99398 2.86601,-2.10197c0.49915,0.89202 0.02528,3.27935 -1.05842,5.33225c-1.0837,2.0529 -2.36685,2.99398 -2.86601,2.10196z" data-paper-data="{&quot;index&quot;:null}"/></g><g><path d="M459.46714,94.83156c-1.0052,-2.18392 -1.38962,-4.62507 -0.85861,-5.45248c0.531,-0.8274 1.77636,0.27227 2.78156,2.45619c1.0052,2.18392 1.38962,4.62507 0.85861,5.45248c-0.531,0.8274 -1.77636,-0.27227 -2.78156,-2.45619z"/><path d="M453.50968,100.57095c-0.49915,-0.89202 -0.02529,-3.27935 1.05841,-5.33224c1.0837,-2.0529 2.36687,-2.99398 2.86601,-2.10196c0.49915,0.89202 0.02528,3.27935 -1.05842,5.33225c-1.0837,2.0529 -2.36685,2.99398 -2.86601,2.10196z" data-paper-data="{&quot;index&quot;:null}"/><path d="M459.41774,104.1952c-1.0052,-2.18392 -1.3896,-4.62508 -0.8586,-5.45248c0.531,-0.8274 1.77636,0.27226 2.78156,2.45618c1.0052,2.18392 1.38962,4.62508 0.8586,5.45248c-0.531,0.8274 -1.77636,-0.27226 -2.78157,-2.45618z"/><path d="M453.46025,109.93458c-0.49915,-0.89202 -0.02528,-3.27934 1.05842,-5.33224c1.0837,-2.0529 2.36686,-2.99398 2.86601,-2.10197c0.49915,0.89202 0.02528,3.27935 -1.05842,5.33225c-1.0837,2.0529 -2.36685,2.99398 -2.86601,2.10196z" data-paper-data="{&quot;index&quot;:null}"/></g></g></g></g><g><g><path d="M427.92927,4.64406c-1.0052,-2.18392 -1.38962,-4.62507 -0.8586,-5.45248c0.531,-0.8274 1.77636,0.27226 2.78156,2.45619c1.0052,2.18392 1.38962,4.62508 0.8586,5.45248c-0.531,0.82741 -1.77636,-0.27226 -2.78156,-2.45618z"/><path d="M421.97184,10.38345c-0.49915,-0.89201 -0.02529,-3.27934 1.05841,-5.33224c1.0837,-2.0529 2.36686,-2.99398 2.86601,-2.10197c0.49915,0.89202 0.02528,3.27935 -1.05842,5.33225c-1.0837,2.0529 -2.36686,2.99398 -2.86601,2.10197z" data-paper-data="{&quot;index&quot;:null}"/><path d="M427.8799,14.0077c-1.0052,-2.18392 -1.38961,-4.62508 -0.85861,-5.45248c0.531,-0.82741 1.77636,0.27226 2.78156,2.45619c1.0052,2.18392 1.38962,4.62507 0.85861,5.45248c-0.531,0.82741 -1.77636,-0.27226 -2.78157,-2.45618z"/><path d="M421.92243,19.74707c-0.49915,-0.89202 -0.02529,-3.27934 1.05841,-5.33224c1.0837,-2.0529 2.36686,-2.99398 2.86601,-2.10197c0.49915,0.89201 0.02528,3.27934 -1.05842,5.33225c-1.0837,2.0529 -2.36685,2.99398 -2.86601,2.10197z" data-paper-data="{&quot;index&quot;:null}"/></g><g><path d="M427.92927,23.39406c-1.0052,-2.18392 -1.38962,-4.62507 -0.8586,-5.45248c0.531,-0.82741 1.77636,0.27226 2.78156,2.45618c1.0052,2.18392 1.38962,4.62508 0.8586,5.45248c-0.531,0.8274 -1.77636,-0.27227 -2.78156,-2.45619z"/><path d="M421.97184,29.13345c-0.49915,-0.89202 -0.02529,-3.27934 1.05841,-5.33224c1.0837,-2.0529 2.36686,-2.99398 2.86601,-2.10196c0.49915,0.89202 0.02528,3.27934 -1.05842,5.33224c-1.0837,2.0529 -2.36686,2.99398 -2.86601,2.10197z" data-paper-data="{&quot;index&quot;:null}"/><path d="M427.8799,32.7577c-1.0052,-2.18392 -1.38961,-4.62508 -0.85861,-5.45248c0.531,-0.8274 1.77636,0.27226 2.78156,2.45618c1.0052,2.18392 1.38962,4.62508 0.85861,5.45248c-0.531,0.8274 -1.77636,-0.27226 -2.78157,-2.45618z"/><path d="M421.92243,38.49708c-0.49915,-0.89202 -0.02529,-3.27934 1.05841,-5.33224c1.0837,-2.0529 2.36686,-2.99399 2.86601,-2.10197c0.49915,0.89202 0.02528,3.27934 -1.05842,5.33225c-1.0837,2.0529 -2.36685,2.99398 -2.86601,2.10196z" data-paper-data="{&quot;index&quot;:null}"/></g></g><g data-paper-data="{&quot;index&quot;:null}"><g><path d="M401.2321,-1.98095c-1.0052,-2.18392 -1.38961,-4.62508 -0.8586,-5.45248c0.531,-0.8274 1.77636,0.27227 2.78156,2.45619c1.0052,2.18392 1.3896,4.62508 0.8586,5.45248c-0.531,0.8274 -1.77636,-0.27227 -2.78156,-2.45619z"/><path d="M398.14065,1.65647c-1.0837,2.05291 -2.36686,2.99399 -2.86601,2.10197c-0.49915,-0.89201 -0.02529,-3.27934 1.05841,-5.33224c1.0837,-2.0529 2.36686,-2.99398 2.86601,-2.10197c0.49915,0.89202 0.02528,3.27935 -1.05842,5.33225z" data-paper-data="{&quot;index&quot;:null}"/><path d="M403.96426,9.83889c-0.53102,0.82741 -1.77637,-0.27226 -2.78157,-2.45618c-1.00521,-2.18392 -1.3896,-4.62509 -0.8586,-5.45249c0.531,-0.8274 1.77636,0.27227 2.78156,2.45619c1.0052,2.18392 1.38961,4.62508 0.8586,5.45248z"/><path d="M398.09123,11.02012c-1.0837,2.0529 -2.36686,2.99398 -2.86601,2.10196c-0.49915,-0.89202 -0.02528,-3.27934 1.05842,-5.33224c1.08369,-2.0529 2.36685,-2.99398 2.86601,-2.10197c0.49915,0.89202 0.02528,3.27935 -1.05842,5.33225z" data-paper-data="{&quot;index&quot;:null}"/></g><g><path d="M401.2321,16.76906c-1.0052,-2.18392 -1.38961,-4.62508 -0.8586,-5.45248c0.531,-0.8274 1.77636,0.27227 2.78156,2.45619c1.0052,2.18392 1.3896,4.62508 0.8586,5.45248c-0.531,0.8274 -1.77636,-0.27227 -2.78156,-2.45619z"/><path d="M398.14065,20.40648c-1.0837,2.05291 -2.36686,2.99399 -2.86601,2.10197c-0.49915,-0.89201 -0.02529,-3.27934 1.05841,-5.33224c1.0837,-2.0529 2.36686,-2.99398 2.86601,-2.10197c0.49915,0.89202 0.02528,3.27935 -1.05842,5.33225z" data-paper-data="{&quot;index&quot;:null}"/><path d="M403.96426,28.58889c-0.53102,0.82741 -1.77637,-0.27226 -2.78157,-2.45618c-1.00521,-2.18392 -1.3896,-4.62509 -0.8586,-5.45249c0.531,-0.8274 1.77636,0.27227 2.78156,2.45619c1.0052,2.18392 1.38961,4.62508 0.8586,5.45248z"/><path d="M398.09123,29.77013c-1.0837,2.0529 -2.36686,2.99398 -2.86601,2.10196c-0.49915,-0.89202 -0.02528,-3.27934 1.05842,-5.33224c1.08369,-2.0529 2.36685,-2.99398 2.86601,-2.10197c0.49915,0.89202 0.02528,3.27935 -1.05842,5.33225z" data-paper-data="{&quot;index&quot;:null}"/></g></g><g><g><path d="M427.92927,79.70655c-1.0052,-2.18392 -1.38962,-4.62507 -0.8586,-5.45248c0.531,-0.8274 1.77636,0.27227 2.78156,2.45619c1.0052,2.18392 1.38962,4.62507 0.8586,5.45248c-0.531,0.8274 -1.77636,-0.27227 -2.78156,-2.45619z"/><path d="M421.97184,85.44594c-0.49915,-0.89202 -0.02529,-3.27935 1.05841,-5.33224c1.0837,-2.0529 2.36687,-2.99398 2.86601,-2.10196c0.49915,0.89202 0.02528,3.27935 -1.05842,5.33225c-1.0837,2.0529 -2.36686,2.99398 -2.86601,2.10196z" data-paper-data="{&quot;index&quot;:null}"/><path d="M427.8799,89.0702c-1.0052,-2.18392 -1.38961,-4.62508 -0.85861,-5.45248c0.531,-0.8274 1.77636,0.27226 2.78156,2.45618c1.0052,2.18392 1.38962,4.62508 0.85861,5.45248c-0.531,0.8274 -1.77636,-0.27226 -2.78157,-2.45618z"/><path d="M421.92243,94.80958c-0.49915,-0.89202 -0.02529,-3.27934 1.05841,-5.33224c1.0837,-2.0529 2.36686,-2.99398 2.86601,-2.10197c0.49915,0.89202 0.02528,3.27935 -1.05842,5.33225c-1.0837,2.0529 -2.36685,2.99398 -2.86601,2.10196z" data-paper-data="{&quot;index&quot;:null}"/></g><g><path d="M427.92927,98.45656c-1.0052,-2.18392 -1.38962,-4.62507 -0.8586,-5.45248c0.531,-0.8274 1.77636,0.27227 2.78156,2.45619c1.0052,2.18392 1.38962,4.62507 0.8586,5.45248c-0.531,0.8274 -1.77636,-0.27227 -2.78156,-2.45619z"/><path d="M421.97184,104.19595c-0.49915,-0.89202 -0.02529,-3.27935 1.05841,-5.33224c1.0837,-2.0529 2.36687,-2.99398 2.86601,-2.10196c0.49915,0.89202 0.02528,3.27935 -1.05842,5.33225c-1.0837,2.0529 -2.36686,2.99398 -2.86601,2.10196z" data-paper-data="{&quot;index&quot;:null}"/><path d="M427.8799,107.8202c-1.0052,-2.18392 -1.38961,-4.62508 -0.85861,-5.45248c0.531,-0.8274 1.77636,0.27226 2.78156,2.45618c1.0052,2.18392 1.38962,4.62508 0.85861,5.45248c-0.531,0.8274 -1.77636,-0.27226 -2.78157,-2.45618z"/><path d="M421.92243,113.55958c-0.49915,-0.89202 -0.02529,-3.27934 1.05841,-5.33224c1.0837,-2.0529 2.36686,-2.99398 2.86601,-2.10197c0.49915,0.89202 0.02528,3.27935 -1.05842,5.33225c-1.0837,2.0529 -2.36685,2.99398 -2.86601,2.10196z" data-paper-data="{&quot;index&quot;:null}"/></g></g><g><g><path d="M427.92927,42.08156c-1.0052,-2.18392 -1.38962,-4.62508 -0.8586,-5.45248c0.531,-0.8274 1.77636,0.27227 2.78156,2.45619c1.0052,2.18392 1.38962,4.62508 0.8586,5.45248c-0.531,0.8274 -1.77636,-0.27226 -2.78156,-2.45618z"/><path d="M421.97184,47.82095c-0.49915,-0.89202 -0.02529,-3.27934 1.05841,-5.33224c1.0837,-2.0529 2.36687,-2.99398 2.86601,-2.10196c0.49915,0.89202 0.02528,3.27934 -1.05842,5.33225c-1.0837,2.0529 -2.36686,2.99398 -2.86601,2.10197z" data-paper-data="{&quot;index&quot;:null}"/><path d="M427.8799,51.4452c-1.0052,-2.18392 -1.38961,-4.62508 -0.85861,-5.45249c0.531,-0.8274 1.77636,0.27227 2.78156,2.45619c1.0052,2.18392 1.38962,4.62508 0.85861,5.45248c-0.531,0.8274 -1.77636,-0.27226 -2.78157,-2.45618z"/><path d="M421.92243,57.18458c-0.49915,-0.89202 -0.02529,-3.27934 1.05841,-5.33224c1.0837,-2.0529 2.36686,-2.99399 2.86601,-2.10197c0.49915,0.89202 0.02528,3.27934 -1.05842,5.33225c-1.0837,2.0529 -2.36685,2.99398 -2.86601,2.10197z" data-paper-data="{&quot;index&quot;:null}"/></g><g><path d="M427.92927,60.83156c-1.0052,-2.18392 -1.38962,-4.62508 -0.8586,-5.45248c0.531,-0.8274 1.77636,0.27226 2.78156,2.45618c1.0052,2.18392 1.38962,4.62508 0.8586,5.45248c-0.531,0.8274 -1.77636,-0.27226 -2.78156,-2.45618z"/><path d="M421.97184,66.57094c-0.49915,-0.89202 -0.02529,-3.27934 1.05841,-5.33224c1.0837,-2.0529 2.36687,-2.99398 2.86601,-2.10196c0.49915,0.89202 0.02528,3.27934 -1.05842,5.33225c-1.0837,2.0529 -2.36686,2.99398 -2.86601,2.10197z" data-paper-data="{&quot;index&quot;:null}"/><path d="M427.8799,70.1952c-1.0052,-2.18392 -1.38961,-4.62508 -0.85861,-5.45249c0.531,-0.8274 1.77636,0.27227 2.78156,2.45619c1.0052,2.18392 1.38962,4.62508 0.85861,5.45248c-0.531,0.8274 -1.77636,-0.27226 -2.78157,-2.45618z"/><path d="M421.92243,75.93457c-0.49915,-0.89202 -0.02529,-3.27934 1.05841,-5.33224c1.0837,-2.0529 2.36686,-2.99399 2.86601,-2.10197c0.49915,0.89202 0.02528,3.27935 -1.05842,5.33225c-1.0837,2.0529 -2.36685,2.99398 -2.86601,2.10196z" data-paper-data="{&quot;index&quot;:null}"/></g></g><g><g><g><path d="M41.33301,-3.89975c-0.53101,-0.8274 -0.1466,-3.26856 0.8586,-5.45248c1.00521,-2.18392 2.25056,-3.28359 2.78156,-2.45618c0.53102,0.82741 0.1466,3.26856 -0.85861,5.45248c-1.00521,2.18392 -2.25055,3.28359 -2.78156,2.45619z"/><path d="M47.20605,-2.71852c-1.0837,-2.0529 -1.55757,-4.44023 -1.05841,-5.33224c0.49916,-0.89202 1.78231,0.04907 2.86601,2.10197c1.0837,2.0529 1.55757,4.44023 1.05841,5.33225c-0.49916,0.89201 -1.78231,-0.04906 -2.86601,-2.10196z" data-paper-data="{&quot;index&quot;:null}"/><path d="M41.38243,5.46388c-0.53102,-0.82741 -0.14661,-3.26856 0.8586,-5.45248c1.00521,-2.18392 2.25055,-3.28359 2.78157,-2.45619c0.53102,0.8274 0.14661,3.26857 -0.8586,5.45249c-1.00521,2.18392 -2.25055,3.28359 -2.78157,2.45618z"/><path d="M47.25544,6.64511c-1.0837,-2.0529 -1.55757,-4.44023 -1.05841,-5.33224c0.49916,-0.89201 1.78232,0.04907 2.86602,2.10197c1.0837,2.0529 1.55757,4.44023 1.05841,5.33224c-0.49916,0.89201 -1.78231,-0.04907 -2.86601,-2.10197z" data-paper-data="{&quot;index&quot;:null}"/></g><g><path d="M41.33301,14.85025c-0.53101,-0.82741 -0.1466,-3.26856 0.8586,-5.45248c1.00521,-2.18392 2.25056,-3.28359 2.78156,-2.45618c0.53102,0.8274 0.1466,3.26856 -0.85861,5.45248c-1.00521,2.18392 -2.25055,3.28359 -2.78156,2.45618z"/><path d="M47.20605,16.03148c-1.0837,-2.0529 -1.55757,-4.44023 -1.05841,-5.33224c0.49916,-0.89201 1.78231,0.04907 2.86601,2.10197c1.0837,2.0529 1.55757,4.44023 1.05841,5.33225c-0.49916,0.89201 -1.78231,-0.04907 -2.86601,-2.10196z" data-paper-data="{&quot;index&quot;:null}"/><path d="M41.38243,24.21388c-0.53102,-0.8274 -0.14661,-3.26856 0.8586,-5.45248c1.00521,-2.18392 2.25055,-3.28359 2.78157,-2.45618c0.53102,0.82741 0.14661,3.26856 -0.8586,5.45248c-1.00521,2.18392 -2.25055,3.28358 -2.78157,2.45618z"/><path d="M47.25544,25.39512c-1.0837,-2.0529 -1.55757,-4.44023 -1.05841,-5.33224c0.49916,-0.89202 1.78232,0.04907 2.86602,2.10197c1.0837,2.0529 1.55757,4.44022 1.05841,5.33224c-0.49916,0.89202 -1.78231,-0.04906 -2.86601,-2.10196z" data-paper-data="{&quot;index&quot;:null}"/></g></g><g><g><path d="M41.33301,71.16275c-0.53101,-0.8274 -0.1466,-3.26856 0.8586,-5.45248c1.00521,-2.18392 2.25056,-3.28359 2.78156,-2.45618c0.53102,0.8274 0.1466,3.26856 -0.85861,5.45248c-1.00521,2.18392 -2.25055,3.28359 -2.78156,2.45619z"/><path d="M47.20605,72.34398c-1.0837,-2.0529 -1.55757,-4.44023 -1.05841,-5.33224c0.49916,-0.89202 1.78232,0.04906 2.86602,2.10196c1.0837,2.0529 1.55757,4.44023 1.05841,5.33225c-0.49916,0.89202 -1.78231,-0.04906 -2.86601,-2.10196z" data-paper-data="{&quot;index&quot;:null}"/><path d="M41.38243,80.52638c-0.53102,-0.8274 -0.14661,-3.26856 0.8586,-5.45248c1.00521,-2.18392 2.25055,-3.28359 2.78157,-2.45618c0.53102,0.8274 0.14661,3.26856 -0.8586,5.45248c-1.00521,2.18392 -2.25055,3.28359 -2.78157,2.45618z"/><path d="M47.25544,81.70762c-1.0837,-2.0529 -1.55757,-4.44023 -1.05841,-5.33224c0.49916,-0.89202 1.78232,0.04907 2.86602,2.10197c1.0837,2.0529 1.55757,4.44022 1.05841,5.33224c-0.49916,0.89202 -1.78231,-0.04906 -2.86601,-2.10196z" data-paper-data="{&quot;index&quot;:null}"/></g><g><path d="M41.33301,89.91275c-0.53101,-0.8274 -0.1466,-3.26856 0.8586,-5.45248c1.00521,-2.18392 2.25056,-3.28359 2.78156,-2.45619c0.53102,0.8274 0.1466,3.26856 -0.85861,5.45248c-1.00521,2.18392 -2.25055,3.28359 -2.78156,2.45619z"/><path d="M47.20605,91.09398c-1.0837,-2.0529 -1.55757,-4.44023 -1.05841,-5.33224c0.49916,-0.89202 1.78232,0.04906 2.86602,2.10196c1.0837,2.0529 1.55757,4.44023 1.05841,5.33225c-0.49916,0.89202 -1.78231,-0.04906 -2.86601,-2.10196z" data-paper-data="{&quot;index&quot;:null}"/><path d="M41.38243,99.27638c-0.53102,-0.8274 -0.14661,-3.26856 0.8586,-5.45248c1.00521,-2.18392 2.25055,-3.28359 2.78157,-2.45618c0.53102,0.8274 0.14661,3.26856 -0.8586,5.45248c-1.00521,2.18392 -2.25055,3.28359 -2.78157,2.45618z"/><path d="M47.25544,100.45762c-1.0837,-2.0529 -1.55757,-4.44023 -1.05841,-5.33224c0.49916,-0.89202 1.78232,0.04907 2.86602,2.10197c1.0837,2.0529 1.55757,4.44022 1.05841,5.33224c-0.49916,0.89202 -1.78231,-0.04906 -2.86601,-2.10196z" data-paper-data="{&quot;index&quot;:null}"/></g></g><g><g><path d="M41.33301,33.53775c-0.53101,-0.8274 -0.1466,-3.26856 0.8586,-5.45248c1.00521,-2.18392 2.25056,-3.28359 2.78156,-2.45619c0.53102,0.8274 0.1466,3.26856 -0.85861,5.45248c-1.00521,2.18392 -2.25055,3.28359 -2.78156,2.45619z"/><path d="M47.20605,34.71898c-1.0837,-2.0529 -1.55757,-4.44023 -1.05841,-5.33224c0.49916,-0.89202 1.78232,0.04906 2.86602,2.10197c1.0837,2.0529 1.55757,4.44023 1.05841,5.33225c-0.49916,0.89202 -1.78231,-0.04906 -2.86601,-2.10196z" data-paper-data="{&quot;index&quot;:null}"/><path d="M41.38243,42.90138c-0.53102,-0.8274 -0.14661,-3.26856 0.8586,-5.45248c1.00521,-2.18392 2.25055,-3.28359 2.78157,-2.45619c0.53102,0.8274 0.14661,3.26857 -0.8586,5.45249c-1.00521,2.18392 -2.25055,3.28359 -2.78157,2.45618z"/><path d="M47.25544,44.08261c-1.0837,-2.0529 -1.55757,-4.44023 -1.05841,-5.33224c0.49916,-0.89202 1.78232,0.04907 2.86602,2.10197c1.0837,2.0529 1.55757,4.44022 1.05841,5.33224c-0.49916,0.89202 -1.78231,-0.04906 -2.86601,-2.10196z" data-paper-data="{&quot;index&quot;:null}"/></g><g><path d="M41.33301,52.28775c-0.53101,-0.8274 -0.1466,-3.26856 0.8586,-5.45248c1.00521,-2.18392 2.25056,-3.28359 2.78156,-2.45618c0.53102,0.8274 0.1466,3.26856 -0.85861,5.45248c-1.00521,2.18392 -2.25055,3.28359 -2.78156,2.45618z"/><path d="M47.20605,53.46898c-1.0837,-2.0529 -1.55757,-4.44023 -1.05841,-5.33224c0.49916,-0.89202 1.78232,0.04906 2.86602,2.10197c1.0837,2.0529 1.55757,4.44023 1.05841,5.33225c-0.49916,0.89202 -1.78231,-0.04906 -2.86601,-2.10196z" data-paper-data="{&quot;index&quot;:null}"/><path d="M41.38243,61.65138c-0.53102,-0.8274 -0.14661,-3.26856 0.8586,-5.45248c1.00521,-2.18392 2.25055,-3.28359 2.78157,-2.45619c0.53102,0.8274 0.14661,3.26857 -0.8586,5.45249c-1.00521,2.18392 -2.25055,3.28359 -2.78157,2.45618z"/><path d="M47.25544,62.83262c-1.0837,-2.0529 -1.55757,-4.44023 -1.05841,-5.33224c0.49916,-0.89202 1.78232,0.04907 2.86602,2.10197c1.0837,2.0529 1.55757,4.44022 1.05841,5.33224c-0.49916,0.89202 -1.78231,-0.04906 -2.86601,-2.10196z" data-paper-data="{&quot;index&quot;:null}"/></g></g></g></g><g fill="#105231" stroke="#125e18" stroke-width="2"><path d="M476.80104,97.854c-4.04755,2.18778 -5.2824,-2.89322 -5.2824,-2.89322l0.91943,0.14811c0,0 -0.21149,-1.0995 -0.15736,-1.65885c0.06287,-0.64967 0.5123,-2.00897 0.5123,-2.00897c0,0 1.66268,0.44834 2.29,0.71959c0.55431,0.23968 1.28206,0.82494 1.28206,0.82494l0.39522,-0.69597c0,0 2.9959,3.96707 0.04075,5.56439z" stroke-linecap="butt"/><path d="M477.2697,99.08522l-4.37052,-7.21488" stroke-linecap="round"/></g><g fill="#105231" stroke="#125e18" stroke-width="2"><path d="M352.48892,113.87301c7.83834,1.00068 4.47313,9.32668 4.47313,9.32668l-1.13455,-1.12738c0,0 -0.80594,1.7459 -1.44163,2.47216c-0.73831,0.84352 -2.72659,2.29003 -2.72659,2.29003c0,0 -1.87092,-2.29057 -2.47458,-3.29722c-0.5334,-0.88952 -0.96273,-2.43489 -0.96273,-2.43489l-1.24839,0.57529c0,0 -0.20746,-8.53527 5.51534,-7.80466z" stroke-linecap="butt"/><path d="M353.06796,111.68581l-1.12693,14.44343" stroke-linecap="round"/></g><g fill="#105231" stroke="#125e18" stroke-width="2"><path d="M327.96761,36.37847c0.20183,4.59656 -4.90863,3.48996 -4.90863,3.48996l0.53454,-0.7626c0,0 -1.08155,-0.28959 -1.56119,-0.58244c-0.55709,-0.34012 -1.58393,-1.33775 -1.58393,-1.33775c0,0 1.12907,-1.30028 1.64692,-1.74631c0.45757,-0.39412 1.30178,-0.79345 1.30178,-0.79345l-0.45369,-0.65935c0,0 4.87686,-0.96404 5.02421,2.39194z" stroke-linecap="butt"/><path d="M329.27991,36.49418l-8.39896,0.7833" stroke-linecap="round"/></g><g fill="#105231" stroke="#125e18" stroke-width="2"><path d="M402.42229,325.24381c4.32141,-6.61561 10.34377,0.04608 10.34377,0.04608l-1.50952,0.52874c0,0 1.21908,1.48713 1.59506,2.37605c0.4367,1.03243 0.87037,3.45268 0.87037,3.45268c0,0 -2.87745,0.68359 -4.04664,0.78736c-1.03313,0.09168 -2.61093,-0.19652 -2.61093,-0.19652l-0.02726,1.3743c0,0 -7.76996,-3.5386 -4.61487,-8.36868z" stroke-linecap="butt"/><path d="M400.70714,323.76822l12.50328,7.31783" stroke-linecap="round"/></g><g fill="#105231" stroke="#125e18" stroke-width="2"><path d="M361.3876,319.96523c4.40389,1.33224 1.66685,5.78758 1.66685,5.78758l-0.54246,-0.75698c0,0 -0.63152,0.92456 -1.06672,1.28011c-0.50546,0.41296 -1.78692,1.05134 -1.78692,1.05134c0,0 -0.85283,-1.49605 -1.10214,-2.13242c-0.22029,-0.5623 -0.31742,-1.49112 -0.31742,-1.49112l-0.77241,0.20966c0,0 0.70592,-4.92085 3.92122,-3.94818z" stroke-linecap="butt"/><path d="M361.93149,318.76536l-2.04319,8.18421" stroke-linecap="round"/></g><g fill="#105231" stroke="#125e18" stroke-width="2"><path d="M59.61597,327.434c-4.81055,-6.26893 3.47,-9.74448 3.47,-9.74448l-0.00116,1.59943c0,0 1.807,-0.65761 2.77028,-0.7179c1.1188,-0.07003 3.54606,0.32252 3.54606,0.32252c0,0 -0.30821,2.94144 -0.59761,4.07898c-0.25574,1.00517 -1.05033,2.39841 -1.05033,2.39841l1.28767,0.48097c0,0 -5.91271,6.15904 -9.42491,1.58206z" stroke-linecap="butt"/><path d="M57.65552,328.5635l11.04654,-9.37319" stroke-linecap="round"/></g><g><path d="M27.4804,198.83912c0,0 -0.62643,4.90368 -0.6412,7.71292c-0.00776,1.47758 -2.75783,1.23014 -2.85001,2.7014c-0.13523,2.15844 -0.3911,4.01945 -0.85504,4.73032c-1.55093,2.37642 -6.22382,2.85303 -6.22382,2.85303c0,0 0.32681,-5.40482 -0.11822,-9.05409c-0.2123,-1.74093 -2.45108,-0.87589 -2.98505,-3.57985c-0.72523,-3.67244 0.24651,-10.79158 0.24651,-10.79158" fill="none" stroke="#426a4c" stroke-width="2" stroke-linecap="round"/><path d="M23.62375,193.83977c0,0 0.92614,4.05375 0.0534,7.44552c-0.31603,1.22822 -3.22601,1.50088 -3.17372,2.68875c0.13254,3.01107 -0.2543,6.85414 -0.48617,8.41401c-0.4248,2.85777 -3.67828,4.59156 -3.67828,4.59156c0,0 -3.47406,-2.59537 -4.64802,-4.8304c-0.38981,-0.74213 -2.79696,-1.17092 -2.97638,-2.40498c-0.41473,-2.85243 0.05395,-10.04808 0.05395,-10.04808" fill="none" stroke="#426a4c" stroke-width="2" stroke-linecap="round"/><path d="M20.62414,203.40995c0,0 -2.13886,-0.44579 -2.36122,-1.92387c-0.43432,-2.88695 -0.06703,-14.21689 -0.06703,-14.21689" fill="none" stroke="#426a4c" stroke-width="2" stroke-linecap="round"/><path d="M8.55915,201.43984l-3.79589,-3.97665l3.97665,-3.79589l3.79589,3.97665z" fill="#009060" stroke="none" stroke-width="0" stroke-linecap="butt"/><path d="M13.5585,195.44063l-3.7959,-3.97665l3.97665,-3.7959l3.7959,3.97665z" fill="#009060" stroke="none" stroke-width="0" stroke-linecap="butt"/><path d="M18.41502,188.2987l-3.7959,-3.97665l3.97665,-3.7959l3.7959,3.97665z" fill="#009060" stroke="none" stroke-width="0" stroke-linecap="butt"/><path d="M24.2714,194.72643l-3.7959,-3.97665l3.97665,-3.7959l3.7959,3.97665z" fill="#009060" stroke="none" stroke-width="0" stroke-linecap="butt"/></g><g><path d="M55.36759,277.81037c0,0 -0.2268,3.9768 -0.83351,6.54236c-0.39548,1.67236 -3.17711,1.84148 -3.73733,3.02782c-0.81143,1.71831 1.01764,4.34449 -0.69315,5.17782c-0.11327,0.05517 -1.39906,3.79944 -1.71186,5.24246c-0.51949,2.39651 0.13279,4.24284 0.17245,2.9662c0.03965,-1.27664 0.16612,-2.19349 -0.16349,-3.25495c-0.42521,-1.36932 -2.46047,-4.27515 -2.46047,-4.27515c0,0 -0.56826,-5.98483 0,-7.71328c0.21783,-0.66259 0.80395,-1.16929 1.49626,-1.69696c1.11367,-0.84881 2.50217,-1.75185 3.07458,-3.44523c0.92825,-2.74607 0,-12.42696 0,-12.42696" fill="none" stroke="#426a4c" stroke-width="2" stroke-linecap="round"/><path d="M45.51172,293.23693c0,0 -3.42982,0.15738 -5.05939,-1.86773c-2.70546,-3.36213 -1.51118,-14.41587 -1.51118,-14.41587" fill="none" stroke="#426a4c" stroke-width="2" stroke-linecap="round"/><path d="M50.65392,273.23953c0,0 -4.57337,-0.84876 -5.47169,-1.8162c-0.95509,-1.02856 -0.67036,-8.32533 -0.67036,-8.32533" fill="none" stroke="#426a4c" stroke-width="2" stroke-linecap="round"/><path d="M43.79766,276.81049c0,0 -0.24127,3.43687 -0.50378,4.15281c-0.26123,0.71244 -3.92422,1.70357 -3.92422,1.70357" fill="none" stroke="#426a4c" stroke-width="2" stroke-linecap="round"/><path d="M58.08153,284.38094c0,0 0.01021,4.35823 -1.03896,5.53587c-1.24888,1.40181 -5.96013,2.32025 -5.96013,2.32025" fill="none" stroke="#426a4c" stroke-width="2" stroke-linecap="round"/><path d="M38.73176,279.83974l-3.7959,-3.97665l3.97665,-3.7959l3.7959,3.97665z" fill="#009060" stroke="none" stroke-width="0" stroke-linecap="butt"/><path d="M59.44337,286.69599l-3.7959,-3.97665l3.97665,-3.7959l3.7959,3.97665z" fill="#009060" stroke="none" stroke-width="0" stroke-linecap="butt"/><path d="M45.44517,264.84168l-3.7959,-3.97665l3.97665,-3.7959l3.7959,3.97665z" fill="#009060" stroke="none" stroke-width="0" stroke-linecap="butt"/><path d="M56.15808,279.55406l-3.7959,-3.97665l3.97665,-3.7959l3.7959,3.97665z" fill="#009060" stroke="none" stroke-width="0" stroke-linecap="butt"/></g><g><path d="M441.0884,137.02332c0,0 0.93115,4.36706 -0.68844,5.51542c-1.32746,0.94123 -4.21246,0.59477 -4.59836,1.4157c-2.13368,4.53901 -1.16796,10.76006 -2.33359,11.85049c-1.0306,0.96411 -3.37819,1.07295 -3.37819,1.07295l-0.14284,6.99909c0,0 -0.03155,0.84175 -1.08832,0.11702c-0.39567,-0.27135 -1.17898,0.6581 -1.82898,-0.06241c-0.50936,-0.56461 -0.93686,-2.80392 -1.03185,-3.01199c-0.43878,-0.96115 0.09251,-3.61319 0.09251,-3.61319c0,0 -4.66542,0.23886 -5.85987,-1.25419c-1.42944,-1.7868 -0.85355,-10.88709 -0.85355,-10.88709" fill="none" stroke="#426a4c" stroke-width="2" stroke-linecap="round"/><path d="M434.37498,150.02163c0,0 -3.68825,-0.4769 -3.98141,-2.19078c-0.14299,-0.83594 -0.97977,-5.07283 0.30371,-8.7027c0.53397,-1.51014 3.32477,-1.85218 3.67507,-3.49374c0.70924,-3.32363 -0.14021,-8.18128 -0.14021,-8.18128" fill="none" stroke="#426a4c" stroke-width="2" stroke-linecap="round"/><path d="M419.37693,131.73828c0,0 -0.43104,3.26717 0.46481,5.56361c0.41167,1.05529 3.68909,0.08238 4.28221,1.07207c1.29365,2.15862 0.01432,6.14028 0.32209,7.85538c0.43962,2.4499 1.78714,3.44472 1.78714,4.07794c0,1.84096 0,6.14206 0,6.14206" fill="none" stroke="#426a4c" stroke-width="2" stroke-linecap="round"/><path d="M439.66001,146.59349c0,0 0.42279,6.48064 -0.56867,7.74633c-1.20459,1.53777 -6.0019,1.53818 -6.0019,1.53818" fill="none" stroke="#426a4c" stroke-width="2" stroke-linecap="round"/><path d="M419.16755,147.48017l-3.7959,-3.97665l3.97665,-3.7959l3.7959,3.97665z" fill="#009060" stroke="none" stroke-width="0" stroke-linecap="butt"/><path d="M419.59607,132.7678l-3.7959,-3.97665l3.97665,-3.7959l3.7959,3.97665z" fill="#009060" stroke="none" stroke-width="0" stroke-linecap="butt"/><path d="M434.30844,129.62535l-3.7959,-3.97665l3.97665,-3.7959l3.7959,3.97665z" fill="#009060" stroke="none" stroke-width="0" stroke-linecap="butt"/><path d="M439.42679,147.62301l-3.79589,-3.97665l3.97665,-3.7959l3.7959,3.97665z" fill="#009060" stroke="none" stroke-width="0" stroke-linecap="butt"/></g><g data-paper-data="{&quot;index&quot;:null}"><path d="M428.45775,286.91127c0,0 0.97174,7.11914 0.24651,10.79158c-0.53397,2.70396 -2.77275,1.83892 -2.98505,3.57985c-0.44503,3.64927 -0.11822,9.05409 -0.11822,9.05409c0,0 -4.67289,-0.47661 -6.22382,-2.85303c-0.46394,-0.71087 -0.71981,-2.57188 -0.85504,-4.73032c-0.09218,-1.47126 -2.84225,-1.22382 -2.85001,-2.7014c-0.01477,-2.80924 -0.6412,-7.71292 -0.6412,-7.71292" fill="none" stroke="#426a4c" stroke-width="2" stroke-linecap="round"/><path d="M433.74279,293.19615c0,0 0.46868,7.19565 0.05395,10.04808c-0.17942,1.23406 -2.58657,1.66285 -2.97638,2.40498c-1.17396,2.23503 -4.64802,4.8304 -4.64802,4.8304c0,0 -3.25348,-1.73379 -3.67828,-4.59156c-0.23187,-1.55987 -0.61871,-5.40294 -0.48617,-8.41401c0.05229,-1.18787 -2.85769,-1.46053 -3.17372,-2.68875c-0.87274,-3.39177 0.0534,-7.44552 0.0534,-7.44552" fill="none" stroke="#426a4c" stroke-width="2" stroke-linecap="round"/><path d="M424.31543,280.76919c0,0 0.36729,11.32994 -0.06703,14.21689c-0.22236,1.47808 -2.36122,1.92387 -2.36122,1.92387" fill="none" stroke="#426a4c" stroke-width="2" stroke-linecap="round"/><path d="M429.97553,291.14394l3.79589,-3.97665l3.97665,3.79589l-3.79589,3.97665z" fill="#009060" stroke="none" stroke-width="0" stroke-linecap="butt"/><path d="M424.97618,285.14473l3.7959,-3.97665l3.97665,3.7959l-3.7959,3.97665z" fill="#009060" stroke="none" stroke-width="0" stroke-linecap="butt"/><path d="M420.11966,278.0028l3.7959,-3.97665l3.97665,3.7959l-3.7959,3.97665z" fill="#009060" stroke="none" stroke-width="0" stroke-linecap="butt"/><path d="M414.26328,284.43053l3.7959,-3.97665l3.97665,3.7959l-3.7959,3.97665z" fill="#009060" stroke="none" stroke-width="0" stroke-linecap="butt"/></g><g stroke-width="2.5" stroke-linecap="butt"><path d="M48.42371,193.95051v-22.97945h8.35616v22.97945z" data-paper-data="{&quot;index&quot;:null}" fill="#391810" stroke="#642a1c"/><path d="M27.53326,170.97106l11.9188,-23.3721l27.23962,-0.00991l12.23199,23.38201z" data-paper-data="{&quot;index&quot;:null}" fill="#1c4635" stroke="#1f7049"/><path d="M31.4157,147.24047l22.25762,-45.12329l21.49011,45.12329z" data-paper-data="{&quot;index&quot;:null}" fill="#1c4635" stroke="#1f7049"/></g><path d="M-5.28225,314.2443c0,-5.17767 4.19733,-9.375 9.375,-9.375c3.0368,0 5.73635,1.44389 7.4496,3.68261c1.66452,-1.5115 3.87489,-2.43261 6.30041,-2.43261c5.17767,0 9.375,4.19733 9.375,9.375c0,0.38407 -0.0231,0.76275 -0.06798,1.13473c3.67669,1.2676 6.31798,4.75798 6.31798,8.86527c0,5.17767 -4.19733,9.375 -9.375,9.375c-11.46688,0 -17.90812,-0.625 -29.375,-0.625c-5.17767,0 -9.375,-4.19733 -9.375,-9.375c0,-5.17767 4.19733,-9.375 9.375,-9.375c0.02758,0 0.05513,0.00012 0.08265,0.00035c-0.05452,-0.40904 -0.08265,-0.82641 -0.08265,-1.25035z" fill="#1c4635" stroke="#1f7049" stroke-width="2" stroke-linecap="butt"/><path d="M443.23196,231.15994c0.03052,-0.00026 0.06106,-0.0004 0.09163,-0.0004c5.74027,0 10.39367,4.6534 10.39367,10.39367c0,5.74027 -4.65341,10.39366 -10.39367,10.39366c-12.71285,0 -19.85397,0.69291 -32.56683,0.69291c-5.74027,0 -10.39367,-4.65341 -10.39367,-10.39367c0,-4.55358 2.92829,-8.42323 7.00448,-9.82856c-0.04976,-0.41238 -0.07537,-0.83221 -0.07537,-1.25802c0,-5.74027 4.6534,-10.39367 10.39367,-10.39367c2.68907,0 5.13961,1.0212 6.985,2.69693c1.8994,-2.48197 4.89229,-4.08276 8.25905,-4.08276c5.74027,0 10.39366,4.6534 10.39366,10.39367c0,0.47001 -0.0312,0.93274 -0.09163,1.38622z" data-paper-data="{&quot;index&quot;:null}" fill="#1c4635" stroke="#1f7049" stroke-width="2" stroke-linecap="butt"/><path d="M9.45961,260.71146c-2.66011,-2.46065 -5.96802,-5.93099 -4.95082,-7.33779c2.28673,-3.16256 7.38511,-9.88075 12.58897,-6.11804c2.07733,1.50205 6.80967,3.16774 7.86688,4.98612c1.43594,2.46979 0.4196,6.02904 -0.80211,8.09643z" data-paper-data="{&quot;index&quot;:null}" fill="#5a5a5a" stroke="#545454" stroke-width="2" stroke-linecap="butt"/><path d="M64.40528,205.51495c-2.11132,1.13152 -5.4844,2.38044 -6.51224,2.38044c-2.21387,0 -6.11681,-1.16769 -7.33046,-3.89916c-0.80639,-1.81486 0.53721,-6.35716 0.53721,-8.77754c0,-6.06319 7.96075,-6.24736 11.64557,-6.24736c2.80397,0 3.22609,8.95196 3.26767,13.23182" fill="#5a5a5a" stroke="#545454" stroke-width="2" stroke-linecap="butt"/><path d="M70.12883,206.03222c0,1.05623 0.58633,3.03842 0.23444,3.8304c-0.52962,1.19197 -2.23282,1.70154 -3.19892,1.70154c-0.6051,0 -3.07283,-0.99192 -3.53847,-1.51179c0,0 -0.69347,-7.42167 0.91455,-7.42167c1.60802,0 5.5884,2.34529 5.5884,3.40152z" data-paper-data="{&quot;index&quot;:null}" fill="#5a5a5a" stroke="#545454" stroke-width="2" stroke-linecap="butt"/><path d="M459.05448,318.60337c0,1.23358 0.712,3.5486 0.28469,4.47356c-0.64313,1.39211 -2.71138,1.98724 -3.88454,1.98724c-0.73479,0 -3.73143,-1.15847 -4.29687,-1.76563c0,0 -0.8421,-8.66783 1.11057,-8.66783c1.95267,0 6.78616,2.73908 6.78616,3.97266z" data-paper-data="{&quot;index&quot;:null}" fill="#5a5a5a" stroke="#545454" stroke-width="2" stroke-linecap="butt"/><g fill="#105231" stroke="#125e18" stroke-width="2"><path d="M118.86838,274.60373c-2.23677,-4.02069 2.82886,-5.31714 2.82886,-5.31714l-0.13693,0.92116c0,0 1.09685,-0.22483 1.65682,-0.17749c0.65039,0.05498 2.01504,0.48787 2.01504,0.48787c0,0 -0.42812,1.668 -0.69173,2.29857c-0.23293,0.55718 -0.80931,1.29198 -0.80931,1.29198l0.70072,0.38674c0,0 -3.9304,3.04385 -5.56348,0.10832z" stroke-linecap="butt"/><path d="M117.64295,275.0873l7.16128,-4.45781" stroke-linecap="round"/></g><g fill="#105231" stroke="#125e18" stroke-width="2"><path d="M141.98375,162.00261c-0.90542,7.84991 -9.27167,4.58605 -9.27167,4.58605l1.11352,-1.14816c0,0 -1.75556,-0.78468 -2.48948,-1.4115c-0.85242,-0.72801 -2.32297,-2.69858 -2.32297,-2.69858c0,0 2.26768,-1.8986 3.26693,-2.51444c0.88298,-0.54416 2.42302,-0.99223 2.42302,-0.99223l-0.59041,-1.24131c0,0 8.53212,-0.31109 7.87106,5.42016z" stroke-linecap="butt"/><path d="M144.17782,162.55505l-14.45605,-0.95146" stroke-linecap="round"/></g><g fill="#105231" stroke="#125e18" stroke-width="2"><path d="M219.17482,136.54209c-4.59377,0.25763 -3.54931,-4.86589 -3.54931,-4.86589l0.76903,0.52525c0,0 0.27644,-1.08499 0.56343,-1.56815c0.33334,-0.56117 1.31842,-1.60005 1.31842,-1.60005c0,0 1.31389,1.1132 1.76618,1.62559c0.39964,0.45275 0.8092,1.29205 0.8092,1.29205l0.6538,-0.46167c0,0 1.02319,4.86479 -2.33075,5.05289z" stroke-linecap="butt"/><path d="M219.07505,137.8557l-0.88523,-8.38883" stroke-linecap="round"/></g><g fill="#105231" stroke="#125e18" stroke-width="2"><path d="M127.95343,66.59932c6.66759,4.24076 0.07953,10.34357 0.07953,10.34357l-0.54703,-1.50299c0,0 -1.47222,1.23704 -2.35651,1.6238c-1.02705,0.4492 -3.44185,0.91223 -3.44185,0.91223c0,0 -0.71848,-2.86894 -0.83644,-4.03678c-0.10421,-1.03194 0.1648,-2.61312 0.1648,-2.61312l-1.37452,-0.01056c0,0 3.44398,-7.81235 8.31202,-4.71615z" stroke-linecap="butt"/><path d="M129.40808,64.86638l-7.16546,12.59122" stroke-linecap="round"/></g><g fill="#105231" stroke="#125e18" stroke-width="2"><path d="M7.32906,48.66323c-1.27866,4.41974 -5.76691,1.73701 -5.76691,1.73701l0.75034,-0.55161c0,0 -0.93216,-0.62025 -1.29297,-1.0511c-0.41907,-0.50041 -1.07297,-1.77403 -1.07297,-1.77403c0,0 1.48559,-0.87094 2.11888,-1.12795c0.55958,-0.2271 1.48716,-0.3355 1.48716,-0.3355l-0.21902,-0.76981c0,0 4.92906,0.64611 3.9955,3.87299z" stroke-linecap="butt"/><path d="M8.53545,49.19251l-8.20842,-1.94366" stroke-linecap="round"/></g><g fill="#105231" stroke="#125e18" stroke-width="2"><path d="M415.17482,56.04209c-4.59377,0.25763 -3.54931,-4.86589 -3.54931,-4.86589l0.76903,0.52525c0,0 0.27644,-1.08499 0.56344,-1.56815c0.33333,-0.56117 1.31842,-1.60005 1.31842,-1.60005c0,0 1.31389,1.1132 1.76618,1.62559c0.39965,0.45275 0.8092,1.29205 0.8092,1.29205l0.6538,-0.46167c0,0 1.02319,4.86479 -2.33075,5.05289z" stroke-linecap="butt"/><path d="M415.07505,57.3557l-0.88524,-8.38883" stroke-linecap="round"/></g><g fill="#105231" stroke="#125e18" stroke-width="2"><path d="M468.45343,267.09932c6.6676,4.24076 0.07953,10.34357 0.07953,10.34357l-0.54703,-1.50299c0,0 -1.47222,1.23704 -2.35651,1.62379c-1.02705,0.4492 -3.44185,0.91223 -3.44185,0.91223c0,0 -0.71848,-2.86894 -0.83644,-4.03678c-0.10422,-1.03194 0.1648,-2.61312 0.1648,-2.61312l-1.37453,-0.01056c0,0 3.44398,-7.81236 8.31202,-4.71615z" stroke-linecap="butt"/><path d="M469.90808,265.36638l-7.16546,12.59122" stroke-linecap="round"/></g><g fill="#105231" stroke="#125e18" stroke-width="2"><path d="M295.32906,207.16324c-1.27866,4.41974 -5.76691,1.73701 -5.76691,1.73701l0.75034,-0.55161c0,0 -0.93216,-0.62025 -1.29297,-1.0511c-0.41907,-0.50041 -1.07297,-1.77403 -1.07297,-1.77403c0,0 1.48559,-0.87094 2.11888,-1.12795c0.55958,-0.2271 1.48716,-0.3355 1.48716,-0.3355l-0.21902,-0.76981c0,0 4.92906,0.64611 3.9955,3.87299z" stroke-linecap="butt"/><path d="M296.53545,207.69252l-8.20842,-1.94366" stroke-linecap="round"/></g><g fill="#105231" stroke="#125e18" stroke-width="2"><path d="M199.11702,270.06455c6.21006,-4.88632 9.78589,3.35142 9.78589,3.35142l-1.59933,0.01826c0,0 0.67951,1.79888 0.75149,2.76136c0.08362,1.11786 -0.27944,3.54971 -0.27944,3.54971c0,0 -2.94496,-0.27247 -4.08594,-0.54803c-1.0082,-0.24352 -2.41099,-1.02113 -2.41099,-1.02113l-0.4653,1.29342c0,0 -6.23038,-5.83749 -1.69639,-9.405z" stroke-linecap="butt"/><path d="M197.96379,268.11797l9.50664,10.9319" stroke-linecap="round"/></g><g fill="#105231" stroke="#125e18" stroke-width="2"><path d="M222.36838,342.10373c-2.23677,-4.02069 2.82886,-5.31714 2.82886,-5.31714l-0.13693,0.92116c0,0 1.09685,-0.22483 1.65682,-0.17749c0.65039,0.05498 2.01504,0.48787 2.01504,0.48787c0,0 -0.42812,1.668 -0.69173,2.29857c-0.23293,0.55718 -0.80931,1.29198 -0.80931,1.29198l0.70072,0.38674c0,0 -3.9304,3.04385 -5.56348,0.10832z" stroke-linecap="butt"/><path d="M221.14295,342.5873l7.16128,-4.45781" stroke-linecap="round"/></g><g fill="#105231" stroke="#125e18" stroke-width="2"><path d="M67.48375,80.50261c-0.90542,7.84991 -9.27167,4.58605 -9.27167,4.58605l1.11352,-1.14816c0,0 -1.75556,-0.78468 -2.48948,-1.4115c-0.85242,-0.72801 -2.32297,-2.69858 -2.32297,-2.69858c0,0 2.26768,-1.8986 3.26693,-2.51444c0.88298,-0.54416 2.42302,-0.99223 2.42302,-0.99223l-0.59041,-1.24131c0,0 8.53212,-0.31109 7.87106,5.42016z" stroke-linecap="butt"/><path d="M69.67782,81.05505l-14.45605,-0.95146" stroke-linecap="round"/></g><g fill="#105231" stroke="#125e18" stroke-width="2"><path d="M54.32906,226.16324c-1.27866,4.41974 -5.76691,1.73701 -5.76691,1.73701l0.75034,-0.55161c0,0 -0.93216,-0.62025 -1.29297,-1.0511c-0.41907,-0.50041 -1.07297,-1.77403 -1.07297,-1.77403c0,0 1.48559,-0.87094 2.11888,-1.12795c0.55958,-0.2271 1.48716,-0.3355 1.48716,-0.3355l-0.21902,-0.76981c0,0 4.92906,0.64611 3.9955,3.87299z" stroke-linecap="butt"/><path d="M55.53545,226.69252l-8.20842,-1.94366" stroke-linecap="round"/></g></g></g></svg>