<svg version="1.1" xmlns="http://www.w3.org/2000/svg" xmlns:xlink="http://www.w3.org/1999/xlink" width="499.52344" height="371" viewBox="0,0,499.52344,371"><defs><linearGradient x1="489.52344" y1="21.97201" x2="21.52344" y2="21.97201" gradientUnits="userSpaceOnUse" id="color-1"><stop offset="0" stop-color="#ffffff"/><stop offset="1" stop-color="#ffffff" stop-opacity="0"/></linearGradient></defs><g transform="translate(9.75,5.75)"><g data-paper-data="{&quot;isPaintingLayer&quot;:true}" fill-rule="nonzero" stroke-linejoin="miter" stroke-miterlimit="10" stroke-dasharray="" stroke-dashoffset="0" style="mix-blend-mode: normal"><path d="M-9.75,365.25v-371h499v371z" fill="#000000" stroke="none" stroke-width="0" stroke-linecap="butt"/><text transform="translate(116.52344,74.28419) scale(0.39416,0.39416)" font-size="40" xml:space="preserve" fill="#ffffff" fill-rule="nonzero" stroke="none" stroke-width="1" stroke-linecap="butt" stroke-linejoin="miter" stroke-miterlimit="10" stroke-dasharray="" stroke-dashoffset="0" font-family="Malgun Gothic" font-weight="normal" text-anchor="start" style="mix-blend-mode: normal"><tspan x="0" dy="0">(Choose the buff you want to get)</tspan></text><g data-paper-data="{&quot;index&quot;:null}" fill="none" stroke-width="1" stroke-linecap="butt"><g stroke="none" font-family="sans-serif" font-weight="normal" font-size="12" text-anchor="start"/><path d="M16.95373,349.16556c-1.82608,0 -6.39675,0 -6.98248,0c-0.58573,0 -0.74199,0.13155 -1.17097,-0.32988c-0.42898,-0.46143 -0.32989,-0.65447 -0.32989,-1.28451c0,-1.89011 0,-4.19043 0,-6.87252c0,-0.6359 -0.06694,-0.86873 0.32989,-1.29955c0.39682,-0.43082 0.58524,-0.32988 1.17097,-0.32988c1.75718,0 4.25748,0 6.98248,0c0.6087,0 0.81317,-0.06134 1.22982,0.32988c0.41665,0.39122 0.32988,0.56308 0.32988,1.13461c0,2.76792 0,5.26668 0,7.09244c0,0.60859 0.10057,0.79917 -0.32988,1.22953c-0.43045,0.43037 -0.62112,0.32988 -1.22982,0.32988z" stroke="#ffffff"/></g><text transform="translate(10.95292,346.54998) scale(0.22717,0.22717)" font-size="40" xml:space="preserve" fill="#ffffff" fill-rule="nonzero" stroke="none" stroke-width="1" stroke-linecap="butt" stroke-linejoin="miter" stroke-miterlimit="10" stroke-dasharray="" stroke-dashoffset="0" font-family="Malgun Gothic" font-weight="normal" text-anchor="start" style="mix-blend-mode: normal"><tspan x="0" dy="0">S</tspan></text><g fill="none"><g stroke="#f4f4f4" stroke-width="2" stroke-linecap="round"><path d="M126.6905,341.36798l2.99883,2.99883l-2.68317,2.68316"/><path d="M123.21817,344.20898h5.99766"/></g><path d="M121.67595,348.80796c-0.43045,-0.43037 -0.32987,-0.62095 -0.32987,-1.22954c0,-1.82575 0,-4.32452 0,-7.09244c0,-0.57153 -0.08678,-0.74339 0.32987,-1.13461c0.41666,-0.39122 0.62113,-0.32988 1.22983,-0.32988c2.725,0 5.22529,0 6.98248,0c0.58573,0 0.77415,-0.10094 1.17097,0.32988c0.39682,0.43082 0.32988,0.66365 0.32988,1.29955c0,2.68209 0,4.98241 0,6.87252c0,0.63004 0.0991,0.82308 -0.32988,1.28451c-0.42898,0.46143 -0.58524,0.32988 -1.17097,0.32988c-0.58573,0 -5.15639,0 -6.98248,0c-0.60869,0 -0.79938,0.10049 -1.22983,-0.32988z" stroke="#ffffff" stroke-width="1" stroke-linecap="butt"/></g><g data-paper-data="{&quot;index&quot;:null}" fill="none"><g stroke="#f4f4f4" stroke-width="2" stroke-linecap="round"><path d="M112.86353,347.04998l-2.68317,-2.68316l2.99883,-2.99883"/><path d="M116.65153,344.20898h-5.99766"/></g><path d="M116.96392,349.13784c-1.82608,0 -6.39675,0 -6.98248,0c-0.58573,0 -0.74199,0.13155 -1.17097,-0.32988c-0.42898,-0.46143 -0.32989,-0.65447 -0.32989,-1.28451c0,-1.89011 0,-4.19043 0,-6.87252c0,-0.6359 -0.06694,-0.86873 0.32989,-1.29955c0.39683,-0.43082 0.58524,-0.32988 1.17097,-0.32988c1.75719,0 4.25748,0 6.98248,0c0.60869,0 0.81317,-0.06134 1.22983,0.32988c0.41666,0.39122 0.32988,0.56308 0.32988,1.13461c0,2.76792 0,5.26668 0,7.09244c0,0.60859 0.10057,0.79917 -0.32988,1.22953c-0.43045,0.43037 -0.62113,0.32988 -1.22983,0.32988z" stroke="#ffffff" stroke-width="1" stroke-linecap="butt"/></g><text transform="translate(135.8399,348.53863) scale(0.32331,0.32331)" font-size="40" xml:space="preserve" fill="#ffffff" fill-rule="nonzero" stroke="none" stroke-width="1" stroke-linecap="butt" stroke-linejoin="miter" stroke-miterlimit="10" stroke-dasharray="" stroke-dashoffset="0" font-family="Malgun Gothic" font-weight="normal" text-anchor="start" style="mix-blend-mode: normal"><tspan x="0" dy="0">Choose</tspan></text><text transform="translate(21.54253,348.53863) scale(0.32331,0.32331)" font-size="40" xml:space="preserve" fill="#ffffff" fill-rule="nonzero" stroke="none" stroke-width="1" stroke-linecap="butt" stroke-linejoin="miter" stroke-miterlimit="10" stroke-dasharray="" stroke-dashoffset="0" font-family="Malgun Gothic" font-weight="normal" text-anchor="start" style="mix-blend-mode: normal"><tspan x="0" dy="0">Confirm</tspan></text><text transform="translate(228.29472,348.3677) scale(0.30187,0.30187)" font-size="40" xml:space="preserve" fill="#ffffff" fill-rule="nonzero" stroke="none" stroke-width="1" stroke-linecap="butt" stroke-linejoin="miter" stroke-miterlimit="10" stroke-dasharray="" stroke-dashoffset="0" font-family="Malgun Gothic" font-weight="normal" text-anchor="start" style="mix-blend-mode: normal"><tspan x="0" dy="0">Use your mouse to view buff descriptions</tspan></text><text transform="translate(162.72076,51.592) scale(0.63267,0.63267)" font-size="40" xml:space="preserve" fill="#ffe21e" fill-rule="nonzero" stroke="none" stroke-width="1" stroke-linecap="butt" stroke-linejoin="miter" stroke-miterlimit="10" stroke-dasharray="" stroke-dashoffset="0" font-family="Malgun Gothic" font-weight="normal" text-anchor="start" style="mix-blend-mode: normal"><tspan x="0" dy="0">Trader's Shop</tspan></text><path d="M489.52344,21.97201h-468" data-paper-data="{&quot;index&quot;:null}" fill="none" stroke="url(#color-1)" stroke-width="0.5" stroke-linecap="round"/></g></g></svg>