<svg version="1.1" xmlns="http://www.w3.org/2000/svg" xmlns:xlink="http://www.w3.org/1999/xlink" width="31.11411" height="31.11411" viewBox="0,0,31.11411,31.11411"><g transform="translate(-224.44295,-164.44294)"><g data-paper-data="{&quot;isPaintingLayer&quot;:true}" fill="none" fill-rule="nonzero" stroke-width="2" stroke-linecap="butt" stroke-linejoin="miter" stroke-miterlimit="10" stroke-dasharray="" stroke-dashoffset="0" style="mix-blend-mode: normal"><path d="M224.44295,195.55705v-31.11411h31.11411v31.11411z" stroke="none"/><path d="M229.3741,190.98647c-0.57963,-0.54934 -0.94749,-1.10232 -0.82164,-1.23511c0.12586,-0.1328 1.44926,-1.04255 2.02889,-0.49321c0.57963,0.54934 0.196,2.34975 0.07015,2.48254c-0.12586,0.1328 -0.69776,-0.20488 -1.27739,-0.75422z" data-paper-data="{&quot;index&quot;:null}" stroke="#e6c531"/><path d="M250.1596,172.89782c-1.36986,1.44542 -18.71864,17.50643 -19.65083,16.62297c-0.93218,-0.88346 14.90522,-18.37686 16.27509,-19.82228c1.36986,-1.44542 3.23605,-1.90096 4.16824,-1.0175c0.93218,0.88346 0.57737,2.77139 -0.7925,4.21681z" stroke="#e6c531"/></g></g></svg>