<svg version="1.1" xmlns="http://www.w3.org/2000/svg" xmlns:xlink="http://www.w3.org/1999/xlink" width="122" height="122" viewBox="0,0,122,122"><g transform="translate(-179,-119)"><g data-paper-data="{&quot;isPaintingLayer&quot;:true}" fill-rule="nonzero" stroke-linejoin="miter" stroke-miterlimit="10" stroke-dasharray="" stroke-dashoffset="0" style="mix-blend-mode: normal"><path d="M222.51076,204.82184c0,0 -5.14879,-0.46436 -9.06815,-5.17179c-5.93396,-7.12707 -7.91947,-12.57831 -9.61246,-22.86598c-1.44121,-8.75765 -0.45616,-20.35297 6.13416,-19.91194c3.72629,0.24937 6.29367,8.62035 5.76914,18.30365c-0.52452,9.68331 6.77732,29.64606 6.77732,29.64606z" fill="#cecece" stroke="#000000" stroke-width="2" stroke-linecap="butt"/><path d="M225.89562,155.43024c0,0 -9.39565,-7.77358 -8.95933,-9.27176c0.28889,-0.99197 11.74996,0 11.74996,0" fill="#cecece" stroke="#000000" stroke-width="2" stroke-linecap="round"/><path d="M230.30185,143.16085c0,0 -7.46666,-8.15972 -7.19684,-9.27176c0.31296,-1.28984 11.74995,0 11.74995,0" fill="#cecece" stroke="#000000" stroke-width="2" stroke-linecap="round"/><path d="M262.17635,147.80758c-0.25883,12.62596 16.29062,62.48633 0.87849,62.48633c-12.55285,0 -28.43719,3.7525 -37.19428,-1.09826c-4.76866,-2.64147 -5.77072,-10.38422 -6.77627,-16.80254c-4.03746,-25.77083 14.88943,-59.0617 14.88943,-59.0617c0,0 2.27085,0.19948 5.50306,0.82205c8.03764,1.5482 22.90907,3.43439 22.69957,13.65411z" fill="#cecece" stroke="#000000" stroke-width="2" stroke-linecap="butt"/><path d="M243.07993,147.27388l-5.87498,10.31745" fill="none" stroke="#ffb0b0" stroke-width="1" stroke-linecap="round"/><path d="M264.23505,196.65718c0,8.24236 -4.41246,11.524 -12.3402,11.524c-7.92774,0 -14.35444,-2.6016 -14.35444,-10.84398c0,-8.24237 5.75529,-15.60415 13.68303,-15.60415c7.92773,0 13.01162,6.68176 13.01162,14.92412z" fill="#e2e2e2" stroke="#000000" stroke-width="2" stroke-linecap="butt"/><path d="M265.73057,153.51997c7.70833,2.31716 17.34375,3.92475 11.09957,9.00921c-0.12772,0.104 -0.26166,0.20819 -0.40197,0.31257c-2.69083,2.00189 -1.5222,10.5753 -5.13285,11.393c-0.09618,0.02178 -0.77112,3.186 -0.88164,3.20691c-5.88535,1.11349 -31.12418,-2.15981 -32.14603,-4.67874c-2.48958,-6.13701 -0.19741,-16.18693 9.17042,-18.37603c9.36783,-2.1891 18.2925,-0.86691 18.2925,-0.86691z" fill="#e2e2e2" stroke="#000000" stroke-width="2" stroke-linecap="butt"/><path d="M251.625,169.94643c0,0 3.09744,-1.783 4.50271,-2.10938c3.5976,-0.83557 17.64015,-3.03347 17.64015,-3.03347l-1.71429,8.28571c0,0 -9.58653,-1.21105 -12.01104,-1.81262c-2.61302,-0.64834 -6.21659,-0.22973 -7.37084,-0.84623c-0.39311,-0.20997 -1.04669,-0.48401 -1.04669,-0.48401z" fill="#ffffff" stroke="#000000" stroke-width="0" stroke-linecap="butt"/><path d="M278.76638,156.49864c0,2.23305 -2.30288,4.87987 -5.14363,4.87987c-2.84075,0 -5.14363,-2.64681 -5.14363,-4.87987c0,-2.23305 2.67028,-2.37023 5.51103,-2.37023c2.84075,0 4.77622,0.13716 4.77622,2.37023z" fill="#4d4d4d" stroke="#000000" stroke-width="2" stroke-linecap="butt"/><path d="M237.64558,152.64175c0,-1.15504 0.98637,-2.09137 2.20312,-2.09137c1.21675,0 2.20312,0.93633 2.20312,2.09137c0,1.15504 -0.98636,2.09137 -2.20312,2.09137c-1.21675,0 -2.20312,-0.93633 -2.20312,-2.09137z" fill="#000000" stroke="none" stroke-width="0.5" stroke-linecap="butt"/><path d="M255.56425,149.78353c0,-1.15504 0.98637,-2.09137 2.20312,-2.09137c1.21675,0 2.20312,0.93633 2.20312,2.09137c0,1.15504 -0.98636,2.09137 -2.20312,2.09137c-1.21675,0 -2.20312,-0.93633 -2.20312,-2.09137z" fill="#000000" stroke="none" stroke-width="0.5" stroke-linecap="butt"/><path d="M251.48214,170.80357c0,0 8.1443,0.34096 13.56892,0.37713c2.93941,0.0196 8.00251,2.1943 8.00251,2.1943" fill="none" stroke="#000000" stroke-width="2" stroke-linecap="round"/><path d="M262.59653,167.48068l-0.84128,6.55346c0,0 -1.24212,0.31644 -1.79669,-0.76085c-0.67405,-1.30929 -1.95952,-6.07984 -1.95952,-6.07984" data-paper-data="{&quot;index&quot;:null}" fill="#ffffff" stroke="#000000" stroke-width="2" stroke-linecap="round"/><path d="M274.50221,165.74647c0,0 -1.38273,4.93982 -2.10868,6.21962c-0.59727,1.053 -1.8257,0.68448 -1.8257,0.68448l-0.57791,-6.58335" fill="#ffffff" stroke="#000000" stroke-width="2" stroke-linecap="round"/><path d="M236.82727,156.39625l1.51071,1.43409" fill="none" stroke="#ffb0b0" stroke-width="1" stroke-linecap="round"/><path d="M239.09334,155.91823l-1.5107,-1.43408" fill="none" stroke="#ffb0b0" stroke-width="1" stroke-linecap="round"/><path d="M243.62546,148.98682l-1.51071,-1.43408" fill="none" stroke="#ffb0b0" stroke-width="1" stroke-linecap="round"/><path d="M251.03143,170.03789c0,0 5.92432,-2.86665 9.58338,-3.10503c1.46954,-0.09573 14.66104,-2.34413 14.66104,-2.34413" fill="none" stroke="#000000" stroke-width="2" stroke-linecap="round"/><path d="M242.16668,150.43926l-3.72222,-3.76996" fill="none" stroke="#000000" stroke-width="1.5" stroke-linecap="round"/><path d="M258.83333,144.08097l-3.72222,3.76996" data-paper-data="{&quot;index&quot;:null}" fill="none" stroke="#000000" stroke-width="1.5" stroke-linecap="round"/><path d="M265.05357,170.94643l-1.28571,-3.42857" fill="none" stroke="#000000" stroke-width="0.5" stroke-linecap="round"/><path d="M265.76786,170.66071l1.28571,-4.14286" fill="none" stroke="#000000" stroke-width="0.5" stroke-linecap="round"/><path d="M267.625,166.375l1.28571,4.85714" fill="none" stroke="#000000" stroke-width="0.5" stroke-linecap="round"/><path d="M256.33929,169.66071l0.57143,-1.14286" fill="none" stroke="#000000" stroke-width="0.5" stroke-linecap="round"/><path d="M237.79245,209.45737c0,0 1.29965,4.75951 -1.09529,6.73771c-1.30267,1.07599 -6.59417,-0.04533 -7.12967,-0.04533c-1.27706,0 -0.29375,-6.69239 -0.29375,-6.69239" fill="#cecece" stroke="#000000" stroke-width="2" stroke-linecap="round"/><path d="M264.81734,208.89967c0,0 1.29964,4.75951 -1.0953,6.73772c-1.30266,1.07599 -6.59416,-0.04533 -7.12966,-0.04533c-1.27706,0 -0.29375,-6.6924 -0.29375,-6.6924" fill="#cecece" stroke="#000000" stroke-width="2" stroke-linecap="round"/><path d="M246.31116,180.89649c0,0 1.29964,4.75951 -1.09529,6.73771c-1.30265,1.07599 -6.59416,-0.04532 -7.12966,-0.04532c-1.27706,0 -0.29376,-6.6924 -0.29376,-6.6924" fill="#cecece" stroke="#000000" stroke-width="2" stroke-linecap="round"/><path d="M266.57983,180.89649c0,0 1.29964,4.75951 -1.0953,6.73771c-1.30266,1.07599 -6.59416,-0.04532 -7.12966,-0.04532c-1.27706,0 -0.29376,-6.6924 -0.29376,-6.6924" fill="#cecece" stroke="#000000" stroke-width="2" stroke-linecap="round"/><path d="M179,241v-122h122v122z" fill="none" stroke="none" stroke-width="none" stroke-linecap="butt"/></g></g></svg>