<svg version="1.1" xmlns="http://www.w3.org/2000/svg" xmlns:xlink="http://www.w3.org/1999/xlink" width="31.11411" height="31.11411" viewBox="0,0,31.11411,31.11411"><g transform="translate(-224.44296,-164.44296)"><g data-paper-data="{&quot;isPaintingLayer&quot;:true}" fill="none" fill-rule="nonzero" stroke-linejoin="miter" stroke-miterlimit="10" stroke-dasharray="" stroke-dashoffset="0" style="mix-blend-mode: normal"><path d="M224.44297,195.55707v-31.11411h31.11411v31.11411z" stroke="none" stroke-width="2" stroke-linecap="butt"/><g stroke-width="1.75"><path d="M230.53925,190.98457l-0.71429,-0.84048l11.11085,-10.16152l0.09227,1.27507z" stroke="#7b0000" stroke-linecap="butt"/><path d="M243.28342,178.10295c0,0 0.55766,0.78802 0.41343,1.00713c-0.22821,0.3467 -1.61207,1.42355 -1.61207,1.42355l-0.21057,-1.4865z" stroke="#ffe600" stroke-linecap="round"/><path d="M241.47694,180.68814c-6.38723,-3.92245 2.69651,-11.79686 3.02681,-11.57255c0,0 0.52424,3.02624 1.73513,3.76632c0.84719,0.51779 2.10878,-3.99962 3.26334,-3.86347c0.75869,0.08947 0.63592,4.46439 0.67054,5.26567c0.08708,2.01585 -2.30857,10.32646 -8.69581,6.40402z" stroke="#ff0000" stroke-linecap="butt"/><path d="M242.47753,180.02082c-3.17393,-2.02453 0.45928,-6.41272 2.98513,-6.11488c0.36428,0.04296 -0.61804,2.38473 -0.29008,2.58662c0.64557,0.39742 1.94234,-0.36449 1.94582,-0.36345c0,0 -1.46693,5.91625 -4.64086,3.89172z" stroke="#ff9f00" stroke-linecap="butt"/></g></g></g></svg>