<svg version="1.1" xmlns="http://www.w3.org/2000/svg" xmlns:xlink="http://www.w3.org/1999/xlink" width="31.11411" height="31.11411" viewBox="0,0,31.11411,31.11411"><g transform="translate(-224.44295,-164.44294)"><g data-paper-data="{&quot;isPaintingLayer&quot;:true}" fill="none" fill-rule="nonzero" stroke-linejoin="miter" stroke-miterlimit="10" stroke-dasharray="" stroke-dashoffset="0" style="mix-blend-mode: normal"><path d="M224.44296,195.55706v-31.11411h31.11411v31.11411z" stroke="none" stroke-width="2" stroke-linecap="butt"/><path d="M245.71075,177.76192c-2.02986,2.48765 -5.68231,6.65472 -8.06421,7.74814c-1.13649,0.52171 -1.91853,-0.97564 -2.21902,-1.22083c-0.93028,-0.75908 2.82408,-6.212 5.82245,-9.8866c2.99837,-3.6746 4.9372,-3.59413 5.86748,-2.83505c0.93028,0.75908 1.59167,2.51973 -1.40671,6.19433z" stroke="#34c500" stroke-width="2" stroke-linecap="butt"/><path d="M230.802,187.4362l2.81847,-4.715l5.55858,4.53565l-3.99757,3.7529z" stroke="#873200" stroke-width="2" stroke-linecap="butt"/><path d="M231.99805,181.95854l1.37444,-1.68442l8.14135,6.64312l-1.37444,1.68442z" stroke="#873200" stroke-width="2" stroke-linecap="butt"/><path d="M240.88609,171.06597l1.73608,1.88425" stroke="#34c500" stroke-width="1" stroke-linecap="round"/><path d="M245.12267,170.68815l-0.01755,-1.69787" stroke="#34c500" stroke-width="1" stroke-linecap="round"/><path d="M248.04681,172.60652l1.15121,-0.83773" stroke="#34c500" stroke-width="1" stroke-linecap="round"/><path d="M247.46428,175.49829l1.40817,0.68137" stroke="#34c500" stroke-width="1" stroke-linecap="round"/><path d="M245.40399,179.05487l0.66344,0.44781" stroke="#34c500" stroke-width="1" stroke-linecap="round"/><path d="M243.82251,182.25389l-0.61762,-0.50396" stroke="#34c500" stroke-width="1" stroke-linecap="round"/><path d="M241.37679,183.53183l0.37821,0.68273" stroke="#34c500" stroke-width="1" stroke-linecap="round"/><path d="M236.42686,180.42814l-1.69923,-1.01241" stroke="#34c500" stroke-width="1" stroke-linecap="round"/><path d="M237.47924,178.10679l-0.43885,-0.26455" stroke="#34c500" stroke-width="1" stroke-linecap="round"/><path d="M238.50509,175.01558l0.93384,0.57492" stroke="#34c500" stroke-width="1" stroke-linecap="round"/></g></g></svg>