<svg version="1.1" xmlns="http://www.w3.org/2000/svg" xmlns:xlink="http://www.w3.org/1999/xlink" width="54.5" height="54.5" viewBox="0,0,54.5,54.5"><g transform="translate(-213.13688,-146.82658)"><g data-paper-data="{&quot;isPaintingLayer&quot;:true}" fill-rule="nonzero" stroke-linejoin="miter" stroke-miterlimit="10" stroke-dasharray="" stroke-dashoffset="0" style="mix-blend-mode: normal"><path d="M213.13688,201.32658v-54.5h54.5v54.5z" fill="none" stroke="none" stroke-width="0" stroke-linecap="butt"/><path d="M232.91524,162.89022c0,0 2.99232,-5.53905 3.74813,-5.45038c1.76361,0.20691 2.70758,6.20779 2.70758,6.20779" fill="none" stroke="#ffffff" stroke-width="2.5" stroke-linecap="round"/><path d="M244.59976,164.13524c0,0 2.99232,-5.53905 3.74813,-5.45038c1.76361,0.20691 2.70758,6.20779 2.70758,6.20779" fill="none" stroke="#ffffff" stroke-width="2.5" stroke-linecap="round"/><path d="M237.29031,192.53036h-2.16618v-5.75" data-paper-data="{&quot;index&quot;:null}" fill="none" stroke="#ffffff" stroke-width="3" stroke-linecap="round"/><path d="M247.62361,192.61261h-2.24951v-4.51389" fill="none" stroke="#ffffff" stroke-width="3" stroke-linecap="round"/><path d="M229.03312,184.69407c-0.85796,-1.08584 -0.58039,-1.48954 -0.41916,-2.86376c0.48369,-4.12265 1.14567,-9.76503 1.87896,-16.01515c0.15141,-1.29057 0.00101,-1.7016 1.04548,-2.47463c1.04447,-0.77302 1.48993,-0.58034 2.86441,-0.41908c6.15322,0.72192 11.79902,1.38431 15.76686,1.84983c1.32261,0.15518 1.77482,-0.02283 2.55674,1.05511c0.78192,1.07795 0.56908,1.58595 0.40061,3.02186c-0.71055,6.05632 -1.31996,11.25056 -1.8207,15.51856c-0.16691,1.42266 0.00572,1.88481 -1.08519,2.81313c-1.09092,0.9283 -1.40892,0.58985 -2.73153,0.43467c-1.32261,-0.15518 -11.64344,-1.36605 -15.76686,-1.84983c-1.37447,-0.16126 -1.83166,0.01514 -2.68962,-1.0707z" fill="#3c0000" stroke="#ff3333" stroke-width="2.5" stroke-linecap="butt"/><path d="M237.50187,171.85182l-4.91154,-0.93635" fill="none" stroke="#ffffff" stroke-width="2.5" stroke-linecap="round"/><path d="M250.09949,172.7011l-4.99965,0.05904" fill="none" stroke="#ffffff" stroke-width="2.5" stroke-linecap="round"/><path d="M232.59615,175.88757c0.11262,-0.95992 0.98208,-1.64678 1.942,-1.53416c0.95992,0.11262 1.64678,0.98208 1.53416,1.942c-0.11262,0.95992 -0.98208,1.64678 -1.942,1.53416c-0.95992,-0.11262 -1.64678,-0.98208 -1.53416,-1.942z" fill="#ffffff" stroke="none" stroke-width="0.5" stroke-linecap="butt"/><path d="M245.43654,177.24112c0.11262,-0.95992 0.98208,-1.64678 1.942,-1.53416c0.95992,0.11262 1.64678,0.98208 1.53416,1.942c-0.11262,0.95992 -0.98208,1.64678 -1.942,1.53416c-0.95992,-0.11262 -1.64678,-0.98208 -1.53416,-1.942z" fill="#ffffff" stroke="none" stroke-width="0.5" stroke-linecap="butt"/></g></g></svg>