<svg version="1.1" xmlns="http://www.w3.org/2000/svg" xmlns:xlink="http://www.w3.org/1999/xlink" width="62.11111" height="62.11111" viewBox="0,0,62.11111,62.11111"><g transform="translate(-208.94448,-148.94448)"><g data-paper-data="{&quot;isPaintingLayer&quot;:true}" fill-rule="nonzero" stroke-linecap="butt" stroke-linejoin="miter" stroke-miterlimit="10" stroke-dasharray="" stroke-dashoffset="0" style="mix-blend-mode: normal"><path d="M235.23687,177.09145c0,0 1.87956,-3.91795 2.56803,-5.35308c0.72278,-1.50663 2.34612,-1.85382 3.91515,-1.10111c2.21178,1.06106 9.28843,4.45595 13.40724,6.43186c1.72154,0.82588 2.62856,2.3482 1.83552,4.00128c-0.68744,1.43298 -2.51289,5.23813 -2.51289,5.23813z" fill="#ca9d28" stroke="#6d2a00" stroke-width="1.5"/><path d="M208.94449,211.05559v-62.11111h62.11111v62.11111z" data-paper-data="{&quot;index&quot;:null}" fill="none" stroke="none" stroke-width="NaN"/><path d="M229.89518,188.91586v-14.37714h20.34716v14.37714z" fill="#ca9d28" stroke="#6d2a00" stroke-width="1.5"/><path d="M249.38467,189.91221l-2.5603,-4.65214l4.12433,-2.29728l2.5603,4.65214z" fill="#c2c2c2" stroke="#6d2a00" stroke-width="1.5"/><path d="M250.06478,188.11169c0,0 -0.36357,-0.96045 -0.24828,-1.21308c-0.30734,-0.00905 -0.60215,-0.1764 -0.76188,-0.46664c-0.24077,-0.43748 -0.08343,-0.98847 0.35143,-1.2307c0.43486,-0.24221 0.98255,-0.08392 1.22331,0.35354c0.14411,0.26186 0.1456,0.56439 0.03031,0.81702c0.30734,0.00905 0.97985,0.8627 0.97985,0.8627z" fill="#000000" stroke="none" stroke-width="0.5"/><path d="M229.95834,180.02084v-5.58334h20.25v5.58334z" fill="#271e08" stroke="#6d2a00" stroke-width="1.5"/></g></g></svg>