<svg version="1.1" xmlns="http://www.w3.org/2000/svg" xmlns:xlink="http://www.w3.org/1999/xlink" width="362.713" height="48.83333" viewBox="0,0,362.713,48.83333"><defs><linearGradient x1="477.46589" y1="180.01292" x2="564.85421" y2="180.01292" gradientUnits="userSpaceOnUse" id="color-1"><stop offset="0" stop-color="#0011ff"/><stop offset="1" stop-color="#0011ff" stop-opacity="0"/></linearGradient><linearGradient x1="477.46589" y1="180.18568" x2="564.85421" y2="180.18568" gradientUnits="userSpaceOnUse" id="color-2"><stop offset="0" stop-color="#0011ff"/><stop offset="1" stop-color="#0011ff" stop-opacity="0"/></linearGradient><linearGradient x1="477.46589" y1="179.84012" x2="564.85421" y2="179.84012" gradientUnits="userSpaceOnUse" id="color-3"><stop offset="0" stop-color="#0011ff"/><stop offset="1" stop-color="#0011ff" stop-opacity="0"/></linearGradient><radialGradient cx="266.00001" cy="180.00001" r="6.31139" gradientUnits="userSpaceOnUse" id="color-4"><stop offset="0" stop-color="#3052ff"/><stop offset="1" stop-color="#3052ff" stop-opacity="0"/></radialGradient><radialGradient cx="266.00001" cy="180.00001" r="6.31139" gradientUnits="userSpaceOnUse" id="color-5"><stop offset="0" stop-color="#3052ff"/><stop offset="1" stop-color="#3052ff" stop-opacity="0"/></radialGradient><radialGradient cx="266.00001" cy="180.00001" r="6.31139" gradientUnits="userSpaceOnUse" id="color-6"><stop offset="0" stop-color="#3052ff"/><stop offset="1" stop-color="#3052ff" stop-opacity="0"/></radialGradient><linearGradient x1="413.17844" y1="180.16348" x2="413.17844" y2="183.09354" gradientUnits="userSpaceOnUse" id="color-7"><stop offset="0" stop-color="#6678ff"/><stop offset="1" stop-color="#6678ff" stop-opacity="0"/></linearGradient><linearGradient x1="413.34511" y1="179.73618" x2="413.34511" y2="176.80616" gradientUnits="userSpaceOnUse" id="color-8"><stop offset="0" stop-color="#6670ff"/><stop offset="1" stop-color="#6670ff" stop-opacity="0"/></linearGradient><linearGradient x1="477.17175" y1="179.9626" x2="564.39343" y2="179.9626" gradientUnits="userSpaceOnUse" id="color-9"><stop offset="0" stop-color="#ffffff"/><stop offset="1" stop-color="#ffffff" stop-opacity="0"/></linearGradient><radialGradient cx="240" cy="180" r="19" gradientUnits="userSpaceOnUse" id="color-10"><stop offset="0" stop-color="#ffffff"/><stop offset="1" stop-color="#ffffff" stop-opacity="0"/></radialGradient></defs><g transform="translate(-221,-156.76753)"><g data-paper-data="{&quot;isPaintingLayer&quot;:true}" fill-rule="nonzero" stroke-linecap="butt" stroke-linejoin="miter" stroke-miterlimit="10" stroke-dasharray="" stroke-dashoffset="0" style="mix-blend-mode: normal"><path d="M477.46589,181.23869v-2.45155h87.38833v2.45155z" fill="url(#color-1)" stroke="#000000" stroke-width="0"/><path d="M477.46589,181.23869v-2.10597h87.38833v2.10597z" fill="url(#color-2)" stroke="#000000" stroke-width="0"/><path d="M477.46589,180.8931v-2.10597h87.38833v2.10597z" fill="url(#color-3)" stroke="#000000" stroke-width="0"/><path d="M259.68863,180.00001c0,-3.48569 2.82571,-6.31139 6.31139,-6.31139c3.48569,0 6.31139,2.82571 6.31139,6.31139c0,3.48569 -2.82571,6.31139 -6.31139,6.31139c-3.48569,0 -6.31139,-2.82571 -6.31139,-6.31139z" fill="url(#color-4)" stroke="none" stroke-width="0"/><path d="M259.68863,180.00001c0,-3.48569 2.82571,-6.31139 6.31139,-6.31139c3.48569,0 6.31139,2.82571 6.31139,6.31139c0,3.48569 -2.82571,6.31139 -6.31139,6.31139c-3.48569,0 -6.31139,-2.82571 -6.31139,-6.31139z" fill="url(#color-5)" stroke="none" stroke-width="0"/><path d="M259.68863,180.00001c0,-3.48569 2.82571,-6.31139 6.31139,-6.31139c3.48569,0 6.31139,2.82571 6.31139,6.31139c0,3.48569 -2.82571,6.31139 -6.31139,6.31139c-3.48569,0 -6.31139,-2.82571 -6.31139,-6.31139z" fill="url(#color-6)" stroke="none" stroke-width="0"/><path d="M254.82294,191.1771v-22.35419h22.35419v22.35419z" fill="none" stroke="none" stroke-width="0"/><path d="M256.71301,205.60086v-48.83333h327v48.83333z" fill="none" stroke="none" stroke-width="0"/><path d="M266.17843,183.09354v-2.93004l199.83333,0.67147l94.16667,0.18312v2.07545z" fill="url(#color-7)" stroke="none" stroke-width="0"/><path d="M560.34507,176.80616v2.13649l-73,0.06104l-221,0.73251v-2.93004z" data-paper-data="{&quot;index&quot;:null}" fill="url(#color-8)" stroke="none" stroke-width="0"/><path d="M266.34157,181.053v-2.10597h211.31686v2.10597z" fill="#ffffff" stroke="#000000" stroke-width="0"/><path d="M261.4004,180.00001c0,-2.5403 2.05932,-4.59962 4.59962,-4.59962c2.5403,0 4.59962,2.05932 4.59962,4.59962c0,2.5403 -2.05932,4.59962 -4.59962,4.59962c-2.5403,0 -4.59962,-2.05932 -4.59962,-4.59962z" fill="#ffffff" stroke="#bf7cff" stroke-width="0"/><path d="M477.17175,181.01556v-2.10597h87.22166v2.10597z" fill="url(#color-9)" stroke="#000000" stroke-width="0"/><path d="M221,180c0,-10.49341 8.50659,-19 19,-19c10.49341,0 19,8.50659 19,19c0,10.49341 -8.50659,19 -19,19c-10.49341,0 -19,-8.50659 -19,-19z" fill="url(#color-10)" stroke="none" stroke-width="none"/></g></g></svg>