<svg version="1.1" xmlns="http://www.w3.org/2000/svg" xmlns:xlink="http://www.w3.org/1999/xlink" width="59.78784" height="59.78784" viewBox="0,0,59.78784,59.78784"><defs><radialGradient cx="240" cy="180" r="15.33344" gradientUnits="userSpaceOnUse" id="color-1"><stop offset="0" stop-color="#ff3030"/><stop offset="1" stop-color="#ff3030" stop-opacity="0"/></radialGradient><radialGradient cx="240" cy="180" r="15.33342" gradientUnits="userSpaceOnUse" id="color-2"><stop offset="0" stop-color="#ff3030"/><stop offset="1" stop-color="#ff3030" stop-opacity="0"/></radialGradient><radialGradient cx="240" cy="180" r="15.33342" gradientUnits="userSpaceOnUse" id="color-3"><stop offset="0" stop-color="#ff3030"/><stop offset="1" stop-color="#ff3030" stop-opacity="0"/></radialGradient><radialGradient cx="240" cy="180" r="15.33342" gradientUnits="userSpaceOnUse" id="color-4"><stop offset="0" stop-color="#ff3030"/><stop offset="1" stop-color="#ff3030" stop-opacity="0"/></radialGradient></defs><g transform="translate(-210.10608,-150.10608)"><g data-paper-data="{&quot;isPaintingLayer&quot;:true}" fill-rule="nonzero" stroke-linejoin="miter" stroke-miterlimit="10" stroke-dasharray="" stroke-dashoffset="0" style="mix-blend-mode: normal"><path d="" data-paper-data="{&quot;index&quot;:null}" fill="none" stroke="#cdcdcd" stroke-width="1.5" stroke-linecap="round"/><path d="" fill="none" stroke="#cdcdcd" stroke-width="1.5" stroke-linecap="round"/><path d="" data-paper-data="{&quot;index&quot;:null}" fill="none" stroke="#cdcdcd" stroke-width="1.5" stroke-linecap="round"/><path d="" fill="none" stroke="#cdcdcd" stroke-width="1.5" stroke-linecap="round"/><path d="" data-paper-data="{&quot;index&quot;:null}" fill="none" stroke="#cdcdcd" stroke-width="1.5" stroke-linecap="round"/><path d="" data-paper-data="{&quot;index&quot;:null}" fill="none" stroke="#cdcdcd" stroke-width="1.5" stroke-linecap="round"/><path d="" data-paper-data="{&quot;index&quot;:null}" fill="none" stroke="#cdcdcd" stroke-width="1.5" stroke-linecap="round"/><path d="" fill="none" stroke="#cdcdcd" stroke-width="1.5" stroke-linecap="round"/><path d="" data-paper-data="{&quot;index&quot;:null}" fill="none" stroke="#cdcdcd" stroke-width="1.5" stroke-linecap="round"/><path d="" data-paper-data="{&quot;index&quot;:null}" fill="none" stroke="#cdcdcd" stroke-width="1.5" stroke-linecap="round"/><path d="" fill="none" stroke="#cdcdcd" stroke-width="1.5" stroke-linecap="round"/><path d="" data-paper-data="{&quot;index&quot;:null}" fill="none" stroke="#cdcdcd" stroke-width="1.5" stroke-linecap="round"/><path d="M224.66656,180c0,-8.46843 6.86502,-15.33344 15.33344,-15.33344c8.46843,0 15.33344,6.86502 15.33344,15.33344c0,8.46843 -6.86502,15.33344 -15.33344,15.33344c-8.46843,0 -15.33344,-6.86502 -15.33344,-15.33344z" fill="url(#color-1)" stroke="none" stroke-width="0" stroke-linecap="butt"/><path d="M224.66658,180c0,-8.46843 6.865,-15.33342 15.33342,-15.33342c8.46843,0 15.33342,6.865 15.33342,15.33342c0,8.46843 -6.865,15.33342 -15.33342,15.33342c-8.46843,0 -15.33342,-6.865 -15.33342,-15.33342z" fill="url(#color-2)" stroke="none" stroke-width="0" stroke-linecap="butt"/><path d="M224.66658,180c0,-8.46843 6.865,-15.33342 15.33342,-15.33342c8.46843,0 15.33342,6.865 15.33342,15.33342c0,8.46843 -6.865,15.33342 -15.33342,15.33342c-8.46843,0 -15.33342,-6.865 -15.33342,-15.33342z" fill="url(#color-3)" stroke="none" stroke-width="0" stroke-linecap="butt"/><path d="M224.66658,180c0,-8.46843 6.865,-15.33342 15.33342,-15.33342c8.46843,0 15.33342,6.865 15.33342,15.33342c0,8.46843 -6.865,15.33342 -15.33342,15.33342c-8.46843,0 -15.33342,-6.865 -15.33342,-15.33342z" fill="url(#color-4)" stroke="none" stroke-width="0" stroke-linecap="butt"/><path d="M228.26749,180c0,-6.4797 5.25283,-11.73251 11.73251,-11.73251c6.4797,0 11.73251,5.25283 11.73251,11.73251c0,6.4797 -5.25283,11.73251 -11.73251,11.73251c-6.4797,0 -11.73251,-5.25283 -11.73251,-11.73251z" fill="#ffeded" stroke="none" stroke-width="0.5" stroke-linecap="butt"/><path d="M210.10608,209.89392v-59.78784h59.78784v59.78784z" fill="none" stroke="none" stroke-width="0" stroke-linecap="butt"/></g></g></svg>