<svg version="1.1" xmlns="http://www.w3.org/2000/svg" xmlns:xlink="http://www.w3.org/1999/xlink" width="46.75" height="46.75" viewBox="0,0,46.75,46.75"><g transform="translate(-216.625,-156.625)"><g data-paper-data="{&quot;isPaintingLayer&quot;:true}" fill-rule="nonzero" stroke-linejoin="miter" stroke-miterlimit="10" stroke-dasharray="" stroke-dashoffset="0" style="mix-blend-mode: normal"><path d="M235.46975,191.21926c0,0 -2.75224,-3.98162 -3.42008,-6.9186c-0.66784,-2.93698 -1.17566,-13.29225 -1.17566,-13.29225" fill="#00d89b" stroke="#007d4f" stroke-width="1.5" stroke-linecap="round"/><path d="M235.37669,184.49198c0.36293,0.35858 0.44581,1.63829 0.18511,2.85834c-0.26069,1.22005 -0.76623,1.91841 -1.12917,1.55984c-0.36293,-0.35858 -0.4458,-1.63828 -0.1851,-2.85833c0.26069,-1.22005 0.76623,-1.91842 1.12916,-1.55985z" fill="#00d89b" stroke="#007d4f" stroke-width="1" stroke-linecap="butt"/><path d="M230.41652,184.07908c0.15133,-0.5084 0.908,-0.17778 1.69008,0.73847c0.78208,0.91625 1.29341,2.07114 1.14208,2.57953c-0.15133,0.5084 -0.908,0.17777 -1.69009,-0.73846c-0.78207,-0.91624 -1.29341,-2.07113 -1.14208,-2.57953z" data-paper-data="{&quot;index&quot;:null}" fill="#00d89b" stroke="#007d4f" stroke-width="1" stroke-linecap="butt"/><path d="M233.04966,182.29049c0.26069,-1.22005 0.76624,-1.91841 1.12917,-1.55984c0.36292,0.35857 0.44579,1.63829 0.1851,2.85834c-0.26069,1.22005 -0.76623,1.91841 -1.12916,1.55984c-0.36292,-0.35857 -0.4458,-1.63828 -0.1851,-2.85833z" fill="#00d89b" stroke="#007d4f" stroke-width="1" stroke-linecap="butt"/><path d="M230.82087,180.6752c0.78208,0.91625 1.29341,2.07113 1.14208,2.57954c-0.15133,0.50839 -0.90801,0.17777 -1.69009,-0.73848c-0.78208,-0.91625 -1.2934,-2.07113 -1.14208,-2.57953z" data-paper-data="{&quot;index&quot;:null}" fill="#00d89b" stroke="#007d4f" stroke-width="1" stroke-linecap="butt"/><path d="M232.89739,176.53445c0.36293,0.35858 0.4458,1.63829 0.18511,2.85834c-0.26069,1.22005 -0.76623,1.91841 -1.12917,1.55984c-0.36293,-0.35858 -0.4458,-1.63828 -0.1851,-2.85833c0.26069,-1.22005 0.76623,-1.91842 1.12916,-1.55985z" fill="#00d89b" stroke="#007d4f" stroke-width="1" stroke-linecap="butt"/><path d="M228.08875,175.17855c0.15133,-0.5084 0.90802,-0.17776 1.69009,0.73847c0.78208,0.91625 1.29341,2.07113 1.14208,2.57953c-0.15133,0.5084 -0.90801,0.17777 -1.69009,-0.73846c-0.78207,-0.91624 -1.2934,-2.07113 -1.14208,-2.57953z" data-paper-data="{&quot;index&quot;:null}" fill="#00d89b" stroke="#007d4f" stroke-width="1" stroke-linecap="butt"/><path d="M232.88898,171.29601c0.36292,0.35857 0.4458,1.63828 0.1851,2.85833c-0.26069,1.22005 -0.76623,1.91841 -1.12917,1.55984c-0.36292,-0.35857 -0.44579,-1.63829 -0.18509,-2.85834z" fill="#00d89b" stroke="#007d4f" stroke-width="1" stroke-linecap="butt"/><path d="M230.06436,171.18159c0.78208,0.91625 1.29341,2.07114 1.14208,2.57954c-0.15133,0.50839 -0.90801,0.17777 -1.69009,-0.73848c-0.78208,-0.91625 -1.29341,-2.07113 -1.14208,-2.57953z" data-paper-data="{&quot;index&quot;:null}" fill="#00d89b" stroke="#007d4f" stroke-width="1" stroke-linecap="butt"/><path d="M236.37822,187.69355c0.46337,0.21351 0.9772,1.38846 1.14769,2.62435c0.17049,1.23588 -0.06695,2.06469 -0.5303,1.85119c-0.46337,-0.21351 -0.97719,-1.38846 -1.14768,-2.62435c-0.17049,-1.23588 0.06694,-2.06469 0.53029,-1.85119z" fill="#00d89b" stroke="#007d4f" stroke-width="1" stroke-linecap="butt"/><path d="M231.57404,188.99495c-0.0309,-0.52955 0.79315,-0.47644 1.84056,0.11861c1.04741,0.59504 1.92155,1.50669 1.95245,2.03624c0.03089,0.52954 -0.79314,0.47643 -1.84055,-0.1186c-1.04741,-0.59504 -1.92155,-1.5067 -1.95246,-2.03624z" data-paper-data="{&quot;index&quot;:null}" fill="#00d89b" stroke="#007d4f" stroke-width="1" stroke-linecap="butt"/><path d="M216.625,203.375v-46.75h46.75v46.75z" fill="none" stroke="none" stroke-width="2" stroke-linecap="butt"/><g data-paper-data="{&quot;index&quot;:null}" fill="#00d89b" stroke="#007d4f"><path d="M238.8526,182.67004c0.74772,0.9987 1.20846,2.19547 1.02908,2.67308c-0.17937,0.47761 -0.93093,0.05518 -1.67866,-0.94351c-0.74772,-0.99869 -1.20846,-2.19547 -1.02908,-2.67308c0.17937,-0.47761 0.93093,-0.05518 1.67866,0.94351z" stroke-width="1" stroke-linecap="butt"/><path d="M242.53308,179.45618c0.18966,0.49538 -0.23209,1.68591 -0.94199,2.65914c-0.70992,0.97322 -1.43917,1.3606 -1.62883,0.86523c-0.18967,-0.49537 0.23207,-1.6859 0.94198,-2.65913c0.70991,-0.97323 1.43917,-1.36061 1.62883,-0.86524z" data-paper-data="{&quot;index&quot;:null}" stroke-width="1" stroke-linecap="butt"/><path d="M239.33307,180.27404c-0.33452,0.38521 -0.89187,-0.27256 -1.24486,-1.46917c-0.35299,-1.19661 -0.36798,-2.47892 -0.03347,-2.86413c0.33451,-0.38521 0.89187,0.27256 1.24486,1.46917c0.35299,1.19661 0.36798,2.47892 0.03347,2.86413z" stroke-width="1" stroke-linecap="butt"/><path d="M243.10586,174.95406c0.18966,0.49538 -0.23208,1.6859 -0.94199,2.65913c-0.70991,0.97324 -1.43918,1.36061 -1.62884,0.86525c-0.18967,-0.49538 0.23208,-1.68591 0.94199,-2.65914z" data-paper-data="{&quot;index&quot;:null}" stroke-width="1" stroke-linecap="butt"/><path d="M240.0971,172.49552c0.353,1.19661 0.36798,2.47891 0.03346,2.86413c-0.33452,0.38521 -0.89186,-0.27256 -1.24485,-1.46917c-0.353,-1.19661 -0.36799,-2.47892 -0.03347,-2.86414c0.33452,-0.38521 0.89187,0.27257 1.24486,1.46918z" stroke-width="1" stroke-linecap="butt"/><path d="M243.02627,169.37071c0.18966,0.49537 -0.23209,1.6859 -0.94199,2.65913c-0.70991,0.97323 -1.43917,1.3606 -1.62883,0.86523c-0.18966,-0.49537 0.23208,-1.6859 0.94199,-2.65913c0.70991,-0.97323 1.43918,-1.36061 1.62884,-0.86524z" data-paper-data="{&quot;index&quot;:null}" stroke-width="1" stroke-linecap="butt"/><path d="M240.8376,167.58475c0.353,1.19661 0.36799,2.47891 0.03348,2.86412c-0.33452,0.38521 -0.89187,-0.27256 -1.24486,-1.46917c-0.35299,-1.19661 -0.36798,-2.47892 -0.03347,-2.86413z" stroke-width="1" stroke-linecap="butt"/><path d="M243.75138,164.56595c0.18966,0.49537 -0.23208,1.6859 -0.94199,2.65913c-0.70991,0.97323 -1.43918,1.36061 -1.62884,0.86525c-0.18967,-0.49537 0.23208,-1.68591 0.94199,-2.65914z" data-paper-data="{&quot;index&quot;:null}" stroke-width="1" stroke-linecap="butt"/><path d="M239.90528,186.04161c0,0 -0.57583,-4.22712 -0.27141,-6.31905c0.46432,-3.19081 1.75883,-12.08662 1.75883,-12.08662" stroke-width="1.5" stroke-linecap="round"/></g><g stroke="#007d4f"><path d="M247.4653,170.65857c0,0 1.94796,6.24559 1.40235,12.28626c-0.54561,6.04067 -3.42927,10.15446 -3.42927,10.15446" fill="none" stroke-width="2.5" stroke-linecap="round"/><path d="M250.19788,187.66469c0.37948,0.67078 -0.16186,2.45472 -1.20908,3.98454c-1.04722,1.52982 -2.20379,2.2262 -2.58325,1.55543c-0.37948,-0.67078 0.16186,-2.45471 1.20908,-3.98453c1.04722,-1.52982 2.20379,-2.2262 2.58325,-1.55543z" fill="#00d89b" stroke-width="1" stroke-linecap="butt"/><path d="M244.80908,183.98568c0.50314,-0.61599 1.51291,0.21487 2.25539,1.85578c0.74248,1.64091 0.93649,3.4705 0.43335,4.0865c-0.50313,0.61599 -1.51291,-0.21487 -2.25538,-1.85578c-0.74248,-1.64091 -0.93648,-3.47049 -0.43334,-4.08649z" data-paper-data="{&quot;index&quot;:null}" fill="#00d89b" stroke-width="1" stroke-linecap="butt"/><path d="M249.39376,182.975c1.04723,-1.52982 2.2038,-2.22619 2.58325,-1.55542c0.37947,0.67077 -0.16187,2.45471 -1.20909,3.98453c-1.04722,1.52982 -2.20379,2.22619 -2.58325,1.55542c-0.37946,-0.67077 0.16187,-2.45471 1.20909,-3.98453z" fill="#00d89b" stroke-width="1" stroke-linecap="butt"/><path d="M247.52342,178.37978c0.29649,0.65527 0.50553,1.34063 0.61763,1.96678c0.16862,0.94183 0.11794,1.74971 -0.18428,2.11972c-0.50314,0.61599 -1.5129,-0.21488 -2.25538,-1.85578c-0.74248,-1.64091 -0.93649,-3.47049 -0.43335,-4.08649z" data-paper-data="{&quot;index&quot;:null}" fill="#00d89b" stroke-width="1" stroke-linecap="butt"/><path d="M252.59227,174.04239c0.37948,0.67078 -0.16186,2.45471 -1.20908,3.98453c-1.04722,1.52982 -2.2038,2.2262 -2.58325,1.55543c-0.37948,-0.67078 0.16186,-2.45471 1.20908,-3.98453c1.04722,-1.52982 2.2038,-2.2262 2.58325,-1.55543z" fill="#00d89b" stroke-width="1" stroke-linecap="butt"/><path d="M247.74175,171.5642c0.74248,1.64091 0.93649,3.4705 0.43335,4.0865c-0.50313,0.61599 -1.51291,-0.21487 -2.25538,-1.85578c-0.74248,-1.64091 -0.93648,-3.47049 -0.43334,-4.08648z" data-paper-data="{&quot;index&quot;:null}" fill="#00d89b" stroke-width="1" stroke-linecap="butt"/><path d="M250.28815,169.35271c1.04723,-1.52982 2.2038,-2.2262 2.58326,-1.55542c0.37947,0.67077 -0.16187,2.45471 -1.20909,3.98453c-1.04722,1.52982 -2.20379,2.2262 -2.58325,1.55543c-0.37946,-0.67077 0.16187,-2.45472 1.20909,-3.98454z" fill="#00d89b" stroke-width="1" stroke-linecap="butt"/></g><path d="M239.43682,189.44526c0.63549,-0.68019 2.16292,0.63832 2.16292,0.63832c0,0 0.84692,-1.84635 1.72534,-1.72441c0.87843,0.12194 0.17067,2.39108 0.17067,2.39108c0,0 1.99453,0.30395 1.80247,1.28929c-0.19206,0.98534 -2.03527,1.0189 -2.03527,1.0189c0,0 0.16782,1.81612 -0.78248,2.13733c-0.95031,0.3212 -1.13249,-1.72601 -1.13249,-1.72601c0,0 -1.64327,1.26101 -2.28644,0.49579c-0.64317,-0.76522 1.11109,-2.35449 1.11109,-2.35449c0,0 -1.37131,-1.48561 -0.73582,-2.1658z" fill="#7951f0" stroke="#c7bce3" stroke-width="1" stroke-linecap="butt"/></g></g></svg>