<svg version="1.1" xmlns="http://www.w3.org/2000/svg" xmlns:xlink="http://www.w3.org/1999/xlink" width="65.6" height="65.8" viewBox="0,0,65.6,65.8"><g transform="translate(-207.1,-147.3)"><g data-paper-data="{&quot;isPaintingLayer&quot;:true}" fill-rule="nonzero" stroke-linejoin="miter" stroke-miterlimit="10" stroke-dasharray="" stroke-dashoffset="0" style="mix-blend-mode: normal"><path d="M239.84627,195.14667c-1.38376,-0.01949 -1.52182,-0.48956 -2.48623,-1.48171c-2.89325,-2.97646 -6.85303,-7.05013 -11.23932,-11.56258c-0.90571,-0.93176 -1.3195,-1.07442 -1.26021,-2.37248c0.05929,-1.29806 0.48984,-1.52209 1.48218,-2.48668c4.44248,-4.31828 8.51863,-8.28047 11.38331,-11.06507c0.95489,-0.9282 1.10212,-1.39135 2.43176,-1.31784c1.32965,0.07351 1.58947,0.55916 2.59718,1.59586c4.25028,4.37253 7.89557,8.12265 10.89082,11.20405c0.99841,1.02713 1.46589,1.1848 1.49777,2.61687c0.03188,1.43207 -0.43135,1.46523 -1.38625,2.39343c-0.95489,0.9282 -8.40631,8.17129 -11.38331,11.06507c-0.99234,0.9646 -1.14394,1.43058 -2.5277,1.41109z" fill="#151723" stroke="#ffffff" stroke-width="1" stroke-linecap="butt"/><path d="M239.84626,194.89024c-1.38376,-0.01949 -1.52182,-0.48956 -2.48623,-1.48171c-2.89325,-2.97646 -6.85303,-7.05013 -11.23932,-11.56258c-0.90571,-0.93176 -1.3195,-1.07442 -1.26021,-2.37248c0.05929,-1.29806 0.48984,-1.52209 1.48218,-2.48668c4.44248,-4.31828 8.51863,-8.28047 11.38331,-11.06507c0.95489,-0.9282 1.10212,-1.39135 2.43176,-1.31784c1.32965,0.07351 1.58947,0.55916 2.59718,1.59586c4.25028,4.37253 7.89557,8.12265 10.89082,11.20405c0.99841,1.02713 1.46589,1.1848 1.49777,2.61687c0.03188,1.43207 -0.43135,1.46523 -1.38625,2.39343c-0.95489,0.9282 -8.40631,8.17129 -11.38331,11.06507c-0.99234,0.9646 -1.14394,1.43058 -2.5277,1.41109z" fill="none" stroke="#ffffff" stroke-width="1" stroke-linecap="butt"/><path d="M207.1,213.1v-65.4h65.4v65.4z" fill="none" stroke="none" stroke-width="0" stroke-linecap="butt"/><path d="M239.84626,195.14667c-1.38376,-0.01949 -1.52182,-0.48956 -2.48623,-1.48171c-2.89325,-2.97646 -6.85303,-7.05013 -11.23932,-11.56258c-0.90571,-0.93176 -1.3195,-1.07442 -1.26021,-2.37248c0.05929,-1.29806 0.48984,-1.52209 1.48218,-2.48668c4.44248,-4.31828 8.51863,-8.28047 11.38331,-11.06507c0.95489,-0.9282 1.10212,-1.39135 2.43176,-1.31784c1.32965,0.07351 1.58947,0.55916 2.59718,1.59586c4.25028,4.37253 7.89557,8.12265 10.89082,11.20405c0.99841,1.02713 1.46589,1.1848 1.49777,2.61687c0.03188,1.43207 -0.43135,1.46523 -1.38625,2.39343c-0.95489,0.9282 -8.40631,8.17129 -11.38331,11.06507c-0.99234,0.9646 -1.14394,1.43058 -2.5277,1.41109z" fill="none" stroke="#ffffff" stroke-width="1" stroke-linecap="butt"/><path d="M207.3,212.7v-65.4h65.4v65.4z" fill="none" stroke="none" stroke-width="0" stroke-linecap="butt"/><g fill="none"><g><path d="M226.54659,170.64818c0,0 0.32362,-4.97864 0.89729,-5.16469c1.33857,-0.4341 4.00258,3.57563 4.00258,3.57563" stroke="#ffffff" stroke-width="2.5" stroke-linecap="round"/><path d="M235.37349,167.68143c0,0 0.32362,-4.97863 0.89729,-5.16468c1.33857,-0.4341 4.00258,3.57563 4.00258,3.57563" stroke="#ffffff" stroke-width="2.5" stroke-linecap="round"/><path d="M238.65613,192.58655l-1.63292,0.52956l-1.43626,-4.42872" data-paper-data="{&quot;index&quot;:null}" stroke="#ffffff" stroke-width="3" stroke-linecap="round"/><path d="M246.46575,190.12238l-1.69574,0.54994l-1.4091,-4.34497" stroke="#ffffff" stroke-width="3" stroke-linecap="round"/><path d="M231.20096,188.65053c-0.97694,-0.49835 -0.9105,-0.88088 -1.24876,-1.9239c-1.01477,-3.12908 -2.40363,-7.41163 -3.94208,-12.15545c-0.31767,-0.97953 -0.5619,-1.22583 -0.06526,-2.12792c0.49664,-0.90208 0.88117,-0.9106 1.92439,-1.24892c4.67027,-1.51459 8.95542,-2.90428 11.967,-3.88095c1.00385,-0.32556 1.27068,-0.60328 2.19024,-0.08548c0.91956,0.51781 0.93423,0.95404 1.28768,2.04389c1.49074,4.59672 2.76929,8.53915 3.81984,11.77854c0.35019,1.07979 0.62732,1.35555 0.14858,2.38483c-0.47874,1.02928 -0.81968,0.89066 -1.82353,1.21622c-1.00385,0.32556 -8.83734,2.86599 -11.96699,3.88096c-1.04322,0.33832 -1.31415,0.61652 -2.2911,0.11818z" stroke="#3396ff" stroke-width="2.5" stroke-linecap="butt"/></g><g stroke="#ffffff" stroke-width="2.5" stroke-linecap="round"><path d="M229.26642,177.35435l6.46366,-0.26311"/></g><g stroke="#ffffff" stroke-width="2.5" stroke-linecap="round"><path d="M242.63258,174.0614l-4.55564,2.4404"/></g></g><path d="M231.52989,181.04092c0,-0.69036 0.55964,-1.25 1.25,-1.25c0.69036,0 1.25,0.55964 1.25,1.25c0,0.69036 -0.55964,1.25 -1.25,1.25c-0.69036,0 -1.25,-0.55964 -1.25,-1.25z" fill="#ffffff" stroke="none" stroke-width="0.5" stroke-linecap="butt"/><path d="M240.71241,178.52666c0,-0.69036 0.55964,-1.25 1.25,-1.25c0.69036,0 1.25,0.55964 1.25,1.25c0,0.69036 -0.55964,1.25 -1.25,1.25c-0.69036,0 -1.25,-0.55964 -1.25,-1.25z" fill="#ffffff" stroke="none" stroke-width="0.5" stroke-linecap="butt"/><text transform="translate(238.65603,190.96368) scale(0.22318,0.22318)" font-size="40" xml:space="preserve" fill="#ff5757" fill-rule="nonzero" stroke="#ff0000" stroke-width="3" stroke-linecap="butt" stroke-linejoin="miter" stroke-miterlimit="10" stroke-dasharray="" stroke-dashoffset="0" font-family="Sans Serif" font-weight="normal" text-anchor="start" style="mix-blend-mode: normal"><tspan x="0" dy="0">&gt;:C</tspan></text></g></g></svg>