<svg version="1.1" xmlns="http://www.w3.org/2000/svg" xmlns:xlink="http://www.w3.org/1999/xlink" width="65.4" height="65.4" viewBox="0,0,65.4,65.4"><g transform="translate(-207.1,-147.7)"><g data-paper-data="{&quot;isPaintingLayer&quot;:true}" fill-rule="nonzero" stroke-linecap="butt" stroke-linejoin="miter" stroke-miterlimit="10" stroke-dasharray="" stroke-dashoffset="0" style="mix-blend-mode: normal"><path d="M239.84627,195.14667c-1.38376,-0.01949 -1.52182,-0.48956 -2.48623,-1.48171c-2.89325,-2.97646 -6.85303,-7.05013 -11.23932,-11.56258c-0.90571,-0.93176 -1.3195,-1.07442 -1.26021,-2.37248c0.05929,-1.29806 0.48984,-1.52209 1.48218,-2.48668c4.44248,-4.31828 8.51863,-8.28047 11.38331,-11.06507c0.95489,-0.9282 1.10212,-1.39135 2.43176,-1.31784c1.32965,0.07351 1.58947,0.55916 2.59718,1.59586c4.25028,4.37253 7.89557,8.12265 10.89082,11.20405c0.99841,1.02713 1.46589,1.1848 1.49777,2.61687c0.03188,1.43207 -0.43135,1.46523 -1.38625,2.39343c-0.95489,0.9282 -8.40631,8.17129 -11.38331,11.06507c-0.99234,0.9646 -1.14394,1.43058 -2.5277,1.41109z" fill="#242315" stroke="#ffffff" stroke-width="1"/><path d="M239.84626,194.89024c-1.38376,-0.01949 -1.52182,-0.48956 -2.48623,-1.48171c-2.89325,-2.97646 -6.85303,-7.05013 -11.23932,-11.56258c-0.90571,-0.93176 -1.3195,-1.07442 -1.26021,-2.37248c0.05929,-1.29806 0.48984,-1.52209 1.48218,-2.48668c4.44248,-4.31828 8.51863,-8.28047 11.38331,-11.06507c0.95489,-0.9282 1.10212,-1.39135 2.43176,-1.31784c1.32965,0.07351 1.58947,0.55916 2.59718,1.59586c4.25028,4.37253 7.89557,8.12265 10.89082,11.20405c0.99841,1.02713 1.46589,1.1848 1.49777,2.61687c0.03188,1.43207 -0.43135,1.46523 -1.38625,2.39343c-0.95489,0.9282 -8.40631,8.17129 -11.38331,11.06507c-0.99234,0.9646 -1.14394,1.43058 -2.5277,1.41109z" fill="none" stroke="#ffffff" stroke-width="1"/><path d="M207.1,213.1v-65.4h65.4v65.4z" fill="none" stroke="none" stroke-width="0"/><path d="M249.08601,177.19477c0,0 -0.32116,-1.50395 -0.78138,-2.06459c-0.34384,-0.41886 -1.73407,-0.99969 -1.73407,-0.99969c0,0 1.30753,-0.55623 1.7813,-1.04529c0.43352,-0.4475 0.95131,-1.77547 0.95131,-1.77547c0,0 0.29127,1.2671 0.71829,1.78729c0.41084,0.50048 1.79716,1.27699 1.79716,1.27699c0,0 -1.4668,0.21011 -1.81529,0.56984c-0.50382,0.52007 -0.91732,2.25092 -0.91732,2.25092z" fill="#fffb85" stroke="#fff5af" stroke-width="1.5"/><path d="M249.21008,186.2676c-0.2747,0.27457 -0.72021,0.27424 -0.99471,-0.00072c-0.2747,-0.27484 -0.27437,-0.72023 0.00072,-0.99492c1.0854,-1.08382 2.50561,-2.50189 2.50561,-2.50189c0.27484,-0.2745 0.7203,-0.27417 0.99485,0.00072c0,0 1.64345,1.64564 2.52215,2.52577c0.27457,0.2749 0.27417,0.72021 -0.00072,0.99491c-0.2749,0.27457 -0.72028,0.27424 -0.99485,-0.00072c-1.08375,-1.0854 -1.32152,-1.32068 -1.32152,-1.32068c0,0 -0.004,3.50194 -0.00491,4.74556c-0.00029,0.38856 -0.3154,0.70329 -0.70396,0.703c-0.3885,-0.00029 -0.70329,-0.31549 -0.70301,-0.70402c0.00108,-1.48333 0.00486,-4.74938 0.00486,-4.74938c0,0 -0.42411,0.42355 -1.3045,1.30239z" fill="#66ff13" stroke="#10cb0e" stroke-width="1.15823"/><path d="M232.26127,170.8226c-0.21367,0.21357 -0.56021,0.21332 -0.77373,-0.00056c-0.21367,-0.21378 -0.21342,-0.56023 0.00056,-0.7739c0.84427,-0.84304 1.94897,-1.94607 1.94897,-1.94607c0.21378,-0.21352 0.56028,-0.21326 0.77385,0.00056c0,0 1.27835,1.28004 1.96184,1.96465c0.21357,0.21382 0.21326,0.56021 -0.00057,0.77388c-0.21382,0.21357 -0.56027,0.21332 -0.77384,-0.00057c-0.84299,-0.84427 -1.02794,-1.02728 -1.02794,-1.02728c0,0 -0.00312,2.72396 -0.00382,3.6913c-0.00022,0.30223 -0.24533,0.54704 -0.54757,0.54682c-0.30219,-0.00022 -0.54705,-0.24539 -0.54683,-0.54762c0.00084,-1.1538 0.00378,-3.69428 0.00378,-3.69428c0,0 -0.3299,0.32945 -1.0147,1.01305z" fill="#66ff13" stroke="#10cb0e" stroke-width="1.15823"/><g stroke-width="1.5"><path d="M242.12175,168.12635c0.0388,-0.36085 0.42883,-1.847 0.48047,-2.01074c0.19448,-0.61655 1.3195,-0.81125 2.51283,-0.43485c0.97394,0.3072 2.11579,0.82397 1.8086,1.7979c0,0 -0.46448,1.4415 -0.75268,1.58221c-0.51202,0.25001 -2.05549,-0.21104 -2.05549,-0.21104z" fill="none" stroke="#dfb035"/><path d="M231.6555,187.73285c-2.46397,-4.22929 -1.03291,-9.65526 3.19639,-12.11922c1.2976,-0.75598 2.70786,-1.1453 4.11064,-1.19965c0.8221,-0.03185 1.70088,-6.82118 2.49368,-6.6293c0.67545,0.16347 5.00183,0.58259 5.33128,1.92928c0.22178,0.90656 -2.33824,6.30337 -1.8422,6.71134c0.79027,0.64996 1.48057,1.44882 2.02582,2.38471c2.46397,4.22929 1.03291,9.65526 -3.19639,12.11923c-4.22929,2.46397 -9.65526,1.03291 -12.11922,-3.19639z" fill="none" stroke="#e7e7e7"/><path d="M246.70634,183.08475c-0.03369,4.04331 -3.33876,7.29374 -7.38206,7.26005c-4.04331,-0.03369 -7.29374,-3.33876 -7.26005,-7.38206" fill="#fffb97" stroke="#ffe519"/><path d="M246.62287,182.82716c-0.00966,1.15861 -3.27606,2.0707 -7.29572,2.0372c-4.01967,-0.0335 -7.27042,-0.99989 -7.26077,-2.15851c0.00966,-1.15861 3.27606,-2.07069 7.29573,-2.03719c4.01967,0.0335 7.27042,0.99989 7.26076,2.1585z" fill="#fffb97" stroke="#ffe519"/></g><path d="M230.60633,188.42867c0,0 -0.60118,-2.81529 -1.46269,-3.86477c-0.64364,-0.78407 -3.24605,-1.87134 -3.24605,-1.87134c0,0 2.44759,-1.04123 3.33445,-1.95671c0.81152,-0.8377 1.78079,-3.32356 1.78079,-3.32356c0,0 0.54524,2.37192 1.34459,3.34567c0.76906,0.93686 3.36415,2.39044 3.36415,2.39044c0,0 -2.74574,0.39331 -3.39808,1.0667c-0.94311,0.97354 -1.71717,4.21357 -1.71717,4.21357z" fill="#fffb85" stroke="#fff5af" stroke-width="2"/></g></g></svg>