<svg version="1.1" xmlns="http://www.w3.org/2000/svg" xmlns:xlink="http://www.w3.org/1999/xlink" width="65.4" height="65.4" viewBox="0,0,65.4,65.4"><defs><radialGradient cx="240.24943" cy="179.94222" r="13.68348" gradientUnits="userSpaceOnUse" id="color-1"><stop offset="0" stop-color="#6a00ff"/><stop offset="1" stop-color="#6a00ff" stop-opacity="0"/></radialGradient></defs><g transform="translate(-207.1,-147.7)"><g data-paper-data="{&quot;isPaintingLayer&quot;:true}" fill-rule="nonzero" stroke-linejoin="miter" stroke-miterlimit="10" stroke-dasharray="" stroke-dashoffset="0" style="mix-blend-mode: normal"><path d="M239.84627,195.14667c-1.38376,-0.01949 -1.52182,-0.48956 -2.48623,-1.48171c-2.89325,-2.97646 -6.85303,-7.05013 -11.23932,-11.56258c-0.90571,-0.93176 -1.3195,-1.07442 -1.26021,-2.37248c0.05929,-1.29806 0.48984,-1.52209 1.48218,-2.48668c4.44248,-4.31828 8.51863,-8.28047 11.38331,-11.06507c0.95489,-0.9282 1.10212,-1.39135 2.43176,-1.31784c1.32965,0.07351 1.58947,0.55916 2.59718,1.59586c4.25028,4.37253 7.89557,8.12265 10.89082,11.20405c0.99841,1.02713 1.46589,1.1848 1.49777,2.61687c0.03188,1.43207 -0.43135,1.46523 -1.38625,2.39343c-0.95489,0.9282 -8.40631,8.17129 -11.38331,11.06507c-0.99234,0.9646 -1.14394,1.43058 -2.5277,1.41109z" fill="#1c1524" stroke="#ffffff" stroke-width="1" stroke-linecap="butt"/><path d="M239.84626,194.89024c-1.38376,-0.01949 -1.52182,-0.48956 -2.48623,-1.48171c-2.89325,-2.97646 -6.85303,-7.05013 -11.23932,-11.56258c-0.90571,-0.93176 -1.3195,-1.07442 -1.26021,-2.37248c0.05929,-1.29806 0.48984,-1.52209 1.48218,-2.48668c4.44248,-4.31828 8.51863,-8.28047 11.38331,-11.06507c0.95489,-0.9282 1.10212,-1.39135 2.43176,-1.31784c1.32965,0.07351 1.58947,0.55916 2.59718,1.59586c4.25028,4.37253 7.89557,8.12265 10.89082,11.20405c0.99841,1.02713 1.46589,1.1848 1.49777,2.61687c0.03188,1.43207 -0.43135,1.46523 -1.38625,2.39343c-0.95489,0.9282 -8.40631,8.17129 -11.38331,11.06507c-0.99234,0.9646 -1.14394,1.43058 -2.5277,1.41109z" fill="none" stroke="#ffffff" stroke-width="1" stroke-linecap="butt"/><path d="M207.1,213.1v-65.4h65.4v65.4z" fill="none" stroke="none" stroke-width="0" stroke-linecap="butt"/><path d="M226.56595,179.94222c0,-7.55718 6.1263,-13.68348 13.68348,-13.68348c7.55718,0 13.68348,6.1263 13.68348,13.68348c0,7.55718 -6.1263,13.68348 -13.68348,13.68348c-7.55718,0 -13.68348,-6.1263 -13.68348,-13.68348z" fill="url(#color-1)" stroke="#8719ff" stroke-width="0" stroke-linecap="butt"/><path d="M237.91726,173.98951c0.29303,-2.14503 -1.28943,-5.39549 -1.28943,-5.39549c0,0 3.10227,0.15002 5.33384,3.46102c2.03275,3.01601 1.72152,4.26855 2.02935,5.77224c0.11224,0.54824 0.11744,0.1081 0.11744,0.1081c0,0 0.7921,-0.57879 1.12312,-1.25693c0.33102,-0.67814 0.41254,-1.88908 0.41254,-1.88908c0,0 2.6529,5.18881 2.02869,7.89684c-0.61955,2.68781 -0.20698,2.0243 -1.73118,4.32321c-0.92626,1.21955 -3.84565,2.75963 -5.91233,2.79629c-2.16998,0.03683 -5.8086,-0.95879 -6.61101,-2.41081c-1.89416,-2.62234 -2.08627,-5.02954 -1.49008,-7.83075c0.79876,-3.75307 3.21642,-4.833 3.21642,-4.833c0,0 -0.50261,1.96757 0.22246,3.09165c0,0 2.25714,-1.68825 2.55017,-3.83328z" data-paper-data="{&quot;index&quot;:null}" fill="#39005d" stroke="#5c1390" stroke-width="1.5" stroke-linecap="round"/><path d="M238.65888,180.51788c-0.14031,-0.81447 -0.76252,-2.63375 -0.76252,-2.63375c0,0 1.1284,-0.04531 1.98343,0.61678c0.85503,0.66208 1.65168,2.22491 1.65168,2.22491c0,0 0.30463,-0.91145 1.02287,-1.30817c0.9742,-0.53807 1.71411,0.02286 1.71411,0.02286c0,0 -0.29558,0.21743 -0.66326,1.81256c-0.17222,0.74716 0.31822,2.99982 0.36341,3.14655c0.32016,1.02821 0.16687,2.16729 -0.42821,3.06483c-0.5456,0.71835 -2.26524,1.62552 -3.48258,1.64712c-1.2782,0.0217 -3.42148,-0.56477 -3.89413,-1.42006c-1.11573,-1.54466 -0.81594,-3.582 -0.46477,-5.23202c0.4705,-2.2107 1.48165,-2.2274 1.48165,-2.2274c0,0 -0.29606,1.15896 0.13103,1.82109c0.39855,0.61789 1.05882,0.23171 1.05882,0.23171c0,0 0.40326,-1.10069 0.28847,-1.767z" data-paper-data="{&quot;index&quot;:null}" fill="#22073c" stroke="#ff2222" stroke-width="0" stroke-linecap="round"/><path d="M238.77314,184.92833c0,0 0.21045,-0.57441 0.15055,-0.92215c-0.07322,-0.42505 -0.39794,-1.37448 -0.39794,-1.37448c0,0 0.58888,-0.02364 1.0351,0.32188c0.44622,0.34552 0.86197,1.16111 0.86197,1.16111c0,0 0.15898,-0.47567 0.53381,-0.68269c0.50841,-0.28081 0.89455,0.01193 0.89455,0.01193c0,0 -0.15426,0.11347 -0.34614,0.94592c-0.08988,0.38992 0.16607,1.56552 0.18965,1.6421c0.16708,0.5366 0.08709,1.13104 -0.22346,1.59945c-0.28474,0.3749 -1.18216,0.84832 -1.81746,0.85959c-0.66706,0.01132 -1.78558,-0.29475 -2.03224,-0.7411c-0.58227,-0.80611 -0.42582,-1.86935 -0.24255,-2.73044c0.24554,-1.1537 0.77323,-1.16242 0.77323,-1.16242c0,0 -0.1545,0.60483 0.06839,0.95038c0.208,0.32246 0.55257,0.12092 0.55257,0.12092z" data-paper-data="{&quot;index&quot;:null}" fill="#000000" stroke="#ff2222" stroke-width="0" stroke-linecap="round"/><g stroke="#0045cf" stroke-width="1.4"><path d="M238.06054,186.38955l-4.29196,-8.32191c0,0 0.59938,-1.2855 1.70137,-2.30312c0.8699,-0.80331 2.21002,-1.30883 2.72946,-1.78851c0.78044,-0.72069 1.9466,-1.79757 1.9466,-1.79757c0,0 0.61766,0.29247 0.89929,0.60934c0.28163,0.31688 0.02566,0.32971 0.66691,1.15289c0.12004,0.15409 0.87638,0.31579 1.01619,0.48264c0.28785,0.34353 -0.01341,0.70893 0.32156,1.07486c0.20127,0.21987 0.68437,0.24229 0.88838,0.47092c0.31575,0.35384 0.35059,0.91089 0.64022,1.20617c0.31642,0.32259 0.74429,0.185 0.97995,0.40617c0.37549,0.3524 0.40726,1.25222 0.40726,1.25222l-0.61998,0.4121c0,0 -1.98801,5.9863 -4.31316,7.19174c-1.11114,0.57606 -2.97209,-0.04795 -2.97209,-0.04795z" fill="#000000" stroke-linecap="butt"/><path d="M241.32554,174.2492l-1.5278,1.5278l1.80559,1.80559l-1.45836,1.45836l-2.22226,-1.25002" fill="#000000" stroke-linecap="round"/><path d="M241.25609,177.09647l1.35419,-1.35419" fill="#000000" stroke-linecap="round"/><path d="M244.1728,177.37425l-2.2917,2.2917" fill="#000000" stroke-linecap="round"/><path d="M240.04079,175.95062l-1.90975,-1.90975" fill="#000000" stroke-linecap="round"/><path d="M245.83949,178.83261l-2.63893,2.50004l-2.36115,-2.22226" fill="none" stroke-linecap="round"/><path d="M242.71171,184.62347v4.42036h-5.55564v-4.44451" fill="#000000" stroke-linecap="round"/></g></g></g></svg>