<svg version="1.1" xmlns="http://www.w3.org/2000/svg" xmlns:xlink="http://www.w3.org/1999/xlink" width="19.08315" height="25.44423" viewBox="0,0,19.08315,25.44423"><g transform="translate(-230.45435,-166.0904)"><g data-paper-data="{&quot;isPaintingLayer&quot;:true}" fill-rule="nonzero" stroke-linejoin="miter" stroke-miterlimit="10" stroke-dasharray="" stroke-dashoffset="0" style="mix-blend-mode: normal"><path d="M235.45435,176.18945c0,0 -2.15,2.26134 -2.15,3.16346c0,0.8656 2.15,4.01923 2.15,4.01923l-1.14185,2.8625" fill="none" stroke="#728e9e" stroke-width="2" stroke-linecap="round"/><path d="M245.36251,185.69714l-2.04402,-2.175c0,0 1.575,-2.91587 1.575,-3.68173c0,-0.88384 -1.575,-3.19327 -1.575,-3.19327" fill="none" stroke="#728e9e" stroke-width="2" stroke-linecap="round"/><path d="M233.35435,178.03945c0,0 -1.9,2.38634 -1.9,3.28846c0,0.8656 1.9,3.89423 1.9,3.89423l-1.89185,1.8625" fill="none" stroke="#84a4b7" stroke-width="2" stroke-linecap="round"/><path d="M248.5375,188.07214l-2.23152,-2.675c0,0 1.8875,-2.35337 1.8875,-3.11923c0,-0.88384 -1.8875,-3.75577 -1.8875,-3.75577" fill="none" stroke="#84a4b7" stroke-width="2" stroke-linecap="round"/><path d="M235.55436,180.55195c0,0 -1.4,2.63634 -1.4,3.53846c0,0.8656 1.4,3.64423 1.4,3.64423l-2.07936,2.675" fill="none" stroke="#98bdd3" stroke-width="2" stroke-linecap="round"/><path d="M245.1875,190.53464l-1.66902,-2.8625c0,0 1.7,-3.10337 1.7,-3.86923c0,-0.88384 -1.7,-3.00577 -1.7,-3.00577" fill="none" stroke="#98bdd3" stroke-width="2" stroke-linecap="round"/><path d="M247.80962,173.96541c0,2.06346 0.93722,4.60955 -0.66132,5.91072c-1.44988,1.18017 -5.26693,1.71428 -7.40118,1.71428c-2.41861,0 -5.9029,-0.36422 -7.39131,-1.83482c-1.27307,-1.25784 -0.79619,-3.97609 -0.79619,-5.79018c0,-2.25509 0.81969,-4.51549 2.68434,-5.82103c1.38907,-0.97257 3.52494,-1.30397 5.44066,-1.30397c2.12402,0 4.43269,0.21471 5.88031,1.38485c1.6107,1.30195 2.24469,3.66772 2.24469,5.74015z" fill="#1c304b" stroke="#a1c8e0" stroke-width="1.5" stroke-linecap="butt"/><path d="M233.535,173.95301c0,-0.69036 0.55964,-1.25 1.25,-1.25c0.69036,0 1.25,0.55964 1.25,1.25c0,0.69036 -0.55964,1.25 -1.25,1.25c-0.69036,0 -1.25,-0.55964 -1.25,-1.25z" fill="none" stroke="#a1c8e0" stroke-width="1" stroke-linecap="butt"/><path d="M243.41,173.89051c0,-0.69036 0.55964,-1.25 1.25,-1.25c0.69036,0 1.25,0.55964 1.25,1.25c0,0.69036 -0.55964,1.25 -1.25,1.25c-0.69036,0 -1.25,-0.55964 -1.25,-1.25z" fill="none" stroke="#a1c8e0" stroke-width="1" stroke-linecap="butt"/><path d="M241.8475,174.32801l-1.0625,0.5625l-1.125,-0.5625l-1,0.52941l-1,-0.52941" fill="none" stroke="#a1c8e0" stroke-width="1.5" stroke-linecap="round"/><path d="M235.785,169.70301l0.53125,0.53125" fill="none" stroke="#a1c8e0" stroke-width="1.5" stroke-linecap="round"/><path d="M243.81625,169.57801l-0.53125,0.53125" data-paper-data="{&quot;index&quot;:null}" fill="none" stroke="#a1c8e0" stroke-width="1.5" stroke-linecap="round"/></g></g></svg>