<svg version="1.1" xmlns="http://www.w3.org/2000/svg" xmlns:xlink="http://www.w3.org/1999/xlink" width="60.11112" height="59.66667" viewBox="0,0,60.11112,59.66667"><defs><linearGradient x1="240" y1="166.72802" x2="240" y2="193.27198" gradientUnits="userSpaceOnUse" id="color-1"><stop offset="0" stop-color="#3a801d"/><stop offset="1" stop-color="#1d8075"/></linearGradient><linearGradient x1="240" y1="166.72802" x2="240" y2="193.27198" gradientUnits="userSpaceOnUse" id="color-2"><stop offset="0" stop-color="#30fc8e"/><stop offset="1" stop-color="#2d35f7"/></linearGradient><linearGradient x1="239.99985" y1="167.80233" x2="239.99985" y2="192.19722" gradientUnits="userSpaceOnUse" id="color-3"><stop offset="0" stop-color="#2c4bb8"/><stop offset="1" stop-color="#50ab60"/></linearGradient><linearGradient x1="239.99985" y1="167.80233" x2="239.99985" y2="192.19722" gradientUnits="userSpaceOnUse" id="color-4"><stop offset="0" stop-color="#fd315e"/><stop offset="1" stop-color="#872df7"/></linearGradient><linearGradient x1="240.25463" y1="167.27553" x2="240.25463" y2="195.04463" gradientTransform="translate(-390.08333,-312.60993) scale(1.6619,1.6619)" gradientUnits="userSpaceOnUse" id="color-5"><stop offset="0" stop-color="#ff3333"/><stop offset="1" stop-color="#f129ff"/></linearGradient><linearGradient x1="240.25463" y1="167.27553" x2="240.25463" y2="195.04463" gradientTransform="translate(-390.08333,-312.60993) scale(1.6619,1.6619)" gradientUnits="userSpaceOnUse" id="color-6"><stop offset="0" stop-color="#fd314e"/><stop offset="1" stop-color="#f52cca"/></linearGradient></defs><g transform="translate(-210.22222,-150.11111)"><g data-paper-data="{&quot;isPaintingLayer&quot;:true}" fill-rule="nonzero" stroke-linecap="butt" stroke-linejoin="miter" stroke-miterlimit="10" stroke-dasharray="" stroke-dashoffset="0" style="mix-blend-mode: normal"><path d="M210.22222,209.77778v-59.55556h59.55556v59.55556z" fill="none" stroke="none" stroke-width="0"/><path d="M235.1987,191.43341c-1.97404,-3.12761 -4.67577,-7.40814 -7.66849,-12.14974c-0.61795,-0.97908 -0.95241,-1.17965 -0.66166,-2.30033c0.29075,-1.12068 0.70735,-1.23668 1.75008,-1.89481c4.66808,-2.94632 8.95122,-5.64969 11.96137,-7.5496c1.00339,-0.63331 1.21703,-1.00993 2.36262,-0.70097c1.1456,0.30897 1.28265,0.78018 1.97021,1.86953c2.89993,4.59457 5.38708,8.53513 7.4307,11.77301c0.6812,1.07928 1.0597,1.30284 0.82374,2.55712c-0.23595,1.25429 -0.64588,1.19789 -1.64928,1.83119c-1.00339,0.63331 -8.8332,5.57519 -11.96138,7.54959c-1.04274,0.65814 -1.26071,1.03645 -2.46343,0.7646c-1.20272,-0.27185 -1.89448,-1.74959 -1.89448,-1.74959z" fill="url(#color-1)" stroke="url(#color-2)" stroke-width="1"/><path d="M240.65536,191.43066c-2.91697,-1.78553 -6.90921,-4.22924 -11.33145,-6.93617c-0.91314,-0.55895 -1.27255,-0.58837 -1.49013,-1.63665c-0.21758,-1.04828 0.08039,-1.31498 0.67568,-2.28748c2.66496,-4.35368 5.11017,-8.34834 6.82864,-11.15577c0.57282,-0.93581 0.59583,-1.33555 1.67222,-1.54823c1.0764,-0.21267 1.3829,0.12197 2.39888,0.74388c4.28512,2.623 7.96028,4.87263 10.98008,6.72111c1.00659,0.61615 1.41194,0.64662 1.72964,1.78326c0.31769,1.13664 -0.04531,1.25765 -0.61814,2.19346c-0.57282,0.93581 -5.0428,8.23827 -6.82864,11.15577c-0.59529,0.97251 -0.6212,1.37541 -1.72977,1.64224c-1.10857,0.26683 -2.28701,-0.67542 -2.28701,-0.67542z" fill="url(#color-3)" stroke="url(#color-4)" stroke-width="1"/><path d="M235.85714,197.57143v-8.85714h8.85714v8.85714z" fill="none" stroke="none" stroke-width="0"/><path d="M210.77778,209.66667v-59.55556h59.55556v59.55556z" fill="none" stroke="none" stroke-width="0"/><text transform="translate(234.72094,188.10365) scale(0.60172,0.60172)" font-size="40" xml:space="preserve" data-paper-data="{&quot;index&quot;:null}" fill="url(#color-5)" fill-rule="nonzero" stroke="url(#color-6)" stroke-width="1" stroke-linecap="butt" stroke-linejoin="miter" stroke-miterlimit="10" stroke-dasharray="" stroke-dashoffset="0" font-family="Serif" font-weight="normal" text-anchor="start" style="mix-blend-mode: normal"><tspan x="0" dy="0">?</tspan></text></g></g></svg>