<svg version="1.1" xmlns="http://www.w3.org/2000/svg" xmlns:xlink="http://www.w3.org/1999/xlink" width="26.3507" height="26.3507" viewBox="0,0,26.3507,26.3507"><g transform="translate(-226.82465,-166.82465)"><g data-paper-data="{&quot;isPaintingLayer&quot;:true}" fill-rule="nonzero" stroke-linejoin="miter" stroke-miterlimit="10" stroke-dasharray="" stroke-dashoffset="0" style="mix-blend-mode: normal"><path d="M238.74214,179.61716h1.10938c1.04167,-0.02083 1.88021,-0.29687 2.51562,-0.82812c0.64583,-0.53125 0.96875,-1.21354 0.96875,-2.04687c0,-0.9375 -0.28646,-1.68229 -0.85937,-2.23437c-0.57291,-0.55208 -1.36979,-0.82812 -2.39062,-0.82812c-1,0 -1.82292,0.29167 -2.46875,0.875c-0.63542,0.58333 -0.95312,1.34896 -0.95312,2.29688h-0.5c0,-0.70833 0.16667,-1.33854 0.5,-1.89062c0.34375,-0.5625 0.81771,-1 1.42188,-1.3125c0.60417,-0.3125 1.27083,-0.46875 2,-0.46875c1.14583,0 2.05208,0.32813 2.71875,0.98438c0.67708,0.64583 1.01563,1.52083 1.01563,2.625c0,0.69792 -0.22396,1.32813 -0.67187,1.89063c-0.4375,0.55208 -1.03646,0.94271 -1.79687,1.17188c0.86458,0.19792 1.54166,0.57292 2.03125,1.125c0.48958,0.55208 0.73438,1.26563 0.73438,2.14063c0,1.125 -0.36458,2.02604 -1.09375,2.70313c-0.71875,0.66667 -1.67187,1 -2.85937,1c-0.80208,0 -1.54167,-0.17187 -2.21875,-0.51562c-0.67708,-0.35417 -1.19271,-0.8125 -1.54687,-1.375c-0.34375,-0.57292 -0.51562,-1.23437 -0.51562,-1.98437h0.5c0,0.96875 0.35417,1.77604 1.0625,2.42188c0.71875,0.63542 1.625,0.95313 2.71875,0.95313c1.08333,0 1.93229,-0.28125 2.54687,-0.84375c0.61458,-0.5625 0.92188,-1.33854 0.92188,-2.32812c0,-0.97917 -0.32812,-1.72396 -0.98437,-2.23437c-0.65625,-0.52083 -1.60937,-0.78125 -2.85937,-0.78125h-1.04687z" fill="#ffffff" stroke="#ffffff" stroke-width="1" stroke-linecap="square"/><path d="M226.82465,193.17535v-26.3507h26.3507v26.3507z" fill="none" stroke="none" stroke-width="0" stroke-linecap="butt"/></g></g></svg>