<svg version="1.1" xmlns="http://www.w3.org/2000/svg" xmlns:xlink="http://www.w3.org/1999/xlink" width="56.83333" height="56.83333" viewBox="0,0,56.83333,56.83333"><g transform="translate(-211.58341,-151.58336)"><g data-paper-data="{&quot;isPaintingLayer&quot;:true}" fill-rule="nonzero" stroke="none" stroke-width="0" stroke-linecap="butt" stroke-linejoin="miter" stroke-miterlimit="10" stroke-dasharray="" stroke-dashoffset="0" style="mix-blend-mode: normal"><path d="M211.58342,208.41669v-56.83333h56.83333v56.83333z" fill="none"/><path d="M232.76484,192.28926c0,0.91564 -1.17019,1.65792 -2.61369,1.65792c-1.4435,0 -2.61369,-0.74227 -2.61369,-1.65792c0,-0.91564 1.17019,-1.65792 2.61369,-1.65792c1.4435,0 2.61369,0.74227 2.61369,1.65792z" fill="#000000"/><path d="M242.57949,192.28925c0,0.91564 -1.17019,1.65792 -2.61369,1.65792c-1.4435,0 -2.61369,-0.74227 -2.61369,-1.65792c0,-0.91564 1.17019,-1.65792 2.61369,-1.65792c1.4435,0 2.61369,0.74227 2.61369,1.65792z" fill="#000000"/><path d="M252.28748,192.28925c0,0.91564 -1.17019,1.65792 -2.61369,1.65792c-1.4435,0 -2.61369,-0.74227 -2.61369,-1.65792c0,-0.91564 1.17019,-1.65792 2.61369,-1.65792c1.4435,0 2.61369,0.74227 2.61369,1.65792z" fill="#000000"/><path d="M237.88984,183.20675c0,0.91564 -1.17019,1.65792 -2.61369,1.65792c-1.4435,0 -2.61369,-0.74227 -2.61369,-1.65792c0,-0.91564 1.17019,-1.65792 2.61369,-1.65792c1.4435,0 2.61369,0.74227 2.61369,1.65792z" fill="#000000"/><path d="M247.70449,183.20675c0,0.91564 -1.17019,1.65792 -2.61368,1.65792c-1.4435,0 -2.61369,-0.74227 -2.61369,-1.65792c0,-0.91564 1.17019,-1.65792 2.61369,-1.65792c1.4435,0 2.61368,0.74227 2.61368,1.65792z" fill="#000000"/><path d="M257.41247,183.20675c0,0.91564 -1.17019,1.65792 -2.61369,1.65792c-1.4435,0 -2.61369,-0.74227 -2.61369,-1.65792c0,-0.91564 1.17019,-1.65792 2.61369,-1.65792c1.44349,0 2.61369,0.74227 2.61369,1.65792z" fill="#000000"/><path d="M232.88984,173.98009c0,0.91564 -1.17019,1.65792 -2.61369,1.65792c-1.4435,0 -2.61369,-0.74227 -2.61369,-1.65792c0,-0.91564 1.17019,-1.65792 2.61369,-1.65792c1.4435,0 2.61369,0.74227 2.61369,1.65792z" fill="#000000"/><path d="M242.70449,173.98009c0,0.91564 -1.17019,1.65792 -2.61368,1.65792c-1.4435,0 -2.61369,-0.74227 -2.61369,-1.65792c0,-0.91564 1.17019,-1.65792 2.61369,-1.65792c1.4435,0 2.61368,0.74227 2.61368,1.65792z" fill="#000000"/><path d="M252.41248,173.98009c0,0.91564 -1.17019,1.65792 -2.61369,1.65792c-1.44349,0 -2.61369,-0.74227 -2.61369,-1.65792c0,-0.91564 1.17019,-1.65792 2.61369,-1.65792c1.44349,0 2.61369,0.74227 2.61369,1.65792z" fill="#000000"/><path d="M227.78748,183.20675c0,0.91564 -1.17019,1.65792 -2.61369,1.65792c-1.44349,0 -2.61369,-0.74227 -2.61369,-1.65792c0,-0.91564 1.17019,-1.65792 2.61369,-1.65792c1.44349,0 2.61369,0.74227 2.61369,1.65792z" fill="#000000"/><path d="M226.59104,183.8795c0.05351,1.38335 -2.80698,1.35075 -2.78571,0c0.00533,-0.33856 1.39286,-3.22697 1.39286,-3.22697c0,0 1.38513,3.02721 1.39286,3.22697z" fill="#ffffff"/><path d="M231.51961,192.8795c0.05351,1.38335 -2.80698,1.35074 -2.78571,0c0.00533,-0.33856 1.39285,-3.22696 1.39285,-3.22696c0,0 1.38513,3.02721 1.39286,3.22696z" fill="#ffffff"/><path d="M231.37675,174.66521c0.05351,1.38335 -2.80698,1.35074 -2.78571,0c0.00533,-0.33856 1.39285,-3.22696 1.39285,-3.22696c0,0 1.38513,3.02721 1.39286,3.22696z" fill="#ffffff"/><path d="M236.80532,183.80807c0.05351,1.38335 -2.80698,1.35074 -2.78572,0c0.00533,-0.33856 1.39286,-3.22696 1.39286,-3.22696c0,0 1.38513,3.02721 1.39286,3.22696z" fill="#ffffff"/><path d="M241.37675,192.95092c0.05351,1.38335 -2.80698,1.35074 -2.78572,0c0.00533,-0.33856 1.39286,-3.22696 1.39286,-3.22696c0,0 1.38513,3.02721 1.39286,3.22696z" fill="#ffffff"/><path d="M241.44818,174.66521c0.05351,1.38335 -2.80698,1.35074 -2.78572,0c0.00533,-0.33856 1.39285,-3.22697 1.39285,-3.22697c0,0 1.38514,3.02721 1.39286,3.22697z" fill="#ffffff"/><path d="M246.51961,183.87949c0.05351,1.38335 -2.80698,1.35074 -2.78572,0c0.00533,-0.33856 1.39285,-3.22697 1.39285,-3.22697c0,0 1.38514,3.02721 1.39286,3.22697z" fill="#ffffff"/><path d="M251.16247,192.95093c0.05351,1.38335 -2.80698,1.35074 -2.78572,0c0.00533,-0.33856 1.39285,-3.22697 1.39285,-3.22697c0,0 1.38514,3.02721 1.39286,3.22697z" fill="#ffffff"/><path d="M251.2339,174.66521c0.05351,1.38335 -2.80698,1.35074 -2.78571,0c0.00533,-0.33856 1.39285,-3.22697 1.39285,-3.22697c0,0 1.38513,3.02721 1.39286,3.22697z" fill="#ffffff"/><path d="M256.30532,183.8795c0.05351,1.38335 -2.80698,1.35074 -2.78571,0c0.00533,-0.33856 1.39286,-3.22696 1.39286,-3.22696c0,0 1.38514,3.02721 1.39286,3.22696z" fill="#ffffff"/></g></g></svg>