<svg version="1.1" xmlns="http://www.w3.org/2000/svg" xmlns:xlink="http://www.w3.org/1999/xlink" width="506" height="385" viewBox="0,0,506,385"><defs><linearGradient x1="-13" y1="181.5" x2="99" y2="181.5" gradientUnits="userSpaceOnUse" id="color-1"><stop offset="0" stop-color="#000411"/><stop offset="1" stop-color="#000411" stop-opacity="0"/></linearGradient><linearGradient x1="493" y1="178.5" x2="381" y2="178.5" gradientUnits="userSpaceOnUse" id="color-2"><stop offset="0" stop-color="#000411"/><stop offset="1" stop-color="#000411" stop-opacity="0"/></linearGradient><linearGradient x1="238.58571" y1="368.03327" x2="238.73764" y2="273.72664" gradientUnits="userSpaceOnUse" id="color-3"><stop offset="0" stop-color="#000411"/><stop offset="1" stop-color="#000411" stop-opacity="0"/></linearGradient><linearGradient x1="241.41429" y1="-8.03327" x2="241.26236" y2="86.27336" gradientUnits="userSpaceOnUse" id="color-4"><stop offset="0" stop-color="#000411"/><stop offset="1" stop-color="#000411" stop-opacity="0"/></linearGradient></defs><g transform="translate(13,12.5)"><g data-paper-data="{&quot;isPaintingLayer&quot;:true}" fill-rule="nonzero" stroke-linecap="butt" stroke-linejoin="miter" stroke-miterlimit="10" stroke-dasharray="" stroke-dashoffset="0" style="mix-blend-mode: normal"><path d="M-11,371.5v-383h502v383z" fill="#000820" stroke="#000000" stroke-width="0.5"/><g fill="#0a0e32" stroke="#000000" stroke-width="0"><path d="M161.43333,138.54447v-37h37v37z"/><path d="M201.56667,178.45558v-37h37v37z"/><path d="M81.43333,138.54447v-37h37v37z"/><path d="M121.56667,178.45558v-37h37v37z"/><path d="M161.43333,58.54447v-37h37v37z"/><path d="M201.56667,98.45558v-37h37v37z"/><path d="M81.43333,58.54447v-37h37v37z"/><path d="M121.56667,98.45558v-37h37v37z"/><path d="M321.43333,138.54447v-37h37v37z"/><path d="M361.56667,178.45558v-37h37v37z"/><path d="M241.43333,138.54447v-37h37v37z"/><path d="M281.56667,178.45558v-37h37v37z"/><path d="M321.43333,58.54447v-37h37v37z"/><path d="M361.56667,98.45558v-37h37v37z"/><path d="M241.43333,58.54447v-37h37v37z"/><path d="M281.56667,98.45558v-37h37v37z"/><path d="M161.43333,298.54445v-37h37v37z"/><path d="M201.56667,338.45557v-37h37v37z"/><path d="M81.43333,298.54445v-37h37v37z"/><path d="M121.56667,338.45557v-37h37v37z"/><path d="M161.43333,218.54447v-37h37v37z"/><path d="M201.56667,258.45556v-37h37v37z"/><path d="M81.43333,218.54447v-37h37v37z"/><path d="M121.56667,258.45556v-37h37v37z"/><path d="M321.43333,298.54445v-37h37v37z"/><path d="M361.56667,338.45557v-37h37v37z"/><path d="M241.43333,298.54445v-37h37v37z"/><path d="M281.56667,338.45557v-37h37v37z"/><path d="M321.43333,218.54447v-37h37v37z"/><path d="M361.56667,258.45556v-37h37v37z"/><path d="M241.43333,218.54447v-37h37v37z"/><path d="M281.56667,258.45556v-37h37v37z"/></g><path d="M-13,372.5v-382h112v382z" fill="url(#color-1)" stroke="none" stroke-width="0"/><path d="M381,369.5v-382h112v382z" data-paper-data="{&quot;index&quot;:null}" fill="url(#color-2)" stroke="none" stroke-width="0"/><path d="M484.19923,368.20292l-491.22703,-0.3393l0.15192,-94.30663l491.22704,0.3393z" fill="url(#color-3)" stroke="none" stroke-width="0"/><path d="M486.87588,86.44301l-491.22704,-0.33929l0.15193,-94.30663l491.22703,0.3393z" data-paper-data="{&quot;index&quot;:null}" fill="url(#color-4)" stroke="none" stroke-width="0"/></g></g></svg>