<svg version="1.1" xmlns="http://www.w3.org/2000/svg" xmlns:xlink="http://www.w3.org/1999/xlink" width="88.25" height="88.25" viewBox="0,0,88.25,88.25"><defs><radialGradient cx="240.1875" cy="173.6875" r="18.08036" gradientUnits="userSpaceOnUse" id="color-1"><stop offset="0" stop-color="#ff0000"/><stop offset="1" stop-color="#ff0000" stop-opacity="0"/></radialGradient></defs><g transform="translate(-195.875,-135.875)"><g data-paper-data="{&quot;isPaintingLayer&quot;:true}" fill-rule="nonzero" stroke-linejoin="miter" stroke-miterlimit="10" stroke-dasharray="" stroke-dashoffset="0" style="mix-blend-mode: normal"><path d="M226.35729,188.0394v-4.375l13.625,0.5l-0.25,2.875z" fill="none" stroke="#8e5a39" stroke-width="1.5" stroke-linecap="butt"/><path d="M238.72242,183.59528l0.74965,-2.78678l12.97241,4.19609l-1.49821,4.11047z" data-paper-data="{&quot;index&quot;:null}" fill="none" stroke="#8e5a39" stroke-width="1.5" stroke-linecap="butt"/><path d="M232.81464,195.12959l-2.78851,-3.37118l10.8175,-8.29893l1.63981,2.37469z" fill="none" stroke="#8e5a39" stroke-width="1.5" stroke-linecap="butt"/><path d="M251.10449,192.01636l-1.99764,3.89231l-11.89346,-6.66606l1.53515,-2.44365z" fill="none" stroke="#8e5a39" stroke-width="1.5" stroke-linecap="butt"/><path d="M195.875,224.125v-88.25h88.25v88.25z" fill="none" stroke="none" stroke-width="NaN" stroke-linecap="butt"/><path d="M222.10714,173.6875c0,-9.98551 8.09485,-18.08036 18.08036,-18.08036c9.98551,0 18.08036,8.09485 18.08036,18.08036c0,9.98551 -8.09485,18.08036 -18.08036,18.08036c-9.98551,0 -18.08036,-8.09485 -18.08036,-18.08036z" fill="url(#color-1)" stroke="#8719ff" stroke-width="0" stroke-linecap="butt"/><path d="M245.1813,170.88704c0.95805,-1.48528 0.29394,-4.08508 0.29394,-4.08508c0,0 3.19451,1.42695 4.24994,6.38598c0.78775,3.70132 0.53391,6.88202 -1.96889,10.34699c-1.06025,1.9186 -5.86806,3.23414 -8.73531,3.18547c-2.73075,-0.04844 -6.58823,-2.08339 -7.81212,-3.69481c-2.01396,-3.03762 -1.46882,-2.1609 -2.28745,-5.71238c-0.82479,-3.57819 2.68056,-10.43431 2.68056,-10.43431c0,0 0.10772,1.60005 0.5451,2.49609c0.43738,0.89604 1.48401,1.66081 1.48401,1.66081c0,0 0.00688,0.58158 0.15518,-0.14283c0.40675,-1.98687 -0.00449,-3.64188 2.68144,-7.62702c2.94863,-4.37491 7.04775,-4.57314 7.04775,-4.57314c0,0 -2.09095,4.29492 -1.70376,7.12921c0.38719,2.83429 3.36961,5.06502 3.36961,5.06502z" fill="#ff9400" stroke="#ff2222" stroke-width="1.5" stroke-linecap="round"/><path d="M241.54589,176.78293c0,0 0.87243,0.51028 1.39905,-0.30616c0.56433,-0.87489 0.17314,-2.40626 0.17314,-2.40626c0,0 1.33606,0.02207 1.95774,2.94313c0.46401,2.18022 0.86012,4.87221 -0.61412,6.91321c-0.62453,1.13012 -3.4565,1.90503 -5.14542,1.87636c-1.60851,-0.02853 -3.88071,-1.2272 -4.60163,-2.17638c-0.78629,-1.18595 -0.98883,-2.69105 -0.5658,-4.04965c0.05971,-0.19388 0.70774,-3.17039 0.48018,-4.15763c-0.48583,-2.10769 -0.87639,-2.39498 -0.87639,-2.39498c0,0 0.97766,-0.74117 2.2649,-0.0302c0.94904,0.52419 1.35155,1.72852 1.35155,1.72852c0,0 1.05263,-2.065 2.18241,-2.93983c1.12977,-0.87484 2.62076,-0.81497 2.62076,-0.81497c0,0 -0.82215,2.40387 -1.00754,3.48005c-0.15167,0.88042 0.38117,2.33479 0.38117,2.33479z" data-paper-data="{&quot;index&quot;:null}" fill="#ffed1d" stroke="#ff2222" stroke-width="0" stroke-linecap="round"/><path d="M240.49144,180.52578c0,0 0.4553,0.26631 0.73013,-0.15977c0.2945,-0.45658 0.09036,-1.25576 0.09036,-1.25576c0,0 0.69725,0.01152 1.02169,1.53594c0.24216,1.13779 0.44888,2.54267 -0.32049,3.60781c-0.32592,0.58977 -1.80385,0.99419 -2.68526,0.97923c-0.83944,-0.01489 -2.02523,-0.64044 -2.40146,-1.1358c-0.41035,-0.61892 -0.51604,-1.40438 -0.29527,-2.1134c0.03116,-0.10118 0.36935,-1.65454 0.25059,-2.16975c-0.25353,-1.09994 -0.45736,-1.24987 -0.45736,-1.24987c0,0 0.51021,-0.3868 1.18199,-0.01576c0.49528,0.27355 0.70534,0.90206 0.70534,0.90206c0,0 0.54934,-1.07766 1.13894,-1.53421c0.5896,-0.45655 1.3677,-0.42531 1.3677,-0.42531c0,0 -0.42906,1.25451 -0.52581,1.81614c-0.07915,0.45947 0.19892,1.21846 0.19892,1.21846z" fill="#ffffff" stroke="#ff2222" stroke-width="0" stroke-linecap="round"/><path d="M201.45,218.55v-77.1h77.1v77.1z" fill="none" stroke="none" stroke-width="NaN" stroke-linecap="butt"/></g></g></svg>