<svg version="1.1" xmlns="http://www.w3.org/2000/svg" xmlns:xlink="http://www.w3.org/1999/xlink" width="77.1" height="77.1" viewBox="0,0,77.1,77.1"><g transform="translate(-201.45,-141.45)"><g data-paper-data="{&quot;isPaintingLayer&quot;:true}" fill-rule="nonzero" stroke-linecap="butt" stroke-linejoin="miter" stroke-miterlimit="10" stroke-dasharray="" stroke-dashoffset="0" style="mix-blend-mode: normal"><path d="M211.58341,208.41669v-56.83333h56.83333v56.83333z" fill="none" stroke="none" stroke-width="0"/><path d="M233.85796,177.64772c0,-2.16521 1.75525,-3.92045 3.92045,-3.92045c1.26994,0 2.39884,0.60381 3.11529,1.54c0.69607,-0.63208 1.99541,-0.26727 3.00972,-0.26727c2.16521,0 3.54545,1.00525 3.54545,3.17045c0,0.16061 -0.00966,0.31897 -0.02843,0.47452c1.53752,0.53008 2.64207,1.9897 2.64207,3.7073c0,2.16521 -1.75525,3.92045 -3.92045,3.92045c-4.79524,0 -7.48885,-0.26137 -12.28409,-0.26137c-2.16521,0 -3.92045,-1.75525 -3.92045,-3.92045c0,-2.16521 1.75525,-3.92045 3.92045,-3.92045c0.01153,0 0.02305,0.00005 0.03456,0.00015c-0.0228,-0.17105 -0.03456,-0.34559 -0.03456,-0.52288z" fill="#234820" stroke="#1fa416" stroke-width="2"/><path d="M201.45,218.55v-77.1h77.1v77.1z" fill="none" stroke="none" stroke-width="NaN"/></g></g></svg>