<svg version="1.1" xmlns="http://www.w3.org/2000/svg" xmlns:xlink="http://www.w3.org/1999/xlink" width="26.3507" height="26.3507" viewBox="0,0,26.3507,26.3507"><g transform="translate(-226.82465,-166.82465)"><g data-paper-data="{&quot;isPaintingLayer&quot;:true}" fill-rule="nonzero" stroke-linejoin="miter" stroke-miterlimit="10" stroke-dasharray="" stroke-dashoffset="0" style="mix-blend-mode: normal"><path d="M244.13279,186.72655h-7.9375v-0.48437l4.53125,-5.23437c0.73959,-0.86459 1.28646,-1.63021 1.64063,-2.29687c0.36459,-0.67709 0.54688,-1.30209 0.54688,-1.875c0,-0.96875 -0.28125,-1.71875 -0.84375,-2.25c-0.5625,-0.54166 -1.35937,-0.8125 -2.39062,-0.8125c-0.61459,0 -1.17709,0.15104 -1.6875,0.45313c-0.51041,0.29166 -0.91146,0.70313 -1.20312,1.23438c-0.28125,0.52084 -0.42187,1.10416 -0.42187,1.75h-0.5c0,-0.70834 0.16146,-1.36459 0.48438,-1.96875c0.33334,-0.61459 0.79166,-1.09375 1.375,-1.4375c0.58334,-0.35416 1.23438,-0.53125 1.95313,-0.53125c1.1875,0 2.10938,0.31771 2.76563,0.95313c0.65625,0.625 0.98438,1.49479 0.98438,2.60938c0,1.04166 -0.58334,2.28125 -1.75,3.71875l-0.82812,1l-4,4.6875h7.28125z" fill="#ffffff" stroke="#ffffff" stroke-width="1" stroke-linecap="square"/><path d="M226.82465,193.17535v-26.3507h26.3507v26.3507z" fill="none" stroke="none" stroke-width="0" stroke-linecap="butt"/></g></g></svg>