<svg version="1.1" xmlns="http://www.w3.org/2000/svg" xmlns:xlink="http://www.w3.org/1999/xlink" width="327.89527" height="48.83333" viewBox="0,0,327.89527,48.83333"><defs><radialGradient cx="240" cy="180" r="6.31139" gradientUnits="userSpaceOnUse" id="color-1"><stop offset="0" stop-color="#a430ff"/><stop offset="1" stop-color="#a430ff" stop-opacity="0"/></radialGradient><radialGradient cx="240" cy="180" r="6.31139" gradientUnits="userSpaceOnUse" id="color-2"><stop offset="0" stop-color="#a430ff"/><stop offset="1" stop-color="#a430ff" stop-opacity="0"/></radialGradient><radialGradient cx="240" cy="180" r="6.31139" gradientUnits="userSpaceOnUse" id="color-3"><stop offset="0" stop-color="#a430ff"/><stop offset="1" stop-color="#a430ff" stop-opacity="0"/></radialGradient><linearGradient x1="451.46584" y1="180.18568" x2="538.85417" y2="180.18568" gradientUnits="userSpaceOnUse" id="color-4"><stop offset="0" stop-color="#5500ff"/><stop offset="1" stop-color="#5500ff" stop-opacity="0"/></linearGradient><linearGradient x1="451.46584" y1="180.18567" x2="538.85417" y2="180.18567" gradientUnits="userSpaceOnUse" id="color-5"><stop offset="0" stop-color="#5500ff"/><stop offset="1" stop-color="#5500ff" stop-opacity="0"/></linearGradient><linearGradient x1="451.46584" y1="180.18568" x2="538.85417" y2="180.18568" gradientUnits="userSpaceOnUse" id="color-6"><stop offset="0" stop-color="#5500ff"/><stop offset="1" stop-color="#5500ff" stop-opacity="0"/></linearGradient><linearGradient x1="387.17839" y1="180.16347" x2="387.17839" y2="183.09351" gradientUnits="userSpaceOnUse" id="color-7"><stop offset="0" stop-color="#9966ff"/><stop offset="1" stop-color="#9966ff" stop-opacity="0"/></linearGradient><linearGradient x1="387.34506" y1="179.73617" x2="387.34506" y2="176.80613" gradientUnits="userSpaceOnUse" id="color-8"><stop offset="0" stop-color="#9966ff"/><stop offset="1" stop-color="#9966ff" stop-opacity="0"/></linearGradient><linearGradient x1="451.63251" y1="180.18568" x2="538.85417" y2="180.18568" gradientUnits="userSpaceOnUse" id="color-9"><stop offset="0" stop-color="#000000"/><stop offset="1" stop-color="#000000" stop-opacity="0"/></linearGradient></defs><g transform="translate(-229.81772,-156.7675)"><g data-paper-data="{&quot;isPaintingLayer&quot;:true}" fill-rule="nonzero" stroke-width="0" stroke-linecap="butt" stroke-linejoin="miter" stroke-miterlimit="10" stroke-dasharray="" stroke-dashoffset="0" style="mix-blend-mode: normal"><path d="M233.68861,180c0,-3.48569 2.82571,-6.31139 6.31139,-6.31139c3.48569,0 6.31139,2.82571 6.31139,6.31139c0,3.48569 -2.82571,6.31139 -6.31139,6.31139c-3.48569,0 -6.31139,-2.82571 -6.31139,-6.31139z" fill="url(#color-1)" stroke="none"/><path d="M233.68861,180c0,-3.48569 2.82571,-6.31139 6.31139,-6.31139c3.48569,0 6.31139,2.82571 6.31139,6.31139c0,3.48569 -2.82571,6.31139 -6.31139,6.31139c-3.48569,0 -6.31139,-2.82571 -6.31139,-6.31139z" fill="url(#color-2)" stroke="none"/><path d="M233.68861,180c0,-3.48569 2.82571,-6.31139 6.31139,-6.31139c3.48569,0 6.31139,2.82571 6.31139,6.31139c0,3.48569 -2.82571,6.31139 -6.31139,6.31139c-3.48569,0 -6.31139,-2.82571 -6.31139,-6.31139z" fill="url(#color-3)" stroke="none"/><path d="M229.81773,190.07174v-22.35419h22.35419v22.35419z" fill="none" stroke="none"/><path d="M230.71299,205.60083v-48.83333h327v48.83333z" fill="none" stroke="none"/><path d="M451.46584,181.23866v-2.10597h87.38833v2.10597z" fill="url(#color-4)" stroke="#000000"/><path d="M451.46584,181.23866v-2.10597h87.38833v2.10597z" fill="url(#color-5)" stroke="#000000"/><path d="M451.46584,181.23866v-2.10597h87.38833v2.10597z" fill="url(#color-6)" stroke="#000000"/><path d="M240.17839,183.09351v-2.93004l199.83333,0.67147l94.16667,0.18312v2.07545z" fill="url(#color-7)" stroke="none"/><path d="M534.34506,176.80613v2.13649l-73,0.06104l-221,0.73251v-2.93004z" data-paper-data="{&quot;index&quot;:null}" fill="url(#color-8)" stroke="none"/><path d="M240.47917,181.01759v-2.10597h211.31686v2.10597z" fill="#000000" stroke="#000000"/><path d="M451.63251,181.23866v-2.10597h87.22166v2.10597z" fill="url(#color-9)" stroke="#000000"/><path d="M235.40038,180c0,-2.5403 2.05932,-4.59962 4.59962,-4.59962c2.5403,0 4.59962,2.05932 4.59962,4.59962c0,2.5403 -2.05932,4.59962 -4.59962,4.59962c-2.5403,0 -4.59962,-2.05932 -4.59962,-4.59962z" fill="#000000" stroke="#bf7cff"/></g></g></svg>