<svg version="1.1" xmlns="http://www.w3.org/2000/svg" xmlns:xlink="http://www.w3.org/1999/xlink" width="353.41764" height="67" viewBox="0,0,353.41764,67"><defs><radialGradient cx="285.00001" cy="180.00001" r="4.49628" gradientUnits="userSpaceOnUse" id="color-1"><stop offset="0" stop-color="#001eff"/><stop offset="1" stop-color="#001eff" stop-opacity="0"/></radialGradient><radialGradient cx="410.00004" cy="180.00001" r="149.91767" gradientUnits="userSpaceOnUse" id="color-2"><stop offset="0" stop-color="#000000" stop-opacity="0"/><stop offset="1" stop-color="#000000" stop-opacity="0"/></radialGradient><linearGradient x1="480.29415" y1="180.15658" x2="533.25001" y2="180.15658" gradientUnits="userSpaceOnUse" id="color-3"><stop offset="0" stop-color="#0017ff"/><stop offset="1" stop-color="#0017ff" stop-opacity="0"/></linearGradient><radialGradient cx="240" cy="180" r="33.5" gradientUnits="userSpaceOnUse" id="color-4"><stop offset="0" stop-color="#ffffff"/><stop offset="1" stop-color="#ffffff" stop-opacity="0"/></radialGradient></defs><g transform="translate(-206.5,-146.5)"><g data-paper-data="{&quot;isPaintingLayer&quot;:true}" fill-rule="nonzero" stroke-linejoin="miter" stroke-miterlimit="10" stroke-dasharray="" stroke-dashoffset="0" style="mix-blend-mode: normal"><path d="M285.25001,180.15658h194.55892" fill="none" stroke="#0017ff" stroke-width="0.5" stroke-linecap="round"/><path d="M280.50373,180.00001c0,-2.48323 2.01305,-4.49628 4.49628,-4.49628c2.48323,0 4.49628,2.01305 4.49628,4.49628c0,2.48323 -2.01305,4.49628 -4.49628,4.49628c-2.48323,0 -4.49628,-2.01305 -4.49628,-4.49628z" fill="url(#color-1)" stroke="none" stroke-width="0" stroke-linecap="butt"/><path d="" data-paper-data="{&quot;index&quot;:null}" fill="none" stroke="#cdcdcd" stroke-width="1.5" stroke-linecap="round"/><path d="" fill="none" stroke="#cdcdcd" stroke-width="1.5" stroke-linecap="round"/><path d="" data-paper-data="{&quot;index&quot;:null}" fill="none" stroke="#cdcdcd" stroke-width="1.5" stroke-linecap="round"/><path d="" fill="none" stroke="#cdcdcd" stroke-width="1.5" stroke-linecap="round"/><path d="" data-paper-data="{&quot;index&quot;:null}" fill="none" stroke="#cdcdcd" stroke-width="1.5" stroke-linecap="round"/><path d="" data-paper-data="{&quot;index&quot;:null}" fill="none" stroke="#cdcdcd" stroke-width="1.5" stroke-linecap="round"/><path d="" data-paper-data="{&quot;index&quot;:null}" fill="none" stroke="#cdcdcd" stroke-width="1.5" stroke-linecap="round"/><path d="" fill="none" stroke="#cdcdcd" stroke-width="1.5" stroke-linecap="round"/><path d="" data-paper-data="{&quot;index&quot;:null}" fill="none" stroke="#cdcdcd" stroke-width="1.5" stroke-linecap="round"/><path d="" data-paper-data="{&quot;index&quot;:null}" fill="none" stroke="#cdcdcd" stroke-width="1.5" stroke-linecap="round"/><path d="" fill="none" stroke="#cdcdcd" stroke-width="1.5" stroke-linecap="round"/><path d="" data-paper-data="{&quot;index&quot;:null}" fill="none" stroke="#cdcdcd" stroke-width="1.5" stroke-linecap="round"/><path d="M262.57712,202.4229v-44.84577h44.84577v44.84577z" fill="none" stroke="none" stroke-width="0" stroke-linecap="butt"/><path d="M282.50001,180.00001c0,-1.38071 1.11929,-2.5 2.5,-2.5c1.38071,0 2.5,1.11929 2.5,2.5c0,1.38071 -1.11929,2.5 -2.5,2.5c-1.38071,0 -2.5,-1.11929 -2.5,-2.5z" fill="#ffffff" stroke="none" stroke-width="0.5" stroke-linecap="butt"/><path d="M260.08237,204.91765v-49.83527h299.83527v49.83527z" fill="none" stroke="url(#color-2)" stroke-width="0" stroke-linecap="butt"/><path d="M479.79314,180.15658h53.45687" fill="none" stroke="url(#color-3)" stroke-width="0.5" stroke-linecap="round"/><path d="M206.5,180c0,-18.50154 14.99846,-33.5 33.5,-33.5c18.50154,0 33.5,14.99846 33.5,33.5c0,18.50154 -14.99846,33.5 -33.5,33.5c-18.50154,0 -33.5,-14.99846 -33.5,-33.5z" fill="url(#color-4)" stroke="none" stroke-width="none" stroke-linecap="butt"/></g></g></svg>