<svg version="1.1" xmlns="http://www.w3.org/2000/svg" xmlns:xlink="http://www.w3.org/1999/xlink" width="40.54748" height="40.54748" viewBox="0,0,40.54748,40.54748"><defs><radialGradient cx="240" cy="180" r="7.55556" gradientUnits="userSpaceOnUse" id="color-1"><stop offset="0" stop-color="#ff3030"/><stop offset="1" stop-color="#ff3030" stop-opacity="0"/></radialGradient><radialGradient cx="240" cy="180" r="7.55555" gradientUnits="userSpaceOnUse" id="color-2"><stop offset="0" stop-color="#ff3030"/><stop offset="1" stop-color="#ff3030" stop-opacity="0"/></radialGradient><radialGradient cx="240" cy="180" r="7.55555" gradientUnits="userSpaceOnUse" id="color-3"><stop offset="0" stop-color="#ff3030"/><stop offset="1" stop-color="#ff3030" stop-opacity="0"/></radialGradient><radialGradient cx="240" cy="180" r="7.55555" gradientUnits="userSpaceOnUse" id="color-4"><stop offset="0" stop-color="#ff3030"/><stop offset="1" stop-color="#ff3030" stop-opacity="0"/></radialGradient></defs><g transform="translate(-219.94395,-157.22275)"><g data-paper-data="{&quot;isPaintingLayer&quot;:true}" fill-rule="nonzero" stroke-linejoin="miter" stroke-miterlimit="10" stroke-dasharray="" stroke-dashoffset="0" style="mix-blend-mode: normal"><path d="M232.44444,180c0,-4.17282 3.38274,-7.55556 7.55556,-7.55556c4.17282,0 7.55556,3.38274 7.55556,7.55556c0,4.17282 -3.38274,7.55556 -7.55556,7.55556c-4.17282,0 -7.55556,-3.38274 -7.55556,-7.55556z" fill="url(#color-1)" stroke="none" stroke-width="0" stroke-linecap="butt"/><path d="M232.44445,180c0,-4.17282 3.38273,-7.55555 7.55555,-7.55555c4.17282,0 7.55555,3.38273 7.55555,7.55555c0,4.17282 -3.38273,7.55555 -7.55555,7.55555c-4.17282,0 -7.55555,-3.38273 -7.55555,-7.55555z" fill="url(#color-2)" stroke="none" stroke-width="0" stroke-linecap="butt"/><path d="M232.44445,180c0,-4.17282 3.38273,-7.55555 7.55555,-7.55555c4.17282,0 7.55555,3.38273 7.55555,7.55555c0,4.17282 -3.38273,7.55555 -7.55555,7.55555c-4.17282,0 -7.55555,-3.38273 -7.55555,-7.55555z" fill="url(#color-3)" stroke="none" stroke-width="0" stroke-linecap="butt"/><path d="M232.44445,180c0,-4.17282 3.38273,-7.55555 7.55555,-7.55555c4.17282,0 7.55555,3.38273 7.55555,7.55555c0,4.17282 -3.38273,7.55555 -7.55555,7.55555c-4.17282,0 -7.55555,-3.38273 -7.55555,-7.55555z" fill="url(#color-4)" stroke="none" stroke-width="0" stroke-linecap="butt"/><path d="M234.90847,180c0,-2.81198 2.27956,-5.09153 5.09153,-5.09153c2.81198,0 5.09153,2.27956 5.09153,5.09153c0,2.81198 -2.27956,5.09153 -5.09153,5.09153c-2.81198,0 -5.09153,-2.27956 -5.09153,-5.09153z" fill="#ffeded" stroke="none" stroke-width="0.5" stroke-linecap="butt"/><path d="" data-paper-data="{&quot;index&quot;:null}" fill="none" stroke="#cdcdcd" stroke-width="1.5" stroke-linecap="round"/><path d="" fill="none" stroke="#cdcdcd" stroke-width="1.5" stroke-linecap="round"/><path d="" data-paper-data="{&quot;index&quot;:null}" fill="none" stroke="#cdcdcd" stroke-width="1.5" stroke-linecap="round"/><path d="" fill="none" stroke="#cdcdcd" stroke-width="1.5" stroke-linecap="round"/><path d="" data-paper-data="{&quot;index&quot;:null}" fill="none" stroke="#cdcdcd" stroke-width="1.5" stroke-linecap="round"/><path d="" data-paper-data="{&quot;index&quot;:null}" fill="none" stroke="#cdcdcd" stroke-width="1.5" stroke-linecap="round"/><path d="" data-paper-data="{&quot;index&quot;:null}" fill="none" stroke="#cdcdcd" stroke-width="1.5" stroke-linecap="round"/><path d="" fill="none" stroke="#cdcdcd" stroke-width="1.5" stroke-linecap="round"/><path d="" data-paper-data="{&quot;index&quot;:null}" fill="none" stroke="#cdcdcd" stroke-width="1.5" stroke-linecap="round"/><path d="" data-paper-data="{&quot;index&quot;:null}" fill="none" stroke="#cdcdcd" stroke-width="1.5" stroke-linecap="round"/><path d="" fill="none" stroke="#cdcdcd" stroke-width="1.5" stroke-linecap="round"/><path d="" data-paper-data="{&quot;index&quot;:null}" fill="none" stroke="#cdcdcd" stroke-width="1.5" stroke-linecap="round"/><path d="M219.94395,197.77023v-40.54748h40.54748v40.54748z" fill="none" stroke="none" stroke-width="0" stroke-linecap="butt"/></g></g></svg>