<svg version="1.1" xmlns="http://www.w3.org/2000/svg" xmlns:xlink="http://www.w3.org/1999/xlink" width="26.3507" height="26.3507" viewBox="0,0,26.3507,26.3507"><g transform="translate(-226.82465,-166.82465)"><g data-paper-data="{&quot;isPaintingLayer&quot;:true}" fill-rule="nonzero" stroke-linejoin="miter" stroke-miterlimit="10" stroke-dasharray="" stroke-dashoffset="0" style="mix-blend-mode: normal"><path d="M236.61717,179.60155l0.60938,-6.32812h6.46875v0.48438h-6.01562l-0.54687,5.32813c0.32292,-0.27083 0.74479,-0.48437 1.26563,-0.64062c0.52083,-0.16667 1.02604,-0.25 1.51563,-0.25c1.19792,0 2.15104,0.38021 2.85938,1.14063c0.70833,0.75 1.0625,1.73958 1.0625,2.96875c0,1.44792 -0.32292,2.54688 -0.96875,3.29688c-0.64583,0.75 -1.56771,1.125 -2.76562,1.125c-1.13542,0 -2.05208,-0.32292 -2.75,-0.96875c-0.69792,-0.65625 -1.09375,-1.55729 -1.1875,-2.70312h0.5c0.10417,1.03125 0.44271,1.81771 1.01563,2.35938c0.58333,0.54167 1.39063,0.8125 2.42188,0.8125c1.09375,0 1.90625,-0.32812 2.4375,-0.98437c0.53125,-0.65625 0.79688,-1.625 0.79688,-2.90625c0,-1.10417 -0.30729,-1.98958 -0.92187,-2.65625c-0.61458,-0.66667 -1.44271,-1 -2.48437,-1c-0.63542,0 -1.19271,0.08854 -1.67187,0.26563c-0.46875,0.16667 -0.89062,0.43229 -1.26562,0.79688z" fill="#ffffff" stroke="#ffffff" stroke-width="1" stroke-linecap="square"/><path d="M226.82465,193.17535v-26.3507h26.3507v26.3507z" fill="none" stroke="none" stroke-width="0" stroke-linecap="butt"/></g></g></svg>