<svg version="1.1" xmlns="http://www.w3.org/2000/svg" xmlns:xlink="http://www.w3.org/1999/xlink" width="77.1" height="77.1" viewBox="0,0,77.1,77.1"><defs><linearGradient x1="255.96009" y1="12.61906" x2="255.96009" y2="272.93758" gradientUnits="userSpaceOnUse" id="color-1"><stop offset="0" stop-color="#96b2ff"/><stop offset="1" stop-color="#96b2ff" stop-opacity="0"/></linearGradient><radialGradient cx="240" cy="180" r="10.75399" gradientUnits="userSpaceOnUse" id="color-2"><stop offset="0" stop-color="#10ff00"/><stop offset="1" stop-color="#10ff00" stop-opacity="0"/></radialGradient></defs><g transform="translate(-201.45,-141.45)"><g data-paper-data="{&quot;isPaintingLayer&quot;:true}" fill-rule="nonzero" stroke-linejoin="miter" stroke-miterlimit="10" stroke-dasharray="" stroke-dashoffset="0" style="mix-blend-mode: normal"><path d="M227.29541,179.44002c0.08008,-6.99242 5.3202,-12.24502 12.39523,-12.09113c7.07503,0.15389 13.09851,5.27199 13.01409,12.64381c-0.08443,7.37182 -5.79504,12.82147 -13.30385,12.65814c-7.5088,-0.16333 -12.18555,-6.2184 -12.10547,-13.21081z" fill="url(#color-1)" stroke="#ffffff" stroke-width="1.5" stroke-linecap="butt"/><path d="M229.24601,180c0,-5.93926 4.81473,-10.75399 10.75399,-10.75399c5.93926,0 10.75399,4.81473 10.75399,10.75399c0,5.93926 -4.81473,10.75399 -10.75399,10.75399c-5.93926,0 -10.75399,-4.81473 -10.75399,-10.75399z" fill="url(#color-2)" stroke="#8719ff" stroke-width="0" stroke-linecap="butt"/><path d="M218.075,201.925v-43.85h43.85v43.85z" fill="none" stroke="none" stroke-width="NaN" stroke-linecap="butt"/><path d="M227.40045,180.00001c0,-6.95854 5.64101,-12.59955 12.59955,-12.59955c6.95854,0 12.59955,5.64101 12.59955,12.59955c0,6.95854 -5.64101,12.59955 -12.59955,12.59955c-6.95854,0 -12.59955,-5.64101 -12.59955,-12.59955z" fill="none" stroke="#ffffff" stroke-width="1" stroke-linecap="butt"/><path d="M233.99326,185.54224c-2.45034,-2.65571 -2.28386,-6.79499 0.37185,-9.24533c2.65571,-2.45034 11.75956,-1.71136 11.75956,-1.71136c0,0 -0.11591,8.77258 -2.88608,11.32853c-2.65571,2.45034 -6.79499,2.28386 -9.24533,-0.37185z" data-paper-data="{&quot;index&quot;:null}" fill="#33ff6a" stroke="#00c740" stroke-width="1.5" stroke-linecap="butt"/><path d="M234.24669,188.43529c0,0 -0.53869,0.1139 -0.71786,0.00772c-0.20782,-0.12315 -0.45592,-0.70329 -0.45592,-0.70329c0,0 1.57463,-3.81109 4.53961,-7.07095c2.75701,-3.03122 8.28499,-5.97102 8.28499,-5.97102l0.13042,0.21737c0,0 -5.10202,2.75534 -7.66291,6.36277c-2.72424,3.83754 -4.11833,7.1574 -4.11833,7.1574z" fill="#00c740" stroke="#00c740" stroke-width="1.5" stroke-linecap="round"/><path d="M239.15917,179.34938c0,0 0.0155,-1.24825 0.33909,-1.89543c0.19344,-0.38687 0.96511,-1.23464 0.96511,-1.23464" fill="none" stroke="#00c740" stroke-width="1.5" stroke-linecap="round"/><path d="M243.85428,179.08855c0,0 -1.90369,1.50284 -2.79139,1.89206c-0.98583,0.43225 -2.86013,0.58591 -2.86013,0.58591" fill="none" stroke="#00c740" stroke-width="1.5" stroke-linecap="round"/><path d="M236.59424,183.17502c0,0 -1.07823,-2.22228 -1.20364,-3.25687c-0.10124,-0.83522 0.50807,-2.48159 0.50807,-2.48159" fill="none" stroke="#00c740" stroke-width="1.5" stroke-linecap="round"/><path d="M242.59355,184.17491c0,0 -2.54304,0.99429 -4.11138,1.21097c-1.08205,0.1495 -2.93129,-0.77623 -2.93129,-0.77623" fill="none" stroke="#00c740" stroke-width="1.5" stroke-linecap="round"/><path d="M201.45,218.55v-77.1h77.1v77.1z" fill="none" stroke="none" stroke-width="NaN" stroke-linecap="butt"/></g></g></svg>