<svg version="1.1" xmlns="http://www.w3.org/2000/svg" xmlns:xlink="http://www.w3.org/1999/xlink" width="499.22655" height="380" viewBox="0,0,499.22655,380"><defs><radialGradient cx="451.52345" cy="301.03482" r="22.5" gradientUnits="userSpaceOnUse" id="color-1"><stop offset="0" stop-color="#1c91ff"/><stop offset="1" stop-color="#1c91ff" stop-opacity="0"/></radialGradient><radialGradient cx="445.27345" cy="122.28482" r="32.25" gradientUnits="userSpaceOnUse" id="color-2"><stop offset="0" stop-color="#1c91ff"/><stop offset="1" stop-color="#1c91ff" stop-opacity="0"/></radialGradient><radialGradient cx="26.02345" cy="247.03482" r="36.5" gradientUnits="userSpaceOnUse" id="color-3"><stop offset="0" stop-color="#1c91ff"/><stop offset="1" stop-color="#1c91ff" stop-opacity="0"/></radialGradient><radialGradient cx="434.1569" cy="123.72848" r="18.53474" gradientUnits="userSpaceOnUse" id="color-4"><stop offset="0" stop-color="#1e98e3"/><stop offset="1" stop-color="#010099"/></radialGradient><radialGradient cx="30.26622" cy="238.63558" r="28.33704" gradientUnits="userSpaceOnUse" id="color-5"><stop offset="0" stop-color="#1e98e3"/><stop offset="1" stop-color="#010099"/></radialGradient><radialGradient cx="15.2839" cy="249.99845" r="18.53474" gradientUnits="userSpaceOnUse" id="color-6"><stop offset="0" stop-color="#1e98e3"/><stop offset="1" stop-color="#010099"/></radialGradient><radialGradient cx="37.39086" cy="260.7844" r="10.05134" gradientUnits="userSpaceOnUse" id="color-7"><stop offset="0" stop-color="#1e98e3"/><stop offset="1" stop-color="#010099"/></radialGradient><radialGradient cx="446.16228" cy="301.12421" r="18.53474" gradientUnits="userSpaceOnUse" id="color-8"><stop offset="0" stop-color="#1e98e3"/><stop offset="1" stop-color="#010099"/></radialGradient><radialGradient cx="461.47675" cy="303.58539" r="10.05134" gradientUnits="userSpaceOnUse" id="color-9"><stop offset="0" stop-color="#1e98e3"/><stop offset="1" stop-color="#010099"/></radialGradient><radialGradient cx="449.96543" cy="115.96164" r="28.33704" gradientUnits="userSpaceOnUse" id="color-10"><stop offset="0" stop-color="#1e98e3"/><stop offset="1" stop-color="#010099"/></radialGradient><radialGradient cx="438.30348" cy="136.30941" r="10.05134" gradientUnits="userSpaceOnUse" id="color-11"><stop offset="0" stop-color="#1e98e3"/><stop offset="1" stop-color="#010099"/></radialGradient><radialGradient cx="22.01173" cy="16.04297" r="8.5" gradientUnits="userSpaceOnUse" id="color-12"><stop offset="0" stop-color="#00b7ff"/><stop offset="1" stop-color="#00b7ff" stop-opacity="0"/></radialGradient><radialGradient cx="353.95053" cy="6.77326" r="10.05134" gradientUnits="userSpaceOnUse" id="color-13"><stop offset="0" stop-color="#1e98e3"/><stop offset="1" stop-color="#010099"/></radialGradient><radialGradient cx="360.23929" cy="5.36629" r="7.77855" gradientUnits="userSpaceOnUse" id="color-14"><stop offset="0" stop-color="#1e98e3"/><stop offset="1" stop-color="#010099"/></radialGradient><radialGradient cx="65.01173" cy="296.54297" r="8.5" gradientUnits="userSpaceOnUse" id="color-15"><stop offset="0" stop-color="#00b7ff"/><stop offset="1" stop-color="#00b7ff" stop-opacity="0"/></radialGradient><radialGradient cx="452.01173" cy="13.04297" r="8.5" gradientUnits="userSpaceOnUse" id="color-16"><stop offset="0" stop-color="#00b7ff"/><stop offset="1" stop-color="#00b7ff" stop-opacity="0"/></radialGradient><radialGradient cx="471.72119" cy="338.75243" r="4.70946" gradientUnits="userSpaceOnUse" id="color-17"><stop offset="0" stop-color="#00b7ff"/><stop offset="1" stop-color="#00b7ff" stop-opacity="0"/></radialGradient><radialGradient cx="431.26173" cy="352.79297" r="4.70946" gradientUnits="userSpaceOnUse" id="color-18"><stop offset="0" stop-color="#00b7ff"/><stop offset="1" stop-color="#00b7ff" stop-opacity="0"/></radialGradient><radialGradient cx="9.032" cy="333.06324" r="4.70946" gradientUnits="userSpaceOnUse" id="color-19"><stop offset="0" stop-color="#00b7ff"/><stop offset="1" stop-color="#00b7ff" stop-opacity="0"/></radialGradient><radialGradient cx="33.30227" cy="292.83351" r="4.70946" gradientUnits="userSpaceOnUse" id="color-20"><stop offset="0" stop-color="#00b7ff"/><stop offset="1" stop-color="#00b7ff" stop-opacity="0"/></radialGradient><radialGradient cx="58.51173" cy="351.54297" r="8.5" gradientUnits="userSpaceOnUse" id="color-21"><stop offset="0" stop-color="#00b7ff"/><stop offset="1" stop-color="#00b7ff" stop-opacity="0"/></radialGradient><radialGradient cx="416.01173" cy="4.54297" r="8.5" gradientUnits="userSpaceOnUse" id="color-22"><stop offset="0" stop-color="#00b7ff"/><stop offset="1" stop-color="#00b7ff" stop-opacity="0"/></radialGradient><radialGradient cx="88.01173" cy="1.04297" r="8.5" gradientUnits="userSpaceOnUse" id="color-23"><stop offset="0" stop-color="#00b7ff"/><stop offset="1" stop-color="#00b7ff" stop-opacity="0"/></radialGradient><radialGradient cx="37.97172" cy="99.08298" r="6.04001" gradientUnits="userSpaceOnUse" id="color-24"><stop offset="0" stop-color="#00b7ff"/><stop offset="1" stop-color="#00b7ff" stop-opacity="0"/></radialGradient><radialGradient cx="452.4393" cy="326.94708" r="3.34649" gradientUnits="userSpaceOnUse" id="color-25"><stop offset="0" stop-color="#00b7ff"/><stop offset="1" stop-color="#00b7ff" stop-opacity="0"/></radialGradient><radialGradient cx="452.97172" cy="151.58298" r="6.04001" gradientUnits="userSpaceOnUse" id="color-26"><stop offset="0" stop-color="#00b7ff"/><stop offset="1" stop-color="#00b7ff" stop-opacity="0"/></radialGradient><radialGradient cx="466.43931" cy="142.44708" r="3.34649" gradientUnits="userSpaceOnUse" id="color-27"><stop offset="0" stop-color="#00b7ff"/><stop offset="1" stop-color="#00b7ff" stop-opacity="0"/></radialGradient><radialGradient cx="356.52345" cy="7.03482" r="12.5" gradientUnits="userSpaceOnUse" id="color-28"><stop offset="0" stop-color="#1c91ff"/><stop offset="1" stop-color="#1c91ff" stop-opacity="0"/></radialGradient><radialGradient cx="49.97172" cy="96.58298" r="5.04001" gradientUnits="userSpaceOnUse" id="color-29"><stop offset="0" stop-color="#00b7ff"/><stop offset="1" stop-color="#00b7ff" stop-opacity="0"/></radialGradient></defs><g transform="translate(10.47655,12.70703)"><g data-paper-data="{&quot;isPaintingLayer&quot;:true}" fill-rule="nonzero" stroke-linejoin="miter" stroke-miterlimit="10" stroke-dasharray="" stroke-dashoffset="0" style="mix-blend-mode: normal"><path d="M-3.5,364v-373h492v373z" fill="#08172b" stroke="#000000" stroke-width="0.5" stroke-linecap="butt"/><path d="M429.02345,301.03482c0,-12.42641 10.07359,-22.5 22.5,-22.5c12.42641,0 22.5,10.07359 22.5,22.5c0,12.42641 -10.07359,22.5 -22.5,22.5c-12.42641,0 -22.5,-10.07359 -22.5,-22.5z" fill="url(#color-1)" stroke="#5491e2" stroke-width="0" stroke-linecap="butt"/><path d="M413.02345,122.28482c0,-17.81118 14.43882,-32.25 32.25,-32.25c17.81118,0 32.25,14.43882 32.25,32.25c0,17.81118 -14.43882,32.25 -32.25,32.25c-17.81118,0 -32.25,-14.43882 -32.25,-32.25z" fill="url(#color-2)" stroke="#5491e2" stroke-width="0" stroke-linecap="butt"/><path d="M-10.47655,247.03482c0,-20.15839 16.34161,-36.5 36.5,-36.5c20.15839,0 36.5,16.34161 36.5,36.5c0,20.15839 -16.34161,36.5 -36.5,36.5c-20.15839,0 -36.5,-16.34161 -36.5,-36.5z" fill="url(#color-3)" stroke="#5491e2" stroke-width="0" stroke-linecap="butt"/><path d="M75.5,344.5v-329h329v329z" fill="#000610" stroke="none" stroke-width="0" stroke-linecap="butt"/><g fill="#1c304b" stroke="#000000" stroke-width="0" stroke-linecap="butt"><path d="M201.56667,138.45557v-37h37v37z"/><path d="M161.43334,178.54446v-37h37v37z"/><path d="M121.56667,138.45557v-37h37v37z"/><path d="M81.43334,178.54446v-37h37v37z"/><path d="M201.56667,58.45556v-37h37v37z"/><path d="M161.43334,98.54446v-37h37v37z"/><path d="M121.56667,58.45556v-37h37v37z"/><path d="M81.43334,98.54446v-37h37v37z"/><path d="M361.56667,138.45557v-37h37v37z"/><path d="M321.43334,178.54446v-37h37v37z"/><path d="M281.56667,138.45557v-37h37v37z"/><path d="M241.43334,178.54446v-37h37v37z"/><path d="M361.56667,58.45556v-37h37v37z"/><path d="M321.43334,98.54446v-37h37v37z"/><path d="M281.56667,58.45556v-37h37v37z"/><path d="M241.43334,98.54446v-37h37v37z"/><path d="M201.56667,298.45555v-37h37v37z"/><path d="M161.43334,338.54445v-37h37v37z"/><path d="M121.56667,298.45555v-37h37v37z"/><path d="M81.43334,338.54445v-37h37v37z"/><path d="M201.56667,218.45557v-37h37v37z"/><path d="M161.43334,258.54445v-37h37v37z"/><path d="M121.56667,218.45557v-37h37v37z"/><path d="M81.43334,258.54445v-37h37v37z"/><path d="M361.56667,298.45555v-37h37v37z"/><path d="M321.43334,338.54445v-37h37v37z"/><path d="M281.56667,298.45555v-37h37v37z"/><path d="M241.43334,338.54445v-37h37v37z"/><path d="M361.56667,218.45557v-37h37v37z"/><path d="M321.43334,258.54445v-37h37v37z"/><path d="M281.56667,218.45557v-37h37v37z"/><path d="M241.43334,258.54445v-37h37v37z"/></g><g fill="#292929" stroke="#000000" stroke-width="0" stroke-linecap="butt"><path d="M161.43333,138.54447v-37h37v37z"/><path d="M201.56667,178.45558v-37h37v37z"/><path d="M81.43333,138.54447v-37h37v37z"/><path d="M121.56667,178.45558v-37h37v37z"/><path d="M161.43333,58.54447v-37h37v37z"/><path d="M201.56667,98.45558v-37h37v37z"/><path d="M81.43333,58.54447v-37h37v37z"/><path d="M121.56667,98.45558v-37h37v37z"/><path d="M321.43333,138.54447v-37h37v37z"/><path d="M361.56667,178.45558v-37h37v37z"/><path d="M241.43333,138.54447v-37h37v37z"/><path d="M281.56667,178.45558v-37h37v37z"/><path d="M321.43333,58.54447v-37h37v37z"/><path d="M361.56667,98.45558v-37h37v37z"/><path d="M241.43333,58.54447v-37h37v37z"/><path d="M281.56667,98.45558v-37h37v37z"/><path d="M161.43333,298.54445v-37h37v37z"/><path d="M201.56667,338.45557v-37h37v37z"/><path d="M81.43333,298.54445v-37h37v37z"/><path d="M121.56667,338.45557v-37h37v37z"/><path d="M161.43333,218.54447v-37h37v37z"/><path d="M201.56667,258.45556v-37h37v37z"/><path d="M81.43333,218.54447v-37h37v37z"/><path d="M121.56667,258.45556v-37h37v37z"/><path d="M321.43333,298.54445v-37h37v37z"/><path d="M361.56667,338.45557v-37h37v37z"/><path d="M241.43333,298.54445v-37h37v37z"/><path d="M281.56667,338.45557v-37h37v37z"/><path d="M321.43333,218.54447v-37h37v37z"/><path d="M361.56667,258.45556v-37h37v37z"/><path d="M241.43333,218.54447v-37h37v37z"/><path d="M281.56667,258.45556v-37h37v37z"/></g><g fill="none" stroke="#3a659d" stroke-width="2.5" stroke-linecap="round"><path d="M10.65693,100.31612v-102.94608"/><path d="M31.24615,73.02343v-74.21694"/><path d="M51.35655,92.1762v-90.97561"/><path d="M68.59403,0.24295v44.53017"/><path d="M83.91624,1.20059v24.41977"/><path d="M469.57734,100.04912v-102.94609" data-paper-data="{&quot;index&quot;:null}"/><path d="M448.98812,72.75644v-74.21695" data-paper-data="{&quot;index&quot;:null}"/><path d="M428.87773,91.90919v-90.97561" data-paper-data="{&quot;index&quot;:null}"/><path d="M411.64024,-0.02406v44.53017" data-paper-data="{&quot;index&quot;:null}"/><path d="M396.31803,0.93358v24.41977" data-paper-data="{&quot;index&quot;:null}"/></g><path d="M-3.98827,322.54297l29,-7l30,20.5l31,9l29,21" fill="none" stroke="#3a659d" stroke-width="2.5" stroke-linecap="round"/><path d="M486.51173,285.54297l-13.5,24l-22.5,7l-32.5,29l-41,-0.5l-22,17" fill="none" stroke="#3a659d" stroke-width="2.5" stroke-linecap="round"/><path d="M126.51173,-2.45703l-1.5,4l-40,9.5l-32,16.5l-26.5,-4.5l-25.5,16l-7.5,-1.5l1,-49" fill="#08172b" stroke="#3a659d" stroke-width="2.5" stroke-linecap="round"/><path d="M484.01173,-2.95703l1.5,55.5l-31.5,-28.5h-22.5l-23,-13.5l-44.5,-2.5l-6.5,-9" fill="#08172b" stroke="#3a659d" stroke-width="2.5" stroke-linecap="round"/><path d="M19.03517,124.60742c0,-0.55228 0.44771,-1 1,-1c0.55229,0 1,0.44772 1,1c0,0.55228 -0.44771,1 -1,1c-0.55229,0 -1,-0.44772 -1,-1z" fill="#4578bb" stroke="none" stroke-width="0.5" stroke-linecap="butt"/><path d="M153.03517,43.60742c0,-0.55228 0.44771,-1 1,-1c0.55229,0 1,0.44772 1,1c0,0.55228 -0.44771,1 -1,1c-0.55229,0 -1,-0.44772 -1,-1z" fill="#4578bb" stroke="none" stroke-width="0.5" stroke-linecap="butt"/><path d="M310.03517,67.60742c0,-0.55228 0.44772,-1 1,-1c0.55228,0 1,0.44772 1,1c0,0.55228 -0.44772,1 -1,1c-0.55228,0 -1,-0.44772 -1,-1z" fill="#4578bb" stroke="none" stroke-width="0.5" stroke-linecap="butt"/><path d="M283.03517,220.60743c0,-0.55229 0.44772,-1 1,-1c0.55228,0 1,0.44771 1,1c0,0.55229 -0.44772,1 -1,1c-0.55228,0 -1,-0.44771 -1,-1z" fill="#4578bb" stroke="none" stroke-width="0.5" stroke-linecap="butt"/><path d="M442.03517,303.60742c0,-0.55228 0.44772,-1 1,-1c0.55228,0 1,0.44772 1,1c0,0.55228 -0.44772,1 -1,1c-0.55228,0 -1,-0.44772 -1,-1z" fill="#4578bb" stroke="none" stroke-width="0.5" stroke-linecap="butt"/><path d="M112.03517,279.60742c0,-0.55228 0.44772,-1 1,-1c0.55228,0 1,0.44772 1,1c0,0.55228 -0.44772,1 -1,1c-0.55228,0 -1,-0.44772 -1,-1z" fill="#4578bb" stroke="none" stroke-width="0.5" stroke-linecap="butt"/><path d="M21.03517,337.60743c0,-0.55228 0.44771,-1 1,-1c0.55229,0 1,0.44772 1,1c0,0.55228 -0.44771,1 -1,1c-0.55229,0 -1,-0.44772 -1,-1z" fill="#5ea4ff" stroke="none" stroke-width="0.5" stroke-linecap="butt"/><path d="M55.03517,148.60742c0,-0.55229 0.44772,-1 1,-1c0.55228,0 1,0.44771 1,1c0,0.55229 -0.44772,1 -1,1c-0.55228,0 -1,-0.44771 -1,-1z" fill="#5ea4ff" stroke="none" stroke-width="0.5" stroke-linecap="butt"/><path d="M153.03517,196.60743c0,-0.55229 0.44771,-1 1,-1c0.55229,0 1,0.44771 1,1c0,0.55229 -0.44771,1 -1,1c-0.55229,0 -1,-0.44771 -1,-1z" fill="#5ea4ff" stroke="none" stroke-width="0.5" stroke-linecap="butt"/><path d="M451.03517,199.60743c0,-0.55229 0.44772,-1 1,-1c0.55228,0 1,0.44771 1,1c0,0.55229 -0.44772,1 -1,1c-0.55228,0 -1,-0.44771 -1,-1z" fill="#5ea4ff" stroke="none" stroke-width="0.5" stroke-linecap="butt"/><path d="M456.03517,72.60742c0,-0.55228 0.44772,-1 1,-1c0.55228,0 1,0.44772 1,1c0,0.55228 -0.44772,1 -1,1c-0.55228,0 -1,-0.44772 -1,-1z" fill="#5ea4ff" stroke="none" stroke-width="0.5" stroke-linecap="butt"/><path d="M256.03517,4.60742c0,-0.55229 0.44772,-1 1,-1c0.55228,0 1,0.44772 1,1c0,0.55229 -0.44772,1 -1,1c-0.55228,0 -1,-0.44771 -1,-1z" fill="#5ea4ff" stroke="none" stroke-width="0.5" stroke-linecap="butt"/><path d="M7.03517,264.60742c0,-0.55228 0.44771,-1 1,-1c0.55228,0 1,0.44772 1,1c0,0.55228 -0.44772,1 -1,1c-0.55229,0 -1,-0.44772 -1,-1z" fill="#c7d5e6" stroke="none" stroke-width="0.5" stroke-linecap="butt"/><path d="M202.03517,334.60742c0,-0.55228 0.44771,-1 1,-1c0.55229,0 1,0.44772 1,1c0,0.55228 -0.44771,1 -1,1c-0.55229,0 -1,-0.44772 -1,-1z" fill="#c7d5e6" stroke="none" stroke-width="0.5" stroke-linecap="butt"/><path d="M21.03517,63.60742c0,-0.55228 0.44771,-1 1,-1c0.55229,0 1,0.44772 1,1c0,0.55229 -0.44771,1 -1,1c-0.55229,0 -1,-0.44772 -1,-1z" fill="#c7d5e6" stroke="none" stroke-width="0.5" stroke-linecap="butt"/><g stroke="#5491e2" stroke-width="1.5" stroke-linecap="round"><path d="M440.56326,119.20479l2.58849,19.34611l-2.26638,2.45359l-3.48983,1.08522l-2.77742,-0.66367l-8.81629,-17.84432l3.61153,-17.95745z" fill="url(#color-4)"/><path d="M429.55952,105.97455l6.32405,16.14243l4.67086,18.75142" fill="none"/><path d="M437.50857,141.45382l-7.19089,-17.56289l-0.90351,-16.62196" fill="none"/><path d="M440.24236,119.74993l-4.14461,2.55184l-5.89684,1.63788l-4.20422,0.10911" fill="none"/></g><path d="M375.03517,177.60743c0,-0.55229 0.44772,-1 1,-1c0.55228,0 1,0.44771 1,1c0,0.55229 -0.44772,1 -1,1c-0.55228,0 -1,-0.44771 -1,-1z" fill="#c7d5e6" stroke="none" stroke-width="0.5" stroke-linecap="butt"/><path d="M435.03517,273.60742c0,-0.55228 0.44772,-1 1,-1c0.55228,0 1,0.44772 1,1c0,0.55228 -0.44772,1 -1,1c-0.55228,0 -1,-0.44772 -1,-1z" fill="#c7d5e6" stroke="none" stroke-width="0.5" stroke-linecap="butt"/><path d="M466.03517,148.60742c0,-0.55229 0.44772,-1 1,-1c0.55228,0 1,0.44771 1,1c0,0.55229 -0.44772,1 -1,1c-0.55228,0 -1,-0.44771 -1,-1z" fill="#c7d5e6" stroke="none" stroke-width="0.5" stroke-linecap="butt"/><g stroke="#5491e2" stroke-width="1.5" stroke-linecap="round"><path d="M42.24502,238.11468l-12.66617,27.0196l-4.9432,1.28156l-5.38522,-1.48971l-3.02311,-3.14982l3.41544,-30.2373l19.49141,-20.1077z" fill="url(#color-5)"/><path d="M39.03252,212.00263l-5.21342,25.98809l-9.49652,27.97649" fill="none"/><path d="M19.92154,264.20183l5.27306,-28.53152l12.5808,-22.12318" fill="none"/><path d="M41.38164,238.55044l-7.43987,-0.14497l-8.93762,-2.76905l-5.49692,-3.33565" fill="none"/></g><g stroke="#5491e2" stroke-width="1.5" stroke-linecap="round"><path d="M22.3719,246.64205l-0.77208,19.50323l-2.65405,2.02796l-3.62434,0.46982l-2.6222,-1.13075l-5.6211,-19.09319l6.64155,-17.07054z" fill="url(#color-6)"/><path d="M13.80351,231.71877l3.45812,16.98861l1.38148,19.27496" fill="none"/><path d="M15.54198,268.03604l-4.06816,-18.53683l1.96424,-16.5302" fill="none"/><path d="M21.96216,247.12399l-4.52125,1.80223l-6.0905,0.60094l-4.1605,-0.61446" fill="none"/></g><g stroke="#5491e2" stroke-width="1.5" stroke-linecap="round"><path d="M41.0281,262.98857l-9.056,5.47974l-1.71089,-0.59484l-1.29584,-1.4996l-0.27205,-1.52451l6.95967,-8.25012l9.70946,-2.09672z" fill="url(#color-7)"/><path d="M45.21999,254.6511l-6.65381,6.64235l-8.30905,6.38601" fill="none"/><path d="M29.30597,266.29224l7.17205,-7.38113l8.06701,-4.05171" fill="none"/><path d="M40.68756,262.9472l-2.16682,-1.50722l-2.09225,-2.57635l-0.96545,-2.06628" fill="none"/></g><g stroke="#5491e2" stroke-width="1.5" stroke-linecap="round"><path d="M450.15369,294.37337l10.2855,16.58857l-1.06256,3.16663l-2.73915,2.41943l-2.80559,0.53218l-15.35179,-12.66765l-4.06065,-17.86126z" fill="url(#color-8)"/><path d="M434.69628,286.81097l12.38111,12.13588l11.9416,15.19312" fill="none"/><path d="M456.48015,315.92161l-13.75372,-13.07666l-7.63255,-14.79358" fill="none"/><path d="M450.08423,295.00212l-2.73576,4.02558l-4.70861,3.90951l-3.79068,1.82158" fill="none"/></g><g stroke="#5491e2" stroke-width="1.5" stroke-linecap="round"><path d="M465.50091,302.20917l-1.60582,10.46231l-1.55386,0.93087l-1.98166,0.03207l-1.34401,-0.76928l-1.86419,-10.63137l4.6202,-8.79338z" fill="url(#color-9)"/><path d="M461.79417,293.64498l0.82705,9.36536l-0.43144,10.47068" fill="none"/><path d="M460.51545,313.32079l-1.06133,-10.23684l2.06685,-8.78755" fill="none"/><path d="M465.25071,302.44387l-2.54624,0.69532l-3.31856,-0.04772l-2.20442,-0.58491" fill="none"/></g><g stroke="#5491e2" stroke-width="1.5" stroke-linecap="round"><path d="M461.67686,113.39146l-7.83821,28.79328l-4.6497,2.11137l-5.56105,-0.54283l-3.51909,-2.5839l-1.82766,-30.37465l15.74898,-23.15609z" fill="url(#color-10)"/><path d="M454.0281,88.21894l-0.67329,26.49731l-4.55132,29.19166" fill="none"/><path d="M444.16466,142.9245l0.29529,-29.0132l8.59493,-23.95494" fill="none"/><path d="M460.90112,113.96901l-7.35425,1.13477l-9.28036,-1.19315l-5.98807,-2.34217" fill="none"/></g><g stroke="#5491e2" stroke-width="1.5" stroke-linecap="round"><path d="M442.22115,134.65421l-0.86773,10.54921l-1.48471,1.03761l-1.97452,0.17104l-1.39467,-0.67307l-2.6056,-10.47436l3.99178,-9.09591z" fill="url(#color-11)"/><path d="M437.9226,126.37123l1.48218,9.28424l0.30435,10.47515" fill="none"/><path d="M438.02768,146.08826l-1.77703,-10.13713l1.44513,-8.91092" fill="none"/><path d="M441.98804,134.90589l-2.49117,0.87228l-3.31373,0.18526l-2.24003,-0.42878" fill="none"/></g><g stroke-linecap="butt"><path d="M13.51173,16.04297c0,-4.69442 3.80558,-8.5 8.5,-8.5c4.69442,0 8.5,3.80558 8.5,8.5c0,4.69442 -3.80558,8.5 -8.5,8.5c-4.69442,0 -8.5,-3.80558 -8.5,-8.5z" fill="url(#color-12)" stroke="#808080" stroke-width="0"/><path d="M19.01641,16.13867l2.8,-2.4l2.2,3l-2,1.4z" fill="#b8ebff" stroke="none" stroke-width="0.5"/></g><g data-paper-data="{&quot;index&quot;:null}" stroke="#5491e2" stroke-width="1.5" stroke-linecap="round"><path d="M351.08341,16.50915l-1.66416,-9.79287l5.0705,-9.52845l1.51636,-0.31435l1.87393,0.64528l1.18839,1.36701l-1.71926,10.44427z" fill="url(#color-13)"/><path d="M357.69841,-2.41289l-2.83829,10.08788l-3.69176,8.64667" fill="none"/><path d="M351.11074,15.61763l0.76139,-8.99518l4.18485,-9.40246" fill="none"/><path d="M349.53251,6.46629l2.27711,0.12785l3.16962,0.98419l2.20489,1.45096" fill="none"/></g><g data-paper-data="{&quot;index&quot;:null}" stroke="#5491e2" stroke-width="1.5" stroke-linecap="round"><path d="M359.49676,13.18546l-2.7083,-7.19429l2.44703,-7.98648l1.10563,-0.46242l1.51878,0.2139l1.1044,0.86328l0.23397,8.18807z" fill="url(#color-14)"/><path d="M361.732,-2.16512l-0.66872,8.08233l-1.52963,7.11328" fill="none"/><path d="M359.38606,12.50414l-0.74798,-6.94594l1.79278,-7.76017" fill="none"/><path d="M356.83764,5.78455l1.74878,-0.23865l2.5531,0.28031l1.88902,0.77717" fill="none"/></g><path d="M51.60383,109.05145l-13.77538,1.02916l-7.77597,-1.46562c0,0 5.33043,-22.02567 16.04043,-22.02567c4.21618,0 1.11488,0.97555 5.91629,4.04226c7.39523,4.72339 -0.40537,18.41987 -0.40537,18.41987z" fill="#08172b" stroke="#3a659d" stroke-width="2.5" stroke-linecap="butt"/><path d="M435.83093,152.07394c2.94912,-6.38569 2.80298,-8.54396 10.63941,-12.46794c3.94837,-1.97709 15.94342,-9.42983 19.20106,-7.92534c3.82769,1.76775 8.45677,16.54587 11.52997,21.34313c4.7334,7.38882 -41.37043,-0.94985 -41.37043,-0.94985z" fill="#08172b" stroke="#3a659d" stroke-width="2.5" stroke-linecap="butt"/><path d="M69.10383,298.55145c0,10.57777 -34.68036,6.03402 -34.68036,6.03402c0,0 -9.37099,3.1073 -9.37099,-7.47048c0,-10.57777 24.54043,-18.52567 24.54043,-18.52567c0,0 3.11488,-1.02445 7.91629,2.04226c7.39523,4.72339 11.59463,11.50621 11.59463,17.91987z" fill="#08172b" stroke="#3a659d" stroke-width="2.5" stroke-linecap="butt"/><path d="M468.1791,264.31437c0.63182,5.66207 5.87637,6.31009 4.01493,10.09312c-4.72845,9.60967 -26.84463,4.66816 -26.84463,4.66816l-2.38196,-8.12416l8.50524,-11.40574c0,0 15.73328,-3.95221 16.70641,4.76862z" data-paper-data="{&quot;index&quot;:null}" fill="#08172b" stroke="#3a659d" stroke-width="2.5" stroke-linecap="butt"/><path d="M28.73191,264.33234l2.69032,5.21236l0.33023,3.39928c0,0 -13.5998,2.81234 -15.22683,-1.4188c-0.6405,-1.66566 0.39712,-0.65828 1.44851,-3.23993c1.61936,-3.9763 10.75777,-3.95291 10.75777,-3.95291z" fill="#08172b" stroke="#3a659d" stroke-width="2.5" stroke-linecap="butt"/><g stroke-linecap="butt"><path d="M56.51173,296.54297c0,-4.69442 3.80558,-8.5 8.5,-8.5c4.69442,0 8.5,3.80558 8.5,8.5c0,4.69442 -3.80558,8.5 -8.5,8.5c-4.69442,0 -8.5,-3.80558 -8.5,-8.5z" fill="url(#color-15)" stroke="#808080" stroke-width="0"/><path d="M62.01641,296.63867l2.8,-2.4l2.2,3l-2,1.4z" fill="#b8ebff" stroke="none" stroke-width="0.5"/></g><g stroke-linecap="butt"><path d="M443.51173,13.04297c0,-4.69442 3.80558,-8.5 8.5,-8.5c4.69442,0 8.5,3.80558 8.5,8.5c0,4.69442 -3.80558,8.5 -8.5,8.5c-4.69442,0 -8.5,-3.80558 -8.5,-8.5z" fill="url(#color-16)" stroke="#808080" stroke-width="0"/><path d="M449.01641,13.13867l2.8,-2.4l2.2,3l-2,1.4z" fill="#b8ebff" stroke="none" stroke-width="0.5"/></g><g stroke-linecap="butt"><path d="M467.01173,338.75243c0,-2.60096 2.1085,-4.70946 4.70946,-4.70946c2.60096,0 4.70946,2.1085 4.70946,4.70946c0,2.60096 -2.1085,4.70946 -4.70946,4.70946c-2.60096,0 -4.70946,-2.1085 -4.70946,-4.70946z" fill="url(#color-17)" stroke="#808080" stroke-width="0"/><path d="M470.06162,338.80545l1.55135,-1.32972l1.21892,1.66216l-1.10811,0.77568z" fill="#b8ebff" stroke="none" stroke-width="0.5"/></g><g stroke-linecap="butt"><path d="M426.55227,352.79297c0,-2.60096 2.1085,-4.70946 4.70946,-4.70946c2.60096,0 4.70946,2.1085 4.70946,4.70946c0,2.60096 -2.1085,4.70946 -4.70946,4.70946c-2.60096,0 -4.70946,-2.1085 -4.70946,-4.70946z" fill="url(#color-18)" stroke="#808080" stroke-width="0"/><path d="M429.60216,352.846l1.55135,-1.32973l1.21892,1.66216l-1.10811,0.77567z" fill="#b8ebff" stroke="none" stroke-width="0.5"/></g><g stroke-linecap="butt"><path d="M4.32254,333.06324c0,-2.60096 2.1085,-4.70946 4.70946,-4.70946c2.60096,0 4.70946,2.1085 4.70946,4.70946c0,2.60096 -2.1085,4.70946 -4.70946,4.70946c-2.60096,0 -4.70946,-2.1085 -4.70946,-4.70946z" fill="url(#color-19)" stroke="#808080" stroke-width="0"/><path d="M7.37243,333.11627l1.55135,-1.32973l1.21892,1.66216l-1.10811,0.77568z" fill="#b8ebff" stroke="none" stroke-width="0.5"/></g><g stroke-linecap="butt"><path d="M28.59281,292.83351c0,-2.60096 2.1085,-4.70946 4.70946,-4.70946c2.60096,0 4.70946,2.1085 4.70946,4.70946c0,2.60096 -2.1085,4.70946 -4.70946,4.70946c-2.60096,0 -4.70946,-2.1085 -4.70946,-4.70946z" fill="url(#color-20)" stroke="#808080" stroke-width="0"/><path d="M31.6427,292.88653l1.55135,-1.32973l1.21892,1.66216l-1.10811,0.77567z" fill="#b8ebff" stroke="none" stroke-width="0.5"/></g><g stroke-linecap="butt"><path d="M50.01173,351.54297c0,-4.69442 3.80558,-8.5 8.5,-8.5c4.69442,0 8.5,3.80558 8.5,8.5c0,4.69442 -3.80558,8.5 -8.5,8.5c-4.69442,0 -8.5,-3.80558 -8.5,-8.5z" fill="url(#color-21)" stroke="#808080" stroke-width="0"/><path d="M55.51641,351.63867l2.8,-2.4l2.2,3l-2,1.4z" fill="#b8ebff" stroke="none" stroke-width="0.5"/></g><g stroke-linecap="butt"><path d="M407.51173,4.54297c0,-4.69442 3.80558,-8.5 8.5,-8.5c4.69442,0 8.5,3.80558 8.5,8.5c0,4.69442 -3.80558,8.5 -8.5,8.5c-4.69442,0 -8.5,-3.80558 -8.5,-8.5z" fill="url(#color-22)" stroke="#808080" stroke-width="0"/><path d="M413.01641,4.63867l2.8,-2.4l2.2,3l-2,1.4z" fill="#b8ebff" stroke="none" stroke-width="0.5"/></g><g stroke-linecap="butt"><path d="M79.51173,1.04297c0,-4.69442 3.80558,-8.5 8.5,-8.5c4.69442,0 8.5,3.80558 8.5,8.5c0,4.69442 -3.80558,8.5 -8.5,8.5c-4.69442,0 -8.5,-3.80558 -8.5,-8.5z" fill="url(#color-23)" stroke="#808080" stroke-width="0"/><path d="M85.01641,1.13867l2.8,-2.4l2.2,3l-2,1.4z" fill="#b8ebff" stroke="none" stroke-width="0.5"/></g><g stroke-linecap="butt"><path d="M31.93171,99.08298c0,-3.33581 2.70421,-6.04001 6.04001,-6.04001c3.33581,0 6.04001,2.70421 6.04001,6.04001c0,3.33581 -2.70421,6.04001 -6.04001,6.04001c-3.33581,0 -6.04001,-2.70421 -6.04001,-6.04001z" fill="url(#color-24)" stroke="#808080" stroke-width="0"/><path d="M35.84327,99.15099l1.98965,-1.70542l1.5633,2.13177l-1.42118,0.99483z" fill="#b8ebff" stroke="none" stroke-width="0.5"/></g><g stroke-linecap="butt"><path d="M449.09281,326.94708c0,-1.84822 1.49828,-3.34649 3.34649,-3.34649c1.84822,0 3.34649,1.49828 3.34649,3.34649c0,1.84822 -1.49828,3.34649 -3.34649,3.34649c-1.84822,0 -3.34649,-1.49828 -3.34649,-3.34649z" fill="url(#color-25)" stroke="#808080" stroke-width="0"/><path d="M451.26003,326.98475l1.10237,-0.94489l0.86615,1.18111l-0.78741,0.55118z" fill="#b8ebff" stroke="none" stroke-width="0.5"/></g><g stroke-linecap="butt"><path d="M446.93171,151.58298c0,-3.3358 2.70421,-6.04001 6.04001,-6.04001c3.3358,0 6.04001,2.70421 6.04001,6.04001c0,3.3358 -2.70421,6.04002 -6.04001,6.04002c-3.3358,0 -6.04001,-2.70421 -6.04001,-6.04002z" fill="url(#color-26)" stroke="#808080" stroke-width="0"/><path d="M450.84328,151.65099l1.98965,-1.70541l1.5633,2.13177l-1.42118,0.99483z" fill="#b8ebff" stroke="none" stroke-width="0.5"/></g><g stroke-linecap="butt"><path d="M463.09281,142.44708c0,-1.84822 1.49828,-3.3465 3.3465,-3.3465c1.84821,0 3.34649,1.49828 3.34649,3.3465c0,1.84822 -1.49828,3.34649 -3.34649,3.34649c-1.84821,0 -3.3465,-1.49827 -3.3465,-3.34649z" fill="url(#color-27)" stroke="#808080" stroke-width="0"/><path d="M465.26003,142.48476l1.10237,-0.9449l0.86615,1.18112l-0.78741,0.55119z" fill="#b8ebff" stroke="none" stroke-width="0.5"/></g><path d="M344.02345,7.03482c0,-6.90356 5.59644,-12.5 12.5,-12.5c6.90356,0 12.5,5.59644 12.5,12.5c0,6.90356 -5.59644,12.5 -12.5,12.5c-6.90356,0 -12.5,-5.59644 -12.5,-12.5z" fill="url(#color-28)" stroke="#5491e2" stroke-width="0" stroke-linecap="butt"/><g stroke-linecap="butt"><path d="M44.93171,96.58298c0,-2.78352 2.25649,-5.04001 5.04001,-5.04001c2.78352,0 5.04001,2.25649 5.04001,5.04001c0,2.78352 -2.25649,5.04001 -5.04001,5.04001c-2.78352,0 -5.04001,-2.25649 -5.04001,-5.04001z" fill="url(#color-29)" stroke="#808080" stroke-width="0"/><path d="M48.19567,96.63973l1.66024,-1.42306l1.30448,1.77883l-1.18589,0.83012z" fill="#b8ebff" stroke="none" stroke-width="0.5"/></g><path d="M430.35988,280.73556c0,0 2.33622,-0.24243 2.67317,-1.36414c0.16473,-0.54839 1.75112,-4.92132 2.71296,-9.96418c1.00557,-5.27214 1.38462,-11.21137 1.38462,-11.21137c0,0 1.13129,-1.75737 1.76399,0.5351c0.53774,1.94841 0.54636,7.77566 0.9897,9.96268c0.98226,4.84557 1.14428,8.72108 1.51454,9.38444c1.56939,2.81176 2.31903,2.03832 2.31903,2.03832" fill="none" stroke="#3a659d" stroke-width="2.5" stroke-linecap="round"/><path d="M65.35988,109.73556c0,0 -2.21099,-0.347 -2.52988,-1.95255c-0.1559,-0.78493 -1.65726,-7.04409 -2.56754,-14.26215c-0.95167,-7.54624 -1.3104,-16.04731 -1.3104,-16.04731c0,0 -1.07065,-2.5154 -1.66944,0.76591c-0.50892,2.78884 -0.51707,11.12963 -0.93665,14.26001c-0.92961,6.93567 -1.08294,12.48285 -1.43336,13.43235c-1.48527,4.02459 -2.19472,2.91753 -2.19472,2.91753" fill="none" stroke="#3a659d" stroke-width="2.5" stroke-linecap="round"/></g></g></svg>