<svg version="1.1" xmlns="http://www.w3.org/2000/svg" xmlns:xlink="http://www.w3.org/1999/xlink" width="62.11111" height="62.11111" viewBox="0,0,62.11111,62.11111"><defs><linearGradient x1="240.04351" y1="179.21989" x2="240.04351" y2="180.12465" gradientUnits="userSpaceOnUse" id="color-1"><stop offset="0" stop-color="#ae00ff"/><stop offset="1" stop-color="#ae00ff" stop-opacity="0"/></linearGradient></defs><g transform="translate(-208.94453,-148.94448)"><g data-paper-data="{&quot;isPaintingLayer&quot;:true}" fill-rule="nonzero" stroke-linejoin="miter" stroke-miterlimit="10" stroke-dasharray="" stroke-dashoffset="0" style="mix-blend-mode: normal"><path d="M208.94453,211.05559v-62.11111h62.11111v62.11111z" data-paper-data="{&quot;index&quot;:null}" fill="none" stroke="none" stroke-width="NaN" stroke-linecap="butt"/><path d="M229.89521,188.91586v-14.37714h20.34716v14.37714z" fill="#000000" stroke="#51008a" stroke-width="1.5" stroke-linecap="butt"/><path d="M229.34532,178.4452c0,0 0,-3.70936 0,-5.06808c0,-1.412 1.39956,-2.29299 3.0537,-2.29299c2.45312,0 10.30196,0 14.8702,0c1.79177,0 3.38563,0.87234 3.38563,2.40182c0,1.35669 0,4.95925 0,4.95925z" fill="#000000" stroke="#51008a" stroke-width="1.5" stroke-linecap="butt"/><path d="M230.42143,187.3883h19.44858" fill="none" stroke="#51008a" stroke-width="0.5" stroke-linecap="round"/><path d="M231.23615,186.54277v-3.74873l3.60836,3.74873z" fill="none" stroke="#51008a" stroke-width="0.5" stroke-linecap="butt"/><path d="M236.38031,182.59171v3.74873l-3.60836,-3.74873z" data-paper-data="{&quot;index&quot;:null}" fill="none" stroke="#51008a" stroke-width="0.5" stroke-linecap="butt"/><path d="M241.17752,182.59172l-3.60836,3.74873v-3.74873z" data-paper-data="{&quot;index&quot;:null}" fill="none" stroke="#51008a" stroke-width="0.5" stroke-linecap="butt"/><path d="M239.10499,186.54277l3.60836,-3.74874v3.74874z" data-paper-data="{&quot;index&quot;:null}" fill="none" stroke="#51008a" stroke-width="0.5" stroke-linecap="butt"/><path d="M243.79177,186.54277v-3.74874l3.60836,3.74874z" data-paper-data="{&quot;index&quot;:null}" fill="none" stroke="#51008a" stroke-width="0.5" stroke-linecap="butt"/><path d="M248.93592,182.59172v3.74873l-3.60836,-3.74873z" data-paper-data="{&quot;index&quot;:null}" fill="none" stroke="#51008a" stroke-width="0.5" stroke-linecap="butt"/><path d="M230.37211,181.67763h19.44858" fill="none" stroke="#51008a" stroke-width="0.5" stroke-linecap="round"/><path d="M230.2463,179.75395h19.44858" fill="none" stroke="#51008a" stroke-width="0.5" stroke-linecap="round"/><path d="M229.39369,177.08136h21.32295" fill="none" stroke="#51008a" stroke-width="0.5" stroke-linecap="round"/><path d="M230.47108,174.39764h3.63397l-1.81699,1.81699z" fill="none" stroke="#51008a" stroke-width="0.5" stroke-linecap="butt"/><path d="M235.33719,174.42483l1.81699,1.81699h-3.63397z" data-paper-data="{&quot;index&quot;:null}" fill="none" stroke="#51008a" stroke-width="0.5" stroke-linecap="butt"/><path d="M236.5532,174.39764h3.63397l-1.81699,1.81699z" data-paper-data="{&quot;index&quot;:null}" fill="none" stroke="#51008a" stroke-width="0.5" stroke-linecap="butt"/><path d="M241.41932,174.42483l1.81699,1.81699h-3.63397z" data-paper-data="{&quot;index&quot;:null}" fill="none" stroke="#51008a" stroke-width="0.5" stroke-linecap="butt"/><path d="M242.67358,174.39764h3.63397l-1.81699,1.81699z" data-paper-data="{&quot;index&quot;:null}" fill="none" stroke="#51008a" stroke-width="0.5" stroke-linecap="butt"/><path d="M247.53969,174.42483l1.81699,1.81699h-3.63397z" data-paper-data="{&quot;index&quot;:null}" fill="none" stroke="#51008a" stroke-width="0.5" stroke-linecap="butt"/><path d="M229.73796,173.53742h20.17537" fill="none" stroke="#51008a" stroke-width="0.5" stroke-linecap="round"/><path d="M229.15463,174.41377l1.81698,1.81699h-2.20576" data-paper-data="{&quot;index&quot;:null}" fill="none" stroke="#51008a" stroke-width="0.5" stroke-linecap="butt"/><path d="M250.42475,176.1432l-1.81699,-1.81699h2.20577" data-paper-data="{&quot;index&quot;:null}" fill="none" stroke="#51008a" stroke-width="0.5" stroke-linecap="butt"/><g stroke="#ae00ff" stroke-linecap="butt"><path d="M240.0283,175.65993l2.88214,2.88214l-2.88214,2.88214l-2.88214,-2.88214z" data-paper-data="{&quot;index&quot;:null}" fill="none" stroke-width="0.35"/><path d="M239.40232,180.04008l-0.27269,-0.64479l0.24059,-0.612l0.65808,-0.28667l0.64491,0.27282l0.25375,0.62585l-0.25138,0.65608" fill="none" stroke-width="0.35"/><path d="M239.02791,177.41142c0.40989,0.1673 0.58828,0.63552 0.58828,0.63552c0,0 -0.48619,0.19696 -0.89608,0.02966" fill="none" stroke-width="0.35"/><path d="M240.39432,176.79018c0.00146,0.44272 -0.36339,0.81963 -0.36339,0.81963c0,0 -0.36721,-0.34089 -0.36867,-0.7836" data-paper-data="{&quot;index&quot;:null}" fill="none" stroke-width="0.35"/><path d="M241.33649,178.07661c-0.40989,0.1673 -0.89608,-0.02966 -0.89608,-0.02966c0,0 0.17838,-0.46822 0.58828,-0.63552" data-paper-data="{&quot;index&quot;:null}" fill="none" stroke-width="0.35"/><path d="M238.48773,179.10694l-0.56487,-0.56487l0.56487,-0.56487" fill="none" stroke-width="0.35"/><path d="M241.56886,177.97719l0.56487,0.56487l-0.56487,0.56487" data-paper-data="{&quot;index&quot;:null}" fill="none" stroke-width="0.35"/><path d="M240.01254,180.7444v-1.52714" fill="none" stroke-width="0.35"/><path d="M240.03348,176.75762l-0.30112,-0.30113l0.30112,-0.30112l0.30112,0.30112z" fill="#ae00ff" stroke-width="0"/></g><path d="M228.68637,180.12465v-0.90476h22.71429v0.90476z" fill="url(#color-1)" stroke="none" stroke-width="0" stroke-linecap="butt"/></g></g></svg>