<svg version="1.1" xmlns="http://www.w3.org/2000/svg" xmlns:xlink="http://www.w3.org/1999/xlink" width="46.75" height="46.75" viewBox="0,0,46.75,46.75"><g transform="translate(-216.625,-156.625)"><g data-paper-data="{&quot;isPaintingLayer&quot;:true}" fill-rule="nonzero" stroke-linejoin="miter" stroke-miterlimit="10" stroke-dasharray="" stroke-dashoffset="0" style="mix-blend-mode: normal"><g stroke="#00764b"><path d="M229.1356,168.71451c0,0 1.94796,6.24559 1.40235,12.28626c-0.54561,6.04067 -3.42927,10.15446 -3.42927,10.15446" fill="none" stroke-width="2.5" stroke-linecap="round"/><path d="M231.86818,185.72063c0.37948,0.67078 -0.16186,2.45472 -1.20908,3.98454c-1.04722,1.52982 -2.20379,2.2262 -2.58325,1.55543c-0.37948,-0.67078 0.16186,-2.45471 1.20908,-3.98453c1.04722,-1.52982 2.20379,-2.2262 2.58325,-1.55543z" fill="#00dd9e" stroke-width="1" stroke-linecap="butt"/><path d="M226.47938,182.04162c0.50314,-0.61599 1.51291,0.21487 2.25539,1.85578c0.74248,1.64091 0.93649,3.4705 0.43335,4.0865c-0.50313,0.61599 -1.51291,-0.21487 -2.25538,-1.85578c-0.74248,-1.64091 -0.93648,-3.47049 -0.43334,-4.08649z" data-paper-data="{&quot;index&quot;:null}" fill="#00dd9e" stroke-width="1" stroke-linecap="butt"/><path d="M231.06406,181.03094c1.04723,-1.52982 2.2038,-2.22619 2.58325,-1.55542c0.37947,0.67077 -0.16187,2.45471 -1.20909,3.98453c-1.04722,1.52982 -2.20379,2.22619 -2.58325,1.55542c-0.37946,-0.67077 0.16187,-2.45471 1.20909,-3.98453z" fill="#00dd9e" stroke-width="1" stroke-linecap="butt"/><path d="M229.19372,176.43572c0.29649,0.65527 0.50553,1.34063 0.61763,1.96678c0.16862,0.94183 0.11794,1.74971 -0.18428,2.11972c-0.50314,0.61599 -1.5129,-0.21488 -2.25538,-1.85578c-0.74248,-1.64091 -0.93649,-3.47049 -0.43335,-4.08649z" data-paper-data="{&quot;index&quot;:null}" fill="#00dd9e" stroke-width="1" stroke-linecap="butt"/><path d="M234.26257,172.09833c0.37948,0.67078 -0.16186,2.45471 -1.20908,3.98453c-1.04722,1.52982 -2.2038,2.2262 -2.58325,1.55543c-0.37948,-0.67078 0.16186,-2.45471 1.20908,-3.98453c1.04722,-1.52982 2.2038,-2.2262 2.58325,-1.55543z" fill="#00dd9e" stroke-width="1" stroke-linecap="butt"/><path d="M229.41205,169.62014c0.74248,1.64091 0.93649,3.4705 0.43335,4.0865c-0.50313,0.61599 -1.51291,-0.21487 -2.25538,-1.85578c-0.74248,-1.64091 -0.93648,-3.47049 -0.43334,-4.08648z" data-paper-data="{&quot;index&quot;:null}" fill="#00dd9e" stroke-width="1" stroke-linecap="butt"/><path d="M231.95845,167.40865c1.04723,-1.52982 2.2038,-2.2262 2.58326,-1.55542c0.37947,0.67077 -0.16187,2.45471 -1.20909,3.98453c-1.04722,1.52982 -2.20379,2.2262 -2.58325,1.55543c-0.37946,-0.67077 0.16187,-2.45472 1.20909,-3.98454z" fill="#00dd9e" stroke-width="1" stroke-linecap="butt"/></g><path d="M246.43221,184.27366c-0.0309,-0.52955 0.79315,-0.47644 1.84056,0.11861c1.04741,0.59504 1.92155,1.50669 1.95245,2.03624c0.03089,0.52954 -0.79314,0.47643 -1.84055,-0.1186c-1.04741,-0.59504 -1.92155,-1.5067 -1.95246,-2.03624z" data-paper-data="{&quot;index&quot;:null}" fill="#00dd9e" stroke="#00764b" stroke-width="1" stroke-linecap="butt"/><path d="M216.625,203.375v-46.75h46.75v46.75z" fill="none" stroke="none" stroke-width="2" stroke-linecap="butt"/><g fill="#00dd9e" stroke="#00764b"><path d="M242.63306,181.85153c0.17938,0.47761 -0.28136,1.67439 -1.02908,2.67308c-0.74773,0.99869 -1.49929,1.42112 -1.67866,0.94351c-0.17938,-0.47761 0.28136,-1.67438 1.02908,-2.67308c0.74773,-0.99869 1.49929,-1.42112 1.67866,-0.94351z" stroke-width="1" stroke-linecap="butt"/><path d="M237.27393,179.58118c0.18966,-0.49537 0.91892,-0.10799 1.62883,0.86524c0.70991,0.97323 1.13165,2.16376 0.94198,2.65913c-0.18966,0.49537 -0.91891,0.10799 -1.62883,-0.86523c-0.7099,-0.97323 -1.13165,-2.16376 -0.94199,-2.65914z" data-paper-data="{&quot;index&quot;:null}" stroke-width="1" stroke-linecap="butt"/><path d="M240.5074,177.53491c0.35299,-1.19661 0.91035,-1.85438 1.24486,-1.46917c0.33451,0.38521 0.31952,1.66752 -0.03347,2.86413c-0.35299,1.19661 -0.91034,1.85438 -1.24486,1.46917c-0.33451,-0.38521 -0.31952,-1.66752 0.03347,-2.86413z" stroke-width="1" stroke-linecap="butt"/><path d="M238.32998,175.9443c0.70991,0.97323 1.13166,2.16376 0.94199,2.65914c-0.18966,0.49536 -0.91893,0.10799 -1.62884,-0.86525c-0.70991,-0.97323 -1.13165,-2.16375 -0.94199,-2.65913z" data-paper-data="{&quot;index&quot;:null}" stroke-width="1" stroke-linecap="butt"/><path d="M240.95476,171.15134c0.33452,0.38522 0.31953,1.66753 -0.03347,2.86414c-0.35299,1.19661 -0.91033,1.85438 -1.24485,1.46917c-0.33452,-0.38522 -0.31954,-1.66752 0.03346,-2.86413c0.35299,-1.19661 0.91034,-1.85439 1.24486,-1.46918z" stroke-width="1" stroke-linecap="butt"/><path d="M236.78072,169.4957c0.18966,-0.49537 0.91893,-0.10799 1.62884,0.86524c0.70991,0.97323 1.13165,2.16376 0.94199,2.65913c-0.18966,0.49537 -0.91892,0.108 -1.62883,-0.86523c-0.7099,-0.97323 -1.13165,-2.16376 -0.94199,-2.65913z" data-paper-data="{&quot;index&quot;:null}" stroke-width="1" stroke-linecap="butt"/><path d="M238.96939,167.70974c0.35299,-1.19661 0.91035,-1.85438 1.24486,-1.46917c0.33451,0.38521 0.31952,1.66752 -0.03347,2.86413c-0.35299,1.19661 -0.91034,1.85438 -1.24486,1.46917c-0.33451,-0.38521 -0.31952,-1.66751 0.03348,-2.86412z" stroke-width="1" stroke-linecap="butt"/><path d="M237.68446,165.55619c0.70991,0.97323 1.13166,2.16377 0.94199,2.65914c-0.18966,0.49536 -0.91893,0.10798 -1.62884,-0.86525c-0.70991,-0.97323 -1.13165,-2.16376 -0.94199,-2.65913z" data-paper-data="{&quot;index&quot;:null}" stroke-width="1" stroke-linecap="butt"/><path d="M238.4143,167.76094c0,0 1.29451,8.89581 1.75883,12.08662c0.30442,2.09193 -0.27141,6.31905 -0.27141,6.31905" stroke-width="1.5" stroke-linecap="round"/></g><path d="M250.82792,190.12297c0,0 -2.75224,-3.98162 -3.42008,-6.9186c-0.66784,-2.93698 -1.17566,-13.29225 -1.17566,-13.29225" fill="#00dd9e" stroke="#00764b" stroke-width="1.5" stroke-linecap="round"/><path d="M250.73486,183.39569c0.36293,0.35858 0.44581,1.63829 0.18511,2.85834c-0.26069,1.22005 -0.76623,1.91841 -1.12917,1.55984c-0.36293,-0.35858 -0.4458,-1.63828 -0.1851,-2.85833c0.26069,-1.22005 0.76623,-1.91842 1.12916,-1.55985z" fill="#00dd9e" stroke="#00764b" stroke-width="1" stroke-linecap="butt"/><path d="M245.77469,182.98279c0.15133,-0.5084 0.908,-0.17778 1.69008,0.73847c0.78208,0.91625 1.29341,2.07114 1.14208,2.57953c-0.15133,0.5084 -0.908,0.17777 -1.69009,-0.73846c-0.78207,-0.91624 -1.29341,-2.07113 -1.14208,-2.57953z" data-paper-data="{&quot;index&quot;:null}" fill="#00dd9e" stroke="#00764b" stroke-width="1" stroke-linecap="butt"/><path d="M248.40783,181.1942c0.26069,-1.22005 0.76624,-1.91841 1.12917,-1.55984c0.36292,0.35857 0.44579,1.63829 0.1851,2.85834c-0.26069,1.22005 -0.76623,1.91841 -1.12916,1.55984c-0.36292,-0.35857 -0.4458,-1.63828 -0.1851,-2.85833z" fill="#00dd9e" stroke="#00764b" stroke-width="1" stroke-linecap="butt"/><path d="M246.17904,179.57891c0.78208,0.91625 1.29341,2.07113 1.14208,2.57954c-0.15133,0.50839 -0.90801,0.17777 -1.69009,-0.73848c-0.78208,-0.91625 -1.2934,-2.07113 -1.14208,-2.57953z" data-paper-data="{&quot;index&quot;:null}" fill="#00dd9e" stroke="#00764b" stroke-width="1" stroke-linecap="butt"/><path d="M248.25556,175.43816c0.36293,0.35858 0.4458,1.63829 0.18511,2.85834c-0.26069,1.22005 -0.76623,1.91841 -1.12917,1.55984c-0.36293,-0.35858 -0.4458,-1.63828 -0.1851,-2.85833c0.26069,-1.22005 0.76623,-1.91842 1.12916,-1.55985z" fill="#00dd9e" stroke="#00764b" stroke-width="1" stroke-linecap="butt"/><path d="M243.44692,174.08226c0.15133,-0.5084 0.90802,-0.17776 1.69009,0.73847c0.78208,0.91625 1.29341,2.07113 1.14208,2.57953c-0.15133,0.5084 -0.90801,0.17777 -1.69009,-0.73846c-0.78207,-0.91624 -1.2934,-2.07113 -1.14208,-2.57953z" data-paper-data="{&quot;index&quot;:null}" fill="#00dd9e" stroke="#00764b" stroke-width="1" stroke-linecap="butt"/><path d="M248.24715,170.19972c0.36292,0.35857 0.4458,1.63828 0.1851,2.85833c-0.26069,1.22005 -0.76623,1.91841 -1.12917,1.55984c-0.36292,-0.35857 -0.44579,-1.63829 -0.18509,-2.85834z" fill="#00dd9e" stroke="#00764b" stroke-width="1" stroke-linecap="butt"/><path d="M245.42253,170.0853c0.78208,0.91625 1.29341,2.07114 1.14208,2.57954c-0.15133,0.50839 -0.90801,0.17777 -1.69009,-0.73848c-0.78208,-0.91625 -1.29341,-2.07113 -1.14208,-2.57953z" data-paper-data="{&quot;index&quot;:null}" fill="#00dd9e" stroke="#00764b" stroke-width="1" stroke-linecap="butt"/></g></g></svg>