<svg version="1.1" xmlns="http://www.w3.org/2000/svg" xmlns:xlink="http://www.w3.org/1999/xlink" width="101.78488" height="101.78488" viewBox="0,0,101.78488,101.78488"><g transform="translate(-189.10756,-129.10756)"><g data-paper-data="{&quot;isPaintingLayer&quot;:true}" fill-rule="nonzero" stroke-linejoin="miter" stroke-miterlimit="10" stroke-dasharray="" stroke-dashoffset="0" style="mix-blend-mode: normal"><path d="M277.24105,200.57512c-0.52501,0.7904 -6.38297,3.3802 -11.99932,1.78932c-5.58861,5.58485 -13.24855,9.01207 -21.68377,8.97078c-11.65459,-0.05706 -19.40214,0.28561 -31.05673,0.22856c-4.25124,-0.02081 -9.4073,-3.50287 -9.61626,-8.0818c-0.27535,-6.03369 6.68832,-7.33651 6.72935,-7.79991c-0.0362,-0.52509 -6.62062,-1.26094 -6.65266,-7.86541c-0.02836,-5.84573 6.86618,-7.99645 6.86978,-8.47804c0.02421,-0.49045 -6.8972,-1.71618 -7.11443,-7.111c-0.23294,-5.78479 7.44195,-7.62195 7.25989,-8.05044c0.0982,-0.25205 -6.82041,-1.80629 -6.86048,-7.97187c-0.03057,-4.70355 5.44147,-7.55523 9.69271,-7.53442c11.64302,0.057 19.41374,-0.29177 31.05676,-0.23478c8.12131,0.03976 15.49253,3.28749 20.96849,8.56201c2.99531,-0.99452 10.79829,-0.78061 11.2716,0.01736c0.73742,1.24323 -4.21928,10.29951 -3.69367,11.45098c1.59176,3.48714 2.1098,7.48854 2.08981,11.56994c-0.02165,4.42238 -0.76232,7.59513 -2.39393,11.4051c0.81906,1.31433 5.7096,8.26536 5.13287,9.13364z" fill="#ffdc5f" stroke="#000000" stroke-width="2.5" stroke-linecap="butt"/><path d="M189.10756,230.89244v-101.78488h101.78488v101.78488z" fill="none" stroke="none" stroke-width="NaN" stroke-linecap="butt"/><path d="M252.01795,207.27002c-6.7205,-0.0329 -12.14148,-5.59017 -12.10808,-12.41249c0.0334,-6.82233 5.50852,-12.32625 12.22903,-12.29335c6.7205,0.0329 12.14148,5.59017 12.10808,12.41249c-0.0334,6.82233 -5.50852,12.32625 -12.22903,12.29335z" fill="#fff4c3" stroke="none" stroke-width="2.5" stroke-linecap="butt"/><path d="M260.24218,164.94135l1.97467,-1.95543" fill="none" stroke="#000000" stroke-width="2.5" stroke-linecap="round"/><path d="M241.46291,185.09318c-1.93265,-0.00946 -7.20061,-0.84388 -7.17568,-5.93517c0.02492,-5.09129 4.67966,-5.13963 6.61229,-5.13017c1.93265,0.00946 4.94018,-0.24894 4.91525,4.84236c-0.02492,5.09129 -2.41923,6.23245 -4.35188,6.22299z" fill="#ff2929" stroke="#000000" stroke-width="0.5" stroke-linecap="butt"/><path d="M260.7889,192.47433l1.95543,1.97468" data-paper-data="{&quot;index&quot;:null}" fill="none" stroke="#000000" stroke-width="2.5" stroke-linecap="round"/><path d="M243.0187,185.42369c0,0 -9.07949,0.6781 -9.04187,-6.02814c0.03673,-6.5495 9.39954,-5.45261 9.39954,-5.45261" fill="none" stroke="#000000" stroke-width="2.5" stroke-linecap="round"/><path d="M242.72355,173.86009c0.78219,0.00383 1.41316,0.64102 1.40933,1.42321c-0.00383,0.78219 -0.64102,1.41316 -1.4232,1.40933c-0.78219,-0.00383 -3.52987,-0.37545 -3.52605,-1.15765c0.00383,-0.78219 2.75773,-1.67873 3.53991,-1.6749z" fill="#ffffff" stroke="none" stroke-width="0" stroke-linecap="butt"/><path d="M242.82698,182.57545c0.78219,0.00383 1.41317,0.64102 1.40934,1.4232c-0.00383,0.78219 -0.64102,1.41316 -1.42321,1.40933c-0.78219,-0.00383 -3.52987,-0.37545 -3.52605,-1.15765c0.00383,-0.78219 2.75772,-1.67873 3.53991,-1.6749z" fill="#ffffff" stroke="none" stroke-width="0" stroke-linecap="butt"/><path d="M238.90141,162.06816l-1.61232,-4.9046" fill="none" stroke="#000000" stroke-width="2.5" stroke-linecap="round"/><path d="M242.70019,154.54865l-1.03382,7.02863" fill="none" stroke="#000000" stroke-width="2.5" stroke-linecap="round"/><path d="M237.90158,202.02836l1.66025,-4.88859" data-paper-data="{&quot;index&quot;:null}" fill="none" stroke="#000000" stroke-width="2.5" stroke-linecap="round"/><path d="M243.28683,204.69612l-0.96496,-7.03842" data-paper-data="{&quot;index&quot;:null}" fill="none" stroke="#000000" stroke-width="2.5" stroke-linecap="round"/><path d="M247.35555,189.41541c0,0 -3.12897,-2.13523 -3.12197,-4.62942c0.007,-2.4942 3.15055,-5.56057 3.15055,-5.56057c0,0 -2.94506,-2.90414 -2.73847,-5.35966c0.2066,-2.45553 2.2648,-4.59556 2.2648,-4.59556" fill="none" stroke="#000000" stroke-width="2.5" stroke-linecap="round"/><path d="M249.80982,181.97843c0,0 -2.3174,-1.74788 -2.31309,-2.62803c0.00439,-0.8963 2.33919,-2.70216 2.33919,-2.70216" fill="none" stroke="#000000" stroke-width="2.5" stroke-linecap="round"/><g fill="none" stroke="#000000" stroke-width="2.5" stroke-linecap="round"><path d="M248,158.4l6.4,6.4"/><path d="M248,164.8l6.4,-6.4" data-paper-data="{&quot;index&quot;:null}"/></g><g fill="none" stroke="#000000" stroke-width="2.5" stroke-linecap="round"><path d="M249.2,193.2l6.4,6.4"/><path d="M249.2,199.6l6.4,-6.4" data-paper-data="{&quot;index&quot;:null}"/></g></g></g></svg>