<svg version="1.1" xmlns="http://www.w3.org/2000/svg" xmlns:xlink="http://www.w3.org/1999/xlink" width="64.91667" height="60.5" viewBox="0,0,64.91667,60.5"><defs><radialGradient cx="236.42378" cy="173.07902" r="4.52585" gradientUnits="userSpaceOnUse" id="color-1"><stop offset="0" stop-color="#fffa00"/><stop offset="1" stop-color="#fffa00" stop-opacity="0"/></radialGradient><radialGradient cx="244.32957" cy="172.98332" r="4.52584" gradientUnits="userSpaceOnUse" id="color-2"><stop offset="0" stop-color="#fffa00"/><stop offset="1" stop-color="#fffa00" stop-opacity="0"/></radialGradient></defs><g transform="translate(-207.54167,-145.30556)"><g data-paper-data="{&quot;isPaintingLayer&quot;:true}" fill-rule="nonzero" stroke-linejoin="miter" stroke-miterlimit="10" stroke-dasharray="" stroke-dashoffset="0" style="mix-blend-mode: normal"><path d="M240.89904,192.4759c-0.10455,-0.01214 -0.05996,-6.34003 0.66971,-6.72077c0.05281,-0.02756 1.05608,-2.26401 1.15783,-1.59079c0.25003,1.65433 -0.75966,7.41143 -0.60589,7.35466c0.91315,-0.33713 2.52832,-0.61322 3.69917,0.04028c1.39716,0.7798 0.86646,0.93902 -0.48243,1.10959c-2.40957,0.30472 -2.84494,-0.00793 -4.43838,-0.19297z" data-paper-data="{&quot;index&quot;:null}" fill="#246900" stroke="none" stroke-width="NaN" stroke-linecap="butt"/><path d="M234.58793,192.62062c-1.3489,-0.17059 -1.87958,-0.32979 -0.48243,-1.10959c1.17084,-0.6535 2.78602,-0.3774 3.69917,-0.04028c0.15376,0.05677 -0.85593,-5.70033 -0.6059,-7.35467c0.10175,-0.67322 1.10504,1.56323 1.15784,1.59079c0.72967,0.38074 0.77426,6.70863 0.66971,6.72077c-1.59344,0.18504 -2.02882,0.49769 -4.43839,0.19297z" fill="#246900" stroke="none" stroke-width="NaN" stroke-linecap="butt"/><path d="M235.91412,165.53529l-2.81276,-5.4123l-3.72918,-2.15092l0.11161,-0.94264l2.75222,1.38638l-0.6459,-2.32307l0.97937,-0.3796c0,0 0.37027,1.95012 0.9058,3.0292c0.79859,1.60915 3.42037,5.68799 3.42037,5.68799z" data-paper-data="{&quot;index&quot;:null}" fill="#633407" stroke="#000000" stroke-width="1" stroke-linecap="round"/><path d="M244.9674,164.78478c0,0 3.02012,-4.69857 3.94005,-6.55221c0.6169,-1.24304 1.04342,-3.48945 1.04342,-3.48945l1.12817,0.43727l-0.74404,2.67603l3.1704,-1.59703l0.12857,1.08586l-4.29579,2.47773l-3.24013,6.23464z" fill="#633407" stroke="#000000" stroke-width="1" stroke-linecap="round"/><path d="M249.35728,158.1408c0.31119,0.61777 -3.12464,0.83152 -3.85143,1.19763c-0.72679,0.36611 -1.56824,0.16209 -1.87943,-0.45569c-0.31119,-0.61777 0.02572,-1.41536 0.7525,-1.78147c0.72679,-0.36611 4.66717,0.42174 4.97835,1.03951z" fill="#246900" stroke="#000000" stroke-width="1" stroke-linecap="butt"/><path d="M241.44924,166.20709c1.67576,0.00555 7.16209,-1.47808 7.16209,-1.47808c0,0 0.24095,5.65275 0.26452,11.2848c0.02135,5.10226 -0.1565,10.18753 -0.47011,11.03756c-0.63347,1.71695 -0.81311,0.89364 -1.59949,1.27016c-0.78638,0.37651 -1.4037,1.0471 -2.66517,1.32889c-1.26148,0.2818 -1.98127,-0.04946 -2.94056,-0.07665c-0.95929,-0.02719 -2.34278,0.33926 -3.83092,0.11165c-1.48815,-0.22761 -1.92907,-0.75465 -3.09742,-1.17132c-1.16834,-0.41665 -2.92957,-0.08408 -2.95531,-1.51934c-0.00836,-0.46644 -0.1964,-5.33587 -0.14712,-10.48295c0.0568,-5.93175 0.35272,-12.2119 0.35272,-12.2119z" fill="#6e4117" stroke="#000000" stroke-width="1" stroke-linecap="butt"/><path d="M248.72369,164.94063c0,0.44638 -1.15671,0.96023 -2.05123,1.24159c-1.03349,0.32508 -1.9499,0.38608 -4.09701,0.42285c-0.78098,0.01338 -1.30522,0.21192 -2.14784,0.21192c-1.06075,0 -2.04448,-1.05897 -3.26968,-1.35676c-1.2579,-0.30574 -2.75425,0.14601 -3.59247,-0.12725c-1.74515,-0.56891 -2.03007,-0.74925 -2.03007,-1.35952c0,-0.89097 1.60136,-1.31862 4.41241,-1.68474c0.93999,-0.12243 2.27999,-0.60613 3.38691,-0.60613c0.85822,0 1.94199,0.35444 3.12528,0.48902c1.3481,0.15333 2.7958,0.10364 3.66427,0.3716c2.29269,0.70736 2.59944,1.70268 2.59944,2.39741z" fill="#6e4117" stroke="#000000" stroke-width="1" stroke-linecap="butt"/><path d="M236.17374,186.00915l0.52161,-17.25848" fill="none" stroke="#633407" stroke-width="1" stroke-linecap="round"/><path d="M247.44036,164.57908c0,0.11859 -0.84243,0.37926 -1.62837,0.45401c-0.90805,0.08637 -1.1916,0.22673 -3.07808,0.23651c-0.737,0.00381 -1.78763,0.18046 -2.52465,0.18046c-0.93198,0 -1.68038,-1.15046 -2.75687,-1.22958c-1.10522,-0.08123 -2.41992,0.03879 -3.15639,-0.03381c-1.53331,-0.15115 -0.97225,-0.07489 -0.97225,-0.23702c0,-0.2367 0.59559,-0.47448 3.06541,-0.57174c0.82589,-0.03252 1.8873,-0.53351 2.85986,-0.53351c0.75406,0 1.59034,0.40458 2.62999,0.44033c1.18445,0.04073 2.68825,0.08961 3.45131,0.1608c2.01439,0.18792 2.11003,0.949 2.11003,1.13357z" fill="#351f0b" stroke="#000000" stroke-width="1" stroke-linecap="butt"/><path d="M243.36037,168.25402l0.17387,17.87929" fill="none" stroke="#633407" stroke-width="1" stroke-linecap="round"/><path d="M239.41931,167.75738l-0.28978,13.53363" fill="none" stroke="#633407" stroke-width="1" stroke-linecap="round"/><path d="M245.91047,166.88825l-0.05796,13.84403" fill="none" stroke="#633407" stroke-width="1" stroke-linecap="round"/><path d="M232.58042,185.38834l0.34774,-12.66449" fill="none" stroke="#633407" stroke-width="1" stroke-linecap="round"/><path d="M233.85547,180.91852l1.04322,-13.84403" fill="none" stroke="#633407" stroke-width="1" stroke-linecap="round"/><path d="M241.50575,188.18198l0.05795,-7.94635" fill="none" stroke="#633407" stroke-width="1" stroke-linecap="round"/><path d="M247.76508,177.0695l-0.23182,10.42958" fill="none" stroke="#633407" stroke-width="1" stroke-linecap="round"/><path d="M237.33287,188.74072l3.94106,-0.06209l2.55009,0.31041" fill="none" stroke="#633407" stroke-width="1" stroke-linecap="round"/><path d="M232.23268,165.58455l1.50687,0.74497l2.89783,-0.18625l3.76719,1.61409l0.4057,3.47653" fill="none" stroke="#633407" stroke-width="1" stroke-linecap="round"/><g stroke-linecap="butt"><path d="M233.10227,173.1635c0,-0.73685 0.63013,-1.68723 1.06796,-2.21199c0.55498,-0.66521 1.02344,-0.81345 1.95748,-0.81345c0.98968,0 1.96006,0.4752 2.51205,1.20987c0.37994,0.5057 0.5134,1.13434 0.5134,1.81556c0,1.36867 -0.26706,2.8001 -1.51415,3.17366c-0.2754,0.0825 -1.75912,-0.14823 -2.06135,-0.14823c-0.90786,0 -1.35561,-0.30819 -1.91016,-0.94144c-0.46608,-0.53222 -0.5652,-1.32097 -0.5652,-2.084z" fill="#1c1106" stroke="#000000" stroke-width="1"/><path d="M241.10844,173.05475c0,-1.15403 0.00438,-1.79045 0.95462,-2.30062c0.42558,-0.22849 1.55394,-0.72482 2.07081,-0.72482c0.8123,0 2.09992,0.77852 2.6434,1.2995c0.57447,0.55067 0.38204,0.86734 0.38204,1.72595c0,0.78604 0.06695,1.50208 -0.42449,2.04002c-0.55323,0.60556 -1.71609,0.98543 -2.60094,0.98543c-0.98968,0 -1.3183,-0.0168 -1.87027,-0.75149c-0.37994,-0.5057 -1.15517,-1.59274 -1.15517,-2.27395z" fill="#1c1106" stroke="#000000" stroke-width="1"/><path d="M231.89796,173.07902c0,-2.49956 2.02627,-4.52583 4.52584,-4.52583c2.49956,0 4.52585,2.02628 4.52585,4.52583c0,2.49956 -2.02629,4.52584 -4.52585,4.52584c-2.49956,0 -4.52584,-2.02628 -4.52584,-4.52584z" fill="url(#color-1)" stroke="none" stroke-width="0"/><path d="M234.78398,173.14461c0,-0.86943 0.7048,-1.5742 1.57421,-1.5742c0.86943,0 1.5742,0.70479 1.5742,1.5742c0,0.37318 -0.12984,0.71601 -0.34681,0.98581c-0.32887,-0.23343 -0.73081,-0.37066 -1.16481,-0.37066c-0.46839,0 -0.89945,0.15984 -1.24161,0.42796c-0.2459,-0.27773 -0.39518,-0.64299 -0.39518,-1.04311z" fill="#ffffff" stroke="none" stroke-width="0.5"/><path d="M239.80372,172.98332c0,-2.49956 2.02628,-4.52585 4.52583,-4.52585c2.49956,0 4.52584,2.02629 4.52584,4.52585c0,2.49956 -2.02628,4.52583 -4.52584,4.52583c-2.49956,0 -4.52583,-2.02627 -4.52583,-4.52583z" fill="url(#color-2)" stroke="none" stroke-width="0"/><path d="M242.6749,172.96082c0.0892,-0.86482 0.86259,-1.4936 1.72742,-1.40439c0.86482,0.0892 1.49358,0.86259 1.40439,1.72741c-0.03205,0.31067 -0.15237,0.59089 -0.33353,0.81829c-0.2825,-0.21204 -0.62441,-0.35248 -1.00136,-0.39135c-0.13131,-0.01355 -0.26098,-0.01416 -0.38773,-0.00287c-0.17103,0.00495 -0.34286,0.04195 -0.51142,0.11448c-0.19739,0.07239 -0.38122,0.17501 -0.5453,0.3028c-0.25933,-0.31381 -0.39755,-0.72741 -0.35248,-1.16436z" fill="#ffffff" stroke="none" stroke-width="0.5"/></g><path d="M207.54168,205.80556v-60.5h64.91667v60.5z" fill="none" stroke="none" stroke-width="NaN" stroke-linecap="butt"/></g></g></svg>