<svg version="1.1" xmlns="http://www.w3.org/2000/svg" xmlns:xlink="http://www.w3.org/1999/xlink" width="59.55556" height="59.55556" viewBox="0,0,59.55556,59.55556"><defs><linearGradient x1="242.80649" y1="166.80228" x2="237.22711" y2="193.21182" gradientUnits="userSpaceOnUse" id="color-1"><stop offset="0" stop-color="#fcfcfc"/><stop offset="1" stop-color="#f7f7f7"/></linearGradient><linearGradient x1="236.88284" y1="167.89249" x2="243.06521" y2="192.07517" gradientUnits="userSpaceOnUse" id="color-2"><stop offset="0" stop-color="#fcfcfc"/><stop offset="1" stop-color="#f7f7f7"/></linearGradient><linearGradient x1="240.25499" y1="167.27578" x2="240.25499" y2="195.04493" gradientTransform="translate(-390.08333,-312.60993) scale(1.6619,1.6619)" gradientUnits="userSpaceOnUse" id="color-3"><stop offset="0" stop-color="#ff3333"/><stop offset="1" stop-color="#f129ff"/></linearGradient><linearGradient x1="240.25499" y1="167.27578" x2="240.25499" y2="195.04493" gradientTransform="translate(-390.08333,-312.60993) scale(1.6619,1.6619)" gradientUnits="userSpaceOnUse" id="color-4"><stop offset="0" stop-color="#fd314e"/><stop offset="1" stop-color="#f52cca"/></linearGradient></defs><g transform="translate(-210.22222,-150.22222)"><g data-paper-data="{&quot;isPaintingLayer&quot;:true}" fill-rule="nonzero" stroke-linecap="butt" stroke-linejoin="miter" stroke-miterlimit="10" stroke-dasharray="" stroke-dashoffset="0" style="mix-blend-mode: normal"><path d="M210.22222,209.77778v-59.55556h59.55556v59.55556z" fill="none" stroke="none" stroke-width="0"/><path d="M235.19869,191.4334c-1.97404,-3.12761 -4.67576,-7.40814 -7.66848,-12.14974c-0.61796,-0.97908 -0.95241,-1.17964 -0.66166,-2.30032c0.29075,-1.12068 0.70735,-1.23669 1.75008,-1.89482c4.66808,-2.94632 8.95122,-5.64968 11.96137,-7.54959c1.00338,-0.63331 1.21703,-1.00993 2.36262,-0.70097c1.1456,0.30897 1.28265,0.78018 1.97021,1.86953c2.89993,4.59457 5.38707,8.53513 7.4307,11.77301c0.6812,1.07928 1.0597,1.30284 0.82374,2.55712c-0.23596,1.25428 -0.64589,1.19788 -1.64928,1.83119c-1.00338,0.63331 -8.8332,5.57519 -11.96137,7.54959c-1.04274,0.65814 -1.26071,1.03644 -2.46342,0.7646z" fill="#343434" stroke="url(#color-1)" stroke-width="1"/><path d="M240.65536,191.43066c-2.91696,-1.78553 -6.9092,-4.22924 -11.33144,-6.93618c-0.91313,-0.55895 -1.27256,-0.58838 -1.49013,-1.63666c-0.21757,-1.04828 0.08039,-1.31498 0.67568,-2.28748c2.66497,-4.35368 5.11017,-8.34834 6.82864,-11.15576c0.57282,-0.93581 0.59583,-1.33556 1.67222,-1.54823c1.0764,-0.21267 1.3829,0.12198 2.39888,0.74388c4.28512,2.623 7.96028,4.87263 10.98008,6.7211c1.00659,0.61616 1.41194,0.64662 1.72963,1.78326c0.3177,1.13664 -0.04531,1.25765 -0.61814,2.19346c-0.57282,0.93581 -5.04279,8.23827 -6.82864,11.15576c-0.59529,0.97251 -0.6212,1.37541 -1.72977,1.64224z" fill="#343434" stroke="url(#color-2)" stroke-width="1"/><path d="M235.85714,197.57143v-8.85714h8.85714v8.85714z" fill="none" stroke="none" stroke-width="0"/><path d="M210.22222,209.77778v-59.55556h59.55556v59.55556z" fill="none" stroke="none" stroke-width="0"/><text transform="translate(234.72094,188.10365) scale(0.60172,0.60172)" font-size="40" xml:space="preserve" data-paper-data="{&quot;index&quot;:null}" fill="url(#color-3)" fill-rule="nonzero" stroke="url(#color-4)" stroke-width="1" stroke-linecap="butt" stroke-linejoin="miter" stroke-miterlimit="10" stroke-dasharray="" stroke-dashoffset="0" font-family="Serif" font-weight="normal" text-anchor="start" style="mix-blend-mode: normal"><tspan x="0" dy="0">?</tspan></text></g></g></svg>