<svg version="1.1" xmlns="http://www.w3.org/2000/svg" xmlns:xlink="http://www.w3.org/1999/xlink" width="32.4475" height="32.4475" viewBox="0,0,32.4475,32.4475"><g transform="translate(-223.77625,-163.77625)"><g data-paper-data="{&quot;isPaintingLayer&quot;:true}" fill-rule="nonzero" stroke-linejoin="miter" stroke-miterlimit="10" stroke-dasharray="" stroke-dashoffset="0" style="mix-blend-mode: normal"><path d="M223.77625,196.22375v-32.4475h32.4475v32.4475z" data-paper-data="{&quot;index&quot;:null}" fill="none" stroke="none" stroke-width="0" stroke-linecap="butt"/><path d="M232.82579,190.68751c0,0 -4.30372,1.50053 -3.7505,-0.08075c0.55322,-1.58128 2.43854,-2.36048 4.21096,-1.74038c1.77242,0.62009 2.76079,2.40467 2.20757,3.98595c-0.55322,1.58128 -2.66803,-2.16482 -2.66803,-2.16482z" fill="#cf8a18" stroke="#ffaa2a" stroke-width="2" stroke-linecap="butt"/><path d="M249.0258,181.64912l3.60732,0.68196l-1.93887,3.78428l-2.66994,-2.02329" data-paper-data="{&quot;index&quot;:null}" fill="#aa7014" stroke="#ffaa2a" stroke-width="2" stroke-linecap="round"/><path d="M231.35664,183.82916l-2.91917,1.64337l-1.40896,-4.01184l3.66642,-0.18756" data-paper-data="{&quot;index&quot;:null}" fill="#aa7014" stroke="#ffaa2a" stroke-width="2" stroke-linecap="round"/><path d="M240.98012,169.78223c5.04249,0.62454 8.62394,5.21858 7.9994,10.26107c-1.00908,8.14718 -14.61377,9.14908 -15.4739,8.35096c-1.30935,-1.21495 -3.23183,-7.01773 -2.78658,-10.61263c0.62454,-5.04249 5.21858,-8.62394 10.26107,-7.9994z" data-paper-data="{&quot;index&quot;:null}" fill="#aa7014" stroke="#ffaa2a" stroke-width="2" stroke-linecap="butt"/><path d="M239.78212,169.30832v-2" data-paper-data="{&quot;index&quot;:null}" fill="none" stroke="#ffaa2a" stroke-width="2" stroke-linecap="round"/><path d="M251.11544,179.04165h-1.6" data-paper-data="{&quot;index&quot;:null}" fill="none" stroke="#ffaa2a" stroke-width="2" stroke-linecap="round"/><path d="M228.58212,179.10832h1.73333" data-paper-data="{&quot;index&quot;:null}" fill="none" stroke="#ffaa2a" stroke-width="2" stroke-linecap="round"/><path d="M235.54513,170.17879l-0.90896,-1.67876" data-paper-data="{&quot;index&quot;:null}" fill="none" stroke="#ffaa2a" stroke-width="2" stroke-linecap="round"/><path d="M244.29029,169.69215l0.82832,-1.09468" data-paper-data="{&quot;index&quot;:null}" fill="none" stroke="#ffaa2a" stroke-width="2" stroke-linecap="round"/><path d="M232.48212,178.59479c0,-1.38071 1.11929,-2.5 2.5,-2.5c1.38071,0 2.5,1.11929 2.5,2.5c0,1.38071 -1.11929,2.5 -2.5,2.5c-1.38071,0 -2.5,-1.11929 -2.5,-2.5z" data-paper-data="{&quot;index&quot;:null}" fill="#ffffff" stroke="none" stroke-width="0.5" stroke-linecap="butt"/><path d="M242.48212,178.5948c0,-1.38071 1.11929,-2.5 2.5,-2.5c1.38071,0 2.5,1.11929 2.5,2.5c0,1.38071 -1.11929,2.5 -2.5,2.5c-1.38071,0 -2.5,-1.11929 -2.5,-2.5z" data-paper-data="{&quot;index&quot;:null}" fill="#ffffff" stroke="none" stroke-width="0.5" stroke-linecap="butt"/><text transform="translate(238.55733,181.96639) scale(0.15277,0.15275)" font-size="40" xml:space="preserve" data-paper-data="{&quot;index&quot;:null}" fill="#ffffff" fill-rule="nonzero" stroke="#ffffff" stroke-width="2" stroke-linecap="butt" stroke-linejoin="miter" stroke-miterlimit="10" stroke-dasharray="" stroke-dashoffset="0" font-family="Sans Serif" font-weight="normal" text-anchor="start" style="mix-blend-mode: normal"><tspan x="0" dy="0">3</tspan></text><path d="M230.98212,171.50833l1.36667,1.36666" data-paper-data="{&quot;index&quot;:null}" fill="none" stroke="#ffaa2a" stroke-width="2" stroke-linecap="round"/><path d="M247.18212,172.57499l1.23333,-1.23333" data-paper-data="{&quot;index&quot;:null}" fill="none" stroke="#ffaa2a" stroke-width="2" stroke-linecap="round"/><path d="M249.58212,175.64166l1.2,-0.66667" data-paper-data="{&quot;index&quot;:null}" fill="none" stroke="#ffaa2a" stroke-width="2" stroke-linecap="round"/><path d="M229.31545,175.10832l1.2,0.66667" data-paper-data="{&quot;index&quot;:null}" fill="none" stroke="#ffaa2a" stroke-width="2" stroke-linecap="round"/></g></g></svg>