<svg version="1.1" xmlns="http://www.w3.org/2000/svg" xmlns:xlink="http://www.w3.org/1999/xlink" width="25.24505" height="25.24505" viewBox="0,0,25.24505,25.24505"><g transform="translate(-227.33231,-167.06134)"><g data-paper-data="{&quot;isPaintingLayer&quot;:true}" fill-rule="nonzero" stroke-linejoin="miter" stroke-miterlimit="10" stroke-dasharray="" stroke-dashoffset="0" style="mix-blend-mode: normal"><path d="M227.33231,192.30639v-25.24505h25.24505v25.24505z" fill="none" stroke="none" stroke-width="0" stroke-linecap="butt"/><path d="M247.18371,188.72226c-0.47865,0.13764 -2.54082,-1.06034 -3.08029,-1.02624c-1.75138,0.11069 -1.72117,0.43394 -3.52727,0.58786c-0.39606,0.03375 -0.71036,0.02332 -0.97164,-0.01449c-0.9829,-0.14225 -1.21611,-0.67199 -2.23329,-0.6951c-0.94575,-0.02149 -1.77477,1.2877 -2.83677,1.12301c-3.59601,-0.55766 4.92917,-7.67278 4.92917,-7.67278z" fill="#000000" stroke="none" stroke-width="0" stroke-linecap="butt"/><path d="M245.20362,175.39741c1.07751,5.09733 0.49036,8.71232 3.71786,12.80219c1.09064,1.38206 -6.9463,2.1701 -7.21736,2.33348c-0.63919,0.38529 -0.75292,-2.86956 -1.23976,-4.80984c-0.48684,-1.94029 -0.88168,-3.64512 -0.88168,-3.64512c0,0 0.00032,2.18322 -0.31034,3.49933c-0.31067,1.31611 -0.31902,4.19444 -1.074,4.7413c-1.06673,0.77267 -7.88886,-0.30266 -7.37008,-1.51337c2.21192,-5.16193 2.56979,-8.41912 3.44743,-13.966c0.47956,-3.03087 2.35816,-4.48662 5.32445,-4.48662c2.9663,0 4.96882,2.04241 5.60346,5.04464z" fill="#b466ff" stroke="#000000" stroke-width="0" stroke-linecap="butt"/><path d="M235.36583,171.761c0,0 -0.23392,-1.92064 0.47069,-2.28517c0.70459,-0.36453 2.17099,1.19031 2.17099,1.19031" fill="none" stroke="#ffffff" stroke-width="1" stroke-linecap="round"/><path d="M241.84877,170.78922c0,0 1.12651,-1.54907 1.81941,-1.31137c0.6929,0.23772 0.72165,2.37461 0.72165,2.37461" data-paper-data="{&quot;index&quot;:null}" fill="none" stroke="#ffffff" stroke-width="1" stroke-linecap="round"/><path d="M244.62702,176.90622c0,2.41943 -2.11953,3.57231 -4.67544,3.57231c-2.55591,0 -4.58034,-1.15287 -4.58034,-3.57231c0,-2.41943 2.07197,-4.38077 4.62789,-4.38077c2.55591,0 4.62789,1.96133 4.62789,4.38077z" fill="#000000" stroke="none" stroke-width="NaN" stroke-linecap="butt"/><path d="M236.51642,175.85498c0,-0.67575 0.54781,-1.22356 1.22356,-1.22356c0.67575,0 1.22356,0.54781 1.22356,1.22356c0,0.67575 -0.54781,1.22356 -1.22356,1.22356c-0.67575,0 -1.22356,-0.54781 -1.22356,-1.22356z" fill="#ffffff" stroke="none" stroke-width="0.5" stroke-linecap="butt"/><path d="M240.99461,175.69312c0,-0.67575 0.54781,-1.22356 1.22356,-1.22356c0.67575,0 1.22356,0.54781 1.22356,1.22356c0,0.67575 -0.54781,1.22356 -1.22356,1.22356c-0.67575,0 -1.22356,-0.54781 -1.22356,-1.22356z" fill="#ffffff" stroke="none" stroke-width="0.5" stroke-linecap="butt"/><path d="M241.01405,180.9686c-0.05332,0.81037 -0.38008,0.89602 -1.18584,0.84301c-0.80577,-0.05302 -1.11847,-0.18076 -1.06514,-0.99114c0.05332,-0.81037 0.38008,-0.89602 1.18584,-0.84301c0.80577,0.05302 1.11847,0.18076 1.06514,0.99114z" fill="#ff3737" stroke="none" stroke-width="0" stroke-linecap="butt"/><path d="M239.52176,180.95781c-0.04147,0.63031 -1.51828,1.46307 -2.14499,1.42182c-0.62671,-0.04124 -0.04912,-0.73782 -0.00765,-1.36811c0.04147,-0.63031 -0.62157,-1.60388 0.00515,-1.56264c0.62671,0.04124 2.18897,0.87864 2.1475,1.50892z" fill="#ff3737" stroke="none" stroke-width="0" stroke-linecap="butt"/><path d="M242.67923,179.60633c0.62671,0.04124 -0.1582,0.91955 -0.19968,1.54984c-0.04147,0.63031 0.43984,1.39656 -0.18686,1.35532c-0.62671,-0.04124 -1.98165,-1.06037 -1.94017,-1.69067c0.04147,-0.63031 1.70001,-1.25573 2.32671,-1.21449z" data-paper-data="{&quot;index&quot;:null}" fill="#ff3737" stroke="none" stroke-width="0" stroke-linecap="butt"/><path d="M238.25296,187.85974l1.26122,-6.30854l0.65542,0.13104l-1.26122,6.30854z" fill="#ff3737" stroke="#000000" stroke-width="0" stroke-linecap="butt"/><path d="M240.11504,188.03761l-0.51892,-6.41243l0.66622,-0.05391l0.51892,6.41243z" fill="#ff3737" stroke="#000000" stroke-width="0" stroke-linecap="butt"/><path d="M234.82769,181.91373c-0.16477,0.54165 0.02786,1.19278 -1.56859,0.70711c-1.59645,-0.48566 -3.48422,-1.70886 -3.31944,-2.25052c0.16477,-0.54165 2.31971,-0.19666 3.91616,0.28901c1.59645,0.48565 1.13666,0.71273 0.97189,1.25438z" data-paper-data="{&quot;index&quot;:null}" fill="#b466ff" stroke="none" stroke-width="0" stroke-linecap="butt"/><path d="M246.74091,182.62083c-1.59645,0.48566 -1.40383,-0.16546 -1.56861,-0.70711c-0.16477,-0.54165 -0.62456,-0.76872 0.97189,-1.25438c1.59645,-0.48565 3.75139,-0.83066 3.91616,-0.28901c0.16479,0.54165 -1.72299,1.76485 -3.31944,2.25052z" data-paper-data="{&quot;index&quot;:null}" fill="#b466ff" stroke="none" stroke-width="0" stroke-linecap="butt"/></g></g></svg>