<svg version="1.1" xmlns="http://www.w3.org/2000/svg" xmlns:xlink="http://www.w3.org/1999/xlink" width="56.83333" height="56.83333" viewBox="0,0,56.83333,56.83333"><g transform="translate(-211.58342,-151.58336)"><g data-paper-data="{&quot;isPaintingLayer&quot;:true}" fill-rule="nonzero" stroke="none" stroke-width="0" stroke-linecap="butt" stroke-linejoin="miter" stroke-miterlimit="10" stroke-dasharray="" stroke-dashoffset="0" style="mix-blend-mode: normal"><path d="M211.58343,208.41669v-56.83333h56.83333v56.83333z" fill="none"/><path d="M232.76485,192.28926c0,0.91564 -1.17019,1.65792 -2.61369,1.65792c-1.4435,0 -2.61369,-0.74227 -2.61369,-1.65792c0,-0.91564 1.17019,-1.65792 2.61369,-1.65792c1.4435,0 2.61369,0.74227 2.61369,1.65792z" fill="#000000"/><path d="M242.5795,192.28925c0,0.91564 -1.17019,1.65792 -2.61369,1.65792c-1.4435,0 -2.61369,-0.74227 -2.61369,-1.65792c0,-0.91564 1.17019,-1.65792 2.61369,-1.65792c1.4435,0 2.61369,0.74227 2.61369,1.65792z" fill="#000000"/><path d="M252.28749,192.28925c0,0.91564 -1.17019,1.65792 -2.61369,1.65792c-1.4435,0 -2.61369,-0.74227 -2.61369,-1.65792c0,-0.91564 1.17019,-1.65792 2.61369,-1.65792c1.4435,0 2.61369,0.74227 2.61369,1.65792z" fill="#000000"/><path d="M237.88985,183.20675c0,0.91564 -1.17019,1.65792 -2.61369,1.65792c-1.4435,0 -2.61369,-0.74227 -2.61369,-1.65792c0,-0.91564 1.17019,-1.65792 2.61369,-1.65792c1.4435,0 2.61369,0.74227 2.61369,1.65792z" fill="#000000"/><path d="M247.7045,183.20675c0,0.91564 -1.17019,1.65792 -2.61368,1.65792c-1.4435,0 -2.61369,-0.74227 -2.61369,-1.65792c0,-0.91564 1.17019,-1.65792 2.61369,-1.65792c1.4435,0 2.61368,0.74227 2.61368,1.65792z" fill="#000000"/><path d="M257.41247,183.20675c0,0.91564 -1.17019,1.65792 -2.61369,1.65792c-1.4435,0 -2.61369,-0.74227 -2.61369,-1.65792c0,-0.91564 1.17019,-1.65792 2.61369,-1.65792c1.44349,0 2.61369,0.74227 2.61369,1.65792z" fill="#000000"/><path d="M232.88985,173.98009c0,0.91564 -1.17019,1.65792 -2.61369,1.65792c-1.4435,0 -2.61369,-0.74227 -2.61369,-1.65792c0,-0.91564 1.17019,-1.65792 2.61369,-1.65792c1.4435,0 2.61369,0.74227 2.61369,1.65792z" fill="#000000"/><path d="M242.7045,173.98009c0,0.91564 -1.17019,1.65792 -2.61368,1.65792c-1.4435,0 -2.61369,-0.74227 -2.61369,-1.65792c0,-0.91564 1.17019,-1.65792 2.61369,-1.65792c1.4435,0 2.61368,0.74227 2.61368,1.65792z" fill="#000000"/><path d="M252.41249,173.98009c0,0.91564 -1.17019,1.65792 -2.61369,1.65792c-1.44349,0 -2.61369,-0.74227 -2.61369,-1.65792c0,-0.91564 1.17019,-1.65792 2.61369,-1.65792c1.44349,0 2.61369,0.74227 2.61369,1.65792z" fill="#000000"/><path d="M227.78749,183.20675c0,0.91564 -1.17019,1.65792 -2.61369,1.65792c-1.44349,0 -2.61369,-0.74227 -2.61369,-1.65792c0,-0.91564 1.17019,-1.65792 2.61369,-1.65792c1.44349,0 2.61369,0.74227 2.61369,1.65792z" fill="#000000"/><path d="M226.59105,183.8795c0.05351,1.38335 -2.80698,1.35075 -2.78571,0c0.00533,-0.33856 1.39286,-5.22697 1.39286,-5.22697c0,0 1.38513,5.02721 1.39286,5.22697z" fill="#ffffff"/><path d="M231.51962,192.8795c0.05351,1.38335 -2.80698,1.35074 -2.78571,0c0.00533,-0.33856 1.39285,-5.22696 1.39285,-5.22696c0,0 1.38513,5.02721 1.39286,5.22696z" fill="#ffffff"/><path d="M231.37676,174.66521c0.05351,1.38335 -2.80698,1.35074 -2.78571,0c0.00533,-0.33856 1.39285,-5.22696 1.39285,-5.22696c0,0 1.38513,5.02721 1.39286,5.22696z" fill="#ffffff"/><path d="M236.80533,183.80807c0.05351,1.38335 -2.80698,1.35074 -2.78572,0c0.00533,-0.33856 1.39286,-5.22696 1.39286,-5.22696c0,0 1.38513,5.02721 1.39286,5.22696z" fill="#ffffff"/><path d="M241.37676,192.95092c0.05351,1.38335 -2.80698,1.35074 -2.78572,0c0.00533,-0.33856 1.39286,-5.22696 1.39286,-5.22696c0,0 1.38513,5.02721 1.39286,5.22696z" fill="#ffffff"/><path d="M241.44819,174.66521c0.05351,1.38335 -2.80698,1.35074 -2.78572,0c0.00533,-0.33856 1.39285,-5.22697 1.39285,-5.22697c0,0 1.38514,5.02721 1.39286,5.22697z" fill="#ffffff"/><path d="M246.51962,183.87949c0.05351,1.38335 -2.80698,1.35074 -2.78572,0c0.00533,-0.33856 1.39285,-5.22697 1.39285,-5.22697c0,0 1.38514,5.02721 1.39286,5.22697z" fill="#ffffff"/><path d="M251.16248,192.95093c0.05351,1.38335 -2.80698,1.35074 -2.78572,0c0.00533,-0.33856 1.39285,-5.22697 1.39285,-5.22697c0,0 1.38514,5.02721 1.39286,5.22697z" fill="#ffffff"/><path d="M251.23391,174.66521c0.05351,1.38335 -2.80698,1.35074 -2.78571,0c0.00533,-0.33856 1.39285,-5.22697 1.39285,-5.22697c0,0 1.38513,5.02721 1.39286,5.22697z" fill="#ffffff"/><path d="M256.30533,183.8795c0.05351,1.38335 -2.80698,1.35074 -2.78571,0c0.00533,-0.33856 1.39286,-5.22696 1.39286,-5.22696c0,0 1.38514,5.02721 1.39286,5.22696z" fill="#ffffff"/></g></g></svg>