<svg version="1.1" xmlns="http://www.w3.org/2000/svg" xmlns:xlink="http://www.w3.org/1999/xlink" width="101.78488" height="101.78488" viewBox="0,0,101.78488,101.78488"><g transform="translate(-189.10756,-129.10756)"><g data-paper-data="{&quot;isPaintingLayer&quot;:true}" fill-rule="nonzero" stroke-linejoin="miter" stroke-miterlimit="10" stroke-dasharray="" stroke-dashoffset="0" style="mix-blend-mode: normal"><path d="M260.33478,142.68885c0.79296,0.52113 3.41141,6.36635 1.84804,11.99042c5.61214,5.5612 9.07682,13.20427 9.07682,21.63959c0,11.65473 0.38059,19.40051 0.38059,31.05524c0,4.25129 -3.45677,9.42434 -8.03463,9.65571c-6.03227,0.30488 -7.36916,-6.65232 -7.83276,-6.69109c-0.52491,0.03877 -1.22851,6.62671 -7.83275,6.69109c-5.84552,0.05698 -8.02997,-6.82695 -8.51157,-6.82819c-0.49056,-0.02181 -1.68239,6.90552 -7.07609,7.14916c-5.78358,0.26126 -7.65829,-7.40455 -8.08588,-7.22039c-0.25253,-0.09696 -1.77288,6.82917 -7.93819,6.89942c-4.70334,0.0536 -7.58178,-5.40442 -7.58178,-9.65571c0,-11.64316 -0.38681,-19.41208 -0.38681,-31.05524c0,-8.12141 3.21161,-15.50844 8.45926,-21.01015c-1.00917,-2.99041 -0.83346,-10.79434 -0.03782,-11.27155c1.23961,-0.7435 10.32004,4.16881 11.46893,3.63757c3.47931,-1.60881 7.47812,-2.14643 11.55957,-2.14643c4.42243,0 7.59877,0.72513 11.41668,2.33807c1.3103,-0.82548 8.23731,-5.74999 9.1084,-5.17752z" fill="#f1cc48" stroke="#000000" stroke-width="2.5" stroke-linecap="butt"/><path d="M189.10756,230.89244v-101.78488h101.78488v101.78488z" fill="none" stroke="none" stroke-width="NaN" stroke-linecap="butt"/><path d="M267.21086,167.48468c0,6.72058 -5.53066,12.1687 -12.35307,12.1687c-6.82241,0 -12.35307,-5.44811 -12.35307,-12.1687c0,-6.72058 5.53066,-12.1687 12.35307,-12.1687c6.82241,0 12.35307,5.44811 12.35307,12.1687z" fill="#fff4c3" stroke="none" stroke-width="2.5" stroke-linecap="butt"/><path d="M221.4531,161.69769l2.03916,1.88807" fill="none" stroke="#000000" stroke-width="2.5" stroke-linecap="round"/><path d="M245.06752,181.99555c0.11699,3.46014 0.00294,12.92614 -5.0855,13.09818c-5.08844,0.17204 -5.81627,-8.15862 -5.93325,-11.61876c-0.11699,-3.46014 -0.57192,-8.83311 4.51653,-9.00515c5.08844,-0.17204 6.38524,4.06559 6.50223,7.52574z" fill="#ff2929" stroke="#000000" stroke-width="0.5" stroke-linecap="butt"/><path d="M253.83333,156.6031l-1.88808,2.03916" data-paper-data="{&quot;index&quot;:null}" fill="none" stroke="#000000" stroke-width="2.5" stroke-linecap="round"/><path d="M214.32539,170.80367c-0.1747,-1.42282 0.22616,-2.78366 1.02008,-3.84896c1.08723,-1.45886 2.79182,-1.20404 4.65147,-0.71117c1.85965,0.49287 4.77039,1.79012 4.95037,3.25596c0.17186,1.39969 -0.21327,2.73939 -0.98166,3.79675c-1.30205,-0.39936 -2.70723,-0.53772 -4.14634,-0.36102c-1.35234,0.16604 -2.60832,0.59479 -3.72305,1.22882c-0.94764,-0.83546 -1.6048,-2.00784 -1.77086,-3.36038z" fill="#ffffff" stroke="#000000" stroke-width="2.5" stroke-linecap="butt"/><path d="M245.40885,177.27312c0,0 1.09754,18.66039 -5.6088,18.65054c-6.5496,-0.00961 -5.87356,-19.27034 -5.87356,-19.27034" fill="none" stroke="#000000" stroke-width="2.5" stroke-linecap="round"/><path d="M252.54098,166.64682c-0.11361,-2.95302 2.18819,-5.43898 5.14118,-5.55259c2.95302,-0.11361 5.43898,2.18818 5.55259,5.14118c0.11361,2.95302 -2.18819,5.43898 -5.14118,5.55259c-2.95302,0.11361 -5.43898,-2.18819 -5.55259,-5.14118z" fill="#ffffff" stroke="#000000" stroke-width="2.5" stroke-linecap="butt"/><path d="M233.67852,177.75254c-0.02643,-0.78175 0.58587,-1.4369 1.36762,-1.46333c0.78175,-0.02643 1.4369,0.58587 1.46333,1.36761c0.02643,0.78175 -0.23863,3.54176 -1.02038,3.56819c-0.78175,0.02643 -1.78415,-2.69073 -1.81058,-3.47247z" fill="#ffffff" stroke="none" stroke-width="0" stroke-linecap="butt"/><path d="M242.38335,177.31205c-0.02643,-0.78175 0.58587,-1.43691 1.36761,-1.46334c0.78175,-0.02643 1.4369,0.58587 1.46333,1.36762c0.02643,0.78175 -0.23863,3.54176 -1.02038,3.56819c-0.78175,0.02643 -1.78415,-2.69072 -1.81058,-3.47247z" fill="#ffffff" stroke="none" stroke-width="0" stroke-linecap="butt"/><path d="M222.51612,181.82681l-4.83013,1.82334" fill="none" stroke="#000000" stroke-width="2.5" stroke-linecap="round"/><path d="M214.83905,178.35745l7.06683,0.72827" fill="none" stroke="#000000" stroke-width="2.5" stroke-linecap="round"/><path d="M262.01223,181.48128l-4.94915,-1.46991" data-paper-data="{&quot;index&quot;:null}" fill="none" stroke="#000000" stroke-width="2.5" stroke-linecap="round"/><path d="M264.46968,175.99687l-6.99582,1.2365" data-paper-data="{&quot;index&quot;:null}" fill="none" stroke="#000000" stroke-width="2.5" stroke-linecap="round"/><path d="M249.06345,173.1266c0,0 -2.03303,2.60491 -4.52562,2.6944c-2.4926,0.08949 -5.67828,-2.9331 -5.67828,-2.9331c0,0 -2.81869,2.14872 -5.28037,2.03728c-2.46168,-0.11146 -4.67973,-2.08534 -4.67973,-2.08534" fill="none" stroke="#000000" stroke-width="2.5" stroke-linecap="round"/><path d="M241.51667,170.35754c0,0 -1.65692,2.38328 -2.53658,2.41302c-0.8958,0.03029 -2.79062,-2.23291 -2.79062,-2.23291" fill="none" stroke="#000000" stroke-width="2.5" stroke-linecap="round"/></g></g></svg>