<svg version="1.1" xmlns="http://www.w3.org/2000/svg" xmlns:xlink="http://www.w3.org/1999/xlink" width="54.5" height="54.5" viewBox="0,0,54.5,54.5"><g transform="translate(-212.975,-143.08335)"><g data-paper-data="{&quot;isPaintingLayer&quot;:true}" fill-rule="nonzero" stroke-linejoin="miter" stroke-miterlimit="10" stroke-dasharray="" stroke-dashoffset="0" style="mix-blend-mode: normal"><path d="M212.975,197.58335v-54.5h54.5v54.5z" fill="none" stroke="none" stroke-width="0" stroke-linecap="butt"/><path d="M230.63357,160.61863c0,0 1.99047,-5.97271 2.75024,-6.01593c1.77283,-0.10086 3.73927,5.64673 3.73927,5.64673" fill="none" stroke="#ffffff" stroke-width="2.5" stroke-linecap="round"/><path d="M242.3575,159.82645c0,0 1.99047,-5.97271 2.75024,-6.01593c1.77283,-0.10086 3.73927,5.64673 3.73927,5.64673" fill="none" stroke="#ffffff" stroke-width="2.5" stroke-linecap="round"/><path d="M236.69591,190.59449l-2.11643,-0.46156l1.25182,-5.74008" data-paper-data="{&quot;index&quot;:null}" fill="none" stroke="#ffffff" stroke-width="3" stroke-linecap="round"/><path d="M250.54634,188.21239l-1.98948,1.04988l-2.69011,-5.09762" fill="none" stroke="#ffffff" stroke-width="3" stroke-linecap="round"/><path d="M230.15765,182.91964c-1.03264,-0.9213 -0.82898,-1.36689 -0.90756,-2.7483c-0.23577,-4.14423 -0.55846,-9.81614 -0.91589,-16.09898c-0.0738,-1.29732 -0.29296,-1.6762 0.60227,-2.61801c0.89523,-0.94183 1.36728,-0.829 2.74895,-0.9076c6.18541,-0.3519 11.86077,-0.67478 15.84938,-0.90169c1.32953,-0.07563 1.74421,-0.32909 2.70058,0.59758c0.95637,0.92666 0.83449,1.46379 0.91661,2.90723c0.34635,6.08801 0.64341,11.30944 0.88749,15.59977c0.08136,1.43011 0.33123,1.85549 -0.58291,2.9583c-0.91415,1.10281 -1.28584,0.82437 -2.61538,0.9c-1.32953,0.07563 -11.70438,0.66588 -15.84938,0.90169c-1.38167,0.0786 -1.8015,0.33132 -2.83415,-0.58998z" fill="#3c0000" stroke="#ff3333" stroke-width="2.5" stroke-linecap="butt"/><path d="M231.28491,168.91258l4.99193,-0.28399" fill="none" stroke="#ffffff" stroke-width="2.5" stroke-linecap="round"/><path d="M243.88244,168.0707l4.99193,-0.28399" fill="none" stroke="#ffffff" stroke-width="2.5" stroke-linecap="round"/><path d="M232.14581,173.63004c-0.0549,-0.96494 0.68284,-1.79168 1.64777,-1.84658c0.96494,-0.0549 1.79168,0.68284 1.84658,1.64777c0.0549,0.96494 -0.68284,1.79168 -1.64777,1.84658c-0.96494,0.0549 -1.79168,-0.68284 -1.84658,-1.64777z" fill="#ffffff" stroke="none" stroke-width="0.5" stroke-linecap="butt"/><path d="M245.02698,172.74507c-0.0549,-0.96494 0.68284,-1.79168 1.64777,-1.84658c0.96494,-0.0549 1.79168,0.68284 1.84658,1.64777c0.0549,0.96494 -0.68284,1.79168 -1.64777,1.84658c-0.96494,0.0549 -1.79168,-0.68284 -1.84658,-1.64777z" fill="#ffffff" stroke="none" stroke-width="0.5" stroke-linecap="butt"/></g></g></svg>