<svg version="1.1" xmlns="http://www.w3.org/2000/svg" xmlns:xlink="http://www.w3.org/1999/xlink" width="54.5" height="54.5" viewBox="0,0,54.5,54.5"><g transform="translate(-212.59668,-145.56612)"><g data-paper-data="{&quot;isPaintingLayer&quot;:true}" fill-rule="nonzero" stroke-linejoin="miter" stroke-miterlimit="10" stroke-dasharray="" stroke-dashoffset="0" style="mix-blend-mode: normal"><path d="M212.59668,200.06612v-54.5h54.5v54.5z" data-paper-data="{&quot;index&quot;:null}" fill="none" stroke="none" stroke-width="0" stroke-linecap="butt"/><path d="M246.62927,191.26989h-2.16618v-5.875" data-paper-data="{&quot;index&quot;:null}" fill="none" stroke="#ffffff" stroke-width="3" stroke-linecap="round"/><path d="M247.73727,160.15288c0,0 3.16785,-5.18327 4.87646,-4.69977c0.73226,0.20721 1.37795,6.46965 1.37795,6.46965" data-paper-data="{&quot;index&quot;:null}" fill="none" stroke="#ffffff" stroke-width="2.5" stroke-linecap="round"/><path d="M236.46527,156.83319c0,0 3.16785,-5.18327 4.87646,-4.69977c0.73226,0.20721 1.37795,6.46965 1.37795,6.46965" data-paper-data="{&quot;index&quot;:null}" fill="none" stroke="#ffffff" stroke-width="2.5" stroke-linecap="round"/><path d="M231.68613,182.25329l-3.71711,4.40517l-1.71923,-1.4507" data-paper-data="{&quot;index&quot;:null}" fill="none" stroke="#ffffff" stroke-width="3" stroke-linecap="round"/><path d="M250.46468,182.35963c0,0 -0.27473,1.81056 -1.48282,2.48558c-1.20809,0.67502 -1.56301,0.33714 -2.89462,-0.03968c-3.99481,-1.13047 -13.99379,-3.96001 -15.27516,-4.32261c-1.28135,-0.3626 -1.70465,-0.17155 -2.35745,-1.44657c-0.65279,-1.27503 -0.31649,-1.63599 0.07354,-3.01428c1.1701,-4.13489 2.59415,-9.16715 4.25453,-15.03461c0.39366,-1.39113 0.39134,-1.94191 1.52616,-2.63873c1.13481,-0.69683 1.48452,-0.35936 2.76589,0.00324c3.84409,1.08782 9.31383,2.63566 15.27516,4.32261c1.33161,0.37683 1.8169,0.36922 2.48619,1.483c0.66929,1.11379 0.37308,1.43602 0.01926,2.68634c-1.71352,6.05522 -3.26042,11.52163 -4.39068,15.51572z" data-paper-data="{&quot;index&quot;:null}" fill="#3c0000" stroke="#ff3333" stroke-width="2.5" stroke-linecap="butt"/><path d="M246.07874,168.82761l4.81108,1.36145" data-paper-data="{&quot;index&quot;:null}" fill="none" stroke="#ffffff" stroke-width="2.5" stroke-linecap="round"/><path d="M239.33835,166.79029l-4.81108,-1.36145" data-paper-data="{&quot;index&quot;:null}" fill="none" stroke="#ffffff" stroke-width="2.5" stroke-linecap="round"/><path d="M244.63094,173.61426c0,0 2.08771,-0.62423 2.93608,-0.38416c0.74064,0.20959 1.875,1.74561 1.875,1.74561" data-paper-data="{&quot;index&quot;:null}" fill="none" stroke="#ffffff" stroke-width="2.5" stroke-linecap="round"/><path d="M233.04762,170.32798c0,0 2.19895,-0.83577 2.99842,-0.60953c0.80419,0.22756 1.81266,1.97097 1.81266,1.97097" data-paper-data="{&quot;index&quot;:null}" fill="none" stroke="#ffffff" stroke-width="2.5" stroke-linecap="round"/></g></g></svg>