<svg version="1.1" xmlns="http://www.w3.org/2000/svg" xmlns:xlink="http://www.w3.org/1999/xlink" width="42.86718" height="42.86718" viewBox="0,0,42.86718,42.86718"><g transform="translate(-218.56641,-158.56641)"><g data-paper-data="{&quot;isPaintingLayer&quot;:true}" fill-rule="nonzero" stroke-linejoin="miter" stroke-miterlimit="10" stroke-dasharray="" stroke-dashoffset="0" style="mix-blend-mode: normal"><path d="M218.56641,201.43359v-42.86718h42.86718v42.86718z" fill="none" stroke="none" stroke-width="0" stroke-linecap="butt"/><path d="" data-paper-data="{&quot;index&quot;:null}" fill="none" stroke="#cdcdcd" stroke-width="1.5" stroke-linecap="round"/><path d="" fill="none" stroke="#cdcdcd" stroke-width="1.5" stroke-linecap="round"/><path d="" data-paper-data="{&quot;index&quot;:null}" fill="none" stroke="#cdcdcd" stroke-width="1.5" stroke-linecap="round"/><path d="" fill="none" stroke="#cdcdcd" stroke-width="1.5" stroke-linecap="round"/><path d="" data-paper-data="{&quot;index&quot;:null}" fill="none" stroke="#cdcdcd" stroke-width="1.5" stroke-linecap="round"/><path d="" data-paper-data="{&quot;index&quot;:null}" fill="none" stroke="#cdcdcd" stroke-width="1.5" stroke-linecap="round"/><path d="" data-paper-data="{&quot;index&quot;:null}" fill="none" stroke="#cdcdcd" stroke-width="1.5" stroke-linecap="round"/><path d="" fill="none" stroke="#cdcdcd" stroke-width="1.5" stroke-linecap="round"/><path d="" data-paper-data="{&quot;index&quot;:null}" fill="none" stroke="#cdcdcd" stroke-width="1.5" stroke-linecap="round"/><path d="" data-paper-data="{&quot;index&quot;:null}" fill="none" stroke="#cdcdcd" stroke-width="1.5" stroke-linecap="round"/><path d="" fill="none" stroke="#cdcdcd" stroke-width="1.5" stroke-linecap="round"/><path d="" data-paper-data="{&quot;index&quot;:null}" fill="none" stroke="#cdcdcd" stroke-width="1.5" stroke-linecap="round"/><path d="M231.14094,182.12454l1.33841,1.33841l-1.51686,1.51686l1.87377,1.87377l-1.69531,1.69531l1.69531,1.69531l-1.87377,1.87377" data-paper-data="{&quot;index&quot;:null}" fill="none" stroke="#7affea" stroke-width="2" stroke-linecap="round"/><path d="M238.43201,192.89544l-1.87377,-1.87377l1.69531,-1.69531l-1.69531,-1.69531l1.87377,-1.87377l-1.51686,-1.51686l1.33841,-1.33841" data-paper-data="{&quot;index&quot;:null}" fill="none" stroke="#7affea" stroke-width="2" stroke-linecap="round"/><path d="M247.68606,182.43031l1.33841,1.33841l-1.51686,1.51686l1.87377,1.87377l-1.69531,1.69531l1.69531,1.69531l-1.87377,1.87377" data-paper-data="{&quot;index&quot;:null}" fill="none" stroke="#7affea" stroke-width="2" stroke-linecap="round"/><path d="M250.14633,172.30103c0,3.14799 2.58698,9.35887 -0.45697,11.14499c-0.43153,0.25321 -1.93783,-0.66379 -3.78788,-0.57102c-0.80243,0.04024 -1.66953,1.13974 -2.54164,1.1602c-1.16681,0.02737 -2.3426,-1.20933 -3.38454,-1.20421c-1.56216,0.00768 -2.82341,1.24801 -3.30229,1.24801c-1.01441,0 -2.37785,-0.87719 -3.33296,-0.93886c-1.46711,-0.09474 -2.45596,0.5217 -3.52251,-0.26806c-1.98312,-1.46848 -0.37193,-7.15115 -0.37193,-9.50033c0,-4.43509 4.43427,-8.03044 9.90421,-8.03044c5.46994,0 10.79647,2.52463 10.79647,6.95972z" fill="#8493a5" stroke="#7affea" stroke-width="2" stroke-linecap="butt"/><path d="M244.02777,192.78065l-1.87377,-1.87377l1.69531,-1.69531l-1.69531,-1.69531l1.87377,-1.87377l-1.51686,-1.51686l1.33841,-1.33841" data-paper-data="{&quot;index&quot;:null}" fill="none" stroke="#7affea" stroke-width="2" stroke-linecap="round"/><path d="M232.13719,174.94038c0.06547,-1.256 1.13673,-2.22111 2.39273,-2.15564c1.256,0.06547 2.22111,1.13673 2.15564,2.39273c-0.06547,1.256 -1.13673,2.22111 -2.39273,2.15564c-1.256,-0.06547 -2.22111,-1.13673 -2.15564,-2.39273z" fill="#ffffff" stroke="none" stroke-width="0.5" stroke-linecap="butt"/><path d="M243.75104,174.70488c0.06547,-1.256 1.13673,-2.22111 2.39273,-2.15564c1.256,0.06547 2.22111,1.13673 2.15564,2.39273c-0.06547,1.256 -1.13673,2.22111 -2.39273,2.15564c-1.256,-0.06547 -2.22111,-1.13673 -2.15564,-2.39273z" fill="#ffffff" stroke="none" stroke-width="0.5" stroke-linecap="butt"/></g></g></svg>