<svg version="1.1" xmlns="http://www.w3.org/2000/svg" xmlns:xlink="http://www.w3.org/1999/xlink" width="46.75" height="46.75" viewBox="0,0,46.75,46.75"><defs><linearGradient x1="241.21717" y1="163.77561" x2="241.21717" y2="192.21801" gradientUnits="userSpaceOnUse" id="color-1"><stop offset="0" stop-color="#505050"/><stop offset="1" stop-color="#444444"/></linearGradient></defs><g transform="translate(-216.625,-156.625)"><g data-paper-data="{&quot;isPaintingLayer&quot;:true}" fill-rule="nonzero" stroke-linejoin="miter" stroke-miterlimit="10" stroke-dasharray="" stroke-dashoffset="0" style="mix-blend-mode: normal"><path d="M216.625,203.375v-46.75h46.75v46.75z" fill="none" stroke="none" stroke-width="2" stroke-linecap="butt"/><path d="M229.09613,175.59113c0.65059,-5.11411 1.95671,-11.81552 4.55111,-11.81552c5.83236,0 18.43274,0.2773 18.43274,9.40639c0,3.64426 2.12668,10.48339 0.85031,13.21596c-1.73362,3.71147 -6.93395,5.50539 -10.50744,5.82005" data-paper-data="{&quot;index&quot;:null}" fill="url(#color-1)" stroke="#ababab" stroke-width="2" stroke-linecap="butt"/><path d="M242.1127,193.03211c-2.11132,1.13152 -6.66608,1.70519 -7.69392,1.70519c-2.21387,0 -6.11681,-1.16769 -7.33046,-3.89916c-0.80639,-1.81486 0.53721,-6.35716 0.53721,-8.77754c0,-6.06319 7.96075,-6.24736 11.64557,-6.24736c2.80397,0 5.75827,8.61434 5.79985,12.8942z" fill="#4c4c4c" stroke="#ababab" stroke-width="2" stroke-linecap="butt"/><path d="M227.50797,170.71536l7.20264,7.20264" fill="none" stroke="#ffffff" stroke-width="0.5" stroke-linecap="round"/><path d="M234.5418,170.32146l-7.20264,7.20264" data-paper-data="{&quot;index&quot;:null}" fill="none" stroke="#ffffff" stroke-width="0.5" stroke-linecap="round"/><path d="M226.49513,173.95093l8.66568,0.28135" fill="none" stroke="#ffffff" stroke-width="0.5" stroke-linecap="round"/><path d="M230.54661,178.56511l0.56271,-8.77822" fill="none" stroke="#ffffff" stroke-width="0.5" stroke-linecap="round"/><path d="M229.53374,172.48789c0,0 0.48554,0.26028 0.66431,0.21771c0.21006,-0.05001 0.51738,-0.49907 0.51738,-0.49907c0,0 0.45225,0.28511 0.67774,0.36027c0.22467,0.07489 0.67275,0.08989 0.67275,0.08989c0,0 -0.15496,0.65765 -0.10487,0.88805c0.04242,0.19512 0.38622,0.40618 0.38622,0.40618c0,0 -0.34254,0.29307 -0.39774,0.49547c-0.05727,0.20997 0.06011,0.74248 0.06011,0.74248c0,0 -0.5471,-0.01686 -0.78013,0.10472c-0.18917,0.0987 -0.51409,0.57053 -0.51409,0.57053c0,0 -0.28461,-0.31967 -0.53883,-0.32875c-0.27002,-0.00964 -1.03674,0.27248 -1.03674,0.27248c0,0 -0.16874,-0.65125 -0.28335,-0.91867c-0.11031,-0.25739 -0.3919,-0.65691 -0.3919,-0.65691c0,0 0.48432,-0.43664 0.66121,-0.72524c0.17946,-0.2928 0.40794,-1.01915 0.40794,-1.01915z" fill="none" stroke="#ffffff" stroke-width="0.5" stroke-linecap="round"/><path d="M227.95816,171.13739c0,0 1.13526,0.20827 1.64997,0.08949c0.45265,-0.10446 1.27611,-0.76474 1.27611,-0.76474c0,0 0.63414,0.6905 1.06715,0.84446c0.40977,0.14569 1.46503,0.05587 1.46503,0.05587c0,0 -0.11806,1.05471 -0.00702,1.48964c0.11396,0.44635 0.68227,1.15508 0.68227,1.15508c0,0 -0.46521,0.72569 -0.55789,1.13849c-0.1105,0.49223 -0.06109,1.61877 -0.06109,1.61877c0,0 -1.32557,0.16513 -1.75986,0.33016c-0.49547,0.18828 -1.05367,0.73898 -1.05367,0.73898c0,0 -0.84605,-0.61419 -1.30264,-0.72377c-0.48008,-0.11522 -1.5109,0.04852 -1.5109,0.04852c0,0 -0.10925,-1.40555 -0.22521,-1.94668c-0.10865,-0.50704 -0.45004,-1.20447 -0.45004,-1.20447c0,0 0.67024,-0.66135 0.78604,-1.08321c0.14158,-0.51575 0.00174,-1.78659 0.00174,-1.78659z" fill="none" stroke="#ffffff" stroke-width="0.5" stroke-linecap="round"/></g></g></svg>