<svg version="1.1" xmlns="http://www.w3.org/2000/svg" xmlns:xlink="http://www.w3.org/1999/xlink" width="91.6048" height="91.6048" viewBox="0,0,91.6048,91.6048"><g transform="translate(-194.1976,-134.1976)"><g data-paper-data="{&quot;isPaintingLayer&quot;:true}" fill-rule="nonzero" stroke-linejoin="miter" stroke-miterlimit="10" stroke-dasharray="" stroke-dashoffset="0" style="mix-blend-mode: normal"><path d="M194.1976,225.8024v-91.6048h91.6048v91.6048z" fill="none" stroke="none" stroke-width="none" stroke-linecap="butt"/><path d="M222.81416,155.33712c0,0 4.5806,-11.518 6.07895,-11.518c3.49616,0 6.71884,11.518 6.71884,11.518" fill="none" stroke="#3c0e47" stroke-width="5" stroke-linecap="round"/><path d="M245.94862,155.09102c0,0 4.5806,-11.518 6.07895,-11.518c3.49616,0 6.71884,11.518 6.71884,11.518" fill="none" stroke="#3c0e47" stroke-width="5" stroke-linecap="round"/><path d="M233.60132,210.80019h-4.26497v-9.57699" data-paper-data="{&quot;index&quot;:null}" fill="none" stroke="#3c0e47" stroke-width="5.5" stroke-linecap="round"/><path d="M253.94647,210.93424h-4.42904v-9.39588" fill="none" stroke="#3c0e47" stroke-width="5.5" stroke-linecap="round"/><path d="M218.99921,198.90667c-1.92685,-1.9265 -1.47667,-2.77962 -1.47667,-5.50385c0,-8.17272 0,-19.35814 0,-31.74834c0,-2.55841 -0.38842,-3.32768 1.47667,-5.07893c1.86509,-1.75125 2.78039,-1.47667 5.50513,-1.47667c12.1981,0 23.39031,0 31.25612,0c2.62193,0 3.46538,-0.45184 5.24172,1.47667c1.77633,1.92851 1.47667,2.97072 1.47667,5.81726c0,12.00601 0,22.30305 0,30.7639c0,2.82028 0.44361,3.6844 -1.47667,5.74996c-1.92028,2.06556 -2.61978,1.47667 -5.24172,1.47667c-2.62193,0 -23.0819,0 -31.25612,0c-2.72475,0 -3.57828,0.44983 -5.50513,-1.47667z" fill="#000000" stroke="#3c0e47" stroke-width="4.5" stroke-linecap="butt"/><path d="M223.94622,179.74728c0,-1.90293 1.54262,-3.44556 3.44556,-3.44556c1.90293,0 3.44556,1.54262 3.44556,3.44556c0,1.90293 -1.54262,3.44556 -3.44556,3.44556c-1.90293,0 -3.44556,-1.54262 -3.44556,-3.44556z" fill="#ffffff" stroke="none" stroke-width="0.5" stroke-linecap="butt"/><path d="M249.36583,179.44822c0,-1.90293 1.54262,-3.44556 3.44556,-3.44556c1.90293,0 3.44556,1.54262 3.44556,3.44556c0,1.90293 -1.54262,3.44556 -3.44556,3.44556c-1.90293,0 -3.44556,-1.54262 -3.44556,-3.44556z" fill="#ffffff" stroke="none" stroke-width="0.5" stroke-linecap="butt"/></g></g></svg>