<svg version="1.1" xmlns="http://www.w3.org/2000/svg" xmlns:xlink="http://www.w3.org/1999/xlink" width="295.00994" height="58.84914" viewBox="0,0,295.00994,58.84914"><g transform="translate(-92.49503,-150.57543)"><g data-paper-data="{&quot;isPaintingLayer&quot;:true}" fill-rule="nonzero" stroke-linecap="butt" stroke-linejoin="miter" stroke-miterlimit="10" stroke-dasharray="" stroke-dashoffset="0" style="mix-blend-mode: normal"><path d="M141.87532,192.47458c-1.81045,-1.13629 -1.38746,-1.63948 -1.38746,-3.24629c0,-4.82045 0,-11.41786 0,-18.72587c0,-1.50901 -0.36496,-1.96274 1.38746,-2.99566c1.75242,-1.03293 2.61242,-0.87097 5.17257,-0.87097c11.46121,0 178.76237,0 186.15301,0c2.46354,0 3.25604,-0.26651 4.92506,0.87097c1.66903,1.13747 1.38746,1.7522 1.38746,3.43115c0,7.08141 0,13.15483 0,18.14522c0,1.66346 0.41682,2.17314 -1.38746,3.39145c-1.80427,1.21831 -2.46152,0.87097 -4.92506,0.87097c-2.46354,0 -178.47259,0 -186.15301,0c-2.56014,0 -3.36211,0.26532 -5.17257,-0.87097z" fill="#0c0c0c" stroke="#00fff0" stroke-width="2.5"/><g fill="none" stroke="#ffffff" stroke-width="0.5"><path d="M336.20931,175.44091c0,0 0,6.52596 0,9.07787"/><path d="M149.18636,189.77482c71.05306,0 111.01156,0 182.06461,0"/><path d="M144.03821,175.7727c0,3.1037 0,7.08953 0,9.03763"/><path d="M331.15613,170.33902c0,0 -164.50269,0 -181.9697,0"/><path d="M336.20708,175.62697c-2.89819,0 -5.24766,-2.34945 -5.24766,-5.24766"/><path d="M330.95941,189.4749c0,-2.89819 2.34945,-5.24766 5.24766,-5.24766" data-paper-data="{&quot;index&quot;:null}"/><path d="M144.2302,184.37307c2.89821,0 5.24766,2.34945 5.24766,5.24766" data-paper-data="{&quot;index&quot;:null}"/><path d="M149.47788,170.81659c0,2.89821 -2.34945,5.24766 -5.24766,5.24766" data-paper-data="{&quot;index&quot;:null}"/><path d="M143.64716,186.8511c1.69062,0 3.06113,1.37051 3.06113,3.06113" data-paper-data="{&quot;index&quot;:null}"/><path d="M146.70832,169.94197c0,1.69062 -1.37051,3.06113 -3.06113,3.06113" data-paper-data="{&quot;index&quot;:null}"/><path d="M333.2917,190.05803c0,-1.69062 1.37051,-3.06113 3.06113,-3.06113" data-paper-data="{&quot;index&quot;:null}"/><path d="M336.35286,173.14888c-1.69062,0 -3.06113,-1.37051 -3.06113,-3.06113" data-paper-data="{&quot;index&quot;:null}"/><path d="M335.07558,183.29602c0,-1.84846 0,-6.57552 0,-6.57552"/><path d="M145.49588,183.50719c0,-1.41111 0,-4.29823 0,-6.54638"/><path d="M150.56864,188.42792c28.65609,0 163.66378,0 179.5912,0"/><path d="M330.06624,171.68598c0,0 -162.26786,0 -179.49757,0"/></g><text transform="translate(189.98908,184.44156) scale(0.37013,0.37013)" font-size="40" xml:space="preserve" fill="#00fff0" fill-rule="nonzero" stroke="#00fff0" stroke-width="1" stroke-linecap="butt" stroke-linejoin="miter" stroke-miterlimit="10" stroke-dasharray="" stroke-dashoffset="0" font-family="Malgun Gothic" font-weight="normal" text-anchor="start" style="mix-blend-mode: normal"><tspan x="0" dy="0">Difficulty: Easy</tspan></text><path d="M92.49503,209.42457v-58.84914h295.00994v58.84914z" fill="none" stroke="none" stroke-width="0"/></g></g></svg>