<svg version="1.1" xmlns="http://www.w3.org/2000/svg" xmlns:xlink="http://www.w3.org/1999/xlink" width="26.3507" height="26.3507" viewBox="0,0,26.3507,26.3507"><g transform="translate(-226.82465,-166.82465)"><g data-paper-data="{&quot;isPaintingLayer&quot;:true}" fill-rule="nonzero" stroke-linejoin="miter" stroke-miterlimit="10" stroke-dasharray="" stroke-dashoffset="0" style="mix-blend-mode: normal"><path d="M243.55467,180.03907c-0.3125,0.69792 -0.80729,1.26042 -1.48437,1.6875c-0.67708,0.42708 -1.44271,0.64063 -2.29687,0.64063c-0.72917,0 -1.38542,-0.19271 -1.96875,-0.57812c-0.58333,-0.39583 -1.04167,-0.9375 -1.375,-1.625c-0.32292,-0.6875 -0.48437,-1.44271 -0.48437,-2.26562c0,-0.86458 0.16667,-1.65625 0.5,-2.375c0.33333,-0.72917 0.80208,-1.30208 1.40625,-1.71875c0.60417,-0.41667 1.27083,-0.625 2,-0.625c1.36458,0 2.40104,0.44792 3.10938,1.34375c0.71875,0.88542 1.08333,2.16667 1.09375,3.84375v1.53125c0,2.23958 -0.5,3.94792 -1.5,5.125c-0.98958,1.16667 -2.45312,1.76563 -4.39062,1.79688h-0.4375l0.01563,-0.5h0.39063c1.77083,-0.02083 3.11458,-0.5625 4.03125,-1.625c0.92708,-1.0625 1.39063,-2.61458 1.39063,-4.65625zM239.77342,181.88282c0.89583,0 1.6875,-0.26562 2.375,-0.79687c0.69792,-0.53125 1.16667,-1.23437 1.40625,-2.10937v-0.5625c0,-1.53125 -0.31771,-2.70312 -0.95312,-3.51562c-0.625,-0.8125 -1.53125,-1.21875 -2.71875,-1.21875c-0.64583,0 -1.23437,0.19271 -1.76562,0.57813c-0.53125,0.375 -0.94271,0.89583 -1.23437,1.5625c-0.29167,0.65625 -0.4375,1.34896 -0.4375,2.07813c0,0.72917 0.14063,1.40104 0.42188,2.01563c0.28125,0.61458 0.67188,1.09896 1.17188,1.45313c0.51042,0.34375 1.08854,0.51563 1.73438,0.51563z" fill="#ffffff" stroke="#ffffff" stroke-width="1" stroke-linecap="square"/><path d="M226.82465,193.17535v-26.3507h26.3507v26.3507z" fill="none" stroke="none" stroke-width="0" stroke-linecap="butt"/></g></g></svg>