<svg version="1.1" xmlns="http://www.w3.org/2000/svg" xmlns:xlink="http://www.w3.org/1999/xlink" width="46.75" height="46.75" viewBox="0,0,46.75,46.75"><g transform="translate(-216.625,-156.625)"><g data-paper-data="{&quot;isPaintingLayer&quot;:true}" fill-rule="nonzero" stroke-linejoin="miter" stroke-miterlimit="10" stroke-dasharray="" stroke-dashoffset="0" style="mix-blend-mode: normal"><g data-paper-data="{&quot;index&quot;:null}" fill="none" stroke="#f69c6a" stroke-width="2" stroke-linecap="round"><path d="M246.36127,161.99599c0,0 -3.65192,7.80334 -1.34468,11.84272c0.8103,1.41863 -0.6864,0.66976 0.34783,1.45803c0.69231,0.52766 1.27841,1.03436 1.49625,1.69695c0.56826,1.72846 0,7.71329 0,7.71329c0,0 -1.8924,1.19154 -2.31761,2.56086c-0.64118,2.06485 0.09805,-2.29267 -1.84575,-3.23943c-1.71079,-0.83333 0.11828,-3.45951 -0.69314,-5.17782c-0.56022,-1.18634 -4.19899,-0.92688 -4.59447,-2.59924c-0.6067,-2.56556 0.02364,-6.97093 0.02364,-6.97093"/><path d="M253.85979,168.42338c0,0 1.19428,11.05374 -1.51118,14.41587c-1.62958,2.02511 -5.0594,1.86773 -5.0594,1.86773"/><path d="M244.00336,166.13946c0,0 0.28472,7.29677 -0.67037,8.32533c-0.89833,0.96744 -5.47169,1.8162 -5.47169,1.8162"/><path d="M253.43126,174.13694c0,0 -3.66298,-0.99114 -3.92421,-1.70358c-0.26251,-0.71594 -0.50378,-4.15281 -0.50378,-4.15281"/><path d="M241.7185,183.70712c0,0 -4.71123,-0.91845 -5.96012,-2.32025c-1.04917,-1.17765 -1.03897,-5.53588 -1.03897,-5.53588"/></g><path d="M216.625,203.375v-46.75h46.75v46.75z" fill="none" stroke="none" stroke-width="2" stroke-linecap="butt"/><path d="M224.33148,189.50281c-0.86789,-1.50279 -1.13867,-22.31552 3.07927,-25.81552c4.26957,-3.54284 17.53423,0.2773 17.53423,9.40639c0,3.64426 2.02301,10.48339 0.80886,13.21596c-1.64911,3.71147 -6.59595,5.50539 -9.99525,5.82005c0,0 -10.74176,-1.44017 -11.42711,-2.62688z" data-paper-data="{&quot;index&quot;:null}" fill="#3a536f" stroke="#ababab" stroke-width="2" stroke-linecap="butt"/><path d="M244.69342,177.44171c0,1.97245 1.38608,11.78571 -0.42857,11.78571c-0.42189,0 -2.78303,1.12716 -6.514,1.53849c-3.73097,0.41134 -5.32159,-0.03765 -6.17779,-0.26579c-1.82727,-0.48689 -4.59289,-1.86913 -4.53939,-2.7737c0.25089,-4.24219 8.51689,-10.91758 8.51689,-12.07043c0,-0.94427 0.83715,-1.37439 1.38773,-2.01301c0.59951,-0.69537 0.95206,-1.55841 1.89798,-1.55841c1.13419,0 1.13415,0.19607 1.72461,1.14612c0.35425,0.56999 4.13253,3.47139 4.13253,4.21103z" fill="#3a7049" stroke="none" stroke-width="0" stroke-linecap="butt"/><g data-paper-data="{&quot;index&quot;:null}" fill="none" stroke="#e7e964" stroke-width="2" stroke-linecap="round"><path d="M251.30061,177.8641c0,0 1.07917,9.98829 -1.36552,13.02636c-1.47251,1.82991 -4.57174,1.6877 -4.57174,1.6877"/><path d="M242.39422,175.80032c0,0 0.25728,6.59345 -0.60575,7.52287c-0.81174,0.87419 -4.94429,1.64114 -4.94429,1.64114"/><path d="M250.91338,183.02695c0,0 -3.30991,-0.89561 -3.54596,-1.53938c-0.23721,-0.64693 -0.45522,-3.75253 -0.45522,-3.75253"/><path d="M240.32959,191.67468c0,0 -4.25712,-0.82992 -5.38564,-2.09661c-0.94804,-1.06414 -0.93883,-5.00229 -0.93883,-5.00229"/></g><g data-paper-data="{&quot;index&quot;:null}" fill="none" stroke="#6ee851" stroke-width="2" stroke-linecap="round"><path d="M242.21842,171.21028c0,0 -0.21396,8.39517 0.71429,11.14124c0.57241,1.69339 3.38948,2.16786 4.50315,3.01667c0.69231,0.52766 1.27841,1.03436 1.49625,1.69695c0.56826,1.72846 0,7.71329 0,7.71329c0,0 -2.66608,0.05071 -4.16337,-0.67857c-1.71079,-0.83333 0.11828,-3.45951 -0.69314,-5.17782c-0.56022,-1.18634 -4.19899,-0.92689 -4.59447,-2.59925c-0.6067,-2.56556 0.02364,-6.97093 0.02364,-6.97093"/><path d="M255.93122,178.49482c0,0 1.19428,11.05374 -1.51118,14.41587c-1.62958,2.02511 -5.0594,1.86773 -5.0594,1.86773"/><path d="M245.40443,184.53623c-0.89833,0.96744 -5.47169,1.8162 -5.47169,1.8162"/><path d="M255.50269,184.20838c0,0 -3.66298,-0.99114 -3.92421,-1.70358c-0.26251,-0.71594 -0.50378,-4.15281 -0.50378,-4.15281"/><path d="M243.78993,193.77856c0,0 -4.71123,-0.91845 -5.96012,-2.32025c-1.04917,-1.17765 -1.03897,-5.53588 -1.03897,-5.53588"/></g><g fill="none" stroke="#e264e8" stroke-width="2" stroke-linecap="round"><path d="M244.40843,177.49471c0,0 0.63034,4.40537 0.02364,6.97093c-0.39548,1.67236 -4.03425,1.4129 -4.59447,2.59924c-0.81142,1.71831 1.01765,4.34449 -0.69314,5.17782c-1.9438,0.94676 -0.63315,4.73286 -1.27433,2.66801c-0.42521,-1.36932 -2.88904,-1.98944 -2.88904,-1.98944c0,0 -0.56826,-5.98483 0,-7.71329c0.21784,-0.66259 0.80394,-1.16929 1.49625,-1.69695c1.11367,-0.84881 3.93075,-1.32327 4.50315,-3.01666c0.92825,-2.74607 0.71429,-11.14123 0.71429,-11.14123"/><path d="M234.55256,192.92127c0,0 -3.42982,0.15738 -5.0594,-1.86773c-2.70546,-3.36213 -1.51118,-14.41587 -1.51118,-14.41587"/><path d="M232.8385,176.49484c0,0 -0.24127,3.43687 -0.50378,4.15281c-0.26123,0.71244 -3.92421,1.70358 -3.92421,1.70358"/><path d="M247.12236,184.06528c0,0 0.0102,4.35823 -1.03897,5.53588c-1.24889,1.4018 -5.96012,2.32025 -5.96012,2.32025"/></g><path d="M238.15693,170.66057c0.71651,0.59425 -0.50958,2.19681 -0.50958,2.19681c0,0 1.89311,0.73649 1.82322,1.62058c-0.06989,0.8841 -2.37684,0.31146 -2.37684,0.31146c0,0 -0.18573,2.00899 -1.18069,1.87541c-0.99496,-0.13358 -1.13722,-1.9716 -1.13722,-1.9716c0,0 -1.80306,0.27469 -2.17978,-0.655c-0.37671,-0.9297 1.65618,-1.23236 1.65618,-1.23236c0,0 -1.35578,-1.56599 -0.62985,-2.2532c0.72593,-0.68721 2.41595,0.97022 2.41595,0.97022c0,0 1.4021,-1.45658 2.11861,-0.86234z" fill="#51f0d7" stroke="#bce3dc" stroke-width="1" stroke-linecap="butt"/><g stroke-width="1" stroke-linecap="butt"><path d="M244.26952,194.54963c0,1.24296 -0.08427,0 -2.25057,0c-2.1663,0 -1.22175,-2.67948 -1.22175,-3.92244c0,-1.24296 8.76506,-1.99336 10.93136,-1.99336c2.1663,0 -7.45904,4.67284 -7.45904,5.9158z" fill="#54dcc0" stroke="#4ecfd9"/><path d="M247.0988,192.23475c0,-1.02988 0.83488,-1.86476 1.86476,-1.86476c1.02988,0 1.86476,0.83487 1.86476,1.86476c0,1.02988 -0.83488,1.86476 -1.86476,1.86476c-1.02988,0 -1.86476,-0.83488 -1.86476,-1.86476z" fill="#ffffff" stroke="#ffbaba"/><path d="M247.16311,198.00401c-3.76438,0 -6.81603,-3.70743 -6.81603,-3.70743c0,0 1.20409,-0.34586 2.31851,-0.82441c1.15606,-0.49643 2.56845,0.28782 2.56845,0.28782c0,0 1.60557,-1.01727 2.18601,-1.0108c0.51272,0.00573 1.36275,0.69121 2.4107,0.94346c0.84228,0.20275 1.89688,-0.51363 2.59459,-0.45075c0.87317,0.0787 1.5538,1.05467 1.5538,1.05467c0,0 -3.05164,3.70743 -6.81603,3.70743z" data-paper-data="{&quot;index&quot;:null}" fill="#99ffea" stroke="#4ecfd9"/><path d="M252.2888,188.47069c-0.62594,0.18702 -1.9391,-0.01879 -2.63737,0.28336c-0.86876,0.37591 -1.35592,0.97032 -1.83421,1.08339c-0.54146,0.12799 -2.5075,-0.14116 -2.5075,-0.14116c0,0 -0.96992,0.7741 -2.27875,0.7224c-1.26169,-0.04984 -2.61177,3.92181 -2.61177,3.92181c0,0 -0.64412,-1.26643 -0.61836,-1.9806c0.03965,-1.09876 1.04316,-2.62885 1.31198,-2.99019c0.67675,-0.90966 1.95359,-2.15469 4.08636,-2.64086c3.53063,-0.80481 8.06985,0.77472 8.06985,0.77472z" fill="#99ffea" stroke="#4ecfd9"/></g></g></g></svg>