<svg version="1.1" xmlns="http://www.w3.org/2000/svg" xmlns:xlink="http://www.w3.org/1999/xlink" width="40.54748" height="40.54748" viewBox="0,0,40.54748,40.54748"><g transform="translate(-219.72626,-159.72626)"><g data-paper-data="{&quot;isPaintingLayer&quot;:true}" fill-rule="nonzero" stroke-linejoin="miter" stroke-miterlimit="10" stroke-dasharray="" stroke-dashoffset="0" style="mix-blend-mode: normal"><path d="M233.33147,180.5838c0,0 1.23897,1.19035 0.98918,1.71063c-0.28478,0.59315 -1.19906,0.23131 -1.87473,0.59923c-0.71733,0.3906 -1.18925,1.49288 -1.18925,1.49288c0,0 -1.00388,-1.16714 -1.58882,-1.53034c-0.55379,-0.34384 -1.83251,-0.59396 -1.83251,-0.59396c0,0 -0.15231,-0.99084 -0.76241,-1.75313c-0.41701,-0.52104 -1.29306,-0.82507 -1.51161,-1.06866c-0.16607,-0.1851 -0.07326,-0.65498 -0.36039,-1.04724c-0.40948,-0.55941 -1.19276,-1.04553 -1.19276,-1.04553c0,0 -0.60631,-0.62104 0.06832,-0.4962c0.90113,0.16675 5.05954,0.468 5.32516,0.41166c0.2199,-0.04663 0.38814,-0.79508 0.61008,-0.64968c0.08082,0.05295 0.11467,0.93125 0.23738,1.00346c1.17327,0.69048 3.08235,2.96687 3.08235,2.96687z" fill="#5e1212" stroke="#a31f1f" stroke-width="1.5" stroke-linecap="butt"/><path d="M248.94081,172.59654c0.14384,-0.22297 0.60138,0.39275 0.82128,0.34612c0.26563,-0.05633 3.94378,-2.01956 4.69966,-2.53773c0.56588,-0.38793 0.26386,0.42575 0.26386,0.42575c0,0 -0.51854,0.76222 -0.6657,1.43968c-0.1032,0.47503 0.17236,0.8668 0.09572,1.10337c-0.10087,0.31133 -0.77809,0.94478 -0.94771,1.59023c-0.24816,0.94432 0.01482,1.91168 0.01482,1.91168c0,0 -1.06713,0.74763 -1.43368,1.28665c-0.38718,0.56937 -0.83088,2.0435 -0.83088,2.0435c0,0 -0.87871,-0.81584 -1.69284,-0.88165c-0.76684,-0.06198 -1.45555,0.6398 -1.95657,0.2133c-0.43947,-0.37409 0.20968,-1.96488 0.20968,-1.96488c0,0 0.82074,-2.85534 1.61274,-3.9626z" data-paper-data="{&quot;index&quot;:null}" fill="#5e1212" stroke="#a31f1f" stroke-width="1.5" stroke-linecap="butt"/><path d="M241.93217,186.10758c-3.68393,0.78129 -7.3037,-1.57177 -8.08498,-5.2557c-0.78129,-3.68393 1.57177,-7.3037 5.2557,-8.08498c3.68393,-0.78129 7.3037,1.57177 8.08498,5.2557c0.78129,3.68393 -1.57177,7.3037 -5.2557,8.08498z" data-paper-data="{&quot;index&quot;:null}" fill="#5e1212" stroke="#f5f5f5" stroke-width="2" stroke-linecap="butt"/><path d="M244.98341,173.8771l0.03622,-3.30235c0,0 1.02971,0.77284 1.1896,1.27433c0.17748,0.55663 -0.17198,1.91733 -0.17198,1.91733" data-paper-data="{&quot;index&quot;:null}" fill="none" stroke="#ff3030" stroke-width="2" stroke-linecap="round"/><path d="M233.78209,175.42841c0,0 -1.15694,-0.81265 -1.21968,-1.38433c-0.05883,-0.53601 0.8542,-1.94562 0.8542,-1.94562l1.19304,3.44017" data-paper-data="{&quot;index&quot;:null}" fill="none" stroke="#ff3030" stroke-width="2" stroke-linecap="round"/><path d="M241.82484,186.13706c-3.68393,0.78129 -7.3037,-1.57177 -8.08498,-5.2557c-0.78129,-3.68393 1.57177,-7.3037 5.2557,-8.08498c3.68393,-0.78129 7.3037,1.57177 8.08498,5.2557c0.78129,3.68393 -1.57177,7.3037 -5.2557,8.08498z" data-paper-data="{&quot;index&quot;:null}" fill="none" stroke="#f5f5f5" stroke-width="2" stroke-linecap="butt"/><path d="M219.72626,200.27374v-40.54748h40.54748v40.54748z" data-paper-data="{&quot;index&quot;:null}" fill="none" stroke="none" stroke-width="0" stroke-linecap="butt"/><path d="M242.17971,180.96482l-3.44444,-2.88889" fill="none" stroke="#ff3030" stroke-width="2" stroke-linecap="round"/><path d="M238.84638,181.63148l2.83333,-3.88889" fill="none" stroke="#ff3030" stroke-width="2" stroke-linecap="round"/><path d="M242.17971,174.46481l-2.44444,1.61111l-2.83333,-0.83333" fill="none" stroke="#ff3030" stroke-width="2" stroke-linecap="round"/></g></g></svg>