<svg version="1.1" xmlns="http://www.w3.org/2000/svg" xmlns:xlink="http://www.w3.org/1999/xlink" width="31.11411" height="31.11411" viewBox="0,0,31.11411,31.11411"><g transform="translate(-224.44301,-164.44296)"><g data-paper-data="{&quot;isPaintingLayer&quot;:true}" fill-rule="nonzero" stroke-linejoin="miter" stroke-miterlimit="10" stroke-dasharray="" stroke-dashoffset="0" style="mix-blend-mode: normal"><path d="M230.78307,186.06524c0.65746,1.04765 2.82835,2.64877 2.82835,2.64877c0,0 1.92206,-10.88806 6.73893,-15.27643c4.81687,-4.38837 9.08252,-0.92324 9.86542,0.41854c0.90725,1.55488 -0.55271,7.60894 -4.13263,9.16051c-4.25697,1.84502 -16.56141,-0.81956 -16.56141,-0.81956c0,0 0.60388,2.82052 1.26134,3.86817z" fill="none" stroke="#0062ff" stroke-width="2" stroke-linecap="butt"/><path d="M241.21678,177.38364c-0.34522,-0.59166 -0.14545,-1.35114 0.44622,-1.69637c0.59166,-0.34522 1.35114,-0.14545 1.69637,0.44622c0.34522,0.59166 0.14545,1.35114 -0.44622,1.69637c-0.59166,0.34522 -1.35114,0.14545 -1.69637,-0.44622z" fill="#0062ff" stroke="none" stroke-width="0.5" stroke-linecap="butt"/><path d="M244.75202,175.3209c-0.34522,-0.59166 -0.14545,-1.35114 0.44622,-1.69637c0.59166,-0.34522 1.35114,-0.14545 1.69637,0.44622c0.34522,0.59166 0.14545,1.35114 -0.44622,1.69637c-0.59166,0.34522 -1.35114,0.14545 -1.69637,-0.44622z" fill="#0062ff" stroke="none" stroke-width="0.5" stroke-linecap="butt"/><path d="M243.74361,179.49928l3.53523,-2.06274" fill="none" stroke="#0062ff" stroke-width="2" stroke-linecap="round"/><path d="M224.44301,195.55707v-31.11411h31.11411v31.11411z" fill="none" stroke="none" stroke-width="2" stroke-linecap="butt"/></g></g></svg>