<svg version="1.1" xmlns="http://www.w3.org/2000/svg" xmlns:xlink="http://www.w3.org/1999/xlink" width="328.89009" height="48.83333" viewBox="0,0,328.89009,48.83333"><defs><linearGradient x1="451.46585" y1="180.01289" x2="538.85418" y2="180.01289" gradientUnits="userSpaceOnUse" id="color-1"><stop offset="0" stop-color="#00fcff"/><stop offset="1" stop-color="#00fcff" stop-opacity="0"/></linearGradient><linearGradient x1="451.46585" y1="180.18567" x2="538.85418" y2="180.18567" gradientUnits="userSpaceOnUse" id="color-2"><stop offset="0" stop-color="#00fcff"/><stop offset="1" stop-color="#00fcff" stop-opacity="0"/></linearGradient><linearGradient x1="451.46585" y1="179.84009" x2="538.85418" y2="179.84009" gradientUnits="userSpaceOnUse" id="color-3"><stop offset="0" stop-color="#00fcff"/><stop offset="1" stop-color="#00fcff" stop-opacity="0"/></linearGradient><radialGradient cx="240.00001" cy="180" r="6.31139" gradientUnits="userSpaceOnUse" id="color-4"><stop offset="0" stop-color="#30f2ff"/><stop offset="1" stop-color="#30f2ff" stop-opacity="0"/></radialGradient><radialGradient cx="240.00001" cy="180" r="6.31139" gradientUnits="userSpaceOnUse" id="color-5"><stop offset="0" stop-color="#30f2ff"/><stop offset="1" stop-color="#30f2ff" stop-opacity="0"/></radialGradient><radialGradient cx="240.00001" cy="180" r="6.31139" gradientUnits="userSpaceOnUse" id="color-6"><stop offset="0" stop-color="#30f2ff"/><stop offset="1" stop-color="#30f2ff" stop-opacity="0"/></radialGradient><linearGradient x1="387.1784" y1="180.16347" x2="387.1784" y2="183.09351" gradientUnits="userSpaceOnUse" id="color-7"><stop offset="0" stop-color="#66fffa"/><stop offset="1" stop-color="#66fffa" stop-opacity="0"/></linearGradient><linearGradient x1="387.34507" y1="179.73617" x2="387.34507" y2="176.80613" gradientUnits="userSpaceOnUse" id="color-8"><stop offset="0" stop-color="#66fdff"/><stop offset="1" stop-color="#66fdff" stop-opacity="0"/></linearGradient><linearGradient x1="451.17174" y1="179.96257" x2="538.3934" y2="179.96257" gradientUnits="userSpaceOnUse" id="color-9"><stop offset="0" stop-color="#ffffff"/><stop offset="1" stop-color="#ffffff" stop-opacity="0"/></linearGradient></defs><g transform="translate(-228.8229,-156.76749)"><g data-paper-data="{&quot;isPaintingLayer&quot;:true}" fill-rule="nonzero" stroke-width="0" stroke-linecap="butt" stroke-linejoin="miter" stroke-miterlimit="10" stroke-dasharray="" stroke-dashoffset="0" style="mix-blend-mode: normal"><path d="M451.46585,181.23866v-2.45155h87.38833v2.45155z" fill="url(#color-1)" stroke="#000000"/><path d="M451.46585,181.23866v-2.10597h87.38833v2.10597z" fill="url(#color-2)" stroke="#000000"/><path d="M451.46585,180.89307v-2.10597h87.38833v2.10597z" fill="url(#color-3)" stroke="#000000"/><path d="M233.68862,180c0,-3.48569 2.82571,-6.31139 6.31139,-6.31139c3.48569,0 6.31139,2.82571 6.31139,6.31139c0,3.48569 -2.82571,6.31139 -6.31139,6.31139c-3.48569,0 -6.31139,-2.82571 -6.31139,-6.31139z" fill="url(#color-4)" stroke="none"/><path d="M233.68862,180c0,-3.48569 2.82571,-6.31139 6.31139,-6.31139c3.48569,0 6.31139,2.82571 6.31139,6.31139c0,3.48569 -2.82571,6.31139 -6.31139,6.31139c-3.48569,0 -6.31139,-2.82571 -6.31139,-6.31139z" fill="url(#color-5)" stroke="none"/><path d="M233.68862,180c0,-3.48569 2.82571,-6.31139 6.31139,-6.31139c3.48569,0 6.31139,2.82571 6.31139,6.31139c0,3.48569 -2.82571,6.31139 -6.31139,6.31139c-3.48569,0 -6.31139,-2.82571 -6.31139,-6.31139z" fill="url(#color-6)" stroke="none"/><path d="M228.82291,191.17709v-22.35419h22.35419v22.35419z" fill="none" stroke="none"/><path d="M230.713,205.60083v-48.83333h327v48.83333z" fill="none" stroke="none"/><path d="M240.1784,183.09351v-2.93004l199.83333,0.67147l94.16667,0.18312v2.07545z" fill="url(#color-7)" stroke="none"/><path d="M534.34507,176.80613v2.13649l-73,0.06104l-221,0.73251v-2.93004z" data-paper-data="{&quot;index&quot;:null}" fill="url(#color-8)" stroke="none"/><path d="M240.47918,181.01759v-2.10597h211.31686v2.10597z" fill="#ffffff" stroke="#000000"/><path d="M235.40039,180c0,-2.5403 2.05932,-4.59962 4.59962,-4.59962c2.5403,0 4.59962,2.05932 4.59962,4.59962c0,2.5403 -2.05932,4.59962 -4.59962,4.59962c-2.5403,0 -4.59962,-2.05932 -4.59962,-4.59962z" fill="#ffffff" stroke="#bf7cff"/><path d="M451.17174,181.01555v-2.10597h87.22166v2.10597z" fill="url(#color-9)" stroke="#000000"/></g></g></svg>