<svg version="1.1" xmlns="http://www.w3.org/2000/svg" xmlns:xlink="http://www.w3.org/1999/xlink" width="86.44888" height="86.44888" viewBox="0,0,86.44888,86.44888"><defs><linearGradient x1="219.78766" y1="162.88359" x2="232.24124" y2="206.0248" gradientUnits="userSpaceOnUse" id="color-1"><stop offset="0" stop-color="#ff22c0"/><stop offset="1" stop-color="#ff6a1a"/></linearGradient></defs><g transform="translate(-196.77556,-136.77556)"><g data-paper-data="{&quot;isPaintingLayer&quot;:true}" fill-rule="nonzero" stroke-linejoin="miter" stroke-miterlimit="10" stroke-dasharray="" stroke-dashoffset="0" style="mix-blend-mode: normal"><g><path d="M267.38103,179.86178c0,0 -10.11517,3.46402 -15.80626,1.26673c-8.32982,-3.21609 -5.63081,-5.09919 -9.6704,-6.63997c-4.03958,-1.54081 -9.03683,-2.46908 -10.61649,-2.64458c-0.60653,-0.06738 -2.74867,-3.75024 -3.29464,-4.52125c-0.9047,-1.27764 -3.35813,-2.21424 -3.74705,-4.45519c-0.31663,-1.82449 -0.61338,-3.60174 -0.61338,-3.60174" fill="none" stroke="#ffd0d0" stroke-width="2" stroke-linecap="round"/><path d="M215.51284,164.1176c1.29613,-0.37415 2.54442,3.66089 5.43852,3.13075c2.89408,-0.53012 0.53679,-5.30339 1.99398,-4.49219c0.70814,0.39421 0.93413,1.73807 1.69583,2.51341c1.33584,1.35975 2.46065,1.44198 3.88103,2.73137c1.23823,1.12405 1.39117,2.71642 2.26888,3.13137c-0.38637,0.41024 0.64151,1.61275 0.27105,2.00357c-7.39388,7.80012 -11.51312,12.00623 -8.16761,23.59562c0.91766,3.1789 2.80649,9.21886 6.65805,10.88094c-4.88252,1.22596 -11.80372,-6.78292 -13.93748,-15.81339c-2.96955,-12.56763 -0.10228,-27.68147 -0.10228,-27.68147z" fill="url(#color-1)" stroke="#ffffff" stroke-width="0.5" stroke-linecap="butt"/><path d="M250.73724,221.85885c-23.11801,5.93002 -46.66607,-8.00361 -52.59609,-31.12162c-5.93002,-23.11801 8.00361,-46.66607 31.12162,-52.59609c23.11801,-5.93002 46.66607,8.00361 52.59609,31.12162c5.93002,23.11801 -8.00361,46.66607 -31.12162,52.59609z" fill="none" stroke="none" stroke-width="0" stroke-linecap="butt"/></g></g></g></svg>