<svg version="1.1" xmlns="http://www.w3.org/2000/svg" xmlns:xlink="http://www.w3.org/1999/xlink" width="26.3507" height="26.3507" viewBox="0,0,26.3507,26.3507"><g transform="translate(-226.82465,-166.82465)"><g data-paper-data="{&quot;isPaintingLayer&quot;:true}" fill-rule="nonzero" stroke-linejoin="miter" stroke-miterlimit="10" stroke-dasharray="" stroke-dashoffset="0" style="mix-blend-mode: normal"><path d="M243.85156,176.74217c0,0.73958 -0.22917,1.39063 -0.6875,1.95313c-0.45833,0.55208 -1.05208,0.9375 -1.78125,1.15625c0.86458,0.22917 1.55208,0.64583 2.0625,1.25c0.52083,0.60417 0.78125,1.29688 0.78125,2.07813c0,1.125 -0.38542,2.01563 -1.15625,2.67188c-0.76042,0.64583 -1.78125,0.96875 -3.0625,0.96875c-1.29167,0 -2.32292,-0.32292 -3.09375,-0.96875c-0.76042,-0.65625 -1.14062,-1.54687 -1.14062,-2.67187c0,-0.78125 0.25,-1.47396 0.75,-2.07812c0.5,-0.60417 1.1875,-1.02083 2.0625,-1.25c-0.72917,-0.21875 -1.31771,-0.60417 -1.76562,-1.15625c-0.44792,-0.5625 -0.67187,-1.21354 -0.67187,-1.95312c0,-1.09375 0.34896,-1.95833 1.04688,-2.59375c0.70833,-0.64583 1.63542,-0.96875 2.78125,-0.96875c1.15625,0 2.08854,0.32813 2.79688,0.98438c0.71875,0.64583 1.07813,1.50521 1.07813,2.57813zM243.72656,183.22656c0,-0.90625 -0.34896,-1.65625 -1.04687,-2.25c-0.69792,-0.59375 -1.59375,-0.89062 -2.6875,-0.89062c-1.09375,0 -1.98958,0.29688 -2.6875,0.89063c-0.6875,0.58333 -1.03125,1.33333 -1.03125,2.25c0,0.9375 0.33854,1.6875 1.01563,2.25c0.67708,0.5625 1.58333,0.84375 2.71875,0.84375c1.125,0 2.02604,-0.28125 2.70313,-0.84375c0.67708,-0.57292 1.01563,-1.32292 1.01563,-2.25zM243.35156,176.69531c0,-0.86458 -0.32292,-1.58333 -0.96875,-2.15625c-0.64583,-0.57292 -1.44792,-0.85937 -2.40625,-0.85937c-0.97917,0 -1.78125,0.27604 -2.40625,0.82813c-0.61458,0.55208 -0.92187,1.28125 -0.92187,2.1875c0,0.86458 0.30729,1.56771 0.92188,2.10938c0.625,0.53125 1.43229,0.79688 2.42188,0.79688c0.98958,0 1.79688,-0.27083 2.42188,-0.8125c0.625,-0.54167 0.9375,-1.23958 0.9375,-2.09375z" fill="#ffffff" stroke="#ffffff" stroke-width="1" stroke-linecap="square"/><path d="M226.82465,193.17535v-26.3507h26.3507v26.3507z" fill="none" stroke="none" stroke-width="0" stroke-linecap="butt"/></g></g></svg>