<svg version="1.1" xmlns="http://www.w3.org/2000/svg" xmlns:xlink="http://www.w3.org/1999/xlink" width="328.71569" height="70.44732" viewBox="0,0,328.71569,70.44732"><g transform="translate(-75.64215,-144.77634)"><g data-paper-data="{&quot;isPaintingLayer&quot;:true}" fill-rule="nonzero" stroke-linejoin="miter" stroke-miterlimit="10" stroke-dasharray="" stroke-dashoffset="0" style="mix-blend-mode: normal"><path d="M75.64215,215.22366v-70.44732h328.71569v70.44732z" fill="none" stroke="none" stroke-width="0" stroke-linecap="butt"/><path d="M141.53544,195.43848c-1.81672,-1.40627 -1.39227,-2.02901 -1.39227,-4.0176c0,-5.96577 0,-14.13068 0,-23.17504c0,-1.86754 -0.36622,-2.42907 1.39227,-3.70742c1.75849,-1.27835 2.62147,-1.07791 5.19049,-1.07791c11.50091,0 179.38154,0 186.79778,0c2.47207,0 3.26732,-0.32983 4.94212,1.07791c1.67481,1.40773 1.39227,2.16851 1.39227,4.24637c0,8.76392 0,16.28035 0,22.45643c0,2.05869 0.41826,2.68947 -1.39227,4.19724c-1.81052,1.50778 -2.47005,1.07791 -4.94212,1.07791c-2.47207,0 -179.09076,0 -186.79778,0c-2.56901,0 -3.37376,0.32836 -5.19049,-1.07791z" fill="#1b1b1b" stroke="#ffffff" stroke-width="2.5" stroke-linecap="butt"/><text transform="translate(263.76678,194.76245) scale(1.01937,1.01937)" font-size="40" xml:space="preserve" fill="#515151" fill-rule="nonzero" stroke="none" stroke-width="1" stroke-linecap="butt" stroke-linejoin="miter" stroke-miterlimit="10" stroke-dasharray="" stroke-dashoffset="0" font-family="Malgun Gothic" font-weight="normal" text-anchor="start" style="mix-blend-mode: normal"><tspan x="0" dy="0">OFF</tspan></text><path d="M147.99999,180.83334h128.32966" fill="none" stroke="#ffffff" stroke-width="2" stroke-linecap="round"/><text transform="translate(147.43155,185.43316) scale(0.4262,0.4262)" font-size="40" xml:space="preserve" fill="#ffffff" fill-rule="nonzero" stroke="none" stroke-width="1" stroke-linecap="butt" stroke-linejoin="miter" stroke-miterlimit="10" stroke-dasharray="" stroke-dashoffset="0" font-family="Malgun Gothic" font-weight="normal" text-anchor="start" style="mix-blend-mode: normal"><tspan x="0" dy="0">Toggle keyboard</tspan></text></g></g></svg>