<svg version="1.1" xmlns="http://www.w3.org/2000/svg" xmlns:xlink="http://www.w3.org/1999/xlink" width="39.5" height="39.5" viewBox="0,0,39.5,39.5"><g transform="translate(-220.25,-160.25)"><g data-paper-data="{&quot;isPaintingLayer&quot;:true}" fill-rule="nonzero" stroke-linejoin="miter" stroke-miterlimit="10" stroke-dasharray="" stroke-dashoffset="0" style="mix-blend-mode: normal"><path d="M248.31253,190.9c-4.58695,0 -14.11463,0 -16.7,0c-1.51777,0 -2.6,-0.83223 -2.6,-2.35c0,-4.42917 0,-13.80941 0,-16.5c0,-1.69942 0.90058,-2.95 2.6,-2.95c4.56587,0 13.78886,0 16.4,0c1.72888,0 2.8,1.22112 2.8,2.95c0,2.63128 0.19681,14.71604 0,16.2c-0.19681,1.48396 -0.97803,2.65 -2.5,2.65z" data-paper-data="{&quot;index&quot;:null}" fill="#2c2c2c" stroke="#777777" stroke-width="1.5" stroke-linecap="butt"/><path d="M240.66253,174.25l4.3,6l-4.3,5.5" data-paper-data="{&quot;index&quot;:null}" fill="none" stroke="#ffffff" stroke-width="2" stroke-linecap="round"/><path d="M244.41253,180.15h-10.2" data-paper-data="{&quot;index&quot;:null}" fill="none" stroke="#ffffff" stroke-width="2" stroke-linecap="round"/><path d="M220.25,199.75v-39.5h39.5v39.5z" fill="none" stroke="none" stroke-width="0" stroke-linecap="butt"/></g></g></svg>