<svg version="1.1" xmlns="http://www.w3.org/2000/svg" xmlns:xlink="http://www.w3.org/1999/xlink" width="328.71569" height="70.44732" viewBox="0,0,328.71569,70.44732"><g transform="translate(-75.64215,-144.77634)"><g data-paper-data="{&quot;isPaintingLayer&quot;:true}" fill-rule="nonzero" stroke-linecap="butt" stroke-linejoin="miter" stroke-miterlimit="10" stroke-dasharray="" stroke-dashoffset="0" style="mix-blend-mode: normal"><path d="M118.06047,215.22366v-70.44732h243.87907v70.44732z" fill="none" stroke="none" stroke-width="0"/><path d="M141.53544,195.43848c-1.81672,-1.40627 -1.39227,-2.02901 -1.39227,-4.0176c0,-5.96577 0,-14.13068 0,-23.17504c0,-1.86754 -0.36622,-2.42907 1.39227,-3.70742c1.75849,-1.27835 2.62147,-1.07791 5.19049,-1.07791c11.50091,0 179.38154,0 186.79778,0c2.47207,0 3.26732,-0.32983 4.94212,1.07791c1.67481,1.40773 1.39227,2.16851 1.39227,4.24637c0,8.76392 0,16.28035 0,22.45643c0,2.05869 0.41826,2.68947 -1.39227,4.19724c-1.81052,1.50778 -2.47005,1.07791 -4.94212,1.07791c-2.47207,0 -179.09076,0 -186.79778,0c-2.56901,0 -3.37376,0.32836 -5.19049,-1.07791z" fill="#66758b" stroke="#ffffff" stroke-width="2.5"/><text transform="translate(150.7959,186) scale(0.5,0.5)" font-size="40" xml:space="preserve" fill="#ffffff" fill-rule="nonzero" stroke="none" stroke-width="1" stroke-linecap="butt" stroke-linejoin="miter" stroke-miterlimit="10" stroke-dasharray="" stroke-dashoffset="0" font-family="Malgun Gothic" font-weight="normal" text-anchor="start" style="mix-blend-mode: normal"><tspan x="0" dy="0">Stopwatch</tspan></text><text transform="translate(276.76678,195.24021) scale(1.02538,1.02538)" font-size="40" xml:space="preserve" fill="#9fb7da" fill-rule="nonzero" stroke="none" stroke-width="1" stroke-linecap="butt" stroke-linejoin="miter" stroke-miterlimit="10" stroke-dasharray="" stroke-dashoffset="0" font-family="Malgun Gothic" font-weight="normal" text-anchor="start" style="mix-blend-mode: normal"><tspan x="0" dy="0">ON</tspan></text><path d="M75.64216,215.22366v-70.44732h328.71569v70.44732z" fill="none" stroke="none" stroke-width="0"/></g></g></svg>