<svg version="1.1" xmlns="http://www.w3.org/2000/svg" xmlns:xlink="http://www.w3.org/1999/xlink" width="56.83333" height="56.83333" viewBox="0,0,56.83333,56.83333"><g transform="translate(-211.5834,-151.58336)"><g data-paper-data="{&quot;isPaintingLayer&quot;:true}" fill-rule="nonzero" stroke="none" stroke-width="0" stroke-linecap="butt" stroke-linejoin="miter" stroke-miterlimit="10" stroke-dasharray="" stroke-dashoffset="0" style="mix-blend-mode: normal"><path d="M211.58341,208.41669v-56.83333h56.83333v56.83333z" fill="none"/><path d="M232.76483,192.28926c0,0.91564 -1.17019,1.65792 -2.61369,1.65792c-1.4435,0 -2.61369,-0.74227 -2.61369,-1.65792c0,-0.91564 1.17019,-1.65792 2.61369,-1.65792c1.4435,0 2.61369,0.74227 2.61369,1.65792z" fill="#000000"/><path d="M242.57948,192.28925c0,0.91564 -1.17019,1.65792 -2.61369,1.65792c-1.4435,0 -2.61369,-0.74227 -2.61369,-1.65792c0,-0.91564 1.17019,-1.65792 2.61369,-1.65792c1.4435,0 2.61369,0.74227 2.61369,1.65792z" fill="#000000"/><path d="M252.28746,192.28925c0,0.91564 -1.17019,1.65792 -2.61369,1.65792c-1.4435,0 -2.61369,-0.74227 -2.61369,-1.65792c0,-0.91564 1.17019,-1.65792 2.61369,-1.65792c1.4435,0 2.61369,0.74227 2.61369,1.65792z" fill="#000000"/><path d="M237.88983,183.20675c0,0.91564 -1.17019,1.65792 -2.61369,1.65792c-1.4435,0 -2.61369,-0.74227 -2.61369,-1.65792c0,-0.91564 1.17019,-1.65792 2.61369,-1.65792c1.4435,0 2.61369,0.74227 2.61369,1.65792z" fill="#000000"/><path d="M247.70448,183.20675c0,0.91564 -1.17019,1.65792 -2.61368,1.65792c-1.4435,0 -2.61369,-0.74227 -2.61369,-1.65792c0,-0.91564 1.17019,-1.65792 2.61369,-1.65792c1.4435,0 2.61368,0.74227 2.61368,1.65792z" fill="#000000"/><path d="M257.41246,183.20675c0,0.91564 -1.17019,1.65792 -2.61369,1.65792c-1.4435,0 -2.61369,-0.74227 -2.61369,-1.65792c0,-0.91564 1.17019,-1.65792 2.61369,-1.65792c1.44349,0 2.61369,0.74227 2.61369,1.65792z" fill="#000000"/><path d="M232.88983,173.98009c0,0.91564 -1.17019,1.65792 -2.61369,1.65792c-1.4435,0 -2.61369,-0.74227 -2.61369,-1.65792c0,-0.91564 1.17019,-1.65792 2.61369,-1.65792c1.4435,0 2.61369,0.74227 2.61369,1.65792z" fill="#000000"/><path d="M242.70448,173.98009c0,0.91564 -1.17019,1.65792 -2.61368,1.65792c-1.4435,0 -2.61369,-0.74227 -2.61369,-1.65792c0,-0.91564 1.17019,-1.65792 2.61369,-1.65792c1.4435,0 2.61368,0.74227 2.61368,1.65792z" fill="#000000"/><path d="M252.41246,173.98009c0,0.91564 -1.17019,1.65792 -2.61369,1.65792c-1.44349,0 -2.61369,-0.74227 -2.61369,-1.65792c0,-0.91564 1.17019,-1.65792 2.61369,-1.65792c1.44349,0 2.61369,0.74227 2.61369,1.65792z" fill="#000000"/><path d="M227.78746,183.20675c0,0.91564 -1.17019,1.65792 -2.61369,1.65792c-1.44349,0 -2.61369,-0.74227 -2.61369,-1.65792c0,-0.91564 1.17019,-1.65792 2.61369,-1.65792c1.44349,0 2.61369,0.74227 2.61369,1.65792z" fill="#000000"/></g></g></svg>