<svg version="1.1" xmlns="http://www.w3.org/2000/svg" xmlns:xlink="http://www.w3.org/1999/xlink" width="65.6" height="65.8" viewBox="0,0,65.6,65.8"><g transform="translate(-207.1,-147.3)"><g data-paper-data="{&quot;isPaintingLayer&quot;:true}" fill-rule="nonzero" stroke-linejoin="miter" stroke-miterlimit="10" stroke-dasharray="" stroke-dashoffset="0" style="mix-blend-mode: normal"><path d="M239.84628,195.14667c-1.38376,-0.01949 -1.52182,-0.48956 -2.48623,-1.48171c-2.89325,-2.97646 -6.85303,-7.05013 -11.23932,-11.56258c-0.90571,-0.93176 -1.3195,-1.07442 -1.26021,-2.37248c0.05929,-1.29806 0.48984,-1.52209 1.48218,-2.48668c4.44248,-4.31828 8.51863,-8.28047 11.38331,-11.06507c0.95489,-0.9282 1.10212,-1.39135 2.43176,-1.31784c1.32965,0.07351 1.58947,0.55916 2.59718,1.59586c4.25028,4.37253 7.89557,8.12265 10.89082,11.20405c0.99841,1.02713 1.46589,1.1848 1.49777,2.61687c0.03188,1.43207 -0.43135,1.46523 -1.38625,2.39343c-0.95489,0.9282 -8.40631,8.17129 -11.38331,11.06507c-0.99234,0.9646 -1.14394,1.43058 -2.5277,1.41109z" fill="#1c1524" stroke="#ffffff" stroke-width="1" stroke-linecap="butt"/><path d="M239.84627,194.89024c-1.38376,-0.01949 -1.52182,-0.48956 -2.48623,-1.48171c-2.89325,-2.97646 -6.85303,-7.05013 -11.23932,-11.56258c-0.90571,-0.93176 -1.3195,-1.07442 -1.26021,-2.37248c0.05929,-1.29806 0.48984,-1.52209 1.48218,-2.48668c4.44248,-4.31828 8.51863,-8.28047 11.38331,-11.06507c0.95489,-0.9282 1.10212,-1.39135 2.43176,-1.31784c1.32965,0.07351 1.58947,0.55916 2.59718,1.59586c4.25028,4.37253 7.89557,8.12265 10.89082,11.20405c0.99841,1.02713 1.46589,1.1848 1.49777,2.61687c0.03188,1.43207 -0.43135,1.46523 -1.38625,2.39343c-0.95489,0.9282 -8.40631,8.17129 -11.38331,11.06507c-0.99234,0.9646 -1.14394,1.43058 -2.5277,1.41109z" fill="none" stroke="#ffffff" stroke-width="1" stroke-linecap="butt"/><path d="M207.10001,213.1v-65.4h65.4v65.4z" fill="none" stroke="none" stroke-width="0" stroke-linecap="butt"/><path d="M239.84627,195.14667c-1.38376,-0.01949 -1.52182,-0.48956 -2.48623,-1.48171c-2.89325,-2.97646 -6.85303,-7.05013 -11.23932,-11.56258c-0.90571,-0.93176 -1.3195,-1.07442 -1.26021,-2.37248c0.05929,-1.29806 0.48984,-1.52209 1.48218,-2.48668c4.44248,-4.31828 8.51863,-8.28047 11.38331,-11.06507c0.95489,-0.9282 1.10212,-1.39135 2.43176,-1.31784c1.32965,0.07351 1.58947,0.55916 2.59718,1.59586c4.25028,4.37253 7.89557,8.12265 10.89082,11.20405c0.99841,1.02713 1.46589,1.1848 1.49777,2.61687c0.03188,1.43207 -0.43135,1.46523 -1.38625,2.39343c-0.95489,0.9282 -8.40631,8.17129 -11.38331,11.06507c-0.99234,0.9646 -1.14394,1.43058 -2.5277,1.41109z" fill="#151723" stroke="#ffffff" stroke-width="1" stroke-linecap="butt"/><path d="M207.30001,212.7v-65.4h65.4v65.4z" fill="none" stroke="none" stroke-width="0" stroke-linecap="butt"/><path d="M227.10001,193.8v-26h26v26z" fill="none" stroke="none" stroke-width="0" stroke-linecap="butt"/><path d="M252.20551,174.47137c3.47442,7.84472 -12.36323,17.00394 -12.36323,17.00394c-5.35324,-4.11086 -15.04514,-13.45604 -10.9343,-18.80928c4.01671,-5.23064 9.24735,-1.21393 9.24735,-1.21393c0.75975,0.58343 1.5195,1.16685 2.27925,1.75028c0.75243,-1.19155 1.89093,-2.15209 3.31758,-2.67155c1.42665,-0.51946 6.04085,-1.50655 8.45336,3.94053z" fill="#000000" stroke="#0077ff" stroke-width="2" stroke-linecap="butt"/><path d="M234.26035,180.40576c0,-0.69036 0.55964,-1.25 1.25,-1.25c0.69036,0 1.25,0.55964 1.25,1.25c0,0.69036 -0.55964,0.50687 -1.25,0.50687c-0.69036,0 -1.25,0.18349 -1.25,-0.50687z" fill="#0077ff" stroke="#0077ff" stroke-width="0.5" stroke-linecap="butt"/><path d="M244.41653,180.40576c0,-0.69036 0.55964,-1.25 1.25,-1.25c0.69036,0 1.25,0.55964 1.25,1.25c0,0.69036 -0.31193,0.07337 -1.00229,0.07337c-0.69036,0 -1.49771,0.61699 -1.49771,-0.07337z" fill="#0077ff" stroke="#0077ff" stroke-width="0.5" stroke-linecap="butt"/><path d="M234.20986,177.68093l3.22025,1.5482" fill="none" stroke="#0077ff" stroke-width="1" stroke-linecap="round"/><path d="M246.96701,177.49515l-3.71567,2.04362" fill="none" stroke="#0077ff" stroke-width="1" stroke-linecap="round"/><path d="M239.04024,183.68794c0,0 0.94545,-2.60097 1.42434,-2.60097c0.44796,0 1.36241,2.60097 1.36241,2.60097" fill="none" stroke="#0077ff" stroke-width="1" stroke-linecap="round"/><g stroke="#7d00ff" stroke-width="1.25"><path d="M246.61127,193.60417l-3.45962,-6.70805c0,0 0.48315,-1.0362 1.37143,-1.85648c0.7012,-0.64753 1.78144,-1.05501 2.20014,-1.44167c0.62909,-0.58093 1.56909,-1.44897 1.56909,-1.44897c0,0 0.49788,0.23575 0.72489,0.49117c0.22701,0.25543 0.02069,0.26577 0.53758,0.92931c0.09677,0.1242 0.70643,0.25454 0.81912,0.38905c0.23203,0.27691 -0.01081,0.57146 0.2592,0.86642c0.16224,0.17723 0.55165,0.1953 0.7161,0.37958c0.25451,0.28523 0.2826,0.73425 0.51606,0.97226c0.25506,0.26004 0.59995,0.14913 0.78991,0.3274c0.30268,0.28406 0.32828,1.00937 0.32828,1.00937l-0.49975,0.33219c0,0 -1.60247,4.82538 -3.47672,5.79705c-0.89566,0.46434 -2.39571,-0.03866 -2.39571,-0.03866z" fill="#dab2ff" stroke-linecap="butt"/><path d="M249.24308,183.8182l-1.23151,1.23151l1.45543,1.45543l-1.17554,1.17554l-1.7913,-1.0076" fill="#dab2ff" stroke-linecap="round"/><path d="M250.27868,185.02172l-1.09157,1.09157" fill="#dab2ff" stroke-linecap="round"/><path d="M249.7938,188.39026l1.74438,-2.05306" fill="#dab2ff" stroke-linecap="round"/><path d="M246.6681,183.65026l1.5394,1.5394" fill="#dab2ff" stroke-linecap="round"/><path d="M252.88165,187.51275l-2.12716,2.01521l-1.90326,-1.7913" fill="none" stroke-linecap="round"/><path d="M250.36044,192.23437v3.56311h-4.47824v-3.58259" fill="#dab2ff" stroke-linecap="round"/></g></g></g></svg>