<svg version="1.1" xmlns="http://www.w3.org/2000/svg" xmlns:xlink="http://www.w3.org/1999/xlink" width="152.57143" height="81.71429" viewBox="0,0,152.57143,81.71429"><defs><radialGradient cx="184.33915" cy="192.6452" r="67.87944" gradientUnits="userSpaceOnUse" id="color-1"><stop offset="0" stop-color="#00453a"/><stop offset="1" stop-color="#001d44"/></radialGradient></defs><g transform="translate(-163.71428,-139.14286)"><g data-paper-data="{&quot;isPaintingLayer&quot;:true}" fill-rule="nonzero" stroke-linecap="butt" stroke-linejoin="miter" stroke-miterlimit="10" stroke-dasharray="" stroke-dashoffset="0" style="mix-blend-mode: normal"><g><path d="M163.71428,220.85715v-81.71429h152.57143v81.71429z" fill="none" stroke="none" stroke-width="NaN"/><path d="M177.90728,145.33334c23.53221,0 111.40798,0 124.33333,0c4.02142,0 5.63884,3.2976 5.63884,7.31901c0,14.9251 0,48.11843 0,55.83334c0,3.60345 -2.03539,6.18099 -5.63884,6.18099c-14.94675,0 -130.12003,0 -130.12003,0c0,0 0,-51.443 0,-62.01433c0,-5.57133 2.1065,-7.31901 5.7867,-7.31901z" data-paper-data="{&quot;index&quot;:null}" fill="url(#color-1)" stroke="#ffffff" stroke-width="1"/><path d="M306.0739,157.24193c0,-1.75066 0,-6.2276 0,-6.2276" fill="none" stroke="#004db2" stroke-width="0.5"/><path d="M302.67238,160.84767c-11.07702,0 -104.97059,0 -124.9,0" fill="none" stroke="#004db2" stroke-width="0.5"/><path d="M174.24064,151.24194c0,2.1292 0,4.86356 0,6.2" fill="none" stroke="#004db2" stroke-width="0.5"/><path d="M177.77242,147.51433c11.98272,0 124.83489,0 124.83489,0" fill="none" stroke="#004db2" stroke-width="0.5"/><path d="M306.07237,151.14196c-1.98822,0 -3.6,-1.61177 -3.6,-3.6" fill="none" stroke="#004db2" stroke-width="0.5"/><path d="M302.47236,160.64193c0,-1.98822 1.61177,-3.6 3.6,-3.6" data-paper-data="{&quot;index&quot;:null}" fill="none" stroke="#004db2" stroke-width="0.5"/><path d="M174.37236,157.14196c1.98823,0 3.6,1.61177 3.6,3.6" data-paper-data="{&quot;index&quot;:null}" fill="none" stroke="#004db2" stroke-width="0.5"/><path d="M177.97238,147.84194c0,1.98823 -1.61177,3.6 -3.6,3.6" data-paper-data="{&quot;index&quot;:null}" fill="none" stroke="#004db2" stroke-width="0.5"/><path d="M173.97238,158.84194c1.1598,0 2.1,0.9402 2.1,2.1" data-paper-data="{&quot;index&quot;:null}" fill="none" stroke="#004db2" stroke-width="0.5"/><path d="M176.0724,147.24194c0,1.1598 -0.9402,2.1 -2.1,2.1" data-paper-data="{&quot;index&quot;:null}" fill="none" stroke="#004db2" stroke-width="0.5"/><path d="M304.07237,161.04196c0,-1.1598 0.9402,-2.1 2.1,-2.1" data-paper-data="{&quot;index&quot;:null}" fill="none" stroke="#004db2" stroke-width="0.5"/><path d="M306.17238,149.44194c-1.1598,0 -2.1,-0.9402 -2.1,-2.1" data-paper-data="{&quot;index&quot;:null}" fill="none" stroke="#004db2" stroke-width="0.5"/><path d="M305.29614,156.40308c0,-1.26808 0,-4.51094 0,-4.51094" fill="none" stroke="#004db2" stroke-width="0.5"/><path d="M175.24064,152.057c0,1.54228 0,3.5229 0,4.49095" fill="none" stroke="#004db2" stroke-width="0.5"/><path d="M301.92386,159.92367c-10.92653,0 -103.54453,0 -123.20319,0" fill="none" stroke="#004db2" stroke-width="0.5"/><path d="M301.85965,148.43836c0,0 -111.31903,0 -123.13896,0" fill="none" stroke="#004db2" stroke-width="0.5"/><path d="M306.07392,209.24195c0,-1.75066 0,-43.2276 0,-43.2276" fill="none" stroke="#004db2" stroke-width="0.5"/><path d="M302.67238,212.84767c-11.07702,0 -104.97059,0 -124.9,0" fill="none" stroke="#004db2" stroke-width="0.5"/><path d="M174.24064,209.44194c0,-1.33644 0,-41.0708 0,-43.2" fill="none" stroke="#004db2" stroke-width="0.5"/><path d="M177.77242,162.51433c11.98272,0 124.83489,0 124.83489,0" fill="none" stroke="#004db2" stroke-width="0.5"/><path d="M306.07237,166.14196c-1.98822,0 -3.6,-1.61177 -3.6,-3.6" fill="none" stroke="#004db2" stroke-width="0.5"/><path d="M302.47238,212.64195c0,-1.98822 1.61177,-3.6 3.6,-3.6" data-paper-data="{&quot;index&quot;:null}" fill="none" stroke="#004db2" stroke-width="0.5"/><path d="M174.37236,209.14196c1.98823,0 3.6,1.61177 3.6,3.6" data-paper-data="{&quot;index&quot;:null}" fill="none" stroke="#004db2" stroke-width="0.5"/><path d="M177.97238,162.84194c0,1.98823 -1.61177,3.6 -3.6,3.6" data-paper-data="{&quot;index&quot;:null}" fill="none" stroke="#004db2" stroke-width="0.5"/><path d="M176.0724,212.94194c-1.1598,0 -2.1,-0.9402 -2.1,-2.1" data-paper-data="{&quot;index&quot;:null}" fill="none" stroke="#004db2" stroke-width="0.5"/><path d="M173.97238,164.34194c0,-1.1598 0.9402,-2.1 2.1,-2.1" data-paper-data="{&quot;index&quot;:null}" fill="none" stroke="#004db2" stroke-width="0.5"/><path d="M304.07237,213.04196c0,-1.1598 0.9402,-2.1 2.1,-2.1" data-paper-data="{&quot;index&quot;:null}" fill="none" stroke="#004db2" stroke-width="0.5"/><path d="M304.07237,162.34194c1.1598,0 2.1,0.9402 2.1,2.1" data-paper-data="{&quot;index&quot;:null}" fill="none" stroke="#004db2" stroke-width="0.5"/><path d="M305.29614,208.40308c0,-1.26808 0,-41.51094 0,-41.51094" fill="none" stroke="#004db2" stroke-width="0.5"/><path d="M175.24064,208.54795c0,-0.96805 0,-39.94867 0,-41.49095" fill="none" stroke="#004db2" stroke-width="0.5"/><path d="M178.72068,211.92367c19.65866,0 112.27666,0 123.20319,0" fill="none" stroke="#004db2" stroke-width="0.5"/><path d="M178.72068,163.43836c11.81993,0 123.13896,0 123.13896,0" fill="none" stroke="#004db2" stroke-width="0.5"/></g><text transform="translate(178.14269,158.30676) scale(0.29005,0.29005)" font-size="40" xml:space="preserve" fill="#ffffff" fill-rule="nonzero" stroke="none" stroke-width="1" stroke-linecap="butt" stroke-linejoin="miter" stroke-miterlimit="10" stroke-dasharray="" stroke-dashoffset="0" font-family="Malgun Gothic" font-weight="normal" text-anchor="start" style="mix-blend-mode: normal"><tspan x="0" dy="0">E</tspan></text><text transform="translate(177.92689,170.66041) scale(0.20814,0.20814)" font-size="40" xml:space="preserve" fill="#ffffff" fill-rule="nonzero" stroke="none" stroke-width="1" stroke-linecap="butt" stroke-linejoin="miter" stroke-miterlimit="10" stroke-dasharray="" stroke-dashoffset="0" font-family="Malgun Gothic" font-weight="normal" text-anchor="start" style="mix-blend-mode: normal"><tspan x="0" dy="0"> E</tspan><tspan x="0" dy="46.150000000000006px">+1 Physical Dmg</tspan></text></g></g></svg>