<svg version="1.1" xmlns="http://www.w3.org/2000/svg" xmlns:xlink="http://www.w3.org/1999/xlink" width="523" height="404.59214" viewBox="0,0,523,404.59214"><defs><radialGradient cx="47.39234" cy="223.66756" r="3.88627" gradientUnits="userSpaceOnUse" id="color-1"><stop offset="0" stop-color="#ffa3c4"/><stop offset="1" stop-color="#ff007c"/></radialGradient><radialGradient cx="52.36214" cy="217.61736" r="3.88628" gradientUnits="userSpaceOnUse" id="color-2"><stop offset="0" stop-color="#ffa3c4"/><stop offset="1" stop-color="#ff007c"/></radialGradient><radialGradient cx="57.22391" cy="210.37874" r="3.88628" gradientUnits="userSpaceOnUse" id="color-3"><stop offset="0" stop-color="#ffa3c4"/><stop offset="1" stop-color="#ff007c"/></radialGradient><radialGradient cx="63.05803" cy="216.64501" r="3.88627" gradientUnits="userSpaceOnUse" id="color-4"><stop offset="0" stop-color="#ffa3c4"/><stop offset="1" stop-color="#ff007c"/></radialGradient><radialGradient cx="25.23306" cy="166.20782" r="3.88627" gradientUnits="userSpaceOnUse" id="color-5"><stop offset="0" stop-color="#ff8484"/><stop offset="1" stop-color="#ff0000"/></radialGradient><radialGradient cx="45.94465" cy="173.06405" r="3.88627" gradientUnits="userSpaceOnUse" id="color-6"><stop offset="0" stop-color="#ff8484"/><stop offset="1" stop-color="#ff0000"/></radialGradient><radialGradient cx="31.94647" cy="151.20974" r="3.88628" gradientUnits="userSpaceOnUse" id="color-7"><stop offset="0" stop-color="#ff8484"/><stop offset="1" stop-color="#ff0000"/></radialGradient><radialGradient cx="42.65937" cy="165.92213" r="3.88627" gradientUnits="userSpaceOnUse" id="color-8"><stop offset="0" stop-color="#ff8484"/><stop offset="1" stop-color="#ff0000"/></radialGradient><radialGradient cx="23.59124" cy="268.71891" r="3.88628" gradientUnits="userSpaceOnUse" id="color-9"><stop offset="0" stop-color="#ff8aa6"/><stop offset="1" stop-color="#ff006f"/></radialGradient><radialGradient cx="24.01975" cy="254.00656" r="3.88628" gradientUnits="userSpaceOnUse" id="color-10"><stop offset="0" stop-color="#ff8aa6"/><stop offset="1" stop-color="#ff006f"/></radialGradient><radialGradient cx="38.73213" cy="250.86411" r="3.88628" gradientUnits="userSpaceOnUse" id="color-11"><stop offset="0" stop-color="#ff8aa6"/><stop offset="1" stop-color="#ff006f"/></radialGradient><radialGradient cx="44.01715" cy="268.86177" r="3.88628" gradientUnits="userSpaceOnUse" id="color-12"><stop offset="0" stop-color="#ff8aa6"/><stop offset="1" stop-color="#ff006f"/></radialGradient><radialGradient cx="462.51734" cy="282.54255" r="3.88627" gradientUnits="userSpaceOnUse" id="color-13"><stop offset="0" stop-color="#ffa3c4"/><stop offset="1" stop-color="#ff007c"/></radialGradient><radialGradient cx="467.48714" cy="276.49235" r="3.88628" gradientUnits="userSpaceOnUse" id="color-14"><stop offset="0" stop-color="#ffa3c4"/><stop offset="1" stop-color="#ff007c"/></radialGradient><radialGradient cx="472.34891" cy="269.25372" r="3.88628" gradientUnits="userSpaceOnUse" id="color-15"><stop offset="0" stop-color="#ffa3c4"/><stop offset="1" stop-color="#ff007c"/></radialGradient><radialGradient cx="478.18303" cy="275.52001" r="3.88628" gradientUnits="userSpaceOnUse" id="color-16"><stop offset="0" stop-color="#ffa3c4"/><stop offset="1" stop-color="#ff007c"/></radialGradient><radialGradient cx="434.15547" cy="122.95351" r="3.88628" gradientUnits="userSpaceOnUse" id="color-17"><stop offset="0" stop-color="#ff8484"/><stop offset="1" stop-color="#ff0000"/></radialGradient><radialGradient cx="454.86706" cy="129.80972" r="3.88628" gradientUnits="userSpaceOnUse" id="color-18"><stop offset="0" stop-color="#ff8484"/><stop offset="1" stop-color="#ff0000"/></radialGradient><radialGradient cx="440.86888" cy="107.95545" r="3.88628" gradientUnits="userSpaceOnUse" id="color-19"><stop offset="0" stop-color="#ff8484"/><stop offset="1" stop-color="#ff0000"/></radialGradient><radialGradient cx="451.58178" cy="122.66782" r="3.88628" gradientUnits="userSpaceOnUse" id="color-20"><stop offset="0" stop-color="#ff8484"/><stop offset="1" stop-color="#ff0000"/></radialGradient><radialGradient cx="417.09124" cy="285.09389" r="3.88628" gradientUnits="userSpaceOnUse" id="color-21"><stop offset="0" stop-color="#ff8aa6"/><stop offset="1" stop-color="#ff006f"/></radialGradient><radialGradient cx="417.51976" cy="270.38155" r="3.88627" gradientUnits="userSpaceOnUse" id="color-22"><stop offset="0" stop-color="#ff8aa6"/><stop offset="1" stop-color="#ff006f"/></radialGradient><radialGradient cx="432.23213" cy="267.2391" r="3.88628" gradientUnits="userSpaceOnUse" id="color-23"><stop offset="0" stop-color="#ff8aa6"/><stop offset="1" stop-color="#ff006f"/></radialGradient><radialGradient cx="437.51716" cy="285.23672" r="3.88627" gradientUnits="userSpaceOnUse" id="color-24"><stop offset="0" stop-color="#ff8aa6"/><stop offset="1" stop-color="#ff006f"/></radialGradient><radialGradient cx="47.64234" cy="324.66751" r="3.88627" gradientUnits="userSpaceOnUse" id="color-25"><stop offset="0" stop-color="#fc7aff"/><stop offset="1" stop-color="#c900ff"/></radialGradient><radialGradient cx="52.61214" cy="318.61734" r="3.88628" gradientUnits="userSpaceOnUse" id="color-26"><stop offset="0" stop-color="#fc7aff"/><stop offset="1" stop-color="#c900ff"/></radialGradient><radialGradient cx="57.47391" cy="311.37871" r="3.88628" gradientUnits="userSpaceOnUse" id="color-27"><stop offset="0" stop-color="#fc7aff"/><stop offset="1" stop-color="#c900ff"/></radialGradient><radialGradient cx="63.30803" cy="317.64499" r="3.88627" gradientUnits="userSpaceOnUse" id="color-28"><stop offset="0" stop-color="#fc7aff"/><stop offset="1" stop-color="#c900ff"/></radialGradient><radialGradient cx="418.09124" cy="188.09393" r="3.88627" gradientUnits="userSpaceOnUse" id="color-29"><stop offset="0" stop-color="#fc7aff"/><stop offset="1" stop-color="#c900ff"/></radialGradient><radialGradient cx="418.51976" cy="173.38156" r="3.88628" gradientUnits="userSpaceOnUse" id="color-30"><stop offset="0" stop-color="#fc7aff"/><stop offset="1" stop-color="#c900ff"/></radialGradient><radialGradient cx="433.23213" cy="170.23911" r="3.88628" gradientUnits="userSpaceOnUse" id="color-31"><stop offset="0" stop-color="#fc7aff"/><stop offset="1" stop-color="#c900ff"/></radialGradient><radialGradient cx="438.51716" cy="188.23677" r="3.88628" gradientUnits="userSpaceOnUse" id="color-32"><stop offset="0" stop-color="#fc7aff"/><stop offset="1" stop-color="#c900ff"/></radialGradient><linearGradient x1="939.11225" y1="-2682.83333" x2="939.11225" y2="4812" gradientUnits="userSpaceOnUse" id="color-33"><stop offset="0" stop-color="#000231" stop-opacity="0"/><stop offset="1" stop-color="#000231"/></linearGradient></defs><g transform="translate(21.5,31.59214)"><g data-paper-data="{&quot;isPaintingLayer&quot;:true}" fill-rule="nonzero" stroke-linejoin="miter" stroke-miterlimit="10" stroke-dasharray="" stroke-dashoffset="0" style="mix-blend-mode: normal"><path d="M-6.55556,366.50001v-373h492v373z" fill="#000231" stroke="#000000" stroke-width="0.5" stroke-linecap="butt"/><path d="M451.79008,164.20601c0,0 2.33622,-0.18599 2.67317,-1.04653c0.16473,-0.42071 1.75112,-3.77552 2.71296,-7.64427c1.00556,-4.04465 1.38461,-8.60109 1.38461,-8.60109c0,0 1.13128,-1.34821 1.76398,0.41051c0.53775,1.49477 0.54636,5.9653 0.9897,7.64312c0.98226,3.71741 1.14428,6.6906 1.51453,7.19951c1.5694,2.15712 2.31904,1.56375 2.31904,1.56375" data-paper-data="{&quot;index&quot;:null}" fill="none" stroke="#3d3d70" stroke-width="2.5" stroke-linecap="round"/><path d="M446.23007,177.0918c0,-3.28662 -0.17678,-10.24963 2.34722,-13.19232c2.48517,-2.8974 7.65302,-1.80007 10.00585,-1.80007c4.74239,0 4.8207,8.46972 4.8207,14.99238c0,3.53818 -1.13124,6.71299 -2.92339,8.87753c-1.51169,1.82578 -3.04167,1.46415 -5.21158,1.46415c-1.6783,0 -3.69608,0.80642 -5.01889,-0.33842c-2.41506,-2.09013 -4.01995,-5.78893 -4.01995,-10.00326z" data-paper-data="{&quot;index&quot;:null}" fill="#f54d4d" stroke="#d93030" stroke-width="2.5" stroke-linecap="butt"/><path d="M454.96757,161.48746c4.16002,0 7.53237,1.09588 7.53237,2.44773c0,1.35185 -3.37235,2.44774 -7.53237,2.44774c-4.16002,0 -7.53236,-1.09588 -7.53236,-2.44774c0,-1.35185 3.37234,-2.44773 7.53236,-2.44773z" data-paper-data="{&quot;index&quot;:null}" fill="#b50000" stroke="#d93030" stroke-width="2.5" stroke-linecap="butt"/><path d="M434.96161,171.80379c3.85832,-2.24829 11.88169,-1.39679 15.53454,-1.39679c7.36282,0 7.48437,6.57222 7.48437,11.6336c0,2.74551 -1.75628,5.20906 -4.53868,6.88867c-2.34697,1.41676 -4.72231,1.13613 -8.09121,1.13613c-2.60564,0 -5.73836,0.62576 -7.79206,-0.2626c-3.74947,-1.62188 -6.24115,-4.49201 -6.24115,-7.7622c0,-2.55031 -0.27443,-7.95338 3.64418,-10.2368z" data-paper-data="{&quot;index&quot;:null}" fill="#f54d4d" stroke="#d93030" stroke-width="2.5" stroke-linecap="butt"/><path d="M444.88286,169.93217c6.4586,0 11.69435,0.85037 11.69435,1.89935c0,1.04899 -5.23575,1.89936 -11.69435,1.89936c-6.4586,0 -11.69432,-0.85037 -11.69432,-1.89936c0,-1.04899 5.23573,-1.89935 11.69432,-1.89935z" data-paper-data="{&quot;index&quot;:null}" fill="#b50000" stroke="#d93030" stroke-width="2.5" stroke-linecap="butt"/><path d="M447.00078,163.17136l0.35152,-2.66532" data-paper-data="{&quot;index&quot;:null}" fill="none" stroke="#d92121" stroke-width="2.5" stroke-linecap="round"/><path d="M456.49158,170.78653l-0.35151,-2.47493" data-paper-data="{&quot;index&quot;:null}" fill="none" stroke="#d92121" stroke-width="2.5" stroke-linecap="round"/><path d="M451.21891,169.35869l0.11718,-1.90379" data-paper-data="{&quot;index&quot;:null}" fill="none" stroke="#d92121" stroke-width="2.5" stroke-linecap="round"/><path d="M442.89984,168.3116l0.23434,-1.52303" data-paper-data="{&quot;index&quot;:null}" fill="none" stroke="#d92121" stroke-width="2.5" stroke-linecap="round"/><path d="M438.3302,169.35869v-1.99899" data-paper-data="{&quot;index&quot;:null}" fill="none" stroke="#d92121" stroke-width="2.5" stroke-linecap="round"/><path d="M435.04945,170.21538v-2.28455" data-paper-data="{&quot;index&quot;:null}" fill="none" stroke="#d92121" stroke-width="2.5" stroke-linecap="round"/><path d="M432.58887,171.45286l-0.70301,-2.37975" data-paper-data="{&quot;index&quot;:null}" fill="none" stroke="#d92121" stroke-width="2.5" stroke-linecap="round"/><path d="M22.68057,98.12034c-1.60908,12.11391 7.56205,21.23221 0.79178,31.5535c-6.77027,10.32129 -15.13179,0.16612 -15.8251,-8.63518c-0.6933,-8.8013 11.17868,-30.3788 11.15406,-50.66229c-0.02463,-20.28349 -11.46287,-19.84169 -11.25692,-34.07961c0.20594,-14.23792 11.25162,-15.4514 12.14476,-27.29991c0.28013,-3.7163 -9.47356,-11.48996 -8.27987,-15.22537c0.40033,-1.25273 -2.41463,-2.52677 3.26465,-2.86303c1.54962,-0.09175 9.8799,11.03507 10.73698,21.65052c0.85708,10.61546 -11.65979,14.84699 -10.42653,25.83184c1.23327,10.98485 14.94827,16.41076 16.66424,29.72823c1.71597,13.31746 -7.35895,17.88741 -8.96803,30.00132z" fill="#303478" stroke="none" stroke-width="NaN" stroke-linecap="butt"/><path d="M57.22457,18.31129c1.60907,-12.11391 -7.56205,-21.2322 -0.79178,-31.55349c6.77027,-10.32129 15.1318,-0.16612 15.8251,8.63518c0.6933,8.8013 -11.17868,30.3788 -11.15406,50.6623c0.02463,20.28349 11.46287,19.84169 11.25693,34.07961c-0.20594,14.23792 -11.25162,15.4514 -12.14475,27.29992c-0.28013,3.7163 9.47356,11.48996 8.27987,15.22537c-0.40032,1.25273 2.41463,2.52677 -3.26465,2.86303c-1.54962,0.09175 -9.8799,-11.03507 -10.73698,-21.65052c-0.85708,-10.61545 11.65979,-14.84699 10.42653,-25.83184c-1.23327,-10.98485 -14.94827,-16.41076 -16.66424,-29.72822c-1.71597,-13.31746 7.35896,-17.88741 8.96803,-30.00132z" data-paper-data="{&quot;index&quot;:null}" fill="#483078" stroke="none" stroke-width="NaN" stroke-linecap="butt"/><path d="M413.75654,45.61901c1.71597,-13.31746 15.43097,-18.74337 16.66424,-29.72822c1.23327,-10.98485 -11.28361,-15.21638 -10.42653,-25.83184c0.85708,-10.61545 9.18736,-21.74227 10.73698,-21.65052c5.67928,0.33627 2.86432,1.61031 3.26465,2.86304c1.19369,3.73541 -8.56,11.50908 -8.27987,15.22537c0.89313,11.84852 11.93881,13.062 12.14476,27.29992c0.20594,14.23792 -11.2323,13.79612 -11.25693,34.07961c-0.02463,20.28349 11.84736,41.861 11.15405,50.6623c-0.69331,8.8013 -9.05483,18.95647 -15.8251,8.63518c-6.77027,-10.32129 2.40086,-19.43959 0.79178,-31.5535c-1.60908,-12.11391 -10.684,-16.68386 -8.96803,-30.00132z" data-paper-data="{&quot;index&quot;:null}" fill="#305e78" stroke="none" stroke-width="NaN" stroke-linecap="butt"/><path d="M476.6486,47.31262c-1.71597,13.31746 -15.43097,18.74338 -16.66424,29.72823c-1.23327,10.98485 11.28361,15.21639 10.42653,25.83184c-0.85708,10.61545 -9.18736,21.74227 -10.73698,21.65052c-5.67928,-0.33626 -2.86432,-1.6103 -3.26464,-2.86303c-1.19369,-3.7354 8.56,-11.50907 8.27987,-15.22537c-0.89313,-11.84852 -11.93881,-13.06199 -12.14476,-27.29991c-0.20594,-14.23792 11.2323,-13.79612 11.25693,-34.07961c0.02463,-20.28349 -11.84736,-41.86099 -11.15406,-50.66229c0.69331,-8.8013 9.05483,-18.95647 15.8251,-8.63518c6.77027,10.32129 -2.40086,19.43959 -0.79178,31.5535c1.60908,12.11391 10.684,16.68386 8.96803,30.00133z" data-paper-data="{&quot;index&quot;:null}" fill="#783063" stroke="none" stroke-width="NaN" stroke-linecap="butt"/><path d="M75.5,344.50002v-329h329v329z" fill="#090612" stroke="none" stroke-width="0" stroke-linecap="butt"/><g fill="#313a5f" stroke="#000000" stroke-width="0" stroke-linecap="butt"><path d="M201.56667,138.45559v-37h37v37z"/><path d="M161.43334,178.5445v-37h37v37z"/><path d="M121.56667,138.45559v-37h37v37z"/><path d="M81.43334,178.5445v-37h37v37z"/><path d="M201.56667,58.4556v-37h37v37z"/><path d="M161.43334,98.5445v-37h37v37z"/><path d="M121.56667,58.4556v-37h37v37z"/><path d="M81.43334,98.5445v-37h37v37z"/><path d="M361.56667,138.45559v-37h37v37z"/><path d="M321.43334,178.5445v-37h37v37z"/><path d="M281.56667,138.45559v-37h37v37z"/><path d="M241.43334,178.5445v-37h37v37z"/><path d="M361.56667,58.4556v-37h37v37z"/><path d="M321.43334,98.5445v-37h37v37z"/><path d="M281.56667,58.4556v-37h37v37z"/><path d="M241.43334,98.5445v-37h37v37z"/><path d="M201.56667,298.45554v-37h37v37z"/><path d="M161.43334,338.54449v-37h37v37z"/><path d="M121.56667,298.45554v-37h37v37z"/><path d="M81.43334,338.54449v-37h37v37z"/><path d="M201.56667,218.45561v-37h37v37z"/><path d="M161.43334,258.54447v-37h37v37z"/><path d="M121.56667,218.45561v-37h37v37z"/><path d="M81.43334,258.54447v-37h37v37z"/><path d="M361.56667,298.45554v-37h37v37z"/><path d="M321.43334,338.54449v-37h37v37z"/><path d="M281.56667,298.45554v-37h37v37z"/><path d="M241.43334,338.54449v-37h37v37z"/><path d="M361.56667,218.45561v-37h37v37z"/><path d="M321.43334,258.54447v-37h37v37z"/><path d="M281.56667,218.45561v-37h37v37z"/><path d="M241.43334,258.54447v-37h37v37z"/></g><g fill="#231030" stroke="#000000" stroke-width="0" stroke-linecap="butt"><path d="M161.43333,138.5445v-37h37v37z"/><path d="M201.56667,178.45562v-37h37v37z"/><path d="M81.43333,138.5445v-37h37v37z"/><path d="M121.56667,178.45562v-37h37v37z"/><path d="M161.43333,58.54451v-37h37v37z"/><path d="M201.56667,98.45562v-37h37v37z"/><path d="M81.43333,58.54451v-37h37v37z"/><path d="M121.56667,98.45562v-37h37v37z"/><path d="M321.43333,138.5445v-37h37v37z"/><path d="M361.56667,178.45562v-37h37v37z"/><path d="M241.43333,138.5445v-37h37v37z"/><path d="M281.56667,178.45562v-37h37v37z"/><path d="M321.43333,58.54451v-37h37v37z"/><path d="M361.56667,98.45562v-37h37v37z"/><path d="M241.43333,58.54451v-37h37v37z"/><path d="M281.56667,98.45562v-37h37v37z"/><path d="M161.43333,298.54446v-37h37v37z"/><path d="M201.56667,338.4556v-37h37v37z"/><path d="M81.43333,298.54446v-37h37v37z"/><path d="M121.56667,338.4556v-37h37v37z"/><path d="M161.43333,218.54451v-37h37v37z"/><path d="M201.56667,258.45556v-37h37v37z"/><path d="M81.43333,218.54451v-37h37v37z"/><path d="M121.56667,258.45556v-37h37v37z"/><path d="M321.43333,298.54446v-37h37v37z"/><path d="M361.56667,338.4556v-37h37v37z"/><path d="M241.43333,298.54446v-37h37v37z"/><path d="M281.56667,338.4556v-37h37v37z"/><path d="M321.43333,218.54451v-37h37v37z"/><path d="M361.56667,258.45556v-37h37v37z"/><path d="M241.43333,218.54451v-37h37v37z"/><path d="M281.56667,258.45556v-37h37v37z"/></g><path d="M66.4804,225.2848c0,0 -0.62643,4.90368 -0.64119,7.71292c-0.00777,1.47759 -2.75783,1.23014 -2.85001,2.7014c-0.13524,2.15844 -0.39111,4.01944 -0.85504,4.73031c-1.55093,2.37642 -6.22382,2.85303 -6.22382,2.85303c0,0 0.32681,-5.40482 -0.11822,-9.05409c-0.21231,-1.74093 -2.45108,-0.87588 -2.98506,-3.57985c-0.72523,-3.67244 0.2465,-10.79158 0.2465,-10.79158" fill="none" stroke="#497655" stroke-width="2" stroke-linecap="round"/><path d="M62.62375,220.28545c0,0 0.92614,4.05375 0.0534,7.44553c-0.31603,1.22823 -3.22601,1.50088 -3.17372,2.68875c0.13255,3.01107 -0.25429,6.85414 -0.48617,8.41401c-0.4248,2.85777 -3.67827,4.59156 -3.67827,4.59156c0,0 -3.47406,-2.59536 -4.64802,-4.8304c-0.38981,-0.74212 -2.79696,-1.17093 -2.97638,-2.40499c-0.41473,-2.85243 0.05396,-10.04808 0.05396,-10.04808" fill="none" stroke="#497655" stroke-width="2" stroke-linecap="round"/><path d="M59.62414,229.85562c0,0 -2.13886,-0.44579 -2.36122,-1.92387c-0.43432,-2.88695 -0.06703,-14.21689 -0.06703,-14.21689" fill="none" stroke="#497655" stroke-width="2" stroke-linecap="round"/><path d="M47.39249,227.43988l-3.7959,-3.97665l3.97666,-3.7959l3.7959,3.97665z" fill="url(#color-1)" stroke="none" stroke-width="0" stroke-linecap="butt"/><path d="M52.39184,221.44067l-3.7959,-3.97665l3.97666,-3.79591l3.7959,3.97665z" fill="url(#color-2)" stroke="none" stroke-width="0" stroke-linecap="butt"/><path d="M57.24835,214.29874l-3.7959,-3.97665l3.97666,-3.7959l3.7959,3.97665z" fill="url(#color-3)" stroke="none" stroke-width="0" stroke-linecap="butt"/><path d="M63.10473,220.72648l-3.7959,-3.97666l3.97666,-3.7959l3.7959,3.97665z" fill="url(#color-4)" stroke="none" stroke-width="0" stroke-linecap="butt"/><path d="M41.94518,168.51036c0,0 -0.2268,3.9768 -0.8335,6.54236c-0.39548,1.67236 -3.17711,1.84148 -3.73733,3.02782c-0.81142,1.71831 1.01765,4.34449 -0.69314,5.17782c-0.11327,0.05517 -1.39906,3.79944 -1.71186,5.24246c-0.51948,2.39651 0.13279,4.24284 0.17245,2.96621c0.03965,-1.27664 0.16612,-2.19348 -0.16349,-3.25495c-0.42521,-1.36932 -2.46047,-4.27515 -2.46047,-4.27515c0,0 -0.56826,-5.98483 0,-7.71329c0.21784,-0.66259 0.80394,-1.16929 1.49625,-1.69695c1.11367,-0.84881 2.50217,-1.75185 3.07458,-3.44524c0.92825,-2.74607 0,-12.42695 0,-12.42695" fill="none" stroke="#497655" stroke-width="2" stroke-linecap="round"/><path d="M32.08931,183.93692c0,0 -3.42982,0.15738 -5.0594,-1.86773c-2.70546,-3.36213 -1.51118,-14.41587 -1.51118,-14.41587" fill="none" stroke="#497655" stroke-width="2" stroke-linecap="round"/><path d="M37.2315,163.49386c0,0 -4.57336,-0.84876 -5.47169,-1.8162c-0.95509,-1.02856 -0.67037,-8.32533 -0.67037,-8.32533" fill="none" stroke="#497655" stroke-width="2" stroke-linecap="round"/><path d="M30.37525,167.06483c0,0 -0.24127,3.43687 -0.50378,4.15281c-0.26123,0.71244 -3.92421,1.70358 -3.92421,1.70358" fill="none" stroke="#497655" stroke-width="2" stroke-linecap="round"/><path d="M44.65911,175.08093c0,0 0.0102,4.35823 -1.03897,5.53588c-1.24889,1.4018 -5.96012,2.32025 -5.96012,2.32025" fill="none" stroke="#497655" stroke-width="2" stroke-linecap="round"/><path d="M25.14268,170.09409l-3.7959,-3.97665l3.97665,-3.7959l3.7959,3.97665z" fill="url(#color-5)" stroke="none" stroke-width="0" stroke-linecap="butt"/><path d="M45.85427,176.95034l-3.7959,-3.97665l3.97665,-3.7959l3.7959,3.97665z" fill="url(#color-6)" stroke="none" stroke-width="0" stroke-linecap="butt"/><path d="M31.8561,155.09602l-3.7959,-3.97666l3.97666,-3.7959l3.7959,3.97665z" fill="url(#color-7)" stroke="none" stroke-width="0" stroke-linecap="butt"/><path d="M42.56899,169.80841l-3.7959,-3.97665l3.97665,-3.7959l3.7959,3.97665z" fill="url(#color-8)" stroke="none" stroke-width="0" stroke-linecap="butt"/><path d="M45.58838,262.14835c0,0 0.93115,4.36706 -0.68843,5.51542c-1.32746,0.94123 -4.21246,0.59476 -4.59836,1.41569c-2.13367,4.53901 -1.16797,10.76006 -2.33359,11.85049c-1.03061,0.96412 -3.37819,1.07296 -3.37819,1.07296l-0.14283,6.99909c0,0 -0.03155,0.84175 -1.08832,0.11701c-0.39567,-0.27135 -1.17898,0.6581 -1.82898,-0.06241c-0.50935,-0.56461 -0.93685,-2.80392 -1.03184,-3.01199c-0.43879,-0.96115 0.0925,-3.61319 0.0925,-3.61319c0,0 -4.66542,0.23886 -5.85986,-1.25419c-1.42945,-1.7868 -0.85354,-10.88709 -0.85354,-10.88709" fill="none" stroke="#497655" stroke-width="2" stroke-linecap="round"/><path d="M38.87497,275.14667c0,0 -3.68825,-0.47689 -3.98142,-2.19078c-0.14299,-0.83594 -0.97977,-5.07282 0.30372,-8.70269c0.53397,-1.51014 3.32477,-1.85218 3.67507,-3.49374c0.70925,-3.32363 -0.14021,-8.18129 -0.14021,-8.18129" fill="none" stroke="#497655" stroke-width="2" stroke-linecap="round"/><path d="M23.87692,256.86332c0,0 -0.43104,3.26717 0.46482,5.56361c0.41167,1.05529 3.68909,0.08238 4.28221,1.07207c1.29365,2.15862 0.01432,6.14028 0.32209,7.85538c0.43962,2.44991 1.78714,3.44472 1.78714,4.07795c0,1.84096 0,6.14206 0,6.14206" fill="none" stroke="#497655" stroke-width="2" stroke-linecap="round"/><path d="M44.15999,271.71853c0,0 0.42279,6.48064 -0.56867,7.74633c-1.20459,1.53776 -6.0019,1.53818 -6.0019,1.53818" fill="none" stroke="#497655" stroke-width="2" stroke-linecap="round"/><path d="M23.50086,272.60519l-3.7959,-3.97666l3.97666,-3.7959l3.7959,3.97665z" fill="url(#color-9)" stroke="none" stroke-width="0" stroke-linecap="butt"/><path d="M23.92938,257.89284l-3.7959,-3.97665l3.97666,-3.79591l3.7959,3.97666z" fill="url(#color-10)" stroke="none" stroke-width="0" stroke-linecap="butt"/><path d="M38.64175,254.75039l-3.7959,-3.97665l3.97665,-3.7959l3.79591,3.97665z" fill="url(#color-11)" stroke="none" stroke-width="0" stroke-linecap="butt"/><path d="M43.92677,272.74805l-3.79589,-3.97665l3.97665,-3.7959l3.7959,3.97665z" fill="url(#color-12)" stroke="none" stroke-width="0" stroke-linecap="butt"/><path d="M481.6054,283.71414c0,0 -0.62643,4.90368 -0.64119,7.71292c-0.00777,1.47759 -2.75783,1.23014 -2.85001,2.70139c-0.13524,2.15844 -0.3911,4.01945 -0.85504,4.73032c-1.55093,2.37642 -6.22382,2.85303 -6.22382,2.85303c0,0 0.32682,-5.40482 -0.11822,-9.05409c-0.2123,-1.74093 -2.45108,-0.87589 -2.98505,-3.57986c-0.72523,-3.67244 0.24651,-10.79158 0.24651,-10.79158" fill="none" stroke="#497655" stroke-width="2" stroke-linecap="round"/><path d="M477.74875,278.71479c0,0 0.92615,4.05375 0.0534,7.44553c-0.31603,1.22822 -3.22601,1.50088 -3.17372,2.68875c0.13255,3.01107 -0.25429,6.85414 -0.48617,8.41401c-0.4248,2.85776 -3.67828,4.59156 -3.67828,4.59156c0,0 -3.47406,-2.59536 -4.64802,-4.8304c-0.38981,-0.74212 -2.79696,-1.17093 -2.97638,-2.40499c-0.41473,-2.85244 0.05396,-10.04808 0.05396,-10.04808" fill="none" stroke="#497655" stroke-width="2" stroke-linecap="round"/><path d="M474.74914,288.28497c0,0 -2.13886,-0.44579 -2.36123,-1.92387c-0.43432,-2.88695 -0.06703,-14.21689 -0.06703,-14.21689" fill="none" stroke="#497655" stroke-width="2" stroke-linecap="round"/><path d="M462.51749,286.31487l-3.79589,-3.97665l3.97665,-3.7959l3.7959,3.97666z" fill="url(#color-13)" stroke="none" stroke-width="0" stroke-linecap="butt"/><path d="M467.51684,280.31567l-3.7959,-3.97665l3.97665,-3.79591l3.7959,3.97665z" fill="url(#color-14)" stroke="none" stroke-width="0" stroke-linecap="butt"/><path d="M472.37335,273.17374l-3.7959,-3.97665l3.97665,-3.7959l3.7959,3.97665z" fill="url(#color-15)" stroke="none" stroke-width="0" stroke-linecap="butt"/><path d="M478.22973,279.60148l-3.7959,-3.97666l3.97665,-3.7959l3.7959,3.97665z" fill="url(#color-16)" stroke="none" stroke-width="0" stroke-linecap="butt"/><path d="M450.86759,124.81041c0,0 -0.2268,3.9768 -0.8335,6.54236c-0.39548,1.67236 -3.17711,1.84148 -3.73733,3.02782c-0.81142,1.71831 1.01765,4.34449 -0.69314,5.17782c-0.11327,0.05517 -1.39906,3.79944 -1.71186,5.24246c-0.51949,2.39651 0.13279,4.24284 0.17245,2.96621c0.03965,-1.27664 0.16613,-2.19349 -0.16348,-3.25495c-0.42521,-1.36932 -2.46048,-4.27515 -2.46048,-4.27515c0,0 -0.56826,-5.98483 0,-7.71329c0.21784,-0.66259 0.80394,-1.16929 1.49626,-1.69695c1.11367,-0.84881 2.50217,-1.75185 3.07458,-3.44524c0.92825,-2.74607 0,-12.42696 0,-12.42696" fill="none" stroke="#497655" stroke-width="2" stroke-linecap="round"/><path d="M441.01172,140.23693c0,0 -3.42982,0.15738 -5.05939,-1.86773c-2.70546,-3.36213 -1.51118,-14.41587 -1.51118,-14.41587" fill="none" stroke="#497655" stroke-width="2" stroke-linecap="round"/><path d="M446.15391,120.23957c0,0 -4.57337,-0.84876 -5.4717,-1.8162c-0.95508,-1.02856 -0.67037,-8.32533 -0.67037,-8.32533" fill="none" stroke="#497655" stroke-width="2" stroke-linecap="round"/><path d="M439.29766,123.81054c0,0 -0.24127,3.43687 -0.50378,4.1528c-0.26123,0.71244 -3.92422,1.70358 -3.92422,1.70358" fill="none" stroke="#497655" stroke-width="2" stroke-linecap="round"/><path d="M453.58152,131.38098c0,0 0.01021,4.35823 -1.03896,5.53587c-1.24889,1.40181 -5.96013,2.32025 -5.96013,2.32025" fill="none" stroke="#497655" stroke-width="2" stroke-linecap="round"/><path d="M434.06509,126.83978l-3.7959,-3.97665l3.97665,-3.7959l3.7959,3.97665z" fill="url(#color-17)" stroke="none" stroke-width="0" stroke-linecap="butt"/><path d="M454.77668,133.69601l-3.7959,-3.97665l3.97665,-3.7959l3.79591,3.97665z" fill="url(#color-18)" stroke="none" stroke-width="0" stroke-linecap="butt"/><path d="M440.77851,111.84173l-3.7959,-3.97666l3.97665,-3.7959l3.7959,3.97665z" fill="url(#color-19)" stroke="none" stroke-width="0" stroke-linecap="butt"/><path d="M451.4914,126.5541l-3.7959,-3.97665l3.97665,-3.7959l3.7959,3.97665z" fill="url(#color-20)" stroke="none" stroke-width="0" stroke-linecap="butt"/><path d="M439.08838,278.52333c0,0 0.93115,4.36706 -0.68843,5.51542c-1.32746,0.94123 -4.21246,0.59477 -4.59836,1.4157c-2.13367,4.53901 -1.16797,10.76006 -2.33359,11.85049c-1.0306,0.96411 -3.37819,1.07295 -3.37819,1.07295l-0.14283,6.99909c0,0 -0.03155,0.84175 -1.08832,0.11701c-0.39567,-0.27135 -1.17898,0.6581 -1.82898,-0.06241c-0.50935,-0.56461 -0.93685,-2.80392 -1.03184,-3.01199c-0.43878,-0.96115 0.09251,-3.61319 0.09251,-3.61319c0,0 -4.66542,0.23886 -5.85987,-1.25419c-1.42944,-1.7868 -0.85354,-10.88709 -0.85354,-10.88709" fill="none" stroke="#497655" stroke-width="2" stroke-linecap="round"/><path d="M432.37497,291.52162c0,0 -3.68824,-0.4769 -3.98141,-2.19078c-0.14299,-0.83594 -0.97977,-5.07282 0.30372,-8.70269c0.53397,-1.51014 3.32477,-1.85217 3.67507,-3.49374c0.70925,-3.32363 -0.14021,-8.18129 -0.14021,-8.18129" fill="none" stroke="#497655" stroke-width="2" stroke-linecap="round"/><path d="M417.37692,273.23831c0,0 -0.43104,3.26717 0.46481,5.56361c0.41167,1.05529 3.68909,0.08238 4.2822,1.07207c1.29365,2.15862 0.01433,6.14027 0.32209,7.85538c0.43963,2.44991 1.78714,3.44472 1.78714,4.07795c0,1.84096 0,6.14206 0,6.14206" fill="none" stroke="#497655" stroke-width="2" stroke-linecap="round"/><path d="M437.65999,288.09352c0,0 0.42278,6.48064 -0.56867,7.74633c-1.20459,1.53776 -6.0019,1.53818 -6.0019,1.53818" fill="none" stroke="#497655" stroke-width="2" stroke-linecap="round"/><path d="M417.00086,288.98017l-3.7959,-3.97665l3.97665,-3.7959l3.7959,3.97665z" fill="url(#color-21)" stroke="none" stroke-width="0" stroke-linecap="butt"/><path d="M417.42938,274.26779l-3.7959,-3.97665l3.97666,-3.79591l3.7959,3.97666z" fill="url(#color-22)" stroke="none" stroke-width="0" stroke-linecap="butt"/><path d="M432.14175,271.12538l-3.7959,-3.97665l3.97665,-3.7959l3.79591,3.97665z" fill="url(#color-23)" stroke="none" stroke-width="0" stroke-linecap="butt"/><path d="M437.42677,289.12305l-3.7959,-3.97666l3.97665,-3.7959l3.7959,3.97665z" fill="url(#color-24)" stroke="none" stroke-width="0" stroke-linecap="butt"/><path d="M66.7304,326.28477c0,0 -0.62643,4.90368 -0.64119,7.71292c-0.00777,1.47759 -2.75783,1.23014 -2.85001,2.70139c-0.13523,2.15844 -0.3911,4.01945 -0.85504,4.73032c-1.55093,2.37642 -6.22382,2.85303 -6.22382,2.85303c0,0 0.32681,-5.40482 -0.11822,-9.05409c-0.21231,-1.74093 -2.45108,-0.87589 -2.98506,-3.57986c-0.72523,-3.67244 0.2465,-10.79158 0.2465,-10.79158" fill="none" stroke="#497655" stroke-width="2" stroke-linecap="round"/><path d="M62.87375,321.28542c0,0 0.92614,4.05375 0.0534,7.44553c-0.31603,1.22822 -3.22601,1.50088 -3.17372,2.68875c0.13255,3.01107 -0.25429,6.85414 -0.48617,8.41401c-0.4248,2.85776 -3.67828,4.59156 -3.67828,4.59156c0,0 -3.47406,-2.59536 -4.64802,-4.8304c-0.38981,-0.74212 -2.79696,-1.17093 -2.97638,-2.40499c-0.41473,-2.85244 0.05396,-10.04808 0.05396,-10.04808" fill="none" stroke="#497655" stroke-width="2" stroke-linecap="round"/><path d="M59.87414,330.8556c0,0 -2.13886,-0.44579 -2.36122,-1.92387c-0.43432,-2.88695 -0.06703,-14.21689 -0.06703,-14.21689" fill="none" stroke="#497655" stroke-width="2" stroke-linecap="round"/><path d="M47.64249,328.43986l-3.7959,-3.97665l3.97666,-3.7959l3.7959,3.97666z" fill="url(#color-25)" stroke="none" stroke-width="0" stroke-linecap="butt"/><path d="M52.64184,322.44065l-3.7959,-3.97665l3.97666,-3.79591l3.7959,3.97665z" fill="url(#color-26)" stroke="none" stroke-width="0" stroke-linecap="butt"/><path d="M57.49835,315.29874l-3.7959,-3.97665l3.97666,-3.7959l3.7959,3.97665z" fill="url(#color-27)" stroke="none" stroke-width="0" stroke-linecap="butt"/><path d="M63.35473,321.72647l-3.7959,-3.97666l3.97666,-3.7959l3.7959,3.97665z" fill="url(#color-28)" stroke="none" stroke-width="0" stroke-linecap="butt"/><path d="M440.08838,181.52336c0,0 0.93115,4.36706 -0.68843,5.51542c-1.32746,0.94123 -4.21246,0.59477 -4.59836,1.4157c-2.13367,4.53901 -1.16797,10.76006 -2.33359,11.85049c-1.0306,0.96411 -3.37819,1.07295 -3.37819,1.07295l-0.14284,6.99909c0,0 -0.03156,0.84175 -1.08832,0.11701c-0.39567,-0.27136 -1.17898,0.6581 -1.82898,-0.06241c-0.50936,-0.5646 -0.93685,-2.80392 -1.03184,-3.01199c-0.43878,-0.96115 0.09251,-3.61319 0.09251,-3.61319c0,0 -4.66542,0.23886 -5.85987,-1.25419c-1.42944,-1.7868 -0.85354,-10.88709 -0.85354,-10.88709" fill="none" stroke="#497655" stroke-width="2" stroke-linecap="round"/><path d="M433.37497,194.52166c0,0 -3.68824,-0.4769 -3.98141,-2.19077c-0.14299,-0.83594 -0.97977,-5.07283 0.30372,-8.7027c0.53397,-1.51014 3.32477,-1.85217 3.67507,-3.49374c0.70925,-3.32363 -0.14021,-8.18129 -0.14021,-8.18129" fill="none" stroke="#497655" stroke-width="2" stroke-linecap="round"/><path d="M418.37692,176.23833c0,0 -0.43104,3.26717 0.46481,5.56362c0.41167,1.05529 3.68909,0.08238 4.28221,1.07207c1.29365,2.15862 0.01432,6.14028 0.32209,7.85539c0.43962,2.4499 1.78714,3.44472 1.78714,4.07795c0,1.84096 0,6.14206 0,6.14206" fill="none" stroke="#497655" stroke-width="2" stroke-linecap="round"/><path d="M438.65999,191.09354c0,0 0.42279,6.48064 -0.56867,7.74633c-1.20459,1.53777 -6.0019,1.53818 -6.0019,1.53818" fill="none" stroke="#497655" stroke-width="2" stroke-linecap="round"/><path d="M418.00086,191.98021l-3.7959,-3.97665l3.97665,-3.7959l3.7959,3.97665z" fill="url(#color-29)" stroke="none" stroke-width="0" stroke-linecap="butt"/><path d="M418.42938,177.26784l-3.7959,-3.97665l3.97666,-3.79591l3.7959,3.97665z" fill="url(#color-30)" stroke="none" stroke-width="0" stroke-linecap="butt"/><path d="M433.14175,174.12539l-3.7959,-3.97665l3.97665,-3.7959l3.79591,3.97666z" fill="url(#color-31)" stroke="none" stroke-width="0" stroke-linecap="butt"/><path d="M438.42677,192.12305l-3.79589,-3.97666l3.97665,-3.7959l3.7959,3.97665z" fill="url(#color-32)" stroke="none" stroke-width="0" stroke-linecap="butt"/><g><path d="M5.4759,-9.28474v73.05264" fill="none" stroke="#822323" stroke-width="2" stroke-linecap="round"/><path d="M1.75934,30.8838l3.74629,-6.24382l3.33003,6.24382z" fill="#ac2d2d" stroke="none" stroke-width="0" stroke-linecap="butt"/><path d="M2.15181,70.9869l3.4787,-8.65214l3.59763,8.65214z" fill="#e83d3d" stroke="none" stroke-width="0" stroke-linecap="butt"/><path d="M3.18651,58.66167l2.32962,-3.60537l2.07078,3.60537z" fill="#bb3030" stroke="none" stroke-width="0" stroke-linecap="butt"/><path d="M1.59878,47.86383l3.74985,-6.72234l3.81141,6.72234z" fill="#dc3939" stroke="none" stroke-width="0" stroke-linecap="butt"/><path d="M2.23506,14.3613l3.21635,-5.59845l3.02746,5.59845z" fill="#c73434" stroke="none" stroke-width="0" stroke-linecap="butt"/></g><g><path d="M28.43674,85.02755v-90.53533" fill="none" stroke="#822358" stroke-width="2" stroke-linecap="round"/><path d="M24.912,56.86497l3.4787,-8.65214l3.59763,8.65214z" fill="#e63e92" stroke="none" stroke-width="0" stroke-linecap="butt"/><path d="M26.23806,74.63487l2.32962,-3.60537l2.07078,3.60537z" fill="#cb3781" stroke="none" stroke-width="0" stroke-linecap="butt"/><path d="M24.15084,68.16509l4.32869,-7.2025l4.35319,7.2025z" fill="#ff45a2" stroke="none" stroke-width="0" stroke-linecap="butt"/><path d="M21.84063,50.91235l6.60585,-11.84226l6.71429,11.84226z" fill="#ac2f6d" stroke="none" stroke-width="0" stroke-linecap="butt"/><path d="M25.28662,89.94215l3.21635,-5.59845l3.02746,5.59845z" fill="#bc3377" stroke="none" stroke-width="0" stroke-linecap="butt"/><path d="M26.27671,31.0217l2.23795,-3.92855l2.16245,3.92855z" fill="#f3429a" stroke="none" stroke-width="0" stroke-linecap="butt"/></g><g><path d="M52.18452,73.38984v-90.74345" fill="none" stroke="#712382" stroke-width="2" stroke-linecap="round"/><path d="M48.20545,54.09351l3.4787,-8.65214l3.59763,8.65214z" fill="#f945ff" stroke="none" stroke-width="0" stroke-linecap="butt"/><path d="M49.78127,75.35993l2.32962,-3.60537l2.07078,3.60537z" fill="#c336c8" stroke="none" stroke-width="0" stroke-linecap="butt"/><path d="M47.81893,49.90898l4.32869,-7.2025l4.35319,7.2025z" fill="#b632bb" stroke="none" stroke-width="0" stroke-linecap="butt"/><path d="M45.63359,15.67305l6.60585,-11.84226l6.71429,11.84226z" fill="#ed42f3" stroke="none" stroke-width="0" stroke-linecap="butt"/><path d="M48.82983,23.98327l3.21635,-5.59845l3.02746,5.59845z" fill="#ae30b2" stroke="none" stroke-width="0" stroke-linecap="butt"/><path d="M49.94479,28.25024l2.23795,-3.92855l2.16245,3.92855z" fill="#e03ee6" stroke="none" stroke-width="0" stroke-linecap="butt"/><path d="M49.78127,78.16966l2.32962,-3.60537l2.07078,3.60537z" fill="#d43bd9" stroke="none" stroke-width="0" stroke-linecap="butt"/></g><g><path d="M74.83035,-1.05977v73.05264" fill="none" stroke="#472381" stroke-width="2" stroke-linecap="round"/><path d="M71.11379,39.10878l3.74629,-6.24382l3.33003,6.24382z" fill="#602fae" stroke="none" stroke-width="0" stroke-linecap="butt"/><path d="M71.38138,68.72231l3.4787,-8.65214l3.59763,8.65214z" fill="#8d45ff" stroke="none" stroke-width="0" stroke-linecap="butt"/><path d="M68.08108,82.4377l6.60585,-11.84226l6.71429,11.84226z" fill="#803fe8" stroke="none" stroke-width="0" stroke-linecap="butt"/><path d="M70.40021,31.50602l4.64351,-7.73918l4.12756,7.73918z" fill="#7238cf" stroke="none" stroke-width="0" stroke-linecap="butt"/><path d="M70.51914,15.89648l4.35493,-7.64474l4.20801,7.64474z" fill="#6733bc" stroke="none" stroke-width="0" stroke-linecap="butt"/></g><g data-paper-data="{&quot;index&quot;:null}"><path d="M474.0241,-1.78474v73.05264" fill="none" stroke="#822323" stroke-width="2" stroke-linecap="round"/><path d="M470.66434,38.38376l3.33003,-6.24381l3.74629,6.24381z" fill="#ac2d2d" stroke="none" stroke-width="0" stroke-linecap="butt"/><path d="M470.27186,78.4869l3.59763,-8.65214l3.4787,8.65214z" fill="#e83d3d" stroke="none" stroke-width="0" stroke-linecap="butt"/><path d="M471.91309,66.16164l2.07078,-3.60537l2.32962,3.60537z" fill="#bb3030" stroke="none" stroke-width="0" stroke-linecap="butt"/><path d="M470.33996,55.36384l3.81141,-6.72234l3.74985,6.72234z" fill="#dc3939" stroke="none" stroke-width="0" stroke-linecap="butt"/><path d="M471.02113,21.86131l3.02746,-5.59845l3.21636,5.59845z" fill="#c73434" stroke="none" stroke-width="0" stroke-linecap="butt"/></g><g data-paper-data="{&quot;index&quot;:null}"><path d="M452.06327,-11.00778v90.53533" fill="none" stroke="#822358" stroke-width="2" stroke-linecap="round"/><path d="M448.51168,51.36497l3.59763,-8.65215l3.4787,8.65215z" fill="#e63e92" stroke="none" stroke-width="0" stroke-linecap="butt"/><path d="M449.86153,69.13487l2.07079,-3.60537l2.32962,3.60537z" fill="#cb3781" stroke="none" stroke-width="0" stroke-linecap="butt"/><path d="M447.66728,62.6651l4.35319,-7.20249l4.32869,7.20249z" fill="#ff45a2" stroke="none" stroke-width="0" stroke-linecap="butt"/><path d="M445.33924,45.41235l6.71429,-11.84226l6.60585,11.84226z" fill="#ac2f6d" stroke="none" stroke-width="0" stroke-linecap="butt"/><path d="M448.96957,84.44215l3.02747,-5.59845l3.21635,5.59845z" fill="#bc3377" stroke="none" stroke-width="0" stroke-linecap="butt"/><path d="M449.82289,25.52171l2.16245,-3.92855l2.23795,3.92855z" fill="#f3429a" stroke="none" stroke-width="0" stroke-linecap="butt"/></g><g data-paper-data="{&quot;index&quot;:null}"><path d="M431.31549,63.88987v-90.74346" fill="none" stroke="#712382" stroke-width="2" stroke-linecap="round"/><path d="M428.21822,44.59351l3.59763,-8.65214l3.4787,8.65214z" fill="#f945ff" stroke="none" stroke-width="0" stroke-linecap="butt"/><path d="M429.31832,65.85993l2.07078,-3.60538l2.32963,3.60538z" fill="#c336c8" stroke="none" stroke-width="0" stroke-linecap="butt"/><path d="M426.99919,40.40898l4.35319,-7.20249l4.32869,7.20249z" fill="#b632bb" stroke="none" stroke-width="0" stroke-linecap="butt"/><path d="M424.54628,6.17305l6.71429,-11.84226l6.60585,11.84227z" fill="#ed42f3" stroke="none" stroke-width="0" stroke-linecap="butt"/><path d="M428.42636,14.48328l3.02747,-5.59845l3.21635,5.59845z" fill="#ae30b2" stroke="none" stroke-width="0" stroke-linecap="butt"/><path d="M429.15481,18.75024l2.16245,-3.92854l2.23795,3.92855z" fill="#e03ee6" stroke="none" stroke-width="0" stroke-linecap="butt"/><path d="M429.31832,68.66966l2.07078,-3.60537l2.32963,3.60537z" fill="#d43bd9" stroke="none" stroke-width="0" stroke-linecap="butt"/></g><g data-paper-data="{&quot;index&quot;:null}"><path d="M408.66965,-19.05976v73.05265" fill="none" stroke="#472381" stroke-width="2" stroke-linecap="round"/><path d="M405.30989,21.10878l3.33004,-6.24382l3.74629,6.24382z" fill="#602fae" stroke="none" stroke-width="0" stroke-linecap="butt"/><path d="M405.04229,50.72231l3.59763,-8.65214l3.47869,8.65214z" fill="#8d45ff" stroke="none" stroke-width="0" stroke-linecap="butt"/><path d="M402.09879,64.4377l6.71429,-11.84226l6.60586,11.84226z" fill="#803fe8" stroke="none" stroke-width="0" stroke-linecap="butt"/><path d="M404.32872,13.50602l4.12756,-7.73918l4.64351,7.73918z" fill="#7238cf" stroke="none" stroke-width="0" stroke-linecap="butt"/><path d="M404.41792,-2.10352l4.20802,-7.64474l4.35493,7.64475z" fill="#6733bc" stroke="none" stroke-width="0" stroke-linecap="butt"/></g><g stroke="none" stroke-width="0" stroke-linecap="butt"><path d="M94.25934,11.8838l3.74629,-6.24381l3.33003,6.24381z" fill="#ac2d2d"/><path d="M94.65181,26.48694l3.4787,-8.65214l3.59763,8.65214z" fill="#e83d3d"/><path d="M95.18651,17.66167l2.32962,-3.60537l2.07078,3.60537z" fill="#bb3030"/><path d="M94.09879,3.36384l3.74986,-6.72234l3.8114,6.72234z" fill="#dc3939"/></g><g stroke="none" stroke-width="0" stroke-linecap="butt"><path d="M377.912,-5.63503l3.4787,-8.65215l3.59763,8.65215z" fill="#e63e92"/><path d="M379.23807,12.13488l2.32962,-3.60537l2.07079,3.60537z" fill="#cb3781"/><path d="M377.15085,5.6651l4.32869,-7.20249l4.35319,7.20249z" fill="#ff45a2"/><path d="M374.84063,19.91233l6.60585,-11.84226l6.71429,11.84226z" fill="#ac2f6d"/><path d="M378.28662,27.44215l3.21635,-5.59845l3.02747,5.59845z" fill="#bc3377"/></g><g stroke="none" stroke-width="0" stroke-linecap="butt"><path d="M350.20545,2.59348l3.4787,-8.65214l3.59763,8.65214z" fill="#f945ff"/><path d="M350.28127,13.35996l2.32963,-3.60538l2.07078,3.60538z" fill="#c336c8"/><path d="M349.31893,10.40894l4.32869,-7.20249l4.35319,7.20249z" fill="#b632bb"/><path d="M350.28127,16.16965l2.32963,-3.60537l2.07078,3.60537z" fill="#d43bd9"/></g><g stroke="none" stroke-width="0" stroke-linecap="butt"><path d="M125.38139,5.72231l3.47869,-8.65214l3.59763,8.65214z" fill="#8d45ff"/><path d="M122.08108,16.43767l6.60586,-11.84226l6.71428,11.84226z" fill="#803fe8"/></g><path d="M422.40709,361.91122c0,0 0.74964,1.03007 2.31904,-2.71462c0.37025,-0.88346 0.53227,-6.04483 1.51453,-12.49813c0.44334,-2.91265 0.45195,-10.67334 0.9897,-13.26822c0.6327,-3.05309 1.76398,-0.71264 1.76398,-0.71264c0,0 0.37905,7.90983 1.38461,14.93122c0.96184,6.71604 2.54823,12.53988 2.71296,13.27022c0.33695,1.49388 2.67317,1.81675 2.67317,1.81675" data-paper-data="{&quot;index&quot;:null}" fill="none" stroke="#3d3d70" stroke-width="2.5" stroke-linecap="round"/><path d="M1.57375,219.34141c0,0 4.36277,-0.34732 4.99201,-1.95435c0.30763,-0.78565 3.27013,-7.05057 5.06631,-14.27527c1.87785,-7.55318 2.5857,-16.06207 2.5857,-16.06207c0,0 2.11262,-2.51771 3.29415,0.76662c1.00421,2.7914 1.0203,11.13987 1.84821,14.27312c1.83433,6.94205 2.13689,12.49433 2.82832,13.44471c2.93076,4.0283 4.33067,2.92022 4.33067,2.92022" data-paper-data="{&quot;index&quot;:null}" fill="none" stroke="#3d3d70" stroke-width="2.5" stroke-linecap="round"/><path d="M40.05865,208.17102c0.44224,3.96313 4.11313,4.41671 2.81023,7.06462c-3.30965,6.72623 -18.78975,3.26745 -18.78975,3.26745l-1.66724,-5.68646l5.9532,-7.98338c0,0 11.01242,-2.76633 11.69356,3.33777z" data-paper-data="{&quot;index&quot;:null}" fill="none" stroke="#3d3d70" stroke-width="2.5" stroke-linecap="butt"/><path d="M71.40043,296.29949c-2.77888,-0.43334 -3.76769,1.98069 -5.32821,0.60345c-3.96404,-3.49847 1.25783,-13.39195 1.25783,-13.39195l4.17858,-0.08098l4.32975,5.53035c0,0 -0.15787,8.00658 -4.43795,7.33913z" data-paper-data="{&quot;index&quot;:null}" fill="none" stroke="#3d3d70" stroke-width="2.5" stroke-linecap="butt"/><g stroke-width="1" stroke-linecap="butt"><path d="M38.71396,195.1052c0,1.24296 -0.08427,0 -2.25057,0c-2.1663,0 -1.22175,-2.67948 -1.22175,-3.92244c0,-1.24296 8.76506,-1.99336 10.93136,-1.99336c2.1663,0 -7.45904,4.67284 -7.45904,5.9158z" fill="#54dcc0" stroke="#4ecfd9"/><path d="M41.54324,192.79032c0,-1.02988 0.83488,-1.86476 1.86476,-1.86476c1.02988,0 1.86476,0.83487 1.86476,1.86476c0,1.02988 -0.83488,1.86476 -1.86476,1.86476c-1.02988,0 -1.86476,-0.83488 -1.86476,-1.86476z" fill="#ffffff" stroke="#ffbaba"/><path d="M41.60755,198.55958c-3.76438,0 -6.81603,-3.70743 -6.81603,-3.70743c0,0 1.20409,-0.34586 2.31851,-0.82441c1.15606,-0.49643 2.56845,0.28782 2.56845,0.28782c0,0 1.60557,-1.01727 2.18601,-1.0108c0.51272,0.00573 1.36275,0.69121 2.4107,0.94346c0.84228,0.20275 1.89688,-0.51363 2.59459,-0.45075c0.87317,0.0787 1.5538,1.05467 1.5538,1.05467c0,0 -3.05164,3.70743 -6.81603,3.70743z" data-paper-data="{&quot;index&quot;:null}" fill="#7fd4c3" stroke="#369097"/><path d="M46.73324,189.02626c-0.62594,0.18702 -1.9391,-0.01879 -2.63737,0.28336c-0.86876,0.37591 -1.35592,0.97032 -1.83421,1.08339c-0.54146,0.12799 -2.5075,-0.14116 -2.5075,-0.14116c0,0 -0.96992,0.7741 -2.27875,0.7224c-1.26169,-0.04984 -2.61177,3.92181 -2.61177,3.92181c0,0 -0.64412,-1.26643 -0.61836,-1.9806c0.03965,-1.09876 1.04316,-2.62885 1.31198,-2.99019c0.67675,-0.90966 1.95359,-2.15469 4.08636,-2.64086c3.53063,-0.80481 8.06985,0.77472 8.06985,0.77472z" fill="#7fd4c3" stroke="#369097"/></g><g data-paper-data="{&quot;index&quot;:null}" stroke-width="1" stroke-linecap="butt"><path d="M430.48588,322.50149c2.11107,0.48605 10.48429,3.18393 10.20541,4.3952c-0.27888,1.21127 0.04039,4.03436 -2.07068,3.54831c-2.11107,-0.48605 -2.47207,0.70631 -2.19319,-0.50496c0.27888,-1.21127 -8.05261,-7.9246 -5.94154,-7.43855z" fill="#5380db" stroke="#4e78d9"/><path d="M431.95406,328.4482c-1.00362,-0.23107 -1.62989,-1.23199 -1.39882,-2.23561c0.23108,-1.00363 1.23199,-1.62989 2.23561,-1.39882c1.00362,0.23107 1.62989,1.23199 1.39882,2.23561c-0.23107,1.00362 -1.23199,1.62989 -2.23561,1.39882z" fill="#ffffff" stroke="#ffbaba"/><path d="M432.83256,332.65711c-3.66841,-0.84461 -5.81042,-5.14221 -5.81042,-5.14221c0,0 0.88225,-0.79837 1.75082,-0.67916c0.69403,0.09527 1.56101,1.03 2.4273,1.0214c1.07783,-0.01069 2.05999,-0.48797 2.56092,-0.37852c0.56709,0.12393 1.90348,1.4755 1.90348,1.4755c0,0 1.55234,-0.44736 2.56754,0.2958c0.97864,0.71639 2.07443,1.32359 2.07443,1.32359c0,0 -3.80568,2.92821 -7.47408,2.0836z" data-paper-data="{&quot;index&quot;:null}" fill="#7f95d4" stroke="#364896"/><path d="M429.23829,321.0544c0,0 4.77789,-0.5208 8.03793,1.05566c1.96931,0.9523 2.93425,2.45207 3.38965,3.49038c0.18089,0.41244 0.81551,2.12868 0.60762,3.20832c-0.13513,0.70174 -1.04698,1.79136 -1.04698,1.79136c0,0 -0.42454,-4.17331 -1.66525,-4.40782c-1.28706,-0.24328 -2.05857,-1.21526 -2.05857,-1.21526c0,0 -1.9763,-0.17883 -2.47524,-0.42505c-0.44073,-0.2175 -0.7821,-0.90606 -1.54437,-1.46731c-0.61267,-0.45112 -1.93853,-0.54519 -2.50655,-0.86788z" fill="#7f95d4" stroke="#364896"/></g><path d="M433.53604,361.55155c0,0 1.39991,1.92359 4.33067,-5.06941c0.69143,-1.64982 0.99399,-11.2884 2.82832,-23.33959c0.82791,-5.43922 0.844,-19.9319 1.84821,-24.77769c1.18153,-5.7015 3.29415,-1.33083 3.29415,-1.33083c0,0 0.70785,14.77118 2.5857,27.88326c1.79618,12.54186 4.75868,23.41756 5.06631,24.78143c0.62924,2.78975 4.99201,3.39269 4.99201,3.39269" data-paper-data="{&quot;index&quot;:null}" fill="none" stroke="#3d3d70" stroke-width="2.5" stroke-linecap="round"/><g fill="none" stroke="#a064e8" stroke-width="3" stroke-linecap="round"><path d="M480.05525,159.75183c0,0 0.63034,4.40537 0.02364,6.97093c-0.39548,1.67236 -4.03425,1.4129 -4.59447,2.59924c-0.81142,1.71831 1.01765,4.34449 -0.69314,5.17782c-1.9438,0.94676 -1.20457,5.30428 -1.84575,3.23943c-0.42521,-1.36932 -2.31761,-2.56086 -2.31761,-2.56086c0,0 -0.56826,-5.98483 0,-7.71329c0.21784,-0.66259 0.80394,-1.16929 1.49625,-1.69695c1.11367,-0.84881 3.93075,-1.32327 4.50315,-3.01666c0.92825,-2.74607 0.71428,-11.14123 0.71428,-11.14123"/><path d="M470.19938,175.17839c0,0 -3.42982,0.15738 -5.0594,-1.86773c-2.70546,-3.36213 -1.51118,-14.41587 -1.51118,-14.41587"/><path d="M479.62729,166.7524c0,0 -4.57336,-0.84876 -5.47169,-1.8162c-0.95509,-1.02856 -0.67037,-8.32533 -0.67037,-8.32533"/><path d="M468.48532,158.75196c0,0 -0.24127,3.43687 -0.50378,4.15281c-0.26123,0.71244 -3.92421,1.70358 -3.92421,1.70358"/><path d="M482.76918,166.3224c0,0 0.0102,4.35823 -1.03897,5.53588c-1.24889,1.4018 -5.96012,2.32025 -5.96012,2.32025"/></g><g fill="none" stroke="#e95252" stroke-width="3" stroke-linecap="round"><path d="M55.44415,114.40263c0,0 0.63034,4.40537 0.02364,6.97093c-0.39548,1.67236 -4.03425,1.41291 -4.59447,2.59925c-0.81142,1.71831 1.01765,4.34449 -0.69314,5.17782c-1.49729,0.72928 -4.16337,0.67857 -4.16337,0.67857c0,0 -0.56826,-5.98483 0,-7.71329c0.21784,-0.66259 0.80394,-1.16929 1.49625,-1.69695c1.11367,-0.84881 3.93074,-1.32328 4.50315,-3.01667c0.92825,-2.74607 0.71429,-11.14124 0.71429,-11.14124"/><path d="M45.58828,129.82919c0,0 -3.42982,0.15738 -5.0594,-1.86773c-2.70546,-3.36213 -1.51118,-14.41587 -1.51118,-14.41587"/><path d="M55.01618,121.4032c0,0 -4.57336,-0.84876 -5.47169,-1.8162"/><path d="M43.87422,113.40276c0,0 -0.24127,3.43687 -0.50378,4.15281c-0.26123,0.71244 -3.92421,1.70358 -3.92421,1.70358"/><path d="M58.15808,120.9732c0,0 0.0102,4.35823 -1.03897,5.53588c-1.24889,1.4018 -5.96012,2.32025 -5.96012,2.32025"/></g><g fill="none" stroke="#64d5e8" stroke-width="3" stroke-linecap="round"><path d="M447.44414,238.97405c0,0 0.63034,4.40537 0.02364,6.97093c-0.39548,1.67236 -4.03425,1.4129 -4.59447,2.59924c-0.81142,1.71831 1.01765,4.34449 -0.69314,5.17782c-1.9438,0.94676 -0.63315,4.73286 -1.27433,2.66801c-0.42521,-1.36932 -2.88904,-1.98944 -2.88904,-1.98944c0,0 -0.56826,-5.98483 0,-7.71329c0.21784,-0.66259 0.80394,-1.16929 1.49625,-1.69695c1.11367,-0.84881 3.93075,-1.32327 4.50315,-3.01666c0.92825,-2.74607 0.71429,-11.14123 0.71429,-11.14123"/><path d="M437.58827,254.40061c0,0 -3.42982,0.15738 -5.0594,-1.86773c-2.70546,-3.36213 -1.51118,-14.41587 -1.51118,-14.41587"/><path d="M435.87421,237.97418c0,0 -0.24127,3.43687 -0.50378,4.15281c-0.26123,0.71244 -3.92421,1.70358 -3.92421,1.70358"/><path d="M450.15807,245.54462c0,0 0.0102,4.35823 -1.03897,5.53588c-1.24889,1.4018 -5.96012,2.32025 -5.96012,2.32025"/></g><path d="M440.52015,342.4036c0.63549,-0.68019 2.16292,0.63832 2.16292,0.63832c0,0 0.84692,-1.84635 1.72534,-1.72441c0.87843,0.12194 0.17067,2.39108 0.17067,2.39108c0,0 1.99453,0.30395 1.80247,1.28929c-0.19206,0.98534 -2.03527,1.0189 -2.03527,1.0189c0,0 0.16782,1.81612 -0.78248,2.13733c-0.95031,0.3212 -1.13249,-1.72601 -1.13249,-1.72601c0,0 -1.64327,1.26101 -2.28644,0.49579c-0.64317,-0.76522 1.11109,-2.35449 1.11109,-2.35449c0,0 -1.37131,-1.48561 -0.73582,-2.1658z" fill="#f0bb51" stroke="#e3d5bc" stroke-width="1" stroke-linecap="butt"/><path d="M35.37757,206.6536c0.63549,0.68019 -0.73582,2.1658 -0.73582,2.1658c0,0 1.75426,1.58927 1.11109,2.35449c-0.64317,0.76522 -2.28644,-0.49579 -2.28644,-0.49579c0,0 -0.18218,2.04721 -1.13249,1.72601c-0.9503,-0.32121 -0.78248,-2.13733 -0.78248,-2.13733c0,0 -1.84321,-0.03356 -2.03527,-1.0189c-0.19206,-0.98534 1.80247,-1.28929 1.80247,-1.28929c0,0 -0.70776,-2.26914 0.17067,-2.39108c0.87842,-0.12194 1.72534,1.72441 1.72534,1.72441c0,0 1.52743,-1.31851 2.16292,-0.63832z" data-paper-data="{&quot;index&quot;:null}" fill="#c151f0" stroke="#bdbce3" stroke-width="1" stroke-linecap="butt"/><path d="M16.12758,196.65361c0.63549,0.68019 -0.73582,2.1658 -0.73582,2.1658c0,0 1.75426,1.58927 1.11109,2.35449c-0.64317,0.76522 -2.28644,-0.49579 -2.28644,-0.49579c0,0 -0.18218,2.04721 -1.13249,1.72601c-0.9503,-0.32121 -0.78248,-2.13733 -0.78248,-2.13733c0,0 -1.84321,-0.03356 -2.03527,-1.0189c-0.19206,-0.98534 1.80247,-1.28929 1.80247,-1.28929c0,0 -0.70776,-2.26914 0.17067,-2.39108c0.87842,-0.12194 1.72534,1.72441 1.72534,1.72441c0,0 1.52743,-1.31851 2.16292,-0.63832z" data-paper-data="{&quot;index&quot;:null}" fill="#ebf051" stroke="#e3e3bc" stroke-width="1" stroke-linecap="butt"/><path d="M10.9871,294.67163c0,5.18747 -1.60489,9.74036 -4.01996,12.31312c-1.3228,1.40919 -3.34059,0.41656 -5.01889,0.41656c-2.16991,0 -3.69988,0.44514 -5.21158,-1.80224c-1.79215,-2.66436 -2.92339,-6.57226 -2.92339,-10.92745c0,-8.02882 0.07831,-18.45429 4.8207,-18.45429c2.35283,0 7.52068,-1.35073 10.00585,2.21572c2.524,3.62219 2.34722,12.19303 2.34722,16.23857z" fill="#f54d4d" stroke="#d93030" stroke-width="2.5" stroke-linecap="butt"/><path d="M9.78191,278.47703c0,1.66401 -3.37235,3.01294 -7.53237,3.01294c-4.16002,0 -7.53237,-1.34893 -7.53237,-3.01294c0,-1.66401 3.37235,-3.01294 7.53237,-3.01294c4.16002,0 7.53237,1.34893 7.53237,3.01294z" fill="#b50000" stroke="#d93030" stroke-width="2.5" stroke-linecap="butt"/><path d="M25.8997,300.76315c0,4.02531 -2.49169,7.55818 -6.24116,9.55458c-2.0537,1.09349 -5.18641,0.32323 -7.79206,0.32323c-3.36889,0 -5.74424,0.34542 -8.0912,-1.39848c-2.7824,-2.06745 -4.53868,-5.09986 -4.53868,-8.47934c0,-6.23011 0.12155,-14.31992 7.48436,-14.31992c3.65285,0 11.67623,-1.04812 15.53455,1.71933c3.91862,2.81068 3.64418,9.46138 3.64418,12.60059z" fill="#f54d4d" stroke="#d93030" stroke-width="2.5" stroke-linecap="butt"/><path d="M24.02858,288.19671c0,1.29121 -5.23572,2.33794 -11.69433,2.33794c-6.4586,0 -11.69435,-1.04673 -11.69435,-2.33794c0,-1.29121 5.23575,-2.33794 11.69435,-2.33794c6.4586,0 11.69433,1.04673 11.69433,2.33794z" fill="#b50000" stroke="#d93030" stroke-width="2.5" stroke-linecap="butt"/><path d="M9.86482,274.25604l0.35152,3.28077" fill="none" stroke="#d92121" stroke-width="2.5" stroke-linecap="round"/><path d="M1.07706,283.864l-0.35152,3.04641" fill="none" stroke="#d92121" stroke-width="2.5" stroke-linecap="round"/><path d="M5.99822,285.15287l-0.11718,-2.3434" fill="none" stroke="#d92121" stroke-width="2.5" stroke-linecap="round"/><path d="M14.31729,283.86399l-0.23434,-1.87472" fill="none" stroke="#d92121" stroke-width="2.5" stroke-linecap="round"/><path d="M18.88692,282.69229v2.46058" fill="none" stroke="#d92121" stroke-width="2.5" stroke-linecap="round"/><path d="M22.16767,283.39529v2.81208" fill="none" stroke="#d92121" stroke-width="2.5" stroke-linecap="round"/><path d="M25.33127,284.80135l-0.70301,2.92925" fill="none" stroke="#d92121" stroke-width="2.5" stroke-linecap="round"/><path d="M-10.82653,373l-10.67347,-386h512.32653l10.67347,386z" fill="url(#color-33)" stroke="none" stroke-width="1" stroke-linecap="butt"/></g></g></svg>