<svg version="1.1" xmlns="http://www.w3.org/2000/svg" xmlns:xlink="http://www.w3.org/1999/xlink" width="88.25" height="88.25" viewBox="0,0,88.25,88.25"><defs><radialGradient cx="240" cy="180" r="21.64286" gradientUnits="userSpaceOnUse" id="color-1"><stop offset="0" stop-color="#ff0000"/><stop offset="1" stop-color="#ff0000" stop-opacity="0"/></radialGradient></defs><g transform="translate(-195.875,-135.875)"><g data-paper-data="{&quot;isPaintingLayer&quot;:true}" fill-rule="nonzero" stroke-linejoin="miter" stroke-miterlimit="10" stroke-dasharray="" stroke-dashoffset="0" style="mix-blend-mode: normal"><path d="M218.35714,180c0,-11.95302 9.68984,-21.64286 21.64286,-21.64286c11.95302,0 21.64286,9.68984 21.64286,21.64286c0,11.95302 -9.68984,21.64286 -21.64286,21.64286c-11.95302,0 -21.64286,-9.68984 -21.64286,-21.64286z" fill="url(#color-1)" stroke="#8719ff" stroke-width="0" stroke-linecap="butt"/><path d="M195.875,224.125v-88.25h88.25v88.25z" fill="none" stroke="none" stroke-width="NaN" stroke-linecap="butt"/><path d="M214.64287,180.00002c0,-14.00436 11.35278,-25.35714 25.35714,-25.35714c14.00436,0 25.35714,11.35278 25.35714,25.35714c0,14.00436 -11.35278,25.35714 -25.35714,25.35714c-14.00436,0 -25.35714,-11.35278 -25.35714,-25.35714z" fill="none" stroke="#545454" stroke-width="1" stroke-linecap="butt"/><text transform="translate(234.81926,213.5463) scale(0.36433,0.36433)" font-size="40" xml:space="preserve" fill="#ffffff" fill-rule="nonzero" stroke="none" stroke-width="1" stroke-linecap="butt" stroke-linejoin="miter" stroke-miterlimit="10" stroke-dasharray="" stroke-dashoffset="0" font-family="Sans Serif" font-weight="normal" text-anchor="start" style="mix-blend-mode: normal"><tspan x="0" dy="0">D</tspan></text><path d="M231.75057,217.2062c-0.76295,-0.7628 -0.58469,-1.10059 -0.58469,-2.17926c0,-3.23602 0,-7.66491 0,-12.57085c0,-1.01301 -0.1538,-1.3176 0.58469,-2.01101c0.73849,-0.69341 1.1009,-0.5847 2.17977,-0.5847c4.82987,0 9.26146,0 12.37595,0c1.03816,0 1.37213,-0.1789 2.07547,0.5847c0.70335,0.7636 0.58469,1.17627 0.58469,2.30336c0,4.75382 0,8.83095 0,12.18105c0,1.11669 0.17565,1.45885 -0.58469,2.27671c-0.76034,0.81787 -1.03731,0.5847 -2.07547,0.5847c-1.03816,0 -9.13935,0 -12.37595,0c-1.07887,0 -1.41682,0.17811 -2.17977,-0.5847z" fill="none" stroke="#ffffff" stroke-width="1.5" stroke-linecap="butt"/><path d="M245.97776,176.64774c1.14682,-1.77793 0.35186,-4.88999 0.35186,-4.88999c0,0 3.82395,1.70811 5.08734,7.64426c0.94296,4.43062 0.63911,8.23803 -2.35684,12.38573c-1.26916,2.29663 -7.02429,3.87139 -10.45649,3.81313c-3.26881,-0.05799 -7.88635,-2.49389 -9.3514,-4.42283c-2.41078,-3.63614 -1.75823,-2.58668 -2.73816,-6.83793c-0.9873,-4.28322 3.20873,-12.49026 3.20873,-12.49026c0,0 0.12895,1.91532 0.65251,2.98791c0.52356,1.07259 1.77641,1.98805 1.77641,1.98805c0,0 0.00824,0.69617 0.18576,-0.17097c0.4869,-2.37836 -0.00538,-4.35946 3.20978,-9.12982c3.52962,-5.23693 8.43642,-5.47422 8.43642,-5.47422c0,0 -2.50295,5.14118 -2.03946,8.53393c0.46348,3.39275 4.03355,6.06302 4.03355,6.06302z" fill="#ff9400" stroke="#ff2222" stroke-width="1.5" stroke-linecap="round"/><path d="M241.62604,183.70534c0,0 1.04433,0.61083 1.67472,-0.36648c0.67552,-1.04727 0.20726,-2.88038 0.20726,-2.88038c0,0 1.59931,0.02642 2.34349,3.52304c0.55544,2.6098 1.0296,5.83222 -0.73513,8.27537c-0.74758,1.35279 -4.13756,2.28039 -6.15926,2.24607c-1.92545,-0.03415 -4.64535,-1.469 -5.50832,-2.60521c-0.94122,-1.41963 -1.18367,-3.22129 -0.67728,-4.84758c0.07147,-0.23208 0.84719,-3.79507 0.57479,-4.97684c-0.58156,-2.52298 -1.04907,-2.86688 -1.04907,-2.86688c0,0 1.17029,-0.88721 2.71117,-0.03615c1.13604,0.62747 1.61786,2.0691 1.61786,2.0691c0,0 1.26004,-2.47188 2.61242,-3.51909c1.35238,-1.04721 3.13715,-0.97555 3.13715,-0.97555c0,0 -0.98414,2.87752 -1.20606,4.16575c-0.18156,1.0539 0.45627,2.79483 0.45627,2.79483z" fill="#ffed1d" stroke="#ff2222" stroke-width="0" stroke-linecap="round"/><path d="M240.36383,188.18567c0,0 0.54501,0.31878 0.87399,-0.19125c0.35253,-0.54654 0.10816,-1.50319 0.10816,-1.50319c0,0 0.83464,0.01379 1.223,1.83858c0.28987,1.36198 0.53732,3.04367 -0.38364,4.31868c-0.39014,0.70598 -2.15928,1.19008 -3.21435,1.17217c-1.00484,-0.01782 -2.42428,-0.76663 -2.87464,-1.35959c-0.4912,-0.74087 -0.61772,-1.6811 -0.35345,-2.52982c0.0373,-0.12112 0.44213,-1.98054 0.29997,-2.59727c-0.30349,-1.31667 -0.54748,-1.49614 -0.54748,-1.49614c0,0 0.61074,-0.46301 1.41488,-0.01887c0.59287,0.32745 0.84432,1.0798 0.84432,1.0798c0,0 0.65758,-1.29 1.36335,-1.83651c0.70577,-0.54651 1.63719,-0.50911 1.63719,-0.50911c0,0 -0.5136,1.50169 -0.62941,2.17399c-0.09475,0.55 0.23811,1.45854 0.23811,1.45854z" fill="#ffffff" stroke="#ff2222" stroke-width="0" stroke-linecap="round"/></g></g></svg>