<svg version="1.1" xmlns="http://www.w3.org/2000/svg" xmlns:xlink="http://www.w3.org/1999/xlink" width="101.78488" height="101.78488" viewBox="0,0,101.78488,101.78488"><g transform="translate(-189.10756,-129.10756)"><g data-paper-data="{&quot;isPaintingLayer&quot;:true}" fill-rule="nonzero" stroke-linejoin="miter" stroke-miterlimit="10" stroke-dasharray="" stroke-dashoffset="0" style="mix-blend-mode: normal"><path d="M255.92007,140.62357c0.84751,0.42672 4.11922,5.93297 3.21136,11.69926c6.21306,4.88067 10.53167,12.07582 11.49935,20.45545c1.33701,11.57778 2.60366,19.22877 3.94068,30.80655c0.4877,4.22322 -2.35281,9.75867 -6.8739,10.51368c-5.95747,0.99488 -8.08365,-5.76302 -8.54864,-5.74835c-0.517,0.09873 -0.4602,6.72389 -7.01345,7.54547c-5.80039,0.7272 -8.76014,-5.8607 -9.2387,-5.80668c-0.48982,0.03461 -0.87909,7.05293 -6.20924,7.91372c-5.71542,0.92301 -8.45717,-6.47712 -8.86081,-6.24512c-0.26199,-0.06735 -0.97775,6.98746 -7.0943,7.76453c-4.66614,0.5928 -8.15171,-4.49897 -8.63941,-8.72219c-1.33568,-11.5663 -2.61118,-19.23954 -3.94686,-30.80584c-0.93167,-8.0678 1.4113,-15.77448 5.99316,-21.84187c-1.34556,-2.8549 -2.06627,-10.62747 -1.33062,-11.19279c1.14614,-0.88079 10.73014,2.9574 11.81051,2.29786c3.27178,-1.99733 7.18252,-2.99014 11.23702,-3.45835c4.39323,-0.50734 7.63179,-0.15138 11.60953,1.01293c1.20695,-0.97035 7.5233,-6.657 8.45431,-6.18824z" fill="#ffdc5f" stroke="#000000" stroke-width="2.5" stroke-linecap="butt"/><path d="M189.10756,230.89244v-101.78488h101.78488v101.78488z" fill="none" stroke="none" stroke-width="NaN" stroke-linecap="butt"/><path d="M265.63705,164.82851c0.77097,6.67621 -4.09817,12.72283 -10.87554,13.50549c-6.77737,0.78265 -12.89651,-3.99502 -13.66749,-10.67125c-0.77097,-6.67621 4.09817,-12.72283 10.87554,-13.50549c6.77737,-0.78265 12.89651,3.99502 13.66749,10.67125z" fill="#fff4c3" stroke="none" stroke-width="2.5" stroke-linecap="butt"/><path d="M220.48589,160.29937l2.17752,1.72667" fill="none" stroke="#000000" stroke-width="2.5" stroke-linecap="round"/><path d="M244.70511,177.52185c0.39717,3.43926 0.13238,8.19511 -4.92536,8.77917c-5.05774,0.58407 -5.49239,-4.73903 -5.88956,-8.17829c-0.12472,-1.07995 -0.32582,-3.7095 4.73193,-4.29357c5.05775,-0.58407 6.08299,3.69269 6.08299,3.69269z" fill="#ff2929" stroke="#000000" stroke-width="0.5" stroke-linecap="butt"/><path d="M251.62537,155.71223l-1.72668,2.17752" data-paper-data="{&quot;index&quot;:null}" fill="none" stroke="#000000" stroke-width="2.5" stroke-linecap="round"/><path d="M245.06012,176.6918c0,0 1.98831,8.73999 -4.67489,9.49955c-6.50746,0.74182 -6.78842,-8.67385 -6.78842,-8.67385" fill="none" stroke="#000000" stroke-width="2.5" stroke-linecap="round"/><path d="M233.57828,178.05137c-0.08973,-0.77704 0.46743,-1.47967 1.24446,-1.5694c0.77704,-0.08973 1.47967,0.46743 1.5694,1.24445c0.08973,0.77704 0.04934,3.54945 -0.72769,3.63918c-0.77704,0.08973 -1.99645,-2.5372 -2.08619,-3.31423z" fill="#ffffff" stroke="none" stroke-width="0" stroke-linecap="butt"/><path d="M242.21872,176.9065c-0.08973,-0.77704 0.46743,-1.47968 1.24445,-1.56941c0.77704,-0.08973 1.47967,0.46743 1.5694,1.24446c0.08973,0.77704 0.04934,3.54945 -0.72769,3.63918c-0.77704,0.08973 -1.99645,-2.53719 -2.08619,-3.31423z" fill="#ffffff" stroke="none" stroke-width="0" stroke-linecap="butt"/><path d="M222.32801,183.25617l-4.6766,2.18724" fill="none" stroke="#000000" stroke-width="2.5" stroke-linecap="round"/><path d="M214.4082,180.38382l7.10182,0.18592" fill="none" stroke="#000000" stroke-width="2.5" stroke-linecap="round"/><path d="M257.06898,178.40662l5.05205,1.06376" data-paper-data="{&quot;index&quot;:null}" fill="none" stroke="#000000" stroke-width="2.5" stroke-linecap="round"/><path d="M264.12568,173.80476l-6.87252,1.79968" data-paper-data="{&quot;index&quot;:null}" fill="none" stroke="#000000" stroke-width="2.5" stroke-linecap="round"/><path d="M248.46808,171.5925c0,0 -1.74575,3.36186 -4.22287,3.65315c-2.47714,0.29131 -5.89741,-2.46301 -5.89741,-2.46301c0,0 -2.53113,3.27121 -4.99374,3.35973c-2.46262,0.08851 -4.83341,-1.69901 -4.83341,-1.69901" fill="none" stroke="#000000" stroke-width="2.5" stroke-linecap="round"/><path d="M240.79098,170.04516c0,0 -1.45822,2.50979 -2.33257,2.61075c-0.89039,0.10282 -2.9625,-1.99928 -2.9625,-1.99928" fill="none" stroke="#000000" stroke-width="2.5" stroke-linecap="round"/><path d="M251.10459,165.82536c-0.33902,-2.93569 1.76601,-5.59034 4.70168,-5.92935c2.93569,-0.33902 5.59034,1.766 5.92935,4.70168c0.33902,2.93569 -1.76601,5.59034 -4.70168,5.92935c-2.93569,0.33902 -5.59034,-1.76601 -5.92935,-4.70168z" fill="#ffffff" stroke="#000000" stroke-width="2.5" stroke-linecap="butt"/><path d="M214.60425,172.38288c-0.63663,-2.05983 -0.02729,-4.28178 1.53794,-5.56369c0.72248,-0.59169 3.84732,-1.12409 5.87008,-0.05547c1.21022,0.63936 2.38039,1.04813 2.81648,2.45913c0.41111,1.33017 0.27753,2.6987 -0.274,3.86543c-2.09792,-0.89128 -4.51015,-1.07385 -6.85842,-0.34808c-0.86137,0.26622 -1.66088,0.6382 -2.38868,1.09727c-0.29952,-0.43544 -0.5391,-0.923 -0.7034,-1.45458z" fill="#ffffff" stroke="#000000" stroke-width="2.5" stroke-linecap="butt"/></g></g></svg>