<svg version="1.1" xmlns="http://www.w3.org/2000/svg" xmlns:xlink="http://www.w3.org/1999/xlink" width="86.44165" height="86.44165" viewBox="0,0,86.44165,86.44165"><defs><linearGradient x1="237.79574" y1="153.60585" x2="216.11882" y2="192.92972" gradientUnits="userSpaceOnUse" id="color-1"><stop offset="0" stop-color="#ff22c0"/><stop offset="1" stop-color="#ff6a1a"/></linearGradient></defs><g transform="translate(-196.77918,-136.77918)"><g data-paper-data="{&quot;isPaintingLayer&quot;:true}" fill-rule="nonzero" stroke-linejoin="miter" stroke-miterlimit="10" stroke-dasharray="" stroke-dashoffset="0" style="mix-blend-mode: normal"><g><g><path d="M259.47008,199.25243c0,0 -9.60463,-4.69758 -12.07831,-10.27409c-3.62063,-8.16212 -0.38026,-7.58704 -2.14944,-11.53194c-1.76916,-3.94492 -4.64876,-8.13325 -5.64236,-9.37376c-0.38151,-0.47631 0.70559,-4.59583 0.86418,-5.52716c0.26282,-1.5433 -0.81111,-3.9398 0.49741,-5.80014c1.06535,-1.51461 2.11138,-2.98175 2.11138,-2.98175" fill="none" stroke="#ffd0d0" stroke-width="2" stroke-linecap="round"/><path d="M233.89918,151.4579c1.18144,0.65126 -0.78695,4.38827 1.63531,6.05845c2.42223,1.67019 4.1277,-3.37286 4.5854,-1.76913c0.22243,0.77935 -0.56739,1.88985 -0.57641,2.97671c-0.01581,1.90608 0.72189,2.75916 0.81561,4.67521c0.08169,1.67034 -0.93543,2.90504 -0.60769,3.8189c-0.56328,0.0172 -0.68586,1.5944 -1.22416,1.6091c-10.74361,0.29341 -16.63049,0.3582 -22.45375,10.92211c-1.59728,2.89762 -4.52936,8.5058 -2.97893,12.40365c-4.32083,-2.5831 -3.55777,-13.1407 1.31442,-21.0378c6.78057,-10.99033 19.49018,-19.65724 19.49018,-19.65724z" fill="url(#color-1)" stroke="#ffffff" stroke-width="0.5" stroke-linecap="butt"/></g><path d="M218.015,217.20365c-20.54701,-12.14198 -27.36062,-38.64164 -15.21864,-59.18865c12.14198,-20.54701 38.64164,-27.36062 59.18865,-15.21864c20.54701,12.14198 27.36062,38.64164 15.21864,59.18865c-12.14198,20.54701 -38.64164,27.36062 -59.18865,15.21864z" fill="none" stroke="none" stroke-width="0" stroke-linecap="butt"/></g></g></g></svg>