<svg version="1.1" xmlns="http://www.w3.org/2000/svg" xmlns:xlink="http://www.w3.org/1999/xlink" width="46.75" height="46.75" viewBox="0,0,46.75,46.75"><g transform="translate(-216.625,-156.625)"><g data-paper-data="{&quot;isPaintingLayer&quot;:true}" fill="none" fill-rule="nonzero" stroke-linejoin="miter" stroke-miterlimit="10" stroke-dasharray="" stroke-dashoffset="0" style="mix-blend-mode: normal"><path d="M229.70248,170.37772l21.60792,21.60792" stroke="#ffffff" stroke-width="1" stroke-linecap="round"/><path d="M250.80396,169.19604l-21.60792,21.60792" data-paper-data="{&quot;index&quot;:null}" stroke="#ffffff" stroke-width="1" stroke-linecap="round"/><path d="M226.66394,180.08443l25.99703,0.84406" stroke="#ffffff" stroke-width="1" stroke-linecap="round"/><path d="M238.8184,193.927l1.68812,-26.33465" stroke="#ffffff" stroke-width="1" stroke-linecap="round"/><path d="M235.77978,175.69532c0,0 1.45662,0.78083 1.99292,0.65314c0.63017,-0.15004 1.55213,-1.4972 1.55213,-1.4972c0,0 1.35674,0.85532 2.03323,1.08082c0.674,0.22467 2.01826,0.26968 2.01826,0.26968c0,0 -0.46487,1.97294 -0.31461,2.66414c0.12725,0.58535 1.15867,1.21853 1.15867,1.21853c0,0 -1.02761,0.87922 -1.19321,1.48641c-0.1718,0.62992 0.18034,2.22745 0.18034,2.22745c0,0 -1.64131,-0.05058 -2.34039,0.31416c-0.5675,0.29609 -1.54228,1.71158 -1.54228,1.71158c0,0 -0.85383,-0.959 -1.6165,-0.98624c-0.81005,-0.02893 -3.11023,0.81743 -3.11023,0.81743c0,0 -0.50622,-1.95374 -0.85005,-2.756c-0.33093,-0.77216 -1.17569,-1.97073 -1.17569,-1.97073c0,0 1.45297,-1.30991 1.98362,-2.17571c0.53838,-0.8784 1.22381,-3.05746 1.22381,-3.05746z" stroke="#ffffff" stroke-width="1" stroke-linecap="round"/><path d="M231.05305,171.64383c0,0 3.40578,0.62481 4.9499,0.26847c1.35796,-0.31338 3.82832,-2.29421 3.82832,-2.29421c0,0 1.90243,2.0715 3.20146,2.53338c1.2293,0.43708 4.39508,0.16761 4.39508,0.16761c0,0 -0.35419,3.16412 -0.02105,4.46891c0.34188,1.33904 2.0468,3.46525 2.0468,3.46525c0,0 -1.39564,2.17707 -1.67366,3.41548c-0.3315,1.4767 -0.18328,4.8563 -0.18328,4.8563c0,0 -3.97671,0.4954 -5.27957,0.99049c-1.48641,0.56483 -3.16102,2.21693 -3.16102,2.21693c0,0 -2.53816,-1.84256 -3.90791,-2.1713c-1.44024,-0.34566 -4.53269,0.14556 -4.53269,0.14556c0,0 -0.32775,-4.21666 -0.67562,-5.84004c-0.32595,-1.52111 -1.35012,-3.61342 -1.35012,-3.61342c0,0 2.01072,-1.98404 2.35813,-3.24962c0.42473,-1.54724 0.00523,-5.35978 0.00523,-5.35978z" stroke="#ffffff" stroke-width="1" stroke-linecap="round"/><path d="M216.625,203.375v-46.75h46.75v46.75z" stroke="none" stroke-width="2" stroke-linecap="butt"/></g></g></svg>