<svg version="1.1" xmlns="http://www.w3.org/2000/svg" xmlns:xlink="http://www.w3.org/1999/xlink" width="77.1" height="77.1" viewBox="0,0,77.1,77.1"><defs><radialGradient cx="240" cy="180" r="9.75418" gradientUnits="userSpaceOnUse" id="color-1"><stop offset="0" stop-color="#ffd95a"/><stop offset="1" stop-color="#ffd95a" stop-opacity="0"/></radialGradient></defs><g transform="translate(-201.45,-141.45)"><g data-paper-data="{&quot;isPaintingLayer&quot;:true}" fill-rule="nonzero" stroke-linejoin="miter" stroke-miterlimit="10" stroke-dasharray="" stroke-dashoffset="0" style="mix-blend-mode: normal"><path d="M230.24582,180c0,-5.38709 4.36709,-9.75418 9.75418,-9.75418c5.38709,0 9.75418,4.36709 9.75418,9.75418c0,5.38709 -4.36709,9.75418 -9.75418,9.75418c-5.38709,0 -9.75418,-4.36709 -9.75418,-9.75418z" fill="url(#color-1)" stroke="#ffe400" stroke-width="0" stroke-linecap="butt"/><path d="M234.16163,179.70664c0,-1.26967 4.5661,-5.83577 5.83577,-5.83577c1.26967,0 5.6943,4.5661 5.6943,5.83577c0,1.26967 -4.42462,5.83577 -5.6943,5.83577c-1.26967,0 -5.83577,-4.5661 -5.83577,-5.83577z" fill="#846500" stroke="#ffe400" stroke-width="2" stroke-linecap="butt"/><path d="M236.8563,179.14419c0,-0.4961 0.40216,-0.89826 0.89825,-0.89826c0.4961,0 0.89826,0.40217 0.89826,0.89826c0,0.4961 -0.40217,0.89826 -0.89826,0.89826c-0.4961,0 -0.89825,-0.40217 -0.89825,-0.89826z" fill="#ffe400" stroke="none" stroke-width="2" stroke-linecap="butt"/><path d="M241.28773,178.54534c0,-0.4961 0.40217,-0.89826 0.89826,-0.89826c0.4961,0 0.89826,0.40217 0.89826,0.89826c0,0.4961 -0.40217,0.89826 -0.89826,0.89826c-0.4961,0 -0.89826,-0.40217 -0.89826,-0.89826z" fill="#ffe400" stroke="none" stroke-width="2" stroke-linecap="butt"/><path d="M241.70692,181.53956c0,0 -0.95815,0.47907 -1.43722,0.47907c-0.47907,0 -1.43722,-0.47907 -1.43722,-0.47907" fill="#d4c300" stroke="#ffe400" stroke-width="2" stroke-linecap="round"/><path d="M201.45,218.55v-77.1h77.1v77.1z" fill="none" stroke="none" stroke-width="NaN" stroke-linecap="butt"/></g></g></svg>