<svg version="1.1" xmlns="http://www.w3.org/2000/svg" xmlns:xlink="http://www.w3.org/1999/xlink" width="122" height="122" viewBox="0,0,122,122"><g transform="translate(-179,-119)"><g data-paper-data="{&quot;isPaintingLayer&quot;:true}" fill-rule="nonzero" stroke-linejoin="miter" stroke-miterlimit="10" stroke-dasharray="" stroke-dashoffset="0" style="mix-blend-mode: normal"><path d="M226.42847,206.59758c0,0 -5.16685,-0.17125 -9.3472,-4.64853c-6.32909,-6.77862 -8.62094,-12.10832 -10.89536,-22.28326c-1.93617,-8.66168 -1.61114,-20.29423 4.99359,-20.22813c3.73444,0.03737 6.77301,8.24906 6.79918,17.94652c0.02618,9.69747 8.4498,29.21339 8.4498,29.21339z" fill="#cecece" stroke="#000000" stroke-width="2" stroke-linecap="butt"/><path d="M227.00324,157.09348c0,0 -9.82191,-7.22752 -9.47136,-8.74805c0.2321,-1.00677 11.731,-0.66721 11.731,-0.66721" fill="#cecece" stroke="#000000" stroke-width="2" stroke-linecap="round"/><path d="M230.70566,144.59368c0,0 -7.91795,-7.72257 -7.71171,-8.84813c0.23921,-1.30553 11.73099,-0.66721 11.73099,-0.66721" fill="#cecece" stroke="#000000" stroke-width="2" stroke-linecap="round"/><path d="M262.79258,147.42296c0.45854,12.62029 19.81255,61.46046 4.42529,62.33562c-12.5326,0.7128 -28.17822,5.36122 -37.19663,1.01554c-4.91095,-2.36643 -6.35107,-10.03978 -7.71945,-16.39065c-5.49431,-25.49998 11.51166,-59.81188 11.51166,-59.81188c0,0 2.27851,0.07021 5.54086,0.50824c8.11258,1.08929 23.06712,2.12799 23.43828,12.34311z" fill="#cecece" stroke="#000000" stroke-width="2" stroke-linecap="butt"/><path d="M242.63047,149.1141l-3.49387,11.34716" fill="none" stroke="#ffb0b0" stroke-width="1" stroke-linecap="round"/><path d="M267.62182,196.07684c0.46804,8.22906 -3.75096,11.75596 -11.66591,12.20613c-7.91495,0.45017 -14.47901,-1.7823 -14.94704,-10.01138c-0.46804,-8.22907 4.85994,-15.90578 12.77489,-16.35595c7.91494,-0.45017 13.37004,5.93213 13.83807,14.16119z" fill="#e2e2e2" stroke="#000000" stroke-width="2" stroke-linecap="butt"/><path d="M266.097,150.29153c8.02759,0.58765 17.78216,0.06412 12.79135,6.3834c-0.10209,0.12925 -0.2102,0.26005 -0.32448,0.39242c-2.19181,2.53854 0.81101,10.65346 -2.53585,12.23585c-0.08915,0.04215 -0.06073,3.27743 -0.16408,3.32184c-5.50301,2.36517 -30.85031,4.65169 -32.39485,2.41483c-3.76307,-5.44979 -3.70837,-15.75765 4.96038,-19.92912c8.66875,-4.17147 17.66755,-4.81921 17.66755,-4.81921z" fill="#e2e2e2" stroke="#000000" stroke-width="2" stroke-linecap="butt"/><path d="M255.89587,169.3895c0,0 2.63625,-2.41318 3.93708,-3.03698c3.33023,-1.597 16.5602,-6.79237 16.5602,-6.79237l0.12623,8.46026c0,0 -9.62072,0.89998 -12.11801,0.83936c-2.69146,-0.06534 -6.11808,1.12596 -7.37868,0.77486c-0.42933,-0.11958 -1.12683,-0.24513 -1.12683,-0.24513z" fill="#ffffff" stroke="#000000" stroke-width="0" stroke-linecap="butt"/><path d="M279.46859,150.36781c0.485,2.17975 -1.18804,5.26355 -3.96097,5.88054c-2.77293,0.61699 -5.59571,-1.46647 -6.08072,-3.64622c-0.485,-2.17975 2.09174,-2.89362 4.86468,-3.5106c2.77293,-0.61699 4.69199,-0.90347 5.177,1.27629z" fill="#4d4d4d" stroke="#000000" stroke-width="2" stroke-linecap="butt"/><path d="M255.94258,170.2572c0,0 8.02394,-1.43607 13.32692,-2.57895c2.8735,-0.61929 8.28807,0.40384 8.28807,0.40384" fill="none" stroke="#000000" stroke-width="2" stroke-linecap="round"/><path d="M266.06995,164.59966l0.60217,6.57973c0,0 -1.14373,0.57866 -1.91906,-0.35246c-0.94232,-1.13164 -3.23325,-5.50911 -3.23325,-5.50911" data-paper-data="{&quot;index&quot;:null}" fill="#ffffff" stroke="#000000" stroke-width="2" stroke-linecap="round"/><path d="M277.31476,160.32103c0,0 -0.27683,5.12221 -0.70749,6.52914c-0.3543,1.15759 -1.63345,1.06466 -1.63345,1.06466l-1.99397,-6.30069" fill="#ffffff" stroke="#000000" stroke-width="2" stroke-linecap="round"/><path d="M238.50837,159.37674l1.78613,1.07174" fill="none" stroke="#ffb0b0" stroke-width="1" stroke-linecap="round"/><path d="M240.61653,158.41795l-1.7861,-1.07173" fill="none" stroke="#ffb0b0" stroke-width="1" stroke-linecap="round"/><path d="M243.535,150.66767l-1.78611,-1.07173" fill="none" stroke="#ffb0b0" stroke-width="1" stroke-linecap="round"/><path d="M255.33633,169.6077c0,0 5.16029,-4.08494 8.68022,-5.11235c1.41367,-0.41262 13.80193,-5.47245 13.80193,-5.47245" fill="none" stroke="#000000" stroke-width="2" stroke-linecap="round"/><path d="M267.22139,164.38155l1.99968,3.06748" fill="none" stroke="#000000" stroke-width="0.5" stroke-linecap="round"/><path d="M269.85626,167.01499l0.35522,-4.32321" fill="none" stroke="#000000" stroke-width="0.5" stroke-linecap="round"/><path d="M273.04819,166.89019l-2.30996,-4.46194" fill="none" stroke="#000000" stroke-width="0.5" stroke-linecap="round"/><path d="M260.43557,168.08668l0.30957,-1.23968" fill="none" stroke="#000000" stroke-width="0.5" stroke-linecap="round"/><path d="M241.99784,210.94713c0,0 1.35578,4.74383 -1.01563,6.75018c-1.28987,1.0913 -6.59424,0.03255 -7.12971,0.03888c-1.27697,0.01508 -0.37277,-6.68845 -0.37277,-6.68845" fill="#cecece" stroke="#000000" stroke-width="2" stroke-linecap="round"/><path d="M271.55862,204.88499c0,0 3.56516,3.41052 2.531,6.3396c-0.5625,1.59319 -5.67582,3.35709 -6.13484,3.63287c-1.09469,0.65768 -3.69834,-5.5854 -3.69834,-5.5854" fill="#cecece" stroke="#000000" stroke-width="2" stroke-linecap="round"/><path d="M242.92902,185.81402c0,0 -2.08773,4.47028 -5.19374,4.4296c-1.68943,-0.02211 -4.99933,-4.30019 -5.40771,-4.64659c-0.97388,-0.8261 4.10516,-5.2936 4.10516,-5.2936" fill="#cecece" stroke="#000000" stroke-width="2" stroke-linecap="round"/><path d="M269.08167,178.66772c0,0 4.84233,-0.9454 6.63869,1.58879c0.97708,1.3784 -0.5311,6.5729 -0.57055,7.10693c-0.0941,1.27359 -6.69585,-0.20017 -6.69585,-0.20017" fill="#cecece" stroke="#000000" stroke-width="2" stroke-linecap="round"/><path d="M240.70472,147.29509l5.625,2.25l-0.5625,6.1875l-3.9375,2.8125l-4.6875,-2.0625l-1.125,-4.5l3.9375,-3.5625l3.5625,3.375l-1.3125,3.375l-2.8125,-0.375l-0.5625,-2.4375l1.6875,-0.9375" fill="none" stroke="#000000" stroke-width="1.5" stroke-linecap="round"/><path d="M254.95473,143.29509l5.625,2.25l-0.5625,6.1875l-3.9375,2.8125l-4.6875,-2.0625l-1.125,-4.5l3.9375,-3.5625l3.5625,3.375l-1.3125,3.375l-2.8125,-0.375l-0.5625,-2.4375l1.6875,-0.9375" fill="none" stroke="#000000" stroke-width="1.5" stroke-linecap="round"/><path d="M179,241v-122h122v122z" fill="none" stroke="none" stroke-width="none" stroke-linecap="butt"/></g></g></svg>