<svg version="1.1" xmlns="http://www.w3.org/2000/svg" xmlns:xlink="http://www.w3.org/1999/xlink" width="154.82873" height="81.71429" viewBox="0,0,154.82873,81.71429"><defs><radialGradient cx="177.14627" cy="162.01234" r="67.87944" gradientUnits="userSpaceOnUse" id="color-1"><stop offset="0" stop-color="#7f4200"/><stop offset="1" stop-color="#c3a900"/></radialGradient></defs><g transform="translate(-161.45698,-139.1429)"><g data-paper-data="{&quot;isPaintingLayer&quot;:true}" fill-rule="nonzero" stroke-linecap="butt" stroke-linejoin="miter" stroke-miterlimit="10" stroke-dasharray="" stroke-dashoffset="0" style="mix-blend-mode: normal"><g><path d="M163.71428,220.85719v-81.71429h152.57143v81.71429z" fill="none" stroke="none" stroke-width="NaN"/><path d="M177.9073,145.33338c23.53221,0 111.40798,0 124.33333,0c4.02142,0 5.63884,3.2976 5.63884,7.31901c0,14.9251 0,48.11843 0,55.83334c0,3.60345 -2.03539,6.18099 -5.63884,6.18099c-14.94675,0 -130.12003,0 -130.12003,0c0,0 0,-51.443 0,-62.01433c0,-5.57133 2.1065,-7.31901 5.7867,-7.31901z" data-paper-data="{&quot;index&quot;:null}" fill="url(#color-1)" stroke="#ffffff" stroke-width="1"/><path d="M306.07392,157.24201c0,-1.75066 0,-6.2276 0,-6.2276" fill="none" stroke="#ffe300" stroke-width="0.5"/><path d="M177.77245,160.84771c19.92941,0 113.82298,0 124.9,0" fill="none" stroke="#ffe300" stroke-width="0.5"/><path d="M174.24069,151.24196c0,2.1292 0,4.86356 0,6.2" fill="none" stroke="#ffe300" stroke-width="0.5"/><path d="M302.6074,147.51435c0,0 -112.85217,0 -124.83489,0" fill="none" stroke="#ffe300" stroke-width="0.5"/><path d="M306.07239,151.142c-1.98822,0 -3.6,-1.61177 -3.6,-3.6" fill="none" stroke="#ffe300" stroke-width="0.5"/><path d="M302.47238,160.64195c0,-1.98822 1.61177,-3.6 3.6,-3.6" data-paper-data="{&quot;index&quot;:null}" fill="none" stroke="#ffe300" stroke-width="0.5"/><path d="M174.37238,157.142c1.98823,0 3.6,1.61177 3.6,3.6" data-paper-data="{&quot;index&quot;:null}" fill="none" stroke="#ffe300" stroke-width="0.5"/><path d="M177.9724,147.84198c0,1.98823 -1.61177,3.6 -3.6,3.6" data-paper-data="{&quot;index&quot;:null}" fill="none" stroke="#ffe300" stroke-width="0.5"/><path d="M173.9724,158.84198c1.1598,0 2.1,0.9402 2.1,2.1" data-paper-data="{&quot;index&quot;:null}" fill="none" stroke="#ffe300" stroke-width="0.5"/><path d="M176.07242,147.24196c0,1.1598 -0.9402,2.1 -2.1,2.1" data-paper-data="{&quot;index&quot;:null}" fill="none" stroke="#ffe300" stroke-width="0.5"/><path d="M304.07239,161.042c0,-1.1598 0.9402,-2.1 2.1,-2.1" data-paper-data="{&quot;index&quot;:null}" fill="none" stroke="#ffe300" stroke-width="0.5"/><path d="M306.17242,149.44198c-1.1598,0 -2.1,-0.9402 -2.1,-2.1" data-paper-data="{&quot;index&quot;:null}" fill="none" stroke="#ffe300" stroke-width="0.5"/><path d="M305.29616,156.40312c0,-1.26808 0,-4.51094 0,-4.51094" fill="none" stroke="#ffe300" stroke-width="0.5"/><path d="M175.24069,156.54799c0,-0.96805 0,-2.94867 0,-4.49095" fill="none" stroke="#ffe300" stroke-width="0.5"/><path d="M301.92386,159.92371c-10.92653,0 -103.54453,0 -123.20319,0" fill="none" stroke="#ffe300" stroke-width="0.5"/><path d="M178.72069,148.4384c11.81993,0 123.13896,0 123.13896,0" fill="none" stroke="#ffe300" stroke-width="0.5"/><path d="M306.07392,209.24202c0,-1.75066 0,-43.2276 0,-43.2276" fill="none" stroke="#ffe300" stroke-width="0.5"/><path d="M177.77245,212.84777c19.92941,0 113.82298,0 124.9,0" fill="none" stroke="#ffe300" stroke-width="0.5"/><path d="M174.24069,209.44197c0,-1.33644 0,-41.0708 0,-43.2" fill="none" stroke="#ffe300" stroke-width="0.5"/><path d="M302.60733,162.51435c0,0 -112.85217,0 -124.83489,0" fill="none" stroke="#ffe300" stroke-width="0.5"/><path d="M306.07239,166.142c-1.98822,0 -3.6,-1.61177 -3.6,-3.6" fill="none" stroke="#ffe300" stroke-width="0.5"/><path d="M302.47238,212.642c0,-1.98822 1.61177,-3.6 3.6,-3.6" data-paper-data="{&quot;index&quot;:null}" fill="none" stroke="#ffe300" stroke-width="0.5"/><path d="M174.37238,209.142c1.98823,0 3.6,1.61177 3.6,3.6" data-paper-data="{&quot;index&quot;:null}" fill="none" stroke="#ffe300" stroke-width="0.5"/><path d="M177.9724,162.84198c0,1.98823 -1.61177,3.6 -3.6,3.6" data-paper-data="{&quot;index&quot;:null}" fill="none" stroke="#ffe300" stroke-width="0.5"/><path d="M176.07242,212.94198c-1.1598,0 -2.1,-0.9402 -2.1,-2.1" data-paper-data="{&quot;index&quot;:null}" fill="none" stroke="#ffe300" stroke-width="0.5"/><path d="M173.9724,164.34198c0,-1.1598 0.9402,-2.1 2.1,-2.1" data-paper-data="{&quot;index&quot;:null}" fill="none" stroke="#ffe300" stroke-width="0.5"/><path d="M304.07239,213.042c0,-1.1598 0.9402,-2.1 2.1,-2.1" data-paper-data="{&quot;index&quot;:null}" fill="none" stroke="#ffe300" stroke-width="0.5"/><path d="M304.07239,162.34198c1.1598,0 2.1,0.9402 2.1,2.1" data-paper-data="{&quot;index&quot;:null}" fill="none" stroke="#ffe300" stroke-width="0.5"/><path d="M305.29616,208.40312c0,-1.26808 0,-41.51094 0,-41.51094" fill="none" stroke="#ffe300" stroke-width="0.5"/><path d="M175.24069,208.54799c0,-0.96805 0,-39.94867 0,-41.49095" fill="none" stroke="#ffe300" stroke-width="0.5"/><path d="M301.92391,211.92371c-10.92653,0 -103.54453,0 -123.20319,0" fill="none" stroke="#ffe300" stroke-width="0.5"/><path d="M178.7207,163.4384c11.81993,0 123.13896,0 123.13896,0" fill="none" stroke="#ffe300" stroke-width="0.5"/></g><text transform="translate(178.42851,158.30681) scale(0.29005,0.29005)" font-size="40" xml:space="preserve" fill="#ffffff" fill-rule="nonzero" stroke="none" stroke-width="1" stroke-linecap="butt" stroke-linejoin="miter" stroke-miterlimit="10" stroke-dasharray="" stroke-dashoffset="0" font-family="Malgun Gothic" font-weight="normal" text-anchor="start" style="mix-blend-mode: normal"><tspan x="0" dy="0">Special Buff</tspan></text><text transform="translate(178.12469,172.41047) scale(0.20814,0.20814)" font-size="40" xml:space="preserve" fill="#ffffff" fill-rule="nonzero" stroke="none" stroke-width="1" stroke-linecap="butt" stroke-linejoin="miter" stroke-miterlimit="10" stroke-dasharray="" stroke-dashoffset="0" font-family="Malgun Gothic" font-weight="normal" text-anchor="start" style="mix-blend-mode: normal"><tspan x="0" dy="0"> View 3 random RARE buff from </tspan><tspan x="0" dy="48px">the shop and choose 1 to take</tspan></text><text transform="translate(161.70698,186.11961) scale(0.5,0.5)" font-size="40" xml:space="preserve" fill="#c7c7c7" fill-rule="nonzero" stroke="none" stroke-width="1" stroke-linecap="butt" stroke-linejoin="miter" stroke-miterlimit="10" stroke-dasharray="" stroke-dashoffset="0" font-family="Malgun Gothic" font-weight="normal" text-anchor="start" style="mix-blend-mode: normal"><tspan x="0" dy="0"> </tspan></text></g></g></svg>