<svg version="1.1" xmlns="http://www.w3.org/2000/svg" xmlns:xlink="http://www.w3.org/1999/xlink" width="134.19024" height="134.61729" viewBox="0,0,134.19024,134.61729"><g transform="translate(-173.14739,-112.81716)"><g data-paper-data="{&quot;isPaintingLayer&quot;:true}" fill="none" fill-rule="nonzero" stroke="#ffffff" stroke-width="0.5" stroke-linejoin="miter" stroke-miterlimit="10" stroke-dasharray="" stroke-dashoffset="0" style="mix-blend-mode: normal"><path d="M174.42252,185.83065l1.9095,0.95476l-1.273,3.81901l1.59125,2.22776" stroke-linecap="round"/><path d="M182.9638,215.17712l2.93056,-0.65124l0.16281,3.41899z" stroke-linecap="round"/><path d="M188.17368,217.45645l-0.65124,2.93056" stroke-linecap="round"/><path d="M187.52244,219.41015l2.44214,0.65124v3.58179" stroke-linecap="round"/><path d="M190.61581,225.10846l1.30247,-2.11652l-2.11652,-0.65123" stroke-linecap="round"/><path d="M197.94221,227.87621l-3.25618,0.48843l-0.16281,-2.76775l-2.44213,0.81405l0.65124,-1.7909l4.39584,5.69831" stroke-linecap="round"/><path d="M198.26782,229.5043l2.11651,3.25617" stroke-linecap="round"/><path d="M197.7794,231.78362l3.25618,-1.46528" stroke-linecap="round"/><path d="M205.59422,236.34227l0.65123,-1.62808l2.44213,1.30247l0.65123,2.76775l0.97686,-1.13967z" stroke-linecap="round"/><path d="M212.92062,237.48193l0.65124,3.41899" stroke-linecap="round"/><path d="M215.19994,239.92406l2.11651,2.76775" stroke-linecap="round"/><path d="M219.27016,242.69181l2.76774,-0.65124" stroke-linecap="round"/><path d="M217.96769,240.24968l5.20989,3.74461l4.07022,-0.65124" stroke-linecap="round"/><path d="M229.03869,243.34305l0.48843,1.95371" stroke-linecap="round"/><path d="M231.64363,243.18024l0.81405,2.60494" stroke-linecap="round"/><path d="M235.06261,243.34305l3.74461,3.09337l-1.30247,-2.44213l-3.09337,1.13966" stroke-linecap="round"/><path d="M237.66755,243.50586l4.23303,1.30247l-2.44213,1.7909" stroke-linecap="round"/><path d="M242.71463,245.13394l3.41898,0.32562v-1.62809l2.93056,0.32562l-2.44213,2.44213" stroke-linecap="round"/><path d="M177.75392,204.26893l2.60494,-1.46528l-3.25618,-0.32561" stroke-linecap="round"/><path d="M180.19605,202.47804l-1.13966,-2.76775l-2.27932,0.16281" stroke-linecap="round"/><path d="M178.73077,203.6177l2.93056,1.30247l-2.27932,0.65124l-1.7909,-7.81482" stroke-linecap="round"/><path d="M178.89358,206.38545l1.95371,-0.32561l-0.65124,1.30247h2.11651" stroke-linecap="round"/><path d="M181.66133,212.08376l3.09337,1.30247l-2.44213,0.16281l1.7909,-2.60495l-1.46528,0.65124v-2.60494l-2.93055,-0.32561" stroke-linecap="round"/><path d="M187.19683,215.50274l-2.27932,-0.16281l1.95371,1.30247" stroke-linecap="round"/><path d="M192.73233,223.9688l1.7909,0.32562" stroke-linecap="round"/><path d="M188.4993,217.94487l0.65124,1.13966" stroke-linecap="round"/><path d="M191.10424,220.54981l0.16281,3.25618" stroke-linecap="round"/><path d="M212.92062,239.84266c0,0.58446 -0.43735,1.05826 -0.97686,1.05826c-0.5395,0 -0.97685,-0.47379 -0.97685,-1.05826c0,-0.58446 0.43735,-1.05826 0.97685,-1.05826c0.5395,0 0.97686,0.47379 0.97686,1.05826z" stroke-linecap="butt"/><path d="M228.38745,245.13394c0,0.35967 -0.58313,0.65124 -1.30247,0.65124c-0.71934,0 -1.30247,-0.29157 -1.30247,-0.65124c0,-0.35967 0.58313,-0.65123 1.30247,-0.65123c0.71934,0 1.30247,0.29157 1.30247,0.65123z" stroke-linecap="butt"/><path d="M251.6654,244.98757c0.09739,0.84864 -0.07713,1.56569 -0.38978,1.60156c-0.31266,0.03588 -0.64506,-0.623 -0.74245,-1.47163c-0.09739,-0.84864 0.07713,-1.56569 0.38978,-1.60156c0.31266,-0.03588 0.64506,0.623 0.74245,1.47163z" stroke-linecap="butt"/><path d="M273.08946,238.3397l-0.5468,-2.95182l3.42261,-0.04135z" stroke-linecap="round"/><path d="M275.55228,233.21401l2.9056,0.75485" stroke-linecap="round"/><path d="M277.48163,233.93419l0.73751,-2.41748l3.57954,0.12714" stroke-linecap="round"/><path d="M283.28615,231.04503l-2.06895,-1.37678l-0.72595,2.09207" stroke-linecap="round"/><path d="M286.31221,223.8215l0.37254,3.27146l-2.77179,0.06446l0.72685,2.46948l-1.76666,-0.71439l5.85075,-4.1908" stroke-linecap="round"/><path d="M287.95083,223.55388l3.32925,-1.9996" stroke-linecap="round"/><path d="M290.21139,224.1229l-1.34877,-3.30613" stroke-linecap="round"/><path d="M295.04455,216.47482l-1.60394,-0.70862l1.38833,-2.39436l2.78912,-0.55258l-1.10428,-1.01669z" stroke-linecap="round"/><path d="M296.44355,209.19349l3.43994,-0.52946" stroke-linecap="round"/><path d="M298.96506,207.00229l2.84113,-2.01693" stroke-linecap="round"/><path d="M301.87554,203.03288l-0.55258,-2.78911" stroke-linecap="round"/><path d="M299.38871,204.24785l3.92717,-5.07369l-0.50635,-4.09077" stroke-linecap="round"/><path d="M302.87311,193.29363l1.96981,-0.41877" stroke-linecap="round"/><path d="M302.80286,190.68455l2.63219,-0.72107" stroke-linecap="round"/><path d="M303.08693,187.2735l3.22433,-3.63244l-2.48682,1.21497l1.02914,3.13187" stroke-linecap="round"/><path d="M303.3421,184.67598l1.45191,-4.18413l1.70308,2.50416" stroke-linecap="round"/><path d="M305.14831,179.68987l0.44678,-3.40527l-1.62706,-0.05779l0.42944,-2.91716l2.3539,2.52728" stroke-linecap="round"/><path d="M262.00321,243.1591l-1.37189,-2.65531l-0.441,3.24256" stroke-linecap="round"/><path d="M260.30013,240.65494l-2.80646,1.0407l0.0818,2.28367" stroke-linecap="round"/><path d="M261.38706,242.15975l1.40567,-2.88248l0.56992,2.30101l-7.87346,1.51237" stroke-linecap="round"/><path d="M264.15885,242.09529l-0.25606,-1.96403l1.27853,0.69706l0.07513,-2.11518" stroke-linecap="round"/><path d="M269.9518,239.53155l1.41146,-3.04519l0.07602,2.44637l-2.53974,-1.88223l0.59882,1.48748l-2.6033,-0.09247l-0.42943,2.91715" stroke-linecap="round"/><path d="M273.56513,234.1209l-0.24362,2.2721l1.371,-1.90624" stroke-linecap="round"/><path d="M282.22234,228.8894l0.38898,-1.77821" stroke-linecap="round"/><path d="M276.05195,232.90594l1.16206,-0.61037" stroke-linecap="round"/><path d="M278.74771,230.3951l3.25991,-0.04713" stroke-linecap="round"/><path d="M298.80279,209.27729c0.58409,0.02075 1.04207,0.47464 1.02292,1.0138c-0.01915,0.53916 -0.50817,0.95942 -1.09226,0.93867c-0.58409,-0.02075 -1.04207,-0.47463 -1.02292,-1.01379c0.01915,-0.53916 0.50817,-0.95943 1.09226,-0.93868z" stroke-linecap="butt"/><path d="M304.63975,194.00802c0.35944,0.01277 0.63013,0.60589 0.60459,1.32477c-0.02553,0.71888 -0.33762,1.29129 -0.69706,1.27853c-0.35944,-0.01277 -0.63013,-0.60588 -0.60459,-1.32476c0.02553,-0.71888 0.33762,-1.2913 0.69706,-1.27853z" stroke-linecap="butt"/><path d="M305.31975,170.73955c0.85156,-0.0672 1.56196,0.13266 1.58672,0.44639c0.02476,0.31373 -0.64551,0.62254 -1.49707,0.68974c-0.85156,0.0672 -1.56196,-0.13266 -1.58672,-0.44639c-0.02476,-0.31373 0.64551,-0.62254 1.49707,-0.68974z" stroke-linecap="butt"/><path d="M254.86494,115.73475l-3.23755,1.11096l-0.47671,-2.96395z" data-paper-data="{&quot;index&quot;:null}" stroke-linecap="round"/><path d="M255.19243,117.88206l2.48309,-1.68717" data-paper-data="{&quot;index&quot;:null}" stroke-linecap="round"/><path d="M261.60327,117.26234l-3.32875,1.32238l-1.50685,-2.02918" data-paper-data="{&quot;index&quot;:null}" stroke-linecap="round"/><path d="M263.20547,117.3266l-1.48613,1.99186l-1.38663,-1.72656" data-paper-data="{&quot;index&quot;:null}" stroke-linecap="round"/><path d="M268.48254,123.11357l-0.74824,-3.20645l-2.63232,0.87053l-0.14508,-2.57014l-1.42395,1.26642l6.91866,1.9815" data-paper-data="{&quot;index&quot;:null}" stroke-linecap="round"/><path d="M270.11582,122.8151l3.80754,0.76483" data-paper-data="{&quot;index&quot;:null}" stroke-linecap="round"/><path d="M272.05379,121.51967l-0.1596,3.5671" data-paper-data="{&quot;index&quot;:null}" stroke-linecap="round"/><path d="M282.12914,131.00642l0.6985,-1.3286l-2.81265,0.41661l-2.11207,-1.78874l1.27263,-1.20631z" data-paper-data="{&quot;index&quot;:null}" stroke-linecap="round"/><path d="M282.93956,133.48743l3.41788,-0.65704" data-paper-data="{&quot;index&quot;:null}" stroke-linecap="round"/><path d="M286.05067,134.70411l3.35361,0.94515" data-paper-data="{&quot;index&quot;:null}" stroke-linecap="round"/><path d="M290.12559,137.46495l0.41661,2.81265" data-paper-data="{&quot;index&quot;:null}" stroke-linecap="round"/><path d="M287.37512,137.15611l5.40351,3.45934l0.89747,4.0231" data-paper-data="{&quot;index&quot;:null}" stroke-linecap="round"/><path d="M294.33728,146.30292l1.996,-0.26737" data-paper-data="{&quot;index&quot;:null}" stroke-linecap="round"/><path d="M295.1477,148.78394l2.72145,-0.20519" data-paper-data="{&quot;index&quot;:null}" stroke-linecap="round"/><path d="M296.56127,151.90127l4.25731,2.33801l-2.75047,-0.30884l-0.0829,-3.29558" data-paper-data="{&quot;index&quot;:null}" stroke-linecap="round"/><path d="M301.21032,154.7844l-0.76276,2.93078l-2.77326,-3.45311" data-paper-data="{&quot;index&quot;:null}" stroke-linecap="round"/><path d="M303.85507,161.44189l-1.36798,3.17123l-1.38456,-2.60331l1.51307,-0.60108l-1.56488,-3.05722" data-paper-data="{&quot;index&quot;:null}" stroke-linecap="round"/><path d="M239.08967,113.06717l-0.40004,2.96188l-1.50477,-2.90592" data-paper-data="{&quot;index&quot;:null}" stroke-linecap="round"/><path d="M238.32691,115.99795l-2.99297,-0.03731l-0.6902,-2.1784" data-paper-data="{&quot;index&quot;:null}" stroke-linecap="round"/><path d="M232.97729,115.32017l7.92391,-1.2208l0.23628,2.35873l-2.29239,-2.24266" data-paper-data="{&quot;index&quot;:null}" stroke-linecap="round"/><path d="M243.64752,116.16171l-0.7814,-1.96699l-0.97002,1.08609l-0.41869,-1.9359" data-paper-data="{&quot;index&quot;:null}" stroke-linecap="round"/><path d="M247.79499,113.81335l2.3525,2.39396l-0.7503,-2.32971l-1.75973,2.6261l0.06426,-1.60219l-2.42091,0.96173l-1.38456,-2.60331" data-paper-data="{&quot;index&quot;:null}" stroke-linecap="round"/><path d="M253.0161,117.69552l-0.99282,-2.05818l1.93175,1.33481" data-paper-data="{&quot;index&quot;:null}" stroke-linecap="round"/><path d="M262.92771,119.71434l0.9638,1.54415" data-paper-data="{&quot;index&quot;:null}" stroke-linecap="round"/><path d="M257.06613,118.18883l-1.29957,-0.18447" data-paper-data="{&quot;index&quot;:null}" stroke-linecap="round"/><path d="M262.23544,118.41269l-3.08625,1.05085" data-paper-data="{&quot;index&quot;:null}" stroke-linecap="round"/><path d="M283.78936,132.09873c-0.19918,-0.50138 0.07968,-1.08276 0.62285,-1.29854c0.54317,-0.21578 1.14496,0.01576 1.34414,0.51714c0.19918,0.50138 -0.07968,1.08276 -0.62284,1.29854c-0.54317,0.21578 -1.14496,-0.01576 -1.34414,-0.51714z" data-paper-data="{&quot;index&quot;:null}" stroke-linecap="butt"/><path d="M294.67513,144.06649c-0.26558,-0.66852 -0.20989,-1.3181 0.12436,-1.45088c0.33425,-0.13279 0.82052,0.3015 1.08609,0.97002c0.26558,0.66852 0.20989,1.3181 -0.12437,1.45088c-0.33425,0.13279 -0.82051,-0.3015 -1.08609,-0.97002z" data-paper-data="{&quot;index&quot;:null}" stroke-linecap="butt"/><path d="M302.57748,166.57729c-0.08209,-0.30381 0.51987,-0.73073 1.34451,-0.95354c0.82464,-0.2228 1.55969,-0.15713 1.64177,0.14668c0.08209,0.30381 -0.51988,0.73073 -1.34452,0.95353c-0.82464,0.2228 -1.55969,0.15714 -1.64177,-0.14667z" data-paper-data="{&quot;index&quot;:null}" stroke-linecap="butt"/><path d="M176.98867,161.38627l0.92911,3.29434l-2.98589,0.31107z" data-paper-data="{&quot;index&quot;:null}" stroke-linecap="round"/><path d="M179.15087,161.17877l-1.5464,-2.57312" data-paper-data="{&quot;index&quot;:null}" stroke-linecap="round"/><path d="M178.8888,154.74337l1.13512,3.39717l-2.10987,1.39161" data-paper-data="{&quot;index&quot;:null}" stroke-linecap="round"/><path d="M179.0421,153.14724l1.90608,1.59465l-1.80103,1.28842" data-paper-data="{&quot;index&quot;:null}" stroke-linecap="round"/><path d="M185.11372,148.20032l-3.24312,0.56868l0.72272,2.67668l-2.57423,0.00186l1.18523,1.4922l2.36338,-6.79768" data-paper-data="{&quot;index&quot;:null}" stroke-linecap="round"/><path d="M184.90659,146.55296l0.97549,-3.75908" data-paper-data="{&quot;index&quot;:null}" stroke-linecap="round"/><path d="M183.72099,144.54592l3.5527,0.35782" data-paper-data="{&quot;index&quot;:null}" stroke-linecap="round"/><path d="M193.75362,135.014l-1.28768,-0.77135l0.25947,2.83147l-1.90348,2.00928l-1.13363,-1.33778z" data-paper-data="{&quot;index&quot;:null}" stroke-linecap="round"/><path d="M195.81003,130.89374l0.46586,3.44913" data-paper-data="{&quot;index&quot;:null}" stroke-linecap="round"/><path d="M197.66377,131.30428l1.13028,-3.29584" data-paper-data="{&quot;index&quot;:null}" stroke-linecap="round"/><path d="M203.47852,127.12982l-2.83147,0.25947" data-paper-data="{&quot;index&quot;:null}" stroke-linecap="round"/><path d="M200.18566,130.11831l3.75462,-5.20267l4.06681,-0.67224" data-paper-data="{&quot;index&quot;:null}" stroke-linecap="round"/><path d="M209.54977,121.66806l0.1559,2.00778" data-paper-data="{&quot;index&quot;:null}" stroke-linecap="round"/><path d="M212.17448,120.27607l0.05346,2.72865" data-paper-data="{&quot;index&quot;:null}" stroke-linecap="round"/><path d="M215.41909,121.76678l2.57126,-4.12063l-0.46139,2.72902l-3.2951,-0.10058" data-paper-data="{&quot;index&quot;:null}" stroke-linecap="round"/><path d="M218.55642,117.28535l2.88381,0.92464l-3.60207,2.57684" data-paper-data="{&quot;index&quot;:null}" stroke-linecap="round"/><path d="M225.35076,115.01512l3.09019,1.5423l-2.6763,1.23757l-0.51596,-1.54417l-3.13956,1.39236" data-paper-data="{&quot;index&quot;:null}" stroke-linecap="round"/><path d="M173.4475,176.98869l2.93503,0.56421l-2.98514,1.34076" data-paper-data="{&quot;index&quot;:null}" stroke-linecap="round"/><path d="M176.33131,177.91333l-0.20378,2.98626l-2.21344,0.56793" data-paper-data="{&quot;index&quot;:null}" stroke-linecap="round"/><path d="M176.79084,172.61007l-2.00742,0.67075l1.03043,1.02895l-1.95619,0.31033" data-paper-data="{&quot;index&quot;:null}" stroke-linecap="round"/><path d="M174.67688,168.33837l2.52114,-2.21567l-2.36784,0.61953l2.52412,1.90311l-1.59614,-0.1533l0.82554,2.47066l-2.67631,1.23757" data-paper-data="{&quot;index&quot;:null}" stroke-linecap="round"/><path d="M178.84353,163.34135l-2.11024,0.87677l1.44023,-1.85449" data-paper-data="{&quot;index&quot;:null}" stroke-linecap="round"/><path d="M181.4107,153.5574l1.59539,-0.87639" data-paper-data="{&quot;index&quot;:null}" stroke-linecap="round"/><path d="M179.56142,159.32503l-0.2565,1.2873" data-paper-data="{&quot;index&quot;:null}" stroke-linecap="round"/><path d="M180.07254,154.17618l0.8775,3.13994" data-paper-data="{&quot;index&quot;:null}" stroke-linecap="round"/><path d="M194.93661,133.41712c-0.51169,0.17097 -1.07664,-0.13979 -1.26187,-0.69413c-0.18523,-0.55434 0.07943,-1.1423 0.59112,-1.31328c0.51169,-0.17097 1.07666,0.13979 1.26188,0.69412c0.18523,0.55434 -0.07944,1.14231 -0.59113,1.31329z" data-paper-data="{&quot;index&quot;:null}" stroke-linecap="butt"/><path d="M207.4915,123.21408c-0.68225,0.22796 -1.32773,0.13623 -1.44172,-0.20489c-0.11399,-0.34113 0.3467,-0.80247 1.02895,-1.03043c0.68225,-0.22796 1.32773,-0.13623 1.44171,0.20489c0.11399,0.34113 -0.34669,0.80247 -1.02894,1.03043z" data-paper-data="{&quot;index&quot;:null}" stroke-linecap="butt"/><path d="M230.40711,116.57645c-0.30791,0.06506 -0.70067,-0.55972 -0.87725,-1.39548c-0.17658,-0.83576 -0.07011,-1.56602 0.2378,-1.63107c0.30791,-0.06506 0.70067,0.55973 0.87725,1.39549c0.17658,0.83576 0.07011,1.56601 -0.2378,1.63106z" data-paper-data="{&quot;index&quot;:null}" stroke-linecap="butt"/><path d="M174.49774,188.15086l1.95371,0.48843" stroke-linecap="round"/><path d="M174.49774,192.5467l2.60494,-1.7909" stroke-linecap="round"/><path d="M175.14897,195.64006l1.7909,-1.7909l1.46528,2.44213z" stroke-linecap="round"/><path d="M173.68369,184.73187l-0.16281,-1.95371l2.60494,2.44213l-0.76889,-2.00335l-0.77804,-7.97956l2.36822,-0.10468l-2.36673,2.16406" stroke-linecap="round"/></g></g></svg>