<svg version="1.1" xmlns="http://www.w3.org/2000/svg" xmlns:xlink="http://www.w3.org/1999/xlink" width="59.55556" height="59.55556" viewBox="0,0,59.55556,59.55556"><g transform="translate(-210.22222,-150.22222)"><g data-paper-data="{&quot;isPaintingLayer&quot;:true}" fill-rule="nonzero" stroke-linejoin="miter" stroke-miterlimit="10" stroke-dasharray="" stroke-dashoffset="0" style="mix-blend-mode: normal"><path d="M239.84626,195.14667c-1.38376,-0.01949 -1.52182,-0.48956 -2.48623,-1.48171c-2.89325,-2.97646 -6.85303,-7.05013 -11.23932,-11.56258c-0.90571,-0.93176 -1.3195,-1.07442 -1.26021,-2.37248c0.05929,-1.29806 0.48984,-1.52209 1.48218,-2.48668c4.44248,-4.31828 8.51863,-8.28047 11.38331,-11.06507c0.95489,-0.9282 1.10212,-1.39135 2.43176,-1.31784c1.32965,0.07351 1.58947,0.55916 2.59718,1.59586c4.25028,4.37253 7.89557,8.12265 10.89082,11.20405c0.99841,1.02713 1.46589,1.1848 1.49777,2.61687c0.03188,1.43207 -0.43135,1.46523 -1.38625,2.39343c-0.95489,0.9282 -8.40631,8.17129 -11.38331,11.06507c-0.99234,0.9646 -1.14394,1.43058 -2.5277,1.41109z" fill="#131423" stroke="#ffffff" stroke-width="1" stroke-linecap="butt"/><path d="M239.84626,195.14667c-1.38376,-0.01949 -1.52182,-0.48956 -2.48623,-1.48171c-2.89325,-2.97646 -6.85303,-7.05013 -11.23932,-11.56258c-0.90571,-0.93176 -1.3195,-1.07442 -1.26021,-2.37248c0.05929,-1.29806 0.48984,-1.52209 1.48218,-2.48668c4.44248,-4.31828 8.51863,-8.28047 11.38331,-11.06507c0.95489,-0.9282 1.10212,-1.39135 2.43176,-1.31784c1.32965,0.07351 1.58947,0.55916 2.59718,1.59586c4.25028,4.37253 7.89557,8.12265 10.89082,11.20405c0.99841,1.02713 1.46589,1.1848 1.49777,2.61687c0.03188,1.43207 -0.43135,1.46523 -1.38625,2.39343c-0.95489,0.9282 -8.40631,8.17129 -11.38331,11.06507c-0.99234,0.9646 -1.14394,1.43058 -2.5277,1.41109z" fill="none" stroke="#ffffff" stroke-width="1" stroke-linecap="butt"/><path d="M237.06262,187.89977c0.80753,-0.29404 1.70053,0.12224 1.99456,0.92976c0.69262,1.9022 -2.91709,4.01207 -2.91709,4.01207c-1.26309,-0.96996 -3.54989,-3.17494 -2.57994,-4.43804c0.94774,-1.23417 2.1819,-0.28642 2.1819,-0.28642c0.17926,0.13766 0.35852,0.27532 0.53779,0.41298c0.17754,-0.28114 0.44616,-0.50778 0.78278,-0.63035z" fill="#ff5a5a" stroke="#ff2626" stroke-width="1.5" stroke-linecap="butt"/><path d="M245.17256,188.67057c0.0366,0.0281 0.0732,0.05621 0.1098,0.08432c0.1847,-0.29249 0.6857,-0.55217 0.6857,-0.55217c0.70738,-0.25757 1.48963,0.10708 1.7472,0.81446c0.51236,1.40714 -1.89003,3.08595 -2.57905,3.52996" fill="none" stroke="#7d1313" stroke-width="1.5" stroke-linecap="butt"/><path d="M245.17153,192.49641c-0.00763,0.00455 -0.01159,0.00686 -0.01159,0.00686c-1.10644,-0.84966 -3.10964,-2.78119 -2.25998,-3.88764c0.8302,-1.08111 1.91131,-0.2509 1.91131,-0.2509c0.06566,0.05042 0.41521,0.27118 0.48087,0.3216" fill="#ff5858" stroke="#ff2626" stroke-width="1.5" stroke-linecap="butt"/><path d="M210.22222,209.77778v-59.55556h59.55556v59.55556z" fill="none" stroke="none" stroke-width="0" stroke-linecap="butt"/><g><path d="M244.59919,174.04798c0,0.70834 -2.09658,1.28257 -4.68285,1.28257c-2.58627,0 -4.68285,-0.57423 -4.68285,-1.28257c0,-0.70834 2.09658,-1.28257 4.68285,-1.28257c2.58627,0 4.68285,0.57423 4.68285,1.28257z" fill="none" stroke="#ade4ff" stroke-width="1.5" stroke-linecap="butt"/><g stroke-width="1.5"><path d="M245.99934,172.40671c0,0 0.54928,-0.35808 0.8198,-0.34343c0.19777,0.0107 0.65457,0.42326 0.65457,0.42326" fill="none" stroke="#009602" stroke-linecap="round"/><path d="M243.60462,172.28547c0.72329,-0.58596 1.77473,-0.48134 2.34846,0.23368c0.57373,0.71501 0.4525,1.76966 -0.27079,2.35562c-0.72329,0.58596 -1.77473,0.48134 -2.34846,-0.23368c-0.57373,-0.71501 -0.4525,-1.76966 0.27079,-2.35562z" fill="#ff4c4c" stroke="#ff0000" stroke-linecap="butt"/><path d="M246.4484,171.97138c0,0 -0.65191,-0.29252 -0.76076,-0.80192c-0.10884,-0.50941 0.36658,-1.04282 0.36658,-1.04282c0,0 0.65191,0.29252 0.76076,0.80192c0.10884,0.50941 -0.36658,1.04282 -0.36658,1.04282z" fill="#94e095" stroke="#00e005" stroke-linecap="butt"/></g><path d="M242.51129,175.15159l1.49135,-0.65619" fill="none" stroke="#ade4ff" stroke-width="1.5" stroke-linecap="round"/><path d="M243.48156,177.95153l-1.0783,7.48437c0,0 -0.73611,0.40959 -2.47112,0.40959c-1.18096,0 -2.38126,-0.40959 -2.38126,-0.40959l-1.03338,-7.48437" fill="#ff6666" stroke="#ade4ff" stroke-width="0" stroke-linecap="butt"/><path d="M243.49629,177.97015c0,0.44214 -1.57907,0.80056 -3.52696,0.80056c-1.94789,0 -3.52696,-0.35843 -3.52696,-0.80056c0,-0.44214 1.57907,-0.80056 3.52696,-0.80056c1.94789,0 3.52696,0.35843 3.52696,0.80056z" fill="#ff3939" stroke="#ade4ff" stroke-width="0" stroke-linecap="butt"/><path d="M233.02629,175.50951l3.40029,-5.30922l0.47723,0.41758l2.98271,14.61527" fill="none" stroke="#ffad85" stroke-width="1.5" stroke-linecap="round"/><path d="M244.42022,176.0464l0.23862,-2.02824l-1.4317,11.99049c0,0 -0.97736,0.65619 -3.28098,0.65619c-1.568,0 -3.16168,-0.65619 -3.16168,-0.65619l-1.37204,-11.99049" fill="none" stroke="#ade4ff" stroke-width="1.5" stroke-linecap="round"/><g stroke-width="1.5"><path d="M245.71906,185.78357c0,0 -0.41907,-0.50429 -0.43574,-0.77469c-0.01219,-0.19769 0.34489,-0.69904 0.34489,-0.69904" fill="none" stroke="#009602" stroke-linecap="round"/><path d="M245.23483,185.38775c0,0 -0.21533,0.68131 -0.70877,0.84823c-0.49345,0.16691 -1.07815,-0.24378 -1.07815,-0.24378c0,0 0.21533,-0.68131 0.70877,-0.84823c0.49345,-0.16691 1.07815,0.24378 1.07815,0.24378z" fill="#94e095" stroke="#00e005" stroke-linecap="butt"/></g><path d="M236.78449,175.09193l2.32651,0.17896" fill="none" stroke="#ade4ff" stroke-width="1.5" stroke-linecap="round"/></g></g></g></svg>