<svg version="1.1" xmlns="http://www.w3.org/2000/svg" xmlns:xlink="http://www.w3.org/1999/xlink" width="122.45663" height="167.49752" viewBox="0,0,122.45663,167.49752"><g transform="translate(-178.61794,-95.93797)"><g data-paper-data="{&quot;isPaintingLayer&quot;:true}" fill-rule="nonzero" stroke="#ff7b00" stroke-width="6.5" stroke-linejoin="miter" stroke-miterlimit="10" stroke-dasharray="" stroke-dashoffset="0" style="mix-blend-mode: normal"><path d="M222.88848,234.41395l-40.65098,-78.82027c0,0 5.677,-12.17555 16.11446,-21.81386c8.23923,-7.60845 20.9321,-12.39649 25.85193,-16.93971c7.39188,-6.82592 18.43706,-17.0256 18.43706,-17.0256c0,0 5.85011,2.77012 8.51758,5.77134c2.6674,3.0013 0.24304,3.12286 6.31662,10.91954c1.1369,1.45945 8.30064,2.99099 9.62474,4.57125c2.72636,3.25376 -0.12697,6.71459 3.04565,10.18047c1.9063,2.08252 6.48201,2.29479 8.41427,4.46023c2.99054,3.35136 3.32066,8.62742 6.06386,11.42424c2.99692,3.05536 7.04946,1.75218 9.2815,3.84694c3.55643,3.33772 3.85733,11.86027 3.85733,11.86027l-5.87214,3.90316c0,0 -18.82925,56.69884 -40.85175,68.11603c-10.52408,5.45606 -28.14991,-0.4542 -28.14991,-0.4542z" fill="#fff94d" stroke-linecap="butt"/><path d="M253.81259,119.42756l-14.47048,14.47048l17.10147,17.10147l-13.8127,13.8127l-21.04794,-11.8395" fill="none" stroke-linecap="round"/><path d="M253.15488,146.39518l12.82614,-12.82614" fill="none" stroke-linecap="round"/><path d="M259.07456,170.73189l21.70573,-21.70573" fill="none" stroke-linecap="round"/><path d="M241.64431,135.54239l-18.08803,-18.08803" fill="none" stroke-linecap="round"/><path d="M296.56619,162.83894l-24.99435,23.67885l-22.36344,-21.04794" fill="none" stroke-linecap="round"/><path d="M266.94163,218.31848v41.86701h-52.61982v-42.09589" fill="#fff94d" stroke-linecap="round"/></g></g></svg>