<svg version="1.1" xmlns="http://www.w3.org/2000/svg" xmlns:xlink="http://www.w3.org/1999/xlink" width="40.54748" height="40.54748" viewBox="0,0,40.54748,40.54748"><defs><radialGradient cx="240.59944" cy="175.20877" r="5.55556" gradientUnits="userSpaceOnUse" id="color-1"><stop offset="0" stop-color="#ff3030"/><stop offset="1" stop-color="#ff3030" stop-opacity="0"/></radialGradient><radialGradient cx="240.82166" cy="175.76432" r="5.55556" gradientUnits="userSpaceOnUse" id="color-2"><stop offset="0" stop-color="#ff3030"/><stop offset="1" stop-color="#ff3030" stop-opacity="0"/></radialGradient></defs><g transform="translate(-219.94395,-157.22275)"><g data-paper-data="{&quot;isPaintingLayer&quot;:true}" fill-rule="nonzero" stroke-linejoin="miter" stroke-miterlimit="10" stroke-dasharray="" stroke-dashoffset="0" style="mix-blend-mode: normal"><path d="M240.26238,182.37515c-3.76586,0 -6.8187,-3.05283 -6.8187,-6.8187c0,-3.76586 3.05283,-6.8187 6.8187,-6.8187c3.76586,0 6.8187,3.05283 6.8187,6.8187c0,3.76586 -3.05283,6.8187 -6.8187,6.8187z" data-paper-data="{&quot;index&quot;:null}" fill="#8e1b1b" stroke="#f5f5f5" stroke-width="2" stroke-linecap="butt"/><path d="M240.59944,180.76432c-3.06825,0 -5.55556,-2.4873 -5.55556,-5.55555c0,-3.06825 2.48731,-5.55555 5.55556,-5.55555c3.06825,0 5.55555,2.4873 5.55555,5.55555c0,3.06825 -2.4873,5.55555 -5.55555,5.55555z" data-paper-data="{&quot;index&quot;:null}" fill="url(#color-1)" stroke="none" stroke-width="0" stroke-linecap="butt"/><path d="M240.82167,181.31987c-3.06825,0 -5.55556,-2.4873 -5.55556,-5.55555c0,-3.06825 2.48731,-5.55555 5.55556,-5.55555c3.06825,0 5.55555,2.4873 5.55555,5.55555c0,3.06825 -2.4873,5.55555 -5.55555,5.55555z" data-paper-data="{&quot;index&quot;:null}" fill="url(#color-2)" stroke="none" stroke-width="0" stroke-linecap="butt"/><path d="M244.53297,185.82893l-2.41667,-0.1177v-2.82486" data-paper-data="{&quot;index&quot;:null}" fill="none" stroke="#ff3030" stroke-width="2" stroke-linecap="round"/><path d="M239.44963,185.94664h-2l0.16667,-3.47223" data-paper-data="{&quot;index&quot;:null}" fill="none" stroke="#ff3030" stroke-width="2" stroke-linecap="round"/><path d="M246.50518,167.69664c0,0 0.84697,0.96965 0.89934,1.4934c0.05813,0.58134 -0.56601,1.83993 -0.56601,1.83993" data-paper-data="{&quot;index&quot;:null}" fill="none" stroke="#ff3030" stroke-width="2" stroke-linecap="round"/><path d="M234.50518,170.1133c0,0 -0.96317,-1.035 -0.90594,-1.60726c0.05365,-0.53655 1.23927,-1.72607 1.23927,-1.72607" data-paper-data="{&quot;index&quot;:null}" fill="none" stroke="#ff3030" stroke-width="2" stroke-linecap="round"/><path d="M240.15126,182.25754c-3.76586,0 -6.8187,-3.05283 -6.8187,-6.8187c0,-3.76586 3.05283,-6.8187 6.8187,-6.8187c3.76586,0 6.8187,3.05283 6.8187,6.8187c0,3.76586 -3.05283,6.8187 -6.8187,6.8187z" data-paper-data="{&quot;index&quot;:null}" fill="none" stroke="#f5f5f5" stroke-width="2" stroke-linecap="butt"/><path d="M240.66368,178.91926c-1.8915,0 -3.42487,-1.53337 -3.42487,-3.42487c0,-1.8915 1.53337,-3.42487 3.42487,-3.42487c1.8915,0 3.42487,1.53337 3.42487,3.42487c0,1.8915 -1.53337,3.42487 -3.42487,3.42487z" data-paper-data="{&quot;index&quot;:null}" fill="#ff5252" stroke="none" stroke-width="0.5" stroke-linecap="butt"/><path d="M243.32899,170.15144c0,0 -1.79603,1.34702 -3.0308,1.34702c-1.23477,0 -2.69405,-1.17865 -2.69405,-1.17865" data-paper-data="{&quot;index&quot;:null}" fill="none" stroke="#f5f5f5" stroke-width="2" stroke-linecap="round"/><path d="" data-paper-data="{&quot;index&quot;:null}" fill="none" stroke="#cdcdcd" stroke-width="1.5" stroke-linecap="round"/><path d="" data-paper-data="{&quot;index&quot;:null}" fill="none" stroke="#cdcdcd" stroke-width="1.5" stroke-linecap="round"/><path d="" data-paper-data="{&quot;index&quot;:null}" fill="none" stroke="#cdcdcd" stroke-width="1.5" stroke-linecap="round"/><path d="" data-paper-data="{&quot;index&quot;:null}" fill="none" stroke="#cdcdcd" stroke-width="1.5" stroke-linecap="round"/><path d="" data-paper-data="{&quot;index&quot;:null}" fill="none" stroke="#cdcdcd" stroke-width="1.5" stroke-linecap="round"/><path d="" data-paper-data="{&quot;index&quot;:null}" fill="none" stroke="#cdcdcd" stroke-width="1.5" stroke-linecap="round"/><path d="" data-paper-data="{&quot;index&quot;:null}" fill="none" stroke="#cdcdcd" stroke-width="1.5" stroke-linecap="round"/><path d="" data-paper-data="{&quot;index&quot;:null}" fill="none" stroke="#cdcdcd" stroke-width="1.5" stroke-linecap="round"/><path d="" data-paper-data="{&quot;index&quot;:null}" fill="none" stroke="#cdcdcd" stroke-width="1.5" stroke-linecap="round"/><path d="" data-paper-data="{&quot;index&quot;:null}" fill="none" stroke="#cdcdcd" stroke-width="1.5" stroke-linecap="round"/><path d="" data-paper-data="{&quot;index&quot;:null}" fill="none" stroke="#cdcdcd" stroke-width="1.5" stroke-linecap="round"/><path d="" data-paper-data="{&quot;index&quot;:null}" fill="none" stroke="#cdcdcd" stroke-width="1.5" stroke-linecap="round"/><path d="M219.94395,197.77023v-40.54748h40.54748v40.54748z" data-paper-data="{&quot;index&quot;:null}" fill="none" stroke="none" stroke-width="0" stroke-linecap="butt"/></g></g></svg>