<svg version="1.1" xmlns="http://www.w3.org/2000/svg" xmlns:xlink="http://www.w3.org/1999/xlink" width="59.01063" height="56.51685" viewBox="0,0,59.01063,56.51685"><defs><radialGradient cx="240" cy="180" r="8.76513" gradientUnits="userSpaceOnUse" id="color-1"><stop offset="0" stop-color="#ffe100"/><stop offset="1" stop-color="#ffe100" stop-opacity="0"/></radialGradient><radialGradient cx="240" cy="180" r="8.76513" gradientUnits="userSpaceOnUse" id="color-2"><stop offset="0" stop-color="#ffd200"/><stop offset="1" stop-color="#ffd200" stop-opacity="0"/></radialGradient><radialGradient cx="243.78108" cy="179.33725" r="7.28216" gradientUnits="userSpaceOnUse" id="color-3"><stop offset="0" stop-color="#ffd200"/><stop offset="1" stop-color="#ffd200" stop-opacity="0"/></radialGradient><radialGradient cx="241.32909" cy="180.56852" r="1.2477" gradientUnits="userSpaceOnUse" id="color-4"><stop offset="0" stop-color="#ffd200"/><stop offset="1" stop-color="#ffd200" stop-opacity="0"/></radialGradient><radialGradient cx="246.52196" cy="180.57601" r="3.62764" gradientUnits="userSpaceOnUse" id="color-5"><stop offset="0" stop-color="#ffd200"/><stop offset="1" stop-color="#ffd200" stop-opacity="0"/></radialGradient><radialGradient cx="245.33241" cy="184.03133" r="5.44069" gradientUnits="userSpaceOnUse" id="color-6"><stop offset="0" stop-color="#ffd200"/><stop offset="1" stop-color="#ffd200" stop-opacity="0"/></radialGradient><radialGradient cx="243.26625" cy="181.08167" r="1.92971" gradientUnits="userSpaceOnUse" id="color-7"><stop offset="0" stop-color="#ffd200"/><stop offset="1" stop-color="#ffd200" stop-opacity="0"/></radialGradient><radialGradient cx="242.46198" cy="182.37708" r="3.48183" gradientUnits="userSpaceOnUse" id="color-8"><stop offset="0" stop-color="#ffd200"/><stop offset="1" stop-color="#ffd200" stop-opacity="0"/></radialGradient><radialGradient cx="242.69016" cy="177.97016" r="1.93329" gradientUnits="userSpaceOnUse" id="color-9"><stop offset="0" stop-color="#ffd200"/><stop offset="1" stop-color="#ffd200" stop-opacity="0"/></radialGradient><radialGradient cx="242.69272" cy="181.455" r="2.4453" gradientUnits="userSpaceOnUse" id="color-10"><stop offset="0" stop-color="#ffd200"/><stop offset="1" stop-color="#ffd200" stop-opacity="0"/></radialGradient><radialGradient cx="234.46935" cy="184.45921" r="5.4407" gradientUnits="userSpaceOnUse" id="color-11"><stop offset="0" stop-color="#ffd200"/><stop offset="1" stop-color="#ffd200" stop-opacity="0"/></radialGradient><radialGradient cx="238.4552" cy="174.17794" r="5.23993" gradientUnits="userSpaceOnUse" id="color-12"><stop offset="0" stop-color="#ffd200"/><stop offset="1" stop-color="#ffd200" stop-opacity="0"/></radialGradient><radialGradient cx="235.02099" cy="174.89131" r="3.73513" gradientUnits="userSpaceOnUse" id="color-13"><stop offset="0" stop-color="#ffd200"/><stop offset="1" stop-color="#ffd200" stop-opacity="0"/></radialGradient><radialGradient cx="232.51425" cy="178.85357" r="2.66027" gradientUnits="userSpaceOnUse" id="color-14"><stop offset="0" stop-color="#ffd200"/><stop offset="1" stop-color="#ffd200" stop-opacity="0"/></radialGradient><radialGradient cx="236.14959" cy="186.21634" r="2.98273" gradientUnits="userSpaceOnUse" id="color-15"><stop offset="0" stop-color="#ffd200"/><stop offset="1" stop-color="#ffd200" stop-opacity="0"/></radialGradient><radialGradient cx="244.82461" cy="177.67122" r="1.26296" gradientUnits="userSpaceOnUse" id="color-16"><stop offset="0" stop-color="#ffd200"/><stop offset="1" stop-color="#ffd200" stop-opacity="0"/></radialGradient><radialGradient cx="246.4951" cy="177.21811" r="1.39732" gradientUnits="userSpaceOnUse" id="color-17"><stop offset="0" stop-color="#ffd200"/><stop offset="1" stop-color="#ffd200" stop-opacity="0"/></radialGradient><radialGradient cx="242.89928" cy="173.26431" r="3.14396" gradientUnits="userSpaceOnUse" id="color-18"><stop offset="0" stop-color="#ffd200"/><stop offset="1" stop-color="#ffd200" stop-opacity="0"/></radialGradient><radialGradient cx="237.46629" cy="177.08005" r="1.881" gradientUnits="userSpaceOnUse" id="color-19"><stop offset="0" stop-color="#ffd200"/><stop offset="1" stop-color="#ffd200" stop-opacity="0"/></radialGradient><radialGradient cx="236.01523" cy="178.36988" r="1.53167" gradientUnits="userSpaceOnUse" id="color-20"><stop offset="0" stop-color="#ffd200"/><stop offset="1" stop-color="#ffd200" stop-opacity="0"/></radialGradient><radialGradient cx="234.51899" cy="182.42747" r="2.36468" gradientUnits="userSpaceOnUse" id="color-21"><stop offset="0" stop-color="#ffd200"/><stop offset="1" stop-color="#ffd200" stop-opacity="0"/></radialGradient><radialGradient cx="237.49316" cy="182.34686" r="2.4453" gradientUnits="userSpaceOnUse" id="color-22"><stop offset="0" stop-color="#ffd200"/><stop offset="1" stop-color="#ffd200" stop-opacity="0"/></radialGradient><radialGradient cx="236.68702" cy="183.87853" r="0.5643" gradientUnits="userSpaceOnUse" id="color-23"><stop offset="0" stop-color="#ffd200"/><stop offset="1" stop-color="#ffd200" stop-opacity="0"/></radialGradient><radialGradient cx="241.83239" cy="185.46394" r="2.27013" gradientUnits="userSpaceOnUse" id="color-24"><stop offset="0" stop-color="#ffd200"/><stop offset="1" stop-color="#ffd200" stop-opacity="0"/></radialGradient><radialGradient cx="243.88856" cy="187.53305" r="1.10173" gradientUnits="userSpaceOnUse" id="color-25"><stop offset="0" stop-color="#ffd200"/><stop offset="1" stop-color="#ffd200" stop-opacity="0"/></radialGradient><radialGradient cx="241.6851" cy="187.53305" r="1.66603" gradientUnits="userSpaceOnUse" id="color-26"><stop offset="0" stop-color="#ffd200"/><stop offset="1" stop-color="#ffd200" stop-opacity="0"/></radialGradient><radialGradient cx="236.47205" cy="187.69427" r="1.39732" gradientUnits="userSpaceOnUse" id="color-27"><stop offset="0" stop-color="#ffd200"/><stop offset="1" stop-color="#ffd200" stop-opacity="0"/></radialGradient><radialGradient cx="237.06322" cy="189.01097" r="0.40307" gradientUnits="userSpaceOnUse" id="color-28"><stop offset="0" stop-color="#ffd200"/><stop offset="1" stop-color="#ffd200" stop-opacity="0"/></radialGradient><radialGradient cx="245.14505" cy="185.70578" r="1.61229" gradientUnits="userSpaceOnUse" id="color-29"><stop offset="0" stop-color="#ffd200"/><stop offset="1" stop-color="#ffd200" stop-opacity="0"/></radialGradient><radialGradient cx="247.19375" cy="184.99024" r="1.07486" gradientUnits="userSpaceOnUse" id="color-30"><stop offset="0" stop-color="#ffd200"/><stop offset="1" stop-color="#ffd200" stop-opacity="0"/></radialGradient><radialGradient cx="236.63037" cy="181.94804" r="3.48183" gradientUnits="userSpaceOnUse" id="color-31"><stop offset="0" stop-color="#ffd200"/><stop offset="1" stop-color="#ffd200" stop-opacity="0"/></radialGradient><radialGradient cx="240.67663" cy="177.35273" r="3.7078" gradientUnits="userSpaceOnUse" id="color-32"><stop offset="0" stop-color="#ffd200"/><stop offset="1" stop-color="#ffd200" stop-opacity="0"/></radialGradient><radialGradient cx="241.4533" cy="182.37011" r="2.38963" gradientUnits="userSpaceOnUse" id="color-33"><stop offset="0" stop-color="#ffd200"/><stop offset="1" stop-color="#ffd200" stop-opacity="0"/></radialGradient><radialGradient cx="243.20481" cy="178.41074" r="1.61715" gradientUnits="userSpaceOnUse" id="color-34"><stop offset="0" stop-color="#ffd200"/><stop offset="1" stop-color="#ffd200" stop-opacity="0"/></radialGradient><radialGradient cx="235.9501" cy="181.25646" r="1.60639" gradientUnits="userSpaceOnUse" id="color-35"><stop offset="0" stop-color="#ffd200"/><stop offset="1" stop-color="#ffd200" stop-opacity="0"/></radialGradient><radialGradient cx="237.55018" cy="182.20997" r="0.87699" gradientUnits="userSpaceOnUse" id="color-36"><stop offset="0" stop-color="#ffd200"/><stop offset="1" stop-color="#ffd200" stop-opacity="0"/></radialGradient><radialGradient cx="236.87131" cy="182.78886" r="0.77969" gradientUnits="userSpaceOnUse" id="color-37"><stop offset="0" stop-color="#ffd200"/><stop offset="1" stop-color="#ffd200" stop-opacity="0"/></radialGradient><radialGradient cx="239.68047" cy="183.86949" r="1.46777" gradientUnits="userSpaceOnUse" id="color-38"><stop offset="0" stop-color="#ffd200"/><stop offset="1" stop-color="#ffd200" stop-opacity="0"/></radialGradient><radialGradient cx="240.91723" cy="182.99488" r="1.93329" gradientUnits="userSpaceOnUse" id="color-39"><stop offset="0" stop-color="#ffd200"/><stop offset="1" stop-color="#ffd200" stop-opacity="0"/></radialGradient><radialGradient cx="241.70581" cy="179.54906" r="0.69566" gradientUnits="userSpaceOnUse" id="color-40"><stop offset="0" stop-color="#ffd200"/><stop offset="1" stop-color="#ffd200" stop-opacity="0"/></radialGradient><radialGradient cx="239.86392" cy="177.9744" r="1.42725" gradientUnits="userSpaceOnUse" id="color-41"><stop offset="0" stop-color="#ffd200"/><stop offset="1" stop-color="#ffd200" stop-opacity="0"/></radialGradient><radialGradient cx="239.92218" cy="177.00546" r="0.29286" gradientUnits="userSpaceOnUse" id="color-42"><stop offset="0" stop-color="#ffd200"/><stop offset="1" stop-color="#ffd200" stop-opacity="0"/></radialGradient><radialGradient cx="237.19773" cy="177.63888" r="1.34691" gradientUnits="userSpaceOnUse" id="color-43"><stop offset="0" stop-color="#ffd200"/><stop offset="1" stop-color="#ffd200" stop-opacity="0"/></radialGradient><radialGradient cx="235.40227" cy="177.17373" r="0.67161" gradientUnits="userSpaceOnUse" id="color-44"><stop offset="0" stop-color="#ffd200"/><stop offset="1" stop-color="#ffd200" stop-opacity="0"/></radialGradient><radialGradient cx="236.42417" cy="176.55323" r="0.95031" gradientUnits="userSpaceOnUse" id="color-45"><stop offset="0" stop-color="#ffd200"/><stop offset="1" stop-color="#ffd200" stop-opacity="0"/></radialGradient><radialGradient cx="239.02269" cy="175.06426" r="1.04511" gradientUnits="userSpaceOnUse" id="color-46"><stop offset="0" stop-color="#ffd200"/><stop offset="1" stop-color="#ffd200" stop-opacity="0"/></radialGradient><radialGradient cx="238.3837" cy="174.56977" r="0.19913" gradientUnits="userSpaceOnUse" id="color-47"><stop offset="0" stop-color="#ffd200"/><stop offset="1" stop-color="#ffd200" stop-opacity="0"/></radialGradient><radialGradient cx="235.22028" cy="178.35513" r="0.67708" gradientUnits="userSpaceOnUse" id="color-48"><stop offset="0" stop-color="#ffd200"/><stop offset="1" stop-color="#ffd200" stop-opacity="0"/></radialGradient><radialGradient cx="234.35937" cy="179.23045" r="0.5089" gradientUnits="userSpaceOnUse" id="color-49"><stop offset="0" stop-color="#ffd200"/><stop offset="1" stop-color="#ffd200" stop-opacity="0"/></radialGradient><radialGradient cx="238.56222" cy="175.83944" r="7.28216" gradientUnits="userSpaceOnUse" id="color-50"><stop offset="0" stop-color="#ffd200"/><stop offset="1" stop-color="#ffd200" stop-opacity="0"/></radialGradient><radialGradient cx="234.48781" cy="182.03482" r="5.23993" gradientUnits="userSpaceOnUse" id="color-51"><stop offset="0" stop-color="#ffd200"/><stop offset="1" stop-color="#ffd200" stop-opacity="0"/></radialGradient><radialGradient cx="235.82972" cy="185.27549" r="3.73513" gradientUnits="userSpaceOnUse" id="color-52"><stop offset="0" stop-color="#ffd200"/><stop offset="1" stop-color="#ffd200" stop-opacity="0"/></radialGradient><radialGradient cx="240.19028" cy="186.99851" r="2.66027" gradientUnits="userSpaceOnUse" id="color-53"><stop offset="0" stop-color="#ffd200"/><stop offset="1" stop-color="#ffd200" stop-opacity="0"/></radialGradient><radialGradient cx="246.74499" cy="182.05262" r="2.98273" gradientUnits="userSpaceOnUse" id="color-54"><stop offset="0" stop-color="#ffd200"/><stop offset="1" stop-color="#ffd200" stop-opacity="0"/></radialGradient><radialGradient cx="239.26754" cy="172.91549" r="3.62764" gradientUnits="userSpaceOnUse" id="color-55"><stop offset="0" stop-color="#ffd200"/><stop offset="1" stop-color="#ffd200" stop-opacity="0"/></radialGradient><radialGradient cx="236.73068" cy="175.12526" r="1.26296" gradientUnits="userSpaceOnUse" id="color-56"><stop offset="0" stop-color="#ffd200"/><stop offset="1" stop-color="#ffd200" stop-opacity="0"/></radialGradient><radialGradient cx="235.97368" cy="173.56872" r="1.39732" gradientUnits="userSpaceOnUse" id="color-57"><stop offset="0" stop-color="#ffd200"/><stop offset="1" stop-color="#ffd200" stop-opacity="0"/></radialGradient><radialGradient cx="232.76063" cy="177.83941" r="3.14396" gradientUnits="userSpaceOnUse" id="color-58"><stop offset="0" stop-color="#ffd200"/><stop offset="1" stop-color="#ffd200" stop-opacity="0"/></radialGradient><radialGradient cx="237.52351" cy="182.46458" r="1.881" gradientUnits="userSpaceOnUse" id="color-59"><stop offset="0" stop-color="#ffd200"/><stop offset="1" stop-color="#ffd200" stop-opacity="0"/></radialGradient><radialGradient cx="239.06155" cy="183.64936" r="1.53167" gradientUnits="userSpaceOnUse" id="color-60"><stop offset="0" stop-color="#ffd200"/><stop offset="1" stop-color="#ffd200" stop-opacity="0"/></radialGradient><radialGradient cx="244.34795" cy="181.96105" r="0.5643" gradientUnits="userSpaceOnUse" id="color-61"><stop offset="0" stop-color="#ffd200"/><stop offset="1" stop-color="#ffd200" stop-opacity="0"/></radialGradient><radialGradient cx="246.59387" cy="174.20389" r="1.10173" gradientUnits="userSpaceOnUse" id="color-62"><stop offset="0" stop-color="#ffd200"/><stop offset="1" stop-color="#ffd200" stop-opacity="0"/></radialGradient><radialGradient cx="247.00521" cy="176.36861" r="1.66603" gradientUnits="userSpaceOnUse" id="color-63"><stop offset="0" stop-color="#ffd200"/><stop offset="1" stop-color="#ffd200" stop-opacity="0"/></radialGradient><radialGradient cx="244.56418" cy="173.31059" r="1.61229" gradientUnits="userSpaceOnUse" id="color-64"><stop offset="0" stop-color="#ffd200"/><stop offset="1" stop-color="#ffd200" stop-opacity="0"/></radialGradient><radialGradient cx="243.47877" cy="171.43148" r="1.07486" gradientUnits="userSpaceOnUse" id="color-65"><stop offset="0" stop-color="#ffd200"/><stop offset="1" stop-color="#ffd200" stop-opacity="0"/></radialGradient><radialGradient cx="237.1921" cy="179.25978" r="3.7078" gradientUnits="userSpaceOnUse" id="color-66"><stop offset="0" stop-color="#ffd200"/><stop offset="1" stop-color="#ffd200" stop-opacity="0"/></radialGradient><radialGradient cx="241.9763" cy="177.56014" r="2.38963" gradientUnits="userSpaceOnUse" id="color-67"><stop offset="0" stop-color="#ffd200"/><stop offset="1" stop-color="#ffd200" stop-opacity="0"/></radialGradient><radialGradient cx="240.37207" cy="176.01957" r="1.92971" gradientUnits="userSpaceOnUse" id="color-68"><stop offset="0" stop-color="#ffd200"/><stop offset="1" stop-color="#ffd200" stop-opacity="0"/></radialGradient><radialGradient cx="235.78378" cy="180.65232" r="1.25062" gradientUnits="userSpaceOnUse" id="color-69"><stop offset="0" stop-color="#ffd200"/><stop offset="1" stop-color="#ffd200" stop-opacity="0"/></radialGradient><radialGradient cx="241.90953" cy="183.17449" r="1.60639" gradientUnits="userSpaceOnUse" id="color-70"><stop offset="0" stop-color="#ffd200"/><stop offset="1" stop-color="#ffd200" stop-opacity="0"/></radialGradient><radialGradient cx="239.1577" cy="177.83869" r="0.69566" gradientUnits="userSpaceOnUse" id="color-71"><stop offset="0" stop-color="#ffd200"/><stop offset="1" stop-color="#ffd200" stop-opacity="0"/></radialGradient><radialGradient cx="236.87705" cy="178.84769" r="1.57865" gradientUnits="userSpaceOnUse" id="color-72"><stop offset="0" stop-color="#ffd200"/><stop offset="1" stop-color="#ffd200" stop-opacity="0"/></radialGradient><radialGradient cx="237.95456" cy="179.94215" r="1.42725" gradientUnits="userSpaceOnUse" id="color-73"><stop offset="0" stop-color="#ffd200"/><stop offset="1" stop-color="#ffd200" stop-opacity="0"/></radialGradient><radialGradient cx="238.12265" cy="182.62411" r="1.34691" gradientUnits="userSpaceOnUse" id="color-74"><stop offset="0" stop-color="#ffd200"/><stop offset="1" stop-color="#ffd200" stop-opacity="0"/></radialGradient><radialGradient cx="238.00084" cy="184.47484" r="0.67161" gradientUnits="userSpaceOnUse" id="color-75"><stop offset="0" stop-color="#ffd200"/><stop offset="1" stop-color="#ffd200" stop-opacity="0"/></radialGradient><radialGradient cx="234.8861" cy="182.03191" r="0.19914" gradientUnits="userSpaceOnUse" id="color-76"><stop offset="0" stop-color="#ffd200"/><stop offset="1" stop-color="#ffd200" stop-opacity="0"/></radialGradient><radialGradient cx="235.65121" cy="177.33236" r="0.08061" gradientUnits="userSpaceOnUse" id="color-77"><stop offset="0" stop-color="#ffd200"/><stop offset="1" stop-color="#ffd200" stop-opacity="0"/></radialGradient><radialGradient cx="241.45544" cy="178.83716" r="0.08061" gradientUnits="userSpaceOnUse" id="color-78"><stop offset="0" stop-color="#ffd200"/><stop offset="1" stop-color="#ffd200" stop-opacity="0"/></radialGradient><radialGradient cx="238.33835" cy="184.31893" r="0.08061" gradientUnits="userSpaceOnUse" id="color-79"><stop offset="0" stop-color="#ffd200"/><stop offset="1" stop-color="#ffd200" stop-opacity="0"/></radialGradient><radialGradient cx="240" cy="180" r="4.50071" gradientUnits="userSpaceOnUse" id="color-80"><stop offset="0" stop-color="#ffffff"/><stop offset="1" stop-color="#fffeaa"/></radialGradient></defs><g transform="translate(-210.49469,-151.74157)"><g data-paper-data="{&quot;isPaintingLayer&quot;:true}" fill-rule="nonzero" stroke-linejoin="miter" stroke-miterlimit="10" stroke-dasharray="" stroke-dashoffset="0" style="mix-blend-mode: normal"><path d="M231.23487,180c0,-4.84085 3.92428,-8.76513 8.76513,-8.76513c4.84085,0 8.76513,3.92428 8.76513,8.76513c0,4.84085 -3.92428,8.76513 -8.76513,8.76513c-4.84085,0 -8.76513,-3.92428 -8.76513,-8.76513z" fill="url(#color-1)" stroke="url(#color-2)" stroke-width="0" stroke-linecap="butt"/><path d="M247.89241,186.61942l-1.48011,-0.50877l-0.6368,-1.57764l-1.68734,-0.05627l-1.3082,-0.42094l0.43752,-1.19543l-0.88567,-1.65193l-1.3726,0.0276l-1.28947,-1.6032l0.63674,-0.70139l0.61658,-1.2494l0.55284,-1.53661l1.26722,0.64285l1.65055,-1.05387l0.97362,-2.11986l1.84949,-0.36641l-0.72171,-1.19306" fill="none" stroke="url(#color-3)" stroke-width="0.5" stroke-linecap="round"/><path d="M242.5768,180.66998l-2.4954,-0.20293" data-paper-data="{&quot;index&quot;:null}" fill="none" stroke="url(#color-4)" stroke-width="0.5" stroke-linecap="round"/><path d="M250.14961,179.2029l-1.08239,-0.06037l-1.20441,1.42634l-2.09571,-0.20215l-0.82539,1.64276l-2.0474,-0.17318" fill="none" stroke="url(#color-5)" stroke-width="0.5" stroke-linecap="round"/><path d="M243.24327,189.96635l-0.19062,-1.00316l1.16188,-1.49421l-1.33397,-1.40714l-2.39262,-0.28921l0.44405,-1.96764l-1.45962,-1.47985l0.77263,-1.5774l-0.69778,-1.01998l2.61095,-0.63131l1.3986,0.1442l1.33598,0.40576l1.6849,-0.92147l1.14824,0.67728l0.58619,-1.3374l1.43258,0.05347" fill="none" stroke="url(#color-6)" stroke-width="0.5" stroke-linecap="round"/><path d="M241.33654,182.11617l0.65802,-0.8086l1.22589,-1.26039l-0.08756,0.95631l0.87483,0.4253l0.66452,-0.7798l0.52372,-0.18315" data-paper-data="{&quot;index&quot;:null}" fill="none" stroke="url(#color-7)" stroke-width="0.5" stroke-linecap="round"/><path d="M239.73117,185.91377l-0.29786,-0.82398l0.46427,-0.83159l-0.56792,-0.75545l-0.2758,-0.71818l0.67484,-0.22897l0.40927,-0.96618l-0.49399,-0.58877l0.24624,-1.12513l0.52939,0.03135l0.76124,-0.16986l0.86408,-0.29849l0.16466,0.77823l1.03904,0.34962l1.26613,-0.31982l0.80915,0.67773l0.26678,-0.73358" data-paper-data="{&quot;index&quot;:null}" fill="none" stroke="url(#color-8)" stroke-width="0.5" stroke-linecap="round"/><path d="M244.40931,176.66116l-0.4068,0.88905l-1.06624,0.15747l-0.14711,0.6831l-0.7519,0.68575l-0.7361,-0.71987l-0.43261,0.38332" data-paper-data="{&quot;index&quot;:null}" fill="none" stroke="url(#color-9)" stroke-width="0.5" stroke-linecap="round"/><path d="M245.25054,181.8169l-1.33211,-0.67685l-1.104,0.81152l-2.67953,-0.85846" fill="none" stroke="url(#color-10)" stroke-width="0.5" stroke-linecap="round"/><path d="M210.49469,208.25842v-56.51685h59.01063v56.51685z" fill="none" stroke="none" stroke-width="0" stroke-linecap="butt"/><path d="M229.02866,181.29887h1.02111l1.25105,1.42039l1.63142,-1.04785l0.73077,-2.29657l1.85016,0.80355l1.72631,-1.15771l1.40544,1.05351l1.13231,-0.4951l0.13281,2.6829l-0.40275,1.3471l-0.64803,1.23675l0.59074,1.8273l-0.87972,1.00163l1.20446,0.82554l-0.31996,1.39741" fill="none" stroke="url(#color-11)" stroke-width="0.5" stroke-linecap="round"/><path d="M239.61601,179.41787l0.19584,-0.4952l0.0267,-0.73425l-0.52824,-0.89952l-0.81156,-1.41968l0.18931,-2.91386l0.09694,-1.19626l-1.71315,-1.24867l1.03935,-1.57241" fill="none" stroke="url(#color-12)" stroke-width="0.5" stroke-linecap="round"/><path d="M238.75612,174.63475l-1.71705,0.72093l-2.99195,0.95536l0.94224,-1.43349l-1.02102,-1.406l-1.70308,0.67008l-0.9794,-0.15181" fill="none" stroke="url(#color-13)" stroke-width="0.5" stroke-linecap="round"/><path d="M231.07089,176.19329l-0.92903,1.35939l2.07461,-0.05229l-0.12116,1.5864l1.78331,-0.95421l1.00801,1.60774l-1.09013,0.40067l1.03856,0.8887l-0.70084,0.48415" fill="none" stroke="url(#color-14)" stroke-width="0.5" stroke-linecap="round"/><path d="M233.16686,187.15684l1.61811,-1.04716l2.17607,0.39401l1.06586,-1.22305l1.10541,-0.0048" fill="none" stroke="url(#color-15)" stroke-width="0.5" stroke-linecap="round"/><path d="M245.90392,178.93419l0.04483,-0.69677l-1.75826,-0.22925l-0.49003,-1.5999" fill="none" stroke="url(#color-16)" stroke-width="0.5" stroke-linecap="round"/><path d="M245.09778,178.23553l0.26008,-1.14309l1.76068,-0.89176l0.77387,0.36882" fill="none" stroke="url(#color-17)" stroke-width="0.5" stroke-linecap="round"/><path d="M242.51812,170.12035l-0.2348,1.79366l1.0665,0.71287l0.16544,1.26345l-0.35222,2.51794l-0.05375,-0.3762" fill="none" stroke="url(#color-18)" stroke-width="0.5" stroke-linecap="round"/><path d="M235.58529,175.87084l3.762,2.41843" fill="none" stroke="url(#color-19)" stroke-width="0.5" stroke-linecap="round"/><path d="M235.42406,176.83821l1.18235,0.96737v2.09597" fill="none" stroke="url(#color-20)" stroke-width="0.5" stroke-linecap="round"/><path d="M235.96149,180.06278l-0.60384,1.23083l0.83594,1.30937l-1.14573,0.57689l-2.02663,0.52471l-0.17682,1.08758" fill="none" stroke="url(#color-21)" stroke-width="0.5" stroke-linecap="round"/><path d="M236.66015,184.79215l0.91363,-1.18235l-0.59117,-1.23609l1.34357,-2.47217" fill="none" stroke="url(#color-22)" stroke-width="0.5" stroke-linecap="round"/><path d="M237.25132,183.93227l-1.1286,-0.10749" fill="none" stroke="url(#color-23)" stroke-width="0.5" stroke-linecap="round"/><path d="M239.56226,183.71729l1.66603,-0.48369l0.80614,1.71977l2.06809,0.44185l-1.20821,2.29904" fill="none" stroke="url(#color-24)" stroke-width="0.5" stroke-linecap="round"/><path d="M242.78684,187.04935l1.66603,0.3762l0.53743,0.59117" fill="none" stroke="url(#color-25)" stroke-width="0.5" stroke-linecap="round"/><path d="M241.33578,189.19907l-0.26872,-0.7524l1.23609,-2.57966" fill="none" stroke="url(#color-26)" stroke-width="0.5" stroke-linecap="round"/><path d="M237.84249,189.09159l-1.5048,-1.18235l-1.23609,-1.61229" fill="none" stroke="url(#color-27)" stroke-width="0.5" stroke-linecap="round"/><path d="M237.46629,188.82287l-0.80614,0.3762" fill="none" stroke="url(#color-28)" stroke-width="0.5" stroke-linecap="round"/><path d="M245.74269,187.31807l-1.1953,-0.98566l0.17419,-2.23891" fill="none" stroke="url(#color-29)" stroke-width="0.5" stroke-linecap="round"/><path d="M248.26861,184.52344l-0.1608,0.9336l-1.98892,-0.01997" fill="none" stroke="url(#color-30)" stroke-width="0.5" stroke-linecap="round"/><path d="M233.66562,178.60502l0.8651,-0.13882l0.7303,0.61134l0.84818,-0.41692l0.75704,-0.13689l0.09898,0.70572l0.8728,0.58244l0.67063,-0.37539l1.05939,0.45195l-0.12962,0.51422l0.02477,0.77956l0.13194,0.90461l-0.7953,0.01649l-0.53743,0.9555l0.07784,1.30357l-0.81686,0.66842l0.67088,0.39902" data-paper-data="{&quot;index&quot;:null}" fill="none" stroke="url(#color-31)" stroke-width="0.5" stroke-linecap="round"/><path d="M244.38443,176.26112l-0.50432,0.26912l-0.99223,-0.37179l-0.52957,0.94749l0.24436,1.32685l-1.12555,0.09076l-0.54748,1.02676l-0.97179,-0.1499l-0.42874,0.54295l-0.77269,-1.29004l-0.15612,-0.77146l-0.0059,-0.78161l-0.77335,-0.74679l0.1705,-0.72655l-0.81245,-0.09028l-0.21027,-0.77449" data-paper-data="{&quot;index&quot;:null}" fill="none" stroke="url(#color-32)" stroke-width="0.5" stroke-linecap="round"/><path d="M239.65123,179.98047l0.03379,0.29619l0.18033,0.36968l0.49796,0.30504l0.77498,0.48728l0.67447,1.48901l0.2674,0.61637l1.17519,0.16519l-0.09891,1.05052" data-paper-data="{&quot;index&quot;:null}" fill="none" stroke="url(#color-33)" stroke-width="0.5" stroke-linecap="round"/><path d="M244.72141,179.32093l0.10056,-0.91624l-1.01084,0.5726l-0.35826,-0.81544l-0.62926,0.94127l-0.92157,-0.52837l0.4328,-0.48519l-0.74716,-0.16519l0.21854,-0.42383" data-paper-data="{&quot;index&quot;:null}" fill="none" stroke="url(#color-34)" stroke-width="0.5" stroke-linecap="round"/><path d="M234.50549,182.86284l0.55049,-0.25546l0.21892,-1.02188l1.08832,-0.45249l-0.02531,-1.02887l1.05682,-0.45407" data-paper-data="{&quot;index&quot;:null}" fill="none" stroke="url(#color-35)" stroke-width="0.5" stroke-linecap="round"/><path d="M236.67319,181.87658l0.1615,0.35594l0.9288,-0.35018l0.66368,0.66102" data-paper-data="{&quot;index&quot;:null}" fill="none" stroke="url(#color-36)" stroke-width="0.5" stroke-linecap="round"/><path d="M237.25547,182.00918l0.17282,0.6331l-0.63455,0.90446l-0.47941,0.0218" data-paper-data="{&quot;index&quot;:null}" fill="none" stroke="url(#color-37)" stroke-width="0.5" stroke-linecap="round"/><path d="M240.66834,185.33727l-0.35676,-0.94775l-0.71461,-0.07099l-0.4147,-0.5804l-0.48967,-1.3364l0.12569,0.17163" data-paper-data="{&quot;index&quot;:null}" fill="none" stroke="url(#color-38)" stroke-width="0.5" stroke-linecap="round"/><path d="M241.88229,184.92817l-0.79749,-0.56561l0.04434,-1.07689l-0.64363,-0.27203l-0.53334,-0.8667l0.84462,-0.58878l-0.29582,-0.49656" data-paper-data="{&quot;index&quot;:null}" fill="none" stroke="url(#color-39)" stroke-width="0.5" stroke-linecap="round"/><path d="M242.40146,180.14972l-0.8389,-0.16616l-0.5524,-1.03518" data-paper-data="{&quot;index&quot;:null}" fill="none" stroke="url(#color-40)" stroke-width="0.5" stroke-linecap="round"/><path d="M239.69466,176.54716l-0.13962,0.82474l0.61775,0.45468l-0.01202,1.57508" data-paper-data="{&quot;index&quot;:null}" fill="none" stroke="url(#color-41)" stroke-width="0.5" stroke-linecap="round"/><path d="M240.21505,176.88328l-0.58573,0.24437" data-paper-data="{&quot;index&quot;:null}" fill="none" stroke="url(#color-42)" stroke-width="0.5" stroke-linecap="round"/><path d="M238.54463,177.84288l-0.69535,0.67798l-0.8514,-0.63691l-1.13786,0.32683l-0.00921,-1.4539" data-paper-data="{&quot;index&quot;:null}" fill="none" stroke="url(#color-43)" stroke-width="0.5" stroke-linecap="round"/><path d="M236.07387,177.04708l-0.92198,0.25329l-0.42124,-0.15033" data-paper-data="{&quot;index&quot;:null}" fill="none" stroke="url(#color-44)" stroke-width="0.5" stroke-linecap="round"/><path d="M236.22396,175.60293l0.33101,0.30078l0.0694,1.59984" data-paper-data="{&quot;index&quot;:null}" fill="none" stroke="url(#color-45)" stroke-width="0.5" stroke-linecap="round"/><path d="M237.97758,174.73534l1.05481,0.18734l1.03541,0.47051" data-paper-data="{&quot;index&quot;:null}" fill="none" stroke="url(#color-46)" stroke-width="0.5" stroke-linecap="round"/><path d="M238.2342,174.7689l0.29899,-0.39826" data-paper-data="{&quot;index&quot;:null}" fill="none" stroke="url(#color-47)" stroke-width="0.5" stroke-linecap="round"/><path d="M234.5432,177.6934l0.85012,0.17178l0.50405,1.15168" data-paper-data="{&quot;index&quot;:null}" fill="none" stroke="url(#color-48)" stroke-width="0.5" stroke-linecap="round"/><path d="M234.03223,179.73935l-0.16664,-0.50347l0.98756,-0.51433" data-paper-data="{&quot;index&quot;:null}" fill="none" stroke="url(#color-49)" stroke-width="0.5" stroke-linecap="round"/><path d="M244.94888,170.44098l-0.22353,1.54907l-1.43103,0.92012l0.25971,1.66818l-0.16934,1.36378l-1.25609,-0.20668l-1.45755,1.17847l0.28335,1.34332l-1.33431,1.56608l-0.80792,-0.49461l-1.34254,-0.3725l-1.61279,-0.25628l0.39499,-1.36495l-1.34346,-1.42481l-2.26434,-0.56079l-0.70523,-1.74858l-1.03736,0.93173" fill="none" stroke="url(#color-50)" stroke-width="0.5" stroke-linecap="round"/><path d="M239.41893,179.91624l-0.52306,-0.09996l-0.72633,0.11084l-0.78509,0.68687l-1.24323,1.06231l-2.89798,0.35797l-1.19333,0.12807l-0.90691,1.91613l-1.73879,-0.72755" fill="none" stroke="url(#color-51)" stroke-width="0.5" stroke-linecap="round"/><path d="M234.88042,181.65391l1.02879,1.55229l1.4971,2.76102l-1.58418,-0.65808l-1.19068,1.26554l0.97622,1.54805l0.03369,0.99052" fill="none" stroke="url(#color-52)" stroke-width="0.5" stroke-linecap="round"/><path d="M237.84621,188.9131l1.50893,0.65893l-0.43865,-2.02838l1.58113,-0.17711l-1.27034,-1.57383l1.3913,-1.29042l0.59712,0.99617l0.6792,-1.1862l0.60647,0.59814" fill="none" stroke="url(#color-53)" stroke-width="0.5" stroke-linecap="round"/><path d="M248.22577,184.80735l-1.33082,-1.39419l-0.01914,-2.21137l-1.40052,-0.81881l-0.21107,-1.08508" fill="none" stroke="url(#color-54)" stroke-width="0.5" stroke-linecap="round"/><path d="M237.24137,169.60794l0.14275,1.07464l1.62611,0.91697l0.19262,2.0966l1.76796,0.50421l0.21206,2.04373" fill="none" stroke="url(#color-55)" stroke-width="0.5" stroke-linecap="round"/><path d="M237.76995,173.82915l-0.69289,0.08603l0.103,1.77014l-1.4803,0.78008" fill="none" stroke="url(#color-56)" stroke-width="0.5" stroke-linecap="round"/><path d="M237.23406,174.75155l-1.17154,-0.04212l-1.20476,-1.56327l0.21787,-0.82912" fill="none" stroke="url(#color-57)" stroke-width="0.5" stroke-linecap="round"/><path d="M229.7431,178.80077l1.80596,-0.10416l0.50125,-1.18082l1.21036,-0.39839l2.53943,-0.12402l-0.35955,0.12303" fill="none" stroke="url(#color-58)" stroke-width="0.5" stroke-linecap="round"/><path d="M238.36034,180.39092l-1.67364,4.14733" fill="none" stroke="url(#color-59)" stroke-width="0.5" stroke-linecap="round"/><path d="M237.66716,184.51606l0.72965,-1.34214l2.05913,-0.39127" fill="none" stroke="url(#color-60)" stroke-width="0.5" stroke-linecap="round"/><path d="M244.40049,182.52547l-0.10508,-1.12883" fill="none" stroke="url(#color-61)" stroke-width="0.5" stroke-linecap="round"/><path d="M246.32436,175.37654l0.05858,-1.70697l0.48046,-0.63834" fill="none" stroke="url(#color-62)" stroke-width="0.5" stroke-linecap="round"/><path d="M248.70716,176.40079l-0.68901,0.40445l-2.76506,-0.7328" fill="none" stroke="url(#color-63)" stroke-width="0.5" stroke-linecap="round"/><path d="M246.03656,172.42248l-0.7452,1.35829l-2.23207,0.24683" fill="none" stroke="url(#color-64)" stroke-width="0.5" stroke-linecap="round"/><path d="M242.81953,170.46265l0.94721,-0.0163l0.35166,1.95768" fill="none" stroke="url(#color-65)" stroke-width="0.5" stroke-linecap="round"/><path d="M235.42752,175.82093l0.35853,0.44521l-0.18003,1.04419l1.02969,0.34339l1.25791,-0.48775l0.29928,1.08882l1.11091,0.34618l0.03414,0.98269l0.61345,0.31985l-1.12313,0.99992l-0.72876,0.29739l-0.76676,0.1517l-0.58929,0.89917l-0.74561,-0.03187l0.06297,0.81502l-0.72163,0.35116" data-paper-data="{&quot;index&quot;:null}" fill="none" stroke="url(#color-66)" stroke-width="0.5" stroke-linecap="round"/><path d="M239.96508,179.77661l0.28467,-0.08849l0.32951,-0.24617l0.20672,-0.54615l0.33403,-0.85233l1.33693,-0.94058l0.55562,-0.37776l-0.05709,-1.18538l1.05052,-0.09894" data-paper-data="{&quot;index&quot;:null}" fill="none" stroke="url(#color-67)" stroke-width="0.5" stroke-linecap="round"/><path d="M241.74861,177.72225l-0.91722,-0.49551l-1.46708,-0.96906l0.95585,-0.0925l0.25452,-0.93884l-0.89014,-0.50727l-0.2777,-0.48032" data-paper-data="{&quot;index&quot;:null}" fill="none" stroke="url(#color-68)" stroke-width="0.5" stroke-linecap="round"/><path d="M234.32642,179.68206l1.02472,0.33783l0.59227,1.08712l0.9075,0.03528l0.39022,0.48028" data-paper-data="{&quot;index&quot;:null}" fill="none" stroke="url(#color-69)" stroke-width="0.5" stroke-linecap="round"/><path d="M243.75737,184.29384l-0.35373,-0.49312l-1.04478,-0.02431l-0.64771,-0.98472l-1.00606,0.21694l-0.64337,-0.95349" data-paper-data="{&quot;index&quot;:null}" fill="none" stroke="url(#color-70)" stroke-width="0.5" stroke-linecap="round"/><path d="M239.61794,177.04313l-0.00664,0.85517l-0.91385,0.73594" data-paper-data="{&quot;index&quot;:null}" fill="none" stroke="url(#color-71)" stroke-width="0.5" stroke-linecap="round"/><path d="M238.40072,178.40967l-0.74867,0.16889l-0.27737,0.82422l-0.65381,-0.29698l-0.94036,-0.69939l-0.53627,0.30478" data-paper-data="{&quot;index&quot;:null}" fill="none" stroke="url(#color-72)" stroke-width="0.5" stroke-linecap="round"/><path d="M236.584,180.37487l0.8363,-0.0168l0.33137,-0.69177l1.54964,-0.28222" data-paper-data="{&quot;index&quot;:null}" fill="none" stroke="url(#color-73)" stroke-width="0.5" stroke-linecap="round"/><path d="M238.07163,181.2628l0.79587,0.55656l-0.46677,0.95533l0.5335,1.05684l-1.42662,0.28046" data-paper-data="{&quot;index&quot;:null}" fill="none" stroke="url(#color-74)" stroke-width="0.5" stroke-linecap="round"/><path d="M237.75105,183.83868l0.42095,0.85849l-0.06905,0.44189" data-paper-data="{&quot;index&quot;:null}" fill="none" stroke="url(#color-75)" stroke-width="0.5" stroke-linecap="round"/><path d="M235.10964,182.1416l-0.44708,-0.21939" data-paper-data="{&quot;index&quot;:null}" fill="none" stroke="url(#color-76)" stroke-width="0.5" stroke-linecap="round"/><path d="M235.57059,177.33236c0,-0.04452 0.03609,-0.08061 0.08061,-0.08061c0.04452,0 0.08061,0.03609 0.08061,0.08061c0,0.04452 -0.03609,0.08061 -0.08061,0.08061c-0.04452,0 -0.08061,-0.03609 -0.08061,-0.08061z" fill="#ffffff" stroke="url(#color-77)" stroke-width="0.5" stroke-linecap="butt"/><path d="M241.37482,178.83716c0,-0.04452 0.03609,-0.08061 0.08061,-0.08061c0.04452,0 0.08061,0.03609 0.08061,0.08061c0,0.04452 -0.03609,0.08061 -0.08061,0.08061c-0.04452,0 -0.08061,-0.03609 -0.08061,-0.08061z" fill="#ffffff" stroke="url(#color-78)" stroke-width="0.5" stroke-linecap="butt"/><path d="M238.25774,184.31893c0,-0.04452 0.03609,-0.08061 0.08061,-0.08061c0.04452,0 0.08061,0.03609 0.08061,0.08061c0,0.04452 -0.03609,0.08061 -0.08061,0.08061c-0.04452,0 -0.08061,-0.03609 -0.08061,-0.08061z" fill="#ffffff" stroke="url(#color-79)" stroke-width="0.5" stroke-linecap="butt"/><path d="M235.49929,180c0,-2.48567 2.01503,-4.50071 4.50071,-4.50071c2.48567,0 4.50071,2.01503 4.50071,4.50071c0,2.48567 -2.01503,4.50071 -4.50071,4.50071c-2.48567,0 -4.50071,-2.01503 -4.50071,-4.50071z" fill="url(#color-80)" stroke="none" stroke-width="0.5" stroke-linecap="butt"/></g></g></svg>