<svg version="1.1" xmlns="http://www.w3.org/2000/svg" xmlns:xlink="http://www.w3.org/1999/xlink" width="46.75" height="46.75" viewBox="0,0,46.75,46.75"><g transform="translate(-216.625,-156.625)"><g data-paper-data="{&quot;isPaintingLayer&quot;:true}" fill="none" fill-rule="nonzero" stroke-linejoin="miter" stroke-miterlimit="10" stroke-dasharray="" stroke-dashoffset="0" style="mix-blend-mode: normal"><path d="M226.48713,174.98068l28.23313,11.69164" stroke="#ffffff" stroke-width="1" stroke-linecap="round"/><path d="M245.52934,165.81208l-11.69164,28.23313" data-paper-data="{&quot;index&quot;:null}" stroke="#ffffff" stroke-width="1" stroke-linecap="round"/><path d="M227.39537,185.11122l24.34033,-9.17096" stroke="#ffffff" stroke-width="1" stroke-linecap="round"/><path d="M243.92266,193.24733l-8.52041,-24.97532" stroke="#ffffff" stroke-width="1" stroke-linecap="round"/><path d="M234.13701,177.56713c0,0 1.64456,0.16383 2.09115,-0.15942c0.52475,-0.37982 0.86086,-1.97728 0.86086,-1.97728c0,0 1.5808,0.27087 2.29208,0.22026c0.70866,-0.05043 1.96778,-0.52337 1.96778,-0.52337c0,0 0.3257,2.00063 0.72909,2.58167c0.34161,0.49207 1.53684,0.68224 1.53684,0.68224c0,0 -0.61282,1.2056 -0.5334,1.82994c0.0824,0.64771 1.01919,1.98879 1.01919,1.98879c0,0 -0.32645,2.99994 -0.83269,3.60449c-0.41095,0.49076 -1.97891,-0.24687 -1.97891,-0.24687c0,0 -1.15588,1.45621 -1.87089,1.72297c-0.75943,0.28333 -2.56049,-0.0697 -2.56049,-0.0697c0,0 -2.12241,-0.40197 -2.74713,-1.01154c-0.60128,-0.5867 -0.93357,-2.57986 -0.93357,-2.57986c0,0 0.43785,-1.7663 0.59669,-2.76928c0.16115,-1.01758 0.3634,-3.29305 0.3634,-3.29305z" stroke="#ffffff" stroke-width="1" stroke-linecap="round"/><path d="M228.21947,175.63341c0,0 3.38557,-0.72638 4.67571,-1.64662c1.1346,-0.80929 2.65863,-3.58485 2.65863,-3.58485c0,0 2.55045,1.18557 3.92734,1.11505c1.30298,-0.06673 4.12453,-1.52743 4.12453,-1.52743c0,0 1.38774,3.66334 2.19493,4.74125c0.82839,1.10621 2.71346,1.81331 2.71346,1.81331c0,0 -0.25452,3.7547 -0.03734,5.00521c0.25897,1.49113 1.48797,3.34741 1.48797,3.34741c0,0 -2.57733,4.39826 -3.59147,5.35434c-1.15701,1.09076 -2.97865,0.83959 -2.97865,0.83959c0,0 -3.1509,2.09079 -4.54217,2.31138c-1.46287,0.23194 -4.03102,-0.95209 -4.03102,-0.95209c0,0 -2.72292,-1.35166 -3.66567,-2.71826c-0.88335,-1.2805 -1.82425,-5.2399 -1.82425,-5.2399c0,0 -1.01796,-1.79644 -1.18142,-3.09862c-0.19984,-1.59198 0.06943,-5.75976 0.06943,-5.75976z" stroke="#ffffff" stroke-width="1" stroke-linecap="round"/><path d="M216.625,203.375v-46.75h46.75v46.75z" stroke="none" stroke-width="2" stroke-linecap="butt"/></g></g></svg>