<svg version="1.1" xmlns="http://www.w3.org/2000/svg" xmlns:xlink="http://www.w3.org/1999/xlink" width="72.67777" height="10.37539" viewBox="0,0,72.67777,10.37539"><defs><linearGradient x1="229.74413" y1="180.167" x2="264.67678" y2="180.167" gradientUnits="userSpaceOnUse" id="color-1"><stop offset="0" stop-color="#1aff00" stop-opacity="0"/><stop offset="1" stop-color="#1aff00"/></linearGradient><linearGradient x1="204.03611" y1="177.83078" x2="265.73535" y2="177.83078" gradientUnits="userSpaceOnUse" id="color-2"><stop offset="0" stop-color="#0f9b00" stop-opacity="0"/><stop offset="1" stop-color="#0f9b00"/></linearGradient><linearGradient x1="206.04536" y1="181.67618" x2="267.7446" y2="181.67618" gradientUnits="userSpaceOnUse" id="color-3"><stop offset="0" stop-color="#0f9b00" stop-opacity="0"/><stop offset="1" stop-color="#0f9b00"/></linearGradient><linearGradient x1="218.33782" y1="179.22393" x2="280.03706" y2="179.22393" gradientUnits="userSpaceOnUse" id="color-4"><stop offset="0" stop-color="#ffffff" stop-opacity="0"/><stop offset="1" stop-color="#ffffff"/></linearGradient><linearGradient x1="205.82961" y1="178.93861" x2="267.52884" y2="178.93861" gradientUnits="userSpaceOnUse" id="color-5"><stop offset="0" stop-color="#ffffff" stop-opacity="0"/><stop offset="1" stop-color="#ffffff"/></linearGradient></defs><g transform="translate(-204.03611,-174.8123)"><g data-paper-data="{&quot;isPaintingLayer&quot;:true}" fill-rule="nonzero" stroke-linecap="butt" stroke-linejoin="miter" stroke-miterlimit="10" stroke-dasharray="" stroke-dashoffset="0" style="mix-blend-mode: normal"><path d="M229.74413,182.74024v-5.14647h34.93266v5.14647z" fill="url(#color-1)" stroke="none" stroke-width="0"/><path d="M204.03611,178.00853v-0.35551h61.69924v0.35551z" fill="url(#color-2)" stroke="none" stroke-width="0"/><path d="M206.04536,182.02323v-0.6941h61.69924v0.6941z" fill="url(#color-3)" stroke="none" stroke-width="0"/><path d="M218.33782,179.40169v-0.35551h56.01879v0.35551z" fill="url(#color-4)" stroke="none" stroke-width="0"/><path d="M205.82961,179.15023v-0.42323h61.69924v0.42323z" fill="url(#color-5)" stroke="none" stroke-width="0"/><path d="M254.99465,180c0,0 9.81406,-4.4377 13.78294,-4.4377c3.96888,0 7.18629,1.98682 7.18629,4.4377c0,2.45087 -3.21741,4.4377 -7.18629,4.4377c-3.96888,0 -13.78294,-4.4377 -13.78294,-4.4377z" fill="#07e83b" stroke="#19ff00" stroke-width="1.5"/><path d="M246.72456,178.58174c0,-0.17052 0.22386,-0.30876 0.5,-0.30876c0.27614,0 0.5,0.13824 0.5,0.30876c0,0.17052 -0.22386,0.30876 -0.5,0.30876c-0.27614,0 -0.5,-0.13824 -0.5,-0.30876z" fill="#11ac00" stroke="none" stroke-width="0.5"/><path d="M251.48879,181.29746c0,-0.17052 0.22386,-0.30876 0.5,-0.30876c0.27614,0 0.5,0.13824 0.5,0.30876c0,0.17052 -0.22386,0.30876 -0.5,0.30876c-0.27614,0 -0.5,-0.13824 -0.5,-0.30876z" fill="#11ac00" stroke="none" stroke-width="0.5"/><path d="M231.88212,180.39222c0,-0.17052 0.22386,-0.30876 0.5,-0.30876c0.27614,0 0.5,0.13824 0.5,0.30876c0,0.17052 -0.22386,0.30876 -0.5,0.30876c-0.27614,0 -0.5,-0.13824 -0.5,-0.30876z" fill="#11ac00" stroke="none" stroke-width="0.5"/><path d="M218.5056,179.37383c0,-0.17052 0.22386,-0.30876 0.5,-0.30876c0.27614,0 0.5,0.13824 0.5,0.30876c0,0.17052 -0.22386,0.30876 -0.5,0.30876c-0.27614,0 -0.5,-0.13824 -0.5,-0.30876z" fill="#11ac00" stroke="none" stroke-width="0.5"/><path d="M223.81956,181.1843c0,-0.17052 0.22386,-0.30876 0.5,-0.30876c0.27614,0 0.5,0.13824 0.5,0.30876c0,0.17052 -0.22386,0.30876 -0.5,0.30876c-0.27614,0 -0.5,-0.13824 -0.5,-0.30876z" fill="#ffffff" stroke="none" stroke-width="0.5"/><path d="M243.42624,182.65531c0,-0.17052 0.22386,-0.30876 0.5,-0.30876c0.27614,0 0.5,0.13824 0.5,0.30876c0,0.17052 -0.22386,0.30876 -0.5,0.30876c-0.27614,0 -0.5,-0.13824 -0.5,-0.30876z" fill="#ffffff" stroke="none" stroke-width="0.5"/><path d="M243.60948,180.05275c0,-0.17052 0.22386,-0.30876 0.5,-0.30876c0.27614,0 0.5,0.13824 0.5,0.30876c0,0.17052 -0.22386,0.30876 -0.5,0.30876c-0.27614,0 -0.5,-0.13824 -0.5,-0.30876z" fill="#19ff00" stroke="none" stroke-width="0.5"/><path d="M230.59944,177.56335c0,-0.17052 0.22386,-0.30876 0.5,-0.30876c0.27614,0 0.5,0.13824 0.5,0.30876c0,0.17052 -0.22386,0.30876 -0.5,0.30876c-0.27614,0 -0.5,-0.13824 -0.5,-0.30876z" fill="#19ff00" stroke="none" stroke-width="0.5"/></g></g></svg>