<svg version="1.1" xmlns="http://www.w3.org/2000/svg" xmlns:xlink="http://www.w3.org/1999/xlink" width="88.25" height="88.25" viewBox="0,0,88.25,88.25"><g transform="translate(-195.875,-135.875)"><g data-paper-data="{&quot;isPaintingLayer&quot;:true}" fill-rule="nonzero" stroke-linejoin="miter" stroke-miterlimit="10" stroke-dasharray="" stroke-dashoffset="0" style="mix-blend-mode: normal"><path d="M195.875,224.125v-88.25h88.25v88.25z" fill="none" stroke="none" stroke-width="none" stroke-linecap="butt"/><path d="M214.64286,180c0,-14.00436 11.35278,-25.35714 25.35714,-25.35714c14.00436,0 25.35714,11.35278 25.35714,25.35714c0,14.00436 -11.35278,25.35714 -25.35714,25.35714c-14.00436,0 -25.35714,-11.35278 -25.35714,-25.35714z" fill="none" stroke="#545454" stroke-width="1" stroke-linecap="butt"/><path d="M241.24864,163.78575c0.05553,-0.51647 0.61377,-2.64354 0.68768,-2.87789c0.27835,-0.88245 1.88855,-1.16111 3.59652,-0.62239c1.39396,0.43968 3.02825,1.17931 2.58858,2.57326c0,0 -0.66479,2.06316 -1.07728,2.26456c-0.73284,0.35783 -2.94195,-0.30206 -2.94195,-0.30206z" fill="none" stroke="#dfb035" stroke-width="1.5" stroke-linecap="butt"/><path d="M226.2687,191.84778c-3.52659,-6.05322 -1.47836,-13.8192 4.57487,-17.34578c1.8572,-1.08201 3.87566,-1.63923 5.88341,-1.71702c1.17664,-0.04558 2.43441,-9.76289 3.56911,-9.48826c0.96674,0.23397 7.15893,0.83384 7.63046,2.76131c0.31743,1.29752 -3.34664,9.02177 -2.63667,9.60568c1.13108,0.93026 2.11908,2.07364 2.89948,3.41315c3.52659,6.05322 1.47836,13.8192 -4.57487,17.34579c-6.05322,3.52659 -13.8192,1.47836 -17.34578,-4.57487z" fill="none" stroke="#e7e7e7" stroke-width="1.5" stroke-linecap="butt"/><path d="M247.81042,185.19515c-0.04822,5.78703 -4.77864,10.43925 -10.56566,10.39103c-5.78703,-0.04822 -10.43925,-4.77864 -10.39103,-10.56566" fill="#ff3030" stroke="#ff1919" stroke-width="1.5" stroke-linecap="butt"/><path d="M247.69093,184.82645c-0.01382,1.65827 -4.6889,2.96371 -10.44209,2.91576c-5.7532,-0.04795 -10.40588,-1.4311 -10.39206,-3.08939c0.01382,-1.65827 4.6889,-2.9637 10.4421,-2.91575c5.7532,0.04795 10.40587,1.4311 10.39205,3.08938z" fill="#ff3030" stroke="#ff1919" stroke-width="1.5" stroke-linecap="butt"/><path d="M252.88466,190.40583l-5.64164,2.99855l-2.55132,-13.96474l5.63107,-5.98665l6.84714,3.70692l2.55132,13.96474z" data-paper-data="{&quot;index&quot;:null}" fill="#ffffff" stroke="#725e5e" stroke-width="1" stroke-linecap="butt"/><path d="M251.62011,181.22526c0,0 0.92793,-1.5584 1.84924,-1.63766c2.00448,-0.19075 2.88889,2.12855 2.04462,4.46714c-0.49601,1.48494 -1.4853,2.76379 -2.80747,3.62913c-1.54496,-0.33998 -2.92493,-1.1862 -3.91533,-2.40089c-1.58094,-1.89551 -1.5739,-4.37824 0.38653,-4.91129c1.24656,-0.33895 2.44241,0.85358 2.44241,0.85358z" data-paper-data="{&quot;index&quot;:null}" fill="none" stroke="#e82c2c" stroke-width="1.5" stroke-linecap="butt"/><path d="M240.78382,162.60305c0,0 1.79399,1.09597 2.71978,1.28654c1.15773,0.2383 4.23914,0.80445 4.23914,0.80445c0,0 1.04946,2.13395 1.67237,3.72838c0.53494,1.36927 0.84879,5.04536 0.84879,5.04536" fill="none" stroke="#725e5e" stroke-width="1" stroke-linecap="round"/><text transform="translate(226.79144,214.12957) scale(0.43222,0.43222)" font-size="40" xml:space="preserve" fill="#ffffff" fill-rule="nonzero" stroke="none" stroke-width="1" stroke-linecap="butt" stroke-linejoin="miter" stroke-miterlimit="10" stroke-dasharray="" stroke-dashoffset="0" font-family="Sans Serif" font-weight="normal" text-anchor="start" style="mix-blend-mode: normal"><tspan x="0" dy="0">0/3</tspan></text></g></g></svg>