<svg version="1.1" xmlns="http://www.w3.org/2000/svg" xmlns:xlink="http://www.w3.org/1999/xlink" width="77.1" height="77.1" viewBox="0,0,77.1,77.1"><g transform="translate(-201.45,-141.45)"><g data-paper-data="{&quot;isPaintingLayer&quot;:true}" fill="none" fill-rule="nonzero" stroke-linejoin="miter" stroke-miterlimit="10" stroke-dasharray="" stroke-dashoffset="0" style="mix-blend-mode: normal"><path d="M230.61625,184.16003c0,0 7.87838,-4.6467 10.58935,-6.67993c1.81797,-1.36347 4.0967,-4.33461 4.0967,-4.33461l1.32781,1.47064l-3.0596,3.36555h5.81323l-0.61192,1.68278l-8.10793,0.45894l-9.33176,6.73111z" stroke="#ad6837" stroke-width="2" stroke-linecap="round"/><path d="M240.81688,176.52836c0,0.71815 -3.28557,-0.68841 -4.13046,-0.68841c-0.84488,0 -1.52979,-0.58218 -1.52979,-1.30033c0,-0.71815 0.68491,-1.30033 1.52979,-1.30033c0.84488,0 4.13046,2.57091 4.13046,3.28906z" stroke="#258800" stroke-width="2" stroke-linecap="butt"/><path d="M224.44295,195.55705v-31.11411h31.11411v31.11411z" stroke="none" stroke-width="2" stroke-linecap="butt"/><path d="M201.45,218.55v-77.1h77.1v77.1z" stroke="none" stroke-width="NaN" stroke-linecap="butt"/></g></g></svg>