<svg version="1.1" xmlns="http://www.w3.org/2000/svg" xmlns:xlink="http://www.w3.org/1999/xlink" width="65.6" height="65.8" viewBox="0,0,65.6,65.8"><g transform="translate(-207.1,-147.3)"><g data-paper-data="{&quot;isPaintingLayer&quot;:true}" fill-rule="nonzero" stroke-linejoin="miter" stroke-miterlimit="10" stroke-dasharray="" stroke-dashoffset="0" style="mix-blend-mode: normal"><path d="M239.84627,195.14667c-1.38376,-0.01949 -1.52182,-0.48956 -2.48623,-1.48171c-2.89325,-2.97646 -6.85303,-7.05013 -11.23932,-11.56258c-0.90571,-0.93176 -1.3195,-1.07442 -1.26021,-2.37248c0.05929,-1.29806 0.48984,-1.52209 1.48218,-2.48668c4.44248,-4.31828 8.51863,-8.28047 11.38331,-11.06507c0.95489,-0.9282 1.10212,-1.39135 2.43176,-1.31784c1.32965,0.07351 1.58947,0.55916 2.59718,1.59586c4.25028,4.37253 7.89557,8.12265 10.89082,11.20405c0.99841,1.02713 1.46589,1.1848 1.49777,2.61687c0.03188,1.43207 -0.43135,1.46523 -1.38625,2.39343c-0.95489,0.9282 -8.40631,8.17129 -11.38331,11.06507c-0.99234,0.9646 -1.14394,1.43058 -2.5277,1.41109z" fill="#151723" stroke="#ffffff" stroke-width="1" stroke-linecap="butt"/><path d="M239.84626,194.89024c-1.38376,-0.01949 -1.52182,-0.48956 -2.48623,-1.48171c-2.89325,-2.97646 -6.85303,-7.05013 -11.23932,-11.56258c-0.90571,-0.93176 -1.3195,-1.07442 -1.26021,-2.37248c0.05929,-1.29806 0.48984,-1.52209 1.48218,-2.48668c4.44248,-4.31828 8.51863,-8.28047 11.38331,-11.06507c0.95489,-0.9282 1.10212,-1.39135 2.43176,-1.31784c1.32965,0.07351 1.58947,0.55916 2.59718,1.59586c4.25028,4.37253 7.89557,8.12265 10.89082,11.20405c0.99841,1.02713 1.46589,1.1848 1.49777,2.61687c0.03188,1.43207 -0.43135,1.46523 -1.38625,2.39343c-0.95489,0.9282 -8.40631,8.17129 -11.38331,11.06507c-0.99234,0.9646 -1.14394,1.43058 -2.5277,1.41109z" fill="none" stroke="#ffffff" stroke-width="1" stroke-linecap="butt"/><path d="M207.1,213.1v-65.4h65.4v65.4z" fill="none" stroke="none" stroke-width="0" stroke-linecap="butt"/><path d="M239.84626,195.14667c-1.38376,-0.01949 -1.52182,-0.48956 -2.48623,-1.48171c-2.89325,-2.97646 -6.85303,-7.05013 -11.23932,-11.56258c-0.90571,-0.93176 -1.3195,-1.07442 -1.26021,-2.37248c0.05929,-1.29806 0.48984,-1.52209 1.48218,-2.48668c4.44248,-4.31828 8.51863,-8.28047 11.38331,-11.06507c0.95489,-0.9282 1.10212,-1.39135 2.43176,-1.31784c1.32965,0.07351 1.58947,0.55916 2.59718,1.59586c4.25028,4.37253 7.89557,8.12265 10.89082,11.20405c0.99841,1.02713 1.46589,1.1848 1.49777,2.61687c0.03188,1.43207 -0.43135,1.46523 -1.38625,2.39343c-0.95489,0.9282 -8.40631,8.17129 -11.38331,11.06507c-0.99234,0.9646 -1.14394,1.43058 -2.5277,1.41109z" fill="none" stroke="#ffffff" stroke-width="1" stroke-linecap="butt"/><path d="M207.3,212.7v-65.4h65.4v65.4z" fill="none" stroke="none" stroke-width="0" stroke-linecap="butt"/><path d="M218.02035,201.97965v-43.95931h43.95931v43.95931z" fill="none" stroke="none" stroke-width="NaN" stroke-linecap="butt"/><g fill="none" stroke="#f900ff" stroke-width="2" stroke-linecap="round"><g><path d="M248.73154,182.16026l-18.02965,-3.98994"/><path d="M247.01203,179.6656l2.73911,2.76297l-3.25126,1.42138"/><path d="M232.55135,180.43646l-2.34795,-2.66048l3.45947,-1.39122" data-paper-data="{&quot;index&quot;:null}"/></g><g><path d="M238.16166,189.29608l4.00674,-18.02594"/><path d="M239.63054,173.17615l2.80712,-2.92536l1.22853,3.21132"/><path d="M240.55529,186.88044l-2.78843,2.91377l-1.40958,-4.26229" data-paper-data="{&quot;index&quot;:null}"/></g></g><g fill="none" stroke="#f900ff" stroke-width="2" stroke-linecap="round"><g><path d="M226.92001,188.8224l25.59762,-16.41404"/><path d="M248.0061,171.81049l6.00892,-0.28082l-3.53413,5.26114"/><path d="M233.07735,189.12863l-7.19664,-0.18227l3.09125,-5.06373" data-paper-data="{&quot;index&quot;:null}"/></g><g><path d="M232.18195,167.42239l16.39019,25.61291"/><path d="M231.87435,172.39494l-0.56969,-6.47076l5.19604,2.92924"/><path d="M248.52593,187.59611l0.16921,6.4786l-4.87262,-3.0558" data-paper-data="{&quot;index&quot;:null}"/></g></g><path d="M244.03602,178.63341l-6.39851,7.35837l-2.04589,-1.44805l4.5256,-8.56117l8.03104,-7.43825z" fill="#ffffff" stroke="#eeeeee" stroke-width="2" stroke-linecap="butt"/><path d="M231.89344,184.20638l0.84488,-1.18911l3.89611,2.1626l3.10634,2.8128l-0.84488,1.18911l-3.63815,-1.90675z" fill="#dec100" stroke="#fce33f" stroke-width="2" stroke-linecap="butt"/><path d="M231.85174,190.14143l2.53463,-3.56729l1.84972,1.31425l-2.53462,3.56729z" fill="#dec100" stroke="#fce33f" stroke-width="2" stroke-linecap="butt"/></g></g></svg>