<svg version="1.1" xmlns="http://www.w3.org/2000/svg" xmlns:xlink="http://www.w3.org/1999/xlink" width="77.1" height="77.1" viewBox="0,0,77.1,77.1"><defs><radialGradient cx="239.97746" cy="179.18161" r="6.81976" gradientUnits="userSpaceOnUse" id="color-1"><stop offset="0" stop-color="#ff7e7e"/><stop offset="1" stop-color="#ff3030"/></radialGradient></defs><g transform="translate(-201.45,-141.45)"><g data-paper-data="{&quot;isPaintingLayer&quot;:true}" fill-rule="nonzero" stroke-linejoin="miter" stroke-miterlimit="10" stroke-dasharray="" stroke-dashoffset="0" style="mix-blend-mode: normal"><path d="M232.86831,177.62797c0,0 0.7194,1.56027 0.29704,1.95359c-0.48152,0.4484 -1.20082,-0.222 -1.96413,-0.12589c-0.81038,0.10203 -1.65186,0.95622 -1.65186,0.95622c0,0 -0.50898,-1.4529 -0.92114,-2.00444c-0.39021,-0.52215 -1.4896,-1.22147 -1.4896,-1.22147c0,0 0.21961,-0.97813 -0.0704,-1.91044c-0.19822,-0.63725 -0.90301,-1.23988 -1.01765,-1.5464c-0.08711,-0.23291 0.1707,-0.63657 0.04644,-1.10654c-0.17721,-0.67023 -0.72921,-1.40857 -0.72921,-1.40857c0,0 -0.338,-0.79942 0.24461,-0.43709c0.77822,0.48396 4.54023,2.28128 4.8081,2.32573c0.22176,0.03679 0.6514,-0.59872 0.80503,-0.38238c0.05594,0.07878 -0.23292,0.90891 -0.145,1.02092c0.84056,1.07088 1.78777,3.88679 1.78777,3.88679z" fill="#5e1212" stroke="#a31f1f" stroke-width="1.5" stroke-linecap="butt"/><path d="M250.31562,175.88476c0.21526,-0.15515 0.41668,0.58504 0.63844,0.62183c0.26788,0.04444 4.40872,-0.44186 5.30152,-0.6486c0.66839,-0.15479 0.09038,0.49266 0.09038,0.49266c0,0 -0.76084,0.52056 -1.14498,1.09766c-0.26936,0.40466 -0.15569,0.86995 -0.31334,1.06226c-0.20747,0.25308 -1.06911,0.59587 -1.46248,1.13496c-0.57552,0.78874 -0.68351,1.78537 -0.68351,1.78537c0,0 -1.26631,0.30687 -1.80422,0.67505c-0.56819,0.3889 -1.51903,1.59963 -1.51903,1.59963c0,0 -0.52059,-1.08015 -1.25462,-1.43839c-0.6914,-0.33743 -1.58864,0.06478 -1.89957,-0.51508c-0.27273,-0.50862 0.91195,-1.75302 0.91195,-1.75302c0,0 1.80572,-2.35923 2.94705,-3.10131z" data-paper-data="{&quot;index&quot;:null}" fill="#5e1212" stroke="#a31f1f" stroke-width="1.5" stroke-linecap="butt"/><path d="M238.86154,185.90837c-3.71508,-0.61631 -6.22715,-4.1276 -5.61084,-7.84269c0.61631,-3.71508 4.1276,-6.22715 7.84269,-5.61084c3.71508,0.61631 6.22715,4.1276 5.61084,7.84269c-0.61631,3.71508 -4.1276,6.22715 -7.84269,5.61084z" data-paper-data="{&quot;index&quot;:null}" fill="url(#color-1)" stroke="#f5f5f5" stroke-width="2" stroke-linecap="butt"/><path d="M246.16378,175.63356l1.2383,-3.06161c0,0 0.67686,1.09519 0.64281,1.62045c-0.03779,0.58301 -0.8595,1.72249 -0.8595,1.72249" data-paper-data="{&quot;index&quot;:null}" fill="none" stroke="#ff3030" stroke-width="2" stroke-linecap="round"/><path d="M235.16837,172.99215c0,0 -0.78081,-1.17867 -0.63069,-1.73386c0.14074,-0.52053 1.50504,-1.49998 1.50504,-1.49998l-0.144,3.63832" data-paper-data="{&quot;index&quot;:null}" fill="none" stroke="#ff3030" stroke-width="2" stroke-linecap="round"/><path d="M238.75084,185.89667c-3.71508,-0.61631 -6.22715,-4.1276 -5.61084,-7.84269c0.61631,-3.71508 4.1276,-6.22715 7.84269,-5.61084c3.71508,0.61631 6.22715,4.12759 5.61084,7.84269c-0.61631,3.71508 -4.1276,6.22715 -7.84269,5.61084z" data-paper-data="{&quot;index&quot;:null}" fill="none" stroke="#f5f5f5" stroke-width="2" stroke-linecap="butt"/><path d="M239.52865,182.6418c-1.71465,-0.28445 -2.87407,-1.90505 -2.58962,-3.6197c0.28445,-1.71465 1.90505,-2.87407 3.6197,-2.58962c1.71465,0.28445 2.87407,1.90505 2.58962,3.6197c-0.28445,1.71465 -1.90505,2.87407 -3.6197,2.58962z" data-paper-data="{&quot;index&quot;:null}" fill="#ffffff" stroke="none" stroke-width="0.5" stroke-linecap="butt"/><path d="M219.72626,200.27374v-40.54748h40.54748v40.54748z" data-paper-data="{&quot;index&quot;:null}" fill="none" stroke="none" stroke-width="0" stroke-linecap="butt"/><path d="M201.45,218.55v-77.1h77.1v77.1z" fill="none" stroke="none" stroke-width="NaN" stroke-linecap="butt"/></g></g></svg>