<svg version="1.1" xmlns="http://www.w3.org/2000/svg" xmlns:xlink="http://www.w3.org/1999/xlink" width="39.5" height="39.5" viewBox="0,0,39.5,39.5"><g transform="translate(-220.25,-160.25)"><g data-paper-data="{&quot;isPaintingLayer&quot;:true}" fill-rule="nonzero" stroke-linecap="butt" stroke-linejoin="miter" stroke-miterlimit="10" stroke-dasharray="" stroke-dashoffset="0" style="mix-blend-mode: normal"><path d="M229.1,188.25c-0.19681,-1.48396 0,-13.56872 0,-16.2c0,-1.72888 1.07112,-2.95 2.8,-2.95c2.61114,0 11.83413,0 16.4,0c1.69942,0 2.6,1.25058 2.6,2.95c0,2.69059 0,12.07083 0,16.5c0,1.51777 -1.08223,2.35 -2.6,2.35c-2.58537,0 -12.11305,0 -16.7,0c-1.52197,0 -2.30319,-1.16604 -2.5,-2.65z" fill="#2c2c2c" stroke="#777777" stroke-width="1.5"/><text transform="translate(234.8,186.55) scale(0.5,0.5)" font-size="40" xml:space="preserve" fill="#ffffff" fill-rule="nonzero" stroke="none" stroke-width="1" stroke-linecap="butt" stroke-linejoin="miter" stroke-miterlimit="10" stroke-dasharray="" stroke-dashoffset="0" font-family="Malgun Gothic" font-weight="normal" text-anchor="start" style="mix-blend-mode: normal"><tspan x="0" dy="0">E</tspan></text><path d="M220.25,199.75v-39.5h39.5v39.5z" fill="none" stroke="none" stroke-width="0"/></g></g></svg>