<svg version="1.1" xmlns="http://www.w3.org/2000/svg" xmlns:xlink="http://www.w3.org/1999/xlink" width="520.52375" height="227.07173" viewBox="0,0,520.52375,227.07173"><defs><linearGradient x1="133.05513" y1="218.06249" x2="346.92066" y2="141.9375" gradientUnits="userSpaceOnUse" id="color-1"><stop offset="0" stop-color="#2424ab" stop-opacity="0"/><stop offset="1" stop-color="#2424ab"/></linearGradient><linearGradient x1="-83.5" y1="109.62375" x2="-83.5" y2="109.62625" gradientUnits="userSpaceOnUse" id="color-2"><stop offset="0" stop-color="#2424ab" stop-opacity="0"/><stop offset="1" stop-color="#2424ab"/></linearGradient></defs><g transform="translate(167,-66.46414)"><g data-paper-data="{&quot;isPaintingLayer&quot;:true}" fill-rule="nonzero" stroke="none" stroke-width="0" stroke-linecap="butt" stroke-linejoin="miter" stroke-miterlimit="10" stroke-dasharray="" stroke-dashoffset="0" style="mix-blend-mode: normal"><path d="M278.05039,286.93276c-30.05521,10.69809 -61.62793,7.96583 -88.16019,-5.08186c7.90468,2.26911 16.25501,3.48454 24.88922,3.48454c49.72238,0 90.03033,-40.30795 90.03033,-90.03033c0,-49.72238 -40.30795,-90.03033 -90.03033,-90.03033c-43.68561,0 -80.10403,31.11457 -88.30317,72.39164c0.94945,-45.78123 29.74931,-88.33243 75.44914,-104.59919c59.05735,-21.02134 123.97392,9.81292 144.99526,68.87026c21.02134,59.05735 -9.81292,123.97392 -68.87026,144.99526z" fill="url(#color-1)"/><path d="M-167,219.25v0z" fill="url(#color-2)"/></g></g></svg>