<svg version="1.1" xmlns="http://www.w3.org/2000/svg" xmlns:xlink="http://www.w3.org/1999/xlink" width="32.2" height="32.2" viewBox="0,0,32.2,32.2"><defs><radialGradient cx="240" cy="180" r="10.23077" gradientUnits="userSpaceOnUse" id="color-1"><stop offset="0" stop-color="#ff5959"/><stop offset="1" stop-color="#ff5959" stop-opacity="0"/></radialGradient></defs><g transform="translate(-223.9,-163.9)"><g data-paper-data="{&quot;isPaintingLayer&quot;:true}" fill-rule="nonzero" stroke-linejoin="miter" stroke-miterlimit="10" stroke-dasharray="" stroke-dashoffset="0" style="mix-blend-mode: normal"><path d="M229.76923,180c0,-5.6503 4.58047,-10.23077 10.23077,-10.23077c5.6503,0 10.23077,4.58047 10.23077,10.23077c0,5.6503 -4.58047,10.23077 -10.23077,10.23077c-5.6503,0 -10.23077,-4.58047 -10.23077,-10.23077z" fill="url(#color-1)" stroke="#ffe400" stroke-width="0" stroke-linecap="butt"/><path d="M223.9,196.1v-32.2h32.2v32.2z" fill="none" stroke="none" stroke-width="NaN" stroke-linecap="butt"/><path d="M240.75566,174.91821c0,0 0.4781,-1.87671 1.09547,-2.38578c0.45135,-0.37217 2.26927,-0.38869 2.26927,-0.38869" fill="none" stroke="#009602" stroke-width="2" stroke-linecap="round"/><path d="M235.3073,179.44293c0.40074,-2.72004 2.89568,-4.59498 5.5726,-4.1878c2.67693,0.4072 4.52214,2.94232 4.1214,5.66237c-0.40074,2.72004 -2.89568,4.59498 -5.5726,4.1878c-2.67693,-0.4072 -4.52214,-2.94232 -4.1214,-5.66237z" fill="#ff4c4c" stroke="#ff0000" stroke-width="2" stroke-linecap="butt"/><path d="M240.8811,172.60343c0,0 -2.00208,0.6676 -3.25728,-0.22216c-1.2552,-0.88977 -1.28821,-2.99996 -1.28821,-2.99996c0,0 2.00208,-0.6676 3.25728,0.22216c1.2552,0.88977 1.28821,2.99996 1.28821,2.99996z" fill="#94e095" stroke="#00e005" stroke-width="2" stroke-linecap="butt"/></g></g></svg>