<svg version="1.1" xmlns="http://www.w3.org/2000/svg" xmlns:xlink="http://www.w3.org/1999/xlink" width="54.5" height="54.5" viewBox="0,0,54.5,54.5"><g transform="translate(-212.59668,-145.56612)"><g data-paper-data="{&quot;isPaintingLayer&quot;:true}" fill-rule="nonzero" stroke-linejoin="miter" stroke-miterlimit="10" stroke-dasharray="" stroke-dashoffset="0" style="mix-blend-mode: normal"><path d="M212.59668,200.06612v-54.5h54.5v54.5z" data-paper-data="{&quot;index&quot;:null}" fill="none" stroke="none" stroke-width="0" stroke-linecap="butt"/><path d="M247.91529,191.26989h-2.16618v-5.875" data-paper-data="{&quot;index&quot;:null}" fill="none" stroke="#ffffff" stroke-width="3" stroke-linecap="round"/><g data-paper-data="{&quot;index&quot;:null}"><path d="M242.43865,160.22286c0,0 1.6368,-5.85 3.4125,-5.85c0.76101,0 3.0875,5.85 3.0875,5.85" fill="none" stroke="#ffffff" stroke-width="2.5" stroke-linecap="round"/><path d="M230.68865,160.09786c0,0 1.6368,-5.85 3.4125,-5.85c0.76101,0 3.0875,5.85 3.0875,5.85" fill="none" stroke="#ffffff" stroke-width="2.5" stroke-linecap="round"/><path d="M233.92418,185.47134v5.76389h-2.24951" fill="none" stroke="#ffffff" stroke-width="3" stroke-linecap="round"/><path d="M247.56362,184.39331c-4.15169,0 -14.54332,0 -15.875,0c-1.33168,0 -1.68696,0.2991 -2.66227,-0.75c-0.97531,-1.0491 -0.75,-1.48799 -0.75,-2.92041c0,-4.29727 0,-9.52714 0,-15.625c0,-1.44576 -0.1522,-1.9751 0.75,-2.95459c0.9022,-0.97949 1.33059,-0.75 2.66227,-0.75c3.99505,0 9.67958,0 15.875,0c1.3839,0 1.84878,-0.13946 2.79606,0.75c0.94728,0.88946 0.75,1.28017 0.75,2.57959c0,6.29299 0,11.97407 0,16.125c0,1.38364 0.22865,1.81694 -0.75,2.79541c-0.97865,0.97847 -1.41216,0.75 -2.79606,0.75z" fill="#3c0000" stroke="#ff3333" stroke-width="2.5" stroke-linecap="butt"/><path d="M243.20483,169.02143h5" fill="none" stroke="#ffffff" stroke-width="2.5" stroke-linecap="round"/><path d="M231.16437,168.89643h5" fill="none" stroke="#ffffff" stroke-width="2.5" stroke-linecap="round"/><path d="M243.11509,174.02143c0,0 1.83885,-1.16911 2.72054,-1.16911c0.76972,0 2.27946,1.16911 2.27946,1.16911" fill="none" stroke="#ffffff" stroke-width="2.5" stroke-linecap="round"/><path d="M231.07463,174.01335c0,0 1.88829,-1.40293 2.71916,-1.40293c0.83576,0 2.28084,1.40293 2.28084,1.40293" fill="none" stroke="#ffffff" stroke-width="2.5" stroke-linecap="round"/></g></g></g></svg>