<svg version="1.1" xmlns="http://www.w3.org/2000/svg" xmlns:xlink="http://www.w3.org/1999/xlink" width="197.00001" height="196.13837" viewBox="0,0,197.00001,196.13837"><defs><radialGradient cx="279.13671" cy="175.81446" r="67.75001" gradientUnits="userSpaceOnUse" id="color-1"><stop offset="0" stop-color="#ffda00"/><stop offset="1" stop-color="#ffda00" stop-opacity="0"/></radialGradient><radialGradient cx="192.50452" cy="223.46685" r="50.61781" gradientUnits="userSpaceOnUse" id="color-2"><stop offset="0" stop-color="#ffda00"/><stop offset="1" stop-color="#ffda00" stop-opacity="0"/></radialGradient><radialGradient cx="229.58708" cy="127.81446" r="48.75" gradientUnits="userSpaceOnUse" id="color-3"><stop offset="0" stop-color="#ffda00"/><stop offset="1" stop-color="#ffda00" stop-opacity="0"/></radialGradient><radialGradient cx="197.63672" cy="134.45132" r="34.75" gradientUnits="userSpaceOnUse" id="color-4"><stop offset="0" stop-color="#ffda00"/><stop offset="1" stop-color="#ffda00" stop-opacity="0"/></radialGradient><radialGradient cx="174.31508" cy="171.31445" r="24.75" gradientUnits="userSpaceOnUse" id="color-5"><stop offset="0" stop-color="#ffda00"/><stop offset="1" stop-color="#ffda00" stop-opacity="0"/></radialGradient><radialGradient cx="208.13672" cy="239.81445" r="27.75" gradientUnits="userSpaceOnUse" id="color-6"><stop offset="0" stop-color="#ffda00"/><stop offset="1" stop-color="#ffda00" stop-opacity="0"/></radialGradient><radialGradient cx="304.63672" cy="187.33925" r="33.75" gradientUnits="userSpaceOnUse" id="color-7"><stop offset="0" stop-color="#ffda00"/><stop offset="1" stop-color="#ffda00" stop-opacity="0"/></radialGradient><radialGradient cx="288.84524" cy="160.31445" r="11.75" gradientUnits="userSpaceOnUse" id="color-8"><stop offset="0" stop-color="#ffda00"/><stop offset="1" stop-color="#ffda00" stop-opacity="0"/></radialGradient><radialGradient cx="304.38672" cy="156.09881" r="13" gradientUnits="userSpaceOnUse" id="color-9"><stop offset="0" stop-color="#ffda00"/><stop offset="1" stop-color="#ffda00" stop-opacity="0"/></radialGradient><radialGradient cx="270.93288" cy="119.31445" r="29.25" gradientUnits="userSpaceOnUse" id="color-10"><stop offset="0" stop-color="#ffda00"/><stop offset="1" stop-color="#ffda00" stop-opacity="0"/></radialGradient><radialGradient cx="220.38672" cy="154.81445" r="17.5" gradientUnits="userSpaceOnUse" id="color-11"><stop offset="0" stop-color="#ffda00"/><stop offset="1" stop-color="#ffda00" stop-opacity="0"/></radialGradient><radialGradient cx="206.88672" cy="166.81445" r="14.25" gradientUnits="userSpaceOnUse" id="color-12"><stop offset="0" stop-color="#ffda00"/><stop offset="1" stop-color="#ffda00" stop-opacity="0"/></radialGradient><radialGradient cx="192.96638" cy="204.56445" r="22" gradientUnits="userSpaceOnUse" id="color-13"><stop offset="0" stop-color="#ffda00"/><stop offset="1" stop-color="#ffda00" stop-opacity="0"/></radialGradient><radialGradient cx="220.63672" cy="203.81445" r="22.75" gradientUnits="userSpaceOnUse" id="color-14"><stop offset="0" stop-color="#ffda00"/><stop offset="1" stop-color="#ffda00" stop-opacity="0"/></radialGradient><radialGradient cx="213.13672" cy="218.06445" r="5.25" gradientUnits="userSpaceOnUse" id="color-15"><stop offset="0" stop-color="#ffda00"/><stop offset="1" stop-color="#ffda00" stop-opacity="0"/></radialGradient><radialGradient cx="261.00704" cy="232.81445" r="21.12032" gradientUnits="userSpaceOnUse" id="color-16"><stop offset="0" stop-color="#ffda00"/><stop offset="1" stop-color="#ffda00" stop-opacity="0"/></radialGradient><radialGradient cx="280.13672" cy="252.06445" r="10.25" gradientUnits="userSpaceOnUse" id="color-17"><stop offset="0" stop-color="#ffda00"/><stop offset="1" stop-color="#ffda00" stop-opacity="0"/></radialGradient><radialGradient cx="259.63672" cy="252.06445" r="15.5" gradientUnits="userSpaceOnUse" id="color-18"><stop offset="0" stop-color="#ffda00"/><stop offset="1" stop-color="#ffda00" stop-opacity="0"/></radialGradient><radialGradient cx="211.13672" cy="253.56445" r="13" gradientUnits="userSpaceOnUse" id="color-19"><stop offset="0" stop-color="#ffda00"/><stop offset="1" stop-color="#ffda00" stop-opacity="0"/></radialGradient><radialGradient cx="216.63672" cy="265.81445" r="3.75" gradientUnits="userSpaceOnUse" id="color-20"><stop offset="0" stop-color="#ffda00"/><stop offset="1" stop-color="#ffda00" stop-opacity="0"/></radialGradient><radialGradient cx="291.82644" cy="235.06445" r="15" gradientUnits="userSpaceOnUse" id="color-21"><stop offset="0" stop-color="#ffda00"/><stop offset="1" stop-color="#ffda00" stop-opacity="0"/></radialGradient><radialGradient cx="310.88672" cy="228.40736" r="10" gradientUnits="userSpaceOnUse" id="color-22"><stop offset="0" stop-color="#ffda00"/><stop offset="1" stop-color="#ffda00" stop-opacity="0"/></radialGradient><radialGradient cx="212.60967" cy="200.10406" r="32.39342" gradientUnits="userSpaceOnUse" id="color-23"><stop offset="0" stop-color="#ffda00"/><stop offset="1" stop-color="#ffda00" stop-opacity="0"/></radialGradient><radialGradient cx="250.25431" cy="157.35131" r="34.49574" gradientUnits="userSpaceOnUse" id="color-24"><stop offset="0" stop-color="#ffda00"/><stop offset="1" stop-color="#ffda00" stop-opacity="0"/></radialGradient><radialGradient cx="257.48011" cy="204.03076" r="22.23207" gradientUnits="userSpaceOnUse" id="color-25"><stop offset="0" stop-color="#ffda00"/><stop offset="1" stop-color="#ffda00" stop-opacity="0"/></radialGradient><radialGradient cx="274.34703" cy="192.04371" r="17.95322" gradientUnits="userSpaceOnUse" id="color-26"><stop offset="0" stop-color="#ffda00"/><stop offset="1" stop-color="#ffda00" stop-opacity="0"/></radialGradient><radialGradient cx="273.77542" cy="167.19455" r="15.04525" gradientUnits="userSpaceOnUse" id="color-27"><stop offset="0" stop-color="#ffda00"/><stop offset="1" stop-color="#ffda00" stop-opacity="0"/></radialGradient><radialGradient cx="206.2808" cy="193.66984" r="14.94513" gradientUnits="userSpaceOnUse" id="color-28"><stop offset="0" stop-color="#ffda00"/><stop offset="1" stop-color="#ffda00" stop-opacity="0"/></radialGradient><radialGradient cx="221.16723" cy="202.54094" r="8.15912" gradientUnits="userSpaceOnUse" id="color-29"><stop offset="0" stop-color="#ffda00"/><stop offset="1" stop-color="#ffda00" stop-opacity="0"/></radialGradient><radialGradient cx="214.85132" cy="207.92666" r="7.25385" gradientUnits="userSpaceOnUse" id="color-30"><stop offset="0" stop-color="#ffda00"/><stop offset="1" stop-color="#ffda00" stop-opacity="0"/></radialGradient><radialGradient cx="240.98645" cy="217.98038" r="13.65551" gradientUnits="userSpaceOnUse" id="color-31"><stop offset="0" stop-color="#ffda00"/><stop offset="1" stop-color="#ffda00" stop-opacity="0"/></radialGradient><radialGradient cx="252.49269" cy="209.84338" r="17.98644" gradientUnits="userSpaceOnUse" id="color-32"><stop offset="0" stop-color="#ffda00"/><stop offset="1" stop-color="#ffda00" stop-opacity="0"/></radialGradient><radialGradient cx="256.32454" cy="187.2696" r="11.60802" gradientUnits="userSpaceOnUse" id="color-33"><stop offset="0" stop-color="#ffda00"/><stop offset="1" stop-color="#ffda00" stop-opacity="0"/></radialGradient><radialGradient cx="259.82932" cy="177.78496" r="6.47206" gradientUnits="userSpaceOnUse" id="color-34"><stop offset="0" stop-color="#ffda00"/><stop offset="1" stop-color="#ffda00" stop-opacity="0"/></radialGradient><radialGradient cx="242.69324" cy="163.13506" r="13.27848" gradientUnits="userSpaceOnUse" id="color-35"><stop offset="0" stop-color="#ffda00"/><stop offset="1" stop-color="#ffda00" stop-opacity="0"/></radialGradient><radialGradient cx="243.23529" cy="154.1205" r="2.72468" gradientUnits="userSpaceOnUse" id="color-36"><stop offset="0" stop-color="#ffda00"/><stop offset="1" stop-color="#ffda00" stop-opacity="0"/></radialGradient><radialGradient cx="217.88813" cy="160.01349" r="12.53103" gradientUnits="userSpaceOnUse" id="color-37"><stop offset="0" stop-color="#ffda00"/><stop offset="1" stop-color="#ffda00" stop-opacity="0"/></radialGradient><radialGradient cx="201.18399" cy="155.68592" r="6.24834" gradientUnits="userSpaceOnUse" id="color-38"><stop offset="0" stop-color="#ffda00"/><stop offset="1" stop-color="#ffda00" stop-opacity="0"/></radialGradient><radialGradient cx="210.6913" cy="149.91317" r="8.84124" gradientUnits="userSpaceOnUse" id="color-39"><stop offset="0" stop-color="#ffda00"/><stop offset="1" stop-color="#ffda00" stop-opacity="0"/></radialGradient><radialGradient cx="234.86682" cy="136.06042" r="9.72328" gradientUnits="userSpaceOnUse" id="color-40"><stop offset="0" stop-color="#ffda00"/><stop offset="1" stop-color="#ffda00" stop-opacity="0"/></radialGradient><radialGradient cx="228.92188" cy="131.45987" r="1.85263" gradientUnits="userSpaceOnUse" id="color-41"><stop offset="0" stop-color="#ffda00"/><stop offset="1" stop-color="#ffda00" stop-opacity="0"/></radialGradient><radialGradient cx="199.49086" cy="166.67715" r="6.29931" gradientUnits="userSpaceOnUse" id="color-42"><stop offset="0" stop-color="#ffda00"/><stop offset="1" stop-color="#ffda00" stop-opacity="0"/></radialGradient><radialGradient cx="191.48127" cy="174.82078" r="4.73458" gradientUnits="userSpaceOnUse" id="color-43"><stop offset="0" stop-color="#ffda00"/><stop offset="1" stop-color="#ffda00" stop-opacity="0"/></radialGradient><radialGradient cx="230.58276" cy="143.27231" r="67.75001" gradientUnits="userSpaceOnUse" id="color-44"><stop offset="0" stop-color="#ffda00"/><stop offset="1" stop-color="#ffda00" stop-opacity="0"/></radialGradient><radialGradient cx="293.56964" cy="219.48609" r="50.6178" gradientUnits="userSpaceOnUse" id="color-45"><stop offset="0" stop-color="#ffda00"/><stop offset="1" stop-color="#ffda00" stop-opacity="0"/></radialGradient><radialGradient cx="192.67624" cy="200.91139" r="48.75" gradientUnits="userSpaceOnUse" id="color-46"><stop offset="0" stop-color="#ffda00"/><stop offset="1" stop-color="#ffda00" stop-opacity="0"/></radialGradient><radialGradient cx="205.16081" cy="231.06117" r="34.75" gradientUnits="userSpaceOnUse" id="color-47"><stop offset="0" stop-color="#ffda00"/><stop offset="1" stop-color="#ffda00" stop-opacity="0"/></radialGradient><radialGradient cx="245.72953" cy="247.09138" r="24.75" gradientUnits="userSpaceOnUse" id="color-48"><stop offset="0" stop-color="#ffda00"/><stop offset="1" stop-color="#ffda00" stop-opacity="0"/></radialGradient><radialGradient cx="306.71171" cy="201.07698" r="27.75" gradientUnits="userSpaceOnUse" id="color-49"><stop offset="0" stop-color="#ffda00"/><stop offset="1" stop-color="#ffda00" stop-opacity="0"/></radialGradient><radialGradient cx="237.14473" cy="116.06915" r="33.75" gradientUnits="userSpaceOnUse" id="color-50"><stop offset="0" stop-color="#ffda00"/><stop offset="1" stop-color="#ffda00" stop-opacity="0"/></radialGradient><radialGradient cx="213.54287" cy="136.62792" r="11.75" gradientUnits="userSpaceOnUse" id="color-51"><stop offset="0" stop-color="#ffda00"/><stop offset="1" stop-color="#ffda00" stop-opacity="0"/></radialGradient><radialGradient cx="206.50011" cy="122.1466" r="13" gradientUnits="userSpaceOnUse" id="color-52"><stop offset="0" stop-color="#ffda00"/><stop offset="1" stop-color="#ffda00" stop-opacity="0"/></radialGradient><radialGradient cx="176.60739" cy="161.87912" r="29.25" gradientUnits="userSpaceOnUse" id="color-53"><stop offset="0" stop-color="#ffda00"/><stop offset="1" stop-color="#ffda00" stop-opacity="0"/></radialGradient><radialGradient cx="220.91911" cy="204.90977" r="17.5" gradientUnits="userSpaceOnUse" id="color-54"><stop offset="0" stop-color="#ffda00"/><stop offset="1" stop-color="#ffda00" stop-opacity="0"/></radialGradient><radialGradient cx="235.22829" cy="215.93235" r="14.25" gradientUnits="userSpaceOnUse" id="color-55"><stop offset="0" stop-color="#ffda00"/><stop offset="1" stop-color="#ffda00" stop-opacity="0"/></radialGradient><radialGradient cx="269.01109" cy="195.51704" r="22.75" gradientUnits="userSpaceOnUse" id="color-56"><stop offset="0" stop-color="#ffda00"/><stop offset="1" stop-color="#ffda00" stop-opacity="0"/></radialGradient><radialGradient cx="284.41067" cy="200.22507" r="5.25" gradientUnits="userSpaceOnUse" id="color-57"><stop offset="0" stop-color="#ffda00"/><stop offset="1" stop-color="#ffda00" stop-opacity="0"/></radialGradient><radialGradient cx="305.30572" cy="128.05585" r="10.25" gradientUnits="userSpaceOnUse" id="color-58"><stop offset="0" stop-color="#ffda00"/><stop offset="1" stop-color="#ffda00" stop-opacity="0"/></radialGradient><radialGradient cx="309.13257" cy="148.19549" r="15.5" gradientUnits="userSpaceOnUse" id="color-59"><stop offset="0" stop-color="#ffda00"/><stop offset="1" stop-color="#ffda00" stop-opacity="0"/></radialGradient><radialGradient cx="319.65999" cy="195.56292" r="13" gradientUnits="userSpaceOnUse" id="color-60"><stop offset="0" stop-color="#ffda00"/><stop offset="1" stop-color="#ffda00" stop-opacity="0"/></radialGradient><radialGradient cx="330.66793" cy="187.87282" r="3.75" gradientUnits="userSpaceOnUse" id="color-61"><stop offset="0" stop-color="#ffda00"/><stop offset="1" stop-color="#ffda00" stop-opacity="0"/></radialGradient><radialGradient cx="286.42236" cy="119.7451" r="15" gradientUnits="userSpaceOnUse" id="color-62"><stop offset="0" stop-color="#ffda00"/><stop offset="1" stop-color="#ffda00" stop-opacity="0"/></radialGradient><radialGradient cx="276.32419" cy="102.2626" r="10" gradientUnits="userSpaceOnUse" id="color-63"><stop offset="0" stop-color="#ffda00"/><stop offset="1" stop-color="#ffda00" stop-opacity="0"/></radialGradient><radialGradient cx="266.86438" cy="204.09563" r="32.39342" gradientUnits="userSpaceOnUse" id="color-64"><stop offset="0" stop-color="#ffda00"/><stop offset="1" stop-color="#ffda00" stop-opacity="0"/></radialGradient><radialGradient cx="217.83581" cy="175.09363" r="34.49574" gradientUnits="userSpaceOnUse" id="color-65"><stop offset="0" stop-color="#ffda00"/><stop offset="1" stop-color="#ffda00" stop-opacity="0"/></radialGradient><radialGradient cx="262.34582" cy="159.28092" r="22.23207" gradientUnits="userSpaceOnUse" id="color-66"><stop offset="0" stop-color="#ffda00"/><stop offset="1" stop-color="#ffda00" stop-opacity="0"/></radialGradient><radialGradient cx="247.42084" cy="144.94819" r="17.95322" gradientUnits="userSpaceOnUse" id="color-67"><stop offset="0" stop-color="#ffda00"/><stop offset="1" stop-color="#ffda00" stop-opacity="0"/></radialGradient><radialGradient cx="204.73337" cy="188.04923" r="11.63519" gradientUnits="userSpaceOnUse" id="color-68"><stop offset="0" stop-color="#ffda00"/><stop offset="1" stop-color="#ffda00" stop-opacity="0"/></radialGradient><radialGradient cx="261.72471" cy="211.51436" r="14.94513" gradientUnits="userSpaceOnUse" id="color-69"><stop offset="0" stop-color="#ffda00"/><stop offset="1" stop-color="#ffda00" stop-opacity="0"/></radialGradient><radialGradient cx="268.9873" cy="163.0956" r="17.98645" gradientUnits="userSpaceOnUse" id="color-70"><stop offset="0" stop-color="#ffda00"/><stop offset="1" stop-color="#ffda00" stop-opacity="0"/></radialGradient><radialGradient cx="236.12284" cy="161.87246" r="6.47206" gradientUnits="userSpaceOnUse" id="color-71"><stop offset="0" stop-color="#ffda00"/><stop offset="1" stop-color="#ffda00" stop-opacity="0"/></radialGradient><radialGradient cx="214.90468" cy="171.25973" r="14.68707" gradientUnits="userSpaceOnUse" id="color-72"><stop offset="0" stop-color="#ffda00"/><stop offset="1" stop-color="#ffda00" stop-opacity="0"/></radialGradient><radialGradient cx="224.92936" cy="181.4421" r="13.27848" gradientUnits="userSpaceOnUse" id="color-73"><stop offset="0" stop-color="#ffda00"/><stop offset="1" stop-color="#ffda00" stop-opacity="0"/></radialGradient><radialGradient cx="226.49318" cy="206.3939" r="12.53103" gradientUnits="userSpaceOnUse" id="color-74"><stop offset="0" stop-color="#ffda00"/><stop offset="1" stop-color="#ffda00" stop-opacity="0"/></radialGradient><radialGradient cx="225.35995" cy="223.61226" r="6.24834" gradientUnits="userSpaceOnUse" id="color-75"><stop offset="0" stop-color="#ffda00"/><stop offset="1" stop-color="#ffda00" stop-opacity="0"/></radialGradient><radialGradient cx="196.38175" cy="200.88438" r="1.85264" gradientUnits="userSpaceOnUse" id="color-76"><stop offset="0" stop-color="#ffda00"/><stop offset="1" stop-color="#ffda00" stop-opacity="0"/></radialGradient></defs><g transform="translate(-141.63672,-78.81446)"><g data-paper-data="{&quot;isPaintingLayer&quot;:true}" fill-rule="nonzero" stroke-width="0.5" stroke-linejoin="miter" stroke-miterlimit="10" stroke-dasharray="" stroke-dashoffset="0" style="mix-blend-mode: normal"><path d="M317.38671,243.56447l-13.77027,-4.73341l-5.9245,-14.67769l-15.69826,-0.52348l-12.17085,-3.91625l4.07053,-11.12173l-8.23989,-15.36877l-12.77009,0.25678l-11.99666,-14.91547l5.92397,-6.52541l5.73633,-11.62392l5.1434,-14.29589l11.78969,5.98081l15.35601,-9.80471l9.05819,-19.72219l17.20684,-3.40899l-6.71443,-11.0997" fill="none" stroke="url(#color-1)" stroke-linecap="round"/><path d="M141.88672,194.06444h9.5l11.63916,13.21471l15.17804,-9.74869l6.7988,-21.36627l17.21305,7.4759l16.06084,-10.77083l13.07559,9.80141l10.53452,-4.60623l1.23561,24.96049l-3.74704,12.53277l-6.02896,11.5062l5.49597,17.00043l-8.18457,9.31871l11.20578,7.68052l-2.97679,13.00089" fill="none" stroke="url(#color-2)" stroke-linecap="round"/><path d="M240.38672,176.56445l1.82202,-4.60715l0.24838,-6.83116l-4.91448,-8.36869l-7.5504,-13.20815l1.76123,-27.1093l0.90192,-11.12951l-15.93835,-11.61703l9.66968,-14.629" fill="none" stroke="url(#color-3)" stroke-linecap="round"/><path d="M232.38672,132.06445l-15.97472,6.70722l-27.83583,8.8883l8.76622,-13.33653l-9.49912,-13.08077l-15.84468,6.23413l-9.11187,-1.41235" fill="none" stroke="url(#color-4)" stroke-linecap="round"/><path d="M160.88672,146.56445l-8.64328,12.64721l19.30126,-0.48648l-1.12722,14.75916l16.5911,-8.87758l9.37815,14.95768l-10.14202,3.72763l9.66231,8.26804l-6.52029,4.50434" fill="none" stroke="url(#color-5)" stroke-linecap="round"/><path d="M180.38673,248.56444l15.05422,-9.74232l20.24522,3.6657l9.91631,-11.37872l10.28424,-0.04465" fill="none" stroke="url(#color-6)" stroke-linecap="round"/><path d="M338.38673,174.56445l-10.07011,-0.56163l-11.20528,13.27008l-19.49754,-1.88075l-7.67902,15.28354l-19.04806,-1.61124" fill="none" stroke="url(#color-7)" stroke-linecap="round"/><path d="M298.88672,172.06445l0.41705,-6.48246l-16.35805,-2.13284l-4.559,-14.8847" fill="none" stroke="url(#color-8)" stroke-linecap="round"/><path d="M291.38672,165.56445l2.41965,-10.63479l16.38061,-8.2965l7.19974,3.43129" fill="none" stroke="url(#color-9)" stroke-linecap="round"/><path d="M267.38673,90.06445l-2.18452,16.68739l9.9222,6.63219l1.53915,11.75459l-3.27684,23.42583l-0.5,-3.5" fill="none" stroke="url(#color-10)" stroke-linecap="round"/><path d="M202.88672,143.56445l35,22.5" fill="none" stroke="url(#color-11)" stroke-linecap="round"/><path d="M201.38672,152.56445l11,9v19.5" fill="none" stroke="url(#color-12)" stroke-linecap="round"/><path d="M206.38672,182.56445l-5.61785,11.45112l7.77717,12.18178l-10.65932,5.3671l-18.8549,4.88164l-1.6451,10.11836" fill="none" stroke="url(#color-13)" stroke-linecap="round"/><path d="M212.88672,226.56445l8.5,-11l-5.5,-11.5l12.5,-23" fill="none" stroke="url(#color-14)" stroke-linecap="round"/><path d="M218.38672,218.56445l-10.5,-1" fill="none" stroke="url(#color-15)" stroke-linecap="round"/><path d="M239.88672,216.56445l15.5,-4.5l7.5,16l19.24064,4.11078l-11.24064,21.38922" fill="none" stroke="url(#color-16)" stroke-linecap="round"/><path d="M269.88672,247.56445l15.5,3.5l5,5.5" fill="none" stroke="url(#color-17)" stroke-linecap="round"/><path d="M256.38672,267.56445l-2.5,-7l11.5,-24" fill="none" stroke="url(#color-18)" stroke-linecap="round"/><path d="M223.88672,266.56445l-14,-11l-11.5,-15" fill="none" stroke="url(#color-19)" stroke-linecap="round"/><path d="M212.88672,267.56445l7.5,-3.5" fill="none" stroke="url(#color-20)" stroke-linecap="round"/><path d="M297.38672,250.06445l-11.12055,-9.17016l1.62055,-20.82984" fill="none" stroke="url(#color-21)" stroke-linecap="round"/><path d="M320.88672,224.06445l-1.49603,8.68581l-18.50397,-0.18581" fill="none" stroke="url(#color-22)" stroke-linecap="round"/><path d="M185.02694,169.00211l8.04847,-1.29147l6.79443,5.68767l7.89112,-3.87883l7.04317,-1.27352l0.92082,6.56569l8.1201,5.41875l6.2393,-3.49246l9.85605,4.20475l-1.20596,4.78411l0.23046,7.25274l1.22751,8.41612l-7.39905,0.1534l-5.00003,8.88958l0.72419,12.12786l-7.59976,6.21862l6.24156,3.71236" data-paper-data="{&quot;index&quot;:null}" fill="none" stroke="url(#color-23)" stroke-linecap="round"/><path d="M284.75005,147.1954l-4.69192,2.50378l-9.23124,-3.45899l-4.9269,8.81501l2.27338,12.34438l-10.47161,0.84436l-5.09351,9.5525l-9.04108,-1.39463l-3.98886,5.05139l-7.18874,-12.002l-1.45248,-7.17732l-0.05491,-7.27173l-7.19495,-6.94779l1.58624,-6.75948l-7.55863,-0.83995l-1.95627,-7.20551" data-paper-data="{&quot;index&quot;:null}" fill="none" stroke="url(#color-24)" stroke-linecap="round"/><path d="M240.71446,181.79869l0.31437,2.75561l1.67772,3.43928l4.63282,2.83794l7.21013,4.53337l6.27498,13.8531l2.48781,5.73442l10.93348,1.53684l-0.92016,9.77357" data-paper-data="{&quot;index&quot;:null}" fill="none" stroke="url(#color-25)" stroke-linecap="round"/><path d="M256.39381,201.66819l6.12197,-7.52284l11.40517,-11.72612l-0.81459,8.89712l8.139,3.95686l6.18243,-7.25492l4.87246,-1.70395" data-paper-data="{&quot;index&quot;:null}" fill="none" stroke="url(#color-26)" stroke-linecap="round"/><path d="M287.88512,175.66257l0.93555,-8.52428l-9.40442,5.32723l-3.33315,-7.58643l-5.85438,8.7572l-8.57393,-4.91573l4.02657,-4.51402l-6.95118,-1.53691l2.03314,-3.9431" data-paper-data="{&quot;index&quot;:null}" fill="none" stroke="url(#color-27)" stroke-linecap="round"/><path d="M192.8407,208.61497l5.12151,-2.37666l2.03672,-9.50713l10.12525,-4.20982l-0.23551,-9.57219l9.83223,-4.22446" data-paper-data="{&quot;index&quot;:null}" fill="none" stroke="url(#color-28)" stroke-linecap="round"/><path d="M213.00811,199.43922l1.50252,3.31152l8.64114,-3.25788l6.17458,6.1498" data-paper-data="{&quot;index&quot;:null}" fill="none" stroke="url(#color-29)" stroke-linecap="round"/><path d="M218.42537,200.67281l1.60783,5.89009l-5.90357,8.41474l-4.46019,0.20287" data-paper-data="{&quot;index&quot;:null}" fill="none" stroke="url(#color-30)" stroke-linecap="round"/><path d="M250.17713,231.63589l-3.31916,-8.81742l-6.64839,-0.66049l-3.85816,-5.39978l-4.55564,-12.43333l1.16939,1.59682" data-paper-data="{&quot;index&quot;:null}" fill="none" stroke="url(#color-31)" stroke-linecap="round"/><path d="M261.4712,227.82982l-7.4195,-5.26217l0.41253,-10.01894l-5.9881,-2.5309l-4.96195,-8.06339l7.85801,-5.47774l-2.75217,-4.61975" data-paper-data="{&quot;index&quot;:null}" fill="none" stroke="url(#color-32)" stroke-linecap="round"/><path d="M244.71652,186.32561l23.21604,1.88798" data-paper-data="{&quot;index&quot;:null}" fill="none" stroke="url(#color-33)" stroke-linecap="round"/><path d="M266.30138,183.37328l-7.80476,-1.54586l-5.13935,-9.63079" data-paper-data="{&quot;index&quot;:null}" fill="none" stroke="url(#color-34)" stroke-linecap="round"/><path d="M241.11853,149.85658l-1.29892,7.67298l5.74727,4.23014l-0.11179,14.65384" data-paper-data="{&quot;index&quot;:null}" fill="none" stroke="url(#color-35)" stroke-linecap="round"/><path d="M245.95997,152.98377l-5.44936,2.27345" data-paper-data="{&quot;index&quot;:null}" fill="none" stroke="url(#color-36)" stroke-linecap="round"/><path d="M230.41916,161.91146l-6.46924,6.30761l-7.92105,-5.92551l-10.58611,3.04073l-0.08566,-13.52639" data-paper-data="{&quot;index&quot;:null}" fill="none" stroke="url(#color-37)" stroke-linecap="round"/><path d="M207.43233,154.50766l-8.57769,2.35652l-3.91899,-1.39859" data-paper-data="{&quot;index&quot;:null}" fill="none" stroke="url(#color-38)" stroke-linecap="round"/><path d="M208.82867,141.07193l3.07961,2.79831l0.64565,14.88417" data-paper-data="{&quot;index&quot;:null}" fill="none" stroke="url(#color-39)" stroke-linecap="round"/><path d="M225.14354,133.00024l9.81353,1.74296l9.63304,4.3774" data-paper-data="{&quot;index&quot;:null}" fill="none" stroke="url(#color-40)" stroke-linecap="round"/><path d="M227.53103,133.3125l2.7817,-3.70527" data-paper-data="{&quot;index&quot;:null}" fill="none" stroke="url(#color-41)" stroke-linecap="round"/><path d="M193.19156,160.52074l7.90914,1.59813l4.68947,10.71468" data-paper-data="{&quot;index&quot;:null}" fill="none" stroke="url(#color-42)" stroke-linecap="round"/><path d="M188.43769,179.55536l-1.55033,-4.68409l9.18783,-4.78507" data-paper-data="{&quot;index&quot;:null}" fill="none" stroke="url(#color-43)" stroke-linecap="round"/><path d="M290.00147,93.0474l-2.07963,14.41182l-13.31372,8.56033l2.41621,15.52003l-1.5754,12.68797l-11.6861,-1.92282l-13.56042,10.96402l2.63613,12.49768l-12.41379,14.57014l-7.51657,-4.6017l-12.49042,-3.46559l-15.00474,-2.38429l3.67483,-12.69892l-12.49896,-13.25577l-21.06645,-5.2173l-6.56117,-16.26799l-9.65116,8.66845" fill="none" stroke="url(#color-44)" stroke-linecap="round"/><path d="M274.1332,274.70283l-1.77342,-9.333l10.80966,-13.90143l-12.4107,-13.09139l-22.25986,-2.69072l4.13122,-18.30604l-13.57967,-13.76786l7.18822,-14.67543l-6.4918,-9.48947l24.29106,-5.87341l13.01195,1.34161l12.4294,3.77505l15.67562,-8.57293l10.68276,6.30112l5.45366,-12.44257l13.32805,0.49751" fill="none" stroke="url(#color-45)" stroke-linecap="round"/><path d="M238.55326,181.20114l-4.86629,-0.92995l-6.75745,1.0312l-7.30417,6.39032l-11.56649,9.88332l-26.96154,3.33038l-11.10224,1.19155l-8.43751,17.8268l-16.17694,-6.76882" fill="none" stroke="url(#color-46)" stroke-linecap="round"/><path d="M196.32891,197.36759l9.57141,14.44183l13.92834,25.68729l-14.73854,-6.12251l-11.07757,11.77401l9.08236,14.40239l0.31344,9.21535" fill="none" stroke="url(#color-47)" stroke-linecap="round"/><path d="M223.92135,264.90393l14.03838,6.13041l-4.08101,-18.87116l14.71014,-1.64777l-11.81868,-14.64222l12.94407,-12.00554l5.55538,9.26788l6.31898,-11.03591l5.64234,5.56482" fill="none" stroke="url(#color-48)" stroke-linecap="round"/><path d="M320.48815,226.70575l-12.38133,-12.97093l-0.17803,-20.57364l-13.02984,-7.61786l-1.96369,-10.09512" fill="none" stroke="url(#color-49)" stroke-linecap="round"/><path d="M218.29417,85.29717l1.32809,9.99794l15.12857,8.5311l1.79203,19.50589l16.44837,4.69097l1.9729,19.014" fill="none" stroke="url(#color-50)" stroke-linecap="round"/><path d="M223.21182,124.56952l-6.44636,0.8004l0.95831,16.46865l-13.77199,7.25748" fill="none" stroke="url(#color-51)" stroke-linecap="round"/><path d="M218.22615,133.15107l-10.89954,-0.39186l-11.20853,-14.54391l2.02696,-7.71372" fill="none" stroke="url(#color-52)" stroke-linecap="round"/><path d="M148.53354,170.82321l16.80185,-0.96901l4.66337,-10.98585l11.26064,-3.70639l23.62575,-1.1538l-3.34514,1.14458" fill="none" stroke="url(#color-53)" stroke-linecap="round"/><path d="M213.13369,224.20225l15.57083,-38.58496" fill="none" stroke="url(#color-54)" stroke-linecap="round"/><path d="M222.2555,223.9958l6.78836,-12.48672l19.15722,-3.64018" fill="none" stroke="url(#color-55)" stroke-linecap="round"/><path d="M292.80792,198.88393l-12.39338,-6.29715l-10.27113,7.55009l-24.92914,-7.98672" fill="none" stroke="url(#color-56)" stroke-linecap="round"/><path d="M283.92183,194.97402l0.97768,10.5021" fill="none" stroke="url(#color-57)" stroke-linecap="round"/><path d="M302.79825,138.96571l0.545,-15.8809l4.46994,-5.93883" fill="none" stroke="url(#color-58)" stroke-linecap="round"/><path d="M324.9668,148.49488l-6.41026,3.76279l-25.72489,-6.81763" fill="none" stroke="url(#color-59)" stroke-linecap="round"/><path d="M330.05135,180.61026l-8.19317,15.80734l-12.58955,14.09799" fill="none" stroke="url(#color-60)" stroke-linecap="round"/><path d="M333.08721,191.23022l-4.83854,-6.7148" fill="none" stroke="url(#color-61)" stroke-linecap="round"/><path d="M300.12071,111.48243l-6.93302,12.63692l-20.7662,2.29637" fill="none" stroke="url(#color-62)" stroke-linecap="round"/><path d="M270.19087,93.2491l8.8124,-0.1517l3.2717,18.21339" fill="none" stroke="url(#color-63)" stroke-linecap="round"/><path d="M241.45819,236.99948l-2.77122,-7.6659l4.31933,-7.73675l-5.28373,-7.02832l-2.56592,-6.68163l6.27838,-2.13029l3.80767,-8.98891l-4.5958,-5.47766l2.29095,-10.46772l4.92514,0.29168l7.08223,-1.58032l8.03903,-2.77702l1.53193,7.24035l9.6667,3.25267l11.77948,-2.97544l7.528,6.3053l2.48195,-6.82485" data-paper-data="{&quot;index&quot;:null}" fill="none" stroke="url(#color-64)" stroke-linecap="round"/><path d="M201.4189,143.10014l3.33564,4.14205l-1.67494,9.71468l9.57979,3.19474l11.703,-4.53782l2.78432,10.12991l10.33542,3.22075l0.31764,9.1425l5.70722,2.97577l-10.44906,9.30286l-6.78001,2.76678l-7.13365,1.4114l-5.48253,8.36546l-6.93677,-0.29652l0.58583,7.58256l-6.71366,3.26698" data-paper-data="{&quot;index&quot;:null}" fill="none" stroke="url(#color-65)" stroke-linecap="round"/><path d="M243.63431,179.90205l2.64849,-0.82325l3.06563,-2.29026l1.92322,-5.08116l3.10772,-7.92966l12.4382,-8.75072l5.1692,-3.51456l-0.53119,-11.02818l9.77354,-0.92051" data-paper-data="{&quot;index&quot;:null}" fill="none" stroke="url(#color-66)" stroke-linecap="round"/><path d="M260.22757,160.78916l-8.53342,-4.61002l-13.64906,-9.0157l8.89279,-0.86061l2.36795,-8.73458l-8.2815,-4.71943l-2.58357,-4.46872" data-paper-data="{&quot;index&quot;:null}" fill="none" stroke="url(#color-67)" stroke-linecap="round"/><path d="M191.17476,179.02238l9.53354,3.143l5.51023,10.11412l8.44299,0.32827l3.63047,4.4683" data-paper-data="{&quot;index&quot;:null}" fill="none" stroke="url(#color-68)" stroke-linecap="round"/><path d="M278.91608,221.92831l-3.29094,-4.58782l-9.72022,-0.22617l-6.02596,-9.16139l-9.35996,2.01827l-5.98564,-8.87079" data-paper-data="{&quot;index&quot;:null}" fill="none" stroke="url(#color-69)" stroke-linecap="round"/><path d="M284.9815,150.91728l-3.78463,8.2714l-9.91983,1.46502l-1.36858,6.3553l-6.99537,6.37997l-6.84835,-6.69732l-4.02478,3.56619" data-paper-data="{&quot;index&quot;:null}" fill="none" stroke="url(#color-70)" stroke-linecap="round"/><path d="M240.40475,154.47097l-0.06173,7.95614l-8.5021,6.84684" data-paper-data="{&quot;index&quot;:null}" fill="none" stroke="url(#color-71)" stroke-linecap="round"/><path d="M229.0802,167.18459l-6.96528,1.5713l-2.58059,7.66815l-6.08279,-2.76302l-8.74875,-6.50679l-4.98929,2.83548" data-paper-data="{&quot;index&quot;:null}" fill="none" stroke="url(#color-72)" stroke-linecap="round"/><path d="M212.17826,185.46791l7.78058,-0.15627l3.0829,-6.43591l14.41712,-2.62569" data-paper-data="{&quot;index&quot;:null}" fill="none" stroke="url(#color-73)" stroke-linecap="round"/><path d="M226.01855,193.72884l7.40438,5.17804l-4.34268,8.88796l4.96345,9.83239l-13.27263,2.60921" data-paper-data="{&quot;index&quot;:null}" fill="none" stroke="url(#color-74)" stroke-linecap="round"/><path d="M223.03598,217.69371l3.91634,7.987l-0.64242,4.11118" data-paper-data="{&quot;index&quot;:null}" fill="none" stroke="url(#color-75)" stroke-linecap="round"/><path d="M198.46146,201.90494l-4.15941,-2.04112" data-paper-data="{&quot;index&quot;:null}" fill="none" stroke="url(#color-76)" stroke-linecap="round"/><path d="M202.75,157.1618c0,-0.41421 0.33579,-0.75 0.75,-0.75c0.41421,0 0.75,0.33579 0.75,0.75c0,0.41421 -0.33579,0.75 -0.75,0.75c-0.41421,0 -0.75,-0.33579 -0.75,-0.75z" fill="#ffffff" stroke="none" stroke-linecap="butt"/><path d="M256.75,171.1618c0,-0.41421 0.33579,-0.75 0.75,-0.75c0.41421,0 0.75,0.33579 0.75,0.75c0,0.41421 -0.33579,0.75 -0.75,0.75c-0.41421,0 -0.75,-0.33579 -0.75,-0.75z" fill="#ffffff" stroke="none" stroke-linecap="butt"/><path d="M227.75,222.1618c0,-0.41421 0.33579,-0.75 0.75,-0.75c0.41421,0 0.75,0.33579 0.75,0.75c0,0.41421 -0.33579,0.75 -0.75,0.75c-0.41421,0 -0.75,-0.33579 -0.75,-0.75z" fill="#ffffff" stroke="none" stroke-linecap="butt"/><path d="M181.25,213.6618c0,-0.41421 0.33579,-0.75 0.75,-0.75c0.41421,0 0.75,0.33579 0.75,0.75c0,0.41421 -0.33579,0.75 -0.75,0.75c-0.41421,0 -0.75,-0.33579 -0.75,-0.75z" fill="#ffe100" stroke="none" stroke-linecap="butt"/><path d="M227.75,188.1618c0,-0.41421 0.33579,-0.75 0.75,-0.75c0.41421,0 0.75,0.33579 0.75,0.75c0,0.41421 -0.33579,0.75 -0.75,0.75c-0.41421,0 -0.75,-0.33579 -0.75,-0.75z" fill="#ffe100" stroke="none" stroke-linecap="butt"/><path d="M251.75,119.1618c0,-0.41421 0.33579,-0.75 0.75,-0.75c0.41421,0 0.75,0.33579 0.75,0.75c0,0.41421 -0.33579,0.75 -0.75,0.75c-0.41421,0 -0.75,-0.33579 -0.75,-0.75z" fill="#ffe100" stroke="none" stroke-linecap="butt"/><path d="M290.75,190.1618c0,-0.41421 0.33579,-0.75 0.75,-0.75c0.41421,0 0.75,0.33579 0.75,0.75c0,0.41421 -0.33579,0.75 -0.75,0.75c-0.41421,0 -0.75,-0.33579 -0.75,-0.75z" fill="#ffe100" stroke="none" stroke-linecap="butt"/></g></g></svg>