<svg version="1.1" xmlns="http://www.w3.org/2000/svg" xmlns:xlink="http://www.w3.org/1999/xlink" width="56.83333" height="56.83333" viewBox="0,0,56.83333,56.83333"><defs><radialGradient cx="240.00002" cy="180" r="19.41667" gradientUnits="userSpaceOnUse" id="color-1"><stop offset="0" stop-color="#000000"/><stop offset="1" stop-color="#000000" stop-opacity="0"/></radialGradient></defs><g transform="translate(-211.5834,-151.58336)"><g data-paper-data="{&quot;isPaintingLayer&quot;:true}" fill-rule="nonzero" stroke-linecap="butt" stroke-linejoin="miter" stroke-miterlimit="10" stroke-dasharray="" stroke-dashoffset="0" style="mix-blend-mode: normal"><path d="M220.58334,199.41667v-38.83333h38.83333v38.83333z" fill="url(#color-1)" stroke="#000000" stroke-width="0"/><path d="M211.58341,208.41669v-56.83333h56.83333v56.83333z" fill="none" stroke="none" stroke-width="0"/><path d="M238.06006,173.77717c1.195,0.09726 2.21103,0.75191 2.8135,1.68771c0.7034,-0.54147 2.27313,-1.72367 3.22757,-1.64599c2.03743,0.16583 2.88424,2.84247 2.71841,4.8799c-0.0123,0.15113 -0.03352,0.29941 -0.06309,0.44434c1.40619,0.61656 2.33377,2.07463 2.20222,3.69088c-0.16583,2.03743 -1.95193,3.55466 -3.98935,3.38883c-4.51226,-0.36726 -7.0269,-0.81951 -11.53916,-1.18677c-2.03743,-0.16583 -3.55466,-1.95193 -3.38883,-3.98935c0.18341,-2.2534 5.34598,-1.37731 3.90439,-3.88071c0,0 0.63269,-1.66091 1.29383,-2.20547c0.7072,-0.5825 2.82051,-1.18336 2.82051,-1.18336z" fill="#234820" stroke="#1fa416" stroke-width="2"/></g></g></svg>