<svg version="1.1" xmlns="http://www.w3.org/2000/svg" xmlns:xlink="http://www.w3.org/1999/xlink" width="59.55556" height="59.55556" viewBox="0,0,59.55556,59.55556"><g transform="translate(-210.22222,-150.22222)"><g data-paper-data="{&quot;isPaintingLayer&quot;:true}" stroke-linejoin="miter" stroke-miterlimit="10" stroke-dasharray="" stroke-dashoffset="0" style="mix-blend-mode: normal"><path d="M239.84626,195.14667c-1.38376,-0.01949 -1.52182,-0.48956 -2.48623,-1.48171c-2.89325,-2.97646 -6.85303,-7.05013 -11.23932,-11.56258c-0.90571,-0.93176 -1.3195,-1.07442 -1.26021,-2.37248c0.05929,-1.29806 0.48984,-1.52209 1.48218,-2.48668c4.44248,-4.31828 8.51863,-8.28047 11.38331,-11.06507c0.95489,-0.9282 1.10212,-1.39135 2.43176,-1.31784c1.32965,0.07351 1.58947,0.55916 2.59718,1.59586c4.25028,4.37253 7.89557,8.12265 10.89082,11.20405c0.99841,1.02713 1.46589,1.1848 1.49777,2.61687c0.03188,1.43207 -0.43135,1.46523 -1.38625,2.39343c-0.95489,0.9282 -8.40631,8.17129 -11.38331,11.06507c-0.99234,0.9646 -1.14394,1.43058 -2.5277,1.41109z" fill="#131423" fill-rule="nonzero" stroke="#ffffff" stroke-width="1" stroke-linecap="butt"/><path d="M235.85714,197.57143v-8.85714h8.85714v8.85714z" fill="none" fill-rule="nonzero" stroke="none" stroke-width="0" stroke-linecap="butt"/><path d="M241.2154,187.73313c0.80753,-0.29404 1.70053,0.12224 1.99456,0.92976c0.69262,1.9022 -2.91709,4.01207 -2.91709,4.01207c-1.26309,-0.96996 -3.54989,-3.17494 -2.57994,-4.43804c0.94774,-1.23417 2.1819,-0.28642 2.1819,-0.28642c0.17926,0.13766 0.35852,0.27532 0.53779,0.41298c0.17754,-0.28114 0.44616,-0.50778 0.78278,-0.63035z" fill="#ff5a5a" fill-rule="nonzero" stroke="#ff2626" stroke-width="1.5" stroke-linecap="butt"/><g><path d="M239.72566,176.82224l6.71039,5.79676l-12.16122,-0.36261z" data-paper-data="{&quot;index&quot;:null}" fill="#ffe598" fill-rule="nonzero" stroke="#ffbf00" stroke-width="1.5" stroke-linecap="butt"/><path d="M239.87134,176.2395l6.71039,5.79676l-12.16122,-0.36261z" fill="#ffe598" fill-rule="nonzero" stroke="#ffbf00" stroke-width="1.5" stroke-linecap="butt"/><path d="M241.9706,178.18687c0.23137,-0.2541 0.71789,-0.11206 0.82404,0.24005l0.32718,1.08977l1.13453,0.49025c0.36695,0.15815 0.43205,0.61318 0.11084,0.76988l-0.99461,0.4839l-0.01437,1.08914c-0.0045,0.35171 -0.45098,0.49114 -0.7551,0.23566l-0.94216,-0.79076l-1.1434,0.18303c-0.36971,0.05904 -0.71091,-0.30989 -0.57747,-0.62425l0.4123,-0.97271l-0.69252,-0.97587c-0.22392,-0.31545 0.01188,-0.68266 0.39866,-0.62143l1.19681,0.18921l0.71527,-0.78588" fill="#ff2222" fill-rule="evenodd" stroke="none" stroke-width="1" stroke-linecap="butt"/><path d="M239.75571,181.98947c0.00671,0.35346 -0.43316,0.50503 -0.74467,0.25719l-0.96313,-0.76783l-1.13246,0.21435c-0.366,0.06969 -0.71751,-0.29145 -0.59522,-0.61065l0.37955,-0.98719l-0.72084,-0.96091c-0.23288,-0.31023 -0.01028,-0.68532 0.37656,-0.63425l1.19794,0.1576l0.68685,-0.80836c0.22219,-0.26126 0.71143,-0.13195 0.82792,0.2187l0.3609,1.08466l1.1454,0.46106c0.37029,0.149 0.44978,0.60392 0.13478,0.76963l-0.97452,0.513l0.02095,1.09299" fill="#ff2222" fill-rule="evenodd" stroke="none" stroke-width="1" stroke-linecap="butt"/><path d="M243.87189,182.11826c-0.23406,0.25193 -0.71978,0.10614 -0.8227,-0.2464l-0.31716,-1.09108l-1.13115,-0.4988c-0.36586,-0.16092 -0.42669,-0.6159 -0.10362,-0.76983l1.00037,-0.47529l0.02478,-1.08769c0.00787,-0.35125 0.45619,-0.4869 0.75822,-0.22928l0.93569,0.79739l1.14646,-0.17359c0.3707,-0.05599 0.70876,0.31524 0.57216,0.62814l-0.42205,0.9682l0.684,0.98026c0.22117,0.31687 -0.0184,0.68174 -0.40505,0.61745l-1.19638,-0.19863l-0.72359,0.77915" fill="#68ff70" fill-rule="evenodd" stroke="none" stroke-width="1" stroke-linecap="butt"/><path d="M236.6375,181.32478c-0.23406,0.25193 -0.71978,0.10614 -0.8227,-0.2464l-0.31716,-1.09108l-1.13115,-0.4988c-0.36586,-0.16092 -0.4267,-0.6159 -0.10362,-0.76983l1.00037,-0.47529l0.02478,-1.08769c0.00787,-0.35125 0.45619,-0.4869 0.75822,-0.22928l0.93569,0.79739l1.14646,-0.17359c0.3707,-0.05599 0.70876,0.31524 0.57216,0.62814l-0.42205,0.9682l0.684,0.98026c0.22117,0.31686 -0.0184,0.68174 -0.40505,0.61745l-1.19638,-0.19863l-0.72359,0.77915" fill="#68ff70" fill-rule="evenodd" stroke="none" stroke-width="1" stroke-linecap="butt"/><path d="M241.52834,181.64701c0.00671,0.35346 -0.43316,0.50503 -0.74467,0.25719l-0.96314,-0.76783l-1.13246,0.21435c-0.366,0.06969 -0.71751,-0.29144 -0.59521,-0.61065l0.37955,-0.98719l-0.72084,-0.96091c-0.23288,-0.31024 -0.01028,-0.68532 0.37656,-0.63425l1.19794,0.1576l0.68685,-0.80835c0.22219,-0.26126 0.71143,-0.13195 0.82792,0.2187l0.3609,1.08466l1.1454,0.46106c0.37029,0.149 0.44978,0.60392 0.13478,0.76963l-0.97452,0.513l0.02095,1.09299" fill="#00ff0c" fill-rule="evenodd" stroke="none" stroke-width="1" stroke-linecap="butt"/><path d="M239.92605,173.94554l6.71039,5.79676l-12.16122,-0.36261z" fill="#ffe598" fill-rule="nonzero" stroke="#ffbf00" stroke-width="1.5" stroke-linecap="butt"/><path d="M239.76632,173.30827l6.71039,5.79676l-12.16122,-0.36261z" fill="#ffe598" fill-rule="nonzero" stroke="#ffbf00" stroke-width="1.5" stroke-linecap="butt"/><path d="M240.97481,174.69177c0,0 0.27048,-0.36856 0.4506,-0.42544c0.13168,-0.04159 0.53108,0.11543 0.53108,0.11543" fill="none" fill-rule="nonzero" stroke="#009602" stroke-width="1.5" stroke-linecap="round"/><path d="M239.38239,175.20079c0.32805,-0.56 1.03986,-0.74997 1.58985,-0.42431c0.54999,0.32566 0.7299,1.04363 0.40184,1.60363c-0.32805,0.56 -1.03986,0.74997 -1.58985,0.42431c-0.54999,-0.32566 -0.7299,-1.04363 -0.40184,-1.60363z" fill="#ff4c4c" fill-rule="nonzero" stroke="#ff0000" stroke-width="1.5" stroke-linecap="butt"/><path d="M241.20679,174.19615c0,0 -0.49724,-0.03077 -0.69337,-0.33644c-0.19614,-0.30567 -0.01691,-0.77051 -0.01691,-0.77051c0,0 0.49724,0.03077 0.69337,0.33644c0.19614,0.30567 0.01691,0.77051 0.01691,0.77051z" fill="#94e095" fill-rule="nonzero" stroke="#00e005" stroke-width="1.5" stroke-linecap="butt"/></g><path d="M210.22222,209.77778v-59.55556h59.55556v59.55556z" fill="none" fill-rule="nonzero" stroke="none" stroke-width="0" stroke-linecap="butt"/></g></g></svg>