<svg version="1.1" xmlns="http://www.w3.org/2000/svg" xmlns:xlink="http://www.w3.org/1999/xlink" width="62.11111" height="62.11111" viewBox="0,0,62.11111,62.11111"><g transform="translate(-208.94447,-148.94448)"><g data-paper-data="{&quot;isPaintingLayer&quot;:true}" fill-rule="nonzero" stroke-linecap="butt" stroke-linejoin="miter" stroke-miterlimit="10" stroke-dasharray="" stroke-dashoffset="0" style="mix-blend-mode: normal"><path d="M208.94448,211.05559v-62.11111h62.11111v62.11111z" data-paper-data="{&quot;index&quot;:null}" fill="none" stroke="none" stroke-width="NaN"/><path d="M229.89517,188.91586v-14.37714h20.34716v14.37714z" fill="#ca9d28" stroke="#6d2a00" stroke-width="1.5"/><path d="M229.34525,179.70753c0,0 0,-4.34547 0,-5.93719c0,-1.67103 1.31346,-2.68621 3.0537,-2.68621c2.45312,0 10.30196,0 14.8702,0c1.90939,0 3.38563,0.98024 3.38563,2.8137c0,1.58934 0,5.8097 0,5.8097z" fill="#ca9d28" stroke="#6d2a00" stroke-width="1.5"/><path d="M237.64287,182.64286v-5.28572h4.71429v5.28572z" fill="#c2c2c2" stroke="#6d2a00" stroke-width="1.5"/><path d="M239.10477,181.40655c0,0 0.14436,-1.01132 0.36686,-1.17517c-0.26452,-0.15674 -0.44186,-0.44507 -0.44186,-0.77483c0,-0.49706 0.40294,-0.9 0.9,-0.9c0.49706,0 0.9,0.40294 0.9,0.9c0,0.29752 -0.14436,0.56132 -0.36686,0.72517c0.26452,0.15674 0.44186,1.22483 0.44186,1.22483z" fill="#000000" stroke="none" stroke-width="0.5"/></g></g></svg>