<svg version="1.1" xmlns="http://www.w3.org/2000/svg" xmlns:xlink="http://www.w3.org/1999/xlink" width="64.91667" height="60.5" viewBox="0,0,64.91667,60.5"><defs><radialGradient cx="236.42379" cy="173.63458" r="4.52585" gradientUnits="userSpaceOnUse" id="color-1"><stop offset="0" stop-color="#fffa00"/><stop offset="1" stop-color="#fffa00" stop-opacity="0"/></radialGradient><radialGradient cx="244.32957" cy="173.53888" r="4.52585" gradientUnits="userSpaceOnUse" id="color-2"><stop offset="0" stop-color="#fffa00"/><stop offset="1" stop-color="#fffa00" stop-opacity="0"/></radialGradient></defs><g transform="translate(-207.54167,-145.30555)"><g data-paper-data="{&quot;isPaintingLayer&quot;:true}" fill-rule="nonzero" stroke-linejoin="miter" stroke-miterlimit="10" stroke-dasharray="" stroke-dashoffset="0" style="mix-blend-mode: normal"><path d="M240.89904,192.4759c-0.10455,-0.01214 -0.05996,-6.34002 0.66971,-6.72076c0.05281,-0.02756 1.05609,-2.26402 1.15783,-1.5908c0.25003,1.65433 -0.75966,7.41144 -0.6059,7.35467c0.91315,-0.33713 2.52832,-0.61322 3.69916,0.04028c1.39716,0.77981 0.86646,0.93901 -0.48244,1.10958c-2.40956,0.30472 -2.84493,-0.00793 -4.43838,-0.19297z" data-paper-data="{&quot;index&quot;:null}" fill="#246900" stroke="none" stroke-width="NaN" stroke-linecap="butt"/><path d="M234.58793,192.62063c-1.34889,-0.17058 -1.87959,-0.32979 -0.48244,-1.10959c1.17084,-0.65349 2.78602,-0.3774 3.69917,-0.04028c0.15376,0.05677 -0.85594,-5.70033 -0.60591,-7.35467c0.10174,-0.67322 1.10503,1.56323 1.15784,1.59079c0.72967,0.38074 0.77426,6.70863 0.66971,6.72077c-1.59345,0.18504 -2.02883,0.49769 -4.43839,0.19297z" fill="#246900" stroke="none" stroke-width="NaN" stroke-linecap="butt"/><path d="M235.91412,166.09085l-2.81276,-5.4123l-3.72918,-2.15093l0.11162,-0.94263l2.75223,1.38638l-0.6459,-2.32307l0.97937,-0.37959c0,0 0.37028,1.95011 0.9058,3.0292c0.79859,1.60915 3.42036,5.688 3.42036,5.688z" data-paper-data="{&quot;index&quot;:null}" fill="#633407" stroke="#000000" stroke-width="1" stroke-linecap="round"/><path d="M244.9674,165.34033c0,0 3.02013,-4.69857 3.94006,-6.55221c0.6169,-1.24304 1.04343,-3.48945 1.04343,-3.48945l1.12817,0.43727l-0.74404,2.67603l3.1704,-1.59703l0.12858,1.08586l-4.29579,2.47773l-3.24013,6.23463z" fill="#633407" stroke="#000000" stroke-width="1" stroke-linecap="round"/><path d="M249.35728,158.69636c0.31119,0.61777 -3.12463,0.83152 -3.85143,1.19763c-0.72679,0.36611 -1.56823,0.16209 -1.87943,-0.45568c-0.31119,-0.61777 0.02571,-1.41537 0.7525,-1.78148c0.72679,-0.36611 4.66717,0.42174 4.97835,1.03951z" fill="#246900" stroke="#000000" stroke-width="1" stroke-linecap="butt"/><path d="M241.44924,166.76265c1.67576,0.00555 7.1621,-1.47808 7.1621,-1.47808c0,0 0.24095,5.65275 0.26451,11.28481c0.02134,5.10226 -0.1565,10.18753 -0.47011,11.03756c-0.63348,1.71695 -0.81312,0.89364 -1.59949,1.27016c-0.78637,0.37652 -1.40371,1.0471 -2.66517,1.32889c-1.26147,0.28179 -1.98127,-0.04946 -2.94056,-0.07665c-0.95929,-0.0272 -2.34277,0.33926 -3.83092,0.11165c-1.48815,-0.22761 -1.92907,-0.75465 -3.09742,-1.17131c-1.16834,-0.41665 -2.92957,-0.08408 -2.95531,-1.51934c-0.00836,-0.46644 -0.1964,-5.33587 -0.14712,-10.48295c0.05679,-5.93175 0.35272,-12.21191 0.35272,-12.21191z" fill="#6e4117" stroke="#000000" stroke-width="1" stroke-linecap="butt"/><path d="M248.72369,165.49618c0,0.44638 -1.15671,0.96023 -2.05123,1.24159c-1.03349,0.32508 -1.9499,0.38607 -4.09701,0.42285c-0.78098,0.01338 -1.30522,0.21192 -2.14784,0.21192c-1.06075,0 -2.04447,-1.05897 -3.26968,-1.35675c-1.2579,-0.30574 -2.75425,0.14601 -3.59247,-0.12725c-1.74515,-0.56892 -2.03007,-0.74925 -2.03007,-1.35952c0,-0.89097 1.60136,-1.31862 4.41241,-1.68474c0.94,-0.12243 2.27999,-0.60613 3.38691,-0.60613c0.85823,0 1.94199,0.35444 3.12528,0.48902c1.3481,0.15333 2.7958,0.10363 3.66427,0.3716c2.2927,0.70737 2.59944,1.70268 2.59944,2.39742z" fill="#6e4117" stroke="#000000" stroke-width="1" stroke-linecap="butt"/><path d="M236.17374,186.56471l0.52161,-17.25848" fill="none" stroke="#633407" stroke-width="1" stroke-linecap="round"/><path d="M247.44037,165.13464c0,0.11859 -0.84243,0.37927 -1.62837,0.45401c-0.90804,0.08637 -1.1916,0.22672 -3.07808,0.2365c-0.737,0.0038 -1.78763,0.18046 -2.52465,0.18046c-0.93198,0 -1.68039,-1.15046 -2.75688,-1.22958c-1.10521,-0.08123 -2.41991,0.03879 -3.15639,-0.03381c-1.53331,-0.15115 -0.97225,-0.07489 -0.97225,-0.23702c0,-0.23671 0.59558,-0.47448 3.0654,-0.57174c0.82589,-0.03252 1.88731,-0.53351 2.85987,-0.53351c0.75406,0 1.59033,0.40458 2.62999,0.44033c1.18445,0.04074 2.68824,0.08961 3.4513,0.1608c2.01439,0.18792 2.11003,0.949 2.11003,1.13357z" fill="#351f0b" stroke="#000000" stroke-width="1" stroke-linecap="butt"/><path d="M243.36037,168.80958l0.17388,17.87929" fill="none" stroke="#633407" stroke-width="1" stroke-linecap="round"/><path d="M239.41931,168.31294l-0.28978,13.53363" fill="none" stroke="#633407" stroke-width="1" stroke-linecap="round"/><path d="M245.91047,167.44381l-0.05796,13.84403" fill="none" stroke="#633407" stroke-width="1" stroke-linecap="round"/><path d="M232.58042,185.94389l0.34774,-12.66449" fill="none" stroke="#633407" stroke-width="1" stroke-linecap="round"/><path d="M233.85547,181.47408l1.04322,-13.84403" fill="none" stroke="#633407" stroke-width="1" stroke-linecap="round"/><path d="M241.50576,188.73754l0.05795,-7.94635" fill="none" stroke="#633407" stroke-width="1" stroke-linecap="round"/><path d="M247.76508,177.62506l-0.23183,10.42958" fill="none" stroke="#633407" stroke-width="1" stroke-linecap="round"/><path d="M237.33287,189.29627l3.94106,-0.06208l2.55009,0.31041" fill="none" stroke="#633407" stroke-width="1" stroke-linecap="round"/><path d="M232.23268,166.14011l1.50688,0.74497l2.89783,-0.18625l3.76719,1.61409l0.4057,3.47653" fill="none" stroke="#633407" stroke-width="1" stroke-linecap="round"/><g stroke-linecap="butt"><path d="M233.10227,173.71905c0,-0.73685 0.63013,-1.68723 1.06795,-2.21199c0.55498,-0.6652 1.02344,-0.81346 1.95748,-0.81346c0.98968,0 1.96007,0.4752 2.51205,1.20988c0.37994,0.5057 0.5134,1.13433 0.5134,1.81556c0,1.36866 -0.26705,2.80011 -1.51415,3.17367c-0.2754,0.08249 -1.75912,-0.14823 -2.06135,-0.14823c-0.90786,0 -1.35562,-0.30819 -1.91017,-0.94143c-0.46608,-0.53222 -0.56519,-1.32097 -0.56519,-2.084z" fill="#1c1106" stroke="#000000" stroke-width="1"/><path d="M241.10844,173.6103c0,-1.15403 0.00438,-1.79044 0.95462,-2.30061c0.42559,-0.2285 1.55394,-0.72482 2.07081,-0.72482c0.8123,0 2.09992,0.77853 2.64339,1.2995c0.57447,0.55068 0.38204,0.86733 0.38204,1.72594c0,0.78605 0.06695,1.50209 -0.4245,2.04002c-0.55322,0.60557 -1.71609,0.98542 -2.60094,0.98542c-0.98968,0 -1.3183,-0.0168 -1.87027,-0.75149c-0.37994,-0.5057 -1.15517,-1.59274 -1.15517,-2.27396z" fill="#1c1106" stroke="#000000" stroke-width="1"/><path d="M231.89796,173.63458c0,-2.49956 2.02627,-4.52583 4.52584,-4.52583c2.49956,0 4.52586,2.02628 4.52586,4.52583c0,2.49956 -2.02629,4.52584 -4.52586,4.52584c-2.49956,0 -4.52584,-2.02628 -4.52584,-4.52584z" fill="url(#color-1)" stroke="none" stroke-width="0"/><path d="M234.78399,173.70017c0,-0.86943 0.7048,-1.5742 1.57421,-1.5742c0.86943,0 1.5742,0.70479 1.5742,1.5742c0,0.37318 -0.12985,0.71601 -0.34682,0.98582c-0.32887,-0.23343 -0.73082,-0.37066 -1.16481,-0.37066c-0.46839,0 -0.89944,0.15984 -1.2416,0.42796c-0.2459,-0.27773 -0.39518,-0.64299 -0.39518,-1.04311z" fill="#ffffff" stroke="none" stroke-width="0.5"/><path d="M239.80373,173.53888c0,-2.49956 2.02628,-4.52585 4.52583,-4.52585c2.49956,0 4.52584,2.02629 4.52584,4.52585c0,2.49956 -2.02628,4.52582 -4.52584,4.52582c-2.49956,0 -4.52583,-2.02627 -4.52583,-4.52582z" fill="url(#color-2)" stroke="none" stroke-width="0"/><path d="M242.6749,173.51638c0.0892,-0.86482 0.86259,-1.4936 1.72742,-1.4044c0.86482,0.0892 1.49358,0.86259 1.40438,1.72741c-0.03205,0.31068 -0.15237,0.59089 -0.33352,0.81829c-0.2825,-0.21203 -0.62441,-0.35249 -1.00136,-0.39136c-0.13132,-0.01355 -0.26098,-0.01416 -0.38772,-0.00287c-0.17102,0.00495 -0.34286,0.04195 -0.51142,0.11448c-0.19738,0.07238 -0.38121,0.17501 -0.5453,0.3028c-0.25933,-0.31381 -0.39755,-0.72741 -0.35249,-1.16436z" fill="#ffffff" stroke="none" stroke-width="0.5"/></g><path d="M207.54168,205.80556v-60.5h64.91667v60.5z" fill="none" stroke="none" stroke-width="NaN" stroke-linecap="butt"/></g></g></svg>