<svg version="1.1" xmlns="http://www.w3.org/2000/svg" xmlns:xlink="http://www.w3.org/1999/xlink" width="81.27777" height="81.27777" viewBox="0,0,81.27777,81.27777"><defs><linearGradient x1="267.46702" y1="144.51904" x2="244.84598" y2="152.41776" gradientUnits="userSpaceOnUse" id="color-1"><stop offset="0" stop-color="#6aa7f6"/><stop offset="1" stop-color="#6af69d"/></linearGradient><radialGradient cx="235.44342" cy="164.64601" r="4.11381" gradientUnits="userSpaceOnUse" id="color-2"><stop offset="0" stop-color="#ff0000"/><stop offset="1" stop-color="#ff0000" stop-opacity="0"/></radialGradient><radialGradient cx="243.35217" cy="164.4912" r="4.11381" gradientUnits="userSpaceOnUse" id="color-3"><stop offset="0" stop-color="#ff0000"/><stop offset="1" stop-color="#ff0000" stop-opacity="0"/></radialGradient><linearGradient x1="225.00332" y1="177.35743" x2="229.8497" y2="185.74756" gradientUnits="userSpaceOnUse" id="color-4"><stop offset="0" stop-color="#1b6ba1"/><stop offset="1" stop-color="#a0d3f5"/></linearGradient><linearGradient x1="247.49942" y1="174.9181" x2="251.7408" y2="188.82098" gradientUnits="userSpaceOnUse" id="color-5"><stop offset="0" stop-color="#1b6ba1"/><stop offset="1" stop-color="#a0d3f5"/></linearGradient></defs><g transform="translate(-199.77779,-133.77781)"><g data-paper-data="{&quot;isPaintingLayer&quot;:true}" fill-rule="nonzero" stroke-linejoin="miter" stroke-miterlimit="10" stroke-dasharray="" stroke-dashoffset="0" style="mix-blend-mode: normal"><path d="M259.81811,194.79255c0,0 -2.52786,-10.74246 -1.34286,-17.03315c1.73443,-9.20744 3.01185,-6.3981 3.84111,-10.86216c0.82926,-4.46406 0.9452,-13.48337 1.00097,-15.20361c0.02141,-0.66051 1.52559,-1.67462 1.99154,-2.31143c0.77212,-1.05525 0.83371,-2.24291 2.22942,-2.79719c1.13633,-0.45128 3.7189,-0.37033 3.7189,-0.37033" fill="none" stroke="#91aed5" stroke-width="2" stroke-linecap="round"/><path d="M266.68435,142.27754c0.23731,0.67962 -1.87601,1.46289 -1.5088,2.98935c0.3672,1.52645 2.84138,0.13069 2.45185,0.93085c-0.8107,1.66529 -4.07223,3.85446 -4.61954,5.19848c-4.81823,-4.06278 -8.13334,-6.20113 -14.5147,-3.97292c-1.66686,0.58203 -3.79906,1.50764 -4.57183,3.60844c-0.79619,-2.56552 2.23769,-6.23004 6.98666,-7.63139c6.6091,-1.95024 15.77636,-1.12281 15.77636,-1.12281z" fill="url(#color-1)" stroke="#ffffff" stroke-width="0" stroke-linecap="butt"/><path d="M251.63265,191.10873c-0.79145,0.22759 -4.20123,-1.75327 -5.09323,-1.69689c-2.8959,0.18304 -2.84594,0.71751 -5.83232,0.97202c-0.6549,0.05581 -1.17457,0.03858 -1.60661,-0.02396c-1.62523,-0.23519 -2.01084,-1.11112 -3.69272,-1.14935c-1.56379,-0.03555 -2.93455,2.12919 -4.69057,1.85688c-5.94597,-0.92208 8.15035,-12.68687 8.15035,-12.68687z" fill="#0a283c" stroke="none" stroke-width="0" stroke-linecap="butt"/><path d="M248.18016,164.12455c0.69201,3.27364 0.48942,5.72639 2.82466,10.58955c0.4128,0.85969 2.33244,14.45043 3.50123,15.93151c1.80336,2.28522 -9.6689,2.45277 -10.1171,2.72292c-1.05689,0.63706 -1.69523,-4.65756 -2.85956,-7.94318c-1.98844,-5.61113 -2.12433,-12.27235 -2.12433,-12.27235c0,0 0.28072,9.36793 -0.85378,11.82396c-1.43754,3.11209 -3.59332,7.46865 -4.84167,8.37288c-1.76384,1.2776 -9.97835,0.29931 -9.12053,-1.70257c0.5477,-1.27815 2.37103,-14.9222 2.92165,-16.48699c1.38428,-3.93402 1.98509,-8.07079 2.60021,-11.95841c0.79296,-5.01153 3.89919,-7.41859 8.80394,-7.41859c4.90474,0 8.2159,3.3771 9.26527,8.34127z" fill="#1b6ba1" stroke="none" stroke-width="0" stroke-linecap="butt"/><path d="M246.74526,164.49622c0,3.9118 -3.42692,5.77581 -7.55938,5.77581c-4.13246,0 -7.40561,-1.86399 -7.40561,-5.77581c0,-3.9118 3.35002,-7.08295 7.4825,-7.08295c4.13246,0 7.48251,3.17113 7.48251,7.08295z" fill="#0a283c" stroke="none" stroke-width="NaN" stroke-linecap="butt"/><g stroke="none" stroke-linecap="butt"><path d="M231.32963,164.64601c0,-2.272 1.8418,-4.11379 4.1138,-4.11379c2.272,0 4.11381,1.8418 4.11381,4.11379c0,2.272 -1.84181,4.11381 -4.11381,4.11381c-2.272,0 -4.1138,-1.84181 -4.1138,-4.11381z" fill="url(#color-2)" stroke-width="0"/><path d="M233.95291,164.70563c0,-0.79027 0.64063,-1.43088 1.43089,-1.43088c0.79027,0 1.43088,0.64063 1.43088,1.43088c0,0.79027 -0.64062,1.43089 -1.43088,1.43089c-0.79027,0 -1.43089,-0.64062 -1.43089,-1.43089z" fill="#ffffff" stroke-width="0.5"/></g><g stroke="none" stroke-linecap="butt"><path d="M239.23836,164.4912c0,-2.272 1.8418,-4.11381 4.11379,-4.11381c2.272,0 4.11381,1.84181 4.11381,4.11381c0,2.272 -1.84181,4.11379 -4.11381,4.11379c-2.272,0 -4.11379,-1.8418 -4.11379,-4.11379z" fill="url(#color-3)" stroke-width="0"/><path d="M241.86167,164.55081c0,-0.79026 0.64064,-1.43089 1.4309,-1.43089c0.79026,0 1.43088,0.64064 1.43088,1.43089c0,0.79026 -0.64062,1.43088 -1.43088,1.43088c-0.79026,0 -1.4309,-0.64062 -1.4309,-1.43088z" fill="#ffffff" stroke-width="0.5"/></g><path d="M239.43447,173.43489c-0.9317,-0.10227 -1.74294,0.32454 -1.53564,-1.56406c0.2073,-1.8886 0.87973,-1.57802 1.81143,-1.47575c0.9317,0.10227 1.76988,-0.0425 1.56258,1.8461c-0.20731,1.88861 -0.90667,1.29598 -1.83837,1.19371z" fill="#a0d3f5" stroke="none" stroke-width="0" stroke-linecap="butt"/><path d="M237.43331,181.47526l1.94347,-9.49381l2.05394,9.49381c0,0 -1.68498,2.74821 -2.38748,2.74821c-0.61953,0 -1.60992,-2.74821 -1.60992,-2.74821z" fill="#a0d3f5" stroke="none" stroke-width="0" stroke-linecap="butt"/><path d="M231.74235,175.46261c0.53533,0.92675 -1.50318,11.57129 -2.71316,11.95607c-1.20998,0.38479 -4.8359,-0.84111 -5.37121,-1.76786c-0.13754,-0.23811 -0.11136,-0.73391 0.07475,-1.41439c0.27044,-0.98882 0.87859,-2.3676 1.81276,-3.91225c0.93979,-1.55394 1.42628,-6.38937 3.08704,-7.12407c1.03403,-0.45745 2.62864,1.42945 3.10981,2.26247z" fill="url(#color-4)" stroke="none" stroke-width="0" stroke-linecap="butt"/><path d="M226.48816,184.63523c1.46142,0.8233 3.53788,1.43773 3.00637,2.38119c-0.5315,0.94347 -0.95575,0.69756 -3.69937,0.59111c-1.67613,-0.06503 -2.79076,-1.84158 -2.25926,-2.78504c0.5315,-0.94347 1.49082,-1.01056 2.95226,-0.18726z" fill="#0a283c" stroke="none" stroke-width="0" stroke-linecap="butt"/><path d="M254.81432,176.25099c-0.68717,0.11427 -0.06439,1.42521 -0.07231,2.29744c-0.02498,2.75225 2.52078,4.465 2.52078,4.465c0,0 -10.41948,1.82225 -10.56189,-2.66221c-0.04206,-1.32433 -1.73953,-4.78519 -0.78955,-5.69796c1.80914,-1.73833 3.27332,-1.43899 3.71326,-1.51214c0.84161,-0.13995 0.72072,1.27182 1.18612,2.5074z" data-paper-data="{&quot;index&quot;:null}" fill="url(#color-5)" stroke="none" stroke-width="0" stroke-linecap="butt"/><path d="M255.89316,183.32929c-1.07895,-0.12906 -3.15048,-2.06891 -2.16468,-3.52093c-0.1559,-2.87826 0.80402,-3.51036 1.88297,-3.3813c1.07895,0.12906 2.6331,2.79445 2.38296,4.52924c-0.25014,1.73479 -1.02229,2.50206 -2.10125,2.37299z" data-paper-data="{&quot;index&quot;:null}" fill="#0a283c" stroke="none" stroke-width="0" stroke-linecap="butt"/><path d="M259.1179,183.23207c-1.56994,0.06337 -2.88357,-0.89997 -2.9341,-2.15167c-0.04676,-1.15848 0.07671,-2.27441 1.47824,-2.46709c0.11278,-0.01552 1.97697,1.36571 2.09389,1.36099c0.58422,-0.02358 0.84356,-2.52751 1.14704,-2.90059c0.51206,-0.62948 0.84751,0.84012 0.87923,1.62604c0.05053,1.2517 -1.09436,4.46896 -2.6643,4.53233z" fill="none" stroke="#ffffff" stroke-width="1.5" stroke-linecap="butt"/><path d="M225.36913,191.62011c-1.16452,-0.46176 -0.70738,-0.82355 -0.12823,-2.28413c0.04314,-0.10878 -0.64363,-2.32493 -0.59169,-2.42623c0.64549,-1.25888 1.73941,-1.00624 2.8172,-0.57888c1.16452,0.46176 1.63906,2.02014 1.05991,3.48072c-0.57915,1.46058 -1.99267,2.2703 -3.15718,1.80854z" data-paper-data="{&quot;index&quot;:null}" fill="none" stroke="#ffffff" stroke-width="1.5" stroke-linecap="butt"/><path d="M232.50996,155.93994c0,0 -0.20331,-3.19275 0.99452,-3.72744c1.19782,-0.53469 3.47045,2.17154 3.47045,2.17154" fill="none" stroke="#ffffff" stroke-width="1.5" stroke-linecap="round"/><path d="M243.26162,155.42642c0,0 2.47884,-1.97115 3.47802,-1.2865c0.99918,0.68465 0.10172,4.10245 0.10172,4.10245" data-paper-data="{&quot;index&quot;:null}" fill="none" stroke="#ffffff" stroke-width="1.5" stroke-linecap="round"/><path d="M199.77779,215.05558v-81.27777h81.27777v81.27777z" fill="none" stroke="none" stroke-width="NaN" stroke-linecap="butt"/></g></g></svg>