<svg version="1.1" xmlns="http://www.w3.org/2000/svg" xmlns:xlink="http://www.w3.org/1999/xlink" width="65.4" height="65.4" viewBox="0,0,65.4,65.4"><defs><radialGradient cx="246.65" cy="176.95" r="9.63237" gradientUnits="userSpaceOnUse" id="color-1"><stop offset="0" stop-color="#ffd95a"/><stop offset="1" stop-color="#ffd95a" stop-opacity="0"/></radialGradient><radialGradient cx="236.4" cy="182.6" r="12.68154" gradientUnits="userSpaceOnUse" id="color-2"><stop offset="0" stop-color="#ffd95a"/><stop offset="1" stop-color="#ffd95a" stop-opacity="0"/></radialGradient></defs><g transform="translate(-207.1,-147.7)"><g data-paper-data="{&quot;isPaintingLayer&quot;:true}" fill-rule="nonzero" stroke-linejoin="miter" stroke-miterlimit="10" stroke-dasharray="" stroke-dashoffset="0" style="mix-blend-mode: normal"><path d="M239.84627,195.14667c-1.38376,-0.01949 -1.52182,-0.48956 -2.48623,-1.48171c-2.89325,-2.97646 -6.85303,-7.05013 -11.23932,-11.56258c-0.90571,-0.93176 -1.3195,-1.07442 -1.26021,-2.37248c0.05929,-1.29806 0.48984,-1.52209 1.48218,-2.48668c4.44248,-4.31828 8.51863,-8.28047 11.38331,-11.06507c0.95489,-0.9282 1.10212,-1.39135 2.43176,-1.31784c1.32965,0.07351 1.58947,0.55916 2.59718,1.59586c4.25028,4.37253 7.89557,8.12265 10.89082,11.20405c0.99841,1.02713 1.46589,1.1848 1.49777,2.61687c0.03188,1.43207 -0.43135,1.46523 -1.38625,2.39343c-0.95489,0.9282 -8.40631,8.17129 -11.38331,11.06507c-0.99234,0.9646 -1.14394,1.43058 -2.5277,1.41109z" fill="#151723" stroke="#ffffff" stroke-width="1" stroke-linecap="butt"/><path d="M239.84626,194.89024c-1.38376,-0.01949 -1.52182,-0.48956 -2.48623,-1.48171c-2.89325,-2.97646 -6.85303,-7.05013 -11.23932,-11.56258c-0.90571,-0.93176 -1.3195,-1.07442 -1.26021,-2.37248c0.05929,-1.29806 0.48984,-1.52209 1.48218,-2.48668c4.44248,-4.31828 8.51863,-8.28047 11.38331,-11.06507c0.95489,-0.9282 1.10212,-1.39135 2.43176,-1.31784c1.32965,0.07351 1.58947,0.55916 2.59718,1.59586c4.25028,4.37253 7.89557,8.12265 10.89082,11.20405c0.99841,1.02713 1.46589,1.1848 1.49777,2.61687c0.03188,1.43207 -0.43135,1.46523 -1.38625,2.39343c-0.95489,0.9282 -8.40631,8.17129 -11.38331,11.06507c-0.99234,0.9646 -1.14394,1.43058 -2.5277,1.41109z" fill="none" stroke="#ffffff" stroke-width="1" stroke-linecap="butt"/><g><path d="M237.2543,179.0721c-1.17201,-5.1891 2.08449,-10.3458 7.2736,-11.5178c5.1891,-1.17201 10.3458,2.08449 11.5178,7.2736c1.17201,5.1891 -2.08449,10.3458 -7.2736,11.5178c-5.1891,1.17201 -10.3458,-2.08449 -11.5178,-7.2736z" fill="url(#color-1)" stroke="#ffe400" stroke-width="0" stroke-linecap="butt"/><path d="M240.96238,177.93761c-0.27623,-1.22301 3.12867,-6.61469 4.35168,-6.89092c1.22301,-0.27623 6.47842,3.15945 6.75465,4.38246c0.27623,1.22301 -2.99239,6.58391 -4.2154,6.86014c-1.22301,0.27623 -6.61469,-3.12867 -6.89092,-4.35168z" fill="#846500" stroke="#ffe400" stroke-width="2" stroke-linecap="butt"/><path d="M243.43565,176.80958c-0.10793,-0.47787 0.19196,-0.95274 0.66981,-1.06067c0.47787,-0.10793 0.95274,0.19196 1.06067,0.66982c0.10793,0.47787 -0.19197,0.95275 -0.66983,1.06068c-0.47787,0.10793 -0.95273,-0.19197 -1.06066,-0.66983z" fill="#ffe400" stroke="none" stroke-width="2" stroke-linecap="butt"/><path d="M247.57393,175.26865c-0.10793,-0.47787 0.19196,-0.95274 0.66982,-1.06067c0.47787,-0.10793 0.95274,0.19196 1.06067,0.66982c0.10793,0.47787 -0.19196,0.95274 -0.66982,1.06067c-0.47787,0.10793 -0.95274,-0.19196 -1.06067,-0.66982z" fill="#ffe400" stroke="none" stroke-width="2" stroke-linecap="butt"/><path d="M248.62913,178.06162c0,0 -0.81871,0.66992 -1.28017,0.77414c-0.46146,0.10422 -1.48863,-0.14879 -1.48863,-0.14879" fill="#d4c300" stroke="#ffe400" stroke-width="2" stroke-linecap="round"/></g><path d="M207.1,213.1v-65.4h65.4v65.4z" fill="none" stroke="none" stroke-width="0" stroke-linecap="butt"/><g><path d="M224.53189,178.13128c2.46801,-6.55458 9.78225,-9.8674 16.33683,-7.39939c6.55458,2.46801 9.8674,9.78225 7.39939,16.33683c-2.46801,6.55458 -9.78225,9.8674 -16.33683,7.39939c-6.55458,-2.46801 -9.8674,-9.78225 -7.39939,-16.33683z" fill="url(#color-2)" stroke="#ffe400" stroke-width="0" stroke-linecap="butt"/><path d="M229.43074,179.56831c0.58168,-1.54484 8.22923,-5.00862 9.77407,-4.42694c1.54484,0.58168 4.83648,8.16442 4.2548,9.70925c-0.58168,1.54484 -8.05709,5.07344 -9.60193,4.49176c-1.54484,-0.58168 -5.00862,-8.22923 -4.42694,-9.77407z" fill="#846500" stroke="#ffe400" stroke-width="2" stroke-linecap="butt"/><path d="M232.96708,180.11848c0.22728,-0.60362 0.90084,-0.90869 1.50444,-0.68141c0.60362,0.22728 0.90868,0.90085 0.68141,1.50446c-0.22728,0.60362 -0.90085,0.90868 -1.50446,0.68141c-0.60362,-0.22728 -0.90867,-0.90085 -0.6814,-1.50445z" fill="#ffe400" stroke="none" stroke-width="2" stroke-linecap="butt"/><path d="M238.63324,181.42004c0.22728,-0.60362 0.90085,-0.90868 1.50446,-0.68141c0.60362,0.22728 0.90868,0.90085 0.68141,1.50446c-0.22728,0.60362 -0.90085,0.90868 -1.50446,0.68141c-0.60362,-0.22728 -0.90868,-0.90085 -0.68141,-1.50446z" fill="#ffe400" stroke="none" stroke-width="2" stroke-linecap="butt"/><path d="M237.77152,185.25521c0,0 -1.38527,0.14394 -1.96817,-0.07554c-0.5829,-0.21948 -1.52921,-1.24134 -1.52921,-1.24134" fill="#d4c300" stroke="#ffe400" stroke-width="2" stroke-linecap="round"/></g><path d="M245.13217,188.83976c-0.45134,0.45113 -1.18334,0.45059 -1.63436,-0.00119c-0.45134,-0.45158 -0.45081,-1.18337 0.00119,-1.63471c1.78337,-1.78078 4.11685,-4.11074 4.11685,-4.11074c0.45158,-0.45102 1.18349,-0.45048 1.6346,0.00119c0,0 2.70027,2.70387 4.14403,4.14997c0.45113,0.45167 0.45048,1.18334 -0.00119,1.63469c-0.45167,0.45113 -1.18346,0.45059 -1.6346,-0.00119c-1.78066,-1.78337 -2.17133,-2.16995 -2.17133,-2.16995c0,0 -0.00658,5.75388 -0.00807,7.79722c-0.00047,0.63842 -0.51822,1.15554 -1.15664,1.15507c-0.63832,-0.00047 -1.15554,-0.51836 -1.15509,-1.15675c0.00178,-2.43719 0.00798,-7.80349 0.00798,-7.80349c0,0 -0.69684,0.69591 -2.14336,2.13989z" fill="#66ff13" stroke="#10cb0e" stroke-width="1.15823" stroke-linecap="butt"/></g></g></svg>