<svg version="1.1" xmlns="http://www.w3.org/2000/svg" xmlns:xlink="http://www.w3.org/1999/xlink" width="79.75" height="79.75" viewBox="0,0,79.75,79.75"><g transform="translate(-200,-140.6875)"><g data-paper-data="{&quot;isPaintingLayer&quot;:true}" fill="none" fill-rule="nonzero" stroke-linecap="butt" stroke-linejoin="miter" stroke-miterlimit="10" stroke-dasharray="" stroke-dashoffset="0" style="mix-blend-mode: normal"><path d="M239.69146,210.39829c-2.77711,-0.03912 -3.05418,-0.98251 -4.98969,-2.97369c-5.80655,-5.97354 -13.75354,-14.14911 -22.55651,-23.20527c-1.8177,-1.86998 -2.64814,-2.15628 -2.52915,-4.7614c0.11899,-2.60511 0.98307,-3.05473 2.97463,-4.99059c8.91574,-8.66648 17.09628,-16.61831 22.84549,-22.20681c1.9164,-1.86283 2.21188,-2.79234 4.88037,-2.64481c2.66851,0.14753 3.18995,1.12219 5.21236,3.20278c8.53001,8.77536 15.84585,16.30158 21.8571,22.48573c2.00374,2.06138 2.94194,2.37781 3.00592,5.25187c0.06398,2.87406 -0.86569,2.94061 -2.7821,4.80344c-1.9164,1.86283 -16.87087,16.3992 -22.84549,22.20681c-1.99156,1.93588 -2.29581,2.87107 -5.07291,2.83196z" stroke="#ffffff" stroke-width="2"/><path d="M200,220.4375v-79.75h79.75v79.75z" stroke="none" stroke-width="0"/></g></g></svg>