<svg version="1.1" xmlns="http://www.w3.org/2000/svg" xmlns:xlink="http://www.w3.org/1999/xlink" width="499.27344" height="371" viewBox="0,0,499.27344,371"><defs><linearGradient x1="489.52344" y1="21.97201" x2="21.52344" y2="21.97201" gradientUnits="userSpaceOnUse" id="color-1"><stop offset="0" stop-color="#ffffff"/><stop offset="1" stop-color="#ffffff" stop-opacity="0"/></linearGradient></defs><g transform="translate(9.5,5.5)"><g data-paper-data="{&quot;isPaintingLayer&quot;:true}" fill-rule="nonzero" stroke-linejoin="miter" stroke-miterlimit="10" stroke-dasharray="" stroke-dashoffset="0" style="mix-blend-mode: normal"><path d="M-9.5,365.5v-371h499v371z" fill="#000000" stroke="none" stroke-width="0" stroke-linecap="butt"/><g data-paper-data="{&quot;index&quot;:null}" fill="none" stroke-width="1" stroke-linecap="butt"><g stroke="none" font-family="sans-serif" font-weight="normal" font-size="12" text-anchor="start"/><path d="M16.95373,349.16556c-1.82608,0 -6.39675,0 -6.98248,0c-0.58573,0 -0.74199,0.13155 -1.17097,-0.32988c-0.42898,-0.46143 -0.32989,-0.65447 -0.32989,-1.28451c0,-1.89011 0,-4.19043 0,-6.87252c0,-0.6359 -0.06694,-0.86873 0.32989,-1.29955c0.39682,-0.43082 0.58524,-0.32988 1.17097,-0.32988c1.75718,0 4.25748,0 6.98248,0c0.6087,0 0.81317,-0.06134 1.22982,0.32988c0.41665,0.39122 0.32988,0.56308 0.32988,1.13461c0,2.76792 0,5.26668 0,7.09244c0,0.60859 0.10057,0.79917 -0.32988,1.22953c-0.43045,0.43037 -0.62112,0.32988 -1.22982,0.32988z" stroke="#ffffff"/></g><text transform="translate(10.95292,346.54998) scale(0.22717,0.22717)" font-size="40" xml:space="preserve" fill="#ffffff" fill-rule="nonzero" stroke="none" stroke-width="1" stroke-linecap="butt" stroke-linejoin="miter" stroke-miterlimit="10" stroke-dasharray="" stroke-dashoffset="0" font-family="Malgun Gothic" font-weight="normal" text-anchor="start" style="mix-blend-mode: normal"><tspan x="0" dy="0">S</tspan></text><g fill="none"><g stroke="#f4f4f4" stroke-width="2" stroke-linecap="round"><path d="M126.6905,341.36798l2.99883,2.99883l-2.68317,2.68316"/><path d="M129.21583,344.20898h-5.99766"/></g><path d="M121.67595,348.80796c-0.43045,-0.43037 -0.32987,-0.62095 -0.32987,-1.22954c0,-1.82575 0,-4.32452 0,-7.09244c0,-0.57153 -0.08678,-0.74339 0.32987,-1.13461c0.41666,-0.39122 0.62113,-0.32988 1.22983,-0.32988c2.725,0 5.22529,0 6.98248,0c0.58573,0 0.77415,-0.10094 1.17097,0.32988c0.39682,0.43082 0.32988,0.66365 0.32988,1.29955c0,2.68209 0,4.98241 0,6.87252c0,0.63004 0.0991,0.82308 -0.32988,1.28451c-0.42898,0.46143 -0.58524,0.32988 -1.17097,0.32988c-0.58573,0 -5.15639,0 -6.98248,0c-0.60869,0 -0.79938,0.10049 -1.22983,-0.32988z" stroke="#ffffff" stroke-width="1" stroke-linecap="butt"/></g><g data-paper-data="{&quot;index&quot;:null}" fill="none"><g stroke="#f4f4f4" stroke-width="2" stroke-linecap="round"><path d="M112.86353,347.04998l-2.68317,-2.68316l2.99883,-2.99883"/><path d="M116.65153,344.20898h-5.99766"/></g><path d="M116.96392,349.13784c-1.82608,0 -6.39675,0 -6.98248,0c-0.58573,0 -0.74199,0.13155 -1.17097,-0.32988c-0.42898,-0.46143 -0.32989,-0.65447 -0.32989,-1.28451c0,-1.89011 0,-4.19043 0,-6.87252c0,-0.6359 -0.06694,-0.86873 0.32989,-1.29955c0.39683,-0.43082 0.58524,-0.32988 1.17097,-0.32988c1.75719,0 4.25748,0 6.98248,0c0.60869,0 0.81317,-0.06134 1.22983,0.32988c0.41666,0.39122 0.32988,0.56308 0.32988,1.13461c0,2.76792 0,5.26668 0,7.09244c0,0.60859 0.10057,0.79917 -0.32988,1.22953c-0.43045,0.43037 -0.62113,0.32988 -1.22983,0.32988z" stroke="#ffffff" stroke-width="1" stroke-linecap="butt"/></g><text transform="translate(160.3399,348.53863) scale(0.32331,0.32331)" font-size="40" xml:space="preserve" fill="#ffffff" fill-rule="nonzero" stroke="none" stroke-width="1" stroke-linecap="butt" stroke-linejoin="miter" stroke-miterlimit="10" stroke-dasharray="" stroke-dashoffset="0" font-family="Malgun Gothic" font-weight="normal" text-anchor="start" style="mix-blend-mode: normal"><tspan x="0" dy="0">Choose</tspan></text><text transform="translate(21.54253,348.53863) scale(0.32331,0.32331)" font-size="40" xml:space="preserve" fill="#ffffff" fill-rule="nonzero" stroke="none" stroke-width="1" stroke-linecap="butt" stroke-linejoin="miter" stroke-miterlimit="10" stroke-dasharray="" stroke-dashoffset="0" font-family="Malgun Gothic" font-weight="normal" text-anchor="start" style="mix-blend-mode: normal"><tspan x="0" dy="0">Confirm</tspan></text><text transform="translate(162.72076,51.592) scale(0.63267,0.63267)" font-size="40" xml:space="preserve" fill="#ffe21e" fill-rule="nonzero" stroke="none" stroke-width="1" stroke-linecap="butt" stroke-linejoin="miter" stroke-miterlimit="10" stroke-dasharray="" stroke-dashoffset="0" font-family="Malgun Gothic" font-weight="normal" text-anchor="start" style="mix-blend-mode: normal"><tspan x="0" dy="0">Trader's Shop</tspan></text><path d="M21.52344,21.97201h468" data-paper-data="{&quot;index&quot;:null}" fill="none" stroke="url(#color-1)" stroke-width="0.5" stroke-linecap="round"/><text transform="translate(228.29472,348.3677) scale(0.30187,0.30187)" font-size="40" xml:space="preserve" fill="#ffffff" fill-rule="nonzero" stroke="none" stroke-width="1" stroke-linecap="butt" stroke-linejoin="miter" stroke-miterlimit="10" stroke-dasharray="" stroke-dashoffset="0" font-family="Malgun Gothic" font-weight="normal" text-anchor="start" style="mix-blend-mode: normal"><tspan x="0" dy="0">Use your mouse to view item descriptions</tspan></text><g fill="none"><g stroke="#f4f4f4" stroke-width="2" stroke-linecap="round"><path d="M149.4219,343.75885l3.00025,-2.99741l2.68189,2.68444"/><path d="M152.26126,347.23253l0.00285,-5.99766"/></g><path d="M156.8595,348.77693c-0.43058,0.43025 -0.6211,0.32958 -1.22969,0.32929c-1.82575,-0.00086 -4.32452,-0.00205 -7.09244,-0.00337c-0.57153,-0.00027 -0.74344,0.08643 -1.13446,-0.33041c-0.39102,-0.41685 -0.32959,-0.62129 -0.3293,-1.22998c0.00129,-2.725 0.00248,-5.22529 0.00331,-6.98248c0.00028,-0.58573 -0.10057,-0.7742 0.33044,-1.17081c0.43101,-0.39661 0.6638,-0.32956 1.2997,-0.32926c2.68209,0.00127 4.98241,0.00236 6.87252,0.00326c0.63004,0.0003 0.82313,-0.09871 1.28435,0.33049c0.46123,0.4292 0.3296,0.5854 0.32932,1.17113c-0.00028,0.58573 -0.00244,5.15639 -0.00331,6.98248c-0.00029,0.60869 0.10011,0.79943 -0.33047,1.22967z" stroke="#ffffff" stroke-width="1" stroke-linecap="butt"/></g><g data-paper-data="{&quot;index&quot;:null}" fill="none"><g stroke="#f4f4f4" stroke-width="2" stroke-linecap="round"><path d="M142.24011,344.71466l-2.67657,2.68974l-3.00617,-2.99147"/><path d="M139.38983,340.93364l0.01471,5.99764"/></g><path d="M144.31791,340.60916c0.00448,1.82608 0.01569,6.39673 0.01712,6.98246c0.00143,0.58573 0.13337,0.74167 -0.327,1.17178c-0.46037,0.43011 -0.65365,0.33149 -1.28369,0.33304c-1.89011,0.00464 -4.19042,0.01028 -6.8725,0.01686c-0.6359,0.00156 -0.86856,0.06907 -1.30035,-0.3267c-0.43179,-0.39577 -0.33132,-0.58443 -0.33275,-1.17016c-0.00431,-1.75718 -0.01045,-4.25747 -0.01713,-6.98246c-0.0015,-0.60869 -0.06333,-0.81302 0.32686,-1.23064c0.3902,-0.41762 0.56226,-0.33126 1.13379,-0.33266c2.76791,-0.00679 5.26667,-0.01292 7.09242,-0.0174c0.60859,-0.00149 0.79892,-0.10253 1.23033,0.32686c0.43142,0.42939 0.3314,0.62032 0.3329,1.22902z" stroke="#ffffff" stroke-width="1" stroke-linecap="butt"/></g><g stroke-width="1" stroke-linecap="butt"><g data-paper-data="{&quot;index&quot;:null}" fill="none"><g stroke="none" font-family="sans-serif" font-weight="normal" font-size="12" text-anchor="start"/><path d="M16.95373,331.16556c-1.82608,0 -6.39675,0 -6.98248,0c-0.58573,0 -0.74199,0.13155 -1.17097,-0.32988c-0.42898,-0.46143 -0.32989,-0.65447 -0.32989,-1.28451c0,-1.89011 0,-4.19043 0,-6.87252c0,-0.6359 -0.06694,-0.86873 0.32989,-1.29955c0.39682,-0.43082 0.58524,-0.32988 1.17097,-0.32988c1.75718,0 4.25748,0 6.98248,0c0.6087,0 0.81317,-0.06134 1.22982,0.32988c0.41665,0.39122 0.32988,0.56308 0.32988,1.13461c0,2.76792 0,5.26668 0,7.09244c0,0.60859 0.10057,0.79917 -0.32988,1.22953c-0.43045,0.43037 -0.62112,0.32988 -1.22982,0.32988z" stroke="#ffffff"/></g><text transform="translate(21.54253,330.53863) scale(0.32331,0.32331)" font-size="40" xml:space="preserve" fill="#ffffff" fill-rule="nonzero" stroke="none" stroke-width="1" stroke-linecap="butt" stroke-linejoin="miter" stroke-miterlimit="10" stroke-dasharray="" stroke-dashoffset="0" font-family="Malgun Gothic" font-weight="normal" text-anchor="start" style="mix-blend-mode: normal"><tspan x="0" dy="0">Quit</tspan></text><text transform="translate(10,328.5625) scale(0.22373,0.22373)" font-size="40" xml:space="preserve" fill="#ffffff" fill-rule="nonzero" stroke="none" stroke-width="1" stroke-linecap="butt" stroke-linejoin="miter" stroke-miterlimit="10" stroke-dasharray="" stroke-dashoffset="0" font-family="Malgun Gothic" font-weight="normal" text-anchor="start" style="mix-blend-mode: normal"><tspan x="0" dy="0">Q</tspan></text></g></g></g></svg>