<svg version="1.1" xmlns="http://www.w3.org/2000/svg" xmlns:xlink="http://www.w3.org/1999/xlink" width="59.55556" height="59.55556" viewBox="0,0,59.55556,59.55556"><g transform="translate(-210.22222,-150.22222)"><g data-paper-data="{&quot;isPaintingLayer&quot;:true}" fill-rule="nonzero" stroke-linejoin="miter" stroke-miterlimit="10" stroke-dasharray="" stroke-dashoffset="0" style="mix-blend-mode: normal"><path d="M239.84626,195.14667c-1.38376,-0.01949 -1.52182,-0.48956 -2.48623,-1.48171c-2.89325,-2.97646 -6.85303,-7.05013 -11.23932,-11.56258c-0.90571,-0.93176 -1.3195,-1.07442 -1.26021,-2.37248c0.05929,-1.29806 0.48984,-1.52209 1.48218,-2.48668c4.44248,-4.31828 8.51863,-8.28047 11.38331,-11.06507c0.95489,-0.9282 1.10212,-1.39135 2.43176,-1.31784c1.32965,0.07351 1.58947,0.55916 2.59718,1.59586c4.25028,4.37253 7.89557,8.12265 10.89082,11.20405c0.99841,1.02713 1.46589,1.1848 1.49777,2.61687c0.03188,1.43207 -0.43135,1.46523 -1.38625,2.39343c-0.95489,0.9282 -8.40631,8.17129 -11.38331,11.06507c-0.99234,0.9646 -1.14394,1.43058 -2.5277,1.41109z" fill="#131423" stroke="#ffffff" stroke-width="1" stroke-linecap="butt"/><path d="M239.84626,195.14667c-1.38376,-0.01949 -1.52182,-0.48956 -2.48623,-1.48171c-2.89325,-2.97646 -6.85303,-7.05013 -11.23932,-11.56258c-0.90571,-0.93176 -1.3195,-1.07442 -1.26021,-2.37248c0.05929,-1.29806 0.48984,-1.52209 1.48218,-2.48668c4.44248,-4.31828 8.51863,-8.28047 11.38331,-11.06507c0.95489,-0.9282 1.10212,-1.39135 2.43176,-1.31784c1.32965,0.07351 1.58947,0.55916 2.59718,1.59586c4.25028,4.37253 7.89557,8.12265 10.89082,11.20405c0.99841,1.02713 1.46589,1.1848 1.49777,2.61687c0.03188,1.43207 -0.43135,1.46523 -1.38625,2.39343c-0.95489,0.9282 -8.40631,8.17129 -11.38331,11.06507c-0.99234,0.9646 -1.14394,1.43058 -2.5277,1.41109z" fill="none" stroke="#ffffff" stroke-width="1" stroke-linecap="butt"/><path d="M240.80167,174.25346c0,0 0.51467,-2.02029 1.17928,-2.5683c0.48588,-0.40064 2.44288,-0.41843 2.44288,-0.41843" fill="none" stroke="#009602" stroke-width="2" stroke-linecap="round"/><path d="M234.93649,179.12435c0.43139,-2.92814 3.11721,-4.94652 5.99892,-4.50818c2.88172,0.43835 4.86811,3.16742 4.43671,6.09557c-0.43139,2.92814 -3.11721,4.94652 -5.99892,4.50818c-2.88172,-0.43835 -4.86811,-3.16742 -4.43671,-6.09557z" fill="#4dd2ff" stroke="#0023ff" stroke-width="2" stroke-linecap="butt"/><path d="M240.9367,171.76159c0,0 -2.15525,0.71867 -3.50648,-0.23916c-1.35123,-0.95784 -1.38677,-3.22947 -1.38677,-3.22947c0,0 2.15525,-0.71867 3.50648,0.23916c1.35123,0.95784 1.38677,3.22947 1.38677,3.22947z" fill="#94e095" stroke="#00e005" stroke-width="2" stroke-linecap="butt"/><path d="M235.85714,197.57143v-8.85714h8.85714v8.85714z" fill="none" stroke="none" stroke-width="0" stroke-linecap="butt"/><path d="M210.22222,209.77778v-59.55556h59.55556v59.55556z" fill="none" stroke="none" stroke-width="0" stroke-linecap="butt"/><path d="M240.9654,188.23313c0.80753,-0.29404 1.70053,0.12224 1.99456,0.92976c0.69262,1.9022 -2.91709,4.01207 -2.91709,4.01207c-1.26309,-0.96996 -3.54989,-3.17494 -2.57994,-4.43804c0.94774,-1.23417 2.1819,-0.28642 2.1819,-0.28642c0.17926,0.13766 0.35852,0.27532 0.53779,0.41298c0.17754,-0.28114 0.44616,-0.50778 0.78278,-0.63035z" fill="#4dd2ff" stroke="#0023ff" stroke-width="1.5" stroke-linecap="butt"/></g></g></svg>