<svg version="1.1" xmlns="http://www.w3.org/2000/svg" xmlns:xlink="http://www.w3.org/1999/xlink" width="211.25" height="211.25" viewBox="0,0,211.25,211.25"><defs><radialGradient cx="240" cy="180" r="38.84272" gradientUnits="userSpaceOnUse" id="color-1"><stop offset="0" stop-color="#fffdb6"/><stop offset="1" stop-color="#fffdb6" stop-opacity="0"/></radialGradient><radialGradient cx="240" cy="180" r="38.84272" gradientUnits="userSpaceOnUse" id="color-2"><stop offset="0" stop-color="#fffdb6"/><stop offset="1" stop-color="#fffdb6" stop-opacity="0"/></radialGradient><radialGradient cx="240" cy="180" r="23.21786" gradientUnits="userSpaceOnUse" id="color-3"><stop offset="0" stop-color="#fffdb6"/><stop offset="1" stop-color="#fffdb6" stop-opacity="0"/></radialGradient><radialGradient cx="240" cy="180" r="23.21786" gradientUnits="userSpaceOnUse" id="color-4"><stop offset="0" stop-color="#fffdb6"/><stop offset="1" stop-color="#fffdb6" stop-opacity="0"/></radialGradient><radialGradient cx="240" cy="180" r="23.75" gradientUnits="userSpaceOnUse" id="color-5"><stop offset="0" stop-color="#ffe100"/><stop offset="1" stop-color="#ffe100" stop-opacity="0"/></radialGradient><radialGradient cx="240" cy="180" r="58.125" gradientUnits="userSpaceOnUse" id="color-6"><stop offset="0" stop-color="#ffe200"/><stop offset="1" stop-color="#ffe200" stop-opacity="0"/></radialGradient><radialGradient cx="240" cy="180" r="98.125" gradientUnits="userSpaceOnUse" id="color-7"><stop offset="0" stop-color="#ffe200"/><stop offset="1" stop-color="#ffe200" stop-opacity="0"/></radialGradient><radialGradient cx="240" cy="180" r="26.5" gradientUnits="userSpaceOnUse" id="color-8"><stop offset="0" stop-color="#ffe200"/><stop offset="1" stop-color="#ffe200" stop-opacity="0"/></radialGradient><radialGradient cx="240" cy="180" r="8.75" gradientUnits="userSpaceOnUse" id="color-9"><stop offset="0" stop-color="#fff189"/><stop offset="1" stop-color="#ffffff"/></radialGradient></defs><g transform="translate(-134.375,-74.375)"><g data-paper-data="{&quot;isPaintingLayer&quot;:true}" fill-rule="nonzero" stroke-linecap="butt" stroke-linejoin="miter" stroke-miterlimit="10" stroke-dasharray="" stroke-dashoffset="0" style="mix-blend-mode: normal"><path d="M278.82811,181.46626l-77.68002,-0.91725l0.0238,-2.01528l77.68002,0.91725z" fill="url(#color-1)" stroke="#000000" stroke-width="0"/><path d="M238.99229,218.84272v-77.68544h2.01543v77.68544z" fill="url(#color-2)" stroke="#000000" stroke-width="0"/><path d="M255.87253,196.95567l-32.60288,-33.0655l0.85783,-0.84583l32.60288,33.0655z" fill="url(#color-3)" stroke="#000000" stroke-width="0"/><path d="M257.1419,164.32878l-33.44815,32.2102l-0.83564,-0.86776l33.44815,-32.2102z" fill="url(#color-4)" stroke="#000000" stroke-width="0"/><path d="M216.25,180c0,-13.11676 10.63324,-23.75 23.75,-23.75c13.11676,0 23.75,10.63324 23.75,23.75c0,13.11676 -10.63324,23.75 -23.75,23.75c-13.11676,0 -23.75,-10.63324 -23.75,-23.75z" fill="url(#color-5)" stroke="none" stroke-width="0"/><path d="M181.875,180c0,-32.10155 26.02345,-58.125 58.125,-58.125c32.10155,0 58.125,26.02345 58.125,58.125c0,32.10155 -26.02345,58.125 -58.125,58.125c-32.10155,0 -58.125,-26.02345 -58.125,-58.125z" fill="none" stroke="url(#color-6)" stroke-width="10"/><path d="M141.875,180c0,-54.19294 43.93206,-98.125 98.125,-98.125c54.19294,0 98.125,43.93206 98.125,98.125c0,54.19294 -43.93206,98.125 -98.125,98.125c-54.19294,0 -98.125,-43.93206 -98.125,-98.125z" fill="none" stroke="url(#color-7)" stroke-width="15"/><path d="M213.5,180c0,-14.63555 11.86445,-26.5 26.5,-26.5c14.63555,0 26.5,11.86445 26.5,26.5c0,14.63555 -11.86445,26.5 -26.5,26.5c-14.63555,0 -26.5,-11.86445 -26.5,-26.5z" fill="none" stroke="url(#color-8)" stroke-width="7.5"/><path d="M231.25,180c0,-4.83249 3.91751,-8.75 8.75,-8.75c4.83249,0 8.75,3.91751 8.75,8.75c0,4.83249 -3.91751,8.75 -8.75,8.75c-4.83249,0 -8.75,-3.91751 -8.75,-8.75z" fill="url(#color-9)" stroke="none" stroke-width="NaN"/></g></g></svg>