<svg version="1.1" xmlns="http://www.w3.org/2000/svg" xmlns:xlink="http://www.w3.org/1999/xlink" width="77.1" height="77.1" viewBox="0,0,77.1,77.1"><defs><linearGradient x1="255.96009" y1="12.61906" x2="255.96009" y2="272.93758" gradientUnits="userSpaceOnUse" id="color-1"><stop offset="0" stop-color="#96b2ff"/><stop offset="1" stop-color="#96b2ff" stop-opacity="0"/></linearGradient><radialGradient cx="240" cy="180" r="10.75399" gradientUnits="userSpaceOnUse" id="color-2"><stop offset="0" stop-color="#008fff"/><stop offset="1" stop-color="#008fff" stop-opacity="0"/></radialGradient></defs><g transform="translate(-201.45,-141.45)"><g data-paper-data="{&quot;isPaintingLayer&quot;:true}" fill-rule="nonzero" stroke-linejoin="miter" stroke-miterlimit="10" stroke-dasharray="" stroke-dashoffset="0" style="mix-blend-mode: normal"><path d="M227.29541,179.44002c0.08008,-6.99242 5.3202,-12.24502 12.39523,-12.09113c7.07503,0.15389 13.09851,5.27199 13.01409,12.64381c-0.08443,7.37182 -5.79504,12.82147 -13.30385,12.65814c-7.5088,-0.16333 -12.18555,-6.2184 -12.10547,-13.21081z" fill="url(#color-1)" stroke="#ffffff" stroke-width="1.5" stroke-linecap="butt"/><path d="M229.24601,180c0,-5.93926 4.81473,-10.75399 10.75399,-10.75399c5.93926,0 10.75399,4.81473 10.75399,10.75399c0,5.93926 -4.81473,10.75399 -10.75399,10.75399c-5.93926,0 -10.75399,-4.81473 -10.75399,-10.75399z" fill="url(#color-2)" stroke="#8719ff" stroke-width="0" stroke-linecap="butt"/><path d="M218.075,201.925v-43.85h43.85v43.85z" fill="none" stroke="none" stroke-width="NaN" stroke-linecap="butt"/><path d="M227.40045,180.00001c0,-6.95854 5.64101,-12.59955 12.59955,-12.59955c6.95854,0 12.59955,5.64101 12.59955,12.59955c0,6.95854 -5.64101,12.59955 -12.59955,12.59955c-6.95854,0 -12.59955,-5.64101 -12.59955,-12.59955z" fill="none" stroke="#ffffff" stroke-width="1" stroke-linecap="butt"/><g fill="none" stroke="#68d5ff" stroke-width="2"><g><path d="M231.09605,180h17.8079" stroke-linecap="round"/><path d="M231.13935,176.71693c1.81318,0 3.28307,1.46988 3.28307,3.28307c0,1.81318 -1.46988,3.28307 -3.28307,3.28307" stroke-linecap="butt"/><path d="M248.86065,183.28307c-1.81318,0 -3.28307,-1.46987 -3.28307,-3.28307c0,-1.81319 1.46987,-3.28307 3.28307,-3.28307" data-paper-data="{&quot;index&quot;:null}" stroke-linecap="butt"/></g><g><path d="M244.47492,172.30225l-8.94985,15.3955" stroke-linecap="round"/><path d="M232.70852,186.01032c0.91127,-1.56755 2.92075,-2.09959 4.48831,-1.18832c1.56755,0.91127 2.09959,2.92075 1.18832,4.48831" stroke-linecap="butt"/><path d="M247.29148,173.98968c-0.91127,1.56756 -2.92075,2.09959 -4.48831,1.18832c-1.56756,-0.91127 -2.09959,-2.92075 -1.18832,-4.48831" data-paper-data="{&quot;index&quot;:null}" stroke-linecap="butt"/></g><g data-paper-data="{&quot;index&quot;:null}"><path d="M235.57953,172.27085l8.84094,15.4583" stroke-linecap="round"/><path d="M241.54909,189.32148c-0.90017,-1.57395 -0.35398,-3.57963 1.21998,-4.47981c1.57395,-0.90017 3.57963,-0.35398 4.47981,1.21998" stroke-linecap="butt"/><path d="M238.45091,170.67852c0.90018,1.57395 0.35398,3.57963 -1.21998,4.47981c-1.57395,0.90018 -3.57963,0.35398 -4.47981,-1.21998" data-paper-data="{&quot;index&quot;:null}" stroke-linecap="butt"/></g><path d="M243.50073,181.92268l-7.00145,-3.84536" stroke-linecap="round"/><path d="M243.50073,178.07732l-7.00145,3.84536" data-paper-data="{&quot;index&quot;:null}" stroke-linecap="round"/><path d="M240.00772,183.99396l-0.01544,-7.98792" data-paper-data="{&quot;index&quot;:null}" stroke-linecap="round"/></g><path d="M201.45,218.55v-77.1h77.1v77.1z" fill="none" stroke="none" stroke-width="NaN" stroke-linecap="butt"/></g></g></svg>