<svg version="1.1" xmlns="http://www.w3.org/2000/svg" xmlns:xlink="http://www.w3.org/1999/xlink" width="32.4475" height="32.4475" viewBox="0,0,32.4475,32.4475"><g transform="translate(-223.77625,-163.77625)"><g data-paper-data="{&quot;isPaintingLayer&quot;:true}" fill-rule="nonzero" stroke-linejoin="miter" stroke-miterlimit="10" stroke-dasharray="" stroke-dashoffset="0" style="mix-blend-mode: normal"><path d="M223.77625,196.22375v-32.4475h32.4475v32.4475z" data-paper-data="{&quot;index&quot;:null}" fill="none" stroke="none" stroke-width="0" stroke-linecap="butt"/><path d="M234.32579,190.63751c0,0 -4.30372,1.50053 -3.7505,-0.08075c0.55322,-1.58128 2.43854,-2.36048 4.21096,-1.74038c1.77242,0.62009 2.76079,2.40467 2.20757,3.98595c-0.55322,1.58128 -2.66803,-2.16482 -2.66803,-2.16482z" fill="#cf8a18" stroke="#ffaa2a" stroke-width="2" stroke-linecap="butt"/><path d="M249.21954,181.5635l3.51217,1.06886l-2.33755,3.55188l-2.43495,-2.30071" data-paper-data="{&quot;index&quot;:null}" fill="#aa7014" stroke="#ffaa2a" stroke-width="2" stroke-linecap="round"/><path d="M231.86162,183.97087l-2.62869,2.07659l-2.01463,-3.7445l3.59286,-0.75442" data-paper-data="{&quot;index&quot;:null}" fill="#aa7014" stroke="#ffaa2a" stroke-width="2" stroke-linecap="round"/><path d="M240.08212,169.20832c5.35716,0 9.7,4.11898 9.7,9.2c0,8.20943 -14.10546,10.87598 -15.10889,10.18964c-1.52749,-1.0448 -4.29111,-6.56727 -4.29111,-10.18964c0,-5.08102 4.34284,-9.2 9.7,-9.2z" data-paper-data="{&quot;index&quot;:null}" fill="#aa7014" stroke="#ffaa2a" stroke-width="2" stroke-linecap="butt"/><path d="M240.53212,167.90832v-2" data-paper-data="{&quot;index&quot;:null}" fill="none" stroke="#ffaa2a" stroke-width="2" stroke-linecap="round"/><path d="M252.46544,178.69165h-1.6" data-paper-data="{&quot;index&quot;:null}" fill="none" stroke="#ffaa2a" stroke-width="2" stroke-linecap="round"/><path d="M229.91545,178.35832h-1.73333" data-paper-data="{&quot;index&quot;:null}" fill="none" stroke="#ffaa2a" stroke-width="2" stroke-linecap="round"/><path d="M234.63617,167.35003l0.90896,1.67876" data-paper-data="{&quot;index&quot;:null}" fill="none" stroke="#ffaa2a" stroke-width="2" stroke-linecap="round"/><path d="M245.71861,167.49747l-0.82832,1.09468" data-paper-data="{&quot;index&quot;:null}" fill="none" stroke="#ffaa2a" stroke-width="2" stroke-linecap="round"/><path d="M232.48212,178.09479c0,-1.38071 1.11929,-2.5 2.5,-2.5c1.38071,0 2.5,1.11929 2.5,2.5c0,1.38071 -1.11929,2.5 -2.5,2.5c-1.38071,0 -2.5,-1.11929 -2.5,-2.5z" data-paper-data="{&quot;index&quot;:null}" fill="none" stroke="#ffffff" stroke-width="1" stroke-linecap="butt"/><path d="M242.53212,178.0448c0,-1.38071 1.11929,-2.5 2.5,-2.5c1.38071,0 2.5,1.11929 2.5,2.5c0,1.38071 -1.11929,2.5 -2.5,2.5c-1.38071,0 -2.5,-1.11929 -2.5,-2.5z" data-paper-data="{&quot;index&quot;:null}" fill="none" stroke="#ffffff" stroke-width="1" stroke-linecap="butt"/><text transform="translate(239.00733,182.16639) scale(0.12776,0.12775)" font-size="40" xml:space="preserve" data-paper-data="{&quot;index&quot;:null}" fill="#ffffff" fill-rule="nonzero" stroke="#ffffff" stroke-width="2" stroke-linecap="butt" stroke-linejoin="miter" stroke-miterlimit="10" stroke-dasharray="" stroke-dashoffset="0" font-family="Sans Serif" font-weight="normal" text-anchor="start" style="mix-blend-mode: normal"><tspan x="0" dy="0">3</tspan></text><path d="M230.68212,170.70833l1.36667,1.36666" data-paper-data="{&quot;index&quot;:null}" fill="none" stroke="#ffaa2a" stroke-width="2" stroke-linecap="round"/><path d="M247.93212,171.52499l1.23333,-1.23333" data-paper-data="{&quot;index&quot;:null}" fill="none" stroke="#ffaa2a" stroke-width="2" stroke-linecap="round"/><path d="M250.43212,174.74166l1.2,-0.66667" data-paper-data="{&quot;index&quot;:null}" fill="none" stroke="#ffaa2a" stroke-width="2" stroke-linecap="round"/><path d="M228.91545,174.25832l1.2,0.66667" data-paper-data="{&quot;index&quot;:null}" fill="none" stroke="#ffaa2a" stroke-width="2" stroke-linecap="round"/></g></g></svg>