<svg version="1.1" xmlns="http://www.w3.org/2000/svg" xmlns:xlink="http://www.w3.org/1999/xlink" width="122.16501" height="122.16501" viewBox="0,0,122.16501,122.16501"><g transform="translate(-178.91749,-118.91749)"><g data-paper-data="{&quot;isPaintingLayer&quot;:true}" fill-rule="nonzero" stroke-linejoin="miter" stroke-miterlimit="10" stroke-dasharray="" stroke-dashoffset="0" style="mix-blend-mode: normal"><path d="M264.84549,197.45563c0,0 -0.45739,5.14941 -5.15951,9.07514c-7.11903,5.9436 -12.56758,7.93649 -22.85295,9.6434c-8.75569,1.45306 -20.35233,0.48371 -19.92022,-6.1072c0.24433,-3.72662 8.61182,-6.30533 18.29582,-5.79391c9.68401,0.51141 29.63686,-6.81744 29.63686,-6.81744z" fill="#cecece" stroke="#000000" stroke-width="2" stroke-linecap="butt"/><path d="M215.44935,194.13762c0,0 -7.76086,9.40616 -9.25963,8.97187c-0.99236,-0.28755 -0.0159,-11.74995 -0.0159,-11.74995" fill="#cecece" stroke="#000000" stroke-width="2" stroke-linecap="round"/><path d="M203.17401,189.748c0,0 -8.14961,7.4777 -9.26201,7.20938c-1.29026,-0.31121 -0.0159,-11.74994 -0.0159,-11.74994" fill="#cecece" stroke="#000000" stroke-width="2" stroke-linecap="round"/><path d="M207.7776,157.86724c12.6263,0.24174 62.46422,-16.37518 62.48508,-0.96306c0.01699,12.55284 3.79099,28.43208 -1.04792,37.19573c-2.63501,4.77223 -10.3764,5.78477 -16.79335,6.79901c-25.76534,4.07234 -59.0818,-14.80948 -59.0818,-14.80948c0,0 0.19641,-2.27112 0.8146,-5.50417c1.53732,-8.03973 3.40338,-22.9137 13.62337,-22.71803z" fill="#cecece" stroke="#000000" stroke-width="2" stroke-linecap="butt"/><path d="M217.59513,182.82538l-10.32539,-5.86101" fill="none" stroke="#ffb0b0" stroke-width="1" stroke-linecap="round"/><path d="M256.62436,155.74243c8.24235,-0.01116 11.52996,4.39686 11.54069,12.32459c0.01073,7.92773 -2.58217,14.35795 -10.82454,14.3691c-8.24236,0.01116 -15.61193,-5.73416 -15.62266,-13.6619c-0.01073,-7.92772 6.66414,-13.02065 14.9065,-13.03181z" fill="#e2e2e2" stroke="#000000" stroke-width="2" stroke-linecap="butt"/><path d="M215.77107,154.44506c2.35391,-7.86919 6.52016,-16.70624 11.73722,-9.7135c2.00553,2.68812 5.71847,0.22875 6.54106,3.83829c1.18865,5.21575 1.13769,31.98512 -1.42714,33.02963c-6.13363,2.49788 -16.18665,0.21932 -18.38843,-9.14554c-2.20178,-9.36486 -1.48125,-7.91793 1.53728,-18.00888z" fill="#e2e2e2" stroke="#000000" stroke-width="2" stroke-linecap="butt"/><path d="M221.30353,141.40175c2.23305,-0.00302 4.88298,2.29627 4.88683,5.13702c0.00384,2.84075 -2.63985,5.14721 -4.8729,5.15023c-2.23305,0.00302 -2.37384,-2.66707 -2.37769,-5.50782c-0.00384,-2.84075 0.1307,-4.7764 2.36376,-4.77942z" fill="#4d4d4d" stroke="#000000" stroke-width="2" stroke-linecap="butt"/><path d="M269.46033,182.16768c0,0 4.75775,-1.30609 6.73919,1.08617c1.07775,1.30121 -0.0364,6.59423 -0.03568,7.12972c0.00173,1.27706 -6.69199,0.30281 -6.69199,0.30281" fill="#cecece" stroke="#000000" stroke-width="2" stroke-linecap="round"/><path d="M268.86605,155.14357c0,0 4.75775,-1.30608 6.7392,1.08618c1.07775,1.3012 -0.0364,6.59422 -0.03568,7.12971c0.00173,1.27706 -6.692,0.30281 -6.692,0.30281" fill="#cecece" stroke="#000000" stroke-width="2" stroke-linecap="round"/><path d="M240.88795,173.68763c0,0 4.75775,-1.30608 6.73919,1.08617c1.07775,1.30119 -0.03639,6.59422 -0.03567,7.12971c0.00173,1.27706 -6.692,0.30282 -6.692,0.30282" fill="#cecece" stroke="#000000" stroke-width="2" stroke-linecap="round"/><path d="M240.86051,153.41898c0,0 4.75775,-1.30608 6.73919,1.08618c1.07775,1.3012 -0.03639,6.59422 -0.03567,7.12971c0.00173,1.27706 -6.692,0.30282 -6.692,0.30282" fill="#cecece" stroke="#000000" stroke-width="2" stroke-linecap="round"/><path d="M229.02328,158.70403l6.55459,0.83241c0,0 0.31812,1.24169 -0.75842,1.79772c-1.30838,0.67582 -6.07718,1.96775 -6.07718,1.96775" data-paper-data="{&quot;index&quot;:null}" fill="#ffffff" stroke="#000000" stroke-width="2" stroke-linecap="round"/><path d="M229.27256,146.51228c0,0 4.94169,1.37604 6.22247,2.10026c1.05381,0.59584 0.68695,1.82477 0.68695,1.82477l-6.58256,0.58682" fill="#ffffff" stroke="#000000" stroke-width="2" stroke-linecap="round"/><path d="M216.40057,183.20467l1.43204,-1.51265" fill="none" stroke="#ffb0b0" stroke-width="1" stroke-linecap="round"/><path d="M215.91949,180.93925l-1.43203,1.51264" fill="none" stroke="#ffb0b0" stroke-width="1" stroke-linecap="round"/><path d="M208.98194,176.41652l-1.43203,1.51265" fill="none" stroke="#ffb0b0" stroke-width="1" stroke-linecap="round"/><path d="M228.44962,167.55562l0.8076,-21.38839" fill="none" stroke="#000000" stroke-width="2" stroke-linecap="round"/><path d="M206.29644,179.97565l3.76492,-3.72732" fill="none" stroke="#000000" stroke-width="1.5" stroke-linecap="round"/><path d="M203.68051,163.08455l4.16167,4.09786" data-paper-data="{&quot;index&quot;:null}" fill="none" stroke="#000000" stroke-width="1.5" stroke-linecap="round"/><path d="M301.08251,240.91738l-121.99989,0.16513l-0.16513,-121.99989l121.99989,-0.16513z" fill="none" stroke="none" stroke-width="NaN" stroke-linecap="butt"/><g fill="none" stroke="#000000" stroke-width="1.5" stroke-linecap="round"><path d="M210.75293,179.02637l3.375,3.375"/><path d="M210.50293,182.90137l3.625,-3.625"/></g><g fill="none" stroke="#000000" stroke-width="1.5" stroke-linecap="round"><path d="M208.00293,160.27637l3.375,3.375"/><path d="M207.75293,164.15137l3.625,-3.625"/></g><path d="M238.12793,154.65137c0,1.65685 -2.91015,3 -6.5,3c-3.58985,0 -2.625,-1.09315 -2.625,-2.75c0,-1.65685 -0.96485,-3.25 2.625,-3.25c3.58985,0 6.5,1.34315 6.5,3z" fill="#ff4848" stroke="#000000" stroke-width="1.5" stroke-linecap="butt"/></g></g></svg>