<svg version="1.1" xmlns="http://www.w3.org/2000/svg" xmlns:xlink="http://www.w3.org/1999/xlink" width="65.6" height="65.8" viewBox="0,0,65.6,65.8"><defs><radialGradient cx="240.24943" cy="179.94222" r="13.68348" gradientUnits="userSpaceOnUse" id="color-1"><stop offset="0" stop-color="#ff0000"/><stop offset="1" stop-color="#ff0000" stop-opacity="0"/></radialGradient></defs><g transform="translate(-207.10002,-147.3)"><g data-paper-data="{&quot;isPaintingLayer&quot;:true}" fill-rule="nonzero" stroke-linejoin="miter" stroke-miterlimit="10" stroke-dasharray="" stroke-dashoffset="0" style="mix-blend-mode: normal"><path d="M239.8463,195.14667c-1.38376,-0.01949 -1.52182,-0.48956 -2.48623,-1.48171c-2.89325,-2.97646 -6.85303,-7.05013 -11.23932,-11.56258c-0.90571,-0.93176 -1.3195,-1.07442 -1.26021,-2.37248c0.05929,-1.29806 0.48984,-1.52209 1.48218,-2.48668c4.44248,-4.31828 8.51863,-8.28047 11.38331,-11.06507c0.95489,-0.9282 1.10212,-1.39135 2.43176,-1.31784c1.32965,0.07351 1.58947,0.55916 2.59718,1.59586c4.25028,4.37253 7.89557,8.12265 10.89082,11.20405c0.99841,1.02713 1.46589,1.1848 1.49777,2.61687c0.03188,1.43207 -0.43135,1.46523 -1.38625,2.39343c-0.95489,0.9282 -8.40631,8.17129 -11.38331,11.06507c-0.99234,0.9646 -1.14394,1.43058 -2.5277,1.41109z" fill="#1c1524" stroke="#ffffff" stroke-width="1" stroke-linecap="butt"/><path d="M239.84629,194.89024c-1.38376,-0.01949 -1.52182,-0.48956 -2.48623,-1.48171c-2.89325,-2.97646 -6.85303,-7.05013 -11.23932,-11.56258c-0.90571,-0.93176 -1.3195,-1.07442 -1.26021,-2.37248c0.05929,-1.29806 0.48984,-1.52209 1.48218,-2.48668c4.44248,-4.31828 8.51863,-8.28047 11.38331,-11.06507c0.95489,-0.9282 1.10212,-1.39135 2.43176,-1.31784c1.32965,0.07351 1.58947,0.55916 2.59718,1.59586c4.25028,4.37253 7.89557,8.12265 10.89082,11.20405c0.99841,1.02713 1.46589,1.1848 1.49777,2.61687c0.03188,1.43207 -0.43135,1.46523 -1.38625,2.39343c-0.95489,0.9282 -8.40631,8.17129 -11.38331,11.06507c-0.99234,0.9646 -1.14394,1.43058 -2.5277,1.41109z" fill="none" stroke="#ffffff" stroke-width="1" stroke-linecap="butt"/><path d="M207.10003,213.1v-65.4h65.4v65.4z" fill="none" stroke="none" stroke-width="0" stroke-linecap="butt"/><path d="M239.84629,195.14667c-1.38376,-0.01949 -1.52182,-0.48956 -2.48623,-1.48171c-2.89325,-2.97646 -6.85303,-7.05013 -11.23932,-11.56258c-0.90571,-0.93176 -1.3195,-1.07442 -1.26021,-2.37248c0.05929,-1.29806 0.48984,-1.52209 1.48218,-2.48668c4.44248,-4.31828 8.51863,-8.28047 11.38331,-11.06507c0.95489,-0.9282 1.10212,-1.39135 2.43176,-1.31784c1.32965,0.07351 1.58947,0.55916 2.59718,1.59586c4.25028,4.37253 7.89557,8.12265 10.89082,11.20405c0.99841,1.02713 1.46589,1.1848 1.49777,2.61687c0.03188,1.43207 -0.43135,1.46523 -1.38625,2.39343c-0.95489,0.9282 -8.40631,8.17129 -11.38331,11.06507c-0.99234,0.9646 -1.14394,1.43058 -2.5277,1.41109z" fill="#151723" stroke="#ffffff" stroke-width="1" stroke-linecap="butt"/><path d="M207.30003,212.7v-65.4h65.4v65.4z" fill="none" stroke="none" stroke-width="0" stroke-linecap="butt"/><path d="M226.56595,179.94222c0,-7.55718 6.1263,-13.68348 13.68348,-13.68348c7.55718,0 13.68348,6.1263 13.68348,13.68348c0,7.55718 -6.1263,13.68348 -13.68348,13.68348c-7.55718,0 -13.68348,-6.1263 -13.68348,-13.68348z" fill="url(#color-1)" stroke="#8719ff" stroke-width="0" stroke-linecap="butt"/><path d="M237.91726,173.98951c0.29303,-2.14503 -1.28943,-5.39549 -1.28943,-5.39549c0,0 3.10227,0.15002 5.33384,3.46102c2.03275,3.01601 1.72152,4.26855 2.02935,5.77224c0.11224,0.54824 0.11744,0.1081 0.11744,0.1081c0,0 0.7921,-0.57879 1.12312,-1.25693c0.33102,-0.67814 0.41254,-1.88908 0.41254,-1.88908c0,0 2.6529,5.18881 2.02869,7.89684c-0.61955,2.68781 -0.20698,2.0243 -1.73118,4.32321c-0.92626,1.21955 -3.84565,2.75963 -5.91233,2.79629c-2.16998,0.03683 -5.8086,-0.95879 -6.61101,-2.41081c-1.89416,-2.62234 -2.08627,-5.02954 -1.49008,-7.83075c0.79876,-3.75307 3.21642,-4.833 3.21642,-4.833c0,0 -0.50261,1.96757 0.22246,3.09165c0,0 2.25714,-1.68825 2.55017,-3.83328z" data-paper-data="{&quot;index&quot;:null}" fill="#5c0000" stroke="#8f1313" stroke-width="1.5" stroke-linecap="round"/><path d="M238.65888,180.51788c-0.14031,-0.81447 -0.76252,-2.63375 -0.76252,-2.63375c0,0 1.1284,-0.04531 1.98343,0.61678c0.85503,0.66208 1.65168,2.22491 1.65168,2.22491c0,0 0.30463,-0.91145 1.02287,-1.30817c0.9742,-0.53807 1.71411,0.02286 1.71411,0.02286c0,0 -0.29558,0.21743 -0.66326,1.81256c-0.17222,0.74716 0.31822,2.99982 0.36341,3.14655c0.32016,1.02821 0.16687,2.16729 -0.42821,3.06483c-0.5456,0.71835 -2.26524,1.62552 -3.48258,1.64712c-1.2782,0.0217 -3.42148,-0.56477 -3.89413,-1.42006c-1.11573,-1.54466 -0.81594,-3.582 -0.46477,-5.23202c0.4705,-2.2107 1.48165,-2.2274 1.48165,-2.2274c0,0 -0.29606,1.15896 0.13103,1.82109c0.39855,0.61789 1.05882,0.23171 1.05882,0.23171c0,0 0.40326,-1.10069 0.28847,-1.767z" data-paper-data="{&quot;index&quot;:null}" fill="#3d0707" stroke="#ff2222" stroke-width="0" stroke-linecap="round"/><path d="M227.10003,193.8v-26h26v26z" fill="none" stroke="none" stroke-width="0" stroke-linecap="butt"/><g stroke="#ff7b00" stroke-width="1.5"><path d="M238.27633,185.48126l-4.09488,-7.93977c0,0 0.57186,-1.22648 1.62325,-2.19737c0.82996,-0.76642 2.10854,-1.24873 2.60413,-1.70638c0.7446,-0.6876 1.85721,-1.71503 1.85721,-1.71503c0,0 0.5893,0.27904 0.858,0.58136c0.2687,0.30233 0.02448,0.31457 0.63629,1.09995c0.11453,0.14702 0.83614,0.30129 0.96952,0.46048c0.27463,0.32776 -0.01279,0.67638 0.30679,1.02551c0.19203,0.20978 0.65295,0.23116 0.84759,0.44929c0.30125,0.33759 0.33449,0.86906 0.61083,1.15079c0.30189,0.30777 0.71011,0.1765 0.93495,0.38752c0.35825,0.33622 0.38856,1.19472 0.38856,1.19472l-0.59152,0.39318c0,0 -1.89672,5.71142 -4.1151,6.8615c-1.06012,0.5496 -2.83561,-0.04575 -2.83561,-0.04575z" fill="#000000" stroke-linecap="butt"/><path d="M241.3914,173.89838l-1.45765,1.45765l1.72267,1.72267l-1.39139,1.39139l-2.12022,-1.19262" fill="#000000" stroke-linecap="round"/><path d="M242.61715,175.3229l-1.29201,1.29201" fill="#000000" stroke-linecap="round"/><path d="M241.92145,179.06639l2.18647,-2.18647" fill="#000000" stroke-linecap="round"/><path d="M238.34359,173.69961l1.82206,1.82206" fill="#000000" stroke-linecap="round"/><path d="M245.69808,178.27132l-2.51775,2.38524l-2.25273,-2.12022" fill="none" stroke-linecap="round"/><path d="M242.71392,183.85992v4.21738h-5.30053v-4.24042" fill="#000000" stroke-linecap="round"/></g></g></g></svg>