<svg version="1.1" xmlns="http://www.w3.org/2000/svg" xmlns:xlink="http://www.w3.org/1999/xlink" width="362.71301" height="48.83333" viewBox="0,0,362.71301,48.83333"><defs><radialGradient cx="269.55499" cy="180.00001" r="6.78045" gradientUnits="userSpaceOnUse" id="color-1"><stop offset="0" stop-color="#3052ff"/><stop offset="1" stop-color="#3052ff" stop-opacity="0"/></radialGradient><radialGradient cx="269.55499" cy="180.00001" r="6.78045" gradientUnits="userSpaceOnUse" id="color-2"><stop offset="0" stop-color="#3052ff"/><stop offset="1" stop-color="#3052ff" stop-opacity="0"/></radialGradient><radialGradient cx="269.55499" cy="180.00001" r="6.78045" gradientUnits="userSpaceOnUse" id="color-3"><stop offset="0" stop-color="#3052ff"/><stop offset="1" stop-color="#3052ff" stop-opacity="0"/></radialGradient><linearGradient x1="416.8749" y1="181.82826" x2="416.8749" y2="184.01969" gradientUnits="userSpaceOnUse" id="color-4"><stop offset="0" stop-color="#6678ff"/><stop offset="1" stop-color="#6678ff" stop-opacity="0"/></linearGradient><linearGradient x1="412.56044" y1="178.37611" x2="412.56044" y2="176.18472" gradientUnits="userSpaceOnUse" id="color-5"><stop offset="0" stop-color="#6670ff"/><stop offset="1" stop-color="#6670ff" stop-opacity="0"/></linearGradient><linearGradient x1="477.46589" y1="179.9518" x2="564.85421" y2="179.9518" gradientUnits="userSpaceOnUse" id="color-6"><stop offset="0" stop-color="#0011ff"/><stop offset="1" stop-color="#0011ff" stop-opacity="0"/></linearGradient><linearGradient x1="477.46589" y1="179.90934" x2="564.85421" y2="179.90934" gradientUnits="userSpaceOnUse" id="color-7"><stop offset="0" stop-color="#0011ff"/><stop offset="1" stop-color="#0011ff" stop-opacity="0"/></linearGradient><linearGradient x1="477.46589" y1="179.99418" x2="564.85421" y2="179.99418" gradientUnits="userSpaceOnUse" id="color-8"><stop offset="0" stop-color="#0011ff"/><stop offset="1" stop-color="#0011ff" stop-opacity="0"/></linearGradient><linearGradient x1="477.17175" y1="179.99272" x2="564.39343" y2="179.99272" gradientUnits="userSpaceOnUse" id="color-9"><stop offset="0" stop-color="#000000"/><stop offset="1" stop-color="#000000" stop-opacity="0"/></linearGradient><radialGradient cx="240" cy="180.00001" r="19" gradientUnits="userSpaceOnUse" id="color-10"><stop offset="0" stop-color="#ffffff"/><stop offset="1" stop-color="#ffffff" stop-opacity="0"/></radialGradient></defs><g transform="translate(-221,-156.76754)"><g data-paper-data="{&quot;isPaintingLayer&quot;:true}" fill-rule="nonzero" stroke-linecap="butt" stroke-linejoin="miter" stroke-miterlimit="10" stroke-dasharray="" stroke-dashoffset="0" style="mix-blend-mode: normal"><path d="M262.77456,180.00001c0,-3.74475 3.03571,-6.78045 6.78045,-6.78045c3.74474,0 6.78045,3.03572 6.78045,6.78045c0,3.74475 -3.03571,6.78045 -6.78045,6.78045c-3.74474,0 -6.78045,-3.03571 -6.78045,-6.78045z" fill="url(#color-1)" stroke="none" stroke-width="0"/><path d="M262.77456,180.00001c0,-3.74475 3.03571,-6.78045 6.78045,-6.78045c3.74474,0 6.78045,3.03572 6.78045,6.78045c0,3.74475 -3.03571,6.78045 -6.78045,6.78045c-3.74474,0 -6.78045,-3.03571 -6.78045,-6.78045z" fill="url(#color-2)" stroke="none" stroke-width="0"/><path d="M262.77456,180.00001c0,-3.74475 3.03571,-6.78045 6.78045,-6.78045c3.74474,0 6.78045,3.03572 6.78045,6.78045c0,3.74475 -3.03571,6.78045 -6.78045,6.78045c-3.74474,0 -6.78045,-3.03571 -6.78045,-6.78045z" fill="url(#color-3)" stroke="none" stroke-width="0"/><path d="M262.64389,186.91113v-13.82225h13.82225v13.82225z" fill="none" stroke="none" stroke-width="0"/><path d="M256.71301,205.60087v-48.83333h327v48.83333z" fill="none" stroke="none" stroke-width="0"/><path d="M269.87489,184.01969v-2.19141l199.83333,0.5022l94.16667,0.13696v1.55225z" fill="url(#color-4)" stroke="none" stroke-width="0"/><path d="M559.5604,176.18472v1.5979l-73,0.04565l-221,0.54785v-2.19141z" data-paper-data="{&quot;index&quot;:null}" fill="url(#color-5)" stroke="none" stroke-width="0"/><path d="M266.34157,182.20755v-4.36356l211.31686,-0.07596v4.51549z" fill="#000000" stroke="#000000" stroke-width="0"/><path d="M477.46589,182.23683v-4.57008h87.38833v4.57008z" fill="url(#color-6)" stroke="#000000" stroke-width="0"/><path d="M477.46589,182.29744v-4.77611h87.38833v4.77611z" fill="url(#color-7)" stroke="#000000" stroke-width="0"/><path d="M477.46589,182.3216v-4.65488h87.38833v4.65488z" fill="url(#color-8)" stroke="#000000" stroke-width="0"/><path d="M477.17175,182.24403v-4.50273h87.22166v4.50273z" fill="url(#color-9)" stroke="#000000" stroke-width="0"/><path d="M221,180.00001c0,-10.49341 8.50659,-19 19,-19c10.49341,0 19,8.50659 19,19c0,10.49341 -8.50659,19 -19,19c-10.49341,0 -19,-8.50659 -19,-19z" fill="url(#color-10)" stroke="none" stroke-width="NaN"/><path d="M264.61354,180.00001c0,-2.7291 2.21237,-4.94146 4.94147,-4.94146c2.72909,0 4.94146,2.21237 4.94146,4.94146c0,2.7291 -2.21237,4.94146 -4.94146,4.94146c-2.72909,0 -4.94147,-2.21237 -4.94147,-4.94146z" fill="#000000" stroke="#bf7cff" stroke-width="0"/></g></g></svg>