<svg version="1.1" xmlns="http://www.w3.org/2000/svg" xmlns:xlink="http://www.w3.org/1999/xlink" width="81.27777" height="84.77219" viewBox="0,0,81.27777,84.77219"><g transform="translate(-199.77779,-133.77781)"><g data-paper-data="{&quot;isPaintingLayer&quot;:true}" fill-rule="nonzero" stroke-linejoin="miter" stroke-miterlimit="10" stroke-dasharray="" stroke-dashoffset="0" style="mix-blend-mode: normal"><path d="M231.98263,201.39546c0,0 -3.41214,0.3305 -6.54489,-2.25503c-4.74301,-3.9145 -6.70708,-7.2225 -9.07521,-13.71796c-2.01594,-5.52943 -2.79981,-13.20628 1.5488,-13.72923c2.45878,-0.29569 5.16101,4.84332 6.00986,11.21763c0.84886,6.37432 8.06146,18.4846 8.06146,18.4846z" fill="#cecece" stroke="#000000" stroke-width="1.5" stroke-linecap="butt"/><path d="M228.11517,168.79479c0,0 -7.0782,-3.91013 -6.9781,-4.94003c0.06627,-0.68191 7.6565,-1.44476 7.6565,-1.44476" fill="#cecece" stroke="#000000" stroke-width="1.5" stroke-linecap="round"/><path d="M229.47773,160.25805c0,0 -5.86872,-4.39894 -5.82963,-5.15675c0.04534,-0.87897 7.65649,-1.44475 7.65649,-1.44475" fill="#cecece" stroke="#000000" stroke-width="1.5" stroke-linecap="round"/><path d="M250.8191,159.36672c1.38381,8.25913 18.29847,38.71418 8.25564,40.60922c-8.17967,1.54347 -18.06879,5.94178 -24.37152,3.85768c-3.43214,-1.13489 -5.03713,-6.05699 -6.48155,-10.11565c-5.79961,-16.2963 2.44011,-40.31647 2.44011,-40.31647c0,0 1.50425,-0.14923 3.68698,-0.14098c5.42784,0.02054 15.35026,-0.57894 16.47034,6.10618z" fill="#cecece" stroke="#000000" stroke-width="1.5" stroke-linecap="butt"/><path d="M238.3099,161.367l-2.55963,7.44542" fill="none" stroke="#ffb0b0" stroke-width="1.5" stroke-linecap="round"/><path d="M258.16704,190.94488c1.01346,5.37087 -1.45827,8.0518 -6.62413,9.02658c-5.16586,0.97478 -9.6735,0.06975 -10.68698,-5.30115c-1.01346,-5.37088 1.8316,-10.87561 6.99745,-11.8504c5.16585,-0.97478 9.30018,2.75407 10.31365,8.12495z" fill="#e2e2e2" stroke="#000000" stroke-width="1.5" stroke-linecap="butt"/><path d="M254.02544,164.15897c5.41637,0.57361 11.68482,2.21032 7.76394,6.46435c-1.50725,1.63533 0.549,3.75513 -1.70323,4.73192c-3.25444,1.41147 -20.70851,4.64615 -21.70241,3.10194c-2.37685,-3.69287 -2.11894,-10.52343 3.71613,-13.10173c5.83508,-2.57831 4.97997,-1.93205 11.92557,-1.19647z" fill="#e2e2e2" stroke="#000000" stroke-width="1.5" stroke-linecap="butt"/><path d="M263.20224,166.17267c0.27457,1.4551 -0.90058,3.46297 -2.75167,3.81226c-1.85109,0.34929 -3.67712,-1.09226 -3.9517,-2.54736c-0.27457,-1.4551 1.44857,-1.87281 3.29965,-2.22211c1.85109,-0.34929 3.12914,-0.4979 3.40371,0.95721z" fill="#4d4d4d" stroke="#000000" stroke-width="1.5" stroke-linecap="butt"/><path d="M235.42879,165.53301c-0.14202,-0.75265 0.38558,-1.48405 1.17843,-1.63367c0.79285,-0.14961 1.55072,0.33924 1.69275,1.09188c0.14202,0.75265 -0.38557,1.48405 -1.17843,1.63367c-0.79285,0.14961 -1.55072,-0.33924 -1.69275,-1.09188z" fill="#000000" stroke="none" stroke-width="1.5" stroke-linecap="butt"/><path d="M246.75349,161.46729c-0.14202,-0.75265 0.38558,-1.48405 1.17843,-1.63367c0.79285,-0.14961 1.55072,0.33924 1.69275,1.09188c0.14202,0.75265 -0.38557,1.48405 -1.17843,1.63367c-0.79285,0.14961 -1.55072,-0.33924 -1.69275,-1.09188z" fill="#000000" stroke="none" stroke-width="1.5" stroke-linecap="butt"/><path d="M235.97943,203.97701c0,0 -1.52848,2.89268 -3.58431,2.76447c-1.11823,-0.06974 -3.17095,-3.01108 -3.43013,-3.25382c-0.61808,-0.57889 2.89148,-3.3722 2.89148,-3.3722" fill="#cecece" stroke="#000000" stroke-width="1.5" stroke-linecap="round"/><path d="M261.47454,194.71605c0,0 3.22784,0.53367 3.75733,2.5243c0.288,1.08274 -1.85182,3.96134 -1.99999,4.28405c-0.35334,0.7696 -4.11436,-1.67466 -4.11436,-1.67466" fill="#cecece" stroke="#000000" stroke-width="1.5" stroke-linecap="round"/><path d="M244.5496,182.87881c0,0 1.43209,2.94159 0.11475,4.52509c-0.71653,0.86131 -4.30245,0.78128 -4.65138,0.84711c-0.83216,0.15703 -1.0143,-4.32477 -1.0143,-4.32477" fill="#cecece" stroke="#000000" stroke-width="1.5" stroke-linecap="round"/><path d="M257.75704,180.38661c0,0 1.43209,2.94159 0.11474,4.52509c-0.71654,0.86131 -4.30245,0.78128 -4.65138,0.84711c-0.83216,0.15703 -1.0143,-4.32477 -1.0143,-4.32477" fill="#cecece" stroke="#000000" stroke-width="1.5" stroke-linecap="round"/><path d="M252.86729,173.31647l0.25761,4.3738c0,0 -0.77048,0.35893 -1.26431,-0.27487c-0.60021,-0.77027 -2.02443,-3.7208 -2.02443,-3.7208" data-paper-data="{&quot;index&quot;:null}" fill="#ffffff" stroke="#000000" stroke-width="1.5" stroke-linecap="round"/><path d="M260.8441,171.99063c0,0 -0.29362,3.3889 -0.6093,4.3121c-0.25971,0.75959 -1.1055,0.67051 -1.1055,0.67051l-1.18606,-4.21878" fill="#ffffff" stroke="#000000" stroke-width="1.5" stroke-linecap="round"/><path d="M235.35722,168.08012l1.16074,0.74873" fill="none" stroke="#ffb0b0" stroke-width="1.5" stroke-linecap="round"/><path d="M235.61433,166.74129l1.16073,0.74872" fill="none" stroke="#ffb0b0" stroke-width="1.5" stroke-linecap="round"/><path d="M237.71526,161.66739l1.16074,0.74872" fill="none" stroke="#ffb0b0" stroke-width="1.5" stroke-linecap="round"/><path d="M247.02792,174.02314l14.0392,-2.08463" fill="none" stroke="#000000" stroke-width="1.5" stroke-linecap="round"/><path d="M235.215,161.54302l2.88901,1.9989" fill="none" stroke="#000000" stroke-width="1.5" stroke-linecap="round"/><path d="M246.22058,160.26369l1.96193,-2.91425" data-paper-data="{&quot;index&quot;:null}" fill="none" stroke="#000000" stroke-width="1.5" stroke-linecap="round"/><path d="M199.77779,215.05558v-81.27777h81.27777v81.27777z" fill="none" stroke="none" stroke-width="NaN" stroke-linecap="butt"/><path d="M201.45,218.55v-77.1h77.1v77.1z" fill="none" stroke="none" stroke-width="NaN" stroke-linecap="butt"/></g></g></svg>