<svg version="1.1" xmlns="http://www.w3.org/2000/svg" xmlns:xlink="http://www.w3.org/1999/xlink" width="46.75" height="46.75" viewBox="0,0,46.75,46.75"><g transform="translate(-216.625,-156.625)"><g data-paper-data="{&quot;isPaintingLayer&quot;:true}" fill-rule="nonzero" stroke-linejoin="miter" stroke-miterlimit="10" stroke-dasharray="" stroke-dashoffset="0" style="mix-blend-mode: normal"><g data-paper-data="{&quot;index&quot;:null}" fill="none" stroke="#69f58c" stroke-width="2" stroke-linecap="round"><path d="M246.36127,161.99599c0,0 -3.65192,7.80334 -1.34468,11.84272c0.8103,1.41863 -0.6864,0.66976 0.34783,1.45803c0.69231,0.52766 1.27841,1.03436 1.49625,1.69695c0.56826,1.72846 0,7.71329 0,7.71329c0,0 -1.8924,1.19154 -2.31761,2.56086c-0.64118,2.06485 0.09805,-2.29267 -1.84575,-3.23943c-1.71079,-0.83333 0.11828,-3.45951 -0.69314,-5.17782c-0.56022,-1.18634 -4.19899,-0.92688 -4.59447,-2.59924c-0.6067,-2.56556 0.02364,-6.97093 0.02364,-6.97093"/><path d="M253.85979,168.42338c0,0 1.19428,11.05374 -1.51118,14.41587c-1.62958,2.02511 -5.0594,1.86773 -5.0594,1.86773"/><path d="M244.00336,166.13946c0,0 0.28472,7.29677 -0.67037,8.32533c-0.89833,0.96744 -5.47169,1.8162 -5.47169,1.8162"/><path d="M253.43126,174.13694c0,0 -3.66298,-0.99114 -3.92421,-1.70358c-0.26251,-0.71594 -0.50378,-4.15281 -0.50378,-4.15281"/><path d="M241.7185,183.70712c0,0 -4.71123,-0.91845 -5.96012,-2.32025c-1.04917,-1.17765 -1.03897,-5.53588 -1.03897,-5.53588"/></g><path d="M216.625,203.375v-46.75h46.75v46.75z" fill="none" stroke="none" stroke-width="2" stroke-linecap="butt"/><path d="M224.33148,189.50281c-0.86789,-1.50279 -1.13867,-22.31552 3.07927,-25.81552c4.26957,-3.54284 17.53423,0.2773 17.53423,9.40639c0,3.64426 2.02301,10.48339 0.80886,13.21596c-1.64911,3.71147 -6.59595,5.50539 -9.99525,5.82005c0,0 -10.74176,-1.44017 -11.42711,-2.62688z" data-paper-data="{&quot;index&quot;:null}" fill="#3a536f" stroke="#ababab" stroke-width="2" stroke-linecap="butt"/><path d="M244.69342,177.44171c0,1.97245 1.38608,11.78571 -0.42857,11.78571c-0.42189,0 -2.78303,1.12716 -6.514,1.53849c-3.73097,0.41134 -5.32159,-0.03765 -6.17779,-0.26579c-1.82727,-0.48689 -4.59289,-1.86913 -4.53939,-2.7737c0.25089,-4.24219 8.51689,-10.91758 8.51689,-12.07043c0,-0.94427 0.83715,-1.37439 1.38773,-2.01301c0.59951,-0.69537 0.95206,-1.55841 1.89798,-1.55841c1.13419,0 1.13415,0.19607 1.72461,1.14612c0.35425,0.56999 4.13253,3.47139 4.13253,4.21103z" fill="#3a7049" stroke="none" stroke-width="0" stroke-linecap="butt"/><g data-paper-data="{&quot;index&quot;:null}" fill="none" stroke="#e8aa51" stroke-width="2" stroke-linecap="round"><path d="M236.00413,167.78171c0,0 -0.21396,8.39517 0.71429,11.14124c0.57241,1.69339 3.38948,2.16786 4.50315,3.01667c0.69231,0.52766 1.27841,1.03436 1.49625,1.69695c0.56826,1.72846 0,7.71329 0,7.71329c0,0 -2.66608,0.05071 -4.16337,-0.67857c-1.71079,-0.83333 0.11828,-3.45951 -0.69314,-5.17782c-0.56022,-1.18634 -4.19899,-0.92689 -4.59447,-2.59925c-0.6067,-2.56556 0.02364,-6.97093 0.02364,-6.97093"/><path d="M249.71693,175.06625c0,0 1.19428,11.05374 -1.51118,14.41587c-1.62958,2.02511 -5.0594,1.86773 -5.0594,1.86773"/><path d="M239.19014,181.10766c-0.89833,0.96744 -5.47169,1.8162 -5.47169,1.8162"/><path d="M249.2884,180.77981c0,0 -3.66298,-0.99114 -3.92421,-1.70358c-0.26251,-0.71594 -0.50378,-4.15281 -0.50378,-4.15281"/><path d="M237.57564,190.34999c0,0 -4.71123,-0.91845 -5.96012,-2.32025c-1.04917,-1.17765 -1.03897,-5.53588 -1.03897,-5.53588"/></g><g fill="none" stroke="#649fe8" stroke-width="2" stroke-linecap="round"><path d="M241.40843,176.63757c0,0 0.63034,4.40537 0.02364,6.97093c-0.39548,1.67236 -4.03425,1.4129 -4.59447,2.59924c-0.81142,1.71831 1.01765,4.34449 -0.69314,5.17782c-1.9438,0.94676 -0.63315,4.73286 -1.27433,2.66801c-0.42521,-1.36932 -2.88904,-1.98944 -2.88904,-1.98944c0,0 -0.56826,-5.98483 0,-7.71329c0.21784,-0.66259 0.80394,-1.16929 1.49625,-1.69695c1.11367,-0.84881 3.93075,-1.32327 4.50315,-3.01666c0.92825,-2.74607 0.71429,-11.14123 0.71429,-11.14123"/><path d="M231.55256,192.06413c0,0 -3.42982,0.15738 -5.0594,-1.86773c-2.70546,-3.36213 -1.51118,-14.41587 -1.51118,-14.41587"/><path d="M229.8385,175.6377c0,0 -0.24127,3.43687 -0.50378,4.15281c-0.26123,0.71244 -3.92421,1.70358 -3.92421,1.70358"/><path d="M244.12236,183.20814c0,0 0.0102,4.35823 -1.03897,5.53588c-1.24889,1.4018 -5.96012,2.32025 -5.96012,2.32025"/></g><path d="M247.58115,188.93597c0,2.45961 -0.76095,4.61834 -1.90604,5.8382c-0.6272,0.66816 -1.58392,0.19751 -2.37968,0.19751c-1.02885,0 -1.75428,0.21106 -2.47104,-0.85452c-0.84974,-1.26329 -1.38611,-3.1162 -1.38611,-5.18119c0,-3.80682 0.03713,-8.75 2.28571,-8.75c1.11558,0 3.56589,-0.64044 4.74422,1.05057c1.19674,1.71744 1.11292,5.78126 1.11292,7.69943z" fill="#f54d4d" stroke="#d93030" stroke-width="2" stroke-linecap="butt"/><path d="M247.00972,181.25739c0,0.78898 -1.59898,1.42857 -3.57143,1.42857c-1.97245,0 -3.57143,-0.63959 -3.57143,-1.42857c0,-0.78898 1.59898,-1.42857 3.57143,-1.42857c1.97245,0 3.57143,0.63959 3.57143,1.42857z" fill="#b50000" stroke="#d93030" stroke-width="2" stroke-linecap="butt"/><path d="M254.65188,191.82423c0,1.90858 -1.18142,3.58367 -2.95921,4.53025c-0.97375,0.51847 -2.45911,0.15326 -3.69456,0.15326c-1.59734,0 -2.7236,0.16378 -3.8364,-0.66308c-1.31926,-0.98027 -2.15199,-2.41807 -2.15199,-4.02043c0,-2.95397 0.05763,-6.78971 3.54867,-6.78971c1.73198,0 5.53622,-0.49696 7.36562,0.81521c1.85799,1.33267 1.72787,4.48606 1.72787,5.9745z" fill="#f54d4d" stroke="#d93030" stroke-width="2" stroke-linecap="butt"/><path d="M253.7647,185.86592c0,0.61222 -2.48249,1.10852 -5.5448,1.10852c-3.06231,0 -5.54481,-0.4963 -5.54481,-1.10852c0,-0.61222 2.4825,-1.10852 5.54481,-1.10852c3.06231,0 5.5448,0.4963 5.5448,1.10852z" fill="#b50000" stroke="#d93030" stroke-width="2" stroke-linecap="butt"/><path d="M239.66014,178.81159l0.22222,1.94444" fill="none" stroke="#d92121" stroke-width="1" stroke-linecap="round"/><path d="M242.3268,179.4227l0.05556,-1.16667" fill="none" stroke="#d92121" stroke-width="1" stroke-linecap="round"/><path d="M244.82681,179.58937v-1.16667" fill="none" stroke="#d92121" stroke-width="1" stroke-linecap="round"/><path d="M247.04903,179.25603l0.16667,1.55556" fill="none" stroke="#d92121" stroke-width="1" stroke-linecap="round"/><path d="M242.71569,185.25603l0.16667,-1.44444" fill="none" stroke="#d92121" stroke-width="1" stroke-linecap="round"/><path d="M245.2157,184.4227l-0.05556,-1.11111" fill="none" stroke="#d92121" stroke-width="1" stroke-linecap="round"/><path d="M249.04903,182.9227l0.11111,0.88889" fill="none" stroke="#d92121" stroke-width="1" stroke-linecap="round"/><path d="M251.32681,183.25603v1.16667" fill="none" stroke="#d92121" stroke-width="1" stroke-linecap="round"/><path d="M252.88236,183.58936v1.33333" fill="none" stroke="#d92121" stroke-width="1" stroke-linecap="round"/><path d="M254.38236,184.25603l-0.33333,1.38889" fill="none" stroke="#d92121" stroke-width="1" stroke-linecap="round"/></g></g></svg>