<svg version="1.1" xmlns="http://www.w3.org/2000/svg" xmlns:xlink="http://www.w3.org/1999/xlink" width="65.4" height="65.4" viewBox="0,0,65.4,65.4"><g transform="translate(-207.1,-147.7)"><g data-paper-data="{&quot;isPaintingLayer&quot;:true}" fill-rule="nonzero" stroke-linejoin="miter" stroke-miterlimit="10" stroke-dasharray="" stroke-dashoffset="0" style="mix-blend-mode: normal"><path d="M239.84627,195.14667c-1.38376,-0.01949 -1.52182,-0.48956 -2.48623,-1.48171c-2.89325,-2.97646 -6.85303,-7.05013 -11.23932,-11.56258c-0.90571,-0.93176 -1.3195,-1.07442 -1.26021,-2.37248c0.05929,-1.29806 0.48984,-1.52209 1.48218,-2.48668c4.44248,-4.31828 8.51863,-8.28047 11.38331,-11.06507c0.95489,-0.9282 1.10212,-1.39135 2.43176,-1.31784c1.32965,0.07351 1.58947,0.55916 2.59718,1.59586c4.25028,4.37253 7.89557,8.12265 10.89082,11.20405c0.99841,1.02713 1.46589,1.1848 1.49777,2.61687c0.03188,1.43207 -0.43135,1.46523 -1.38625,2.39343c-0.95489,0.9282 -8.40631,8.17129 -11.38331,11.06507c-0.99234,0.9646 -1.14394,1.43058 -2.5277,1.41109z" fill="#242315" stroke="#ffffff" stroke-width="1" stroke-linecap="butt"/><path d="M239.84626,194.89024c-1.38376,-0.01949 -1.52182,-0.48956 -2.48623,-1.48171c-2.89325,-2.97646 -6.85303,-7.05013 -11.23932,-11.56258c-0.90571,-0.93176 -1.3195,-1.07442 -1.26021,-2.37248c0.05929,-1.29806 0.48984,-1.52209 1.48218,-2.48668c4.44248,-4.31828 8.51863,-8.28047 11.38331,-11.06507c0.95489,-0.9282 1.10212,-1.39135 2.43176,-1.31784c1.32965,0.07351 1.58947,0.55916 2.59718,1.59586c4.25028,4.37253 7.89557,8.12265 10.89082,11.20405c0.99841,1.02713 1.46589,1.1848 1.49777,2.61687c0.03188,1.43207 -0.43135,1.46523 -1.38625,2.39343c-0.95489,0.9282 -8.40631,8.17129 -11.38331,11.06507c-0.99234,0.9646 -1.14394,1.43058 -2.5277,1.41109z" fill="none" stroke="#ffffff" stroke-width="1" stroke-linecap="butt"/><path d="M207.1,213.1v-65.4h65.4v65.4z" fill="none" stroke="none" stroke-width="0" stroke-linecap="butt"/><g fill="none"><path d="M252.00099,191.39589l-1.46249,0.96694l-2.6225,-3.96649" data-paper-data="{&quot;index&quot;:null}" stroke="#ffffff" stroke-width="3" stroke-linecap="round"/><path d="M237.99758,169.95575c0,0 -0.33407,-4.9053 1.02048,-5.3857c0.58051,-0.20589 3.93784,3.62719 3.93784,3.62719" data-paper-data="{&quot;index&quot;:null}" stroke="#ffffff" stroke-width="2.5" stroke-linecap="round"/><path d="M229.00065,173.0392c0,0 -0.33407,-4.9053 1.02048,-5.3857c0.58051,-0.20589 3.93784,3.62719 3.93784,3.62719" data-paper-data="{&quot;index&quot;:null}" stroke="#ffffff" stroke-width="2.5" stroke-linecap="round"/><path d="M236.30676,192.4204l-0.39281,4.64855l-1.81423,-0.15331" data-paper-data="{&quot;index&quot;:null}" stroke="#ffffff" stroke-width="3" stroke-linecap="round"/><path d="M250.19181,183.34303c0,0 0.66598,1.32414 0.18416,2.33531c-0.48182,1.01114 -0.87431,0.95415 -1.92998,1.32855c-3.16698,1.12319 -11.09388,3.93449 -12.10972,4.29477c-1.01582,0.36027 -1.20591,0.68453 -2.23372,0.14813c-1.0278,-0.53642 -0.97467,-0.93217 -1.3622,-2.02484c-1.16258,-3.27802 -2.57744,-7.26747 -4.22715,-11.91901c-0.39113,-1.10285 -0.65045,-1.46546 -0.22721,-2.4567c0.42321,-0.99125 0.81207,-0.93208 1.82792,-1.29236c3.0475,-1.08081 7.38374,-2.61868 12.10972,-4.29477c1.05566,-0.37439 1.37255,-0.60654 2.33577,-0.18432c0.96324,0.42222 0.91844,0.77363 1.26999,1.76485z" data-paper-data="{&quot;index&quot;:null}" stroke="#fff300" stroke-width="2.5" stroke-linecap="butt"/><path d="M245.99774,178.10551c0,0 -0.93247,2.14962 -1.65224,2.44781c-0.83433,0.34565 -3.06101,-0.4952 -3.06101,-0.4952" data-paper-data="{&quot;index&quot;:null}" stroke="#ffffff" stroke-width="2.5" stroke-linecap="round"/><path d="M237.79309,181.42869c0,0 -1.28552,1.86737 -2.14438,2.11311c-0.79356,0.22706 -2.82839,-0.69028 -2.82839,-0.69028" data-paper-data="{&quot;index&quot;:null}" stroke="#ffffff" stroke-width="2.5" stroke-linecap="round"/></g><path d="M240.93786,163.55041c0.2223,1.55609 -2.90456,3.28999 -6.98404,3.87277c-4.07948,0.58278 -7.56675,-0.20624 -7.78905,-1.76233c-0.2223,-1.55609 2.90456,-3.28999 6.98404,-3.87277c4.07948,-0.58278 7.56675,0.20624 7.78905,1.76233z" fill="none" stroke="#fff300" stroke-width="2.5" stroke-linecap="butt"/><path d="M234.956,177.12581l-3.67785,2.60141" fill="none" stroke="#ffffff" stroke-width="2.5" stroke-linecap="round"/><path d="M244.91311,174.52441l-4.39548,0.71763" fill="none" stroke="#ffffff" stroke-width="2.5" stroke-linecap="round"/></g></g></svg>