<svg version="1.1" xmlns="http://www.w3.org/2000/svg" xmlns:xlink="http://www.w3.org/1999/xlink" width="81.27777" height="81.27777" viewBox="0,0,81.27777,81.27777"><g transform="translate(-199.77779,-133.77781)"><g data-paper-data="{&quot;isPaintingLayer&quot;:true}" stroke-linejoin="miter" stroke-miterlimit="10" stroke-dasharray="" stroke-dashoffset="0" style="mix-blend-mode: normal"><path d="M199.77779,175.27986v-41.50205h81.27777v81.27777h-81.27777v-37.13543" fill="none" fill-rule="nonzero" stroke="none" stroke-width="NaN" stroke-linecap="butt"/><path d="M244.09748,155.82034c0.14711,0.61104 -1.92237,1.6331 -4.62217,2.28216c-2.69925,0.64905 -5.0073,0.67991 -5.15386,0.06887c-0.14711,-0.61104 1.92237,-1.6331 4.62217,-2.28216c2.69925,-0.64905 5.00675,-0.67991 5.15386,-0.06887" fill="#3d79cc" fill-rule="evenodd" stroke="none" stroke-width="1" stroke-linecap="butt"/><path d="M223.22265,191.66289c0,-0.60995 -1.46188,-2.05886 1.72823,-2.25818c0.98368,-0.06146 2.43394,-1.01821 3.75999,-1.07937c1.57721,-0.07275 5.89199,0.08755 7.66952,0.08755c1.69448,0 11.0205,-0.26392 12.53519,-0.19753c5.74248,0.25171 6.70708,1.33905 6.70708,2.14753c0,1.02173 -0.88142,3.85 -9,3.85c-8.11858,0 -15.4,0.47173 -15.4,-0.55c0,0 -6.6142,-1.05717 -6.71837,-1.01811c-0.26202,0.09826 -1.28164,-0.98189 -1.28164,-0.98189z" data-paper-data="{&quot;index&quot;:null}" fill="#b51b1b" fill-rule="nonzero" stroke="none" stroke-width="NaN" stroke-linecap="butt"/><path d="M232.99981,160.567c0,0 -1.74112,-2.14222 -1.7231,-2.91696c0.01939,-0.83395 0.73564,-1.92223 0.73564,-1.92223" data-paper-data="{&quot;index&quot;:null}" fill="none" fill-rule="nonzero" stroke="#ffffff" stroke-width="2" stroke-linecap="round"/><path d="M247.04214,155.52781c0,0 0.88162,0.91825 0.8222,1.69074c-0.05217,0.67822 -1.15982,2.69829 -1.15982,2.69829" data-paper-data="{&quot;index&quot;:null}" fill="none" fill-rule="nonzero" stroke="#ffffff" stroke-width="2" stroke-linecap="round"/><path d="M236.47266,170.84622c-0.60751,0 -1.1,-0.49249 -1.1,-1.1c0,-0.60752 0.49248,-1.1 1.1,-1.1c0.60751,0 1.1,0.49248 1.1,1.1c0,0.60751 -0.49249,1.1 -1.1,1.1z" data-paper-data="{&quot;index&quot;:null}" fill="none" fill-rule="nonzero" stroke="#871414" stroke-width="1" stroke-linecap="butt"/><path d="M245.62265,177.34622c-0.60751,0 -1.1,-0.49249 -1.1,-1.1c0,-0.60751 0.49249,-1.1 1.1,-1.1c0.60751,0 1.1,0.49249 1.1,1.1c0,0.60751 -0.49249,1.1 -1.1,1.1z" data-paper-data="{&quot;index&quot;:null}" fill="none" fill-rule="nonzero" stroke="#871414" stroke-width="1" stroke-linecap="butt"/><path d="M234.48099,180.99622c-1.21502,0 -2.2,-0.98498 -2.2,-2.2c0,-1.21502 0.98498,-2.2 2.2,-2.2c1.21502,0 2.2,0.98498 2.2,2.2c0,1.21502 -0.98498,2.2 -2.2,2.2z" data-paper-data="{&quot;index&quot;:null}" fill="none" fill-rule="nonzero" stroke="#871414" stroke-width="1" stroke-linecap="butt"/><path d="M243.60599,164.97956c-1.5464,0 -2.8,-1.2536 -2.8,-2.8c0,-1.5464 1.2536,-2.8 2.8,-2.8c1.5464,0 2.8,1.2536 2.8,2.8c0,1.5464 -1.2536,2.8 -2.8,2.8z" data-paper-data="{&quot;index&quot;:null}" fill="none" fill-rule="nonzero" stroke="#871414" stroke-width="1" stroke-linecap="butt"/><path d="M230.6449,176.57392c0.0377,-1.88409 0.07868,-3.18998 0.07868,-3.18998c0,0 -0.0779,-7.99947 3.26364,-12.71694c3.34155,-4.71747 8.67709,-5.90853 12.94202,0.11254c4.26493,6.02107 1.57555,12.6044 1.57555,12.6044l-0.00002,-0.00001c0,0 -0.0011,0.37338 -0.00697,1.00632" data-paper-data="{&quot;index&quot;:null}" fill="none" fill-rule="nonzero" stroke="#ed2424" stroke-width="2" stroke-linecap="butt"/><path d="M248.05642,186.24187c-0.15456,1.70817 4.03777,3.55489 3.7588,3.77742c-0.96498,0.76976 -5.82018,0.13739 -6.93268,0.34135c-0.92142,0.16894 -4.60841,1.21083 -5.53145,1.41679c-2.28538,0.50994 -4.36726,-1.43602 -5.59315,-1.45305c-0.81798,-0.01136 -5.89308,1.1374 -6.7279,0.56364c-0.25165,-0.17296 3.70445,-2.22444 3.62806,-4.09239" data-paper-data="{&quot;index&quot;:null}" fill="none" fill-rule="nonzero" stroke="#ed2424" stroke-width="2" stroke-linecap="butt"/><path d="M244.89098,167.92578c-0.77692,0 -1.40674,-0.62982 -1.40674,-1.40674c0,-0.77692 0.62982,-1.40674 1.40674,-1.40674c0.77692,0 1.40674,0.62982 1.40674,1.40674c0,0.77692 -0.62982,1.40674 -1.40674,1.40674z" data-paper-data="{&quot;index&quot;:null}" fill="#ffffff" fill-rule="nonzero" stroke="none" stroke-width="0.5" stroke-linecap="butt"/><path d="M235.55022,167.92578c-0.77692,0 -1.40674,-0.62982 -1.40674,-1.40674c0,-0.77692 0.62982,-1.40674 1.40674,-1.40674c0.77692,0 1.40674,0.62982 1.40674,1.40674c0,0.77692 -0.62982,1.40674 -1.40674,1.40674z" data-paper-data="{&quot;index&quot;:null}" fill="#ffffff" fill-rule="nonzero" stroke="#63ec23" stroke-width="0" stroke-linecap="butt"/><path d="M241.35599,169.42123h-5.2" data-paper-data="{&quot;index&quot;:null}" fill="none" fill-rule="nonzero" stroke="#ededed" stroke-width="1" stroke-linecap="round"/><path d="M249.93542,172.84728c0,0 -0.44691,-0.61089 -0.8299,-1.10211c-0.09694,-0.12433 -0.59314,-0.52847 -0.86726,-0.68178c-0.46752,-0.26147 -0.79809,-0.30233 -1.08843,-0.66925c-0.53332,-0.67399 -0.28108,-1.48019 -0.28108,-1.48019" data-paper-data="{&quot;index&quot;:null}" fill="none" fill-rule="nonzero" stroke="#bd971c" stroke-width="1" stroke-linecap="round"/><path d="M244.76875,169.44728c-1.60163,0 -2.9,-1.29837 -2.9,-2.9c0,-1.60163 1.29837,-2.9 2.9,-2.9c1.60163,0 2.9,1.29837 2.9,2.9c0,1.60163 -1.29837,2.9 -2.9,2.9z" data-paper-data="{&quot;index&quot;:null}" fill="none" fill-rule="nonzero" stroke="#edbd24" stroke-width="1.5" stroke-linecap="butt"/><path d="M244.09748,155.82034c0,0 -3.91416,-0.56641 -6.96879,0.70415c-0.43858,0.17852 -0.85953,0.40221 -1.25789,0.68432c-0.44629,0.3102 -0.85402,0.68487 -1.21491,1.14218c-0.03581,0.02369 -0.07493,0.03085 -0.1135,0.02755c-0.19725,-0.01984 -0.37191,-0.38018 -0.34712,-0.63252l1.44632,-13.22791c0.06336,-0.58624 0.82922,-0.77082 1.15651,-0.27329l7.25199,11.15348z" fill="#3029ff" fill-rule="evenodd" stroke="none" stroke-width="1" stroke-linecap="butt"/><path d="M242.96108,155.72028c0.02667,0.03132 -1.56985,1.33692 -3.63298,1.73722c-1.60212,0.31085 -3.58486,-0.51968 -4.67248,0.8926c0,0 -0.26998,0.18017 -0.4496,-0.41379c-0.01763,-0.05785 -0.01873,-0.12617 -0.01157,-0.19009l1.44852,-13.23012c0.04463,-0.42976 0.46943,-0.64409 0.81986,-0.52949c0,0 -0.65071,6.49935 -0.281,9.74517c0.34051,2.99347 1.62704,0.26888 6.77925,1.98848" fill="#3b36e6" fill-rule="evenodd" stroke="none" stroke-width="1" stroke-linecap="butt"/><path d="M235.21293,148.41898c0.01212,0.00275 0.01873,0.00661 0.03196,0.01488l0.48486,0.34877l0.55704,-0.20607c0.18293,-0.06612 0.35979,0.10689 0.30194,0.29037l-0.17742,0.56365l0.3675,0.47329c0.1146,0.14821 0.00882,0.37136 -0.18348,0.37191l-0.5934,0.00551l-0.33555,0.49313c-0.10358,0.16089 -0.34877,0.12838 -0.40938,-0.0551l-0.19174,-0.56641l-0.03692,-0.01322z" fill="#e6ac00" fill-rule="evenodd" stroke="none" stroke-width="1" stroke-linecap="butt"/><path d="M242.15759,152.48129l-0.27935,0.17962l-0.03141,0.86834c-0.01267,0.281 -0.34051,0.42646 -0.55759,0.2518l-0.67109,-0.55924l-0.83804,0.23913c-0.27053,0.07604 -0.50966,-0.19009 -0.40772,-0.45235l0.32287,-0.80718l-0.48376,-0.72344c-0.15758,-0.23417 0.02204,-0.54878 0.30414,-0.53114l0.86945,0.05895l0.4485,-0.5653z" fill="#ffbf00" fill-rule="evenodd" stroke="none" stroke-width="1" stroke-linecap="butt"/><path d="M237.27938,155.84188l-0.26392,0.42756l0.1135,0.2551c-0.43858,0.17797 -0.85953,0.40221 -1.25844,0.68377c-0.0303,-0.02479 -0.054,-0.06612 -0.05455,-0.11571l-0.03912,-0.50249l-0.43527,-0.24794c-0.14105,-0.08044 -0.12673,-0.28375 0.01818,-0.34712l0.46227,-0.1978l0.10358,-0.48762c0.03251,-0.15758 0.23637,-0.20937 0.34106,-0.08816l0.32728,0.38073l0.49313,-0.0562c0.16199,-0.01708 0.27218,0.15978 0.19229,0.29588" fill="#e6ac00" fill-rule="evenodd" stroke="none" stroke-width="1" stroke-linecap="butt"/><path d="M237.46098,152.87684c0.05785,0.24353 -0.09201,0.48762 -0.33555,0.54602c-0.24353,0.05785 -0.48817,-0.09256 -0.54602,-0.3361c-0.0584,-0.24353 0.09201,-0.48762 0.33555,-0.54547c0.24353,-0.0584 0.48817,0.09201 0.54602,0.33555" fill="#ffbf00" fill-rule="evenodd" stroke="none" stroke-width="1" stroke-linecap="butt"/><path d="M238.00232,146.10051c-0.0292,0.01873 -0.06006,0.03141 -0.09256,0.03912c-0.23582,0.0562 -0.47329,-0.0854 -0.52949,-0.32122c-0.04077,-0.17135 0.02094,-0.3394 0.14932,-0.44354z" fill="#ffbf00" fill-rule="evenodd" stroke="none" stroke-width="1" stroke-linecap="butt"/><path d="M236.59308,150.27611l-0.51792,0.00551c0.01102,-0.55098 0.02755,-1.10747 0.0551,-1.64743l0.15427,-0.0551c0.18733,-0.06612 0.36365,0.10469 0.30304,0.28651l-0.17631,0.56751l0.36916,0.46833c0.1102,0.14876 0.00551,0.37467 -0.18733,0.37467" fill="#ffbf00" fill-rule="evenodd" stroke="none" stroke-width="1" stroke-linecap="butt"/><path d="M239.03655,185.99622c-0.96956,0 -1.75556,-0.78599 -1.75556,-1.75556c0,-0.96956 0.78599,-1.75556 1.75556,-1.75556c0.96956,0 1.75556,0.78599 1.75556,1.75556c0,0.96956 -0.78599,1.75556 -1.75556,1.75556z" data-paper-data="{&quot;index&quot;:null}" fill="none" fill-rule="nonzero" stroke="#871414" stroke-width="1" stroke-linecap="butt"/><path d="M245.36155,186.06844c-0.60751,0 -1.1,-0.49249 -1.1,-1.1c0,-0.60752 0.49248,-1.1 1.1,-1.1c0.60751,0 1.1,0.49248 1.1,1.1c0,0.60751 -0.49249,1.1 -1.1,1.1z" data-paper-data="{&quot;index&quot;:null}" fill="none" fill-rule="nonzero" stroke="#871414" stroke-width="1" stroke-linecap="butt"/><g fill-rule="nonzero" stroke-width="1"><path d="M241.86299,176.77254l0.98548,-6.89759l6.13577,2.13296l1.38732,0.12971l5.94839,-1.06517l-0.98548,6.89759l-5.66774,1.23417l-1.591,-0.13311z" fill="#e1e1e1" stroke="#fbfbfb" stroke-linecap="butt"/><path d="M241.58444,178.01781l0.98548,-6.89759l6.27651,2.14547l1.41804,0.13244l6.07504,-1.05391l-0.98548,6.89759l-5.78774,1.22351l-1.62618,-0.13624z" fill="#3029ff" stroke="#2a26a8" stroke-linecap="butt"/><path d="M248.49575,173.3139l-0.8861,6.90642" fill="none" stroke="#0600a8" stroke-linecap="round"/><path d="M249.18838,180.44004l0.99668,-6.97598" fill="none" stroke="#0600a8" stroke-linecap="round"/></g><path d="M247.03558,186.73198c0.43512,0.00841 1.6558,-0.84909 1.84346,-1.06551c0.59669,-0.68813 4.49356,-4.27337 5.86088,-7.55888c1.36732,-3.28551 -0.70897,-1.97213 -1.81012,-2.17458c-1.18102,-0.21714 -3.31218,1.36166 -3.31218,2.22774c0,0.73792 -0.83434,2.30313 -1.66514,3.82259" fill="none" fill-rule="nonzero" stroke="#ed2424" stroke-width="1.5" stroke-linecap="butt"/><path d="M252.59177,178.30899l0.90616,-2.33923" fill="none" fill-rule="nonzero" stroke="#ed2424" stroke-width="1.5" stroke-linecap="round"/><path d="M232.87715,178.96958c-0.20932,1.86737 -0.45347,3.91853 -0.14639,4.6677c0.32858,0.8016 -1.04439,3.07116 -2.21955,3.31812c-1.09568,0.23025 -2.51857,2.23333 -2.49988,-1.32617c0.0187,-3.55951 2.26424,-8.35582 2.55528,-9.21903c0.0891,-0.26426 0.43962,-0.4729 0.83248,-0.62884" data-paper-data="{&quot;index&quot;:null}" fill="none" fill-rule="nonzero" stroke="#ed2424" stroke-width="1.5" stroke-linecap="butt"/><path d="M229.92258,184.62809l0.049,2.50877" data-paper-data="{&quot;index&quot;:null}" fill="none" fill-rule="nonzero" stroke="#ed2424" stroke-width="1.5" stroke-linecap="round"/></g></g></svg>