<svg version="1.1" xmlns="http://www.w3.org/2000/svg" xmlns:xlink="http://www.w3.org/1999/xlink" width="706.32052" height="404.59215" viewBox="0,0,706.32052,404.59215"><defs><linearGradient x1="-203.82051" y1="114.45393" x2="-203.82051" y2="116.45393" gradientUnits="userSpaceOnUse" id="color-1"><stop offset="0" stop-color="#123f55"/><stop offset="1" stop-color="#123f55" stop-opacity="0"/></linearGradient><linearGradient x1="939.11225" y1="-2682.83333" x2="939.11225" y2="4812" gradientUnits="userSpaceOnUse" id="color-2"><stop offset="0" stop-color="#123f55" stop-opacity="0"/><stop offset="1" stop-color="#123f55"/></linearGradient></defs><g transform="translate(204.82051,31.59215)"><g data-paper-data="{&quot;isPaintingLayer&quot;:true}" fill-rule="nonzero" stroke-linejoin="miter" stroke-miterlimit="10" stroke-dasharray="" stroke-dashoffset="0" style="mix-blend-mode: normal"><path d="M-5.99999,366.50001v-373h492v373z" fill="#123f55" stroke="#000000" stroke-width="0.5" stroke-linecap="butt"/><path d="M457.78851,84.2144l-4.34382,12.84553l-8.75453,-10.42492z" fill="#ac2f6d" stroke="none" stroke-width="0" stroke-linecap="butt"/><path d="M418.89709,146.89335l-5.60216,5.32283l-1.63208,-7.52247z" fill="#dc3939" stroke="none" stroke-width="0" stroke-linecap="butt"/><path d="M433.19062,130.41283l-4.54679,-12.8315l13.27439,2.76894z" fill="#ed42f3" stroke="none" stroke-width="0" stroke-linecap="butt"/><path d="M338.16794,14.14647l4.20802,-7.64474l4.35493,7.64475z" fill="#6733bc" stroke="none" stroke-width="0" stroke-linecap="butt"/><path d="M427.25744,47.7949l7.48354,-3.82231l-0.11591,8.41503z" fill="#ff45a2" stroke="none" stroke-width="0" stroke-linecap="butt"/><path d="M138.40786,16.13757l-5.70309,-7.37805l9.28326,1.27422z" fill="#8d45ff" stroke="none" stroke-width="0" stroke-linecap="butt"/><path d="M173.99732,352.28369l-2.46579,7.29185l-4.96957,-5.91778z" fill="#dc3939" stroke="none" stroke-width="0" stroke-linecap="butt"/><path d="M23.2099,75.96901l-2.14541,6.08972l-3.99443,-4.95506z" fill="#c73434" stroke="none" stroke-width="0" stroke-linecap="butt"/><path d="M66.83538,186.55503l-5.70309,-7.37805l9.28326,1.27422z" fill="#f945ff" stroke="none" stroke-width="0" stroke-linecap="butt"/><path d="M453.03036,279.14634l-4.02263,-7.37781l8.4151,-0.11093z" fill="#b632bb" stroke="none" stroke-width="0" stroke-linecap="butt"/><path d="M477.17061,291.31573l-4.34382,12.84553l-8.75453,-10.42492z" fill="#ed42f3" stroke="none" stroke-width="0" stroke-linecap="butt"/><path d="M443.58119,236.60766l-4.32627,-7.92089l8.76387,0.35522z" fill="#7238cf" stroke="none" stroke-width="0" stroke-linecap="butt"/><path d="M472.53936,159.63376l3.33003,-6.24381l3.74629,6.24381z" fill="#ac2d2d" stroke="none" stroke-width="0" stroke-linecap="butt"/><path d="M424.14688,292.2369l3.59763,-8.65214l3.4787,8.65214z" fill="#e83d3d" stroke="none" stroke-width="0" stroke-linecap="butt"/><path d="M300.7881,302.41165l2.07078,-3.60537l2.32962,3.60537z" fill="#bb3030" stroke="none" stroke-width="0" stroke-linecap="butt"/><path d="M178.13993,215.71002l6.26062,1.14575l-4.32784,4.79139z" fill="#c73434" stroke="none" stroke-width="0" stroke-linecap="butt"/><path d="M449.5423,183.91509l4.35319,-7.20249l4.32869,7.20249z" fill="#ff45a2" stroke="none" stroke-width="0" stroke-linecap="butt"/><path d="M412.30137,211.98328l3.02747,-5.59845l3.21635,5.59845z" fill="#ae30b2" stroke="none" stroke-width="0" stroke-linecap="butt"/><path d="M144.90481,285.00023l2.16245,-3.92854l2.23795,3.92855z" fill="#e03ee6" stroke="none" stroke-width="0" stroke-linecap="butt"/><path d="M433.19334,189.91966l2.07078,-3.60537l2.32963,3.60537z" fill="#d43bd9" stroke="none" stroke-width="0" stroke-linecap="butt"/><path d="M480.02042,170.32981l-5.95902,7.23136l-0.81126,-9.28992z" fill="#8d45ff" stroke="none" stroke-width="0" stroke-linecap="butt"/><path d="M40.25615,62.983l7.52909,-5.50217l-1.52397,9.24555z" fill="#e63e92" stroke="none" stroke-width="0" stroke-linecap="butt"/><path d="M408.51015,324.9133l11.87043,-6.5551l-0.56667,13.60146z" fill="#ac2f6d" stroke="none" stroke-width="0" stroke-linecap="butt"/><path d="M471.87919,236.47253l7.48354,-3.82231l-0.11591,8.41503z" fill="#b632bb" stroke="none" stroke-width="0" stroke-linecap="butt"/><path d="M9.02343,141.87026l3.88422,-1.82722l-0.14993,4.15504z" fill="#d43bd9" stroke="none" stroke-width="0" stroke-linecap="butt"/><path d="M16.17514,199.01017l-2.54925,6.82065l-4.40924,-5.5347z" fill="#ac2d2d" stroke="none" stroke-width="0" stroke-linecap="butt"/><path d="M66.73194,232.32655l-5.70309,-7.37805l9.28326,1.27422z" fill="#e83d3d" stroke="none" stroke-width="0" stroke-linecap="butt"/><path d="M24.19096,236.17448l-5.70309,-7.37805l9.28326,1.27422z" fill="#e63e92" stroke="none" stroke-width="0" stroke-linecap="butt"/><path d="M49.42803,353.17317l-4.02263,-7.37781l8.4151,-0.11093z" fill="#ff45a2" stroke="none" stroke-width="0" stroke-linecap="butt"/><path d="M63.54093,326.455l-1.48677,4.26983l-2.84036,-3.47016z" fill="#f3429a" stroke="none" stroke-width="0" stroke-linecap="butt"/><path d="M7.64559,335.35641l-1.48677,4.26983l-2.84036,-3.47016z" fill="#e03ee6" stroke="none" stroke-width="0" stroke-linecap="butt"/><path d="M16.1119,139.76787l-0.93677,-9.27811l7.20391,5.99218z" fill="#8d45ff" stroke="none" stroke-width="0" stroke-linecap="butt"/><path d="M32.68282,312.19741l0.35144,-13.55555l11.44553,7.37026z" fill="#803fe8" stroke="none" stroke-width="0" stroke-linecap="butt"/><path d="M50.77163,297.52459l-5.70309,-7.37805l9.28326,1.27422z" fill="#e83d3d" stroke="none" stroke-width="0" stroke-linecap="butt"/><path d="M54.92152,118.80281l-3.90131,-6.63559l7.72682,0.11347z" fill="#dc3939" stroke="none" stroke-width="0" stroke-linecap="butt"/><path d="M34.39089,183.43413l7.52909,-5.50216l-1.52396,9.24554z" fill="#f945ff" stroke="none" stroke-width="0" stroke-linecap="butt"/><path d="M18.48089,279.40562l-6.87265,-11.68945l13.61179,0.19988z" fill="#803fe8" stroke="none" stroke-width="0" stroke-linecap="butt"/><path d="M461.72457,98.12035c-1.60908,-12.11391 -10.684,-16.68386 -8.96803,-30.00132c1.71597,-13.31747 15.43097,-18.74338 16.66424,-29.72823c1.23326,-10.98485 -11.28361,-15.21638 -10.42653,-25.83184c0.85708,-10.61545 9.18736,-21.74227 10.73698,-21.65052c5.67928,0.33626 2.86432,1.6103 3.26465,2.86303c1.19369,3.73541 -8.56,11.50907 -8.27987,15.22537c0.89314,11.84851 11.93882,13.06199 12.14476,27.29991c0.20595,14.23792 -11.23229,13.79612 -11.25692,34.07961c-0.02462,20.28349 11.84736,41.86099 11.15406,50.66229c-0.69331,8.8013 -9.05483,18.95647 -15.8251,8.63518c-6.77027,-10.32129 2.40086,-19.43959 0.79178,-31.5535z" data-paper-data="{&quot;index&quot;:null}" fill="#307841" stroke="none" stroke-width="NaN" stroke-linecap="butt"/><path d="M427.18059,18.31129c1.60907,12.11391 10.684,16.68386 8.96803,30.00132c-1.71597,13.31746 -15.43097,18.74337 -16.66424,29.72822c-1.23326,10.98485 11.28361,15.21639 10.42653,25.83184c-0.85708,10.61545 -9.18736,21.74227 -10.73698,21.65052c-5.67928,-0.33626 -2.86433,-1.6103 -3.26465,-2.86303c-1.19369,-3.73541 8.56,-11.50907 8.27987,-15.22537c-0.89313,-11.84852 -11.93881,-13.062 -12.14475,-27.29992c-0.20594,-14.23792 11.2323,-13.79612 11.25693,-34.07961c0.02462,-20.2835 -11.84736,-41.861 -11.15406,-50.6623c0.6933,-8.8013 9.05483,-18.95647 15.8251,-8.63518c6.77027,10.32129 -2.40085,19.43958 -0.79178,31.55349z" data-paper-data="{&quot;index&quot;:null}" fill="#306f78" stroke="none" stroke-width="NaN" stroke-linecap="butt"/><path d="M70.64862,45.61902c1.71597,13.31746 -7.35895,17.88741 -8.96803,30.00132c-1.60908,12.11391 7.56205,21.23221 0.79178,31.5535c-6.77027,10.32129 -15.13179,0.16612 -15.8251,-8.63518c-0.69331,-8.8013 11.17868,-30.37881 11.15405,-50.6623c-0.02463,-20.28349 -11.46287,-19.84169 -11.25693,-34.07961c0.20595,-14.23792 11.25163,-15.4514 12.14476,-27.29992c0.28013,-3.71629 -9.47356,-11.48996 -8.27987,-15.22537c0.40033,-1.25273 -2.41463,-2.52677 3.26465,-2.86304c1.54962,-0.09175 9.8799,11.03507 10.73698,21.65052c0.85708,10.61546 -11.6598,14.84699 -10.42653,25.83184c1.23327,10.98485 14.94827,16.41076 16.66424,29.72822z" data-paper-data="{&quot;index&quot;:null}" fill="#30786b" stroke="none" stroke-width="NaN" stroke-linecap="butt"/><path d="M7.75656,47.31264c-1.71597,-13.31747 7.35895,-17.88742 8.96803,-30.00133c1.60908,-12.11391 -7.56205,-21.23221 -0.79178,-31.5535c6.77027,-10.32129 15.13179,-0.16612 15.8251,8.63518c0.6933,8.8013 -11.17869,30.3788 -11.15406,50.66229c0.02463,20.28349 11.46287,19.84169 11.25693,34.07961c-0.20595,14.23792 -11.25163,15.45139 -12.14476,27.29991c-0.28013,3.7163 9.47356,11.48997 8.27987,15.22537c-0.40032,1.25273 2.41464,2.52677 -3.26464,2.86303c-1.54962,0.09175 -9.8799,-11.03507 -10.73698,-21.65052c-0.85708,-10.61545 11.6598,-14.84699 10.42653,-25.83184c-1.23327,-10.98485 -14.94827,-16.41077 -16.66424,-29.72823z" data-paper-data="{&quot;index&quot;:null}" fill="#305b78" stroke="none" stroke-width="NaN" stroke-linecap="butt"/><path d="M74.25,347.00004v-329h329v329z" fill="#030b0f" stroke="none" stroke-width="0" stroke-linecap="butt"/><g fill="#767161" stroke="#000000" stroke-width="0" stroke-linecap="butt"><path d="M201.56668,138.45559v-37h37v37z"/><path d="M161.43335,178.54448v-37h37v37z"/><path d="M121.56668,138.45559v-37h37v37z"/><path d="M81.43335,178.54448v-37h37v37z"/><path d="M201.56668,58.45559v-37h37v37z"/><path d="M161.43335,98.54451v-37h37v37z"/><path d="M121.56668,58.45559v-37h37v37z"/><path d="M81.43335,98.54451v-37h37v37z"/><path d="M361.56668,138.45559v-37h37v37z"/><path d="M321.43335,178.54448v-37h37v37z"/><path d="M281.56668,138.45559v-37h37v37z"/><path d="M241.43335,178.54448v-37h37v37z"/><path d="M361.56668,58.45559v-37h37v37z"/><path d="M321.43335,98.54451v-37h37v37z"/><path d="M281.56668,58.45559v-37h37v37z"/><path d="M241.43335,98.54451v-37h37v37z"/><path d="M201.56668,298.45556v-37h37v37z"/><path d="M161.43335,338.54453v-37h37v37z"/><path d="M121.56668,298.45556v-37h37v37z"/><path d="M81.43335,338.54453v-37h37v37z"/><path d="M201.56668,218.45562v-37h37v37z"/><path d="M161.43335,258.54448v-37h37v37z"/><path d="M121.56668,218.45562v-37h37v37z"/><path d="M81.43335,258.54448v-37h37v37z"/><path d="M361.56668,298.45556v-37h37v37z"/><path d="M321.43335,338.54453v-37h37v37z"/><path d="M281.56668,298.45556v-37h37v37z"/><path d="M241.43335,338.54453v-37h37v37z"/><path d="M361.56668,218.45562v-37h37v37z"/><path d="M321.43335,258.54448v-37h37v37z"/><path d="M281.56668,218.45562v-37h37v37z"/><path d="M241.43335,258.54448v-37h37v37z"/></g><g fill="#0c2338" stroke="#000000" stroke-width="0" stroke-linecap="butt"><path d="M161.43334,138.54449v-37h37v37z"/><path d="M201.56668,178.45563v-37h37v37z"/><path d="M81.43334,138.54449v-37h37v37z"/><path d="M121.56668,178.45563v-37h37v37z"/><path d="M161.43334,58.5445v-37h37v37z"/><path d="M201.56668,98.45562v-37h37v37z"/><path d="M81.43334,58.5445v-37h37v37z"/><path d="M121.56668,98.45562v-37h37v37z"/><path d="M321.43334,138.54449v-37h37v37z"/><path d="M361.56668,178.45563v-37h37v37z"/><path d="M241.43334,138.54449v-37h37v37z"/><path d="M281.56668,178.45563v-37h37v37z"/><path d="M321.43334,58.5445v-37h37v37z"/><path d="M361.56668,98.45562v-37h37v37z"/><path d="M241.43334,58.5445v-37h37v37z"/><path d="M281.56668,98.45562v-37h37v37z"/><path d="M161.43334,298.54448v-37h37v37z"/><path d="M201.56668,338.45562v-37h37v37z"/><path d="M81.43334,298.54448v-37h37v37z"/><path d="M121.56668,338.45562v-37h37v37z"/><path d="M161.43334,218.5445v-37h37v37z"/><path d="M201.56668,258.45556v-37h37v37z"/><path d="M81.43334,218.5445v-37h37v37z"/><path d="M121.56668,258.45556v-37h37v37z"/><path d="M321.43334,298.54448v-37h37v37z"/><path d="M361.56668,338.45562v-37h37v37z"/><path d="M241.43334,298.54448v-37h37v37z"/><path d="M281.56668,338.45562v-37h37v37z"/><path d="M321.43334,218.5445v-37h37v37z"/><path d="M361.56668,258.45556v-37h37v37z"/><path d="M241.43334,218.5445v-37h37v37z"/><path d="M281.56668,258.45556v-37h37v37z"/></g><path d="M-106.15277,272.81944v-295.63889h295.63889v295.63889z" fill="none" stroke="none" stroke-width="2" stroke-linecap="butt"/><g data-paper-data="{&quot;index&quot;:null}" fill="none" stroke="#3a659d" stroke-width="2.5" stroke-linecap="round"><path d="M469.57735,100.31615v-102.94608"/><path d="M448.98813,73.02344v-74.21694"/><path d="M428.87773,1.2006v90.97561"/><path d="M411.64025,44.77315v-44.53017"/><path d="M396.31804,25.62037v-24.41977"/><path d="M10.65694,100.04914v-102.94609" data-paper-data="{&quot;index&quot;:null}"/><path d="M31.24616,-1.46049v74.21695" data-paper-data="{&quot;index&quot;:null}"/><path d="M51.35655,0.9336v90.97561" data-paper-data="{&quot;index&quot;:null}"/><path d="M68.59404,-0.02404v44.53017" data-paper-data="{&quot;index&quot;:null}"/><path d="M83.91625,0.93361v24.41977" data-paper-data="{&quot;index&quot;:null}"/></g><path d="M126.51174,-2.45702l-1.5,4l-40,9.5l-32,16.5l-26.5,-4.5l-25.5,16l-7.5,-1.5l1,-49" fill="#0e3244" stroke="#3a659d" stroke-width="2.5" stroke-linecap="round"/><path d="M484.01174,-2.95701l1.5,55.5l-31.5,-28.5h-22.5l-23,-13.5l-44.5,-2.5l-6.5,-9" fill="#0e3244" stroke="#3a659d" stroke-width="2.5" stroke-linecap="round"/><path d="M367.51174,370.043l29,-21l31,-9l30,-20.5l29,7" data-paper-data="{&quot;index&quot;:null}" fill="none" stroke="#3a659d" stroke-width="2.5" stroke-linecap="round"/><path d="M127.51174,363.043l-22,-17l-41,0.5l-32.5,-29l-22.5,-7l-13.5,-24" data-paper-data="{&quot;index&quot;:null}" fill="none" stroke="#3a659d" stroke-width="2.5" stroke-linecap="round"/><path d="M132.22378,268.20417l-1.63564,3.96869l-2.69149,-3.16902z" fill="#9230ba" stroke="none" stroke-width="0" stroke-linecap="butt"/><path d="M99.26741,68.72472l-2.14541,6.08972l-3.99443,-4.95506z" fill="#ae30b2" stroke="none" stroke-width="0" stroke-linecap="butt"/><path d="M37.25014,154.21364l-3.49036,-6.39041l7.07052,0.28659z" fill="#602fae" stroke="none" stroke-width="0" stroke-linecap="butt"/><path d="M420.03382,343.11836l-2.89317,8.30885l-5.52719,-6.75275z" fill="#6733bc" stroke="none" stroke-width="0" stroke-linecap="butt"/><path d="M352.42157,349.93738l-9.86892,9.37685l-2.87514,-13.25179z" fill="#ac2f6d" stroke="none" stroke-width="0" stroke-linecap="butt"/><path d="M451.69791,146.77171l2.16245,-3.92855l2.23795,3.92855z" fill="#f3429a" stroke="none" stroke-width="0" stroke-linecap="butt"/><path d="M189.05991,352.98378l3.33004,-6.24382l3.74629,6.24382z" fill="#602fae" stroke="none" stroke-width="0" stroke-linecap="butt"/><path d="M361.72682,249.84988l-3.49035,-6.39041l7.07051,0.28658z" fill="#ac2d2d" stroke="none" stroke-width="0" stroke-linecap="butt"/><path d="M275.30472,80.09836l-1.93125,-3.83355l4.15757,0.03789z" fill="#ba30ad" stroke="none" stroke-width="0" stroke-linecap="butt"/><path d="M364.98119,215.63943l3.88421,-1.82722l-0.14993,4.15504z" fill="#cb3781" stroke="none" stroke-width="0" stroke-linecap="butt"/><path d="M29.58334,170.04345c0,0 -1.49173,9.34588 -2.82921,8.98426c-1.43061,-0.3868 -1.89301,-9.46169 -1.89301,-9.46169" data-paper-data="{&quot;index&quot;:null}" fill="none" stroke="#426a4c" stroke-width="3" stroke-linecap="round"/><path d="M445.83334,141.15456c0,0 -1.49173,9.34588 -2.82922,8.98426c-1.43061,-0.3868 -1.893,-9.46168 -1.893,-9.46168" data-paper-data="{&quot;index&quot;:null}" fill="none" stroke="#426b62" stroke-width="3" stroke-linecap="round"/><path d="M142.36112,351.77956c0,0 -1.49173,9.34588 -2.82922,8.98426c-1.4306,-0.3868 -1.893,-9.46169 -1.893,-9.46169" data-paper-data="{&quot;index&quot;:null}" fill="none" stroke="#42686b" stroke-width="3" stroke-linecap="round"/><path d="M12.50001,320.04345c0,0 -1.49173,9.34588 -2.82921,8.98426c-1.43061,-0.3868 -1.89301,-9.46169 -1.89301,-9.46169" data-paper-data="{&quot;index&quot;:null}" fill="none" stroke="#426a4c" stroke-width="3" stroke-linecap="round"/><path d="M15.27779,247.26567c0,0 -1.49173,9.34588 -2.82922,8.98426c-1.4306,-0.3868 -1.893,-9.46169 -1.893,-9.46169" data-paper-data="{&quot;index&quot;:null}" fill="none" stroke="#42616b" stroke-width="3" stroke-linecap="round"/><path d="M422.50001,232.33511c0,0 -1.49173,9.34588 -2.82921,8.98426c-1.43061,-0.3868 -1.89301,-9.46169 -1.89301,-9.46169" data-paper-data="{&quot;index&quot;:null}" fill="none" stroke="#426a4c" stroke-width="3" stroke-linecap="round"/><path d="M49.16668,227.26567c0,0 -1.49173,9.34588 -2.82921,8.98426c-1.43061,-0.3868 -1.89301,-9.46169 -1.89301,-9.46169" data-paper-data="{&quot;index&quot;:null}" fill="none" stroke="#426b62" stroke-width="3" stroke-linecap="round"/><path d="M400.27779,322.26567c0,0 -1.49173,9.34588 -2.82921,8.98426c-1.43061,-0.3868 -1.89301,-9.46169 -1.89301,-9.46169" data-paper-data="{&quot;index&quot;:null}" fill="none" stroke="#42686b" stroke-width="3" stroke-linecap="round"/><path d="M45.69445,110.25178c0,0 -1.49173,9.34588 -2.82921,8.98426c-1.43061,-0.3868 -1.89301,-9.46168 -1.89301,-9.46168" data-paper-data="{&quot;index&quot;:null}" fill="none" stroke="#42616b" stroke-width="3" stroke-linecap="round"/><path d="M449.72223,245.04345c0,0 -1.49173,9.34588 -2.82922,8.98426c-1.43061,-0.3868 -1.89301,-9.46168 -1.89301,-9.46168" data-paper-data="{&quot;index&quot;:null}" fill="none" stroke="#426a4c" stroke-width="3" stroke-linecap="round"/><path d="M437.50001,321.15456c0,0 -1.49173,9.34588 -2.82921,8.98426c-1.43061,-0.3868 -1.89301,-9.46168 -1.89301,-9.46168" data-paper-data="{&quot;index&quot;:null}" fill="none" stroke="#426b62" stroke-width="3" stroke-linecap="round"/><path d="M340.83334,345.04345c0,0 -1.49173,9.34588 -2.82922,8.98426c-1.4306,-0.3868 -1.893,-9.46168 -1.893,-9.46168" data-paper-data="{&quot;index&quot;:null}" fill="none" stroke="#42616b" stroke-width="3" stroke-linecap="round"/><path d="M438.59202,337.54914c1.32394,1.41706 -1.53296,4.51208 -1.53296,4.51208c0,0 3.65471,3.31098 2.31477,4.90519c-1.33994,1.59421 -4.76342,-1.03289 -4.76342,-1.03289c0,0 -0.37954,4.26502 -2.35935,3.59585c-1.97979,-0.66919 -1.63017,-4.45277 -1.63017,-4.45277c0,0 -3.84002,-0.06991 -4.24014,-2.1227c-0.40013,-2.05279 3.75514,-2.68603 3.75514,-2.68603c0,0 -1.4745,-4.72737 0.35557,-4.98141c1.83004,-0.25404 3.59446,3.59252 3.59446,3.59252c0,0 3.18214,-2.74689 4.50608,-1.32983z" data-paper-data="{&quot;index&quot;:null}" fill="#f0517e" stroke="#e3bcc3" stroke-width="1" stroke-linecap="butt"/><path d="M425.73049,298.41265c0,0 1.39991,1.92359 4.33067,-5.06941c0.69143,-1.64982 0.99399,-11.2884 2.82832,-23.33959c0.82791,-5.43922 0.844,-19.9319 1.84821,-24.77769c1.18153,-5.7015 3.29415,-1.33083 3.29415,-1.33083c0,0 0.70785,14.77118 2.5857,27.88326c1.79618,12.54186 4.75868,23.41756 5.06631,24.78143c0.62924,2.78975 4.99201,3.39269 4.99201,3.39269" data-paper-data="{&quot;index&quot;:null}" fill="#123f55" stroke="#487890" stroke-width="2.5" stroke-linecap="round"/><path d="M414.60154,298.77232c0,0 0.74964,1.03007 2.31904,-2.71462c0.37025,-0.88346 0.53227,-6.04483 1.51453,-12.49813c0.44334,-2.91265 0.45195,-10.67334 0.9897,-13.26822c0.6327,-3.05309 1.76398,-0.71264 1.76398,-0.71264c0,0 0.37905,7.90983 1.38461,14.93122c0.96184,6.71604 2.54823,12.53988 2.71296,13.27022c0.33695,1.49388 2.67317,1.81675 2.67317,1.81675" data-paper-data="{&quot;index&quot;:null}" fill="#123f55" stroke="#487890" stroke-width="2.5" stroke-linecap="round"/><path d="M48.35989,280.73556c0,0 2.33622,-0.24243 2.67317,-1.36414c0.16473,-0.54839 1.75112,-4.92132 2.71296,-9.96418c1.00557,-5.27214 1.38462,-11.21137 1.38462,-11.21137c0,0 1.13129,-1.75737 1.76399,0.5351c0.53774,1.94841 0.54636,7.77566 0.9897,9.96268c0.98226,4.84557 1.14428,8.72108 1.51454,9.38444c1.56939,2.81176 2.31903,2.03832 2.31903,2.03832" fill="#123f55" stroke="#487890" stroke-width="2.5" stroke-linecap="round"/><path d="M68.22884,152.17645l-15.54954,10.83858l-17.63082,0.69544l-11.87099,-4.97048c0,0 1.0339,-16.63188 3.94052,-21.75342c2.76661,-4.87483 13.09991,-8.27225 13.09991,-8.27225l21.91629,5.54226z" fill="#123f55" stroke="#487890" stroke-width="2.5" stroke-linecap="butt"/><path d="M57.10977,150.1295c0.79436,0.85024 -0.91978,2.70725 -0.91978,2.70725c0,0 2.19282,1.98659 1.38886,2.94312c-0.80396,0.95652 -2.85805,-0.61974 -2.85805,-0.61974c0,0 -0.22772,2.55901 -1.41561,2.15751c-1.18787,-0.40151 -0.9781,-2.67166 -0.9781,-2.67166c0,0 -2.30401,-0.04195 -2.54409,-1.27363c-0.24007,-1.23167 2.25309,-1.61161 2.25309,-1.61161c0,0 -0.8847,-2.83643 0.21334,-2.98885c1.09802,-0.15242 2.15668,2.15551 2.15668,2.15551c0,0 1.90929,-1.64813 2.70365,-0.7979z" data-paper-data="{&quot;index&quot;:null}" fill="#51f0b5" stroke="#bce3d4" stroke-width="1" stroke-linecap="butt"/><g data-paper-data="{&quot;index&quot;:null}" stroke-width="1" stroke-linecap="butt"><path d="M15.62403,308.12871c2.16144,-0.14508 10.95707,0.01663 11.04032,1.2568c0.08325,1.24017 1.20512,3.85037 -0.95632,3.99545c-2.16144,0.14508 -2.16228,1.39089 -2.24552,0.15072c-0.08325,-1.24017 -9.99992,-5.25789 -7.83848,-5.40297z" fill="#5380db" stroke="#4e78d9"/><path d="M18.74887,313.39694c-1.02756,0.06898 -1.91649,-0.70812 -1.98546,-1.73568c-0.06897,-1.02758 0.70813,-1.91648 1.73569,-1.98546c1.02756,-0.06898 1.91648,0.70812 1.98545,1.73568c0.06897,1.02756 -0.70812,1.91648 -1.73568,1.98546z" fill="#ffffff" stroke="#ffbaba"/><path d="M20.80677,317.17209c-3.75594,0.25211 -7.04902,-3.24262 -7.04902,-3.24262c0,0 0.61374,-1.01936 1.47968,-1.15636c0.69194,-0.10947 1.79214,0.53467 2.61895,0.27597c1.0287,-0.32187 1.83092,-1.06273 2.3421,-1.10279c0.5787,-0.04532 2.2488,0.86213 2.2488,0.86213c0,0 1.35669,-0.87708 2.54341,-0.45918c1.14397,0.40284 2.36852,0.66728 2.36852,0.66728c0,0 -2.79651,3.90348 -6.55243,4.15559z" data-paper-data="{&quot;index&quot;:null}" fill="#7f95d4" stroke="#364896"/><path d="M14.01133,307.10414c0,0 4.42324,-1.87998 7.99985,-1.31343c2.16054,0.34224 3.51789,1.49896 4.25405,2.36126c0.29241,0.34253 1.39615,1.80198 1.50929,2.89561c0.07353,0.71084 -0.48433,2.01756 -0.48433,2.01756c0,0 -1.61303,-3.87232 -2.86856,-3.73809c-1.30243,0.13923 -2.32202,-0.56816 -2.32202,-0.56816c0,0 -1.9436,0.40021 -2.49242,0.30876c-0.48479,-0.08078 -1.01066,-0.64123 -1.90265,-0.95812c-0.71693,-0.25471 -2.01337,0.03858 -2.65043,-0.1061z" fill="#7f95d4" stroke="#364896"/></g><g data-paper-data="{&quot;index&quot;:null}" stroke-width="1" stroke-linecap="butt"><path d="M39.95144,132.28168c-0.08324,1.24017 -0.08408,-0.00564 -2.24552,-0.15072c-2.16144,-0.14508 -1.03957,-2.75528 -0.95632,-3.99545c0.08324,-1.24017 8.87888,-1.40188 11.04032,-1.2568c2.16144,0.14508 -7.75523,4.1628 -7.83848,5.40297z" fill="#db5353" stroke="#d94e4e"/><path d="M42.92939,130.16148c0.06898,-1.02757 0.95789,-1.80466 1.98545,-1.73569c1.02757,0.06897 1.80466,0.95788 1.73569,1.98546c-0.06898,1.02757 -0.9579,1.80466 -1.98546,1.73569c-1.02757,-0.06897 -1.80466,-0.95789 -1.73568,-1.98546z" fill="#ffffff" stroke="#ffbaba"/><path d="M42.60719,135.92209c-3.75592,-0.25211 -6.55244,-4.15559 -6.55244,-4.15559c0,0 1.22455,-0.26444 2.36852,-0.66728c1.18671,-0.41789 2.54341,0.45918 2.54341,0.45918c0,0 1.6701,-0.90745 2.2488,-0.86213c0.51118,0.04006 1.31339,0.78092 2.3421,1.10279c0.82681,0.2587 1.92701,-0.38544 2.61895,-0.27597c0.86594,0.13701 1.47968,1.15636 1.47968,1.15636c0,0 -3.29308,3.49473 -7.04902,3.24263z" data-paper-data="{&quot;index&quot;:null}" fill="#d47f7f" stroke="#963636"/><path d="M48.35983,126.75344c-0.63706,0.14468 -1.93349,-0.14861 -2.65042,0.1061c-0.89198,0.31688 -1.41786,0.87733 -1.90265,0.95812c-0.54882,0.09144 -2.49242,-0.30877 -2.49242,-0.30877c0,0 -1.01959,0.7074 -2.32202,0.56816c-1.25552,-0.13423 -2.86856,3.73809 -2.86856,3.73809c0,0 -0.55786,-1.30672 -0.48433,-2.01756c0.11315,-1.09364 1.21688,-2.55309 1.50929,-2.89562c0.73615,-0.8623 2.09351,-2.01902 4.25405,-2.36126c3.57661,-0.56655 7.99985,1.31343 7.99985,1.31343z" fill="#d47f7f" stroke="#963636"/></g><g stroke-width="1" stroke-linecap="butt"><path d="M461.69902,321.71886c0,1.51691 -0.10285,0 -2.74659,0c-2.64375,0 -1.49101,-3.27002 -1.49101,-4.78693c0,-1.51691 10.69683,-2.43269 13.34058,-2.43269c2.64375,0 -9.10298,5.70271 -9.10298,7.21962z" fill="#54dcc0" stroke="#4ecfd9"/><path d="M465.15186,318.89379c0,-1.25686 1.01889,-2.27575 2.27575,-2.27575c1.25686,0 2.27574,1.01887 2.27574,2.27575c0,1.25686 -1.01888,2.27574 -2.27574,2.27574c-1.25686,0 -2.27575,-1.01888 -2.27575,-2.27574z" fill="#ffffff" stroke="#ffbaba"/><path d="M465.23034,325.93457c-4.59404,0 -8.31825,-4.52453 -8.31825,-4.52453c0,0 1.46947,-0.42209 2.8295,-1.00611c1.41085,-0.60584 3.13452,0.35125 3.13452,0.35125c0,0 1.95943,-1.24147 2.6678,-1.23357c0.62572,0.007 1.66309,0.84355 2.94201,1.15139c1.02792,0.24743 2.31495,-0.62683 3.16643,-0.55009c1.06561,0.09605 1.89625,1.28712 1.89625,1.28712c0,0 -3.72421,4.52453 -8.31826,4.52453z" data-paper-data="{&quot;index&quot;:null}" fill="#7fd4c3" stroke="#369097"/><path d="M471.48571,314.30015c-0.76389,0.22824 -2.36647,-0.02293 -3.21864,0.34581c-1.06023,0.45876 -1.65476,1.18417 -2.23846,1.32216c-0.6608,0.1562 -3.06014,-0.17227 -3.06014,-0.17227c0,0 -1.18369,0.9447 -2.78098,0.88161c-1.53976,-0.06083 -3.18739,4.78616 -3.18739,4.78616c0,0 -0.78608,-1.54554 -0.75464,-2.41711c0.04839,-1.34092 1.27307,-3.20824 1.60113,-3.64922c0.8259,-1.11014 2.38415,-2.62957 4.98697,-3.22289c4.30876,-0.98219 9.84841,0.94547 9.84841,0.94547z" fill="#7fd4c3" stroke="#369097"/></g><path d="M-204.82051,116.45393v-2h2v2z" fill="url(#color-1)" stroke="none" stroke-width="0" stroke-linecap="butt"/><path d="M-10.82653,373l-10.67347,-386h512.32653l10.67347,386z" fill="url(#color-2)" stroke="none" stroke-width="1" stroke-linecap="butt"/></g></g></svg>