<svg version="1.1" xmlns="http://www.w3.org/2000/svg" xmlns:xlink="http://www.w3.org/1999/xlink" width="65.4" height="65.4" viewBox="0,0,65.4,65.4"><defs><linearGradient x1="228.51382" y1="177.11409" x2="251.67153" y2="177.11409" gradientUnits="userSpaceOnUse" id="color-1"><stop offset="0" stop-color="#000000"/><stop offset="1" stop-color="#ee0000"/></linearGradient><linearGradient x1="228.2844" y1="176.34479" x2="251.88089" y2="176.34479" gradientUnits="userSpaceOnUse" id="color-2"><stop offset="0" stop-color="#7fff68"/><stop offset="1" stop-color="#ff1e1e"/></linearGradient><linearGradient x1="245.52168" y1="181.45722" x2="246.73498" y2="184.07847" gradientUnits="userSpaceOnUse" id="color-3"><stop offset="0" stop-color="#000000" stop-opacity="0"/><stop offset="1" stop-color="#000000" stop-opacity="0"/></linearGradient></defs><g transform="translate(-207.1,-147.7)"><g data-paper-data="{&quot;isPaintingLayer&quot;:true}" fill-rule="nonzero" stroke-linejoin="miter" stroke-miterlimit="10" stroke-dasharray="" stroke-dashoffset="0" style="mix-blend-mode: normal"><path d="M239.84627,195.14667c-1.38376,-0.01949 -1.52182,-0.48956 -2.48623,-1.48171c-2.89325,-2.97646 -6.85303,-7.05013 -11.23932,-11.56258c-0.90571,-0.93176 -1.3195,-1.07442 -1.26021,-2.37248c0.05929,-1.29806 0.48984,-1.52209 1.48218,-2.48668c4.44248,-4.31828 8.51863,-8.28047 11.38331,-11.06507c0.95489,-0.9282 1.10212,-1.39135 2.43176,-1.31784c1.32965,0.07351 1.58947,0.55916 2.59718,1.59586c4.25028,4.37253 7.89557,8.12265 10.89082,11.20405c0.99841,1.02713 1.46589,1.1848 1.49777,2.61687c0.03188,1.43207 -0.43135,1.46523 -1.38625,2.39343c-0.95489,0.9282 -8.40631,8.17129 -11.38331,11.06507c-0.99234,0.9646 -1.14394,1.43058 -2.5277,1.41109z" fill="#242315" stroke="#ffffff" stroke-width="1" stroke-linecap="butt"/><path d="M228.2527,181.67019c0,0 1.07162,-5.23657 4.12623,-8.02467c1.955,-1.78443 5.52739,-2.26225 8.10792,-2.26225c2.38971,0 4.90805,0.84928 7.23564,2.82824c2.32759,1.97896 3.94904,6.6812 3.94904,6.6812l-11.27374,4.61568z" fill="url(#color-1)" stroke="none" stroke-width="0" stroke-linecap="butt"/><path d="M239.84626,194.89024c-1.38376,-0.01949 -1.52182,-0.48956 -2.48623,-1.48171c-2.89325,-2.97646 -6.85303,-7.05013 -11.23932,-11.56258c-0.90571,-0.93176 -1.3195,-1.07442 -1.26021,-2.37248c0.05929,-1.29806 0.48984,-1.52209 1.48218,-2.48668c4.44248,-4.31828 8.51863,-8.28047 11.38331,-11.06507c0.95489,-0.9282 1.10212,-1.39135 2.43176,-1.31784c1.32965,0.07351 1.58947,0.55916 2.59718,1.59586c4.25028,4.37253 7.89557,8.12265 10.89082,11.20405c0.99841,1.02713 1.46589,1.1848 1.49777,2.61687c0.03188,1.43207 -0.43135,1.46523 -1.38625,2.39343c-0.95489,0.9282 -8.40631,8.17129 -11.38331,11.06507c-0.99234,0.9646 -1.14394,1.43058 -2.5277,1.41109z" fill="none" stroke="#ffffff" stroke-width="1" stroke-linecap="butt"/><path d="M207.1,213.1v-65.4h65.4v65.4z" fill="none" stroke="none" stroke-width="0" stroke-linecap="butt"/><path d="M228.2844,181.74663c0.02479,-0.27306 0.05914,-0.54717 0.10331,-0.82197c1.0397,-6.46845 7.12625,-10.86932 13.5947,-9.82962c5.35024,0.85996 9.28596,5.17269 9.89848,10.2984" fill="none" stroke="url(#color-2)" stroke-width="1.5" stroke-linecap="butt"/><path d="M232.00325,181.99147l-1.3678,-0.55676" fill="none" stroke="#ffffff" stroke-width="0.5" stroke-linecap="round"/><path d="M240.09563,172.5658v1.77378" fill="none" stroke="#ffffff" stroke-width="0.5" stroke-linecap="round"/><path d="M249.16163,181.33616l1.18252,-0.09854" fill="none" stroke="#ffffff" stroke-width="0.5" stroke-linecap="round"/><path d="M245.81115,176.51935l0.78835,-0.99725" fill="none" stroke="#ffffff" stroke-width="0.5" stroke-linecap="round"/><path d="M234.15939,176.6583l-1.06035,-0.93912" fill="none" stroke="#ffffff" stroke-width="0.5" stroke-linecap="round"/><path d="M240.93083,186.70019c0,0 -1.18341,0.87163 -1.91734,-0.6391c-0.82569,-1.69962 0.65856,-1.95648 0.65856,-1.95648c0,0 10.52397,-3.99597 13.26953,-5.05439c0.55237,-0.21294 0.75632,0.16755 0.75632,0.16755c0,0 0.03015,0.53274 -0.47935,0.83119c-1.77729,1.04109 -12.28773,6.65122 -12.28773,6.65122z" fill="#ff0a0a" stroke="url(#color-3)" stroke-width="0" stroke-linecap="butt"/><path d="M240.37463,185.33842l12.73244,-5.81096" fill="none" stroke="#ffffff" stroke-width="0.5" stroke-linecap="round"/><path d="M239.5507,185.54043c-0.15448,-0.45014 0.08521,-0.94029 0.53535,-1.09477c0.45014,-0.15448 0.94029,0.08521 1.09477,0.53535c0.15448,0.45014 -0.08521,0.94029 -0.53535,1.09477c-0.45014,0.15448 -0.94029,-0.08521 -1.09477,-0.53535z" fill="#ffffff" stroke="#ffffff" stroke-width="0.5" stroke-linecap="butt"/><text transform="translate(230.91459,192.42471) scale(0.2103,0.2103)" font-size="40" xml:space="preserve" fill="#ff0000" fill-rule="nonzero" stroke="#ff0000" stroke-width="2" stroke-linecap="butt" stroke-linejoin="miter" stroke-miterlimit="10" stroke-dasharray="" stroke-dashoffset="0" font-family="Malgun Gothic" font-weight="normal" text-anchor="start" style="mix-blend-mode: normal"><tspan x="0" dy="0">MAX</tspan></text></g></g></svg>