<svg version="1.1" xmlns="http://www.w3.org/2000/svg" xmlns:xlink="http://www.w3.org/1999/xlink" width="122" height="122" viewBox="0,0,122,122"><g transform="translate(-179,-119)"><g data-paper-data="{&quot;isPaintingLayer&quot;:true}" fill-rule="nonzero" stroke-linejoin="miter" stroke-miterlimit="10" stroke-dasharray="" stroke-dashoffset="0" style="mix-blend-mode: normal"><path d="M217.01389,200.65529c0,0 -4.961,-1.45397 -7.89313,-6.83207c-4.43928,-8.14247 -5.33002,-13.87525 -4.99594,-24.29594c0.28438,-8.87088 3.49924,-20.0551 9.87894,-18.34448c3.6072,0.96722 4.50259,9.67716 2.11028,19.07494c-2.3923,9.3978 0.89986,30.39755 0.89986,30.39755z" fill="#cecece" stroke="#000000" stroke-width="2" stroke-linecap="butt"/><path d="M229.91227,152.8576c0,0 -7.70989,-9.44798 -6.99134,-10.83311c0.47576,-0.91712 11.52693,2.27849 11.52693,2.27849" fill="#cecece" stroke="#000000" stroke-width="2" stroke-linecap="round"/><path d="M236.61408,141.67554c0,0 -5.74264,-9.45274 -5.2623,-10.49135c0.55714,-1.20467 11.52692,2.27849 11.52692,2.27849" fill="#cecece" stroke="#000000" stroke-width="2" stroke-linecap="round"/><path d="M266.98248,152.41501c-0.55184,2.5192 -0.71714,6.69764 -0.75952,11.72714c-0.03265,3.87514 -19.99233,3.79396 -19.99963,8.30988c-0.00296,1.83286 19.98623,8.14959 19.95953,10.0024c-0.2403,16.67068 -1.76814,33.1484 -10.4556,31.43117c-12.31457,-2.43419 -28.62507,-1.83312 -36.2753,-8.28994c-4.16592,-3.51604 -3.64753,-11.30614 -3.38938,-17.79762c1.03653,-26.06458 26.05975,-55.05333 26.05975,-55.05333c0,0 2.18906,0.63605 5.23919,1.87357c7.58486,3.07743 21.80823,7.81161 19.62096,17.79672z" fill="#cecece" stroke="#000000" stroke-width="2" stroke-linecap="butt"/><path d="M240.58787,157.17072l7.76417,-8.98236" fill="none" stroke="#ffb0b0" stroke-width="1" stroke-linecap="round"/><path d="M259.52943,200.73658c-1.59832,8.0859 -6.56338,10.44961 -14.34064,8.91231c-7.77726,-1.53731 -13.57747,-5.33576 -11.97915,-13.42168c1.59832,-8.08591 8.67192,-14.19192 16.44918,-12.65462c7.77725,1.53731 11.46894,9.07808 9.87063,17.16399z" fill="#e2e2e2" stroke="#000000" stroke-width="2" stroke-linecap="butt"/><path d="M270.13075,157.93895c0.07866,0.04167 0.15756,0.0833 0.23669,0.12489c7.07617,3.71929 16.70736,6.51496 9.6744,10.2503c-0.14547,0.07726 -0.29706,0.1535 -0.45495,0.22869c-2.05782,0.98006 -20.54154,1.10738 -22.29478,5.16222c-0.82653,1.91159 15.46652,9.60188 14.28086,9.63457c-0.09858,0.00271 -1.3743,2.51445 -1.48678,2.51353c-5.98956,-0.0489 -30.11457,-11.07733 -30.62856,-13.7466c-1.25226,-6.50329 2.94522,-15.91796 12.55973,-16.24894c9.61451,-0.33098 18.11338,2.08135 18.11338,2.08135z" fill="#e2e2e2" stroke="#000000" stroke-width="2" stroke-linecap="butt"/><path d="M282.6492,161.54277c-0.43302,2.19066 -3.20544,4.34068 -5.99228,3.78982c-2.78683,-0.55086 -4.53274,-3.59399 -4.09972,-5.78467c0.43302,-2.19066 3.07921,-1.80743 5.86604,-1.25657c2.78683,0.55086 4.65896,1.06073 4.22593,3.25142z" fill="#4d4d4d" stroke="#000000" stroke-width="2" stroke-linecap="butt"/><path d="M241.97993,152.40054c0.22398,-1.13312 1.37319,-1.8604 2.56685,-1.62445c1.19366,0.23594 1.97974,1.34577 1.75575,2.47889c-0.22398,1.13312 -1.37318,1.86041 -2.56685,1.62446c-1.19366,-0.23594 -1.97974,-1.34578 -1.75575,-2.47889z" fill="#000000" stroke="none" stroke-width="0.5" stroke-linecap="butt"/><path d="M251.39423,172.91346l4.76923,-2.30769l-0.10571,4.30093l3.52338,-2.203l1.05543,4.21623l2.9947,-2.68409l1.11332,5.38772l4.09744,-3.57614l0.11288,5.35387l3.82395,-2.94936l-0.46154,4.92308l-9.98217,-4.34229z" fill="#ffffff" stroke="#000000" stroke-width="0.5" stroke-linecap="butt"/><path d="M260.11272,153.07127c0.22398,-1.13312 1.3732,-1.8604 2.56685,-1.62446c1.19365,0.23594 1.97973,1.34578 1.75575,2.47889c-0.22398,1.13312 -1.37318,1.8604 -2.56685,1.62445c-1.19365,-0.23594 -1.97973,-1.34577 -1.75575,-2.47889z" fill="#000000" stroke="none" stroke-width="0.5" stroke-linecap="butt"/><path d="M266.9675,169.63228l14.40145,-1.22339l0.07698,5.09992l-3.47778,-3.83255l-4.5085,0.62749l-2.20686,4.79761l-2.02931,-4.97917l-3.06016,4.40277l-1.45539,-3.70284l-2.5494,3.36713l-2.08906,-3.49225l-3.14641,2.70681l-1.55527,-2.88607z" data-paper-data="{&quot;index&quot;:null}" fill="#ffffff" stroke="#000000" stroke-width="0.5" stroke-linecap="butt"/><path d="M270.07994,182.99098c0,0 -3.00682,-3.11523 -5.88664,-3.70445c-5.31463,-1.0874 -12.1613,-6.3858 -12.1613,-6.3858" fill="none" stroke="#000000" stroke-width="2" stroke-linecap="round"/><path d="M267.85764,170.26266l-0.45154,6.59179c0,0 -1.22119,0.38947 -1.83861,-0.65307c-0.75043,-1.26705 -2.31628,-5.95307 -2.31628,-5.95307" data-paper-data="{&quot;index&quot;:null}" fill="#ffffff" stroke="#000000" stroke-width="2" stroke-linecap="round"/><path d="M279.44707,168.6701c0,0 -1.08763,5.01306 -1.73649,6.33362c-0.53384,1.08653 -1.78194,0.79145 -1.78194,0.79145l-0.96693,-6.53755" fill="#ffffff" stroke="#000000" stroke-width="2" stroke-linecap="round"/><path d="M240.4491,155.92509l1.20395,1.69982" fill="none" stroke="#ffb0b0" stroke-width="1" stroke-linecap="round"/><path d="M241.56091,154.19576l1.20394,1.69981" fill="none" stroke="#ffb0b0" stroke-width="1" stroke-linecap="round"/><path d="M248.55505,149.97457l-1.20395,-1.69981" fill="none" stroke="#ffb0b0" stroke-width="1" stroke-linecap="round"/><path d="M251.27678,172.21603c0,0 8.36776,-3.20188 12.00359,-2.72619c5.74536,0.75172 15.4527,-0.68741 15.4527,-0.68741" fill="none" stroke="#000000" stroke-width="2" stroke-linecap="round"/><path d="M246.84231,151.11656l-2.92052,-4.4202" fill="none" stroke="#000000" stroke-width="1.5" stroke-linecap="round"/><path d="M264.42556,148.11087l-4.38262,2.97661" data-paper-data="{&quot;index&quot;:null}" fill="none" stroke="#000000" stroke-width="1.5" stroke-linecap="round"/><path d="M228.27988,209.1974c0,0 -2.45085,4.28198 -5.54282,3.98416c-1.6818,-0.162 -4.62595,-4.69955 -5.00422,-5.07859c-0.9021,-0.90393 4.52955,-4.93534 4.52955,-4.93534" fill="#cecece" stroke="#000000" stroke-width="2" stroke-linecap="round"/><path d="M262.44486,208.45906c0,0 3.64446,3.32564 2.67954,6.27827c-0.52484,1.606 -5.59521,3.48979 -6.04762,3.7763c-1.0789,0.68327 -3.82881,-5.49679 -3.82881,-5.49679" fill="#cecece" stroke="#000000" stroke-width="2" stroke-linecap="round"/><path d="M237.65849,185.26586c0,0 -3.70941,3.25304 -6.53675,1.96654c-1.53786,-0.69975 -2.84755,-5.9478 -3.08211,-6.4292c-0.55937,-1.14804 5.8876,-3.19541 5.8876,-3.19541" fill="#cecece" stroke="#000000" stroke-width="2" stroke-linecap="round"/><path d="M265.70845,185.33252c0,0 4.06261,2.7995 3.5079,5.85585c-0.30172,1.66242 -5.06902,4.21782 -5.4783,4.56315c-0.97604,0.82355 -4.54032,-4.92544 -4.54032,-4.92544" fill="#cecece" stroke="#000000" stroke-width="2" stroke-linecap="round"/><path d="M179,241v-122h122v122z" fill="none" stroke="none" stroke-width="none" stroke-linecap="butt"/></g></g></svg>