<svg version="1.1" xmlns="http://www.w3.org/2000/svg" xmlns:xlink="http://www.w3.org/1999/xlink" width="91.6048" height="91.6048" viewBox="0,0,91.6048,91.6048"><g transform="translate(-194.1976,-134.1976)"><g data-paper-data="{&quot;isPaintingLayer&quot;:true}" fill-rule="nonzero" stroke="none" stroke-linecap="butt" stroke-linejoin="miter" stroke-miterlimit="10" stroke-dasharray="" stroke-dashoffset="0" style="mix-blend-mode: normal"><path d="M285.8024,134.1976v91.6048h-91.6048v-91.6048z" data-paper-data="{&quot;index&quot;:null}" fill="none" stroke-width="NaN"/><path d="M220.60239,195.56751v2.96524h-7.4131v-2.96524z" data-paper-data="{&quot;index&quot;:null}" fill="#3b007c" stroke-width="NaN"/><path d="M267.55201,177.77607v0.74131h-37.5597v-0.74131z" data-paper-data="{&quot;index&quot;:null}" fill="#3b007c" stroke-width="0"/><path d="M249.26637,149.11209v4.20076h-11.36675v-4.20076z" data-paper-data="{&quot;index&quot;:null}" fill="#3b007c" stroke-width="0"/><path d="M272.24698,155.78388v9.63703h-11.86096v-9.63703z" data-paper-data="{&quot;index&quot;:null}" fill="#7d7d7d" stroke-width="0"/><path d="M273.72959,201.25088v1.48262h-22.7335v-1.48262z" data-paper-data="{&quot;index&quot;:null}" fill="#7d7d7d" stroke-width="0"/><path d="M273.23539,190.62544v3.95365h-18.77985v-3.95365z" data-paper-data="{&quot;index&quot;:null}" fill="#7d7d7d" stroke-width="0"/><path d="M214.67191,160.23174v2.96524h-3.95365v-2.96524z" data-paper-data="{&quot;index&quot;:null}" fill="#7d7d7d" stroke-width="0"/><path d="M247.28954,172.83401v0.98841h-7.6602v-0.98841z" data-paper-data="{&quot;index&quot;:null}" fill="#000000" stroke-width="0"/><path d="M250.74899,187.4131v5.18917h-19.52116v-5.18917z" data-paper-data="{&quot;index&quot;:null}" fill="#000000" stroke-width="0"/><path d="M235.9228,144.91134v4.94207h-29.15819v-4.94207z" data-paper-data="{&quot;index&quot;:null}" fill="#000000" stroke-width="0"/><path d="M284.84924,173.32821v5.68338h-9.38992v-5.68338z" data-paper-data="{&quot;index&quot;:null}" fill="#000000" stroke-width="0"/><path d="M268.54042,210.3937v3.70655h-22.7335v-3.70655z" data-paper-data="{&quot;index&quot;:null}" fill="#ffffff" stroke-width="0"/><path d="M222.08501,187.4131v2.96524h-18.03854v-2.96524z" data-paper-data="{&quot;index&quot;:null}" fill="#ffffff" stroke-width="0"/><path d="M217.88425,211.13501v3.95365h-3.21234v-3.95365z" data-paper-data="{&quot;index&quot;:null}" fill="#ffffff" stroke-width="0"/><path d="M220.35529,165.1738v2.96524h-6.17758v-2.96524z" data-paper-data="{&quot;index&quot;:null}" fill="#ffffff" stroke-width="0"/><path d="M277.43614,146.39396v2.96524h-22.23929v-2.96524z" data-paper-data="{&quot;index&quot;:null}" fill="#ffffff" stroke-width="0"/><path d="M283.36662,156.52519v4.69496h-5.93048v-4.69496z" data-paper-data="{&quot;index&quot;:null}" fill="#ffffff" stroke-width="0"/><path d="M212.9422,181.97683v0.98841h-17.79144v-0.98841z" data-paper-data="{&quot;index&quot;:null}" fill="#ffffff" stroke-width="0"/><path d="M255.19685,182.47104v2.47103h-5.18917v-2.47103z" data-paper-data="{&quot;index&quot;:null}" fill="#7b00ff" stroke-width="0"/><path d="M230.73363,198.28564v1.72972h-5.93048v-1.72972z" data-paper-data="{&quot;index&quot;:null}" fill="#7b00ff" stroke-width="0"/><path d="M228.7568,155.28967v1.97683h-15.81461v-1.97683z" data-paper-data="{&quot;index&quot;:null}" fill="#7b00ff" stroke-width="0"/><path d="M220.35528,174.56373v4.44786h-3.70655v-4.44786z" data-paper-data="{&quot;index&quot;:null}" fill="#7b00ff" stroke-width="0"/><path d="M244.0772,165.66801v4.44786h-4.94207v-4.44786z" data-paper-data="{&quot;index&quot;:null}" fill="#7b00ff" stroke-width="0"/></g></g></svg>