<svg version="1.1" xmlns="http://www.w3.org/2000/svg" xmlns:xlink="http://www.w3.org/1999/xlink" width="54.5" height="54.5" viewBox="0,0,54.5,54.5"><g transform="translate(-212.59668,-145.56612)"><g data-paper-data="{&quot;isPaintingLayer&quot;:true}" fill-rule="nonzero" stroke-linejoin="miter" stroke-miterlimit="10" stroke-dasharray="" stroke-dashoffset="0" style="mix-blend-mode: normal"><path d="M212.59668,200.06612v-54.5h54.5v54.5z" fill="none" stroke="none" stroke-width="0" stroke-linecap="butt"/><path d="M234.99645,185.39489v5.875h-2.16618" data-paper-data="{&quot;index&quot;:null}" fill="none" stroke="#ffffff" stroke-width="3" stroke-linecap="round"/><path d="M227.55604,161.30834c0,0 1.34424,-6.15045 2.09512,-6.2742c1.75207,-0.28875 4.31837,5.21722 4.31837,5.21722" fill="none" stroke="#ffffff" stroke-width="2.5" stroke-linecap="round"/><path d="M239.12932,159.2743c0,0 1.34424,-6.15045 2.09512,-6.2742c1.75207,-0.28875 4.31837,5.21722 4.31837,5.21722" fill="none" stroke="#ffffff" stroke-width="2.5" stroke-linecap="round"/><path d="M251.43529,188.32551l-2.07687,0.86423l-2.21442,-5.32154" fill="none" stroke="#ffffff" stroke-width="3" stroke-linecap="round"/><path d="M228.76781,182.0119c-0.675,-4.09568 -1.59882,-9.70114 -2.62214,-15.91037c-0.2113,-1.28212 -0.46949,-1.63555 0.32054,-2.66722c0.79003,-1.03166 1.2714,-0.96965 2.63688,-1.19469c6.11296,-1.00746 11.72183,-1.93184 15.6637,-2.58149c1.31396,-0.21655 1.69933,-0.51265 2.74879,0.3071c1.04947,0.81974 0.98537,1.36679 1.22047,2.7933c0.99159,6.0167 1.84204,11.17696 2.54083,15.41703c0.23293,1.41335 0.52661,1.80976 -0.26512,3.0035c-0.79173,1.19373 -1.19092,0.95639 -2.50487,1.17294c-1.31396,0.21655 -11.56727,1.90637 -15.6637,2.58149c-1.36548,0.22504 -1.75607,0.52096 -2.8808,-0.28534c-1.12473,-0.8063 -1.19458,-2.63625 -1.19458,-2.63625z" fill="#3c0000" stroke="#ff3333" stroke-width="2.5" stroke-linecap="butt"/><path d="M234.64431,169.0574l-4.93345,0.81307" fill="none" stroke="#ffffff" stroke-width="2.5" stroke-linecap="round"/><path d="M246.50418,166.97613l-4.93345,0.81307" fill="none" stroke="#ffffff" stroke-width="2.5" stroke-linecap="round"/><path d="M230.61247,174.78933c0,0 1.29953,-1.39905 2.05901,-1.52422c0.86995,-0.14337 2.87444,0.71115 2.87444,0.71115" fill="none" stroke="#ffffff" stroke-width="2.5" stroke-linecap="round"/><path d="M242.49136,172.82341c0,0 1.19771,-1.61925 2.02235,-1.75515c0.81981,-0.13511 2.9111,0.94209 2.9111,0.94209" fill="none" stroke="#ffffff" stroke-width="2.5" stroke-linecap="round"/></g></g></svg>