<svg version="1.1" xmlns="http://www.w3.org/2000/svg" xmlns:xlink="http://www.w3.org/1999/xlink" width="40.54748" height="40.54748" viewBox="0,0,40.54748,40.54748"><g transform="translate(-219.72626,-159.72626)"><g data-paper-data="{&quot;isPaintingLayer&quot;:true}" fill-rule="nonzero" stroke-linejoin="miter" stroke-miterlimit="10" stroke-dasharray="" stroke-dashoffset="0" style="mix-blend-mode: normal"><path d="M232.11335,179.29027c0,0 1.51889,0.8031 1.42205,1.37205c-0.11041,0.64864 -1.08898,0.5526 -1.6372,1.09237c-0.58202,0.57305 -0.73211,1.76268 -0.73211,1.76268c0,0 -1.28649,-0.84552 -1.94884,-1.03358c-0.62706,-0.17803 -1.92522,-0.0663 -1.92522,-0.0663c0,0 -0.4193,-0.91057 -1.21575,-1.47536c-0.54438,-0.38604 -1.47028,-0.43704 -1.74747,-0.61102c-0.21062,-0.1322 -0.25081,-0.60948 -0.63487,-0.90748c-0.54771,-0.425 -1.43458,-0.6766 -1.43458,-0.6766c0,0 -0.7539,-0.43005 -0.07098,-0.49583c0.9122,-0.08788 4.99276,-0.94354 5.2326,-1.07085c0.19855,-0.10539 0.15415,-0.87122 0.40757,-0.79258c0.09228,0.02864 0.3667,0.86365 0.50456,0.89928c1.31806,0.34065 3.78025,2.00323 3.78025,2.00323z" fill="#5e1212" stroke="#a31f1f" stroke-width="1.5" stroke-linecap="butt"/><path d="M252.56193,177.34859c0.25946,-0.05558 0.14649,0.70317 0.33478,0.82596c0.22745,0.14833 4.21472,1.3668 5.11535,1.5362c0.67426,0.12682 -0.11519,0.48746 -0.11519,0.48746c0,0 -0.90589,0.17099 -1.48952,0.5451c-0.40925,0.26233 -0.49212,0.73408 -0.71375,0.84684c-0.29168,0.14839 -1.21843,0.11609 -1.79526,0.4517c-0.84394,0.49102 -1.34327,1.36028 -1.34327,1.36028c0,0 -1.2829,-0.2278 -1.92341,-0.10678c-0.67657,0.12783 -2.03375,0.85448 -2.03375,0.85448c0,0 -0.04271,-1.19829 -0.57094,-1.82128c-0.49755,-0.5868 -1.48079,-0.57899 -1.53253,-1.23492c-0.04538,-0.57534 1.53946,-1.23887 1.53946,-1.23887c0,0 2.60149,-1.43487 3.9448,-1.65583z" data-paper-data="{&quot;index&quot;:null}" fill="#5e1212" stroke="#a31f1f" stroke-width="1.5" stroke-linecap="butt"/><path d="M240.12719,186.45444c-3.76586,0 -6.8187,-3.05283 -6.8187,-6.8187c0,-3.76586 3.05283,-6.8187 6.8187,-6.8187c3.76586,0 6.8187,3.05283 6.8187,6.8187c0,3.76586 -3.05283,6.8187 -6.8187,6.8187z" data-paper-data="{&quot;index&quot;:null}" fill="#8e1b1b" stroke="#f5f5f5" stroke-width="2" stroke-linecap="butt"/><path d="M245.64944,175.1231l0.72055,-3.22299c0,0 0.84697,0.96965 0.89934,1.4934c0.05813,0.58134 -0.56601,1.83993 -0.56601,1.83993" data-paper-data="{&quot;index&quot;:null}" fill="none" stroke="#ff3030" stroke-width="2" stroke-linecap="round"/><path d="M234.36999,174.31677c0,0 -0.96317,-1.035 -0.90594,-1.60726c0.05365,-0.53655 1.23927,-1.72607 1.23927,-1.72607l0.45337,3.61283" data-paper-data="{&quot;index&quot;:null}" fill="none" stroke="#ff3030" stroke-width="2" stroke-linecap="round"/><path d="M240.01607,186.46101c-3.76586,0 -6.8187,-3.05283 -6.8187,-6.8187c0,-3.76586 3.05283,-6.8187 6.8187,-6.8187c3.76586,0 6.8187,3.05283 6.8187,6.8187c0,3.76586 -3.05283,6.8187 -6.8187,6.8187z" data-paper-data="{&quot;index&quot;:null}" fill="none" stroke="#f5f5f5" stroke-width="2" stroke-linecap="butt"/><path d="M240.25071,183.12273c-1.73809,0 -3.14709,-1.409 -3.14709,-3.14709c0,-1.73809 1.409,-3.14709 3.14709,-3.14709c1.73809,0 3.14709,1.409 3.14709,3.14709c0,1.73809 -1.409,3.14709 -3.14709,3.14709z" data-paper-data="{&quot;index&quot;:null}" fill="#ff3030" stroke="none" stroke-width="0.5" stroke-linecap="butt"/><path d="" data-paper-data="{&quot;index&quot;:null}" fill="none" stroke="#cdcdcd" stroke-width="1.5" stroke-linecap="round"/><path d="" data-paper-data="{&quot;index&quot;:null}" fill="none" stroke="#cdcdcd" stroke-width="1.5" stroke-linecap="round"/><path d="" data-paper-data="{&quot;index&quot;:null}" fill="none" stroke="#cdcdcd" stroke-width="1.5" stroke-linecap="round"/><path d="" data-paper-data="{&quot;index&quot;:null}" fill="none" stroke="#cdcdcd" stroke-width="1.5" stroke-linecap="round"/><path d="" data-paper-data="{&quot;index&quot;:null}" fill="none" stroke="#cdcdcd" stroke-width="1.5" stroke-linecap="round"/><path d="" data-paper-data="{&quot;index&quot;:null}" fill="none" stroke="#cdcdcd" stroke-width="1.5" stroke-linecap="round"/><path d="" data-paper-data="{&quot;index&quot;:null}" fill="none" stroke="#cdcdcd" stroke-width="1.5" stroke-linecap="round"/><path d="" data-paper-data="{&quot;index&quot;:null}" fill="none" stroke="#cdcdcd" stroke-width="1.5" stroke-linecap="round"/><path d="" data-paper-data="{&quot;index&quot;:null}" fill="none" stroke="#cdcdcd" stroke-width="1.5" stroke-linecap="round"/><path d="" data-paper-data="{&quot;index&quot;:null}" fill="none" stroke="#cdcdcd" stroke-width="1.5" stroke-linecap="round"/><path d="" data-paper-data="{&quot;index&quot;:null}" fill="none" stroke="#cdcdcd" stroke-width="1.5" stroke-linecap="round"/><path d="" data-paper-data="{&quot;index&quot;:null}" fill="none" stroke="#cdcdcd" stroke-width="1.5" stroke-linecap="round"/><path d="M219.72626,200.27374v-40.54748h40.54748v40.54748z" data-paper-data="{&quot;index&quot;:null}" fill="none" stroke="none" stroke-width="0" stroke-linecap="butt"/></g></g></svg>