<svg version="1.1" xmlns="http://www.w3.org/2000/svg" xmlns:xlink="http://www.w3.org/1999/xlink" width="101.78488" height="101.78488" viewBox="0,0,101.78488,101.78488"><g transform="translate(-189.10756,-129.10756)"><g data-paper-data="{&quot;isPaintingLayer&quot;:true}" fill-rule="nonzero" stroke-linejoin="miter" stroke-miterlimit="10" stroke-dasharray="" stroke-dashoffset="0" style="mix-blend-mode: normal"><path d="M260.33478,142.68885c0.79296,0.52113 3.41141,6.36635 1.84804,11.99042c5.43528,5.38594 8.85632,12.72462 9.06654,20.84451c0.00684,0.26422 0.01028,0.52926 0.01028,0.79508c0,11.65473 0.38059,19.40051 0.38059,31.05524c0,4.25129 -3.45677,9.42434 -8.03463,9.65571c-6.03227,0.30488 -7.36916,-6.65232 -7.83276,-6.69109c-0.52491,0.03877 -1.22851,6.62671 -7.83275,6.69109c-5.84552,0.05698 -8.02997,-6.82695 -8.51157,-6.82819c-0.49056,-0.02181 -1.68239,6.90552 -7.07609,7.14916c-5.78358,0.26126 -7.65829,-7.40455 -8.08588,-7.22039c-0.25253,-0.09696 -1.77288,6.82917 -7.93819,6.89942c-4.70334,0.0536 -7.58178,-5.40442 -7.58178,-9.65571c0,-11.64316 -0.38681,-19.41208 -0.38681,-31.05524c0,-8.12141 3.21161,-15.50844 8.45926,-21.01015c-1.00917,-2.99041 -0.83346,-10.79434 -0.03782,-11.27155c1.23961,-0.7435 10.32004,4.16881 11.46893,3.63757c3.47931,-1.60881 7.47812,-2.14643 11.55957,-2.14643c4.42243,0 7.59877,0.72513 11.41668,2.33807c1.3103,-0.82548 8.23731,-5.74999 9.1084,-5.17752z" fill="#ffdc5f" stroke="#000000" stroke-width="2.5" stroke-linecap="butt"/><path d="M189.10756,230.89244v-101.78488h101.78488v101.78488z" fill="none" stroke="none" stroke-width="NaN" stroke-linecap="butt"/><path d="M267.21086,167.84869c0,6.72058 -5.53066,12.1687 -12.35307,12.1687c-6.82241,0 -12.35307,-5.44811 -12.35307,-12.1687c0,-6.72058 5.53066,-12.1687 12.35307,-12.1687c6.82241,0 12.35307,5.44811 12.35307,12.1687z" fill="#fff4c3" stroke="none" stroke-width="2.5" stroke-linecap="butt"/><path d="M245.71096,180.97363c0,2.80107 1.33663,14.06314 -1.37439,15.58859c-0.63979,0.36001 -3.42845,-1.05741 -4.40058,-1.05741c-1.68894,0 -3.40798,1.74514 -4.28302,0.94398c-1.76276,-1.61393 -1.62947,-10.43029 -1.62947,-12.74392c0,-3.46212 0.22688,-9.59739 5.31824,-9.59739c0,0 3.57369,1.24875 4.60658,2.16841c1.22419,1.08998 1.76263,4.69773 1.76263,4.69773z" fill="#ff2929" stroke="#000000" stroke-width="0.5" stroke-linecap="butt"/><path d="M236.59683,195.13043c0,-0.52679 0.61288,-2.37853 1.13968,-2.37853c0.5268,0 0.76802,1.85173 0.76802,2.37853c0,0.52679 -0.42704,0.95385 -0.95385,0.95385c-0.5268,0 -0.95386,-0.42704 -0.95386,-0.95385z" data-paper-data="{&quot;index&quot;:null}" fill="#ffffff" stroke="none" stroke-width="0" stroke-linecap="butt"/><path d="M241.58382,195.17499c-0.06639,-0.5226 0.30822,-2.4368 0.83083,-2.5032c0.5226,-0.06639 0.99527,1.74017 1.06167,2.26277c0.06639,0.5226 -0.30343,1.00007 -0.82603,1.06646c-0.52259,0.06639 -1.00006,-0.30343 -1.06645,-0.82603z" data-paper-data="{&quot;index&quot;:null}" fill="#ffffff" stroke="none" stroke-width="0" stroke-linecap="butt"/><path d="M245.40885,177.27312c0,0 -0.61105,4.34518 -0.55574,9.11146c0.0427,3.67926 0.93709,7.60945 -0.0142,9.98553c-0.85252,2.12937 -2.96816,-0.8416 -4.88691,-0.70622c-2.2156,0.15633 -4.12155,2.87101 -4.83016,0.76598c-0.80533,-2.39235 -0.3816,-6.35255 -0.49527,-10.02084c-0.1428,-4.60818 -0.70007,-8.75571 -0.70007,-8.75571" fill="none" stroke="#000000" stroke-width="2.5" stroke-linecap="round"/><path d="M233.84684,177.97321c0,-0.7822 0.63409,-1.41628 1.41629,-1.41628c0.7822,0 1.41628,0.63409 1.41628,1.41628c0,0.7822 -0.35817,3.53167 -1.14037,3.53167c-0.7822,0 -1.69221,-2.74948 -1.69221,-3.53167z" fill="#ffffff" stroke="none" stroke-width="0" stroke-linecap="butt"/><path d="M242.56158,177.82711c0,-0.7822 0.63409,-1.41629 1.41628,-1.41629c0.7822,0 1.41628,0.63409 1.41628,1.41629c0,0.7822 -0.35817,3.53167 -1.14037,3.53167c-0.7822,0 -1.69221,-2.74947 -1.69221,-3.53167z" fill="#ffffff" stroke="none" stroke-width="0" stroke-linecap="butt"/><path d="M222.07376,181.18636l-4.89665,2.30298" fill="none" stroke="#000000" stroke-width="2.5" stroke-linecap="round"/><path d="M221.56935,178.42383l-7.03361,-0.33273" fill="none" stroke="#000000" stroke-width="2.5" stroke-linecap="round"/><path d="M262.03837,182.65722l-4.89666,-2.30297" data-paper-data="{&quot;index&quot;:null}" fill="none" stroke="#000000" stroke-width="2.5" stroke-linecap="round"/><path d="M264.67974,177.25898l-7.03361,0.33273" data-paper-data="{&quot;index&quot;:null}" fill="none" stroke="#000000" stroke-width="2.5" stroke-linecap="round"/><path d="M229.21809,177.5511c1.01327,0.08025 3.51214,-0.1313 5.36425,-0.9951c2.63804,-1.23035 4.60694,-3.26958 4.60694,-3.26958c0,0 1.73367,1.83944 4.47171,3.02283c1.85924,0.80357 4.72051,1.10257 5.72922,1.10046" fill="none" stroke="#000000" stroke-width="2.5" stroke-linecap="round"/><path d="M229.21809,177.5511c1.01327,0.08025 3.51214,-0.1313 5.36425,-0.9951c2.63804,-1.23035 4.60694,-3.26958 4.60694,-3.26958c0,0 1.73367,1.83944 4.47171,3.02283c1.85924,0.80357 4.72051,1.10257 5.72922,1.10046" fill="none" stroke="#000000" stroke-width="2.5" stroke-linecap="round"/><path d="M241.93039,170.84728c0,0 -1.73651,2.32593 -2.61667,2.32593c-0.89631,0 -2.71358,-2.32593 -2.71358,-2.32593" fill="none" stroke="#000000" stroke-width="2.5" stroke-linecap="round"/><path d="M252.65999,167.17183c0,-2.9552 2.39566,-5.35084 5.35084,-5.35084c2.9552,0 5.35084,2.39565 5.35084,5.35084c0,2.9552 -2.39566,5.35084 -5.35084,5.35084c-2.9552,0 -5.35084,-2.39566 -5.35084,-5.35084z" fill="#ffffff" stroke="#000000" stroke-width="2.5" stroke-linecap="butt"/><path d="M215.4318,168.52731c0,-2.9552 2.39566,-5.35084 5.35084,-5.35084c2.9552,0 5.35084,2.39566 5.35084,5.35084c0,2.9552 -2.39566,5.35084 -5.35084,5.35084c-0.75255,0 -0.91276,2.94384 -2.53108,3.37539c-1.61832,0.43155 -3.04051,-0.20595 -3.64128,-1.72944c-0.60078,-1.52349 0.81332,-1.91692 1.66404,-3.2846c0.39443,-0.63411 -0.84252,-3.1933 -0.84252,-3.7122z" fill="#ffffff" stroke="#000000" stroke-width="2.5" stroke-linecap="butt"/></g></g></svg>