<svg version="1.1" xmlns="http://www.w3.org/2000/svg" xmlns:xlink="http://www.w3.org/1999/xlink" width="26.3507" height="26.3507" viewBox="0,0,26.3507,26.3507"><g transform="translate(-226.82465,-166.82465)"><g data-paper-data="{&quot;isPaintingLayer&quot;:true}" fill-rule="nonzero" stroke-linejoin="miter" stroke-miterlimit="10" stroke-dasharray="" stroke-dashoffset="0" style="mix-blend-mode: normal"><path d="M242.4531,173.17968v0.5c-1.86458,0 -3.3125,0.55208 -4.34375,1.65625c-1.02083,1.09375 -1.56771,2.63542 -1.64062,4.625c0.35417,-0.625 0.86458,-1.11979 1.53125,-1.48437c0.66667,-0.375 1.39583,-0.5625 2.1875,-0.5625c1.16667,0 2.09896,0.40104 2.79688,1.20313c0.69792,0.79167 1.04688,1.83854 1.04688,3.14063c0,0.84375 -0.16146,1.61458 -0.48437,2.3125c-0.3125,0.69792 -0.76042,1.25 -1.34375,1.65625c-0.57292,0.39583 -1.21354,0.59375 -1.92187,0.59375c-0.8125,0 -1.54687,-0.1875 -2.20312,-0.5625c-0.65625,-0.38542 -1.17187,-0.92708 -1.54687,-1.625c-0.36458,-0.69792 -0.55208,-1.48958 -0.5625,-2.375v-1.64062c0,-2.35417 0.55208,-4.18229 1.65625,-5.48437c1.11458,-1.30208 2.72396,-1.95312 4.82813,-1.95312zM240.12497,178.41406c-0.85417,0 -1.63542,0.24479 -2.34375,0.73438c-0.69792,0.47917 -1.14062,1.08854 -1.32812,1.82813v1.17188c0,1.25 0.35417,2.26042 1.0625,3.03125c0.71875,0.77083 1.64063,1.15625 2.76563,1.15625c0.9375,0 1.71354,-0.39062 2.32813,-1.17187c0.61458,-0.79167 0.92188,-1.76042 0.92188,-2.90625c0,-1.17708 -0.30208,-2.10937 -0.90625,-2.79687c-0.60417,-0.69792 -1.4375,-1.04687 -2.5,-1.04687z" fill="#ffffff" stroke="#ffffff" stroke-width="1" stroke-linecap="square"/><path d="M226.82465,193.17535v-26.3507h26.3507v26.3507z" fill="none" stroke="none" stroke-width="0" stroke-linecap="butt"/></g></g></svg>