<svg version="1.1" xmlns="http://www.w3.org/2000/svg" xmlns:xlink="http://www.w3.org/1999/xlink" width="86.4404" height="86.4404" viewBox="0,0,86.4404,86.4404"><defs><linearGradient x1="241.79865" y1="206.4249" x2="264.07697" y2="167.43859" gradientUnits="userSpaceOnUse" id="color-1"><stop offset="0" stop-color="#ff22c0"/><stop offset="1" stop-color="#ff6a1a"/></linearGradient></defs><g transform="translate(-196.77981,-136.7798)"><g data-paper-data="{&quot;isPaintingLayer&quot;:true}" fill-rule="nonzero" stroke-linejoin="miter" stroke-miterlimit="10" stroke-dasharray="" stroke-dashoffset="0" style="mix-blend-mode: normal"><path d="M220.82793,160.45081c0,0 9.53134,4.84453 11.91909,10.45838c3.49484,8.21677 0.26369,7.59198 1.97208,11.5636c1.70836,3.97163 4.52329,8.20369 5.49772,9.45932c0.37415,0.48211 -0.77609,4.58445 -0.94897,5.51324c-0.2865,1.53908 0.7505,3.95179 -0.58644,5.79182c-1.08849,1.49807 -2.15693,2.94897 -2.15693,2.94897" fill="none" stroke="#ffd0d0" stroke-width="2" stroke-linecap="round"/><path d="M245.66175,208.63244c-1.1713,-0.66933 0.85426,-4.37567 -1.54206,-6.08285c-2.39629,-1.70719 -4.17902,3.30906 -4.61204,1.69849c-0.21043,-0.78268 0.59635,-1.88092 0.62207,-2.96751c0.04509,-1.90561 -0.67943,-2.76992 -0.74371,-4.68718c-0.05603,-1.67139 0.97994,-2.89034 0.66627,-3.80912c0.56347,-0.00855 0.71027,-1.58367 1.24873,-1.59011c10.74685,-0.12837 16.63403,-0.10274 22.61884,-10.57596c1.64159,-2.87275 4.65947,-8.43523 3.16909,-12.35643c4.28064,2.64916 3.35552,13.19379 -1.63738,21.01513c-6.94857,10.88489 -19.78979,19.35558 -19.78979,19.35558z" fill="url(#color-1)" stroke="#ffffff" stroke-width="0.5" stroke-linecap="butt"/><path d="M262.55382,143.1384c20.35811,12.45612 26.76391,39.0573 14.30778,59.41541c-12.45612,20.35811 -39.0573,26.76391 -59.41541,14.30778c-20.35811,-12.45612 -26.76391,-39.0573 -14.30778,-59.41541c12.45612,-20.35811 39.0573,-26.76391 59.41541,-14.30778z" fill="none" stroke="none" stroke-width="0" stroke-linecap="butt"/></g></g></svg>