<svg version="1.1" xmlns="http://www.w3.org/2000/svg" xmlns:xlink="http://www.w3.org/1999/xlink" width="77.1" height="77.1" viewBox="0,0,77.1,77.1"><g transform="translate(-201.45,-141.45)"><g data-paper-data="{&quot;isPaintingLayer&quot;:true}" fill="none" fill-rule="nonzero" stroke-linejoin="miter" stroke-miterlimit="10" stroke-dasharray="" stroke-dashoffset="0" style="mix-blend-mode: normal"><path d="M224.44297,195.55707v-31.11411h31.11411v31.11411z" stroke="none" stroke-width="2" stroke-linecap="butt"/><path d="M245.71076,177.76193c-2.02986,2.48765 -5.68231,6.65472 -8.06421,7.74814c-1.13649,0.52171 -1.91853,-0.97564 -2.21902,-1.22083c-0.93028,-0.75908 2.82408,-6.212 5.82245,-9.8866c2.99837,-3.6746 4.9372,-3.59413 5.86748,-2.83505c0.93028,0.75908 1.59167,2.51973 -1.40671,6.19433z" stroke="#34c500" stroke-width="2" stroke-linecap="butt"/><path d="M230.80201,187.43621l2.81847,-4.715l5.55858,4.53565l-3.99757,3.7529z" stroke="#873200" stroke-width="2" stroke-linecap="butt"/><path d="M231.99806,181.95855l1.37444,-1.68442l8.14135,6.64312l-1.37444,1.68442z" stroke="#873200" stroke-width="2" stroke-linecap="butt"/><path d="M240.8861,171.06598l1.73608,1.88425" stroke="#34c500" stroke-width="1" stroke-linecap="round"/><path d="M245.10513,168.99029l0.01755,1.69787" stroke="#34c500" stroke-width="1" stroke-linecap="round"/><path d="M249.19803,171.7688l-1.15121,0.83773" stroke="#34c500" stroke-width="1" stroke-linecap="round"/><path d="M247.46429,175.4983l1.40817,0.68137" stroke="#34c500" stroke-width="1" stroke-linecap="round"/><path d="M245.404,179.05488l0.66344,0.44781" stroke="#34c500" stroke-width="1" stroke-linecap="round"/><path d="M243.2049,181.74994l0.61762,0.50396" stroke="#34c500" stroke-width="1" stroke-linecap="round"/><path d="M241.3768,183.53184l0.37821,0.68273" stroke="#34c500" stroke-width="1" stroke-linecap="round"/><path d="M236.42687,180.42815l-1.69923,-1.01241" stroke="#34c500" stroke-width="1" stroke-linecap="round"/><path d="M237.47925,178.1068l-0.43885,-0.26455" stroke="#34c500" stroke-width="1" stroke-linecap="round"/><path d="M238.5051,175.01559l0.93384,0.57492" stroke="#34c500" stroke-width="1" stroke-linecap="round"/><path d="M201.45,218.55v-77.1h77.1v77.1z" stroke="none" stroke-width="NaN" stroke-linecap="butt"/></g></g></svg>