<svg version="1.1" xmlns="http://www.w3.org/2000/svg" xmlns:xlink="http://www.w3.org/1999/xlink" width="81.27777" height="81.27777" viewBox="0,0,81.27777,81.27777"><defs><radialGradient cx="236.16768" cy="172.13" r="4.11381" gradientUnits="userSpaceOnUse" id="color-1"><stop offset="0" stop-color="#ff0000"/><stop offset="1" stop-color="#ff0000" stop-opacity="0"/></radialGradient><radialGradient cx="244.07643" cy="171.97519" r="4.11381" gradientUnits="userSpaceOnUse" id="color-2"><stop offset="0" stop-color="#ff0000"/><stop offset="1" stop-color="#ff0000" stop-opacity="0"/></radialGradient><linearGradient x1="227.09561" y1="179.97938" x2="221.82315" y2="188.10852" gradientUnits="userSpaceOnUse" id="color-3"><stop offset="0" stop-color="#1b6ba1"/><stop offset="1" stop-color="#a0d3f5"/></linearGradient><linearGradient x1="274.24505" y1="156.92337" x2="250.77491" y2="161.74557" gradientUnits="userSpaceOnUse" id="color-4"><stop offset="0" stop-color="#6aa7f6"/><stop offset="1" stop-color="#6af69d"/></linearGradient><linearGradient x1="252.91021" y1="179.80877" x2="256.98679" y2="188.59872" gradientUnits="userSpaceOnUse" id="color-5"><stop offset="0" stop-color="#1b6ba1"/><stop offset="1" stop-color="#a0d3f5"/></linearGradient></defs><g transform="translate(-199.36114,-139.36112)"><g data-paper-data="{&quot;isPaintingLayer&quot;:true}" fill-rule="nonzero" stroke-linejoin="miter" stroke-miterlimit="10" stroke-dasharray="" stroke-dashoffset="0" style="mix-blend-mode: normal"><path d="M252.35691,198.59272c-0.79145,0.22759 -4.20123,-1.75327 -5.09323,-1.69689c-2.8959,0.18304 -2.84594,0.71751 -5.83232,0.97202c-0.6549,0.05581 -1.17457,0.03858 -1.60661,-0.02396c-1.62523,-0.23519 -2.01084,-1.11112 -3.69272,-1.14935c-1.56379,-0.03555 -2.93455,2.12919 -4.69057,1.85688c-5.94597,-0.92208 8.15035,-12.68687 8.15035,-12.68687z" fill="#0a283c" stroke="none" stroke-width="0" stroke-linecap="butt"/><path d="M248.90442,171.60854c0.69201,3.27364 0.48942,5.72639 2.82466,10.58955c0.4128,0.85969 2.33244,14.45043 3.50123,15.93151c1.80336,2.28522 -9.6689,2.45277 -10.1171,2.72292c-1.05689,0.63706 -1.69523,-4.65756 -2.85956,-7.94318c-1.98844,-5.61113 -2.12433,-12.27235 -2.12433,-12.27235c0,0 0.28072,9.36793 -0.85378,11.82396c-1.43754,3.11209 -2.94208,7.46865 -4.19043,8.37288c-1.76384,1.2776 -10.62959,0.29931 -9.77177,-1.70257c0.5477,-1.27815 2.37103,-14.9222 2.92165,-16.48699c1.38428,-3.93402 1.98509,-8.07079 2.60021,-11.95841c0.79296,-5.01153 3.89919,-7.41859 8.80394,-7.41859c4.90474,0 8.2159,3.3771 9.26527,8.34127z" fill="#1b6ba1" stroke="none" stroke-width="0" stroke-linecap="butt"/><path d="M247.46952,171.98021c0,3.9118 -3.42692,5.77581 -7.55938,5.77581c-4.13246,0 -7.40561,-1.86399 -7.40561,-5.77581c0,-3.9118 3.35002,-7.08295 7.4825,-7.08295c4.13246,0 7.48251,3.17113 7.48251,7.08295z" fill="#0a283c" stroke="none" stroke-width="NaN" stroke-linecap="butt"/><g stroke="none" stroke-linecap="butt"><path d="M232.05389,172.13c0,-2.272 1.8418,-4.11379 4.1138,-4.11379c2.272,0 4.11381,1.8418 4.11381,4.11379c0,2.272 -1.84181,4.11381 -4.11381,4.11381c-2.272,0 -4.1138,-1.84181 -4.1138,-4.11381z" fill="url(#color-1)" stroke-width="0"/><path d="M234.67717,172.18962c0,-0.79027 0.64063,-1.43088 1.43089,-1.43088c0.79027,0 1.43088,0.64063 1.43088,1.43088c0,0.79027 -0.64062,1.43089 -1.43088,1.43089c-0.79027,0 -1.43089,-0.64062 -1.43089,-1.43089z" fill="#ffffff" stroke-width="0.5"/></g><g stroke="none" stroke-linecap="butt"><path d="M239.96262,171.97519c0,-2.272 1.8418,-4.11381 4.11379,-4.11381c2.272,0 4.11381,1.84181 4.11381,4.11381c0,2.272 -1.84181,4.11379 -4.11381,4.11379c-2.272,0 -4.11379,-1.8418 -4.11379,-4.11379z" fill="url(#color-2)" stroke-width="0"/><path d="M242.58593,172.0348c0,-0.79026 0.64064,-1.43089 1.4309,-1.43089c0.79026,0 1.43088,0.64064 1.43088,1.43089c0,0.79026 -0.64062,1.43088 -1.43088,1.43088c-0.79026,0 -1.4309,-0.64062 -1.4309,-1.43088z" fill="#ffffff" stroke-width="0.5"/></g><path d="M240.15873,180.91888c-0.9317,-0.10227 -1.74294,0.32454 -1.53564,-1.56406c0.2073,-1.8886 0.87973,-1.57802 1.81143,-1.47575c0.9317,0.10227 1.76988,-0.0425 1.56258,1.8461c-0.20731,1.88861 -0.90667,1.29598 -1.83837,1.19371z" fill="#a0d3f5" stroke="none" stroke-width="0" stroke-linecap="butt"/><path d="M238.15757,188.95925l1.94347,-9.49381l2.05394,9.49381c0,0 -1.68498,2.74821 -2.38748,2.74821c-0.61953,0 -1.60992,-2.74821 -1.60992,-2.74821z" fill="#a0d3f5" stroke="none" stroke-width="0" stroke-linecap="butt"/><path d="M233.23422,163.42393c0,0 -0.20331,-3.19275 0.99452,-3.72744c1.19782,-0.53469 3.47045,2.17154 3.47045,2.17154" fill="none" stroke="#ffffff" stroke-width="1.5" stroke-linecap="round"/><path d="M243.98588,162.91041c0,0 2.47884,-1.97115 3.47802,-1.2865c0.99918,0.68465 0.10172,4.10245 0.10172,4.10245" data-paper-data="{&quot;index&quot;:null}" fill="none" stroke="#ffffff" stroke-width="1.5" stroke-linecap="round"/><path d="M199.36114,220.63889v-81.27777h81.27777v81.27777z" fill="none" stroke="none" stroke-width="NaN" stroke-linecap="butt"/><g stroke-linecap="butt"><path d="M231.84526,185.12193c-0.58238,0.89793 -10.99109,3.91795 -11.88358,3.01487c-0.8925,-0.90308 -1.44774,-4.69015 -0.86535,-5.58806c0.14963,-0.2307 0.60321,-0.43263 1.29395,-0.57599c1.00375,-0.20832 2.50831,-0.29296 4.30875,-0.16253c1.81127,0.13122 6.33989,-1.63222 7.7489,-0.48654c0.87729,0.71332 -0.07917,2.99112 -0.60266,3.79822z" fill="url(#color-3)" stroke="none" stroke-width="0"/><path d="M221.28685,184.60857c-0.06948,1.67594 0.32653,3.80487 -0.75541,3.76001c-1.08195,-0.04485 -1.05563,-0.53451 -2.20728,-3.02699c-0.70356,-1.52271 0.37266,-3.32279 1.45461,-3.27793c1.08195,0.04485 1.57755,0.86896 1.50808,2.54492z" fill="#0a283c" stroke="none" stroke-width="0"/><path d="M214.55605,186.78504c-0.11771,-1.24719 0.41227,-1.00432 1.97654,-1.15196c0.1165,-0.01099 1.77873,-1.62963 1.89257,-1.62938c1.41471,0.0031 1.68664,1.09238 1.7956,2.24668c0.11771,1.24719 -1.05497,2.37793 -2.61923,2.52556c-1.56426,0.14763 -2.92777,-0.74371 -3.04548,-1.99089z" data-paper-data="{&quot;index&quot;:null}" fill="none" stroke="#ffffff" stroke-width="1.5"/></g><g><path d="M259.98241,205.73431c0,0 -1.07771,-10.98313 0.93284,-17.06052c2.94276,-8.89524 3.83547,-5.94105 5.25067,-10.2553c1.4152,-4.31425 2.72882,-13.23813 3.01272,-14.9357c0.10901,-0.6518 1.73462,-1.45701 2.28107,-2.02624c0.90552,-0.94327 1.12441,-2.11221 2.5814,-2.47607c1.18623,-0.29625 3.73513,0.12722 3.73513,0.12722" fill="none" stroke="#91aed5" stroke-width="2" stroke-linecap="round"/><path d="M273.76723,154.59773c0.14488,0.70513 -2.05379,1.20058 -1.89271,2.7623c0.16107,1.56171 2.7988,0.50716 2.30638,1.24845c-1.02483,1.54277 -4.54838,3.27905 -5.26946,4.5384c-4.23552,-4.6671 -7.23703,-7.22708 -13.85792,-5.86675c-1.72943,0.35533 -3.96573,0.98935 -5.01085,2.96881c-0.44816,-2.64858 3.04584,-5.87737 7.93893,-6.63513c6.80967,-1.05456 15.78563,0.98391 15.78563,0.98391z" fill="url(#color-4)" stroke="#ffffff" stroke-width="0" stroke-linecap="butt"/></g><g data-paper-data="{&quot;index&quot;:null}" stroke-linecap="butt"><path d="M247.48441,184.23207c-0.40476,-0.87271 -1.03131,-3.2624 -0.0624,-3.84523c1.55615,-0.93609 5.7917,1.44682 7.60342,1.57168c1.80089,0.12412 3.27858,0.41955 4.24305,0.76699c0.66371,0.2391 1.08438,0.50282 1.20007,0.75227c0.4503,0.9709 -0.63212,4.64222 -1.64278,5.41078c-1.01065,0.76857 -10.89106,-3.68555 -11.34135,-4.65647z" fill="url(#color-5)" stroke="none" stroke-width="0"/><path d="M259.86114,182.90153c1.0775,0.10778 1.88981,2.04135 0.97906,3.44995c-1.49079,2.30571 -1.53361,2.7942 -2.61111,2.68641c-1.0775,-0.10777 -0.38596,-2.15984 -0.21901,-3.82889c0.16697,-1.66906 0.77356,-2.41527 1.85107,-2.30748z" fill="#0a283c" stroke="none" stroke-width="0"/><path d="M264.36781,188.31064c-0.29197,1.21822 -1.7673,1.90891 -3.29524,1.54271c-1.52794,-0.3662 -2.52991,-1.65065 -2.23794,-2.86888c0.27024,-1.1275 0.69269,-2.1677 2.09377,-1.97177c0.11274,0.01576 1.53076,1.85212 1.64456,1.87939c1.52794,0.36621 2.08682,0.2003 1.79485,1.41853z" data-paper-data="{&quot;index&quot;:null}" fill="none" stroke="#ffffff" stroke-width="1.5"/></g></g></g></svg>