<svg version="1.1" xmlns="http://www.w3.org/2000/svg" xmlns:xlink="http://www.w3.org/1999/xlink" width="512.84002" height="310.40859" viewBox="0,0,512.84002,310.40859"><defs><linearGradient x1="229.98699" y1="93.14136" x2="160.52387" y2="159.21457" gradientUnits="userSpaceOnUse" id="color-1"><stop offset="0" stop-color="#2424ab" stop-opacity="0"/><stop offset="1" stop-color="#2424ab"/></linearGradient><linearGradient x1="-83.5" y1="109.62376" x2="-83.5" y2="109.62626" gradientUnits="userSpaceOnUse" id="color-2"><stop offset="0" stop-color="#2424ab" stop-opacity="0"/><stop offset="1" stop-color="#2424ab"/></linearGradient></defs><g transform="translate(167,-24.79571)"><g data-paper-data="{&quot;isPaintingLayer&quot;:true}" fill-rule="nonzero" stroke="none" stroke-width="0" stroke-linecap="butt" stroke-linejoin="miter" stroke-miterlimit="10" stroke-dasharray="" stroke-dashoffset="0" style="mix-blend-mode: normal"><path d="M163.10708,25.41616c-0.13436,0.47846 0.86144,-0.62046 0.86144,-0.62046l130.77039,136.83297c0,0 1.52099,0.89437 0.45936,0.20917c-37.71512,36.46859 -97.85288,35.4581 -134.32149,-2.25702c-36.46859,-37.71512 -35.48481,-97.69606 2.2303,-134.16467z" fill="url(#color-1)"/><path d="M-167,219.25001z" fill="url(#color-2)"/><path d="M234.30395,263.95429c0,0 -6.70706,6.93188 -8.39718,16.19699c-2.39295,13.11798 -4.60007,55.05301 -4.60007,55.05301c0,0 -2.39829,-42.983 -4.7962,-56.12818c-1.63638,-8.97053 -8.20105,-15.12182 -8.20105,-15.12182c0,0 7.95907,-7.70511 9.7589,-17.57166c2.37241,-13.0054 3.23835,-53.67834 3.23835,-53.67834c0,0 1.17423,40.33296 3.54631,53.33652c1.80114,9.87371 9.45094,17.91348 9.45094,17.91348z" fill="#2525ab"/><path d="M272.76391,241.25105c0,0 -2.45188,8.42613 0.12381,16.59848c3.64679,11.57079 19.68361,46.24802 19.68361,46.24802c0,0 -20.18735,-33.56417 -27.70029,-43.12185c-5.12697,-6.52235 -13.02157,-8.68304 -13.02157,-8.68304c0,0 3.13076,-9.58006 0.38788,-18.28291c-3.61549,-11.47149 -20.19529,-44.5636 -20.19529,-44.5636c0,0 18.07686,31.95196 25.50885,41.40667c5.64317,7.17904 15.21301,10.39823 15.21301,10.39823z" fill="#2525ab"/><path d="M291.51592,211.18547c0,0 0.62901,6.77127 4.80996,11.92973c5.91956,7.30359 27.34204,27.73956 27.34204,27.73956c0,0 -24.0978,-18.45319 -32.23173,-23.20609c-5.55075,-3.24347 -11.85605,-2.55572 -11.85605,-2.55572c0,0 -0.46783,-7.79615 -4.92016,-13.28947c-5.86876,-7.24091 -27.23183,-26.37982 -27.23183,-26.37982c0,0 22.11794,17.89127 30.16423,22.59296c6.10962,3.57003 13.92354,3.16886 13.92354,3.16886z" fill="#2525ab"/><path d="M303.12125,180.11798c0,0 3.38229,5.18078 8.9373,7.55521c7.86503,3.36182 33.78147,10.70446 33.78147,10.70446c0,0 -27.22671,-4.61096 -35.7899,-4.97998c-5.84369,-0.25183 -10.62463,2.9798 -10.62463,2.9798c0,0 -3.68795,-6.07384 -9.60354,-8.6024c-7.79754,-3.33297 -33.11523,-9.65727 -33.11523,-9.65727c0,0 25.39508,4.99983 33.86602,5.36488c6.43205,0.27719 12.54852,-3.36469 12.54852,-3.36469z" fill="#2525ab"/><path d="M305.11896,158.03423c0,0 3.83055,3.19027 8.67074,3.70511c6.85296,0.72894 28.55099,0.25409 28.55099,0.25409c0,0 -22.06107,2.88875 -28.74386,4.63005c-4.56046,1.1883 -7.4784,4.80822 -7.4784,4.80822c0,0 -4.2772,-3.80581 -9.43159,-4.35408c-6.79415,-0.72268 -27.79014,0.39487 -27.79014,0.39487c0,0 20.7423,-2.15598 27.35309,-3.87852c5.01962,-1.30794 8.86916,-5.55975 8.86916,-5.55975z" fill="#2525ab"/><path d="M299.86974,133.00806c0,0 4.43707,0.9397 8.55003,-0.70202c5.82332,-2.32443 23.07924,-11.92308 23.07924,-11.92308c0,0 -16.52267,11.69502 -21.15979,15.93465c-3.16447,2.8932 -3.97453,7.04513 -3.97453,7.04513c0,0 -5.0579,-1.24523 -9.43785,0.50306c-5.77335,2.30448 -22.19142,12.12203 -22.19142,12.12203c0,0 15.77287,-10.54529 20.36004,-14.73924c3.48307,-3.1845 4.77428,-8.24054 4.77428,-8.24054z" fill="#2525ab"/></g></g></svg>