<svg version="1.1" xmlns="http://www.w3.org/2000/svg" xmlns:xlink="http://www.w3.org/1999/xlink" width="77.1" height="77.1" viewBox="0,0,77.1,77.1"><g transform="translate(-201.45,-141.45)"><g data-paper-data="{&quot;isPaintingLayer&quot;:true}" fill-rule="nonzero" stroke-linejoin="miter" stroke-miterlimit="10" stroke-dasharray="" stroke-dashoffset="0" style="mix-blend-mode: normal"><path d="M233.55683,179.56575c0,0 -3.00616,2.46273 -3.00616,3.72408c0,1.21029 3.00616,3.6972 3.00616,3.6972l-4.04342,1.11857" fill="none" stroke="#728e9e" stroke-width="2" stroke-linecap="round"/><path d="M249.15831,188.31533l-4.60574,-1.11857c0,0 3.07607,-2.06708 3.07607,-3.13791c0,-1.2358 -3.07607,-3.85315 -3.07607,-3.85315" fill="none" stroke="#728e9e" stroke-width="2" stroke-linecap="round"/><path d="M230.62058,182.15244c0,0 -3.00616,2.46273 -3.00616,3.72408c0,1.21029 3.00616,3.6972 3.00616,3.6972l-4.04342,1.11857" fill="none" stroke="#84a4b7" stroke-width="2" stroke-linecap="round"/><path d="M253.42284,190.7622l-4.60574,-1.11857c0,0 3.07607,-2.06708 3.07607,-3.13791c0,-1.2358 -3.07607,-3.85315 -3.07607,-3.85315" fill="none" stroke="#84a4b7" stroke-width="2" stroke-linecap="round"/><path d="M233.69666,185.66545c0,0 -3.00616,2.46273 -3.00616,3.72408c0,1.21029 3.00616,3.6972 3.00616,3.6972l-4.04344,1.11857" fill="none" stroke="#98bdd3" stroke-width="2" stroke-linecap="round"/><path d="M249.43794,194.11791l-4.60574,-1.11857c0,0 3.07607,-2.06708 3.07607,-3.13791c0,-1.2358 -3.07607,-3.85315 -3.07607,-3.85315" fill="none" stroke="#98bdd3" stroke-width="2" stroke-linecap="round"/><path d="M250.83212,175.75696c0,2.88516 1.31043,6.44513 -0.92467,8.26444c-2.02724,1.65013 -7.36429,2.39693 -10.34842,2.39693c-3.38173,0 -8.25351,-0.50926 -10.33462,-2.56547c-1.78002,-1.75873 -1.11324,-5.55942 -1.11324,-8.0959c0,-3.1531 1.1461,-6.31362 3.75328,-8.13904c1.94222,-1.35986 4.92862,-1.82323 7.6072,-1.82323c2.96983,0 6.19784,0.30021 8.22192,1.93631c2.2521,1.8204 3.13855,5.12825 3.13855,8.02595z" fill="#1c304b" stroke="#a1c8e0" stroke-width="1.5" stroke-linecap="butt"/><path d="M230.87317,175.73962c0,-0.96527 0.7825,-1.74777 1.74777,-1.74777c0.96527,0 1.74777,0.7825 1.74777,1.74777c0,0.96527 -0.7825,1.74777 -1.74777,1.74777c-0.96527,0 -1.74777,-0.7825 -1.74777,-1.74777z" fill="none" stroke="#a1c8e0" stroke-width="1" stroke-linecap="butt"/><path d="M244.68052,175.65224c0,-0.96527 0.7825,-1.74777 1.74777,-1.74777c0.96527,0 1.74777,0.7825 1.74777,1.74777c0,0.96527 -0.7825,1.74777 -1.74777,1.74777c-0.96527,0 -1.74777,-0.7825 -1.74777,-1.74777z" fill="none" stroke="#a1c8e0" stroke-width="1" stroke-linecap="butt"/><path d="M242.49581,176.26395l-1.4856,0.78649l-1.57299,-0.78649l-1.39821,0.74023l-1.39821,-0.74023" fill="none" stroke="#a1c8e0" stroke-width="1.5" stroke-linecap="round"/><path d="M234.01915,169.79722l0.7428,0.7428" fill="none" stroke="#a1c8e0" stroke-width="1.5" stroke-linecap="round"/><path d="M245.24854,169.62244l-0.7428,0.7428" data-paper-data="{&quot;index&quot;:null}" fill="none" stroke="#a1c8e0" stroke-width="1.5" stroke-linecap="round"/><path d="M218.56641,201.43359v-42.86718h42.86718v42.86718z" fill="none" stroke="none" stroke-width="0" stroke-linecap="butt"/><path d="M201.45,218.55v-77.1h77.1v77.1z" fill="none" stroke="none" stroke-width="NaN" stroke-linecap="butt"/></g></g></svg>