<svg version="1.1" xmlns="http://www.w3.org/2000/svg" xmlns:xlink="http://www.w3.org/1999/xlink" width="339.46414" height="83.90393" viewBox="0,0,339.46414,83.90393"><defs><linearGradient x1="-48.98828" y1="175.16718" x2="234.51172" y2="175.16718" gradientUnits="userSpaceOnUse" id="color-1"><stop offset="0" stop-color="#3ce4ff" stop-opacity="0"/><stop offset="1" stop-color="#3ce4ff"/></linearGradient><linearGradient x1="-48.98828" y1="175.16718" x2="234.51172" y2="175.16718" gradientUnits="userSpaceOnUse" id="color-2"><stop offset="0" stop-color="#ffffff" stop-opacity="0"/><stop offset="1" stop-color="#ffffff"/></linearGradient><linearGradient x1="-58.98828" y1="174.91719" x2="224.51172" y2="174.91719" gradientUnits="userSpaceOnUse" id="color-3"><stop offset="0" stop-color="#ffffff" stop-opacity="0"/><stop offset="1" stop-color="#ffffff"/></linearGradient><linearGradient x1="-58.98828" y1="174.91719" x2="224.51172" y2="174.91719" gradientUnits="userSpaceOnUse" id="color-4"><stop offset="0" stop-color="#ffffff" stop-opacity="0"/><stop offset="1" stop-color="#ffffff"/></linearGradient></defs><g transform="translate(58.98828,-134.87592)"><g data-paper-data="{&quot;isPaintingLayer&quot;:true}" fill-rule="nonzero" stroke-linejoin="miter" stroke-miterlimit="10" stroke-dasharray="" stroke-dashoffset="0" style="mix-blend-mode: normal"><path d="M-48.98828,207.66718v-65h283.5v65z" fill="url(#color-1)" stroke="none" stroke-width="NaN" stroke-linecap="butt"/><path d="M-48.98828,183.66718v-17h283.5v17z" fill="url(#color-2)" stroke="none" stroke-width="NaN" stroke-linecap="butt"/><path d="M230.47124,208.39609c0,0 -5.1531,0.4138 -9.81268,-3.56234c-7.05465,-6.01989 -9.93416,-11.05642 -13.34397,-20.90911c-2.9027,-8.38736 -3.89443,-19.98211 2.67545,-20.6629c3.71474,-0.38493 7.66191,7.43074 8.7839,17.0631c1.12201,9.63238 11.69731,28.07123 11.69731,28.07123z" fill="#ffffff" stroke="#ffffff" stroke-width="2" stroke-linecap="butt"/><path d="M225.44746,159.1442c0,0 -10.57582,-6.07116 -10.39936,-7.62157c0.11683,-1.02655 11.58044,-1.98875 11.58044,-1.98875" fill="#ffffff" stroke="#ffffff" stroke-width="2" stroke-linecap="round"/><path d="M227.71345,146.30604c0,0 -8.74001,-6.77822 -8.6623,-7.91988c0.09013,-1.3242 11.58043,-1.98875 11.58043,-1.98875" fill="#ffffff" stroke="#ffffff" stroke-width="2" stroke-linecap="round"/><path d="M259.91455,145.4908c1.88192,12.4876 26.63175,58.8275 11.44199,61.4361c-12.37174,2.12464 -27.39177,8.51152 -36.84353,5.21293c-5.14694,-1.79624 -7.44505,-9.25767 -9.52243,-15.4132c-8.34107,-24.71565 4.67807,-60.72968 4.67807,-60.72968c0,0 2.27185,-0.18775 5.5628,-0.12123c8.18371,0.16544 23.15983,-0.49265 24.6831,9.61507z" fill="#ffffff" stroke="#ffffff" stroke-width="2" stroke-linecap="butt"/><path d="M241.00332,148.19698l-4.04393,11.16296" fill="#ffffff" stroke="#ffffff" stroke-width="1" stroke-linecap="round"/><path d="M270.21163,193.28715c1.39507,8.12344 -2.39829,12.10457 -10.21166,13.44638c-7.81336,1.34182 -14.58768,-0.13449 -15.98274,-8.25795c-1.39507,-8.12345 3.03116,-16.35314 10.84453,-17.69495c7.81335,-1.34182 13.95482,4.38306 15.34988,12.50651z" fill="#ffffff" stroke="#ffffff" stroke-width="2" stroke-linecap="butt"/><path d="M264.38434,150.51919c7.98931,0.97905 17.75781,0.93259 12.46429,7.00056c-0.10828,0.12412 -0.22265,0.24947 -0.34327,0.3761c-2.31318,2.42845 0.28969,10.68036 -3.13046,12.09739c-0.0911,0.03775 -0.22075,3.27055 -0.32613,3.30986c-5.61197,2.09356 -31.04069,3.1393 -32.47414,0.82967c-3.49239,-5.62709 -2.93429,-15.91997 5.92787,-19.66305c8.86216,-3.74308 17.88185,-3.95051 17.88185,-3.95051z" fill="#ffffff" stroke="#ffffff" stroke-width="2" stroke-linecap="butt"/><path d="M253.26257,169.09611c0,0 2.75097,-2.28153 4.08072,-2.84106c3.40426,-1.43243 16.87221,-5.9754 16.87221,-5.9754l-0.28715,8.45632c0,0 -9.65319,0.42899 -12.14455,0.24647c-2.68505,-0.19672 -6.16578,0.82578 -7.40772,0.41353c-0.42298,-0.14041 -1.11351,-0.29987 -1.11351,-0.29987z" fill="#ffffff" stroke="#ffffff" stroke-width="0" stroke-linecap="butt"/><path d="M277.73624,151.2485c0.37795,2.20083 -1.44371,5.19924 -4.24347,5.68005c-2.79976,0.48081 -5.5174,-1.73804 -5.89536,-3.93888c-0.37795,-2.20083 2.23058,-2.788 5.03035,-3.2688c2.79976,-0.48081 4.73052,-0.67322 5.10848,1.52763z" fill="#ffffff" stroke="#ffffff" stroke-width="2" stroke-linecap="butt"/><path d="M236.62127,153.96476c-0.1955,-1.13838 0.61816,-2.22815 1.81736,-2.43409c1.1992,-0.20594 2.32981,0.54993 2.52531,1.6883c0.1955,1.13838 -0.61815,2.22814 -1.81736,2.43409c-1.1992,0.20594 -2.32981,-0.54993 -2.52531,-1.6883z" fill="#ffffff" stroke="#ffffff" stroke-width="0.5" stroke-linecap="butt"/><path d="M253.26684,169.96506c0,0 8.0845,-1.04243 13.43698,-1.92493c2.90031,-0.4782 8.25845,0.80817 8.25845,0.80817" fill="#ffffff" stroke="#ffffff" stroke-width="2" stroke-linecap="round"/><path d="M263.65846,164.80893l0.28007,6.60129c0,0 -1.17064,0.52211 -1.89955,-0.44577c-0.88593,-1.17631 -2.9603,-5.66046 -2.9603,-5.66046" data-paper-data="{&quot;index&quot;:null}" fill="#ffffff" stroke="#ffffff" stroke-width="2" stroke-linecap="round"/><path d="M275.09884,161.08464c0,0 -0.52669,5.10258 -1.02555,6.48679c-0.41043,1.1389 -1.6835,0.98361 -1.6835,0.98361l-1.68384,-6.39056" fill="#ffffff" stroke="#ffffff" stroke-width="2" stroke-linecap="round"/><path d="M236.38489,158.24603l1.73164,1.1577" fill="#ffffff" stroke="#ffffff" stroke-width="1" stroke-linecap="round"/><path d="M236.80573,156.23365l1.73163,1.1577" fill="#ffffff" stroke="#ffffff" stroke-width="1" stroke-linecap="round"/><path d="M241.8309,149.79287l-1.73164,-1.15769" fill="#ffffff" stroke="#ffffff" stroke-width="1" stroke-linecap="round"/><path d="M252.69303,169.28671c0,0 5.35365,-3.82801 8.91957,-4.68227c1.43213,-0.34307 14.05275,-4.79178 14.05275,-4.79178" fill="#ffffff" stroke="#ffffff" stroke-width="2" stroke-linecap="round"/><path d="M240.639,151.47125l-4.3066,-3.08556" fill="#ffffff" stroke="#ffffff" stroke-width="1.5" stroke-linecap="round"/><path d="M252.95858,146.72935l3.03043,-4.34558" data-paper-data="{&quot;index&quot;:null}" fill="#ffffff" stroke="#ffffff" stroke-width="1.5" stroke-linecap="round"/><path d="M266.66665,167.80881l-1.84746,-3.16149" fill="#ffffff" stroke="#ffffff" stroke-width="0.5" stroke-linecap="round"/><path d="M267.32227,167.40632l0.56595,-4.3007" fill="#ffffff" stroke="#ffffff" stroke-width="0.5" stroke-linecap="round"/><path d="M270.51649,167.43756l-2.08926,-4.56944" fill="#ffffff" stroke="#ffffff" stroke-width="0.5" stroke-linecap="round"/><path d="M257.86048,168.01659l0.36975,-1.22309" fill="#ffffff" stroke="#ffffff" stroke-width="0.5" stroke-linecap="round"/><path d="M246.43243,210.95814c0,0 1.88323,4.56021 -0.24624,6.82171c-1.15827,1.23009 -6.54831,0.77761 -7.07963,0.84441c-1.26708,0.15931 -1.1263,-6.60347 -1.1263,-6.60347" fill="#ffffff" stroke="#ffffff" stroke-width="2" stroke-linecap="round"/><path d="M276.16181,198.35752c0,0 3.92777,2.98574 3.23127,6.01293c-0.37884,1.64656 -5.26004,3.97705 -5.68496,4.30294c-1.01335,0.77719 -4.3059,-5.13164 -4.3059,-5.13164" fill="#ffffff" stroke="#ffffff" stroke-width="2" stroke-linecap="round"/><path d="M244.51714,185.88082c0,0 -1.56913,4.67759 -4.65984,4.98821c-1.6811,0.16896 -5.4533,-3.70762 -5.89821,-4.00565c-1.061,-0.71074 3.48058,-5.72364 3.48058,-5.72364" fill="#ffffff" stroke="#ffffff" stroke-width="2" stroke-linecap="round"/><path d="M270.37582,175.49128c0,0 4.88915,0.66193 5.7752,3.63916c0.48194,1.61939 -2.61649,6.05302 -2.82557,6.54601c-0.49864,1.17569 -6.27586,-2.34267 -6.27586,-2.34267" fill="#ffffff" stroke="#ffffff" stroke-width="2" stroke-linecap="round"/><path d="M235.24017,154.20194c-0.31985,-1.86245 1.01135,-3.64537 2.9733,-3.9823c1.96195,-0.33693 3.81171,0.89972 4.13156,2.76215c0.31985,1.86245 -1.01133,3.64537 -2.9733,3.9823c-1.96195,0.33693 -3.81171,-0.89972 -4.13156,-2.76215z" fill="#ffffff" stroke="#ffffff" stroke-width="0.5" stroke-linecap="butt"/><path d="M252.76076,148.29302c-0.28886,-1.68198 0.91335,-3.29215 2.6852,-3.59643c1.77184,-0.30428 3.44236,0.81254 3.73121,2.49451c0.28886,1.68198 -0.91334,3.29214 -2.6852,3.59643c-1.77184,0.30428 -3.44236,-0.81254 -3.73121,-2.49451z" fill="#ffffff" stroke="#ffffff" stroke-width="0.5" stroke-linecap="butt"/><path d="M-58.98828,178.16719v-6.5h283.5v6.5z" fill="url(#color-3)" stroke="none" stroke-width="NaN" stroke-linecap="butt"/><path d="M-58.98828,178.16719v-6.5h283.5v6.5z" fill="url(#color-4)" stroke="none" stroke-width="NaN" stroke-linecap="butt"/></g></g></svg>