<svg version="1.1" xmlns="http://www.w3.org/2000/svg" xmlns:xlink="http://www.w3.org/1999/xlink" width="88.25" height="88.25" viewBox="0,0,88.25,88.25"><defs><radialGradient cx="240" cy="180" r="21.64286" gradientUnits="userSpaceOnUse" id="color-1"><stop offset="0" stop-color="#6e00c7"/><stop offset="1" stop-color="#6e00c7" stop-opacity="0"/></radialGradient></defs><g transform="translate(-195.875,-135.875)"><g data-paper-data="{&quot;isPaintingLayer&quot;:true}" fill-rule="nonzero" stroke-linecap="butt" stroke-linejoin="miter" stroke-miterlimit="10" stroke-dasharray="" stroke-dashoffset="0" style="mix-blend-mode: normal"><path d="M218.35714,180c0,-11.95302 9.68984,-21.64286 21.64286,-21.64286c11.95302,0 21.64286,9.68984 21.64286,21.64286c0,11.95302 -9.68984,21.64286 -21.64286,21.64286c-11.95302,0 -21.64286,-9.68984 -21.64286,-21.64286z" fill="url(#color-1)" stroke="#8719ff" stroke-width="0"/><path d="M195.875,224.125v-88.25h88.25v88.25z" fill="none" stroke="none" stroke-width="NaN"/><path d="M214.64287,180.00002c0,-14.00436 11.35278,-25.35714 25.35714,-25.35714c14.00436,0 25.35714,11.35278 25.35714,25.35714c0,14.00436 -11.35278,25.35714 -25.35714,25.35714c-14.00436,0 -25.35714,-11.35278 -25.35714,-25.35714z" fill="none" stroke="#545454" stroke-width="1"/><text transform="translate(234.81926,213.5463) scale(0.36433,0.36433)" font-size="40" xml:space="preserve" fill="#ffffff" fill-rule="nonzero" stroke="none" stroke-width="1" stroke-linecap="butt" stroke-linejoin="miter" stroke-miterlimit="10" stroke-dasharray="" stroke-dashoffset="0" font-family="Sans Serif" font-weight="normal" text-anchor="start" style="mix-blend-mode: normal"><tspan x="0" dy="0">D</tspan></text><path d="M231.75057,217.2062c-0.76295,-0.7628 -0.58469,-1.10059 -0.58469,-2.17926c0,-3.23602 0,-7.66491 0,-12.57085c0,-1.01301 -0.1538,-1.3176 0.58469,-2.01101c0.73849,-0.69341 1.1009,-0.5847 2.17977,-0.5847c4.82987,0 9.26146,0 12.37595,0c1.03816,0 1.37213,-0.1789 2.07547,0.5847c0.70335,0.7636 0.58469,1.17627 0.58469,2.30336c0,4.75382 0,8.83095 0,12.18105c0,1.11669 0.17565,1.45885 -0.58469,2.27671c-0.76034,0.81787 -1.03731,0.5847 -2.07547,0.5847c-1.03816,0 -9.13935,0 -12.37595,0c-1.07887,0 -1.41682,0.17811 -2.17977,-0.5847z" fill="none" stroke="#ffffff" stroke-width="1.5"/><path d="M228.07143,184.79714c0,-6.56816 12.21197,-24.34412 12.21197,-24.34412c0,0 11.57343,17.77596 11.57343,24.34412c0,6.56816 -5.32454,11.8927 -11.8927,11.8927c-6.56816,0 -11.8927,-5.32454 -11.8927,-11.8927z" fill="#ac30ff" stroke="#8719ff" stroke-width="1.5"/><path d="M239.1368,178.14958c0.24347,0.13867 0.38263,0.34741 0.38263,0.34741l0.70588,1.66851c-0.65887,0.4353 -1.18703,1.31802 -1.97662,1.30591c-0.11064,-0.0017 -0.21826,-0.01499 -0.32338,-0.0379l-0.00547,0.02733l-1.41041,-0.28208c-0.14437,-0.02593 -0.27798,-0.08284 -0.39371,-0.16361c-0.0573,0.01418 -0.11917,0.0249 -0.18598,0.03158c-0.99504,0.0995 -1.09454,-0.89553 -1.09454,-0.89553c-0.00158,-0.05951 -0.00553,-0.11949 -0.01119,-0.17982c-0.38964,-0.3669 -0.50369,-0.91068 -0.091,-1.64144c0.01387,-0.0453 0.03052,-0.09005 0.05029,-0.13417c0.68901,-1.53778 3.94817,-1.9339 4.35351,-0.04619z" fill="#8024bd" stroke="none" stroke-width="0.5"/><path d="M244.97309,182.33741l0.15959,0.16795c0.53009,-0.34941 0.94256,-0.811 1.24541,-1.34348c-0.33708,0.1001 -0.67492,0.15893 -0.97643,0.17553h-1v0c-0.34822,0 -0.65488,-0.17799 -0.83395,-0.44796c-0.44808,0.01547 -0.82827,-0.07325 -1.04404,-0.30268c-0.87859,-0.93425 -0.53118,-1.74469 0.30984,-2.32857c0.03295,-0.15462 0.09778,-0.29295 0.21667,-0.40366c0.44937,-0.41844 1.77644,-0.81505 2.73309,-0.54851c0.41562,-0.03309 0.80866,-0.02334 1.14314,0.03429c-0.26787,-1.53093 -1.05315,-2.98434 -2.2507,-3.81931c-3.11198,-0.92533 -8.26749,0.70963 -10.75964,2.85577c-2.51652,2.16712 -0.71503,6.31575 2.48558,6.24635c0,0 0.79678,0 0.96789,0.71122c0.59411,-0.1306 0.9887,0.42183 0.9887,0.42183c0.19118,0.36945 0.70117,0.55749 1.13167,0.551l0.26923,-0.62821c0.14778,-0.36768 0.50769,-0.62726 0.92822,-0.62726c0.50931,0 0.92969,0.38075 0.99203,0.87313l0.02676,0.18734c0.25351,-0.39087 0.57277,-1.21958 0.98277,-1.19284c1.05106,0.06855 0.84392,1.04999 0.82482,1.12962c0.00785,-0.02932 0.05348,-0.18744 0.19871,-0.55194l-0.16795,-0.01673c0,0 0,-0.92265 0.88625,-0.99545c0.26328,-0.1474 0.54232,-0.1474 0.54232,-0.1474zM236.40166,184.62313c-0.39448,-0.00599 -0.78126,-0.05441 -1.15592,-0.1403c0.01307,0.08482 0.01307,0.1403 0.01307,0.1403l-0.03848,-0.13186c0.15488,0.55941 0.2743,1.03133 0.32554,1.43053c0.06134,0.00766 0.09833,0.01691 0.09833,0.01691c1.8681,0.49144 3.48561,1.54887 5.20516,2.4159c1.15514,-0.33811 2.25084,-0.76636 3.19902,-1.314l0.83903,-0.34595c0,0 0.04089,-0.01636 0.10895,-0.03362c-0.02721,-0.36407 -0.02232,-0.79786 -0.02327,-1.32361c0,0 0,-0.14047 0.05264,-0.31611c-0.96663,1.05752 -2.06717,1.54743 -2.62563,-0.12295c-0.07462,-0.2232 0.18884,0.60562 -0.02421,0.70563c-0.56839,0.26682 -1.25234,0.45094 -1.87069,0.33976c-1.77969,0.59774 -2.42362,0.6254 -3.77442,-1.0251c0,0 -0.0903,-0.12642 -0.14989,-0.31519c-0.10638,0.01967 -0.17924,0.01967 -0.17924,0.01967zM231.58533,176.18841c2.67046,-3.80681 9.69141,-5.75448 13.97085,-4.46317c3.89592,2.81844 4.93686,9.5837 0.6859,12.44422l-0.81646,0.10806l-0.03241,0.21732c0.14082,-0.0944 0.32884,-0.15743 0.57988,-0.15743c1,0 1,1 1,1c-0.00142,0.68737 -0.45173,1.54712 0.28428,1.29576l0.60338,0.18412c0,0 0.94868,0.31623 0.63246,1.26491c-0.31623,0.94868 -1.26491,0.63246 -1.26491,0.63246l-0.25377,-0.10159c-0.38734,-0.10644 -0.69971,-0.21559 -0.95161,-0.33597c-0.18084,0.18975 -0.39272,0.2745 -0.39272,0.2745l-0.58954,0.22548c-0.44098,0.24971 -0.90657,0.47732 -1.39074,0.68499c0.80935,0.30732 1.42062,0.87721 1.47321,0.45395l-0.12018,-0.10686c0,0 0.24254,-0.97014 1.21268,-0.72761c0.97014,0.24254 0.72761,1.21268 0.72761,1.21268l-0.08863,0.22623c0.16234,0.17778 0.26135,0.41438 0.26135,0.6741c0,0.55228 -0.44772,1 -1,1c-0.29952,0 -0.56828,-0.13168 -0.75155,-0.34031c-1.4713,0.30981 -3.19332,-0.41779 -4.9053,-1.33992c-1.82319,0.45798 -3.71737,0.73681 -5.44445,0.9223c-0.03103,0.14934 -0.07166,0.29566 -0.1224,0.43756c0,0 -0.39392,0.91915 -1.31306,0.52523c-0.91915,-0.39392 -0.52523,-1.31306 -0.52523,-1.31306c0.22517,-0.37299 0.11754,-0.93528 -0.11814,-1.30172l0.08046,0.38007c0,0 -0.97014,-0.24254 -0.72761,-1.21268c0.24254,-0.97014 1.21268,-0.72761 1.21268,-0.72761l1.22332,0.66579c0.07592,0.17514 0.14122,0.35827 0.19481,0.54651c0.92685,-0.09841 1.91642,-0.2255 2.91673,-0.39854c-0.96054,-0.5281 -1.87065,-0.97186 -2.67708,-1.15918c0,0 -0.26769,-0.06692 -0.48669,-0.27108c-0.29018,0.12279 -0.66119,0.22086 -1.12792,0.30093c0,0 -1,0 -1,-1c0,-1 1,-1 1,-1c0.63522,0.63522 -0.12614,-0.46087 -0.24724,-0.86814l-0.03848,-0.41758c0,0 0,-0.497 0.35038,-0.79025c-2.57877,-1.50071 -3.97685,-4.86043 -2.02386,-7.64447z" fill="#8024bd" stroke="none" stroke-width="0.5"/></g></g></svg>