<svg version="1.1" xmlns="http://www.w3.org/2000/svg" xmlns:xlink="http://www.w3.org/1999/xlink" width="65.4" height="65.4" viewBox="0,0,65.4,65.4"><defs><radialGradient cx="248.7" cy="188.2" r="10.23077" gradientUnits="userSpaceOnUse" id="color-1"><stop offset="0" stop-color="#ffd95a"/><stop offset="1" stop-color="#ffd95a" stop-opacity="0"/></radialGradient></defs><g transform="translate(-207.1,-147.7)"><g data-paper-data="{&quot;isPaintingLayer&quot;:true}" fill-rule="nonzero" stroke-linejoin="miter" stroke-miterlimit="10" stroke-dasharray="" stroke-dashoffset="0" style="mix-blend-mode: normal"><path d="M239.84627,195.14667c-1.38376,-0.01949 -1.52182,-0.48956 -2.48623,-1.48171c-2.89325,-2.97646 -6.85303,-7.05013 -11.23932,-11.56258c-0.90571,-0.93176 -1.3195,-1.07442 -1.26021,-2.37248c0.05929,-1.29806 0.48984,-1.52209 1.48218,-2.48668c4.44248,-4.31828 8.51863,-8.28047 11.38331,-11.06507c0.95489,-0.9282 1.10212,-1.39135 2.43176,-1.31784c1.32965,0.07351 1.58947,0.55916 2.59718,1.59586c4.25028,4.37253 7.89557,8.12265 10.89082,11.20405c0.99841,1.02713 1.46589,1.1848 1.49777,2.61687c0.03188,1.43207 -0.43135,1.46523 -1.38625,2.39343c-0.95489,0.9282 -8.40631,8.17129 -11.38331,11.06507c-0.99234,0.9646 -1.14394,1.43058 -2.5277,1.41109z" fill="#151723" stroke="#ffffff" stroke-width="1" stroke-linecap="butt"/><path d="M239.84626,194.89024c-1.38376,-0.01949 -1.52182,-0.48956 -2.48623,-1.48171c-2.89325,-2.97646 -6.85303,-7.05013 -11.23932,-11.56258c-0.90571,-0.93176 -1.3195,-1.07442 -1.26021,-2.37248c0.05929,-1.29806 0.48984,-1.52209 1.48218,-2.48668c4.44248,-4.31828 8.51863,-8.28047 11.38331,-11.06507c0.95489,-0.9282 1.10212,-1.39135 2.43176,-1.31784c1.32965,0.07351 1.58947,0.55916 2.59718,1.59586c4.25028,4.37253 7.89557,8.12265 10.89082,11.20405c0.99841,1.02713 1.46589,1.1848 1.49777,2.61687c0.03188,1.43207 -0.43135,1.46523 -1.38625,2.39343c-0.95489,0.9282 -8.40631,8.17129 -11.38331,11.06507c-0.99234,0.9646 -1.14394,1.43058 -2.5277,1.41109z" fill="none" stroke="#ffffff" stroke-width="1" stroke-linecap="butt"/><path d="M207.1,213.1v-65.4h65.4v65.4z" fill="none" stroke="none" stroke-width="0" stroke-linecap="butt"/><path d="M233.15379,176.41646c0,-2.70024 2.18897,-4.8892 4.8892,-4.8892c1.58374,0 2.9916,0.75301 3.88508,1.92054c0.86807,-0.78827 2.02082,-1.26864 3.28576,-1.26864c2.70024,0 4.8892,2.18897 4.8892,4.8892c0,0.2003 -0.01205,0.39779 -0.03546,0.59177c1.91744,0.66106 3.29493,2.48136 3.29493,4.62338c0,2.70024 -2.18897,4.8892 -4.8892,4.8892c-5.98015,0 -9.33936,-0.32595 -15.31951,-0.32595c-2.70024,0 -4.8892,-2.18897 -4.8892,-4.8892c0,-2.70024 2.18897,-4.8892 4.8892,-4.8892c0.01438,0 0.02875,0.00006 0.0431,0.00019c-0.02843,-0.21332 -0.0431,-0.43099 -0.0431,-0.65208z" fill="#234820" stroke="#1fa416" stroke-width="2" stroke-linecap="butt"/><path d="M238.46923,188.2c0,-5.6503 4.58047,-10.23077 10.23077,-10.23077c5.6503,0 10.23077,4.58047 10.23077,10.23077c0,5.6503 -4.58047,10.23077 -10.23077,10.23077c-5.6503,0 -10.23077,-4.58047 -10.23077,-10.23077z" fill="url(#color-1)" stroke="#ffe400" stroke-width="0" stroke-linecap="butt"/><path d="M242.57637,187.89231c0,-1.33171 4.7892,-6.12091 6.12091,-6.12091c1.33171,0 5.97252,4.7892 5.97252,6.12091c0,1.33171 -4.64081,6.12091 -5.97252,6.12091c-1.33171,0 -6.12091,-4.7892 -6.12091,-6.12091z" fill="#846500" stroke="#ffe400" stroke-width="2" stroke-linecap="butt"/><path d="M245.4027,187.30237c0,-0.52034 0.42181,-0.94215 0.94214,-0.94215c0.52034,0 0.94215,0.42182 0.94215,0.94215c0,0.52034 -0.42182,0.94215 -0.94215,0.94215c-0.52034,0 -0.94214,-0.42182 -0.94214,-0.94215z" fill="#ffe400" stroke="none" stroke-width="2" stroke-linecap="butt"/><path d="M250.05065,186.67427c0,-0.52034 0.42182,-0.94215 0.94215,-0.94215c0.52034,0 0.94215,0.42182 0.94215,0.94215c0,0.52034 -0.42182,0.94215 -0.94215,0.94215c-0.52034,0 -0.94215,-0.42182 -0.94215,-0.94215z" fill="#ffe400" stroke="none" stroke-width="2" stroke-linecap="butt"/><path d="M250.49032,189.81478c0,0 -1.00496,0.50248 -1.50744,0.50248c-0.50248,0 -1.50744,-0.50248 -1.50744,-0.50248" fill="#d4c300" stroke="#ffe400" stroke-width="2" stroke-linecap="round"/></g></g></svg>