<svg version="1.1" xmlns="http://www.w3.org/2000/svg" xmlns:xlink="http://www.w3.org/1999/xlink" width="31.11411" height="31.11411" viewBox="0,0,31.11411,31.11411"><g transform="translate(-224.44295,-164.44294)"><g data-paper-data="{&quot;isPaintingLayer&quot;:true}" fill="none" fill-rule="nonzero" stroke-width="2" stroke-linecap="butt" stroke-linejoin="miter" stroke-miterlimit="10" stroke-dasharray="" stroke-dashoffset="0" style="mix-blend-mode: normal"><path d="M224.44295,195.55705v-31.11411h31.11411v31.11411z" stroke="none"/><path d="M241.18606,182.60336c-3.81823,3.40752 -10.69413,8.46001 -11.68079,7.35443c-0.98666,-1.10558 4.28955,-7.95058 8.10778,-11.3581c3.81823,-3.40752 4.09794,-2.22251 5.0846,-1.11693c0.98666,1.10558 2.30664,1.71307 -1.51159,5.12059z" stroke="#ff7700"/><path d="M243.48979,176.94437c-0.51745,0.46178 -2.38482,-3.67073 -3.12563,-4.50082c-0.74081,-0.83009 -0.92188,-1.87738 -0.40444,-2.33916c0.51745,-0.46178 1.53746,-0.16321 2.27827,0.66688c0.74081,0.83009 1.76924,5.71131 1.2518,6.1731z" stroke="#258800"/><path d="M248.88918,175.10457c1.08817,0.23181 1.85317,0.96961 1.70868,1.64793c-0.1445,0.67832 -1.14378,1.04029 -2.23195,0.80848c-1.08817,-0.23181 -5.60286,0.19529 -5.45836,-0.48303c0.1445,-0.67832 4.89346,-2.20519 5.98163,-1.97338z" data-paper-data="{&quot;index&quot;:null}" stroke="#258800"/></g></g></svg>