<svg version="1.1" xmlns="http://www.w3.org/2000/svg" xmlns:xlink="http://www.w3.org/1999/xlink" width="65.4" height="65.4" viewBox="0,0,65.4,65.4"><defs><linearGradient x1="245.32328" y1="170.18192" x2="236.62868" y2="191.22339" gradientUnits="userSpaceOnUse" id="color-1"><stop offset="0" stop-color="#ffafaf"/><stop offset="1" stop-color="#eea8ff"/></linearGradient><linearGradient x1="243.00944" y1="170.79136" x2="239.05331" y2="191.35559" gradientUnits="userSpaceOnUse" id="color-2"><stop offset="0" stop-color="#e954ff"/><stop offset="1" stop-color="#ff4d4d"/></linearGradient></defs><g transform="translate(-207.1,-147.7)"><g data-paper-data="{&quot;isPaintingLayer&quot;:true}" fill-rule="nonzero" stroke-linejoin="miter" stroke-miterlimit="10" stroke-dasharray="" stroke-dashoffset="0" style="mix-blend-mode: normal"><path d="M239.84627,195.14667c-1.38376,-0.01949 -1.52182,-0.48956 -2.48623,-1.48171c-2.89325,-2.97646 -6.85303,-7.05013 -11.23932,-11.56258c-0.90571,-0.93176 -1.3195,-1.07442 -1.26021,-2.37248c0.05929,-1.29806 0.48984,-1.52209 1.48218,-2.48668c4.44248,-4.31828 8.51863,-8.28047 11.38331,-11.06507c0.95489,-0.9282 1.10212,-1.39135 2.43176,-1.31784c1.32965,0.07351 1.58947,0.55916 2.59718,1.59586c4.25028,4.37253 7.89557,8.12265 10.89082,11.20405c0.99841,1.02713 1.46589,1.1848 1.49777,2.61687c0.03188,1.43207 -0.43135,1.46523 -1.38625,2.39343c-0.95489,0.9282 -8.40631,8.17129 -11.38331,11.06507c-0.99234,0.9646 -1.14394,1.43058 -2.5277,1.41109z" fill="#151723" stroke="#ffffff" stroke-width="1" stroke-linecap="butt"/><path d="M239.84626,194.89024c-1.38376,-0.01949 -1.52182,-0.48956 -2.48623,-1.48171c-2.89325,-2.97646 -6.85303,-7.05013 -11.23932,-11.56258c-0.90571,-0.93176 -1.3195,-1.07442 -1.26021,-2.37248c0.05929,-1.29806 0.48984,-1.52209 1.48218,-2.48668c4.44248,-4.31828 8.51863,-8.28047 11.38331,-11.06507c0.95489,-0.9282 1.10212,-1.39135 2.43176,-1.31784c1.32965,0.07351 1.58947,0.55916 2.59718,1.59586c4.25028,4.37253 7.89557,8.12265 10.89082,11.20405c0.99841,1.02713 1.46589,1.1848 1.49777,2.61687c0.03188,1.43207 -0.43135,1.46523 -1.38625,2.39343c-0.95489,0.9282 -8.40631,8.17129 -11.38331,11.06507c-0.99234,0.9646 -1.14394,1.43058 -2.5277,1.41109z" fill="none" stroke="#ffffff" stroke-width="1" stroke-linecap="butt"/><path d="M207.1,213.1v-65.4h65.4v65.4z" fill="none" stroke="none" stroke-width="0" stroke-linecap="butt"/><path d="M237.24295,201.05705v-31.11411h31.11411v31.11411z" fill="none" stroke="none" stroke-width="2" stroke-linecap="butt"/><g stroke-width="2"><path d="M230.96894,193.04595c-0.17432,-0.38995 -0.24321,-0.73845 -0.15387,-0.77838c0.08934,-0.03994 0.92937,-0.21933 1.10369,0.17062c0.17432,0.38995 -0.38308,1.20159 -0.47242,1.24153c-0.08934,0.03994 -0.30308,-0.24381 -0.47739,-0.63376z" data-paper-data="{&quot;index&quot;:null}" fill="none" stroke="#e6c531" stroke-linecap="butt"/><g><path d="M238.10103,174.58143l-5.57533,8.74461l-2.37936,-1.202l3.41642,-9.71579l7.28002,-9.08491z" fill="#ffffff" stroke="#eeeeee" stroke-linecap="butt"/><path d="M231.48624,182.78245l9.28718,-19.06278" fill="none" stroke="#eeeeee" stroke-linecap="round"/><path d="M226.20332,182.34974l0.70204,-1.38343l4.43775,1.66317l3.70907,2.47109l-0.70205,1.38343l-4.12624,-1.43454z" fill="#dec100" stroke="#fce33f" stroke-linecap="butt"/><path d="M227.09118,188.59925l2.10612,-4.15027l2.152,1.09207l-2.10612,4.15026z" fill="#dec100" stroke="#fce33f" stroke-linecap="butt"/></g><path d="M249.88997,174.04654l-13.04486,9.70175c0,0 -2.47374,2.34683 -1.90356,3.96635c0.57019,1.6195 2.49613,0.15851 3.43875,0.39403c1.51538,0.37863 1.56502,1.39586 1.15744,1.67988c-0.40279,0.28067 -4.41336,2.52284 -6.69113,-1.01039c-1.91351,-2.96818 2.72329,-6.77636 2.72329,-6.77636l13.0336,-10.13426c0,0 1.29363,-0.07333 1.63241,0.50047c0.33876,0.57379 -0.34591,1.67852 -0.34591,1.67852z" fill="url(#color-1)" stroke="url(#color-2)" stroke-linecap="butt"/><path d="M232.70745,192.38118c-0.49102,-1.09841 19.4797,-10.57834 21.18286,-11.33971c1.70316,-0.76138 3.48191,-0.48813 3.97293,0.61028c0.49102,1.09841 -0.49161,2.60606 -2.19478,3.36743z" fill="#f0e284" stroke="#e6c531" stroke-linecap="butt"/></g><path d="M243.27712,187.97522c0,-3.36894 2.73106,-6.1 6.1,-6.1c3.36894,0 6.1,2.73106 6.1,6.1c0,3.36894 -2.73106,6.1 -6.1,6.1c-3.36894,0 -6.1,-2.73106 -6.1,-6.1z" fill="#66f7ff" stroke="#336aff" stroke-width="1.5" stroke-linecap="butt"/><path d="M251.67712,188.37522h-2.5v-4" fill="none" stroke="#336aff" stroke-width="1.5" stroke-linecap="round"/></g></g></svg>