<svg version="1.1" xmlns="http://www.w3.org/2000/svg" xmlns:xlink="http://www.w3.org/1999/xlink" width="46.75" height="46.75" viewBox="0,0,46.75,46.75"><g transform="translate(-216.625,-156.625)"><g data-paper-data="{&quot;isPaintingLayer&quot;:true}" fill="none" fill-rule="nonzero" stroke-linejoin="miter" stroke-miterlimit="10" stroke-dasharray="" stroke-dashoffset="0" style="mix-blend-mode: normal"><path d="M226.04141,176.50815l29.31531,8.62654" stroke="#ffffff" stroke-width="1" stroke-linecap="round"/><path d="M244.002,165.36874l-8.62654,29.31531" data-paper-data="{&quot;index&quot;:null}" stroke="#ffffff" stroke-width="1" stroke-linecap="round"/><path d="M251.24906,174.78037l-23.22847,11.70453" stroke="#ffffff" stroke-width="1" stroke-linecap="round"/><path d="M245.31861,192.81944l-11.12511,-23.92897" stroke="#ffffff" stroke-width="1" stroke-linecap="round"/><path d="M233.92275,178.26739c0,0 1.65266,-0.01179 2.06239,-0.38064c0.48144,-0.43341 0.64596,-2.05753 0.64596,-2.05753c0,0 1.60063,0.10143 2.30251,-0.02445c0.69929,-0.12541 1.90105,-0.72943 1.90105,-0.72943c0,0 0.53637,1.95471 0.99919,2.48962c0.39195,0.453 1.60062,0.51514 1.60062,0.51514c0,0 -0.48129,1.26387 -0.336,1.87624c0.15073,0.63529 1.22468,1.86928 1.22468,1.86928c0,0 -0.00596,3.01764 -0.44511,3.67255c-0.3565,0.53164 -1.99394,-0.03527 -1.99394,-0.03527c0,0 -1.4985,-0.44461 -2.18114,-0.10342c-0.72504,0.3624 -2.04957,2.21804 -2.04957,2.21804c0,0 -2.15311,-0.17425 -2.83904,-0.71401c-0.6602,-0.51951 -1.20232,-2.4661 -1.20232,-2.4661c0,0 1.35621,-1.80281 1.40761,-2.81699c0.05215,-1.02894 -1.0969,-3.31302 -1.0969,-3.31302z" stroke="#ffffff" stroke-width="1" stroke-linecap="round"/><path d="M229.44558,177.37625c0,0 1.67697,-1.48497 2.86206,-2.53704c1.04222,-0.92523 2.2628,-3.84697 2.2628,-3.84697c0,0 2.66195,0.90795 4.02356,0.69158c1.28852,-0.20476 3.93895,-1.95691 3.93895,-1.95691c0,0 1.76901,3.49521 2.68614,4.48128c0.94121,1.01196 2.89072,1.51482 2.89072,1.51482c0,0 0.14575,3.76049 0.49453,4.98086c0.41589,1.45519 1.83511,3.17041 1.83511,3.17041c0,0 -2.70016,1.72487 -3.60702,2.78326c-1.0346,1.20749 -2.26801,4.07352 -2.26801,4.07352c0,0 -2.91099,2.41365 -4.27096,2.78077c-0.20163,0.05443 -1.53655,-2.1337 -1.77684,-2.12444c-1.4639,0.05645 -2.3325,1.60592 -2.3325,1.60592c0,0 -2.14572,-3.57399 -3.2283,-4.83272c-1.01437,-1.17943 -3.0759,-2.49727 -3.0759,-2.49727c0,0 -1.20302,-1.67815 -1.50388,-2.9556c-0.36781,-1.56175 1.06952,-5.33148 1.06952,-5.33148z" stroke="#ffffff" stroke-width="1" stroke-linecap="round"/><path d="M216.625,203.375v-46.75h46.75v46.75z" stroke="none" stroke-width="2" stroke-linecap="butt"/></g></g></svg>