<svg version="1.1" xmlns="http://www.w3.org/2000/svg" xmlns:xlink="http://www.w3.org/1999/xlink" width="80.79025" height="80.79025" viewBox="0,0,80.79025,80.79025"><g transform="translate(-199.60487,-139.60488)"><g data-paper-data="{&quot;isPaintingLayer&quot;:true}" fill-rule="nonzero" stroke-linejoin="miter" stroke-miterlimit="10" stroke-dasharray="" stroke-dashoffset="0" style="mix-blend-mode: normal"><path d="M199.60487,220.39513v-80.79025h80.79025v80.79025z" fill="none" stroke="none" stroke-width="1.5" stroke-linecap="butt"/><path d="M253.15123,197.02115c-1.82551,0.15135 -2.58567,8.43838 -6.58207,8.34292c-3.9964,-0.09546 -3.96803,-8.6569 -6.63801,-8.65869c-3.92244,-0.00263 -2.71115,8.32837 -7.22507,8.3944c-4.51392,0.06603 -4.00198,-7.97508 -4.88466,-8.21725c-3.07488,-0.8436 -2.47856,7.53346 -6.55208,7.39106c-4.07352,-0.1424 -3.63602,-4.26374 -3.84737,-7.7546c-0.44664,-7.37718 0.31023,-18.42805 0.427,-21.62363c0.21386,-5.85217 2.90642,-11.64038 7.86917,-14.85153c0.94751,-0.61309 1.48721,-4.83632 2.63957,-5.2366c1.35843,-0.47186 3.01029,2.91775 4.52699,2.69598c2.21687,-0.32415 4.52973,-0.52457 6.72507,-0.44435c2.70942,0.09901 5.88072,0.33688 8.48122,0.93013c1.38566,0.31612 5.44141,-2.75469 6.65224,-2.20403c1.13973,0.51832 -0.55264,4.75988 0.34616,5.54237c4.05644,3.53143 6.59593,8.40588 6.3994,13.78402c-0.12899,3.52972 1.79582,12.80912 0.82246,20.55816c-0.50972,4.05797 -0.68986,10.22564 -3.43594,9.58357c-2.74607,-0.64207 -2.73904,-8.47943 -5.72409,-8.23194z" fill="#ffd131" stroke="#000000" stroke-width="2" stroke-linecap="butt"/><path d="M259.10317,171.46927c0,4.71813 -3.88276,8.54294 -8.67238,8.54294c-4.78962,0 -8.67238,-3.8248 -8.67238,-8.54294c0,-4.71813 3.88276,-8.54294 8.67238,-8.54294c4.78962,0 8.67238,3.8248 8.67238,8.54294z" fill="#fff4c3" stroke="none" stroke-width="2" stroke-linecap="butt"/><path d="M243.92158,180.06924c0,2.43055 -0.47993,3.97088 -4.05427,3.97088c-3.57434,0 -4.41408,-1.81676 -4.41408,-4.24731c0,-2.43055 0.59806,-3.49083 4.17241,-3.49083c3.57435,0 4.29594,3.76726 4.29594,3.76726z" fill="#ff2929" stroke="#000000" stroke-width="2" stroke-linecap="butt"/><path d="M243.79724,178.08562c0,0 0.77052,6.25547 -3.93761,6.24856c-4.5981,-0.00675 -4.12349,-5.98164 -4.12349,-5.98164" fill="none" stroke="#000000" stroke-width="2" stroke-linecap="round"/><path d="M230.26512,172.41372c0,2.07468 -1.68185,3.75652 -3.75652,3.75652c-2.07468,0 -3.75652,-1.68185 -3.75652,-3.75652" fill="none" stroke="#000000" stroke-width="2" stroke-linecap="butt"/><path d="M256.40088,171.46211c0,2.07468 -1.68185,3.75652 -3.75652,3.75652c-2.07468,0 -3.75652,-1.68185 -3.75652,-3.75652" fill="none" stroke="#000000" stroke-width="2" stroke-linecap="butt"/><path d="M235.68022,178.57711c0,-0.54914 0.44516,-0.99429 0.9943,-0.99429c0.54914,0 0.99429,0.44516 0.99429,0.99429c0,0.54914 -0.25145,2.47938 -0.80059,2.47938c-0.54914,0 -1.188,-1.93025 -1.188,-2.47938z" fill="#ffffff" stroke="none" stroke-width="2" stroke-linecap="butt"/><path d="M241.79834,178.47454c0,-0.54914 0.44516,-0.9943 0.99429,-0.9943c0.54914,0 0.99429,0.44516 0.99429,0.9943c0,0.54914 -0.25145,2.47938 -0.80059,2.47938c-0.54914,0 -1.188,-1.93024 -1.188,-2.47938z" fill="#ffffff" stroke="none" stroke-width="2" stroke-linecap="butt"/><path d="M227.41502,180.83287l-3.43766,1.61679" fill="none" stroke="#000000" stroke-width="2" stroke-linecap="round"/><path d="M227.06091,178.89346l-4.93789,-0.23359" fill="none" stroke="#000000" stroke-width="2" stroke-linecap="round"/><path d="M252.03421,180.2487l3.43766,1.61678" data-paper-data="{&quot;index&quot;:null}" fill="none" stroke="#000000" stroke-width="2" stroke-linecap="round"/><path d="M257.32622,178.07569l-4.93789,0.23359" data-paper-data="{&quot;index&quot;:null}" fill="none" stroke="#000000" stroke-width="2" stroke-linecap="round"/><path d="M246.58466,175.27182c0,0 -1.48825,2.20398 -3.23928,2.20764c-1.75103,0.00366 -3.91454,-2.19268 -3.91454,-2.19268c0,0 -2.02868,2.07751 -3.75325,1.94092c-1.72457,-0.1366 -3.23402,-1.57418 -3.23402,-1.57418" fill="none" stroke="#000000" stroke-width="2" stroke-linecap="round"/><path d="M241.35522,173.5744c0,0 -1.2191,1.6329 -1.83701,1.6329c-0.62925,0 -1.90505,-1.6329 -1.90505,-1.6329" fill="none" stroke="#000000" stroke-width="2" stroke-linecap="round"/></g></g></svg>