<svg version="1.1" xmlns="http://www.w3.org/2000/svg" xmlns:xlink="http://www.w3.org/1999/xlink" width="54.5" height="54.5" viewBox="0,0,54.5,54.5"><g transform="translate(-212.59668,-145.56612)"><g data-paper-data="{&quot;isPaintingLayer&quot;:true}" fill-rule="nonzero" stroke-linejoin="miter" stroke-miterlimit="10" stroke-dasharray="" stroke-dashoffset="0" style="mix-blend-mode: normal"><path d="M212.59668,200.06612v-54.5h54.5v54.5z" data-paper-data="{&quot;index&quot;:null}" fill="none" stroke="none" stroke-width="0" stroke-linecap="butt"/><path d="M246.62927,191.26989h-2.16618v-5.875" data-paper-data="{&quot;index&quot;:null}" fill="none" stroke="#ffffff" stroke-width="3" stroke-linecap="round"/><path d="M245.72383,160.25136c0,0 2.5663,-5.50597 4.31837,-5.21722c0.75088,0.12375 2.09512,6.2742 2.09512,6.2742" data-paper-data="{&quot;index&quot;:null}" fill="none" stroke="#ffffff" stroke-width="2.5" stroke-linecap="round"/><path d="M234.15055,158.21732c0,0 2.5663,-5.50597 4.31837,-5.21722c0.75088,0.12375 2.09512,6.2742 2.09512,6.2742" data-paper-data="{&quot;index&quot;:null}" fill="none" stroke="#ffffff" stroke-width="2.5" stroke-linecap="round"/><path d="M232.54936,183.8682l-2.21442,5.32154l-2.07687,-0.86423" data-paper-data="{&quot;index&quot;:null}" fill="none" stroke="#ffffff" stroke-width="3" stroke-linecap="round"/><path d="M249.73097,184.64815c-1.12473,0.8063 -1.51532,0.51038 -2.8808,0.28534c-4.09643,-0.67512 -14.34974,-2.36494 -15.6637,-2.58149c-1.31395,-0.21655 -1.71314,0.02079 -2.50487,-1.17294c-0.79173,-1.19374 -0.49805,-1.59015 -0.26512,-3.0035c0.69879,-4.24007 1.54924,-9.40033 2.54083,-15.41703c0.2351,-1.42651 0.171,-1.97356 1.22047,-2.7933c1.04946,-0.81975 1.43483,-0.52365 2.74879,-0.3071c3.94187,0.64965 9.55074,1.57403 15.6637,2.58149c1.36548,0.22504 1.84685,0.16303 2.63688,1.19469c0.79003,1.03167 0.53184,1.3851 0.32054,2.66722c-1.02332,6.20923 -1.94714,11.81469 -2.62214,15.91037c0,0 -0.06985,1.82995 -1.19458,2.63625z" data-paper-data="{&quot;index&quot;:null}" fill="#3c0000" stroke="#ff3333" stroke-width="2.5" stroke-linecap="butt"/><path d="M245.04905,169.0574l4.93345,0.81307" data-paper-data="{&quot;index&quot;:null}" fill="none" stroke="#ffffff" stroke-width="2.5" stroke-linecap="round"/><path d="M233.18918,166.97613l4.93345,0.81307" data-paper-data="{&quot;index&quot;:null}" fill="none" stroke="#ffffff" stroke-width="2.5" stroke-linecap="round"/><path d="M244.14744,173.97626c0,0 2.00449,-0.85452 2.87444,-0.71115c0.75948,0.12517 2.05901,1.52422 2.05901,1.52422" data-paper-data="{&quot;index&quot;:null}" fill="none" stroke="#ffffff" stroke-width="2.5" stroke-linecap="round"/><path d="M232.26855,172.01035c0,0 2.09129,-1.0772 2.9111,-0.94209c0.82464,0.1359 2.02235,1.75515 2.02235,1.75515" data-paper-data="{&quot;index&quot;:null}" fill="none" stroke="#ffffff" stroke-width="2.5" stroke-linecap="round"/></g></g></svg>