<svg version="1.1" xmlns="http://www.w3.org/2000/svg" xmlns:xlink="http://www.w3.org/1999/xlink" width="49.83527" height="49.83527" viewBox="0,0,49.83527,49.83527"><defs><radialGradient cx="240" cy="180" r="20.80623" gradientUnits="userSpaceOnUse" id="color-1"><stop offset="0" stop-color="#ffd08f"/><stop offset="1" stop-color="#ffd08f" stop-opacity="0"/></radialGradient><radialGradient cx="240" cy="180" r="20.80622" gradientUnits="userSpaceOnUse" id="color-2"><stop offset="0" stop-color="#ffd08f"/><stop offset="1" stop-color="#ffd08f" stop-opacity="0"/></radialGradient><radialGradient cx="240" cy="180" r="12.89488" gradientUnits="userSpaceOnUse" id="color-3"><stop offset="0" stop-color="#ff9400"/><stop offset="1" stop-color="#ff9400" stop-opacity="0"/></radialGradient><radialGradient cx="240" cy="180" r="8.38679" gradientUnits="userSpaceOnUse" id="color-4"><stop offset="0" stop-color="#ff9400"/><stop offset="1" stop-color="#ff9400" stop-opacity="0"/></radialGradient><radialGradient cx="240" cy="180" r="8.00479" gradientUnits="userSpaceOnUse" id="color-5"><stop offset="0" stop-color="#ff9400"/><stop offset="1" stop-color="#ff9400" stop-opacity="0"/></radialGradient><radialGradient cx="240" cy="180" r="24.91764" gradientUnits="userSpaceOnUse" id="color-6"><stop offset="0" stop-color="#000000" stop-opacity="0"/><stop offset="1" stop-color="#000000" stop-opacity="0"/></radialGradient></defs><g transform="translate(-215.08236,-155.08236)"><g data-paper-data="{&quot;isPaintingLayer&quot;:true}" fill-rule="nonzero" stroke-linejoin="miter" stroke-miterlimit="10" stroke-dasharray="" stroke-dashoffset="0" style="mix-blend-mode: normal"><path d="M219.19377,180h41.61246" fill="none" stroke="url(#color-1)" stroke-width="1" stroke-linecap="round"/><path d="M240.02491,200.80622l-0.04982,-41.61243" fill="none" stroke="url(#color-2)" stroke-width="1" stroke-linecap="round"/><path d="" data-paper-data="{&quot;index&quot;:null}" fill="none" stroke="#cdcdcd" stroke-width="1.5" stroke-linecap="round"/><path d="" fill="none" stroke="#cdcdcd" stroke-width="1.5" stroke-linecap="round"/><path d="" data-paper-data="{&quot;index&quot;:null}" fill="none" stroke="#cdcdcd" stroke-width="1.5" stroke-linecap="round"/><path d="" fill="none" stroke="#cdcdcd" stroke-width="1.5" stroke-linecap="round"/><path d="" data-paper-data="{&quot;index&quot;:null}" fill="none" stroke="#cdcdcd" stroke-width="1.5" stroke-linecap="round"/><path d="" data-paper-data="{&quot;index&quot;:null}" fill="none" stroke="#cdcdcd" stroke-width="1.5" stroke-linecap="round"/><path d="" data-paper-data="{&quot;index&quot;:null}" fill="none" stroke="#cdcdcd" stroke-width="1.5" stroke-linecap="round"/><path d="" fill="none" stroke="#cdcdcd" stroke-width="1.5" stroke-linecap="round"/><path d="" data-paper-data="{&quot;index&quot;:null}" fill="none" stroke="#cdcdcd" stroke-width="1.5" stroke-linecap="round"/><path d="" data-paper-data="{&quot;index&quot;:null}" fill="none" stroke="#cdcdcd" stroke-width="1.5" stroke-linecap="round"/><path d="" fill="none" stroke="#cdcdcd" stroke-width="1.5" stroke-linecap="round"/><path d="" data-paper-data="{&quot;index&quot;:null}" fill="none" stroke="#cdcdcd" stroke-width="1.5" stroke-linecap="round"/><path d="M217.57711,202.42289v-44.84577h44.84577v44.84577z" fill="none" stroke="none" stroke-width="0" stroke-linecap="butt"/><path d="M227.10513,180c0,-7.12165 5.77323,-12.89488 12.89488,-12.89488c7.12165,0 12.89488,5.77323 12.89488,12.89488c0,7.12165 -5.77323,12.89488 -12.89488,12.89488c-7.12165,0 -12.89488,-5.77323 -12.89488,-12.89488z" fill="none" stroke="url(#color-3)" stroke-width="5" stroke-linecap="butt"/><path d="M231.61321,180c0,-4.63189 3.7549,-8.38679 8.38679,-8.38679c4.63189,0 8.38679,3.7549 8.38679,8.38679c0,4.63189 -3.7549,8.38679 -8.38679,8.38679c-4.63189,0 -8.38679,-3.7549 -8.38679,-8.38679z" fill="url(#color-4)" stroke="none" stroke-width="0.5" stroke-linecap="butt"/><path d="M237.5,180c0,-1.38071 1.11929,-2.5 2.5,-2.5c1.38071,0 2.5,1.11929 2.5,2.5c0,1.38071 -1.11929,2.5 -2.5,2.5c-1.38071,0 -2.5,-1.11929 -2.5,-2.5z" fill="#ffffff" stroke="none" stroke-width="0.5" stroke-linecap="butt"/><path d="M231.99521,180c0,-4.42093 3.58387,-8.00479 8.00479,-8.00479c4.42093,0 8.00479,3.58387 8.00479,8.00479c0,4.42093 -3.58387,8.00479 -8.00479,8.00479c-4.42093,0 -8.00479,-3.58387 -8.00479,-8.00479z" fill="none" stroke="url(#color-5)" stroke-width="5" stroke-linecap="butt"/><path d="M231.5417,177.92854c0,-0.27614 0.22386,-0.5 0.5,-0.5c0.27614,0 0.5,0.22386 0.5,0.5c0,0.27614 -0.22386,0.5 -0.5,0.5c-0.27614,0 -0.5,-0.22386 -0.5,-0.5z" fill="#ff9600" stroke="none" stroke-width="0.5" stroke-linecap="butt"/><path d="M232.663,170.64013c0,-0.27614 0.22386,-0.5 0.5,-0.5c0.27614,0 0.5,0.22386 0.5,0.5c0,0.27614 -0.22386,0.5 -0.5,0.5c-0.27614,0 -0.5,-0.22386 -0.5,-0.5z" fill="#ff9600" stroke="none" stroke-width="0.5" stroke-linecap="butt"/><path d="M240.63664,171.82372c0,-0.27614 0.22386,-0.5 0.5,-0.5c0.27614,0 0.5,0.22386 0.5,0.5c0,0.27614 -0.22386,0.5 -0.5,0.5c-0.27614,0 -0.5,-0.22386 -0.5,-0.5z" fill="#ff9600" stroke="none" stroke-width="0.5" stroke-linecap="butt"/><path d="M245.18411,169.02049c0,-0.27614 0.22386,-0.5 0.5,-0.5c0.27614,0 0.5,0.22386 0.5,0.5c0,0.27614 -0.22386,0.5 -0.5,0.5c-0.27614,0 -0.5,-0.22386 -0.5,-0.5z" fill="#ff9600" stroke="none" stroke-width="0.5" stroke-linecap="butt"/><path d="M247.4267,180.23342c0,-0.27614 0.22386,-0.5 0.5,-0.5c0.27614,0 0.5,0.22386 0.5,0.5c0,0.27614 -0.22386,0.5 -0.5,0.5c-0.27614,0 -0.5,-0.22386 -0.5,-0.5z" fill="#ff9600" stroke="none" stroke-width="0.5" stroke-linecap="butt"/><path d="M250.22993,186.96119c0,-0.27614 0.22386,-0.5 0.5,-0.5c0.27614,0 0.5,0.22386 0.5,0.5c0,0.27614 -0.22386,0.5 -0.5,0.5c-0.27614,0 -0.5,-0.22386 -0.5,-0.5z" fill="#ff9600" stroke="none" stroke-width="0.5" stroke-linecap="butt"/><path d="M241.82023,189.14148c0,-0.27614 0.22386,-0.5 0.5,-0.5c0.27614,0 0.5,0.22386 0.5,0.5c0,0.27614 -0.22386,0.5 -0.5,0.5c-0.27614,0 -0.5,-0.22386 -0.5,-0.5z" fill="#ff9600" stroke="none" stroke-width="0.5" stroke-linecap="butt"/><path d="M233.22364,189.01689c0,-0.27614 0.22386,-0.5 0.5,-0.5c0.27614,0 0.5,0.22386 0.5,0.5c0,0.27614 -0.22386,0.5 -0.5,0.5c-0.27614,0 -0.5,-0.22386 -0.5,-0.5z" fill="#ff9600" stroke="none" stroke-width="0.5" stroke-linecap="butt"/><path d="M227.18111,183.16124c0,-0.27614 0.22386,-0.5 0.5,-0.5c0.27614,0 0.5,0.22386 0.5,0.5c0,0.27614 -0.22386,0.5 -0.5,0.5c-0.27614,0 -0.5,-0.22386 -0.5,-0.5z" fill="#ff9600" stroke="none" stroke-width="0.5" stroke-linecap="butt"/><path d="M237.52193,183.5973c0,-0.27614 0.22386,-0.5 0.5,-0.5c0.27614,0 0.5,0.22386 0.5,0.5c0,0.27614 -0.22386,0.5 -0.5,0.5c-0.27614,0 -0.5,-0.22386 -0.5,-0.5z" fill="#ff9600" stroke="none" stroke-width="0.5" stroke-linecap="butt"/><path d="M227.80488,174.56466c0,-0.13807 0.11193,-0.25 0.25,-0.25c0.13807,0 0.25,0.11193 0.25,0.25c0,0.13807 -0.11193,0.25 -0.25,0.25c-0.13807,0 -0.25,-0.11193 -0.25,-0.25z" fill="#ff9600" stroke="none" stroke-width="0.5" stroke-linecap="butt"/><path d="M232.16547,173.87942c0,-0.13807 0.11193,-0.25 0.25,-0.25c0.13807,0 0.25,0.11193 0.25,0.25c0,0.13807 -0.11193,0.25 -0.25,0.25c-0.13807,0 -0.25,-0.11193 -0.25,-0.25z" fill="#ff9600" stroke="none" stroke-width="0.5" stroke-linecap="butt"/><path d="M238.0834,173.44337c0,-0.13807 0.11193,-0.25 0.25,-0.25c0.13807,0 0.25,0.11193 0.25,0.25c0,0.13807 -0.11193,0.25 -0.25,0.25c-0.13807,0 -0.25,-0.11193 -0.25,-0.25z" fill="#ff9600" stroke="none" stroke-width="0.5" stroke-linecap="butt"/><path d="M241.50958,168.8336c0,-0.13807 0.11193,-0.25 0.25,-0.25c0.13807,0 0.25,0.11193 0.25,0.25c0,0.13807 -0.11193,0.25 -0.25,0.25c-0.13807,0 -0.25,-0.11193 -0.25,-0.25z" fill="#ff9600" stroke="none" stroke-width="0.5" stroke-linecap="butt"/><path d="M245.62099,173.63025c0,-0.13807 0.11193,-0.25 0.25,-0.25c0.13807,0 0.25,0.11193 0.25,0.25c0,0.13807 -0.11193,0.25 -0.25,0.25c-0.13807,0 -0.25,-0.11193 -0.25,-0.25z" fill="#ff9600" stroke="none" stroke-width="0.5" stroke-linecap="butt"/><path d="M250.41763,175.12531c0,-0.13807 0.11193,-0.25 0.25,-0.25c0.13807,0 0.25,0.11193 0.25,0.25c0,0.13807 -0.11193,0.25 -0.25,0.25c-0.13807,0 -0.25,-0.11193 -0.25,-0.25z" fill="#ff9600" stroke="none" stroke-width="0.5" stroke-linecap="butt"/><path d="M248.36193,180.23342c0,-0.13807 0.11193,-0.25 0.25,-0.25c0.13807,0 0.25,0.11193 0.25,0.25c0,0.13807 -0.11193,0.25 -0.25,0.25c-0.13807,0 -0.25,-0.11193 -0.25,-0.25z" fill="#ff9600" stroke="none" stroke-width="0.5" stroke-linecap="butt"/><path d="M247.24064,185.7776c0,-0.13807 0.11193,-0.25 0.25,-0.25c0.13807,0 0.25,0.11193 0.25,0.25c0,0.13807 -0.11193,0.25 -0.25,0.25c-0.13807,0 -0.25,-0.11193 -0.25,-0.25z" fill="#ff9600" stroke="none" stroke-width="0.5" stroke-linecap="butt"/><path d="M246.67999,189.32836c0,-0.13807 0.11193,-0.25 0.25,-0.25c0.13807,0 0.25,0.11193 0.25,0.25c0,0.13807 -0.11193,0.25 -0.25,0.25c-0.13807,0 -0.25,-0.11193 -0.25,-0.25z" fill="#ff9600" stroke="none" stroke-width="0.5" stroke-linecap="butt"/><path d="M239.76534,191.82012c0,-0.13807 0.11193,-0.25 0.25,-0.25c0.13807,0 0.25,0.11193 0.25,0.25c0,0.13807 -0.11193,0.25 -0.25,0.25c-0.13807,0 -0.25,-0.11193 -0.25,-0.25z" fill="#ff9600" stroke="none" stroke-width="0.5" stroke-linecap="butt"/><path d="M234.78182,190.82342c0,-0.13807 0.11193,-0.25 0.25,-0.25c0.13807,0 0.25,0.11193 0.25,0.25c0,0.13807 -0.11193,0.25 -0.25,0.25c-0.13807,0 -0.25,-0.11193 -0.25,-0.25z" fill="#ff9600" stroke="none" stroke-width="0.5" stroke-linecap="butt"/><path d="M234.15888,186.21365c0,-0.13807 0.11193,-0.25 0.25,-0.25c0.13807,0 0.25,0.11193 0.25,0.25c0,0.13807 -0.11193,0.25 -0.25,0.25c-0.13807,0 -0.25,-0.11193 -0.25,-0.25z" fill="#ff9600" stroke="none" stroke-width="0.5" stroke-linecap="butt"/><path d="M229.17535,185.03007c0,-0.13807 0.11193,-0.25 0.25,-0.25c0.13807,0 0.25,0.11193 0.25,0.25c0,0.13807 -0.11193,0.25 -0.25,0.25c-0.13807,0 -0.25,-0.11193 -0.25,-0.25z" fill="#ff9600" stroke="none" stroke-width="0.5" stroke-linecap="butt"/><path d="M233.84741,182.41371c0,-0.13807 0.11193,-0.25 0.25,-0.25c0.13807,0 0.25,0.11193 0.25,0.25c0,0.13807 -0.11193,0.25 -0.25,0.25c-0.13807,0 -0.25,-0.11193 -0.25,-0.25z" fill="#ff9600" stroke="none" stroke-width="0.5" stroke-linecap="butt"/><path d="M236.08999,179.04983c0,-0.13807 0.11193,-0.25 0.25,-0.25c0.13807,0 0.25,0.11193 0.25,0.25c0,0.13807 -0.11193,0.25 -0.25,0.25c-0.13807,0 -0.25,-0.11193 -0.25,-0.25z" fill="#ff9600" stroke="none" stroke-width="0.5" stroke-linecap="butt"/><path d="M234.9687,175.31219c0,-0.13807 0.11193,-0.25 0.25,-0.25c0.13807,0 0.25,0.11193 0.25,0.25c0,0.13807 -0.11193,0.25 -0.25,0.25c-0.13807,0 -0.25,-0.11193 -0.25,-0.25z" fill="#ff9600" stroke="none" stroke-width="0.5" stroke-linecap="butt"/><path d="M238.51946,176.05972c0,-0.13807 0.11193,-0.25 0.25,-0.25c0.13807,0 0.25,0.11193 0.25,0.25c0,0.13807 -0.11193,0.25 -0.25,0.25c-0.13807,0 -0.25,-0.11193 -0.25,-0.25z" fill="#ff9600" stroke="none" stroke-width="0.5" stroke-linecap="butt"/><path d="M243.87675,178.17772c0,-0.13807 0.11193,-0.25 0.25,-0.25c0.13807,0 0.25,0.11193 0.25,0.25c0,0.13807 -0.11193,0.25 -0.25,0.25c-0.13807,0 -0.25,-0.11193 -0.25,-0.25z" fill="#ff9600" stroke="none" stroke-width="0.5" stroke-linecap="butt"/><path d="M245.62099,182.22683c0,-0.13807 0.11193,-0.25 0.25,-0.25c0.13807,0 0.25,0.11193 0.25,0.25c0,0.13807 -0.11193,0.25 -0.25,0.25c-0.13807,0 -0.25,-0.11193 -0.25,-0.25z" fill="#ff9600" stroke="none" stroke-width="0.5" stroke-linecap="butt"/><path d="M242.81776,183.90877c0,-0.13807 0.11193,-0.25 0.25,-0.25c0.13807,0 0.25,0.11193 0.25,0.25c0,0.13807 -0.11193,0.25 -0.25,0.25c-0.13807,0 -0.25,-0.11193 -0.25,-0.25z" fill="#ff9600" stroke="none" stroke-width="0.5" stroke-linecap="butt"/><path d="M242.07023,187.33495c0,-0.13807 0.11193,-0.25 0.25,-0.25c0.13807,0 0.25,0.11193 0.25,0.25c0,0.13807 -0.11193,0.25 -0.25,0.25c-0.13807,0 -0.25,-0.11193 -0.25,-0.25z" fill="#ff9600" stroke="none" stroke-width="0.5" stroke-linecap="butt"/><path d="M215.08236,204.91764v-49.83527h49.83527v49.83527z" fill="none" stroke="url(#color-6)" stroke-width="0" stroke-linecap="butt"/></g></g></svg>