<svg version="1.1" xmlns="http://www.w3.org/2000/svg" xmlns:xlink="http://www.w3.org/1999/xlink" width="21.2" height="22.06923" viewBox="0,0,21.2,22.06923"><g transform="translate(-229.4,-169.09043)"><g data-paper-data="{&quot;isPaintingLayer&quot;:true}" fill-rule="nonzero" stroke-linejoin="miter" stroke-miterlimit="10" stroke-dasharray="" stroke-dashoffset="0" style="mix-blend-mode: normal"><path d="M235.39185,179.68947c0,0 -2.15,1.76134 -2.15,2.66346c0,0.8656 2.15,2.64423 2.15,2.64423l-2.89185,0.8" fill="none" stroke="#9e9e9e" stroke-width="2" stroke-linecap="round"/><path d="M246.55001,185.94717l-3.29402,-0.8c0,0 2.2,-1.47837 2.2,-2.24423c0,-0.88384 -2.2,-2.75577 -2.2,-2.75577" fill="none" stroke="#9e9e9e" stroke-width="2" stroke-linecap="round"/><path d="M233.29185,181.53948c0,0 -2.15,1.76134 -2.15,2.66346c0,0.8656 2.15,2.64423 2.15,2.64423l-2.89185,0.8" fill="none" stroke="#b8b8b8" stroke-width="2" stroke-linecap="round"/><path d="M249.6,187.69717l-3.29402,-0.8c0,0 2.2,-1.47837 2.2,-2.24423c0,-0.88384 -2.2,-2.75577 -2.2,-2.75577" fill="none" stroke="#b8b8b8" stroke-width="2" stroke-linecap="round"/><path d="M235.49186,184.05198c0,0 -2.15,1.76134 -2.15,2.66346c0,0.8656 2.15,2.64423 2.15,2.64423l-2.89186,0.8" fill="none" stroke="#d4d4d4" stroke-width="2" stroke-linecap="round"/><path d="M246.75,190.09716l-3.29402,-0.8c0,0 2.2,-1.47837 2.2,-2.24423c0,-0.88384 -2.2,-2.75577 -2.2,-2.75577" fill="none" stroke="#d4d4d4" stroke-width="2" stroke-linecap="round"/><path d="M247.74712,176.96544c0,2.06346 0.93722,4.60955 -0.66132,5.91072c-1.44988,1.18017 -5.26693,1.71428 -7.40118,1.71428c-2.41861,0 -5.9029,-0.36422 -7.39131,-1.83482c-1.27307,-1.25784 -0.79619,-3.97609 -0.79619,-5.79018c0,-2.25509 0.81969,-4.51549 2.68434,-5.82103c1.38907,-0.97257 3.52494,-1.30397 5.44066,-1.30397c2.12402,0 4.43269,0.21471 5.88031,1.38485c1.6107,1.30195 2.24469,3.66772 2.24469,5.74015z" fill="#000000" stroke="#e0e0e0" stroke-width="1.5" stroke-linecap="butt"/><path d="M236.50378,176.14716c0,-1.8811 1.52493,-3.40603 3.40603,-3.40603c1.8811,0 3.40603,1.52493 3.40603,3.40603c0,1.8811 -1.52493,3.40603 -3.40603,3.40603c-1.8811,0 -3.40603,-1.52493 -3.40603,-3.40603z" fill="none" stroke="#e0e0e0" stroke-width="1" stroke-linecap="butt"/><path d="M238.00774,176.14716c0,-1.05048 0.85158,-1.90207 1.90207,-1.90207c1.05048,0 1.90207,0.85158 1.90207,1.90207c0,1.05048 -0.85158,1.90207 -1.90207,1.90207c-1.05048,0 -1.90207,-0.85158 -1.90207,-1.90207z" fill="#e0e0e0" stroke="#e0e0e0" stroke-width="1" stroke-linecap="butt"/><path d="M241.87347,181.5745l-1.0625,0.5625l-1.125,-0.5625l-1,0.52941l-1,-0.52941" fill="none" stroke="#e0e0e0" stroke-width="1" stroke-linecap="round"/></g></g></svg>