<svg version="1.1" xmlns="http://www.w3.org/2000/svg" xmlns:xlink="http://www.w3.org/1999/xlink" width="77.1" height="77.1" viewBox="0,0,77.1,77.1"><g transform="translate(-201.45,-141.45)"><g data-paper-data="{&quot;isPaintingLayer&quot;:true}" fill="none" fill-rule="nonzero" stroke-linejoin="miter" stroke-miterlimit="10" stroke-dasharray="" stroke-dashoffset="0" style="mix-blend-mode: normal"><path d="M224.44301,195.55707v-31.11411h31.11411v31.11411z" stroke="none" stroke-width="2" stroke-linecap="butt"/><g stroke-linecap="butt"><path d="M237.80137,181.90604c-1.68751,-1.7282 -2.27953,-3.7472 -0.55132,-5.43471c0.79545,-0.77672 1.31139,-1.56395 2.34089,-1.61414c-0.76403,-2.37831 -0.05965,-3.84013 1.84908,-5.70391c2.68832,-2.62503 6.99564,-2.57371 9.62065,0.11461c2.62503,2.68832 2.57371,6.99564 -0.11461,9.62065c-1.81493,1.7722 -3.11779,2.82457 -5.39272,2.1692c-0.0208,1.10906 -1.08591,1.58579 -1.94228,2.42199c-0.85637,0.8362 -4.12218,0.15451 -5.80969,-1.57369z" stroke="#f49700" stroke-width="2"/><g stroke="#7b0000" stroke-width="1"><path d="M243.31998,176.13744l0.61505,1.13647l-10.32143,10.20388l-1.16769,-1.28373z"/></g><path d="M233.3583,186.71062c0.88947,0.91092 -0.8617,3.74904 -2.32806,5.18088c-1.46636,1.43183 -2.09262,0.91515 -2.98208,0.00424c-0.88947,-0.91092 -1.70533,-1.87114 -0.23897,-3.30296c1.46636,-1.43182 4.65964,-2.79308 5.54911,-1.88216z" stroke="#7b0000" stroke-width="1.75"/><path d="M247.35537,176.57942c-1.02201,0.99795 -2.6595,0.97843 -3.65744,-0.04356c-0.99795,-1.02201 -0.97843,-2.6595 0.04356,-3.65744c1.02201,-0.99795 2.6595,-0.97843 3.65744,0.04356c0.99795,1.02201 0.97843,2.6595 -0.04356,3.65744z" stroke="#7b0000" stroke-width="1.75"/></g><path d="M250.34668,173.01611l-3.25,-3.25" stroke="#7b0000" stroke-width="1" stroke-linecap="round"/><path d="M201.45,218.55v-77.1h77.1v77.1z" stroke="none" stroke-width="NaN" stroke-linecap="butt"/></g></g></svg>