<svg version="1.1" xmlns="http://www.w3.org/2000/svg" xmlns:xlink="http://www.w3.org/1999/xlink" width="26.3507" height="26.3507" viewBox="0,0,26.3507,26.3507"><g transform="translate(-226.82465,-166.82465)"><g data-paper-data="{&quot;isPaintingLayer&quot;:true}" fill-rule="nonzero" stroke-linejoin="miter" stroke-miterlimit="10" stroke-dasharray="" stroke-dashoffset="0" style="mix-blend-mode: normal"><path d="M243.96876,181.22656c0,1.78125 -0.34896,3.16146 -1.04687,4.14063c-0.6875,0.96875 -1.65625,1.45313 -2.90625,1.45313c-1.25,0 -2.22916,-0.48959 -2.9375,-1.46875c-0.69791,-0.98959 -1.04687,-2.3802 -1.04687,-4.17187v-2.40625c0,-1.76041 0.34375,-3.13021 1.03125,-4.10937c0.69791,-0.98959 1.67188,-1.48437 2.92188,-1.48437c1.26041,0 2.23959,0.49479 2.9375,1.48438c0.69791,0.97916 1.04688,2.36459 1.04688,4.15625zM243.46876,178.77343c0,-1.60416 -0.30209,-2.85416 -0.90625,-3.75c-0.60416,-0.90625 -1.46354,-1.35937 -2.57812,-1.35937c-1.11459,0 -1.97396,0.45313 -2.57812,1.35938c-0.59375,0.90625 -0.89062,2.17188 -0.89062,3.79688v2.39063c0,1.59375 0.30729,2.84375 0.92188,3.75c0.61459,0.90625 1.47396,1.35938 2.57813,1.35938c1.10416,0 1.95313,-0.45312 2.54688,-1.35937c0.60416,-0.90625 0.90625,-2.17187 0.90625,-3.79687z" fill="#ffffff" stroke="#ffffff" stroke-width="1" stroke-linecap="square"/><path d="M226.82465,193.17535v-26.3507h26.3507v26.3507z" fill="none" stroke="none" stroke-width="0" stroke-linecap="butt"/></g></g></svg>