<svg version="1.1" xmlns="http://www.w3.org/2000/svg" xmlns:xlink="http://www.w3.org/1999/xlink" width="46.75" height="46.75" viewBox="0,0,46.75,46.75"><g transform="translate(-216.625,-156.625)"><g data-paper-data="{&quot;isPaintingLayer&quot;:true}" fill-rule="nonzero" stroke-linejoin="miter" stroke-miterlimit="10" stroke-dasharray="" stroke-dashoffset="0" style="mix-blend-mode: normal"><path d="M236.37822,187.69355c0.46337,0.21351 0.9772,1.38846 1.14769,2.62435c0.17049,1.23588 -0.06694,2.06469 -0.5303,1.85119c-0.46337,-0.21351 -0.97719,-1.38846 -1.14768,-2.62435c-0.17049,-1.23588 0.06693,-2.06469 0.53029,-1.85119z" fill="#00c089" stroke="#008554" stroke-width="1" stroke-linecap="butt"/><path d="M216.625,203.375v-46.75h46.75v46.75z" fill="none" stroke="none" stroke-width="2" stroke-linecap="butt"/><g fill="#00c089" stroke="#008554"><path d="M250.26433,188.08067c0.13786,0.49121 -0.42358,1.64418 -1.254,2.57524c-0.83043,0.93106 -1.61537,1.28763 -1.75323,0.79644c-0.13786,-0.49121 0.42358,-1.64417 1.254,-2.57524c0.83043,-0.93106 1.61537,-1.28764 1.75323,-0.79644z" stroke-width="1" stroke-linecap="butt"/><path d="M245.11907,185.36014c0.23134,-0.47733 0.92479,-0.02898 1.54883,1.00142c0.62404,1.0304 0.94239,2.25264 0.71104,2.72997c-0.23134,0.47733 -0.92479,0.02898 -1.54884,-1.00141c-0.62404,-1.0304 -0.94239,-2.25263 -0.71104,-2.72997z" data-paper-data="{&quot;index&quot;:null}" stroke-width="1" stroke-linecap="butt"/><path d="M248.51576,183.59801c0.45408,-1.16202 1.06566,-1.76969 1.36599,-1.35728c0.30033,0.41242 0.17569,1.68873 -0.27839,2.85075c-0.45408,1.16202 -1.06565,1.7697 -1.36599,1.35728c-0.30033,-0.41242 -0.17569,-1.68874 0.27838,-2.85076z" stroke-width="1" stroke-linecap="butt"/><path d="M246.4824,181.82695c0.62404,1.0304 0.9424,2.25264 0.71104,2.72998c-0.23135,0.47732 -0.9248,0.02898 -1.54884,-1.00143c-0.62404,-1.0304 -0.94239,-2.25263 -0.71104,-2.72997z" data-paper-data="{&quot;index&quot;:null}" stroke-width="1" stroke-linecap="butt"/><path d="M249.50761,177.27612c0.30034,0.41243 0.1757,1.68875 -0.27837,2.85077c-0.45408,1.16202 -1.06565,1.7697 -1.36599,1.35728c-0.30034,-0.41243 -0.1757,-1.68874 0.27837,-2.85077c0.45408,-1.16202 1.06565,-1.76971 1.36599,-1.35729z" stroke-width="1" stroke-linecap="butt"/><path d="M245.49051,175.26945c0.23134,-0.47733 0.9248,-0.02898 1.54883,1.00142c0.62404,1.0304 0.94239,2.25264 0.71104,2.72997c-0.23134,0.47733 -0.92479,0.02898 -1.54884,-1.00141c-0.62404,-1.0304 -0.94239,-2.25264 -0.71104,-2.72997z" data-paper-data="{&quot;index&quot;:null}" stroke-width="1" stroke-linecap="butt"/><path d="M247.82396,173.67729c0.45408,-1.16202 1.06565,-1.7697 1.36599,-1.35728c0.30033,0.41242 0.17569,1.68874 -0.27838,2.85076c-0.45408,1.16202 -1.06565,1.7697 -1.36599,1.35728c-0.30033,-0.41242 -0.17569,-1.68873 0.27839,-2.85075z" stroke-width="1" stroke-linecap="butt"/><path d="M246.72798,171.4217c0.62404,1.0304 0.94239,2.25265 0.71104,2.72998c-0.23135,0.47732 -0.9248,0.02898 -1.54884,-1.00143c-0.62404,-1.0304 -0.94239,-2.25264 -0.71104,-2.72997z" data-paper-data="{&quot;index&quot;:null}" stroke-width="1" stroke-linecap="butt"/><path d="M247.26652,173.68081c0,0 0.5287,8.97394 0.71833,12.19278c0.12432,2.1103 -0.81103,6.27265 -0.81103,6.27265" stroke-width="1.5" stroke-linecap="round"/></g><g stroke="#008554"><path d="M239.5502,168.43679c0,0 1.94796,6.24559 1.40235,12.28626c-0.54562,6.04067 -3.42928,10.15445 -3.42928,10.15445" fill="none" stroke-width="2.5" stroke-linecap="round"/><path d="M242.28278,185.4429c0.37947,0.67079 -0.16186,2.45471 -1.20908,3.98453c-1.04722,1.52982 -2.20379,2.22621 -2.58325,1.55543c-0.37947,-0.67079 0.16186,-2.45471 1.20908,-3.98453c1.04722,-1.52982 2.20379,-2.22621 2.58325,-1.55543z" fill="#00c089" stroke-width="1" stroke-linecap="butt"/><path d="M236.89398,181.7639c0.50314,-0.616 1.51291,0.21487 2.25538,1.85578c0.74247,1.64091 0.93649,3.4705 0.43335,4.08649c-0.50313,0.616 -1.51291,-0.21487 -2.25538,-1.85578c-0.74247,-1.6409 -0.93648,-3.47049 -0.43334,-4.08648z" data-paper-data="{&quot;index&quot;:null}" fill="#00c089" stroke-width="1" stroke-linecap="butt"/><path d="M241.47866,180.75322c1.04723,-1.52982 2.2038,-2.2262 2.58326,-1.55542c0.37947,0.67078 -0.16187,2.45471 -1.20909,3.98453c-1.04722,1.52982 -2.20379,2.2262 -2.58325,1.55542c-0.37946,-0.67078 0.16187,-2.45471 1.20909,-3.98453z" fill="#00c089" stroke-width="1" stroke-linecap="butt"/><path d="M239.60832,176.158c0.29649,0.65527 0.50553,1.34063 0.61763,1.96678c0.16862,0.94184 0.11794,1.74971 -0.18428,2.11972c-0.50314,0.61599 -1.51291,-0.21487 -2.25538,-1.85579c-0.74247,-1.64091 -0.93648,-3.47049 -0.43334,-4.08648z" data-paper-data="{&quot;index&quot;:null}" fill="#00c089" stroke-width="1" stroke-linecap="butt"/><path d="M244.67717,171.8206c0.37947,0.67079 -0.16186,2.45471 -1.20908,3.98453c-1.04722,1.52982 -2.20379,2.22621 -2.58325,1.55543c-0.37947,-0.67079 0.16186,-2.45471 1.20908,-3.98453c1.04722,-1.52982 2.20379,-2.22621 2.58325,-1.55543z" fill="#00c089" stroke-width="1" stroke-linecap="butt"/><path d="M239.82665,169.34242c0.74247,1.64091 0.93649,3.4705 0.43335,4.08649c-0.50313,0.616 -1.51291,-0.21487 -2.25538,-1.85578c-0.74247,-1.6409 -0.93648,-3.47049 -0.43334,-4.08648z" data-paper-data="{&quot;index&quot;:null}" fill="#00c089" stroke-width="1" stroke-linecap="butt"/><path d="M242.37305,167.13092c1.04723,-1.52982 2.2038,-2.2262 2.58326,-1.55542c0.37947,0.67078 -0.16187,2.45471 -1.20909,3.98453c-1.04722,1.52982 -2.20379,2.2262 -2.58325,1.55542c-0.37946,-0.67078 0.16187,-2.45471 1.20909,-3.98453z" fill="#00c089" stroke-width="1" stroke-linecap="butt"/></g><g fill="#00c089" stroke="#008554"><path d="M235.46975,191.21926c0,0 -2.75224,-3.98162 -3.42008,-6.9186c-0.66784,-2.93699 -1.17566,-13.29224 -1.17566,-13.29224" stroke-width="1.5" stroke-linecap="round"/><path d="M235.37669,184.49197c0.36293,0.35858 0.4458,1.63829 0.18511,2.85834c-0.26069,1.22005 -0.76623,1.91841 -1.12916,1.55984c-0.36293,-0.35858 -0.4458,-1.63828 -0.18511,-2.85833c0.26069,-1.22005 0.76623,-1.91842 1.12916,-1.55985z" stroke-width="1" stroke-linecap="butt"/><path d="M230.41651,184.07908c0.15132,-0.50839 0.90801,-0.17778 1.69009,0.73847c0.78208,0.91625 1.2934,2.07114 1.14208,2.57953c-0.15132,0.50839 -0.908,0.17777 -1.69009,-0.73846c-0.78208,-0.91624 -1.2934,-2.07113 -1.14208,-2.57953z" data-paper-data="{&quot;index&quot;:null}" stroke-width="1" stroke-linecap="butt"/><path d="M233.04966,182.29049c0.26069,-1.22005 0.76624,-1.91841 1.12916,-1.55984c0.36292,0.35857 0.44579,1.63829 0.1851,2.85834c-0.26069,1.22005 -0.76623,1.91841 -1.12916,1.55984c-0.36292,-0.35857 -0.44579,-1.63829 -0.1851,-2.85834z" stroke-width="1" stroke-linecap="butt"/><path d="M230.82087,180.6752c0.78208,0.91625 1.29341,2.07114 1.14208,2.57954c-0.15133,0.50839 -0.90801,0.17777 -1.69009,-0.73848c-0.78208,-0.91625 -1.2934,-2.07113 -1.14208,-2.57953z" data-paper-data="{&quot;index&quot;:null}" stroke-width="1" stroke-linecap="butt"/><path d="M232.89739,176.53445c0.36293,0.35858 0.4458,1.63829 0.18511,2.85834c-0.26069,1.22005 -0.76623,1.91841 -1.12916,1.55984c-0.36293,-0.35858 -0.4458,-1.63828 -0.18511,-2.85833c0.26069,-1.22005 0.76623,-1.91842 1.12916,-1.55985z" stroke-width="1" stroke-linecap="butt"/><path d="M228.08875,175.17855c0.15132,-0.50839 0.90801,-0.17777 1.69009,0.73847c0.78208,0.91625 1.2934,2.07114 1.14208,2.57953c-0.15132,0.50839 -0.908,0.17777 -1.69009,-0.73846c-0.78208,-0.91624 -1.2934,-2.07114 -1.14208,-2.57953z" data-paper-data="{&quot;index&quot;:null}" stroke-width="1" stroke-linecap="butt"/><path d="M231.75981,172.85585c0.26069,-1.22005 0.76624,-1.91841 1.12916,-1.55984c0.36292,0.35857 0.44579,1.63829 0.1851,2.85834c-0.26069,1.22005 -0.76623,1.91841 -1.12916,1.55984c-0.36292,-0.35857 -0.44579,-1.63829 -0.1851,-2.85834z" stroke-width="1" stroke-linecap="butt"/><path d="M230.06436,171.18158c0.78208,0.91625 1.29341,2.07114 1.14208,2.57954c-0.15133,0.50839 -0.90801,0.17777 -1.69009,-0.73848c-0.78208,-0.91625 -1.2934,-2.07114 -1.14208,-2.57953z" data-paper-data="{&quot;index&quot;:null}" stroke-width="1" stroke-linecap="butt"/><path d="M231.57404,188.99494c-0.0309,-0.52954 0.79315,-0.47644 1.84056,0.11861c1.04741,0.59505 1.92156,1.50669 1.95245,2.03623c0.0309,0.52954 -0.79315,0.47644 -1.84056,-0.1186c-1.04741,-0.59505 -1.92155,-1.50669 -1.95245,-2.03623z" data-paper-data="{&quot;index&quot;:null}" stroke-width="1" stroke-linecap="butt"/></g></g></g></svg>