<svg version="1.1" xmlns="http://www.w3.org/2000/svg" xmlns:xlink="http://www.w3.org/1999/xlink" width="40.54748" height="40.54748" viewBox="0,0,40.54748,40.54748"><g transform="translate(-219.78183,-159.44848)"><g data-paper-data="{&quot;isPaintingLayer&quot;:true}" fill-rule="nonzero" stroke-linejoin="miter" stroke-miterlimit="10" stroke-dasharray="" stroke-dashoffset="0" style="mix-blend-mode: normal"><g><path d="M232.85963,178.82206c0,0 0.96506,1.4215 0.61276,1.87863c-0.40164,0.52116 -1.22096,-0.02248 -1.95826,0.19725c-0.78276,0.23328 -1.4731,1.21367 -1.4731,1.21367c0,0 -0.73989,-1.35001 -1.23676,-1.82666c-0.4704,-0.45125 -1.66941,-0.96122 -1.66941,-0.96122c0,0 0.05657,-1.00088 -0.38211,-1.87316c-0.29984,-0.59622 -1.09375,-1.07538 -1.25701,-1.35901c-0.12405,-0.21552 0.06422,-0.65593 -0.13528,-1.09922c-0.28451,-0.63219 -0.9499,-1.27024 -0.9499,-1.27024c0,0 -0.46427,-0.73332 0.16978,-0.47123c0.84693,0.35007 4.85236,1.50749 5.12389,1.50749c0.22479,0 0.54464,-0.69725 0.7316,-0.50897c0.06808,0.06856 -0.08103,0.93477 0.02403,1.03088c1.00449,0.91887 2.39976,3.5418 2.39976,3.5418z" fill="#5e1212" stroke="#a31f1f" stroke-width="1.5" stroke-linecap="butt"/><path d="M249.78641,174.24698c0.18697,-0.18828 0.50681,0.50897 0.7316,0.50897c0.27154,0 4.27696,-1.15742 5.12389,-1.50749c0.63405,-0.26209 0.16979,0.47123 0.16979,0.47123c0,0 -0.66539,0.63806 -0.9499,1.27024c-0.1995,0.44329 -0.01122,0.8837 -0.13527,1.09922c-0.16326,0.28363 -0.95717,0.7628 -1.25701,1.35901c-0.43868,0.87229 -0.38211,1.87316 -0.38211,1.87316c0,0 -1.19902,0.50997 -1.66942,0.96122c-0.49688,0.47665 -1.23676,1.82666 -1.23676,1.82666c0,0 -0.69034,-0.98039 -1.4731,-1.21367c-0.7373,-0.21973 -1.55662,0.3239 -1.95826,-0.19726c-0.35229,-0.45713 0.61276,-1.87863 0.61276,-1.87863c0,0 1.39527,-2.62294 2.39976,-3.5418z" data-paper-data="{&quot;index&quot;:null}" fill="#5e1212" stroke="#a31f1f" stroke-width="1.5" stroke-linecap="butt"/><path d="M240.1272,186.00999c-3.76586,0 -6.8187,-3.05283 -6.8187,-6.8187c0,-3.76586 3.05283,-6.8187 6.8187,-6.8187c3.76586,0 6.8187,3.05283 6.8187,6.8187c0,3.76586 -3.05283,6.8187 -6.8187,6.8187z" data-paper-data="{&quot;index&quot;:null}" fill="#8e1b1b" stroke="#f5f5f5" stroke-width="2" stroke-linecap="butt"/><path d="M245.64945,174.67865l0.72055,-3.22299c0,0 0.84697,0.96965 0.89934,1.4934c0.05813,0.58134 -0.56601,1.83993 -0.56601,1.83993" data-paper-data="{&quot;index&quot;:null}" fill="none" stroke="#ff3030" stroke-width="2" stroke-linecap="round"/><path d="M234.37,173.87232c0,0 -0.96317,-1.035 -0.90594,-1.60726c0.05365,-0.53655 1.23927,-1.72607 1.23927,-1.72607l0.45337,3.61283" data-paper-data="{&quot;index&quot;:null}" fill="none" stroke="#ff3030" stroke-width="2" stroke-linecap="round"/><path d="M240.01608,186.01656c-3.76586,0 -6.8187,-3.05283 -6.8187,-6.8187c0,-3.76586 3.05283,-6.8187 6.8187,-6.8187c3.76586,0 6.8187,3.05283 6.8187,6.8187c0,3.76586 -3.05283,6.8187 -6.8187,6.8187z" data-paper-data="{&quot;index&quot;:null}" fill="none" stroke="#f5f5f5" stroke-width="2" stroke-linecap="butt"/><path d="M240.25072,182.67828c-1.73809,0 -3.14709,-1.409 -3.14709,-3.14709c0,-1.73809 1.409,-3.14709 3.14709,-3.14709c1.73809,0 3.14709,1.409 3.14709,3.14709c0,1.73809 -1.409,3.14709 -3.14709,3.14709z" data-paper-data="{&quot;index&quot;:null}" fill="#ff3030" stroke="none" stroke-width="0.5" stroke-linecap="butt"/><path d="M219.78184,199.99596v-40.54748h40.54748v40.54748z" data-paper-data="{&quot;index&quot;:null}" fill="none" stroke="none" stroke-width="0" stroke-linecap="butt"/></g><path d="" data-paper-data="{&quot;index&quot;:null}" fill="none" stroke="#cdcdcd" stroke-width="1.5" stroke-linecap="round"/><path d="" data-paper-data="{&quot;index&quot;:null}" fill="none" stroke="#cdcdcd" stroke-width="1.5" stroke-linecap="round"/><path d="" data-paper-data="{&quot;index&quot;:null}" fill="none" stroke="#cdcdcd" stroke-width="1.5" stroke-linecap="round"/><path d="" data-paper-data="{&quot;index&quot;:null}" fill="none" stroke="#cdcdcd" stroke-width="1.5" stroke-linecap="round"/><path d="" data-paper-data="{&quot;index&quot;:null}" fill="none" stroke="#cdcdcd" stroke-width="1.5" stroke-linecap="round"/><path d="" data-paper-data="{&quot;index&quot;:null}" fill="none" stroke="#cdcdcd" stroke-width="1.5" stroke-linecap="round"/><path d="" data-paper-data="{&quot;index&quot;:null}" fill="none" stroke="#cdcdcd" stroke-width="1.5" stroke-linecap="round"/><path d="" data-paper-data="{&quot;index&quot;:null}" fill="none" stroke="#cdcdcd" stroke-width="1.5" stroke-linecap="round"/><path d="" data-paper-data="{&quot;index&quot;:null}" fill="none" stroke="#cdcdcd" stroke-width="1.5" stroke-linecap="round"/><path d="" data-paper-data="{&quot;index&quot;:null}" fill="none" stroke="#cdcdcd" stroke-width="1.5" stroke-linecap="round"/><path d="" data-paper-data="{&quot;index&quot;:null}" fill="none" stroke="#cdcdcd" stroke-width="1.5" stroke-linecap="round"/><path d="" data-paper-data="{&quot;index&quot;:null}" fill="none" stroke="#cdcdcd" stroke-width="1.5" stroke-linecap="round"/><path d="" data-paper-data="{&quot;index&quot;:null}" fill="none" stroke="#cdcdcd" stroke-width="1.5" stroke-linecap="round"/><path d="" data-paper-data="{&quot;index&quot;:null}" fill="none" stroke="#cdcdcd" stroke-width="1.5" stroke-linecap="round"/><path d="" data-paper-data="{&quot;index&quot;:null}" fill="none" stroke="#cdcdcd" stroke-width="1.5" stroke-linecap="round"/><path d="" data-paper-data="{&quot;index&quot;:null}" fill="none" stroke="#cdcdcd" stroke-width="1.5" stroke-linecap="round"/><path d="" data-paper-data="{&quot;index&quot;:null}" fill="none" stroke="#cdcdcd" stroke-width="1.5" stroke-linecap="round"/><path d="" data-paper-data="{&quot;index&quot;:null}" fill="none" stroke="#cdcdcd" stroke-width="1.5" stroke-linecap="round"/><path d="" data-paper-data="{&quot;index&quot;:null}" fill="none" stroke="#cdcdcd" stroke-width="1.5" stroke-linecap="round"/><path d="" data-paper-data="{&quot;index&quot;:null}" fill="none" stroke="#cdcdcd" stroke-width="1.5" stroke-linecap="round"/><path d="" data-paper-data="{&quot;index&quot;:null}" fill="none" stroke="#cdcdcd" stroke-width="1.5" stroke-linecap="round"/><path d="" data-paper-data="{&quot;index&quot;:null}" fill="none" stroke="#cdcdcd" stroke-width="1.5" stroke-linecap="round"/><path d="" data-paper-data="{&quot;index&quot;:null}" fill="none" stroke="#cdcdcd" stroke-width="1.5" stroke-linecap="round"/><path d="" data-paper-data="{&quot;index&quot;:null}" fill="none" stroke="#cdcdcd" stroke-width="1.5" stroke-linecap="round"/></g></g></svg>