<svg version="1.1" xmlns="http://www.w3.org/2000/svg" xmlns:xlink="http://www.w3.org/1999/xlink" width="77.1" height="77.1" viewBox="0,0,77.1,77.1"><defs><linearGradient x1="255.88729" y1="13.38249" x2="255.88729" y2="272.51369" gradientUnits="userSpaceOnUse" id="color-1"><stop offset="0" stop-color="#96b2ff"/><stop offset="1" stop-color="#96b2ff" stop-opacity="0"/></linearGradient><radialGradient cx="240" cy="180" r="10.70494" gradientUnits="userSpaceOnUse" id="color-2"><stop offset="0" stop-color="#6e00c7"/><stop offset="1" stop-color="#6e00c7" stop-opacity="0"/></radialGradient></defs><g transform="translate(-201.45,-141.45)"><g data-paper-data="{&quot;isPaintingLayer&quot;:true}" fill-rule="nonzero" stroke-linecap="butt" stroke-linejoin="miter" stroke-miterlimit="10" stroke-dasharray="" stroke-dashoffset="0" style="mix-blend-mode: normal"><path d="M227.35336,179.44257c0.07971,-6.96053 5.29593,-12.18917 12.3387,-12.03598c7.04277,0.15319 13.03877,5.24795 12.95473,12.58614c-0.08404,7.33819 -5.76861,12.76299 -13.24317,12.60041c-7.47456,-0.16258 -12.12997,-6.19004 -12.05026,-13.15057z" fill="url(#color-1)" stroke="#ffffff" stroke-width="1.5"/><path d="M229.29506,180c0,-5.91217 4.79277,-10.70494 10.70494,-10.70494c5.91217,0 10.70494,4.79277 10.70494,10.70494c0,5.91217 -4.79277,10.70494 -10.70494,10.70494c-5.91217,0 -10.70494,-4.79277 -10.70494,-10.70494z" fill="url(#color-2)" stroke="#8719ff" stroke-width="0"/><path d="M218.175,201.825v-43.65h43.65v43.65z" fill="none" stroke="none" stroke-width="NaN"/><path d="M227.45791,180c0,-6.9268 5.61528,-12.54209 12.54209,-12.54209c6.9268,0 12.54209,5.61528 12.54209,12.54209c0,6.9268 -5.61528,12.54209 -12.54209,12.54209c-6.9268,0 -12.54209,-5.61528 -12.54209,-12.54209z" fill="none" stroke="#ffffff" stroke-width="1"/><path d="M234.09992,182.37275c0,-3.24873 6.04025,-12.04103 6.04025,-12.04103c0,0 5.72442,8.7923 5.72442,12.04103c0,3.24873 -2.63361,5.88234 -5.88234,5.88234c-3.24873,0 -5.88234,-2.63361 -5.88234,-5.88234z" fill="#ac30ff" stroke="#8719ff" stroke-width="1.5"/><path d="M239.57305,179.08475c0.12042,0.06859 0.18926,0.17184 0.18926,0.17184l0.34914,0.82527c-0.32589,0.21531 -0.58713,0.65192 -0.97767,0.64593c-0.05472,-0.00084 -0.10796,-0.00741 -0.15995,-0.01875l-0.00271,0.01352l-0.69761,-0.13952c-0.07141,-0.01283 -0.13749,-0.04097 -0.19474,-0.08092c-0.02834,0.00701 -0.05894,0.01232 -0.09199,0.01562c-0.49216,0.04921 -0.54138,-0.44294 -0.54138,-0.44294c-0.00078,-0.02943 -0.00274,-0.0591 -0.00553,-0.08894c-0.19272,-0.18148 -0.24913,-0.45044 -0.04501,-0.81189c0.00686,-0.02241 0.0151,-0.04454 0.02487,-0.06636c0.3408,-0.76061 1.95283,-0.95654 2.15332,-0.02285z" fill="#8024bd" stroke="none" stroke-width="0.5"/><path d="M242.45978,181.15612l0.07894,0.08307c0.26219,-0.17282 0.46621,-0.40113 0.616,-0.66451c-0.16673,0.04951 -0.33383,0.07861 -0.48296,0.08682h-0.49462v0c-0.17224,0 -0.32392,-0.08804 -0.41249,-0.22157c-0.22163,0.00765 -0.40968,-0.03623 -0.5164,-0.14971c-0.43457,-0.4621 -0.26273,-0.86295 0.15325,-1.15175c0.0163,-0.07648 0.04836,-0.1449 0.10717,-0.19966c0.22227,-0.20697 0.87866,-0.40314 1.35183,-0.2713c0.20557,-0.01637 0.39998,-0.01154 0.56542,0.01696c-0.13249,-0.75722 -0.52091,-1.47611 -1.11324,-1.8891c-1.53924,-0.45768 -4.08925,0.351 -5.32191,1.41251c-1.24471,1.0719 -0.35367,3.12388 1.22941,3.08955c0,0 0.3941,0 0.47874,0.35178c0.29386,-0.0646 0.48903,0.20864 0.48903,0.20864c0.09456,0.18274 0.34681,0.27574 0.55974,0.27253l0.13317,-0.31072c0.07309,-0.18186 0.25111,-0.31025 0.45911,-0.31025c0.25191,0 0.45984,0.18833 0.49068,0.43187l0.01324,0.09266c0.12539,-0.19333 0.2833,-0.60323 0.4861,-0.59c0.51987,0.03391 0.41742,0.51934 0.40797,0.55873c0.00388,-0.0145 0.02645,-0.09271 0.09829,-0.273l-0.08307,-0.00827c0,0 0,-0.45636 0.43835,-0.49237c0.13022,-0.07291 0.26824,-0.07291 0.26824,-0.07291zM238.2202,182.28668c-0.19512,-0.00296 -0.38642,-0.02691 -0.57174,-0.06939c0.00646,0.04195 0.00646,0.06939 0.00646,0.06939l-0.01903,-0.06522c0.07661,0.27669 0.13567,0.51011 0.16102,0.70757c0.03034,0.00379 0.04864,0.00836 0.04864,0.00836c0.924,0.24307 1.72404,0.7661 2.57456,1.19495c0.57135,-0.16724 1.1133,-0.37906 1.58229,-0.64993l0.415,-0.17111c0,0 0.02022,-0.00809 0.05389,-0.01663c-0.01346,-0.18008 -0.01104,-0.39464 -0.01151,-0.65468c0,0 0,-0.06948 0.02604,-0.15635c-0.47811,0.52307 -1.02246,0.76539 -1.29868,-0.06081c-0.03691,-0.1104 0.0934,0.29955 -0.01197,0.34902c-0.28114,0.13197 -0.61943,0.22304 -0.92528,0.16805c-0.88027,0.29565 -1.19877,0.30933 -1.86689,-0.50703c0,0 -0.04466,-0.06253 -0.07414,-0.1559c-0.05262,0.00973 -0.08866,0.00973 -0.08866,0.00973zM235.83796,178.11472c1.32086,-1.88292 4.79354,-2.84627 6.91023,-2.20756c1.92699,1.39405 2.44186,4.74027 0.33926,6.15513l-0.40384,0.05345l-0.01603,0.10749c0.06965,-0.04669 0.16265,-0.07787 0.28682,-0.07787c0.49462,0 0.49462,0.49462 0.49462,0.49462c-0.0007,0.33999 -0.22343,0.76523 0.14061,0.64091l0.29844,0.09107c0,0 0.46923,0.15641 0.31283,0.62565c-0.15641,0.46923 -0.62565,0.31283 -0.62565,0.31283l-0.12552,-0.05025c-0.19159,-0.05265 -0.34609,-0.10663 -0.47068,-0.16618c-0.08945,0.09385 -0.19425,0.13577 -0.19425,0.13577l-0.2916,0.11153c-0.21812,0.12351 -0.44841,0.23609 -0.68788,0.33881c0.40032,0.15201 0.70266,0.43388 0.72868,0.22453l-0.05944,-0.05285c0,0 0.11996,-0.47985 0.59981,-0.35989c0.47985,0.11996 0.35989,0.59981 0.35989,0.59981l-0.04384,0.1119c0.0803,0.08793 0.12927,0.20496 0.12927,0.33342c0,0.27317 -0.22145,0.49462 -0.49462,0.49462c-0.14815,0 -0.28108,-0.06513 -0.37173,-0.16832c-0.72773,0.15324 -1.57947,-0.20665 -2.42625,-0.66275c-0.90178,0.22652 -1.83868,0.36444 -2.69292,0.45619c-0.01535,0.07387 -0.03544,0.14624 -0.06054,0.21642c0,0 -0.19484,0.45463 -0.64946,0.25979c-0.45463,-0.19484 -0.25979,-0.64946 -0.25979,-0.64946c0.11137,-0.18449 0.05814,-0.46261 -0.05843,-0.64385l0.0398,0.18799c0,0 -0.47985,-0.11996 -0.35989,-0.59981c0.11996,-0.47985 0.59981,-0.35989 0.59981,-0.35989l0.60508,0.32931c0.03755,0.08663 0.06985,0.17721 0.09636,0.27031c0.45844,-0.04868 0.94789,-0.11154 1.44267,-0.19712c-0.4751,-0.26121 -0.92526,-0.4807 -1.32413,-0.57335c0,0 -0.1324,-0.0331 -0.24073,-0.13408c-0.14353,0.06073 -0.32704,0.10924 -0.55789,0.14885c0,0 -0.49462,0 -0.49462,-0.49462c0,-0.49462 0.49462,-0.49462 0.49462,-0.49462c0.31419,0.31419 -0.06239,-0.22795 -0.12229,-0.4294l-0.01903,-0.20654c0,0 0,-0.24582 0.1733,-0.39087c-1.2755,-0.74228 -1.96702,-2.40405 -1.00104,-3.78109z" fill="#8024bd" stroke="none" stroke-width="0.5"/><path d="M201.45,218.55v-77.1h77.1v77.1z" fill="none" stroke="none" stroke-width="NaN"/></g></g></svg>