<svg version="1.1" xmlns="http://www.w3.org/2000/svg" xmlns:xlink="http://www.w3.org/1999/xlink" width="39.5" height="39.5" viewBox="0,0,39.5,39.5"><g transform="translate(-220.25,-160.25)"><g data-paper-data="{&quot;isPaintingLayer&quot;:true}" fill-rule="nonzero" stroke-linejoin="miter" stroke-miterlimit="10" stroke-dasharray="" stroke-dashoffset="0" style="mix-blend-mode: normal"><path d="M250.81253,171.75c0.19681,1.48396 0,13.56872 0,16.2c0,1.72888 -1.07112,2.95 -2.8,2.95c-2.61114,0 -11.83413,0 -16.4,0c-1.69942,0 -2.6,-1.25058 -2.6,-2.95c0,-2.69059 0,-12.07083 0,-16.5c0,-1.51777 1.08223,-2.35 2.6,-2.35c2.58537,0 12.11305,0 16.7,0c1.52197,0 2.30319,1.16604 2.5,2.65z" data-paper-data="{&quot;index&quot;:null}" fill="#2c2c2c" stroke="#777777" stroke-width="1.5" stroke-linecap="butt"/><path d="M234.25015,178.96447l5.46931,-4.33897l6.0304,4.25726" data-paper-data="{&quot;index&quot;:null}" fill="none" stroke="#ffffff" stroke-width="2" stroke-linecap="round"/><path d="M239.89583,185.37451l-0.07247,-10.19974" data-paper-data="{&quot;index&quot;:null}" fill="none" stroke="#ffffff" stroke-width="2" stroke-linecap="round"/><path d="M220.25,199.75v-39.5h39.5v39.5z" fill="none" stroke="none" stroke-width="0" stroke-linecap="butt"/></g></g></svg>