<svg version="1.1" xmlns="http://www.w3.org/2000/svg" xmlns:xlink="http://www.w3.org/1999/xlink" width="81.27777" height="81.27777" viewBox="0,0,81.27777,81.27777"><g transform="translate(-199.77779,-133.77781)"><g data-paper-data="{&quot;isPaintingLayer&quot;:true}" stroke-linejoin="miter" stroke-miterlimit="10" stroke-dasharray="" stroke-dashoffset="0" style="mix-blend-mode: normal"><path d="M199.77779,175.27986v-41.50205h81.27777v81.27777h-81.27777v-37.13543" fill="none" fill-rule="nonzero" stroke="none" stroke-width="NaN" stroke-linecap="butt"/><path d="M223.22265,191.66289c0,-0.60995 -1.46187,-2.05886 1.72824,-2.25818c0.98368,-0.06146 2.43394,-1.01821 3.76,-1.07937c1.57721,-0.07275 5.89199,0.08755 7.66951,0.08755c1.69448,0 11.0205,-0.26392 12.53519,-0.19753c5.74248,0.25171 6.70708,1.33905 6.70708,2.14753c0,1.02173 -0.88142,3.85 -9,3.85c-8.11858,0 -15.4,0.47173 -15.4,-0.55c0,0 -6.6142,-1.05717 -6.71837,-1.01811c-0.26202,0.09825 -1.28164,-0.98189 -1.28164,-0.98189z" data-paper-data="{&quot;index&quot;:null}" fill="#b51b1b" fill-rule="nonzero" stroke="none" stroke-width="NaN" stroke-linecap="butt"/><path d="M237.67266,171.34622c-0.60751,0 -1.1,-0.49249 -1.1,-1.1c0,-0.60752 0.49248,-1.1 1.1,-1.1c0.60751,0 1.1,0.49248 1.1,1.1c0,0.60751 -0.49249,1.1 -1.1,1.1z" data-paper-data="{&quot;index&quot;:null}" fill="none" fill-rule="nonzero" stroke="#871414" stroke-width="1" stroke-linecap="butt"/><path d="M245.62265,177.34622c-0.60751,0 -1.1,-0.49249 -1.1,-1.1c0,-0.60751 0.49249,-1.1 1.1,-1.1c0.60751,0 1.1,0.49249 1.1,1.1c0,0.60751 -0.49249,1.1 -1.1,1.1z" data-paper-data="{&quot;index&quot;:null}" fill="none" fill-rule="nonzero" stroke="#871414" stroke-width="1" stroke-linecap="butt"/><path d="M234.08099,179.19622c-1.21502,0 -2.2,-0.98498 -2.2,-2.2c0,-1.21502 0.98498,-2.2 2.2,-2.2c1.21502,0 2.2,0.98498 2.2,2.2c0,1.21502 -0.98498,2.2 -2.2,2.2z" data-paper-data="{&quot;index&quot;:null}" fill="none" fill-rule="nonzero" stroke="#871414" stroke-width="1" stroke-linecap="butt"/><path d="M242.50599,164.97956c-1.5464,0 -2.8,-1.2536 -2.8,-2.8c0,-1.5464 1.2536,-2.8 2.8,-2.8c1.5464,0 2.8,1.2536 2.8,2.8c0,1.5464 -1.2536,2.8 -2.8,2.8z" data-paper-data="{&quot;index&quot;:null}" fill="none" fill-rule="nonzero" stroke="#871414" stroke-width="1" stroke-linecap="butt"/><path d="M248.05642,186.24187c-0.15456,1.70817 4.03777,3.5549 3.7588,3.77743c-0.96498,0.76976 -5.82018,0.13739 -6.93268,0.34135c-0.92142,0.16894 -4.60841,1.21083 -5.53145,1.41679c-2.28538,0.50994 -4.36726,-1.43602 -5.59315,-1.45305c-0.81798,-0.01136 -5.89308,1.1374 -6.7279,0.56364c-0.25165,-0.17296 3.70445,-2.22444 3.62806,-4.0924" data-paper-data="{&quot;index&quot;:null}" fill="none" fill-rule="nonzero" stroke="#ed2424" stroke-width="2" stroke-linecap="butt"/><path d="M244.89098,168.32578c-0.77692,0 -1.40674,-0.62982 -1.40674,-1.40674c0,-0.77692 0.62982,-1.40674 1.40674,-1.40674c0.77692,0 1.40674,0.62982 1.40674,1.40674c0,0.77692 -0.62982,1.40674 -1.40674,1.40674z" data-paper-data="{&quot;index&quot;:null}" fill="#ffffff" fill-rule="nonzero" stroke="none" stroke-width="0.5" stroke-linecap="butt"/><path d="M235.55022,168.32578c-0.77692,0 -1.40674,-0.62982 -1.40674,-1.40674c0,-0.77692 0.62982,-1.40674 1.40674,-1.40674c0.77692,0 1.40674,0.62982 1.40674,1.40674c0,0.77692 -0.62982,1.40674 -1.40674,1.40674z" data-paper-data="{&quot;index&quot;:null}" fill="#ffffff" fill-rule="nonzero" stroke="#63ec23" stroke-width="0" stroke-linecap="butt"/><path d="M241.35599,169.82123h-5.2" data-paper-data="{&quot;index&quot;:null}" fill="none" fill-rule="nonzero" stroke="#ededed" stroke-width="1" stroke-linecap="round"/><path d="M249.93542,172.84728c0,0 -0.44691,-0.61089 -0.8299,-1.10211c-0.09694,-0.12433 -0.59314,-0.52847 -0.86726,-0.68178c-0.46752,-0.26147 -0.79809,-0.30233 -1.08843,-0.66925c-0.53332,-0.67399 -0.28108,-1.48019 -0.28108,-1.48019" data-paper-data="{&quot;index&quot;:null}" fill="none" fill-rule="nonzero" stroke="#bd971c" stroke-width="1" stroke-linecap="round"/><path d="M244.76875,169.44728c-1.60163,0 -2.9,-1.29837 -2.9,-2.9c0,-1.60163 1.29837,-2.9 2.9,-2.9c1.60163,0 2.9,1.29837 2.9,2.9c0,1.60163 -1.29837,2.9 -2.9,2.9z" data-paper-data="{&quot;index&quot;:null}" fill="none" fill-rule="nonzero" stroke="#edbd24" stroke-width="1.5" stroke-linecap="butt"/><path d="M244.09748,156.32935c0.14711,0.59605 -1.92237,1.59305 -4.62217,2.22619c-2.69925,0.63313 -5.0073,0.66323 -5.15386,0.06718c-0.14711,-0.59605 1.92237,-1.59305 4.62217,-2.22619c2.69925,-0.63313 5.00675,-0.66323 5.15386,-0.06718" fill="#3d79cc" fill-rule="evenodd" stroke="none" stroke-width="1" stroke-linecap="butt"/><path d="M232.99981,160.95959c0,0 -1.74112,-2.08968 -1.7231,-2.84542c0.01939,-0.8135 0.73564,-1.87508 0.73564,-1.87508" data-paper-data="{&quot;index&quot;:null}" fill="none" fill-rule="nonzero" stroke="#ffffff" stroke-width="2" stroke-linecap="round"/><path d="M247.04214,156.044c0,0 0.88162,0.89573 0.8222,1.64927c-0.05217,0.66159 -1.15982,2.63211 -1.15982,2.63211" data-paper-data="{&quot;index&quot;:null}" fill="none" fill-rule="nonzero" stroke="#ffffff" stroke-width="2" stroke-linecap="round"/><path d="M230.6449,176.57392c0.0377,-1.83788 0.07868,-3.11174 0.07868,-3.11174c0,0 -0.0779,-7.80327 3.26364,-12.40504c3.34155,-4.60177 8.67709,-5.76361 12.94202,0.10978c4.26493,5.87339 1.57555,12.29526 1.57555,12.29526l-0.00002,-0.00001c0,0 -0.0011,0.36422 -0.00697,0.98164" data-paper-data="{&quot;index&quot;:null}" fill="none" fill-rule="nonzero" stroke="#ed2424" stroke-width="2" stroke-linecap="butt"/><path d="M244.09748,156.32935c0,0 -3.91416,-0.55252 -6.96879,0.68688c-0.43858,0.17414 -0.85953,0.39235 -1.25789,0.66754c-0.44629,0.30259 -0.85402,0.66807 -1.21491,1.11417c-0.03581,0.02311 -0.07493,0.03009 -0.1135,0.02687c-0.19725,-0.01935 -0.37191,-0.37086 -0.34712,-0.61701l1.44632,-12.90348c0.06336,-0.57186 0.82922,-0.75191 1.15651,-0.26659l7.25199,10.87992z" fill="#3029ff" fill-rule="evenodd" stroke="none" stroke-width="1" stroke-linecap="butt"/><path d="M242.96108,156.23175c0.02667,0.03055 -1.56985,1.30413 -3.63298,1.69461c-1.60212,0.30323 -3.58486,-0.50693 -4.67248,0.87071c0,0 -0.26998,0.17575 -0.4496,-0.40364c-0.01763,-0.05643 -0.01873,-0.12308 -0.01157,-0.18543l1.44852,-12.90563c0.04463,-0.41922 0.46943,-0.62829 0.81986,-0.5165c0,0 -0.65071,6.33994 -0.281,9.50616c0.34051,2.92005 1.62704,0.26229 6.77925,1.93971" fill="#3b36e6" fill-rule="evenodd" stroke="none" stroke-width="1" stroke-linecap="butt"/><path d="M235.21293,149.10952c0.01212,0.00268 0.01873,0.00645 0.03196,0.01452l0.48486,0.34022l0.55704,-0.20102c0.18293,-0.0645 0.35979,0.10427 0.30194,0.28325l-0.17742,0.54983l0.3675,0.46168c0.1146,0.14457 0.00882,0.36225 -0.18348,0.36279l-0.5934,0.00537l-0.33555,0.48104c-0.10358,0.15694 -0.34877,0.12523 -0.40938,-0.05375l-0.19174,-0.55252l-0.03692,-0.0129z" fill="#e6ac00" fill-rule="evenodd" stroke="none" stroke-width="1" stroke-linecap="butt"/><path d="M242.15759,153.0722l-0.27935,0.17521l-0.03141,0.84704c-0.01267,0.27411 -0.34051,0.416 -0.55759,0.24562l-0.67109,-0.54552l-0.83804,0.23326c-0.27053,0.07418 -0.50966,-0.18543 -0.40772,-0.44126l0.32287,-0.78738l-0.48376,-0.7057c-0.15758,-0.22843 0.02204,-0.53532 0.30414,-0.51811l0.86945,0.0575l0.4485,-0.55144z" fill="#ffbf00" fill-rule="evenodd" stroke="none" stroke-width="1" stroke-linecap="butt"/><path d="M237.27938,156.35036l-0.26392,0.41707l0.1135,0.24884c-0.43858,0.17361 -0.85953,0.39235 -1.25844,0.667c-0.0303,-0.02418 -0.054,-0.0645 -0.05455,-0.11287l-0.03912,-0.49017l-0.43527,-0.24186c-0.14105,-0.07847 -0.12673,-0.27679 0.01818,-0.33861l0.46227,-0.19295l0.10358,-0.47566c0.03251,-0.15372 0.23637,-0.20423 0.34106,-0.086l0.32728,0.37139l0.49313,-0.05482c0.16199,-0.01666 0.27218,0.15586 0.19229,0.28862" fill="#e6ac00" fill-rule="evenodd" stroke="none" stroke-width="1" stroke-linecap="butt"/><path d="M237.46098,153.45804c0.05785,0.23756 -0.09201,0.47566 -0.33555,0.53263c-0.24353,0.05643 -0.48817,-0.09029 -0.54602,-0.32786c-0.0584,-0.23756 0.09201,-0.47566 0.33555,-0.53209c0.24353,-0.05697 0.48817,0.08975 0.54602,0.32732" fill="#ffbf00" fill-rule="evenodd" stroke="none" stroke-width="1" stroke-linecap="butt"/><path d="M238.00232,146.84791c-0.0292,0.01827 -0.06006,0.03064 -0.09256,0.03816c-0.23582,0.05482 -0.47329,-0.08331 -0.52949,-0.31334c-0.04077,-0.16715 0.02094,-0.33108 0.14932,-0.43266z" fill="#ffbf00" fill-rule="evenodd" stroke="none" stroke-width="1" stroke-linecap="butt"/><path d="M236.59308,150.9211l-0.51792,0.00537c0.01102,-0.53747 0.02755,-1.08031 0.0551,-1.60702l0.15427,-0.05375c0.18733,-0.0645 0.36365,0.10212 0.30304,0.27948l-0.17631,0.55359l0.36916,0.45684c0.1102,0.14511 0.00551,0.36548 -0.18733,0.36548" fill="#ffbf00" fill-rule="evenodd" stroke="none" stroke-width="1" stroke-linecap="butt"/><path d="M238.13655,186.49622c-0.96956,0 -1.75556,-0.78599 -1.75556,-1.75556c0,-0.96956 0.78599,-1.75556 1.75556,-1.75556c0.96956,0 1.75556,0.78599 1.75556,1.75556c0,0.96956 -0.78599,1.75556 -1.75556,1.75556z" data-paper-data="{&quot;index&quot;:null}" fill="none" fill-rule="nonzero" stroke="#871414" stroke-width="1" stroke-linecap="butt"/><path d="M244.96155,186.16844c-0.60751,0 -1.1,-0.49249 -1.1,-1.1c0,-0.60752 0.49248,-1.1 1.1,-1.1c0.60751,0 1.1,0.49248 1.1,1.1c0,0.60751 -0.49249,1.1 -1.1,1.1z" data-paper-data="{&quot;index&quot;:null}" fill="none" fill-rule="nonzero" stroke="#871414" stroke-width="1" stroke-linecap="butt"/><g fill-rule="nonzero" stroke-width="1"><path d="M241.86299,176.77254l0.98548,-6.89759l6.13577,2.13296l1.38732,0.12971l5.94839,-1.06517l-0.98548,6.89759l-5.66774,1.23417l-1.591,-0.13311z" fill="#e1e1e1" stroke="#fbfbfb" stroke-linecap="butt"/><path d="M241.58444,178.01781l0.98548,-6.89759l6.27651,2.14547l1.41804,0.13244l6.07504,-1.05391l-0.98548,6.89759l-5.78774,1.22351l-1.62618,-0.13624z" fill="#3029ff" stroke="#2a26a8" stroke-linecap="butt"/><path d="M248.49575,173.3139l-0.8861,6.90642" fill="none" stroke="#0600a8" stroke-linecap="round"/><path d="M249.18838,180.44004l0.99668,-6.97598" fill="none" stroke="#0600a8" stroke-linecap="round"/></g><path d="M247.03558,186.73198c0.43512,0.00841 1.6558,-0.84909 1.84346,-1.06551c0.59669,-0.68813 4.49356,-4.27337 5.86088,-7.55888c1.36732,-3.28551 -0.70897,-1.97213 -1.81012,-2.17458c-1.18102,-0.21714 -3.31218,1.36166 -3.31218,2.22774c0,0.73792 -0.83434,2.30313 -1.66514,3.82259" fill="none" fill-rule="nonzero" stroke="#ed2424" stroke-width="1.5" stroke-linecap="butt"/><path d="M252.59177,178.30899l0.90616,-2.33923" fill="none" fill-rule="nonzero" stroke="#ed2424" stroke-width="1.5" stroke-linecap="round"/><path d="M232.87715,178.96958c-0.20932,1.86737 -0.45347,3.91853 -0.14639,4.6677c0.32858,0.8016 -1.04439,3.07116 -2.21955,3.31812c-1.09568,0.23025 -2.51857,2.23333 -2.49988,-1.32617c0.0187,-3.55951 2.26424,-8.35582 2.55528,-9.21903c0.0891,-0.26426 0.43962,-0.4729 0.83248,-0.62884" data-paper-data="{&quot;index&quot;:null}" fill="none" fill-rule="nonzero" stroke="#ed2424" stroke-width="1.5" stroke-linecap="butt"/><path d="M229.92258,184.62809l0.049,2.50877" data-paper-data="{&quot;index&quot;:null}" fill="none" fill-rule="nonzero" stroke="#ed2424" stroke-width="1.5" stroke-linecap="round"/></g></g></svg>