<svg version="1.1" xmlns="http://www.w3.org/2000/svg" xmlns:xlink="http://www.w3.org/1999/xlink" width="122" height="122" viewBox="0,0,122,122"><g transform="translate(-179,-119)"><g data-paper-data="{&quot;isPaintingLayer&quot;:true}" fill-rule="nonzero" stroke-linejoin="miter" stroke-miterlimit="10" stroke-dasharray="" stroke-dashoffset="0" style="mix-blend-mode: normal"><path d="M220.47825,202.26027c0,0 -5.02534,-1.21312 -8.21333,-6.44361c-4.82666,-7.91899 -5.99274,-13.60217 -6.16142,-24.02685c-0.1436,-8.87428 2.52834,-20.20047 8.98309,-18.7994c3.64964,0.79219 4.96388,9.44884 3.02741,18.95102c-1.93646,9.5022 2.36426,30.31883 2.36426,30.31883z" fill="#cecece" stroke="#000000" stroke-width="2" stroke-linecap="butt"/><path d="M231.05735,153.89634c0,0 -8.15641,-9.06531 -7.50546,-10.48347c0.431,-0.93899 11.62337,1.72014 11.62337,1.72014" fill="#cecece" stroke="#000000" stroke-width="2" stroke-linecap="round"/><path d="M237.21229,142.40419c0,0 -6.19167,-9.16489 -5.76196,-10.22545c0.49841,-1.23013 11.62336,1.72014 11.62336,1.72014" fill="#cecece" stroke="#000000" stroke-width="2" stroke-linecap="round"/><path d="M268.06311,151.66714c-2.10442,12.45204 6.9674,64.19798 -8.27868,61.94172c-12.41761,-1.83768 -28.68016,-0.451 -36.63277,-6.5315c-4.33058,-3.31112 -4.18835,-11.11715 -4.24345,-17.61353c-0.22123,-26.08424 23.37537,-56.24563 23.37537,-56.24563c0,0 2.21718,0.52977 5.32343,1.61882c7.72439,2.70819 22.15947,6.75117 20.45611,16.83011z" fill="#cecece" stroke="#000000" stroke-width="2" stroke-linecap="butt"/><path d="M249.25057,148.34356l-7.32211,9.34622" fill="none" stroke="#ffb0b0" stroke-width="1" stroke-linecap="round"/><path d="M262.94828,200.29182c-1.20664,8.15356 -6.05198,10.75388 -13.89431,9.59329c-7.84233,-1.16058 -13.81893,-4.67499 -12.61228,-12.82857c1.20664,-8.15357 7.97766,-14.59349 15.81999,-13.4329c7.84232,1.16058 11.89326,8.51461 10.68661,16.66817z" fill="#e2e2e2" stroke="#000000" stroke-width="2" stroke-linecap="butt"/><path d="M270.74277,157.8383c7.28606,3.42066 16.58233,6.42151 9.66108,10.53707c-0.14157,0.08418 -0.28932,0.16764 -0.4434,0.25036c-2.95491,1.5864 -3.05398,10.23852 -6.74543,10.51883c-0.09833,0.00747 -1.22923,3.03879 -1.34162,3.04329c-5.98495,0.23991 -30.47267,-6.69298 -31.11475,-9.33436c-1.56433,-6.43535 2.17441,-16.04143 11.76179,-16.83554c9.58738,-0.79411 18.22233,1.82037 18.22233,1.82037z" fill="#e2e2e2" stroke="#000000" stroke-width="2" stroke-linecap="butt"/><path d="M254.38442,172.0228c0,0 3.32509,-1.31034 4.763,-1.42748c3.68116,-0.2999 17.89418,-0.41835 17.89418,-0.41835l-2.90881,7.94548c0,0 -9.30595,-2.60143 -11.61628,-3.55145c-2.48995,-1.02389 -6.11598,-1.13733 -7.16754,-1.91617c-0.35814,-0.26526 -0.96456,-0.63203 -0.96456,-0.63203z" fill="#ffffff" stroke="#000000" stroke-width="0" stroke-linecap="butt"/><path d="M283.20208,162.69326c-0.32691,2.20899 -2.99246,4.49016 -5.8026,4.07429c-2.81014,-0.41587 -4.70073,-3.3713 -4.37382,-5.5803c0.32691,-2.20899 2.9885,-1.95378 5.79865,-1.5379c2.81014,0.41587 4.70468,0.8349 4.37777,3.04391z" fill="#4d4d4d" stroke="#000000" stroke-width="2" stroke-linecap="butt"/><path d="M243.08894,152.85802c0.16909,-1.1426 1.28191,-1.92444 2.48555,-1.74631c1.20364,0.17813 2.04231,1.24877 1.87322,2.39136c-0.16909,1.1426 -1.2819,1.92444 -2.48555,1.74631c-1.20364,-0.17813 -2.04231,-1.24877 -1.87322,-2.39136z" fill="#000000" stroke="none" stroke-width="0.5" stroke-linecap="butt"/><path d="M261.23298,152.65382c0.16909,-1.1426 1.28191,-1.92444 2.48555,-1.74631c1.20364,0.17813 2.04231,1.24877 1.87322,2.39136c-0.16909,1.1426 -1.2819,1.92444 -2.48555,1.74631c-1.20364,-0.17813 -2.04231,-1.24877 -1.87322,-2.39136z" fill="#000000" stroke="none" stroke-width="0.5" stroke-linecap="butt"/><path d="M254.11762,172.84979c0,0 8.00664,1.52957 13.36752,2.35949c2.90487,0.4497 7.59506,3.34219 7.59506,3.34219" fill="none" stroke="#000000" stroke-width="2" stroke-linecap="round"/><path d="M265.59872,171.18979l-1.79161,6.35969c0,0 -1.27506,0.13119 -1.66595,-1.01568c-0.47511,-1.39386 -1.04835,-6.3012 -1.04835,-6.3012" data-paper-data="{&quot;index&quot;:null}" fill="#ffffff" stroke="#000000" stroke-width="2" stroke-linecap="round"/><path d="M277.63001,171.2172c0,0 -2.091,4.68417 -2.99649,5.84391c-0.74499,0.95422 -1.90623,0.40983 -1.90623,0.40983l0.39209,-6.59703" fill="#ffffff" stroke="#000000" stroke-width="2" stroke-linecap="round"/><path d="M243.01429,158.09209l-1.28449,-1.6398" fill="none" stroke="#ffb0b0" stroke-width="1" stroke-linecap="round"/><path d="M244.04144,156.31116l-1.28448,-1.63979" fill="none" stroke="#ffb0b0" stroke-width="1" stroke-linecap="round"/><path d="M248.25496,148.47812l1.28449,1.63979" fill="none" stroke="#ffb0b0" stroke-width="1" stroke-linecap="round"/><path d="M253.78385,172.02638c0,0 6.28016,-1.96847 9.93469,-1.66861c1.46772,0.12044 14.84625,-0.17257 14.84625,-0.17257" fill="none" stroke="#000000" stroke-width="2" stroke-linecap="round"/><path d="M244.75355,147.06688l3.13021,4.27426" fill="none" stroke="#000000" stroke-width="1.5" stroke-linecap="round"/><path d="M265.30167,147.49127l-4.23402,3.18443" data-paper-data="{&quot;index&quot;:null}" fill="none" stroke="#000000" stroke-width="1.5" stroke-linecap="round"/><path d="M267.52192,174.9779l-0.76993,-3.57985" fill="none" stroke="#000000" stroke-width="0.5" stroke-linecap="round"/><path d="M268.27034,174.79983l1.87835,-3.91" fill="none" stroke="#000000" stroke-width="0.5" stroke-linecap="round"/><path d="M271.29567,175.8252l-0.5608,-4.99303" fill="none" stroke="#000000" stroke-width="0.5" stroke-linecap="round"/><path d="M259.08975,172.43031l0.73258,-1.04689" fill="none" stroke="#000000" stroke-width="0.5" stroke-linecap="round"/><path d="M234.84555,209.67002c0,0 0.36791,4.92003 -2.3604,6.40507c-1.484,0.80775 -6.46444,-1.30234 -6.99011,-1.40449c-1.25361,-0.2436 0.98822,-6.62554 0.98822,-6.62554" fill="#cecece" stroke="#000000" stroke-width="2" stroke-linecap="round"/><path d="M267.02149,206.96433c0,0 2.80137,4.06132 1.19595,6.72058c-0.87322,1.44643 -6.23767,2.13926 -6.743,2.31646c-1.20512,0.42259 -2.49175,-6.21817 -2.49175,-6.21817" fill="#cecece" stroke="#000000" stroke-width="2" stroke-linecap="round"/><path d="M240.84268,185.24514c0,0 -2.94903,3.95541 -5.98257,3.28713c-1.65001,-0.36348 -4.02587,-5.22277 -4.35571,-5.64463c-0.78659,-1.00606 5.09131,-4.35351 5.09131,-4.35351" fill="#cecece" stroke="#000000" stroke-width="2" stroke-linecap="round"/><path d="M268.65154,183.4338c0,0 4.43922,2.15297 4.35307,5.25806c-0.04686,1.68893 -4.37294,4.93583 -4.72528,5.33908c-0.84028,0.96168 -5.23292,-4.18223 -5.23292,-4.18223" fill="#cecece" stroke="#000000" stroke-width="2" stroke-linecap="round"/><path d="M179,241v-122h122v122z" fill="none" stroke="none" stroke-width="none" stroke-linecap="butt"/></g></g></svg>