<svg version="1.1" xmlns="http://www.w3.org/2000/svg" xmlns:xlink="http://www.w3.org/1999/xlink" width="122" height="122" viewBox="0,0,122,122"><g transform="translate(-179,-119)"><g data-paper-data="{&quot;isPaintingLayer&quot;:true}" fill-rule="nonzero" stroke-linejoin="miter" stroke-miterlimit="10" stroke-dasharray="" stroke-dashoffset="0" style="mix-blend-mode: normal"><path d="M228.87008,207.8186c0,0 -5.16421,0.23788 -9.68553,-3.89479c-6.84532,-6.25689 -9.55147,-11.38865 -12.6234,-21.35187c-2.61507,-8.48144 -3.21097,-20.10326 3.37831,-20.55967c3.7257,-0.25807 7.40414,7.68762 8.1971,17.35264c0.79298,9.66503 10.73354,28.45369 10.73354,28.45369z" fill="#cecece" stroke="#000000" stroke-width="2" stroke-linecap="butt"/><path d="M225.52825,158.42408c0,0 -10.3627,-6.42817 -10.1335,-7.97166c0.15176,-1.02197 11.6415,-1.59281 11.6415,-1.59281" fill="#cecece" stroke="#000000" stroke-width="2" stroke-linecap="round"/><path d="M228.23059,145.67064c0,0 -8.50386,-7.07223 -8.38727,-8.21058c0.13522,-1.32036 11.64149,-1.59281 11.64149,-1.59281" fill="#cecece" stroke="#000000" stroke-width="2" stroke-linecap="round"/><path d="M260.44077,145.95362c1.45512,12.54451 24.6108,59.7012 9.34094,61.79045c-12.43698,1.70165 -27.66601,7.57277 -36.99983,3.95387c-5.08271,-1.97066 -7.12513,-9.50609 -8.99145,-15.72886c-7.49365,-24.98563 6.74568,-60.53491 6.74568,-60.53491c0,0 2.27693,-0.11019 5.5637,0.06848c8.17331,0.44433 23.16316,0.29717 24.34097,10.45095z" fill="#cecece" stroke="#000000" stroke-width="2" stroke-linecap="butt"/><path d="M240.16846,159.4286l-1.74598,-11.74379" fill="none" stroke="#ffb0b0" stroke-width="1" stroke-linecap="round"/><path d="M269.10244,194.07323c1.11733,8.16628 -2.80955,12.01577 -10.66411,13.09045c-7.85456,1.07468 -14.57461,-0.63172 -15.69193,-8.79801c-1.11733,-8.16629 3.58689,-16.24029 11.44145,-17.31497c7.85455,-1.07467 13.79728,4.85625 14.9146,13.02252z" fill="#e2e2e2" stroke="#000000" stroke-width="2" stroke-linecap="butt"/><path d="M263.57527,143.4584c7.86795,-1.69792 17.07985,-4.94857 14.07166,2.52086c-0.06153,0.15277 -0.12842,0.30874 -0.20077,0.46794c-1.38779,3.05324 3.77975,9.99337 1.01432,12.45463c-0.07366,0.06556 0.86514,3.16177 0.77849,3.2335c-4.61369,3.81981 -28.2899,13.15528 -30.4021,11.44421c-5.14609,-4.16877 -7.99784,-14.07445 -0.85558,-20.51933c7.14226,-6.44488 15.594,-9.60179 15.594,-9.60179z" fill="#e2e2e2" stroke="#000000" stroke-width="2" stroke-linecap="butt"/><path d="M259.16823,164.65684c0,0 1.84954,-3.05818 2.92191,-4.02322c2.74536,-2.47059 13.97558,-11.18301 13.97558,-11.18301l2.50479,8.08195c0,0 -8.9774,3.57415 -11.3906,4.21959c-2.60084,0.69562 -5.55299,2.8041 -6.86144,2.8224c-0.44563,0.00623 -1.15024,0.08229 -1.15024,0.08229z" fill="#ffffff" stroke="#000000" stroke-width="0" stroke-linecap="butt"/><path d="M276.42665,139.76416c1.0795,1.9548 0.34308,5.38504 -2.14367,6.75831c-2.48676,1.37326 -5.78219,0.16952 -6.8617,-1.78527c-1.0795,-1.9548 1.19173,-3.36574 3.6785,-4.739c2.48676,-1.37326 4.24736,-2.18884 5.32687,-0.23403z" fill="#4d4d4d" stroke="#000000" stroke-width="2" stroke-linecap="butt"/><path d="M237.46008,155.26239c-0.71294,-0.90877 -0.51482,-2.25427 0.4425,-3.00529c0.95732,-0.75102 2.3113,-0.62316 3.02424,0.2856c0.71294,0.90877 0.51483,2.25427 -0.4425,3.00529c-0.95732,0.75102 -2.3113,0.62316 -3.02424,-0.2856z" fill="#000000" stroke="none" stroke-width="0.5" stroke-linecap="butt"/><path d="M251.27517,145.5877c-0.35895,-1.09785 0.2876,-2.29435 1.44411,-2.67247c1.15651,-0.37812 2.38502,0.20533 2.74396,1.30317c0.35895,1.09785 -0.28759,2.29435 -1.44411,2.67247c-1.15651,0.37812 -2.38502,-0.20533 -2.74396,-1.30317z" fill="#000000" stroke="none" stroke-width="0.5" stroke-linecap="butt"/><path d="M259.45753,165.47623c0,0 7.29426,-3.63863 12.0604,-6.22932c2.5826,-1.40381 8.06609,-1.94768 8.06609,-1.94768" fill="none" stroke="#000000" stroke-width="2" stroke-linecap="round"/><path d="M267.58062,157.1945l2.43161,6.14352c0,0 -0.93437,0.87747 -1.94061,0.20251c-1.22298,-0.8203 -4.65445,-4.37497 -4.65445,-4.37497" data-paper-data="{&quot;index&quot;:null}" fill="#ffffff" stroke="#000000" stroke-width="2" stroke-linecap="round"/><path d="M277.16438,149.92099c0,0 1.17756,4.9927 1.16075,6.46396c-0.0138,1.21052 -1.26731,1.48175 -1.26731,1.48175l-3.6884,-5.48363" fill="#ffffff" stroke="#000000" stroke-width="2" stroke-linecap="round"/><path d="M239.13367,158.72145l2.07377,0.19584" fill="none" stroke="#ffb0b0" stroke-width="1" stroke-linecap="round"/><path d="M238.54778,156.75081l2.07374,0.19585" fill="none" stroke="#ffb0b0" stroke-width="1" stroke-linecap="round"/><path d="M239.90898,148.6958l-2.07375,-0.19584" fill="none" stroke="#ffb0b0" stroke-width="1" stroke-linecap="round"/><path d="M258.69284,165.02385c0,0 3.80032,-5.37336 6.88817,-7.35088c1.24014,-0.7942 11.70094,-9.13942 11.70094,-9.13942" fill="none" stroke="#000000" stroke-width="2" stroke-linecap="round"/><path d="M234.40223,150.07031l5.25552,0.66865" fill="none" stroke="#000000" stroke-width="1.5" stroke-linecap="round"/><path d="M250.24388,143.89161l2.36636,-4.74003" data-paper-data="{&quot;index&quot;:null}" fill="none" stroke="#000000" stroke-width="1.5" stroke-linecap="round"/><path d="M268.62396,156.66082l2.78292,2.3798" fill="none" stroke="#000000" stroke-width="0.5" stroke-linecap="round"/><path d="M271.01682,154.19705l0.87723,4.24815" fill="none" stroke="#000000" stroke-width="0.5" stroke-linecap="round"/><path d="M271.44798,153.79577l3.47353,3.63035" fill="none" stroke="#000000" stroke-width="0.5" stroke-linecap="round"/><path d="M263.1047,160.85106l0.05225,1.27669" fill="none" stroke="#000000" stroke-width="0.5" stroke-linecap="round"/><path d="M244.73465,210.9233c0,0 1.72668,4.62176 -0.47864,6.80936c-1.19953,1.18989 -6.57101,0.55392 -7.10431,0.60258c-1.27178,0.11602 -0.90053,-6.63802 -0.90053,-6.63802" fill="#cecece" stroke="#000000" stroke-width="2" stroke-linecap="round"/><path d="M273.72346,202.54248c0,0 3.8237,3.11791 3.02441,6.11959c-0.43475,1.63268 -5.39257,3.79542 -5.82834,4.10664c-1.03925,0.74219 -4.12845,-5.27544 -4.12845,-5.27544" fill="#cecece" stroke="#000000" stroke-width="2" stroke-linecap="round"/><path d="M243.67538,185.79526c0,0 -1.72768,4.62138 -4.82718,4.82645c-1.68589,0.11156 -5.32373,-3.89138 -5.75823,-4.2044c-1.03616,-0.7465 3.67369,-5.60166 3.67369,-5.60166" fill="#cecece" stroke="#000000" stroke-width="2" stroke-linecap="round"/><path d="M264.25273,175.7486c0,0 1.86246,-4.56871 4.96666,-4.68282c1.68844,-0.06207 5.20733,4.04583 5.63244,4.37145c1.01382,0.77657 -3.83637,5.49152 -3.83637,5.49152" fill="#cecece" stroke="#000000" stroke-width="2" stroke-linecap="round"/><path d="M179,241v-122h122v122z" fill="none" stroke="none" stroke-width="none" stroke-linecap="butt"/></g></g></svg>