<svg version="1.1" xmlns="http://www.w3.org/2000/svg" xmlns:xlink="http://www.w3.org/1999/xlink" width="59.55556" height="59.55556" viewBox="0,0,59.55556,59.55556"><g transform="translate(-210.22222,-150.22222)"><g data-paper-data="{&quot;isPaintingLayer&quot;:true}" stroke-linejoin="miter" stroke-miterlimit="10" stroke-dasharray="" stroke-dashoffset="0" style="mix-blend-mode: normal"><path d="M239.84626,195.14667c-1.38376,-0.01949 -1.52182,-0.48956 -2.48623,-1.48171c-2.89325,-2.97646 -6.85303,-7.05013 -11.23932,-11.56258c-0.90571,-0.93176 -1.3195,-1.07442 -1.26021,-2.37248c0.05929,-1.29806 0.48984,-1.52209 1.48218,-2.48668c4.44248,-4.31828 8.51863,-8.28047 11.38331,-11.06507c0.95489,-0.9282 1.10212,-1.39135 2.43176,-1.31784c1.32965,0.07351 1.58947,0.55916 2.59718,1.59586c4.25028,4.37253 7.89557,8.12265 10.89082,11.20405c0.99841,1.02713 1.46589,1.1848 1.49777,2.61687c0.03188,1.43207 -0.43135,1.46523 -1.38625,2.39343c-0.95489,0.9282 -8.40631,8.17129 -11.38331,11.06507c-0.99234,0.9646 -1.14394,1.43058 -2.5277,1.41109z" fill="#131423" fill-rule="nonzero" stroke="#ffffff" stroke-width="1" stroke-linecap="butt"/><path d="M239.84626,195.14667c-1.38376,-0.01949 -1.52182,-0.48956 -2.48623,-1.48171c-2.89325,-2.97646 -6.85303,-7.05013 -11.23932,-11.56258c-0.90571,-0.93176 -1.3195,-1.07442 -1.26021,-2.37248c0.05929,-1.29806 0.48984,-1.52209 1.48218,-2.48668c4.44248,-4.31828 8.51863,-8.28047 11.38331,-11.06507c0.95489,-0.9282 1.10212,-1.39135 2.43176,-1.31784c1.32965,0.07351 1.58947,0.55916 2.59718,1.59586c4.25028,4.37253 7.89557,8.12265 10.89082,11.20405c0.99841,1.02713 1.46589,1.1848 1.49777,2.61687c0.03188,1.43207 -0.43135,1.46523 -1.38625,2.39343c-0.95489,0.9282 -8.40631,8.17129 -11.38331,11.06507c-0.99234,0.9646 -1.14394,1.43058 -2.5277,1.41109z" fill="none" fill-rule="nonzero" stroke="#ffffff" stroke-width="1" stroke-linecap="butt"/><path d="M235.85714,197.57143v-8.85714h8.85714v8.85714z" fill="none" fill-rule="nonzero" stroke="none" stroke-width="0" stroke-linecap="butt"/><path d="M245.71541,188.14979c0.80753,-0.29404 1.70053,0.12224 1.99456,0.92976c0.69262,1.9022 -2.91709,4.01207 -2.91709,4.01207c-1.26309,-0.96996 -3.54989,-3.17494 -2.57994,-4.43804c0.94774,-1.23417 2.1819,-0.28642 2.1819,-0.28642c0.17926,0.13766 0.35852,0.27532 0.53779,0.41298c0.17754,-0.28114 0.44616,-0.50778 0.78278,-0.63035z" fill="#ff5a5a" fill-rule="nonzero" stroke="#ff2626" stroke-width="1.5" stroke-linecap="butt"/><path d="M236.93762,188.14977c0.80753,-0.29404 1.70053,0.12224 1.99456,0.92976c0.69262,1.9022 -2.91709,4.01207 -2.91709,4.01207c-1.26309,-0.96996 -3.54989,-3.17494 -2.57994,-4.43804c0.94774,-1.23417 2.1819,-0.28642 2.1819,-0.28642c0.17926,0.13766 0.35852,0.27532 0.53779,0.41298c0.17754,-0.28114 0.44616,-0.50778 0.78278,-0.63035z" fill="#ff5a5a" fill-rule="nonzero" stroke="#ff2626" stroke-width="1.5" stroke-linecap="butt"/><g><path d="M248.6148,180.08236c0,3.35979 -3.74758,6.08344 -8.37046,6.08344c-4.62286,0 -8.37046,-2.72365 -8.37046,-6.08344c0,-1.25595 -0.75704,-3.52076 0.14028,-4.48987c1.50312,-1.62337 5.3354,-1.59358 8.23017,-1.59358c2.70377,0 7.0292,0.10835 8.5595,1.55407c1.08619,1.02616 -0.18905,3.13462 -0.18905,4.52937z" fill="#936131" fill-rule="nonzero" stroke="#ad5804" stroke-width="1.5" stroke-linecap="butt"/><path d="M249.07219,176.42315c0,1.94514 -3.91141,3.522 -8.73637,3.522c-4.82496,0 -8.73637,-1.57686 -8.73637,-3.522c0,-1.94514 3.91141,-3.522 8.73637,-3.522c4.82496,0 8.73637,1.57686 8.73637,3.522z" fill="#936131" fill-rule="nonzero" stroke="#ad5804" stroke-width="1.5" stroke-linecap="butt"/><path d="M247.7,177.93258c0,0.95994 -3.23561,1.73812 -7.22695,1.73812c-3.99133,0 -7.22695,-0.77819 -7.22695,-1.73812c0,-0.95994 3.23561,-1.73812 7.22695,-1.73812c3.99133,0 7.22695,0.77819 7.22695,1.73812z" fill="#ffec58" fill-rule="nonzero" stroke="#ffe100" stroke-width="1.5" stroke-linecap="butt"/><path d="M236.28782,175.55409c0,-0.34103 0.27647,-0.61749 0.61749,-0.61749c0.34103,0 0.61749,0.27647 0.61749,0.61749c0,0.34103 -0.27647,0.61749 -0.61749,0.61749c-0.34103,0 -0.61749,-0.27647 -0.61749,-0.61749z" fill="#000000" fill-rule="nonzero" stroke="none" stroke-width="0.5" stroke-linecap="butt"/><path d="M241.34024,176.18607c0.18052,0.28069 -0.09782,0.62042 -0.47093,0.57562l-1.15435,-0.13976l-0.80377,0.73335c-0.25956,0.23735 -0.72096,0.12132 -0.78084,-0.19575l-0.18416,-0.9813l-1.05533,-0.41496c-0.34084,-0.13389 -0.34783,-0.54558 -0.01168,-0.69621l1.04067,-0.46692l0.15138,-0.98988c0.04909,-0.32002 0.50628,-0.45854 0.77362,-0.23449l0.82742,0.69273l1.14881,-0.19705c0.37137,-0.06376 0.66064,0.26241 0.48964,0.55164l-0.52888,0.89507l0.55839,0.86787" fill="#62ff21" fill-rule="evenodd" stroke="none" stroke-width="1" stroke-linecap="butt"/><path d="M236.35741,178.59804c0.00633,0.33367 -0.40891,0.47675 -0.70298,0.24279l-0.90922,-0.72484l-1.06907,0.20234c-0.34551,0.06579 -0.67734,-0.27513 -0.5619,-0.57646l0.3583,-0.93193l-0.68049,-0.90711c-0.21984,-0.29286 -0.00971,-0.64695 0.35547,-0.59874l1.13088,0.14878l0.6484,-0.76311c0.20975,-0.24663 0.6716,-0.12457 0.78157,0.20645l0.34069,1.02393l1.08127,0.43525c0.34956,0.14066 0.4246,0.5701 0.12723,0.72654l-0.91996,0.48427l0.01978,1.0318" fill="#ff2222" fill-rule="evenodd" stroke="none" stroke-width="1" stroke-linecap="butt"/><path d="M246.09966,175.3843c0,0 0.30888,-0.73586 0.59142,-0.90583c0.20656,-0.12427 0.94851,-0.02055 0.94851,-0.02055" fill="none" fill-rule="nonzero" stroke="#009602" stroke-width="1.5" stroke-linecap="round"/><path d="M242.32552,177.10926c0,-0.34103 0.27647,-0.61749 0.61749,-0.61749c0.34103,0 0.61749,0.27647 0.61749,0.61749c0,0.34103 -0.27647,0.61749 -0.61749,0.61749c-0.34103,0 -0.61749,-0.27647 -0.61749,-0.61749z" fill="#000000" fill-rule="nonzero" stroke="none" stroke-width="0.5" stroke-linecap="butt"/><path d="M243.60417,176.89745c0.32858,-1.08427 1.45936,-1.69687 2.52566,-1.36828c1.0663,0.32859 1.66435,1.47394 1.33577,2.55821c-0.32858,1.08427 -1.45936,1.69687 -2.52566,1.36828c-1.0663,-0.32859 -1.66435,-1.47394 -1.33577,-2.55821z" fill="#ff4c4c" fill-rule="nonzero" stroke="#ff0000" stroke-width="1.5" stroke-linecap="butt"/><path d="M246.29142,174.44848c0,0 -0.85656,0.15047 -1.31408,-0.28843c-0.45753,-0.4389 -0.34279,-1.30096 -0.34279,-1.30096c0,0 0.85656,-0.15047 1.31408,0.28843c0.45753,0.4389 0.34279,1.30096 0.34279,1.30096z" fill="#94e095" fill-rule="nonzero" stroke="#00e005" stroke-width="1.5" stroke-linecap="butt"/><path d="M248.98071,177.06352c0,1.94514 -3.91141,3.522 -8.73637,3.522c-4.82496,0 -8.73637,-1.57686 -8.73637,-3.522" fill="none" fill-rule="nonzero" stroke="#ad5804" stroke-width="1.5" stroke-linecap="butt"/><path d="M235.73894,178.84738c0,-0.34103 0.27647,-0.61749 0.61749,-0.61749c0.34103,0 0.61749,0.27647 0.61749,0.61749c0,0.34103 -0.27647,0.61749 -0.61749,0.61749c-0.34103,0 -0.61749,-0.27647 -0.61749,-0.61749z" fill="#000000" fill-rule="nonzero" stroke="none" stroke-width="0.5" stroke-linecap="butt"/><path d="M238.66631,178.02406c0,-0.34103 0.27647,-0.61749 0.61749,-0.61749c0.34103,0 0.61749,0.27647 0.61749,0.61749c0,0.34103 -0.27647,0.61749 -0.61749,0.61749c-0.34103,0 -0.61749,-0.27647 -0.61749,-0.61749z" fill="#000000" fill-rule="nonzero" stroke="none" stroke-width="0.5" stroke-linecap="butt"/><path d="M241.13628,175.73704c0,-0.34103 0.27647,-0.61749 0.61749,-0.61749c0.34103,0 0.61749,0.27647 0.61749,0.61749c0,0.34103 -0.27647,0.61749 -0.61749,0.61749c-0.34103,0 -0.61749,-0.27647 -0.61749,-0.61749z" fill="#000000" fill-rule="nonzero" stroke="none" stroke-width="0.5" stroke-linecap="butt"/></g><path d="M210.22222,209.77778v-59.55556h59.55556v59.55556z" fill="none" fill-rule="nonzero" stroke="none" stroke-width="0" stroke-linecap="butt"/></g></g></svg>