<svg version="1.1" xmlns="http://www.w3.org/2000/svg" xmlns:xlink="http://www.w3.org/1999/xlink" width="25.24505" height="25.24505" viewBox="0,0,25.24505,25.24505"><g transform="translate(-227.37753,-167.37749)"><g data-paper-data="{&quot;isPaintingLayer&quot;:true}" fill-rule="nonzero" stroke-linejoin="miter" stroke-miterlimit="10" stroke-dasharray="" stroke-dashoffset="0" style="mix-blend-mode: normal"><path d="M227.37753,192.62254v-25.24505h25.24505v25.24505z" fill="none" stroke="none" stroke-width="0" stroke-linecap="butt"/><path d="M247.11151,188.56417c-0.47758,0.13733 -2.53512,-1.05797 -3.07338,-1.02394c-1.74746,0.11044 -1.71731,0.43296 -3.51936,0.58654c-0.39518,0.03367 -0.70877,0.02327 -0.96946,-0.01446c-0.9807,-0.14193 -1.21338,-0.67048 -2.22828,-0.69354c-0.94363,-0.02144 -1.77079,1.28481 -2.83041,1.12049c-3.58794,-0.55641 4.91812,-7.65557 4.91812,-7.65557z" fill="#000000" stroke="none" stroke-width="0" stroke-linecap="butt"/><path d="M245.13585,175.26921c1.07509,5.0859 0.48926,8.69278 3.70952,12.77348c1.0882,1.37896 -6.93072,2.16523 -7.20118,2.32824c-0.63776,0.38442 -0.75123,-2.86312 -1.23698,-4.79905c-0.48574,-1.93594 -0.8797,-3.63694 -0.8797,-3.63694c0,0 0.00032,2.17832 -0.30964,3.49148c-0.30998,1.31316 -0.31831,4.18504 -1.07159,4.73067c-1.06434,0.77093 -7.87117,-0.30198 -7.35355,-1.50997c2.20696,-5.15036 2.56402,-8.40024 3.4397,-13.93468c0.47848,-3.02407 2.35287,-4.47656 5.31251,-4.47656c2.95965,0 4.95768,2.03783 5.59089,5.03333z" fill="#b466ff" stroke="#000000" stroke-width="0" stroke-linecap="butt"/><path d="M235.41775,171.97302c0,0 -0.39616,-1.88941 0.27325,-2.31182c0.66939,-0.42241 2.25961,0.99835 2.25961,0.99835" fill="none" stroke="#ffffff" stroke-width="1" stroke-linecap="round"/><path d="M241.79508,170.74118c0,0 1.31091,-1.39058 1.96659,-1.06765c0.65568,0.32294 0.41376,2.44147 0.41376,2.44147" data-paper-data="{&quot;index&quot;:null}" fill="none" stroke="#ffffff" stroke-width="1" stroke-linecap="round"/><path d="M244.56055,176.77463c0,2.414 -2.11478,3.5643 -4.66495,3.5643c-2.55018,0 -4.57007,-1.15029 -4.57007,-3.5643c0,-2.414 2.06733,-4.37095 4.61752,-4.37095c2.55018,0 4.61752,1.95693 4.61752,4.37095z" fill="#000000" stroke="none" stroke-width="NaN" stroke-linecap="butt"/><path d="M236.46813,175.72575c0,-0.67424 0.54658,-1.22082 1.22082,-1.22082c0.67424,0 1.22082,0.54658 1.22082,1.22082c0,0.67424 -0.54658,1.22082 -1.22082,1.22082c-0.67424,0 -1.22082,-0.54658 -1.22082,-1.22082z" fill="#ffffff" stroke="none" stroke-width="0.5" stroke-linecap="butt"/><path d="M240.93628,175.56426c0,-0.67424 0.54658,-1.22082 1.22082,-1.22082c0.67424,0 1.22082,0.54658 1.22082,1.22082c0,0.67424 -0.54658,1.22082 -1.22082,1.22082c-0.67424,0 -1.22082,-0.54658 -1.22082,-1.22082z" fill="#ffffff" stroke="none" stroke-width="0.5" stroke-linecap="butt"/><path d="M240.90781,180.73392c0.01019,0.81024 -0.30815,0.92093 -1.11378,0.93108c-0.80564,0.01013 -1.12666,-0.09252 -1.13684,-0.90277c-0.01019,-0.81024 0.30815,-0.92093 1.11378,-0.93108c0.80564,-0.01013 1.12666,0.09252 1.13684,0.90277z" fill="#ff3737" stroke="none" stroke-width="0" stroke-linecap="butt"/><path d="M239.42258,180.83964c0.00793,0.6302 -1.39606,1.57379 -2.02268,1.58167c-0.62661,0.00788 -0.10644,-0.73008 -0.11436,-1.36027c-0.00793,-0.6302 -0.74343,-1.54688 -0.11682,-1.55476c0.62661,-0.00788 2.24593,0.70318 2.25386,1.33335z" fill="#ff3737" stroke="none" stroke-width="0" stroke-linecap="butt"/><path d="M242.45787,179.24893c0.62661,-0.00788 -0.08561,0.92702 -0.07769,1.55721c0.00793,0.6302 0.54649,1.35484 -0.08011,1.36272c-0.62661,0.00788 -2.05389,-0.90012 -2.06181,-1.53032c-0.00793,-0.6302 1.59301,-1.38173 2.21961,-1.38961z" data-paper-data="{&quot;index&quot;:null}" fill="#ff3737" stroke="none" stroke-width="0" stroke-linecap="butt"/><path d="M238.42534,187.70359l1.25839,-6.29439l0.65395,0.13074l-1.25839,6.29439z" fill="#ff3737" stroke="#000000" stroke-width="0" stroke-linecap="butt"/><path d="M240.56517,187.83563l-1.01654,-6.33796l0.65849,-0.10561l1.01654,6.33796z" fill="#ff3737" stroke="#000000" stroke-width="0" stroke-linecap="butt"/><path d="M234.83935,181.61823c0.1644,0.54044 0.62316,0.76701 -0.96971,1.25157c-1.59287,0.48458 -3.74297,0.8288 -3.90738,0.28836c-0.1644,-0.54044 1.71913,-1.76089 3.312,-2.24547c1.59287,-0.48458 1.40067,0.16509 1.56508,0.70553z" fill="#b466ff" stroke="none" stroke-width="0" stroke-linecap="butt"/><path d="M246.72584,180.91268c1.59287,0.48458 3.47642,1.70503 3.312,2.24547c-0.1644,0.54044 -2.31451,0.1962 -3.90738,-0.28836c-1.59287,-0.48458 -1.13411,-0.71113 -0.96971,-1.25157c0.1644,-0.54044 -0.02778,-1.1901 1.56509,-0.70553z" data-paper-data="{&quot;index&quot;:null}" fill="#b466ff" stroke="none" stroke-width="0" stroke-linecap="butt"/></g></g></svg>