<svg version="1.1" xmlns="http://www.w3.org/2000/svg" xmlns:xlink="http://www.w3.org/1999/xlink" width="56.83333" height="56.83333" viewBox="0,0,56.83333,56.83333"><g transform="translate(-211.58341,-151.58336)"><g data-paper-data="{&quot;isPaintingLayer&quot;:true}" fill-rule="nonzero" stroke="none" stroke-width="0" stroke-linecap="butt" stroke-linejoin="miter" stroke-miterlimit="10" stroke-dasharray="" stroke-dashoffset="0" style="mix-blend-mode: normal"><path d="M211.58342,208.41669v-56.83333h56.83333v56.83333z" fill="none"/><path d="M232.76484,192.28926c0,0.91564 -1.17019,1.65792 -2.61369,1.65792c-1.4435,0 -2.61369,-0.74227 -2.61369,-1.65792c0,-0.91564 1.17019,-1.65792 2.61369,-1.65792c1.4435,0 2.61369,0.74227 2.61369,1.65792z" fill="#000000"/><path d="M242.57949,192.28925c0,0.91564 -1.17019,1.65792 -2.61369,1.65792c-1.4435,0 -2.61369,-0.74227 -2.61369,-1.65792c0,-0.91564 1.17019,-1.65792 2.61369,-1.65792c1.4435,0 2.61369,0.74227 2.61369,1.65792z" fill="#000000"/><path d="M252.28748,192.28925c0,0.91564 -1.17019,1.65792 -2.61369,1.65792c-1.4435,0 -2.61369,-0.74227 -2.61369,-1.65792c0,-0.91564 1.17019,-1.65792 2.61369,-1.65792c1.4435,0 2.61369,0.74227 2.61369,1.65792z" fill="#000000"/><path d="M237.88984,183.20675c0,0.91564 -1.17019,1.65792 -2.61369,1.65792c-1.4435,0 -2.61369,-0.74227 -2.61369,-1.65792c0,-0.91564 1.17019,-1.65792 2.61369,-1.65792c1.4435,0 2.61369,0.74227 2.61369,1.65792z" fill="#000000"/><path d="M247.70449,183.20675c0,0.91564 -1.17019,1.65792 -2.61368,1.65792c-1.4435,0 -2.61369,-0.74227 -2.61369,-1.65792c0,-0.91564 1.17019,-1.65792 2.61369,-1.65792c1.4435,0 2.61368,0.74227 2.61368,1.65792z" fill="#000000"/><path d="M257.41247,183.20675c0,0.91564 -1.17019,1.65792 -2.61369,1.65792c-1.4435,0 -2.61369,-0.74227 -2.61369,-1.65792c0,-0.91564 1.17019,-1.65792 2.61369,-1.65792c1.44349,0 2.61369,0.74227 2.61369,1.65792z" fill="#000000"/><path d="M232.88984,173.98009c0,0.91564 -1.17019,1.65792 -2.61369,1.65792c-1.4435,0 -2.61369,-0.74227 -2.61369,-1.65792c0,-0.91564 1.17019,-1.65792 2.61369,-1.65792c1.4435,0 2.61369,0.74227 2.61369,1.65792z" fill="#000000"/><path d="M242.70449,173.98009c0,0.91564 -1.17019,1.65792 -2.61368,1.65792c-1.4435,0 -2.61369,-0.74227 -2.61369,-1.65792c0,-0.91564 1.17019,-1.65792 2.61369,-1.65792c1.4435,0 2.61368,0.74227 2.61368,1.65792z" fill="#000000"/><path d="M252.41248,173.98009c0,0.91564 -1.17019,1.65792 -2.61369,1.65792c-1.44349,0 -2.61369,-0.74227 -2.61369,-1.65792c0,-0.91564 1.17019,-1.65792 2.61369,-1.65792c1.44349,0 2.61369,0.74227 2.61369,1.65792z" fill="#000000"/><path d="M227.78748,183.20675c0,0.91564 -1.17019,1.65792 -2.61369,1.65792c-1.44349,0 -2.61369,-0.74227 -2.61369,-1.65792c0,-0.91564 1.17019,-1.65792 2.61369,-1.65792c1.44349,0 2.61369,0.74227 2.61369,1.65792z" fill="#000000"/><path d="M231.09712,175.14744c0.03533,0.73271 -1.85349,0.71544 -1.83944,0c0.00352,-0.17933 0.91972,-1.7092 0.91972,-1.7092c0,0 0.91462,1.6034 0.91972,1.7092z" fill="#ffffff"/><path d="M240.98601,175.14744c0.03533,0.73271 -1.85349,0.71544 -1.83944,0c0.00352,-0.17933 0.91972,-1.7092 0.91972,-1.7092c0,0 0.91462,1.6034 0.91972,1.7092z" fill="#ffffff"/><path d="M250.76378,175.14744c0.03533,0.73271 -1.85349,0.71544 -1.83944,0c0.00352,-0.17933 0.91972,-1.7092 0.91972,-1.7092c0,0 0.91462,1.6034 0.91972,1.7092z" fill="#ffffff"/><path d="M225.87489,184.36966c0.03533,0.73271 -1.85349,0.71544 -1.83944,0c0.00352,-0.17933 0.91972,-1.7092 0.91972,-1.7092c0,0 0.91462,1.6034 0.91972,1.7092z" fill="#ffffff"/><path d="M236.09712,184.36966c0.03533,0.73271 -1.85349,0.71544 -1.83944,0c0.00352,-0.17933 0.91972,-1.7092 0.91972,-1.7092c0,0 0.91462,1.6034 0.91972,1.7092z" fill="#ffffff"/><path d="M245.986,184.36966c0.03533,0.73271 -1.85349,0.71544 -1.83944,0c0.00352,-0.17933 0.91972,-1.7092 0.91972,-1.7092c0,0 0.91462,1.6034 0.91972,1.7092z" fill="#ffffff"/><path d="M230.54156,193.36966c0.03533,0.73271 -1.85349,0.71544 -1.83944,0c0.00352,-0.17933 0.91972,-1.7092 0.91972,-1.7092c0,0 0.91462,1.60341 0.91972,1.7092z" fill="#ffffff"/><path d="M240.76378,193.36966c0.03533,0.73271 -1.85349,0.71544 -1.83944,0c0.00352,-0.17933 0.91972,-1.7092 0.91972,-1.7092c0,0 0.91462,1.60341 0.91972,1.7092z" fill="#ffffff"/><path d="M250.65267,193.36966c0.03533,0.73271 -1.85349,0.71544 -1.83944,0c0.00352,-0.17933 0.91972,-1.7092 0.91972,-1.7092c0,0 0.91462,1.60341 0.91972,1.7092z" fill="#ffffff"/><path d="M255.87489,184.48077c0.03533,0.73271 -1.85349,0.71544 -1.83944,0c0.00352,-0.17933 0.91972,-1.7092 0.91972,-1.7092c0,0 0.91462,1.60341 0.91972,1.7092z" fill="#ffffff"/></g></g></svg>