<svg version="1.1" xmlns="http://www.w3.org/2000/svg" xmlns:xlink="http://www.w3.org/1999/xlink" width="358.59931" height="395.76958" viewBox="0,0,358.59931,395.76958"><g transform="translate(-45.0471,-8.65499)"><g data-paper-data="{&quot;isPaintingLayer&quot;:true}" fill-rule="nonzero" stroke-linecap="butt" stroke-linejoin="miter" stroke-miterlimit="10" stroke-dasharray="" stroke-dashoffset="0" style="mix-blend-mode: normal"><text transform="translate(79.4013,41.54951) scale(0.36843,0.36843)" font-size="40" xml:space="preserve" fill="#9ee6ff" fill-rule="nonzero" stroke="none" stroke-width="1" stroke-linecap="butt" stroke-linejoin="miter" stroke-miterlimit="10" stroke-dasharray="" stroke-dashoffset="0" font-family="Malgun Gothic" font-weight="normal" text-anchor="start" style="mix-blend-mode: normal"><tspan x="0" dy="0">Code, Idea, art</tspan></text><text transform="translate(79.4013,64.96942) scale(0.53537,0.53537)" font-size="40" xml:space="preserve" fill="#ffffff" fill-rule="nonzero" stroke="none" stroke-width="1" stroke-linecap="butt" stroke-linejoin="miter" stroke-miterlimit="10" stroke-dasharray="" stroke-dashoffset="0" font-family="Malgun Gothic" font-weight="normal" text-anchor="start" style="mix-blend-mode: normal"><tspan x="0" dy="0">Henry_da_Cat</tspan></text><path d="M66.86665,36.50977c0,-1.28198 1.03925,-2.32123 2.32123,-2.32123c1.28198,0 2.32123,1.03925 2.32123,2.32123c0,1.28198 -1.03925,2.32123 -2.32123,2.32123c-1.28198,0 -2.32123,-1.03925 -2.32123,-2.32123z" fill="#9ee6ff" stroke="none" stroke-width="0.5"/><path d="M45.0471,362.50647v-353.85148h358.59931v353.85148z" fill="none" stroke="none" stroke-width="0"/><text transform="translate(80.3298,98.51587) scale(0.36843,0.36843)" font-size="40" xml:space="preserve" fill="#9ee6ff" fill-rule="nonzero" stroke="none" stroke-width="1" stroke-linecap="butt" stroke-linejoin="miter" stroke-miterlimit="10" stroke-dasharray="" stroke-dashoffset="0" font-family="Malgun Gothic" font-weight="normal" text-anchor="start" style="mix-blend-mode: normal"><tspan x="0" dy="0">Bug finding, game testers</tspan></text><text transform="translate(80.3298,121.93578) scale(0.53538,0.53538)" font-size="40" xml:space="preserve" fill="#ffffff" fill-rule="nonzero" stroke="none" stroke-width="1" stroke-linecap="butt" stroke-linejoin="miter" stroke-miterlimit="10" stroke-dasharray="" stroke-dashoffset="0" font-family="Malgun Gothic" font-weight="normal" text-anchor="start" style="mix-blend-mode: normal"><tspan x="0" dy="0">TP                  @Ahyhy</tspan><tspan x="0" dy="48px">@Monna-Uka   @Roryrex</tspan></text><path d="M66.86665,93.47612c0,-1.28198 1.03925,-2.32123 2.32123,-2.32123c1.28198,0 2.32123,1.03925 2.32123,2.32123c0,1.28198 -1.03925,2.32123 -2.32123,2.32123c-1.28198,0 -2.32123,-1.03925 -2.32123,-2.32123z" fill="#9ee6ff" stroke="none" stroke-width="0.5"/><text transform="translate(80.3298,178.22762) scale(0.36843,0.36843)" font-size="40" xml:space="preserve" fill="#9ee6ff" fill-rule="nonzero" stroke="none" stroke-width="1" stroke-linecap="butt" stroke-linejoin="miter" stroke-miterlimit="10" stroke-dasharray="" stroke-dashoffset="0" font-family="Malgun Gothic" font-weight="normal" text-anchor="start" style="mix-blend-mode: normal"><tspan x="0" dy="0">Special thanks to</tspan></text><text transform="translate(80.3298,197.73649) scale(0.42674,0.42674)" font-size="40" xml:space="preserve" fill="#ffffff" fill-rule="nonzero" stroke="none" stroke-width="1" stroke-linecap="butt" stroke-linejoin="miter" stroke-miterlimit="10" stroke-dasharray="" stroke-dashoffset="0" font-family="Malgun Gothic" font-weight="normal" text-anchor="start" style="mix-blend-mode: normal"><tspan x="0" dy="0">@AppleSmall</tspan><tspan x="0" dy="48px">TP                       @Ahyhy</tspan><tspan x="0" dy="48px">@Monna-Uka        @Roryrex</tspan><tspan x="0" dy="48px">@mike_the_epic_man</tspan><tspan x="0" dy="48px">@andydang           @jacobkim1</tspan><tspan x="0" dy="48px">Ganheso Laso         Lifeguardguy1</tspan><tspan x="0" dy="48px">@rolnando_fake</tspan></text><path d="M66.86665,172.25938c0,-1.28198 1.03925,-2.32123 2.32123,-2.32123c1.28198,0 2.32123,1.03925 2.32123,2.32123c0,1.28198 -1.03925,2.32123 -2.32123,2.32123c-1.28198,0 -2.32123,-1.03925 -2.32123,-2.32123z" fill="#9ee6ff" stroke="none" stroke-width="0.5"/><text transform="translate(80.32979,346.7026) scale(0.36843,0.36843)" font-size="40" xml:space="preserve" fill="#ffffff" fill-rule="nonzero" stroke="none" stroke-width="1" stroke-linecap="butt" stroke-linejoin="miter" stroke-miterlimit="10" stroke-dasharray="" stroke-dashoffset="0" font-family="Malgun Gothic" font-weight="normal" text-anchor="start" style="mix-blend-mode: normal"><tspan x="0" dy="0">Thank you for playing!</tspan></text><path d="M66.86664,340.73435c0,-1.28198 1.03925,-2.32123 2.32123,-2.32123c1.28198,0 2.32123,1.03925 2.32123,2.32123c0,1.28198 -1.03925,2.32123 -2.32123,2.32123c-1.28198,0 -2.32123,-1.03925 -2.32123,-2.32123z" fill="#ffffff" stroke="none" stroke-width="0.5"/><path d="M56.49503,404.42457v-58.84914h295.00994v58.84914z" fill="none" stroke="none" stroke-width="0"/><g stroke="#ffffff"><path d="M138.87532,387.47458c-1.81045,-1.13629 -1.38746,-1.63948 -1.38746,-3.24629c0,-4.82045 0,-11.41786 0,-18.72587c0,-1.50901 -0.36496,-1.96274 1.38746,-2.99566c1.75242,-1.03293 2.61242,-0.87097 5.17257,-0.87097c11.46121,0 178.76237,0 186.15301,0c2.46354,0 3.25604,-0.26651 4.92506,0.87097c1.66903,1.13747 1.38746,1.7522 1.38746,3.43115c0,7.08141 0,13.15483 0,18.14522c0,1.66346 0.41682,2.17314 -1.38746,3.39145c-1.80427,1.21831 -2.46152,0.87097 -4.92506,0.87097c-2.46354,0 -178.47259,0 -186.15301,0c-2.56014,0 -3.36211,0.26532 -5.17257,-0.87097z" fill="#0c0c0c" stroke-width="2.5"/><g fill="none" stroke-width="0.5"><path d="M333.20931,370.44091c0,0 0,6.52596 0,9.07787"/><path d="M146.18636,384.77482c71.05306,0 111.01156,0 182.06461,0"/><path d="M141.03821,370.7727c0,3.1037 0,7.08953 0,9.03763"/><path d="M328.15613,365.33902c0,0 -164.50269,0 -181.9697,0"/><path d="M333.20708,370.62697c-2.89819,0 -5.24766,-2.34945 -5.24766,-5.24766"/><path d="M327.95941,384.4749c0,-2.89819 2.34945,-5.24766 5.24766,-5.24766" data-paper-data="{&quot;index&quot;:null}"/><path d="M141.2302,379.37307c2.89821,0 5.24766,2.34945 5.24766,5.24766" data-paper-data="{&quot;index&quot;:null}"/><path d="M146.47788,365.81659c0,2.89821 -2.34945,5.24766 -5.24766,5.24766" data-paper-data="{&quot;index&quot;:null}"/><path d="M140.64716,381.8511c1.69062,0 3.06113,1.37051 3.06113,3.06113" data-paper-data="{&quot;index&quot;:null}"/><path d="M143.70832,364.94197c0,1.69062 -1.37051,3.06113 -3.06113,3.06113" data-paper-data="{&quot;index&quot;:null}"/><path d="M330.2917,385.05803c0,-1.69062 1.37051,-3.06113 3.06113,-3.06113" data-paper-data="{&quot;index&quot;:null}"/><path d="M333.35286,368.14888c-1.69062,0 -3.06113,-1.37051 -3.06113,-3.06113" data-paper-data="{&quot;index&quot;:null}"/><path d="M332.07558,378.29602c0,-1.84846 0,-6.57552 0,-6.57552"/><path d="M142.49588,378.50719c0,-1.41111 0,-4.29823 0,-6.54638"/><path d="M147.56864,383.42792c28.65609,0 163.66378,0 179.5912,0"/><path d="M327.06624,366.68598c0,0 -162.26786,0 -179.49757,0"/></g><text transform="translate(169.15896,379.44156) scale(0.37013,0.37013)" font-size="40" xml:space="preserve" fill="#ffffff" fill-rule="nonzero" stroke="#ffffff" stroke-width="1" stroke-linecap="butt" stroke-linejoin="miter" stroke-miterlimit="10" stroke-dasharray="" stroke-dashoffset="0" font-family="Malgun Gothic" font-weight="normal" text-anchor="start" style="mix-blend-mode: normal"><tspan x="0" dy="0">go to music credits</tspan></text></g></g></g></svg>