<svg version="1.1" xmlns="http://www.w3.org/2000/svg" xmlns:xlink="http://www.w3.org/1999/xlink" width="56.83333" height="56.83333" viewBox="0,0,56.83333,56.83333"><g transform="translate(-211.58344,-151.58336)"><g data-paper-data="{&quot;isPaintingLayer&quot;:true}" fill-rule="nonzero" stroke="none" stroke-width="0" stroke-linecap="butt" stroke-linejoin="miter" stroke-miterlimit="10" stroke-dasharray="" stroke-dashoffset="0" style="mix-blend-mode: normal"><path d="M211.58345,208.41669v-56.83333h56.83333v56.83333z" fill="none"/><path d="M232.76487,192.28926c0,0.91564 -1.17019,1.65792 -2.61369,1.65792c-1.4435,0 -2.61369,-0.74227 -2.61369,-1.65792c0,-0.91564 1.17019,-1.65792 2.61369,-1.65792c1.4435,0 2.61369,0.74227 2.61369,1.65792z" fill="#000000"/><path d="M242.57952,192.28925c0,0.91564 -1.17019,1.65792 -2.61369,1.65792c-1.4435,0 -2.61369,-0.74227 -2.61369,-1.65792c0,-0.91564 1.17019,-1.65792 2.61369,-1.65792c1.4435,0 2.61369,0.74227 2.61369,1.65792z" fill="#000000"/><path d="M252.28751,192.28925c0,0.91564 -1.17019,1.65792 -2.61369,1.65792c-1.4435,0 -2.61369,-0.74227 -2.61369,-1.65792c0,-0.91564 1.17019,-1.65792 2.61369,-1.65792c1.4435,0 2.61369,0.74227 2.61369,1.65792z" fill="#000000"/><path d="M237.88987,183.20675c0,0.91564 -1.17019,1.65792 -2.61369,1.65792c-1.4435,0 -2.61369,-0.74227 -2.61369,-1.65792c0,-0.91564 1.17019,-1.65792 2.61369,-1.65792c1.4435,0 2.61369,0.74227 2.61369,1.65792z" fill="#000000"/><path d="M247.70452,183.20675c0,0.91564 -1.17019,1.65792 -2.61368,1.65792c-1.4435,0 -2.61369,-0.74227 -2.61369,-1.65792c0,-0.91564 1.17019,-1.65792 2.61369,-1.65792c1.4435,0 2.61368,0.74227 2.61368,1.65792z" fill="#000000"/><path d="M257.41247,183.20675c0,0.91564 -1.17019,1.65792 -2.61369,1.65792c-1.4435,0 -2.61369,-0.74227 -2.61369,-1.65792c0,-0.91564 1.17019,-1.65792 2.61369,-1.65792c1.44349,0 2.61369,0.74227 2.61369,1.65792z" fill="#000000"/><path d="M232.88987,173.98009c0,0.91564 -1.17019,1.65792 -2.61369,1.65792c-1.4435,0 -2.61369,-0.74227 -2.61369,-1.65792c0,-0.91564 1.17019,-1.65792 2.61369,-1.65792c1.4435,0 2.61369,0.74227 2.61369,1.65792z" fill="#000000"/><path d="M242.70452,173.98009c0,0.91564 -1.17019,1.65792 -2.61368,1.65792c-1.4435,0 -2.61369,-0.74227 -2.61369,-1.65792c0,-0.91564 1.17019,-1.65792 2.61369,-1.65792c1.4435,0 2.61368,0.74227 2.61368,1.65792z" fill="#000000"/><path d="M252.41251,173.98009c0,0.91564 -1.17019,1.65792 -2.61369,1.65792c-1.44349,0 -2.61369,-0.74227 -2.61369,-1.65792c0,-0.91564 1.17019,-1.65792 2.61369,-1.65792c1.44349,0 2.61369,0.74227 2.61369,1.65792z" fill="#000000"/><path d="M227.78751,183.20675c0,0.91564 -1.17019,1.65792 -2.61369,1.65792c-1.44349,0 -2.61369,-0.74227 -2.61369,-1.65792c0,-0.91564 1.17019,-1.65792 2.61369,-1.65792c1.44349,0 2.61369,0.74227 2.61369,1.65792z" fill="#000000"/><path d="M226.59107,183.8795c0.05351,1.38335 -2.80698,1.35075 -2.78571,0c0.00533,-0.33856 1.39286,-10.22697 1.39286,-10.22697z" fill="#ffffff"/><path d="M231.51964,192.8795c0.05351,1.38335 -2.80698,1.35074 -2.78571,0c0.00533,-0.33856 1.39285,-10.22696 1.39285,-10.22696c0,0 1.38513,10.02721 1.39286,10.22696z" fill="#ffffff"/><path d="M231.37678,174.66521c0.05351,1.38335 -2.80698,1.35074 -2.78571,0c0.00533,-0.33856 1.39285,-10.22696 1.39285,-10.22696c0,0 1.38513,10.02721 1.39286,10.22696z" fill="#ffffff"/><path d="M236.80535,183.80806c0.05351,1.38335 -2.80698,1.35074 -2.78572,0c0.00533,-0.33856 1.39286,-10.22696 1.39286,-10.22696c0,0 1.38513,10.02721 1.39286,10.22696z" fill="#ffffff"/><path d="M241.37678,192.95092c0.05351,1.38335 -2.80698,1.35074 -2.78572,0c0.00533,-0.33856 1.39286,-10.22696 1.39286,-10.22696c0,0 1.38513,10.02721 1.39286,10.22696z" fill="#ffffff"/><path d="M241.44821,174.66521c0.05351,1.38335 -2.80698,1.35074 -2.78572,0c0.00533,-0.33856 1.39285,-10.22697 1.39285,-10.22697c0,0 1.38514,10.02721 1.39286,10.22697z" fill="#ffffff"/><path d="M246.51964,183.87949c0.05351,1.38335 -2.80698,1.35074 -2.78572,0c0.00533,-0.33856 1.39285,-10.22697 1.39285,-10.22697z" fill="#ffffff"/><path d="M251.1625,192.95093c0.05351,1.38335 -2.80698,1.35074 -2.78572,0c0.00533,-0.33856 1.39285,-10.22697 1.39285,-10.22697c0,0 1.38514,10.02721 1.39286,10.22697z" fill="#ffffff"/><path d="M251.23393,174.66521c0.05351,1.38335 -2.80698,1.35074 -2.78571,0c0.00533,-0.33856 1.39285,-10.22697 1.39285,-10.22697c0,0 1.38513,10.02721 1.39286,10.22697z" fill="#ffffff"/><path d="M256.30535,183.8795c0.05351,1.38335 -2.80698,1.51741 -2.78571,0.16667c0.00533,-0.33856 1.39286,-10.39363 1.39286,-10.39363z" fill="#ffffff"/></g></g></svg>