<svg version="1.1" xmlns="http://www.w3.org/2000/svg" xmlns:xlink="http://www.w3.org/1999/xlink" width="88.25" height="88.25" viewBox="0,0,88.25,88.25"><defs><linearGradient x1="272.12036" y1="-156.86129" x2="272.12036" y2="367.04086" gradientUnits="userSpaceOnUse" id="color-1"><stop offset="0" stop-color="#96b2ff"/><stop offset="1" stop-color="#96b2ff" stop-opacity="0"/></linearGradient><radialGradient cx="240" cy="180" r="21.64286" gradientUnits="userSpaceOnUse" id="color-2"><stop offset="0" stop-color="#ffffff"/><stop offset="1" stop-color="#ffffff" stop-opacity="0"/></radialGradient></defs><g transform="translate(-195.875,-135.875)"><g data-paper-data="{&quot;isPaintingLayer&quot;:true}" fill-rule="nonzero" stroke-linecap="butt" stroke-linejoin="miter" stroke-miterlimit="10" stroke-dasharray="" stroke-dashoffset="0" style="mix-blend-mode: normal"><path d="M214.43147,178.87301c0.16116,-14.07254 10.70712,-24.64363 24.94593,-24.33392c14.23881,0.30971 26.36132,10.61011 26.19141,25.4462c-0.16991,14.8361 -11.66277,25.80375 -26.77456,25.47505c-15.11179,-0.3287 -24.52394,-12.51479 -24.36278,-26.58733z" fill="url(#color-1)" stroke="#ffffff" stroke-width="1.5"/><path d="M218.35714,180c0,-11.95302 9.68984,-21.64286 21.64286,-21.64286c11.95302,0 21.64286,9.68984 21.64286,21.64286c0,11.95302 -9.68984,21.64286 -21.64286,21.64286c-11.95302,0 -21.64286,-9.68984 -21.64286,-21.64286z" fill="url(#color-2)" stroke="#8719ff" stroke-width="0"/><path d="M195.875,224.125v-88.25h88.25v88.25z" fill="none" stroke="none" stroke-width="NaN"/><path d="M214.64287,180.00002c0,-14.00436 11.35278,-25.35714 25.35714,-25.35714c14.00436,0 25.35714,11.35278 25.35714,25.35714c0,14.00436 -11.35278,25.35714 -25.35714,25.35714c-14.00436,0 -25.35714,-11.35278 -25.35714,-25.35714z" fill="none" stroke="#ffffff" stroke-width="1"/><path d="M239.50992,198.16264c0,0 -9.61164,-3.45645 -11.92879,-7.55214c-0.81607,-1.44243 -3.58696,-23.9477 -3.58696,-23.9477l15.93493,-4.82544l15.40377,5.13265c0,0 -0.50732,19.7278 -2.75902,23.39778c-2.83476,4.62027 -13.06392,7.79483 -13.06392,7.79483z" fill="#67caff" stroke="#12e0ff" stroke-width="1.15823"/><path d="M230.05135,183.53731v-8.25369h20.19209v8.25369z" fill="#ffffff" stroke="none" stroke-width="0"/><path d="M244.27425,189.5065h-8.2537v-20.19208h8.2537z" fill="#ffffff" stroke="none" stroke-width="0"/></g></g></svg>