<svg version="1.1" xmlns="http://www.w3.org/2000/svg" xmlns:xlink="http://www.w3.org/1999/xlink" width="65.4" height="65.4" viewBox="0,0,65.4,65.4"><g transform="translate(-207.1,-147.7)"><g data-paper-data="{&quot;isPaintingLayer&quot;:true}" fill-rule="nonzero" stroke-linejoin="miter" stroke-miterlimit="10" stroke-dasharray="" stroke-dashoffset="0" style="mix-blend-mode: normal"><path d="M239.84627,195.14667c-1.38376,-0.01949 -1.52182,-0.48956 -2.48623,-1.48171c-2.89325,-2.97646 -6.85303,-7.05013 -11.23932,-11.56258c-0.90571,-0.93176 -1.3195,-1.07442 -1.26021,-2.37248c0.05929,-1.29806 0.48984,-1.52209 1.48218,-2.48668c4.44248,-4.31828 8.51863,-8.28047 11.38331,-11.06507c0.95489,-0.9282 1.10212,-1.39135 2.43176,-1.31784c1.32965,0.07351 1.58947,0.55916 2.59718,1.59586c4.25028,4.37253 7.89557,8.12265 10.89082,11.20405c0.99841,1.02713 1.46589,1.1848 1.49777,2.61687c0.03188,1.43207 -0.43135,1.46523 -1.38625,2.39343c-0.95489,0.9282 -8.40631,8.17129 -11.38331,11.06507c-0.99234,0.9646 -1.14394,1.43058 -2.5277,1.41109z" fill="#151723" stroke="#ffffff" stroke-width="1" stroke-linecap="butt"/><path d="M239.84626,194.89024c-1.38376,-0.01949 -1.52182,-0.48956 -2.48623,-1.48171c-2.89325,-2.97646 -6.85303,-7.05013 -11.23932,-11.56258c-0.90571,-0.93176 -1.3195,-1.07442 -1.26021,-2.37248c0.05929,-1.29806 0.48984,-1.52209 1.48218,-2.48668c4.44248,-4.31828 8.51863,-8.28047 11.38331,-11.06507c0.95489,-0.9282 1.10212,-1.39135 2.43176,-1.31784c1.32965,0.07351 1.58947,0.55916 2.59718,1.59586c4.25028,4.37253 7.89557,8.12265 10.89082,11.20405c0.99841,1.02713 1.46589,1.1848 1.49777,2.61687c0.03188,1.43207 -0.43135,1.46523 -1.38625,2.39343c-0.95489,0.9282 -8.40631,8.17129 -11.38331,11.06507c-0.99234,0.9646 -1.14394,1.43058 -2.5277,1.41109z" fill="none" stroke="#ffffff" stroke-width="1" stroke-linecap="butt"/><path d="M207.1,213.1v-65.4h65.4v65.4z" fill="none" stroke="none" stroke-width="0" stroke-linecap="butt"/><g fill="none"><path d="M238.46122,193.21318l-1.70012,-0.42831l1.16164,-4.61098" data-paper-data="{&quot;index&quot;:null}" stroke="#ffffff" stroke-width="3" stroke-linecap="round"/><path d="M245.03763,168.61518c0,0 3.39779,-3.55367 4.66578,-2.87708c0.54342,0.28996 -0.02429,5.35374 -0.02429,5.35374" data-paper-data="{&quot;index&quot;:null}" stroke="#ffffff" stroke-width="2.5" stroke-linecap="round"/><path d="M236.6949,164.04887c0,0 3.39779,-3.55367 4.66578,-2.87708c0.54342,0.28996 -0.02429,5.35374 -0.02429,5.35374" data-paper-data="{&quot;index&quot;:null}" stroke="#ffffff" stroke-width="2.5" stroke-linecap="round"/><path d="M228.5382,183.3292l-3.69818,2.84372l-1.10984,-1.44332" data-paper-data="{&quot;index&quot;:null}" stroke="#ffffff" stroke-width="3" stroke-linecap="round"/><path d="M243.37073,186.64682c0,0 -0.52902,1.38456 -1.60068,1.71038c-1.07164,0.3258 -1.29415,-0.00251 -2.28236,-0.52981c-2.96461,-1.58189 -10.38497,-5.54137 -11.3359,-6.04877c-0.95091,-0.5074 -1.31856,-0.42919 -1.61528,-1.54994c-0.2967,-1.12075 0.03141,-1.34831 0.57719,-2.37116c1.63735,-3.06856 3.63008,-6.80307 5.9535,-11.15739c0.55087,-1.03238 0.64387,-1.46836 1.66132,-1.82401c1.01744,-0.35568 1.23589,-0.02858 2.18682,0.47883c2.85276,1.52222 6.91192,3.68816 11.3359,6.04877c0.9882,0.5273 1.3733,0.60485 1.71081,1.60092c0.33752,0.99608 0.04778,1.1999 -0.44733,2.12779z" data-paper-data="{&quot;index&quot;:null}" stroke="#ff3333" stroke-width="2.5" stroke-linecap="butt"/><path d="M242.23228,175.18992l3.57036,1.90513" data-paper-data="{&quot;index&quot;:null}" stroke="#ffffff" stroke-width="2.5" stroke-linecap="round"/><path d="M237.25249,172.41808l-3.57036,-1.90513" data-paper-data="{&quot;index&quot;:null}" stroke="#ffffff" stroke-width="2.5" stroke-linecap="round"/><path d="M240.26307,178.72611c0,0 1.75853,-0.13418 2.38812,0.20176c0.54964,0.29328 1.18225,1.70336 1.18225,1.70336" data-paper-data="{&quot;index&quot;:null}" stroke="#ffffff" stroke-width="2.5" stroke-linecap="round"/><path d="M231.66837,174.13261c0,0 1.88293,-0.28231 2.47623,0.03427c0.5968,0.31844 1.09414,1.87086 1.09414,1.87086" data-paper-data="{&quot;index&quot;:null}" stroke="#ffffff" stroke-width="2.5" stroke-linecap="round"/></g><g stroke="#7d00ff" stroke-width="1.25"><path d="M247.70083,192.91342l-4.54918,-8.82065c0,0 0.63531,-1.36254 1.80334,-2.44116c0.92204,-0.85145 2.34248,-1.38728 2.89304,-1.8957c0.82722,-0.76388 2.06325,-1.9053 2.06325,-1.9053c0,0 0.65467,0.31 0.95319,0.64586c0.29851,0.33587 0.0272,0.34947 0.70688,1.22198c0.12724,0.16332 0.92891,0.33471 1.07709,0.51157c0.3051,0.36413 -0.01421,0.75143 0.34083,1.13929c0.21333,0.23305 0.72538,0.25681 0.94162,0.49913c0.33467,0.37506 0.3716,0.96549 0.67859,1.27846c0.33539,0.34193 0.78889,0.19609 1.03868,0.43051c0.39801,0.37352 0.43167,1.32726 0.43167,1.32726l-0.65714,0.43681c0,0 -2.10715,6.34507 -4.57166,7.62275c-1.17774,0.61058 -3.15022,-0.05083 -3.15022,-0.05083z" fill="#dab2ff" stroke-linecap="butt"/><path d="M251.1615,180.04548l-1.61936,1.61937l1.9138,1.9138l-1.54576,1.54576l-2.35545,-1.32493" fill="#dab2ff" stroke-linecap="round"/><path d="M251.0879,183.06339l1.43534,-1.43535" fill="#dab2ff" stroke-linecap="round"/><path d="M251.88566,186.05746l2.29375,-2.69965" fill="#dab2ff" stroke-linecap="round"/><path d="M247.77556,179.82467l2.02422,2.02421" fill="#dab2ff" stroke-linecap="round"/><path d="M255.94598,184.90358l-2.79708,2.64988l-2.50266,-2.35545" fill="none" stroke-linecap="round"/><path d="M252.63075,191.11221v4.68527h-5.8886v-4.71088" fill="#dab2ff" stroke-linecap="round"/></g></g></g></svg>