<svg version="1.1" xmlns="http://www.w3.org/2000/svg" xmlns:xlink="http://www.w3.org/1999/xlink" width="54.5" height="54.5" viewBox="0,0,54.5,54.5"><g transform="translate(-212.59668,-145.56612)"><g data-paper-data="{&quot;isPaintingLayer&quot;:true}" fill-rule="nonzero" stroke-linejoin="miter" stroke-miterlimit="10" stroke-dasharray="" stroke-dashoffset="0" style="mix-blend-mode: normal"><path d="M212.59668,200.06612v-54.5h54.5v54.5z" data-paper-data="{&quot;index&quot;:null}" fill="none" stroke="none" stroke-width="0" stroke-linecap="butt"/><path d="M246.62927,191.26989h-2.16618v-5.875" data-paper-data="{&quot;index&quot;:null}" fill="none" stroke="#ffffff" stroke-width="3" stroke-linecap="round"/><path d="M247.08391,159.8142c0,0 2.99825,-5.28319 4.72163,-4.8553c0.73859,0.18338 1.58684,6.42161 1.58684,6.42161" data-paper-data="{&quot;index&quot;:null}" fill="none" stroke="#ffffff" stroke-width="2.5" stroke-linecap="round"/><path d="M235.71027,156.86146c0,0 2.99825,-5.28319 4.72163,-4.8553c0.73859,0.18338 1.58684,6.42161 1.58684,6.42161" data-paper-data="{&quot;index&quot;:null}" fill="none" stroke="#ffffff" stroke-width="2.5" stroke-linecap="round"/><path d="M231.75724,182.42306l-3.57243,4.52329l-1.76533,-1.39424" data-paper-data="{&quot;index&quot;:null}" fill="none" stroke="#ffffff" stroke-width="3" stroke-linecap="round"/><path d="M250.52938,181.92092c0,0 -0.21592,1.81851 -1.40151,2.53232c-1.18559,0.71381 -1.55127,0.38761 -2.89439,0.05413c-4.02934,-1.00044 -14.11474,-3.50454 -15.40719,-3.82543c-1.29242,-0.32089 -1.70931,-0.11623 -2.40308,-1.36943c-0.69376,-1.25321 -0.36933,-1.62488 -0.02416,-3.01508c1.03551,-4.17063 2.29577,-9.24638 3.76518,-15.16456c0.34839,-1.40315 0.32822,-1.95357 1.43987,-2.68679c1.11163,-0.73324 1.47209,-0.40727 2.76454,-0.08638c3.87732,0.9627 9.39433,2.33251 15.40719,3.82543c1.34312,0.33349 1.82791,0.31016 2.53293,1.40167c0.70503,1.09152 0.41941,1.42318 0.10629,2.68431z" data-paper-data="{&quot;index&quot;:null}" fill="#3c0000" stroke="#ff3333" stroke-width="2.5" stroke-linecap="butt"/><path d="M245.70731,168.53811l4.85266,1.20486" data-paper-data="{&quot;index&quot;:null}" fill="none" stroke="#ffffff" stroke-width="2.5" stroke-linecap="round"/><path d="M234.05178,165.51539l4.85266,1.20486" data-paper-data="{&quot;index&quot;:null}" fill="none" stroke="#ffffff" stroke-width="2.5" stroke-linecap="round"/><path d="M244.41536,173.36917c0,0 2.06639,-0.69155 2.92209,-0.47909c0.74704,0.18548 1.93057,1.68394 1.93057,1.68394" data-paper-data="{&quot;index&quot;:null}" fill="none" stroke="#ffffff" stroke-width="2.5" stroke-linecap="round"/><path d="M232.73163,170.4599c0,0 2.17072,-0.90658 2.9771,-0.70636c0.81114,0.20139 1.87557,1.91121 1.87557,1.91121" data-paper-data="{&quot;index&quot;:null}" fill="none" stroke="#ffffff" stroke-width="2.5" stroke-linecap="round"/></g></g></svg>