<svg version="1.1" xmlns="http://www.w3.org/2000/svg" xmlns:xlink="http://www.w3.org/1999/xlink" width="243.87907" height="70.44732" viewBox="0,0,243.87907,70.44732"><defs><linearGradient x1="140.10017" y1="180" x2="339.89991" y2="180" gradientUnits="userSpaceOnUse" id="color-1"><stop offset="0" stop-color="#210000"/><stop offset="1" stop-color="#210000" stop-opacity="0"/></linearGradient></defs><g transform="translate(-118.06047,-144.77634)"><g data-paper-data="{&quot;isPaintingLayer&quot;:true}" fill-rule="nonzero" stroke-linecap="butt" stroke-linejoin="miter" stroke-miterlimit="10" stroke-dasharray="" stroke-dashoffset="0" style="mix-blend-mode: normal"><path d="M141.53545,199.94092c-1.81672,-1.81639 -1.39227,-2.62075 -1.39227,-5.18928c0,-7.70561 0,-18.25172 0,-29.93376c0,-2.41219 -0.36622,-3.13748 1.39227,-4.78864c1.75849,-1.65116 2.62147,-1.39227 5.19049,-1.39227c11.50091,0 179.38154,0 186.79778,0c2.47207,0 3.26732,-0.42602 4.94212,1.39227c1.67481,1.81828 1.39227,2.80093 1.39227,5.48477c0,11.31981 0,21.02831 0,29.00558c0,2.65908 0.41826,3.47382 -1.39227,5.42132c-1.81052,1.9475 -2.47005,1.39227 -4.94212,1.39227c-2.47207,0 -179.09076,0 -186.79778,0c-2.56901,0 -3.37376,0.42412 -5.19049,-1.39227z" fill="#210000" stroke="#ffffff" stroke-width="2.5"/><g fill="#dc2424" stroke="#000000" stroke-width="0"><path d="M231.7771,188.1357v-17.73398h17.73399v17.73398z"/><path d="M251.01293,189.53098h17.73399v11.98275c-6.93776,-0.01395 -10.84986,-0.32213 -17.73399,-1.1832z"/><path d="M212.66913,189.53098h17.73399v11.95097c-6.19349,-0.01862 -12.72579,-0.04425 -17.51075,-0.04425c-0.07442,0 -0.14883,0.00175 -0.22323,0.0051z"/><path d=""/><path d="M251.01293,168.92122v-9.92913c6.8904,0.7251 10.80555,-0.4911 17.73399,-0.50286v10.43199z"/><path d=""/><path d="M308.46461,188.1357v-17.73398h17.73399v17.73398z"/><path d="M327.70042,189.53098h11.26418c0.14014,4.6812 -1.34255,11.30235 -1.34255,11.30235c0,0 -6.04104,0.5902 -9.81766,0.73067c-0.0346,-0.00392 -0.06926,-0.00766 -0.10397,-0.01123z"/><path d="M270.12084,188.1357v-17.73398h17.73399v17.73398z"/><path d="M289.35667,189.53098h17.73399v11.46102c-6.89741,0.61631 -10.8091,0.54265 -17.73399,0.54787z"/><path d=""/><path d="M327.70042,168.92122v-10.47057c3.69951,0.00556 7.39901,0.0134 11.0985,0.02396c0.9473,3.97272 0.55928,6.36364 0.4632,10.44661z"/><path d=""/><path d="M289.35667,168.92122v-10.46468c5.91133,-0.00792 11.82266,-0.01388 17.73399,-0.0161v10.48078z"/></g><path d="M141.53545,199.94092c-1.81672,-1.81639 -1.39227,-2.62075 -1.39227,-5.18928c0,-7.70561 0,-18.25172 0,-29.93376c0,-2.41219 -0.36622,-3.13748 1.39227,-4.78864c1.75849,-1.65116 2.62147,-1.39227 5.19049,-1.39227c11.50091,0 179.38154,0 186.79778,0c2.47207,0 3.26732,-0.42602 4.94212,1.39227c1.67481,1.81828 1.39227,2.80093 1.39227,5.48477c0,11.31981 0,21.02831 0,29.00558c0,2.65908 0.41826,3.47382 -1.39227,5.42132c-1.81052,1.9475 -2.47005,1.39227 -4.94212,1.39227c-2.47207,0 -179.09076,0 -186.79778,0c-2.56901,0 -3.37376,0.42412 -5.19049,-1.39227z" fill="url(#color-1)" stroke="#ffffff" stroke-width="2.5"/><text transform="translate(143.6667,178.5) scale(0.5,0.5)" font-size="40" xml:space="preserve" fill="#ffffff" fill-rule="nonzero" stroke="none" stroke-width="1" stroke-linecap="butt" stroke-linejoin="miter" stroke-miterlimit="10" stroke-dasharray="" stroke-dashoffset="0" font-family="Malgun Gothic" font-weight="normal" text-anchor="start" style="mix-blend-mode: normal"><tspan x="0" dy="0">World 2</tspan></text><text transform="translate(144.6667,194.37284) scale(0.34393,0.34393)" font-size="40" xml:space="preserve" fill="#ff3636" fill-rule="nonzero" stroke="none" stroke-width="1" stroke-linecap="butt" stroke-linejoin="miter" stroke-miterlimit="10" stroke-dasharray="" stroke-dashoffset="0" font-family="Malgun Gothic" font-weight="normal" text-anchor="start" style="mix-blend-mode: normal"><tspan x="0" dy="0">Crystal cave</tspan></text><path d="M118.06048,215.22366v-70.44732h243.87907v70.44732z" fill="none" stroke="none" stroke-width="0"/></g></g></svg>