<svg version="1.1" xmlns="http://www.w3.org/2000/svg" xmlns:xlink="http://www.w3.org/1999/xlink" width="59.55556" height="59.55556" viewBox="0,0,59.55556,59.55556"><g transform="translate(-210.22222,-150.22222)"><g data-paper-data="{&quot;isPaintingLayer&quot;:true}" fill-rule="nonzero" stroke-linejoin="miter" stroke-miterlimit="10" stroke-dasharray="" stroke-dashoffset="0" style="mix-blend-mode: normal"><path d="M239.84626,195.14667c-1.38376,-0.01949 -1.52182,-0.48956 -2.48623,-1.48171c-2.89325,-2.97646 -6.85303,-7.05013 -11.23932,-11.56258c-0.90571,-0.93176 -1.3195,-1.07442 -1.26021,-2.37248c0.05929,-1.29806 0.48984,-1.52209 1.48218,-2.48668c4.44248,-4.31828 8.51863,-8.28047 11.38331,-11.06507c0.95489,-0.9282 1.10212,-1.39135 2.43176,-1.31784c1.32965,0.07351 1.58947,0.55916 2.59718,1.59586c4.25028,4.37253 7.89557,8.12265 10.89082,11.20405c0.99841,1.02713 1.46589,1.1848 1.49777,2.61687c0.03188,1.43207 -0.43135,1.46523 -1.38625,2.39343c-0.95489,0.9282 -8.40631,8.17129 -11.38331,11.06507c-0.99234,0.9646 -1.14394,1.43058 -2.5277,1.41109z" fill="#511a1a" stroke="#ffffff" stroke-width="1" stroke-linecap="butt"/><path d="M239.84626,195.14667c-1.38376,-0.01949 -1.52182,-0.48956 -2.48623,-1.48171c-2.89325,-2.97646 -6.85303,-7.05013 -11.23932,-11.56258c-0.90571,-0.93176 -1.3195,-1.07442 -1.26021,-2.37248c0.05929,-1.29806 0.48984,-1.52209 1.48218,-2.48668c4.44248,-4.31828 8.51863,-8.28047 11.38331,-11.06507c0.95489,-0.9282 1.10212,-1.39135 2.43176,-1.31784c1.32965,0.07351 1.58947,0.55916 2.59718,1.59586c4.25028,4.37253 7.89557,8.12265 10.89082,11.20405c0.99841,1.02713 1.46589,1.1848 1.49777,2.61687c0.03188,1.43207 -0.43135,1.46523 -1.38625,2.39343c-0.95489,0.9282 -8.40631,8.17129 -11.38331,11.06507c-0.99234,0.9646 -1.14394,1.43058 -2.5277,1.41109z" fill="none" stroke="#ffffff" stroke-width="1" stroke-linecap="butt"/><path d="M235.85714,197.57143v-8.85714h8.85714v8.85714z" fill="none" stroke="none" stroke-width="0" stroke-linecap="butt"/><path d="M210.22222,209.77778v-59.55556h59.55556v59.55556z" fill="none" stroke="none" stroke-width="0" stroke-linecap="butt"/><g><path d="M240.57059,170.66796c0.03216,-0.29916 0.35552,-1.53123 0.39833,-1.66697c0.16122,-0.51115 1.09391,-0.67255 2.08322,-0.36051c0.80743,0.25467 1.75406,0.68309 1.49939,1.49052c0,0 -0.38507,1.19505 -0.62399,1.31171c-0.42448,0.20727 -1.70407,-0.17497 -1.70407,-0.17497z" fill="none" stroke="#dfb035" stroke-width="1.5" stroke-linecap="butt"/><path d="M231.89371,186.92241c-2.04272,-3.50623 -0.85632,-8.00454 2.64992,-10.04724c1.07574,-0.62674 2.2449,-0.9495 3.40786,-0.99455c0.68155,-0.0264 1.41009,-5.65498 2.06735,-5.49591c0.55997,0.13552 4.14668,0.48298 4.41981,1.59944c0.18387,0.75156 -1.93848,5.2257 -1.52724,5.56392c0.65516,0.53884 1.22744,1.20112 1.67948,1.97701c2.04272,3.50623 0.85632,8.00454 -2.64992,10.04725c-3.50623,2.04272 -8.00454,0.85632 -10.04724,-2.64992z" fill="none" stroke="#e7e7e7" stroke-width="1.5" stroke-linecap="butt"/><path d="M244.37138,183.06898c-0.02793,3.35203 -2.76794,6.04675 -6.11998,6.01882c-3.35203,-0.02793 -6.04675,-2.76794 -6.01882,-6.11998" fill="#ff3030" stroke="#ff1919" stroke-width="1.5" stroke-linecap="butt"/><path d="M244.30217,182.85542c-0.008,0.96053 -2.71596,1.71668 -6.0484,1.68891c-3.33245,-0.02777 -6.02743,-0.82894 -6.01943,-1.78948c0.008,-0.96053 2.71596,-1.71668 6.0484,-1.68889c3.33245,0.02777 6.02741,0.82894 6.01942,1.78947z" fill="#ff3030" stroke="#ff1919" stroke-width="1.5" stroke-linecap="butt"/><path d="M247.31054,186.08718l-3.26782,1.73686l-1.4778,-8.08883l3.2617,-3.46766l3.96609,2.14717l1.4778,8.08883z" data-paper-data="{&quot;index&quot;:null}" fill="#ffffff" stroke="#725e5e" stroke-width="1" stroke-linecap="butt"/><path d="M246.57808,180.76949c0,0 0.53749,-0.90268 1.07113,-0.94859c1.16106,-0.11049 1.67334,1.23292 1.18431,2.58751c-0.2873,0.86013 -0.86034,1.60087 -1.62618,2.10211c-0.8949,-0.19692 -1.69421,-0.68709 -2.26789,-1.39068c-0.91573,-1.09794 -0.91166,-2.53602 0.22389,-2.84478c0.72204,-0.19633 1.41472,0.49442 1.41472,0.49442z" data-paper-data="{&quot;index&quot;:null}" fill="none" stroke="#e82c2c" stroke-width="1.5" stroke-linecap="butt"/><path d="M240.30135,169.98291c0,0 1.03913,0.63482 1.57539,0.7452c0.67059,0.13804 2.45544,0.46596 2.45544,0.46596c0,0 0.60788,1.23605 0.96869,2.1596c0.30985,0.79312 0.49164,2.92244 0.49164,2.92244" fill="none" stroke="#725e5e" stroke-width="1" stroke-linecap="round"/></g></g></g></svg>