<svg version="1.1" xmlns="http://www.w3.org/2000/svg" xmlns:xlink="http://www.w3.org/1999/xlink" width="42.86718" height="42.86718" viewBox="0,0,42.86718,42.86718"><g transform="translate(-218.56641,-158.56641)"><g data-paper-data="{&quot;isPaintingLayer&quot;:true}" fill-rule="nonzero" stroke-linejoin="miter" stroke-miterlimit="10" stroke-dasharray="" stroke-dashoffset="0" style="mix-blend-mode: normal"><path d="M218.56641,201.43359v-42.86718h42.86718v42.86718z" fill="none" stroke="none" stroke-width="0" stroke-linecap="butt"/><path d="" data-paper-data="{&quot;index&quot;:null}" fill="none" stroke="#cdcdcd" stroke-width="1.5" stroke-linecap="round"/><path d="" fill="none" stroke="#cdcdcd" stroke-width="1.5" stroke-linecap="round"/><path d="" data-paper-data="{&quot;index&quot;:null}" fill="none" stroke="#cdcdcd" stroke-width="1.5" stroke-linecap="round"/><path d="" fill="none" stroke="#cdcdcd" stroke-width="1.5" stroke-linecap="round"/><path d="" data-paper-data="{&quot;index&quot;:null}" fill="none" stroke="#cdcdcd" stroke-width="1.5" stroke-linecap="round"/><path d="" data-paper-data="{&quot;index&quot;:null}" fill="none" stroke="#cdcdcd" stroke-width="1.5" stroke-linecap="round"/><path d="" data-paper-data="{&quot;index&quot;:null}" fill="none" stroke="#cdcdcd" stroke-width="1.5" stroke-linecap="round"/><path d="" fill="none" stroke="#cdcdcd" stroke-width="1.5" stroke-linecap="round"/><path d="" data-paper-data="{&quot;index&quot;:null}" fill="none" stroke="#cdcdcd" stroke-width="1.5" stroke-linecap="round"/><path d="" data-paper-data="{&quot;index&quot;:null}" fill="none" stroke="#cdcdcd" stroke-width="1.5" stroke-linecap="round"/><path d="" fill="none" stroke="#cdcdcd" stroke-width="1.5" stroke-linecap="round"/><path d="" data-paper-data="{&quot;index&quot;:null}" fill="none" stroke="#cdcdcd" stroke-width="1.5" stroke-linecap="round"/><path d="M255.52075,184.47699l-1.34495,1.65773l-4.28351,-0.11837" data-paper-data="{&quot;index&quot;:null}" fill="none" stroke="#bd845e" stroke-width="2" stroke-linecap="round"/><path d="M253.06461,188.22607l-1.01363,1.44181l-4.85988,-0.7031" data-paper-data="{&quot;index&quot;:null}" fill="none" stroke="#bd845e" stroke-width="2" stroke-linecap="round"/><path d="M240.44628,189.06607c-0.88891,-0.62492 -2.37824,-2.00166 -3.91253,-3.66618c-3.15163,-3.41915 1.13097,-5.25113 2.41463,-7.07705c1.90859,-2.71484 5.69466,-0.99662 8.40949,0.91196c2.71484,1.90859 3.36842,5.65661 1.45984,8.37144c-1.90859,2.71484 -5.65661,3.36842 -8.37144,1.45984z" fill="#4d3e34" stroke="#bd845e" stroke-width="2" stroke-linecap="butt"/><path d="M239.94223,183.02767c0.47985,-1.14632 1.79811,-1.68659 2.94443,-1.20674c1.14632,0.47985 1.68659,1.79811 1.20674,2.94443c-0.14674,0.35055 -0.37189,0.64443 -0.64655,0.86979c-0.07413,0.06083 0.37959,0.21538 0.33946,0.57194c-0.04501,0.4 -0.92591,0.85375 -1.02337,0.89705c-0.14851,0.06597 -0.51895,-0.00437 -0.64282,-0.21623c-0.16238,-0.27775 -0.07814,-0.73022 -0.29549,-0.749c-0.22678,-0.01959 -0.45443,-0.0742 -0.67567,-0.16681c-1.14632,-0.47985 -1.68659,-1.79811 -1.20674,-2.94443z" fill="#000000" stroke="#ffffff" stroke-width="0.5" stroke-linecap="butt"/><path d="M243.20613,181.2784c-1.01661,-0.7147 -1.26136,-2.1182 -0.54666,-3.13481c0.7147,-1.01661 2.1182,-1.26136 3.13481,-0.54666c1.01661,0.7147 1.26136,2.1182 0.54666,3.13481c-0.7147,1.01661 -2.1182,1.26136 -3.13481,0.54666z" fill="#000000" stroke="#ffffff" stroke-width="0.5" stroke-linecap="butt"/><path d="M239.24559,181.16769c-3.57297,5.08231 -5.97978,9.97296 -9.88016,7.23091c-2.54276,-1.78761 -3.54062,-5.10559 -2.93726,-8.607c0.32215,-1.86947 -0.18328,-4.69394 1.06039,-6.46297c3.57297,-5.08231 10.95773,-5.83379 14.85812,-3.09173c3.90039,2.74206 -3.10109,10.9308 -3.10109,10.9308z" fill="#281c14" stroke="#bc6327" stroke-width="2" stroke-linecap="butt"/><path d="M238.84956,166.5066c1.14769,0.13692 0.02816,2.70853 -0.21146,4.71699c-0.16574,1.38933 -1.19571,1.69198 -2.27321,1.25183c-0.48015,-0.19614 -1.07162,-1.12395 -1.4254,-1.16615c-1.14769,-0.13692 -0.09012,-2.18901 0.14947,-4.19747c0.23961,-2.00845 2.6129,-0.74211 3.76059,-0.6052z" fill="#281c14" stroke="#bc6327" stroke-width="2" stroke-linecap="butt"/><path d="M238.03712,163.03046c2.79198,0.74462 4.67302,2.78171 4.20142,4.54997c-0.4716,1.76826 -3.11724,2.59807 -5.90922,1.85345c-2.79198,-0.74462 -4.67302,-2.78171 -4.20142,-4.54997c0.4716,-1.76826 3.11724,-2.59807 5.90922,-1.85345z" fill="#281c14" stroke="#bc6327" stroke-width="2" stroke-linecap="butt"/><path d="M238.31164,166.12107l-3.18547,-0.32078" fill="none" stroke="#bc6327" stroke-width="2" stroke-linecap="round"/></g></g></svg>