<svg version="1.1" xmlns="http://www.w3.org/2000/svg" xmlns:xlink="http://www.w3.org/1999/xlink" width="356" height="59" viewBox="0,0,356,59"><defs><linearGradient x1="78.50005" y1="167" x2="401.49995" y2="167" gradientUnits="userSpaceOnUse" id="color-1"><stop offset="0" stop-color="#ffc5c5"/><stop offset="1" stop-color="#efffd1"/></linearGradient><linearGradient x1="78.50005" y1="167" x2="401.49995" y2="167" gradientUnits="userSpaceOnUse" id="color-2"><stop offset="0" stop-color="#ffc9c9"/><stop offset="1" stop-color="#f9ffc7"/></linearGradient></defs><g transform="translate(-61.91527,-145.5)"><g data-paper-data="{&quot;isPaintingLayer&quot;:true}" fill-rule="nonzero" stroke-linejoin="miter" stroke-miterlimit="10" stroke-dasharray="" stroke-dashoffset="0" style="mix-blend-mode: normal"><path d="M82.86326,170.67955c-0.18527,0 -0.34461,-0.0667 -0.47801,-0.2001c-0.13339,-0.1334 -0.20009,-0.29644 -0.20009,-0.48912v-3.09038l-3.54615,-5.51377c-0.11116,-0.18527 -0.15563,-0.35943 -0.1334,-0.52247c0.02964,-0.16304 0.10746,-0.29644 0.23345,-0.40019c0.12599,-0.10375 0.2742,-0.15563 0.44466,-0.15563c0.14822,0 0.2668,0.03335 0.35573,0.10005c0.08893,0.0667 0.17416,0.16304 0.25568,0.28903l3.36828,5.34702h-0.53359l3.43499,-5.4026c0.0667,-0.10375 0.14822,-0.18527 0.24456,-0.24456c0.09634,-0.05929 0.21492,-0.08893 0.35573,-0.08893c0.16304,0 0.29644,0.05558 0.40019,0.16675c0.11116,0.11116 0.17416,0.25197 0.18898,0.42243c0.01482,0.16304 -0.02964,0.32608 -0.1334,0.48912l-3.56838,5.51377v3.09038c0,0.19269 -0.0667,0.35573 -0.2001,0.48912c-0.1334,0.1334 -0.29644,0.2001 -0.48912,0.2001zM86.90425,170.67955c-0.24456,0 -0.43354,-0.10375 -0.56694,-0.31126c-0.1334,-0.21492 -0.14822,-0.44466 -0.04447,-0.68922l3.73513,-8.90429c0.1334,-0.31126 0.34832,-0.46689 0.64475,-0.46689c0.31867,0 0.5373,0.15563 0.65587,0.46689l3.74625,8.93764c0.09634,0.24456 0.07782,0.46689 -0.05558,0.66699c-0.12599,0.2001 -0.31497,0.30014 -0.56694,0.30014c-0.1334,0 -0.26309,-0.03706 -0.38908,-0.11116c-0.11857,-0.07411 -0.2038,-0.17786 -0.25568,-0.31126l-3.29047,-8.18172h0.37796l-3.34606,8.18172c-0.0667,0.14081 -0.15934,0.24827 -0.27791,0.32238c-0.11857,0.0667 -0.24086,0.10005 -0.36684,0.10005zM87.6157,168.40067l0.52247,-1.145h5.20251l0.53359,1.145zM98.69669,170.67955c-0.18527,0 -0.34461,-0.0667 -0.47801,-0.2001c-0.1334,-0.1334 -0.2001,-0.29644 -0.2001,-0.48912v-3.09038l-3.54615,-5.51377c-0.11116,-0.18527 -0.15563,-0.35943 -0.1334,-0.52247c0.02964,-0.16304 0.10746,-0.29644 0.23345,-0.40019c0.12599,-0.10375 0.2742,-0.15563 0.44466,-0.15563c0.14822,0 0.2668,0.03335 0.35573,0.10005c0.08893,0.0667 0.17416,0.16304 0.25568,0.28903l3.36829,5.34702h-0.53359l3.43499,-5.4026c0.0667,-0.10375 0.14822,-0.18527 0.24456,-0.24456c0.09634,-0.05929 0.21492,-0.08893 0.35573,-0.08893c0.16304,0 0.29644,0.05558 0.40019,0.16675c0.11116,0.11116 0.17416,0.25197 0.18898,0.42243c0.01482,0.16304 -0.02964,0.32608 -0.1334,0.48912l-3.56838,5.51377v3.09038c0,0.19269 -0.0667,0.35573 -0.2001,0.48912c-0.1334,0.1334 -0.29644,0.2001 -0.48912,0.2001zM107.58964,170.67955c-0.18527,0 -0.34461,-0.0667 -0.47801,-0.2001c-0.1334,-0.1334 -0.2001,-0.29644 -0.2001,-0.48912v-3.09038l-3.54615,-5.51377c-0.11116,-0.18527 -0.15563,-0.35943 -0.1334,-0.52247c0.02964,-0.16304 0.10746,-0.29644 0.23345,-0.40019c0.12599,-0.10375 0.2742,-0.15563 0.44466,-0.15563c0.14822,0 0.2668,0.03335 0.35573,0.10005c0.08893,0.0667 0.17416,0.16304 0.25568,0.28903l3.36829,5.34702h-0.53359l3.43499,-5.4026c0.0667,-0.10375 0.14822,-0.18527 0.24456,-0.24456c0.09634,-0.05929 0.21492,-0.08893 0.35573,-0.08893c0.16304,0 0.29644,0.05558 0.40019,0.16675c0.11116,0.11116 0.17416,0.25197 0.18898,0.42243c0.01482,0.16304 -0.02964,0.32608 -0.1334,0.48912l-3.56838,5.51377v3.09038c0,0.19269 -0.0667,0.35573 -0.2001,0.48912c-0.1334,0.1334 -0.29644,0.2001 -0.48912,0.2001zM116.4826,170.67955c-0.18527,0 -0.34461,-0.0667 -0.47801,-0.2001c-0.1334,-0.1334 -0.2001,-0.29644 -0.2001,-0.48912v-3.09038l-3.54615,-5.51377c-0.11116,-0.18527 -0.15563,-0.35943 -0.1334,-0.52247c0.02964,-0.16304 0.10746,-0.29644 0.23345,-0.40019c0.12599,-0.10375 0.2742,-0.15563 0.44466,-0.15563c0.14822,0 0.2668,0.03335 0.35573,0.10005c0.08893,0.0667 0.17416,0.16304 0.25568,0.28903l3.36829,5.34702h-0.53359l3.43499,-5.4026c0.0667,-0.10375 0.14822,-0.18527 0.24456,-0.24456c0.09634,-0.05929 0.21492,-0.08893 0.35573,-0.08893c0.16304,0 0.29644,0.05558 0.40019,0.16675c0.11116,0.11116 0.17416,0.25197 0.18898,0.42243c0.01482,0.16304 -0.02964,0.32608 -0.1334,0.48912l-3.56838,5.51377v3.09038c0,0.19269 -0.0667,0.35573 -0.2001,0.48912c-0.1334,0.1334 -0.29644,0.2001 -0.48912,0.2001zM122.51862,168.22281c-0.19269,0 -0.35573,-0.0667 -0.48912,-0.2001c-0.12599,-0.14081 -0.18898,-0.30014 -0.18898,-0.47801v-6.53648c0,-0.2001 0.06299,-0.36684 0.18898,-0.50024c0.1334,-0.1334 0.29644,-0.2001 0.48912,-0.2001c0.19269,0 0.35202,0.0667 0.47801,0.2001c0.1334,0.1334 0.2001,0.30014 0.2001,0.50024v6.53648c0,0.18527 -0.07041,0.34461 -0.21121,0.47801c-0.1334,0.1334 -0.28903,0.2001 -0.46689,0.2001zM122.51862,170.67955c-0.24456,0 -0.45948,-0.08893 -0.64475,-0.2668c-0.17786,-0.17786 -0.2668,-0.39278 -0.2668,-0.64475c0,-0.25939 0.08893,-0.47801 0.2668,-0.65587c0.18527,-0.18527 0.40019,-0.27791 0.64475,-0.27791c0.25939,0 0.4743,0.09264 0.64475,0.27791c0.17786,0.17786 0.2668,0.39649 0.2668,0.65587c0,0.25197 -0.08893,0.46689 -0.2668,0.64475c-0.17786,0.17786 -0.39278,0.2668 -0.64475,0.2668zM133.08721,170.67955c-0.18527,0 -0.34461,-0.0667 -0.47801,-0.2001c-0.1334,-0.1334 -0.2001,-0.29644 -0.2001,-0.48912v-3.09038l-3.54615,-5.51377c-0.11116,-0.18527 -0.15563,-0.35943 -0.1334,-0.52247c0.02964,-0.16304 0.10746,-0.29644 0.23345,-0.40019c0.12599,-0.10375 0.2742,-0.15563 0.44466,-0.15563c0.14822,0 0.2668,0.03335 0.35573,0.10005c0.08893,0.0667 0.17416,0.16304 0.25568,0.28903l3.36829,5.34702h-0.53359l3.43499,-5.4026c0.0667,-0.10375 0.14822,-0.18527 0.24456,-0.24456c0.09634,-0.05929 0.21492,-0.08893 0.35573,-0.08893c0.16304,0 0.29644,0.05558 0.40019,0.16675c0.11116,0.11116 0.17416,0.25197 0.18898,0.42243c0.01482,0.16304 -0.02964,0.32608 -0.1334,0.48912l-3.56838,5.51377v3.09038c0,0.19269 -0.0667,0.35573 -0.2001,0.48912c-0.1334,0.1334 -0.29644,0.2001 -0.48912,0.2001zM140.7077,170.73513c-0.71886,0 -1.3525,-0.15563 -1.90092,-0.46689c-0.54841,-0.31867 -0.98196,-0.75221 -1.30063,-1.30063c-0.31126,-0.55582 -0.46689,-1.19317 -0.46689,-1.91203c0,-0.72628 0.15563,-1.36362 0.46689,-1.91203c0.31867,-0.55582 0.75221,-0.98937 1.30063,-1.30063c0.54841,-0.31867 1.18205,-0.47801 1.90092,-0.47801c0.70404,0 1.33027,0.15934 1.87868,0.47801c0.54841,0.31126 0.97825,0.7448 1.28951,1.30063c0.31867,0.54841 0.47801,1.18575 0.47801,1.91203c0,0.71886 -0.15563,1.35621 -0.46689,1.91203c-0.31126,0.54841 -0.7411,0.98196 -1.28951,1.30063c-0.54841,0.31126 -1.17835,0.46689 -1.8898,0.46689zM140.7077,169.53455c0.45948,0 0.86338,-0.10375 1.21169,-0.31126c0.35573,-0.21492 0.63364,-0.50765 0.83373,-0.8782c0.2001,-0.37055 0.30014,-0.80039 0.30014,-1.28951c0,-0.48912 -0.10005,-0.91896 -0.30014,-1.28951c-0.2001,-0.37796 -0.47801,-0.67069 -0.83373,-0.8782c-0.34832,-0.21492 -0.75221,-0.32238 -1.21169,-0.32238c-0.46689,0 -0.8782,0.10746 -1.23393,0.32238c-0.34832,0.20751 -0.62623,0.50024 -0.83373,0.8782c-0.2001,0.37055 -0.30014,0.80039 -0.30014,1.28951c0,0.48912 0.10005,0.91896 0.30014,1.28951c0.20751,0.37055 0.48542,0.66328 0.83373,0.8782c0.35573,0.20751 0.76704,0.31126 1.23393,0.31126zM149.42244,170.74625c-0.6077,0 -1.15241,-0.12969 -1.63412,-0.38908c-0.48171,-0.25939 -0.86338,-0.64105 -1.145,-1.145c-0.28162,-0.51136 -0.42243,-1.13388 -0.42243,-1.86757v-3.25712c0,-0.2001 0.06299,-0.36314 0.18898,-0.48912c0.1334,-0.12599 0.29644,-0.18898 0.48912,-0.18898c0.19269,0 0.35202,0.06299 0.47801,0.18898c0.1334,0.12599 0.2001,0.28903 0.2001,0.48912v3.25712c0,0.49653 0.09264,0.90784 0.27791,1.23393c0.18527,0.31867 0.43725,0.55582 0.75592,0.71145c0.31867,0.15563 0.6781,0.23345 1.0783,0.23345c0.37796,0 0.71516,-0.07411 1.0116,-0.22233c0.29644,-0.14822 0.53359,-0.35202 0.71145,-0.61141c0.17786,-0.25939 0.2668,-0.54841 0.2668,-0.86708h0.83373c0,0.54841 -0.1371,1.04495 -0.41131,1.48961c-0.2668,0.44466 -0.63364,0.79668 -1.10053,1.05606c-0.45948,0.25197 -0.98566,0.37796 -1.57854,0.37796zM152.35718,170.67955c-0.19269,0 -0.35573,-0.06299 -0.48912,-0.18898c-0.12599,-0.1334 -0.18898,-0.29644 -0.18898,-0.48912v-5.91396c0,-0.20751 0.06299,-0.37055 0.18898,-0.48912c0.1334,-0.12599 0.29644,-0.18898 0.48912,-0.18898c0.2001,0 0.36314,0.06299 0.48912,0.18898c0.12599,0.11857 0.18898,0.28162 0.18898,0.48912v5.91396c0,0.19269 -0.06299,0.35573 -0.18898,0.48912c-0.12599,0.12599 -0.28903,0.18898 -0.48912,0.18898zM168.84457,170.69066c-0.2001,0 -0.36314,-0.06299 -0.48912,-0.18898c-0.12599,-0.12599 -0.18898,-0.28903 -0.18898,-0.48912v-3.79071c0,-0.55582 -0.1371,-0.96713 -0.41131,-1.23393c-0.2742,-0.2742 -0.63364,-0.41131 -1.0783,-0.41131c-0.45948,0 -0.83744,0.15934 -1.13388,0.47801c-0.29644,0.31867 -0.44466,0.72628 -0.44466,1.22281h-1.10053c0,-0.57806 0.12228,-1.08571 0.36684,-1.52296c0.25197,-0.43725 0.60029,-0.77815 1.04495,-1.02271c0.44466,-0.25197 0.95602,-0.37796 1.53407,-0.37796c0.50395,0 0.94861,0.11116 1.33398,0.33349c0.39278,0.22233 0.69663,0.54841 0.91155,0.97825c0.22233,0.42243 0.33349,0.94119 0.33349,1.5563v3.79071c0,0.2001 -0.06299,0.36314 -0.18898,0.48912c-0.12599,0.12599 -0.28903,0.18898 -0.48912,0.18898zM159.98475,170.69066c-0.19269,0 -0.35573,-0.06299 -0.48912,-0.18898c-0.12599,-0.12599 -0.18898,-0.28903 -0.18898,-0.48912v-5.90284c0,-0.2001 0.06299,-0.36314 0.18898,-0.48912c0.1334,-0.12599 0.29644,-0.18898 0.48912,-0.18898c0.20751,0 0.37055,0.06299 0.48912,0.18898c0.12599,0.12599 0.18898,0.28903 0.18898,0.48912v5.90284c0,0.2001 -0.06299,0.36314 -0.18898,0.48912c-0.11857,0.12599 -0.28162,0.18898 -0.48912,0.18898zM164.42022,170.69066c-0.19269,0 -0.35573,-0.06299 -0.48912,-0.18898c-0.12599,-0.12599 -0.18898,-0.28903 -0.18898,-0.48912v-3.79071c0,-0.55582 -0.1371,-0.96713 -0.41131,-1.23393c-0.2742,-0.2742 -0.62993,-0.41131 -1.06718,-0.41131c-0.46689,0 -0.85226,0.15934 -1.15611,0.47801c-0.29644,0.31867 -0.44466,0.72628 -0.44466,1.22281h-0.83373c0,-0.57806 0.11487,-1.08571 0.34461,-1.52296c0.22974,-0.43725 0.54841,-0.77815 0.95602,-1.02271c0.4076,-0.25197 0.87079,-0.37796 1.38956,-0.37796c0.50395,0 0.95231,0.11116 1.34509,0.33349c0.39278,0.22233 0.69663,0.54841 0.91155,0.97825c0.21492,0.42243 0.32238,0.94119 0.32238,1.5563v3.79071c0,0.2001 -0.06299,0.36314 -0.18898,0.48912c-0.11857,0.12599 -0.28162,0.18898 -0.48912,0.18898zM174.79158,170.73513c-0.64475,0 -1.22652,-0.15934 -1.74528,-0.47801c-0.51136,-0.32608 -0.91526,-0.76704 -1.21169,-1.32286c-0.29644,-0.55582 -0.44466,-1.18205 -0.44466,-1.87868c0,-0.69663 0.15934,-1.32286 0.47801,-1.87868c0.32608,-0.56323 0.76333,-1.00419 1.31174,-1.32286c0.55582,-0.32608 1.18205,-0.48912 1.87868,-0.48912c0.68922,0 1.30804,0.16304 1.85645,0.48912c0.54841,0.31867 0.98196,0.75963 1.30063,1.32286c0.32608,0.55582 0.48912,1.18205 0.48912,1.87868h-0.52247c0,0.69663 -0.14822,1.32286 -0.44466,1.87868c-0.29644,0.55582 -0.70034,0.99678 -1.21169,1.32286c-0.51136,0.31867 -1.08941,0.47801 -1.73417,0.47801zM175.05837,169.53455c0.44466,0 0.84485,-0.10746 1.20058,-0.32238c0.35573,-0.21492 0.63364,-0.51136 0.83373,-0.88932c0.20751,-0.37796 0.31126,-0.80039 0.31126,-1.26728c0,-0.4743 -0.10375,-0.90043 -0.31126,-1.27839c-0.2001,-0.37796 -0.47801,-0.6744 -0.83373,-0.88932c-0.35573,-0.21492 -0.75592,-0.32238 -1.20058,-0.32238c-0.44466,0 -0.84856,0.10746 -1.21169,0.32238c-0.35573,0.21492 -0.63735,0.51136 -0.84485,0.88932c-0.20751,0.37796 -0.31126,0.80409 -0.31126,1.27839c0,0.46689 0.10375,0.88932 0.31126,1.26728c0.20751,0.37796 0.48912,0.6744 0.84485,0.88932c0.36314,0.21492 0.76704,0.32238 1.21169,0.32238zM178.02647,170.69066c-0.19269,0 -0.35573,-0.06299 -0.48912,-0.18898c-0.12599,-0.12599 -0.18898,-0.28903 -0.18898,-0.48912v-2.0232l0.25568,-1.41179l1.10053,0.47801v2.95698c0,0.2001 -0.0667,0.36314 -0.2001,0.48912c-0.12599,0.12599 -0.28532,0.18898 -0.47801,0.18898zM184.0177,170.73513c-0.69663,0 -1.32286,-0.15934 -1.87868,-0.47801c-0.54841,-0.32608 -0.98566,-0.76704 -1.31174,-1.32286c-0.31867,-0.56323 -0.47801,-1.19317 -0.47801,-1.8898c0,-0.69663 0.14822,-1.32286 0.44466,-1.87868c0.29644,-0.55582 0.70034,-0.99307 1.21169,-1.31174c0.51877,-0.32608 1.10053,-0.48912 1.74528,-0.48912c0.51877,0 1.00048,0.11116 1.44514,0.33349c0.44466,0.21492 0.81521,0.50765 1.11165,0.8782v-3.59062c0,-0.2001 0.06299,-0.36314 0.18898,-0.48912c0.1334,-0.12599 0.29644,-0.18898 0.48912,-0.18898c0.2001,0 0.36314,0.06299 0.48912,0.18898c0.12599,0.12599 0.18898,0.28903 0.18898,0.48912v6.05847c0,0.69663 -0.16304,1.32657 -0.48912,1.8898c-0.31867,0.55582 -0.75221,0.99678 -1.30063,1.32286c-0.54841,0.31867 -1.16723,0.47801 -1.85645,0.47801zM184.0177,169.53455c0.44466,0 0.84485,-0.10746 1.20058,-0.32238c0.35573,-0.21492 0.63364,-0.51136 0.83373,-0.88932c0.20751,-0.38537 0.31126,-0.8115 0.31126,-1.27839c0,-0.48171 -0.10375,-0.90784 -0.31126,-1.27839c-0.2001,-0.37055 -0.47801,-0.66328 -0.83373,-0.8782c-0.35573,-0.21492 -0.75592,-0.32238 -1.20058,-0.32238c-0.44466,0 -0.84856,0.10746 -1.21169,0.32238c-0.35573,0.21492 -0.63735,0.50765 -0.84485,0.8782c-0.20751,0.37055 -0.31126,0.79668 -0.31126,1.27839c0,0.46689 0.10375,0.89302 0.31126,1.27839c0.20751,0.37796 0.48912,0.6744 0.84485,0.88932c0.36314,0.21492 0.76704,0.32238 1.21169,0.32238zM193.45981,170.73513c-0.73369,0 -1.38585,-0.15563 -1.9565,-0.46689c-0.57065,-0.31867 -1.01901,-0.75221 -1.34509,-1.30063c-0.31867,-0.55582 -0.47801,-1.19317 -0.47801,-1.91203c0,-0.72628 0.15192,-1.36362 0.45578,-1.91203c0.30385,-0.55582 0.72628,-0.98937 1.26728,-1.30063c0.541,-0.31867 1.15982,-0.47801 1.85645,-0.47801c0.69663,0 1.28951,0.15192 1.77863,0.45578c0.49653,0.30385 0.87449,0.72628 1.13388,1.26728c0.2668,0.53359 0.40019,1.1487 0.40019,1.84533c0,0.17045 -0.05929,0.31126 -0.17786,0.42243c-0.11116,0.11116 -0.25568,0.16675 -0.43354,0.16675h-5.34702v-1.06718h5.30255l-0.54471,0.37796c-0.00741,-0.44466 -0.09634,-0.84114 -0.2668,-1.18946c-0.16304,-0.34832 -0.40019,-0.62252 -0.71145,-0.82262c-0.31126,-0.20751 -0.68922,-0.31126 -1.13388,-0.31126c-0.50395,0 -0.93378,0.11116 -1.28951,0.33349c-0.35573,0.21492 -0.62993,0.51506 -0.82262,0.90043c-0.18527,0.38537 -0.27791,0.82262 -0.27791,1.31174c0,0.48912 0.11116,0.92267 0.33349,1.30063c0.22233,0.37796 0.52618,0.6781 0.91155,0.90043c0.39278,0.22233 0.84114,0.33349 1.34509,0.33349c0.2742,0 0.55582,-0.04817 0.84485,-0.14451c0.28903,-0.10375 0.52247,-0.22233 0.70034,-0.35573c0.1334,-0.09634 0.27791,-0.14822 0.43354,-0.15563c0.15563,-0.00741 0.28903,0.04076 0.40019,0.14451c0.14822,0.12599 0.22604,0.2705 0.23345,0.43354c0.01482,0.15563 -0.05558,0.29273 -0.21121,0.41131c-0.29644,0.23715 -0.67069,0.43354 -1.12276,0.58917c-0.44466,0.14822 -0.87079,0.22233 -1.27839,0.22233zM202.99014,170.67955c-0.19269,0 -0.35573,-0.06299 -0.48912,-0.18898c-0.12599,-0.1334 -0.18898,-0.29644 -0.18898,-0.48912v-5.90284c0,-0.20751 0.06299,-0.37055 0.18898,-0.48912c0.1334,-0.12599 0.29644,-0.18898 0.48912,-0.18898c0.20751,0 0.37055,0.06299 0.48912,0.18898c0.12599,0.11857 0.18898,0.28162 0.18898,0.48912v5.90284c0,0.19269 -0.06299,0.35573 -0.18898,0.48912c-0.11857,0.12599 -0.28162,0.18898 -0.48912,0.18898zM202.99014,162.24215c-0.23715,0 -0.44466,-0.08523 -0.62252,-0.25568c-0.17045,-0.17786 -0.25568,-0.38537 -0.25568,-0.62252c0,-0.23715 0.08523,-0.44095 0.25568,-0.61141c0.17786,-0.17786 0.38537,-0.2668 0.62252,-0.2668c0.23715,0 0.44095,0.08893 0.61141,0.2668c0.17786,0.17045 0.2668,0.37425 0.2668,0.61141c0,0.23715 -0.08893,0.44466 -0.2668,0.62252c-0.17045,0.17045 -0.37425,0.25568 -0.61141,0.25568zM208.83282,170.67955c-0.44466,0 -0.84485,-0.11116 -1.20058,-0.33349c-0.34832,-0.22974 -0.62623,-0.5373 -0.83373,-0.92267c-0.2001,-0.39278 -0.30014,-0.83373 -0.30014,-1.32286v-6.32527c0,-0.19269 0.05929,-0.35202 0.17786,-0.47801c0.12599,-0.12599 0.28903,-0.18898 0.48912,-0.18898c0.19269,0 0.34832,0.06299 0.46689,0.18898c0.12599,0.12599 0.18898,0.28532 0.18898,0.47801v6.32527c0,0.35573 0.09634,0.65587 0.28903,0.90043c0.2001,0.23715 0.44095,0.35573 0.72257,0.35573h0.45578c0.15563,0 0.28903,0.06299 0.40019,0.18898c0.11116,0.11857 0.16675,0.2742 0.16675,0.46689c0,0.2001 -0.07411,0.36314 -0.22233,0.48912c-0.14081,0.11857 -0.32608,0.17786 -0.55582,0.17786zM205.88695,164.82117c-0.18527,0 -0.3372,-0.05188 -0.45578,-0.15563c-0.11116,-0.10375 -0.16675,-0.23715 -0.16675,-0.40019c0,-0.17786 0.05558,-0.31867 0.16675,-0.42243c0.11857,-0.10375 0.2705,-0.15563 0.45578,-0.15563h3.06814c0.18527,0 0.33349,0.05188 0.44466,0.15563c0.11857,0.10375 0.17786,0.24456 0.17786,0.42243c0,0.16304 -0.05929,0.29644 -0.17786,0.40019c-0.11116,0.10375 -0.25939,0.15563 -0.44466,0.15563zM218.04433,170.67955c-0.44466,0 -0.84485,-0.11116 -1.20058,-0.33349c-0.34832,-0.22974 -0.62623,-0.5373 -0.83373,-0.92267c-0.2001,-0.39278 -0.30014,-0.83373 -0.30014,-1.32286v-6.32527c0,-0.19269 0.05929,-0.35202 0.17786,-0.47801c0.12599,-0.12599 0.28903,-0.18898 0.48912,-0.18898c0.19269,0 0.34832,0.06299 0.46689,0.18898c0.12599,0.12599 0.18898,0.28532 0.18898,0.47801v6.32527c0,0.35573 0.09634,0.65587 0.28903,0.90043c0.2001,0.23715 0.44095,0.35573 0.72257,0.35573h0.45578c0.15563,0 0.28903,0.06299 0.40019,0.18898c0.11116,0.11857 0.16675,0.2742 0.16675,0.46689c0,0.2001 -0.07411,0.36314 -0.22233,0.48912c-0.14081,0.11857 -0.32608,0.17786 -0.55582,0.17786zM215.09846,164.82117c-0.18527,0 -0.3372,-0.05188 -0.45578,-0.15563c-0.11116,-0.10375 -0.16675,-0.23715 -0.16675,-0.40019c0,-0.17786 0.05558,-0.31867 0.16675,-0.42243c0.11857,-0.10375 0.2705,-0.15563 0.45578,-0.15563h3.06814c0.18527,0 0.33349,0.05188 0.44466,0.15563c0.11857,0.10375 0.17786,0.24456 0.17786,0.42243c0,0.16304 -0.05929,0.29644 -0.17786,0.40019c-0.11116,0.10375 -0.25939,0.15563 -0.44466,0.15563zM224.02268,170.73513c-0.71886,0 -1.3525,-0.15563 -1.90092,-0.46689c-0.54841,-0.31867 -0.98196,-0.75221 -1.30063,-1.30063c-0.31126,-0.55582 -0.46689,-1.19317 -0.46689,-1.91203c0,-0.72628 0.15563,-1.36362 0.46689,-1.91203c0.31867,-0.55582 0.75221,-0.98937 1.30063,-1.30063c0.54841,-0.31867 1.18205,-0.47801 1.90092,-0.47801c0.70404,0 1.33027,0.15934 1.87868,0.47801c0.54841,0.31126 0.97825,0.7448 1.28951,1.30063c0.31867,0.54841 0.47801,1.18575 0.47801,1.91203c0,0.71886 -0.15563,1.35621 -0.46689,1.91203c-0.31126,0.54841 -0.7411,0.98196 -1.28951,1.30063c-0.54841,0.31126 -1.17835,0.46689 -1.8898,0.46689zM224.02268,169.53455c0.45948,0 0.86338,-0.10375 1.21169,-0.31126c0.35573,-0.21492 0.63364,-0.50765 0.83373,-0.8782c0.2001,-0.37055 0.30014,-0.80039 0.30014,-1.28951c0,-0.48912 -0.10005,-0.91896 -0.30014,-1.28951c-0.2001,-0.37796 -0.47801,-0.67069 -0.83373,-0.8782c-0.34832,-0.21492 -0.75221,-0.32238 -1.21169,-0.32238c-0.46689,0 -0.8782,0.10746 -1.23393,0.32238c-0.34832,0.20751 -0.62623,0.50024 -0.83373,0.8782c-0.2001,0.37055 -0.30014,0.80039 -0.30014,1.28951c0,0.48912 0.10005,0.91896 0.30014,1.28951c0.20751,0.37055 0.48542,0.66328 0.83373,0.8782c0.35573,0.20751 0.76704,0.31126 1.23393,0.31126zM236.21514,170.67955c-0.44466,0 -0.84485,-0.11116 -1.20058,-0.33349c-0.34832,-0.22974 -0.62623,-0.5373 -0.83373,-0.92267c-0.2001,-0.39278 -0.30014,-0.83373 -0.30014,-1.32286v-6.32527c0,-0.19269 0.05929,-0.35202 0.17786,-0.47801c0.12599,-0.12599 0.28903,-0.18898 0.48912,-0.18898c0.19269,0 0.34832,0.06299 0.46689,0.18898c0.12599,0.12599 0.18898,0.28532 0.18898,0.47801v6.32527c0,0.35573 0.09634,0.65587 0.28903,0.90043c0.2001,0.23715 0.44095,0.35573 0.72257,0.35573h0.45578c0.15563,0 0.28903,0.06299 0.40019,0.18898c0.11116,0.11857 0.16675,0.2742 0.16675,0.46689c0,0.2001 -0.07411,0.36314 -0.22233,0.48912c-0.14081,0.11857 -0.32608,0.17786 -0.55582,0.17786zM233.26928,164.82117c-0.18527,0 -0.3372,-0.05188 -0.45578,-0.15563c-0.11116,-0.10375 -0.16675,-0.23715 -0.16675,-0.40019c0,-0.17786 0.05558,-0.31867 0.16675,-0.42243c0.11857,-0.10375 0.2705,-0.15563 0.45578,-0.15563h3.06814c0.18527,0 0.33349,0.05188 0.44466,0.15563c0.11857,0.10375 0.17786,0.24456 0.17786,0.42243c0,0.16304 -0.05929,0.29644 -0.17786,0.40019c-0.11116,0.10375 -0.25939,0.15563 -0.44466,0.15563zM245.02819,170.69066c-0.19269,0 -0.35573,-0.06299 -0.48912,-0.18898c-0.12599,-0.12599 -0.18898,-0.28903 -0.18898,-0.48912v-3.25712c0,-0.50395 -0.09264,-0.91526 -0.27791,-1.23393c-0.18527,-0.31867 -0.43725,-0.55582 -0.75592,-0.71145c-0.31126,-0.15563 -0.67069,-0.23345 -1.0783,-0.23345c-0.37055,0 -0.70775,0.07411 -1.0116,0.22233c-0.29644,0.14822 -0.53359,0.34832 -0.71145,0.60029c-0.17786,0.25197 -0.2668,0.54471 -0.2668,0.8782h-0.83373c0,-0.56323 0.1334,-1.06347 0.40019,-1.50072c0.2742,-0.43725 0.64475,-0.78186 1.11165,-1.03383c0.46689,-0.25939 0.99307,-0.38908 1.57854,-0.38908c0.61511,0 1.16352,0.12969 1.64524,0.38908c0.48171,0.25939 0.85967,0.64105 1.13388,1.145c0.28162,0.50395 0.42243,1.12647 0.42243,1.86757v3.25712c0,0.2001 -0.0667,0.36314 -0.2001,0.48912c-0.12599,0.12599 -0.28532,0.18898 -0.47801,0.18898zM239.57001,170.69066c-0.19269,0 -0.35573,-0.06299 -0.48912,-0.18898c-0.12599,-0.12599 -0.18898,-0.28903 -0.18898,-0.48912v-5.91396c0,-0.20751 0.06299,-0.37055 0.18898,-0.48912c0.1334,-0.12599 0.29644,-0.18898 0.48912,-0.18898c0.20751,0 0.37055,0.06299 0.48912,0.18898c0.12599,0.11857 0.18898,0.28162 0.18898,0.48912v5.91396c0,0.2001 -0.06299,0.36314 -0.18898,0.48912c-0.11857,0.12599 -0.28162,0.18898 -0.48912,0.18898zM239.57001,168.03383c-0.19269,0 -0.35573,-0.06299 -0.48912,-0.18898c-0.12599,-0.12599 -0.18898,-0.28903 -0.18898,-0.48912v-6.36973c0,-0.2001 0.06299,-0.36314 0.18898,-0.48912c0.1334,-0.12599 0.29644,-0.18898 0.48912,-0.18898c0.20751,0 0.37055,0.06299 0.48912,0.18898c0.12599,0.12599 0.18898,0.28903 0.18898,0.48912v6.36973c0,0.2001 -0.06299,0.36314 -0.18898,0.48912c-0.11857,0.12599 -0.28162,0.18898 -0.48912,0.18898zM251.37016,170.73513c-0.73369,0 -1.38585,-0.15563 -1.9565,-0.46689c-0.57065,-0.31867 -1.01901,-0.75221 -1.34509,-1.30063c-0.31867,-0.55582 -0.47801,-1.19317 -0.47801,-1.91203c0,-0.72628 0.15192,-1.36362 0.45578,-1.91203c0.30385,-0.55582 0.72628,-0.98937 1.26728,-1.30063c0.541,-0.31867 1.15982,-0.47801 1.85645,-0.47801c0.69663,0 1.28951,0.15192 1.77863,0.45578c0.49653,0.30385 0.87449,0.72628 1.13388,1.26728c0.2668,0.53359 0.40019,1.1487 0.40019,1.84533c0,0.17045 -0.05929,0.31126 -0.17786,0.42243c-0.11116,0.11116 -0.25568,0.16675 -0.43354,0.16675h-5.34702v-1.06718h5.30255l-0.54471,0.37796c-0.00741,-0.44466 -0.09634,-0.84114 -0.2668,-1.18946c-0.16304,-0.34832 -0.40019,-0.62252 -0.71145,-0.82262c-0.31126,-0.20751 -0.68922,-0.31126 -1.13388,-0.31126c-0.50395,0 -0.93378,0.11116 -1.28951,0.33349c-0.35573,0.21492 -0.62993,0.51506 -0.82262,0.90043c-0.18527,0.38537 -0.27791,0.82262 -0.27791,1.31174c0,0.48912 0.11116,0.92267 0.33349,1.30063c0.22233,0.37796 0.52618,0.6781 0.91155,0.90043c0.39278,0.22233 0.84114,0.33349 1.34509,0.33349c0.2742,0 0.55582,-0.04817 0.84485,-0.14451c0.28903,-0.10375 0.52247,-0.22233 0.70034,-0.35573c0.1334,-0.09634 0.27791,-0.14822 0.43354,-0.15563c0.15563,-0.00741 0.28903,0.04076 0.40019,0.14451c0.14822,0.12599 0.22604,0.2705 0.23345,0.43354c0.01482,0.15563 -0.05558,0.29273 -0.21121,0.41131c-0.29644,0.23715 -0.67069,0.43354 -1.12276,0.58917c-0.44466,0.14822 -0.87079,0.22233 -1.27839,0.22233zM263.50174,170.73513c-0.73369,0 -1.38585,-0.15563 -1.9565,-0.46689c-0.57065,-0.31867 -1.01901,-0.75221 -1.34509,-1.30063c-0.31867,-0.55582 -0.47801,-1.19317 -0.47801,-1.91203c0,-0.72628 0.15192,-1.36362 0.45578,-1.91203c0.30385,-0.55582 0.72628,-0.98937 1.26728,-1.30063c0.541,-0.31867 1.15982,-0.47801 1.85645,-0.47801c0.69663,0 1.28951,0.15192 1.77863,0.45578c0.49653,0.30385 0.87449,0.72628 1.13388,1.26728c0.2668,0.53359 0.40019,1.1487 0.40019,1.84533c0,0.17045 -0.05929,0.31126 -0.17786,0.42243c-0.11116,0.11116 -0.25568,0.16675 -0.43354,0.16675h-5.34702v-1.06718h5.30255l-0.54471,0.37796c-0.00741,-0.44466 -0.09634,-0.84114 -0.2668,-1.18946c-0.16304,-0.34832 -0.40019,-0.62252 -0.71145,-0.82262c-0.31126,-0.20751 -0.68922,-0.31126 -1.13388,-0.31126c-0.50395,0 -0.93378,0.11116 -1.28951,0.33349c-0.35573,0.21492 -0.62993,0.51506 -0.82262,0.90043c-0.18527,0.38537 -0.27791,0.82262 -0.27791,1.31174c0,0.48912 0.11116,0.92267 0.33349,1.30063c0.22233,0.37796 0.52618,0.6781 0.91155,0.90043c0.39278,0.22233 0.84114,0.33349 1.34509,0.33349c0.2742,0 0.55582,-0.04817 0.84485,-0.14451c0.28903,-0.10375 0.52247,-0.22233 0.70034,-0.35573c0.1334,-0.09634 0.27791,-0.14822 0.43354,-0.15563c0.15563,-0.00741 0.28903,0.04076 0.40019,0.14451c0.14822,0.12599 0.22604,0.2705 0.23345,0.43354c0.01482,0.15563 -0.05558,0.29273 -0.21121,0.41131c-0.29644,0.23715 -0.67069,0.43354 -1.12276,0.58917c-0.44466,0.14822 -0.87079,0.22233 -1.27839,0.22233zM274.46787,170.69066c-0.19269,0 -0.35573,-0.06299 -0.48912,-0.18898c-0.12599,-0.12599 -0.18898,-0.28903 -0.18898,-0.48912v-3.25712c0,-0.50395 -0.09264,-0.91526 -0.27791,-1.23393c-0.18527,-0.31867 -0.43725,-0.55582 -0.75592,-0.71145c-0.31126,-0.15563 -0.67069,-0.23345 -1.0783,-0.23345c-0.37055,0 -0.70775,0.07411 -1.0116,0.22233c-0.29644,0.14822 -0.53359,0.34832 -0.71145,0.60029c-0.17786,0.25197 -0.2668,0.54471 -0.2668,0.8782h-0.83373c0,-0.56323 0.1334,-1.06347 0.40019,-1.50072c0.2742,-0.43725 0.64475,-0.78186 1.11165,-1.03383c0.46689,-0.25939 0.99307,-0.38908 1.57854,-0.38908c0.61511,0 1.16352,0.12969 1.64524,0.38908c0.48171,0.25939 0.85967,0.64105 1.13388,1.145c0.28162,0.50395 0.42243,1.12647 0.42243,1.86757v3.25712c0,0.2001 -0.0667,0.36314 -0.2001,0.48912c-0.12599,0.12599 -0.28532,0.18898 -0.47801,0.18898zM269.00969,170.69066c-0.19269,0 -0.35573,-0.06299 -0.48912,-0.18898c-0.12599,-0.12599 -0.18898,-0.28903 -0.18898,-0.48912v-5.91396c0,-0.20751 0.06299,-0.37055 0.18898,-0.48912c0.1334,-0.12599 0.29644,-0.18898 0.48912,-0.18898c0.20751,0 0.37055,0.06299 0.48912,0.18898c0.12599,0.11857 0.18898,0.28162 0.18898,0.48912v5.91396c0,0.2001 -0.06299,0.36314 -0.18898,0.48912c-0.11857,0.12599 -0.28162,0.18898 -0.48912,0.18898zM280.6854,170.73513c-0.69663,0 -1.32286,-0.15934 -1.87868,-0.47801c-0.54841,-0.32608 -0.98566,-0.76704 -1.31174,-1.32286c-0.31867,-0.56323 -0.47801,-1.19317 -0.47801,-1.8898c0,-0.69663 0.14822,-1.32286 0.44466,-1.87868c0.29644,-0.55582 0.70034,-0.99307 1.21169,-1.31174c0.51877,-0.32608 1.10053,-0.48912 1.74528,-0.48912c0.51877,0 1.00048,0.11116 1.44514,0.33349c0.44466,0.21492 0.81521,0.50765 1.11165,0.8782v-3.59062c0,-0.2001 0.06299,-0.36314 0.18898,-0.48912c0.1334,-0.12599 0.29644,-0.18898 0.48912,-0.18898c0.2001,0 0.36314,0.06299 0.48912,0.18898c0.12599,0.12599 0.18898,0.28903 0.18898,0.48912v6.05847c0,0.69663 -0.16304,1.32657 -0.48912,1.8898c-0.31867,0.55582 -0.75221,0.99678 -1.30063,1.32286c-0.54841,0.31867 -1.16723,0.47801 -1.85645,0.47801zM280.6854,169.53455c0.44466,0 0.84485,-0.10746 1.20058,-0.32238c0.35573,-0.21492 0.63364,-0.51136 0.83373,-0.88932c0.20751,-0.38537 0.31126,-0.8115 0.31126,-1.27839c0,-0.48171 -0.10375,-0.90784 -0.31126,-1.27839c-0.2001,-0.37055 -0.47801,-0.66328 -0.83373,-0.8782c-0.35573,-0.21492 -0.75592,-0.32238 -1.20058,-0.32238c-0.44466,0 -0.84856,0.10746 -1.21169,0.32238c-0.35573,0.21492 -0.63735,0.50765 -0.84485,0.8782c-0.20751,0.37055 -0.31126,0.79668 -0.31126,1.27839c0,0.46689 0.10375,0.89302 0.31126,1.27839c0.20751,0.37796 0.48912,0.6744 0.84485,0.88932c0.36314,0.21492 0.76704,0.32238 1.21169,0.32238zM293.90535,170.73513c-0.71886,0 -1.3525,-0.15563 -1.90092,-0.46689c-0.54841,-0.31867 -0.98196,-0.75221 -1.30063,-1.30063c-0.31126,-0.55582 -0.46689,-1.19317 -0.46689,-1.91203c0,-0.72628 0.15563,-1.36362 0.46689,-1.91203c0.31867,-0.55582 0.75221,-0.98937 1.30063,-1.30063c0.54841,-0.31867 1.18205,-0.47801 1.90092,-0.47801c0.70404,0 1.33027,0.15934 1.87868,0.47801c0.54841,0.31126 0.97825,0.7448 1.28951,1.30063c0.31867,0.54841 0.47801,1.18575 0.47801,1.91203c0,0.71886 -0.15563,1.35621 -0.46689,1.91203c-0.31126,0.54841 -0.7411,0.98196 -1.28951,1.30063c-0.54841,0.31126 -1.17835,0.46689 -1.8898,0.46689zM293.90535,169.53455c0.45948,0 0.86338,-0.10375 1.21169,-0.31126c0.35573,-0.21492 0.63364,-0.50765 0.83373,-0.8782c0.2001,-0.37055 0.30014,-0.80039 0.30014,-1.28951c0,-0.48912 -0.10005,-0.91896 -0.30014,-1.28951c-0.2001,-0.37796 -0.47801,-0.67069 -0.83373,-0.8782c-0.34832,-0.21492 -0.75221,-0.32238 -1.21169,-0.32238c-0.46689,0 -0.8782,0.10746 -1.23393,0.32238c-0.34832,0.20751 -0.62623,0.50024 -0.83373,0.8782c-0.2001,0.37055 -0.30014,0.80039 -0.30014,1.28951c0,0.48912 0.10005,0.91896 0.30014,1.28951c0.20751,0.37055 0.48542,0.66328 0.83373,0.8782c0.35573,0.20751 0.76704,0.31126 1.23393,0.31126zM300.35238,170.67955c-0.17045,0 -0.32238,-0.05929 -0.45578,-0.17786c-0.1334,-0.12599 -0.2001,-0.29273 -0.2001,-0.50024v-6.5476c0,-0.63735 0.12599,-1.18946 0.37796,-1.65635c0.25197,-0.46689 0.604,-0.83003 1.05606,-1.08941c0.45207,-0.2668 0.97454,-0.40019 1.56742,-0.40019c0.2001,0 0.36314,0.05929 0.48912,0.17786c0.12599,0.11857 0.18898,0.26309 0.18898,0.43354c0,0.17045 -0.06299,0.31497 -0.18898,0.43354c-0.12599,0.11857 -0.28903,0.17786 -0.48912,0.17786c-0.32608,0 -0.61511,0.07782 -0.86708,0.23345c-0.24456,0.14822 -0.43725,0.35573 -0.57806,0.62252c-0.1334,0.2668 -0.2001,0.58176 -0.2001,0.9449v6.66988c0,0.20751 -0.06299,0.37425 -0.18898,0.50024c-0.11857,0.11857 -0.28903,0.17786 -0.51136,0.17786zM299.12957,164.82117c-0.18527,0 -0.3372,-0.05188 -0.45578,-0.15563c-0.11116,-0.10375 -0.16675,-0.23715 -0.16675,-0.40019c0,-0.17786 0.05558,-0.31867 0.16675,-0.42243c0.11857,-0.10375 0.2705,-0.15563 0.45578,-0.15563h3.27936c0.18527,0 0.33349,0.05188 0.44466,0.15563c0.11857,0.10375 0.17786,0.24456 0.17786,0.42243c0,0.16304 -0.05929,0.29644 -0.17786,0.40019c-0.11116,0.10375 -0.25939,0.15563 -0.44466,0.15563zM310.96904,170.67955c-0.44466,0 -0.84485,-0.11116 -1.20058,-0.33349c-0.34832,-0.22974 -0.62623,-0.5373 -0.83373,-0.92267c-0.2001,-0.39278 -0.30014,-0.83373 -0.30014,-1.32286v-6.32527c0,-0.19269 0.05929,-0.35202 0.17786,-0.47801c0.12599,-0.12599 0.28903,-0.18898 0.48912,-0.18898c0.19269,0 0.34832,0.06299 0.46689,0.18898c0.12599,0.12599 0.18898,0.28532 0.18898,0.47801v6.32527c0,0.35573 0.09634,0.65587 0.28903,0.90043c0.2001,0.23715 0.44095,0.35573 0.72257,0.35573h0.45578c0.15563,0 0.28903,0.06299 0.40019,0.18898c0.11116,0.11857 0.16675,0.2742 0.16675,0.46689c0,0.2001 -0.07411,0.36314 -0.22233,0.48912c-0.14081,0.11857 -0.32608,0.17786 -0.55582,0.17786zM308.02318,164.82117c-0.18527,0 -0.3372,-0.05188 -0.45578,-0.15563c-0.11116,-0.10375 -0.16675,-0.23715 -0.16675,-0.40019c0,-0.17786 0.05558,-0.31867 0.16675,-0.42243c0.11857,-0.10375 0.2705,-0.15563 0.45578,-0.15563h3.06814c0.18527,0 0.33349,0.05188 0.44466,0.15563c0.11857,0.10375 0.17786,0.24456 0.17786,0.42243c0,0.16304 -0.05929,0.29644 -0.17786,0.40019c-0.11116,0.10375 -0.25939,0.15563 -0.44466,0.15563zM319.78214,170.69066c-0.19269,0 -0.35573,-0.06299 -0.48912,-0.18898c-0.12599,-0.12599 -0.18898,-0.28903 -0.18898,-0.48912v-3.25712c0,-0.50395 -0.09264,-0.91526 -0.27791,-1.23393c-0.18527,-0.31867 -0.43725,-0.55582 -0.75592,-0.71145c-0.31126,-0.15563 -0.67069,-0.23345 -1.0783,-0.23345c-0.37055,0 -0.70775,0.07411 -1.0116,0.22233c-0.29644,0.14822 -0.53359,0.34832 -0.71145,0.60029c-0.17786,0.25197 -0.2668,0.54471 -0.2668,0.8782h-0.83373c0,-0.56323 0.1334,-1.06347 0.40019,-1.50072c0.2742,-0.43725 0.64475,-0.78186 1.11165,-1.03383c0.46689,-0.25939 0.99307,-0.38908 1.57854,-0.38908c0.61511,0 1.16352,0.12969 1.64524,0.38908c0.48171,0.25939 0.85967,0.64105 1.13388,1.145c0.28162,0.50395 0.42243,1.12647 0.42243,1.86757v3.25712c0,0.2001 -0.0667,0.36314 -0.2001,0.48912c-0.12599,0.12599 -0.28532,0.18898 -0.47801,0.18898zM314.32395,170.69066c-0.19269,0 -0.35573,-0.06299 -0.48912,-0.18898c-0.12599,-0.12599 -0.18898,-0.28903 -0.18898,-0.48912v-5.91396c0,-0.20751 0.06299,-0.37055 0.18898,-0.48912c0.1334,-0.12599 0.29644,-0.18898 0.48912,-0.18898c0.20751,0 0.37055,0.06299 0.48912,0.18898c0.12599,0.11857 0.18898,0.28162 0.18898,0.48912v5.91396c0,0.2001 -0.06299,0.36314 -0.18898,0.48912c-0.11857,0.12599 -0.28162,0.18898 -0.48912,0.18898zM314.32395,168.03383c-0.19269,0 -0.35573,-0.06299 -0.48912,-0.18898c-0.12599,-0.12599 -0.18898,-0.28903 -0.18898,-0.48912v-6.36973c0,-0.2001 0.06299,-0.36314 0.18898,-0.48912c0.1334,-0.12599 0.29644,-0.18898 0.48912,-0.18898c0.20751,0 0.37055,0.06299 0.48912,0.18898c0.12599,0.12599 0.18898,0.28903 0.18898,0.48912v6.36973c0,0.2001 -0.06299,0.36314 -0.18898,0.48912c-0.11857,0.12599 -0.28162,0.18898 -0.48912,0.18898zM323.52282,170.67955c-0.19269,0 -0.35573,-0.06299 -0.48912,-0.18898c-0.12599,-0.1334 -0.18898,-0.29644 -0.18898,-0.48912v-5.90284c0,-0.20751 0.06299,-0.37055 0.18898,-0.48912c0.1334,-0.12599 0.29644,-0.18898 0.48912,-0.18898c0.20751,0 0.37055,0.06299 0.48912,0.18898c0.12599,0.11857 0.18898,0.28162 0.18898,0.48912v5.90284c0,0.19269 -0.06299,0.35573 -0.18898,0.48912c-0.11857,0.12599 -0.28162,0.18898 -0.48912,0.18898zM323.52282,162.24215c-0.23715,0 -0.44466,-0.08523 -0.62252,-0.25568c-0.17045,-0.17786 -0.25568,-0.38537 -0.25568,-0.62252c0,-0.23715 0.08523,-0.44095 0.25568,-0.61141c0.17786,-0.17786 0.38537,-0.2668 0.62252,-0.2668c0.23715,0 0.44095,0.08893 0.61141,0.2668c0.17786,0.17045 0.2668,0.37425 0.2668,0.61141c0,0.23715 -0.08893,0.44466 -0.2668,0.62252c-0.17045,0.17045 -0.37425,0.25568 -0.61141,0.25568zM329.36553,170.73513c-0.62252,0 -1.19687,-0.09634 -1.72305,-0.28903c-0.52618,-0.19269 -0.93378,-0.43354 -1.22281,-0.72257c-0.1334,-0.14081 -0.18898,-0.30014 -0.16675,-0.47801c0.02223,-0.18527 0.10746,-0.3372 0.25568,-0.45578c0.17786,-0.14081 0.35202,-0.2001 0.52247,-0.17786c0.17786,0.02223 0.32979,0.10005 0.45578,0.23345c0.14822,0.17045 0.38537,0.32979 0.71145,0.47801c0.33349,0.14081 0.70404,0.21121 1.11165,0.21121c0.51877,0 0.91155,-0.08152 1.17835,-0.24456c0.2668,-0.17045 0.4076,-0.38908 0.42243,-0.65587c0.00741,-0.2668 -0.12228,-0.49653 -0.38908,-0.68922c-0.25939,-0.19269 -0.73369,-0.35202 -1.42291,-0.47801c-0.88932,-0.17786 -1.53778,-0.44095 -1.94538,-0.78927c-0.40019,-0.35573 -0.60029,-0.79298 -0.60029,-1.31174c0,-0.44466 0.1334,-0.81521 0.40019,-1.11165c0.2668,-0.29644 0.6077,-0.51877 1.02271,-0.66699c0.41502,-0.14822 0.84856,-0.22233 1.30063,-0.22233c0.58547,0 1.10053,0.09264 1.54519,0.27791c0.45207,0.18527 0.8115,0.44095 1.0783,0.76704c0.12599,0.14822 0.18157,0.30014 0.16675,0.45578c-0.00741,0.14822 -0.08152,0.27791 -0.22233,0.38908c-0.14081,0.09634 -0.30755,0.12599 -0.50024,0.08893c-0.19269,-0.03706 -0.35573,-0.11487 -0.48912,-0.23345c-0.22233,-0.21492 -0.46318,-0.36314 -0.72257,-0.44466c-0.25197,-0.08152 -0.54841,-0.12228 -0.88932,-0.12228c-0.38537,0 -0.71516,0.0667 -0.98937,0.2001c-0.2668,0.1334 -0.40019,0.32979 -0.40019,0.58917c0,0.15563 0.04076,0.30014 0.12228,0.43354c0.08893,0.12599 0.25568,0.24086 0.50024,0.34461c0.25197,0.09634 0.61511,0.19639 1.08941,0.30014c0.66699,0.12599 1.18946,0.29273 1.56742,0.50024c0.38537,0.2001 0.66328,0.43725 0.83373,0.71145c0.17045,0.2668 0.25568,0.57806 0.25568,0.93378c0,0.4076 -0.11116,0.77445 -0.33349,1.10053c-0.21492,0.32608 -0.53359,0.58917 -0.95602,0.78927c-0.41502,0.19269 -0.93749,0.28903 -1.56742,0.28903zM341.11767,170.73513c-0.69663,0 -1.32286,-0.15934 -1.87868,-0.47801c-0.54841,-0.32608 -0.98566,-0.76704 -1.31174,-1.32286c-0.31867,-0.56323 -0.47801,-1.19317 -0.47801,-1.8898c0,-0.69663 0.14822,-1.32286 0.44466,-1.87868c0.29644,-0.55582 0.70034,-0.99307 1.21169,-1.31174c0.51877,-0.32608 1.10053,-0.48912 1.74528,-0.48912c0.51877,0 1.00048,0.11116 1.44514,0.33349c0.44466,0.21492 0.81521,0.50765 1.11165,0.8782v-3.59062c0,-0.2001 0.06299,-0.36314 0.18898,-0.48912c0.1334,-0.12599 0.29644,-0.18898 0.48912,-0.18898c0.2001,0 0.36314,0.06299 0.48912,0.18898c0.12599,0.12599 0.18898,0.28903 0.18898,0.48912v6.05847c0,0.69663 -0.16304,1.32657 -0.48912,1.8898c-0.31867,0.55582 -0.75221,0.99678 -1.30063,1.32286c-0.54841,0.31867 -1.16723,0.47801 -1.85645,0.47801zM341.11767,169.53455c0.44466,0 0.84485,-0.10746 1.20058,-0.32238c0.35573,-0.21492 0.63364,-0.51136 0.83373,-0.88932c0.20751,-0.38537 0.31126,-0.8115 0.31126,-1.27839c0,-0.48171 -0.10375,-0.90784 -0.31126,-1.27839c-0.2001,-0.37055 -0.47801,-0.66328 -0.83373,-0.8782c-0.35573,-0.21492 -0.75592,-0.32238 -1.20058,-0.32238c-0.44466,0 -0.84856,0.10746 -1.21169,0.32238c-0.35573,0.21492 -0.63735,0.50765 -0.84485,0.8782c-0.20751,0.37055 -0.31126,0.79668 -0.31126,1.27839c0,0.46689 0.10375,0.89302 0.31126,1.27839c0.20751,0.37796 0.48912,0.6744 0.84485,0.88932c0.36314,0.21492 0.76704,0.32238 1.21169,0.32238zM350.20408,170.74625c-0.6077,0 -1.15241,-0.12969 -1.63412,-0.38908c-0.48171,-0.25939 -0.86338,-0.64105 -1.145,-1.145c-0.28162,-0.51136 -0.42243,-1.13388 -0.42243,-1.86757v-3.25712c0,-0.2001 0.06299,-0.36314 0.18898,-0.48912c0.1334,-0.12599 0.29644,-0.18898 0.48912,-0.18898c0.19269,0 0.35202,0.06299 0.47801,0.18898c0.1334,0.12599 0.2001,0.28903 0.2001,0.48912v3.25712c0,0.49653 0.09264,0.90784 0.27791,1.23393c0.18527,0.31867 0.43725,0.55582 0.75592,0.71145c0.31867,0.15563 0.6781,0.23345 1.0783,0.23345c0.37796,0 0.71516,-0.07411 1.0116,-0.22233c0.29644,-0.14822 0.53359,-0.35202 0.71145,-0.61141c0.17786,-0.25939 0.2668,-0.54841 0.2668,-0.86708h0.83373c0,0.54841 -0.1371,1.04495 -0.41131,1.48961c-0.2668,0.44466 -0.63364,0.79668 -1.10053,1.05606c-0.45948,0.25197 -0.98566,0.37796 -1.57854,0.37796zM353.13882,170.67955c-0.19269,0 -0.35573,-0.06299 -0.48912,-0.18898c-0.12599,-0.1334 -0.18898,-0.29644 -0.18898,-0.48912v-5.91396c0,-0.20751 0.06299,-0.37055 0.18898,-0.48912c0.1334,-0.12599 0.29644,-0.18898 0.48912,-0.18898c0.2001,0 0.36314,0.06299 0.48912,0.18898c0.12599,0.11857 0.18898,0.28162 0.18898,0.48912v5.91396c0,0.19269 -0.06299,0.35573 -0.18898,0.48912c-0.12599,0.12599 -0.28903,0.18898 -0.48912,0.18898zM362.33557,170.69066c-0.19269,0 -0.35573,-0.06299 -0.48912,-0.18898c-0.12599,-0.12599 -0.18898,-0.28903 -0.18898,-0.48912v-3.25712c0,-0.50395 -0.09264,-0.91526 -0.27791,-1.23393c-0.18527,-0.31867 -0.43725,-0.55582 -0.75592,-0.71145c-0.31126,-0.15563 -0.67069,-0.23345 -1.0783,-0.23345c-0.37055,0 -0.70775,0.07411 -1.0116,0.22233c-0.29644,0.14822 -0.53359,0.34832 -0.71145,0.60029c-0.17786,0.25197 -0.2668,0.54471 -0.2668,0.8782h-0.83373c0,-0.56323 0.1334,-1.06347 0.40019,-1.50072c0.2742,-0.43725 0.64475,-0.78186 1.11165,-1.03383c0.46689,-0.25939 0.99307,-0.38908 1.57854,-0.38908c0.61511,0 1.16352,0.12969 1.64524,0.38908c0.48171,0.25939 0.85967,0.64105 1.13388,1.145c0.28162,0.50395 0.42243,1.12647 0.42243,1.86757v3.25712c0,0.2001 -0.0667,0.36314 -0.2001,0.48912c-0.12599,0.12599 -0.28532,0.18898 -0.47801,0.18898zM356.87738,170.69066c-0.19269,0 -0.35573,-0.06299 -0.48912,-0.18898c-0.12599,-0.12599 -0.18898,-0.28903 -0.18898,-0.48912v-5.91396c0,-0.20751 0.06299,-0.37055 0.18898,-0.48912c0.1334,-0.12599 0.29644,-0.18898 0.48912,-0.18898c0.20751,0 0.37055,0.06299 0.48912,0.18898c0.12599,0.11857 0.18898,0.28162 0.18898,0.48912v5.91396c0,0.2001 -0.06299,0.36314 -0.18898,0.48912c-0.11857,0.12599 -0.28162,0.18898 -0.48912,0.18898zM368.28631,170.73513c-0.66699,0 -1.25616,-0.15563 -1.76752,-0.46689c-0.50395,-0.31867 -0.90414,-0.75221 -1.20058,-1.30063c-0.28903,-0.55582 -0.43354,-1.19317 -0.43354,-1.91203c0,-0.72628 0.15563,-1.36362 0.46689,-1.91203c0.31867,-0.55582 0.75221,-0.98937 1.30063,-1.30063c0.54841,-0.31867 1.18205,-0.47801 1.90092,-0.47801c0.70404,0 1.33027,0.15934 1.87868,0.47801c0.54841,0.31126 0.97825,0.7448 1.28951,1.30063c0.31867,0.54841 0.47801,1.18575 0.47801,1.91203h-0.78927c0,0.71886 -0.1334,1.35621 -0.40019,1.91203c-0.2668,0.54841 -0.63735,0.98196 -1.11165,1.30063c-0.46689,0.31126 -1.00419,0.46689 -1.61189,0.46689zM368.51975,173.69211c-0.62993,0 -1.2191,-0.12599 -1.76752,-0.37796c-0.54841,-0.24456 -1.0116,-0.604 -1.38956,-1.0783c-0.11857,-0.15563 -0.16304,-0.31497 -0.1334,-0.47801c0.03706,-0.15563 0.12599,-0.28162 0.2668,-0.37796c0.15563,-0.10375 0.31867,-0.1371 0.48912,-0.10005c0.17786,0.03706 0.31867,0.12599 0.42243,0.2668c0.24456,0.29644 0.54471,0.52988 0.90043,0.70034c0.36314,0.17045 0.77815,0.25568 1.24504,0.25568c0.42243,0 0.8115,-0.10375 1.16723,-0.31126c0.36314,-0.2001 0.64846,-0.50024 0.85597,-0.90043c0.21492,-0.40019 0.32238,-0.88561 0.32238,-1.45626v-1.8898l0.43354,-1.16723l0.86708,0.27791v2.86805c0,0.69663 -0.15563,1.33027 -0.46689,1.90092c-0.31126,0.57065 -0.7448,1.02271 -1.30063,1.35621c-0.54841,0.3409 -1.18575,0.51136 -1.91203,0.51136zM368.5531,169.53455c0.45948,0 0.86338,-0.10375 1.21169,-0.31126c0.35573,-0.21492 0.63364,-0.50765 0.83373,-0.8782c0.2001,-0.37055 0.30014,-0.80039 0.30014,-1.28951c0,-0.48912 -0.10005,-0.91896 -0.30014,-1.28951c-0.2001,-0.37796 -0.47801,-0.67069 -0.83373,-0.8782c-0.34832,-0.21492 -0.75221,-0.32238 -1.21169,-0.32238c-0.46689,0 -0.8782,0.10746 -1.23393,0.32238c-0.34832,0.20751 -0.62623,0.50024 -0.83373,0.8782c-0.2001,0.37055 -0.30014,0.80039 -0.30014,1.28951c0,0.48912 0.10005,0.91896 0.30014,1.28951c0.20751,0.37055 0.48542,0.66328 0.83373,0.8782c0.35573,0.20751 0.76704,0.31126 1.23393,0.31126zM377.62357,170.73513c-0.73369,0 -1.38585,-0.15563 -1.9565,-0.46689c-0.57065,-0.31867 -1.01901,-0.75221 -1.34509,-1.30063c-0.31867,-0.55582 -0.47801,-1.19317 -0.47801,-1.91203c0,-0.72628 0.15192,-1.36362 0.45578,-1.91203c0.30385,-0.55582 0.72628,-0.98937 1.26728,-1.30063c0.541,-0.31867 1.15982,-0.47801 1.85645,-0.47801c0.69663,0 1.28951,0.15192 1.77863,0.45578c0.49653,0.30385 0.87449,0.72628 1.13388,1.26728c0.2668,0.53359 0.40019,1.1487 0.40019,1.84533c0,0.17045 -0.05929,0.31126 -0.17786,0.42243c-0.11116,0.11116 -0.25568,0.16675 -0.43354,0.16675h-5.34702v-1.06718h5.30255l-0.54471,0.37796c-0.00741,-0.44466 -0.09634,-0.84114 -0.2668,-1.18946c-0.16304,-0.34832 -0.40019,-0.62252 -0.71145,-0.82262c-0.31126,-0.20751 -0.68922,-0.31126 -1.13388,-0.31126c-0.50395,0 -0.93378,0.11116 -1.28951,0.33349c-0.35573,0.21492 -0.62993,0.51506 -0.82262,0.90043c-0.18527,0.38537 -0.27791,0.82262 -0.27791,1.31174c0,0.48912 0.11116,0.92267 0.33349,1.30063c0.22233,0.37796 0.52618,0.6781 0.91155,0.90043c0.39278,0.22233 0.84114,0.33349 1.34509,0.33349c0.2742,0 0.55582,-0.04817 0.84485,-0.14451c0.28903,-0.10375 0.52247,-0.22233 0.70034,-0.35573c0.1334,-0.09634 0.27791,-0.14822 0.43354,-0.15563c0.15563,-0.00741 0.28903,0.04076 0.40019,0.14451c0.14822,0.12599 0.22604,0.2705 0.23345,0.43354c0.01482,0.15563 -0.05558,0.29273 -0.21121,0.41131c-0.29644,0.23715 -0.67069,0.43354 -1.12276,0.58917c-0.44466,0.14822 -0.87079,0.22233 -1.27839,0.22233zM385.48938,170.73513c-0.71886,0 -1.3525,-0.15563 -1.90092,-0.46689c-0.54841,-0.31867 -0.98196,-0.75221 -1.30063,-1.30063c-0.31126,-0.55582 -0.46689,-1.19317 -0.46689,-1.91203c0,-0.72628 0.15563,-1.36362 0.46689,-1.91203c0.31867,-0.55582 0.75221,-0.98937 1.30063,-1.30063c0.54841,-0.31867 1.18205,-0.47801 1.90092,-0.47801c0.70404,0 1.33027,0.15934 1.87868,0.47801c0.54841,0.31126 0.97825,0.7448 1.28951,1.30063c0.31867,0.54841 0.47801,1.18575 0.47801,1.91203c0,0.71886 -0.15563,1.35621 -0.46689,1.91203c-0.31126,0.54841 -0.7411,0.98196 -1.28951,1.30063c-0.54841,0.31126 -1.17835,0.46689 -1.8898,0.46689zM385.48938,169.53455c0.45948,0 0.86338,-0.10375 1.21169,-0.31126c0.35573,-0.21492 0.63364,-0.50765 0.83373,-0.8782c0.2001,-0.37055 0.30014,-0.80039 0.30014,-1.28951c0,-0.48912 -0.10005,-0.91896 -0.30014,-1.28951c-0.2001,-0.37796 -0.47801,-0.67069 -0.83373,-0.8782c-0.34832,-0.21492 -0.75221,-0.32238 -1.21169,-0.32238c-0.46689,0 -0.8782,0.10746 -1.23393,0.32238c-0.34832,0.20751 -0.62623,0.50024 -0.83373,0.8782c-0.2001,0.37055 -0.30014,0.80039 -0.30014,1.28951c0,0.48912 0.10005,0.91896 0.30014,1.28951c0.20751,0.37055 0.48542,0.66328 0.83373,0.8782c0.35573,0.20751 0.76704,0.31126 1.23393,0.31126zM397.28339,170.69066c-0.19269,0 -0.35573,-0.06299 -0.48912,-0.18898c-0.12599,-0.12599 -0.18898,-0.28903 -0.18898,-0.48912v-3.25712c0,-0.50395 -0.09264,-0.91526 -0.27791,-1.23393c-0.18527,-0.31867 -0.43725,-0.55582 -0.75592,-0.71145c-0.31126,-0.15563 -0.67069,-0.23345 -1.0783,-0.23345c-0.37055,0 -0.70775,0.07411 -1.0116,0.22233c-0.29644,0.14822 -0.53359,0.34832 -0.71145,0.60029c-0.17786,0.25197 -0.2668,0.54471 -0.2668,0.8782h-0.83373c0,-0.56323 0.1334,-1.06347 0.40019,-1.50072c0.2742,-0.43725 0.64475,-0.78186 1.11165,-1.03383c0.46689,-0.25939 0.99307,-0.38908 1.57854,-0.38908c0.61511,0 1.16352,0.12969 1.64524,0.38908c0.48171,0.25939 0.85967,0.64105 1.13388,1.145c0.28162,0.50395 0.42243,1.12647 0.42243,1.86757v3.25712c0,0.2001 -0.0667,0.36314 -0.2001,0.48912c-0.12599,0.12599 -0.28532,0.18898 -0.47801,0.18898zM391.8252,170.69066c-0.19269,0 -0.35573,-0.06299 -0.48912,-0.18898c-0.12599,-0.12599 -0.18898,-0.28903 -0.18898,-0.48912v-5.91396c0,-0.20751 0.06299,-0.37055 0.18898,-0.48912c0.1334,-0.12599 0.29644,-0.18898 0.48912,-0.18898c0.20751,0 0.37055,0.06299 0.48912,0.18898c0.12599,0.11857 0.18898,0.28162 0.18898,0.48912v5.91396c0,0.2001 -0.06299,0.36314 -0.18898,0.48912c-0.11857,0.12599 -0.28162,0.18898 -0.48912,0.18898zM400.5884,168.22281c-0.19269,0 -0.35573,-0.0667 -0.48912,-0.2001c-0.12599,-0.14081 -0.18898,-0.30014 -0.18898,-0.47801v-6.53648c0,-0.2001 0.06299,-0.36684 0.18898,-0.50024c0.1334,-0.1334 0.29644,-0.2001 0.48912,-0.2001c0.19269,0 0.35202,0.0667 0.47801,0.2001c0.1334,0.1334 0.2001,0.30014 0.2001,0.50024v6.53648c0,0.18527 -0.07041,0.34461 -0.21121,0.47801c-0.1334,0.1334 -0.28903,0.2001 -0.46689,0.2001zM400.5884,170.67955c-0.24456,0 -0.45948,-0.08893 -0.64475,-0.2668c-0.17786,-0.17786 -0.2668,-0.39278 -0.2668,-0.64475c0,-0.25939 0.08893,-0.47801 0.2668,-0.65587c0.18527,-0.18527 0.40019,-0.27791 0.64475,-0.27791c0.25939,0 0.4743,0.09264 0.64475,0.27791c0.17786,0.17786 0.2668,0.39649 0.2668,0.65587c0,0.25197 -0.08893,0.46689 -0.2668,0.64475c-0.17786,0.17786 -0.39278,0.2668 -0.64475,0.2668z" fill="url(#color-1)" stroke="url(#color-2)" stroke-width="1" stroke-linecap="square"/><g fill="#ffffff" stroke="#ffffff" stroke-width="1" stroke-linecap="square"><path d="M117.79574,183.58091c-0.11117,0 -0.20466,-0.0379 -0.28045,-0.1137c-0.0758,-0.0758 -0.1137,-0.16676 -0.1137,-0.27287v-6.29126c0,-0.11622 0.0379,-0.20971 0.1137,-0.28045c0.0758,-0.0758 0.16928,-0.1137 0.28045,-0.1137h1.81157c0.44974,0 0.84641,0.09854 1.19003,0.29561c0.34362,0.19708 0.61397,0.46995 0.81104,0.81862c0.19708,0.34362 0.29561,0.74535 0.29561,1.20519c0,0.43963 -0.09854,0.83125 -0.29561,1.17487c-0.19708,0.33856 -0.46742,0.60639 -0.81104,0.80346c-0.34362,0.19708 -0.7403,0.29561 -1.19003,0.29561h-1.41742v2.09203c0,0.10612 -0.0379,0.19708 -0.1137,0.27287c-0.0758,0.0758 -0.16928,0.1137 -0.28045,0.1137zM118.18989,180.35948h1.41742c0.29814,0 0.56091,-0.06569 0.7883,-0.19708c0.23245,-0.13644 0.41436,-0.31835 0.54575,-0.54575c0.13644,-0.22739 0.20466,-0.49016 0.20466,-0.7883c0,-0.3133 -0.06822,-0.58617 -0.20466,-0.81862c-0.13138,-0.23245 -0.3133,-0.41689 -0.54575,-0.55333c-0.22739,-0.13644 -0.49016,-0.20466 -0.7883,-0.20466h-1.41742zM123.23428,180.51108c0.01011,-0.36888 0.10359,-0.69734 0.28045,-0.98538c0.18192,-0.29309 0.41689,-0.52301 0.70492,-0.68976c0.28803,-0.17181 0.61144,-0.25771 0.97022,-0.25771c0.30825,0 0.5407,0.04548 0.69734,0.13644c0.1617,0.09096 0.22234,0.21476 0.18192,0.37141c-0.02021,0.08591 -0.06064,0.14654 -0.12128,0.18192c-0.05559,0.03537 -0.12128,0.05306 -0.19708,0.05306c-0.0758,0 -0.1617,-0.00505 -0.25771,-0.01516c-0.34867,-0.04548 -0.66197,-0.02274 -0.9399,0.06822c-0.27793,0.08591 -0.49774,0.22739 -0.65944,0.42447c-0.1617,0.19708 -0.24255,0.43458 -0.24255,0.7125zM123.27218,183.58091c-0.12128,0 -0.21729,-0.03285 -0.28803,-0.09854c-0.06569,-0.06569 -0.09854,-0.15918 -0.09854,-0.28045v-4.19164c0,-0.12128 0.03285,-0.21476 0.09854,-0.28045c0.07075,-0.06569 0.16676,-0.09854 0.28803,-0.09854c0.11622,0 0.20718,0.03285 0.27287,0.09854c0.07075,0.06569 0.10612,0.15918 0.10612,0.28045v4.19164c0,0.12128 -0.03537,0.21476 -0.10612,0.28045c-0.06569,0.06569 -0.15665,0.09854 -0.27287,0.09854zM129.02383,183.62639c-0.49522,0 -0.93232,-0.10612 -1.31131,-0.31835c-0.37899,-0.21729 -0.67713,-0.51543 -0.89442,-0.89442c-0.21729,-0.37899 -0.32593,-0.81357 -0.32593,-1.30373c0,-0.49522 0.10107,-0.92979 0.30319,-1.30373c0.20718,-0.37899 0.49016,-0.67713 0.84894,-0.89442c0.35878,-0.21729 0.77314,-0.32593 1.24309,-0.32593c0.4649,0 0.86663,0.10359 1.20519,0.31077c0.33856,0.20718 0.59881,0.49522 0.78072,0.8641c0.18697,0.36888 0.28045,0.7883 0.28045,1.25825c0,0.10107 -0.03537,0.18444 -0.10612,0.25013c-0.06569,0.06064 -0.14907,0.09096 -0.25013,0.09096h-3.78233v-0.62155h3.82023l-0.37899,0.27287c0,-0.33351 -0.06317,-0.63165 -0.1895,-0.89442c-0.12633,-0.26782 -0.30572,-0.47753 -0.53817,-0.62913c-0.23245,-0.1516 -0.5129,-0.22739 -0.84136,-0.22739c-0.34362,0 -0.64176,0.08085 -0.89442,0.24255c-0.25266,0.1617 -0.44974,0.38152 -0.59123,0.65944c-0.13644,0.27793 -0.20466,0.59375 -0.20466,0.94748c0,0.35372 0.07833,0.66955 0.23497,0.94748c0.15665,0.27287 0.37141,0.49016 0.64429,0.65187c0.27793,0.15665 0.59375,0.23497 0.94748,0.23497c0.20718,0 0.41689,-0.03537 0.62913,-0.10612c0.21729,-0.07075 0.3891,-0.1617 0.51543,-0.27287c0.07075,-0.06064 0.1516,-0.09096 0.24255,-0.09096c0.09601,-0.00505 0.17686,0.02021 0.24255,0.0758c0.08591,0.0758 0.12886,0.1617 0.12886,0.25771c0.00505,0.09096 -0.03285,0.17181 -0.1137,0.24255c-0.20213,0.16676 -0.45732,0.30572 -0.76556,0.41689c-0.30319,0.10612 -0.59628,0.15918 -0.87926,0.15918zM134.0834,183.62639c-0.37899,0 -0.74535,-0.06064 -1.09907,-0.18192c-0.35372,-0.12633 -0.63671,-0.30319 -0.84894,-0.53059c-0.07075,-0.08085 -0.10107,-0.17181 -0.09096,-0.27287c0.01516,-0.10107 0.06569,-0.1895 0.1516,-0.26529c0.09601,-0.07075 0.19202,-0.09854 0.28803,-0.08338c0.10107,0.01516 0.18697,0.05811 0.25771,0.12886c0.12633,0.1516 0.30825,0.2754 0.54575,0.37141c0.2375,0.09096 0.49774,0.13644 0.78072,0.13644c0.41436,0 0.71756,-0.07075 0.90958,-0.21224c0.19708,-0.14149 0.29814,-0.31583 0.30319,-0.52301c0.00505,-0.20213 -0.09096,-0.37141 -0.28803,-0.50785c-0.19708,-0.14149 -0.53059,-0.25266 -1.00054,-0.33351c-0.60639,-0.10107 -1.05107,-0.27287 -1.33405,-0.51543c-0.27793,-0.24255 -0.41689,-0.53059 -0.41689,-0.8641c0,-0.30825 0.08338,-0.56343 0.25013,-0.76556c0.16676,-0.20718 0.38657,-0.3613 0.65944,-0.46237c0.27793,-0.10612 0.57607,-0.15918 0.89442,-0.15918c0.40426,0 0.75293,0.06822 1.04602,0.20466c0.29814,0.13644 0.53817,0.31835 0.72008,0.54575c0.07075,0.08591 0.10107,0.17686 0.09096,0.27287c-0.01011,0.09096 -0.05811,0.16676 -0.14402,0.22739c-0.08591,0.04548 -0.18192,0.06064 -0.28803,0.04548c-0.10612,-0.02021 -0.19455,-0.06822 -0.26529,-0.14402c-0.1516,-0.16676 -0.32341,-0.28551 -0.51543,-0.35625c-0.19202,-0.07075 -0.41184,-0.10612 -0.65944,-0.10612c-0.30825,0 -0.56091,0.06064 -0.75798,0.18192c-0.19708,0.11622 -0.29561,0.27287 -0.29561,0.46995c0,0.13138 0.03537,0.24508 0.10612,0.34109c0.07075,0.09601 0.19708,0.18192 0.37899,0.25771c0.18192,0.0758 0.43458,0.14402 0.75798,0.20466c0.45479,0.0758 0.81104,0.18444 1.06876,0.32593c0.26277,0.13644 0.45226,0.30067 0.56849,0.49269c0.11622,0.19202 0.17434,0.40173 0.17434,0.62913c0,0.27793 -0.08085,0.52554 -0.24255,0.74282c-0.15665,0.21729 -0.38152,0.3891 -0.6746,0.51543c-0.29309,0.12633 -0.63671,0.1895 -1.03086,0.1895zM138.97056,183.62639c-0.37899,0 -0.74535,-0.06064 -1.09907,-0.18192c-0.35372,-0.12633 -0.63671,-0.30319 -0.84894,-0.53059c-0.07075,-0.08085 -0.10107,-0.17181 -0.09096,-0.27287c0.01516,-0.10107 0.06569,-0.1895 0.1516,-0.26529c0.09601,-0.07075 0.19202,-0.09854 0.28803,-0.08338c0.10107,0.01516 0.18697,0.05811 0.25771,0.12886c0.12633,0.1516 0.30825,0.2754 0.54575,0.37141c0.2375,0.09096 0.49774,0.13644 0.78072,0.13644c0.41436,0 0.71756,-0.07075 0.90958,-0.21224c0.19708,-0.14149 0.29814,-0.31583 0.30319,-0.52301c0.00505,-0.20213 -0.09096,-0.37141 -0.28803,-0.50785c-0.19708,-0.14149 -0.53059,-0.25266 -1.00054,-0.33351c-0.60639,-0.10107 -1.05107,-0.27287 -1.33405,-0.51543c-0.27793,-0.24255 -0.41689,-0.53059 -0.41689,-0.8641c0,-0.30825 0.08338,-0.56343 0.25013,-0.76556c0.16676,-0.20718 0.38657,-0.3613 0.65944,-0.46237c0.27793,-0.10612 0.57607,-0.15918 0.89442,-0.15918c0.40426,0 0.75293,0.06822 1.04602,0.20466c0.29814,0.13644 0.53817,0.31835 0.72008,0.54575c0.07075,0.08591 0.10107,0.17686 0.09096,0.27287c-0.01011,0.09096 -0.05811,0.16676 -0.14402,0.22739c-0.08591,0.04548 -0.18192,0.06064 -0.28803,0.04548c-0.10612,-0.02021 -0.19455,-0.06822 -0.26529,-0.14402c-0.1516,-0.16676 -0.32341,-0.28551 -0.51543,-0.35625c-0.19202,-0.07075 -0.41184,-0.10612 -0.65944,-0.10612c-0.30825,0 -0.56091,0.06064 -0.75798,0.18192c-0.19708,0.11622 -0.29561,0.27287 -0.29561,0.46995c0,0.13138 0.03537,0.24508 0.10612,0.34109c0.07075,0.09601 0.19708,0.18192 0.37899,0.25771c0.18192,0.0758 0.43458,0.14402 0.75798,0.20466c0.45479,0.0758 0.81104,0.18444 1.06876,0.32593c0.26277,0.13644 0.45226,0.30067 0.56849,0.49269c0.11622,0.19202 0.17434,0.40173 0.17434,0.62913c0,0.27793 -0.08085,0.52554 -0.24255,0.74282c-0.15665,0.21729 -0.38152,0.3891 -0.6746,0.51543c-0.29309,0.12633 -0.63671,0.1895 -1.03086,0.1895zM147.04764,183.67187c-0.3891,0 -0.75293,-0.05559 -1.09149,-0.16676c-0.33856,-0.11622 -0.63165,-0.27793 -0.87926,-0.48511c-0.24761,-0.21224 -0.42952,-0.45732 -0.54575,-0.73524c-0.05559,-0.10612 -0.05811,-0.20466 -0.00758,-0.29561c0.05053,-0.09096 0.13644,-0.1516 0.25771,-0.18192c0.09601,-0.02527 0.18697,-0.01263 0.27287,0.0379c0.09096,0.04548 0.15918,0.11622 0.20466,0.21224c0.08591,0.16676 0.21476,0.31835 0.38657,0.45479c0.17181,0.13138 0.37646,0.23497 0.61397,0.31077c0.2375,0.0758 0.50027,0.1137 0.7883,0.1137c0.30319,0 0.57859,-0.04801 0.8262,-0.14402c0.24761,-0.10107 0.44468,-0.24761 0.59123,-0.43963c0.14654,-0.19708 0.21981,-0.43458 0.21981,-0.7125c0,-0.34867 -0.13391,-0.65439 -0.40173,-0.91716c-0.26277,-0.26277 -0.68471,-0.427 -1.26583,-0.49269c-0.71756,-0.0758 -1.28099,-0.29309 -1.6903,-0.65187c-0.40426,-0.35878 -0.60639,-0.80093 -0.60639,-1.32647c0,-0.37394 0.10107,-0.69734 0.30319,-0.97022c0.20718,-0.27793 0.48764,-0.49016 0.84136,-0.63671c0.35878,-0.14654 0.76303,-0.21981 1.21277,-0.21981c0.34362,0 0.65187,0.05306 0.92474,0.15918c0.27793,0.10107 0.51796,0.24003 0.72008,0.41689c0.20213,0.17686 0.36888,0.37394 0.50027,0.59123c0.0758,0.10612 0.10107,0.20971 0.0758,0.31077c-0.02021,0.09601 -0.0758,0.17181 -0.16676,0.22739c-0.09601,0.05559 -0.19708,0.06822 -0.30319,0.0379c-0.10612,-0.03537 -0.18444,-0.10107 -0.23497,-0.19708c-0.09601,-0.1516 -0.21224,-0.28803 -0.34867,-0.40931c-0.13644,-0.12633 -0.30067,-0.22487 -0.49269,-0.29561c-0.18697,-0.07075 -0.41436,-0.10864 -0.68218,-0.1137c-0.46995,0 -0.85147,0.09601 -1.14455,0.28803c-0.29309,0.18697 -0.43963,0.47248 -0.43963,0.85652c0,0.19202 0.05053,0.37394 0.1516,0.54575c0.10612,0.17181 0.28298,0.31835 0.53059,0.43963c0.25266,0.12128 0.59881,0.21224 1.03844,0.27287c0.74282,0.09601 1.3012,0.32341 1.67514,0.68218c0.37899,0.35372 0.56849,0.81862 0.56849,1.39469c0,0.33351 -0.06317,0.6266 -0.1895,0.87926c-0.12633,0.25266 -0.30067,0.4649 -0.52301,0.63671c-0.21729,0.17181 -0.47248,0.30319 -0.76556,0.39415c-0.29309,0.08591 -0.60133,0.12886 -0.92474,0.12886zM151.30882,183.58091c-0.11117,0 -0.20466,-0.0379 -0.28045,-0.1137c-0.0758,-0.0758 -0.1137,-0.16676 -0.1137,-0.27287v-6.29126c0,-0.11622 0.0379,-0.20971 0.1137,-0.28045c0.0758,-0.0758 0.16928,-0.1137 0.28045,-0.1137h1.81158c0.44974,0 0.84641,0.09854 1.19003,0.29561c0.34362,0.19708 0.61397,0.46995 0.81104,0.81862c0.19708,0.34362 0.29561,0.74535 0.29561,1.20519c0,0.43963 -0.09854,0.83125 -0.29561,1.17487c-0.19708,0.33856 -0.46742,0.60639 -0.81104,0.80346c-0.34362,0.19708 -0.7403,0.29561 -1.19003,0.29561h-1.41743v2.09203c0,0.10612 -0.0379,0.19708 -0.1137,0.27287c-0.0758,0.0758 -0.16928,0.1137 -0.28045,0.1137zM151.70297,180.35948h1.41743c0.29814,0 0.56091,-0.06569 0.7883,-0.19708c0.23245,-0.13644 0.41436,-0.31835 0.54575,-0.54575c0.13644,-0.22739 0.20466,-0.49016 0.20466,-0.7883c0,-0.3133 -0.06822,-0.58617 -0.20466,-0.81862c-0.13138,-0.23245 -0.3133,-0.41689 -0.54575,-0.55333c-0.22739,-0.13644 -0.49016,-0.20466 -0.7883,-0.20466h-1.41743zM155.86933,183.58091c-0.1516,0 -0.26277,-0.06064 -0.33351,-0.18192c-0.06569,-0.12633 -0.07327,-0.25266 -0.02274,-0.37899l2.6302,-6.2382c0.07075,-0.18192 0.19708,-0.27287 0.37899,-0.27287c0.17181,0 0.29561,0.09096 0.37141,0.27287l2.62262,6.24578c0.06064,0.13138 0.05306,0.25771 -0.02274,0.37899c-0.0758,0.11622 -0.18697,0.17434 -0.33351,0.17434c-0.0758,0 -0.14654,-0.02021 -0.21224,-0.06064c-0.06064,-0.04548 -0.10864,-0.10612 -0.14402,-0.18192l-2.41038,-5.88194h0.27287l-2.43312,5.88194c-0.04043,0.08085 -0.09349,0.14149 -0.15918,0.18192c-0.06064,0.04043 -0.12886,0.06064 -0.20466,0.06064zM156.43023,181.94367l0.29561,-0.66702h3.63074l0.31077,0.66702zM165.5752,183.67187c-0.48511,0 -0.94243,-0.09349 -1.37195,-0.28045c-0.42447,-0.18697 -0.79841,-0.44468 -1.12181,-0.77314c-0.31835,-0.33351 -0.56849,-0.72008 -0.7504,-1.15971c-0.17686,-0.43963 -0.26529,-0.91211 -0.26529,-1.41743c0,-0.50027 0.08843,-0.96769 0.26529,-1.40227c0.18192,-0.43963 0.43205,-0.82367 0.7504,-1.15213c0.31835,-0.32846 0.68976,-0.58617 1.11423,-0.77314c0.42952,-0.19202 0.88937,-0.28803 1.37953,-0.28803c0.44468,0 0.84136,0.06064 1.19003,0.18192c0.34867,0.12128 0.68976,0.32088 1.02328,0.59881c0.05559,0.04548 0.09096,0.09349 0.10612,0.14402c0.01516,0.05053 0.01516,0.10107 0,0.1516c-0.01011,0.04548 -0.03285,0.08338 -0.06822,0.1137c-0.01011,0.07075 -0.04548,0.12886 -0.10612,0.17434c-0.05559,0.04043 -0.1238,0.06064 -0.20466,0.06064c-0.08085,-0.00505 -0.15918,-0.0379 -0.23497,-0.09854c-0.22739,-0.19708 -0.475,-0.34614 -0.74282,-0.44721c-0.26277,-0.10107 -0.58365,-0.1516 -0.96264,-0.1516c-0.37899,0 -0.73524,0.0758 -1.06876,0.22739c-0.32846,0.1516 -0.61902,0.3613 -0.87168,0.62913c-0.25266,0.26277 -0.44974,0.57101 -0.59123,0.92474c-0.14149,0.34867 -0.21224,0.71756 -0.21224,1.10665c0,0.40426 0.07075,0.78072 0.21224,1.12939c0.14149,0.34362 0.33856,0.64934 0.59123,0.91716c0.25266,0.26782 0.54322,0.47753 0.87168,0.62913c0.33351,0.14654 0.68976,0.21981 1.06876,0.21981c0.32341,0 0.62913,-0.05306 0.91716,-0.15918c0.28803,-0.11117 0.56343,-0.26529 0.8262,-0.46237c0.08085,-0.06569 0.16676,-0.09349 0.25771,-0.08338c0.09096,0.01011 0.16676,0.05053 0.22739,0.12128c0.06569,0.06569 0.09854,0.1516 0.09854,0.25771c0,0.05053 -0.01011,0.09854 -0.03032,0.14402c-0.01516,0.04548 -0.04043,0.09096 -0.0758,0.13644c-0.3133,0.27287 -0.65944,0.47248 -1.03844,0.59881c-0.37394,0.12128 -0.76809,0.18192 -1.18245,0.18192zM169.78931,183.58091c-0.11117,0 -0.20466,-0.0379 -0.28045,-0.1137c-0.0758,-0.0758 -0.1137,-0.16676 -0.1137,-0.27287v-6.29126c0,-0.11622 0.0379,-0.20971 0.1137,-0.28045c0.0758,-0.0758 0.16928,-0.1137 0.28045,-0.1137h4.19922c0.10612,0 0.19708,0.03537 0.27287,0.10612c0.0758,0.07075 0.1137,0.16423 0.1137,0.28045c0,0.10107 -0.0379,0.18697 -0.1137,0.25771c-0.0758,0.06569 -0.16676,0.09854 -0.27287,0.09854h-3.80507v2.4028h2.75148c0.11622,0 0.20971,0.03537 0.28045,0.10612c0.0758,0.07075 0.1137,0.15918 0.1137,0.26529c0,0.10612 -0.0379,0.19708 -0.1137,0.27287c-0.07075,0.07075 -0.16423,0.10612 -0.28045,0.10612h-2.75148v2.43312h3.80507c0.10612,0 0.19708,0.03537 0.27287,0.10612c0.0758,0.07075 0.1137,0.15665 0.1137,0.25771c0,0.11622 -0.0379,0.20971 -0.1137,0.28045c-0.0758,0.06569 -0.16676,0.09854 -0.27287,0.09854zM180.14086,183.58091c-0.3133,0 -0.59375,-0.0758 -0.84136,-0.22739c-0.24761,-0.1516 -0.44216,-0.35878 -0.58365,-0.62155c-0.14149,-0.26782 -0.21224,-0.56596 -0.21224,-0.89442v-4.3963c0,-0.11117 0.03285,-0.20213 0.09854,-0.27287c0.07075,-0.0758 0.16423,-0.1137 0.28045,-0.1137c0.11117,0 0.20213,0.0379 0.27287,0.1137c0.07075,0.07075 0.10612,0.1617 0.10612,0.27287v4.3963c0,0.28298 0.08338,0.51796 0.25013,0.70492c0.16676,0.18192 0.37646,0.27287 0.62913,0.27287h0.26529c0.10107,0 0.18444,0.03537 0.25013,0.10612c0.06569,0.07075 0.09854,0.16423 0.09854,0.28045c0,0.11622 -0.04043,0.20971 -0.12128,0.28045c-0.08085,0.06569 -0.18444,0.09854 -0.31077,0.09854zM177.96545,179.47265c-0.10107,0 -0.18444,-0.03032 -0.25013,-0.09096c-0.06569,-0.06064 -0.09854,-0.13896 -0.09854,-0.23497c0,-0.09601 0.03285,-0.17434 0.09854,-0.23497c0.06569,-0.06569 0.14907,-0.09854 0.25013,-0.09854h2.23605c0.10612,0 0.19202,0.03285 0.25771,0.09854c0.06569,0.06064 0.09854,0.13896 0.09854,0.23497c0,0.09601 -0.03285,0.17434 -0.09854,0.23497c-0.06569,0.06064 -0.1516,0.09096 -0.25771,0.09096zM184.14292,183.62639c-0.49016,0 -0.92474,-0.10864 -1.30373,-0.32593c-0.37394,-0.21729 -0.66955,-0.51543 -0.88684,-0.89442c-0.21729,-0.37899 -0.32593,-0.81104 -0.32593,-1.29615c0,-0.49016 0.10864,-0.92474 0.32593,-1.30373c0.21729,-0.37899 0.5129,-0.67713 0.88684,-0.89442c0.37899,-0.21729 0.81357,-0.32593 1.30373,-0.32593c0.48006,0 0.90705,0.10864 1.28099,0.32593c0.37394,0.21729 0.66955,0.51543 0.88684,0.89442c0.21729,0.37899 0.33098,0.81357 0.34109,1.30373c0,0.48511 -0.10864,0.91716 -0.32593,1.29615c-0.21729,0.37899 -0.51543,0.67713 -0.89442,0.89442c-0.37899,0.21729 -0.80851,0.32593 -1.28857,0.32593zM184.14292,182.92905c0.33856,0 0.63923,-0.07833 0.902,-0.23497c0.26782,-0.15665 0.475,-0.37141 0.62155,-0.64429c0.14654,-0.27793 0.21981,-0.59123 0.21981,-0.9399c0,-0.34867 -0.07327,-0.66197 -0.21981,-0.9399c-0.14654,-0.27793 -0.35372,-0.49522 -0.62155,-0.65187c-0.26277,-0.15665 -0.56343,-0.23497 -0.902,-0.23497c-0.33856,0 -0.64176,0.07833 -0.90958,0.23497c-0.26277,0.15665 -0.47248,0.37394 -0.62913,0.65187c-0.1516,0.27793 -0.22739,0.59123 -0.22739,0.9399c0,0.34867 0.0758,0.66197 0.22739,0.9399c0.15665,0.27287 0.36636,0.48764 0.62913,0.64429c0.26782,0.15665 0.57101,0.23497 0.90958,0.23497zM192.79898,183.62639c-0.46995,0 -0.88684,-0.10612 -1.25067,-0.31835c-0.35878,-0.21729 -0.64176,-0.51543 -0.84894,-0.89442c-0.20213,-0.37899 -0.30319,-0.81357 -0.30319,-1.30373c0,-0.49522 0.10864,-0.93232 0.32593,-1.31131c0.21729,-0.37899 0.5129,-0.6746 0.88684,-0.88684c0.37899,-0.21729 0.81357,-0.32593 1.30373,-0.32593c0.48006,0 0.90958,0.10864 1.28857,0.32593c0.37899,0.21224 0.6746,0.50785 0.88684,0.88684c0.21224,0.37899 0.32341,0.81609 0.33351,1.31131l-0.45479,0.14402c0,0.45984 -0.09349,0.86915 -0.28045,1.22793c-0.18697,0.35878 -0.44468,0.63923 -0.77314,0.84136c-0.32341,0.20213 -0.69482,0.30319 -1.11423,0.30319zM192.91267,185.57441c-0.45984,0 -0.87168,-0.08843 -1.23551,-0.26529c-0.36383,-0.17686 -0.66955,-0.42194 -0.91716,-0.73524c-0.07075,-0.08085 -0.10107,-0.16928 -0.09096,-0.26529c0.01516,-0.09096 0.06569,-0.16423 0.1516,-0.21981c0.09096,-0.06064 0.18697,-0.08338 0.28803,-0.06822c0.10107,0.02021 0.18192,0.07327 0.24255,0.15918c0.17181,0.21224 0.3891,0.38152 0.65187,0.50785c0.26782,0.12633 0.57607,0.1895 0.92474,0.1895c0.31835,0 0.60891,-0.07833 0.87168,-0.23497c0.26277,-0.1516 0.46995,-0.37394 0.62155,-0.66702c0.15665,-0.28803 0.23497,-0.6266 0.23497,-1.0157v-1.34921l0.28045,-0.61397l0.48511,0.1137v1.8798c0,0.48511 -0.10864,0.92221 -0.32593,1.31131c-0.21729,0.3891 -0.51543,0.69734 -0.89442,0.92474c-0.37394,0.23245 -0.80346,0.34867 -1.28857,0.34867zM192.91267,182.92905c0.33856,0 0.63923,-0.0758 0.902,-0.22739c0.26782,-0.15665 0.475,-0.37141 0.62155,-0.64429c0.14654,-0.27793 0.21981,-0.59375 0.21981,-0.94748c0,-0.35372 -0.07327,-0.66955 -0.21981,-0.94748c-0.14654,-0.27793 -0.35372,-0.49269 -0.62155,-0.64429c-0.26277,-0.15665 -0.56343,-0.23497 -0.902,-0.23497c-0.34362,0 -0.64934,0.07833 -0.91716,0.23497c-0.26277,0.1516 -0.46995,0.36636 -0.62155,0.64429c-0.1516,0.27793 -0.22739,0.59375 -0.22739,0.94748c0,0.35372 0.0758,0.66955 0.22739,0.94748c0.1516,0.27287 0.35878,0.48764 0.62155,0.64429c0.26782,0.1516 0.57354,0.22739 0.91716,0.22739zM199.03069,183.62639c-0.49016,0 -0.92474,-0.10864 -1.30373,-0.32593c-0.37394,-0.21729 -0.66955,-0.51543 -0.88684,-0.89442c-0.21729,-0.37899 -0.32593,-0.81104 -0.32593,-1.29615c0,-0.49016 0.10864,-0.92474 0.32593,-1.30373c0.21729,-0.37899 0.5129,-0.67713 0.88684,-0.89442c0.37899,-0.21729 0.81357,-0.32593 1.30373,-0.32593c0.48006,0 0.90705,0.10864 1.28099,0.32593c0.37394,0.21729 0.66955,0.51543 0.88684,0.89442c0.21729,0.37899 0.33098,0.81357 0.34109,1.30373c0,0.48511 -0.10864,0.91716 -0.32593,1.29615c-0.21729,0.37899 -0.51543,0.67713 -0.89442,0.89442c-0.37899,0.21729 -0.80851,0.32593 -1.28857,0.32593zM199.03069,182.92905c0.33856,0 0.63923,-0.07833 0.902,-0.23497c0.26782,-0.15665 0.475,-0.37141 0.62155,-0.64429c0.14654,-0.27793 0.21981,-0.59123 0.21981,-0.9399c0,-0.34867 -0.07327,-0.66197 -0.21981,-0.9399c-0.14654,-0.27793 -0.35372,-0.49522 -0.62155,-0.65187c-0.26277,-0.15665 -0.56343,-0.23497 -0.902,-0.23497c-0.33856,0 -0.64176,0.07833 -0.90958,0.23497c-0.26277,0.15665 -0.47248,0.37394 -0.62913,0.65187c-0.1516,0.27793 -0.22739,0.59123 -0.22739,0.9399c0,0.34867 0.0758,0.66197 0.22739,0.9399c0.15665,0.27287 0.36636,0.48764 0.62913,0.64429c0.26782,0.15665 0.57101,0.23497 0.90958,0.23497zM208.043,183.62639c-0.46995,0 -0.89189,-0.10864 -1.26583,-0.32593c-0.37394,-0.22234 -0.67208,-0.52048 -0.89442,-0.89442c-0.21729,-0.37899 -0.33098,-0.80599 -0.34109,-1.28099v-4.22196c0,-0.12128 0.03537,-0.21729 0.10612,-0.28803c0.0758,-0.07075 0.17181,-0.10612 0.28803,-0.10612c0.11117,0 0.20213,0.03537 0.27287,0.10612c0.07075,0.07075 0.10612,0.16676 0.10612,0.28803v2.58472c0.20718,-0.26782 0.46995,-0.48511 0.7883,-0.65187c0.31835,-0.16676 0.67208,-0.25013 1.06118,-0.25013c0.45479,0 0.8641,0.11117 1.22793,0.33351c0.36383,0.21729 0.64934,0.51796 0.85652,0.902c0.20718,0.37899 0.31077,0.80599 0.31077,1.28099c0,0.48006 -0.11117,0.91211 -0.33351,1.29615c-0.21729,0.37899 -0.51543,0.67966 -0.89442,0.902c-0.37394,0.21729 -0.80346,0.32593 -1.28857,0.32593zM208.043,182.92905c0.33856,0 0.63923,-0.07833 0.902,-0.23497c0.26782,-0.1617 0.47753,-0.37899 0.62913,-0.65187c0.15665,-0.27793 0.23497,-0.59123 0.23497,-0.9399c0,-0.34362 -0.07833,-0.65439 -0.23497,-0.93232c-0.1516,-0.27793 -0.3613,-0.49522 -0.62913,-0.65187c-0.26277,-0.15665 -0.56343,-0.23497 -0.902,-0.23497c-0.32341,0 -0.62155,0.07833 -0.89442,0.23497c-0.26782,0.15665 -0.47753,0.37394 -0.62913,0.65187c-0.14654,0.27793 -0.21981,0.5887 -0.21981,0.93232c0,0.34867 0.07327,0.66197 0.21981,0.9399c0.1516,0.27287 0.3613,0.49016 0.62913,0.65187c0.27287,0.15665 0.57101,0.23497 0.89442,0.23497zM214.07626,183.62639c-0.45479,0 -0.8641,-0.10864 -1.22793,-0.32593c-0.36383,-0.22234 -0.65187,-0.52301 -0.8641,-0.902c-0.20718,-0.38404 -0.31077,-0.81357 -0.31077,-1.28857c0,-0.48006 0.10864,-0.90958 0.32593,-1.28857c0.22234,-0.38404 0.52301,-0.68471 0.902,-0.902c0.37899,-0.22234 0.80851,-0.33351 1.28857,-0.33351c0.46995,0 0.89189,0.11117 1.26583,0.33351c0.37899,0.21729 0.67713,0.51796 0.89442,0.902c0.22234,0.37899 0.33856,0.80851 0.34867,1.28857l-0.31077,0.14402c0,0.44468 -0.10107,0.84894 -0.30319,1.21277c-0.20213,0.35878 -0.47753,0.64176 -0.8262,0.84894c-0.34362,0.20718 -0.73777,0.31077 -1.18245,0.31077zM214.18996,182.92905c0.32846,0 0.6266,-0.07833 0.89442,-0.23497c0.26782,-0.15665 0.475,-0.37394 0.62155,-0.65187c0.1516,-0.27793 0.22739,-0.5887 0.22739,-0.93232c0,-0.34867 -0.0758,-0.65944 -0.22739,-0.93232c-0.14654,-0.27793 -0.35372,-0.49522 -0.62155,-0.65187c-0.26782,-0.1617 -0.56596,-0.24255 -0.89442,-0.24255c-0.33351,0 -0.63418,0.08085 -0.902,0.24255c-0.26277,0.15665 -0.47248,0.37394 -0.62913,0.65187c-0.15665,0.27287 -0.23497,0.58365 -0.23497,0.93232c0,0.34362 0.07833,0.65439 0.23497,0.93232c0.15665,0.27793 0.36636,0.49522 0.62913,0.65187c0.26782,0.15665 0.56849,0.23497 0.902,0.23497zM216.30473,183.58091c-0.11622,0 -0.20971,-0.03285 -0.28045,-0.09854c-0.07075,-0.07075 -0.10612,-0.16423 -0.10612,-0.28045v-1.49323l0.17434,-0.79588l0.60639,0.19708v2.09203c0,0.11622 -0.0379,0.20971 -0.1137,0.28045c-0.0758,0.06569 -0.16928,0.09854 -0.28045,0.09854zM220.27007,183.62639c-0.475,0 -0.89947,-0.10864 -1.27341,-0.32593c-0.37394,-0.22234 -0.66955,-0.52301 -0.88684,-0.902c-0.21224,-0.38404 -0.31835,-0.81357 -0.31835,-1.28857c0,-0.48006 0.10359,-0.90958 0.31077,-1.28857c0.20718,-0.38404 0.49016,-0.68471 0.84894,-0.902c0.35878,-0.22234 0.77314,-0.33351 1.24309,-0.33351c0.36383,0 0.69987,0.07075 1.00812,0.21224c0.30825,0.14149 0.57859,0.35372 0.81104,0.63671c0.0758,0.08591 0.10107,0.17181 0.0758,0.25771c-0.02021,0.08591 -0.0758,0.16423 -0.16676,0.23497c-0.07075,0.05053 -0.1516,0.06822 -0.24255,0.05306c-0.09096,-0.02021 -0.16928,-0.06822 -0.23497,-0.14402c-0.32846,-0.36888 -0.74535,-0.55333 -1.25067,-0.55333c-0.32341,0 -0.61144,0.07833 -0.8641,0.23497c-0.24761,0.15665 -0.44216,0.37141 -0.58365,0.64429c-0.13644,0.26782 -0.20466,0.58365 -0.20466,0.94748c0,0.34867 0.07075,0.66197 0.21224,0.9399c0.14654,0.27287 0.3512,0.48764 0.61397,0.64429c0.26277,0.15665 0.56343,0.23497 0.902,0.23497c0.22739,0 0.43205,-0.03032 0.61397,-0.09096c0.18697,-0.06064 0.35372,-0.1516 0.50027,-0.27287c0.0758,-0.06569 0.15665,-0.10107 0.24255,-0.10612c0.09096,-0.01011 0.17181,0.01263 0.24255,0.06822c0.08085,0.0758 0.12633,0.15918 0.13644,0.25013c0.01516,0.09096 -0.01516,0.17181 -0.09096,0.24255c-0.43963,0.40426 -0.9879,0.60639 -1.64482,0.60639zM224.13587,181.86787l-0.46995,-0.50785l2.98645,-2.69084c0.0758,-0.0758 0.15918,-0.10864 0.25013,-0.09854c0.09096,0.00505 0.17181,0.04548 0.24255,0.12128c0.0758,0.08085 0.10864,0.16676 0.09854,0.25771c-0.00505,0.09096 -0.04548,0.16928 -0.12128,0.23497zM223.84784,183.58091c-0.11622,0 -0.20971,-0.03285 -0.28045,-0.09854c-0.07075,-0.07075 -0.10612,-0.16423 -0.10612,-0.28045v-6.30641c0,-0.11622 0.03537,-0.20971 0.10612,-0.28045c0.07075,-0.07075 0.16423,-0.10612 0.28045,-0.10612c0.10612,0 0.19455,0.03537 0.26529,0.10612c0.07075,0.07075 0.10612,0.16423 0.10612,0.28045v6.30641c0,0.11622 -0.03537,0.20971 -0.10612,0.28045c-0.07075,0.06569 -0.15918,0.09854 -0.26529,0.09854zM227.14506,183.53543c-0.08085,0.07075 -0.16928,0.10107 -0.26529,0.09096c-0.09096,-0.00505 -0.16928,-0.05053 -0.23497,-0.13644l-1.97075,-2.41796l0.54575,-0.48511l1.98591,2.4407c0.06569,0.08591 0.09349,0.17434 0.08338,0.26529c-0.00505,0.09096 -0.05306,0.17181 -0.14402,0.24255zM233.1757,183.58091c-0.3133,0 -0.59375,-0.0758 -0.84136,-0.22739c-0.24761,-0.1516 -0.44216,-0.35878 -0.58365,-0.62155c-0.14149,-0.26782 -0.21224,-0.56596 -0.21224,-0.89442v-4.3963c0,-0.11117 0.03285,-0.20213 0.09854,-0.27287c0.07075,-0.0758 0.16423,-0.1137 0.28045,-0.1137c0.11117,0 0.20213,0.0379 0.27287,0.1137c0.07075,0.07075 0.10612,0.1617 0.10612,0.27287v4.3963c0,0.28298 0.08338,0.51796 0.25013,0.70492c0.16676,0.18192 0.37646,0.27287 0.62913,0.27287h0.26529c0.10107,0 0.18444,0.03537 0.25013,0.10612c0.06569,0.07075 0.09854,0.16423 0.09854,0.28045c0,0.11622 -0.04043,0.20971 -0.12128,0.28045c-0.08085,0.06569 -0.18444,0.09854 -0.31077,0.09854zM231.00029,179.47265c-0.10107,0 -0.18444,-0.03032 -0.25013,-0.09096c-0.06569,-0.06064 -0.09854,-0.13896 -0.09854,-0.23497c0,-0.09601 0.03285,-0.17434 0.09854,-0.23497c0.06569,-0.06569 0.14907,-0.09854 0.25013,-0.09854h2.23605c0.10612,0 0.19202,0.03285 0.25771,0.09854c0.06569,0.06064 0.09854,0.13896 0.09854,0.23497c0,0.09601 -0.03285,0.17434 -0.09854,0.23497c-0.06569,0.06064 -0.1516,0.09096 -0.25771,0.09096zM237.17775,183.62639c-0.49016,0 -0.92473,-0.10864 -1.30372,-0.32593c-0.37394,-0.21729 -0.66955,-0.51543 -0.88684,-0.89442c-0.21729,-0.37899 -0.32593,-0.81104 -0.32593,-1.29615c0,-0.49016 0.10864,-0.92474 0.32593,-1.30373c0.21729,-0.37899 0.5129,-0.67713 0.88684,-0.89442c0.37898,-0.21729 0.81355,-0.32593 1.30372,-0.32593c0.48006,0 0.90705,0.10864 1.28099,0.32593c0.37394,0.21729 0.66955,0.51543 0.88684,0.89442c0.21729,0.37899 0.33098,0.81357 0.34109,1.30373c0,0.48511 -0.10864,0.91716 -0.32593,1.29615c-0.21729,0.37899 -0.51543,0.67713 -0.89442,0.89442c-0.37899,0.21729 -0.80851,0.32593 -1.28857,0.32593zM237.17775,182.92905c0.33856,0 0.63923,-0.07833 0.902,-0.23497c0.26782,-0.15665 0.475,-0.37141 0.62155,-0.64429c0.14654,-0.27793 0.21981,-0.59123 0.21981,-0.9399c0,-0.34867 -0.07327,-0.66197 -0.21981,-0.9399c-0.14654,-0.27793 -0.35372,-0.49522 -0.62155,-0.65187c-0.26277,-0.15665 -0.56343,-0.23497 -0.902,-0.23497c-0.33856,0 -0.64175,0.07833 -0.90956,0.23497c-0.26277,0.15665 -0.47248,0.37394 -0.62913,0.65187c-0.1516,0.27793 -0.22739,0.59123 -0.22739,0.9399c0,0.34867 0.0758,0.66197 0.22739,0.9399c0.15665,0.27287 0.36636,0.48764 0.62913,0.64429c0.26781,0.15665 0.571,0.23497 0.90956,0.23497zM250.31351,183.58091c-0.11117,0 -0.20466,-0.03285 -0.28045,-0.09854c-0.07075,-0.07075 -0.10612,-0.16423 -0.10612,-0.28045v-2.59988c0,-0.41436 -0.10612,-0.73524 -0.31835,-0.96264c-0.20718,-0.22739 -0.47753,-0.34109 -0.81104,-0.34109c-0.35878,0 -0.65187,0.12128 -0.87926,0.36383c-0.22234,0.2375 -0.33098,0.5508 -0.32593,0.9399h-0.66702c0.00505,-0.40426 0.09096,-0.75798 0.25771,-1.06118c0.17181,-0.30319 0.40678,-0.53817 0.70492,-0.70492c0.29814,-0.17181 0.63671,-0.25771 1.0157,-0.25771c0.34867,0 0.65944,0.08085 0.93232,0.24255c0.27287,0.1617 0.48511,0.39668 0.63671,0.70492c0.1516,0.30319 0.22739,0.66197 0.22739,1.07634v2.59988c0,0.11622 -0.03537,0.20971 -0.10612,0.28045c-0.07075,0.06569 -0.16423,0.09854 -0.28045,0.09854zM244.08289,183.58091c-0.11622,0 -0.21224,-0.03285 -0.28803,-0.09854c-0.07075,-0.07075 -0.10612,-0.16423 -0.10612,-0.28045v-4.18406c0,-0.11117 0.03537,-0.20213 0.10612,-0.27287c0.0758,-0.0758 0.17181,-0.1137 0.28803,-0.1137c0.11117,0 0.20213,0.0379 0.27287,0.1137c0.07075,0.07075 0.10612,0.1617 0.10612,0.27287v4.18406c0,0.11622 -0.03537,0.20971 -0.10612,0.28045c-0.07075,0.06569 -0.1617,0.09854 -0.27287,0.09854zM247.20578,183.58091c-0.11117,0 -0.20466,-0.03285 -0.28045,-0.09854c-0.0758,-0.07075 -0.1137,-0.16423 -0.1137,-0.28045v-2.59988c0,-0.41436 -0.10612,-0.73524 -0.31835,-0.96264c-0.20718,-0.22739 -0.47753,-0.34109 -0.81104,-0.34109c-0.35372,0 -0.64681,0.11875 -0.87926,0.35625c-0.22739,0.23245 -0.34109,0.53564 -0.34109,0.90958h-0.51543c0.00505,-0.3891 0.08591,-0.73272 0.24255,-1.03086c0.1617,-0.29814 0.38152,-0.53059 0.65944,-0.69734c0.27793,-0.17181 0.59123,-0.25771 0.9399,-0.25771c0.35372,0 0.6645,0.08085 0.93232,0.24255c0.27287,0.1617 0.48511,0.39668 0.63671,0.70492c0.15665,0.30319 0.23497,0.66197 0.23497,1.07634v2.59988c0,0.11622 -0.0379,0.20971 -0.1137,0.28045c-0.07075,0.06569 -0.1617,0.09854 -0.27287,0.09854zM254.50619,183.62639c-0.49522,0 -0.93232,-0.10612 -1.31131,-0.31835c-0.37899,-0.21729 -0.67713,-0.51543 -0.89442,-0.89442c-0.21729,-0.37899 -0.32593,-0.81357 -0.32593,-1.30373c0,-0.49522 0.10107,-0.92979 0.30319,-1.30373c0.20718,-0.37899 0.49016,-0.67713 0.84894,-0.89442c0.35878,-0.21729 0.77314,-0.32593 1.24309,-0.32593c0.4649,0 0.86663,0.10359 1.20519,0.31077c0.33856,0.20718 0.59881,0.49522 0.78072,0.8641c0.18697,0.36888 0.28045,0.7883 0.28045,1.25825c0,0.10107 -0.03537,0.18444 -0.10612,0.25013c-0.06569,0.06064 -0.14907,0.09096 -0.25013,0.09096h-3.78233v-0.62155h3.82023l-0.37899,0.27287c0,-0.33351 -0.06317,-0.63165 -0.1895,-0.89442c-0.12633,-0.26782 -0.30572,-0.47753 -0.53817,-0.62913c-0.23245,-0.1516 -0.5129,-0.22739 -0.84136,-0.22739c-0.34362,0 -0.64176,0.08085 -0.89442,0.24255c-0.25266,0.1617 -0.44974,0.38152 -0.59123,0.65944c-0.13644,0.27793 -0.20466,0.59375 -0.20466,0.94748c0,0.35372 0.07833,0.66955 0.23497,0.94748c0.15665,0.27287 0.37141,0.49016 0.64429,0.65187c0.27793,0.15665 0.59375,0.23497 0.94748,0.23497c0.20718,0 0.41689,-0.03537 0.62913,-0.10612c0.21729,-0.07075 0.3891,-0.1617 0.51543,-0.27287c0.07075,-0.06064 0.1516,-0.09096 0.24255,-0.09096c0.09601,-0.00505 0.17686,0.02021 0.24255,0.0758c0.08591,0.0758 0.12886,0.1617 0.12886,0.25771c0.00505,0.09096 -0.03285,0.17181 -0.1137,0.24255c-0.20213,0.16676 -0.45732,0.30572 -0.76556,0.41689c-0.30319,0.10612 -0.59628,0.15918 -0.87926,0.15918zM262.03677,183.58091c-0.11622,0 -0.20971,-0.03537 -0.28045,-0.10612c-0.07075,-0.0758 -0.10612,-0.16676 -0.10612,-0.27287v-2.31185c0,-0.36383 -0.07075,-0.66197 -0.21224,-0.89442c-0.13644,-0.23245 -0.32088,-0.40678 -0.55333,-0.52301c-0.23245,-0.11622 -0.50027,-0.17434 -0.80346,-0.17434c-0.27793,0 -0.53312,0.05559 -0.76556,0.16676c-0.22739,0.10612 -0.40678,0.25519 -0.53817,0.44721c-0.13138,0.18697 -0.19708,0.40426 -0.19708,0.65187h-0.51543c0.00505,-0.37899 0.10107,-0.71756 0.28803,-1.0157c0.19202,-0.29814 0.44721,-0.53312 0.76556,-0.70492c0.32341,-0.17686 0.67966,-0.26529 1.06876,-0.26529c0.42952,0 0.81104,0.08843 1.14455,0.26529c0.33856,0.17686 0.60386,0.4371 0.79588,0.78072c0.19202,0.34362 0.28803,0.76556 0.28803,1.26583v2.31185c0,0.10612 -0.03537,0.19708 -0.10612,0.27287c-0.07075,0.07075 -0.1617,0.10612 -0.27287,0.10612zM258.20138,183.58091c-0.11622,0 -0.21224,-0.03285 -0.28803,-0.09854c-0.07075,-0.07075 -0.10612,-0.16423 -0.10612,-0.28045v-4.18406c0,-0.12128 0.03537,-0.21476 0.10612,-0.28045c0.0758,-0.07075 0.17181,-0.10612 0.28803,-0.10612c0.11117,0 0.20213,0.03537 0.27287,0.10612c0.07075,0.06569 0.10612,0.15918 0.10612,0.28045v4.18406c0,0.11622 -0.03537,0.20971 -0.10612,0.28045c-0.07075,0.06569 -0.1617,0.09854 -0.27287,0.09854zM266.08233,183.63397c-0.42447,0 -0.80346,-0.08843 -1.13697,-0.26529c-0.33351,-0.17686 -0.59628,-0.4371 -0.7883,-0.78072c-0.19202,-0.34362 -0.28803,-0.76809 -0.28803,-1.27341v-2.30427c0,-0.10612 0.03537,-0.19455 0.10612,-0.26529c0.07075,-0.0758 0.1617,-0.1137 0.27287,-0.1137c0.11117,0 0.20213,0.0379 0.27287,0.1137c0.0758,0.07075 0.1137,0.15918 0.1137,0.26529v2.30427c0,0.36383 0.06822,0.6645 0.20466,0.902c0.13644,0.23245 0.32088,0.40678 0.55333,0.52301c0.2375,0.11622 0.5028,0.17434 0.79588,0.17434c0.28298,0 0.53817,-0.05306 0.76556,-0.15918c0.22739,-0.11117 0.40678,-0.26277 0.53817,-0.45479c0.13644,-0.19708 0.20466,-0.41689 0.20466,-0.65944h0.52301c-0.01516,0.38404 -0.11622,0.72514 -0.30319,1.02328c-0.18697,0.29814 -0.43963,0.53564 -0.75798,0.7125c-0.31835,0.17181 -0.67713,0.25771 -1.07634,0.25771zM268.0834,183.58091c-0.11622,0 -0.20971,-0.03537 -0.28045,-0.10612c-0.07075,-0.0758 -0.10612,-0.16928 -0.10612,-0.28045v-4.18406c0,-0.11622 0.03537,-0.20718 0.10612,-0.27287c0.07075,-0.07075 0.16423,-0.10612 0.28045,-0.10612c0.11622,0 0.20971,0.03537 0.28045,0.10612c0.07075,0.06569 0.10612,0.15665 0.10612,0.27287v4.18406c0,0.11117 -0.03537,0.20466 -0.10612,0.28045c-0.07075,0.07075 -0.16423,0.10612 -0.28045,0.10612zM270.02177,185.08172c-0.06569,0 -0.11622,-0.02021 -0.1516,-0.06064c-0.03537,-0.03537 -0.05306,-0.08085 -0.05306,-0.13644c0,-0.10107 0.02779,-0.19202 0.08338,-0.27287c0.06064,-0.0758 0.12128,-0.15918 0.18192,-0.25013c0.06569,-0.09096 0.09854,-0.20213 0.09854,-0.33351c0,-0.10612 -0.02274,-0.19455 -0.06822,-0.26529c-0.04548,-0.07075 -0.09601,-0.13391 -0.1516,-0.1895c-0.05559,-0.06064 -0.10612,-0.12633 -0.1516,-0.19708c-0.04548,-0.07075 -0.06822,-0.15665 -0.06822,-0.25771c0,-0.15665 0.05053,-0.28298 0.1516,-0.37899c0.10107,-0.09601 0.23497,-0.14402 0.40173,-0.14402c0.19708,0 0.3512,0.07327 0.46237,0.21981c0.11622,0.14654 0.17434,0.34867 0.17434,0.60639c0,0.17686 -0.02527,0.3613 -0.0758,0.55333c-0.05053,0.19708 -0.1238,0.37899 -0.21981,0.54575c-0.09096,0.17181 -0.19202,0.30825 -0.30319,0.40931c-0.10612,0.10107 -0.20971,0.1516 -0.31077,0.1516zM277.10775,183.62639c-0.49016,0 -0.92474,-0.10864 -1.30373,-0.32593c-0.37394,-0.21729 -0.66955,-0.51543 -0.88684,-0.89442c-0.21729,-0.37899 -0.32593,-0.81104 -0.32593,-1.29615c0,-0.49016 0.10864,-0.92474 0.32593,-1.30373c0.21729,-0.37899 0.5129,-0.67713 0.88684,-0.89442c0.37899,-0.21729 0.81357,-0.32593 1.30373,-0.32593c0.48006,0 0.90705,0.10864 1.28099,0.32593c0.37394,0.21729 0.66955,0.51543 0.88684,0.89442c0.21729,0.37899 0.33098,0.81357 0.34109,1.30373c0,0.48511 -0.10864,0.91716 -0.32593,1.29615c-0.21729,0.37899 -0.51543,0.67713 -0.89442,0.89442c-0.37899,0.21729 -0.80851,0.32593 -1.28857,0.32593zM277.10775,182.92905c0.33856,0 0.63923,-0.07833 0.902,-0.23497c0.26782,-0.15665 0.475,-0.37141 0.62155,-0.64429c0.14654,-0.27793 0.21981,-0.59123 0.21981,-0.9399c0,-0.34867 -0.07327,-0.66197 -0.21981,-0.9399c-0.14654,-0.27793 -0.35372,-0.49522 -0.62155,-0.65187c-0.26277,-0.15665 -0.56343,-0.23497 -0.902,-0.23497c-0.33856,0 -0.64176,0.07833 -0.90958,0.23497c-0.26277,0.15665 -0.47248,0.37394 -0.62913,0.65187c-0.1516,0.27793 -0.22739,0.59123 -0.22739,0.9399c0,0.34867 0.0758,0.66197 0.22739,0.9399c0.15665,0.27287 0.36636,0.48764 0.62913,0.64429c0.26782,0.15665 0.57101,0.23497 0.90958,0.23497zM281.31565,180.51108c0.01011,-0.36888 0.10359,-0.69734 0.28045,-0.98538c0.18192,-0.29309 0.41689,-0.52301 0.70492,-0.68976c0.28803,-0.17181 0.61144,-0.25771 0.97022,-0.25771c0.30825,0 0.5407,0.04548 0.69734,0.13644c0.1617,0.09096 0.22234,0.21476 0.18192,0.37141c-0.02021,0.08591 -0.06064,0.14654 -0.12128,0.18192c-0.05559,0.03537 -0.12128,0.05306 -0.19708,0.05306c-0.0758,0 -0.1617,-0.00505 -0.25771,-0.01516c-0.34867,-0.04548 -0.66197,-0.02274 -0.9399,0.06822c-0.27793,0.08591 -0.49774,0.22739 -0.65944,0.42447c-0.1617,0.19708 -0.24255,0.43458 -0.24255,0.7125zM281.35355,183.58091c-0.12128,0 -0.21729,-0.03285 -0.28803,-0.09854c-0.06569,-0.06569 -0.09854,-0.15918 -0.09854,-0.28045v-4.19164c0,-0.12128 0.03285,-0.21476 0.09854,-0.28045c0.07075,-0.06569 0.16676,-0.09854 0.28803,-0.09854c0.11622,0 0.20718,0.03285 0.27287,0.09854c0.07075,0.06569 0.10612,0.15918 0.10612,0.28045v4.19164c0,0.12128 -0.03537,0.21476 -0.10612,0.28045c-0.06569,0.06569 -0.15665,0.09854 -0.27287,0.09854zM292.07476,183.58091c-0.11622,0 -0.20971,-0.03537 -0.28045,-0.10612c-0.07075,-0.0758 -0.10612,-0.16676 -0.10612,-0.27287v-2.31185c0,-0.36383 -0.07075,-0.66197 -0.21224,-0.89442c-0.13644,-0.23245 -0.32088,-0.40678 -0.55333,-0.52301c-0.23245,-0.11622 -0.50027,-0.17434 -0.80346,-0.17434c-0.27793,0 -0.53312,0.05559 -0.76556,0.16676c-0.22739,0.10612 -0.40678,0.25519 -0.53817,0.44721c-0.13138,0.18697 -0.19708,0.40426 -0.19708,0.65187h-0.51543c0.00505,-0.37899 0.10107,-0.71756 0.28803,-1.0157c0.19202,-0.29814 0.44721,-0.53312 0.76556,-0.70492c0.32341,-0.17686 0.67966,-0.26529 1.06876,-0.26529c0.42952,0 0.81104,0.08843 1.14455,0.26529c0.33856,0.17686 0.60386,0.4371 0.79588,0.78072c0.19202,0.34362 0.28803,0.76556 0.28803,1.26583v2.31185c0,0.10612 -0.03537,0.19708 -0.10612,0.27287c-0.07075,0.07075 -0.1617,0.10612 -0.27287,0.10612zM288.23937,183.58091c-0.11622,0 -0.21224,-0.03285 -0.28803,-0.09854c-0.07075,-0.07075 -0.10612,-0.16423 -0.10612,-0.28045v-4.18406c0,-0.12128 0.03537,-0.21476 0.10612,-0.28045c0.0758,-0.07075 0.17181,-0.10612 0.28803,-0.10612c0.11117,0 0.20213,0.03537 0.27287,0.10612c0.07075,0.06569 0.10612,0.15918 0.10612,0.28045v4.18406c0,0.11622 -0.03537,0.20971 -0.10612,0.28045c-0.07075,0.06569 -0.1617,0.09854 -0.27287,0.09854zM288.23937,181.6329c-0.11622,0 -0.21224,-0.03537 -0.28803,-0.10612c-0.07075,-0.07075 -0.10612,-0.16423 -0.10612,-0.28045v-4.34324c0,-0.12128 0.03537,-0.21729 0.10612,-0.28803c0.0758,-0.07075 0.17181,-0.10612 0.28803,-0.10612c0.11117,0 0.20213,0.03537 0.27287,0.10612c0.07075,0.07075 0.10612,0.16676 0.10612,0.28803v4.34324c0,0.11622 -0.03537,0.20971 -0.10612,0.28045c-0.07075,0.07075 -0.1617,0.10612 -0.27287,0.10612zM296.24918,183.62639c-0.49016,0 -0.92474,-0.10864 -1.30373,-0.32593c-0.37394,-0.21729 -0.66955,-0.51543 -0.88684,-0.89442c-0.21729,-0.37899 -0.32593,-0.81104 -0.32593,-1.29615c0,-0.49016 0.10864,-0.92474 0.32593,-1.30373c0.21729,-0.37899 0.5129,-0.67713 0.88684,-0.89442c0.37899,-0.21729 0.81357,-0.32593 1.30373,-0.32593c0.48006,0 0.90705,0.10864 1.28099,0.32593c0.37394,0.21729 0.66955,0.51543 0.88684,0.89442c0.21729,0.37899 0.33098,0.81357 0.34109,1.30373c0,0.48511 -0.10864,0.91716 -0.32593,1.29615c-0.21729,0.37899 -0.51543,0.67713 -0.89442,0.89442c-0.37899,0.21729 -0.80851,0.32593 -1.28857,0.32593zM296.24918,182.92905c0.33856,0 0.63923,-0.07833 0.902,-0.23497c0.26782,-0.15665 0.475,-0.37141 0.62155,-0.64429c0.14654,-0.27793 0.21981,-0.59123 0.21981,-0.9399c0,-0.34867 -0.07327,-0.66197 -0.21981,-0.9399c-0.14654,-0.27793 -0.35372,-0.49522 -0.62155,-0.65187c-0.26277,-0.15665 -0.56343,-0.23497 -0.902,-0.23497c-0.33856,0 -0.64176,0.07833 -0.90958,0.23497c-0.26277,0.15665 -0.47248,0.37394 -0.62913,0.65187c-0.1516,0.27793 -0.22739,0.59123 -0.22739,0.9399c0,0.34867 0.0758,0.66197 0.22739,0.9399c0.15665,0.27287 0.36636,0.48764 0.62913,0.64429c0.26782,0.15665 0.57101,0.23497 0.90958,0.23497zM301.21506,183.58091c-0.24761,0 -0.46995,-0.06822 -0.66702,-0.20466c-0.19202,-0.13644 -0.34362,-0.32341 -0.45479,-0.56091c-0.10612,-0.24255 -0.15918,-0.52048 -0.15918,-0.83378v-5.08606c0,-0.11622 0.03285,-0.20971 0.09854,-0.28045c0.07075,-0.07075 0.16423,-0.10612 0.28045,-0.10612c0.11117,0 0.20213,0.03537 0.27287,0.10612c0.07075,0.07075 0.10612,0.16423 0.10612,0.28045v5.08606c0,0.24761 0.04801,0.44974 0.14402,0.60639c0.10107,0.15665 0.22739,0.23497 0.37899,0.23497h0.22739c0.10107,0 0.18192,0.03537 0.24255,0.10612c0.06064,0.06569 0.09096,0.15665 0.09096,0.27287c0,0.11622 -0.04295,0.20971 -0.12886,0.28045c-0.08591,0.06569 -0.20213,0.09854 -0.34867,0.09854zM304.70201,183.62639c-0.48006,0 -0.90958,-0.10864 -1.28857,-0.32593c-0.37899,-0.22234 -0.67966,-0.52301 -0.902,-0.902c-0.21729,-0.38404 -0.32593,-0.81609 -0.32593,-1.29615c0,-0.475 0.10359,-0.902 0.31077,-1.28099c0.21224,-0.38404 0.50027,-0.68471 0.8641,-0.902c0.36383,-0.22234 0.77314,-0.33351 1.22793,-0.33351c0.3891,0 0.7403,0.08338 1.0536,0.25013c0.31835,0.16676 0.58112,0.38404 0.7883,0.65187v-2.58472c0,-0.12128 0.03537,-0.21729 0.10612,-0.28803c0.07075,-0.07075 0.16423,-0.10612 0.28045,-0.10612c0.11622,0 0.20971,0.03537 0.28045,0.10612c0.0758,0.07075 0.1137,0.16676 0.1137,0.28803v4.22196c-0.01516,0.475 -0.13391,0.902 -0.35625,1.28099c-0.21729,0.37394 -0.5129,0.67208 -0.88684,0.89442c-0.37394,0.21729 -0.79588,0.32593 -1.26583,0.32593zM304.70201,182.92905c0.32846,0 0.6266,-0.07833 0.89442,-0.23497c0.26782,-0.1617 0.475,-0.37899 0.62155,-0.65187c0.1516,-0.27793 0.22739,-0.59123 0.22739,-0.9399c0,-0.34362 -0.0758,-0.65439 -0.22739,-0.93232c-0.14654,-0.27793 -0.35372,-0.49522 -0.62155,-0.65187c-0.26782,-0.15665 -0.56596,-0.23497 -0.89442,-0.23497c-0.33351,0 -0.63418,0.07833 -0.902,0.23497c-0.26277,0.15665 -0.47248,0.37394 -0.62913,0.65187c-0.15665,0.27793 -0.23497,0.5887 -0.23497,0.93232c0,0.34867 0.07833,0.66197 0.23497,0.9399c0.15665,0.27287 0.36636,0.49016 0.62913,0.65187c0.26782,0.15665 0.56849,0.23497 0.902,0.23497zM311.40868,183.58091c-0.11117,0 -0.20466,-0.0379 -0.28045,-0.1137c-0.0758,-0.0758 -0.1137,-0.16676 -0.1137,-0.27287v-6.29126c0,-0.11622 0.03537,-0.20971 0.10612,-0.28045c0.0758,-0.0758 0.17181,-0.1137 0.28803,-0.1137h4.19164c0.11117,0 0.20213,0.03537 0.27287,0.10612c0.0758,0.07075 0.1137,0.16423 0.1137,0.28045c0,0.10107 -0.0379,0.18697 -0.1137,0.25771c-0.07075,0.06569 -0.1617,0.09854 -0.27287,0.09854h-3.80507v2.4028h2.75906c0.11622,0 0.20971,0.03537 0.28045,0.10612c0.0758,0.07075 0.1137,0.15918 0.1137,0.26529c0,0.10612 -0.0379,0.19708 -0.1137,0.27287c-0.07075,0.07075 -0.16423,0.10612 -0.28045,0.10612h-2.75906v2.78938c0,0.10612 -0.0379,0.19708 -0.1137,0.27287c-0.07075,0.0758 -0.1617,0.1137 -0.27287,0.1137zM321.68764,183.58091c-0.3133,0 -0.59375,-0.0758 -0.84136,-0.22739c-0.24761,-0.1516 -0.44216,-0.35878 -0.58365,-0.62155c-0.14149,-0.26782 -0.21224,-0.56596 -0.21224,-0.89442v-4.3963c0,-0.11117 0.03285,-0.20213 0.09854,-0.27287c0.07075,-0.0758 0.16423,-0.1137 0.28045,-0.1137c0.11117,0 0.20213,0.0379 0.27287,0.1137c0.07075,0.07075 0.10612,0.1617 0.10612,0.27287v4.3963c0,0.28298 0.08338,0.51796 0.25013,0.70492c0.16676,0.18192 0.37646,0.27287 0.62913,0.27287h0.26529c0.10107,0 0.18444,0.03537 0.25013,0.10612c0.06569,0.07075 0.09854,0.16423 0.09854,0.28045c0,0.11622 -0.04043,0.20971 -0.12128,0.28045c-0.08085,0.06569 -0.18444,0.09854 -0.31077,0.09854zM319.51223,179.47265c-0.10107,0 -0.18444,-0.03032 -0.25013,-0.09096c-0.06569,-0.06064 -0.09854,-0.13896 -0.09854,-0.23497c0,-0.09601 0.03285,-0.17434 0.09854,-0.23497c0.06569,-0.06569 0.14907,-0.09854 0.25013,-0.09854h2.23605c0.10612,0 0.19202,0.03285 0.25771,0.09854c0.06569,0.06064 0.09854,0.13896 0.09854,0.23497c0,0.09601 -0.03285,0.17434 -0.09854,0.23497c-0.06569,0.06064 -0.1516,0.09096 -0.25771,0.09096zM325.68969,183.62639c-0.49016,0 -0.92474,-0.10864 -1.30373,-0.32593c-0.37394,-0.21729 -0.66955,-0.51543 -0.88684,-0.89442c-0.21729,-0.37899 -0.32593,-0.81104 -0.32593,-1.29615c0,-0.49016 0.10864,-0.92474 0.32593,-1.30373c0.21729,-0.37899 0.5129,-0.67713 0.88684,-0.89442c0.37899,-0.21729 0.81357,-0.32593 1.30373,-0.32593c0.48006,0 0.90705,0.10864 1.28099,0.32593c0.37394,0.21729 0.66955,0.51543 0.88684,0.89442c0.21729,0.37899 0.33098,0.81357 0.34109,1.30373c0,0.48511 -0.10864,0.91716 -0.32593,1.29615c-0.21729,0.37899 -0.51543,0.67713 -0.89442,0.89442c-0.37899,0.21729 -0.80851,0.32593 -1.28857,0.32593zM325.68969,182.92905c0.33856,0 0.63923,-0.07833 0.902,-0.23497c0.26782,-0.15665 0.475,-0.37141 0.62155,-0.64429c0.14654,-0.27793 0.21981,-0.59123 0.21981,-0.9399c0,-0.34867 -0.07327,-0.66197 -0.21981,-0.9399c-0.14654,-0.27793 -0.35372,-0.49522 -0.62155,-0.65187c-0.26277,-0.15665 -0.56343,-0.23497 -0.902,-0.23497c-0.33856,0 -0.64176,0.07833 -0.90958,0.23497c-0.26277,0.15665 -0.47248,0.37394 -0.62913,0.65187c-0.1516,0.27793 -0.22739,0.59123 -0.22739,0.9399c0,0.34867 0.0758,0.66197 0.22739,0.9399c0.15665,0.27287 0.36636,0.48764 0.62913,0.64429c0.26782,0.15665 0.57101,0.23497 0.90958,0.23497z"/><path d="M334.45943,183.62639c-0.48006,0 -0.90958,-0.10864 -1.28857,-0.32593c-0.37899,-0.22234 -0.67966,-0.52301 -0.902,-0.902c-0.21729,-0.38404 -0.32593,-0.81609 -0.32593,-1.29615c0,-0.475 0.10359,-0.902 0.31077,-1.28099c0.21224,-0.38404 0.50027,-0.68471 0.8641,-0.902c0.36383,-0.22234 0.77314,-0.33351 1.22793,-0.33351c0.3891,0 0.7403,0.08338 1.0536,0.25013c0.31835,0.16676 0.58112,0.38404 0.7883,0.65187v-2.58472c0,-0.12128 0.03537,-0.21729 0.10612,-0.28803c0.07075,-0.07075 0.16423,-0.10612 0.28045,-0.10612c0.11622,0 0.20971,0.03537 0.28045,0.10612c0.0758,0.07075 0.1137,0.16676 0.1137,0.28803v4.22196c-0.01516,0.475 -0.13391,0.902 -0.35625,1.28099c-0.21729,0.37394 -0.5129,0.67208 -0.88684,0.89442c-0.37394,0.21729 -0.79588,0.32593 -1.26583,0.32593zM334.45943,182.92905c0.32846,0 0.6266,-0.07833 0.89442,-0.23497c0.26782,-0.1617 0.475,-0.37899 0.62155,-0.65187c0.1516,-0.27793 0.22739,-0.59123 0.22739,-0.9399c0,-0.34362 -0.0758,-0.65439 -0.22739,-0.93232c-0.14654,-0.27793 -0.35372,-0.49522 -0.62155,-0.65187c-0.26782,-0.15665 -0.56596,-0.23497 -0.89442,-0.23497c-0.33351,0 -0.63418,0.07833 -0.902,0.23497c-0.26277,0.15665 -0.47248,0.37394 -0.62913,0.65187c-0.15665,0.27793 -0.23497,0.5887 -0.23497,0.93232c0,0.34867 0.07833,0.66197 0.23497,0.9399c0.15665,0.27287 0.36636,0.49016 0.62913,0.65187c0.26782,0.15665 0.56849,0.23497 0.902,0.23497zM340.73526,183.62639c-0.45479,0 -0.8641,-0.10864 -1.22793,-0.32593c-0.36383,-0.22234 -0.65187,-0.52301 -0.8641,-0.902c-0.20718,-0.38404 -0.31077,-0.81357 -0.31077,-1.28857c0,-0.48006 0.10864,-0.90958 0.32593,-1.28857c0.22234,-0.38404 0.52301,-0.68471 0.902,-0.902c0.37899,-0.22234 0.80851,-0.33351 1.28857,-0.33351c0.46995,0 0.89189,0.11117 1.26583,0.33351c0.37899,0.21729 0.67713,0.51796 0.89442,0.902c0.22234,0.37899 0.33856,0.80851 0.34867,1.28857l-0.31077,0.14402c0,0.44468 -0.10107,0.84894 -0.30319,1.21277c-0.20213,0.35878 -0.47753,0.64176 -0.8262,0.84894c-0.34362,0.20718 -0.73777,0.31077 -1.18245,0.31077zM340.84896,182.92905c0.32846,0 0.6266,-0.07833 0.89442,-0.23497c0.26782,-0.15665 0.475,-0.37394 0.62155,-0.65187c0.1516,-0.27793 0.22739,-0.5887 0.22739,-0.93232c0,-0.34867 -0.0758,-0.65944 -0.22739,-0.93232c-0.14654,-0.27793 -0.35372,-0.49522 -0.62155,-0.65187c-0.26782,-0.1617 -0.56596,-0.24255 -0.89442,-0.24255c-0.33351,0 -0.63418,0.08085 -0.902,0.24255c-0.26277,0.15665 -0.47248,0.37394 -0.62913,0.65187c-0.15665,0.27287 -0.23497,0.58365 -0.23497,0.93232c0,0.34362 0.07833,0.65439 0.23497,0.93232c0.15665,0.27793 0.36636,0.49522 0.62913,0.65187c0.26782,0.15665 0.56849,0.23497 0.902,0.23497zM342.96373,183.58091c-0.11622,0 -0.20971,-0.03285 -0.28045,-0.09854c-0.07075,-0.07075 -0.10612,-0.16423 -0.10612,-0.28045v-1.49323l0.17434,-0.79588l0.60639,0.19708v2.09203c0,0.11622 -0.0379,0.20971 -0.1137,0.28045c-0.0758,0.06569 -0.16928,0.09854 -0.28045,0.09854zM348.93773,183.58091c-0.11622,0 -0.20971,-0.03537 -0.28045,-0.10612c-0.07075,-0.0758 -0.10612,-0.16676 -0.10612,-0.27287v-2.31185c0,-0.36383 -0.07075,-0.66197 -0.21224,-0.89442c-0.13644,-0.23245 -0.32088,-0.40678 -0.55333,-0.52301c-0.23245,-0.11622 -0.50027,-0.17434 -0.80346,-0.17434c-0.27793,0 -0.53312,0.05559 -0.76556,0.16676c-0.22739,0.10612 -0.40678,0.25519 -0.53817,0.44721c-0.13138,0.18697 -0.19708,0.40426 -0.19708,0.65187h-0.51543c0.00505,-0.37899 0.10107,-0.71756 0.28803,-1.0157c0.19202,-0.29814 0.44721,-0.53312 0.76556,-0.70492c0.32341,-0.17686 0.67966,-0.26529 1.06876,-0.26529c0.42952,0 0.81104,0.08843 1.14455,0.26529c0.33856,0.17686 0.60386,0.4371 0.79588,0.78072c0.19202,0.34362 0.28803,0.76556 0.28803,1.26583v2.31185c0,0.10612 -0.03537,0.19708 -0.10612,0.27287c-0.07075,0.07075 -0.1617,0.10612 -0.27287,0.10612zM345.10234,183.58091c-0.11622,0 -0.21224,-0.03285 -0.28803,-0.09854c-0.07075,-0.07075 -0.10612,-0.16423 -0.10612,-0.28045v-4.18406c0,-0.12128 0.03537,-0.21476 0.10612,-0.28045c0.0758,-0.07075 0.17181,-0.10612 0.28803,-0.10612c0.11117,0 0.20213,0.03537 0.27287,0.10612c0.07075,0.06569 0.10612,0.15918 0.10612,0.28045v4.18406c0,0.11622 -0.03537,0.20971 -0.10612,0.28045c-0.07075,0.06569 -0.1617,0.09854 -0.27287,0.09854zM353.07424,183.62639c-0.475,0 -0.89947,-0.10864 -1.27341,-0.32593c-0.37394,-0.22234 -0.66955,-0.52301 -0.88684,-0.902c-0.21224,-0.38404 -0.31835,-0.81357 -0.31835,-1.28857c0,-0.48006 0.10359,-0.90958 0.31077,-1.28857c0.20718,-0.38404 0.49016,-0.68471 0.84894,-0.902c0.35878,-0.22234 0.77314,-0.33351 1.24309,-0.33351c0.36383,0 0.69987,0.07075 1.00812,0.21224c0.30825,0.14149 0.57859,0.35372 0.81104,0.63671c0.0758,0.08591 0.10107,0.17181 0.0758,0.25771c-0.02021,0.08591 -0.0758,0.16423 -0.16676,0.23497c-0.07075,0.05053 -0.1516,0.06822 -0.24255,0.05306c-0.09096,-0.02021 -0.16928,-0.06822 -0.23497,-0.14402c-0.32846,-0.36888 -0.74535,-0.55333 -1.25067,-0.55333c-0.32341,0 -0.61144,0.07833 -0.8641,0.23497c-0.24761,0.15665 -0.44216,0.37141 -0.58365,0.64429c-0.13644,0.26782 -0.20466,0.58365 -0.20466,0.94748c0,0.34867 0.07075,0.66197 0.21224,0.9399c0.14654,0.27287 0.3512,0.48764 0.61397,0.64429c0.26277,0.15665 0.56343,0.23497 0.902,0.23497c0.22739,0 0.43205,-0.03032 0.61397,-0.09096c0.18697,-0.06064 0.35372,-0.1516 0.50027,-0.27287c0.0758,-0.06569 0.15665,-0.10107 0.24255,-0.10612c0.09096,-0.01011 0.17181,0.01263 0.24255,0.06822c0.08085,0.0758 0.12633,0.15918 0.13644,0.25013c0.01516,0.09096 -0.01516,0.17181 -0.09096,0.24255c-0.43963,0.40426 -0.9879,0.60639 -1.64482,0.60639zM358.53938,183.62639c-0.49522,0 -0.93232,-0.10612 -1.31131,-0.31835c-0.37899,-0.21729 -0.67713,-0.51543 -0.89442,-0.89442c-0.21729,-0.37899 -0.32593,-0.81357 -0.32593,-1.30373c0,-0.49522 0.10107,-0.92979 0.30319,-1.30373c0.20718,-0.37899 0.49016,-0.67713 0.84894,-0.89442c0.35878,-0.21729 0.77314,-0.32593 1.24309,-0.32593c0.4649,0 0.86663,0.10359 1.20519,0.31077c0.33856,0.20718 0.59881,0.49522 0.78072,0.8641c0.18697,0.36888 0.28045,0.7883 0.28045,1.25825c0,0.10107 -0.03537,0.18444 -0.10612,0.25013c-0.06569,0.06064 -0.14907,0.09096 -0.25013,0.09096h-3.78233v-0.62155h3.82023l-0.37899,0.27287c0,-0.33351 -0.06317,-0.63165 -0.1895,-0.89442c-0.12633,-0.26782 -0.30572,-0.47753 -0.53817,-0.62913c-0.23245,-0.1516 -0.5129,-0.22739 -0.84136,-0.22739c-0.34362,0 -0.64176,0.08085 -0.89442,0.24255c-0.25266,0.1617 -0.44974,0.38152 -0.59123,0.65944c-0.13644,0.27793 -0.20466,0.59375 -0.20466,0.94748c0,0.35372 0.07833,0.66955 0.23497,0.94748c0.15665,0.27287 0.37141,0.49016 0.64429,0.65187c0.27793,0.15665 0.59375,0.23497 0.94748,0.23497c0.20718,0 0.41689,-0.03537 0.62913,-0.10612c0.21729,-0.07075 0.3891,-0.1617 0.51543,-0.27287c0.07075,-0.06064 0.1516,-0.09096 0.24255,-0.09096c0.09601,-0.00505 0.17686,0.02021 0.24255,0.0758c0.08591,0.0758 0.12886,0.1617 0.12886,0.25771c0.00505,0.09096 -0.03285,0.17181 -0.1137,0.24255c-0.20213,0.16676 -0.45732,0.30572 -0.76556,0.41689c-0.30319,0.10612 -0.59628,0.15918 -0.87926,0.15918zM362.04508,181.95125c-0.11117,0 -0.20466,-0.0379 -0.28045,-0.1137c-0.0758,-0.0758 -0.1137,-0.16676 -0.1137,-0.27287v-4.66159c0,-0.11117 0.0379,-0.20466 0.1137,-0.28045c0.0758,-0.08085 0.16928,-0.12128 0.28045,-0.12128c0.10612,0 0.19708,0.04043 0.27287,0.12128c0.0758,0.0758 0.1137,0.16928 0.1137,0.28045v4.66159c0,0.10612 -0.04043,0.19708 -0.12128,0.27287c-0.08085,0.0758 -0.16928,0.1137 -0.26529,0.1137zM362.04508,183.58091c-0.15665,0 -0.29056,-0.05306 -0.40173,-0.15918c-0.10612,-0.11117 -0.15918,-0.24508 -0.15918,-0.40173c0,-0.15665 0.05306,-0.28803 0.15918,-0.39415c0.11117,-0.11117 0.24508,-0.16676 0.40173,-0.16676c0.1516,0 0.28045,0.05559 0.38657,0.16676c0.11117,0.11117 0.16676,0.24255 0.16676,0.39415c0,0.15665 -0.05559,0.29056 -0.16676,0.40173c-0.10612,0.10612 -0.23497,0.15918 -0.38657,0.15918z"/></g><path d="M61.91527,204.5v-59h356v59z" fill="none" stroke="none" stroke-width="0" stroke-linecap="butt"/></g></g></svg>