<svg version="1.1" xmlns="http://www.w3.org/2000/svg" xmlns:xlink="http://www.w3.org/1999/xlink" width="190.83335" height="190.83335" viewBox="0,0,190.83335,190.83335"><defs><radialGradient cx="240" cy="180" r="51.09034" gradientUnits="userSpaceOnUse" id="color-1"><stop offset="0" stop-color="#5d78ff"/><stop offset="1" stop-color="#5d78ff" stop-opacity="0"/></radialGradient><radialGradient cx="240" cy="180" r="51.09034" gradientUnits="userSpaceOnUse" id="color-2"><stop offset="0" stop-color="#94fffd" stop-opacity="0"/><stop offset="1" stop-color="#94fffd" stop-opacity="0"/></radialGradient><radialGradient cx="240" cy="180" r="65.4595" gradientUnits="userSpaceOnUse" id="color-3"><stop offset="0" stop-color="#4a5fff"/><stop offset="1" stop-color="#4a5fff" stop-opacity="0"/></radialGradient><radialGradient cx="240" cy="180" r="65.4595" gradientUnits="userSpaceOnUse" id="color-4"><stop offset="0" stop-color="#4a5fff"/><stop offset="1" stop-color="#4a5fff" stop-opacity="0"/></radialGradient><radialGradient cx="240" cy="180" r="65.4595" gradientUnits="userSpaceOnUse" id="color-5"><stop offset="0" stop-color="#4a5fff"/><stop offset="1" stop-color="#4a5fff" stop-opacity="0"/></radialGradient><radialGradient cx="240.00001" cy="180.00001" r="85.41667" gradientUnits="userSpaceOnUse" id="color-6"><stop offset="0" stop-color="#4a5fff"/><stop offset="1" stop-color="#4a5fff" stop-opacity="0"/></radialGradient><radialGradient cx="240" cy="180" r="85.41667" gradientUnits="userSpaceOnUse" id="color-7"><stop offset="0" stop-color="#4a5fff"/><stop offset="1" stop-color="#4a5fff" stop-opacity="0"/></radialGradient><radialGradient cx="240" cy="180" r="85.41667" gradientUnits="userSpaceOnUse" id="color-8"><stop offset="0" stop-color="#4a5fff"/><stop offset="1" stop-color="#4a5fff" stop-opacity="0"/></radialGradient></defs><g transform="translate(-144.58333,-84.58333)"><g data-paper-data="{&quot;isPaintingLayer&quot;:true}" fill-rule="nonzero" stroke-linejoin="miter" stroke-miterlimit="10" stroke-dasharray="" stroke-dashoffset="0" style="mix-blend-mode: normal"><path d="M188.90966,180c0,-28.21642 22.87392,-51.09034 51.09034,-51.09034c28.21642,0 51.09034,22.87392 51.09034,51.09034c0,28.21642 -22.87392,51.09034 -51.09034,51.09034c-28.21642,0 -51.09034,-22.87392 -51.09034,-51.09034z" fill="url(#color-1)" stroke="url(#color-2)" stroke-width="0" stroke-linecap="butt"/><path d="M174.5405,180c0,-36.15228 29.30722,-65.4595 65.4595,-65.4595c36.15228,0 65.4595,29.30722 65.4595,65.4595c0,36.15228 -29.30722,65.4595 -65.4595,65.4595c-36.15228,0 -65.4595,-29.30722 -65.4595,-65.4595z" fill="none" stroke="url(#color-3)" stroke-width="20" stroke-linecap="butt"/><path d="M174.5405,180c0,-36.15228 29.30722,-65.4595 65.4595,-65.4595c36.15228,0 65.4595,29.30722 65.4595,65.4595c0,36.15228 -29.30722,65.4595 -65.4595,65.4595c-36.15228,0 -65.4595,-29.30722 -65.4595,-65.4595z" fill="none" stroke="url(#color-4)" stroke-width="20" stroke-linecap="butt"/><path d="M174.5405,180c0,-36.15228 29.30722,-65.4595 65.4595,-65.4595c36.15228,0 65.4595,29.30722 65.4595,65.4595c0,36.15228 -29.30722,65.4595 -65.4595,65.4595c-36.15228,0 -65.4595,-29.30722 -65.4595,-65.4595z" fill="none" stroke="url(#color-5)" stroke-width="20" stroke-linecap="butt"/><path d="M154.58334,180.00001c0,-47.17432 38.24235,-85.41667 85.41667,-85.41667c47.17432,0 85.41667,38.24235 85.41667,85.41667c0,47.17432 -38.24235,85.41667 -85.41667,85.41667c-47.17432,0 -85.41667,-38.24235 -85.41667,-85.41667z" fill="none" stroke="url(#color-6)" stroke-width="20" stroke-linecap="butt"/><path d="M154.58333,180c0,-47.17432 38.24235,-85.41667 85.41667,-85.41667c47.17432,0 85.41667,38.24235 85.41667,85.41667c0,47.17432 -38.24235,85.41667 -85.41667,85.41667c-47.17432,0 -85.41667,-38.24235 -85.41667,-85.41667z" fill="none" stroke="url(#color-7)" stroke-width="20" stroke-linecap="butt"/><path d="M154.58333,180c0,-47.17432 38.24235,-85.41667 85.41667,-85.41667c47.17432,0 85.41667,38.24235 85.41667,85.41667c0,47.17432 -38.24235,85.41667 -85.41667,85.41667c-47.17432,0 -85.41667,-38.24235 -85.41667,-85.41667z" fill="none" stroke="url(#color-8)" stroke-width="20" stroke-linecap="butt"/><path d="M171.43697,180c0,-37.86632 30.69671,-68.56303 68.56303,-68.56303c37.86632,0 68.56303,30.69671 68.56303,68.56303c0,37.86632 -30.69671,68.56303 -68.56303,68.56303c-37.86632,0 -68.56303,-30.69671 -68.56303,-68.56303z" fill="none" stroke="#ffffff" stroke-width="1.5" stroke-linecap="butt"/><path d="M175.19236,158.49128l128.89166,0.6365l-103.11333,76.38024l38.50837,-123.48138l40.41788,124.11789z" fill="none" stroke="#ffffff" stroke-width="1.5" stroke-linecap="round"/><path d="M183.95787,153.35606c8.87227,-18.62841 26.75905,-32.13579 48.01914,-34.88094" fill="none" stroke="#ffffff" stroke-width="1.5" stroke-linecap="butt"/><path d="M248.23428,118.50277c21.08998,2.79684 38.83496,16.18831 47.71062,34.65008" fill="none" stroke="#ffffff" stroke-width="1.5" stroke-linecap="butt"/><path d="M300.84788,167.84116c0.78129,3.93183 1.19101,7.99748 1.19101,12.15884c0,4.0243 -0.38317,7.9591 -1.11502,11.76991" fill="none" stroke="#ffffff" stroke-width="1.5" stroke-linecap="butt"/><path d="M300.21985,194.97344c-0.20353,0.82126 -0.42342,1.63605 -0.65931,2.44403" fill="none" stroke="#ffffff" stroke-width="1.5" stroke-linecap="butt"/><path d="M298.60044,200.41837c-0.23718,0.68077 -0.48589,1.35614 -0.74589,2.02588" fill="none" stroke="#ffffff" stroke-width="1.5" stroke-linecap="butt"/><path d="M296.73628,205.1345c-3.36973,7.59525 -8.21986,14.38782 -14.1842,20.01154" fill="none" stroke="#ffffff" stroke-width="1.5" stroke-linecap="butt"/><path d="M270.23849,234.18342c-6.46453,3.61544 -13.64257,6.10751 -21.26985,7.21195l-9.80783,-7.16036l-9.05825,7.01867c-7.51993,-1.20564 -14.58835,-3.76276 -20.94828,-7.41437" fill="none" stroke="#ffffff" stroke-width="1.5" stroke-linecap="butt"/><path d="M199.61941,227.09957c-13.25881,-11.37795 -21.65829,-28.25786 -21.65829,-47.09957c0,-4.34862 0.44742,-8.59275 1.29874,-12.68885" fill="none" stroke="#ffffff" stroke-width="1.5" stroke-linecap="butt"/><path d="M204.7897,133.0312l-4.13726,-5.72852" fill="none" stroke="#ffffff" stroke-width="1.5" stroke-linecap="round"/><path d="M278.30568,127.62093l-3.18251,4.13726" fill="none" stroke="#ffffff" stroke-width="1.5" stroke-linecap="round"/><path d="M281.48819,130.48519l-4.13726,3.81901" fill="none" stroke="#ffffff" stroke-width="1.5" stroke-linecap="round"/><path d="M189.19542,206.22893l-3.18251,-1.90951l0.6365,-3.81901l-2.54601,-3.18251l0.6365,-2.54601l-1.90951,-2.22776l0.6365,-2.54601" fill="none" stroke="#ffffff" stroke-width="1.5" stroke-linecap="round"/></g></g></svg>