<svg version="1.1" xmlns="http://www.w3.org/2000/svg" xmlns:xlink="http://www.w3.org/1999/xlink" width="22.35419" height="22.35419" viewBox="0,0,22.35419,22.35419"><defs><radialGradient cx="240" cy="180" r="6.31139" gradientUnits="userSpaceOnUse" id="color-1"><stop offset="0" stop-color="#a430ff"/><stop offset="1" stop-color="#a430ff" stop-opacity="0"/></radialGradient><radialGradient cx="240" cy="180" r="6.31139" gradientUnits="userSpaceOnUse" id="color-2"><stop offset="0" stop-color="#a430ff"/><stop offset="1" stop-color="#a430ff" stop-opacity="0"/></radialGradient><radialGradient cx="240" cy="180" r="6.31139" gradientUnits="userSpaceOnUse" id="color-3"><stop offset="0" stop-color="#a430ff"/><stop offset="1" stop-color="#a430ff" stop-opacity="0"/></radialGradient></defs><g transform="translate(-229.81772,-167.71754)"><g data-paper-data="{&quot;isPaintingLayer&quot;:true}" fill-rule="nonzero" stroke-width="0" stroke-linecap="butt" stroke-linejoin="miter" stroke-miterlimit="10" stroke-dasharray="" stroke-dashoffset="0" style="mix-blend-mode: normal"><path d="M233.68861,180c0,-3.48569 2.82571,-6.31139 6.31139,-6.31139c3.48569,0 6.31139,2.82571 6.31139,6.31139c0,3.48569 -2.82571,6.31139 -6.31139,6.31139c-3.48569,0 -6.31139,-2.82571 -6.31139,-6.31139z" fill="url(#color-1)" stroke="none"/><path d="M233.68861,180c0,-3.48569 2.82571,-6.31139 6.31139,-6.31139c3.48569,0 6.31139,2.82571 6.31139,6.31139c0,3.48569 -2.82571,6.31139 -6.31139,6.31139c-3.48569,0 -6.31139,-2.82571 -6.31139,-6.31139z" fill="url(#color-2)" stroke="none"/><path d="M233.68861,180c0,-3.48569 2.82571,-6.31139 6.31139,-6.31139c3.48569,0 6.31139,2.82571 6.31139,6.31139c0,3.48569 -2.82571,6.31139 -6.31139,6.31139c-3.48569,0 -6.31139,-2.82571 -6.31139,-6.31139z" fill="url(#color-3)" stroke="none"/><path d="M235.40038,180c0,-2.5403 2.05932,-4.59962 4.59962,-4.59962c2.5403,0 4.59962,2.05932 4.59962,4.59962c0,2.5403 -2.05932,4.59962 -4.59962,4.59962c-2.5403,0 -4.59962,-2.05932 -4.59962,-4.59962z" fill="#ffffff" stroke="#bf7cff"/><path d="M229.81772,190.07173v-22.35419h22.35419v22.35419z" fill="none" stroke="none"/></g></g></svg>