<svg version="1.1" xmlns="http://www.w3.org/2000/svg" xmlns:xlink="http://www.w3.org/1999/xlink" width="65.4" height="65.4" viewBox="0,0,65.4,65.4"><g transform="translate(-207.1,-147.7)"><g data-paper-data="{&quot;isPaintingLayer&quot;:true}" fill-rule="nonzero" stroke-linejoin="miter" stroke-miterlimit="10" stroke-dasharray="" stroke-dashoffset="0" style="mix-blend-mode: normal"><path d="M239.84627,195.14667c-1.38376,-0.01949 -1.52182,-0.48956 -2.48623,-1.48171c-2.89325,-2.97646 -6.85303,-7.05013 -11.23932,-11.56258c-0.90571,-0.93176 -1.3195,-1.07442 -1.26021,-2.37248c0.05929,-1.29806 0.48984,-1.52209 1.48218,-2.48668c4.44248,-4.31828 8.51863,-8.28047 11.38331,-11.06507c0.95489,-0.9282 1.10212,-1.39135 2.43176,-1.31784c1.32965,0.07351 1.58947,0.55916 2.59718,1.59586c4.25028,4.37253 7.89557,8.12265 10.89082,11.20405c0.99841,1.02713 1.46589,1.1848 1.49777,2.61687c0.03188,1.43207 -0.43135,1.46523 -1.38625,2.39343c-0.95489,0.9282 -8.40631,8.17129 -11.38331,11.06507c-0.99234,0.9646 -1.14394,1.43058 -2.5277,1.41109z" fill="#151723" stroke="#ffffff" stroke-width="1" stroke-linecap="butt"/><path d="M239.84626,194.89024c-1.38376,-0.01949 -1.52182,-0.48956 -2.48623,-1.48171c-2.89325,-2.97646 -6.85303,-7.05013 -11.23932,-11.56258c-0.90571,-0.93176 -1.3195,-1.07442 -1.26021,-2.37248c0.05929,-1.29806 0.48984,-1.52209 1.48218,-2.48668c4.44248,-4.31828 8.51863,-8.28047 11.38331,-11.06507c0.95489,-0.9282 1.10212,-1.39135 2.43176,-1.31784c1.32965,0.07351 1.58947,0.55916 2.59718,1.59586c4.25028,4.37253 7.89557,8.12265 10.89082,11.20405c0.99841,1.02713 1.46589,1.1848 1.49777,2.61687c0.03188,1.43207 -0.43135,1.46523 -1.38625,2.39343c-0.95489,0.9282 -8.40631,8.17129 -11.38331,11.06507c-0.99234,0.9646 -1.14394,1.43058 -2.5277,1.41109z" fill="none" stroke="#ffffff" stroke-width="1" stroke-linecap="butt"/><path d="M207.1,213.1v-65.4h65.4v65.4z" fill="none" stroke="none" stroke-width="0" stroke-linecap="butt"/><g stroke-width="2"><path d="M244.42607,177.10559l-2.61791,1.83877c-0.77552,-1.2647 -1.46763,-2.64102 -2.12612,-4.01678l1.38488,-1.55057l10.16561,-5.6112z" fill="#ffffff" stroke="#eeeeee" stroke-linecap="butt"/><path d="M235.07329,185.88558l-2.37312,-1.19885l2.55548,-7.26742c1.10786,0.9938 2.24508,1.97158 3.41474,2.82442z" fill="#ffffff" stroke="#eeeeee" stroke-linecap="butt"/><path d="M234.03655,185.34341l3.07661,-6.31501" fill="none" stroke="#eeeeee" stroke-linecap="round"/><path d="M240.80742,177.17958l10.21055,-9.07465" fill="none" stroke="#eeeeee" stroke-linecap="round"/><path d="M228.76747,184.91183l0.7002,-1.37981l4.42613,1.65881l3.69936,2.46462l-0.70021,1.37981l-4.11544,-1.43078z" fill="#dec100" stroke="#fce33f" stroke-linecap="butt"/><path d="M229.653,191.14498l2.10061,-4.1394l2.14637,1.08921l-2.10061,4.13939z" fill="#dec100" stroke="#fce33f" stroke-linecap="butt"/></g><path d="M235.62824,174.99025l-3.38462,-1" fill="none" stroke="#ff8b32" stroke-width="2" stroke-linecap="round"/><path d="M234.62824,170.37487l1.92308,2.69231" fill="none" stroke="#ff8b32" stroke-width="2" stroke-linecap="round"/><path d="M239.24362,171.52871v-2.23077" fill="none" stroke="#ff8b32" stroke-width="2" stroke-linecap="round"/><path d="M240.1667,182.45179l0.15385,2.53846" fill="none" stroke="#ff8b32" stroke-width="2" stroke-linecap="round"/><path d="M243.39747,183.52871l-1.23077,-1.61538" fill="none" stroke="#ff8b32" stroke-width="2" stroke-linecap="round"/><path d="M244.39747,179.99025l2.38462,1.30769" fill="none" stroke="#ff8b32" stroke-width="2" stroke-linecap="round"/><g stroke="#7d00ff" stroke-width="1.25"><path d="M247.70083,192.91342l-4.54918,-8.82066c0,0 0.63531,-1.36254 1.80334,-2.44116c0.92204,-0.85146 2.34248,-1.38727 2.89304,-1.8957c0.82722,-0.76389 2.06326,-1.9053 2.06326,-1.9053c0,0 0.65468,0.31 0.95319,0.64586c0.29851,0.33587 0.0272,0.34947 0.70688,1.22198c0.12724,0.16332 0.92891,0.33471 1.07709,0.51157c0.3051,0.36412 -0.01421,0.75143 0.34083,1.13929c0.21333,0.23305 0.72538,0.25681 0.94163,0.49913c0.33467,0.37506 0.3716,0.96549 0.67859,1.27846c0.33539,0.34193 0.78889,0.19609 1.03868,0.43051c0.39801,0.37352 0.43167,1.32726 0.43167,1.32726l-0.65714,0.43681c0,0 -2.10715,6.34507 -4.57166,7.62275c-1.17773,0.61058 -3.15021,-0.05083 -3.15021,-0.05083z" fill="#dab2ff" stroke-linecap="butt"/><path d="M251.1615,180.04548l-1.61936,1.61936l1.9138,1.9138l-1.54576,1.54576l-2.35544,-1.32493" fill="#dab2ff" stroke-linecap="round"/><path d="M251.08789,183.06339l1.43535,-1.43535" fill="#dab2ff" stroke-linecap="round"/><path d="M251.88566,186.05746l2.29375,-2.69965" fill="#dab2ff" stroke-linecap="round"/><path d="M247.77556,179.82466l2.02422,2.02422" fill="#dab2ff" stroke-linecap="round"/><path d="M255.94598,184.90358l-2.79708,2.64988l-2.50266,-2.35544" fill="none" stroke-linecap="round"/><path d="M252.63075,191.11221v4.68527h-5.8886v-4.71088" fill="#dab2ff" stroke-linecap="round"/></g></g></g></svg>