<svg version="1.1" xmlns="http://www.w3.org/2000/svg" xmlns:xlink="http://www.w3.org/1999/xlink" width="65.6" height="65.8" viewBox="0,0,65.6,65.8"><defs><linearGradient x1="255.99987" y1="12.20183" x2="255.99987" y2="273.16925" gradientUnits="userSpaceOnUse" id="color-1"><stop offset="0" stop-color="#96b2ff"/><stop offset="1" stop-color="#96b2ff" stop-opacity="0"/></linearGradient><radialGradient cx="240" cy="180" r="10.78079" gradientUnits="userSpaceOnUse" id="color-2"><stop offset="0" stop-color="#ff0000"/><stop offset="1" stop-color="#ff0000" stop-opacity="0"/></radialGradient></defs><g transform="translate(-207.1,-147.3)"><g data-paper-data="{&quot;isPaintingLayer&quot;:true}" fill-rule="nonzero" stroke-linejoin="miter" stroke-miterlimit="10" stroke-dasharray="" stroke-dashoffset="0" style="mix-blend-mode: normal"><path d="M239.84627,195.14667c-1.38376,-0.01949 -1.52182,-0.48956 -2.48623,-1.48171c-2.89325,-2.97646 -6.85303,-7.05013 -11.23932,-11.56258c-0.90571,-0.93176 -1.3195,-1.07442 -1.26021,-2.37248c0.05929,-1.29806 0.48984,-1.52209 1.48218,-2.48668c4.44248,-4.31828 8.51863,-8.28047 11.38331,-11.06507c0.95489,-0.9282 1.10212,-1.39135 2.43176,-1.31784c1.32965,0.07351 1.58947,0.55916 2.59718,1.59586c4.25028,4.37253 7.89557,8.12265 10.89082,11.20405c0.99841,1.02713 1.46589,1.1848 1.49777,2.61687c0.03188,1.43207 -0.43135,1.46523 -1.38625,2.39343c-0.95489,0.9282 -8.40631,8.17129 -11.38331,11.06507c-0.99234,0.9646 -1.14394,1.43058 -2.5277,1.41109z" fill="#151723" stroke="#ffffff" stroke-width="1" stroke-linecap="butt"/><path d="M239.84626,194.89024c-1.38376,-0.01949 -1.52182,-0.48956 -2.48623,-1.48171c-2.89325,-2.97646 -6.85303,-7.05013 -11.23932,-11.56258c-0.90571,-0.93176 -1.3195,-1.07442 -1.26021,-2.37248c0.05929,-1.29806 0.48984,-1.52209 1.48218,-2.48668c4.44248,-4.31828 8.51863,-8.28047 11.38331,-11.06507c0.95489,-0.9282 1.10212,-1.39135 2.43176,-1.31784c1.32965,0.07351 1.58947,0.55916 2.59718,1.59586c4.25028,4.37253 7.89557,8.12265 10.89082,11.20405c0.99841,1.02713 1.46589,1.1848 1.49777,2.61687c0.03188,1.43207 -0.43135,1.46523 -1.38625,2.39343c-0.95489,0.9282 -8.40631,8.17129 -11.38331,11.06507c-0.99234,0.9646 -1.14394,1.43058 -2.5277,1.41109z" fill="none" stroke="#ffffff" stroke-width="1" stroke-linecap="butt"/><path d="M207.1,213.1v-65.4h65.4v65.4z" fill="none" stroke="none" stroke-width="0" stroke-linecap="butt"/><path d="M239.84626,195.14667c-1.38376,-0.01949 -1.52182,-0.48956 -2.48623,-1.48171c-2.89325,-2.97646 -6.85303,-7.05013 -11.23932,-11.56258c-0.90571,-0.93176 -1.3195,-1.07442 -1.26021,-2.37248c0.05929,-1.29806 0.48984,-1.52209 1.48218,-2.48668c4.44248,-4.31828 8.51863,-8.28047 11.38331,-11.06507c0.95489,-0.9282 1.10212,-1.39135 2.43176,-1.31784c1.32965,0.07351 1.58947,0.55916 2.59718,1.59586c4.25028,4.37253 7.89557,8.12265 10.89082,11.20405c0.99841,1.02713 1.46589,1.1848 1.49777,2.61687c0.03188,1.43207 -0.43135,1.46523 -1.38625,2.39343c-0.95489,0.9282 -8.40631,8.17129 -11.38331,11.06507c-0.99234,0.9646 -1.14394,1.43058 -2.5277,1.41109z" fill="none" stroke="#ffffff" stroke-width="1" stroke-linecap="butt"/><path d="M207.3,212.7v-65.4h65.4v65.4z" fill="none" stroke="none" stroke-width="0" stroke-linecap="butt"/><path d="M227.26374,179.43862c0.08028,-7.00985 5.33346,-12.27555 12.42613,-12.12127c7.09267,0.15427 13.13117,5.28513 13.04653,12.67532c-0.08464,7.39019 -5.80949,12.85343 -13.33701,12.68969c-7.52752,-0.16373 -12.21593,-6.2339 -12.13565,-13.24375z" fill="url(#color-1)" stroke="#ffffff" stroke-width="1.5" stroke-linecap="butt"/><path d="M229.21921,180c0,-5.95407 4.82673,-10.78079 10.78079,-10.78079c5.95407,0 10.78079,4.82673 10.78079,10.78079c0,5.95407 -4.82673,10.78079 -10.78079,10.78079c-5.95407,0 -10.78079,-4.82673 -10.78079,-10.78079z" fill="url(#color-2)" stroke="#8719ff" stroke-width="0" stroke-linecap="butt"/><path d="M218.02035,201.97965v-43.95931h43.95931v43.95931z" fill="none" stroke="none" stroke-width="NaN" stroke-linecap="butt"/><path d="M227.36904,180.00001c0,-6.97589 5.65507,-12.63096 12.63096,-12.63096c6.97589,0 12.63096,5.65507 12.63096,12.63096c0,6.97589 -5.65507,12.63096 -12.63096,12.63096c-6.97589,0 -12.63096,-5.65507 -12.63096,-12.63096z" fill="none" stroke="#ffffff" stroke-width="1" stroke-linecap="butt"/><path d="M242.97766,178.33016c0.57126,-0.88563 0.17527,-2.43581 0.17527,-2.43581c0,0 1.9048,0.85085 2.53412,3.80778c0.46971,2.20699 0.31836,4.10355 -1.17399,6.16961c-0.6322,1.144 -3.49896,1.92843 -5.20861,1.89941c-1.62827,-0.02889 -3.92837,-1.24226 -4.65814,-2.20311c-1.20086,-1.81124 -0.87581,-1.28848 -1.36394,-3.40613c-0.4918,-2.13357 1.59834,-6.22168 1.59834,-6.22168c0,0 0.06423,0.95406 0.32503,1.48835c0.2608,0.53428 0.88487,0.99029 0.88487,0.99029c0,0 0.0041,0.34678 0.09253,-0.08516c0.24254,-1.18471 -0.00268,-2.17154 1.59886,-4.54777c1.75818,-2.60863 4.20237,-2.72683 4.20237,-2.72683c0,0 -1.24678,2.56094 -1.0159,4.25094c0.23087,1.69 2.0092,3.02013 2.0092,3.02013z" fill="#ff9400" stroke="#ff2222" stroke-width="1.5" stroke-linecap="round"/><path d="M240.80997,181.84571c0,0 0.5202,0.30427 0.83422,-0.18255c0.33649,-0.52167 0.10324,-1.43478 0.10324,-1.43478c0,0 0.79665,0.01316 1.16734,1.75491c0.27668,1.3 0.51287,2.90516 -0.36618,4.12215c-0.37239,0.67386 -2.06101,1.13591 -3.06807,1.11882c-0.95911,-0.01701 -2.31395,-0.73174 -2.74382,-1.29771c-0.46884,-0.70715 -0.58961,-1.6046 -0.33737,-2.41469c0.0356,-0.1156 0.422,-1.89041 0.28632,-2.47908c-0.28969,-1.25675 -0.52257,-1.42806 -0.52257,-1.42806c0,0 0.58295,-0.44194 1.35049,-0.01801c0.56589,0.31256 0.80589,1.03067 0.80589,1.03067c0,0 0.62765,-1.2313 1.30131,-1.75294c0.67365,-0.52164 1.56268,-0.48594 1.56268,-0.48594c0,0 -0.49022,1.43336 -0.60077,2.07505c-0.09044,0.52497 0.22728,1.39217 0.22728,1.39217z" fill="#ffed1d" stroke="#ff2222" stroke-width="0" stroke-linecap="round"/><path d="M240.18123,184.07747c0,0 0.27148,0.15879 0.43535,-0.09527c0.1756,-0.27224 0.05388,-0.74877 0.05388,-0.74877c0,0 0.41575,0.00687 0.6092,0.91584c0.14439,0.67843 0.26765,1.51612 -0.1911,2.15123c-0.19434,0.35166 -1.07559,0.59281 -1.60114,0.58388c-0.50053,-0.00888 -1.20759,-0.38188 -1.43192,-0.67724c-0.24468,-0.36904 -0.3077,-0.83739 -0.17606,-1.26016c0.01858,-0.06033 0.22023,-0.98655 0.14942,-1.29376c-0.15118,-0.65586 -0.27271,-0.74526 -0.27271,-0.74526c0,0 0.30422,-0.23064 0.70478,-0.0094c0.29532,0.16311 0.42057,0.53787 0.42057,0.53787c0,0 0.32756,-0.64258 0.67912,-0.91481c0.35156,-0.27223 0.81552,-0.2536 0.81552,-0.2536c0,0 -0.25584,0.74803 -0.31352,1.08291c-0.0472,0.27397 0.11861,0.72653 0.11861,0.72653z" fill="#ffffff" stroke="#ff2222" stroke-width="0" stroke-linecap="round"/><path d="M243.27712,187.97522c0,-3.36894 2.73106,-6.1 6.1,-6.1c3.36894,0 6.1,2.73106 6.1,6.1c0,3.36894 -2.73106,6.1 -6.1,6.1c-3.36894,0 -6.1,-2.73106 -6.1,-6.1z" fill="#66f7ff" stroke="#336aff" stroke-width="1.5" stroke-linecap="butt"/><path d="M251.67712,188.37522h-2.5v-4" fill="none" stroke="#336aff" stroke-width="1.5" stroke-linecap="round"/></g></g></svg>