<svg version="1.1" xmlns="http://www.w3.org/2000/svg" xmlns:xlink="http://www.w3.org/1999/xlink" width="120.25" height="120.25" viewBox="0,0,120.25,120.25"><defs><radialGradient cx="240" cy="180.16119" r="111.53398" gradientUnits="userSpaceOnUse" id="color-1"><stop offset="0" stop-color="#00f5ff" stop-opacity="0"/><stop offset="1" stop-color="#00f5ff"/></radialGradient></defs><g transform="translate(-179.875,-119.875)"><g data-paper-data="{&quot;isPaintingLayer&quot;:true}" fill-rule="nonzero" stroke-linejoin="miter" stroke-miterlimit="10" stroke-dasharray="" stroke-dashoffset="0" style="mix-blend-mode: normal"><path d="M227.37755,192.62255v-25.24505h25.24505v25.24505z" fill="none" stroke="none" stroke-width="0" stroke-linecap="butt"/><path d="M247.11153,188.56418c-0.47758,0.13733 -2.53512,-1.05797 -3.07338,-1.02394c-1.74746,0.11044 -1.71731,0.43296 -3.51936,0.58654c-0.39518,0.03367 -0.70877,0.02327 -0.96946,-0.01446c-0.9807,-0.14193 -1.21338,-0.67048 -2.22828,-0.69354c-0.94363,-0.02144 -1.77079,1.28481 -2.83041,1.12049c-3.58794,-0.55641 4.91812,-7.65557 4.91812,-7.65557z" fill="#1f374e" stroke="none" stroke-width="0" stroke-linecap="butt"/><path d="M245.13587,175.26922c1.07509,5.0859 0.48926,8.69278 3.70952,12.77348c1.0882,1.37896 -6.93072,2.16523 -7.20118,2.32824c-0.63776,0.38442 -0.75123,-2.86312 -1.23698,-4.79905c-0.48574,-1.93594 -0.8797,-3.63694 -0.8797,-3.63694c0,0 0.00032,2.17832 -0.30964,3.49148c-0.30998,1.31316 -0.31831,4.18504 -1.07159,4.73067c-1.06434,0.77093 -7.87117,-0.30198 -7.35355,-1.50997c2.20696,-5.15036 2.56402,-8.40024 3.4397,-13.93468c0.47848,-3.02407 2.35287,-4.47656 5.31251,-4.47656c2.95965,0 4.95768,2.03783 5.59089,5.03333z" fill="#66e0ff" stroke="#000000" stroke-width="0" stroke-linecap="butt"/><path d="M235.41776,171.97303c0,0 -0.39616,-1.88941 0.27325,-2.31182c0.66939,-0.42241 2.25961,0.99835 2.25961,0.99835" fill="none" stroke="#ffffff" stroke-width="1" stroke-linecap="round"/><path d="M241.79509,170.74119c0,0 1.31091,-1.39058 1.96659,-1.06765c0.65568,0.32294 0.41376,2.44147 0.41376,2.44147" data-paper-data="{&quot;index&quot;:null}" fill="none" stroke="#ffffff" stroke-width="1" stroke-linecap="round"/><path d="M244.56057,176.77464c0,2.414 -2.11478,3.5643 -4.66495,3.5643c-2.55018,0 -4.57007,-1.15029 -4.57007,-3.5643c0,-2.414 2.06733,-4.37095 4.61752,-4.37095c2.55018,0 4.61752,1.95693 4.61752,4.37095z" fill="#1f374e" stroke="none" stroke-width="NaN" stroke-linecap="butt"/><path d="M236.46815,175.72576c0,-0.67424 0.54658,-1.22082 1.22082,-1.22082c0.67424,0 1.22082,0.54658 1.22082,1.22082c0,0.67424 -0.54658,1.22082 -1.22082,1.22082c-0.67424,0 -1.22082,-0.54658 -1.22082,-1.22082z" fill="#ffffff" stroke="none" stroke-width="0.5" stroke-linecap="butt"/><path d="M240.9363,175.56427c0,-0.67424 0.54658,-1.22082 1.22082,-1.22082c0.67424,0 1.22082,0.54658 1.22082,1.22082c0,0.67424 -0.54658,1.22082 -1.22082,1.22082c-0.67424,0 -1.22082,-0.54658 -1.22082,-1.22082z" fill="#ffffff" stroke="none" stroke-width="0.5" stroke-linecap="butt"/><path d="M240.90782,180.73393c0.01019,0.81024 -0.30815,0.92093 -1.11378,0.93108c-0.80564,0.01013 -1.12666,-0.09252 -1.13684,-0.90277c-0.01019,-0.81024 0.30815,-0.92093 1.11378,-0.93108c0.80564,-0.01013 1.12666,0.09252 1.13684,0.90277z" fill="#ff3737" stroke="none" stroke-width="0" stroke-linecap="butt"/><path d="M239.4226,180.83965c0.00793,0.6302 -1.39606,1.57379 -2.02268,1.58167c-0.62661,0.00788 -0.10644,-0.73008 -0.11436,-1.36027c-0.00793,-0.6302 -0.74343,-1.54688 -0.11682,-1.55476c0.62661,-0.00788 2.24593,0.70318 2.25386,1.33335z" fill="#ff3737" stroke="none" stroke-width="0" stroke-linecap="butt"/><path d="M242.45788,179.24894c0.62661,-0.00788 -0.08561,0.92702 -0.07769,1.55721c0.00793,0.6302 0.54649,1.35484 -0.08011,1.36272c-0.62661,0.00788 -2.05389,-0.90012 -2.06181,-1.53032c-0.00793,-0.6302 1.59301,-1.38173 2.21961,-1.38961z" data-paper-data="{&quot;index&quot;:null}" fill="#ff3737" stroke="none" stroke-width="0" stroke-linecap="butt"/><path d="M238.42536,187.7036l1.25839,-6.29439l0.65395,0.13074l-1.25839,6.29439z" fill="#ff3737" stroke="#000000" stroke-width="0" stroke-linecap="butt"/><path d="M240.56519,187.83564l-1.01654,-6.33796l0.65849,-0.10561l1.01654,6.33796z" fill="#ff3737" stroke="#000000" stroke-width="0" stroke-linecap="butt"/><path d="M234.83937,181.61824c0.1644,0.54044 0.62316,0.76701 -0.96971,1.25157c-1.59287,0.48458 -3.74297,0.8288 -3.90738,0.28836c-0.1644,-0.54044 1.71913,-1.76089 3.312,-2.24547c1.59287,-0.48458 1.40067,0.16509 1.56508,0.70553z" fill="#66e0ff" stroke="none" stroke-width="0" stroke-linecap="butt"/><path d="M246.72586,180.91269c1.59287,0.48458 3.47642,1.70503 3.312,2.24547c-0.1644,0.54044 -2.31451,0.1962 -3.90738,-0.28836c-1.59287,-0.48458 -1.13411,-0.71113 -0.96971,-1.25157c0.1644,-0.54044 -0.02778,-1.1901 1.56509,-0.70553z" data-paper-data="{&quot;index&quot;:null}" fill="#66e0ff" stroke="none" stroke-width="0" stroke-linecap="butt"/><path d="M179.875,240.125v-120.25h120.25v120.25z" fill="none" stroke="none" stroke-width="0" stroke-linecap="butt"/><path d="M207.01786,180c0,-17.28859 13.30197,-31.47034 30.2296,-32.86891c0.37436,-0.03093 2.20794,-0.11322 2.75254,-0.11322c18.21553,0 32.98214,14.7666 32.98214,32.98214c0,18.21553 -14.76661,32.98214 -32.98214,32.98214c-0.83112,0 -1.65506,-0.03074 -2.47074,-0.09115c-0.57196,-0.04235 -2.7033,-0.30846 -3.19776,-0.39411c-15.51453,-2.68732 -27.31364,-16.21419 -27.31364,-32.49688z" fill="none" stroke="url(#color-1)" stroke-width="0.5" stroke-linecap="butt"/></g></g></svg>