<svg version="1.1" xmlns="http://www.w3.org/2000/svg" xmlns:xlink="http://www.w3.org/1999/xlink" width="77.1" height="77.1" viewBox="0,0,77.1,77.1"><g transform="translate(-201.45,-141.45)"><g data-paper-data="{&quot;isPaintingLayer&quot;:true}" fill-rule="nonzero" stroke-linejoin="miter" stroke-miterlimit="10" stroke-dasharray="" stroke-dashoffset="0" style="mix-blend-mode: normal"><path d="M238.66842,185.7936c-0.42286,0.25629 -0.67914,-0.16658 -0.67914,-0.16658l-0.39983,-0.3645c-0.11705,-0.26336 -0.23236,-0.52539 -0.36126,-0.78319c-0.50838,-1.01968 -0.78577,-2.27462 -0.43266,-3.40904c0.14392,-0.46236 0.52369,-0.88364 0.56588,-1.38588c0.05639,-0.67122 0.0406,-1.41251 -0.1371,-2.06408c-0.09121,-0.36368 -0.36912,-1.09863 -0.71561,-1.21419c-1.06112,-0.35391 -2.06945,0.23972 -2.62978,1.08023c0,0 -0.27428,0.41142 -0.6857,0.13714c-0.41142,-0.27428 -0.13714,-0.6857 -0.13714,-0.6857c0.92935,-1.39402 3.45825,-2.47542 4.65495,-0.69344c0.23078,0.34364 0.35485,0.7239 0.46735,1.11575c0.19914,0.73018 0.24411,1.57042 0.17194,2.32428c-0.06557,0.68488 -0.46668,1.19953 -0.67028,1.82813c-0.25933,0.80069 0.08046,1.82243 0.43266,2.52452c0.13553,0.27106 0.25736,0.54691 0.38043,0.82381l0.34187,0.25358c0,0 0.25629,0.42286 -0.16658,0.67914z" data-paper-data="{&quot;index&quot;:null}" fill="#ffd500" stroke="#7f1818" stroke-width="0.5" stroke-linecap="butt"/><path d="M237.00991,186.27805c0,-5.40391 3.26589,-12.29129 5.12809,-12.29129c1.86219,0 2.48739,3.7211 2.48739,9.12502c0,1.11362 0.66541,0.88589 0.91252,1.97206c0.12528,0.55069 -0.74516,4.23549 -0.74516,4.23549c0,0 -1.72138,0.61344 -2.95242,0.61344c0,0 -3.02964,0.4764 -3.89044,-0.39976c-0.8608,-0.87616 -0.93998,-3.25496 -0.93998,-3.25496z" data-paper-data="{&quot;index&quot;:null}" fill="#ffd500" stroke="#7f1818" stroke-width="0.5" stroke-linecap="butt"/><path d="M242.36467,185.80317c0.00695,-0.30904 0.56502,-2.14084 1.72177,-2.5647c0.37394,-0.13702 1.86779,0.72802 1.84884,1.12582c-0.02577,0.54094 -1.15633,4.95736 -1.15633,4.95736" data-paper-data="{&quot;origRot&quot;:0,&quot;index&quot;:null}" fill="#ffd500" stroke="#7f1818" stroke-width="0.5" stroke-linecap="round"/><path d="M237.51383,189.6399c0,0 -1.9159,-4.13671 -2.03974,-4.6639c-0.09108,-0.3877 1.22027,-1.51032 1.61291,-1.44368c1.21459,0.20613 2.0969,1.90567 2.16001,2.20828" data-paper-data="{&quot;index&quot;:null,&quot;origRot&quot;:0}" fill="#ffd500" stroke="#7f1818" stroke-width="0.5" stroke-linecap="round"/><path d="M238.7266,188.91936c0.82425,0 1.49244,0.61869 1.49244,1.38188c0,0.7632 -0.66819,0.60803 -1.49244,0.60803c-0.82425,0 -1.49244,-0.17649 -1.49244,-0.93968c0,-0.76319 0.66819,-1.05023 1.49244,-1.05023z" data-paper-data="{&quot;index&quot;:null}" fill="#ffd500" stroke="#7f1818" stroke-width="0.5" stroke-linecap="butt"/><path d="M244.3779,189.19854c0.82425,0 1.49244,0.61868 1.49244,1.38188c0,0.76319 -0.66819,0.60803 -1.49244,0.60803c-0.82425,0 -1.49244,-0.17648 -1.49244,-0.93968c0,-0.7632 0.66819,-1.05023 1.49244,-1.05023z" data-paper-data="{&quot;index&quot;:null}" fill="#ffd500" stroke="#7f1818" stroke-width="0.5" stroke-linecap="butt"/><path d="M241.19184,180.07829l-0.01092,10.14333c0,0 0.23236,1.28187 -0.39647,1.83539c-0.61231,0.53898 -1.69,0.48454 -2.11083,-0.11921c-0.42083,-0.60374 0.89701,-0.82254 0.9103,-1.60313c0.04169,-2.4484 -0.57187,-10.28179 -0.57187,-10.28179" data-paper-data="{&quot;origRot&quot;:0,&quot;index&quot;:null}" fill="#ffd500" stroke="#7f1818" stroke-width="0.5" stroke-linecap="round"/><path d="M238.07128,173.08499c-0.7183,-1.29106 0.35724,-4.24586 0.35724,-4.24586c0,0 0.07664,-0.72403 0.12568,-1.32924c0.03139,-0.38737 0.37583,-1.06643 0.37583,-1.06643c0,0 0.64392,0.37176 0.91426,0.70424c0.4346,0.53451 1.03976,1.29574 1.03976,1.29574l1.31046,-0.22016c0.56831,0 1.23825,0.27201 1.23825,0.27201c0,0 0.53712,-0.66095 0.8809,-1.13126c0.37587,-0.51421 1.18468,-1.02221 1.18468,-1.02221c0,0 0.20138,0.98082 0.23574,1.6086c0.02528,0.46183 0.13862,1.25722 0.13862,1.25722c0,0 0.84822,2.66768 0.3958,3.72968c-0.31702,0.7442 -1.10415,1.89673 -1.10415,1.89673c0,0 -1.42163,1.70957 -2.96983,1.70957c-1.49483,0 -3.22534,-1.79003 -3.22534,-1.79003c0,0 -0.56302,-1.0667 -0.89788,-1.66857z" data-paper-data="{&quot;index&quot;:null}" fill="#ffd500" stroke="#7f1818" stroke-width="0.5" stroke-linecap="butt"/><path d="M244.7452,172.3091c-0.40785,0 -0.73849,-0.33064 -0.73849,-0.73849c0,-0.40785 0.33064,-0.73849 0.73849,-0.73849c0.40785,0 0.73849,0.33064 0.73849,0.73849c0,0.40785 -0.33064,0.73849 -0.73849,0.73849z" data-paper-data="{&quot;index&quot;:null}" fill="#7f1818" stroke="#7f1818" stroke-width="0" stroke-linecap="butt"/><path d="M240.53583,172.23525c-0.40785,0 -0.73849,-0.33064 -0.73849,-0.73849c0,-0.40785 0.33064,-0.73849 0.73849,-0.73849c0.40785,0 0.73849,0.33064 0.73849,0.73849c0,0.40785 -0.33064,0.73849 -0.73849,0.73849z" data-paper-data="{&quot;index&quot;:null}" fill="#7f1818" stroke="#7f1818" stroke-width="0" stroke-linecap="butt"/><path d="M241.86251,173.45073c0.02628,-0.41556 0.38938,-0.54953 0.82511,-0.52198c0.43573,0.02755 0.78288,0.14599 0.7566,0.56156c-0.02627,0.41558 -0.64144,0.95667 -0.85175,0.94337c-0.26667,-0.01686 -0.75624,-0.56736 -0.72996,-0.98293z" data-paper-data="{&quot;origRot&quot;:0,&quot;index&quot;:null}" fill="#ff3131" stroke="#7f1818" stroke-width="0.5" stroke-linecap="butt"/><path d="M240.60968,173.26913h0.66464" data-paper-data="{&quot;index&quot;:null}" fill="none" stroke="#7f1818" stroke-width="0.5" stroke-linecap="round"/><path d="M240.83123,174.22917l0.51694,-0.22155" data-paper-data="{&quot;index&quot;:null}" fill="none" stroke="#7f1818" stroke-width="0.5" stroke-linecap="round"/><path d="M245.04061,173.41683l-0.88619,-0.1477" data-paper-data="{&quot;index&quot;:null}" fill="none" stroke="#7f1818" stroke-width="0.5" stroke-linecap="round"/><path d="M244.59752,174.30302l-0.59079,-0.2954" data-paper-data="{&quot;index&quot;:null}" fill="none" stroke="#7f1818" stroke-width="0.5" stroke-linecap="round"/><path d="M244.35685,180.124c0,0 -0.61355,7.83339 -0.57187,10.28179c0.01328,0.78058 1.33112,0.99938 0.9103,1.60313c-0.42083,0.60374 -1.49852,0.65819 -2.11083,0.11921c-0.62883,-0.55352 -0.39647,-1.83539 -0.39647,-1.83539l-0.01092,-10.14333" data-paper-data="{&quot;origRot&quot;:0,&quot;index&quot;:null}" fill="#ffd500" stroke="#7f1818" stroke-width="0.5" stroke-linecap="round"/><path d="M208.94447,211.05559v-62.11111h62.11111v62.11111z" data-paper-data="{&quot;index&quot;:null}" fill="none" stroke="none" stroke-width="NaN" stroke-linecap="butt"/><path d="M201.45,218.55v-77.1h77.1v77.1z" fill="none" stroke="none" stroke-width="NaN" stroke-linecap="butt"/></g></g></svg>