<svg version="1.1" xmlns="http://www.w3.org/2000/svg" xmlns:xlink="http://www.w3.org/1999/xlink" width="81.27777" height="81.27777" viewBox="0,0,81.27777,81.27777"><defs><radialGradient cx="236.16768" cy="172.13" r="4.11381" gradientUnits="userSpaceOnUse" id="color-1"><stop offset="0" stop-color="#ff0000"/><stop offset="1" stop-color="#ff0000" stop-opacity="0"/></radialGradient><radialGradient cx="244.07643" cy="171.97519" r="4.11381" gradientUnits="userSpaceOnUse" id="color-2"><stop offset="0" stop-color="#ff0000"/><stop offset="1" stop-color="#ff0000" stop-opacity="0"/></radialGradient><linearGradient x1="226.46001" y1="179.86056" x2="221.74517" y2="188.32532" gradientUnits="userSpaceOnUse" id="color-3"><stop offset="0" stop-color="#1b6ba1"/><stop offset="1" stop-color="#a0d3f5"/></linearGradient><linearGradient x1="274.69572" y1="157.30337" x2="251.1939" y2="161.9687" gradientUnits="userSpaceOnUse" id="color-4"><stop offset="0" stop-color="#6aa7f6"/><stop offset="1" stop-color="#6af69d"/></linearGradient><linearGradient x1="253.2085" y1="180.04576" x2="257.22629" y2="188.86274" gradientUnits="userSpaceOnUse" id="color-5"><stop offset="0" stop-color="#1b6ba1"/><stop offset="1" stop-color="#a0d3f5"/></linearGradient></defs><g transform="translate(-199.36114,-139.36112)"><g data-paper-data="{&quot;isPaintingLayer&quot;:true}" fill-rule="nonzero" stroke-linejoin="miter" stroke-miterlimit="10" stroke-dasharray="" stroke-dashoffset="0" style="mix-blend-mode: normal"><path d="M252.55691,198.59272c-0.79145,0.22759 -4.20123,-1.75327 -5.09323,-1.69689c-2.8959,0.18304 -2.84594,0.71751 -5.83232,0.97202c-0.6549,0.05581 -1.17457,0.03858 -1.60661,-0.02396c-1.62523,-0.23519 -2.01084,-1.11112 -3.69272,-1.14935c-1.56379,-0.03555 -2.53455,2.12919 -4.29057,1.85688c-5.94597,-0.92208 7.75035,-12.68687 7.75035,-12.68687z" fill="#0a283c" stroke="none" stroke-width="0" stroke-linecap="butt"/><path d="M248.90442,171.60854c0.69201,3.27364 0.48942,5.72639 2.82466,10.58955c0.4128,0.85969 2.63244,14.45043 3.80123,15.93151c1.80336,2.28522 -9.6689,2.45277 -10.1171,2.72292c-1.05689,0.63706 -1.99523,-4.65756 -3.15956,-7.94318c-1.98844,-5.61113 -2.12433,-12.27235 -2.12433,-12.27235c0,0 0.28072,9.36793 -0.85378,11.82396c-1.43754,3.11209 -2.54208,7.46865 -3.79043,8.37288c-1.76384,1.2776 -10.62959,0.29931 -9.77177,-1.70257c0.5477,-1.27815 1.97103,-14.9222 2.52165,-16.48699c1.38428,-3.93402 1.98509,-8.07079 2.60021,-11.95841c0.79296,-5.01153 3.89919,-7.41859 8.80394,-7.41859c4.90474,0 8.2159,3.3771 9.26527,8.34127z" fill="#1b6ba1" stroke="none" stroke-width="0" stroke-linecap="butt"/><path d="M247.46952,171.98021c0,3.9118 -3.42692,5.77581 -7.55938,5.77581c-4.13246,0 -7.40561,-1.86399 -7.40561,-5.77581c0,-3.9118 3.35002,-7.08295 7.4825,-7.08295c4.13246,0 7.48251,3.17113 7.48251,7.08295z" fill="#0a283c" stroke="none" stroke-width="NaN" stroke-linecap="butt"/><g stroke="none" stroke-linecap="butt"><path d="M232.05389,172.13c0,-2.272 1.8418,-4.11379 4.1138,-4.11379c2.272,0 4.11381,1.8418 4.11381,4.11379c0,2.272 -1.84181,4.11381 -4.11381,4.11381c-2.272,0 -4.1138,-1.84181 -4.1138,-4.11381z" fill="url(#color-1)" stroke-width="0"/><path d="M234.67717,172.18962c0,-0.79027 0.64063,-1.43088 1.43089,-1.43088c0.79027,0 1.43088,0.64063 1.43088,1.43088c0,0.79027 -0.64062,1.43089 -1.43088,1.43089c-0.79027,0 -1.43089,-0.64062 -1.43089,-1.43089z" fill="#ffffff" stroke-width="0.5"/></g><g stroke="none" stroke-linecap="butt"><path d="M239.96262,171.97519c0,-2.272 1.8418,-4.11381 4.11379,-4.11381c2.272,0 4.11381,1.84181 4.11381,4.11381c0,2.272 -1.84181,4.11379 -4.11381,4.11379c-2.272,0 -4.11379,-1.8418 -4.11379,-4.11379z" fill="url(#color-2)" stroke-width="0"/><path d="M242.58593,172.0348c0,-0.79026 0.64064,-1.43089 1.4309,-1.43089c0.79026,0 1.43088,0.64064 1.43088,1.43089c0,0.79026 -0.64062,1.43088 -1.43088,1.43088c-0.79026,0 -1.4309,-0.64062 -1.4309,-1.43088z" fill="#ffffff" stroke-width="0.5"/></g><path d="M240.21628,181.03398c-0.93711,-0.01862 -1.70697,0.47897 -1.66924,-1.4206c0.03773,-1.89957 0.73522,-1.65031 1.67233,-1.63169c0.93711,0.01862 1.759,-0.20046 1.72127,1.69911c-0.03774,1.89958 -0.78725,1.3718 -1.72437,1.35319z" fill="#a0d3f5" stroke="none" stroke-width="0" stroke-linecap="butt"/><path d="M238.9415,189.22099l1.08747,-9.62948l2.89396,9.27233c0,0 -1.4327,2.88776 -2.13239,2.95053c-0.61705,0.05535 -1.84902,-2.59338 -1.84902,-2.59338z" fill="#a0d3f5" stroke="none" stroke-width="0" stroke-linecap="butt"/><path d="M233.23422,163.72393c0,0 -0.20331,-3.19275 0.99452,-3.72744c1.19782,-0.53469 3.47045,2.17154 3.47045,2.17154" fill="none" stroke="#ffffff" stroke-width="1.5" stroke-linecap="round"/><path d="M243.98588,163.21041c0,0 2.47884,-1.97115 3.47802,-1.2865c0.99918,0.68465 0.10172,4.10245 0.10172,4.10245" data-paper-data="{&quot;index&quot;:null}" fill="none" stroke="#ffffff" stroke-width="1.5" stroke-linecap="round"/><path d="M199.36114,220.63889v-81.27777h81.27777v81.27777z" fill="none" stroke="none" stroke-width="NaN" stroke-linecap="butt"/><g stroke-linecap="butt"><path d="M231.54418,184.67265c-0.52079,0.935 -10.70327,4.64697 -11.65438,3.80584c-0.95111,-0.84113 -1.75934,-4.58238 -1.23854,-5.51736c0.1338,-0.24022 0.57281,-0.47215 1.25236,-0.66156c0.9875,-0.27523 2.48298,-0.46069 4.28812,-0.45142c1.81599,0.00933 6.21601,-2.05415 7.69876,-1.00565c0.9232,0.65282 0.12181,2.98969 -0.34632,3.83011z" fill="url(#color-3)" stroke="none" stroke-width="0"/><path d="M220.97512,184.86926c0.04319,1.67682 0.58122,3.77437 -0.50129,3.80224c-1.08252,0.02789 -1.08913,-0.46244 -2.40551,-2.87198c-0.8042,-1.47204 0.14875,-3.34031 1.23127,-3.36819c1.08252,-0.02789 1.63233,0.76109 1.67552,2.43794z" fill="#0a283c" stroke="none" stroke-width="0"/><path d="M214.40562,187.49268c-0.20117,-1.23647 0.34392,-1.02973 1.89475,-1.28205c0.1155,-0.01879 1.66532,-1.74536 1.77892,-1.75276c1.41173,-0.09188 1.75617,0.97669 1.94237,2.12107c0.20117,1.23647 -0.89295,2.44339 -2.44377,2.6957c-1.55082,0.25231 -2.97109,-0.54548 -3.17226,-1.78195z" data-paper-data="{&quot;index&quot;:null}" fill="none" stroke="#ffffff" stroke-width="1.5"/></g><g><path d="M260.10739,206.01796c0,0 -1.00433,-10.99008 1.04677,-17.05391c3.00211,-8.87539 3.87506,-5.9153 5.31905,-10.22c1.44398,-4.3047 2.81718,-13.21961 3.11241,-14.91524c0.11336,-0.65106 1.74431,-1.44539 2.29455,-2.01096c0.9118,-0.9372 1.13849,-2.10465 2.59788,-2.45877c1.18818,-0.28832 3.7342,0.15216 3.7342,0.15216" fill="none" stroke="#91aed5" stroke-width="2" stroke-linecap="round"/><path d="M274.23344,154.97459c0.14017,0.70608 -2.06176,1.18684 -1.91112,2.7496c0.15064,1.56275 2.79535,0.52584 2.29799,1.26383c-1.03511,1.53589 -4.57018,3.2486 -5.29965,4.5031c-4.20425,-4.69529 -7.1886,-7.27526 -13.81843,-5.95918c-1.73176,0.34377 -3.97225,0.96284 -5.03057,2.93528c-0.43046,-2.65151 3.08503,-5.8569 7.98307,-6.58196c6.81656,-1.00905 15.77871,1.08932 15.77871,1.08932z" fill="url(#color-4)" stroke="#ffffff" stroke-width="0" stroke-linecap="butt"/></g><g data-paper-data="{&quot;index&quot;:null}" stroke-linecap="butt"><path d="M247.75328,184.43272c-0.39892,-0.87539 -1.0095,-3.26922 -0.03672,-3.84556c1.56237,-0.92568 5.78191,1.48547 7.59275,1.62243c1.80002,0.13615 3.2757,0.44144 4.23783,0.79531c0.6621,0.24353 1.081,0.51005 1.19502,0.76027c0.44381,0.97389 -0.66311,4.63789 -1.67888,5.39969c-1.01576,0.7618 -10.8662,-3.75821 -11.31,-4.73212z" fill="url(#color-5)" stroke="none" stroke-width="0"/><path d="M260.13862,183.18488c1.07676,0.11497 1.87613,2.05393 0.956,3.45641c-1.50616,2.2957 -1.55224,2.78389 -2.62899,2.66891c-1.07676,-0.11496 -0.37153,-2.16237 -0.19343,-3.83027c0.17811,-1.66791 0.78967,-2.41005 1.86644,-2.29507z" fill="#0a283c" stroke="none" stroke-width="0"/><path d="M264.60906,188.62397c-0.3001,1.21624 -1.78001,1.89706 -3.30547,1.52067c-1.52546,-0.3764 -2.51883,-1.66751 -2.21873,-2.88376c0.27776,-1.12567 0.70715,-2.16303 2.10689,-1.95774c0.11263,0.01651 1.51836,1.8623 1.63197,1.89033c1.52546,0.37641 2.08544,0.21423 1.78534,1.43049z" data-paper-data="{&quot;index&quot;:null}" fill="none" stroke="#ffffff" stroke-width="1.5"/></g></g></g></svg>