<svg version="1.1" xmlns="http://www.w3.org/2000/svg" xmlns:xlink="http://www.w3.org/1999/xlink" width="494.59959" height="388.56773" viewBox="0,0,494.59959,388.56773"><g transform="translate(7.75937,12.70703)"><g data-paper-data="{&quot;isPaintingLayer&quot;:true}" fill-rule="nonzero" stroke-linejoin="miter" stroke-miterlimit="10" stroke-dasharray="" stroke-dashoffset="0" style="mix-blend-mode: normal"><path d="M-6,366.5v-373h492v373z" fill="#222429" stroke="#000000" stroke-width="0.5" stroke-linecap="butt"/><path d="M75.5,344.5v-329h329v329z" fill="#0d0d0d" stroke="none" stroke-width="0" stroke-linecap="butt"/><g fill="#424242" stroke="#000000" stroke-width="0" stroke-linecap="butt"><path d="M201.56666,138.45558v-37h37v37z"/><path d="M161.43333,178.54447v-37h37v37z"/><path d="M121.56666,138.45558v-37h37v37z"/><path d="M81.43333,178.54447v-37h37v37z"/><path d="M201.56666,58.45557v-37h37v37z"/><path d="M161.43333,98.54447v-37h37v37z"/><path d="M121.56666,58.45557v-37h37v37z"/><path d="M81.43333,98.54447v-37h37v37z"/><path d="M361.56666,138.45558v-37h37v37z"/><path d="M321.43333,178.54447v-37h37v37z"/><path d="M281.56666,138.45558v-37h37v37z"/><path d="M241.43333,178.54447v-37h37v37z"/><path d="M361.56666,58.45557v-37h37v37z"/><path d="M321.43333,98.54447v-37h37v37z"/><path d="M281.56666,58.45557v-37h37v37z"/><path d="M241.43333,98.54447v-37h37v37z"/><path d="M201.56666,298.45556v-37h37v37z"/><path d="M161.43333,338.54446v-37h37v37z"/><path d="M121.56666,298.45556v-37h37v37z"/><path d="M81.43333,338.54446v-37h37v37z"/><path d="M201.56666,218.45558v-37h37v37z"/><path d="M161.43333,258.54447v-37h37v37z"/><path d="M121.56666,218.45558v-37h37v37z"/><path d="M81.43333,258.54447v-37h37v37z"/><path d="M361.56666,298.45556v-37h37v37z"/><path d="M321.43333,338.54446v-37h37v37z"/><path d="M281.56666,298.45556v-37h37v37z"/><path d="M241.43333,338.54446v-37h37v37z"/><path d="M361.56666,218.45558v-37h37v37z"/><path d="M321.43333,258.54447v-37h37v37z"/><path d="M281.56666,218.45558v-37h37v37z"/><path d="M241.43333,258.54447v-37h37v37z"/></g><g fill="#292929" stroke="#000000" stroke-width="0" stroke-linecap="butt"><path d="M161.43333,138.54447v-37h37v37z"/><path d="M201.56667,178.45558v-37h37v37z"/><path d="M81.43333,138.54447v-37h37v37z"/><path d="M121.56667,178.45558v-37h37v37z"/><path d="M161.43333,58.54447v-37h37v37z"/><path d="M201.56667,98.45558v-37h37v37z"/><path d="M81.43333,58.54447v-37h37v37z"/><path d="M121.56667,98.45558v-37h37v37z"/><path d="M321.43333,138.54447v-37h37v37z"/><path d="M361.56667,178.45558v-37h37v37z"/><path d="M241.43333,138.54447v-37h37v37z"/><path d="M281.56667,178.45558v-37h37v37z"/><path d="M321.43333,58.54447v-37h37v37z"/><path d="M361.56667,98.45558v-37h37v37z"/><path d="M241.43333,58.54447v-37h37v37z"/><path d="M281.56667,98.45558v-37h37v37z"/><path d="M161.43333,298.54445v-37h37v37z"/><path d="M201.56667,338.45557v-37h37v37z"/><path d="M81.43333,298.54445v-37h37v37z"/><path d="M121.56667,338.45557v-37h37v37z"/><path d="M161.43333,218.54447v-37h37v37z"/><path d="M201.56667,258.45556v-37h37v37z"/><path d="M81.43333,218.54447v-37h37v37z"/><path d="M121.56667,258.45556v-37h37v37z"/><path d="M321.43333,298.54445v-37h37v37z"/><path d="M361.56667,338.45557v-37h37v37z"/><path d="M241.43333,298.54445v-37h37v37z"/><path d="M281.56667,338.45557v-37h37v37z"/><path d="M321.43333,218.54447v-37h37v37z"/><path d="M361.56667,258.45556v-37h37v37z"/><path d="M241.43333,218.54447v-37h37v37z"/><path d="M281.56667,258.45556v-37h37v37z"/></g><path d="M61.10383,300.05145c0,10.57777 -13.47036,10.53402 -24.18036,10.53402c-10.71,0 -19.87099,-1.3927 -19.87099,-11.97048c0,-10.57777 5.33043,-22.02567 16.04043,-22.02567c4.21618,0 17.11488,2.47555 21.91629,5.54226c7.39523,4.72339 6.09463,11.50621 6.09463,17.91987z" fill="none" stroke="#808080" stroke-width="2.5" stroke-linecap="butt"/><path d="M421.12819,109.09002c3.8007,-1.51182 13.2304,-1.51 16.20306,-0.93888c7.5512,1.45076 9.75877,10.24428 8.32592,17.70225c-1.43285,7.45798 -8.08056,7.19898 -15.63176,5.74822c-7.5512,-1.45076 -17.05455,-3.24459 -15.6217,-10.70256c0.86879,-4.52202 0.87057,-9.4805 6.72448,-11.80903z" data-paper-data="{&quot;index&quot;:null}" fill="none" stroke="#808080" stroke-width="2.5" stroke-linecap="butt"/><path d="M466.16467,209.3485c1.95338,-0.95725 6.7964,-1.93664 8.32263,-2.03322c3.87693,-0.24532 5.00277,2.79541 4.26013,5.71784c-0.74264,2.92243 -4.15663,3.51704 -8.03356,3.76236c-3.87693,0.24532 -8.75616,0.56595 -8.01351,-2.35648c0.45029,-1.77196 0.45569,-3.61613 3.46432,-5.0905z" data-paper-data="{&quot;index&quot;:null}" fill="none" stroke="#808080" stroke-width="2.5" stroke-linecap="butt"/><path d="M2.14358,196.50257c0,0 4.36277,-0.45273 4.99201,-2.54746c0.30763,-1.02409 3.27013,-9.1903 5.06631,-18.60757c1.87785,-9.84543 2.58569,-20.93664 2.58569,-20.93664c0,0 2.11261,-3.2818 3.29415,0.99928c1.00421,3.63855 1.0203,14.52063 1.84821,18.60477c1.83433,9.04885 2.13689,16.28615 2.82832,17.52494c2.93076,5.25082 4.33067,3.80646 4.33067,3.80646" fill="none" stroke="#808080" stroke-width="2.5" stroke-linecap="round"/><path d="M25.85988,195.23556c0,0 2.33622,-0.24243 2.67317,-1.36414c0.16473,-0.54839 1.75112,-4.92132 2.71296,-9.96418c1.00557,-5.27214 1.38462,-11.21137 1.38462,-11.21137c0,0 1.13129,-1.75737 1.76399,0.5351c0.53774,1.94841 0.54636,7.77566 0.9897,9.96268c0.98226,4.84557 1.14428,8.72108 1.51454,9.38444c1.56939,2.81176 2.31903,2.03832 2.31903,2.03832" fill="none" stroke="#808080" stroke-width="2.5" stroke-linecap="round"/><path d="M420.48048,268.91265c0,0 1.39991,1.92359 4.33067,-5.06941c0.69143,-1.64982 0.99399,-11.2884 2.82832,-23.33959c0.82791,-5.43922 0.844,-19.9319 1.84821,-24.77769c1.18153,-5.7015 3.29415,-1.33083 3.29415,-1.33083c0,0 0.70785,14.77118 2.5857,27.88326c1.79618,12.54186 4.75868,23.41756 5.06631,24.78143c0.62924,2.78975 4.99201,3.39269 4.99201,3.39269" data-paper-data="{&quot;index&quot;:null}" fill="none" stroke="#808080" stroke-width="2.5" stroke-linecap="round"/><path d="M409.35153,269.27232c0,0 0.74964,1.03007 2.31904,-2.71462c0.37025,-0.88346 0.53227,-6.04483 1.51453,-12.49813c0.44334,-2.91265 0.45195,-10.67334 0.9897,-13.26822c0.6327,-3.05309 1.76398,-0.71264 1.76398,-0.71264c0,0 0.37905,7.90983 1.38461,14.93122c0.96184,6.71604 2.54823,12.53988 2.71296,13.27022c0.33695,1.49388 2.67317,1.81675 2.67317,1.81675" data-paper-data="{&quot;index&quot;:null}" fill="none" stroke="#808080" stroke-width="2.5" stroke-linecap="round"/><path d="M10.65692,100.31612v-102.94608" fill="none" stroke="#808080" stroke-width="2.5" stroke-linecap="round"/><path d="M31.24614,73.02343v-74.21694" fill="none" stroke="#808080" stroke-width="2.5" stroke-linecap="round"/><path d="M51.35654,92.1762v-90.97561" fill="none" stroke="#808080" stroke-width="2.5" stroke-linecap="round"/><path d="M68.59402,0.24295v44.53017" fill="none" stroke="#808080" stroke-width="2.5" stroke-linecap="round"/><path d="M83.91623,1.20059v24.41977" fill="none" stroke="#808080" stroke-width="2.5" stroke-linecap="round"/><path d="M469.57733,100.04912v-102.94609" data-paper-data="{&quot;index&quot;:null}" fill="none" stroke="#808080" stroke-width="2.5" stroke-linecap="round"/><path d="M448.98811,72.75644v-74.21695" data-paper-data="{&quot;index&quot;:null}" fill="none" stroke="#808080" stroke-width="2.5" stroke-linecap="round"/><path d="M428.87772,91.90919v-90.97561" data-paper-data="{&quot;index&quot;:null}" fill="none" stroke="#808080" stroke-width="2.5" stroke-linecap="round"/><path d="M411.64023,-0.02406v44.53017" data-paper-data="{&quot;index&quot;:null}" fill="none" stroke="#808080" stroke-width="2.5" stroke-linecap="round"/><path d="M396.31802,0.93358v24.41977" data-paper-data="{&quot;index&quot;:null}" fill="none" stroke="#808080" stroke-width="2.5" stroke-linecap="round"/><g fill="none" stroke="#c6c6c6" stroke-width="1" stroke-linecap="round"><path d="M9.90469,315.74406l30.32685,-3.75326"/><path d="M21.9482,298.37676l3.75326,30.32684" data-paper-data="{&quot;index&quot;:null}"/><path d="M32.3423,304.12665l-16.6513,19.98229"/><path d="M34.08111,323.03577l-19.72953,-17.52454"/><path d="M17.8351,314.22128c0,0 1.51144,-0.66856 1.74053,-1.17001c0.26918,-0.58922 -0.22628,-2.14464 -0.22628,-2.14464c0,0 1.50877,-0.54399 2.10257,-0.93881c0.59161,-0.39336 1.4537,-1.42577 1.4537,-1.42577c0,0 1.27002,1.57977 1.90749,1.88629c0.53986,0.25959 1.67341,-0.16445 1.67341,-0.16445c0,0 0.06147,1.35101 0.43848,1.85497c0.39111,0.52282 1.86747,1.22745 1.86747,1.22745c0,0 1.19551,2.77073 1.05329,3.54631c-0.11547,0.62961 -1.84325,0.76121 -1.84325,0.76121c0,0 -1.55166,0.18851 -2.04212,0.77319c-0.52091,0.62102 -0.9975,2.85052 -0.9975,2.85052c0,0 -2.04459,0.69706 -2.88867,0.47488c-0.81242,-0.21384 -2.08448,-1.78386 -2.08448,-1.78386c0,0 0.52668,-2.19364 0.17019,-3.1445c-0.36166,-0.9647 -2.32483,-2.60278 -2.32483,-2.60278z"/><path d="M13.37313,315.18562c0,0 0.94744,-2.02972 1.61592,-3.46652c0.58789,-1.26359 0.54482,-4.42974 0.54482,-4.42974c0,0 2.8034,-0.22648 3.96641,-0.96688c1.10058,-0.70066 2.83472,-3.36291 2.83472,-3.36291c0,0 3.01393,2.50243 4.24774,3.04203c1.2662,0.55377 3.2548,0.2392 3.2548,0.2392c0,0 1.63034,3.39183 2.436,4.37258c0.96068,1.16946 2.9453,2.17815 2.9453,2.17815c0,0 -1.79062,2.65702 -2.20134,3.98889c-0.46856,1.5195 -0.45943,4.63965 -0.45943,4.63965c0,0 -1.70991,3.3728 -2.81142,4.25084c-0.16331,0.13018 -2.2588,-1.34591 -2.47556,-1.24178c-1.3205,0.6344 -1.50068,2.40157 -1.50068,2.40157c0,0 -3.39087,-2.42478 -4.88498,-3.14866c-1.39998,-0.67829 -3.81569,-1.0668 -3.81569,-1.0668c0,0 -1.77153,-1.06073 -2.55594,-2.11291c-0.95899,-1.28635 -1.1407,-5.31671 -1.1407,-5.31671z"/></g><g fill="none" stroke="#c6c6c6" stroke-width="1" stroke-linecap="round"><path d="M447.28004,28.36891l34.57481,-24.0864"/><path d="M450.79733,-0.56106l24.0864,34.57481" data-paper-data="{&quot;index&quot;:null}"/><path d="M467.17364,-0.23431l-7.45517,35.08353"/><path d="M481.45827,21.71033l-35.33697,-8.68284"/><path d="M455.97309,21.41013c0,0 1.41342,-1.78771 1.37026,-2.54668c-0.05072,-0.89181 -1.65559,-2.47023 -1.65559,-2.47023c0,0 1.49029,-1.63405 1.96056,-2.49758c0.46854,-0.86034 0.85589,-2.67413 0.85589,-2.67413c0,0 2.56525,1.10984 3.53995,1.07363c0.82544,-0.03067 1.93525,-1.27704 1.93525,-1.27704c0,0 0.94405,1.60826 1.72807,1.98041c0.81336,0.38608 3.06731,0.2958 3.06731,0.2958c0,0 3.2405,2.61036 3.56595,3.64783c0.26418,0.8422 -1.75852,2.11416 -1.75852,2.11416c0,0 -1.77127,1.22807 -1.99337,2.2567c-0.23587,1.09254 0.61704,4.1184 0.61704,4.1184c0,0 -2.04535,2.16543 -3.21779,2.43743c-1.12846,0.2618 -3.68993,-0.83486 -3.68993,-0.83486c0,0 -0.76874,-3.01435 -1.8152,-3.94478c-1.06169,-0.94397 -4.50988,-1.67905 -4.50988,-1.67905z"/><path d="M451.15122,25.45662c0,0 -0.1501,-3.08508 -0.25903,-5.26755c-0.0958,-1.91936 -2.18505,-5.75336 -2.18505,-5.75336c0,0 3.27357,-2.07961 4.2158,-3.73081c0.89165,-1.56257 1.29419,-5.9252 1.29419,-5.9252c0,0 5.2858,1.11337 7.13778,0.97784c1.9006,-0.1391 4.12371,-1.80199 4.12371,-1.80199c0,0 4.1704,3.08821 5.78394,3.76614c1.92402,0.80839 4.9935,0.762 4.9935,0.762c0,0 -0.4748,4.39259 -0.11897,6.28127c0.40596,2.15473 2.42422,5.95446 2.42422,5.95446c0,0 0.0841,5.21369 -0.69457,6.99321c-0.11545,0.26383 -3.62083,-0.18854 -3.81822,0.0779c-1.2025,1.62322 -0.28548,3.8945 -0.28548,3.8945c0,0 -5.6956,-0.77619 -7.98361,-0.69798c-2.14386,0.07328 -5.34018,1.1534 -5.34018,1.1534c0,0 -2.84305,-0.15418 -4.47664,-0.93291c-1.99714,-0.95205 -4.81142,-5.75092 -4.81142,-5.75092z"/></g><g fill="none" stroke="#c6c6c6" stroke-width="1" stroke-linecap="round"><path d="M438.95838,260.38291l13.42271,-21.99082"/><path d="M435.14336,239.51303l19.39791,20.81646" data-paper-data="{&quot;index&quot;:null}"/><path d="M443.7969,237.35476l2.95343,25.77419"/><path d="M455.58266,250.71324l-20.23347,-0.95654"/><path d="M442.15658,254.21856c0,0 0.39161,-1.46407 0.22049,-1.99184c-0.20108,-0.62014 -1.35166,-1.49677 -1.35166,-1.49677c0,0 0.462,-1.36715 0.53971,-2.04337c0.07743,-0.67372 -0.07424,-2.0065 -0.07424,-2.0065c0,0 1.56264,0.40686 2.0668,0.23924c0.42696,-0.14195 0.76523,-1.18083 0.76523,-1.18083c0,0 0.80981,0.994 1.29385,1.14154c0.50215,0.15306 1.66672,-0.23916 1.66672,-0.23916c0,0 2.21038,1.36425 2.58405,2.04681c0.30333,0.5541 -0.50875,1.7441 -0.50875,1.7441c0,0 -0.6888,1.12245 -0.60405,1.87865c0.09003,0.80318 1.12937,2.80798 1.12937,2.80798c0,0 -0.64917,1.82202 -1.21092,2.18439c-0.54067,0.34878 -2.09875,-0.04935 -2.09875,-0.04935c0,0 -0.99295,-2.00898 -1.72386,-2.51108c-0.74155,-0.50941 -2.69399,-0.5238 -2.69399,-0.5238z"/><path d="M440.4191,257.7691c0,0 -0.6823,-2.14897 -1.16642,-3.66881c-0.42575,-1.33661 -2.27168,-3.72978 -2.27168,-3.72978c0,0 1.31018,-1.94074 1.48135,-3.24003c0.16198,-1.22955 -0.48039,-4.35808 -0.48039,-4.35808c0,0 2.9903,0.0126 3.93517,-0.35284c0.96968,-0.37504 1.8104,-1.86936 1.8104,-1.86936c0,0 2.79161,1.56488 3.77057,1.80661c1.16733,0.28825 2.76824,-0.19202 2.76824,-0.19202c0,0 0.61033,3.16015 1.16647,4.43725c0.63449,1.457 2.43647,3.83641 2.43647,3.83641c0,0 1.06412,3.65642 1.00384,5.02216c-0.00894,0.20249 -1.93606,0.39536 -1.98747,0.61163c-0.31316,1.31756 0.61219,2.78205 0.61219,2.78205c0,0 -3.13928,0.28442 -4.32407,0.67312c-1.11015,0.3642 -2.57535,1.59037 -2.57535,1.59037c0,0 -1.52138,0.30612 -2.53058,-0.00362c-1.23379,-0.37868 -3.64877,-3.34505 -3.64877,-3.34505z"/></g><g fill="none" stroke="#c6c6c6" stroke-width="1" stroke-linecap="round"><path d="M381.62461,364.20669l45.17819,-23.27683"/><path d="M413.72365,375.3607l-23.27683,-45.17819" data-paper-data="{&quot;index&quot;:null}"/><path d="M409.97243,333.18686l-14.51205,40.7522"/><path d="M423.54714,361.70138l-40.85925,-16.02017"/><path d="M393.12773,357.27497c0,0 1.97505,-1.91161 2.04459,-2.82584c0.0817,-1.07425 -1.58499,-3.21737 -1.58499,-3.21737c0,0 2.04243,-1.71564 2.74246,-2.67293c0.69745,-0.95376 1.45001,-3.06029 1.45001,-3.06029c0,0 2.8896,1.73623 4.06062,1.84851c0.99171,0.09508 2.5174,-1.21782 2.5174,-1.21782c0,0 0.87193,2.07334 1.74981,2.64338c0.91074,0.59137 3.61974,0.84318 3.61974,0.84318c0,0 3.45737,3.63786 3.68085,4.93008c0.18141,1.049 -2.43973,2.2468 -2.43973,2.2468c0,0 -2.31355,1.18544 -2.74323,2.37972c-0.45635,1.26848 0.08035,5.022 0.08035,5.022c0,0 -2.79081,2.26231 -4.23587,2.40035c-1.39084,0.13287 -4.27803,-1.58699 -4.27803,-1.58699c0,0 -0.43793,-3.72632 -1.54046,-5.00566c-1.11857,-1.29796 -5.12353,-2.72709 -5.12353,-2.72709z"/><path d="M386.71739,361.34292c0,0 0.31295,-3.71214 0.53105,-6.33866c0.19181,-2.30987 -1.69395,-7.22684 -1.69395,-7.22684c0,0 4.24544,-1.96368 5.63541,-3.78729c1.31535,-1.72573 2.49288,-6.87698 2.49288,-6.87698c0,0 6.14143,2.17466 8.37709,2.30821c2.29435,0.13705 5.21746,-1.4961 5.21746,-1.4961c0,0 4.49278,4.35753 6.31356,5.42553c2.17113,1.2735 5.84806,1.70796 5.84806,1.70796c0,0 -1.26869,5.17553 -1.14475,7.49021c0.14142,2.64075 1.94778,7.50542 1.94778,7.50542c0,0 -0.73158,6.24636 -1.9465,8.24948c-0.18012,0.29698 -4.29858,-0.8033 -4.57708,-0.51628c-1.69665,1.74862 -0.96286,4.61029 -0.96286,4.61029c0,0 -6.68516,-1.83697 -9.43294,-2.10864c-2.57466,-0.25457 -6.56823,0.52656 -6.56823,0.52656c0,0 -3.37424,-0.63808 -5.20289,-1.82977c-2.23562,-1.45692 -4.83414,-7.6431 -4.83414,-7.6431z"/></g><path d="M-5.48828,-11.45703l-1,49l7.5,1.5l25.5,-16l26.5,4.5l32,-16.5l40,-9.5l1.5,-4" fill="#222429" stroke="#808080" stroke-width="2.5" stroke-linecap="round"/><path d="M357.51172,-0.95703l6.5,9l44.5,2.5l23,13.5h22.5l31.5,28.5l-1.5,-55.5" fill="#222429" stroke="#808080" stroke-width="2.5" stroke-linecap="round"/></g></g></svg>