<svg version="1.1" xmlns="http://www.w3.org/2000/svg" xmlns:xlink="http://www.w3.org/1999/xlink" width="46.75" height="46.75" viewBox="0,0,46.75,46.75"><defs><linearGradient x1="237.08127" y1="162.93155" x2="237.08127" y2="191.37395" gradientUnits="userSpaceOnUse" id="color-1"><stop offset="0" stop-color="#505050"/><stop offset="1" stop-color="#444444"/></linearGradient><linearGradient x1="225.93287" y1="188.64142" x2="225.93287" y2="193.86103" gradientUnits="userSpaceOnUse" id="color-2"><stop offset="0" stop-color="#505050"/><stop offset="1" stop-color="#444444"/></linearGradient></defs><g transform="translate(-216.625,-156.625)"><g data-paper-data="{&quot;isPaintingLayer&quot;:true}" fill-rule="nonzero" stroke-linejoin="miter" stroke-miterlimit="10" stroke-dasharray="" stroke-dashoffset="0" style="mix-blend-mode: normal"><path d="M216.625,203.375v-46.75h46.75v46.75z" fill="none" stroke="none" stroke-width="2" stroke-linecap="butt"/><path d="M235.93436,191.37395c-3.3993,-0.31466 -8.34614,-2.10858 -9.99525,-5.82005c-1.21415,-2.73257 0.80886,-9.5717 0.80886,-13.21596c0,-9.12909 11.98617,-9.40639 17.53423,-9.40639c2.46794,0 3.71039,6.70141 4.32927,11.81552" data-paper-data="{&quot;index&quot;:null}" fill="url(#color-1)" stroke="#ababab" stroke-width="2" stroke-linecap="butt"/><path d="M229.08526,190.62885c0,0.61713 0.58633,1.77527 0.23444,2.23801c-0.52962,0.69644 -2.23282,0.99417 -3.19892,0.99417c-0.6051,0 -3.07283,-0.57955 -3.53847,-0.8833c0,0 -0.69347,-4.3363 0.91455,-4.3363c1.60802,0 5.5884,1.37029 5.5884,1.98742z" data-paper-data="{&quot;index&quot;:null}" fill="url(#color-2)" stroke="#ababab" stroke-width="2" stroke-linecap="butt"/><path d="M228.38272,182.54753l9.82178,9.82178" fill="none" stroke="#ffffff" stroke-width="0.5" stroke-linecap="round"/><path d="M237.9743,182.0104l-9.82178,9.82178" data-paper-data="{&quot;index&quot;:null}" fill="none" stroke="#ffffff" stroke-width="0.5" stroke-linecap="round"/><path d="M227.00156,186.95967l11.81683,0.38366" fill="none" stroke="#ffffff" stroke-width="0.5" stroke-linecap="round"/><path d="M232.52632,193.25175l0.76733,-11.9703" fill="none" stroke="#ffffff" stroke-width="0.5" stroke-linecap="round"/><path d="M231.14513,184.96462c0,0 0.6621,0.35492 0.90587,0.29688c0.28644,-0.0682 0.70551,-0.68055 0.70551,-0.68055c0,0 0.6167,0.38878 0.9242,0.49128c0.30636,0.10212 0.91739,0.12258 0.91739,0.12258c0,0 -0.2113,0.89679 -0.143,1.21097c0.05784,0.26607 0.52667,0.55388 0.52667,0.55388c0,0 -0.4671,0.39965 -0.54237,0.67564c-0.07809,0.28633 0.08197,1.01248 0.08197,1.01248c0,0 -0.74605,-0.02299 -1.06381,0.1428c-0.25795,0.13459 -0.70104,0.77799 -0.70104,0.77799c0,0 -0.3881,-0.43591 -0.73477,-0.44829c-0.3682,-0.01315 -1.41374,0.37156 -1.41374,0.37156c0,0 -0.2301,-0.88806 -0.38639,-1.25273c-0.15042,-0.35098 -0.5344,-0.89579 -0.5344,-0.89579c0,0 0.66044,-0.59541 0.90165,-0.98896c0.24472,-0.39927 0.55628,-1.38975 0.55628,-1.38975z" fill="none" stroke="#ffffff" stroke-width="0.5" stroke-linecap="round"/><path d="M228.99661,183.12303c0,0 1.54808,0.284 2.24995,0.12203c0.61725,-0.14245 1.74015,-1.04282 1.74015,-1.04282c0,0 0.86474,0.94159 1.45521,1.15154c0.55877,0.19867 1.99776,0.07619 1.99776,0.07619c0,0 -0.161,1.43824 -0.00957,2.03132c0.1554,0.60865 0.93036,1.57511 0.93036,1.57511c0,0 -0.63438,0.98958 -0.76075,1.55249c-0.15068,0.67123 -0.08331,2.20741 -0.08331,2.20741c0,0 -1.8076,0.22518 -2.3998,0.45022c-0.67564,0.25674 -1.43683,1.0077 -1.43683,1.0077c0,0 -1.15371,-0.83753 -1.77632,-0.98695c-0.65465,-0.15712 -2.06031,0.06616 -2.06031,0.06616c0,0 -0.14898,-1.91666 -0.3071,-2.65456c-0.14816,-0.69141 -0.61369,-1.64246 -0.61369,-1.64246c0,0 0.91396,-0.90184 1.07188,-1.4771c0.19306,-0.70329 0.00238,-2.43626 0.00238,-2.43626z" fill="none" stroke="#ffffff" stroke-width="0.5" stroke-linecap="round"/><path d="M238.05256,185.66883c0.04158,-4.27986 3.3335,-10.36202 6.13747,-10.36202c3.68482,0 11.64557,0.18417 11.64557,6.24736c0,2.42038 1.3436,6.96268 0.53721,8.77754c-1.21365,2.73147 -5.11659,3.89916 -7.33046,3.89916c-1.02784,0 -10.98458,-0.06724 -13.0959,-1.19876c0,0 -1.33008,-2.09322 -0.94184,-3.45055c0.26942,-0.94194 3.04795,-3.91273 3.04795,-3.91273z" data-paper-data="{&quot;index&quot;:null}" fill="#4b4b4b" stroke="#ababab" stroke-width="2" stroke-linecap="butt"/></g></g></svg>