<svg version="1.1" xmlns="http://www.w3.org/2000/svg" xmlns:xlink="http://www.w3.org/1999/xlink" width="506" height="385" viewBox="0,0,506,385"><defs><linearGradient x1="-13" y1="181.5" x2="99" y2="181.5" gradientUnits="userSpaceOnUse" id="color-1"><stop offset="0" stop-color="#000411"/><stop offset="1" stop-color="#000411" stop-opacity="0"/></linearGradient><linearGradient x1="493" y1="178.5" x2="381" y2="178.5" gradientUnits="userSpaceOnUse" id="color-2"><stop offset="0" stop-color="#000411"/><stop offset="1" stop-color="#000411" stop-opacity="0"/></linearGradient><linearGradient x1="238.58571" y1="368.03327" x2="238.73764" y2="273.72664" gradientUnits="userSpaceOnUse" id="color-3"><stop offset="0" stop-color="#000411"/><stop offset="1" stop-color="#000411" stop-opacity="0"/></linearGradient><linearGradient x1="241.41429" y1="-8.03327" x2="241.26236" y2="86.27336" gradientUnits="userSpaceOnUse" id="color-4"><stop offset="0" stop-color="#000411"/><stop offset="1" stop-color="#000411" stop-opacity="0"/></linearGradient></defs><g transform="translate(13,12.5)"><g data-paper-data="{&quot;isPaintingLayer&quot;:true}" fill-rule="nonzero" stroke-linecap="butt" stroke-linejoin="miter" stroke-miterlimit="10" stroke-dasharray="" stroke-dashoffset="0" style="mix-blend-mode: normal"><path d="M-11,371.5v-383h502v383z" fill="#000411" stroke="#000000" stroke-width="0.5"/><g fill="#070921" stroke="#000000" stroke-width="0"><path d="M117.33558,177.72749v-57.76729h57.76729v57.76729z"/><path d="M179.99489,240.03983v-57.76729h57.76729v57.76729z"/><path d="M-7.56667,177.72749v-57.76729h57.76729v57.76729z"/><path d="M55.09264,240.03983v-57.76729h57.76729v57.76729z"/><path d="M117.33558,52.82524v-57.76729h57.76729v57.76729z"/><path d="M179.99489,115.13759v-57.76729h57.76729v57.76729z"/><path d="M-7.56667,52.82524v-57.76729h57.76729v57.76729z"/><path d="M55.09264,115.13759v-57.76729h57.76729v57.76729z"/><path d="M367.14008,177.72749v-57.76729h57.76729v57.76729z"/><path d="M429.79938,240.03983v-57.76729h57.76729v57.76729z"/><path d="M242.23783,177.72749v-57.76729h57.76729v57.76729z"/><path d="M304.89713,240.03983v-57.76729h57.76729v57.76729z"/><path d="M367.14008,52.82524v-57.76729h57.76729v57.76729z"/><path d="M429.79938,115.13759v-57.76729h57.76729v57.76729z"/><path d="M242.23783,52.82524v-57.76729h57.76729v57.76729z"/><path d="M304.89713,115.13759v-57.76729h57.76729v57.76729z"/><path d="M117.33558,302.62974v-57.76729h57.76729v57.76729z"/><path d="M179.99489,364.94205v-57.76729h57.76729v57.76729z"/><path d="M-7.56667,302.62974v-57.76729h57.76729v57.76729z"/><path d="M55.09264,364.94205v-57.76729h57.76729v57.76729z"/><path d="M367.14008,302.62974v-57.76729h57.76729v57.76729z"/><path d="M429.79938,364.94205v-57.76729h57.76729v57.76729z"/><path d="M242.23783,302.62974v-57.76729h57.76729v57.76729z"/><path d="M304.89713,364.94205v-57.76729h57.76729v57.76729z"/></g><path d="M-13,372.5v-382h112v382z" fill="url(#color-1)" stroke="none" stroke-width="0"/><path d="M381,369.5v-382h112v382z" data-paper-data="{&quot;index&quot;:null}" fill="url(#color-2)" stroke="none" stroke-width="0"/><path d="M484.19923,368.20292l-491.22703,-0.3393l0.15192,-94.30663l491.22704,0.3393z" fill="url(#color-3)" stroke="none" stroke-width="0"/><path d="M486.87588,86.44301l-491.22704,-0.33929l0.15193,-94.30663l491.22703,0.3393z" data-paper-data="{&quot;index&quot;:null}" fill="url(#color-4)" stroke="none" stroke-width="0"/></g></g></svg>