<svg version="1.1" xmlns="http://www.w3.org/2000/svg" xmlns:xlink="http://www.w3.org/1999/xlink" width="86.44712" height="86.44712" viewBox="0,0,86.44712,86.44712"><defs><linearGradient x1="259.77054" y1="197.62488" x2="248.41809" y2="154.18092" gradientUnits="userSpaceOnUse" id="color-1"><stop offset="0" stop-color="#ff22c0"/><stop offset="1" stop-color="#ff6a1a"/></linearGradient></defs><g transform="translate(-196.77645,-136.77644)"><g data-paper-data="{&quot;isPaintingLayer&quot;:true}" fill-rule="nonzero" stroke-linejoin="miter" stroke-miterlimit="10" stroke-dasharray="" stroke-dashoffset="0" style="mix-blend-mode: normal"><path d="M212.62432,179.44186c0,0 10.19999,-3.20567 15.83336,-0.86436c8.24534,3.42688 5.49932,5.24073 9.49842,6.88374c3.99909,1.64304 8.97112,2.6981 10.5458,2.91371c0.60462,0.08278 2.65242,3.81893 3.1786,4.60357c0.87191,1.30024 3.30073,2.29892 3.63254,4.54904c0.27013,1.83195 0.52159,3.61617 0.52159,3.61617" fill="none" stroke="#ffd0d0" stroke-width="2" stroke-linecap="round"/><path d="M264.07536,196.49998c-1.30522,0.34107 -2.4505,-3.72442 -5.35714,-3.26804c-2.90662,0.45635 -0.67149,5.28803 -2.10758,4.44003c-0.69789,-0.41209 -0.88963,-1.76126 -1.63136,-2.55573c-1.30083,-1.39328 -2.42319,-1.50408 -3.81032,-2.82918c-1.20924,-1.15517 -1.32164,-2.75092 -2.18852,-3.18806c0.39668,-0.40028 -0.60029,-1.62854 -0.22001,-2.00982c7.58985,-7.60957 11.81472,-11.70956 8.76501,-23.38028c-0.83652,-3.20121 -2.57114,-9.28725 -6.37919,-11.04674c4.91212,-1.1014 11.62741,7.0809 13.53083,16.16271c2.64899,12.63908 -0.6017,27.67512 -0.6017,27.67512z" fill="url(#color-1)" stroke="#ffffff" stroke-width="0.5" stroke-linecap="butt"/><path d="M230.33073,137.88163c23.26134,-5.3402 46.44744,9.18776 51.78764,32.44909c5.3402,23.26134 -9.18776,46.44744 -32.44909,51.78764c-23.26134,5.3402 -46.44744,-9.18776 -51.78764,-32.44909c-5.3402,-23.26134 9.18776,-46.44744 32.44909,-51.78764z" fill="none" stroke="none" stroke-width="0" stroke-linecap="butt"/></g></g></svg>