<svg version="1.1" xmlns="http://www.w3.org/2000/svg" xmlns:xlink="http://www.w3.org/1999/xlink" width="91.6048" height="91.6048" viewBox="0,0,91.6048,91.6048"><g transform="translate(-194.1976,-134.1976)"><g data-paper-data="{&quot;isPaintingLayer&quot;:true}" fill-rule="nonzero" stroke="none" stroke-linecap="butt" stroke-linejoin="miter" stroke-miterlimit="10" stroke-dasharray="" stroke-dashoffset="0" style="mix-blend-mode: normal"><path d="M285.8024,134.1976v91.6048h-91.6048v-91.6048z" data-paper-data="{&quot;index&quot;:null}" fill="none" stroke-width="NaN"/><path d="M252.84937,154.91903v2.96524h-7.4131v-2.96524z" data-paper-data="{&quot;index&quot;:null}" fill="#3b007c" stroke-width="NaN"/><path d="M256.06171,204.33968v0.74131h-37.5597v-0.74131z" data-paper-data="{&quot;index&quot;:null}" fill="#3b007c" stroke-width="0"/><path d="M255.8146,176.1699v4.20076h-11.36675v-4.20076z" data-paper-data="{&quot;index&quot;:null}" fill="#3b007c" stroke-width="0"/><path d="M211.58311,159.36688v9.63703h-11.86096v-9.63703z" data-paper-data="{&quot;index&quot;:null}" fill="#7d7d7d" stroke-width="0"/><path d="M223.69118,210.76436v1.48262h-22.7335v-1.48262z" data-paper-data="{&quot;index&quot;:null}" fill="#7d7d7d" stroke-width="0"/><path d="M248.1544,148.74144v3.95365h-18.77985v-3.95365z" data-paper-data="{&quot;index&quot;:null}" fill="#7d7d7d" stroke-width="0"/><path d="M263.96901,169.74522v2.96524h-3.95365v-2.96524z" data-paper-data="{&quot;index&quot;:null}" fill="#7d7d7d" stroke-width="0"/><path d="M212.07733,185.31273v0.98841h-7.6602v-0.98841z" data-paper-data="{&quot;index&quot;:null}" fill="#000000" stroke-width="0"/><path d="M280.27783,207.79912v5.18917h-19.52116v-5.18917z" data-paper-data="{&quot;index&quot;:null}" fill="#000000" stroke-width="0"/><path d="M272.61762,185.80694v4.94207h-29.15819v-4.94207z" data-paper-data="{&quot;index&quot;:null}" fill="#000000" stroke-width="0"/><path d="M222.45566,146.76461v5.68338h-9.38992v-5.68338z" data-paper-data="{&quot;index&quot;:null}" fill="#000000" stroke-width="0"/><path d="M266.93425,208.54043v3.70655h-22.7335v-3.70655z" data-paper-data="{&quot;index&quot;:null}" fill="#ffffff" stroke-width="0"/><path d="M270.6408,196.92658v2.96524h-18.03854v-2.96524z" data-paper-data="{&quot;index&quot;:null}" fill="#ffffff" stroke-width="0"/><path d="M273.35894,154.1777v3.95365h-3.21234v-3.95365z" data-paper-data="{&quot;index&quot;:null}" fill="#ffffff" stroke-width="0"/><path d="M212.32442,202.60995v2.96524h-6.17758v-2.96524z" data-paper-data="{&quot;index&quot;:null}" fill="#ffffff" stroke-width="0"/><path d="M226.65641,176.66412v2.96524h-22.23929v-2.96524z" data-paper-data="{&quot;index&quot;:null}" fill="#ffffff" stroke-width="0"/><path d="M235.79924,145.03489v4.69496h-5.93048v-4.69496z" data-paper-data="{&quot;index&quot;:null}" fill="#ffffff" stroke-width="0"/><path d="M261.74508,145.03489v0.98841h-17.79144v-0.98841z" data-paper-data="{&quot;index&quot;:null}" fill="#ffffff" stroke-width="0"/><path d="M224.67959,191.98452v2.47103h-5.18917v-2.47103z" data-paper-data="{&quot;index&quot;:null}" fill="#7b00ff" stroke-width="0"/><path d="M249.88412,207.79912v1.72972h-5.93048v-1.72972z" data-paper-data="{&quot;index&quot;:null}" fill="#7b00ff" stroke-width="0"/><path d="M252.84936,195.44396v1.97683h-15.81461v-1.97683z" data-paper-data="{&quot;index&quot;:null}" fill="#7b00ff" stroke-width="0"/><path d="M246.42469,157.88426v4.44786h-3.70655v-4.44786z" data-paper-data="{&quot;index&quot;:null}" fill="#7b00ff" stroke-width="0"/><path d="M235.55214,175.18149v4.44786h-4.94207v-4.44786z" data-paper-data="{&quot;index&quot;:null}" fill="#7b00ff" stroke-width="0"/></g></g></svg>