<svg version="1.1" xmlns="http://www.w3.org/2000/svg" xmlns:xlink="http://www.w3.org/1999/xlink" width="54.5" height="54.5" viewBox="0,0,54.5,54.5"><g transform="translate(-212.59668,-145.56612)"><g data-paper-data="{&quot;isPaintingLayer&quot;:true}" fill-rule="nonzero" stroke-linejoin="miter" stroke-miterlimit="10" stroke-dasharray="" stroke-dashoffset="0" style="mix-blend-mode: normal"><path d="M212.59668,200.06612v-54.5h54.5v54.5z" fill="none" stroke="none" stroke-width="0" stroke-linecap="butt"/><path d="M231.27102,163.44088c0,0 2.32649,-5.85 3.0875,-5.85c1.7757,0 3.4125,5.85 3.4125,5.85" fill="none" stroke="#ffffff" stroke-width="2.5" stroke-linecap="round"/><path d="M243.02102,163.31588c0,0 2.32649,-5.85 3.0875,-5.85c1.7757,0 3.4125,5.85 3.4125,5.85" fill="none" stroke="#ffffff" stroke-width="2.5" stroke-linecap="round"/><path d="M236.74983,191.61059h-2.16618v-4.86416" data-paper-data="{&quot;index&quot;:null}" fill="none" stroke="#ffffff" stroke-width="3" stroke-linecap="round"/><path d="M247.08313,191.67868h-2.24951v-4.77217" fill="none" stroke="#ffffff" stroke-width="3" stroke-linecap="round"/><path d="M229.3334,185.56987c-0.97865,-0.97847 -0.75,-1.41177 -0.75,-2.79541c0,-4.15093 0,-9.83201 0,-16.125c0,-1.29942 -0.19728,-1.69013 0.75,-2.57959c0.94728,-0.88946 1.41216,-0.75 2.79606,-0.75c6.19542,0 11.87995,0 15.875,0c1.33168,0 1.76007,-0.22949 2.66227,0.75c0.9022,0.97949 0.75,1.50883 0.75,2.95459c0,6.09786 0,11.32773 0,15.625c0,1.43242 0.22531,1.87131 -0.75,2.92041c-0.97531,1.0491 -1.33059,0.75 -2.66227,0.75c-1.33168,0 -11.72331,0 -15.875,0c-1.3839,0 -1.81741,0.22847 -2.79606,-0.75z" fill="#3c0000" stroke="#ff3333" stroke-width="2.5" stroke-linecap="butt"/><path d="M236.25443,172.64943h-5" fill="none" stroke="#ffffff" stroke-width="2.5" stroke-linecap="round"/><path d="M248.87944,172.52443h-5" fill="none" stroke="#ffffff" stroke-width="2.5" stroke-linecap="round"/><path d="M231.84599,177.40817c0,-0.9665 0.7835,-1.75 1.75,-1.75c0.9665,0 1.75,0.7835 1.75,1.75c0,0.9665 -0.7835,1.75 -1.75,1.75c-0.9665,0 -1.75,-0.7835 -1.75,-1.75z" fill="#ffffff" stroke="none" stroke-width="0.5" stroke-linecap="butt"/><path d="M244.75663,177.25628c0,-0.9665 0.7835,-1.75 1.75,-1.75c0.9665,0 1.75,0.7835 1.75,1.75c0,0.9665 -0.7835,1.75 -1.75,1.75c-0.9665,0 -1.75,-0.7835 -1.75,-1.75z" fill="#ffffff" stroke="none" stroke-width="0.5" stroke-linecap="butt"/></g></g></svg>