<svg version="1.1" xmlns="http://www.w3.org/2000/svg" xmlns:xlink="http://www.w3.org/1999/xlink" width="54.5" height="54.5" viewBox="0,0,54.5,54.5"><g transform="translate(-212.59668,-145.56612)"><g data-paper-data="{&quot;isPaintingLayer&quot;:true}" fill-rule="nonzero" stroke-linejoin="miter" stroke-miterlimit="10" stroke-dasharray="" stroke-dashoffset="0" style="mix-blend-mode: normal"><path d="M212.59668,200.06612v-54.5h54.5v54.5z" fill="none" stroke="none" stroke-width="0" stroke-linecap="butt"/><path d="M234.99645,185.39489v5.875h-2.16618" data-paper-data="{&quot;index&quot;:null}" fill="none" stroke="#ffffff" stroke-width="3" stroke-linecap="round"/><path d="M225.70168,161.92276c0,0 0.64569,-6.26244 1.37795,-6.46965c1.70861,-0.4835 4.87646,4.69977 4.87646,4.69977" fill="none" stroke="#ffffff" stroke-width="2.5" stroke-linecap="round"/><path d="M236.97368,158.60307c0,0 0.64569,-6.26244 1.37795,-6.46965c1.70861,-0.4835 4.87646,4.69977 4.87646,4.69977" fill="none" stroke="#ffffff" stroke-width="2.5" stroke-linecap="round"/><path d="M253.44357,185.20776l-1.71923,1.4507l-3.71711,-4.40517" fill="none" stroke="#ffffff" stroke-width="3" stroke-linecap="round"/><path d="M229.22868,182.35964c-1.13026,-3.99409 -2.67716,-9.4605 -4.39068,-15.51572c-0.35382,-1.25032 -0.65003,-1.57255 0.01926,-2.68634c0.66929,-1.11378 1.15458,-1.10617 2.48619,-1.483c5.96133,-1.68695 11.43107,-3.23479 15.27516,-4.32261c1.28137,-0.3626 1.63108,-0.70007 2.76589,-0.00324c1.13482,0.69682 1.1325,1.2476 1.52616,2.63873c1.66038,5.86746 3.08443,10.89972 4.25453,15.03461c0.39003,1.37829 0.72633,1.73925 0.07354,3.01428c-0.6528,1.27502 -1.0761,1.08397 -2.35745,1.44657c-1.28137,0.3626 -11.28035,3.19214 -15.27516,4.32261c-1.33161,0.37682 -1.68653,0.7147 -2.89462,0.03968c-1.20809,-0.67502 -1.48282,-2.48558 -1.48282,-2.48558z" fill="#3c0000" stroke="#ff3333" stroke-width="2.5" stroke-linecap="butt"/><path d="M228.80354,170.18906l4.81108,-1.36145" fill="none" stroke="#ffffff" stroke-width="2.5" stroke-linecap="round"/><path d="M245.16609,165.42884l-4.81108,1.36145" fill="none" stroke="#ffffff" stroke-width="2.5" stroke-linecap="round"/><path d="M230.25134,174.97571c0,0 1.13436,-1.53602 1.875,-1.74561c0.84837,-0.24007 2.93608,0.38416 2.93608,0.38416" fill="none" stroke="#ffffff" stroke-width="2.5" stroke-linecap="round"/><path d="M241.83466,171.68942c0,0 1.00847,-1.74341 1.81266,-1.97097c0.79947,-0.22624 2.99842,0.60953 2.99842,0.60953" fill="none" stroke="#ffffff" stroke-width="2.5" stroke-linecap="round"/></g></g></svg>