<svg version="1.1" xmlns="http://www.w3.org/2000/svg" xmlns:xlink="http://www.w3.org/1999/xlink" width="46.75" height="46.75" viewBox="0,0,46.75,46.75"><defs><linearGradient x1="248.36658" y1="191.94793" x2="248.36658" y2="197.16754" gradientUnits="userSpaceOnUse" id="color-1"><stop offset="0" stop-color="#505050"/><stop offset="1" stop-color="#444444"/></linearGradient></defs><g transform="translate(-216.625,-156.625)"><g data-paper-data="{&quot;isPaintingLayer&quot;:true}" fill-rule="nonzero" stroke-linejoin="miter" stroke-miterlimit="10" stroke-dasharray="" stroke-dashoffset="0" style="mix-blend-mode: normal"><path d="M229.88594,191.16915c-0.86789,-1.50279 -1.13867,-22.31552 3.07927,-25.81552c4.26957,-3.54284 17.53423,0.2773 17.53423,9.40639c0,3.64426 2.02301,10.48339 0.80886,13.21596c-1.64911,3.71147 -6.59595,5.50539 -9.99525,5.82005c0,0 -10.74176,-1.44017 -11.42711,-2.62688z" data-paper-data="{&quot;index&quot;:null}" fill="#3a536f" stroke="#ababab" stroke-width="2" stroke-linecap="butt"/><g fill="none" stroke="#a064e8" stroke-width="2" stroke-linecap="round"><path d="M242.55525,171.75182c0,0 0.63034,4.40537 0.02364,6.97093c-0.39548,1.67236 -4.03425,1.4129 -4.59447,2.59924c-0.81142,1.71831 1.01765,4.34449 -0.69314,5.17782c-1.9438,0.94676 -1.20457,5.30428 -1.84575,3.23943c-0.42521,-1.36932 -2.31761,-2.56086 -2.31761,-2.56086c0,0 -0.56826,-5.98483 0,-7.71329c0.21784,-0.66259 0.80394,-1.16929 1.49625,-1.69695c1.11367,-0.84881 3.93075,-1.32327 4.50315,-3.01666c0.92825,-2.74607 0.71428,-11.14123 0.71428,-11.14123"/><path d="M232.69938,187.17838c0,0 -3.42982,0.15738 -5.0594,-1.86773c-2.70546,-3.36213 -1.51118,-14.41587 -1.51118,-14.41587"/><path d="M242.12729,178.75239c0,0 -4.57336,-0.84876 -5.47169,-1.8162c-0.95509,-1.02856 -0.67037,-8.32533 -0.67037,-8.32533"/><path d="M230.98532,170.75195c0,0 -0.24127,3.43687 -0.50378,4.15281c-0.26123,0.71244 -3.92421,1.70358 -3.92421,1.70358"/><path d="M245.26918,178.32239c0,0 0.0102,4.35823 -1.03897,5.53588c-1.24889,1.4018 -5.96012,2.32025 -5.96012,2.32025"/></g><path d="M216.625,203.375v-46.75h46.75v46.75z" fill="none" stroke="none" stroke-width="2" stroke-linecap="butt"/><path d="M250.22913,180.46866c0,1.97245 1.38608,11.78571 -0.42857,11.78571c-0.42189,0 -2.78303,1.12716 -6.514,1.53849c-3.73097,0.41134 -5.32159,-0.03765 -6.17779,-0.26579c-1.82727,-0.48689 -4.59289,-1.86913 -4.53939,-2.7737c0.25089,-4.24219 8.51689,-10.91758 8.51689,-12.07043c0,-0.94427 0.83715,-1.37439 1.38773,-2.01301c0.59951,-0.69537 0.95206,-1.55841 1.89798,-1.55841c1.13419,0 1.13415,0.19607 1.72461,1.14612c0.35425,0.56999 4.13253,3.47139 4.13253,4.21103z" fill="#3a7049" stroke="none" stroke-width="0" stroke-linecap="butt"/><g data-paper-data="{&quot;index&quot;:null}" fill="none" stroke="#e7e964" stroke-width="2" stroke-linecap="round"><path d="M251.33632,179.55772c0,0 1.07917,9.98829 -1.36552,13.02636c-1.47251,1.82991 -4.57174,1.6877 -4.57174,1.6877"/><path d="M242.42993,177.49394c0,0 0.25728,6.59345 -0.60575,7.52287c-0.81174,0.87419 -4.94429,1.64114 -4.94429,1.64114"/><path d="M250.94909,184.72057c0,0 -3.30991,-0.89561 -3.54596,-1.53938c-0.23721,-0.64693 -0.45522,-3.75253 -0.45522,-3.75253"/><path d="M240.3653,193.3683c0,0 -4.25712,-0.82992 -5.38564,-2.09661c-0.94804,-1.06414 -0.93883,-5.00229 -0.93883,-5.00229"/></g><g fill="none" stroke="#e95252" stroke-width="2" stroke-linecap="round"><path d="M244.44415,179.40262c0,0 0.63034,4.40537 0.02364,6.97093c-0.39548,1.67236 -4.03425,1.41291 -4.59447,2.59925c-0.81142,1.71831 1.01765,4.34449 -0.69314,5.17782c-1.49729,0.72928 -4.16337,0.67857 -4.16337,0.67857c0,0 -0.56826,-5.98483 0,-7.71329c0.21784,-0.66259 0.80394,-1.16929 1.49625,-1.69695c1.11367,-0.84881 3.93074,-1.32328 4.50315,-3.01667c0.92825,-2.74607 0.71429,-11.14124 0.71429,-11.14124"/><path d="M234.58828,194.82918c0,0 -3.42982,0.15738 -5.0594,-1.86773c-2.70546,-3.36213 -1.51118,-14.41587 -1.51118,-14.41587"/><path d="M244.01618,186.40319c0,0 -4.57336,-0.84876 -5.47169,-1.8162"/><path d="M232.87422,178.40275c0,0 -0.24127,3.43687 -0.50378,4.15281c-0.26123,0.71244 -3.92421,1.70358 -3.92421,1.70358"/><path d="M247.15808,185.97319c0,0 0.0102,4.35823 -1.03897,5.53588c-1.24889,1.4018 -5.96012,2.32025 -5.96012,2.32025"/></g><g fill="none" stroke="#64d5e8" stroke-width="2" stroke-linecap="round"><path d="M253.44414,178.97404c0,0 0.63034,4.40537 0.02364,6.97093c-0.39548,1.67236 -4.03425,1.4129 -4.59447,2.59924c-0.81142,1.71831 1.01765,4.34449 -0.69314,5.17782c-1.9438,0.94676 -0.63315,4.73286 -1.27433,2.66801c-0.42521,-1.36932 -2.88904,-1.98944 -2.88904,-1.98944c0,0 -0.56826,-5.98483 0,-7.71329c0.21784,-0.66259 0.80394,-1.16929 1.49625,-1.69695c1.11367,-0.84881 3.93075,-1.32327 4.50315,-3.01666c0.92825,-2.74607 0.71429,-11.14123 0.71429,-11.14123"/><path d="M243.58827,194.4006c0,0 -3.42982,0.15738 -5.0594,-1.86773c-2.70546,-3.36213 -1.51118,-14.41587 -1.51118,-14.41587"/><path d="M241.87421,177.97417c0,0 -0.24127,3.43687 -0.50378,4.15281c-0.26123,0.71244 -3.92421,1.70358 -3.92421,1.70358"/><path d="M256.15807,185.54461c0,0 0.0102,4.35823 -1.03897,5.53588c-1.24889,1.4018 -5.96012,2.32025 -5.96012,2.32025"/></g><path d="M250.80259,191.94794c1.60802,0 0.91455,4.3363 0.91455,4.3363c-0.46564,0.30375 -2.93337,0.8833 -3.53847,0.8833c-0.9661,0 -2.6693,-0.29773 -3.19892,-0.99417c-0.35189,-0.46274 0.23444,-1.62088 0.23444,-2.23801c0,-0.61713 3.98038,-1.98742 5.5884,-1.98742z" data-paper-data="{&quot;index&quot;:null}" fill="url(#color-1)" stroke="#ababab" stroke-width="2" stroke-linecap="butt"/><path d="M233.52015,171.15359c0.63549,-0.68019 2.16292,0.63832 2.16292,0.63832c0,0 0.84692,-1.84635 1.72534,-1.72441c0.87843,0.12194 0.17067,2.39108 0.17067,2.39108c0,0 1.99453,0.30395 1.80247,1.28929c-0.19206,0.98534 -2.03527,1.0189 -2.03527,1.0189c0,0 0.16782,1.81612 -0.78248,2.13733c-0.95031,0.3212 -1.13249,-1.72601 -1.13249,-1.72601c0,0 -1.64327,1.26101 -2.28644,0.49579c-0.64317,-0.76522 1.11109,-2.35449 1.11109,-2.35449c0,0 -1.37131,-1.48561 -0.73582,-2.1658z" fill="#f0bb51" stroke="#e3d5bc" stroke-width="1" stroke-linecap="butt"/></g></g></svg>