<svg version="1.1" xmlns="http://www.w3.org/2000/svg" xmlns:xlink="http://www.w3.org/1999/xlink" width="62.11111" height="62.11111" viewBox="0,0,62.11111,62.11111"><defs><linearGradient x1="244.08441" y1="165.70275" x2="261.64051" y2="181.53448" gradientUnits="userSpaceOnUse" id="color-1"><stop offset="0" stop-color="#ffff00"/><stop offset="1" stop-color="#ffc600"/></linearGradient><linearGradient x1="235.03782" y1="165.89577" x2="217.63658" y2="181.46214" gradientUnits="userSpaceOnUse" id="color-2"><stop offset="0" stop-color="#ffff00"/><stop offset="1" stop-color="#ffc600"/></linearGradient></defs><g transform="translate(-208.9445,-148.94448)"><g data-paper-data="{&quot;isPaintingLayer&quot;:true}" fill-rule="nonzero" stroke-linejoin="miter" stroke-miterlimit="10" stroke-dasharray="" stroke-dashoffset="0" style="mix-blend-mode: normal"><path d="M246.72648,162.75492c0.03448,-0.26813 0.33862,-0.19278 0.33862,-0.19278c0,0 5.09483,5.86268 7.13915,9.46482c2.04433,3.60213 2.71329,10.92718 -0.64269,11.63168c-2.24057,2.55747 -0.58688,-6.15438 -3.22782,-10.64234c-2.64093,-4.48796 -3.71067,-9.45698 -3.60725,-10.26138z" data-paper-data="{&quot;index&quot;:null,&quot;origRot&quot;:0}" fill="url(#color-1)" stroke="#9e3200" stroke-width="1.5" stroke-linecap="butt"/><path d="M240.00739,156.71803c6.8423,0 10.37025,9.18811 10.37025,17.99563c0,5.19972 2.40384,9.97322 0.01484,14.57348c-1.29974,2.5028 -6.8634,3.01251 -10.38509,3.01251c-5.72743,0 -9.79511,-0.51212 -10.87499,-2.70654c-1.30405,-2.64995 -0.40373,-10.0742 -0.40373,-13.03606c0,-8.80752 4.43643,-19.83902 11.27872,-19.83902z" data-paper-data="{&quot;index&quot;:null}" fill="#ffff00" stroke="#9e3200" stroke-width="1.5" stroke-linecap="butt"/><path d="M229.95605,190.18355c0,0 -0.33069,-4.08744 9.53893,-4.14762c9.16373,-0.05588 9.23611,4.76208 9.23611,4.76208c0,0 -5.18875,1.7247 -9.84176,1.58736c-10.40863,-0.30723 -8.93329,-2.20182 -8.93329,-2.20182z" data-paper-data="{&quot;index&quot;:null}" fill="#ffff94" stroke="#9e3200" stroke-width="1.5" stroke-linecap="butt"/><path d="M239.88492,172.87014c0.78048,0 1.41318,0.16349 1.41318,0.87049c0,0.707 -1.03647,1.68977 -1.41318,1.68977c-0.47766,0 -1.41318,-0.88036 -1.41318,-1.58736c0,-0.70699 0.6327,-0.9729 1.41318,-0.9729z" data-paper-data="{&quot;index&quot;:null}" fill="#ff3131" stroke="#9e3200" stroke-width="1.5" stroke-linecap="butt"/><path d="M251.36186,183.11822c0,0 0.0893,8.89151 -3.91858,8.2025c-2.70307,-0.46469 -3.05756,-9.11426 -3.05756,-9.11426" data-paper-data="{&quot;index&quot;:null}" fill="#ffff00" stroke="#9e3200" stroke-width="1.5" stroke-linecap="round"/><path d="M245.8465,172.98711c-1.04528,0 -1.89265,-0.8597 -1.89265,-1.9202c0,-1.0605 0.84737,-1.9202 1.89265,-1.9202c1.04528,0 1.89265,0.8597 1.89265,1.9202c0,1.0605 -0.84737,1.9202 -1.89265,1.9202z" data-paper-data="{&quot;index&quot;:null}" fill="#9e3200" stroke="none" stroke-width="0.5" stroke-linecap="butt"/><path d="M231.95636,171.0669c0,-1.0605 0.84737,-1.9202 1.89265,-1.9202c1.04528,0 1.89265,0.8597 1.89265,1.9202c0,1.0605 -0.84737,1.9202 -1.89265,1.9202c-1.04528,0 -1.89265,-0.8597 -1.89265,-1.9202z" data-paper-data="{&quot;index&quot;:null}" fill="#9e3200" stroke="none" stroke-width="0.5" stroke-linecap="butt"/><path d="M241.18595,177.64725c0,0 -1.0661,0.22611 -1.51651,0.22499c-0.42147,-0.00105 -1.10492,-0.2315 -1.10492,-0.2315" data-paper-data="{&quot;index&quot;:null}" fill="none" stroke="#9e3200" stroke-width="1.5" stroke-linecap="round"/><path d="M232.54777,167.15731c0,-0.96585 0.74126,-1.7677 1.75,-1.75c1.00874,0.0177 2.00162,0.78592 1.8125,1.8125" fill="none" stroke="#9e3200" stroke-width="1.5" stroke-linecap="round"/><path d="M243.81561,166.90731c0,-0.96585 0.74126,-1.7677 1.75,-1.75c1.00874,0.0177 2.00161,0.78591 1.8125,1.8125" fill="none" stroke="#9e3200" stroke-width="1.5" stroke-linecap="round"/><path d="M208.94451,211.05559v-62.11111h62.11111v62.11111z" data-paper-data="{&quot;index&quot;:null}" fill="none" stroke="none" stroke-width="NaN" stroke-linecap="butt"/><path d="M228.85995,173.06812c-2.59714,4.38937 -0.85882,12.84197 -3.12415,10.37817c-3.36267,-0.6513 -2.76498,-7.77898 -0.7558,-11.30123c2.00919,-3.52225 7.04673,-9.27259 7.04673,-9.27259c0,0 0.30339,-0.07629 0.34048,0.18403c0.11124,0.78096 -0.91011,5.62226 -3.50726,10.01162z" data-paper-data="{&quot;index&quot;:null,&quot;origRot&quot;:0}" fill="url(#color-2)" stroke="#9e3200" stroke-width="1.5" stroke-linecap="butt"/><path d="M235.36107,182.79225c0,0 -0.35449,8.64956 -3.05756,9.11426c-4.00788,0.68901 -3.91858,-8.2025 -3.91858,-8.2025" data-paper-data="{&quot;index&quot;:null}" fill="#ffff00" stroke="#9e3200" stroke-width="1.5" stroke-linecap="round"/></g></g></svg>