<svg version="1.1" xmlns="http://www.w3.org/2000/svg" xmlns:xlink="http://www.w3.org/1999/xlink" width="495.52109" height="380" viewBox="0,0,495.52109,380"><defs><radialGradient cx="42.51172" cy="136.54297" r="16" gradientUnits="userSpaceOnUse" id="color-1"><stop offset="0" stop-color="#ff0000"/><stop offset="1" stop-color="#ff0000" stop-opacity="0"/></radialGradient><radialGradient cx="63.01172" cy="267.54297" r="16" gradientUnits="userSpaceOnUse" id="color-2"><stop offset="0" stop-color="#ff0000"/><stop offset="1" stop-color="#ff0000" stop-opacity="0"/></radialGradient><radialGradient cx="440.51172" cy="266.54297" r="16" gradientUnits="userSpaceOnUse" id="color-3"><stop offset="0" stop-color="#ff0000"/><stop offset="1" stop-color="#ff0000" stop-opacity="0"/></radialGradient><radialGradient cx="436.7994" cy="270.11759" r="9.01901" gradientUnits="userSpaceOnUse" id="color-4"><stop offset="0" stop-color="#e41d1d"/><stop offset="1" stop-color="#9a0000"/></radialGradient><radialGradient cx="436.48727" cy="270.4522" r="8.12836" gradientUnits="userSpaceOnUse" id="color-5"><stop offset="0" stop-color="#fc2c2c"/><stop offset="1" stop-color="#cd2323"/></radialGradient><radialGradient cx="443.95259" cy="263.60228" r="15.14549" gradientUnits="userSpaceOnUse" id="color-6"><stop offset="0" stop-color="#fc2c2c"/><stop offset="1" stop-color="#cd2323"/></radialGradient><radialGradient cx="38.58229" cy="137.40959" r="7.3118" gradientUnits="userSpaceOnUse" id="color-7"><stop offset="0" stop-color="#e41d1d"/><stop offset="1" stop-color="#9a0000"/></radialGradient><radialGradient cx="38.31297" cy="137.66471" r="6.70954" gradientUnits="userSpaceOnUse" id="color-8"><stop offset="0" stop-color="#fc2c2c"/><stop offset="1" stop-color="#cd2323"/></radialGradient><radialGradient cx="45.58362" cy="134.63562" r="12.22395" gradientUnits="userSpaceOnUse" id="color-9"><stop offset="0" stop-color="#fc2c2c"/><stop offset="1" stop-color="#cd2323"/></radialGradient><radialGradient cx="10.65692" cy="48.84308" r="51.47304" gradientUnits="userSpaceOnUse" id="color-10"><stop offset="0" stop-color="#805c5c"/><stop offset="1" stop-color="#755959"/></radialGradient><radialGradient cx="31.24614" cy="35.91496" r="37.10847" gradientUnits="userSpaceOnUse" id="color-11"><stop offset="0" stop-color="#805c5c"/><stop offset="1" stop-color="#755959"/></radialGradient><radialGradient cx="51.35654" cy="46.68839" r="45.48781" gradientUnits="userSpaceOnUse" id="color-12"><stop offset="0" stop-color="#805c5c"/><stop offset="1" stop-color="#755959"/></radialGradient><radialGradient cx="68.59402" cy="22.50804" r="22.26509" gradientUnits="userSpaceOnUse" id="color-13"><stop offset="0" stop-color="#805c5c"/><stop offset="1" stop-color="#755959"/></radialGradient><radialGradient cx="83.91623" cy="13.41048" r="12.20989" gradientUnits="userSpaceOnUse" id="color-14"><stop offset="0" stop-color="#805c5c"/><stop offset="1" stop-color="#755959"/></radialGradient><radialGradient cx="469.57733" cy="48.57608" r="51.47305" gradientUnits="userSpaceOnUse" id="color-15"><stop offset="0" stop-color="#805c5c"/><stop offset="1" stop-color="#755959"/></radialGradient><radialGradient cx="448.98811" cy="35.64797" r="37.10848" gradientUnits="userSpaceOnUse" id="color-16"><stop offset="0" stop-color="#805c5c"/><stop offset="1" stop-color="#755959"/></radialGradient><radialGradient cx="428.87772" cy="46.42138" r="45.4878" gradientUnits="userSpaceOnUse" id="color-17"><stop offset="0" stop-color="#805c5c"/><stop offset="1" stop-color="#755959"/></radialGradient><radialGradient cx="411.64023" cy="22.24103" r="22.26509" gradientUnits="userSpaceOnUse" id="color-18"><stop offset="0" stop-color="#805c5c"/><stop offset="1" stop-color="#755959"/></radialGradient><radialGradient cx="396.31802" cy="13.14347" r="12.20988" gradientUnits="userSpaceOnUse" id="color-19"><stop offset="0" stop-color="#805c5c"/><stop offset="1" stop-color="#755959"/></radialGradient><radialGradient cx="62.08362" cy="267.63562" r="12.22395" gradientUnits="userSpaceOnUse" id="color-20"><stop offset="0" stop-color="#fc2c2c"/><stop offset="1" stop-color="#cd2323"/></radialGradient><radialGradient cx="76.76172" cy="338.79297" r="11.75" gradientUnits="userSpaceOnUse" id="color-21"><stop offset="0" stop-color="#9c0000"/><stop offset="1" stop-color="#9c0000" stop-opacity="0"/></radialGradient><radialGradient cx="76.06311" cy="338.82086" r="8.98654" gradientUnits="userSpaceOnUse" id="color-22"><stop offset="0" stop-color="#e41d1d"/><stop offset="1" stop-color="#9a0000"/></radialGradient><radialGradient cx="83.01172" cy="343.54297" r="8.50007" gradientUnits="userSpaceOnUse" id="color-23"><stop offset="0" stop-color="#9c0000"/><stop offset="1" stop-color="#9c0000" stop-opacity="0"/></radialGradient><radialGradient cx="82.51156" cy="343.46774" r="6.50095" gradientUnits="userSpaceOnUse" id="color-24"><stop offset="0" stop-color="#e41d1d"/><stop offset="1" stop-color="#9a0000"/></radialGradient><radialGradient cx="436.51172" cy="321.54297" r="8.50007" gradientUnits="userSpaceOnUse" id="color-25"><stop offset="0" stop-color="#9c0000"/><stop offset="1" stop-color="#9c0000" stop-opacity="0"/></radialGradient><radialGradient cx="437.36552" cy="321.58212" r="5.39515" gradientUnits="userSpaceOnUse" id="color-26"><stop offset="0" stop-color="#fc2c2c"/><stop offset="1" stop-color="#cd2323"/></radialGradient><radialGradient cx="427.01172" cy="31.54297" r="11.49938" gradientUnits="userSpaceOnUse" id="color-27"><stop offset="0" stop-color="#ff0000"/><stop offset="1" stop-color="#ff0000" stop-opacity="0"/></radialGradient><radialGradient cx="426.79556" cy="31.09849" r="8.5194" gradientUnits="userSpaceOnUse" id="color-28"><stop offset="0" stop-color="#fc2c2c"/><stop offset="1" stop-color="#cd2323"/></radialGradient><radialGradient cx="426.84828" cy="31.35276" r="8.10347" gradientUnits="userSpaceOnUse" id="color-29"><stop offset="0" stop-color="#fc2c2c"/><stop offset="1" stop-color="#cd2323"/></radialGradient><radialGradient cx="22.01173" cy="16.04297" r="8.5" gradientUnits="userSpaceOnUse" id="color-30"><stop offset="0" stop-color="#ff0000"/><stop offset="1" stop-color="#ff0000" stop-opacity="0"/></radialGradient><radialGradient cx="471.01173" cy="12.04297" r="5.5" gradientUnits="userSpaceOnUse" id="color-31"><stop offset="0" stop-color="#ff0000"/><stop offset="1" stop-color="#ff0000" stop-opacity="0"/></radialGradient><radialGradient cx="79.01173" cy="8.04297" r="5.5" gradientUnits="userSpaceOnUse" id="color-32"><stop offset="0" stop-color="#ff0000"/><stop offset="1" stop-color="#ff0000" stop-opacity="0"/></radialGradient><radialGradient cx="9.01173" cy="337.04297" r="8.5" gradientUnits="userSpaceOnUse" id="color-33"><stop offset="0" stop-color="#ff0000"/><stop offset="1" stop-color="#ff0000" stop-opacity="0"/></radialGradient><radialGradient cx="436.29013" cy="345.26456" r="6.27841" gradientUnits="userSpaceOnUse" id="color-34"><stop offset="0" stop-color="#ff0000"/><stop offset="1" stop-color="#ff0000" stop-opacity="0"/></radialGradient><radialGradient cx="462.23332" cy="277.82138" r="6.27841" gradientUnits="userSpaceOnUse" id="color-35"><stop offset="0" stop-color="#ff0000"/><stop offset="1" stop-color="#ff0000" stop-opacity="0"/></radialGradient><radialGradient cx="411.19462" cy="0.22586" r="2.68289" gradientUnits="userSpaceOnUse" id="color-36"><stop offset="0" stop-color="#ff0000"/><stop offset="1" stop-color="#ff0000" stop-opacity="0"/></radialGradient><radialGradient cx="464.02942" cy="319.86008" r="2.68289" gradientUnits="userSpaceOnUse" id="color-37"><stop offset="0" stop-color="#ff0000"/><stop offset="1" stop-color="#ff0000" stop-opacity="0"/></radialGradient><radialGradient cx="382.01173" cy="348.04297" r="8.5" gradientUnits="userSpaceOnUse" id="color-38"><stop offset="0" stop-color="#ff0000"/><stop offset="1" stop-color="#ff0000" stop-opacity="0"/></radialGradient><radialGradient cx="44.01173" cy="351.04297" r="7.5" gradientUnits="userSpaceOnUse" id="color-39"><stop offset="0" stop-color="#ff0000"/><stop offset="1" stop-color="#ff0000" stop-opacity="0"/></radialGradient><radialGradient cx="49.51173" cy="169.04297" r="5.5" gradientUnits="userSpaceOnUse" id="color-40"><stop offset="0" stop-color="#ff0000"/><stop offset="1" stop-color="#ff0000" stop-opacity="0"/></radialGradient><radialGradient cx="28.51173" cy="150.04297" r="5.5" gradientUnits="userSpaceOnUse" id="color-41"><stop offset="0" stop-color="#ff0000"/><stop offset="1" stop-color="#ff0000" stop-opacity="0"/></radialGradient></defs><g transform="translate(7.75937,12.70703)"><g data-paper-data="{&quot;isPaintingLayer&quot;:true}" fill-rule="nonzero" stroke-linejoin="miter" stroke-miterlimit="10" stroke-dasharray="" stroke-dashoffset="0" style="mix-blend-mode: normal"><path d="M-6,366.5v-373h492v373z" fill="#240a0a" stroke="#000000" stroke-width="0.5" stroke-linecap="butt"/><path d="M26.51172,136.54297c0,-8.83656 7.16344,-16 16,-16c8.83656,0 16,7.16344 16,16c0,8.83656 -7.16344,16 -16,16c-8.83656,0 -16,-7.16344 -16,-16z" fill="url(#color-1)" stroke="#808080" stroke-width="0" stroke-linecap="butt"/><path d="M47.01172,267.54297c0,-8.83655 7.16344,-16 16,-16c8.83656,0 16,7.16344 16,16c0,8.83656 -7.16344,16 -16,16c-8.83656,0 -16,-7.16344 -16,-16z" fill="url(#color-2)" stroke="#808080" stroke-width="0" stroke-linecap="butt"/><path d="M424.51172,266.54297c0,-8.83655 7.16345,-16 16,-16c8.83655,0 16,7.16345 16,16c0,8.83656 -7.16345,16 -16,16c-8.83655,0 -16,-7.16344 -16,-16z" fill="url(#color-3)" stroke="#808080" stroke-width="0" stroke-linecap="butt"/><path d="M75.5,344.5v-329h329v329z" fill="#130000" stroke="none" stroke-width="0" stroke-linecap="butt"/><g fill="#381414" stroke="#000000" stroke-width="0" stroke-linecap="butt"><path d="M201.56666,138.45558v-37h37v37z"/><path d="M161.43333,178.54447v-37h37v37z"/><path d="M121.56666,138.45558v-37h37v37z"/><path d="M81.43333,178.54447v-37h37v37z"/><path d="M201.56666,58.45557v-37h37v37z"/><path d="M161.43333,98.54447v-37h37v37z"/><path d="M121.56666,58.45557v-37h37v37z"/><path d="M81.43333,98.54447v-37h37v37z"/><path d="M361.56666,138.45558v-37h37v37z"/><path d="M321.43333,178.54447v-37h37v37z"/><path d="M281.56666,138.45558v-37h37v37z"/><path d="M241.43333,178.54447v-37h37v37z"/><path d="M361.56666,58.45557v-37h37v37z"/><path d="M321.43333,98.54447v-37h37v37z"/><path d="M281.56666,58.45557v-37h37v37z"/><path d="M241.43333,98.54447v-37h37v37z"/><path d="M201.56666,298.45556v-37h37v37z"/><path d="M161.43333,338.54446v-37h37v37z"/><path d="M121.56666,298.45556v-37h37v37z"/><path d="M81.43333,338.54446v-37h37v37z"/><path d="M201.56666,218.45558v-37h37v37z"/><path d="M161.43333,258.54447v-37h37v37z"/><path d="M121.56666,218.45558v-37h37v37z"/><path d="M81.43333,258.54447v-37h37v37z"/><path d="M361.56666,298.45556v-37h37v37z"/><path d="M321.43333,338.54446v-37h37v37z"/><path d="M281.56666,298.45556v-37h37v37z"/><path d="M241.43333,338.54446v-37h37v37z"/><path d="M361.56666,218.45558v-37h37v37z"/><path d="M321.43333,258.54447v-37h37v37z"/><path d="M281.56666,218.45558v-37h37v37z"/><path d="M241.43333,258.54447v-37h37v37z"/></g><g fill="#292727" stroke="#000000" stroke-width="0" stroke-linecap="butt"><path d="M161.43333,138.54447v-37h37v37z"/><path d="M201.56667,178.45558v-37h37v37z"/><path d="M81.43333,138.54447v-37h37v37z"/><path d="M121.56667,178.45558v-37h37v37z"/><path d="M161.43333,58.54447v-37h37v37z"/><path d="M201.56667,98.45558v-37h37v37z"/><path d="M81.43333,58.54447v-37h37v37z"/><path d="M121.56667,98.45558v-37h37v37z"/><path d="M321.43333,138.54447v-37h37v37z"/><path d="M361.56667,178.45558v-37h37v37z"/><path d="M241.43333,138.54447v-37h37v37z"/><path d="M281.56667,178.45558v-37h37v37z"/><path d="M321.43333,58.54447v-37h37v37z"/><path d="M361.56667,98.45558v-37h37v37z"/><path d="M241.43333,58.54447v-37h37v37z"/><path d="M281.56667,98.45558v-37h37v37z"/><path d="M161.43333,298.54445v-37h37v37z"/><path d="M201.56667,338.45557v-37h37v37z"/><path d="M81.43333,298.54445v-37h37v37z"/><path d="M121.56667,338.45557v-37h37v37z"/><path d="M161.43333,218.54447v-37h37v37z"/><path d="M201.56667,258.45556v-37h37v37z"/><path d="M81.43333,218.54447v-37h37v37z"/><path d="M121.56667,258.45556v-37h37v37z"/><path d="M321.43333,298.54445v-37h37v37z"/><path d="M361.56667,338.45557v-37h37v37z"/><path d="M241.43333,298.54445v-37h37v37z"/><path d="M281.56667,338.45557v-37h37v37z"/><path d="M321.43333,218.54447v-37h37v37z"/><path d="M361.56667,258.45556v-37h37v37z"/><path d="M241.43333,218.54447v-37h37v37z"/><path d="M281.56667,258.45556v-37h37v37z"/></g><g stroke="#c04a4a" stroke-width="1.5" stroke-linecap="round"><path d="M439.72637,267.6689l2.02486,9.27936l-1.00153,1.28008l-1.64931,0.66511l-1.37337,-0.21139l-4.98543,-8.30331l1.03721,-8.85251z" fill="url(#color-4)"/><path d="M433.86361,261.6903l3.70907,7.57708l3.0111,8.90812" fill="none"/><path d="M439.12991,278.58056l-4.18596,-8.23148l-1.09933,-8.02524" fill="url(#color-5)"/><path d="M439.59243,267.94605l-1.90852,1.40242l-2.79465,1.02888l-2.03458,0.22015" fill="none"/></g><g stroke="#c04a4a" stroke-width="1.5" stroke-linecap="round"><path d="M450.22145,261.70599l-2.64261,15.6741l-2.35378,1.36337l-2.97625,0.00432l-2.00107,-1.18483l-2.56402,-16.0047l7.13193,-13.10146z" fill="url(#color-6)"/><path d="M444.84505,248.7645l1.03471,14.08078l-0.87941,15.71265" fill="none"/><path d="M442.4898,278.28028l-1.36721,-15.39453l3.29783,-13.14918" fill="none"/><path d="M449.84059,262.05287l-3.83867,0.98774l-4.9819,-0.14506l-3.2971,-0.92703" fill="none"/></g><path d="M446.12819,272.09002c3.8007,-1.51182 13.2304,-1.51 16.20306,-0.93888c7.5512,1.45076 9.75877,10.24428 8.32592,17.70225c-1.43285,7.45798 -8.08056,7.19898 -15.63176,5.74822c-7.5512,-1.45076 -17.05455,-3.24459 -15.6217,-10.70256c0.86879,-4.52202 0.87057,-9.4805 6.72448,-11.80903z" data-paper-data="{&quot;index&quot;:null}" fill="#240a0a" stroke="#805c5c" stroke-width="2.5" stroke-linecap="butt"/><path d="M434.48048,160.91265c0,0 1.39991,1.92359 4.33067,-5.06941c0.69143,-1.64982 0.99399,-11.2884 2.82832,-23.33959c0.82791,-5.43922 0.844,-19.9319 1.84821,-24.77769c1.18153,-5.7015 3.29415,-1.33083 3.29415,-1.33083c0,0 0.70785,14.77118 2.5857,27.88326c1.79618,12.54186 4.75868,23.41756 5.06631,24.78143c0.62924,2.78975 4.99201,3.39269 4.99201,3.39269" data-paper-data="{&quot;index&quot;:null}" fill="none" stroke="#805c5c" stroke-width="2.5" stroke-linecap="round"/><path d="M423.35153,161.27232c0,0 0.74964,1.03007 2.31904,-2.71462c0.37025,-0.88346 0.53227,-6.04483 1.51453,-12.49813c0.44334,-2.91265 0.45195,-10.67334 0.9897,-13.26822c0.6327,-3.05309 1.76398,-0.71264 1.76398,-0.71264c0,0 0.37905,7.90983 1.38461,14.93122c0.96184,6.71604 2.54823,12.53988 2.71296,13.27022c0.33695,1.49388 2.67317,1.81675 2.67317,1.81675" data-paper-data="{&quot;index&quot;:null}" fill="none" stroke="#805c5c" stroke-width="2.5" stroke-linecap="round"/><path d="M84.02344,58.08594l1,-1l1,1l-1,1z" fill="#e08d8d" stroke="none" stroke-width="0.5" stroke-linecap="butt"/><path d="M187.02344,118.08594l1,-1l1,1l-1,1z" fill="#e08d8d" stroke="none" stroke-width="0.5" stroke-linecap="butt"/><path d="M90.02344,255.08594l1,-1l1,1l-1,1z" fill="#e08d8d" stroke="none" stroke-width="0.5" stroke-linecap="butt"/><path d="M235.02344,312.08594l1,-1l1,1l-1,1z" fill="#e08d8d" stroke="none" stroke-width="0.5" stroke-linecap="butt"/><path d="M373.02344,120.08594c0,-0.55228 0.44772,-1 1,-1c0.55228,0 1,0.44772 1,1c0,0.55228 -0.44772,1 -1,1c-0.55228,0 -1,-0.44772 -1,-1z" fill="#e08d8d" stroke="none" stroke-width="0.5" stroke-linecap="butt"/><path d="M442.02344,64.08594c0,-0.55228 0.44772,-1 1,-1c0.55228,0 1,0.44772 1,1c0,0.55228 -0.44772,1 -1,1c-0.55228,0 -1,-0.44772 -1,-1z" fill="#e08d8d" stroke="none" stroke-width="0.5" stroke-linecap="butt"/><path d="M457.02344,237.08594c0,-0.55228 0.44772,-1 1,-1c0.55228,0 1,0.44772 1,1c0,0.55228 -0.44772,1 -1,1c-0.55228,0 -1,-0.44772 -1,-1z" fill="#e08d8d" stroke="none" stroke-width="0.5" stroke-linecap="butt"/><path d="M16.02344,138.08594l1,-1l1,1l-1,1z" fill="#e08d8d" stroke="none" stroke-width="0.5" stroke-linecap="butt"/><path d="M54.02344,312.08594l1,-1l1,1l-1,1z" fill="#e08d8d" stroke="none" stroke-width="0.5" stroke-linecap="butt"/><path d="M13.02344,264.08594l1,-1l1,1l-1,1z" fill="#e0e0e0" stroke="none" stroke-width="0.5" stroke-linecap="butt"/><path d="M160.02344,349.08594l1,-1l1,1l-1,1z" fill="#e0e0e0" stroke="none" stroke-width="0.5" stroke-linecap="butt"/><path d="M238.02344,9.08594l1,-1l1,1l-1,1z" fill="#e0e0e0" stroke="none" stroke-width="0.5" stroke-linecap="butt"/><path d="M442.02344,190.08594c0,-0.55228 0.44772,-1 1,-1c0.55228,0 1,0.44772 1,1c0,0.55228 -0.44772,1 -1,1c-0.55228,0 -1,-0.44772 -1,-1z" fill="#e0e0e0" stroke="none" stroke-width="0.5" stroke-linecap="butt"/><path d="M10.02344,45.08594l1,-1l1,1l-1,1z" fill="#bd0000" stroke="none" stroke-width="0.5" stroke-linecap="butt"/><path d="M264.02344,243.08594l1,-1l1,1l-1,1z" fill="#bd0000" stroke="none" stroke-width="0.5" stroke-linecap="butt"/><path d="M435.02344,319.08594c0,-0.55228 0.44772,-1 1,-1c0.55228,0 1,0.44772 1,1c0,0.55228 -0.44772,1 -1,1c-0.55228,0 -1,-0.44772 -1,-1z" fill="#bd0000" stroke="none" stroke-width="0.5" stroke-linecap="butt"/><path d="M465.02344,342.08594c0,-0.55228 0.44772,-1 1,-1c0.55228,0 1,0.44772 1,1c0,0.55228 -0.44772,1 -1,1c-0.55228,0 -1,-0.44772 -1,-1z" fill="#bd0000" stroke="none" stroke-width="0.5" stroke-linecap="butt"/><path d="M456.02344,264.08594c0,-0.55228 0.44772,-1 1,-1c0.55228,0 1,0.44772 1,1c0,0.55228 -0.44772,1 -1,1c-0.55228,0 -1,-0.44772 -1,-1z" fill="#bd0000" stroke="none" stroke-width="0.5" stroke-linecap="butt"/><path d="M24.02344,198.08594l1,-1l1,1l-1,1z" fill="#bd0000" stroke="none" stroke-width="0.5" stroke-linecap="butt"/><g stroke="#c04a4a" stroke-width="1.5" stroke-linecap="round"><path d="M41.07336,135.57484l1.17355,7.60994l-0.87453,0.98562l-1.36788,0.45555l-1.10069,-0.23985l-3.61803,-6.96848l1.28277,-7.11114z" fill="url(#color-7)"/><path d="M36.62896,130.44348l2.62163,6.3169l1.99018,7.35895" fill="none"/><path d="M40.04407,144.37425l-2.97473,-6.8703l-0.48748,-6.54878" fill="url(#color-8)"/><path d="M40.9511,135.79239l-1.61456,1.03917l-2.31287,0.69252l-1.65733,0.07621" fill="none"/></g><g stroke="#c04a4a" stroke-width="1.5" stroke-linecap="round"><path d="M50.63017,133.5607l-3.49171,12.40442l-2.01569,0.89445l-2.39936,-0.25507l-1.51002,-1.12886l-0.67633,-13.12321l6.8868,-9.94076z" fill="url(#color-9)"/><path d="M47.42083,122.66225l-0.38922,11.43959l-2.07385,12.58866" fill="none"/><path d="M42.95828,146.24861l0.23534,-12.52742l3.8005,-10.3123" fill="none"/><path d="M50.29305,133.80721l-3.17994,0.46268l-4.00302,-0.54972l-2.57707,-1.03365" fill="none"/></g><g fill="none" stroke-width="2.5" stroke-linecap="round"><path d="M10.65692,100.31612v-102.94608" stroke="url(#color-10)"/><path d="M31.24614,73.02343v-74.21694" stroke="url(#color-11)"/><path d="M51.35654,92.1762v-90.97561" stroke="url(#color-12)"/><path d="M68.59402,0.24295v44.53017" stroke="url(#color-13)"/><path d="M83.91623,1.20059v24.41977" stroke="url(#color-14)"/><path d="M469.57733,-2.89697v102.94609" data-paper-data="{&quot;index&quot;:null}" stroke="url(#color-15)"/><path d="M448.98811,-1.46051v74.21695" data-paper-data="{&quot;index&quot;:null}" stroke="url(#color-16)"/><path d="M428.87772,91.90919v-90.97561" data-paper-data="{&quot;index&quot;:null}" stroke="url(#color-17)"/><path d="M411.64023,44.50611v-44.53017" data-paper-data="{&quot;index&quot;:null}" stroke="url(#color-18)"/><path d="M396.31802,0.93358v24.41977" data-paper-data="{&quot;index&quot;:null}" stroke="url(#color-19)"/></g><g stroke="#c04a4a" stroke-width="1.5" stroke-linecap="round"><path d="M67.13017,266.5607l-3.49171,12.40442l-2.01569,0.89445l-2.39936,-0.25507l-1.51002,-1.12886l-0.67633,-13.12321l6.8868,-9.94076z" fill="url(#color-20)"/><path d="M63.92083,255.66225l-0.38922,11.43959l-2.07385,12.58866" fill="none"/><path d="M59.45828,279.24861l0.23534,-12.52742l3.8005,-10.3123" fill="none"/><path d="M66.79305,266.80721l-3.17994,0.46268l-4.00302,-0.54972l-2.57707,-1.03365" fill="none"/></g><path d="M48.35988,280.73556c0,0 2.33622,-0.24243 2.67317,-1.36414c0.16473,-0.54839 1.75112,-4.92132 2.71296,-9.96418c1.00557,-5.27214 1.38462,-11.21137 1.38462,-11.21137c0,0 1.13129,-1.75737 1.76399,0.5351c0.53774,1.94841 0.54636,7.77566 0.9897,9.96268c0.98226,4.84557 1.14428,8.72108 1.51454,9.38444c1.56939,2.81176 2.31903,2.03832 2.31903,2.03832" fill="#240a0a" stroke="#805c5c" stroke-width="2.5" stroke-linecap="round"/><path d="M60.10383,166.55145c0,10.57777 -13.47036,10.53402 -24.18036,10.53402c-10.71,0 -19.87099,-1.3927 -19.87099,-11.97048c0,-10.57777 5.33043,-22.02567 16.04043,-22.02567c4.21618,0 17.11488,2.47555 21.91629,5.54226c7.39523,4.72339 6.09463,11.50621 6.09463,17.91987z" fill="#240a0a" stroke="#805c5c" stroke-width="2.5" stroke-linecap="butt"/><path d="M-3.98828,322.54297l29,-7l30,20.5l31,9l29,21" fill="none" stroke="#805c5c" stroke-width="2.5" stroke-linecap="round"/><path d="M486.51172,285.54297l-13.5,24l-22.5,7l-32.5,29l-41,-0.5l-22,17" fill="none" stroke="#805c5c" stroke-width="2.5" stroke-linecap="round"/><path d="M126.51172,-2.45703l-1.5,4l-40,9.5l-32,16.5l-26.5,-4.5l-25.5,16l-7.5,-1.5l1,-49" fill="#240a0a" stroke="#805c5c" stroke-width="2.5" stroke-linecap="round"/><path d="M65.02554,338.22325c0.31465,-6.48171 5.82418,-11.48111 12.3059,-11.16646c6.48172,0.31465 11.48111,5.82418 11.16646,12.3059c-0.31465,6.48172 -5.82418,11.48111 -12.3059,11.16646c-6.48172,-0.31465 -11.48111,-5.82418 -11.16646,-12.3059z" fill="url(#color-21)" stroke="#808080" stroke-width="0" stroke-linecap="butt"/><g stroke="#c04a4a" stroke-width="1.5" stroke-linecap="round"><path d="M79.81763,338.21911l-3.0029,8.97445l-1.51038,0.58432l-1.75088,-0.27253l-1.06742,-0.8818l-0.02881,-9.6501l5.40551,-7.04644z" fill="url(#color-22)"/><path d="M77.8516,330.1107l-0.69283,8.37721l-1.96944,9.16008" fill="none"/><path d="M73.73842,347.25266l0.61869,-9.18062l3.1549,-7.42886" fill="none"/><path d="M79.56157,338.38793l-2.349,0.22615l-2.91669,-0.54576l-1.8535,-0.84996" fill="none"/></g><path d="M74.75066,341.54144c1.10541,-4.56245 5.70013,-7.36494 10.26259,-6.25952c4.56246,1.10542 7.36494,5.70013 6.25952,10.26259c-1.10542,4.56246 -5.70013,7.36494 -10.26259,6.25952c-4.56246,-1.10542 -7.36494,-5.70013 -6.25952,-10.26259z" fill="url(#color-23)" stroke="#808080" stroke-width="0" stroke-linecap="butt"/><g stroke="#c04a4a" stroke-width="1.5" stroke-linecap="round"><path d="M85.26102,343.55101l-3.35457,5.9678l-1.15263,0.20967l-1.20692,-0.43185l-0.63843,-0.77175l1.29246,-6.86033l4.79931,-4.27106z" fill="url(#color-24)"/><path d="M84.96734,337.52249l-1.632,5.85776l-2.64555,6.24029" fill="none"/><path d="M79.7127,349.14226l1.68864,-6.43867l3.25228,-4.84898" fill="none"/><path d="M85.05612,343.63611l-1.69973,-0.15891l-1.99806,-0.78459l-1.20128,-0.85607" fill="none"/></g><path d="M440.72739,328.92398c-4.07642,2.32825 -9.26843,0.91108 -11.59668,-3.16533c-2.32825,-4.07642 -0.91108,-9.26843 3.16533,-11.59668c4.07642,-2.32825 9.26843,-0.91108 11.59668,3.16533c2.32825,4.07642 0.91108,9.26843 -3.16533,11.59668z" data-paper-data="{&quot;index&quot;:null}" fill="url(#color-25)" stroke="#808080" stroke-width="0" stroke-linecap="butt"/><g data-paper-data="{&quot;index&quot;:null}" stroke="#c04a4a" stroke-width="1.5" stroke-linecap="round"><path d="M432.89459,316.18697l5.79616,2.77127l3.1457,6.2321l-0.39916,0.91862l-1.03965,0.74985l-1.16553,0.11847l-4.87908,-4.80233z" fill="url(#color-26)"/><path d="M440.42921,326.73735l-4.27355,-5.26089l-3.19365,-5.17468" fill="none"/><path d="M433.35558,316.53378l4.47029,3.75584l3.40929,5.71706" fill="none"/><path d="M438.78064,319.1113l-0.91649,1.15584l-1.7018,1.30831l-1.58885,0.62441" fill="none"/></g><path d="M432.2058,21.28347c5.66616,2.86861 7.93403,9.78741 5.06542,15.45357c-2.86861,5.66616 -9.78741,7.93403 -15.45357,5.06542c-5.66616,-2.86861 -7.93403,-9.78741 -5.06542,-15.45357c2.86861,-5.66616 9.78741,-7.93403 15.45357,-5.06542z" data-paper-data="{&quot;index&quot;:null}" fill="url(#color-27)" stroke="#808080" stroke-width="0" stroke-linecap="butt"/><g data-paper-data="{&quot;index&quot;:null}" stroke="#c04a4a" stroke-width="1.5" stroke-linecap="round"><path d="M423.65842,39.61789l-1.18888,-8.60986l4.69386,-8.19528l1.33472,-0.23365l1.62133,0.61535l1.00213,1.2279l-1.7879,9.08745z" fill="url(#color-28)"/><path d="M429.95874,23.24929l-2.75686,8.74531l-3.46406,7.46163" fill="url(#color-29)"/><path d="M423.70659,38.83894l0.91073,-7.84618l3.91587,-8.10922" fill="none"/><path d="M422.57541,30.79249l1.98802,0.1738l2.74526,0.94701l1.88883,1.32898" fill="none"/></g><path d="M484.01172,-2.95703l1.5,55.5l-31.5,-28.5h-22.5l-23,-13.5l-44.5,-2.5l-6.5,-9" fill="#240a0a" stroke="#805c5c" stroke-width="2.5" stroke-linecap="round"/><g stroke-linecap="butt"><path d="M13.51173,16.04297c0,-4.69442 3.80558,-8.5 8.5,-8.5c4.69442,0 8.5,3.80558 8.5,8.5c0,4.69442 -3.80558,8.5 -8.5,8.5c-4.69442,0 -8.5,-3.80558 -8.5,-8.5z" fill="url(#color-30)" stroke="#808080" stroke-width="0"/><path d="M19.01641,16.13867l2.8,-2.4l2.2,3l-2,1.4z" fill="#ffb7b7" stroke="none" stroke-width="0.5"/></g><g stroke-linecap="butt"><path d="M465.51173,12.04297c0,-3.03757 2.46243,-5.5 5.5,-5.5c3.03757,0 5.5,2.46243 5.5,5.5c0,3.03757 -2.46243,5.5 -5.5,5.5c-3.03757,0 -5.5,-2.46243 -5.5,-5.5z" fill="url(#color-31)" stroke="#808080" stroke-width="0"/><path d="M469.07358,12.1049l1.81176,-1.55294l1.42353,1.94118l-1.29412,0.90588z" fill="#ffb7b7" stroke="none" stroke-width="0.5"/></g><g stroke-linecap="butt"><path d="M73.51172,8.04297c0,-3.03757 2.46243,-5.5 5.5,-5.5c3.03757,0 5.5,2.46243 5.5,5.5c0,3.03757 -2.46243,5.5 -5.5,5.5c-3.03757,0 -5.5,-2.46243 -5.5,-5.5z" fill="url(#color-32)" stroke="#808080" stroke-width="0"/><path d="M77.07358,8.1049l1.81176,-1.55294l1.42353,1.94118l-1.29412,0.90588z" fill="#ffb7b7" stroke="none" stroke-width="0.5"/></g><g stroke-linecap="butt"><path d="M0.51173,337.04297c0,-4.69442 3.80557,-8.5 8.5,-8.5c4.69442,0 8.5,3.80558 8.5,8.5c0,4.69442 -3.80558,8.5 -8.5,8.5c-4.69443,0 -8.5,-3.80558 -8.5,-8.5z" fill="url(#color-33)" stroke="#808080" stroke-width="0"/><path d="M6.01641,337.13868l2.8,-2.4l2.2,3l-2,1.39999z" fill="#ffb7b7" stroke="none" stroke-width="0.5"/></g><g stroke-linecap="butt"><path d="M430.01173,345.26456c0,-3.46747 2.81094,-6.27841 6.27841,-6.27841c3.46747,0 6.27841,2.81094 6.27841,6.27841c0,3.46747 -2.81094,6.27841 -6.27841,6.27841c-3.46747,0 -6.27841,-2.81094 -6.27841,-6.27841z" fill="url(#color-34)" stroke="#808080" stroke-width="0"/><path d="M434.07769,345.33525l2.06818,-1.77273l1.625,2.21591l-1.47727,1.03409z" fill="#ffb7b7" stroke="none" stroke-width="0.5"/></g><g stroke-linecap="butt"><path d="M455.95491,277.82138c0,-3.46747 2.81094,-6.27841 6.27841,-6.27841c3.46747,0 6.27841,2.81094 6.27841,6.27841c0,3.46747 -2.81094,6.27841 -6.27841,6.27841c-3.46747,0 -6.27841,-2.81094 -6.27841,-6.27841z" fill="url(#color-35)" stroke="#808080" stroke-width="0"/><path d="M460.02087,277.89207l2.06818,-1.77273l1.625,2.21591l-1.47727,1.03409z" fill="#ffb7b7" stroke="none" stroke-width="0.5"/></g><g stroke-linecap="butt"><path d="M408.51173,0.22586c0,-1.48172 1.20117,-2.68289 2.68289,-2.68289c1.48172,0 2.68289,1.20117 2.68289,2.68289c0,1.48172 -1.20117,2.68289 -2.68289,2.68289c-1.48172,0 -2.68289,-1.20117 -2.68289,-2.68289z" fill="url(#color-36)" stroke="#808080" stroke-width="0"/><path d="M410.24919,0.25607l0.88378,-0.75752l0.6944,0.9469l-0.63127,0.44189z" fill="#ffb7b7" stroke="none" stroke-width="0.5"/></g><g stroke-linecap="butt"><path d="M461.34653,319.86008c0,-1.48172 1.20117,-2.68289 2.68289,-2.68289c1.48172,0 2.68289,1.20117 2.68289,2.68289c0,1.48172 -1.20117,2.68289 -2.68289,2.68289c-1.48172,0 -2.68289,-1.20117 -2.68289,-2.68289z" fill="url(#color-37)" stroke="#808080" stroke-width="0"/><path d="M463.084,319.89029l0.88378,-0.75752l0.6944,0.9469l-0.63127,0.44189z" fill="#ffb7b7" stroke="none" stroke-width="0.5"/></g><g stroke-linecap="butt"><path d="M373.51173,348.04297c0,-4.69442 3.80557,-8.5 8.5,-8.5c4.69442,0 8.5,3.80558 8.5,8.5c0,4.69443 -3.80558,8.5 -8.5,8.5c-4.69443,0 -8.5,-3.80557 -8.5,-8.5z" fill="url(#color-38)" stroke="#808080" stroke-width="0"/><path d="M379.01641,348.13868l2.8,-2.4l2.2,3l-2,1.39999z" fill="#ffb7b7" stroke="none" stroke-width="0.5"/></g><g stroke-linecap="butt"><path d="M36.51173,351.04297c0,-4.14214 3.35786,-7.5 7.5,-7.5c4.14214,0 7.5,3.35786 7.5,7.5c0,4.14214 -3.35786,7.5 -7.5,7.5c-4.14214,0 -7.5,-3.35786 -7.5,-7.5z" fill="url(#color-39)" stroke="#808080" stroke-width="0"/><path d="M41.3688,351.12742l2.47059,-2.11765l1.94118,2.64706l-1.76471,1.23529z" fill="#ffb7b7" stroke="none" stroke-width="0.5"/></g><g stroke-linecap="butt"><path d="M44.01172,169.04297c0,-3.03757 2.46243,-5.5 5.5,-5.5c3.03757,0 5.5,2.46243 5.5,5.5c0,3.03757 -2.46243,5.5 -5.5,5.5c-3.03757,0 -5.5,-2.46243 -5.5,-5.5z" fill="url(#color-40)" stroke="#808080" stroke-width="0"/><path d="M47.57358,169.1049l1.81176,-1.55294l1.42353,1.94118l-1.29412,0.90588z" fill="#ffb7b7" stroke="none" stroke-width="0.5"/></g><g stroke-linecap="butt"><path d="M23.01172,150.04297c0,-3.03757 2.46243,-5.5 5.5,-5.5c3.03757,0 5.5,2.46243 5.5,5.5c0,3.03757 -2.46243,5.5 -5.5,5.5c-3.03757,0 -5.5,-2.46243 -5.5,-5.5z" fill="url(#color-41)" stroke="#808080" stroke-width="0"/><path d="M26.57358,150.1049l1.81176,-1.55294l1.42353,1.94118l-1.29412,0.90588z" fill="#ffb7b7" stroke="none" stroke-width="0.5"/></g></g></g></svg>