<svg version="1.1" xmlns="http://www.w3.org/2000/svg" xmlns:xlink="http://www.w3.org/1999/xlink" width="88.25" height="88.25" viewBox="0,0,88.25,88.25"><defs><radialGradient cx="240" cy="180" r="21.64286" gradientUnits="userSpaceOnUse" id="color-1"><stop offset="0" stop-color="#008fff"/><stop offset="1" stop-color="#008fff" stop-opacity="0"/></radialGradient></defs><g transform="translate(-195.875,-135.875)"><g data-paper-data="{&quot;isPaintingLayer&quot;:true}" fill-rule="nonzero" stroke-linejoin="miter" stroke-miterlimit="10" stroke-dasharray="" stroke-dashoffset="0" style="mix-blend-mode: normal"><path d="M218.35714,180c0,-11.95302 9.68984,-21.64286 21.64286,-21.64286c11.95302,0 21.64286,9.68984 21.64286,21.64286c0,11.95302 -9.68984,21.64286 -21.64286,21.64286c-11.95302,0 -21.64286,-9.68984 -21.64286,-21.64286z" fill="url(#color-1)" stroke="#8719ff" stroke-width="0" stroke-linecap="butt"/><path d="M195.875,224.125v-88.25h88.25v88.25z" fill="none" stroke="none" stroke-width="NaN" stroke-linecap="butt"/><path d="M214.64287,180.00002c0,-14.00436 11.35278,-25.35714 25.35714,-25.35714c14.00436,0 25.35714,11.35278 25.35714,25.35714c0,14.00436 -11.35278,25.35714 -25.35714,25.35714c-14.00436,0 -25.35714,-11.35278 -25.35714,-25.35714z" fill="none" stroke="#545454" stroke-width="1" stroke-linecap="butt"/><text transform="translate(234.81926,213.5463) scale(0.36433,0.36433)" font-size="40" xml:space="preserve" fill="#ffffff" fill-rule="nonzero" stroke="none" stroke-width="1" stroke-linecap="butt" stroke-linejoin="miter" stroke-miterlimit="10" stroke-dasharray="" stroke-dashoffset="0" font-family="Sans Serif" font-weight="normal" text-anchor="start" style="mix-blend-mode: normal"><tspan x="0" dy="0">D</tspan></text><path d="M231.75057,217.2062c-0.76295,-0.7628 -0.58469,-1.10059 -0.58469,-2.17926c0,-3.23602 0,-7.66491 0,-12.57085c0,-1.01301 -0.1538,-1.3176 0.58469,-2.01101c0.73849,-0.69341 1.1009,-0.5847 2.17977,-0.5847c4.82987,0 9.26146,0 12.37595,0c1.03816,0 1.37213,-0.1789 2.07547,0.5847c0.70335,0.7636 0.58469,1.17627 0.58469,2.30336c0,4.75382 0,8.83095 0,12.18105c0,1.11669 0.17565,1.45885 -0.58469,2.27671c-0.76034,0.81787 -1.03731,0.5847 -2.07547,0.5847c-1.03816,0 -9.13935,0 -12.37595,0c-1.07887,0 -1.41682,0.17811 -2.17977,-0.5847z" fill="none" stroke="#ffffff" stroke-width="1.5" stroke-linecap="butt"/><g fill="none" stroke="#68d5ff" stroke-width="2"><g><path d="M222.08042,180h35.83916" stroke-linecap="round"/><path d="M222.16757,173.39269c3.64911,0 6.60731,2.9582 6.60731,6.60731c0,3.64911 -2.9582,6.60731 -6.60731,6.60731" stroke-linecap="butt"/><path d="M257.83243,186.60731c-3.64911,0 -6.60731,-2.95818 -6.60731,-6.60731c0,-3.64912 2.95818,-6.60731 6.60731,-6.60731" data-paper-data="{&quot;index&quot;:null}" stroke-linecap="butt"/></g><g><path d="M230.99402,195.49206l18.01195,-30.9841" stroke-linecap="round"/><path d="M225.32559,192.09602c1.83396,-3.15477 5.87814,-4.22551 9.03292,-2.39154c3.15477,1.83396 4.22551,5.87814 2.39154,9.03292" stroke-linecap="butt"/><path d="M254.67441,167.90398c-1.83397,3.15478 -5.87814,4.22551 -9.03292,2.39154c-3.15478,-1.83397 -4.22551,-5.87814 -2.39154,-9.03292" data-paper-data="{&quot;index&quot;:null}" stroke-linecap="butt"/></g><g data-paper-data="{&quot;index&quot;:null}"><path d="M231.10362,164.44476l17.79277,31.11049" stroke-linecap="round"/><path d="M243.1176,198.75987c-1.81164,-3.16765 -0.71239,-7.20416 2.45526,-9.01581c3.16765,-1.81164 7.20415,-0.71239 9.01581,2.45526" stroke-linecap="butt"/><path d="M236.8824,161.24013c1.81165,3.16765 0.7124,7.20416 -2.45526,9.01581c-3.16765,1.81165 -7.20415,0.7124 -9.01581,-2.45526" data-paper-data="{&quot;index&quot;:null}" stroke-linecap="butt"/></g><path d="M247.04536,183.86948l-14.09072,-7.73895" stroke-linecap="round"/><path d="M232.95464,183.86948l14.09072,-7.73895" data-paper-data="{&quot;index&quot;:null}" stroke-linecap="round"/><path d="M240.01553,188.03802l-0.03108,-16.07604" data-paper-data="{&quot;index&quot;:null}" stroke-linecap="round"/></g></g></g></svg>