<svg version="1.1" xmlns="http://www.w3.org/2000/svg" xmlns:xlink="http://www.w3.org/1999/xlink" width="77.1" height="77.1" viewBox="0,0,77.1,77.1"><g transform="translate(-201.45,-141.45)"><g data-paper-data="{&quot;isPaintingLayer&quot;:true}" fill-rule="nonzero" stroke-linejoin="miter" stroke-miterlimit="10" stroke-dasharray="" stroke-dashoffset="0" style="mix-blend-mode: normal"><path d="M232.36852,191.36871c0,0 -4.57803,1.59617 -3.98955,-0.0859c0.58848,-1.68207 2.59397,-2.51093 4.47936,-1.85131c1.88539,0.65961 2.93676,2.55794 2.34828,4.24c-0.58848,1.68207 -2.83808,-2.3028 -2.83808,-2.3028z" fill="#cf8a18" stroke="#ffaa2a" stroke-width="2" stroke-linecap="butt"/><path d="M249.60108,181.75423l3.83724,0.72543l-2.06245,4.02548l-2.84012,-2.15225" data-paper-data="{&quot;index&quot;:null}" fill="#aa7014" stroke="#ffaa2a" stroke-width="2" stroke-linecap="round"/><path d="M230.80573,184.07322l-3.10523,1.74811l-1.49876,-4.26755l3.90011,-0.19951" data-paper-data="{&quot;index&quot;:null}" fill="#aa7014" stroke="#ffaa2a" stroke-width="2" stroke-linecap="round"/><path d="M241.04259,169.13097c5.36389,0.66435 9.17361,5.5512 8.50926,10.91509c-1.0734,8.66646 -15.54522,9.73222 -16.46017,8.88323c-1.3928,-1.29239 -3.43782,-7.46502 -2.96419,-11.28905c0.66435,-5.36389 5.5512,-9.17361 10.91509,-8.50926z" data-paper-data="{&quot;index&quot;:null}" fill="#aa7014" stroke="#ffaa2a" stroke-width="2" stroke-linecap="butt"/><path d="M239.76823,166.49938v2.12748" data-paper-data="{&quot;index&quot;:null}" fill="none" stroke="#ffaa2a" stroke-width="2" stroke-linecap="round"/><path d="M250.12193,178.98057h1.70198" data-paper-data="{&quot;index&quot;:null}" fill="none" stroke="#ffaa2a" stroke-width="2" stroke-linecap="round"/><path d="M227.85437,179.05149h1.84381" data-paper-data="{&quot;index&quot;:null}" fill="none" stroke="#ffaa2a" stroke-width="2" stroke-linecap="round"/><path d="M235.26119,169.55281l-0.96689,-1.78576" data-paper-data="{&quot;index&quot;:null}" fill="none" stroke="#ffaa2a" stroke-width="2" stroke-linecap="round"/><path d="M245.44486,167.8707l-0.88112,1.16445" data-paper-data="{&quot;index&quot;:null}" fill="none" stroke="#ffaa2a" stroke-width="2" stroke-linecap="round"/><path d="M232.00295,178.50523c0,-1.46871 1.19063,-2.65934 2.65934,-2.65934c1.46871,0 2.65934,1.19063 2.65934,2.65934c0,1.46871 -1.19063,2.65934 -2.65934,2.65934c-1.46871,0 -2.65934,-1.19063 -2.65934,-2.65934z" data-paper-data="{&quot;index&quot;:null}" fill="#ffffff" stroke="none" stroke-width="0.5" stroke-linecap="butt"/><path d="M242.64032,178.50524c0,-1.46871 1.19063,-2.65934 2.65934,-2.65934c1.46871,0 2.65934,1.19063 2.65934,2.65934c0,1.46871 -1.19063,2.65934 -2.65934,2.65934c-1.46871,0 -2.65934,-1.19063 -2.65934,-2.65934z" data-paper-data="{&quot;index&quot;:null}" fill="#ffffff" stroke="none" stroke-width="0.5" stroke-linecap="butt"/><text transform="translate(238.46538,182.09172) scale(0.16251,0.16249)" font-size="40" xml:space="preserve" data-paper-data="{&quot;index&quot;:null}" fill="#ffffff" fill-rule="nonzero" stroke="#ffffff" stroke-width="2" stroke-linecap="butt" stroke-linejoin="miter" stroke-miterlimit="10" stroke-dasharray="" stroke-dashoffset="0" font-family="Sans Serif" font-weight="normal" text-anchor="start" style="mix-blend-mode: normal"><tspan x="0" dy="0">3</tspan></text><path d="M231.86112,172.42086l-1.45378,-1.45377" data-paper-data="{&quot;index&quot;:null}" fill="none" stroke="#ffaa2a" stroke-width="2" stroke-linecap="round"/><path d="M248.95183,170.7898l-1.31194,1.31194" data-paper-data="{&quot;index&quot;:null}" fill="none" stroke="#ffaa2a" stroke-width="2" stroke-linecap="round"/><path d="M250.19286,175.36387l1.27649,-0.70916" data-paper-data="{&quot;index&quot;:null}" fill="none" stroke="#ffaa2a" stroke-width="2" stroke-linecap="round"/><path d="M229.91093,175.5057l-1.27649,-0.70916" data-paper-data="{&quot;index&quot;:null}" fill="none" stroke="#ffaa2a" stroke-width="2" stroke-linecap="round"/><path d="M201.45,218.55v-77.1h77.1v77.1z" fill="none" stroke="none" stroke-width="NaN" stroke-linecap="butt"/></g></g></svg>