<svg version="1.1" xmlns="http://www.w3.org/2000/svg" xmlns:xlink="http://www.w3.org/1999/xlink" width="22.07143" height="22.07143" viewBox="0,0,22.07143,22.07143"><defs><radialGradient cx="239.99999" cy="180" r="8.70648" gradientUnits="userSpaceOnUse" id="color-1"><stop offset="0" stop-color="#ffffff"/><stop offset="1" stop-color="#ffffff" stop-opacity="0"/></radialGradient><radialGradient cx="242.54506" cy="180" r="6.20982" gradientUnits="userSpaceOnUse" id="color-2"><stop offset="0" stop-color="#67ff56"/><stop offset="1" stop-color="#67ff56" stop-opacity="0"/></radialGradient><radialGradient cx="237.45493" cy="180" r="6.20983" gradientUnits="userSpaceOnUse" id="color-3"><stop offset="0" stop-color="#ff5656"/><stop offset="1" stop-color="#ff5656" stop-opacity="0"/></radialGradient><radialGradient cx="238.67653" cy="177.82612" r="6.20983" gradientUnits="userSpaceOnUse" id="color-4"><stop offset="0" stop-color="#ff9e54"/><stop offset="1" stop-color="#ff9e54" stop-opacity="0"/></radialGradient><radialGradient cx="241.32346" cy="182.17388" r="6.20982" gradientUnits="userSpaceOnUse" id="color-5"><stop offset="0" stop-color="#50e5ff"/><stop offset="1" stop-color="#50e5ff" stop-opacity="0"/></radialGradient><radialGradient cx="241.43198" cy="177.89601" r="6.20983" gradientUnits="userSpaceOnUse" id="color-6"><stop offset="0" stop-color="#fcff5c"/><stop offset="1" stop-color="#fcff5c" stop-opacity="0"/></radialGradient><radialGradient cx="238.56801" cy="182.10399" r="6.20983" gradientUnits="userSpaceOnUse" id="color-7"><stop offset="0" stop-color="#a94eff"/><stop offset="1" stop-color="#a94eff" stop-opacity="0"/></radialGradient></defs><g transform="translate(-228.96429,-168.96428)"><g data-paper-data="{&quot;isPaintingLayer&quot;:true}" fill-rule="nonzero" stroke="none" stroke-linecap="butt" stroke-linejoin="miter" stroke-miterlimit="10" stroke-dasharray="" stroke-dashoffset="0" style="mix-blend-mode: normal"><path d="M231.29351,180c0,-4.80846 3.89802,-8.70648 8.70648,-8.70648c4.80846,0 8.70648,3.89802 8.70648,8.70648c0,4.80846 -3.89802,8.70648 -8.70648,8.70648c-4.80846,0 -8.70648,-3.89802 -8.70648,-8.70648z" fill="url(#color-1)" stroke-width="0"/><path d="M236.33523,180c0,-3.4296 2.78023,-6.20983 6.20983,-6.20983c3.4296,0 6.20982,2.78023 6.20982,6.20983c0,3.4296 -2.78023,6.20982 -6.20982,6.20982c-3.4296,0 -6.20983,-2.78023 -6.20983,-6.20982z" fill="url(#color-2)" stroke-width="0"/><path d="M231.24512,180c0,-3.42959 2.78023,-6.20983 6.20983,-6.20983c3.42959,0 6.20983,2.78023 6.20983,6.20983c0,3.42959 -2.78023,6.20983 -6.20983,6.20983c-3.42959,0 -6.20983,-2.78023 -6.20983,-6.20983z" fill="url(#color-3)" stroke-width="0"/><g stroke-width="0"><path d="M235.44731,172.52196c2.92941,-1.78345 6.74993,-0.85447 8.53337,2.07495c1.78345,2.92941 0.85447,6.74993 -2.07495,8.53337c-2.92941,1.78344 -6.74993,0.85447 -8.53337,-2.07495c-1.78344,-2.92941 -0.85445,-6.74993 2.07495,-8.53337z" fill="url(#color-4)"/><path d="M238.09425,176.86972c2.92941,-1.78345 6.74993,-0.85447 8.53337,2.07495c1.78345,2.92941 0.85445,6.74993 -2.07495,8.53337c-2.92941,1.78345 -6.74992,0.85447 -8.53337,-2.07495c-1.78345,-2.92941 -0.85447,-6.74993 2.07495,-8.53337z" fill="url(#color-5)"/></g><g data-paper-data="{&quot;index&quot;:null}" stroke-width="0"><path d="M246.56561,181.38997c-1.92966,2.83522 -5.79237,3.56933 -8.62759,1.63967c-2.83522,-1.92966 -3.56933,-5.79237 -1.63967,-8.62759c1.92966,-2.83522 5.79237,-3.56933 8.62759,-1.63967c2.83522,1.92966 3.56933,5.79237 1.63967,8.62759z" fill="url(#color-6)"/><path d="M243.70164,185.59794c-1.92966,2.83522 -5.79237,3.56933 -8.62759,1.63967c-2.83522,-1.92966 -3.56933,-5.79237 -1.63967,-8.62759c1.92966,-2.83522 5.79237,-3.56933 8.62759,-1.63967c2.83522,1.92966 3.56933,5.79237 1.63967,8.62759z" fill="url(#color-7)"/></g><path d="M235.66455,180c0,-2.3944 1.94105,-4.33545 4.33545,-4.33545c2.3944,0 4.33545,1.94105 4.33545,4.33545c0,2.3944 -1.94105,4.33545 -4.33545,4.33545c-2.3944,0 -4.33545,-1.94105 -4.33545,-4.33545z" fill="#ffeded" stroke-width="0.5"/><path d="M228.96429,191.03571v-22.07143h22.07143v22.07143z" fill="none" stroke-width="0"/></g></g></svg>