<svg version="1.1" xmlns="http://www.w3.org/2000/svg" xmlns:xlink="http://www.w3.org/1999/xlink" width="101.78488" height="101.78488" viewBox="0,0,101.78488,101.78488"><g transform="translate(-189.10756,-129.10756)"><g data-paper-data="{&quot;isPaintingLayer&quot;:true}" fill-rule="nonzero" stroke-linejoin="miter" stroke-miterlimit="10" stroke-dasharray="" stroke-dashoffset="0" style="mix-blend-mode: normal"><path d="M260.33478,142.68885c0.79296,0.52113 3.41141,6.36635 1.84804,11.99042c5.61214,5.5612 9.07682,13.20427 9.07682,21.63959c0,11.65473 0.38059,19.40051 0.38059,31.05524c0,4.25129 -3.45677,9.42434 -8.03463,9.65571c-6.03227,0.30488 -7.36916,-6.65232 -7.83276,-6.69109c-0.52491,0.03877 -1.22851,6.62671 -7.83275,6.69109c-5.84552,0.05698 -8.02997,-6.82695 -8.51157,-6.82819c-0.49056,-0.02181 -1.68239,6.90552 -7.07609,7.14916c-5.78358,0.26126 -7.65829,-7.40455 -8.08588,-7.22039c-0.25253,-0.09696 -1.77288,6.82917 -7.93819,6.89942c-4.70334,0.0536 -7.58178,-5.40442 -7.58178,-9.65571c0,-11.64316 -0.38681,-19.41208 -0.38681,-31.05524c0,-8.12141 3.21161,-15.50844 8.45926,-21.01015c-1.00917,-2.99041 -0.83346,-10.79434 -0.03782,-11.27155c1.23961,-0.7435 10.32004,4.16881 11.46893,3.63757c3.47931,-1.60881 7.47812,-2.14643 11.55957,-2.14643c4.42243,0 7.59877,0.72513 11.41668,2.33807c1.3103,-0.82548 8.23731,-5.74999 9.1084,-5.17752z" fill="#ffdc5f" stroke="#000000" stroke-width="2.5" stroke-linecap="butt"/><path d="M189.10756,230.89244v-101.78488h101.78488v101.78488z" fill="none" stroke="none" stroke-width="NaN" stroke-linecap="butt"/><path d="M267.21086,167.84869c0,6.72058 -5.53066,12.1687 -12.35307,12.1687c-6.82241,0 -12.35307,-5.44811 -12.35307,-12.1687c0,-6.72058 5.53066,-12.1687 12.35307,-12.1687c6.82241,0 12.35307,5.44811 12.35307,12.1687z" fill="#fff4c3" stroke="none" stroke-width="2.5" stroke-linecap="butt"/><path d="M222.87737,157.8667l1.96507,1.96507" fill="none" stroke="#000000" stroke-width="2.5" stroke-linecap="round"/><g stroke="#000000"><path d="M246.05187,175.98628c0,0 -0.6268,16.40869 -5.71815,16.40869c-5.09135,0 -7.00339,-11.01605 -7.00339,-16.15002c0,-1.61209 6.01142,-2.55413 6.01142,-2.55413z" fill="#ff2929" stroke-width="0.5" stroke-linecap="butt"/><path d="M245.40885,176.63937c0,0 0.97254,15.57684 -5.7338,15.56223c-6.5496,-0.01425 -5.74856,-15.38688 -5.74856,-15.38688" fill="none" stroke-width="2.5" stroke-linecap="round"/></g><path d="M252.37241,159.15028l1.96508,-1.96507" data-paper-data="{&quot;index&quot;:null}" fill="none" stroke="#000000" stroke-width="2.5" stroke-linecap="round"/><path d="M233.84684,177.30654c0,-0.7822 0.63409,-1.41628 1.41629,-1.41628c0.7822,0 1.41628,0.63409 1.41628,1.41628c0,0.7822 -0.35817,3.53167 -1.14037,3.53167c-0.7822,0 -1.69221,-2.74948 -1.69221,-3.53167z" fill="#ffffff" stroke="none" stroke-width="0" stroke-linecap="butt"/><path d="M242.56158,177.16044c0,-0.7822 0.63409,-1.41629 1.41628,-1.41629c0.7822,0 1.41628,0.63409 1.41628,1.41629c0,0.7822 -0.35817,3.53167 -1.14037,3.53167c-0.7822,0 -1.69221,-2.74947 -1.69221,-3.53167z" fill="#ffffff" stroke="none" stroke-width="0" stroke-linecap="butt"/><path d="M222.07376,181.18636l-4.89665,1.63631" fill="none" stroke="#000000" stroke-width="2.5" stroke-linecap="round"/><path d="M214.53574,177.42443l7.03361,0.9994" fill="none" stroke="#000000" stroke-width="2.5" stroke-linecap="round"/><path d="M262.03837,181.99055l-4.89666,-1.6363" data-paper-data="{&quot;index&quot;:null}" fill="none" stroke="#000000" stroke-width="2.5" stroke-linecap="round"/><path d="M264.67974,176.59231l-7.03361,0.9994" data-paper-data="{&quot;index&quot;:null}" fill="none" stroke="#000000" stroke-width="2.5" stroke-linecap="round"/><path d="M249.37929,172.59844c0,0 -2.11989,3.13939 -4.61408,3.1446c-2.4942,0.00521 -5.57593,-3.12329 -5.57593,-3.12329c0,0 -2.88969,2.95924 -5.34619,2.76468c-2.45651,-0.19458 -4.60659,-2.24228 -4.60659,-2.24228" fill="none" stroke="#000000" stroke-width="2.5" stroke-linecap="round"/><path d="M241.93039,170.18061c0,0 -1.73651,2.32593 -2.61667,2.32593c-0.89631,0 -2.71358,-2.32593 -2.71358,-2.32593" fill="none" stroke="#000000" stroke-width="2.5" stroke-linecap="round"/><path d="M215.4318,168.52731c0,-2.9552 2.39566,-5.35084 5.35084,-5.35084c2.9552,0 5.35084,2.39566 5.35084,5.35084c0,2.9552 -2.39566,5.35084 -5.35084,5.35084c-2.9552,0 -5.35084,-2.39566 -5.35084,-5.35084z" fill="#ffffff" stroke="#000000" stroke-width="2.5" stroke-linecap="butt"/><path d="M252.65999,167.17183c0,-2.9552 2.39566,-5.35084 5.35084,-5.35084c2.9552,0 5.35084,2.39565 5.35084,5.35084c0,2.9552 -2.39566,5.35084 -5.35084,5.35084c-2.9552,0 -5.35084,-2.39566 -5.35084,-5.35084z" fill="#ffffff" stroke="#000000" stroke-width="2.5" stroke-linecap="butt"/></g></g></svg>