<svg version="1.1" xmlns="http://www.w3.org/2000/svg" xmlns:xlink="http://www.w3.org/1999/xlink" width="133.25" height="133.25" viewBox="0,0,133.25,133.25"><defs><radialGradient cx="240" cy="180" r="49.59703" gradientUnits="userSpaceOnUse" id="color-1"><stop offset="0" stop-color="#ffffff"/><stop offset="1" stop-color="#ffffff" stop-opacity="0"/></radialGradient><radialGradient cx="263.1976" cy="179.36404" r="40.29842" gradientUnits="userSpaceOnUse" id="color-2"><stop offset="0" stop-color="#00ffff"/><stop offset="1" stop-color="#00ffff" stop-opacity="0"/></radialGradient><radialGradient cx="211.66786" cy="207.70818" r="30.10801" gradientUnits="userSpaceOnUse" id="color-3"><stop offset="0" stop-color="#00ffff"/><stop offset="1" stop-color="#00ffff" stop-opacity="0"/></radialGradient><radialGradient cx="233.72496" cy="150.81313" r="28.99701" gradientUnits="userSpaceOnUse" id="color-4"><stop offset="0" stop-color="#00ffff"/><stop offset="1" stop-color="#00ffff" stop-opacity="0"/></radialGradient><radialGradient cx="214.72054" cy="154.7608" r="20.66967" gradientUnits="userSpaceOnUse" id="color-5"><stop offset="0" stop-color="#00ffff"/><stop offset="1" stop-color="#00ffff" stop-opacity="0"/></radialGradient><radialGradient cx="200.84859" cy="176.68738" r="14.72156" gradientUnits="userSpaceOnUse" id="color-6"><stop offset="0" stop-color="#00ffff"/><stop offset="1" stop-color="#00ffff" stop-opacity="0"/></radialGradient><radialGradient cx="220.96606" cy="217.43191" r="16.50599" gradientUnits="userSpaceOnUse" id="color-7"><stop offset="0" stop-color="#00ffff"/><stop offset="1" stop-color="#00ffff" stop-opacity="0"/></radialGradient><radialGradient cx="278.36527" cy="186.2191" r="20.07486" gradientUnits="userSpaceOnUse" id="color-8"><stop offset="0" stop-color="#00ffff"/><stop offset="1" stop-color="#00ffff" stop-opacity="0"/></radialGradient><radialGradient cx="268.97233" cy="170.14446" r="6.98902" gradientUnits="userSpaceOnUse" id="color-9"><stop offset="0" stop-color="#00ffff"/><stop offset="1" stop-color="#00ffff" stop-opacity="0"/></radialGradient><radialGradient cx="278.21658" cy="167.63695" r="7.73253" gradientUnits="userSpaceOnUse" id="color-10"><stop offset="0" stop-color="#00ffff"/><stop offset="1" stop-color="#00ffff" stop-opacity="0"/></radialGradient><radialGradient cx="258.31788" cy="145.75722" r="17.39821" gradientUnits="userSpaceOnUse" id="color-11"><stop offset="0" stop-color="#00ffff"/><stop offset="1" stop-color="#00ffff" stop-opacity="0"/></radialGradient><radialGradient cx="228.25249" cy="166.87301" r="10.40919" gradientUnits="userSpaceOnUse" id="color-12"><stop offset="0" stop-color="#00ffff"/><stop offset="1" stop-color="#00ffff" stop-opacity="0"/></radialGradient><radialGradient cx="220.22255" cy="174.01073" r="8.47605" gradientUnits="userSpaceOnUse" id="color-13"><stop offset="0" stop-color="#00ffff"/><stop offset="1" stop-color="#00ffff" stop-opacity="0"/></radialGradient><radialGradient cx="211.94257" cy="196.46483" r="13.08583" gradientUnits="userSpaceOnUse" id="color-14"><stop offset="0" stop-color="#00ffff"/><stop offset="1" stop-color="#00ffff" stop-opacity="0"/></radialGradient><radialGradient cx="228.40119" cy="196.01872" r="13.53195" gradientUnits="userSpaceOnUse" id="color-15"><stop offset="0" stop-color="#00ffff"/><stop offset="1" stop-color="#00ffff" stop-opacity="0"/></radialGradient><radialGradient cx="223.94011" cy="204.49477" r="3.12276" gradientUnits="userSpaceOnUse" id="color-16"><stop offset="0" stop-color="#00ffff"/><stop offset="1" stop-color="#00ffff" stop-opacity="0"/></radialGradient><radialGradient cx="252.41388" cy="213.26823" r="12.56259" gradientUnits="userSpaceOnUse" id="color-17"><stop offset="0" stop-color="#00ffff"/><stop offset="1" stop-color="#00ffff" stop-opacity="0"/></radialGradient><radialGradient cx="263.79242" cy="224.71834" r="6.09681" gradientUnits="userSpaceOnUse" id="color-18"><stop offset="0" stop-color="#00ffff"/><stop offset="1" stop-color="#00ffff" stop-opacity="0"/></radialGradient><radialGradient cx="251.5988" cy="224.71834" r="9.21956" gradientUnits="userSpaceOnUse" id="color-19"><stop offset="0" stop-color="#00ffff"/><stop offset="1" stop-color="#00ffff" stop-opacity="0"/></radialGradient><radialGradient cx="222.75048" cy="225.61055" r="7.73253" gradientUnits="userSpaceOnUse" id="color-20"><stop offset="0" stop-color="#00ffff"/><stop offset="1" stop-color="#00ffff" stop-opacity="0"/></radialGradient><radialGradient cx="226.02195" cy="232.89697" r="2.23054" gradientUnits="userSpaceOnUse" id="color-21"><stop offset="0" stop-color="#00ffff"/><stop offset="1" stop-color="#00ffff" stop-opacity="0"/></radialGradient><radialGradient cx="270.74559" cy="214.60655" r="8.92216" gradientUnits="userSpaceOnUse" id="color-22"><stop offset="0" stop-color="#00ffff"/><stop offset="1" stop-color="#00ffff" stop-opacity="0"/></radialGradient><radialGradient cx="282.08284" cy="210.64684" r="5.94811" gradientUnits="userSpaceOnUse" id="color-23"><stop offset="0" stop-color="#00ffff"/><stop offset="1" stop-color="#00ffff" stop-opacity="0"/></radialGradient><radialGradient cx="223.62662" cy="193.81175" r="19.26795" gradientUnits="userSpaceOnUse" id="color-24"><stop offset="0" stop-color="#00ffff"/><stop offset="1" stop-color="#00ffff" stop-opacity="0"/></radialGradient><radialGradient cx="246.01804" cy="168.38196" r="20.51844" gradientUnits="userSpaceOnUse" id="color-25"><stop offset="0" stop-color="#00ffff"/><stop offset="1" stop-color="#00ffff" stop-opacity="0"/></radialGradient><radialGradient cx="250.31602" cy="196.14738" r="13.22387" gradientUnits="userSpaceOnUse" id="color-26"><stop offset="0" stop-color="#00ffff"/><stop offset="1" stop-color="#00ffff" stop-opacity="0"/></radialGradient><radialGradient cx="260.34865" cy="189.01736" r="10.67876" gradientUnits="userSpaceOnUse" id="color-27"><stop offset="0" stop-color="#00ffff"/><stop offset="1" stop-color="#00ffff" stop-opacity="0"/></radialGradient><radialGradient cx="260.00865" cy="174.23682" r="8.94908" gradientUnits="userSpaceOnUse" id="color-28"><stop offset="0" stop-color="#00ffff"/><stop offset="1" stop-color="#00ffff" stop-opacity="0"/></radialGradient><radialGradient cx="219.86213" cy="189.9846" r="8.88953" gradientUnits="userSpaceOnUse" id="color-29"><stop offset="0" stop-color="#00ffff"/><stop offset="1" stop-color="#00ffff" stop-opacity="0"/></radialGradient><radialGradient cx="228.71674" cy="195.26123" r="4.85313" gradientUnits="userSpaceOnUse" id="color-30"><stop offset="0" stop-color="#00ffff"/><stop offset="1" stop-color="#00ffff" stop-opacity="0"/></radialGradient><radialGradient cx="224.95998" cy="198.46471" r="4.31467" gradientUnits="userSpaceOnUse" id="color-31"><stop offset="0" stop-color="#00ffff"/><stop offset="1" stop-color="#00ffff" stop-opacity="0"/></radialGradient><radialGradient cx="240.50542" cy="204.44476" r="8.12244" gradientUnits="userSpaceOnUse" id="color-32"><stop offset="0" stop-color="#00ffff"/><stop offset="1" stop-color="#00ffff" stop-opacity="0"/></radialGradient><radialGradient cx="247.34946" cy="199.60479" r="10.69852" gradientUnits="userSpaceOnUse" id="color-33"><stop offset="0" stop-color="#00ffff"/><stop offset="1" stop-color="#00ffff" stop-opacity="0"/></radialGradient><radialGradient cx="249.62868" cy="186.17767" r="6.90457" gradientUnits="userSpaceOnUse" id="color-34"><stop offset="0" stop-color="#00ffff"/><stop offset="1" stop-color="#00ffff" stop-opacity="0"/></radialGradient><radialGradient cx="251.71336" cy="180.53611" r="3.84965" gradientUnits="userSpaceOnUse" id="color-35"><stop offset="0" stop-color="#00ffff"/><stop offset="1" stop-color="#00ffff" stop-opacity="0"/></radialGradient><radialGradient cx="241.52064" cy="171.82219" r="7.89818" gradientUnits="userSpaceOnUse" id="color-36"><stop offset="0" stop-color="#00ffff"/><stop offset="1" stop-color="#00ffff" stop-opacity="0"/></radialGradient><radialGradient cx="241.84306" cy="166.46023" r="1.62067" gradientUnits="userSpaceOnUse" id="color-37"><stop offset="0" stop-color="#00ffff"/><stop offset="1" stop-color="#00ffff" stop-opacity="0"/></radialGradient><radialGradient cx="226.7663" cy="169.96545" r="7.45359" gradientUnits="userSpaceOnUse" id="color-38"><stop offset="0" stop-color="#00ffff"/><stop offset="1" stop-color="#00ffff" stop-opacity="0"/></radialGradient><radialGradient cx="216.8305" cy="167.39137" r="3.71658" gradientUnits="userSpaceOnUse" id="color-39"><stop offset="0" stop-color="#00ffff"/><stop offset="1" stop-color="#00ffff" stop-opacity="0"/></radialGradient><radialGradient cx="222.48554" cy="163.95767" r="5.25886" gradientUnits="userSpaceOnUse" id="color-40"><stop offset="0" stop-color="#00ffff"/><stop offset="1" stop-color="#00ffff" stop-opacity="0"/></radialGradient><radialGradient cx="236.8654" cy="155.7179" r="5.78351" gradientUnits="userSpaceOnUse" id="color-41"><stop offset="0" stop-color="#00ffff"/><stop offset="1" stop-color="#00ffff" stop-opacity="0"/></radialGradient><radialGradient cx="233.32929" cy="152.98145" r="1.10196" gradientUnits="userSpaceOnUse" id="color-42"><stop offset="0" stop-color="#00ffff"/><stop offset="1" stop-color="#00ffff" stop-opacity="0"/></radialGradient><radialGradient cx="215.8234" cy="173.92907" r="3.7469" gradientUnits="userSpaceOnUse" id="color-43"><stop offset="0" stop-color="#00ffff"/><stop offset="1" stop-color="#00ffff" stop-opacity="0"/></radialGradient><radialGradient cx="211.05922" cy="178.77299" r="2.81618" gradientUnits="userSpaceOnUse" id="color-44"><stop offset="0" stop-color="#00ffff"/><stop offset="1" stop-color="#00ffff" stop-opacity="0"/></radialGradient><radialGradient cx="234.3172" cy="160.00762" r="40.29842" gradientUnits="userSpaceOnUse" id="color-45"><stop offset="0" stop-color="#00ffff"/><stop offset="1" stop-color="#00ffff" stop-opacity="0"/></radialGradient><radialGradient cx="271.78246" cy="205.34038" r="30.108" gradientUnits="userSpaceOnUse" id="color-46"><stop offset="0" stop-color="#00ffff"/><stop offset="1" stop-color="#00ffff" stop-opacity="0"/></radialGradient><radialGradient cx="211.77" cy="194.29195" r="28.99701" gradientUnits="userSpaceOnUse" id="color-47"><stop offset="0" stop-color="#00ffff"/><stop offset="1" stop-color="#00ffff" stop-opacity="0"/></radialGradient><radialGradient cx="219.19595" cy="212.22536" r="20.66967" gradientUnits="userSpaceOnUse" id="color-48"><stop offset="0" stop-color="#00ffff"/><stop offset="1" stop-color="#00ffff" stop-opacity="0"/></radialGradient><radialGradient cx="243.32666" cy="221.7603" r="14.72156" gradientUnits="userSpaceOnUse" id="color-49"><stop offset="0" stop-color="#00ffff"/><stop offset="1" stop-color="#00ffff" stop-opacity="0"/></radialGradient><radialGradient cx="279.5995" cy="194.39044" r="16.50599" gradientUnits="userSpaceOnUse" id="color-50"><stop offset="0" stop-color="#00ffff"/><stop offset="1" stop-color="#00ffff" stop-opacity="0"/></radialGradient><radialGradient cx="238.22033" cy="143.82689" r="20.07486" gradientUnits="userSpaceOnUse" id="color-51"><stop offset="0" stop-color="#00ffff"/><stop offset="1" stop-color="#00ffff" stop-opacity="0"/></radialGradient><radialGradient cx="224.18169" cy="156.05546" r="6.98902" gradientUnits="userSpaceOnUse" id="color-52"><stop offset="0" stop-color="#00ffff"/><stop offset="1" stop-color="#00ffff" stop-opacity="0"/></radialGradient><radialGradient cx="219.99259" cy="147.44182" r="7.73253" gradientUnits="userSpaceOnUse" id="color-53"><stop offset="0" stop-color="#00ffff"/><stop offset="1" stop-color="#00ffff" stop-opacity="0"/></radialGradient><radialGradient cx="202.21208" cy="171.07514" r="17.39821" gradientUnits="userSpaceOnUse" id="color-54"><stop offset="0" stop-color="#00ffff"/><stop offset="1" stop-color="#00ffff" stop-opacity="0"/></radialGradient><radialGradient cx="228.56915" cy="196.67023" r="10.40919" gradientUnits="userSpaceOnUse" id="color-55"><stop offset="0" stop-color="#00ffff"/><stop offset="1" stop-color="#00ffff" stop-opacity="0"/></radialGradient><radialGradient cx="237.08041" cy="203.22658" r="8.47605" gradientUnits="userSpaceOnUse" id="color-56"><stop offset="0" stop-color="#00ffff"/><stop offset="1" stop-color="#00ffff" stop-opacity="0"/></radialGradient><radialGradient cx="257.17478" cy="191.08333" r="13.53195" gradientUnits="userSpaceOnUse" id="color-57"><stop offset="0" stop-color="#00ffff"/><stop offset="1" stop-color="#00ffff" stop-opacity="0"/></radialGradient><radialGradient cx="266.33461" cy="193.88372" r="3.12276" gradientUnits="userSpaceOnUse" id="color-58"><stop offset="0" stop-color="#00ffff"/><stop offset="1" stop-color="#00ffff" stop-opacity="0"/></radialGradient><radialGradient cx="278.76321" cy="150.95671" r="6.09681" gradientUnits="userSpaceOnUse" id="color-59"><stop offset="0" stop-color="#00ffff"/><stop offset="1" stop-color="#00ffff" stop-opacity="0"/></radialGradient><radialGradient cx="281.03946" cy="162.93598" r="9.21956" gradientUnits="userSpaceOnUse" id="color-60"><stop offset="0" stop-color="#00ffff"/><stop offset="1" stop-color="#00ffff" stop-opacity="0"/></radialGradient><radialGradient cx="267.53118" cy="146.01338" r="8.92216" gradientUnits="userSpaceOnUse" id="color-61"><stop offset="0" stop-color="#00ffff"/><stop offset="1" stop-color="#00ffff" stop-opacity="0"/></radialGradient><radialGradient cx="261.52469" cy="135.61461" r="5.94811" gradientUnits="userSpaceOnUse" id="color-62"><stop offset="0" stop-color="#00ffff"/><stop offset="1" stop-color="#00ffff" stop-opacity="0"/></radialGradient><radialGradient cx="255.89789" cy="196.18597" r="19.26795" gradientUnits="userSpaceOnUse" id="color-63"><stop offset="0" stop-color="#00ffff"/><stop offset="1" stop-color="#00ffff" stop-opacity="0"/></radialGradient><radialGradient cx="226.73518" cy="178.93528" r="20.51844" gradientUnits="userSpaceOnUse" id="color-64"><stop offset="0" stop-color="#00ffff"/><stop offset="1" stop-color="#00ffff" stop-opacity="0"/></radialGradient><radialGradient cx="253.2102" cy="169.5297" r="13.22387" gradientUnits="userSpaceOnUse" id="color-65"><stop offset="0" stop-color="#00ffff"/><stop offset="1" stop-color="#00ffff" stop-opacity="0"/></radialGradient><radialGradient cx="244.33267" cy="161.00444" r="10.67876" gradientUnits="userSpaceOnUse" id="color-66"><stop offset="0" stop-color="#00ffff"/><stop offset="1" stop-color="#00ffff" stop-opacity="0"/></radialGradient><radialGradient cx="218.94171" cy="186.6414" r="6.92074" gradientUnits="userSpaceOnUse" id="color-67"><stop offset="0" stop-color="#00ffff"/><stop offset="1" stop-color="#00ffff" stop-opacity="0"/></radialGradient><radialGradient cx="252.84076" cy="200.59871" r="8.88953" gradientUnits="userSpaceOnUse" id="color-68"><stop offset="0" stop-color="#00ffff"/><stop offset="1" stop-color="#00ffff" stop-opacity="0"/></radialGradient><radialGradient cx="257.16063" cy="171.79872" r="10.69854" gradientUnits="userSpaceOnUse" id="color-69"><stop offset="0" stop-color="#00ffff"/><stop offset="1" stop-color="#00ffff" stop-opacity="0"/></radialGradient><radialGradient cx="237.61249" cy="171.07118" r="3.84965" gradientUnits="userSpaceOnUse" id="color-70"><stop offset="0" stop-color="#00ffff"/><stop offset="1" stop-color="#00ffff" stop-opacity="0"/></radialGradient><radialGradient cx="224.99171" cy="176.65483" r="8.73603" gradientUnits="userSpaceOnUse" id="color-71"><stop offset="0" stop-color="#00ffff"/><stop offset="1" stop-color="#00ffff" stop-opacity="0"/></radialGradient><radialGradient cx="230.9545" cy="182.71142" r="7.89818" gradientUnits="userSpaceOnUse" id="color-72"><stop offset="0" stop-color="#00ffff"/><stop offset="1" stop-color="#00ffff" stop-opacity="0"/></radialGradient><radialGradient cx="231.88467" cy="197.553" r="7.45359" gradientUnits="userSpaceOnUse" id="color-73"><stop offset="0" stop-color="#00ffff"/><stop offset="1" stop-color="#00ffff" stop-opacity="0"/></radialGradient><radialGradient cx="231.21062" cy="207.79467" r="3.71658" gradientUnits="userSpaceOnUse" id="color-74"><stop offset="0" stop-color="#00ffff"/><stop offset="1" stop-color="#00ffff" stop-opacity="0"/></radialGradient><radialGradient cx="213.97408" cy="194.27588" r="1.10197" gradientUnits="userSpaceOnUse" id="color-75"><stop offset="0" stop-color="#00ffff"/><stop offset="1" stop-color="#00ffff" stop-opacity="0"/></radialGradient><radialGradient cx="218.20808" cy="168.26923" r="0.4461" gradientUnits="userSpaceOnUse" id="color-76"><stop offset="0" stop-color="#00ffff"/><stop offset="1" stop-color="#00ffff" stop-opacity="0"/></radialGradient><radialGradient cx="250.32785" cy="176.59658" r="0.4461" gradientUnits="userSpaceOnUse" id="color-77"><stop offset="0" stop-color="#00ffff"/><stop offset="1" stop-color="#00ffff" stop-opacity="0"/></radialGradient><radialGradient cx="233.07835" cy="206.93193" r="0.4461" gradientUnits="userSpaceOnUse" id="color-78"><stop offset="0" stop-color="#00ffff"/><stop offset="1" stop-color="#00ffff" stop-opacity="0"/></radialGradient><radialGradient cx="240" cy="180" r="13.98987" gradientUnits="userSpaceOnUse" id="color-79"><stop offset="0" stop-color="#fffdb6"/><stop offset="1" stop-color="#fffdb6" stop-opacity="0"/></radialGradient><radialGradient cx="240" cy="180" r="13.98987" gradientUnits="userSpaceOnUse" id="color-80"><stop offset="0" stop-color="#fffdb6"/><stop offset="1" stop-color="#fffdb6" stop-opacity="0"/></radialGradient><radialGradient cx="240" cy="180" r="14.31051" gradientUnits="userSpaceOnUse" id="color-81"><stop offset="0" stop-color="#00fcff"/><stop offset="1" stop-color="#00fcff" stop-opacity="0"/></radialGradient><radialGradient cx="240" cy="180" r="35.02309" gradientUnits="userSpaceOnUse" id="color-82"><stop offset="0" stop-color="#00f5ff"/><stop offset="1" stop-color="#00f5ff" stop-opacity="0"/></radialGradient><radialGradient cx="240" cy="180" r="59.125" gradientUnits="userSpaceOnUse" id="color-83"><stop offset="0" stop-color="#00f5ff"/><stop offset="1" stop-color="#00f5ff" stop-opacity="0"/></radialGradient><radialGradient cx="240" cy="180" r="15.96752" gradientUnits="userSpaceOnUse" id="color-84"><stop offset="0" stop-color="#00f5ff"/><stop offset="1" stop-color="#00f5ff" stop-opacity="0"/></radialGradient><radialGradient cx="240" cy="180" r="5.27229" gradientUnits="userSpaceOnUse" id="color-85"><stop offset="0" stop-color="#8af8ff"/><stop offset="1" stop-color="#ffffff"/></radialGradient></defs><g transform="translate(-173.375,-113.375)"><g data-paper-data="{&quot;isPaintingLayer&quot;:true}" fill-rule="nonzero" stroke-linejoin="miter" stroke-miterlimit="10" stroke-dasharray="" stroke-dashoffset="0" style="mix-blend-mode: normal"><path d="M190.40297,180c0,-27.39168 22.20535,-49.59703 49.59703,-49.59703c27.39168,0 49.59703,22.20535 49.59703,49.59703c0,27.39168 -22.20535,49.59703 -49.59703,49.59703c-27.39168,0 -49.59703,-22.20535 -49.59703,-49.59703z" fill="url(#color-1)" stroke="none" stroke-width="0" stroke-linecap="butt"/><path d="M285.94911,219.66246l-8.1907,-2.81548l-3.52396,-8.73045l-9.33749,-0.31137l-7.23935,-2.32943l2.4212,-6.61532l-4.90118,-9.1415l-7.59578,0.15274l-7.13574,-8.87188l3.52364,-3.88138l3.41204,-6.91403l3.05935,-8.50335l7.01263,3.55745l9.13392,-5.83195l5.3879,-11.73097l10.23481,-2.0277l-3.99381,-6.60222" fill="none" stroke="url(#color-2)" stroke-width="0.5" stroke-linecap="round"/><path d="M181.55986,190.21932h5.6507l6.9231,7.86024l9.02806,-5.79863l4.044,-12.70888l10.2385,4.44675l9.55316,-6.4066l7.7775,5.82999l6.26605,-2.73984l0.73495,14.84677l-2.22878,7.45462l-3.58609,6.84401l3.26906,10.11204l-4.86827,5.54287l6.66532,4.56846l-1.77063,7.73307" fill="none" stroke="url(#color-3)" stroke-width="0.5" stroke-linecap="round"/><path d="M240.1487,179.81013l1.08375,-2.74039l0.14774,-4.06325l-2.92319,-4.97778l-4.49106,-7.85634l1.0476,-16.1249l0.53648,-6.61996l-9.4803,-6.90993l5.75163,-8.70148" fill="none" stroke="url(#color-4)" stroke-width="0.5" stroke-linecap="round"/><path d="M235.39021,153.34106l-9.50193,3.98953l-16.55704,5.28686l5.21424,-7.93271l-5.65018,-7.78058l-9.42459,3.70812l-5.41983,-0.84008" fill="none" stroke="url(#color-5)" stroke-width="0.5" stroke-linecap="round"/><path d="M192.86125,161.96581l-5.14111,7.5227l11.4806,-0.28936l-0.67048,8.7789l9.86857,-5.28048l5.57822,8.89699l-6.03258,2.21724l5.74724,4.91792l-3.87834,2.67922" fill="none" stroke="url(#color-6)" stroke-width="0.5" stroke-linecap="round"/><path d="M204.46006,222.63649l8.9544,-5.79483l12.04207,2.1804l5.89832,-6.76819l6.11717,-0.02656" fill="none" stroke="url(#color-7)" stroke-width="0.5" stroke-linecap="round"/><path d="M298.44014,178.62052l-5.9898,-0.33407l-6.66501,7.89318l-11.59734,-1.11869l-4.56757,9.09081l-11.32999,-0.95838" fill="none" stroke="url(#color-8)" stroke-width="0.5" stroke-linecap="round"/><path d="M274.94512,177.13349l0.24806,-3.85584l-9.72994,-1.26863l-2.71174,-8.85358" fill="none" stroke="url(#color-9)" stroke-width="0.5" stroke-linecap="round"/><path d="M270.48404,173.26722l1.43923,-6.32568l9.74336,-4.93485l4.28248,2.04097" fill="none" stroke="url(#color-10)" stroke-width="0.5" stroke-linecap="round"/><path d="M256.20859,128.35902l-1.29937,9.92584l5.90183,3.9449l0.91551,6.99176l-1.9491,13.93394l-0.29741,-2.08184" fill="none" stroke="url(#color-11)" stroke-width="0.5" stroke-linecap="round"/><path d="M217.84331,160.18139l20.81837,13.38324" fill="none" stroke="url(#color-12)" stroke-width="0.5" stroke-linecap="round"/><path d="M216.95108,165.53468l6.54292,5.3533v11.5988" fill="none" stroke="url(#color-13)" stroke-width="0.5" stroke-linecap="round"/><path d="M219.92514,183.379l-3.34155,6.81125l4.62594,7.24585l-6.34028,3.19241l-11.2151,2.90365l-0.97853,6.01851" fill="none" stroke="url(#color-14)" stroke-width="0.5" stroke-linecap="round"/><path d="M223.79141,209.55066l5.05589,-6.54292l-3.27145,-6.84033l7.43513,-13.68064" fill="none" stroke="url(#color-15)" stroke-width="0.5" stroke-linecap="round"/><path d="M220.81735,204.19737l6.24552,0.59481" fill="none" stroke="url(#color-16)" stroke-width="0.5" stroke-linecap="round"/><path d="M239.85129,203.60255l9.21956,-2.67664l4.46108,9.51697l11.44453,2.44513l-6.68605,12.72253" fill="none" stroke="url(#color-17)" stroke-width="0.5" stroke-linecap="round"/><path d="M257.69561,222.04168l9.21956,2.08184l2.97405,3.27145" fill="none" stroke="url(#color-18)" stroke-width="0.5" stroke-linecap="round"/><path d="M249.66567,233.9379l-1.48703,-4.16367l6.84033,-14.27546" fill="none" stroke="url(#color-19)" stroke-width="0.5" stroke-linecap="round"/><path d="M230.33432,233.34309l-8.32735,-6.54292l-6.84033,-8.92216" fill="none" stroke="url(#color-20)" stroke-width="0.5" stroke-linecap="round"/><path d="M223.79141,233.9379l4.46108,-2.08184" fill="none" stroke="url(#color-21)" stroke-width="0.5" stroke-linecap="round"/><path d="M274.0529,223.52871l-6.61462,-5.45451l0.96392,-12.38981" fill="none" stroke="url(#color-22)" stroke-width="0.5" stroke-linecap="round"/><path d="M288.03095,208.06363l-0.88986,5.16641l-11.00636,-0.11052" fill="none" stroke="url(#color-23)" stroke-width="0.5" stroke-linecap="round"/><path d="M207.22012,175.31197l4.78732,-0.76818l4.04139,3.38308l4.69372,-2.30717l4.18936,-0.7575l0.54771,3.90534l4.82993,3.22313l3.7112,-2.07736l5.86248,2.50103l-0.71731,2.84564l0.13708,4.31401l0.73014,5.006l-4.40104,0.09125l-2.97407,5.28761l0.43076,7.21378l-4.52042,3.69891l3.71255,2.20815" data-paper-data="{&quot;index&quot;:null}" fill="none" stroke="url(#color-24)" stroke-width="0.5" stroke-linecap="round"/><path d="M266.53648,162.34112l-2.79081,1.48927l-5.49084,-2.05744l-2.93057,5.24326l1.35223,7.34257l-6.22863,0.50223l-3.02968,5.68193l-5.37773,-0.82954l-2.37261,3.00462l-4.27594,-7.13891l-0.86395,-4.26915l-0.03267,-4.3253l-4.27963,-4.13262l0.94351,-4.02061l-4.49595,-0.49962l-1.16362,-4.28592" data-paper-data="{&quot;index&quot;:null}" fill="none" stroke="url(#color-25)" stroke-width="0.5" stroke-linecap="round"/><path d="M240.34364,182.92352l0.18699,1.63907l0.99792,2.04572l2.75565,1.68804l4.28866,2.6965l3.73243,8.23998l1.47978,3.41089l6.50335,0.91413l-0.54733,5.81343" data-paper-data="{&quot;index&quot;:null}" fill="none" stroke="url(#color-26)" stroke-width="0.5" stroke-linecap="round"/><path d="M249.66988,194.74211l3.64141,-4.47466l6.78392,-6.97482l-0.48453,5.2921l4.84116,2.35358l3.67737,-4.3153l2.89819,-1.01353" data-paper-data="{&quot;index&quot;:null}" fill="none" stroke="url(#color-27)" stroke-width="0.5" stroke-linecap="round"/><path d="M268.40125,179.27369l0.55647,-5.07033l-5.59385,3.16869l-1.98259,-4.51249l-3.48225,5.20887l-5.09986,-2.92392l2.39505,-2.68498l-4.13464,-0.91417l1.20934,-2.3454" data-paper-data="{&quot;index&quot;:null}" fill="none" stroke="url(#color-28)" stroke-width="0.5" stroke-linecap="round"/><path d="M211.86783,198.87412l3.04633,-1.41366l1.21146,-5.65494l6.02261,-2.50405l-0.14008,-5.69364l5.84831,-2.51275" data-paper-data="{&quot;index&quot;:null}" fill="none" stroke="url(#color-29)" stroke-width="0.5" stroke-linecap="round"/><path d="M223.86361,193.41629l0.89371,1.96972l5.13984,-1.93782l3.67271,3.65797" data-paper-data="{&quot;index&quot;:null}" fill="none" stroke="url(#color-30)" stroke-width="0.5" stroke-linecap="round"/><path d="M227.08585,194.15004l0.95636,3.50349l-3.51151,5.00518l-2.65297,0.12067" data-paper-data="{&quot;index&quot;:null}" fill="none" stroke="url(#color-31)" stroke-width="0.5" stroke-linecap="round"/><path d="M245.97214,212.56721l-1.97427,-5.24469l-3.95454,-0.39287l-2.29488,-3.21185l-2.70974,-7.39548l0.69557,0.94981" data-paper-data="{&quot;index&quot;:null}" fill="none" stroke="url(#color-32)" stroke-width="0.5" stroke-linecap="round"/><path d="M252.68997,210.30332l-4.4132,-3.13l0.24538,-5.95937l-3.56178,-1.5054l-2.95141,-4.79618l4.67402,-3.25822l-1.63702,-2.74787" data-paper-data="{&quot;index&quot;:null}" fill="none" stroke="url(#color-33)" stroke-width="0.5" stroke-linecap="round"/><path d="M242.72411,185.61617l13.80915,1.123" data-paper-data="{&quot;index&quot;:null}" fill="none" stroke="url(#color-34)" stroke-width="0.5" stroke-linecap="round"/><path d="M255.56302,183.86009l-4.64235,-0.91949l-3.05693,-5.7285" data-paper-data="{&quot;index&quot;:null}" fill="none" stroke="url(#color-35)" stroke-width="0.5" stroke-linecap="round"/><path d="M240.58398,163.92401l-0.77261,4.56397l3.41854,2.51613l-0.06649,8.71626" data-paper-data="{&quot;index&quot;:null}" fill="none" stroke="url(#color-36)" stroke-width="0.5" stroke-linecap="round"/><path d="M243.46373,165.78409l-3.24133,1.35228" data-paper-data="{&quot;index&quot;:null}" fill="none" stroke="url(#color-37)" stroke-width="0.5" stroke-linecap="round"/><path d="M234.21989,171.09439l-3.84798,3.75184l-4.71152,-3.52455l-6.29673,1.80866l-0.05096,-8.04564" data-paper-data="{&quot;index&quot;:null}" fill="none" stroke="url(#color-38)" stroke-width="0.5" stroke-linecap="round"/><path d="M220.54707,166.69052l-5.10211,1.40168l-2.33106,-0.8319" data-paper-data="{&quot;index&quot;:null}" fill="none" stroke="url(#color-39)" stroke-width="0.5" stroke-linecap="round"/><path d="M221.37764,158.69881l1.83178,1.66447l0.38404,8.85326" data-paper-data="{&quot;index&quot;:null}" fill="none" stroke="url(#color-40)" stroke-width="0.5" stroke-linecap="round"/><path d="M231.08189,153.89768l5.83719,1.03673l5.72983,2.60372" data-paper-data="{&quot;index&quot;:null}" fill="none" stroke="url(#color-41)" stroke-width="0.5" stroke-linecap="round"/><path d="M234.15658,151.87948l-1.65459,2.20393" data-paper-data="{&quot;index&quot;:null}" fill="none" stroke="url(#color-42)" stroke-width="0.5" stroke-linecap="round"/><path d="M212.07652,170.26716l4.70443,0.95059l2.78935,6.3732" data-paper-data="{&quot;index&quot;:null}" fill="none" stroke="url(#color-43)" stroke-width="0.5" stroke-linecap="round"/><path d="M209.24887,181.58916l-0.92215,-2.78615l5.46502,-2.84621" data-paper-data="{&quot;index&quot;:null}" fill="none" stroke="url(#color-44)" stroke-width="0.5" stroke-linecap="round"/><path d="M269.66008,130.13331l-1.23698,8.5723l-7.91914,5.09178l1.43718,9.23148l-0.93707,7.54694l-6.95102,-1.14371l-8.06588,6.52151l1.568,7.43375l-7.38386,8.66647l-4.47094,-2.73714l-7.42943,-2.06137l-8.92497,-1.41821l2.18583,-7.55345l-7.43451,-7.88468l-12.53055,-3.1033l-3.90266,-9.67638l-5.74061,5.15609" fill="none" stroke="url(#color-45)" stroke-width="0.5" stroke-linecap="round"/><path d="M260.22146,238.18388l-1.05485,-5.55136l6.42971,-8.26872l-7.38201,-7.7869l-13.2404,-1.60047l2.4573,-10.88862l-8.07733,-8.18927l4.27563,-8.7291l-3.8614,-5.64443l14.44859,-3.49357l7.73965,0.798l7.39314,2.24544l9.32402,-5.09927l6.35422,3.74797l3.24389,-7.40097l7.92767,0.29592" fill="none" stroke="url(#color-46)" stroke-width="0.5" stroke-linecap="round"/><path d="M239.05813,182.56808l-2.89453,-0.55314l-4.0194,0.61337l-4.34459,3.80103l-6.87987,5.8787l-16.03701,1.98095l-6.60373,0.70874l-5.01872,10.60357l-9.62221,-4.02616" fill="none" stroke="url(#color-47)" stroke-width="0.5" stroke-linecap="round"/><path d="M213.94265,192.18407l5.69318,8.59016l8.28473,15.27907l-8.76664,-3.64174l-6.58905,7.00331l5.40228,8.5667l0.18643,5.48139" fill="none" stroke="url(#color-48)" stroke-width="0.5" stroke-linecap="round"/><path d="M230.35492,232.35539l8.35018,3.64643l-2.42742,-11.22477l8.74975,-0.98011l-7.02988,-8.70934l7.69927,-7.14103l3.3044,5.51263l3.7586,-6.56427l3.35613,3.31002" fill="none" stroke="url(#color-49)" stroke-width="0.5" stroke-linecap="round"/><path d="M287.79388,209.63471l-7.36455,-7.71525l-0.10589,-12.23742l-7.75029,-4.53119l-1.16802,-6.00468" fill="none" stroke="url(#color-50)" stroke-width="0.5" stroke-linecap="round"/><path d="M227.00781,125.52339l0.78996,5.94688l8.99863,5.07439l1.06592,11.6023l9.78366,2.79023l1.17351,11.30973" fill="none" stroke="url(#color-51)" stroke-width="0.5" stroke-linecap="round"/><path d="M229.93289,148.88299l-3.83436,0.47608l0.57002,9.79572l-8.19173,4.31683" fill="none" stroke="url(#color-52)" stroke-width="0.5" stroke-linecap="round"/><path d="M226.96735,153.9874l-6.48316,-0.23308l-6.66695,-8.65087l1.20566,-4.58821" fill="none" stroke="url(#color-53)" stroke-width="0.5" stroke-linecap="round"/><path d="M185.51346,176.39519l9.99392,-0.57638l2.77382,-6.5345l6.69795,-2.2046l14.05284,-0.68629l-1.98973,0.6808" fill="none" stroke="url(#color-54)" stroke-width="0.5" stroke-linecap="round"/><path d="M223.93831,208.1456l9.26169,-22.95074" fill="none" stroke="url(#color-55)" stroke-width="0.5" stroke-linecap="round"/><path d="M229.36406,208.0228l4.03778,-7.42723l11.39492,-2.16522" fill="none" stroke="url(#color-56)" stroke-width="0.5" stroke-linecap="round"/><path d="M271.32938,193.086l-7.37171,-3.74561l-6.10937,4.49087l-14.82812,-4.75059" fill="none" stroke="url(#color-57)" stroke-width="0.5" stroke-linecap="round"/><path d="M266.04385,190.76034l0.58153,6.24677" fill="none" stroke="url(#color-58)" stroke-width="0.5" stroke-linecap="round"/><path d="M277.27173,157.446l0.32417,-9.44613l2.65876,-3.53248" fill="none" stroke="url(#color-59)" stroke-width="0.5" stroke-linecap="round"/><path d="M290.45783,163.11406l-3.81289,2.23814l-15.30143,-4.0552" fill="none" stroke="url(#color-60)" stroke-width="0.5" stroke-linecap="round"/><path d="M275.67911,141.09866l-4.12384,7.51658l-12.35196,1.36591" fill="none" stroke="url(#color-61)" stroke-width="0.5" stroke-linecap="round"/><path d="M257.87653,130.25328l5.2417,-0.09023l1.94604,10.83352" fill="none" stroke="url(#color-62)" stroke-width="0.5" stroke-linecap="round"/><path d="M240.78602,215.75753l-1.64835,-4.55976l2.56918,-4.6019l-3.14282,-4.18051l-1.52624,-3.97431l3.73445,-1.26711l2.26484,-5.3467l-2.73364,-3.25818l1.36268,-6.22632l2.92953,0.17349l4.21258,-0.93999l4.7817,-1.6518l0.91121,4.30664l5.74986,1.93472l7.00655,-1.76983l4.47773,3.75046l1.47629,-4.0595" data-paper-data="{&quot;index&quot;:null}" fill="none" stroke="url(#color-63)" stroke-width="0.5" stroke-linecap="round"/><path d="M216.97022,159.9052l1.98408,2.46373l-0.99627,5.77839l5.69816,1.90027l6.96107,-2.69915l1.65614,6.02538l6.14762,1.91573l0.18893,5.43805l3.39472,1.77002l-6.21521,5.53343l-4.03282,1.64571l-4.24317,0.83951l-3.26107,4.97587l-4.12607,-0.17638l0.34846,4.51019l-3.99336,1.94324" data-paper-data="{&quot;index&quot;:null}" fill="none" stroke="url(#color-64)" stroke-width="0.5" stroke-linecap="round"/><path d="M242.0804,181.79537l1.57535,-0.48968l1.82347,-1.36228l1.14395,-3.02233l1.84851,-4.71665l7.39837,-5.20502l3.0747,-2.0905l-0.31595,-6.55968l5.8134,-0.54752" data-paper-data="{&quot;index&quot;:null}" fill="none" stroke="url(#color-65)" stroke-width="0.5" stroke-linecap="round"/><path d="M251.95024,170.42682l-5.07577,-2.74209l-8.11861,-5.36263l5.28953,-0.5119l1.40848,-5.19542l-4.92593,-2.80717l-1.53674,-2.65804" data-paper-data="{&quot;index&quot;:null}" fill="none" stroke="url(#color-66)" stroke-width="0.5" stroke-linecap="round"/><path d="M210.8769,181.27213l5.67065,1.86949l3.27754,6.01599l5.02198,0.19526l2.15944,2.65779" data-paper-data="{&quot;index&quot;:null}" fill="none" stroke="url(#color-67)" stroke-width="0.5" stroke-linecap="round"/><path d="M263.06638,206.79304l-1.95748,-2.72888l-5.7817,-0.13453l-3.5843,-5.44929l-5.56741,1.20049l-3.56032,-5.27644" data-paper-data="{&quot;index&quot;:null}" fill="none" stroke="url(#color-68)" stroke-width="0.5" stroke-linecap="round"/><path d="M266.67415,164.55492l-2.25114,4.91991l-5.90042,0.87141l-0.81405,3.7802l-4.16092,3.79487l-4.07348,-3.98364l-2.39399,2.12121" data-paper-data="{&quot;index&quot;:null}" fill="none" stroke="url(#color-69)" stroke-width="0.5" stroke-linecap="round"/><path d="M240.15942,166.66869l-0.03672,4.73239l-5.05714,4.07258" data-paper-data="{&quot;index&quot;:null}" fill="none" stroke="url(#color-70)" stroke-width="0.5" stroke-linecap="round"/><path d="M233.42347,174.23089l-4.14302,0.93462l-1.53496,4.5611l-3.61811,-1.64347l-5.20385,-3.87031l-2.96768,1.68658" data-paper-data="{&quot;index&quot;:null}" fill="none" stroke="url(#color-71)" stroke-width="0.5" stroke-linecap="round"/><path d="M223.37001,185.10601l4.62797,-0.09295l1.83375,-3.82815l8.57545,-1.56179" data-paper-data="{&quot;index&quot;:null}" fill="none" stroke="url(#color-72)" stroke-width="0.5" stroke-linecap="round"/><path d="M231.60236,190.0197l4.4042,3.07995l-2.58307,5.28666l2.95231,5.84841l-7.8947,1.55199" data-paper-data="{&quot;index&quot;:null}" fill="none" stroke="url(#color-73)" stroke-width="0.5" stroke-linecap="round"/><path d="M229.82829,204.27425l2.32948,4.75075l-0.38211,2.44537" data-paper-data="{&quot;index&quot;:null}" fill="none" stroke="url(#color-74)" stroke-width="0.5" stroke-linecap="round"/><path d="M212.73705,193.66884l2.47406,1.21408" data-paper-data="{&quot;index&quot;:null}" fill="none" stroke="url(#color-75)" stroke-width="0.5" stroke-linecap="round"/><path d="M217.76198,168.26923c0,-0.24638 0.19973,-0.4461 0.4461,-0.4461c0.24638,0 0.4461,0.19973 0.4461,0.4461c0,0.24638 -0.19973,0.4461 -0.4461,0.4461c-0.24638,0 -0.4461,-0.19973 -0.4461,-0.4461z" fill="#ffffff" stroke="url(#color-76)" stroke-width="0.5" stroke-linecap="butt"/><path d="M249.88175,176.59658c0,-0.24638 0.19973,-0.4461 0.4461,-0.4461c0.24638,0 0.4461,0.19973 0.4461,0.4461c0,0.24638 -0.19973,0.4461 -0.4461,0.4461c-0.24638,0 -0.4461,-0.19973 -0.4461,-0.4461z" fill="#ffffff" stroke="url(#color-77)" stroke-width="0.5" stroke-linecap="butt"/><path d="M232.63225,206.93193c0,-0.24638 0.19973,-0.4461 0.4461,-0.4461c0.24638,0 0.4461,0.19973 0.4461,0.4461c0,0.24638 -0.19973,0.4461 -0.4461,0.4461c-0.24638,0 -0.4461,-0.19973 -0.4461,-0.4461z" fill="#ffffff" stroke="url(#color-78)" stroke-width="0.5" stroke-linecap="butt"/><path d="M249.56395,190.2166l-19.64479,-19.92354l0.51688,-0.50966l19.64479,19.92354z" fill="url(#color-79)" stroke="#000000" stroke-width="0" stroke-linecap="butt"/><path d="M250.32882,170.55734l-20.15411,19.40818l-0.50351,-0.52286l20.15411,-19.40818z" fill="url(#color-80)" stroke="#000000" stroke-width="0" stroke-linecap="butt"/><path d="M225.68949,180c0,-7.90347 6.40703,-14.31051 14.31051,-14.31051c7.90347,0 14.31051,6.40703 14.31051,14.31051c0,7.90347 -6.40703,14.31051 -14.31051,14.31051c-7.90347,0 -14.31051,-6.40703 -14.31051,-14.31051z" fill="url(#color-81)" stroke="none" stroke-width="0" stroke-linecap="butt"/><path d="M204.97691,180c0,-19.34271 15.68037,-35.02309 35.02309,-35.02309c19.34271,0 35.02309,15.68037 35.02309,35.02309c0,19.34271 -15.68037,35.02309 -35.02309,35.02309c-19.34271,0 -35.02309,-15.68037 -35.02309,-35.02309z" fill="none" stroke="url(#color-82)" stroke-width="10" stroke-linecap="butt"/><path d="M180.875,180c0,-32.65384 26.47116,-59.125 59.125,-59.125c32.65384,0 59.125,26.47116 59.125,59.125c0,32.65384 -26.47116,59.125 -59.125,59.125c-32.65384,0 -59.125,-26.47116 -59.125,-59.125z" fill="none" stroke="url(#color-83)" stroke-width="15" stroke-linecap="butt"/><path d="M224.03248,180c0,-8.81862 7.1489,-15.96752 15.96752,-15.96752c8.81862,0 15.96752,7.1489 15.96752,15.96752c0,8.81862 -7.1489,15.96752 -15.96752,15.96752c-8.81862,0 -15.96752,-7.1489 -15.96752,-15.96752z" fill="none" stroke="url(#color-84)" stroke-width="7.5" stroke-linecap="butt"/><path d="M234.72771,180c0,-2.9118 2.36049,-5.27229 5.27229,-5.27229c2.9118,0 5.27229,2.36049 5.27229,5.27229c0,2.9118 -2.36049,5.27229 -5.27229,5.27229c-2.9118,0 -5.27229,-2.36049 -5.27229,-5.27229z" fill="url(#color-85)" stroke="none" stroke-width="NaN" stroke-linecap="butt"/></g></g></svg>