<svg version="1.1" xmlns="http://www.w3.org/2000/svg" xmlns:xlink="http://www.w3.org/1999/xlink" width="22.63336" height="24.42383" viewBox="0,0,22.63336,24.42383"><g transform="translate(-229.14785,-168.19531)"><g data-paper-data="{&quot;isPaintingLayer&quot;:true}" fill-rule="nonzero" stroke-linejoin="miter" stroke-miterlimit="10" stroke-dasharray="" stroke-dashoffset="0" style="mix-blend-mode: normal"><path d="" data-paper-data="{&quot;index&quot;:null}" fill="none" stroke="#cdcdcd" stroke-width="1.5" stroke-linecap="round"/><path d="" fill="none" stroke="#cdcdcd" stroke-width="1.5" stroke-linecap="round"/><path d="" data-paper-data="{&quot;index&quot;:null}" fill="none" stroke="#cdcdcd" stroke-width="1.5" stroke-linecap="round"/><path d="" fill="none" stroke="#cdcdcd" stroke-width="1.5" stroke-linecap="round"/><path d="" data-paper-data="{&quot;index&quot;:null}" fill="none" stroke="#cdcdcd" stroke-width="1.5" stroke-linecap="round"/><path d="" data-paper-data="{&quot;index&quot;:null}" fill="none" stroke="#cdcdcd" stroke-width="1.5" stroke-linecap="round"/><path d="" data-paper-data="{&quot;index&quot;:null}" fill="none" stroke="#cdcdcd" stroke-width="1.5" stroke-linecap="round"/><path d="" fill="none" stroke="#cdcdcd" stroke-width="1.5" stroke-linecap="round"/><path d="" data-paper-data="{&quot;index&quot;:null}" fill="none" stroke="#cdcdcd" stroke-width="1.5" stroke-linecap="round"/><path d="" data-paper-data="{&quot;index&quot;:null}" fill="none" stroke="#cdcdcd" stroke-width="1.5" stroke-linecap="round"/><path d="" fill="none" stroke="#cdcdcd" stroke-width="1.5" stroke-linecap="round"/><path d="" data-paper-data="{&quot;index&quot;:null}" fill="none" stroke="#cdcdcd" stroke-width="1.5" stroke-linecap="round"/><path d="M234.55672,180.90574c0,0 -1.26682,2.47386 -0.90626,3.30079c0.34597,0.79345 3.02766,1.56452 3.02766,1.56452l-2.33107,1.88915" fill="none" stroke="#9e9e9e" stroke-width="2" stroke-linecap="round"/><path d="M247.28599,182.18214l-3.33922,0.58325c0,0 1.42575,-2.23446 1.11965,-2.93649c-0.35326,-0.81017 -3.11808,-1.64678 -3.11808,-1.64678" fill="none" stroke="#9e9e9e" stroke-width="2" stroke-linecap="round"/><path d="M233.37117,183.4409c0,0 -1.26682,2.47386 -0.90626,3.30079c0.34597,0.79345 3.02766,1.56452 3.02766,1.56452l-2.33107,1.88915" fill="none" stroke="#b8b8b8" stroke-width="2" stroke-linecap="round"/><path d="M250.78122,182.56724l-3.33922,0.58325c0,0 1.42575,-2.23446 1.11965,-2.93649c-0.35326,-0.81017 -3.11808,-1.64678 -3.11808,-1.64678" fill="none" stroke="#b8b8b8" stroke-width="2" stroke-linecap="round"/><path d="M236.39203,184.86468c0,0 -1.26682,2.47386 -0.90626,3.30079c0.34597,0.79345 3.02766,1.56452 3.02766,1.56452l-2.33108,1.88915" fill="none" stroke="#d4d4d4" stroke-width="2" stroke-linecap="round"/><path d="M249.128,185.9063l-3.33922,0.58325c0,0 1.42575,-2.23446 1.11965,-2.93649c-0.35326,-0.81017 -3.11808,-1.64678 -3.11808,-1.64678" fill="none" stroke="#d4d4d4" stroke-width="2" stroke-linecap="round"/><path d="M244.79346,173.47054c0.82473,1.89148 2.70147,3.85076 1.75622,5.6824c-0.85734,1.6613 -4.14277,3.67651 -6.09914,4.52954c-2.21703,0.96668 -5.55648,2.02544 -7.50861,1.2723c-1.6697,-0.64418 -2.31901,-3.32647 -3.04408,-4.98936c-0.90133,-2.06713 -1.0534,-4.46675 0.13403,-6.40875c0.88457,-1.4467 2.70997,-2.60415 4.46602,-3.36984c1.94699,-0.84894 4.14905,-1.57486 5.94371,-1.08084c1.99682,0.54966 3.52353,2.46486 4.35185,4.36456z" fill="#000000" stroke="#e0e0e0" stroke-width="1.5" stroke-linecap="butt"/><path d="M241.25153,180.04306l-0.74912,0.94028l-1.25606,-0.06597l-0.70506,0.88497l-1.12825,-0.0856" fill="none" stroke="#e0e0e0" stroke-width="1" stroke-linecap="round"/><path d="M234.39284,174.92276l5.54961,1.74089" fill="none" stroke="#e0e0e0" stroke-width="1.5" stroke-linecap="round"/><path d="M238.03489,172.8381l-1.84329,5.87605" fill="none" stroke="#e0e0e0" stroke-width="1.5" stroke-linecap="round"/></g></g></svg>