<svg version="1.1" xmlns="http://www.w3.org/2000/svg" xmlns:xlink="http://www.w3.org/1999/xlink" width="56.83333" height="56.83333" viewBox="0,0,56.83333,56.83333"><g transform="translate(-211.58345,-151.58336)"><g data-paper-data="{&quot;isPaintingLayer&quot;:true}" fill-rule="nonzero" stroke-linejoin="miter" stroke-miterlimit="10" stroke-dasharray="" stroke-dashoffset="0" style="mix-blend-mode: normal"><path d="M211.58346,208.41669v-56.83333h56.83333v56.83333z" fill="none" stroke="none" stroke-width="0" stroke-linecap="butt"/><path d="M224.898,181.23729c0,0 -1.85639,-3.58561 -1.2518,-4.42647c1.16559,-1.62108 5.21292,-0.91424 5.41717,0.15067c0.37478,1.95411 -0.40809,4.27788 0.06474,6.1428c0.50663,1.99818 9.5593,-5.12015 17.04609,-7.62491c3.23798,-1.08328 5.57789,-2.32444 6.6653,-1.26166c1.08742,1.06279 1.27232,3.66242 1.27232,3.66242" fill="none" stroke="#400071" stroke-width="1.5" stroke-linecap="round"/><path d="M244.49514,169.16784c0,0 -2.44248,-0.30799 -3.28936,0.3124c-1.74679,1.27964 0.00222,6.31668 -2.04935,6.90347c-1.58327,0.45284 -7.69465,-4.24085 -7.69465,-4.24085" data-paper-data="{&quot;index&quot;:null}" fill="none" stroke="#400071" stroke-width="1.5" stroke-linecap="round"/><path d="M229.78926,181.65978l-2.04429,-2.72399l3.44437,0.63254" fill="none" stroke="#400071" stroke-width="2" stroke-linecap="round"/><path d="M236.93177,173.60694l1.50245,-3.05644l0.99633,3.35725" fill="none" stroke="#400071" stroke-width="2" stroke-linecap="round"/><path d="M241.93938,175.09769l2.86763,-1.83737l-0.88539,3.38821" fill="none" stroke="#400071" stroke-width="2" stroke-linecap="round"/><path d="M246.61361,178.16342l3.3188,-0.76468l-1.97438,2.89234" fill="none" stroke="#400071" stroke-width="2" stroke-linecap="round"/><path d="M247.82006,182.81675l3.09163,1.42865l-3.33237,1.07664" fill="none" stroke="#400071" stroke-width="2" stroke-linecap="round"/><path d="M229.93783,184.84512l-3.09233,-1.45683l3.33191,-1.09525" data-paper-data="{&quot;index&quot;:null}" fill="none" stroke="#400071" stroke-width="2" stroke-linecap="round"/><path d="M232.84797,178.01924l-1.2541,-3.17995l3.17729,1.48528" data-paper-data="{&quot;index&quot;:null}" fill="none" stroke="#400071" stroke-width="2" stroke-linecap="round"/><path d="M232.16805,176.91781c-0.06248,-2.52693 1.93536,-4.62605 4.46228,-4.68852c1.4821,-0.03664 2.81701,0.63547 3.68016,1.70738c0.79412,-0.75776 2.01333,-1.15475 3.19709,-1.18402c2.52693,-0.06248 4.47449,1.85614 4.53697,4.38306c0.00464,0.18744 -0.00207,0.37254 -0.01949,0.55461c1.80967,0.57427 3.14086,2.24586 3.19042,4.25041c0.06248,2.52693 -1.93536,4.62605 -4.46228,4.68852c-5.59633,0.13836 -8.74749,-0.08895 -14.34382,0.04941c-2.52693,0.06248 -4.62605,-1.93536 -4.68852,-4.46228c-0.06248,-2.52693 1.93536,-4.62605 4.46228,-4.68852c0.01345,-0.00033 0.0269,-0.00061 0.04034,-0.00082c-0.03154,-0.19897 -0.0503,-0.40232 -0.05542,-0.60923z" fill="#000000" stroke="#400071" stroke-width="2" stroke-linecap="butt"/></g></g></svg>