<svg version="1.1" xmlns="http://www.w3.org/2000/svg" xmlns:xlink="http://www.w3.org/1999/xlink" width="54.5" height="54.5" viewBox="0,0,54.5,54.5"><g transform="translate(-213.02699,-149.01057)"><g data-paper-data="{&quot;isPaintingLayer&quot;:true}" fill-rule="nonzero" stroke-linejoin="miter" stroke-miterlimit="10" stroke-dasharray="" stroke-dashoffset="0" style="mix-blend-mode: normal"><path d="M213.02699,203.51057v-54.5h54.5v54.5z" fill="none" stroke="none" stroke-width="0" stroke-linecap="butt"/><path d="M229.06133,169.00836c0,0 0.67909,-6.25891 1.41244,-6.46222c1.71115,-0.47439 4.85131,4.72572 4.85131,4.72572" fill="none" stroke="#430076" stroke-width="2.5" stroke-linecap="round"/><path d="M238.15538,165.878c0,0 0.67909,-6.25891 1.41244,-6.46222c1.71115,-0.47439 4.85131,4.72572 4.85131,4.72572" fill="none" stroke="#430076" stroke-width="2.5" stroke-linecap="round"/><path d="M238.33756,196.89975l-2.09795,-0.53937l1.46285,-5.68996" data-paper-data="{&quot;index&quot;:null}" fill="none" stroke="#430076" stroke-width="3" stroke-linecap="round"/><path d="M253.91006,190.60298l-1.53729,1.64227l-4.20795,-3.93898" fill="none" stroke="#430076" stroke-width="3" stroke-linecap="round"/><path d="M232.26986,190.79486c-1.20448,-0.68145 -1.0999,-1.16009 -1.46954,-2.49345c-1.10893,-4.00006 -2.62665,-9.47466 -4.30784,-15.53893c-0.34714,-1.25219 -0.64164,-1.576 0.0336,-2.68619c0.67523,-1.1102 1.16047,-1.1 2.49407,-1.46971c5.97024,-1.65512 11.44816,-3.17376 15.29802,-4.24104c1.28328,-0.35575 1.6348,-0.69135 2.76588,0.01151c1.13108,0.70286 1.12583,1.25363 1.51207,2.64684c1.62906,5.87622 3.02624,10.91601 4.17426,15.0571c0.38268,1.38036 0.71705,1.7431 0.05746,3.01463c-0.65959,1.27153 -1.08186,1.07821 -2.36515,1.43397c-1.28328,0.35575 -11.29722,3.13192 -15.29802,4.24104c-1.3336,0.36971 -1.69032,0.70569 -2.8948,0.02423z" fill="#000000" stroke="#430076" stroke-width="2.5" stroke-linecap="butt"/><path d="M232.95294,178.14496c0,-0.9665 0.7835,-1.75 1.75,-1.75c0.9665,0 1.75,0.7835 1.75,1.75c0,0.9665 -0.7835,1.75 -1.75,1.75c-0.9665,0 -1.75,-0.7835 -1.75,-1.75z" fill="#ffffff" stroke="none" stroke-width="0.5" stroke-linecap="butt"/><path d="M244.66633,174.71665c0,-0.9665 0.7835,-1.75 1.75,-1.75c0.9665,0 1.75,0.7835 1.75,1.75c0,0.9665 -0.7835,1.75 -1.75,1.75c-0.9665,0 -1.75,-0.7835 -1.75,-1.75z" fill="#ffffff" stroke="none" stroke-width="0.5" stroke-linecap="butt"/></g></g></svg>