<svg version="1.1" xmlns="http://www.w3.org/2000/svg" xmlns:xlink="http://www.w3.org/1999/xlink" width="77.1" height="77.1" viewBox="0,0,77.1,77.1"><defs><linearGradient x1="255.88729" y1="13.38249" x2="255.88729" y2="272.51369" gradientUnits="userSpaceOnUse" id="color-1"><stop offset="0" stop-color="#96b2ff"/><stop offset="1" stop-color="#96b2ff" stop-opacity="0"/></linearGradient><radialGradient cx="240" cy="180" r="10.70494" gradientUnits="userSpaceOnUse" id="color-2"><stop offset="0" stop-color="#ff0000"/><stop offset="1" stop-color="#ff0000" stop-opacity="0"/></radialGradient></defs><g transform="translate(-201.45,-141.45)"><g data-paper-data="{&quot;isPaintingLayer&quot;:true}" fill-rule="nonzero" stroke-linejoin="miter" stroke-miterlimit="10" stroke-dasharray="" stroke-dashoffset="0" style="mix-blend-mode: normal"><path d="M227.35336,179.44257c0.07971,-6.96053 5.29593,-12.18917 12.3387,-12.03598c7.04277,0.15319 13.03877,5.24795 12.95473,12.58614c-0.08404,7.3382 -5.76861,12.76299 -13.24317,12.60041c-7.47456,-0.16258 -12.12997,-6.19003 -12.05026,-13.15056z" fill="url(#color-1)" stroke="#ffffff" stroke-width="1.5" stroke-linecap="butt"/><path d="M229.29506,180c0,-5.91217 4.79277,-10.70494 10.70494,-10.70494c5.91217,0 10.70494,4.79277 10.70494,10.70494c0,5.91217 -4.79277,10.70494 -10.70494,10.70494c-5.91217,0 -10.70494,-4.79277 -10.70494,-10.70494z" fill="url(#color-2)" stroke="#8719ff" stroke-width="0" stroke-linecap="butt"/><path d="M218.175,201.825v-43.65h43.65v43.65z" fill="none" stroke="none" stroke-width="NaN" stroke-linecap="butt"/><path d="M227.45792,180.00001c0,-6.9268 5.61528,-12.54209 12.54209,-12.54209c6.9268,0 12.54209,5.61528 12.54209,12.54209c0,6.9268 -5.61528,12.54209 -12.54209,12.54209c-6.9268,0 -12.54209,-5.61528 -12.54209,-12.54209z" fill="none" stroke="#ffffff" stroke-width="1" stroke-linecap="butt"/><path d="M242.95671,178.34191c0.56724,-0.8794 0.17404,-2.41867 0.17404,-2.41867c0,0 1.89139,0.84486 2.51629,3.78099c0.4664,2.19146 0.31612,4.07467 -1.16573,6.1262c-0.62775,1.13595 -3.47434,1.91486 -5.17196,1.88604c-1.61681,-0.02868 -3.90073,-1.23352 -4.62537,-2.18761c-1.19241,-1.7985 -0.86965,-1.27942 -1.35434,-3.38216c-0.48834,-2.11856 1.58709,-6.1779 1.58709,-6.1779c0,0 0.06378,0.94735 0.32274,1.47787c0.25896,0.53052 0.87864,0.98332 0.87864,0.98332c0,0 0.00408,0.34434 0.09188,-0.08456c0.24083,-1.17638 -0.00266,-2.15627 1.58761,-4.51577c1.74581,-2.59028 4.1728,-2.70765 4.1728,-2.70765c0,0 -1.238,2.54292 -1.00875,4.22103c0.22925,1.67811 1.99506,2.99888 1.99506,2.99888z" fill="#ff9400" stroke="#ff2222" stroke-width="1.5" stroke-linecap="round"/><path d="M240.80427,181.83273c0,0 0.51654,0.30213 0.82835,-0.18127c0.33412,-0.518 0.10251,-1.42469 0.10251,-1.42469c0,0 0.79105,0.01307 1.15913,1.74256c0.27473,1.29085 0.50926,2.88472 -0.36361,4.09314c-0.36977,0.66911 -2.04651,1.12792 -3.04648,1.11095c-0.95236,-0.01689 -2.29767,-0.72659 -2.72451,-1.28858c-0.46554,-0.70217 -0.58546,-1.59331 -0.33499,-2.3977c0.03535,-0.11479 0.41904,-1.87711 0.2843,-2.46163c-0.28765,-1.24791 -0.51889,-1.41801 -0.51889,-1.41801c0,0 0.57885,-0.43883 1.34099,-0.01788c0.56191,0.31036 0.80022,1.02341 0.80022,1.02341c0,0 0.62324,-1.22264 1.29215,-1.7406c0.66891,-0.51797 1.55169,-0.48252 1.55169,-0.48252c0,0 -0.48677,1.42327 -0.59654,2.06045c-0.0898,0.52128 0.22568,1.38237 0.22568,1.38237z" fill="#ffed1d" stroke="#ff2222" stroke-width="0" stroke-linecap="round"/><path d="M240.17996,184.04878c0,0 0.26957,0.15767 0.43229,-0.0946c0.17437,-0.27033 0.0535,-0.7435 0.0535,-0.7435c0,0 0.41283,0.00682 0.60492,0.90939c0.14337,0.67366 0.26577,1.50545 -0.18976,2.13609c-0.19297,0.34919 -1.06802,0.58863 -1.58987,0.57978c-0.49701,-0.00881 -1.19909,-0.37919 -1.42185,-0.67248c-0.24296,-0.36645 -0.30554,-0.8315 -0.17482,-1.25129c0.01845,-0.05991 0.21869,-0.97961 0.14837,-1.28466c-0.15011,-0.65125 -0.27079,-0.74002 -0.27079,-0.74002c0,0 0.30208,-0.22901 0.69982,-0.00933c0.29324,0.16196 0.41762,0.53409 0.41762,0.53409c0,0 0.32525,-0.63806 0.67434,-0.90837c0.34909,-0.27031 0.80978,-0.25181 0.80978,-0.25181c0,0 -0.25404,0.74276 -0.31132,1.07529c-0.04687,0.27204 0.11777,0.72142 0.11777,0.72142z" fill="#ffffff" stroke="#ff2222" stroke-width="0" stroke-linecap="round"/><path d="M201.45,218.55v-77.1h77.1v77.1z" fill="none" stroke="none" stroke-width="NaN" stroke-linecap="butt"/></g></g></svg>