<svg version="1.1" xmlns="http://www.w3.org/2000/svg" xmlns:xlink="http://www.w3.org/1999/xlink" width="190.83335" height="190.83335" viewBox="0,0,190.83335,190.83335"><defs><radialGradient cx="240" cy="180" r="51.09034" gradientUnits="userSpaceOnUse" id="color-1"><stop offset="0" stop-color="#ffe678"/><stop offset="1" stop-color="#ffe678" stop-opacity="0"/></radialGradient><radialGradient cx="240" cy="180" r="51.09034" gradientUnits="userSpaceOnUse" id="color-2"><stop offset="0" stop-color="#94fffd" stop-opacity="0"/><stop offset="1" stop-color="#94fffd" stop-opacity="0"/></radialGradient><radialGradient cx="240" cy="180" r="51.09034" gradientUnits="userSpaceOnUse" id="color-3"><stop offset="0" stop-color="#ffffff"/><stop offset="1" stop-color="#ffffff" stop-opacity="0"/></radialGradient><radialGradient cx="240" cy="180" r="51.09034" gradientUnits="userSpaceOnUse" id="color-4"><stop offset="0" stop-color="#94fffd" stop-opacity="0"/><stop offset="1" stop-color="#94fffd" stop-opacity="0"/></radialGradient><radialGradient cx="240.00001" cy="180.00001" r="85.41667" gradientUnits="userSpaceOnUse" id="color-5"><stop offset="0" stop-color="#ffffff"/><stop offset="1" stop-color="#ffffff" stop-opacity="0"/></radialGradient><radialGradient cx="240" cy="180" r="65.4595" gradientUnits="userSpaceOnUse" id="color-6"><stop offset="0" stop-color="#ffffff"/><stop offset="1" stop-color="#ffffff" stop-opacity="0"/></radialGradient><radialGradient cx="240" cy="180" r="85.41667" gradientUnits="userSpaceOnUse" id="color-7"><stop offset="0" stop-color="#ffffff"/><stop offset="1" stop-color="#ffffff" stop-opacity="0"/></radialGradient><radialGradient cx="240" cy="180" r="65.4595" gradientUnits="userSpaceOnUse" id="color-8"><stop offset="0" stop-color="#ffffff"/><stop offset="1" stop-color="#ffffff" stop-opacity="0"/></radialGradient><radialGradient cx="240" cy="180" r="85.41667" gradientUnits="userSpaceOnUse" id="color-9"><stop offset="0" stop-color="#ffffff"/><stop offset="1" stop-color="#ffffff" stop-opacity="0"/></radialGradient><radialGradient cx="240" cy="180" r="65.4595" gradientUnits="userSpaceOnUse" id="color-10"><stop offset="0" stop-color="#ffffff"/><stop offset="1" stop-color="#ffffff" stop-opacity="0"/></radialGradient></defs><g transform="translate(-144.58333,-84.58333)"><g data-paper-data="{&quot;isPaintingLayer&quot;:true}" fill-rule="nonzero" stroke-linecap="butt" stroke-linejoin="miter" stroke-miterlimit="10" stroke-dasharray="" stroke-dashoffset="0" style="mix-blend-mode: normal"><path d="M188.90966,180c0,-28.21642 22.87392,-51.09034 51.09034,-51.09034c28.21642,0 51.09034,22.87392 51.09034,51.09034c0,28.21642 -22.87392,51.09034 -51.09034,51.09034c-28.21642,0 -51.09034,-22.87392 -51.09034,-51.09034z" fill="url(#color-1)" stroke="url(#color-2)" stroke-width="0"/><path d="M188.90966,180c0,-28.21642 22.87392,-51.09034 51.09034,-51.09034c28.21642,0 51.09034,22.87392 51.09034,51.09034c0,28.21642 -22.87392,51.09034 -51.09034,51.09034c-28.21642,0 -51.09034,-22.87392 -51.09034,-51.09034z" fill="url(#color-3)" stroke="url(#color-4)" stroke-width="0"/><path d="M154.58334,180.00001c0,-47.17432 38.24235,-85.41667 85.41667,-85.41667c47.17432,0 85.41667,38.24235 85.41667,85.41667c0,47.17432 -38.24235,85.41667 -85.41667,85.41667c-47.17432,0 -85.41667,-38.24235 -85.41667,-85.41667z" fill="none" stroke="url(#color-5)" stroke-width="20"/><path d="M174.5405,180c0,-36.15228 29.30722,-65.4595 65.4595,-65.4595c36.15228,0 65.4595,29.30722 65.4595,65.4595c0,36.15228 -29.30722,65.4595 -65.4595,65.4595c-36.15228,0 -65.4595,-29.30722 -65.4595,-65.4595z" fill="none" stroke="url(#color-6)" stroke-width="20"/><path d="M154.58333,180c0,-47.17432 38.24235,-85.41667 85.41667,-85.41667c47.17432,0 85.41667,38.24235 85.41667,85.41667c0,47.17432 -38.24235,85.41667 -85.41667,85.41667c-47.17432,0 -85.41667,-38.24235 -85.41667,-85.41667z" fill="none" stroke="url(#color-7)" stroke-width="20"/><path d="M174.5405,180c0,-36.15228 29.30722,-65.4595 65.4595,-65.4595c36.15228,0 65.4595,29.30722 65.4595,65.4595c0,36.15228 -29.30722,65.4595 -65.4595,65.4595c-36.15228,0 -65.4595,-29.30722 -65.4595,-65.4595z" fill="none" stroke="url(#color-8)" stroke-width="20"/><path d="M154.58333,180c0,-47.17432 38.24235,-85.41667 85.41667,-85.41667c47.17432,0 85.41667,38.24235 85.41667,85.41667c0,47.17432 -38.24235,85.41667 -85.41667,85.41667c-47.17432,0 -85.41667,-38.24235 -85.41667,-85.41667z" fill="none" stroke="url(#color-9)" stroke-width="20"/><path d="M174.5405,180c0,-36.15228 29.30722,-65.4595 65.4595,-65.4595c36.15228,0 65.4595,29.30722 65.4595,65.4595c0,36.15228 -29.30722,65.4595 -65.4595,65.4595c-36.15228,0 -65.4595,-29.30722 -65.4595,-65.4595z" fill="none" stroke="url(#color-10)" stroke-width="20"/></g></g></svg>