<svg version="1.1" xmlns="http://www.w3.org/2000/svg" xmlns:xlink="http://www.w3.org/1999/xlink" width="502.41858" height="379.33384" viewBox="0,0,502.41858,379.33384"><g transform="translate(12.49763,12.58384)"><g data-paper-data="{&quot;isPaintingLayer&quot;:true}" fill-rule="nonzero" stroke-linejoin="miter" stroke-miterlimit="10" stroke-dasharray="" stroke-dashoffset="0" style="mix-blend-mode: normal"><path d="M-6,366.5c0,0 0,-138.65794 0,-203.37653c0,-59.10464 0,-169.62347 0,-169.62347h492v373z" fill="#4f240f" stroke="#000000" stroke-width="0.5" stroke-linecap="butt"/><path d="M75.5,344.5v-329h329v329z" fill="#230f0f" stroke="none" stroke-width="0" stroke-linecap="butt"/><g fill="#823c1f" stroke="#000000" stroke-width="0" stroke-linecap="butt"><path d="M201.56666,138.45558v-37h37v37z"/><path d="M161.43333,178.54447v-37h37v37z"/><path d="M121.56666,138.45558v-37h37v37z"/><path d="M81.43333,178.54447v-37h37v37z"/><path d="M201.56666,58.45557v-37h37v37z"/><path d="M161.43333,98.54447v-37h37v37z"/><path d="M121.56666,58.45557v-37h37v37z"/><path d="M81.43333,98.54447v-37h37v37z"/><path d="M361.56666,138.45558v-37h37v37z"/><path d="M321.43333,178.54447v-37h37v37z"/><path d="M281.56666,138.45558v-37h37v37z"/><path d="M241.43333,178.54447v-37h37v37z"/><path d="M361.56666,58.45557v-37h37v37z"/><path d="M321.43333,98.54447v-37h37v37z"/><path d="M281.56666,58.45557v-37h37v37z"/><path d="M241.43333,98.54447v-37h37v37z"/><path d="M201.56666,298.45556v-37h37v37z"/><path d="M161.43333,338.54446v-37h37v37z"/><path d="M121.56666,298.45556v-37h37v37z"/><path d="M81.43333,338.54446v-37h37v37z"/><path d="M201.56666,218.45558v-37h37v37z"/><path d="M161.43333,258.54447v-37h37v37z"/><path d="M121.56666,218.45558v-37h37v37z"/><path d="M81.43333,258.54447v-37h37v37z"/><path d="M361.56666,298.45556v-37h37v37z"/><path d="M321.43333,338.54446v-37h37v37z"/><path d="M281.56666,298.45556v-37h37v37z"/><path d="M241.43333,338.54446v-37h37v37z"/><path d="M361.56666,218.45558v-37h37v37z"/><path d="M321.43333,258.54447v-37h37v37z"/><path d="M281.56666,218.45558v-37h37v37z"/><path d="M241.43333,258.54447v-37h37v37z"/></g><g fill="#3b3612" stroke="#000000" stroke-width="0" stroke-linecap="butt"><path d="M161.93333,138.54447v-37h37v37z"/><path d="M202.06667,178.45558v-37h37v37z"/><path d="M81.93333,138.54447v-37h37v37z"/><path d="M122.06667,178.45558v-37h37v37z"/><path d="M161.93333,58.54447v-37h37v37z"/><path d="M202.06667,98.45558v-37h37v37z"/><path d="M81.93333,58.54447v-37h37v37z"/><path d="M122.06667,98.45558v-37h37v37z"/><path d="M321.93333,138.54447v-37h37v37z"/><path d="M362.06667,178.45558v-37h37v37z"/><path d="M241.93333,138.54447v-37h37v37z"/><path d="M282.06667,178.45558v-37h37v37z"/><path d="M321.93333,58.54447v-37h37v37z"/><path d="M362.06667,98.45558v-37h37v37z"/><path d="M241.93333,58.54447v-37h37v37z"/><path d="M282.06667,98.45558v-37h37v37z"/><path d="M161.93333,298.54445v-37h37v37z"/><path d="M202.06667,338.45557v-37h37v37z"/><path d="M81.93333,298.54445v-37h37v37z"/><path d="M122.06667,338.45557v-37h37v37z"/><path d="M161.93333,218.54447v-37h37v37z"/><path d="M202.06667,258.45556v-37h37v37z"/><path d="M81.93333,218.54447v-37h37v37z"/><path d="M122.06667,258.45556v-37h37v37z"/><path d="M321.93333,298.54445v-37h37v37z"/><path d="M362.06667,338.45557v-37h37v37z"/><path d="M241.93333,298.54445v-37h37v37z"/><path d="M282.06667,338.45557v-37h37v37z"/><path d="M321.93333,218.54447v-37h37v37z"/><path d="M362.06667,258.45556v-37h37v37z"/><path d="M241.93333,218.54447v-37h37v37z"/><path d="M282.06667,258.45556v-37h37v37z"/></g><g fill="#a84d20" stroke="#cc5e27" stroke-width="2"><path d="M5.97352,36.47423c-0.17719,-11.0647 12.03534,-8.06167 12.03534,-8.06167l-1.33627,1.79764c0,0 2.58089,0.76873 3.71444,1.50493c1.31658,0.85506 3.71844,3.32241 3.71844,3.32241c0,0 -2.80167,3.05048 -4.07657,4.08812c-1.12653,0.91688 -3.18295,1.82039 -3.18295,1.82039l1.04658,1.61562c0,0 -11.78964,1.99094 -11.919,-6.08744z" stroke-linecap="butt"/><path d="M23.07165,34.78772l-20.24543,1.32035" stroke-linecap="round"/></g><g fill="#a84d20" stroke="#cc5e27" stroke-width="2"><path d="M455.93601,348.49241c-1.53012,-6.38002 5.92444,-6.21792 5.92444,-6.21792l-0.54133,1.21266c0,0 1.59268,0.11186 2.34363,0.39162c0.87219,0.32494 2.58044,1.44284 2.58044,1.44284c0,0 -1.22768,2.12672 -1.83156,2.89166c-0.5336,0.67593 -1.60703,1.46409 -1.60703,1.46409l0.81408,0.79989c0,0 -6.56552,2.67323 -7.68266,-1.98485z" stroke-linecap="butt"/><path d="M465.6127,345.31045l-11.5452,3.37616" stroke-linecap="round"/></g><g fill="#a84d20" stroke="#cc5e27" stroke-width="2"><path d="M303.49848,354.71465c-5.17112,-4.03801 0.7616,-8.55462 0.7616,-8.55462l0.33187,1.28586c0,0 1.31564,-0.90457 2.07737,-1.15347c0.88472,-0.28909 2.91743,-0.4786 2.91743,-0.4786c0,0 0.3643,2.42846 0.36837,3.40303c0.00359,0.86116 -0.34521,2.14638 -0.34521,2.14638l1.13511,0.11866c0,0 -3.47109,6.18092 -7.24654,3.23275z" stroke-linecap="butt"/><path d="M309.08656,346.19781l-6.92887,9.83265" stroke-linecap="round"/></g><g fill="#a84d20" stroke="#cc5e27" stroke-width="2"><path d="M417.33683,230.50677c-5.06307,-1.15995 -2.32488,-6.38959 -2.32488,-6.38959l0.66951,0.81064c0,0 0.63979,-1.09015 1.10245,-1.52426c0.53736,-0.50421 1.93128,-1.32228 1.93128,-1.32228c0,0 1.07622,1.61904 1.40621,2.31648c0.29159,0.61628 0.47281,1.65489 0.47281,1.65489l0.85374,-0.29586c0,0 -0.41455,5.59687 -4.11112,4.74998z" stroke-linecap="butt"/><path d="M416.81703,231.90023l1.66837,-9.37575" stroke-linecap="round"/></g><g fill="#a84d20" stroke="#cc5e27" stroke-width="2"><path d="M7.11207,305.64299c-6.21186,2.11159 -6.73746,-5.32619 -6.73746,-5.32619l1.25739,0.42727c0,0 -0.0354,-1.59622 0.17397,-2.36975c0.24317,-0.89843 1.19889,-2.70242 1.19889,-2.70242c0,0 2.23081,1.02646 3.04816,1.55727c0.72222,0.46903 1.60596,1.46526 1.60596,1.46526l0.72145,-0.88433c0,0 3.26694,6.29121 -1.26836,7.83289z" stroke-linecap="butt"/><path d="M7.47763,307.48565l-4.42579,-11.18492" stroke-linecap="round"/></g><g fill="#a84d20" stroke="#cc5e27" stroke-width="2"><path d="M462.95569,18.23311c-3.74547,3.59883 -6.61851,-1.55796 -6.61851,-1.55796l1.04499,-0.11561c0,0 -0.56107,-1.13267 -0.67055,-1.75759c-0.12716,-0.72581 -0.0473,-2.34009 -0.0473,-2.34009c0,0 1.94406,-0.01266 2.70827,0.09364c0.67528,0.09393 1.64329,0.51168 1.64329,0.51168l0.22052,-0.87623c0,0 4.45389,3.41464 1.7193,6.04215z" stroke-linecap="butt"/><path d="M456.90903,12.89699l6.92719,6.53469" stroke-linecap="round"/></g><g fill="#a84d20" stroke="#cc5e27" stroke-width="2"><path d="M192.88916,10.837c-4.49385,10.11258 -14.30992,2.25074 -14.30992,2.25074l1.96849,-1.06871c0,0 -2.01803,-1.78311 -2.73671,-2.92785c-0.83471,-1.32956 -1.97578,-4.57838 -1.97578,-4.57838c0,0 3.82497,-1.58885 5.41807,-1.9939c1.40771,-0.35791 3.6534,-0.31252 3.6534,-0.31252l-0.26983,-1.90597c0,0 11.53325,3.15335 8.25227,10.53658z" stroke-linecap="butt"/><path d="M195.59041,12.49315l-18.92235,-7.31882" stroke-linecap="round"/></g><g fill="#a84d20" stroke="#cc5e27" stroke-width="2"><path d="M467.02343,266.2368c1.22943,5.04664 -4.67271,4.93939 -4.67271,4.93939l0.42514,-0.96158c0,0 -1.26122,-0.08406 -1.85653,-0.30342c-0.69142,-0.25477 -2.04697,-1.13498 -2.04697,-1.13498c0,0 0.96592,-1.68717 1.44184,-2.29447c0.42053,-0.53663 1.26812,-1.16365 1.26812,-1.16365l-0.64676,-0.63095c0,0 5.19027,-2.13494 6.08788,1.54964z" stroke-linecap="butt"/><path d="M459.37152,268.78329l9.13062,-2.70552" stroke-linecap="round"/></g><g fill="#a84d20" stroke="#cc5e27" stroke-width="2"><path d="M459.16115,139.64512c10.50429,-3.48122 11.29471,9.07024 11.29471,9.07024l-2.11521,-0.73688c0,0 0.03909,2.69265 -0.32403,3.9946c-0.42175,1.51216 -2.05697,4.54248 -2.05697,4.54248c0,0 -3.74927,-1.76006 -5.12096,-2.66589c-1.21206,-0.80041 -2.68971,-2.49206 -2.68971,-2.49206l-1.22825,1.48221c0,0 -5.42881,-10.65305 2.24041,-13.1947z" stroke-linecap="butt"/><path d="M458.56838,136.53254l7.32016,18.92183" stroke-linecap="round"/></g><g fill="#733516" stroke="#9d481e" stroke-width="2"><path d="M141.21971,74.97578c5.62944,-3.36978 7.70625,3.79148 7.70625,3.79148l-1.3191,-0.15351c0,0 0.37003,1.55314 0.32788,2.35339c-0.04895,0.92947 -0.60424,2.89401 -0.60424,2.89401c0,0 -2.3967,-0.53477 -3.30734,-0.88197c-0.80466,-0.30679 -1.87801,-1.09508 -1.87801,-1.09508l-0.51952,1.0162c0,0 -4.51601,-5.46424 -0.40593,-7.92453z" stroke-linecap="butt"/><path d="M147.15243,83.25625l-6.67733,-10.00517" stroke-linecap="round"/></g><g fill="#a84d20" stroke="#cc5e27" stroke-width="2"><path d="M155.99531,358.37364c-11.00128,1.19616 -9.13653,-11.24115 -9.13653,-11.24115l1.91314,1.16491c0,0 0.52761,-2.64075 1.1562,-3.83733c0.73009,-1.38977 2.96558,-4.00881 2.96558,-4.00881c0,0 3.2957,2.50862 4.44642,3.68246c1.01681,1.03724 2.10599,3.00163 2.10599,3.00163l1.51228,-1.19102c0,0 3.069,11.55598 -4.96308,12.4293z" stroke-linecap="butt"/><path d="M152.74023,341.50371l3.18055,20.03758" stroke-linecap="round"/></g><g fill="#a88f20" stroke="#ccb627" stroke-width="2"><path d="M2.99531,342.37364c-11.00128,1.19616 -9.13653,-11.24115 -9.13653,-11.24115l1.91314,1.16491c0,0 0.52761,-2.64075 1.1562,-3.83733c0.73009,-1.38977 2.96558,-4.00881 2.96558,-4.00881c0,0 3.2957,2.50862 4.44642,3.68246c1.01681,1.03724 2.10599,3.00163 2.10599,3.00163l1.51228,-1.19102c0,0 3.069,11.55598 -4.96308,12.4293z" stroke-linecap="butt"/><path d="M2.92078,345.54129l-3.18055,-20.03758" stroke-linecap="round"/></g><g fill="#a88f20" stroke="#ccb627" stroke-width="2"><path d="M442.5996,116.3335c5.46816,3.62564 -0.09716,8.5879 -0.09716,8.5879l-0.4304,-1.25632c0,0 -1.24168,1.00369 -1.98187,1.3108c-0.85969,0.35671 -2.87163,0.70298 -2.87163,0.70298c0,0 -0.55118,-2.39298 -0.63067,-3.36431c-0.07024,-0.85829 0.17804,-2.16666 0.17804,-2.16666l-1.14089,-0.03045c0,0 2.98225,-6.43105 6.97457,-3.78396z" stroke-linecap="butt"/><path d="M443.83451,114.91786l-6.14701,10.33947" stroke-linecap="round"/></g><g fill="#a88f20" stroke="#ccb627" stroke-width="2"><path d="M51.05409,20.70253c1.33397,-5.02003 6.466,-2.103 6.466,-2.103l-0.83326,0.64114c0,0 1.06742,0.67703 1.48531,1.1544c0.48537,0.55444 1.25484,1.97576 1.25484,1.97576c0,0 -1.65521,1.01972 -2.36362,1.32544c-0.62597,0.27014 -1.67021,0.41542 -1.67021,0.41542l0.26622,0.86343c0,0 -5.57924,-0.60743 -4.60529,-4.27258z" stroke-linecap="butt"/><path d="M49.67941,20.13496l9.31259,1.99091" stroke-linecap="round"/></g><g fill="#a88f20" stroke="#ccb627" stroke-width="2"><path d="M407.14421,344.57121c-3.04104,10.64007 -13.85674,4.22258 -13.85674,4.22258l1.80039,-1.33256c0,0 -2.24678,-1.48455 -3.11795,-2.51799c-1.01182,-1.2003 -2.59441,-4.25844 -2.59441,-4.25844c0,0 3.56628,-2.10629 5.08741,-2.72935c1.34412,-0.55056 3.57422,-0.81849 3.57422,-0.81849l-0.53276,-1.84978c0,0 11.86012,1.51567 9.63984,9.28403z" stroke-linecap="butt"/><path d="M410.04986,345.83484l-19.75751,-4.61099" stroke-linecap="round"/></g><g fill="#a88f20" stroke="#ccb627" stroke-width="2"><path d="M420.48205,8.52122c5.26527,-3.91445 8.04597,3.00398 8.04597,3.00398l-1.32783,-0.02118c0,0 0.52309,1.50848 0.56097,2.30896c0.044,0.92971 -0.31259,2.93985 -0.31259,2.93985c0,0 -2.43809,-0.29306 -3.37881,-0.5477c-0.83125,-0.22502 -1.97787,-0.90231 -1.97787,-0.90231l-0.41558,1.06295c0,0 -5.03847,-4.98659 -1.19428,-7.84453z" stroke-linecap="butt"/><path d="M419.56913,6.87939l7.64193,9.28931" stroke-linecap="round"/></g><g fill="#645513" stroke="#9d8c1e" stroke-width="2"><path d="M219.50312,181.77605c-0.81477,-6.51015 6.57608,-5.52419 6.57608,-5.52419l-0.67219,1.14531c0,0 1.57052,0.28741 2.2859,0.64855c0.83088,0.41945 2.40494,1.71951 2.40494,1.71951c0,0 -1.45547,1.97781 -2.14028,2.67124c-0.60512,0.61273 -1.75917,1.27728 -1.75917,1.27728l0.72057,0.88506c0,0 -6.821,1.93033 -7.41586,-2.82276z" stroke-linecap="butt"/><path d="M217.62459,181.76229l11.84789,-2.07793" stroke-linecap="round"/></g><g fill="#a88f20" stroke="#ccb627" stroke-width="2"><path d="M259.90158,345.89056c-4.67653,2.26058 -5.80959,-3.53278 -5.80959,-3.53278l1.02936,0.21399c0,0 -0.18234,-1.2508 -0.09271,-1.87888c0.10408,-0.72948 0.68039,-2.23949 0.68039,-2.23949c0,0 1.85223,0.59057 2.54585,0.92853c0.61289,0.29863 1.40373,0.99584 1.40373,0.99584l0.48127,-0.76471c0,0 3.17606,4.62703 -0.23829,6.27749z" stroke-linecap="butt"/><path d="M255.80682,338.94296l4.5604,8.36007" stroke-linecap="round"/></g><g fill="#a88f20" stroke="#ccb627" stroke-width="2"><path d="M463.06874,294.86858c10.05129,-4.62932 12.23451,7.75605 12.23451,7.75605l-2.18412,-0.49675c0,0 0.3387,2.67156 0.12283,4.00585c-0.25073,1.54971 -1.53832,4.74329 -1.53832,4.74329c0,0 -3.92194,-1.33159 -5.38598,-2.07904c-1.29366,-0.66046 -2.9505,-2.17703 -2.9505,-2.17703l-1.05554,1.60977c0,0 -6.58137,-9.98224 0.75712,-13.36213z" stroke-linecap="butt"/><path d="M462.13303,291.84137l9.38176,17.98897" stroke-linecap="round"/></g><g fill="#a88f20" stroke="#ccb627" stroke-width="2"><path d="M315.84528,14.1183c-5.80313,-3.06098 -0.76163,-8.55461 -0.76163,-8.55461l0.55381,1.20701c0,0 1.13515,-1.12275 1.84093,-1.5023c0.81974,-0.44083 2.78699,-0.98646 2.78699,-0.98646c0,0 0.78758,2.3259 0.96375,3.28443c0.15566,0.84698 0.0394,2.17361 0.0394,2.17361l1.13822,-0.08372c0,0 -2.32459,6.6969 -6.56147,4.46206z" stroke-linecap="butt"/><path d="M319.8409,4.74822l-5.08288,10.90205" stroke-linecap="round"/></g><g fill="#4ba820" stroke="#62cc27" stroke-width="2"><path d="M432.40158,323.89056c-4.67653,2.26058 -5.80959,-3.53278 -5.80959,-3.53278l1.02936,0.21399c0,0 -0.18234,-1.2508 -0.09271,-1.87888c0.10408,-0.72948 0.68039,-2.23949 0.68039,-2.23949c0,0 1.85224,0.59057 2.54585,0.92853c0.61289,0.29863 1.40373,0.99584 1.40373,0.99584l0.48127,-0.76471c0,0 3.17606,4.62703 -0.23829,6.27749z" stroke-linecap="butt"/><path d="M428.30682,316.94296l4.56041,8.36007" stroke-linecap="round"/></g><g fill="#4ba820" stroke="#62cc27" stroke-width="2"><path d="M463.06874,56.36858c10.05129,-4.62933 12.23451,7.75605 12.23451,7.75605l-2.18412,-0.49675c0,0 0.3387,2.67156 0.12283,4.00585c-0.25073,1.54972 -1.53832,4.74329 -1.53832,4.74329c0,0 -3.92194,-1.33159 -5.38598,-2.07904c-1.29366,-0.66046 -2.9505,-2.17704 -2.9505,-2.17704l-1.05554,1.60977c0,0 -6.58137,-9.98224 0.75712,-13.36213z" stroke-linecap="butt"/><path d="M471.51479,71.33034l-9.38176,-17.98897" stroke-linecap="round"/></g><g fill="#2d6413" stroke="#45911c" stroke-width="2"><path d="M222.66243,287.23514c-6.16036,2.25743 -6.86112,-5.16591 -6.86112,-5.16591l1.2671,0.39752c0,0 -0.07301,-1.59493 0.11807,-2.37319c0.22192,-0.90391 1.13485,-2.72994 1.13485,-2.72994c0,0 2.25438,0.97359 3.08401,1.48498c0.73308,0.45189 1.64006,1.42701 1.64006,1.42701l0.70042,-0.90109c0,0 3.4143,6.21246 -1.0834,7.86061z" stroke-linecap="butt"/><path d="M223.07133,289.06867l-4.6882,-11.0775" stroke-linecap="round"/></g><g fill="#4ba820" stroke="#62cc27" stroke-width="2"><path d="M46.36014,148.76759c-6.7704,-8.75332 4.80716,-13.66495 4.80716,-13.66495l0.00696,2.23989c0,0 2.52704,-0.93061 3.87571,-1.02022c1.56641,-0.10407 4.9677,0.43264 4.9677,0.43264c0,0 -0.41584,4.1209 -0.81503,5.7155c-0.35274,1.40903 -1.45802,3.36439 -1.45802,3.36439l1.80586,0.66664c0,0 -8.24722,8.65696 -13.19032,2.26612z" stroke-linecap="butt"/><path d="M59.04023,137.17426l-15.41947,13.18562" stroke-linecap="round"/></g><g fill="#4ba820" stroke="#62cc27" stroke-width="2"><path d="M72.07341,347.75702c1.33661,6.42335 -6.10965,6.03602 -6.10965,6.03602l0.57774,-1.19574c0,0 -1.58858,-0.15994 -2.33073,-0.46228c-0.86198,-0.35114 -2.53565,-1.52017 -2.53565,-1.52017c0,0 1.2914,-2.08864 1.91811,-2.83499c0.55378,-0.65949 1.65055,-1.41485 1.65055,-1.41485l-0.78954,-0.82413c0,0 6.64331,-2.47358 7.61917,2.21613z" stroke-linecap="butt"/><path d="M62.30497,350.64508l11.64197,-3.02569" stroke-linecap="round"/></g><g fill="#4ba820" stroke="#62cc27" stroke-width="2"><path d="M11.7454,220.83321c4.47921,-2.63 6.07532,3.05325 6.07532,3.05325l-1.04325,-0.13036c0,0 0.28251,1.23205 0.24378,1.8653c-0.04498,0.73549 -0.49776,2.28702 -0.49776,2.28702c0,0 -1.89379,-0.43942 -2.61238,-0.7204c-0.63496,-0.24828 -1.4794,-0.87951 -1.4794,-0.87951l-0.4181,0.801c0,0 -3.53852,-4.35611 -0.26823,-6.27629z" stroke-linecap="butt"/><path d="M16.38659,227.42834l-5.21911,-7.96549" stroke-linecap="round"/></g><g fill="#733516" stroke="#9d481e" stroke-width="2"><path d="M306.12623,258.1272c2.94931,3.5314 -1.78446,5.75241 -1.78446,5.75241l-0.03778,-0.93052c0,0 -1.03544,0.42601 -1.59439,0.48424c-0.6492,0.06764 -2.07072,-0.10238 -2.07072,-0.10238c0,0 0.10859,-1.71864 0.24962,-2.38738c0.1246,-0.59091 0.55339,-1.42056 0.55339,-1.42056l-0.76069,-0.24885c0,0 3.29174,-3.72526 5.44504,-1.14697z" stroke-linecap="butt"/><path d="M307.23959,257.42298l-6.20114,5.71853" stroke-linecap="round"/></g><g fill="#645513" stroke="#9d8c1e" stroke-width="2"><path d="M377.57173,247.73249c4.42062,-1.27566 4.5451,3.95177 4.5451,3.95177l-0.8668,-0.34051c0,0 -0.0275,1.11931 -0.19951,1.65432c-0.19978,0.62139 -0.92837,1.85378 -0.92837,1.85378c0,0 -1.52906,-0.79214 -2.08423,-1.19074c-0.49055,-0.35223 -1.07698,-1.07905 -1.07698,-1.07905l-0.53436,0.59584c0,0 -2.08236,-4.51406 1.14515,-5.44542z" stroke-linecap="butt"/><path d="M377.37603,246.42971l2.73381,7.98012" stroke-linecap="round"/></g><g fill="#2d6413" stroke="#45911c" stroke-width="2"><path d="M125.36838,288.10373c-2.23677,-4.02069 2.82886,-5.31714 2.82886,-5.31714l-0.13693,0.92116c0,0 1.09685,-0.22483 1.65682,-0.17749c0.65039,0.05498 2.01504,0.48787 2.01504,0.48787c0,0 -0.42812,1.668 -0.69173,2.29857c-0.23293,0.55718 -0.80931,1.29198 -0.80931,1.29198l0.70072,0.38674c0,0 -3.9304,3.04385 -5.56348,0.10832z" stroke-linecap="butt"/><path d="M124.14295,288.5873l7.16128,-4.45781" stroke-linecap="round"/></g><g fill="#733516" stroke="#9d481e" stroke-width="2"><path d="M346.50267,51.11578c-0.57875,-7.88074 8.25032,-6.23926 8.25032,-6.23926l-0.87911,1.33617c0,0 1.87133,0.4425 2.70953,0.92098c0.97355,0.55573 2.7867,2.21648 2.7867,2.21648c0,0 -1.87257,2.28923 -2.73901,3.08109c-0.7656,0.69971 -2.19468,1.4279 -2.19468,1.4279l0.81216,1.10898c0,0 -8.32338,1.90142 -8.74592,-3.85235z" stroke-linecap="butt"/><path d="M344.244,50.98345l14.37889,-1.7691" stroke-linecap="round"/></g><g fill="#645513" stroke="#9d8c1e" stroke-width="2"><path d="M297.07984,109.53993c-7.44544,-2.64694 -2.38437,-10.06531 -2.38437,-10.06531l0.86846,1.34313c0,0 1.15925,-1.53422 1.93501,-2.10845c0.90101,-0.66694 3.15173,-1.65686 3.15173,-1.65686c0,0 1.34022,2.63645 1.71566,3.74858c0.33173,0.9827 0.42212,2.58406 0.42212,2.58406l1.34226,-0.29626c0,0 -1.61492,8.38367 -7.05086,6.45113z" stroke-linecap="butt"/><path d="M296.0483,111.55365l4.1769,-13.87215" stroke-linecap="round"/></g><g fill="#2d6413" stroke="#45911c" stroke-width="2"><path d="M127.98375,169.50261c-0.90542,7.84991 -9.27167,4.58605 -9.27167,4.58605l1.11352,-1.14816c0,0 -1.75556,-0.78468 -2.48948,-1.4115c-0.85242,-0.72801 -2.32297,-2.69858 -2.32297,-2.69858c0,0 2.26768,-1.8986 3.26693,-2.51444c0.88298,-0.54416 2.42302,-0.99223 2.42302,-0.99223l-0.59041,-1.24131c0,0 8.53212,-0.31109 7.87106,5.42016z" stroke-linecap="butt"/><path d="M130.17782,170.05505l-14.45605,-0.95146" stroke-linecap="round"/></g><g fill="#a84d20" stroke="#cc5e27" stroke-width="2"><path d="M29.36467,280.07557c2.9056,-4.30553 6.79811,0.13238 6.79811,0.13238l-0.99736,0.33262c0,0 0.78656,0.98948 1.02492,1.57744c0.27684,0.68289 0.53798,2.2779 0.53798,2.2779c0,0 -1.898,0.4209 -2.66748,0.47755c-0.67994,0.05007 -1.71411,-0.15494 -1.71411,-0.15494l-0.03147,0.903c0,0 -5.07198,-2.40247 -2.95059,-5.54595z" stroke-linecap="butt"/><path d="M28.25193,279.08879l8.1457,4.93313" stroke-linecap="round"/></g><g data-paper-data="{&quot;index&quot;:null}" stroke-width="2.5" stroke-linecap="butt"><path d="M464.23224,353.7378v-12.0405h4.37836v12.0405z" data-paper-data="{&quot;index&quot;:null}" fill="#5a2619" stroke="#923e29"/><path d="M447.48994,341.69728l9.61376,-18.37714l21.40904,0.00779l9.36761,18.36936z" data-paper-data="{&quot;index&quot;:null}" fill="#377d32" stroke="#35a32e"/><path d="M450.44532,323.04618l16.8902,-35.46475l17.49343,35.46475z" data-paper-data="{&quot;index&quot;:null}" fill="#377d32" stroke="#35a32e"/></g><path d="M32.39002,261.16519v-22.97945h8.35616v22.97945z" data-paper-data="{&quot;index&quot;:null}" fill="#5a2619" stroke="#923e29" stroke-width="2.5" stroke-linecap="butt"/><path d="M10.24622,238.18574l12.23199,-23.38201l27.23962,0.00991l11.9188,23.3721z" data-paper-data="{&quot;index&quot;:null}" fill="#377d32" stroke="#35a32e" stroke-width="2.5" stroke-linecap="butt"/><path d="M464.95213,238.45898c0,0.42394 -0.02813,0.84131 -0.08265,1.25035c0.02752,-0.00023 0.05507,-0.00035 0.08265,-0.00035c5.17767,0 9.375,4.19733 9.375,9.375c0,5.17767 -4.19733,9.375 -9.375,9.375c-11.46688,0 -17.90812,0.625 -29.375,0.625c-5.17767,0 -9.375,-4.19733 -9.375,-9.375c0,-4.10729 2.64129,-7.59767 6.31798,-8.86527c-0.04488,-0.37198 -0.06798,-0.75066 -0.06798,-1.13473c0,-5.17767 4.19733,-9.375 9.375,-9.375c2.42552,0 4.63589,0.92111 6.30041,2.43261c1.71325,-2.23872 4.4128,-3.68261 7.4496,-3.68261c5.17767,0 9.375,4.19733 9.375,9.375z" data-paper-data="{&quot;index&quot;:null}" fill="#377d32" stroke="#35a32e" stroke-width="2" stroke-linecap="butt"/><path d="M14.93794,309.3746c-0.06043,-0.45348 -0.09163,-0.91621 -0.09163,-1.38622c0,-5.74027 4.65339,-10.39367 10.39366,-10.39367c3.36676,0 6.35965,1.60079 8.25905,4.08276c1.84539,-1.67573 4.29593,-2.69693 6.985,-2.69693c5.74027,0 10.39367,4.6534 10.39367,10.39367c0,0.42581 -0.02561,0.84564 -0.07537,1.25802c4.07619,1.40533 7.00448,5.27498 7.00448,9.82856c0,5.74026 -4.6534,10.39367 -10.39367,10.39367c-12.71286,0 -19.85398,-0.69291 -32.56683,-0.69291c-5.74026,0 -10.39367,-4.65339 -10.39367,-10.39366c0,-5.74027 4.6534,-10.39367 10.39367,-10.39367c0.03057,0 0.06111,0.00014 0.09163,0.0004z" data-paper-data="{&quot;index&quot;:null}" fill="#377d32" stroke="#35a32e" stroke-width="2" stroke-linecap="butt"/><path d="M-9.35814,177.89549c-1.73679,-2.93901 -3.18162,-7.99884 -1.14028,-11.5099c1.50294,-2.58501 8.23043,-4.95296 11.18357,-7.08827c7.39781,-5.34908 14.64567,4.20151 17.89649,8.69741c1.44606,1.99991 -3.25647,6.93335 -7.03809,10.43141z" data-paper-data="{&quot;index&quot;:null}" fill="#7d7d7d" stroke="#727272" stroke-width="2" stroke-linecap="butt"/><path d="M430.65686,286.91783c0.04158,-4.27986 0.4637,-13.23182 3.26767,-13.23182c3.68482,0 11.64557,0.18417 11.64557,6.24736c0,2.42038 1.3436,6.96268 0.53721,8.77754c-1.21365,2.73147 -5.11659,3.89916 -7.33046,3.89916c-1.02784,0 -4.40092,-1.24892 -6.51224,-2.38044" data-paper-data="{&quot;index&quot;:null}" fill="#7d7d7d" stroke="#727272" stroke-width="2" stroke-linecap="butt"/><path d="M432.12946,287.34538c1.60802,0 0.91455,7.42167 0.91455,7.42167c-0.46564,0.51987 -2.93337,1.51179 -3.53847,1.51179c-0.9661,0 -2.6693,-0.50957 -3.19892,-1.70154c-0.35189,-0.79198 0.23444,-2.77417 0.23444,-3.8304c0,-1.05623 3.98038,-3.40152 5.5884,-3.40152z" data-paper-data="{&quot;index&quot;:null}" fill="#7d7d7d" stroke="#727272" stroke-width="2" stroke-linecap="butt"/><path d="M14.00647,214.45515l21.49011,-45.12329l22.25762,45.12329z" data-paper-data="{&quot;index&quot;:null}" fill="#377d32" stroke="#35a32e" stroke-width="2.5" stroke-linecap="butt"/><path d="M4.6154,283.31805c0,-1.23358 4.83349,-3.97266 6.78616,-3.97266c1.95267,0 1.11057,8.66783 1.11057,8.66783c-0.56544,0.60716 -3.56208,1.76563 -4.29687,1.76563c-1.17316,0 -3.24141,-0.59513 -3.88454,-1.98724c-0.42731,-0.92496 0.28469,-3.23998 0.28469,-4.47356z" data-paper-data="{&quot;index&quot;:null}" fill="#7d7d7d" stroke="#727272" stroke-width="2" stroke-linecap="butt"/><g data-paper-data="{&quot;index&quot;:null}" stroke-width="2.5" stroke-linecap="butt"><path d="M424.89002,184.66519v-22.97945h8.35616v22.97945z" data-paper-data="{&quot;index&quot;:null}" fill="#5a2619" stroke="#923e29"/><path d="M402.74622,161.68574l12.23199,-23.38201l27.23962,0.00991l11.9188,23.3721z" data-paper-data="{&quot;index&quot;:null}" fill="#377d32" stroke="#35a32e"/><path d="M406.50647,137.95515l21.49011,-45.12329l22.25762,45.12329z" data-paper-data="{&quot;index&quot;:null}" fill="#377d32" stroke="#35a32e"/></g><g fill="#35845e" stroke="#12733e" stroke-width="1" stroke-linecap="butt"><g><g><g><g><path d="M12.75134,37.10025c-0.53101,-0.8274 -0.14659,-3.26856 0.85861,-5.45248c1.00521,-2.18392 2.25054,-3.28359 2.78156,-2.45618c0.53102,0.8274 0.14659,3.26856 -0.85861,5.45248c-1.00521,2.18392 -2.25054,3.28359 -2.78156,2.45618z"/><path d="M18.62437,38.28148c-1.0837,-2.0529 -1.55757,-4.44023 -1.05841,-5.33224c0.49915,-0.89202 1.78231,0.04906 2.86601,2.10197c1.0837,2.0529 1.55757,4.44023 1.05841,5.33225c-0.49916,0.89202 -1.78231,-0.04906 -2.86601,-2.10196z" data-paper-data="{&quot;index&quot;:null}"/><path d="M12.80074,46.46388c-0.53101,-0.8274 -0.14661,-3.26856 0.8586,-5.45248c1.00521,-2.18392 2.25055,-3.28359 2.78157,-2.45619c0.53102,0.8274 0.14661,3.26857 -0.8586,5.45249c-1.00521,2.18392 -2.25055,3.28359 -2.78157,2.45618z"/><path d="M18.67377,47.64512c-1.0837,-2.0529 -1.55757,-4.44023 -1.05842,-5.33224c0.49916,-0.89202 1.78231,0.04907 2.86601,2.10197c1.0837,2.0529 1.55757,4.44022 1.05842,5.33224c-0.49916,0.89202 -1.78231,-0.04906 -2.86601,-2.10196z" data-paper-data="{&quot;index&quot;:null}"/></g><g><path d="M12.75134,55.85025c-0.53101,-0.8274 -0.14659,-3.26856 0.85861,-5.45248c1.00521,-2.18392 2.25054,-3.28359 2.78156,-2.45618c0.53102,0.8274 0.14659,3.26856 -0.85861,5.45248c-1.00521,2.18392 -2.25054,3.28359 -2.78156,2.45618z"/><path d="M18.62437,57.03148c-1.0837,-2.0529 -1.55757,-4.44023 -1.05841,-5.33224c0.49915,-0.89202 1.78231,0.04906 2.86601,2.10197c1.0837,2.0529 1.55757,4.44023 1.05841,5.33224c-0.49916,0.89202 -1.78231,-0.04906 -2.86601,-2.10196z" data-paper-data="{&quot;index&quot;:null}"/><path d="M12.80074,65.21388c-0.53101,-0.8274 -0.14661,-3.26856 0.8586,-5.45248c1.00521,-2.18392 2.25055,-3.28359 2.78157,-2.45618c0.53102,0.82741 0.14661,3.26857 -0.8586,5.45249c-1.00521,2.18392 -2.25055,3.28359 -2.78157,2.45618z"/><path d="M18.67377,66.39512c-1.0837,-2.0529 -1.55757,-4.44023 -1.05842,-5.33224c0.49916,-0.89202 1.78231,0.04907 2.86601,2.10197c1.0837,2.0529 1.55757,4.44022 1.05842,5.33224c-0.49916,0.89202 -1.78231,-0.04906 -2.86601,-2.10196z" data-paper-data="{&quot;index&quot;:null}"/></g></g><g><g><path d="M12.75134,-0.52475c-0.53101,-0.8274 -0.14659,-3.26856 0.85861,-5.45248c1.00521,-2.18392 2.25054,-3.28359 2.78156,-2.45618c0.53102,0.82741 0.14659,3.26856 -0.85861,5.45248c-1.00521,2.18392 -2.25054,3.28359 -2.78156,2.45619z"/><path d="M18.62437,0.65648c-1.0837,-2.0529 -1.55757,-4.44023 -1.05841,-5.33224c0.49915,-0.89201 1.78231,0.04906 2.86601,2.10197c1.0837,2.0529 1.55757,4.44023 1.05841,5.33225c-0.49916,0.89202 -1.78231,-0.04907 -2.86601,-2.10196z" data-paper-data="{&quot;index&quot;:null}"/><path d="M12.80074,8.83888c-0.53101,-0.82741 -0.14661,-3.26856 0.8586,-5.45248c1.00521,-2.18392 2.25055,-3.28359 2.78157,-2.45619c0.53102,0.8274 0.14661,3.26857 -0.8586,5.45249c-1.00521,2.18392 -2.25055,3.28358 -2.78157,2.45618z"/><path d="M18.67377,10.02012c-1.0837,-2.0529 -1.55757,-4.44023 -1.05842,-5.33224c0.49916,-0.89202 1.78231,0.04907 2.86601,2.10197c1.0837,2.0529 1.55757,4.44023 1.05842,5.33224c-0.49916,0.89202 -1.78231,-0.04906 -2.86601,-2.10196z" data-paper-data="{&quot;index&quot;:null}"/></g><g><path d="M12.75134,18.22525c-0.53101,-0.8274 -0.14659,-3.26856 0.85861,-5.45248c1.00521,-2.18392 2.25054,-3.28359 2.78156,-2.45619c0.53102,0.8274 0.14659,3.26856 -0.85861,5.45248c-1.00521,2.18392 -2.25054,3.28359 -2.78156,2.45619z"/><path d="M18.62437,19.40648c-1.0837,-2.0529 -1.55757,-4.44023 -1.05841,-5.33224c0.49915,-0.89202 1.78231,0.04906 2.86601,2.10197c1.0837,2.0529 1.55757,4.44023 1.05841,5.33224c-0.49916,0.89202 -1.78231,-0.04906 -2.86601,-2.10196z" data-paper-data="{&quot;index&quot;:null}"/><path d="M12.80074,27.58888c-0.53101,-0.8274 -0.14661,-3.26856 0.8586,-5.45248c1.00521,-2.18392 2.25055,-3.28359 2.78157,-2.45618c0.53102,0.8274 0.14661,3.26856 -0.8586,5.45248c-1.00521,2.18392 -2.25055,3.28359 -2.78157,2.45618z"/><path d="M18.67377,28.77011c-1.0837,-2.0529 -1.55757,-4.44023 -1.05842,-5.33224c0.49916,-0.89202 1.78231,0.04907 2.86601,2.10197c1.0837,2.0529 1.55757,4.44022 1.05842,5.33224c-0.49916,0.89202 -1.78231,-0.04906 -2.86601,-2.10196z" data-paper-data="{&quot;index&quot;:null}"/></g></g></g><g><g><g><path d="M12.75134,112.16275c-0.53101,-0.8274 -0.14659,-3.26856 0.85861,-5.45248c1.00521,-2.18392 2.25054,-3.28359 2.78156,-2.45619c0.53102,0.8274 0.14659,3.26856 -0.85861,5.45248c-1.00521,2.18392 -2.25054,3.28359 -2.78156,2.45619z"/><path d="M18.62437,113.34398c-1.0837,-2.0529 -1.55757,-4.44023 -1.05841,-5.33224c0.49915,-0.89202 1.78231,0.04906 2.86601,2.10196c1.0837,2.0529 1.55757,4.44023 1.05841,5.33225c-0.49916,0.89202 -1.78231,-0.04906 -2.86601,-2.10196z" data-paper-data="{&quot;index&quot;:null}"/><path d="M12.80074,121.52638c-0.53101,-0.8274 -0.14661,-3.26856 0.8586,-5.45248c1.00521,-2.18392 2.25055,-3.28359 2.78157,-2.45618c0.53102,0.8274 0.14661,3.26856 -0.8586,5.45248c-1.00521,2.18392 -2.25055,3.28358 -2.78157,2.45618z"/><path d="M18.67377,122.70762c-1.0837,-2.0529 -1.55757,-4.44023 -1.05842,-5.33224c0.49916,-0.89202 1.78231,0.04907 2.86601,2.10197c1.0837,2.0529 1.55757,4.44023 1.05842,5.33224c-0.49916,0.89201 -1.78231,-0.04907 -2.86601,-2.10197z" data-paper-data="{&quot;index&quot;:null}"/></g><g><path d="M12.75134,130.91275c-0.53101,-0.8274 -0.14659,-3.26856 0.85861,-5.45248c1.00521,-2.18392 2.25054,-3.28359 2.78156,-2.45619c0.53102,0.8274 0.14659,3.26856 -0.85861,5.45248c-1.00521,2.18392 -2.25054,3.28359 -2.78156,2.45619z"/><path d="M18.62437,132.09398c-1.0837,-2.0529 -1.55757,-4.44023 -1.05841,-5.33224c0.49915,-0.89201 1.78231,0.04907 2.86601,2.10197c1.0837,2.0529 1.55757,4.44023 1.05841,5.33225c-0.49916,0.89201 -1.78231,-0.04907 -2.86601,-2.10197z" data-paper-data="{&quot;index&quot;:null}"/><path d="M12.80074,140.27638c-0.53101,-0.8274 -0.14661,-3.26856 0.8586,-5.45248c1.00521,-2.18392 2.25055,-3.28359 2.78157,-2.45619c0.53102,0.8274 0.14661,3.26856 -0.8586,5.45248c-1.00521,2.18392 -2.25055,3.28358 -2.78157,2.45618z"/><path d="M18.67377,141.45762c-1.0837,-2.0529 -1.55757,-4.44023 -1.05842,-5.33224c0.49916,-0.89201 1.78231,0.04907 2.86601,2.10197c1.0837,2.0529 1.55757,4.44023 1.05842,5.33224c-0.49916,0.89201 -1.78231,-0.04907 -2.86601,-2.10197z" data-paper-data="{&quot;index&quot;:null}"/></g></g><g><g><path d="M12.75134,74.53775c-0.53101,-0.8274 -0.14659,-3.26856 0.85861,-5.45248c1.00521,-2.18392 2.25054,-3.28359 2.78156,-2.45619c0.53102,0.8274 0.14659,3.26856 -0.85861,5.45248c-1.00521,2.18392 -2.25054,3.28359 -2.78156,2.45619z"/><path d="M18.62437,75.71898c-1.0837,-2.0529 -1.55757,-4.44023 -1.05841,-5.33224c0.49915,-0.89202 1.78231,0.04906 2.86601,2.10196c1.0837,2.0529 1.55757,4.44023 1.05841,5.33225c-0.49916,0.89202 -1.78231,-0.04906 -2.86601,-2.10196z" data-paper-data="{&quot;index&quot;:null}"/><path d="M12.80074,83.90138c-0.53101,-0.8274 -0.14661,-3.26856 0.8586,-5.45248c1.00521,-2.18392 2.25055,-3.28359 2.78157,-2.45618c0.53102,0.8274 0.14661,3.26856 -0.8586,5.45248c-1.00521,2.18392 -2.25055,3.28359 -2.78157,2.45618z"/><path d="M18.67377,85.08262c-1.0837,-2.0529 -1.55757,-4.44023 -1.05842,-5.33224c0.49916,-0.89202 1.78231,0.04907 2.86601,2.10197c1.0837,2.0529 1.55757,4.44022 1.05842,5.33224c-0.49916,0.89202 -1.78231,-0.04906 -2.86601,-2.10196z" data-paper-data="{&quot;index&quot;:null}"/></g><g><path d="M12.75134,93.28775c-0.53101,-0.8274 -0.14659,-3.26856 0.85861,-5.45248c1.00521,-2.18392 2.25054,-3.28359 2.78156,-2.45619c0.53102,0.8274 0.14659,3.26856 -0.85861,5.45248c-1.00521,2.18392 -2.25054,3.28359 -2.78156,2.45619z"/><path d="M18.62437,94.46898c-1.0837,-2.0529 -1.55757,-4.44023 -1.05841,-5.33224c0.49915,-0.89202 1.78231,0.04906 2.86601,2.10196c1.0837,2.0529 1.55757,4.44023 1.05841,5.33225c-0.49916,0.89202 -1.78231,-0.04906 -2.86601,-2.10196z" data-paper-data="{&quot;index&quot;:null}"/><path d="M12.80074,102.65138c-0.53101,-0.8274 -0.14661,-3.26856 0.8586,-5.45248c1.00521,-2.18392 2.25055,-3.28359 2.78157,-2.45618c0.53102,0.8274 0.14661,3.26856 -0.8586,5.45248c-1.00521,2.18392 -2.25055,3.28359 -2.78157,2.45618z"/><path d="M18.67377,103.83262c-1.0837,-2.0529 -1.55757,-4.44023 -1.05842,-5.33224c0.49916,-0.89202 1.78231,0.04907 2.86601,2.10197c1.0837,2.0529 1.55757,4.44022 1.05842,5.33224c-0.49916,0.89202 -1.78231,-0.04906 -2.86601,-2.10196z" data-paper-data="{&quot;index&quot;:null}"/></g></g></g></g><g data-paper-data="{&quot;index&quot;:null}"><g><path d="M77.33369,2.01907c-1.0052,2.18392 -2.25056,3.28358 -2.78156,2.45618c-0.53101,-0.82741 -0.1466,-3.26856 0.8586,-5.45248c1.0052,-2.18393 2.25056,-3.28359 2.78156,-2.45619c0.53101,0.82741 0.1466,3.26856 -0.8586,5.45248z"/><path d="M83.29118,7.75845c-0.49916,0.89201 -1.78231,-0.04907 -2.86601,-2.10197c-1.0837,-2.0529 -1.55758,-4.44023 -1.05842,-5.33224c0.49916,-0.89202 1.78231,0.04906 2.86601,2.10196c1.0837,2.0529 1.55757,4.44023 1.05841,5.33225z" data-paper-data="{&quot;index&quot;:null}"/><path d="M77.38311,11.3827c-1.00521,2.18392 -2.25056,3.28358 -2.78157,2.45618c-0.53101,-0.8274 -0.1466,-3.26856 0.8586,-5.45248c1.0052,-2.18392 2.25056,-3.28359 2.78156,-2.45619c0.531,0.82741 0.1466,3.26857 -0.8586,5.45249z"/><path d="M83.34058,17.12208c-0.49916,0.89202 -1.78231,-0.04906 -2.86601,-2.10196c-1.0837,-2.0529 -1.55757,-4.44023 -1.05842,-5.33225c0.49914,-0.89202 1.78231,0.04907 2.86601,2.10197c1.0837,2.0529 1.55757,4.44023 1.05841,5.33224z" data-paper-data="{&quot;index&quot;:null}"/></g><g><path d="M74.55213,23.22525c-0.53101,-0.82741 -0.1466,-3.26856 0.8586,-5.45248c1.0052,-2.18393 2.25056,-3.28359 2.78156,-2.45619c0.53101,0.82741 0.1466,3.26856 -0.8586,5.45248c-1.0052,2.18392 -2.25056,3.28359 -2.78156,2.45619z"/><path d="M83.29118,26.50845c-0.49916,0.89201 -1.78231,-0.04907 -2.86601,-2.10197c-1.0837,-2.0529 -1.55758,-4.44023 -1.05842,-5.33224c0.49916,-0.89202 1.78231,0.04906 2.86601,2.10196c1.0837,2.0529 1.55757,4.44023 1.05841,5.33225z" data-paper-data="{&quot;index&quot;:null}"/><path d="M77.38311,30.1327c-1.00521,2.18392 -2.25056,3.28358 -2.78157,2.45618c-0.53101,-0.8274 -0.1466,-3.26856 0.8586,-5.45248c1.0052,-2.18392 2.25056,-3.28359 2.78156,-2.45619c0.531,0.82741 0.1466,3.26857 -0.8586,5.45249z"/><path d="M83.34058,35.87208c-0.49916,0.89202 -1.78231,-0.04906 -2.86601,-2.10196c-1.0837,-2.0529 -1.55757,-4.44023 -1.05842,-5.33225c0.49914,-0.89202 1.78231,0.04907 2.86601,2.10197c1.0837,2.0529 1.55757,4.44023 1.05841,5.33224z" data-paper-data="{&quot;index&quot;:null}"/></g></g><g data-paper-data="{&quot;index&quot;:null}"><g><g><g><path d="M459.46711,38.64406c-1.0052,-2.18392 -1.38962,-4.62508 -0.85861,-5.45248c0.531,-0.8274 1.77636,0.27226 2.78156,2.45618c1.0052,2.18392 1.38962,4.62508 0.85861,5.45248c-0.531,0.8274 -1.77636,-0.27226 -2.78156,-2.45618z"/><path d="M453.50963,44.38345c-0.49915,-0.89202 -0.02529,-3.27934 1.05841,-5.33224c1.0837,-2.0529 2.36686,-2.99398 2.86601,-2.10196c0.49915,0.89202 0.02528,3.27934 -1.05842,5.33225c-1.0837,2.0529 -2.36685,2.99398 -2.86601,2.10197z" data-paper-data="{&quot;index&quot;:null}"/><path d="M459.41769,48.0077c-1.0052,-2.18392 -1.3896,-4.62508 -0.8586,-5.45249c0.531,-0.8274 1.77636,0.27227 2.78156,2.45619c1.0052,2.18392 1.38962,4.62508 0.8586,5.45248c-0.531,0.8274 -1.77636,-0.27226 -2.78157,-2.45618z"/><path d="M453.46022,53.74708c-0.49915,-0.89202 -0.02528,-3.27934 1.05842,-5.33224c1.0837,-2.0529 2.36686,-2.99399 2.86601,-2.10197c0.49915,0.89202 0.02528,3.27934 -1.05842,5.33225c-1.0837,2.0529 -2.36685,2.99398 -2.86601,2.10197z" data-paper-data="{&quot;index&quot;:null}"/></g><g><path d="M459.46711,57.39406c-1.0052,-2.18392 -1.38962,-4.62507 -0.85861,-5.45248c0.531,-0.8274 1.77636,0.27227 2.78156,2.45619c1.0052,2.18392 1.38962,4.62507 0.85861,5.45248c-0.531,0.8274 -1.77636,-0.27227 -2.78156,-2.45619z"/><path d="M453.50963,63.13344c-0.49915,-0.89202 -0.02529,-3.27935 1.05841,-5.33224c1.0837,-2.0529 2.36686,-2.99398 2.86601,-2.10196c0.49915,0.89202 0.02528,3.27935 -1.05842,5.33225c-1.0837,2.0529 -2.36685,2.99398 -2.86601,2.10196z" data-paper-data="{&quot;index&quot;:null}"/><path d="M459.41769,66.7577c-1.0052,-2.18392 -1.3896,-4.62508 -0.8586,-5.45248c0.531,-0.8274 1.77636,0.27226 2.78156,2.45618c1.0052,2.18392 1.38962,4.62508 0.8586,5.45248c-0.531,0.8274 -1.77636,-0.27226 -2.78157,-2.45618z"/><path d="M453.46022,72.49708c-0.49915,-0.89202 -0.02528,-3.27934 1.05842,-5.33224c1.0837,-2.0529 2.36686,-2.99398 2.86601,-2.10197c0.49915,0.89202 0.02528,3.27935 -1.05842,5.33225c-1.0837,2.0529 -2.36685,2.99398 -2.86601,2.10196z" data-paper-data="{&quot;index&quot;:null}"/></g></g><g><g><path d="M459.46711,1.01906c-1.0052,-2.18392 -1.38962,-4.62507 -0.85861,-5.45248c0.531,-0.8274 1.77636,0.27226 2.78156,2.45618c1.0052,2.18392 1.38962,4.62507 0.85861,5.45248c-0.531,0.82741 -1.77636,-0.27226 -2.78156,-2.45618z"/><path d="M453.50963,6.75844c-0.49915,-0.89202 -0.02529,-3.27934 1.05841,-5.33224c1.0837,-2.0529 2.36686,-2.99398 2.86601,-2.10196c0.49915,0.89202 0.02528,3.27935 -1.05842,5.33225c-1.0837,2.0529 -2.36685,2.99398 -2.86601,2.10196z" data-paper-data="{&quot;index&quot;:null}"/><path d="M459.41769,10.3827c-1.0052,-2.18392 -1.3896,-4.62508 -0.8586,-5.45248c0.531,-0.82741 1.77636,0.27226 2.78156,2.45618c1.0052,2.18392 1.38962,4.62508 0.8586,5.45248c-0.531,0.8274 -1.77636,-0.27226 -2.78157,-2.45618z"/><path d="M453.46022,16.12208c-0.49915,-0.89202 -0.02528,-3.27934 1.05842,-5.33224c1.0837,-2.0529 2.36686,-2.99399 2.86601,-2.10197c0.49915,0.89202 0.02528,3.27934 -1.05842,5.33225c-1.0837,2.0529 -2.36685,2.99398 -2.86601,2.10197z" data-paper-data="{&quot;index&quot;:null}"/></g><g><path d="M459.46711,19.76906c-1.0052,-2.18392 -1.38962,-4.62508 -0.85861,-5.45248c0.531,-0.8274 1.77636,0.27227 2.78156,2.45619c1.0052,2.18392 1.38962,4.62508 0.85861,5.45248c-0.531,0.8274 -1.77636,-0.27227 -2.78156,-2.45619z"/><path d="M453.50963,25.50845c-0.49915,-0.89202 -0.02529,-3.27934 1.05841,-5.33224c1.0837,-2.0529 2.36686,-2.99398 2.86601,-2.10196c0.49915,0.89202 0.02528,3.27934 -1.05842,5.33225c-1.0837,2.0529 -2.36685,2.99398 -2.86601,2.10197z" data-paper-data="{&quot;index&quot;:null}"/><path d="M459.41769,29.1327c-1.0052,-2.18392 -1.3896,-4.62508 -0.8586,-5.45249c0.531,-0.8274 1.77636,0.27227 2.78156,2.45619c1.0052,2.18392 1.38962,4.62508 0.8586,5.45248c-0.531,0.8274 -1.77636,-0.27226 -2.78157,-2.45618z"/><path d="M453.46022,34.87208c-0.49915,-0.89202 -0.02528,-3.27934 1.05842,-5.33224c1.0837,-2.0529 2.36686,-2.99399 2.86601,-2.10197c0.49915,0.89202 0.02528,3.27934 -1.05842,5.33225c-1.0837,2.0529 -2.36685,2.99398 -2.86601,2.10197z" data-paper-data="{&quot;index&quot;:null}"/></g></g></g><g><g><g><path d="M459.46711,113.70656c-1.0052,-2.18392 -1.38962,-4.62507 -0.85861,-5.45248c0.531,-0.8274 1.77636,0.27227 2.78156,2.45619c1.0052,2.18392 1.38962,4.62507 0.85861,5.45248c-0.531,0.8274 -1.77636,-0.27227 -2.78156,-2.45619z"/><path d="M453.50963,119.44595c-0.49915,-0.89201 -0.02529,-3.27935 1.05841,-5.33224c1.0837,-2.0529 2.36687,-2.99398 2.86601,-2.10196c0.49915,0.89202 0.02528,3.27935 -1.05842,5.33225c-1.0837,2.0529 -2.36685,2.99398 -2.86601,2.10196z" data-paper-data="{&quot;index&quot;:null}"/><path d="M459.41769,123.0702c-1.0052,-2.18392 -1.3896,-4.62508 -0.8586,-5.45248c0.531,-0.8274 1.77636,0.27227 2.78156,2.45619c1.0052,2.18392 1.38962,4.62507 0.8586,5.45248c-0.531,0.8274 -1.77636,-0.27226 -2.78157,-2.45618z"/><path d="M453.46022,128.80958c-0.49915,-0.89201 -0.02528,-3.27934 1.05842,-5.33224c1.0837,-2.0529 2.36686,-2.99398 2.86601,-2.10197c0.49915,0.89201 0.02528,3.27935 -1.05842,5.33225c-1.0837,2.0529 -2.36685,2.99398 -2.86601,2.10197z" data-paper-data="{&quot;index&quot;:null}"/></g><g><path d="M459.46711,132.45656c-1.0052,-2.18392 -1.38962,-4.62508 -0.85861,-5.45248c0.531,-0.8274 1.77636,0.27227 2.78156,2.45619c1.0052,2.18392 1.38962,4.62508 0.85861,5.45248c-0.531,0.8274 -1.77636,-0.27227 -2.78156,-2.45619z"/><path d="M453.50963,138.19595c-0.49915,-0.89201 -0.02529,-3.27935 1.05841,-5.33224c1.0837,-2.0529 2.36687,-2.99398 2.86601,-2.10197c0.49915,0.89201 0.02528,3.27935 -1.05842,5.33225c-1.0837,2.0529 -2.36685,2.99398 -2.86601,2.10197z" data-paper-data="{&quot;index&quot;:null}"/><path d="M459.41769,141.8202c-1.0052,-2.18392 -1.3896,-4.62508 -0.8586,-5.45248c0.531,-0.8274 1.77636,0.27227 2.78156,2.45619c1.0052,2.18392 1.38962,4.62507 0.8586,5.45248c-0.531,0.8274 -1.77636,-0.27226 -2.78157,-2.45618z"/><path d="M453.46022,147.55958c-0.49915,-0.89201 -0.02528,-3.27934 1.05842,-5.33224c1.0837,-2.0529 2.36686,-2.99398 2.86601,-2.10197c0.49915,0.89201 0.02528,3.27935 -1.05842,5.33225c-1.0837,2.0529 -2.36685,2.99398 -2.86601,2.10197z" data-paper-data="{&quot;index&quot;:null}"/></g></g><g><g><path d="M459.46711,76.08156c-1.0052,-2.18392 -1.38962,-4.62507 -0.85861,-5.45248c0.531,-0.8274 1.77636,0.27227 2.78156,2.45619c1.0052,2.18392 1.38962,4.62507 0.85861,5.45248c-0.531,0.8274 -1.77636,-0.27227 -2.78156,-2.45619z"/><path d="M453.50963,81.82095c-0.49915,-0.89202 -0.02529,-3.27935 1.05841,-5.33224c1.0837,-2.0529 2.36687,-2.99398 2.86601,-2.10196c0.49915,0.89202 0.02528,3.27935 -1.05842,5.33225c-1.0837,2.0529 -2.36685,2.99398 -2.86601,2.10196z" data-paper-data="{&quot;index&quot;:null}"/><path d="M459.41769,85.4452c-1.0052,-2.18392 -1.3896,-4.62508 -0.8586,-5.45248c0.531,-0.8274 1.77636,0.27226 2.78156,2.45618c1.0052,2.18392 1.38962,4.62508 0.8586,5.45248c-0.531,0.8274 -1.77636,-0.27226 -2.78157,-2.45618z"/><path d="M453.46022,91.18458c-0.49915,-0.89202 -0.02528,-3.27934 1.05842,-5.33224c1.0837,-2.0529 2.36686,-2.99398 2.86601,-2.10197c0.49915,0.89202 0.02528,3.27935 -1.05842,5.33225c-1.0837,2.0529 -2.36685,2.99398 -2.86601,2.10196z" data-paper-data="{&quot;index&quot;:null}"/></g><g><path d="M459.46711,94.83156c-1.0052,-2.18392 -1.38962,-4.62507 -0.85861,-5.45248c0.531,-0.8274 1.77636,0.27227 2.78156,2.45619c1.0052,2.18392 1.38962,4.62507 0.85861,5.45248c-0.531,0.8274 -1.77636,-0.27227 -2.78156,-2.45619z"/><path d="M453.50963,100.57095c-0.49915,-0.89202 -0.02529,-3.27935 1.05841,-5.33224c1.0837,-2.0529 2.36687,-2.99398 2.86601,-2.10196c0.49915,0.89202 0.02528,3.27935 -1.05842,5.33225c-1.0837,2.0529 -2.36685,2.99398 -2.86601,2.10196z" data-paper-data="{&quot;index&quot;:null}"/><path d="M459.41769,104.1952c-1.0052,-2.18392 -1.3896,-4.62508 -0.8586,-5.45248c0.531,-0.8274 1.77636,0.27226 2.78156,2.45618c1.0052,2.18392 1.38962,4.62508 0.8586,5.45248c-0.531,0.8274 -1.77636,-0.27226 -2.78157,-2.45618z"/><path d="M453.46022,109.93458c-0.49915,-0.89202 -0.02528,-3.27934 1.05842,-5.33224c1.0837,-2.0529 2.36686,-2.99398 2.86601,-2.10197c0.49915,0.89202 0.02528,3.27935 -1.05842,5.33225c-1.0837,2.0529 -2.36685,2.99398 -2.86601,2.10196z" data-paper-data="{&quot;index&quot;:null}"/></g></g></g></g><g><g><path d="M427.92926,4.64406c-1.0052,-2.18392 -1.38962,-4.62507 -0.8586,-5.45248c0.531,-0.8274 1.77636,0.27226 2.78156,2.45619c1.0052,2.18392 1.38962,4.62508 0.8586,5.45248c-0.531,0.82741 -1.77636,-0.27226 -2.78156,-2.45618z"/><path d="M421.97179,10.38345c-0.49915,-0.89201 -0.02529,-3.27934 1.05841,-5.33224c1.0837,-2.0529 2.36686,-2.99398 2.86601,-2.10197c0.49915,0.89202 0.02528,3.27935 -1.05842,5.33225c-1.0837,2.0529 -2.36686,2.99398 -2.86601,2.10197z" data-paper-data="{&quot;index&quot;:null}"/><path d="M427.87985,14.0077c-1.0052,-2.18392 -1.38961,-4.62508 -0.85861,-5.45248c0.531,-0.82741 1.77636,0.27226 2.78156,2.45619c1.0052,2.18392 1.38962,4.62507 0.85861,5.45248c-0.531,0.82741 -1.77636,-0.27226 -2.78157,-2.45618z"/><path d="M421.92238,19.74708c-0.49915,-0.89202 -0.02529,-3.27934 1.05841,-5.33224c1.0837,-2.0529 2.36686,-2.99398 2.86601,-2.10197c0.49915,0.89201 0.02528,3.27934 -1.05842,5.33225c-1.0837,2.0529 -2.36685,2.99398 -2.86601,2.10197z" data-paper-data="{&quot;index&quot;:null}"/></g><g><path d="M427.92926,23.39406c-1.0052,-2.18392 -1.38962,-4.62507 -0.8586,-5.45248c0.531,-0.82741 1.77636,0.27226 2.78156,2.45618c1.0052,2.18392 1.38962,4.62508 0.8586,5.45248c-0.531,0.8274 -1.77636,-0.27227 -2.78156,-2.45619z"/><path d="M421.97179,29.13345c-0.49915,-0.89202 -0.02529,-3.27934 1.05841,-5.33224c1.0837,-2.0529 2.36686,-2.99398 2.86601,-2.10196c0.49915,0.89202 0.02528,3.27934 -1.05842,5.33224c-1.0837,2.0529 -2.36686,2.99398 -2.86601,2.10197z" data-paper-data="{&quot;index&quot;:null}"/><path d="M427.87985,32.7577c-1.0052,-2.18392 -1.38961,-4.62508 -0.85861,-5.45248c0.531,-0.8274 1.77636,0.27226 2.78156,2.45618c1.0052,2.18392 1.38962,4.62508 0.85861,5.45248c-0.531,0.8274 -1.77636,-0.27226 -2.78157,-2.45618z"/><path d="M421.92238,38.49708c-0.49915,-0.89202 -0.02529,-3.27934 1.05841,-5.33224c1.0837,-2.0529 2.36686,-2.99399 2.86601,-2.10197c0.49915,0.89202 0.02528,3.27934 -1.05842,5.33225c-1.0837,2.0529 -2.36685,2.99398 -2.86601,2.10196z" data-paper-data="{&quot;index&quot;:null}"/></g></g><g data-paper-data="{&quot;index&quot;:null}"><g><path d="M401.23205,-1.98095c-1.0052,-2.18392 -1.38961,-4.62508 -0.8586,-5.45248c0.531,-0.8274 1.77636,0.27227 2.78156,2.45619c1.0052,2.18392 1.3896,4.62508 0.8586,5.45248c-0.531,0.8274 -1.77636,-0.27227 -2.78156,-2.45619z"/><path d="M398.1406,1.65647c-1.0837,2.05291 -2.36686,2.99399 -2.86601,2.10197c-0.49915,-0.89201 -0.02529,-3.27934 1.05841,-5.33224c1.0837,-2.0529 2.36686,-2.99398 2.86601,-2.10197c0.49915,0.89202 0.02528,3.27935 -1.05842,5.33225z" data-paper-data="{&quot;index&quot;:null}"/><path d="M403.96421,9.83889c-0.53102,0.82741 -1.77637,-0.27226 -2.78157,-2.45618c-1.00521,-2.18392 -1.3896,-4.62509 -0.8586,-5.45249c0.531,-0.8274 1.77636,0.27227 2.78156,2.45619c1.0052,2.18392 1.38961,4.62508 0.8586,5.45248z"/><path d="M398.09118,11.02012c-1.0837,2.0529 -2.36686,2.99398 -2.86601,2.10196c-0.49915,-0.89202 -0.02528,-3.27934 1.05842,-5.33224c1.08369,-2.0529 2.36685,-2.99398 2.86601,-2.10197c0.49915,0.89202 0.02528,3.27935 -1.05842,5.33225z" data-paper-data="{&quot;index&quot;:null}"/></g><g><path d="M401.23205,16.76906c-1.0052,-2.18392 -1.38961,-4.62508 -0.8586,-5.45248c0.531,-0.8274 1.77636,0.27227 2.78156,2.45619c1.0052,2.18392 1.3896,4.62508 0.8586,5.45248c-0.531,0.8274 -1.77636,-0.27227 -2.78156,-2.45619z"/><path d="M398.1406,20.40648c-1.0837,2.05291 -2.36686,2.99399 -2.86601,2.10197c-0.49915,-0.89201 -0.02529,-3.27934 1.05841,-5.33224c1.0837,-2.0529 2.36686,-2.99398 2.86601,-2.10197c0.49915,0.89202 0.02528,3.27935 -1.05842,5.33225z" data-paper-data="{&quot;index&quot;:null}"/><path d="M403.96421,28.58889c-0.53102,0.82741 -1.77637,-0.27226 -2.78157,-2.45618c-1.00521,-2.18392 -1.3896,-4.62509 -0.8586,-5.45249c0.531,-0.8274 1.77636,0.27227 2.78156,2.45619c1.0052,2.18392 1.38961,4.62508 0.8586,5.45248z"/><path d="M398.09118,29.77013c-1.0837,2.0529 -2.36686,2.99398 -2.86601,2.10196c-0.49915,-0.89202 -0.02528,-3.27934 1.05842,-5.33224c1.08369,-2.0529 2.36685,-2.99398 2.86601,-2.10197c0.49915,0.89202 0.02528,3.27935 -1.05842,5.33225z" data-paper-data="{&quot;index&quot;:null}"/></g></g><g><g><path d="M427.92926,79.70656c-1.0052,-2.18392 -1.38962,-4.62507 -0.8586,-5.45248c0.531,-0.8274 1.77636,0.27227 2.78156,2.45619c1.0052,2.18392 1.38962,4.62507 0.8586,5.45248c-0.531,0.8274 -1.77636,-0.27227 -2.78156,-2.45619z"/><path d="M421.97179,85.44594c-0.49915,-0.89202 -0.02529,-3.27935 1.05841,-5.33224c1.0837,-2.0529 2.36687,-2.99398 2.86601,-2.10196c0.49915,0.89202 0.02528,3.27935 -1.05842,5.33225c-1.0837,2.0529 -2.36686,2.99398 -2.86601,2.10196z" data-paper-data="{&quot;index&quot;:null}"/><path d="M427.87985,89.0702c-1.0052,-2.18392 -1.38961,-4.62508 -0.85861,-5.45248c0.531,-0.8274 1.77636,0.27226 2.78156,2.45618c1.0052,2.18392 1.38962,4.62508 0.85861,5.45248c-0.531,0.8274 -1.77636,-0.27226 -2.78157,-2.45618z"/><path d="M421.92238,94.80958c-0.49915,-0.89202 -0.02529,-3.27934 1.05841,-5.33224c1.0837,-2.0529 2.36686,-2.99398 2.86601,-2.10197c0.49915,0.89202 0.02528,3.27935 -1.05842,5.33225c-1.0837,2.0529 -2.36685,2.99398 -2.86601,2.10196z" data-paper-data="{&quot;index&quot;:null}"/></g><g><path d="M427.92926,98.45656c-1.0052,-2.18392 -1.38962,-4.62507 -0.8586,-5.45248c0.531,-0.8274 1.77636,0.27227 2.78156,2.45619c1.0052,2.18392 1.38962,4.62507 0.8586,5.45248c-0.531,0.8274 -1.77636,-0.27227 -2.78156,-2.45619z"/><path d="M421.97179,104.19595c-0.49915,-0.89202 -0.02529,-3.27935 1.05841,-5.33224c1.0837,-2.0529 2.36687,-2.99398 2.86601,-2.10196c0.49915,0.89202 0.02528,3.27935 -1.05842,5.33225c-1.0837,2.0529 -2.36686,2.99398 -2.86601,2.10196z" data-paper-data="{&quot;index&quot;:null}"/><path d="M427.87985,107.8202c-1.0052,-2.18392 -1.38961,-4.62508 -0.85861,-5.45248c0.531,-0.8274 1.77636,0.27226 2.78156,2.45618c1.0052,2.18392 1.38962,4.62508 0.85861,5.45248c-0.531,0.8274 -1.77636,-0.27226 -2.78157,-2.45618z"/><path d="M421.92238,113.55958c-0.49915,-0.89202 -0.02529,-3.27934 1.05841,-5.33224c1.0837,-2.0529 2.36686,-2.99398 2.86601,-2.10197c0.49915,0.89202 0.02528,3.27935 -1.05842,5.33225c-1.0837,2.0529 -2.36685,2.99398 -2.86601,2.10196z" data-paper-data="{&quot;index&quot;:null}"/></g></g><g><g><path d="M427.92926,42.08156c-1.0052,-2.18392 -1.38962,-4.62508 -0.8586,-5.45248c0.531,-0.8274 1.77636,0.27227 2.78156,2.45619c1.0052,2.18392 1.38962,4.62508 0.8586,5.45248c-0.531,0.8274 -1.77636,-0.27226 -2.78156,-2.45618z"/><path d="M421.97179,47.82095c-0.49915,-0.89202 -0.02529,-3.27934 1.05841,-5.33224c1.0837,-2.0529 2.36687,-2.99398 2.86601,-2.10196c0.49915,0.89202 0.02528,3.27934 -1.05842,5.33225c-1.0837,2.0529 -2.36686,2.99398 -2.86601,2.10197z" data-paper-data="{&quot;index&quot;:null}"/><path d="M427.87985,51.4452c-1.0052,-2.18392 -1.38961,-4.62508 -0.85861,-5.45249c0.531,-0.8274 1.77636,0.27227 2.78156,2.45619c1.0052,2.18392 1.38962,4.62508 0.85861,5.45248c-0.531,0.8274 -1.77636,-0.27226 -2.78157,-2.45618z"/><path d="M421.92238,57.18458c-0.49915,-0.89202 -0.02529,-3.27934 1.05841,-5.33224c1.0837,-2.0529 2.36686,-2.99399 2.86601,-2.10197c0.49915,0.89202 0.02528,3.27934 -1.05842,5.33225c-1.0837,2.0529 -2.36685,2.99398 -2.86601,2.10197z" data-paper-data="{&quot;index&quot;:null}"/></g><g><path d="M427.92926,60.83156c-1.0052,-2.18392 -1.38962,-4.62508 -0.8586,-5.45248c0.531,-0.8274 1.77636,0.27226 2.78156,2.45618c1.0052,2.18392 1.38962,4.62508 0.8586,5.45248c-0.531,0.8274 -1.77636,-0.27226 -2.78156,-2.45618z"/><path d="M421.97179,66.57095c-0.49915,-0.89202 -0.02529,-3.27934 1.05841,-5.33224c1.0837,-2.0529 2.36687,-2.99398 2.86601,-2.10196c0.49915,0.89202 0.02528,3.27934 -1.05842,5.33225c-1.0837,2.0529 -2.36686,2.99398 -2.86601,2.10197z" data-paper-data="{&quot;index&quot;:null}"/><path d="M427.87985,70.1952c-1.0052,-2.18392 -1.38961,-4.62508 -0.85861,-5.45249c0.531,-0.8274 1.77636,0.27227 2.78156,2.45619c1.0052,2.18392 1.38962,4.62508 0.85861,5.45248c-0.531,0.8274 -1.77636,-0.27226 -2.78157,-2.45618z"/><path d="M421.92238,75.93458c-0.49915,-0.89202 -0.02529,-3.27934 1.05841,-5.33224c1.0837,-2.0529 2.36686,-2.99399 2.86601,-2.10197c0.49915,0.89202 0.02528,3.27935 -1.05842,5.33225c-1.0837,2.0529 -2.36685,2.99398 -2.86601,2.10196z" data-paper-data="{&quot;index&quot;:null}"/></g></g><g><g><g><path d="M41.33301,-3.89975c-0.53101,-0.8274 -0.1466,-3.26856 0.8586,-5.45248c1.00521,-2.18392 2.25056,-3.28359 2.78156,-2.45618c0.53102,0.82741 0.1466,3.26856 -0.85861,5.45248c-1.00521,2.18392 -2.25055,3.28359 -2.78156,2.45619z"/><path d="M47.20604,-2.71852c-1.0837,-2.0529 -1.55757,-4.44023 -1.05841,-5.33224c0.49916,-0.89202 1.78231,0.04907 2.86601,2.10197c1.0837,2.0529 1.55757,4.44023 1.05841,5.33225c-0.49916,0.89201 -1.78231,-0.04906 -2.86601,-2.10196z" data-paper-data="{&quot;index&quot;:null}"/><path d="M41.38242,5.46388c-0.53102,-0.82741 -0.14661,-3.26856 0.8586,-5.45248c1.00521,-2.18392 2.25055,-3.28359 2.78157,-2.45619c0.53102,0.8274 0.14661,3.26857 -0.8586,5.45249c-1.00521,2.18392 -2.25055,3.28359 -2.78157,2.45618z"/><path d="M47.25544,6.64511c-1.0837,-2.0529 -1.55757,-4.44023 -1.05841,-5.33224c0.49916,-0.89201 1.78232,0.04907 2.86602,2.10197c1.0837,2.0529 1.55757,4.44023 1.05841,5.33224c-0.49916,0.89201 -1.78231,-0.04907 -2.86601,-2.10197z" data-paper-data="{&quot;index&quot;:null}"/></g><g><path d="M41.33301,14.85025c-0.53101,-0.82741 -0.1466,-3.26856 0.8586,-5.45248c1.00521,-2.18392 2.25056,-3.28359 2.78156,-2.45618c0.53102,0.8274 0.1466,3.26856 -0.85861,5.45248c-1.00521,2.18392 -2.25055,3.28359 -2.78156,2.45618z"/><path d="M47.20604,16.03148c-1.0837,-2.0529 -1.55757,-4.44023 -1.05841,-5.33224c0.49916,-0.89201 1.78231,0.04907 2.86601,2.10197c1.0837,2.0529 1.55757,4.44023 1.05841,5.33225c-0.49916,0.89201 -1.78231,-0.04907 -2.86601,-2.10196z" data-paper-data="{&quot;index&quot;:null}"/><path d="M41.38242,24.21388c-0.53102,-0.8274 -0.14661,-3.26856 0.8586,-5.45248c1.00521,-2.18392 2.25055,-3.28359 2.78157,-2.45618c0.53102,0.82741 0.14661,3.26856 -0.8586,5.45248c-1.00521,2.18392 -2.25055,3.28358 -2.78157,2.45618z"/><path d="M47.25544,25.39512c-1.0837,-2.0529 -1.55757,-4.44023 -1.05841,-5.33224c0.49916,-0.89202 1.78232,0.04907 2.86602,2.10197c1.0837,2.0529 1.55757,4.44022 1.05841,5.33224c-0.49916,0.89202 -1.78231,-0.04906 -2.86601,-2.10196z" data-paper-data="{&quot;index&quot;:null}"/></g></g><g><g><path d="M41.33301,71.16275c-0.53101,-0.8274 -0.1466,-3.26856 0.8586,-5.45248c1.00521,-2.18392 2.25056,-3.28359 2.78156,-2.45618c0.53102,0.8274 0.1466,3.26856 -0.85861,5.45248c-1.00521,2.18392 -2.25055,3.28359 -2.78156,2.45619z"/><path d="M47.20604,72.34398c-1.0837,-2.0529 -1.55757,-4.44023 -1.05841,-5.33224c0.49916,-0.89202 1.78232,0.04906 2.86602,2.10196c1.0837,2.0529 1.55757,4.44023 1.05841,5.33225c-0.49916,0.89202 -1.78231,-0.04906 -2.86601,-2.10196z" data-paper-data="{&quot;index&quot;:null}"/><path d="M41.38242,80.52638c-0.53102,-0.8274 -0.14661,-3.26856 0.8586,-5.45248c1.00521,-2.18392 2.25055,-3.28359 2.78157,-2.45618c0.53102,0.8274 0.14661,3.26856 -0.8586,5.45248c-1.00521,2.18392 -2.25055,3.28359 -2.78157,2.45618z"/><path d="M47.25544,81.70762c-1.0837,-2.0529 -1.55757,-4.44023 -1.05841,-5.33224c0.49916,-0.89202 1.78232,0.04907 2.86602,2.10197c1.0837,2.0529 1.55757,4.44022 1.05841,5.33224c-0.49916,0.89202 -1.78231,-0.04906 -2.86601,-2.10196z" data-paper-data="{&quot;index&quot;:null}"/></g><g><path d="M41.33301,89.91275c-0.53101,-0.8274 -0.1466,-3.26856 0.8586,-5.45248c1.00521,-2.18392 2.25056,-3.28359 2.78156,-2.45619c0.53102,0.8274 0.1466,3.26856 -0.85861,5.45248c-1.00521,2.18392 -2.25055,3.28359 -2.78156,2.45619z"/><path d="M47.20604,91.09398c-1.0837,-2.0529 -1.55757,-4.44023 -1.05841,-5.33224c0.49916,-0.89202 1.78232,0.04906 2.86602,2.10196c1.0837,2.0529 1.55757,4.44023 1.05841,5.33225c-0.49916,0.89202 -1.78231,-0.04906 -2.86601,-2.10196z" data-paper-data="{&quot;index&quot;:null}"/><path d="M41.38242,99.27638c-0.53102,-0.8274 -0.14661,-3.26856 0.8586,-5.45248c1.00521,-2.18392 2.25055,-3.28359 2.78157,-2.45618c0.53102,0.8274 0.14661,3.26856 -0.8586,5.45248c-1.00521,2.18392 -2.25055,3.28359 -2.78157,2.45618z"/><path d="M47.25544,100.45762c-1.0837,-2.0529 -1.55757,-4.44023 -1.05841,-5.33224c0.49916,-0.89202 1.78232,0.04907 2.86602,2.10197c1.0837,2.0529 1.55757,4.44022 1.05841,5.33224c-0.49916,0.89202 -1.78231,-0.04906 -2.86601,-2.10196z" data-paper-data="{&quot;index&quot;:null}"/></g></g><g><g><path d="M41.33301,33.53775c-0.53101,-0.8274 -0.1466,-3.26856 0.8586,-5.45248c1.00521,-2.18392 2.25056,-3.28359 2.78156,-2.45619c0.53102,0.8274 0.1466,3.26856 -0.85861,5.45248c-1.00521,2.18392 -2.25055,3.28359 -2.78156,2.45619z"/><path d="M47.20604,34.71898c-1.0837,-2.0529 -1.55757,-4.44023 -1.05841,-5.33224c0.49916,-0.89202 1.78232,0.04906 2.86602,2.10197c1.0837,2.0529 1.55757,4.44023 1.05841,5.33225c-0.49916,0.89202 -1.78231,-0.04906 -2.86601,-2.10196z" data-paper-data="{&quot;index&quot;:null}"/><path d="M41.38242,42.90138c-0.53102,-0.8274 -0.14661,-3.26856 0.8586,-5.45248c1.00521,-2.18392 2.25055,-3.28359 2.78157,-2.45619c0.53102,0.8274 0.14661,3.26857 -0.8586,5.45249c-1.00521,2.18392 -2.25055,3.28359 -2.78157,2.45618z"/><path d="M47.25544,44.08261c-1.0837,-2.0529 -1.55757,-4.44023 -1.05841,-5.33224c0.49916,-0.89202 1.78232,0.04907 2.86602,2.10197c1.0837,2.0529 1.55757,4.44022 1.05841,5.33224c-0.49916,0.89202 -1.78231,-0.04906 -2.86601,-2.10196z" data-paper-data="{&quot;index&quot;:null}"/></g><g><path d="M41.33301,52.28775c-0.53101,-0.8274 -0.1466,-3.26856 0.8586,-5.45248c1.00521,-2.18392 2.25056,-3.28359 2.78156,-2.45618c0.53102,0.8274 0.1466,3.26856 -0.85861,5.45248c-1.00521,2.18392 -2.25055,3.28359 -2.78156,2.45618z"/><path d="M47.20604,53.46898c-1.0837,-2.0529 -1.55757,-4.44023 -1.05841,-5.33224c0.49916,-0.89202 1.78232,0.04906 2.86602,2.10197c1.0837,2.0529 1.55757,4.44023 1.05841,5.33225c-0.49916,0.89202 -1.78231,-0.04906 -2.86601,-2.10196z" data-paper-data="{&quot;index&quot;:null}"/><path d="M41.38242,61.65138c-0.53102,-0.8274 -0.14661,-3.26856 0.8586,-5.45248c1.00521,-2.18392 2.25055,-3.28359 2.78157,-2.45619c0.53102,0.8274 0.14661,3.26857 -0.8586,5.45249c-1.00521,2.18392 -2.25055,3.28359 -2.78157,2.45618z"/><path d="M47.25544,62.83262c-1.0837,-2.0529 -1.55757,-4.44023 -1.05841,-5.33224c0.49916,-0.89202 1.78232,0.04907 2.86602,2.10197c1.0837,2.0529 1.55757,4.44022 1.05841,5.33224c-0.49916,0.89202 -1.78231,-0.04906 -2.86601,-2.10196z" data-paper-data="{&quot;index&quot;:null}"/></g></g></g></g></g></g></svg>