<svg version="1.1" xmlns="http://www.w3.org/2000/svg" xmlns:xlink="http://www.w3.org/1999/xlink" width="31.11411" height="31.11411" viewBox="0,0,31.11411,31.11411"><g transform="translate(-224.44301,-164.44296)"><g data-paper-data="{&quot;isPaintingLayer&quot;:true}" fill="none" fill-rule="nonzero" stroke-linejoin="miter" stroke-miterlimit="10" stroke-dasharray="" stroke-dashoffset="0" style="mix-blend-mode: normal"><path d="M224.44302,195.55707v-31.11411h31.11411v31.11411z" stroke="none" stroke-width="2" stroke-linecap="butt"/><path d="M229.20843,191.4393l-0.77829,-0.855l10.5908,-10.42472l0.82843,0.71539z" stroke="#5a5743" stroke-width="1.75" stroke-linecap="butt"/><path d="M239.26338,173.76896c1.56267,-2.75046 5.05916,-3.71336 7.80962,-2.15069c2.75046,1.56267 3.71336,5.05916 2.15069,7.80962c-1.56267,2.75046 -5.05916,3.71336 -7.80962,2.15069c-2.75046,-1.56267 -3.71336,-5.05916 -2.15069,-7.80962z" stroke="#aea64e" stroke-width="1.75" stroke-linecap="butt"/><path d="M242.94377,168.5607l0.20927,1.91555" stroke="#aea64e" stroke-width="1.75" stroke-linecap="round"/><path d="M238.84864,171.02512l1.59661,1.40618" stroke="#aea64e" stroke-width="1.75" stroke-linecap="round"/><path d="M238.01189,176.53855l-1.23816,-0.10458" stroke="#aea64e" stroke-width="1.75" stroke-linecap="round"/><path d="M242.07293,182.03986l-0.33095,1.10956" stroke="#aea64e" stroke-width="1.75" stroke-linecap="round"/><path d="M246.51796,181.77052l0.58482,1.43021" stroke="#aea64e" stroke-width="1.75" stroke-linecap="round"/><path d="M250.70057,179.85486l-1.06669,-0.40641" stroke="#aea64e" stroke-width="1.75" stroke-linecap="round"/><path d="M249.82756,175.06686l1.74233,-0.60712" stroke="#aea64e" stroke-width="1.75" stroke-linecap="round"/><path d="M247.67699,171.64912l0.79398,-1.04612" stroke="#aea64e" stroke-width="1.75" stroke-linecap="round"/></g></g></svg>