<svg version="1.1" xmlns="http://www.w3.org/2000/svg" xmlns:xlink="http://www.w3.org/1999/xlink" width="122" height="122" viewBox="0,0,122,122"><g transform="translate(-179,-119)"><g data-paper-data="{&quot;isPaintingLayer&quot;:true}" fill-rule="nonzero" stroke-linejoin="miter" stroke-miterlimit="10" stroke-dasharray="" stroke-dashoffset="0" style="mix-blend-mode: normal"><path d="M222.51076,204.9639c0,0 -5.14879,-0.45879 -9.06815,-5.10974c-5.93396,-7.04156 -7.91947,-12.42739 -9.61246,-22.59163c-1.44121,-8.65257 -0.45616,-20.10877 6.13416,-19.67303c3.72629,0.24638 6.29367,8.51692 5.76914,18.08404c-0.52452,9.56713 6.77732,29.29036 6.77732,29.29036z" fill="#cecece" stroke="#000000" stroke-width="2" stroke-linecap="butt"/><path d="M225.89562,156.16491c0,0 -9.39565,-7.68031 -8.95933,-9.16052c0.28889,-0.98007 11.74996,0 11.74996,0" fill="#cecece" stroke="#000000" stroke-width="2" stroke-linecap="round"/><path d="M230.30185,144.04272c0,0 -7.46666,-8.06182 -7.19684,-9.16052c0.31296,-1.27436 11.74995,0 11.74995,0" fill="#cecece" stroke="#000000" stroke-width="2" stroke-linecap="round"/><path d="M262.17635,148.63372c-0.25883,12.47447 16.29062,61.73661 0.87849,61.73661c-12.55285,0 -28.43719,3.70748 -37.19428,-1.08508c-4.76866,-2.60978 -5.77072,-10.25963 -6.77627,-16.60094c-4.03746,-25.46163 14.88943,-58.35307 14.88943,-58.35307c0,0 2.27085,0.19709 5.50306,0.81219c8.03764,1.52962 22.90907,3.39318 22.69957,13.49029z" fill="#cecece" stroke="#000000" stroke-width="2" stroke-linecap="butt"/><path d="M243.07993,148.10641l-5.87498,10.19366" fill="none" stroke="#ffb0b0" stroke-width="1" stroke-linecap="round"/><path d="M264.23505,196.8972c0,8.14347 -4.41246,11.38573 -12.3402,11.38573c-7.92774,0 -14.35444,-2.57039 -14.35444,-10.71387c0,-8.14348 5.75529,-15.41693 13.68303,-15.41693c7.92773,0 13.01162,6.60159 13.01162,14.74506z" fill="#e2e2e2" stroke="#000000" stroke-width="2" stroke-linecap="butt"/><path d="M265.58771,156.53585c7.866,2.33619 16.6974,6.46427 9.6976,11.60938c-2.69083,1.97787 -0.23649,5.64955 -3.84714,6.45744c-5.21735,1.16741 -31.98663,1.08127 -33.02767,-1.45418c-2.48958,-6.06338 -0.19741,-15.99272 9.17042,-18.15555c9.36783,-2.16283 7.91993,-1.45289 18.00678,1.54291z" fill="#e2e2e2" stroke="#000000" stroke-width="2" stroke-linecap="butt"/><path d="M278.62352,162.01937c0,2.20626 -2.30288,4.82132 -5.14363,4.82132c-2.84075,0 -5.14363,-2.61505 -5.14363,-4.82132c0,-2.20626 2.67028,-2.34179 5.51103,-2.34179c2.84075,0 4.77622,0.13551 4.77622,2.34179z" fill="#4d4d4d" stroke="#000000" stroke-width="2" stroke-linecap="butt"/><path d="M237.64558,153.40989c0,-1.14118 0.98637,-2.06628 2.20312,-2.06628c1.21675,0 2.20312,0.9251 2.20312,2.06628c0,1.14118 -0.98636,2.06628 -2.20312,2.06628c-1.21675,0 -2.20312,-0.9251 -2.20312,-2.06628z" fill="#000000" stroke="none" stroke-width="0.5" stroke-linecap="butt"/><path d="M255.56425,150.58595c0,-1.14118 0.98637,-2.06628 2.20312,-2.06628c1.21675,0 2.20312,0.9251 2.20312,2.06628c0,1.14118 -0.98636,2.06628 -2.20312,2.06628c-1.21675,0 -2.20312,-0.9251 -2.20312,-2.06628z" fill="#000000" stroke="none" stroke-width="0.5" stroke-linecap="butt"/><path d="M237.79245,209.54382c0,0 1.29965,4.7024 -1.09529,6.65687c-1.30267,1.06308 -6.59417,-0.04479 -7.12967,-0.04479c-1.27706,0 -0.29375,-6.61209 -0.29375,-6.61209" fill="#cecece" stroke="#000000" stroke-width="2" stroke-linecap="round"/><path d="M264.81734,208.99281c0,0 1.29964,4.7024 -1.0953,6.65688c-1.30266,1.06308 -6.59416,-0.04479 -7.12966,-0.04479c-1.27706,0 -0.29375,-6.6121 -0.29375,-6.6121" fill="#cecece" stroke="#000000" stroke-width="2" stroke-linecap="round"/><path d="M246.31116,181.32561c0,0 1.29964,4.7024 -1.09529,6.65687c-1.30265,1.06308 -6.59416,-0.04478 -7.12966,-0.04478c-1.27706,0 -0.29376,-6.6121 -0.29376,-6.6121" fill="#cecece" stroke="#000000" stroke-width="2" stroke-linecap="round"/><path d="M266.57983,181.32561c0,0 1.29964,4.7024 -1.0953,6.65687c-1.30266,1.06308 -6.59416,-0.04478 -7.12966,-0.04478c-1.27706,0 -0.29376,-6.6121 -0.29376,-6.6121" fill="#cecece" stroke="#000000" stroke-width="2" stroke-linecap="round"/><path d="M261.31081,169.62334l-0.84128,6.47483c0,0 -1.24212,0.31264 -1.79669,-0.75172c-0.67405,-1.29358 -1.95952,-6.00689 -1.95952,-6.00689" data-paper-data="{&quot;index&quot;:null}" fill="#ffffff" stroke="#000000" stroke-width="2" stroke-linecap="round"/><path d="M273.50221,169.88595c0,0 -1.38273,4.88055 -2.10868,6.145c-0.59727,1.04037 -1.8257,0.67627 -1.8257,0.67627l-0.57791,-6.50436" fill="#ffffff" stroke="#000000" stroke-width="2" stroke-linecap="round"/><path d="M236.82727,157.11934l1.51071,1.41688" fill="none" stroke="#ffb0b0" stroke-width="1" stroke-linecap="round"/><path d="M239.09334,156.64705l-1.5107,-1.41687" fill="none" stroke="#ffb0b0" stroke-width="1" stroke-linecap="round"/><path d="M243.62546,149.7988l-1.51071,-1.41687" fill="none" stroke="#ffb0b0" stroke-width="1" stroke-linecap="round"/><path d="M273.84728,169.87124l-21.38728,-0.82651" fill="none" stroke="#000000" stroke-width="2" stroke-linecap="round"/><path d="M242.16668,151.23382l-3.72222,-3.72473" fill="none" stroke="#000000" stroke-width="1.5" stroke-linecap="round"/><path d="M258.83333,144.95181l-3.72222,3.72473" data-paper-data="{&quot;index&quot;:null}" fill="none" stroke="#000000" stroke-width="1.5" stroke-linecap="round"/><path d="M179,241v-122h122v122z" fill="none" stroke="none" stroke-width="none" stroke-linecap="butt"/></g></g></svg>