<svg version="1.1" xmlns="http://www.w3.org/2000/svg" xmlns:xlink="http://www.w3.org/1999/xlink" width="105.99342" height="105.99342" viewBox="0,0,105.99342,105.99342"><g transform="translate(-187.00329,-127.00329)"><g data-paper-data="{&quot;isPaintingLayer&quot;:true}" fill-rule="nonzero" stroke-linejoin="miter" stroke-miterlimit="10" stroke-dasharray="" stroke-dashoffset="0" style="mix-blend-mode: normal"><path d="M261.09348,153.76487c5.84204,5.31918 9.62647,12.80908 9.98277,21.23687c0.49229,11.64433 1.19973,19.36712 1.69202,31.01145c0.17957,4.2475 -3.0556,9.56194 -7.6196,9.98647c-6.01401,0.55941 -7.64358,-6.33511 -8.1084,-6.35426c-0.5228,0.06091 -0.9475,6.67269 -7.54313,7.01597c-5.8379,0.30384 -8.31117,-6.48167 -8.7924,-6.46257c-0.49104,-0.00107 -1.3892,6.97042 -6.76779,7.44167c-5.76738,0.50532 -7.96422,-7.07446 -8.38365,-6.8724c-0.2564,-0.08621 -1.48283,6.89796 -7.63967,7.22857c-4.69688,0.25222 -7.8033,-5.07934 -7.98287,-9.32684c-0.49181,-11.63277 -1.20643,-19.37842 -1.69824,-31.01118c-0.34305,-8.11416 2.55367,-15.63026 7.56424,-21.34872c-1.13458,-2.94511 -1.28867,-10.7495 -0.5139,-11.25989c1.2071,-0.7952 10.48692,3.72917 11.61234,3.14988c3.40825,-1.75434 7.38078,-2.46039 11.45859,-2.63279c4.41848,-0.1868 7.62262,0.40351 11.50525,1.85374c1.27426,-0.88009 7.98708,-6.0928 8.88157,-5.55764c0.89449,0.53516 2.35286,11.90166 2.35286,11.90166z" fill="#ffdc5f" stroke="#000000" stroke-width="2.5" stroke-linecap="butt"/><path d="M191.30267,232.99671l-4.29939,-101.69404l101.69404,-4.29939l4.29939,101.69404z" fill="none" stroke="none" stroke-width="NaN" stroke-linecap="butt"/><path d="M266.6733,166.71015c0.28388,6.71458 -5.01172,12.39145 -11.82804,12.67963c-6.81632,0.28818 -12.57217,-4.92145 -12.85605,-11.63605c-0.28388,-6.71458 5.01172,-12.39145 11.82804,-12.67963c6.81632,-0.28818 12.57217,4.92145 12.85605,11.63605z" fill="#fff4c3" stroke="none" stroke-width="2.5" stroke-linecap="butt"/><path d="M221.95774,158.60971l2.04632,1.88031" fill="none" stroke="#000000" stroke-width="2.5" stroke-linecap="round"/><path d="M244.87446,177.84914c0.14624,3.45903 -0.46338,8.18307 -5.55019,8.39812c-5.08681,0.21506 -5.13356,-5.12555 -5.2798,-8.58458c-0.04592,-1.08615 -0.05544,-3.72337 5.03137,-3.93843c5.08682,-0.21506 5.79862,4.12489 5.79862,4.12489z" fill="#ff2929" stroke="#000000" stroke-width="0.5" stroke-linecap="butt"/><path d="M251.48068,158.64628l1.88032,-2.04632" data-paper-data="{&quot;index&quot;:null}" fill="none" stroke="#000000" stroke-width="2.5" stroke-linecap="round"/><path d="M245.28884,177.04708c0,0 1.34805,8.86136 -5.35272,9.13479c-6.54416,0.26705 -6.14029,-9.14414 -6.14029,-9.14414" fill="none" stroke="#000000" stroke-width="2.5" stroke-linecap="round"/><path d="M233.73856,177.56885c-0.03304,-0.7815 0.5737,-1.4418 1.3552,-1.47484c0.7815,-0.03304 1.4418,0.5737 1.47484,1.35519c0.03304,0.7815 -0.20867,3.54365 -0.99017,3.57669c-0.7815,0.03304 -1.80684,-2.67555 -1.83988,-3.45704z" fill="#ffffff" stroke="none" stroke-width="0" stroke-linecap="butt"/><path d="M242.43935,177.05477c-0.03304,-0.7815 0.5737,-1.44181 1.35519,-1.47485c0.7815,-0.03304 1.4418,0.5737 1.47484,1.3552c0.03304,0.7815 -0.20867,3.54365 -0.99017,3.57669c-0.7815,0.03304 -1.80684,-2.67554 -1.83988,-3.45704z" fill="#ffffff" stroke="none" stroke-width="0" stroke-linecap="butt"/><path d="M222.13987,181.9425l-4.82316,1.84168" fill="none" stroke="#000000" stroke-width="2.5" stroke-linecap="round"/><path d="M214.44968,178.50234l7.06955,0.70141" fill="none" stroke="#000000" stroke-width="2.5" stroke-linecap="round"/><path d="M262.10278,181.05787l-4.96141,-1.42801" data-paper-data="{&quot;index&quot;:null}" fill="none" stroke="#000000" stroke-width="2.5" stroke-linecap="round"/><path d="M264.51377,175.55288l-6.98512,1.29561" data-paper-data="{&quot;index&quot;:null}" fill="none" stroke="#000000" stroke-width="2.5" stroke-linecap="round"/><path d="M249.05828,172.20887c0,0 -1.98539,3.22613 -4.47713,3.33669c-2.49175,0.11056 -5.70288,-2.88498 -5.70288,-2.88498c0,0 -2.76211,3.07866 -5.22464,2.98804c-2.46254,-0.09064 -4.69719,-2.0457 -4.69719,-2.0457" fill="none" stroke="#000000" stroke-width="2.5" stroke-linecap="round"/><path d="M241.5139,170.10783c0,0 -1.63671,2.3972 -2.51609,2.43438c-0.89551,0.03786 -2.80941,-2.20923 -2.80941,-2.20923" fill="none" stroke="#000000" stroke-width="2.5" stroke-linecap="round"/><path d="M252.10683,166.64852c-0.12483,-2.95256 2.1675,-5.44726 5.12005,-5.57208c2.95256,-0.12483 5.44726,2.16749 5.57208,5.12005c0.12483,2.95256 -2.1675,5.44726 -5.12005,5.57208c-2.95256,0.12483 -5.44726,-2.1675 -5.57208,-5.12005z" fill="#ffffff" stroke="#000000" stroke-width="2.5" stroke-linecap="butt"/><path d="M215.44255,170.94079c-0.90092,-2.81453 0.65037,-5.82646 3.46488,-6.72737c1.40796,-0.45068 2.54156,0.34093 3.75933,0.96872c1.21657,0.62717 2.51781,1.08961 2.96804,2.49616c0.42991,1.34307 0.30142,2.7311 -0.25626,3.91322c-1.35369,-0.14949 -2.76002,-0.02333 -4.14091,0.4187c-1.29764,0.41537 -2.45161,1.07085 -3.42851,1.90169c-1.08683,-0.64405 -1.95114,-1.67327 -2.36657,-2.97111z" fill="#ffffff" stroke="#000000" stroke-width="2.5" stroke-linecap="butt"/></g></g></svg>