<svg version="1.1" xmlns="http://www.w3.org/2000/svg" xmlns:xlink="http://www.w3.org/1999/xlink" width="88.25" height="88.25" viewBox="0,0,88.25,88.25"><defs><linearGradient x1="272.12036" y1="-156.86129" x2="272.12036" y2="367.04086" gradientUnits="userSpaceOnUse" id="color-1"><stop offset="0" stop-color="#96b2ff"/><stop offset="1" stop-color="#96b2ff" stop-opacity="0"/></linearGradient><radialGradient cx="240" cy="180" r="21.64286" gradientUnits="userSpaceOnUse" id="color-2"><stop offset="0" stop-color="#ffae00"/><stop offset="1" stop-color="#ffae00" stop-opacity="0"/></radialGradient></defs><g transform="translate(-195.875,-135.875)"><g data-paper-data="{&quot;isPaintingLayer&quot;:true}" fill-rule="nonzero" stroke-linejoin="miter" stroke-miterlimit="10" stroke-dasharray="" stroke-dashoffset="0" style="mix-blend-mode: normal"><path d="M214.43147,178.87301c0.16116,-14.07254 10.70712,-24.64363 24.94593,-24.33392c14.23881,0.30971 26.36132,10.61011 26.19141,25.4462c-0.16991,14.8361 -11.66277,25.80375 -26.77456,25.47505c-15.11179,-0.3287 -24.52394,-12.51479 -24.36278,-26.58733z" fill="url(#color-1)" stroke="#ffffff" stroke-width="1.5" stroke-linecap="butt"/><path d="M218.35714,180c0,-11.95302 9.68984,-21.64286 21.64286,-21.64286c11.95302,0 21.64286,9.68984 21.64286,21.64286c0,11.95302 -9.68984,21.64286 -21.64286,21.64286c-11.95302,0 -21.64286,-9.68984 -21.64286,-21.64286z" fill="url(#color-2)" stroke="#8719ff" stroke-width="0" stroke-linecap="butt"/><path d="M195.875,224.125v-88.25h88.25v88.25z" fill="none" stroke="none" stroke-width="NaN" stroke-linecap="butt"/><path d="M214.64287,180.00002c0,-14.00436 11.35278,-25.35714 25.35714,-25.35714c14.00436,0 25.35714,11.35278 25.35714,25.35714c0,14.00436 -11.35278,25.35714 -25.35714,25.35714c-14.00436,0 -25.35714,-11.35278 -25.35714,-25.35714z" fill="none" stroke="#ffffff" stroke-width="1" stroke-linecap="butt"/><g stroke="#ff7700" stroke-width="1.5"><path d="M236.1126,192.36181l-9.23512,-17.90645c0,0 1.28971,-2.76606 3.66089,-4.95569c1.8718,-1.7285 4.75537,-2.81624 5.87306,-3.84838c1.67929,-1.55072 4.18854,-3.86789 4.18854,-3.86789c0,0 1.32904,0.62931 1.93503,1.31114c0.60599,0.68184 0.05522,0.70945 1.43502,2.48071c0.25828,0.33156 1.88574,0.6795 2.18655,1.03851c0.61938,0.73919 -0.02885,1.52543 0.69191,2.31281c0.43308,0.47311 1.47258,0.52134 1.91156,1.01328c0.6794,0.76137 0.75438,1.95999 1.37759,2.59536c0.68084,0.69412 1.60151,0.39806 2.10858,0.87396c0.80796,0.75827 0.87631,2.69443 0.87631,2.69443l-1.33404,0.88673c0,0 -4.27765,12.88088 -9.28073,15.47465c-2.39086,1.23951 -6.39511,-0.10318 -6.39511,-0.10318z" fill="#f8ff00" stroke-linecap="butt"/><path d="M243.13797,166.23911l-3.28741,3.28741l3.88512,3.88512l-3.13798,3.13798l-4.78169,-2.6897" fill="#f8ff00" stroke-linecap="round"/><path d="M242.98855,172.36564l2.91385,-2.91385" fill="#f8ff00" stroke-linecap="round"/><path d="M249.26451,172.96335l-4.93112,4.93112" fill="#f8ff00" stroke-linecap="round"/><path d="M236.2643,165.79083l4.10926,4.10926" fill="#f8ff00" stroke-linecap="round"/><path d="M252.85076,176.10133l-5.67824,5.37939l-5.08055,-4.78169" fill="none" stroke-linecap="round"/><path d="M246.12062,188.70522v9.51139h-11.95421v-9.56337" fill="#f8ff00" stroke-linecap="round"/></g></g></g></svg>