<svg version="1.1" xmlns="http://www.w3.org/2000/svg" xmlns:xlink="http://www.w3.org/1999/xlink" width="523" height="404.59215" viewBox="0,0,523,404.59215"><defs><linearGradient x1="939.11225" y1="-2682.83333" x2="939.11225" y2="4812" gradientUnits="userSpaceOnUse" id="color-1"><stop offset="0" stop-color="#125451" stop-opacity="0"/><stop offset="1" stop-color="#125451"/></linearGradient></defs><g transform="translate(21.5,31.59215)"><g data-paper-data="{&quot;isPaintingLayer&quot;:true}" fill-rule="nonzero" stroke-linejoin="miter" stroke-miterlimit="10" stroke-dasharray="" stroke-dashoffset="0" style="mix-blend-mode: normal"><path d="M-6,366.5v-373h492v373z" fill="#0c1c2e" stroke="#000000" stroke-width="0.5" stroke-linecap="butt"/><path d="M22.68057,98.12033c-1.60908,12.11391 7.56205,21.23221 0.79178,31.5535c-6.77027,10.32129 -15.13179,0.16612 -15.8251,-8.63518c-0.6933,-8.8013 11.17868,-30.3788 11.15406,-50.66229c-0.02463,-20.28349 -11.46287,-19.84169 -11.25692,-34.07961c0.20594,-14.23792 11.25162,-15.4514 12.14476,-27.29991c0.28013,-3.7163 -9.47356,-11.48996 -8.27987,-15.22537c0.40033,-1.25273 -2.41463,-2.52677 3.26465,-2.86303c1.54962,-0.09175 9.8799,11.03507 10.73698,21.65052c0.85708,10.61546 -11.65979,14.84699 -10.42653,25.83184c1.23327,10.98485 14.94827,16.41076 16.66424,29.72823c1.71597,13.31746 -7.35895,17.88741 -8.96803,30.00132z" fill="#307841" stroke="none" stroke-width="NaN" stroke-linecap="butt"/><path d="M57.22457,18.31127c1.60907,-12.11391 -7.56205,-21.2322 -0.79178,-31.55349c6.77027,-10.32129 15.1318,-0.16612 15.8251,8.63518c0.6933,8.8013 -11.17868,30.3788 -11.15406,50.6623c0.02463,20.28349 11.46287,19.84169 11.25693,34.07961c-0.20594,14.23792 -11.25162,15.4514 -12.14475,27.29992c-0.28013,3.7163 9.47356,11.48996 8.27987,15.22537c-0.40032,1.25273 2.41463,2.52677 -3.26465,2.86303c-1.54962,0.09175 -9.8799,-11.03507 -10.73698,-21.65052c-0.85708,-10.61545 11.65979,-14.84699 10.42653,-25.83184c-1.23327,-10.98485 -14.94827,-16.41076 -16.66424,-29.72822c-1.71597,-13.31746 7.35896,-17.88741 8.96803,-30.00132z" data-paper-data="{&quot;index&quot;:null}" fill="#306f78" stroke="none" stroke-width="NaN" stroke-linecap="butt"/><path d="M413.75654,45.619c1.71597,-13.31746 15.43097,-18.74337 16.66424,-29.72822c1.23327,-10.98485 -11.28361,-15.21638 -10.42653,-25.83184c0.85708,-10.61545 9.18736,-21.74227 10.73698,-21.65052c5.67928,0.33627 2.86432,1.61031 3.26465,2.86304c1.19369,3.73541 -8.56,11.50908 -8.27987,15.22537c0.89313,11.84852 11.93881,13.062 12.14476,27.29992c0.20594,14.23792 -11.2323,13.79612 -11.25693,34.07961c-0.02463,20.28349 11.84736,41.861 11.15405,50.6623c-0.69331,8.8013 -9.05483,18.95647 -15.8251,8.63518c-6.77027,-10.32129 2.40086,-19.43959 0.79178,-31.5535c-1.60908,-12.11391 -10.684,-16.68386 -8.96803,-30.00132z" data-paper-data="{&quot;index&quot;:null}" fill="#30786b" stroke="none" stroke-width="NaN" stroke-linecap="butt"/><path d="M476.6486,47.31261c-1.71597,13.31746 -15.43097,18.74338 -16.66424,29.72823c-1.23327,10.98485 11.28361,15.21639 10.42653,25.83184c-0.85708,10.61545 -9.18736,21.74227 -10.73698,21.65052c-5.67928,-0.33626 -2.86432,-1.6103 -3.26464,-2.86303c-1.19369,-3.7354 8.56,-11.50907 8.27987,-15.22537c-0.89313,-11.84852 -11.93881,-13.06199 -12.14476,-27.29991c-0.20594,-14.23792 11.2323,-13.79612 11.25693,-34.07961c0.02463,-20.28349 -11.84736,-41.86099 -11.15406,-50.66229c0.69331,-8.8013 9.05483,-18.95647 15.8251,-8.63518c6.77027,10.32129 -2.40086,19.43959 -0.79178,31.5535c1.60908,12.11391 10.684,16.68386 8.96803,30.00133z" data-paper-data="{&quot;index&quot;:null}" fill="#305b78" stroke="none" stroke-width="NaN" stroke-linecap="butt"/><path d="M75.5,344.5v-329h329v329z" fill="#07080d" stroke="none" stroke-width="0" stroke-linecap="butt"/><g fill="#31525e" stroke="#000000" stroke-width="0" stroke-linecap="butt"><path d="M201.56667,138.45559v-37h37v37z"/><path d="M161.43334,178.54449v-37h37v37z"/><path d="M121.56667,138.45559v-37h37v37z"/><path d="M81.43334,178.54449v-37h37v37z"/><path d="M201.56667,58.45559v-37h37v37z"/><path d="M161.43334,98.54449v-37h37v37z"/><path d="M121.56667,58.45559v-37h37v37z"/><path d="M81.43334,98.54449v-37h37v37z"/><path d="M361.56667,138.45559v-37h37v37z"/><path d="M321.43334,178.54449v-37h37v37z"/><path d="M281.56667,138.45559v-37h37v37z"/><path d="M241.43334,178.54449v-37h37v37z"/><path d="M361.56667,58.45559v-37h37v37z"/><path d="M321.43334,98.54449v-37h37v37z"/><path d="M281.56667,58.45559v-37h37v37z"/><path d="M241.43334,98.54449v-37h37v37z"/><path d="M201.56667,298.45554v-37h37v37z"/><path d="M161.43334,338.54448v-37h37v37z"/><path d="M121.56667,298.45554v-37h37v37z"/><path d="M81.43334,338.54448v-37h37v37z"/><path d="M201.56667,218.4556v-37h37v37z"/><path d="M161.43334,258.54447v-37h37v37z"/><path d="M121.56667,218.4556v-37h37v37z"/><path d="M81.43334,258.54447v-37h37v37z"/><path d="M361.56667,298.45554v-37h37v37z"/><path d="M321.43334,338.54448v-37h37v37z"/><path d="M281.56667,298.45554v-37h37v37z"/><path d="M241.43334,338.54448v-37h37v37z"/><path d="M361.56667,218.4556v-37h37v37z"/><path d="M321.43334,258.54447v-37h37v37z"/><path d="M281.56667,218.4556v-37h37v37z"/><path d="M241.43334,258.54447v-37h37v37z"/></g><g fill="#101130" stroke="#000000" stroke-width="0" stroke-linecap="butt"><path d="M161.43333,138.5445v-37h37v37z"/><path d="M201.56667,178.45561v-37h37v37z"/><path d="M81.43333,138.5445v-37h37v37z"/><path d="M121.56667,178.45561v-37h37v37z"/><path d="M161.43333,58.5445v-37h37v37z"/><path d="M201.56667,98.45561v-37h37v37z"/><path d="M81.43333,58.5445v-37h37v37z"/><path d="M121.56667,98.45561v-37h37v37z"/><path d="M321.43333,138.5445v-37h37v37z"/><path d="M361.56667,178.45561v-37h37v37z"/><path d="M241.43333,138.5445v-37h37v37z"/><path d="M281.56667,178.45561v-37h37v37z"/><path d="M321.43333,58.5445v-37h37v37z"/><path d="M361.56667,98.45561v-37h37v37z"/><path d="M241.43333,58.5445v-37h37v37z"/><path d="M281.56667,98.45561v-37h37v37z"/><path d="M161.43333,298.54445v-37h37v37z"/><path d="M201.56667,338.45559v-37h37v37z"/><path d="M81.43333,298.54445v-37h37v37z"/><path d="M121.56667,338.45559v-37h37v37z"/><path d="M161.43333,218.5445v-37h37v37z"/><path d="M201.56667,258.45556v-37h37v37z"/><path d="M81.43333,218.5445v-37h37v37z"/><path d="M121.56667,258.45556v-37h37v37z"/><path d="M321.43333,298.54445v-37h37v37z"/><path d="M361.56667,338.45559v-37h37v37z"/><path d="M241.43333,298.54445v-37h37v37z"/><path d="M281.56667,338.45559v-37h37v37z"/><path d="M321.43333,218.5445v-37h37v37z"/><path d="M361.56667,258.45556v-37h37v37z"/><path d="M241.43333,218.5445v-37h37v37z"/><path d="M281.56667,258.45556v-37h37v37z"/></g><g><path d="M70.92484,97.17245c0,0 -0.62643,4.90368 -0.6412,7.71292c-0.00776,1.47758 -2.75783,1.23014 -2.85001,2.7014c-0.13523,2.15844 -0.3911,4.01945 -0.85504,4.73032c-1.55093,2.37642 -6.22382,2.85303 -6.22382,2.85303c0,0 0.32681,-5.40482 -0.11822,-9.05409c-0.2123,-1.74093 -2.45108,-0.87589 -2.98505,-3.57985c-0.72523,-3.67244 0.24651,-10.79158 0.24651,-10.79158" fill="none" stroke="#426a4c" stroke-width="2" stroke-linecap="round"/><path d="M67.06819,92.1731c0,0 0.92614,4.05375 0.0534,7.44552c-0.31603,1.22822 -3.22601,1.50088 -3.17372,2.68875c0.13254,3.01107 -0.2543,6.85414 -0.48617,8.41401c-0.4248,2.85777 -3.67828,4.59156 -3.67828,4.59156c0,0 -3.47406,-2.59537 -4.64802,-4.8304c-0.38981,-0.74213 -2.79696,-1.17092 -2.97638,-2.40498c-0.41473,-2.85243 0.05395,-10.04808 0.05395,-10.04808" fill="none" stroke="#426a4c" stroke-width="2" stroke-linecap="round"/><path d="M64.06858,101.74328c0,0 -2.13886,-0.44579 -2.36122,-1.92387c-0.43432,-2.88695 -0.06703,-14.21689 -0.06703,-14.21689" fill="none" stroke="#426a4c" stroke-width="2" stroke-linecap="round"/><path d="M52.00359,99.77317l-3.79589,-3.97665l3.97665,-3.79589l3.79589,3.97665z" fill="#009060" stroke="none" stroke-width="0" stroke-linecap="butt"/><path d="M57.00294,93.77396l-3.7959,-3.97665l3.97665,-3.7959l3.7959,3.97665z" fill="#009060" stroke="none" stroke-width="0" stroke-linecap="butt"/><path d="M61.85946,86.63203l-3.7959,-3.97665l3.97665,-3.7959l3.7959,3.97665z" fill="#009060" stroke="none" stroke-width="0" stroke-linecap="butt"/><path d="M67.71584,93.05976l-3.7959,-3.97665l3.97665,-3.7959l3.7959,3.97665z" fill="#009060" stroke="none" stroke-width="0" stroke-linecap="butt"/></g><g><path d="M36.31203,199.31037c0,0 -0.2268,3.9768 -0.83351,6.54236c-0.39548,1.67236 -3.17711,1.84148 -3.73733,3.02782c-0.81143,1.71831 1.01764,4.34449 -0.69315,5.17782c-0.11327,0.05517 -1.39906,3.79944 -1.71186,5.24246c-0.51949,2.39651 0.13279,4.24284 0.17245,2.9662c0.03965,-1.27664 0.16612,-2.19349 -0.16349,-3.25495c-0.42521,-1.36932 -2.46047,-4.27515 -2.46047,-4.27515c0,0 -0.56826,-5.98483 0,-7.71328c0.21783,-0.66259 0.80395,-1.16929 1.49626,-1.69696c1.11367,-0.84881 2.50217,-1.75185 3.07458,-3.44523c0.92825,-2.74607 0,-12.42696 0,-12.42696" fill="none" stroke="#426a4c" stroke-width="2" stroke-linecap="round"/><path d="M26.45616,214.73693c0,0 -3.42982,0.15738 -5.05939,-1.86773c-2.70546,-3.36213 -1.51118,-14.41587 -1.51118,-14.41587" fill="none" stroke="#426a4c" stroke-width="2" stroke-linecap="round"/><path d="M31.59835,194.73953c0,0 -4.57337,-0.84876 -5.47169,-1.8162c-0.95509,-1.02856 -0.67036,-8.32533 -0.67036,-8.32533" fill="none" stroke="#426a4c" stroke-width="2" stroke-linecap="round"/><path d="M24.7421,198.31049c0,0 -0.24127,3.43687 -0.50378,4.15281c-0.26123,0.71244 -3.92422,1.70357 -3.92422,1.70357" fill="none" stroke="#426a4c" stroke-width="2" stroke-linecap="round"/><path d="M39.02595,205.88094c0,0 0.01021,4.35823 -1.03896,5.53587c-1.24888,1.40181 -5.96013,2.32025 -5.96013,2.32025" fill="none" stroke="#426a4c" stroke-width="2" stroke-linecap="round"/><path d="M19.6762,201.33974l-3.7959,-3.97665l3.97665,-3.7959l3.7959,3.97665z" fill="#009060" stroke="none" stroke-width="0" stroke-linecap="butt"/><path d="M40.38779,208.19599l-3.7959,-3.97665l3.97665,-3.7959l3.7959,3.97665z" fill="#009060" stroke="none" stroke-width="0" stroke-linecap="butt"/><path d="M26.38961,186.34168l-3.7959,-3.97665l3.97665,-3.7959l3.7959,3.97665z" fill="#009060" stroke="none" stroke-width="0" stroke-linecap="butt"/><path d="M37.10251,201.05406l-3.7959,-3.97665l3.97665,-3.7959l3.7959,3.97665z" fill="#009060" stroke="none" stroke-width="0" stroke-linecap="butt"/></g><g><path d="M446.86616,129.63443c0,0 0.93115,4.36706 -0.68844,5.51542c-1.32746,0.94123 -4.21246,0.59477 -4.59836,1.4157c-2.13368,4.53901 -1.16796,10.76006 -2.33359,11.85049c-1.0306,0.96411 -3.37819,1.07295 -3.37819,1.07295l-0.14284,6.99909c0,0 -0.03155,0.84175 -1.08832,0.11702c-0.39567,-0.27135 -1.17898,0.6581 -1.82898,-0.06241c-0.50936,-0.56461 -0.93686,-2.80392 -1.03185,-3.01199c-0.43878,-0.96115 0.09251,-3.61319 0.09251,-3.61319c0,0 -4.66542,0.23886 -5.85987,-1.25419c-1.42944,-1.7868 -0.85355,-10.88709 -0.85355,-10.88709" fill="none" stroke="#426a4c" stroke-width="2" stroke-linecap="round"/><path d="M440.15274,142.63274c0,0 -3.68825,-0.4769 -3.98141,-2.19078c-0.14299,-0.83594 -0.97977,-5.07283 0.30371,-8.7027c0.53397,-1.51014 3.32477,-1.85218 3.67507,-3.49374c0.70924,-3.32363 -0.14021,-8.18128 -0.14021,-8.18128" fill="none" stroke="#426a4c" stroke-width="2" stroke-linecap="round"/><path d="M425.15469,124.3494c0,0 -0.43104,3.26717 0.46481,5.56361c0.41167,1.05529 3.68909,0.08238 4.28221,1.07207c1.29365,2.15862 0.01432,6.14028 0.32209,7.85538c0.43962,2.4499 1.78714,3.44472 1.78714,4.07794c0,1.84096 0,6.14206 0,6.14206" fill="none" stroke="#426a4c" stroke-width="2" stroke-linecap="round"/><path d="M445.43777,139.2046c0,0 0.42279,6.48064 -0.56867,7.74633c-1.20459,1.53777 -6.0019,1.53818 -6.0019,1.53818" fill="none" stroke="#426a4c" stroke-width="2" stroke-linecap="round"/><path d="M424.94531,140.09128l-3.7959,-3.97665l3.97665,-3.7959l3.7959,3.97665z" fill="#009060" stroke="none" stroke-width="0" stroke-linecap="butt"/><path d="M425.37383,125.37891l-3.7959,-3.97665l3.97665,-3.7959l3.7959,3.97665z" fill="#009060" stroke="none" stroke-width="0" stroke-linecap="butt"/><path d="M440.0862,122.23646l-3.7959,-3.97665l3.97665,-3.7959l3.7959,3.97665z" fill="#009060" stroke="none" stroke-width="0" stroke-linecap="butt"/><path d="M445.20455,140.23412l-3.79589,-3.97665l3.97665,-3.7959l3.7959,3.97665z" fill="#009060" stroke="none" stroke-width="0" stroke-linecap="butt"/></g><g data-paper-data="{&quot;index&quot;:null}"><path d="M461.18589,192.85572c0,0 0.97174,7.11914 0.24651,10.79158c-0.53397,2.70396 -2.77275,1.83892 -2.98505,3.57985c-0.44503,3.64927 -0.11822,9.05409 -0.11822,9.05409c0,0 -4.67289,-0.47661 -6.22382,-2.85303c-0.46394,-0.71087 -0.71981,-2.57188 -0.85504,-4.73032c-0.09218,-1.47126 -2.84225,-1.22382 -2.85001,-2.7014c-0.01477,-2.80924 -0.6412,-7.71292 -0.6412,-7.71292" fill="none" stroke="#426a4c" stroke-width="2" stroke-linecap="round"/><path d="M466.47093,199.1406c0,0 0.46868,7.19565 0.05395,10.04808c-0.17942,1.23406 -2.58657,1.66285 -2.97638,2.40498c-1.17396,2.23503 -4.64802,4.8304 -4.64802,4.8304c0,0 -3.25348,-1.73379 -3.67828,-4.59156c-0.23187,-1.55987 -0.61871,-5.40294 -0.48617,-8.41401c0.05229,-1.18787 -2.85769,-1.46053 -3.17372,-2.68875c-0.87274,-3.39177 0.0534,-7.44552 0.0534,-7.44552" fill="none" stroke="#426a4c" stroke-width="2" stroke-linecap="round"/><path d="M457.04357,186.71364c0,0 0.36729,11.32994 -0.06703,14.21689c-0.22236,1.47808 -2.36122,1.92387 -2.36122,1.92387" fill="none" stroke="#426a4c" stroke-width="2" stroke-linecap="round"/><path d="M462.70366,197.0884l3.79589,-3.97665l3.97665,3.79589l-3.79589,3.97665z" fill="#009060" stroke="none" stroke-width="0" stroke-linecap="butt"/><path d="M457.70431,191.08918l3.7959,-3.97665l3.97665,3.7959l-3.7959,3.97665z" fill="#009060" stroke="none" stroke-width="0" stroke-linecap="butt"/><path d="M452.84779,183.94725l3.7959,-3.97665l3.97665,3.7959l-3.7959,3.97665z" fill="#009060" stroke="none" stroke-width="0" stroke-linecap="butt"/><path d="M446.99141,190.37498l3.7959,-3.97665l3.97665,3.7959l-3.7959,3.97665z" fill="#009060" stroke="none" stroke-width="0" stroke-linecap="butt"/></g><g data-paper-data="{&quot;index&quot;:null}"><path d="M48.3395,283.34339c0,0 -0.92825,9.68089 0,12.42696c0.57241,1.69338 1.96091,2.59642 3.07458,3.44523c0.69231,0.52767 1.27843,1.03437 1.49626,1.69696c0.56826,1.72845 0,7.71328 0,7.71328c0,0 -2.03526,2.90583 -2.46047,4.27515c-0.32961,1.06146 -0.20314,1.97831 -0.16349,3.25495c0.03966,1.27664 0.69194,-0.56969 0.17245,-2.9662c-0.3128,-1.44302 -1.59859,-5.18729 -1.71186,-5.24246c-1.71079,-0.83333 0.11828,-3.45951 -0.69315,-5.17782c-0.56022,-1.18634 -3.34185,-1.35546 -3.73733,-3.02782c-0.60671,-2.56556 -0.83351,-6.54236 -0.83351,-6.54236" fill="none" stroke="#426a4c" stroke-width="2" stroke-linecap="round"/><path d="M59.90942,292.34222c0,0 1.19428,11.05374 -1.51118,14.41587c-1.62957,2.02511 -5.05939,1.86773 -5.05939,1.86773" fill="none" stroke="#426a4c" stroke-width="2" stroke-linecap="round"/><path d="M54.33871,278.48688c0,0 0.28473,7.29677 -0.67036,8.32533c-0.89832,0.96744 -5.47169,1.8162 -5.47169,1.8162" fill="none" stroke="#426a4c" stroke-width="2" stroke-linecap="round"/><path d="M59.48091,298.05575c0,0 -3.66299,-0.99113 -3.92422,-1.70357c-0.26251,-0.71594 -0.50378,-4.15281 -0.50378,-4.15281" fill="none" stroke="#426a4c" stroke-width="2" stroke-linecap="round"/><path d="M47.76815,307.62595c0,0 -4.71125,-0.91844 -5.96013,-2.32025c-1.04917,-1.17764 -1.03896,-5.53587 -1.03896,-5.53587" fill="none" stroke="#426a4c" stroke-width="2" stroke-linecap="round"/><path d="M56.14216,291.43273l3.7959,-3.97665l3.97665,3.7959l-3.7959,3.97665z" fill="#009060" stroke="none" stroke-width="0" stroke-linecap="butt"/><path d="M35.43057,298.28898l3.7959,-3.97665l3.97665,3.7959l-3.7959,3.97665z" fill="#009060" stroke="none" stroke-width="0" stroke-linecap="butt"/><path d="M49.42875,276.43467l3.7959,-3.97665l3.97665,3.7959l-3.7959,3.97665z" fill="#009060" stroke="none" stroke-width="0" stroke-linecap="butt"/><path d="M38.71585,291.14705l3.7959,-3.97665l3.97665,3.7959l-3.7959,3.97665z" fill="#009060" stroke="none" stroke-width="0" stroke-linecap="butt"/></g><g data-paper-data="{&quot;index&quot;:null}"><path d="M439.64034,274.4429c0,0 0.57589,9.10029 -0.85355,10.88709c-1.19445,1.49305 -5.85987,1.25419 -5.85987,1.25419c0,0 0.53129,2.65204 0.09251,3.61319c-0.09499,0.20807 -0.52249,2.44738 -1.03185,3.01199c-0.65,0.72051 -1.43331,-0.20894 -1.82898,0.06241c-1.05677,0.72473 -1.08832,-0.11702 -1.08832,-0.11702l-0.14284,-6.99909c0,0 -2.34759,-0.10884 -3.37819,-1.07295c-1.16563,-1.09043 -0.19991,-7.31148 -2.33359,-11.85049c-0.3859,-0.82093 -3.2709,-0.47447 -4.59836,-1.4157c-1.61959,-1.14836 -0.68844,-5.51542 -0.68844,-5.51542" fill="none" stroke="#426a4c" stroke-width="2" stroke-linecap="round"/><path d="M424.78512,256.73091c0,0 -0.84945,4.85765 -0.14021,8.18128c0.3503,1.64156 3.1411,1.9836 3.67507,3.49374c1.28348,3.62987 0.4467,7.86676 0.30371,8.7027c-0.29316,1.71388 -3.98141,2.19078 -3.98141,2.19078" fill="none" stroke="#426a4c" stroke-width="2" stroke-linecap="round"/><path d="M432.78408,285.72713c0,0 0,-4.3011 0,-6.14206c0,-0.63322 1.34752,-1.62804 1.78714,-4.07794c0.30777,-1.7151 -0.97156,-5.69676 0.32209,-7.85538c0.59312,-0.98969 3.87054,-0.01678 4.28221,-1.07207c0.89585,-2.29644 0.46481,-5.56361 0.46481,-5.56361" fill="none" stroke="#426a4c" stroke-width="2" stroke-linecap="round"/><path d="M425.92782,285.15578c0,0 -4.79731,-0.00041 -6.0019,-1.53818c-0.99146,-1.26569 -0.56867,-7.74633 -0.56867,-7.74633" fill="none" stroke="#426a4c" stroke-width="2" stroke-linecap="round"/><path d="M435.87306,272.96205l3.7959,-3.97665l3.97665,3.7959l-3.7959,3.97665z" fill="#009060" stroke="none" stroke-width="0" stroke-linecap="butt"/><path d="M435.44454,258.24968l3.7959,-3.97665l3.97665,3.7959l-3.7959,3.97665z" fill="#009060" stroke="none" stroke-width="0" stroke-linecap="butt"/><path d="M420.73217,255.10723l3.7959,-3.97665l3.97665,3.7959l-3.7959,3.97665z" fill="#009060" stroke="none" stroke-width="0" stroke-linecap="butt"/><path d="M415.61381,273.10489l3.7959,-3.97665l3.97665,3.7959l-3.79589,3.97665z" fill="#009060" stroke="none" stroke-width="0" stroke-linecap="butt"/></g><path d="M421.38889,174.56602c0,0 -0.4624,9.07489 -1.89301,9.46169c-1.33748,0.36162 -2.82921,-8.98426 -2.82921,-8.98426" fill="none" stroke="#426a4c" stroke-width="3" stroke-linecap="round"/><path d="M16.38889,140.67714c0,0 -0.46239,9.07488 -1.893,9.46168c-1.33749,0.36162 -2.82922,-8.98426 -2.82922,-8.98426" fill="none" stroke="#426b62" stroke-width="3" stroke-linecap="round"/><path d="M258.61111,345.67713c0,0 -0.4624,9.07489 -1.893,9.46169c-1.33749,0.36162 -2.82922,-8.98426 -2.82922,-8.98426" fill="none" stroke="#42686b" stroke-width="3" stroke-linecap="round"/><path d="M470.83333,87.3438c0,0 -0.4624,9.07489 -1.89301,9.46169c-1.33748,0.36162 -2.82921,-8.98426 -2.82921,-8.98426" fill="none" stroke="#42616b" stroke-width="3" stroke-linecap="round"/><path d="M449.72222,319.56602c0,0 -0.4624,9.07489 -1.89301,9.46169c-1.33748,0.36162 -2.82921,-8.98426 -2.82921,-8.98426" fill="none" stroke="#426a4c" stroke-width="3" stroke-linecap="round"/><path d="M388.61111,339.01047c0,0 -0.4624,9.07488 -1.89301,9.46168c-1.33748,0.36162 -2.82921,-8.98426 -2.82921,-8.98426" fill="none" stroke="#426b62" stroke-width="3" stroke-linecap="round"/><path d="M416.38889,50.12158c0,0 -0.4624,9.07488 -1.89301,9.46168c-1.33748,0.36162 -2.82921,-8.98426 -2.82921,-8.98426" fill="none" stroke="#42686b" stroke-width="3" stroke-linecap="round"/><path d="M446.94444,246.78824c0,0 -0.4624,9.07489 -1.893,9.46169c-1.33749,0.36162 -2.82922,-8.98426 -2.82922,-8.98426" fill="none" stroke="#42616b" stroke-width="3" stroke-linecap="round"/><path d="M34.72222,96.23268c0,0 -0.4624,9.07489 -1.89301,9.46169c-1.33748,0.36162 -2.82921,-8.98426 -2.82921,-8.98426" fill="none" stroke="#426a4c" stroke-width="3" stroke-linecap="round"/><path d="M413.05555,226.78824c0,0 -0.4624,9.07489 -1.89301,9.46169c-1.33748,0.36162 -2.82921,-8.98426 -2.82921,-8.98426" fill="none" stroke="#426b62" stroke-width="3" stroke-linecap="round"/><path d="M61.94444,321.78824c0,0 -0.4624,9.07489 -1.89301,9.46169c-1.33748,0.36162 -2.82921,-8.98426 -2.82921,-8.98426" fill="none" stroke="#42686b" stroke-width="3" stroke-linecap="round"/><path d="M60.27778,162.89936c0,0 -0.4624,9.07488 -1.89301,9.46168c-1.33748,0.36162 -2.82921,-8.98426 -2.82921,-8.98426" fill="none" stroke="#42616b" stroke-width="3" stroke-linecap="round"/><path d="M12.50001,244.56603c0,0 -0.4624,9.07488 -1.89301,9.46168c-1.33749,0.36162 -2.82922,-8.98426 -2.82922,-8.98426" fill="none" stroke="#426a4c" stroke-width="3" stroke-linecap="round"/><path d="M24.72222,320.67714c0,0 -0.4624,9.07488 -1.89301,9.46168c-1.33748,0.36162 -2.82921,-8.98426 -2.82921,-8.98426" fill="none" stroke="#426b62" stroke-width="3" stroke-linecap="round"/><path d="M16.38889,50.12158c0,0 -0.4624,9.07488 -1.89301,9.46168c-1.33748,0.36162 -2.82921,-8.98426 -2.82921,-8.98426" fill="none" stroke="#42686b" stroke-width="3" stroke-linecap="round"/><path d="M121.38889,344.56603c0,0 -0.4624,9.07488 -1.893,9.46168c-1.33749,0.36162 -2.82922,-8.98426 -2.82922,-8.98426" fill="none" stroke="#42616b" stroke-width="3" stroke-linecap="round"/><g fill="#2e735f" stroke="#0e5853" stroke-width="1" stroke-linecap="butt"><g><g><g><g><path d="M12.75134,37.10025c-0.53101,-0.8274 -0.14659,-3.26856 0.85861,-5.45248c1.00521,-2.18392 2.25054,-3.28359 2.78156,-2.45618c0.53102,0.8274 0.14659,3.26856 -0.85861,5.45248c-1.00521,2.18392 -2.25054,3.28359 -2.78156,2.45618z"/><path d="M18.62437,38.28149c-1.0837,-2.0529 -1.55757,-4.44023 -1.05841,-5.33224c0.49915,-0.89202 1.78231,0.04906 2.86601,2.10197c1.0837,2.0529 1.55757,4.44023 1.05841,5.33225c-0.49916,0.89202 -1.78231,-0.04906 -2.86601,-2.10196z" data-paper-data="{&quot;index&quot;:null}"/><path d="M12.80074,46.46389c-0.53101,-0.8274 -0.14661,-3.26856 0.8586,-5.45248c1.00521,-2.18392 2.25055,-3.28359 2.78157,-2.45619c0.53102,0.8274 0.14661,3.26857 -0.8586,5.45249c-1.00521,2.18392 -2.25055,3.28359 -2.78157,2.45618z"/><path d="M18.67378,47.64513c-1.0837,-2.0529 -1.55757,-4.44023 -1.05842,-5.33224c0.49916,-0.89202 1.78231,0.04907 2.86601,2.10197c1.0837,2.0529 1.55757,4.44022 1.05842,5.33224c-0.49916,0.89202 -1.78231,-0.04906 -2.86601,-2.10196z" data-paper-data="{&quot;index&quot;:null}"/></g><g><path d="M12.75134,55.85026c-0.53101,-0.8274 -0.14659,-3.26856 0.85861,-5.45248c1.00521,-2.18392 2.25054,-3.28359 2.78156,-2.45618c0.53102,0.8274 0.14659,3.26856 -0.85861,5.45248c-1.00521,2.18392 -2.25054,3.28359 -2.78156,2.45618z"/><path d="M18.62437,57.03149c-1.0837,-2.0529 -1.55757,-4.44023 -1.05841,-5.33224c0.49915,-0.89202 1.78231,0.04906 2.86601,2.10197c1.0837,2.0529 1.55757,4.44023 1.05841,5.33224c-0.49916,0.89202 -1.78231,-0.04906 -2.86601,-2.10196z" data-paper-data="{&quot;index&quot;:null}"/><path d="M12.80074,65.21389c-0.53101,-0.8274 -0.14661,-3.26856 0.8586,-5.45248c1.00521,-2.18392 2.25055,-3.28359 2.78157,-2.45618c0.53102,0.82741 0.14661,3.26857 -0.8586,5.45249c-1.00521,2.18392 -2.25055,3.28359 -2.78157,2.45618z"/><path d="M18.67378,66.39512c-1.0837,-2.0529 -1.55757,-4.44023 -1.05842,-5.33224c0.49916,-0.89202 1.78231,0.04907 2.86601,2.10197c1.0837,2.0529 1.55757,4.44022 1.05842,5.33224c-0.49916,0.89202 -1.78231,-0.04906 -2.86601,-2.10196z" data-paper-data="{&quot;index&quot;:null}"/></g></g><g><g><path d="M12.75134,-0.52474c-0.53101,-0.8274 -0.14659,-3.26856 0.85861,-5.45248c1.00521,-2.18392 2.25054,-3.28359 2.78156,-2.45618c0.53102,0.82741 0.14659,3.26856 -0.85861,5.45248c-1.00521,2.18392 -2.25054,3.28359 -2.78156,2.45619z"/><path d="M18.62437,0.65649c-1.0837,-2.0529 -1.55757,-4.44023 -1.05841,-5.33224c0.49915,-0.89201 1.78231,0.04906 2.86601,2.10197c1.0837,2.0529 1.55757,4.44023 1.05841,5.33225c-0.49916,0.89202 -1.78231,-0.04907 -2.86601,-2.10196z" data-paper-data="{&quot;index&quot;:null}"/><path d="M12.80074,8.83889c-0.53101,-0.82741 -0.14661,-3.26856 0.8586,-5.45248c1.00521,-2.18392 2.25055,-3.28359 2.78157,-2.45619c0.53102,0.8274 0.14661,3.26857 -0.8586,5.45249c-1.00521,2.18392 -2.25055,3.28358 -2.78157,2.45618z"/><path d="M18.67378,10.02013c-1.0837,-2.0529 -1.55757,-4.44023 -1.05842,-5.33224c0.49916,-0.89202 1.78231,0.04907 2.86601,2.10197c1.0837,2.0529 1.55757,4.44023 1.05842,5.33224c-0.49916,0.89202 -1.78231,-0.04906 -2.86601,-2.10196z" data-paper-data="{&quot;index&quot;:null}"/></g><g><path d="M12.75134,18.22526c-0.53101,-0.8274 -0.14659,-3.26856 0.85861,-5.45248c1.00521,-2.18392 2.25054,-3.28359 2.78156,-2.45619c0.53102,0.8274 0.14659,3.26856 -0.85861,5.45248c-1.00521,2.18392 -2.25054,3.28359 -2.78156,2.45619z"/><path d="M18.62437,19.40649c-1.0837,-2.0529 -1.55757,-4.44023 -1.05841,-5.33224c0.49915,-0.89202 1.78231,0.04906 2.86601,2.10197c1.0837,2.0529 1.55757,4.44023 1.05841,5.33224c-0.49916,0.89202 -1.78231,-0.04906 -2.86601,-2.10196z" data-paper-data="{&quot;index&quot;:null}"/><path d="M12.80074,27.58889c-0.53101,-0.8274 -0.14661,-3.26856 0.8586,-5.45248c1.00521,-2.18392 2.25055,-3.28359 2.78157,-2.45618c0.53102,0.8274 0.14661,3.26856 -0.8586,5.45248c-1.00521,2.18392 -2.25055,3.28359 -2.78157,2.45618z"/><path d="M18.67378,28.77012c-1.0837,-2.0529 -1.55757,-4.44023 -1.05842,-5.33224c0.49916,-0.89202 1.78231,0.04907 2.86601,2.10197c1.0837,2.0529 1.55757,4.44022 1.05842,5.33224c-0.49916,0.89202 -1.78231,-0.04906 -2.86601,-2.10196z" data-paper-data="{&quot;index&quot;:null}"/></g></g></g><g><g><g><path d="M12.75134,112.16276c-0.53101,-0.8274 -0.14659,-3.26856 0.85861,-5.45248c1.00521,-2.18392 2.25054,-3.28359 2.78156,-2.45619c0.53102,0.8274 0.14659,3.26856 -0.85861,5.45248c-1.00521,2.18392 -2.25054,3.28359 -2.78156,2.45619z"/><path d="M18.62437,113.34399c-1.0837,-2.0529 -1.55757,-4.44023 -1.05841,-5.33224c0.49915,-0.89202 1.78231,0.04906 2.86601,2.10196c1.0837,2.0529 1.55757,4.44023 1.05841,5.33225c-0.49916,0.89202 -1.78231,-0.04906 -2.86601,-2.10196z" data-paper-data="{&quot;index&quot;:null}"/><path d="M12.80074,121.52639c-0.53101,-0.8274 -0.14661,-3.26856 0.8586,-5.45248c1.00521,-2.18392 2.25055,-3.28359 2.78157,-2.45618c0.53102,0.8274 0.14661,3.26856 -0.8586,5.45248c-1.00521,2.18392 -2.25055,3.28358 -2.78157,2.45618z"/><path d="M18.67378,122.70763c-1.0837,-2.0529 -1.55757,-4.44023 -1.05842,-5.33224c0.49916,-0.89202 1.78231,0.04907 2.86601,2.10197c1.0837,2.0529 1.55757,4.44023 1.05842,5.33224c-0.49916,0.89201 -1.78231,-0.04907 -2.86601,-2.10197z" data-paper-data="{&quot;index&quot;:null}"/></g><g><path d="M12.75134,130.91276c-0.53101,-0.8274 -0.14659,-3.26856 0.85861,-5.45248c1.00521,-2.18392 2.25054,-3.28359 2.78156,-2.45619c0.53102,0.8274 0.14659,3.26856 -0.85861,5.45248c-1.00521,2.18392 -2.25054,3.28359 -2.78156,2.45619z"/><path d="M18.62437,132.09399c-1.0837,-2.0529 -1.55757,-4.44023 -1.05841,-5.33224c0.49915,-0.89201 1.78231,0.04907 2.86601,2.10197c1.0837,2.0529 1.55757,4.44023 1.05841,5.33225c-0.49916,0.89201 -1.78231,-0.04907 -2.86601,-2.10197z" data-paper-data="{&quot;index&quot;:null}"/><path d="M12.80074,140.27639c-0.53101,-0.8274 -0.14661,-3.26856 0.8586,-5.45248c1.00521,-2.18392 2.25055,-3.28359 2.78157,-2.45619c0.53102,0.8274 0.14661,3.26856 -0.8586,5.45248c-1.00521,2.18392 -2.25055,3.28358 -2.78157,2.45618z"/><path d="M18.67378,141.45763c-1.0837,-2.0529 -1.55757,-4.44023 -1.05842,-5.33224c0.49916,-0.89201 1.78231,0.04907 2.86601,2.10197c1.0837,2.0529 1.55757,4.44023 1.05842,5.33224c-0.49916,0.89201 -1.78231,-0.04907 -2.86601,-2.10197z" data-paper-data="{&quot;index&quot;:null}"/></g></g><g><g><path d="M12.75134,74.53776c-0.53101,-0.8274 -0.14659,-3.26856 0.85861,-5.45248c1.00521,-2.18392 2.25054,-3.28359 2.78156,-2.45619c0.53102,0.8274 0.14659,3.26856 -0.85861,5.45248c-1.00521,2.18392 -2.25054,3.28359 -2.78156,2.45619z"/><path d="M18.62437,75.71899c-1.0837,-2.0529 -1.55757,-4.44023 -1.05841,-5.33224c0.49915,-0.89202 1.78231,0.04906 2.86601,2.10196c1.0837,2.0529 1.55757,4.44023 1.05841,5.33225c-0.49916,0.89202 -1.78231,-0.04906 -2.86601,-2.10196z" data-paper-data="{&quot;index&quot;:null}"/><path d="M12.80074,83.90139c-0.53101,-0.8274 -0.14661,-3.26856 0.8586,-5.45248c1.00521,-2.18392 2.25055,-3.28359 2.78157,-2.45618c0.53102,0.8274 0.14661,3.26856 -0.8586,5.45248c-1.00521,2.18392 -2.25055,3.28359 -2.78157,2.45618z"/><path d="M18.67378,85.08263c-1.0837,-2.0529 -1.55757,-4.44023 -1.05842,-5.33224c0.49916,-0.89202 1.78231,0.04907 2.86601,2.10197c1.0837,2.0529 1.55757,4.44022 1.05842,5.33224c-0.49916,0.89202 -1.78231,-0.04906 -2.86601,-2.10196z" data-paper-data="{&quot;index&quot;:null}"/></g><g><path d="M12.75134,93.28776c-0.53101,-0.8274 -0.14659,-3.26856 0.85861,-5.45248c1.00521,-2.18392 2.25054,-3.28359 2.78156,-2.45619c0.53102,0.8274 0.14659,3.26856 -0.85861,5.45248c-1.00521,2.18392 -2.25054,3.28359 -2.78156,2.45619z"/><path d="M18.62437,94.46899c-1.0837,-2.0529 -1.55757,-4.44023 -1.05841,-5.33224c0.49915,-0.89202 1.78231,0.04906 2.86601,2.10196c1.0837,2.0529 1.55757,4.44023 1.05841,5.33225c-0.49916,0.89202 -1.78231,-0.04906 -2.86601,-2.10196z" data-paper-data="{&quot;index&quot;:null}"/><path d="M12.80074,102.65139c-0.53101,-0.8274 -0.14661,-3.26856 0.8586,-5.45248c1.00521,-2.18392 2.25055,-3.28359 2.78157,-2.45618c0.53102,0.8274 0.14661,3.26856 -0.8586,5.45248c-1.00521,2.18392 -2.25055,3.28359 -2.78157,2.45618z"/><path d="M18.67378,103.83263c-1.0837,-2.0529 -1.55757,-4.44023 -1.05842,-5.33224c0.49916,-0.89202 1.78231,0.04907 2.86601,2.10197c1.0837,2.0529 1.55757,4.44022 1.05842,5.33224c-0.49916,0.89202 -1.78231,-0.04906 -2.86601,-2.10196z" data-paper-data="{&quot;index&quot;:null}"/></g></g></g></g><g data-paper-data="{&quot;index&quot;:null}"><g><path d="M77.3337,2.01908c-1.0052,2.18392 -2.25056,3.28358 -2.78156,2.45618c-0.53101,-0.82741 -0.1466,-3.26856 0.8586,-5.45248c1.0052,-2.18393 2.25056,-3.28359 2.78156,-2.45619c0.53101,0.82741 0.1466,3.26856 -0.8586,5.45248z"/><path d="M83.29123,7.75846c-0.49916,0.89201 -1.78231,-0.04907 -2.86601,-2.10197c-1.0837,-2.0529 -1.55758,-4.44023 -1.05842,-5.33224c0.49916,-0.89202 1.78231,0.04906 2.86601,2.10196c1.0837,2.0529 1.55757,4.44023 1.05841,5.33225z" data-paper-data="{&quot;index&quot;:null}"/><path d="M77.38316,11.38271c-1.00521,2.18392 -2.25056,3.28358 -2.78157,2.45618c-0.53101,-0.8274 -0.1466,-3.26856 0.8586,-5.45248c1.0052,-2.18392 2.25056,-3.28359 2.78156,-2.45619c0.531,0.82741 0.1466,3.26857 -0.8586,5.45249z"/><path d="M83.34063,17.12207c-0.49916,0.89202 -1.78231,-0.04906 -2.86601,-2.10196c-1.0837,-2.0529 -1.55757,-4.44023 -1.05842,-5.33225c0.49914,-0.89202 1.78231,0.04907 2.86601,2.10197c1.0837,2.0529 1.55757,4.44023 1.05841,5.33224z" data-paper-data="{&quot;index&quot;:null}"/></g><g><path d="M74.55218,23.22526c-0.53101,-0.82741 -0.1466,-3.26856 0.8586,-5.45248c1.0052,-2.18393 2.25056,-3.28359 2.78156,-2.45619c0.53101,0.82741 0.1466,3.26856 -0.8586,5.45248c-1.0052,2.18392 -2.25056,3.28359 -2.78156,2.45619z"/><path d="M83.29123,26.50846c-0.49916,0.89201 -1.78231,-0.04907 -2.86601,-2.10197c-1.0837,-2.0529 -1.55758,-4.44023 -1.05842,-5.33224c0.49916,-0.89202 1.78231,0.04906 2.86601,2.10196c1.0837,2.0529 1.55757,4.44023 1.05841,5.33225z" data-paper-data="{&quot;index&quot;:null}"/><path d="M77.38316,30.13271c-1.00521,2.18392 -2.25056,3.28358 -2.78157,2.45618c-0.53101,-0.8274 -0.1466,-3.26856 0.8586,-5.45248c1.0052,-2.18392 2.25056,-3.28359 2.78156,-2.45619c0.531,0.82741 0.1466,3.26857 -0.8586,5.45249z"/><path d="M83.34063,35.87209c-0.49916,0.89202 -1.78231,-0.04906 -2.86601,-2.10196c-1.0837,-2.0529 -1.55757,-4.44023 -1.05842,-5.33225c0.49914,-0.89202 1.78231,0.04907 2.86601,2.10197c1.0837,2.0529 1.55757,4.44023 1.05841,5.33224z" data-paper-data="{&quot;index&quot;:null}"/></g></g><g data-paper-data="{&quot;index&quot;:null}"><g><g><g><path d="M459.46714,38.64406c-1.0052,-2.18392 -1.38962,-4.62508 -0.85861,-5.45248c0.531,-0.8274 1.77636,0.27226 2.78156,2.45618c1.0052,2.18392 1.38962,4.62508 0.85861,5.45248c-0.531,0.8274 -1.77636,-0.27226 -2.78156,-2.45618z"/><path d="M453.50968,44.38346c-0.49915,-0.89202 -0.02529,-3.27934 1.05841,-5.33224c1.0837,-2.0529 2.36686,-2.99398 2.86601,-2.10196c0.49915,0.89202 0.02528,3.27934 -1.05842,5.33225c-1.0837,2.0529 -2.36685,2.99398 -2.86601,2.10197z" data-paper-data="{&quot;index&quot;:null}"/><path d="M459.41774,48.00771c-1.0052,-2.18392 -1.3896,-4.62508 -0.8586,-5.45249c0.531,-0.8274 1.77636,0.27227 2.78156,2.45619c1.0052,2.18392 1.38962,4.62508 0.8586,5.45248c-0.531,0.8274 -1.77636,-0.27226 -2.78157,-2.45618z"/><path d="M453.46025,53.74709c-0.49915,-0.89202 -0.02528,-3.27934 1.05842,-5.33224c1.0837,-2.0529 2.36686,-2.99399 2.86601,-2.10197c0.49915,0.89202 0.02528,3.27934 -1.05842,5.33225c-1.0837,2.0529 -2.36685,2.99398 -2.86601,2.10197z" data-paper-data="{&quot;index&quot;:null}"/></g><g><path d="M459.46714,57.39407c-1.0052,-2.18392 -1.38962,-4.62507 -0.85861,-5.45248c0.531,-0.8274 1.77636,0.27227 2.78156,2.45619c1.0052,2.18392 1.38962,4.62507 0.85861,5.45248c-0.531,0.8274 -1.77636,-0.27227 -2.78156,-2.45619z"/><path d="M453.50968,63.13345c-0.49915,-0.89202 -0.02529,-3.27935 1.05841,-5.33224c1.0837,-2.0529 2.36686,-2.99398 2.86601,-2.10196c0.49915,0.89202 0.02528,3.27935 -1.05842,5.33225c-1.0837,2.0529 -2.36685,2.99398 -2.86601,2.10196z" data-paper-data="{&quot;index&quot;:null}"/><path d="M459.41774,66.75771c-1.0052,-2.18392 -1.3896,-4.62508 -0.8586,-5.45248c0.531,-0.8274 1.77636,0.27226 2.78156,2.45618c1.0052,2.18392 1.38962,4.62508 0.8586,5.45248c-0.531,0.8274 -1.77636,-0.27226 -2.78157,-2.45618z"/><path d="M453.46025,72.49707c-0.49915,-0.89202 -0.02528,-3.27934 1.05842,-5.33224c1.0837,-2.0529 2.36686,-2.99398 2.86601,-2.10197c0.49915,0.89202 0.02528,3.27935 -1.05842,5.33225c-1.0837,2.0529 -2.36685,2.99398 -2.86601,2.10196z" data-paper-data="{&quot;index&quot;:null}"/></g></g><g><g><path d="M459.46714,1.01907c-1.0052,-2.18392 -1.38962,-4.62507 -0.85861,-5.45248c0.531,-0.8274 1.77636,0.27226 2.78156,2.45618c1.0052,2.18392 1.38962,4.62507 0.85861,5.45248c-0.531,0.82741 -1.77636,-0.27226 -2.78156,-2.45618z"/><path d="M453.50968,6.75845c-0.49915,-0.89202 -0.02529,-3.27934 1.05841,-5.33224c1.0837,-2.0529 2.36686,-2.99398 2.86601,-2.10196c0.49915,0.89202 0.02528,3.27935 -1.05842,5.33225c-1.0837,2.0529 -2.36685,2.99398 -2.86601,2.10196z" data-paper-data="{&quot;index&quot;:null}"/><path d="M459.41774,10.38271c-1.0052,-2.18392 -1.3896,-4.62508 -0.8586,-5.45248c0.531,-0.82741 1.77636,0.27226 2.78156,2.45618c1.0052,2.18392 1.38962,4.62508 0.8586,5.45248c-0.531,0.8274 -1.77636,-0.27226 -2.78157,-2.45618z"/><path d="M453.46025,16.12207c-0.49915,-0.89202 -0.02528,-3.27934 1.05842,-5.33224c1.0837,-2.0529 2.36686,-2.99399 2.86601,-2.10197c0.49915,0.89202 0.02528,3.27934 -1.05842,5.33225c-1.0837,2.0529 -2.36685,2.99398 -2.86601,2.10197z" data-paper-data="{&quot;index&quot;:null}"/></g><g><path d="M459.46714,19.76907c-1.0052,-2.18392 -1.38962,-4.62508 -0.85861,-5.45248c0.531,-0.8274 1.77636,0.27227 2.78156,2.45619c1.0052,2.18392 1.38962,4.62508 0.85861,5.45248c-0.531,0.8274 -1.77636,-0.27227 -2.78156,-2.45619z"/><path d="M453.50968,25.50846c-0.49915,-0.89202 -0.02529,-3.27934 1.05841,-5.33224c1.0837,-2.0529 2.36686,-2.99398 2.86601,-2.10196c0.49915,0.89202 0.02528,3.27934 -1.05842,5.33225c-1.0837,2.0529 -2.36685,2.99398 -2.86601,2.10197z" data-paper-data="{&quot;index&quot;:null}"/><path d="M459.41774,29.13271c-1.0052,-2.18392 -1.3896,-4.62508 -0.8586,-5.45249c0.531,-0.8274 1.77636,0.27227 2.78156,2.45619c1.0052,2.18392 1.38962,4.62508 0.8586,5.45248c-0.531,0.8274 -1.77636,-0.27226 -2.78157,-2.45618z"/><path d="M453.46025,34.87209c-0.49915,-0.89202 -0.02528,-3.27934 1.05842,-5.33224c1.0837,-2.0529 2.36686,-2.99399 2.86601,-2.10197c0.49915,0.89202 0.02528,3.27934 -1.05842,5.33225c-1.0837,2.0529 -2.36685,2.99398 -2.86601,2.10197z" data-paper-data="{&quot;index&quot;:null}"/></g></g></g><g><g><g><path d="M459.46714,113.70657c-1.0052,-2.18392 -1.38962,-4.62507 -0.85861,-5.45248c0.531,-0.8274 1.77636,0.27227 2.78156,2.45619c1.0052,2.18392 1.38962,4.62507 0.85861,5.45248c-0.531,0.8274 -1.77636,-0.27227 -2.78156,-2.45619z"/><path d="M453.50968,119.44596c-0.49915,-0.89201 -0.02529,-3.27935 1.05841,-5.33224c1.0837,-2.0529 2.36687,-2.99398 2.86601,-2.10196c0.49915,0.89202 0.02528,3.27935 -1.05842,5.33225c-1.0837,2.0529 -2.36685,2.99398 -2.86601,2.10196z" data-paper-data="{&quot;index&quot;:null}"/><path d="M459.41774,123.07021c-1.0052,-2.18392 -1.3896,-4.62508 -0.8586,-5.45248c0.531,-0.8274 1.77636,0.27227 2.78156,2.45619c1.0052,2.18392 1.38962,4.62507 0.8586,5.45248c-0.531,0.8274 -1.77636,-0.27226 -2.78157,-2.45618z"/><path d="M453.46025,128.80959c-0.49915,-0.89201 -0.02528,-3.27934 1.05842,-5.33224c1.0837,-2.0529 2.36686,-2.99398 2.86601,-2.10197c0.49915,0.89201 0.02528,3.27935 -1.05842,5.33225c-1.0837,2.0529 -2.36685,2.99398 -2.86601,2.10197z" data-paper-data="{&quot;index&quot;:null}"/></g><g><path d="M459.46714,132.45657c-1.0052,-2.18392 -1.38962,-4.62508 -0.85861,-5.45248c0.531,-0.8274 1.77636,0.27227 2.78156,2.45619c1.0052,2.18392 1.38962,4.62508 0.85861,5.45248c-0.531,0.8274 -1.77636,-0.27227 -2.78156,-2.45619z"/><path d="M453.50968,138.19596c-0.49915,-0.89201 -0.02529,-3.27935 1.05841,-5.33224c1.0837,-2.0529 2.36687,-2.99398 2.86601,-2.10197c0.49915,0.89201 0.02528,3.27935 -1.05842,5.33225c-1.0837,2.0529 -2.36685,2.99398 -2.86601,2.10197z" data-paper-data="{&quot;index&quot;:null}"/><path d="M459.41774,141.8202c-1.0052,-2.18392 -1.3896,-4.62508 -0.8586,-5.45248c0.531,-0.8274 1.77636,0.27227 2.78156,2.45619c1.0052,2.18392 1.38962,4.62507 0.8586,5.45248c-0.531,0.8274 -1.77636,-0.27226 -2.78157,-2.45618z"/><path d="M453.46025,147.55959c-0.49915,-0.89201 -0.02528,-3.27934 1.05842,-5.33224c1.0837,-2.0529 2.36686,-2.99398 2.86601,-2.10197c0.49915,0.89201 0.02528,3.27935 -1.05842,5.33225c-1.0837,2.0529 -2.36685,2.99398 -2.86601,2.10197z" data-paper-data="{&quot;index&quot;:null}"/></g></g><g><g><path d="M459.46714,76.08155c-1.0052,-2.18392 -1.38962,-4.62507 -0.85861,-5.45248c0.531,-0.8274 1.77636,0.27227 2.78156,2.45619c1.0052,2.18392 1.38962,4.62507 0.85861,5.45248c-0.531,0.8274 -1.77636,-0.27227 -2.78156,-2.45619z"/><path d="M453.50968,81.82094c-0.49915,-0.89202 -0.02529,-3.27935 1.05841,-5.33224c1.0837,-2.0529 2.36687,-2.99398 2.86601,-2.10196c0.49915,0.89202 0.02528,3.27935 -1.05842,5.33225c-1.0837,2.0529 -2.36685,2.99398 -2.86601,2.10196z" data-paper-data="{&quot;index&quot;:null}"/><path d="M459.41774,85.44521c-1.0052,-2.18392 -1.3896,-4.62508 -0.8586,-5.45248c0.531,-0.8274 1.77636,0.27226 2.78156,2.45618c1.0052,2.18392 1.38962,4.62508 0.8586,5.45248c-0.531,0.8274 -1.77636,-0.27226 -2.78157,-2.45618z"/><path d="M453.46025,91.18459c-0.49915,-0.89202 -0.02528,-3.27934 1.05842,-5.33224c1.0837,-2.0529 2.36686,-2.99398 2.86601,-2.10197c0.49915,0.89202 0.02528,3.27935 -1.05842,5.33225c-1.0837,2.0529 -2.36685,2.99398 -2.86601,2.10196z" data-paper-data="{&quot;index&quot;:null}"/></g><g><path d="M459.46714,94.83157c-1.0052,-2.18392 -1.38962,-4.62507 -0.85861,-5.45248c0.531,-0.8274 1.77636,0.27227 2.78156,2.45619c1.0052,2.18392 1.38962,4.62507 0.85861,5.45248c-0.531,0.8274 -1.77636,-0.27227 -2.78156,-2.45619z"/><path d="M453.50968,100.57096c-0.49915,-0.89202 -0.02529,-3.27935 1.05841,-5.33224c1.0837,-2.0529 2.36687,-2.99398 2.86601,-2.10196c0.49915,0.89202 0.02528,3.27935 -1.05842,5.33225c-1.0837,2.0529 -2.36685,2.99398 -2.86601,2.10196z" data-paper-data="{&quot;index&quot;:null}"/><path d="M459.41774,104.19521c-1.0052,-2.18392 -1.3896,-4.62508 -0.8586,-5.45248c0.531,-0.8274 1.77636,0.27226 2.78156,2.45618c1.0052,2.18392 1.38962,4.62508 0.8586,5.45248c-0.531,0.8274 -1.77636,-0.27226 -2.78157,-2.45618z"/><path d="M453.46025,109.93459c-0.49915,-0.89202 -0.02528,-3.27934 1.05842,-5.33224c1.0837,-2.0529 2.36686,-2.99398 2.86601,-2.10197c0.49915,0.89202 0.02528,3.27935 -1.05842,5.33225c-1.0837,2.0529 -2.36685,2.99398 -2.86601,2.10196z" data-paper-data="{&quot;index&quot;:null}"/></g></g></g></g><g><g><path d="M427.92927,4.64407c-1.0052,-2.18392 -1.38962,-4.62507 -0.8586,-5.45248c0.531,-0.8274 1.77636,0.27226 2.78156,2.45619c1.0052,2.18392 1.38962,4.62508 0.8586,5.45248c-0.531,0.82741 -1.77636,-0.27226 -2.78156,-2.45618z"/><path d="M421.97184,10.38346c-0.49915,-0.89201 -0.02529,-3.27934 1.05841,-5.33224c1.0837,-2.0529 2.36686,-2.99398 2.86601,-2.10197c0.49915,0.89202 0.02528,3.27935 -1.05842,5.33225c-1.0837,2.0529 -2.36686,2.99398 -2.86601,2.10197z" data-paper-data="{&quot;index&quot;:null}"/><path d="M427.8799,14.00771c-1.0052,-2.18392 -1.38961,-4.62508 -0.85861,-5.45248c0.531,-0.82741 1.77636,0.27226 2.78156,2.45619c1.0052,2.18392 1.38962,4.62507 0.85861,5.45248c-0.531,0.82741 -1.77636,-0.27226 -2.78157,-2.45618z"/><path d="M421.92243,19.74707c-0.49915,-0.89202 -0.02529,-3.27934 1.05841,-5.33224c1.0837,-2.0529 2.36686,-2.99398 2.86601,-2.10197c0.49915,0.89201 0.02528,3.27934 -1.05842,5.33225c-1.0837,2.0529 -2.36685,2.99398 -2.86601,2.10197z" data-paper-data="{&quot;index&quot;:null}"/></g><g><path d="M427.92927,23.39407c-1.0052,-2.18392 -1.38962,-4.62507 -0.8586,-5.45248c0.531,-0.82741 1.77636,0.27226 2.78156,2.45618c1.0052,2.18392 1.38962,4.62508 0.8586,5.45248c-0.531,0.8274 -1.77636,-0.27227 -2.78156,-2.45619z"/><path d="M421.97184,29.13346c-0.49915,-0.89202 -0.02529,-3.27934 1.05841,-5.33224c1.0837,-2.0529 2.36686,-2.99398 2.86601,-2.10196c0.49915,0.89202 0.02528,3.27934 -1.05842,5.33224c-1.0837,2.0529 -2.36686,2.99398 -2.86601,2.10197z" data-paper-data="{&quot;index&quot;:null}"/><path d="M427.8799,32.75771c-1.0052,-2.18392 -1.38961,-4.62508 -0.85861,-5.45248c0.531,-0.8274 1.77636,0.27226 2.78156,2.45618c1.0052,2.18392 1.38962,4.62508 0.85861,5.45248c-0.531,0.8274 -1.77636,-0.27226 -2.78157,-2.45618z"/><path d="M421.92243,38.49709c-0.49915,-0.89202 -0.02529,-3.27934 1.05841,-5.33224c1.0837,-2.0529 2.36686,-2.99399 2.86601,-2.10197c0.49915,0.89202 0.02528,3.27934 -1.05842,5.33225c-1.0837,2.0529 -2.36685,2.99398 -2.86601,2.10196z" data-paper-data="{&quot;index&quot;:null}"/></g></g><g data-paper-data="{&quot;index&quot;:null}"><g><path d="M401.2321,-1.98094c-1.0052,-2.18392 -1.38961,-4.62508 -0.8586,-5.45248c0.531,-0.8274 1.77636,0.27227 2.78156,2.45619c1.0052,2.18392 1.3896,4.62508 0.8586,5.45248c-0.531,0.8274 -1.77636,-0.27227 -2.78156,-2.45619z"/><path d="M398.14065,1.65648c-1.0837,2.05291 -2.36686,2.99399 -2.86601,2.10197c-0.49915,-0.89201 -0.02529,-3.27934 1.05841,-5.33224c1.0837,-2.0529 2.36686,-2.99398 2.86601,-2.10197c0.49915,0.89202 0.02528,3.27935 -1.05842,5.33225z" data-paper-data="{&quot;index&quot;:null}"/><path d="M403.96426,9.8389c-0.53102,0.82741 -1.77637,-0.27226 -2.78157,-2.45618c-1.00521,-2.18392 -1.3896,-4.62509 -0.8586,-5.45249c0.531,-0.8274 1.77636,0.27227 2.78156,2.45619c1.0052,2.18392 1.38961,4.62508 0.8586,5.45248z"/><path d="M398.09123,11.02013c-1.0837,2.0529 -2.36686,2.99398 -2.86601,2.10196c-0.49915,-0.89202 -0.02528,-3.27934 1.05842,-5.33224c1.08369,-2.0529 2.36685,-2.99398 2.86601,-2.10197c0.49915,0.89202 0.02528,3.27935 -1.05842,5.33225z" data-paper-data="{&quot;index&quot;:null}"/></g><g><path d="M401.2321,16.76907c-1.0052,-2.18392 -1.38961,-4.62508 -0.8586,-5.45248c0.531,-0.8274 1.77636,0.27227 2.78156,2.45619c1.0052,2.18392 1.3896,4.62508 0.8586,5.45248c-0.531,0.8274 -1.77636,-0.27227 -2.78156,-2.45619z"/><path d="M398.14065,20.40649c-1.0837,2.05291 -2.36686,2.99399 -2.86601,2.10197c-0.49915,-0.89201 -0.02529,-3.27934 1.05841,-5.33224c1.0837,-2.0529 2.36686,-2.99398 2.86601,-2.10197c0.49915,0.89202 0.02528,3.27935 -1.05842,5.33225z" data-paper-data="{&quot;index&quot;:null}"/><path d="M403.96426,28.5889c-0.53102,0.82741 -1.77637,-0.27226 -2.78157,-2.45618c-1.00521,-2.18392 -1.3896,-4.62509 -0.8586,-5.45249c0.531,-0.8274 1.77636,0.27227 2.78156,2.45619c1.0052,2.18392 1.38961,4.62508 0.8586,5.45248z"/><path d="M398.09123,29.77014c-1.0837,2.0529 -2.36686,2.99398 -2.86601,2.10196c-0.49915,-0.89202 -0.02528,-3.27934 1.05842,-5.33224c1.08369,-2.0529 2.36685,-2.99398 2.86601,-2.10197c0.49915,0.89202 0.02528,3.27935 -1.05842,5.33225z" data-paper-data="{&quot;index&quot;:null}"/></g></g><g><g><path d="M427.92927,79.70655c-1.0052,-2.18392 -1.38962,-4.62507 -0.8586,-5.45248c0.531,-0.8274 1.77636,0.27227 2.78156,2.45619c1.0052,2.18392 1.38962,4.62507 0.8586,5.45248c-0.531,0.8274 -1.77636,-0.27227 -2.78156,-2.45619z"/><path d="M421.97184,85.44595c-0.49915,-0.89202 -0.02529,-3.27935 1.05841,-5.33224c1.0837,-2.0529 2.36687,-2.99398 2.86601,-2.10196c0.49915,0.89202 0.02528,3.27935 -1.05842,5.33225c-1.0837,2.0529 -2.36686,2.99398 -2.86601,2.10196z" data-paper-data="{&quot;index&quot;:null}"/><path d="M427.8799,89.07021c-1.0052,-2.18392 -1.38961,-4.62508 -0.85861,-5.45248c0.531,-0.8274 1.77636,0.27226 2.78156,2.45618c1.0052,2.18392 1.38962,4.62508 0.85861,5.45248c-0.531,0.8274 -1.77636,-0.27226 -2.78157,-2.45618z"/><path d="M421.92243,94.80959c-0.49915,-0.89202 -0.02529,-3.27934 1.05841,-5.33224c1.0837,-2.0529 2.36686,-2.99398 2.86601,-2.10197c0.49915,0.89202 0.02528,3.27935 -1.05842,5.33225c-1.0837,2.0529 -2.36685,2.99398 -2.86601,2.10196z" data-paper-data="{&quot;index&quot;:null}"/></g><g><path d="M427.92927,98.45657c-1.0052,-2.18392 -1.38962,-4.62507 -0.8586,-5.45248c0.531,-0.8274 1.77636,0.27227 2.78156,2.45619c1.0052,2.18392 1.38962,4.62507 0.8586,5.45248c-0.531,0.8274 -1.77636,-0.27227 -2.78156,-2.45619z"/><path d="M421.97184,104.19596c-0.49915,-0.89202 -0.02529,-3.27935 1.05841,-5.33224c1.0837,-2.0529 2.36687,-2.99398 2.86601,-2.10196c0.49915,0.89202 0.02528,3.27935 -1.05842,5.33225c-1.0837,2.0529 -2.36686,2.99398 -2.86601,2.10196z" data-paper-data="{&quot;index&quot;:null}"/><path d="M427.8799,107.82021c-1.0052,-2.18392 -1.38961,-4.62508 -0.85861,-5.45248c0.531,-0.8274 1.77636,0.27226 2.78156,2.45618c1.0052,2.18392 1.38962,4.62508 0.85861,5.45248c-0.531,0.8274 -1.77636,-0.27226 -2.78157,-2.45618z"/><path d="M421.92243,113.55959c-0.49915,-0.89202 -0.02529,-3.27934 1.05841,-5.33224c1.0837,-2.0529 2.36686,-2.99398 2.86601,-2.10197c0.49915,0.89202 0.02528,3.27935 -1.05842,5.33225c-1.0837,2.0529 -2.36685,2.99398 -2.86601,2.10196z" data-paper-data="{&quot;index&quot;:null}"/></g></g><g><g><path d="M427.92927,42.08157c-1.0052,-2.18392 -1.38962,-4.62508 -0.8586,-5.45248c0.531,-0.8274 1.77636,0.27227 2.78156,2.45619c1.0052,2.18392 1.38962,4.62508 0.8586,5.45248c-0.531,0.8274 -1.77636,-0.27226 -2.78156,-2.45618z"/><path d="M421.97184,47.82096c-0.49915,-0.89202 -0.02529,-3.27934 1.05841,-5.33224c1.0837,-2.0529 2.36687,-2.99398 2.86601,-2.10196c0.49915,0.89202 0.02528,3.27934 -1.05842,5.33225c-1.0837,2.0529 -2.36686,2.99398 -2.86601,2.10197z" data-paper-data="{&quot;index&quot;:null}"/><path d="M427.8799,51.44521c-1.0052,-2.18392 -1.38961,-4.62508 -0.85861,-5.45249c0.531,-0.8274 1.77636,0.27227 2.78156,2.45619c1.0052,2.18392 1.38962,4.62508 0.85861,5.45248c-0.531,0.8274 -1.77636,-0.27226 -2.78157,-2.45618z"/><path d="M421.92243,57.18459c-0.49915,-0.89202 -0.02529,-3.27934 1.05841,-5.33224c1.0837,-2.0529 2.36686,-2.99399 2.86601,-2.10197c0.49915,0.89202 0.02528,3.27934 -1.05842,5.33225c-1.0837,2.0529 -2.36685,2.99398 -2.86601,2.10197z" data-paper-data="{&quot;index&quot;:null}"/></g><g><path d="M427.92927,60.83157c-1.0052,-2.18392 -1.38962,-4.62508 -0.8586,-5.45248c0.531,-0.8274 1.77636,0.27226 2.78156,2.45618c1.0052,2.18392 1.38962,4.62508 0.8586,5.45248c-0.531,0.8274 -1.77636,-0.27226 -2.78156,-2.45618z"/><path d="M421.97184,66.57094c-0.49915,-0.89202 -0.02529,-3.27934 1.05841,-5.33224c1.0837,-2.0529 2.36687,-2.99398 2.86601,-2.10196c0.49915,0.89202 0.02528,3.27934 -1.05842,5.33225c-1.0837,2.0529 -2.36686,2.99398 -2.86601,2.10197z" data-paper-data="{&quot;index&quot;:null}"/><path d="M427.8799,70.19521c-1.0052,-2.18392 -1.38961,-4.62508 -0.85861,-5.45249c0.531,-0.8274 1.77636,0.27227 2.78156,2.45619c1.0052,2.18392 1.38962,4.62508 0.85861,5.45248c-0.531,0.8274 -1.77636,-0.27226 -2.78157,-2.45618z"/><path d="M421.92243,75.93457c-0.49915,-0.89202 -0.02529,-3.27934 1.05841,-5.33224c1.0837,-2.0529 2.36686,-2.99399 2.86601,-2.10197c0.49915,0.89202 0.02528,3.27935 -1.05842,5.33225c-1.0837,2.0529 -2.36685,2.99398 -2.86601,2.10196z" data-paper-data="{&quot;index&quot;:null}"/></g></g><g><g><g><path d="M41.33301,-3.89974c-0.53101,-0.8274 -0.1466,-3.26856 0.8586,-5.45248c1.00521,-2.18392 2.25056,-3.28359 2.78156,-2.45618c0.53102,0.82741 0.1466,3.26856 -0.85861,5.45248c-1.00521,2.18392 -2.25055,3.28359 -2.78156,2.45619z"/><path d="M47.20605,-2.71851c-1.0837,-2.0529 -1.55757,-4.44023 -1.05841,-5.33224c0.49916,-0.89202 1.78231,0.04907 2.86601,2.10197c1.0837,2.0529 1.55757,4.44023 1.05841,5.33225c-0.49916,0.89201 -1.78231,-0.04906 -2.86601,-2.10196z" data-paper-data="{&quot;index&quot;:null}"/><path d="M41.38243,5.46389c-0.53102,-0.82741 -0.14661,-3.26856 0.8586,-5.45248c1.00521,-2.18392 2.25055,-3.28359 2.78157,-2.45619c0.53102,0.8274 0.14661,3.26857 -0.8586,5.45249c-1.00521,2.18392 -2.25055,3.28359 -2.78157,2.45618z"/><path d="M47.25544,6.64512c-1.0837,-2.0529 -1.55757,-4.44023 -1.05841,-5.33224c0.49916,-0.89201 1.78232,0.04907 2.86602,2.10197c1.0837,2.0529 1.55757,4.44023 1.05841,5.33224c-0.49916,0.89201 -1.78231,-0.04907 -2.86601,-2.10197z" data-paper-data="{&quot;index&quot;:null}"/></g><g><path d="M41.33301,14.85026c-0.53101,-0.82741 -0.1466,-3.26856 0.8586,-5.45248c1.00521,-2.18392 2.25056,-3.28359 2.78156,-2.45618c0.53102,0.8274 0.1466,3.26856 -0.85861,5.45248c-1.00521,2.18392 -2.25055,3.28359 -2.78156,2.45618z"/><path d="M47.20605,16.03149c-1.0837,-2.0529 -1.55757,-4.44023 -1.05841,-5.33224c0.49916,-0.89201 1.78231,0.04907 2.86601,2.10197c1.0837,2.0529 1.55757,4.44023 1.05841,5.33225c-0.49916,0.89201 -1.78231,-0.04907 -2.86601,-2.10196z" data-paper-data="{&quot;index&quot;:null}"/><path d="M41.38243,24.21389c-0.53102,-0.8274 -0.14661,-3.26856 0.8586,-5.45248c1.00521,-2.18392 2.25055,-3.28359 2.78157,-2.45618c0.53102,0.82741 0.14661,3.26856 -0.8586,5.45248c-1.00521,2.18392 -2.25055,3.28358 -2.78157,2.45618z"/><path d="M47.25544,25.39513c-1.0837,-2.0529 -1.55757,-4.44023 -1.05841,-5.33224c0.49916,-0.89202 1.78232,0.04907 2.86602,2.10197c1.0837,2.0529 1.55757,4.44022 1.05841,5.33224c-0.49916,0.89202 -1.78231,-0.04906 -2.86601,-2.10196z" data-paper-data="{&quot;index&quot;:null}"/></g></g><g><g><path d="M41.33301,71.16276c-0.53101,-0.8274 -0.1466,-3.26856 0.8586,-5.45248c1.00521,-2.18392 2.25056,-3.28359 2.78156,-2.45618c0.53102,0.8274 0.1466,3.26856 -0.85861,5.45248c-1.00521,2.18392 -2.25055,3.28359 -2.78156,2.45619z"/><path d="M47.20605,72.34399c-1.0837,-2.0529 -1.55757,-4.44023 -1.05841,-5.33224c0.49916,-0.89202 1.78232,0.04906 2.86602,2.10196c1.0837,2.0529 1.55757,4.44023 1.05841,5.33225c-0.49916,0.89202 -1.78231,-0.04906 -2.86601,-2.10196z" data-paper-data="{&quot;index&quot;:null}"/><path d="M41.38243,80.52639c-0.53102,-0.8274 -0.14661,-3.26856 0.8586,-5.45248c1.00521,-2.18392 2.25055,-3.28359 2.78157,-2.45618c0.53102,0.8274 0.14661,3.26856 -0.8586,5.45248c-1.00521,2.18392 -2.25055,3.28359 -2.78157,2.45618z"/><path d="M47.25544,81.70762c-1.0837,-2.0529 -1.55757,-4.44023 -1.05841,-5.33224c0.49916,-0.89202 1.78232,0.04907 2.86602,2.10197c1.0837,2.0529 1.55757,4.44022 1.05841,5.33224c-0.49916,0.89202 -1.78231,-0.04906 -2.86601,-2.10196z" data-paper-data="{&quot;index&quot;:null}"/></g><g><path d="M41.33301,89.91276c-0.53101,-0.8274 -0.1466,-3.26856 0.8586,-5.45248c1.00521,-2.18392 2.25056,-3.28359 2.78156,-2.45619c0.53102,0.8274 0.1466,3.26856 -0.85861,5.45248c-1.00521,2.18392 -2.25055,3.28359 -2.78156,2.45619z"/><path d="M47.20605,91.09399c-1.0837,-2.0529 -1.55757,-4.44023 -1.05841,-5.33224c0.49916,-0.89202 1.78232,0.04906 2.86602,2.10196c1.0837,2.0529 1.55757,4.44023 1.05841,5.33225c-0.49916,0.89202 -1.78231,-0.04906 -2.86601,-2.10196z" data-paper-data="{&quot;index&quot;:null}"/><path d="M41.38243,99.27639c-0.53102,-0.8274 -0.14661,-3.26856 0.8586,-5.45248c1.00521,-2.18392 2.25055,-3.28359 2.78157,-2.45618c0.53102,0.8274 0.14661,3.26856 -0.8586,5.45248c-1.00521,2.18392 -2.25055,3.28359 -2.78157,2.45618z"/><path d="M47.25544,100.45763c-1.0837,-2.0529 -1.55757,-4.44023 -1.05841,-5.33224c0.49916,-0.89202 1.78232,0.04907 2.86602,2.10197c1.0837,2.0529 1.55757,4.44022 1.05841,5.33224c-0.49916,0.89202 -1.78231,-0.04906 -2.86601,-2.10196z" data-paper-data="{&quot;index&quot;:null}"/></g></g><g><g><path d="M41.33301,33.53775c-0.53101,-0.8274 -0.1466,-3.26856 0.8586,-5.45248c1.00521,-2.18392 2.25056,-3.28359 2.78156,-2.45619c0.53102,0.8274 0.1466,3.26856 -0.85861,5.45248c-1.00521,2.18392 -2.25055,3.28359 -2.78156,2.45619z"/><path d="M47.20605,34.71899c-1.0837,-2.0529 -1.55757,-4.44023 -1.05841,-5.33224c0.49916,-0.89202 1.78232,0.04906 2.86602,2.10197c1.0837,2.0529 1.55757,4.44023 1.05841,5.33225c-0.49916,0.89202 -1.78231,-0.04906 -2.86601,-2.10196z" data-paper-data="{&quot;index&quot;:null}"/><path d="M41.38243,42.90139c-0.53102,-0.8274 -0.14661,-3.26856 0.8586,-5.45248c1.00521,-2.18392 2.25055,-3.28359 2.78157,-2.45619c0.53102,0.8274 0.14661,3.26857 -0.8586,5.45249c-1.00521,2.18392 -2.25055,3.28359 -2.78157,2.45618z"/><path d="M47.25544,44.08262c-1.0837,-2.0529 -1.55757,-4.44023 -1.05841,-5.33224c0.49916,-0.89202 1.78232,0.04907 2.86602,2.10197c1.0837,2.0529 1.55757,4.44022 1.05841,5.33224c-0.49916,0.89202 -1.78231,-0.04906 -2.86601,-2.10196z" data-paper-data="{&quot;index&quot;:null}"/></g><g><path d="M41.33301,52.28776c-0.53101,-0.8274 -0.1466,-3.26856 0.8586,-5.45248c1.00521,-2.18392 2.25056,-3.28359 2.78156,-2.45618c0.53102,0.8274 0.1466,3.26856 -0.85861,5.45248c-1.00521,2.18392 -2.25055,3.28359 -2.78156,2.45618z"/><path d="M47.20605,53.46899c-1.0837,-2.0529 -1.55757,-4.44023 -1.05841,-5.33224c0.49916,-0.89202 1.78232,0.04906 2.86602,2.10197c1.0837,2.0529 1.55757,4.44023 1.05841,5.33225c-0.49916,0.89202 -1.78231,-0.04906 -2.86601,-2.10196z" data-paper-data="{&quot;index&quot;:null}"/><path d="M41.38243,61.65139c-0.53102,-0.8274 -0.14661,-3.26856 0.8586,-5.45248c1.00521,-2.18392 2.25055,-3.28359 2.78157,-2.45619c0.53102,0.8274 0.14661,3.26857 -0.8586,5.45249c-1.00521,2.18392 -2.25055,3.28359 -2.78157,2.45618z"/><path d="M47.25544,62.83263c-1.0837,-2.0529 -1.55757,-4.44023 -1.05841,-5.33224c0.49916,-0.89202 1.78232,0.04907 2.86602,2.10197c1.0837,2.0529 1.55757,4.44022 1.05841,5.33224c-0.49916,0.89202 -1.78231,-0.04906 -2.86601,-2.10196z" data-paper-data="{&quot;index&quot;:null}"/></g></g></g></g><g fill="#47a3b1" stroke="#306f78" stroke-width="1" stroke-linecap="butt"><path d="M42.21397,228.10519c0,1.24296 -0.08427,0 -2.25057,0c-2.1663,0 -1.22175,-2.67948 -1.22175,-3.92244c0,-1.24296 8.76506,-1.99336 10.93136,-1.99336c2.1663,0 -7.45904,4.67284 -7.45904,5.9158z"/><path d="M45.10756,231.55957c-3.76438,0 -6.81603,-3.70743 -6.81603,-3.70743c0,0 1.20409,-0.34586 2.31851,-0.82441c1.15606,-0.49643 2.56845,0.28782 2.56845,0.28782c0,0 1.60557,-1.01727 2.18601,-1.0108c0.51272,0.00573 1.36275,0.69121 2.4107,0.94346c0.84228,0.20275 1.89688,-0.51363 2.59459,-0.45075c0.87317,0.0787 1.5538,1.05467 1.5538,1.05467c0,0 -3.05164,3.70743 -6.81603,3.70743z" data-paper-data="{&quot;index&quot;:null}"/><path d="M50.23325,222.02625c-0.62594,0.18702 -1.9391,-0.01879 -2.63737,0.28336c-0.86876,0.37591 -1.35592,0.97032 -1.83421,1.08339c-0.54146,0.12799 -2.5075,-0.14116 -2.5075,-0.14116c0,0 -0.96992,0.7741 -2.27875,0.7224c-1.26169,-0.04984 -2.61177,3.92181 -2.61177,3.92181c0,0 -0.64412,-1.26643 -0.61836,-1.9806c0.03965,-1.09876 1.04316,-2.62885 1.31198,-2.99019c0.67675,-0.90966 1.95359,-2.15469 4.08636,-2.64086c3.53063,-0.80481 8.06985,0.77472 8.06985,0.77472z"/></g><path d="M430.02015,200.15359c0.63549,-0.68019 2.16292,0.63832 2.16292,0.63832c0,0 0.84692,-1.84635 1.72534,-1.72441c0.87843,0.12194 0.17067,2.39108 0.17067,2.39108c0,0 1.99453,0.30395 1.80247,1.28929c-0.19206,0.98534 -2.03527,1.0189 -2.03527,1.0189c0,0 0.16782,1.81612 -0.78248,2.13733c-0.95031,0.3212 -1.13249,-1.72601 -1.13249,-1.72601c0,0 -1.64327,1.26101 -2.28644,0.49579c-0.64317,-0.76522 1.11109,-2.35449 1.11109,-2.35449c0,0 -1.37131,-1.48561 -0.73582,-2.1658z" fill="#008d95" stroke="#60b7b2" stroke-width="1" stroke-linecap="butt"/><path d="M33.09193,284.60538c0.95324,1.02029 -1.10373,3.2487 -1.10373,3.2487c0,0 2.63139,2.38391 1.66663,3.53174c-0.96475,1.14783 -3.42966,-0.74368 -3.42966,-0.74368c0,0 -0.27327,3.07081 -1.69873,2.58901c-1.42545,-0.48181 -1.17372,-3.20599 -1.17372,-3.20599c0,0 -2.76481,-0.05034 -3.0529,-1.52835c-0.28809,-1.47801 2.7037,-1.93394 2.7037,-1.93394c0,0 -1.06164,-3.40371 0.25601,-3.58662c1.31763,-0.18291 2.58801,2.58662 2.58801,2.58662c0,0 2.29114,-1.97777 3.24438,-0.95748z" data-paper-data="{&quot;index&quot;:null}" fill="#008d95" stroke="#60b7b2" stroke-width="1" stroke-linecap="butt"/><g data-paper-data="{&quot;index&quot;:null}" fill="#47a3b1" stroke="#306f78" stroke-width="1" stroke-linecap="butt"><path d="M435.25795,293.41796c1.10001,0.57872 -0.03924,0.07458 -1.04786,1.99175c-1.00862,1.91717 -2.94018,-0.16631 -4.04019,-0.74502c-1.10001,-0.57872 2.31686,-8.68516 3.32548,-10.60233c1.00862,-1.91717 0.66255,8.77688 1.76257,9.3556z"/><path d="M439.30406,298.9071c-3.6684,0.84461 -7.47408,-2.0836 -7.47408,-2.0836c0,0 1.09579,-0.6072 2.07443,-1.32359c1.0152,-0.74316 2.56754,-0.2958 2.56754,-0.2958c0,0 1.33639,-1.35157 1.90348,-1.4755c0.50093,-0.10945 1.48309,0.36783 2.56092,0.37852c0.86629,0.0086 1.73327,-0.92613 2.4273,-1.0214c0.86857,-0.11921 1.75082,0.67916 1.75082,0.67916c0,0 -2.14201,4.2976 -5.81042,5.14221z" data-paper-data="{&quot;index&quot;:null}"/><path d="M433.61184,283.49059c-0.12592,0.64103 -0.91947,1.70736 -0.97717,2.466c-0.07181,0.94387 0.22742,1.65176 0.1048,2.12769c-0.13882,0.53879 -1.29241,2.15341 -1.29241,2.15341c0,0 0.23348,1.2188 -0.42166,2.35304c-0.63155,1.09339 2.25476,4.13739 2.25476,4.13739c0,0 -1.42069,-0.01959 -2.04073,-0.37491c-0.95394,-0.54667 -1.84084,-2.14718 -2.03546,-2.55332c-0.48996,-1.02246 -0.9973,-2.73214 -0.43455,-4.84599c0.93159,-3.49932 4.44291,-6.78109 4.44291,-6.78109z"/></g><path d="M425.76971,155.55259c0.37809,-1.18406 0.08027,0.02563 2.14392,0.68458c2.06365,0.65895 0.34881,2.92415 -0.02928,4.10821c-0.37809,1.18406 -8.95606,-0.76727 -11.01971,-1.42622c-2.06365,-0.65895 8.52698,-2.1825 8.90507,-3.36656z" fill="#47a3b1" stroke="#306f78" stroke-width="1" stroke-linecap="butt"/><path d="M66.46481,171.38821c3.7336,0.48036 6.28721,4.5469 6.28721,4.5469c0,0 -1.23838,0.18938 -2.40476,0.52181c-1.20996,0.34485 -2.51072,-0.61322 -2.51072,-0.61322c0,0 -1.72226,0.80406 -2.29712,0.72358c-0.50779,-0.07111 -1.2634,-0.85946 -2.2706,-1.24337c-0.80951,-0.30857 -1.94691,0.26737 -2.63089,0.11598c-0.85599,-0.18949 -1.40652,-1.24433 -1.40652,-1.24433c0,0 3.49979,-3.2877 7.2334,-2.80734z" data-paper-data="{&quot;index&quot;:null}" fill="#47a3b1" stroke="#306f78" stroke-width="1" stroke-linecap="butt"/><path d="M416.28132,158.90416c0.65317,0.01225 1.84151,0.60774 2.59859,0.53231c0.94194,-0.09384 1.58681,-0.51189 2.07684,-0.47412c0.55474,0.04277 2.34574,0.89721 2.34574,0.89721c0,0 1.15943,-0.44238 2.39052,0.00499c1.18675,0.43127 3.68095,-2.94152 3.68095,-2.94152c0,0 0.22838,1.40235 -0.0134,2.07484c-0.37199,1.03463 -1.79338,2.18697 -2.15937,2.44942c-0.92139,0.6607 -2.51644,1.45833 -4.69603,1.27272c-3.60814,-0.30728 -7.4518,-3.19272 -7.4518,-3.19272z" fill="#47a3b1" stroke="#306f78" stroke-width="1" stroke-linecap="butt"/><path d="M-10.82653,373l-10.67347,-386h512.32653l10.67347,386z" fill="url(#color-1)" stroke="none" stroke-width="1" stroke-linecap="butt"/></g></g></svg>