<svg version="1.1" xmlns="http://www.w3.org/2000/svg" xmlns:xlink="http://www.w3.org/1999/xlink" width="42.86718" height="43.82996" viewBox="0,0,42.86718,43.82996"><g transform="translate(-218.56641,-157.60363)"><g data-paper-data="{&quot;isPaintingLayer&quot;:true}" fill-rule="nonzero" stroke-linejoin="miter" stroke-miterlimit="10" stroke-dasharray="" stroke-dashoffset="0" style="mix-blend-mode: normal"><path d="M218.56641,201.43359v-42.86718h42.86718v42.86718z" fill="none" stroke="none" stroke-width="0" stroke-linecap="butt"/><path d="" data-paper-data="{&quot;index&quot;:null}" fill="none" stroke="#cdcdcd" stroke-width="1.5" stroke-linecap="round"/><path d="" fill="none" stroke="#cdcdcd" stroke-width="1.5" stroke-linecap="round"/><path d="" data-paper-data="{&quot;index&quot;:null}" fill="none" stroke="#cdcdcd" stroke-width="1.5" stroke-linecap="round"/><path d="" fill="none" stroke="#cdcdcd" stroke-width="1.5" stroke-linecap="round"/><path d="" data-paper-data="{&quot;index&quot;:null}" fill="none" stroke="#cdcdcd" stroke-width="1.5" stroke-linecap="round"/><path d="" data-paper-data="{&quot;index&quot;:null}" fill="none" stroke="#cdcdcd" stroke-width="1.5" stroke-linecap="round"/><path d="" data-paper-data="{&quot;index&quot;:null}" fill="none" stroke="#cdcdcd" stroke-width="1.5" stroke-linecap="round"/><path d="" fill="none" stroke="#cdcdcd" stroke-width="1.5" stroke-linecap="round"/><path d="" data-paper-data="{&quot;index&quot;:null}" fill="none" stroke="#cdcdcd" stroke-width="1.5" stroke-linecap="round"/><path d="" data-paper-data="{&quot;index&quot;:null}" fill="none" stroke="#cdcdcd" stroke-width="1.5" stroke-linecap="round"/><path d="" fill="none" stroke="#cdcdcd" stroke-width="1.5" stroke-linecap="round"/><path d="" data-paper-data="{&quot;index&quot;:null}" fill="none" stroke="#cdcdcd" stroke-width="1.5" stroke-linecap="round"/><path d="M244.31722,191.85787l-2.12963,-0.14687l-0.33139,-4.40861" data-paper-data="{&quot;index&quot;:null}" fill="none" stroke="#bd845e" stroke-width="2" stroke-linecap="round"/><path d="M239.83764,192.00474h-1.76245l-0.29498,-4.33271" data-paper-data="{&quot;index&quot;:null}" fill="none" stroke="#bd845e" stroke-width="2" stroke-linecap="round"/><path d="M232.13261,183.8639c-0.28458,-1.04866 -0.55075,-3.0593 -0.66764,-5.32006c-0.2401,-4.64389 4.22492,-3.31714 6.379,-3.90171c3.20275,-0.86916 5.01765,2.87153 5.8868,6.07427c0.86916,3.20275 -1.0226,6.50367 -4.22534,7.37283c-3.20275,0.86916 -6.50367,-1.0226 -7.37283,-4.22534z" fill="#4d3e34" stroke="#bd845e" stroke-width="2" stroke-linecap="butt"/><path d="M243.79025,167.22152c2.68017,3.94316 -1.62469,5.63808 -6.76274,9.13042c-5.13805,3.49234 -9.11743,7.21735 -11.7976,3.2742c-1.74727,-2.57064 -1.50862,-6.02721 0.2928,-9.08967c0.96182,-1.63512 1.48682,-4.45602 3.27524,-5.67161c5.13805,-3.49234 12.31212,-1.58649 14.99229,2.35667z" fill="#281c14" stroke="#bc6327" stroke-width="2" stroke-linecap="butt"/><path d="M241.83647,162.49631c1.02533,0.53354 -0.93053,2.54382 -1.86424,4.33812c-0.64589,1.24119 -1.71634,1.16045 -2.56887,0.36803c-0.3799,-0.35313 -0.60545,-1.43005 -0.92151,-1.59452c-1.02533,-0.53354 0.68902,-2.0797 1.62272,-3.874c0.93371,-1.79429 2.70658,0.22883 3.7319,0.76236z" fill="#281c14" stroke="#bc6327" stroke-width="2" stroke-linecap="butt"/><path d="M242.30446,158.9573c2.34889,1.68295 3.38898,4.25321 2.32311,5.74085c-1.06587,1.48763 -3.83408,1.32929 -6.18297,-0.35367c-2.34889,-1.68295 -3.38897,-4.25322 -2.3231,-5.74085c1.06587,-1.48763 3.83407,-1.32928 6.18296,0.35367z" fill="#281c14" stroke="#bc6327" stroke-width="2" stroke-linecap="butt"/><path d="M238.90999,160.37424l2.48418,2.01964" fill="none" stroke="#bc6327" stroke-width="2" stroke-linecap="round"/><path d="M233.66135,180.4826h2.86553l-1.30818,2.67865" fill="none" stroke="#ffffff" stroke-width="1.5" stroke-linecap="round"/><path d="M241.75958,179.23672l-2.99012,-0.24918l1.61965,-2.61635" fill="none" stroke="#ffffff" stroke-width="1.5" stroke-linecap="round"/></g></g></svg>