<svg version="1.1" xmlns="http://www.w3.org/2000/svg" xmlns:xlink="http://www.w3.org/1999/xlink" width="88.25" height="88.25" viewBox="0,0,88.25,88.25"><defs><radialGradient cx="240" cy="180" r="21.64286" gradientUnits="userSpaceOnUse" id="color-1"><stop offset="0" stop-color="#10ff00"/><stop offset="1" stop-color="#10ff00" stop-opacity="0"/></radialGradient></defs><g transform="translate(-195.875,-135.875)"><g data-paper-data="{&quot;isPaintingLayer&quot;:true}" fill-rule="nonzero" stroke-linejoin="miter" stroke-miterlimit="10" stroke-dasharray="" stroke-dashoffset="0" style="mix-blend-mode: normal"><path d="M218.35714,180c0,-11.95302 9.68984,-21.64286 21.64286,-21.64286c11.95302,0 21.64286,9.68984 21.64286,21.64286c0,11.95302 -9.68984,21.64286 -21.64286,21.64286c-11.95302,0 -21.64286,-9.68984 -21.64286,-21.64286z" fill="url(#color-1)" stroke="#8719ff" stroke-width="0" stroke-linecap="butt"/><path d="M195.875,224.125v-88.25h88.25v88.25z" fill="none" stroke="none" stroke-width="NaN" stroke-linecap="butt"/><path d="M214.64287,180.00002c0,-14.00436 11.35278,-25.35714 25.35714,-25.35714c14.00436,0 25.35714,11.35278 25.35714,25.35714c0,14.00436 -11.35278,25.35714 -25.35714,25.35714c-14.00436,0 -25.35714,-11.35278 -25.35714,-25.35714z" fill="none" stroke="#545454" stroke-width="1" stroke-linecap="butt"/><text transform="translate(234.81926,213.5463) scale(0.36433,0.36433)" font-size="40" xml:space="preserve" fill="#ffffff" fill-rule="nonzero" stroke="none" stroke-width="1" stroke-linecap="butt" stroke-linejoin="miter" stroke-miterlimit="10" stroke-dasharray="" stroke-dashoffset="0" font-family="Sans Serif" font-weight="normal" text-anchor="start" style="mix-blend-mode: normal"><tspan x="0" dy="0">D</tspan></text><path d="M231.75057,217.2062c-0.76295,-0.7628 -0.58469,-1.10059 -0.58469,-2.17926c0,-3.23602 0,-7.66491 0,-12.57085c0,-1.01301 -0.1538,-1.3176 0.58469,-2.01101c0.73849,-0.69341 1.1009,-0.5847 2.17977,-0.5847c4.82987,0 9.26146,0 12.37595,0c1.03816,0 1.37213,-0.1789 2.07547,0.5847c0.70335,0.7636 0.58469,1.17627 0.58469,2.30336c0,4.75382 0,8.83095 0,12.18105c0,1.11669 0.17565,1.45885 -0.58469,2.27671c-0.76034,0.81787 -1.03731,0.5847 -2.07547,0.5847c-1.03816,0 -9.13935,0 -12.37595,0c-1.07887,0 -1.41682,0.17811 -2.17977,-0.5847z" fill="none" stroke="#ffffff" stroke-width="1.5" stroke-linecap="butt"/><path d="M227.91118,191.154c-4.93142,-5.34473 -4.59637,-13.6752 0.74836,-18.60662c5.34473,-4.93142 23.66662,-3.44418 23.66662,-3.44418c0,0 -0.23327,17.6552 -5.80835,22.79915c-5.34473,4.93142 -13.6752,4.59637 -18.60663,-0.74836z" data-paper-data="{&quot;index&quot;:null}" fill="#33ff6a" stroke="#00c740" stroke-width="1.5" stroke-linecap="butt"/><path d="M228.42122,196.97638c0,0 2.80567,-6.68136 8.28832,-14.40457c5.15391,-7.26012 15.42194,-12.80535 15.42194,-12.80535l-0.26248,-0.43746c0,0 -11.12529,5.91649 -16.6739,12.01694c-5.96714,6.5606 -9.13616,14.23058 -9.13616,14.23058c0,0 0.4993,1.16756 0.91755,1.41541c0.3606,0.21369 1.44473,-0.01554 1.44473,-0.01554z" fill="#00c740" stroke="#00c740" stroke-width="1.5" stroke-linecap="round"/><path d="M238.30779,178.6906c0,0 0.0312,-2.51216 0.68244,-3.81464c0.3893,-0.7786 1.94232,-2.48477 1.94232,-2.48477" fill="none" stroke="#00c740" stroke-width="1.5" stroke-linecap="round"/><path d="M236.38297,183.15268c0,0 3.77211,-0.30924 5.75614,-1.17916c1.78653,-0.78333 5.61779,-3.80786 5.61779,-3.80786" fill="none" stroke="#00c740" stroke-width="1.5" stroke-linecap="round"/><path d="M233.14577,186.38987c0,0 -2.16999,-4.47243 -2.42237,-6.5546c-0.20375,-1.68092 1.02251,-4.99431 1.02251,-4.99431" fill="none" stroke="#00c740" stroke-width="1.5" stroke-linecap="round"/><path d="M231.04597,189.2771c0,0 3.72166,1.86307 5.89934,1.5622c3.15635,-0.43607 8.27432,-2.43712 8.27432,-2.43712" fill="none" stroke="#00c740" stroke-width="1.5" stroke-linecap="round"/></g></g></svg>