<svg version="1.1" xmlns="http://www.w3.org/2000/svg" xmlns:xlink="http://www.w3.org/1999/xlink" width="77.1" height="77.1" viewBox="0,0,77.1,77.1"><g transform="translate(-201.45,-141.45)"><g data-paper-data="{&quot;isPaintingLayer&quot;:true}" fill-rule="nonzero" stroke-linejoin="miter" stroke-miterlimit="10" stroke-dasharray="" stroke-dashoffset="0" style="mix-blend-mode: normal"><path d="M206.875,213.125v-66.25h66.25v66.25z" fill="none" stroke="none" stroke-width="NaN" stroke-linecap="butt"/><path d="M240.93739,167.82784c0.04169,-0.38772 0.46076,-1.98453 0.51625,-2.16046c0.20896,-0.66246 1.41775,-0.87165 2.69994,-0.46723c1.04646,0.33007 2.27333,0.88532 1.94327,1.93177c0,0 -0.49906,1.54883 -0.80872,1.70002c-0.55015,0.26863 -2.20855,-0.22676 -2.20855,-0.22676z" fill="none" stroke="#dfb035" stroke-width="1.5" stroke-linecap="butt"/><path d="M229.69182,188.89424c-2.64744,-4.5442 -1.10982,-10.37419 3.43439,-13.02162c1.39422,-0.81227 2.90949,-1.23058 4.41672,-1.28898c0.88331,-0.03422 1.82753,-7.32908 2.67936,-7.12291c0.72574,0.17564 5.37427,0.62597 5.72825,2.07294c0.2383,0.97406 -2.51235,6.77272 -1.97937,7.21106c0.84911,0.69835 1.59081,1.5567 2.17666,2.56228c2.64744,4.5442 1.10982,10.37419 -3.43439,13.02163c-4.5442,2.64744 -10.37419,1.10982 -13.02162,-3.43439z" fill="none" stroke="#e7e7e7" stroke-width="1.5" stroke-linecap="butt"/><path d="M245.86335,183.90005c-0.0362,4.34437 -3.58736,7.83683 -7.93173,7.80063c-4.34437,-0.0362 -7.83683,-3.58736 -7.80063,-7.93173" fill="#ff3030" stroke="#ff1919" stroke-width="1.5" stroke-linecap="butt"/><path d="M245.77366,183.62327c-0.01037,1.24488 -3.52,2.22488 -7.83896,2.18888c-4.31897,-0.036 -7.81178,-1.07434 -7.8014,-2.31923c0.01037,-1.24488 3.52,-2.22487 7.83897,-2.18888c4.31897,0.036 7.81177,1.07434 7.8014,2.31922z" fill="#ff3030" stroke="#ff1919" stroke-width="1.5" stroke-linecap="butt"/><path d="M249.67264,187.81176l-4.23523,2.25104l-1.9153,-10.48345l4.22729,-4.49423l5.1402,2.78282l1.9153,10.48345z" data-paper-data="{&quot;index&quot;:null}" fill="#ffffff" stroke="#725e5e" stroke-width="1" stroke-linecap="butt"/><path d="M248.72332,180.91981c0,0 0.6966,-1.1699 1.38824,-1.2294c1.50478,-0.1432 2.16871,1.59792 1.53491,3.35352c-0.37236,1.11476 -1.11503,2.0748 -2.10759,2.72442c-1.15981,-0.25523 -2.19577,-0.89049 -2.93927,-1.80237c-1.18682,-1.42297 -1.18154,-3.28678 0.29017,-3.68695c0.9358,-0.25445 1.83354,0.64079 1.83354,0.64079z" data-paper-data="{&quot;index&quot;:null}" fill="none" stroke="#e82c2c" stroke-width="1.5" stroke-linecap="butt"/><path d="M240.58842,166.93997c0,0 1.34676,0.82275 2.04176,0.96582c0.86912,0.17889 3.18236,0.60391 3.18236,0.60391c0,0 0.78784,1.60197 1.25546,2.79893c0.40158,1.02792 0.63719,3.78759 0.63719,3.78759" fill="none" stroke="#725e5e" stroke-width="1" stroke-linecap="round"/><path d="M201.45,218.55v-77.1h77.1v77.1z" fill="none" stroke="none" stroke-width="NaN" stroke-linecap="butt"/></g></g></svg>