<svg version="1.1" xmlns="http://www.w3.org/2000/svg" xmlns:xlink="http://www.w3.org/1999/xlink" width="91.6048" height="91.6048" viewBox="0,0,91.6048,91.6048"><g transform="translate(-194.1976,-134.1976)"><g data-paper-data="{&quot;isPaintingLayer&quot;:true}" fill-rule="nonzero" stroke="none" stroke-linecap="butt" stroke-linejoin="miter" stroke-miterlimit="10" stroke-dasharray="" stroke-dashoffset="0" style="mix-blend-mode: normal"><path d="M194.1976,225.8024v-91.6048h91.6048v91.6048z" fill="none" stroke-width="NaN"/><path d="M205.65264,156.03098v-2.96524h7.4131v2.96524z" fill="#3b007c" stroke-width="NaN"/><path d="M222.45566,173.82242v-0.74131h37.5597v0.74131z" fill="#3b007c" stroke-width="0"/><path d="M230.36297,202.4864v-4.20076h11.36675v4.20076z" fill="#3b007c" stroke-width="0"/><path d="M205.65264,212.37053v-9.63703h11.86096v9.63703z" fill="#7d7d7d" stroke-width="0"/><path d="M220.97304,145.40554v-1.48262h22.7335v1.48262z" fill="#7d7d7d" stroke-width="0"/><path d="M246.91889,160.97305v-3.95365h18.77985v3.95365z" fill="#7d7d7d" stroke-width="0"/><path d="M203.18161,191.36675v-2.96524h3.95365v2.96524z" fill="#7d7d7d" stroke-width="0"/><path d="M232.09269,178.76448v-0.98841h7.6602v0.98841z" fill="#000000" stroke-width="0"/><path d="M196.75692,178.02317v-5.18917h19.52116v5.18917z" fill="#000000" stroke-width="0"/><path d="M234.31662,196.80302v-4.94207h29.15819v4.94207z" fill="#000000" stroke-width="0"/><path d="M268.66398,181.23552v-5.68338h9.38992v5.68338z" fill="#000000" stroke-width="0"/><path d="M256.80302,185.43628v-3.70655h22.7335v3.70655z" fill="#ffffff" stroke-width="0"/><path d="M196.50982,164.18539v-2.96524h18.03854v2.96524z" fill="#ffffff" stroke-width="0"/><path d="M218.74911,186.17759v-3.95365h3.21234v3.95365z" fill="#ffffff" stroke-width="0"/><path d="M228.88035,166.90353v-2.96524h6.17758v2.96524z" fill="#ffffff" stroke-width="0"/><path d="M247.6602,205.20453v-2.96524h22.23929v2.96524z" fill="#ffffff" stroke-width="0"/><path d="M231.35138,216.07708v-4.69496h5.93048v4.69496z" fill="#ffffff" stroke-width="0"/><path d="M265.69874,213.60605v-0.98841h17.79144v0.98841z" fill="#ffffff" stroke-width="0"/><path d="M224.9267,158.25491v-2.47103h5.18917v2.47103z" fill="#7b00ff" stroke-width="0"/><path d="M257.54433,188.40151v-1.72972h5.93048v1.72972z" fill="#7b00ff" stroke-width="0"/><path d="M205.40554,196.30882v-1.97683h15.81461v1.97683z" fill="#7b00ff" stroke-width="0"/><path d="M200.46347,183.95365v-4.44786h3.70655v4.44786z" fill="#7b00ff" stroke-width="0"/><path d="M251.86095,148.37078v-4.44786h4.94207v4.44786z" fill="#7b00ff" stroke-width="0"/></g></g></svg>