<svg version="1.1" xmlns="http://www.w3.org/2000/svg" xmlns:xlink="http://www.w3.org/1999/xlink" width="26" height="26" viewBox="0,0,26,26"><g transform="translate(-227,-167)"><g data-paper-data="{&quot;isPaintingLayer&quot;:true}" fill-rule="nonzero" stroke-linecap="butt" stroke-linejoin="miter" stroke-miterlimit="10" stroke-dasharray="" stroke-dashoffset="0" style="mix-blend-mode: normal"><path d="M239.79013,175.27042c0.10744,0.0825 0.21487,0.16501 0.32231,0.24751c0.54219,-0.85861 2.01286,-1.62089 2.01286,-1.62089c2.07651,-0.75609 4.37279,0.31432 5.12888,2.39082c1.50403,4.13064 -5.54814,9.05876 -7.57075,10.36214" fill="none" stroke="#7d1313" stroke-width="2"/><path d="M227,193v-26h26v26z" fill="none" stroke="none" stroke-width="0"/><path d="M239.78712,186.50112c-0.02239,0.01335 -0.03403,0.02015 -0.03403,0.02015c-3.24795,-2.49417 -9.12829,-8.16414 -6.63413,-11.41209c2.43705,-3.17357 5.61061,-0.73652 5.61061,-0.73652c0.19275,0.14802 1.21884,0.79604 1.41159,0.94405" fill="#ff5858" stroke="#ff2626" stroke-width="2"/></g></g></svg>