<svg version="1.1" xmlns="http://www.w3.org/2000/svg" xmlns:xlink="http://www.w3.org/1999/xlink" width="86.44117" height="86.44117" viewBox="0,0,86.44117,86.44117"><defs><linearGradient x1="266.40678" y1="177.95241" x2="227.21225" y2="156.0425" gradientUnits="userSpaceOnUse" id="color-1"><stop offset="0" stop-color="#ff22c0"/><stop offset="1" stop-color="#ff6a1a"/></linearGradient></defs><g transform="translate(-196.77942,-136.77941)"><g data-paper-data="{&quot;isPaintingLayer&quot;:true}" fill-rule="nonzero" stroke-linejoin="miter" stroke-miterlimit="10" stroke-dasharray="" stroke-dashoffset="0" style="mix-blend-mode: normal"><path d="M220.63237,199.35547c0,0 4.75449,-9.57658 10.34559,-12.01712c8.18347,-3.57212 7.58916,-0.33523 11.5445,-2.08097c3.95535,-1.74571 8.1607,-4.60041 9.40709,-5.58663c0.47856,-0.37868 4.59156,0.73285 5.52194,0.89697c1.54171,0.27198 3.94454,-0.78771 5.79709,0.53183c1.50826,1.07432 2.96917,2.12904 2.96917,2.12904" fill="none" stroke="#ffd0d0" stroke-width="2" stroke-linecap="round"/><path d="M268.57782,174.06867c-0.65826,1.17755 -4.38352,-0.81298 -6.06805,1.59932c-1.68453,2.41228 3.3483,4.14765 1.74188,4.59582c-0.78066,0.2178 -1.88646,-0.5786 -2.97324,-0.59407c-1.90595,-0.02713 -2.7634,0.7055 -4.67996,0.78785c-1.67079,0.07178 -2.89944,-0.95265 -3.81523,-0.63034c-0.01386,-0.56337 -1.59029,-0.69531 -1.60181,-1.23368c-0.22964,-10.74516 -0.2595,-16.63232 -10.78866,-22.51817c-2.88809,-1.61445 -8.47877,-4.57976 -12.38575,-3.0525c2.6087,-4.30542 13.16159,-3.47971 21.02963,1.43926c10.94989,6.84568 19.54122,19.60649 19.54122,19.60649z" fill="url(#color-1)" stroke="#ffffff" stroke-width="0.5" stroke-linecap="butt"/><path d="M202.92749,157.79458c12.26371,-20.47459 38.80334,-27.13081 59.27793,-14.8671c20.47459,12.26371 27.13081,38.80334 14.8671,59.27793c-12.26371,20.47459 -38.80334,27.13081 -59.27793,14.8671c-20.47459,-12.26371 -27.13081,-38.80334 -14.8671,-59.27793z" fill="none" stroke="none" stroke-width="0" stroke-linecap="butt"/></g></g></svg>