<svg version="1.1" xmlns="http://www.w3.org/2000/svg" xmlns:xlink="http://www.w3.org/1999/xlink" width="27.95659" height="29.88922" viewBox="0,0,27.95659,29.88922"><g transform="translate(-230.0231,-166.3709)"><g data-paper-data="{&quot;isPaintingLayer&quot;:true}" fill-rule="nonzero" stroke-linejoin="miter" stroke-miterlimit="10" stroke-dasharray="" stroke-dashoffset="0" style="mix-blend-mode: normal"><g stroke="#7d00ff" stroke-width="1.25"><path d="M237.25066,188.74283l-6.53149,-12.66426c0,0 0.91214,-1.95627 2.58914,-3.50489c1.32382,-1.22248 3.36322,-1.99178 4.15368,-2.72175c1.18768,-1.09675 2.96232,-2.73554 2.96232,-2.73554c0,0 0.93995,0.44508 1.36854,0.92729c0.42858,0.48222 0.03905,0.50175 1.01491,1.75446c0.18268,0.23449 1.33368,0.48056 1.54643,0.73449c0.43805,0.52279 -0.0204,1.07886 0.48935,1.63573c0.30629,0.3346 1.04147,0.36871 1.35194,0.71663c0.4805,0.53849 0.53353,1.3862 0.97429,1.83555c0.48153,0.49092 1.13265,0.28153 1.49129,0.6181c0.57144,0.53628 0.61977,1.90561 0.61977,1.90561l-0.94349,0.62715c0,0 -3.02534,9.10994 -6.56376,10.94436c-1.69093,0.87664 -4.52292,-0.07298 -4.52292,-0.07298z" fill="#dab2ff" stroke-linecap="butt"/><path d="M242.21932,170.26768l-2.325,2.325l2.74774,2.74774l-2.21932,2.21932l-3.38183,-1.90227" fill="#dab2ff" stroke-linecap="round"/><path d="M244.17444,172.53984l-2.0608,2.0608" fill="#dab2ff" stroke-linecap="round"/><path d="M246.55228,175.02336l-3.29325,3.87602" fill="#dab2ff" stroke-linecap="round"/><path d="M240.26423,172.85691l-2.90627,-2.90627" fill="#dab2ff" stroke-linecap="round"/><path d="M249.08864,177.2427l-4.01591,3.80456l-3.59319,-3.38183" fill="none" stroke-linecap="round"/><path d="M244.3288,186.15674v6.72688h-8.45456v-6.76365" fill="#dab2ff" stroke-linecap="round"/></g><text transform="translate(246.125,193.125) scale(0.25081,0.25081)" font-size="40" xml:space="preserve" fill="#dab2ff" fill-rule="nonzero" stroke="none" stroke-width="1" stroke-linecap="butt" stroke-linejoin="miter" stroke-miterlimit="10" stroke-dasharray="" stroke-dashoffset="0" font-family="Sans Serif" font-weight="normal" text-anchor="start" style="mix-blend-mode: normal"><tspan x="0" dy="0">10</tspan></text></g></g></svg>