<svg version="1.1" xmlns="http://www.w3.org/2000/svg" xmlns:xlink="http://www.w3.org/1999/xlink" width="88.25" height="88.25" viewBox="0,0,88.25,88.25"><defs><radialGradient cx="240" cy="180" r="21.64286" gradientUnits="userSpaceOnUse" id="color-1"><stop offset="0" stop-color="#ffffff"/><stop offset="1" stop-color="#ffffff" stop-opacity="0"/></radialGradient></defs><g transform="translate(-195.875,-135.875)"><g data-paper-data="{&quot;isPaintingLayer&quot;:true}" fill-rule="nonzero" stroke-linecap="butt" stroke-linejoin="miter" stroke-miterlimit="10" stroke-dasharray="" stroke-dashoffset="0" style="mix-blend-mode: normal"><path d="M218.35714,180c0,-11.95302 9.68984,-21.64286 21.64286,-21.64286c11.95302,0 21.64286,9.68984 21.64286,21.64286c0,11.95302 -9.68984,21.64286 -21.64286,21.64286c-11.95302,0 -21.64286,-9.68984 -21.64286,-21.64286z" fill="url(#color-1)" stroke="#8719ff" stroke-width="0"/><path d="M195.875,224.125v-88.25h88.25v88.25z" fill="none" stroke="none" stroke-width="NaN"/><path d="M214.64287,180.00002c0,-14.00436 11.35278,-25.35714 25.35714,-25.35714c14.00436,0 25.35714,11.35278 25.35714,25.35714c0,14.00436 -11.35278,25.35714 -25.35714,25.35714c-14.00436,0 -25.35714,-11.35278 -25.35714,-25.35714z" fill="none" stroke="#545454" stroke-width="1"/><text transform="translate(234.81926,213.5463) scale(0.36433,0.36433)" font-size="40" xml:space="preserve" fill="#ffffff" fill-rule="nonzero" stroke="none" stroke-width="1" stroke-linecap="butt" stroke-linejoin="miter" stroke-miterlimit="10" stroke-dasharray="" stroke-dashoffset="0" font-family="Sans Serif" font-weight="normal" text-anchor="start" style="mix-blend-mode: normal"><tspan x="0" dy="0">D</tspan></text><path d="M231.75057,217.2062c-0.76295,-0.7628 -0.58469,-1.10059 -0.58469,-2.17926c0,-3.23602 0,-7.66491 0,-12.57085c0,-1.01301 -0.1538,-1.3176 0.58469,-2.01101c0.73849,-0.69341 1.1009,-0.5847 2.17977,-0.5847c4.82987,0 9.26146,0 12.37595,0c1.03816,0 1.37213,-0.1789 2.07547,0.5847c0.70335,0.7636 0.58469,1.17627 0.58469,2.30336c0,4.75382 0,8.83095 0,12.18105c0,1.11669 0.17565,1.45885 -0.58469,2.27671c-0.76034,0.81787 -1.03731,0.5847 -2.07547,0.5847c-1.03816,0 -9.13935,0 -12.37595,0c-1.07887,0 -1.41682,0.17811 -2.17977,-0.5847z" fill="none" stroke="#ffffff" stroke-width="1.5"/><path d="M239.50992,198.16264c0,0 -9.61164,-3.45645 -11.92879,-7.55214c-0.81607,-1.44243 -3.58696,-23.9477 -3.58696,-23.9477l15.93493,-4.82544l15.40377,5.13265c0,0 -0.50732,19.7278 -2.75902,23.39778c-2.83476,4.62027 -13.06392,7.79483 -13.06392,7.79483z" fill="#67caff" stroke="#12e0ff" stroke-width="1.15823"/><path d="M230.05135,183.53731v-8.25369h20.19209v8.25369z" fill="#ffffff" stroke="none" stroke-width="0"/><path d="M244.27425,189.5065h-8.2537v-20.19208h8.2537z" fill="#ffffff" stroke="none" stroke-width="0"/></g></g></svg>