<svg version="1.1" xmlns="http://www.w3.org/2000/svg" xmlns:xlink="http://www.w3.org/1999/xlink" width="77.1" height="77.1" viewBox="0,0,77.1,77.1"><g transform="translate(-201.45,-141.45)"><g data-paper-data="{&quot;isPaintingLayer&quot;:true}" fill-rule="nonzero" stroke-linejoin="miter" stroke-miterlimit="10" stroke-dasharray="" stroke-dashoffset="0" style="mix-blend-mode: normal"><path d="M240.26238,181.25754c-3.76586,0 -6.8187,-3.05283 -6.8187,-6.8187c0,-3.76586 3.05283,-6.8187 6.8187,-6.8187c3.76586,0 6.8187,3.05283 6.8187,6.8187c0,3.76586 -3.05283,6.8187 -6.8187,6.8187z" data-paper-data="{&quot;index&quot;:null}" fill="#8e1b1b" stroke="#f5f5f5" stroke-width="2" stroke-linecap="butt"/><path d="M244.53297,185.77997l-2.41667,-0.16667v-4" data-paper-data="{&quot;index&quot;:null}" fill="none" stroke="#ff3030" stroke-width="2" stroke-linecap="round"/><path d="M239.44963,185.94664h-2l0.16667,-4.91667" data-paper-data="{&quot;index&quot;:null}" fill="none" stroke="#ff3030" stroke-width="2" stroke-linecap="round"/><path d="M246.6163,166.69664c0,0 0.84697,0.96965 0.89934,1.4934c0.05813,0.58134 -0.56601,1.83993 -0.56601,1.83993" data-paper-data="{&quot;index&quot;:null}" fill="none" stroke="#ff3030" stroke-width="2" stroke-linecap="round"/><path d="M234.6163,169.1133c0,0 -0.96317,-1.035 -0.90594,-1.60726c0.05365,-0.53655 1.23927,-1.72607 1.23927,-1.72607" data-paper-data="{&quot;index&quot;:null}" fill="none" stroke="#ff3030" stroke-width="2" stroke-linecap="round"/><path d="M240.26238,181.25754c-3.76586,0 -6.8187,-3.05283 -6.8187,-6.8187c0,-3.76586 3.05283,-6.8187 6.8187,-6.8187c3.76586,0 6.8187,3.05283 6.8187,6.8187c0,3.76586 -3.05283,6.8187 -6.8187,6.8187z" data-paper-data="{&quot;index&quot;:null}" fill="none" stroke="#f5f5f5" stroke-width="2" stroke-linecap="butt"/><path d="M240.49702,177.58593c-1.73809,0 -3.14709,-1.409 -3.14709,-3.14709c0,-1.73809 1.409,-3.14709 3.14709,-3.14709c1.73809,0 3.14709,1.409 3.14709,3.14709c0,1.73809 -1.409,3.14709 -3.14709,3.14709z" data-paper-data="{&quot;index&quot;:null}" fill="#ff3030" stroke="none" stroke-width="0.5" stroke-linecap="butt"/><path d="" data-paper-data="{&quot;index&quot;:null}" fill="none" stroke="#cdcdcd" stroke-width="1.5" stroke-linecap="round"/><path d="" data-paper-data="{&quot;index&quot;:null}" fill="none" stroke="#cdcdcd" stroke-width="1.5" stroke-linecap="round"/><path d="" data-paper-data="{&quot;index&quot;:null}" fill="none" stroke="#cdcdcd" stroke-width="1.5" stroke-linecap="round"/><path d="" data-paper-data="{&quot;index&quot;:null}" fill="none" stroke="#cdcdcd" stroke-width="1.5" stroke-linecap="round"/><path d="" data-paper-data="{&quot;index&quot;:null}" fill="none" stroke="#cdcdcd" stroke-width="1.5" stroke-linecap="round"/><path d="" data-paper-data="{&quot;index&quot;:null}" fill="none" stroke="#cdcdcd" stroke-width="1.5" stroke-linecap="round"/><path d="" data-paper-data="{&quot;index&quot;:null}" fill="none" stroke="#cdcdcd" stroke-width="1.5" stroke-linecap="round"/><path d="" data-paper-data="{&quot;index&quot;:null}" fill="none" stroke="#cdcdcd" stroke-width="1.5" stroke-linecap="round"/><path d="" data-paper-data="{&quot;index&quot;:null}" fill="none" stroke="#cdcdcd" stroke-width="1.5" stroke-linecap="round"/><path d="" data-paper-data="{&quot;index&quot;:null}" fill="none" stroke="#cdcdcd" stroke-width="1.5" stroke-linecap="round"/><path d="" data-paper-data="{&quot;index&quot;:null}" fill="none" stroke="#cdcdcd" stroke-width="1.5" stroke-linecap="round"/><path d="" data-paper-data="{&quot;index&quot;:null}" fill="none" stroke="#cdcdcd" stroke-width="1.5" stroke-linecap="round"/><path d="M219.94395,197.77023v-40.54748h40.54748v40.54748z" data-paper-data="{&quot;index&quot;:null}" fill="none" stroke="none" stroke-width="0" stroke-linecap="butt"/><path d="M201.45,218.55v-77.1h77.1v77.1z" fill="none" stroke="none" stroke-width="NaN" stroke-linecap="butt"/></g></g></svg>