<svg version="1.1" xmlns="http://www.w3.org/2000/svg" xmlns:xlink="http://www.w3.org/1999/xlink" width="88.25" height="88.25" viewBox="0,0,88.25,88.25"><defs><linearGradient x1="272.12036" y1="-156.86129" x2="272.12036" y2="367.04086" gradientUnits="userSpaceOnUse" id="color-1"><stop offset="0" stop-color="#96b2ff"/><stop offset="1" stop-color="#96b2ff" stop-opacity="0"/></linearGradient><radialGradient cx="240" cy="180" r="21.64286" gradientUnits="userSpaceOnUse" id="color-2"><stop offset="0" stop-color="#10ff00"/><stop offset="1" stop-color="#10ff00" stop-opacity="0"/></radialGradient></defs><g transform="translate(-195.875,-135.875)"><g data-paper-data="{&quot;isPaintingLayer&quot;:true}" fill-rule="nonzero" stroke-linejoin="miter" stroke-miterlimit="10" stroke-dasharray="" stroke-dashoffset="0" style="mix-blend-mode: normal"><path d="M214.43147,178.87301c0.16116,-14.07254 10.70712,-24.64363 24.94593,-24.33392c14.23881,0.30971 26.36132,10.61011 26.19141,25.4462c-0.16991,14.8361 -11.66277,25.80375 -26.77456,25.47505c-15.11179,-0.3287 -24.52394,-12.51479 -24.36278,-26.58733z" fill="url(#color-1)" stroke="#ffffff" stroke-width="1.5" stroke-linecap="butt"/><path d="M218.35714,180c0,-11.95302 9.68984,-21.64286 21.64286,-21.64286c11.95302,0 21.64286,9.68984 21.64286,21.64286c0,11.95302 -9.68984,21.64286 -21.64286,21.64286c-11.95302,0 -21.64286,-9.68984 -21.64286,-21.64286z" fill="url(#color-2)" stroke="#8719ff" stroke-width="0" stroke-linecap="butt"/><path d="M195.875,224.125v-88.25h88.25v88.25z" fill="none" stroke="none" stroke-width="NaN" stroke-linecap="butt"/><path d="M214.64287,180.00002c0,-14.00436 11.35278,-25.35714 25.35714,-25.35714c14.00436,0 25.35714,11.35278 25.35714,25.35714c0,14.00436 -11.35278,25.35714 -25.35714,25.35714c-14.00436,0 -25.35714,-11.35278 -25.35714,-25.35714z" fill="none" stroke="#ffffff" stroke-width="1" stroke-linecap="butt"/><path d="M227.91118,191.154c-4.93142,-5.34473 -4.59637,-13.6752 0.74836,-18.60662c5.34473,-4.93142 23.66662,-3.44418 23.66662,-3.44418c0,0 -0.23327,17.6552 -5.80835,22.79915c-5.34473,4.93142 -13.6752,4.59637 -18.60663,-0.74836z" data-paper-data="{&quot;index&quot;:null}" fill="#33ff6a" stroke="#00c740" stroke-width="1.5" stroke-linecap="butt"/><path d="M228.42122,196.97639c0,0 -1.08413,0.22923 -1.44473,0.01554c-0.41825,-0.24785 -0.91755,-1.41541 -0.91755,-1.41541c0,0 3.16902,-7.66998 9.13616,-14.23058c5.54861,-6.10045 16.6739,-12.01694 16.6739,-12.01694l0.26248,0.43746c0,0 -10.26803,5.54523 -15.42194,12.80535c-5.48265,7.72321 -8.28832,14.40457 -8.28832,14.40457z" fill="#00c740" stroke="#00c740" stroke-width="1.5" stroke-linecap="round"/><path d="M238.30779,178.6906c0,0 0.0312,-2.51216 0.68244,-3.81464c0.3893,-0.7786 1.94232,-2.48477 1.94232,-2.48477" fill="none" stroke="#00c740" stroke-width="1.5" stroke-linecap="round"/><path d="M247.7569,178.16566c0,0 -3.83126,3.02453 -5.61779,3.80786c-1.98403,0.86992 -5.75614,1.17916 -5.75614,1.17916" fill="none" stroke="#00c740" stroke-width="1.5" stroke-linecap="round"/><path d="M233.14577,186.38987c0,0 -2.16999,-4.47243 -2.42237,-6.5546c-0.20375,-1.68092 1.02251,-4.99431 1.02251,-4.99431" fill="none" stroke="#00c740" stroke-width="1.5" stroke-linecap="round"/><path d="M245.21963,188.40218c0,0 -5.11797,2.00105 -8.27432,2.43712c-2.17768,0.30087 -5.89934,-1.5622 -5.89934,-1.5622" fill="none" stroke="#00c740" stroke-width="1.5" stroke-linecap="round"/></g></g></svg>