<svg version="1.1" xmlns="http://www.w3.org/2000/svg" xmlns:xlink="http://www.w3.org/1999/xlink" width="88.25" height="88.25" viewBox="0,0,88.25,88.25"><defs><radialGradient cx="240.1875" cy="173.6875" r="18.08036" gradientUnits="userSpaceOnUse" id="color-1"><stop offset="0" stop-color="#ff0000"/><stop offset="1" stop-color="#ff0000" stop-opacity="0"/></radialGradient></defs><g transform="translate(-195.875,-135.875)"><g data-paper-data="{&quot;isPaintingLayer&quot;:true}" fill-rule="nonzero" stroke-linejoin="miter" stroke-miterlimit="10" stroke-dasharray="" stroke-dashoffset="0" style="mix-blend-mode: normal"><path d="M226.35729,188.0394v-4.375l13.625,0.5l-0.25,2.875z" fill="none" stroke="#8e5a39" stroke-width="1.5" stroke-linecap="butt"/><path d="M238.72242,183.59528l0.74965,-2.78678l12.97241,4.19609l-1.49821,4.11047z" data-paper-data="{&quot;index&quot;:null}" fill="none" stroke="#8e5a39" stroke-width="1.5" stroke-linecap="butt"/><path d="M232.81464,195.12959l-2.78851,-3.37118l10.8175,-8.29893l1.63981,2.37469z" fill="none" stroke="#8e5a39" stroke-width="1.5" stroke-linecap="butt"/><path d="M251.10449,192.01636l-1.99764,3.89231l-11.89346,-6.66606l1.53515,-2.44365z" fill="none" stroke="#8e5a39" stroke-width="1.5" stroke-linecap="butt"/><path d="M195.875,224.125v-88.25h88.25v88.25z" fill="none" stroke="none" stroke-width="NaN" stroke-linecap="butt"/><path d="M222.10714,173.6875c0,-9.98551 8.09485,-18.08036 18.08036,-18.08036c9.98551,0 18.08036,8.09485 18.08036,18.08036c0,9.98551 -8.09485,18.08036 -18.08036,18.08036c-9.98551,0 -18.08036,-8.09485 -18.08036,-18.08036z" fill="url(#color-1)" stroke="#8719ff" stroke-width="0" stroke-linecap="butt"/><path d="M237.10594,165.82202c0.38719,-2.83429 -1.70376,-7.12921 -1.70376,-7.12921c0,0 4.09912,0.19823 7.04775,4.57314c2.68593,3.98514 2.27469,5.64015 2.68144,7.62702c0.1483,0.72441 0.15518,0.14283 0.15518,0.14283c0,0 1.04663,-0.76477 1.48401,-1.66081c0.43738,-0.89604 0.5451,-2.49609 0.5451,-2.49609c0,0 3.50535,6.85612 2.68056,10.43431c-0.81863,3.55148 -0.27349,2.67476 -2.28745,5.71238c-1.22389,1.61142 -5.08137,3.64637 -7.81212,3.69481c-2.86725,0.04867 -7.67506,-1.26687 -8.73531,-3.18547c-2.5028,-3.46497 -2.75664,-6.64567 -1.96889,-10.34699c1.05543,-4.95903 4.24994,-6.38598 4.24994,-6.38598c0,0 -0.66411,2.5998 0.29394,4.08508c0,0 2.98242,-2.23073 3.36961,-5.06502z" data-paper-data="{&quot;index&quot;:null}" fill="#ff9400" stroke="#ff2222" stroke-width="1.5" stroke-linecap="round"/><path d="M238.08586,174.44814c-0.18539,-1.07618 -1.00754,-3.48005 -1.00754,-3.48005c0,0 1.49099,-0.05987 2.62076,0.81497c1.12978,0.87483 2.18241,2.93983 2.18241,2.93983c0,0 0.40251,-1.20433 1.35155,-1.72852c1.28724,-0.71097 2.2649,0.0302 2.2649,0.0302c0,0 -0.39056,0.28729 -0.87639,2.39498c-0.22756,0.98724 0.42047,3.96375 0.48018,4.15763c0.42303,1.3586 0.22049,2.8637 -0.5658,4.04965c-0.72092,0.94918 -2.99312,2.14785 -4.60163,2.17638c-1.68892,0.02867 -4.52089,-0.74624 -5.14542,-1.87636c-1.47424,-2.041 -1.07813,-4.73299 -0.61412,-6.91321c0.62168,-2.92106 1.95774,-2.94313 1.95774,-2.94313c0,0 -0.39119,1.53137 0.17314,2.40626c0.52662,0.81644 1.39905,0.30616 1.39905,0.30616c0,0 0.53284,-1.45437 0.38117,-2.33479z" data-paper-data="{&quot;index&quot;:null}" fill="#ffed1d" stroke="#ff2222" stroke-width="0" stroke-linecap="round"/><path d="M238.23684,180.27579c0,0 0.27807,-0.75899 0.19892,-1.21846c-0.09675,-0.56163 -0.52581,-1.81614 -0.52581,-1.81614c0,0 0.7781,-0.03124 1.3677,0.42531c0.5896,0.45655 1.13894,1.53421 1.13894,1.53421c0,0 0.21006,-0.62851 0.70534,-0.90206c0.67178,-0.37104 1.18199,0.01576 1.18199,0.01576c0,0 -0.20383,0.14993 -0.45736,1.24987c-0.11876,0.51521 0.21943,2.06857 0.25059,2.16975c0.22077,0.70902 0.11508,1.49448 -0.29527,2.1134c-0.37623,0.49536 -1.56202,1.12091 -2.40146,1.1358c-0.88141,0.01496 -2.35934,-0.38946 -2.68526,-0.97923c-0.76937,-1.06514 -0.56265,-2.47002 -0.32049,-3.60781c0.32444,-1.52442 1.02169,-1.53594 1.02169,-1.53594c0,0 -0.20414,0.79918 0.09036,1.25576c0.27483,0.42608 0.73013,0.15977 0.73013,0.15977z" data-paper-data="{&quot;index&quot;:null}" fill="#ffffff" stroke="#ff2222" stroke-width="0" stroke-linecap="round"/></g></g></svg>