<svg version="1.1" xmlns="http://www.w3.org/2000/svg" xmlns:xlink="http://www.w3.org/1999/xlink" width="98" height="20.50758" viewBox="0,0,98,20.50758"><defs><radialGradient cx="240" cy="180" r="49" gradientUnits="userSpaceOnUse" id="color-1"><stop offset="0" stop-color="#000000"/><stop offset="1" stop-color="#000000" stop-opacity="0"/></radialGradient></defs><g transform="translate(-191,-169.49242)"><g data-paper-data="{&quot;isPaintingLayer&quot;:true}" fill-rule="nonzero" stroke-linecap="butt" stroke-linejoin="miter" stroke-miterlimit="10" stroke-dasharray="" stroke-dashoffset="0" style="mix-blend-mode: normal"><path d="M191,190v-20h98v20z" fill="url(#color-1)" stroke="none" stroke-width="none"/><g data-paper-data="{&quot;index&quot;:null}" fill="none" stroke-width="1"><g stroke="none" font-family="sans-serif" font-weight="normal" font-size="12" text-anchor="start"/><path d="M227.88318,184.50665c-1.82608,0 -6.39675,0 -6.98248,0c-0.58573,0 -0.74199,0.13155 -1.17097,-0.32988c-0.42898,-0.46143 -0.32989,-0.65447 -0.32989,-1.28451c0,-1.89011 0,-4.19043 0,-6.87252c0,-0.6359 -0.06694,-0.86873 0.32989,-1.29955c0.39682,-0.43082 0.58524,-0.32988 1.17097,-0.32988c1.75718,0 4.25748,0 6.98248,0c0.6087,0 0.81317,-0.06134 1.22982,0.32988c0.41665,0.39122 0.32988,0.56308 0.32988,1.13461c0,2.76792 0,5.26668 0,7.09244c0,0.60859 0.10057,0.79917 -0.32988,1.22953c-0.43045,0.43037 -0.62112,0.32988 -1.22982,0.32988z" stroke="#ffffff"/></g><text transform="translate(221.88237,182.49107) scale(0.22717,0.22717)" font-size="40" xml:space="preserve" fill="#ffffff" fill-rule="nonzero" stroke="none" stroke-width="1" stroke-linecap="butt" stroke-linejoin="miter" stroke-miterlimit="10" stroke-dasharray="" stroke-dashoffset="0" font-family="Malgun Gothic" font-weight="normal" text-anchor="start" style="mix-blend-mode: normal"><tspan x="0" dy="0">S</tspan></text><text transform="translate(232.47198,183.87972) scale(0.32331,0.32331)" font-size="40" xml:space="preserve" fill="#ffffff" fill-rule="nonzero" stroke="none" stroke-width="1" stroke-linecap="butt" stroke-linejoin="miter" stroke-miterlimit="10" stroke-dasharray="" stroke-dashoffset="0" font-family="Malgun Gothic" font-weight="normal" text-anchor="start" style="mix-blend-mode: normal"><tspan x="0" dy="0">Grab</tspan></text></g></g></svg>