<svg version="1.1" xmlns="http://www.w3.org/2000/svg" xmlns:xlink="http://www.w3.org/1999/xlink" width="54.25" height="54.25" viewBox="0,0,54.25,54.25"><defs><linearGradient x1="249.44894" y1="169.76171" x2="229.68715" y2="176.66205" gradientUnits="userSpaceOnUse" id="color-1"><stop offset="0" stop-color="#ff22c0"/><stop offset="1" stop-color="#ff6a1a"/></linearGradient></defs><g transform="translate(-213.375,-152.875)"><g data-paper-data="{&quot;isPaintingLayer&quot;:true}" fill-rule="nonzero" stroke-linejoin="miter" stroke-miterlimit="10" stroke-dasharray="" stroke-dashoffset="0" style="mix-blend-mode: normal"><path d="M242.76394,192.34878c0,0 -1.87114,-4.61956 -0.994,-7.32474c1.28384,-3.95946 2.2294,-2.75136 2.84322,-4.67104c0.61383,-1.91967 0.91805,-4.26943 0.95933,-5.00918c0.01585,-0.28404 1.67526,-1.37534 2.02016,-1.64918c0.57153,-0.45379 0.94472,-1.61972 1.97784,-1.85807c0.84112,-0.19406 1.66076,-0.37765 1.66076,-0.37765" fill="none" stroke="#ffd0d0" stroke-width="2" stroke-linecap="round"/><path d="M248.7652,167.80353c0.20731,0.59372 -1.63889,1.27798 -1.31809,2.6115c0.32079,1.33351 2.48224,0.11417 2.14194,0.81319c-0.70823,1.4548 -3.55751,3.36726 -4.03564,4.5414c-4.20922,-3.54925 -7.1053,-5.41732 -12.68007,-3.47075c-1.45617,0.50846 -3.31887,1.31708 -3.99396,3.15234c-0.69555,-2.24124 1.95485,-5.44258 6.10356,-6.6668c5.77372,-1.70373 13.78226,-0.98089 13.78226,-0.98089z" fill="url(#color-1)" stroke="#ffffff" stroke-width="0.25" stroke-linecap="butt"/><path d="M213.375,207.125v-54.25h54.25v54.25z" fill="none" stroke="none" stroke-width="NaN" stroke-linecap="butt"/></g></g></svg>