<svg version="1.1" xmlns="http://www.w3.org/2000/svg" xmlns:xlink="http://www.w3.org/1999/xlink" width="280" height="160.57348" viewBox="0,0,280,160.57348"><defs><linearGradient x1="218.6126" y1="208.95305" x2="218.6126" y2="211.55535" gradientUnits="userSpaceOnUse" id="color-1"><stop offset="0" stop-color="#e2ffff"/><stop offset="1" stop-color="#e2ffff"/></linearGradient></defs><g transform="translate(-100,-99.71326)"><g data-paper-data="{&quot;isPaintingLayer&quot;:true}" stroke-miterlimit="10" stroke-dasharray="" stroke-dashoffset="0" style="mix-blend-mode: normal"><path d="M100,260.28674v-160.57348h280v160.57348z" fill="none" fill-rule="nonzero" stroke="none" stroke-width="NaN" stroke-linecap="butt" stroke-linejoin="miter"/><path d="M218.5902,206.81231l12.45357,12.45357l-12.45357,12.45357l-12.45357,-12.45357z" data-paper-data="{&quot;index&quot;:null}" fill="none" fill-rule="nonzero" stroke="#ffffff" stroke-width="1.5" stroke-linecap="butt" stroke-linejoin="miter"/><path d="M166.18839,168.97477l-0.04211,14.77878c0,1.02454 -0.29123,1.97191 -0.87368,2.84208c-0.82105,1.19297 -2.01401,1.78946 -3.5789,1.78946c-1.84559,0 -3.29471,-0.75087 -4.34732,-2.2526c-0.82105,-1.16491 -1.23156,-2.41401 -1.23156,-3.74732c0,-5.19292 0.16141,-12.99283 0.4842,-23.39971c0.32981,-10.41391 0.49473,-18.21733 0.49473,-23.41024c0,-1.30525 0.46667,-2.42453 1.39998,-3.35785c0.94033,-0.94033 2.11227,-1.41051 3.51575,-1.41051c1.40348,0 2.56488,0.47017 3.48418,1.41051c0.9263,0.93332 1.38945,2.05261 1.38945,3.35786c0,2.10524 -0.10526,4.94731 -0.31578,8.52621c-0.25262,4.16837 -0.40352,7.01045 -0.45262,8.52623c1.63506,-1.54384 7.70516,-8.04553 18.21031,-19.50503c1.07368,-1.17192 2.31224,-1.75787 3.71575,-1.75787c1.33333,0 2.49471,0.47017 3.48418,1.41051c0.99648,0.93332 1.49472,2.06664 1.49472,3.39997c0,1.45261 -2.78243,5.21748 -8.34727,11.29461c-4.11924,4.47012 -8.45954,8.88059 -13.02089,13.23142c2.55435,2.40699 5.11572,4.81398 7.68412,7.22097c2.99647,2.76488 5.68766,5.03502 8.07359,6.81044c1.19297,0.86314 2.48066,1.51927 3.86311,1.9684c2.49822,0.79297 3.74732,2.32278 3.74732,4.58943c0,1.01051 -0.31578,1.98245 -0.94735,2.91576c-0.86314,1.26315 -2.06664,1.89471 -3.61048,1.89471c-3.34732,0 -7.68763,-2.18594 -13.02089,-6.55781c-1.58596,-1.31227 -5.33678,-4.83503 -11.25249,-10.5683zM207.79412,142.35404c-1.49472,0 -2.79294,-0.50174 -3.89469,-1.50524c-1.10174,-1.01051 -1.6526,-2.24208 -1.6526,-3.69469c0,-1.4456 0.55086,-2.67015 1.65262,-3.67365c1.10174,-1.01051 2.39998,-1.51578 3.89469,-1.51578c1.49472,0 2.78592,0.50525 3.87363,1.51578c1.08771,1.0035 1.63157,2.22805 1.63157,3.67365c0,1.45261 -0.54385,2.68419 -1.63156,3.69469c-1.08771,1.0035 -2.37892,1.50524 -3.87363,1.50524zM210.77304,168.06952c0,1.33333 0.04211,3.47364 0.12632,6.42097c0.08421,2.94733 0.12632,5.08765 0.12632,6.42097c0,1.35437 -0.45613,2.47016 -1.3684,3.34732c-0.91227,0.87717 -2.07015,1.31577 -3.47364,1.31577c-1.40348,0 -2.56137,-0.43859 -3.47364,-1.31577c-0.91227,-0.87717 -1.3684,-1.99295 -1.3684,-3.34732c0,-1.33333 -0.04211,-3.47364 -0.12632,-6.42097c-0.08421,-2.94733 -0.12632,-5.08765 -0.12632,-6.42097c0,-2.08418 0.11579,-4.69117 0.34737,-7.82096c0.23859,-3.1368 0.35789,-5.7473 0.35789,-7.83149c0,-1.35437 0.45613,-2.47016 1.3684,-3.34732c0.91227,-0.87717 2.07016,-1.31577 3.47364,-1.31577c1.40348,0 2.56137,0.43859 3.47364,1.31577c0.91227,0.87717 1.3684,1.99295 1.3684,3.34732c0,2.08418 -0.11929,4.69468 -0.35789,7.83149c-0.23157,3.12978 -0.34737,5.73676 -0.34737,7.82096zM249.43727,185.96404c-1.84559,0 -3.24908,-0.89123 -4.21048,-2.67365c-1.14386,-2.1263 -2.86312,-4.63853 -5.15783,-7.53674c-3.55785,-4.51925 -5.44204,-6.91921 -5.65255,-7.19991c-1.86664,1.38243 -3.40698,2.43505 -4.62099,3.15786c-0.23859,3.2561 -0.35789,6.36836 -0.35789,9.33674c0,1.35437 -0.45613,2.47716 -1.3684,3.36838c-0.91227,0.89123 -2.07015,1.33682 -3.47364,1.33682c-3.2982,0 -4.94731,-1.96489 -4.94731,-5.89468c0,-1.85261 0.13333,-4.61749 0.39999,-8.29464c0.27369,-3.68417 0.41053,-6.45254 0.41053,-8.30516c0,-3.38943 0.05264,-7.26306 0.1579,-11.62092c0.10526,-4.36487 0.1579,-8.22095 0.1579,-11.56828c0,-1.0035 -0.05263,-2.18945 -0.1579,-3.55785c-0.10526,-1.3684 -0.15788,-2.55786 -0.15788,-3.56837c0,-1.35437 0.45613,-2.47016 1.3684,-3.34732c0.91227,-0.87717 2.07016,-1.31577 3.47364,-1.31577c1.40348,0 2.56137,0.43859 3.47364,1.31577c0.91227,0.87717 1.3684,1.99295 1.3684,3.34732c0,1.03156 0.05614,2.24909 0.16842,3.65258c0.1193,1.40348 0.17894,2.62103 0.17894,3.65258c0,2.77891 -0.07018,6.07713 -0.21053,9.89461c-0.14035,3.64908 -0.1965,6.89816 -0.16841,9.74725c3.1789,-2.45611 8.01744,-6.92273 14.51561,-13.39984c1.03156,-1.03156 2.20348,-1.54735 3.51575,-1.54735c1.30525,0 2.45962,0.48068 3.46312,1.44209c1.01051,0.96138 1.51578,2.07367 1.51578,3.3368c0,1.07368 -0.45613,2.11225 -1.3684,3.11575c-2.75786,3.08768 -6.04555,6.31572 -9.86303,9.6841l7.30517,9.39989c3.52979,4.7017 5.29468,7.83851 5.29468,9.41041c0,1.28419 -0.51579,2.37541 -1.54735,3.27365c-1.02454,0.90526 -2.19296,1.35788 -3.50522,1.35788zM266.73501,142.35404c-1.49472,0 -2.79294,-0.50174 -3.89469,-1.50524c-1.10174,-1.01051 -1.6526,-2.24208 -1.6526,-3.69469c0,-1.4456 0.55086,-2.67015 1.65262,-3.67365c1.10174,-1.01051 2.39998,-1.51578 3.89469,-1.51578c1.49472,0 2.78592,0.50525 3.87363,1.51578c1.08771,1.0035 1.63156,2.22805 1.63156,3.67365c0,1.45261 -0.54385,2.68419 -1.63156,3.69469c-1.08771,1.0035 -2.37892,1.50524 -3.87363,1.50524zM269.71394,168.06952c0,1.33333 0.04211,3.47364 0.12632,6.42097c0.08421,2.94733 0.12632,5.08765 0.12632,6.42097c0,1.35437 -0.45613,2.47016 -1.3684,3.34732c-0.91227,0.87717 -2.07015,1.31577 -3.47364,1.31577c-1.40349,0 -2.56138,-0.43859 -3.47364,-1.31577c-0.91227,-0.87717 -1.3684,-1.99295 -1.3684,-3.34732c0,-1.33333 -0.04211,-3.47364 -0.12632,-6.42097c-0.08421,-2.94733 -0.12632,-5.08765 -0.12632,-6.42097c0,-2.08418 0.11578,-4.69117 0.34737,-7.82096c0.2386,-3.1368 0.3579,-5.7473 0.3579,-7.83149c0,-1.35437 0.45613,-2.47016 1.3684,-3.34732c0.91227,-0.87717 2.07015,-1.31577 3.47364,-1.31577c1.40349,0 2.56137,0.43859 3.47364,1.31577c0.91227,0.87717 1.3684,1.99295 1.3684,3.34732c0,2.08418 -0.11929,4.69468 -0.35789,7.83149c-0.23157,3.12978 -0.34737,5.73676 -0.34737,7.82096zM282.31532,146.14346c1.35437,0 2.46313,-0.52631 3.32626,-1.57893c0.63158,-0.75087 1.01753,-1.59296 1.15789,-2.52628c0.82105,-5.10169 1.23156,-8.06307 1.23156,-8.8841c0,-1.26315 -0.39298,-2.29471 -1.17894,-3.09469c-0.77894,-0.80702 -1.81402,-1.21052 -3.10522,-1.21052c-2.59646,0 -4.10521,1.29473 -4.52626,3.88416c-0.81402,4.98239 -1.22104,8.01395 -1.22104,9.09463c0,1.26315 0.39649,2.29821 1.18946,3.10522c0.79297,0.80702 1.83507,1.21052 3.12629,1.21052zM319.81151,158.83806c-2.31577,0 -3.70521,-0.96841 -4.16837,-2.90523c-0.94033,-0.16842 -1.90173,-0.25263 -2.88418,-0.25263c-5.63502,0 -8.45252,0.77191 -8.45252,2.31577c0,0.91227 1.69823,2.14033 5.09468,3.68417c4.6245,2.13331 7.75781,3.79293 9.39989,4.9789c3.38943,2.45611 5.08415,5.22801 5.08415,8.31568c0,4.02803 -1.87014,7.08061 -5.61046,9.15779c-3.01751,1.66314 -6.72622,2.49471 -11.12618,2.49471c-3.10874,0 -5.9508,-0.4807 -8.52621,-1.44209c-3.50872,-1.30525 -5.2631,-3.23505 -5.2631,-5.78941c0,-2.33681 1.39297,-3.50521 4.17889,-3.50521c1.07368,0 2.62804,0.34035 4.66311,1.02105c2.03507,0.67367 3.60346,1.01051 4.7052,1.01051c4.7438,0 7.12975,-0.95789 7.15781,-2.87364c0,-1.19297 -1.64909,-2.51575 -4.94731,-3.96837c-4.82098,-2.1263 -7.90868,-3.65609 -9.26305,-4.58943c-3.2982,-2.31577 -4.94731,-5.13327 -4.94731,-8.45252c0,-4.7017 2.4912,-7.87358 7.47359,-9.51568c2.92629,-0.95438 7.36834,-1.43157 13.32615,-1.43157c2.34383,0 4.07715,0.30175 5.19993,0.90526c1.54384,0.82105 2.31577,2.3298 2.31577,4.52626c0,4.21048 -1.13683,6.31572 -3.41048,6.31572z" fill="#ffffff" fill-rule="nonzero" stroke="none" stroke-width="1" stroke-linecap="square" stroke-linejoin="miter"/><path d="M346.47194,197.83145h-213.39619" fill="#e2ffff" fill-rule="evenodd" stroke="none" stroke-width="1" stroke-linecap="square" stroke-linejoin="miter"/><path d="M358.51495,197.83145h-236.47862" fill="#e2ffff" fill-rule="evenodd" stroke="#ffffff" stroke-width="3" stroke-linecap="butt" stroke-linejoin="round"/><path d="M215.88538,225.7387l-1.17826,-2.78608l1.03957,-2.6444l2.84351,-1.23867l2.78662,1.17882l1.09644,2.70426l-1.08622,2.83488" fill="none" fill-rule="nonzero" stroke="#ffffff" stroke-width="1.5" stroke-linecap="butt" stroke-linejoin="miter"/><path d="M214.26759,214.38042c1.77112,0.72291 2.54192,2.74606 2.54192,2.74606c0,0 -2.1008,0.85106 -3.87192,0.12815" fill="none" fill-rule="nonzero" stroke="#ffffff" stroke-width="1.5" stroke-linecap="butt" stroke-linejoin="miter"/><path d="M220.17179,211.69605c0.00631,1.91297 -1.57018,3.54156 -1.57018,3.54156c0,0 -1.58671,-1.47295 -1.593,-3.38591" data-paper-data="{&quot;index&quot;:null}" fill="none" fill-rule="nonzero" stroke="#ffffff" stroke-width="1.5" stroke-linecap="butt" stroke-linejoin="miter"/><path d="M224.24283,217.25464c-1.77112,0.72291 -3.87192,-0.12815 -3.87192,-0.12815c0,0 0.77078,-2.02315 2.54192,-2.74606" data-paper-data="{&quot;index&quot;:null}" fill="none" fill-rule="nonzero" stroke="#ffffff" stroke-width="1.5" stroke-linecap="butt" stroke-linejoin="miter"/><path d="M211.9335,221.70667l-2.44079,-2.44079l2.44079,-2.44079" fill="none" fill-rule="nonzero" stroke="#ffffff" stroke-width="1.5" stroke-linecap="butt" stroke-linejoin="miter"/><path d="M225.2469,216.82508l2.44079,2.44079l-2.44079,2.44079" data-paper-data="{&quot;index&quot;:null}" fill="none" fill-rule="nonzero" stroke="#ffffff" stroke-width="1.5" stroke-linecap="butt" stroke-linejoin="miter"/><path d="M218.52213,228.782v-6.59868" fill="none" fill-rule="nonzero" stroke="#ffffff" stroke-width="1.5" stroke-linecap="butt" stroke-linejoin="miter"/><path d="M218.6126,211.55535l-1.30114,-1.30116l1.30114,-1.30114l1.30114,1.30114z" fill="#ffffff" fill-rule="nonzero" stroke="url(#color-1)" stroke-width="0" stroke-linecap="butt" stroke-linejoin="miter"/><path d="M122.22796,223.95811c-0.25262,0 -0.46667,-0.08772 -0.64209,-0.26315c-0.17544,-0.17544 -0.26315,-0.38947 -0.26315,-0.64209v-12.92617c0,-0.25965 0.08772,-0.47367 0.26315,-0.64209c0.17544,-0.17544 0.38947,-0.26315 0.64209,-0.26315c0.35087,0 0.61403,0.1579 0.78946,0.47368l6.06308,12.11565h-0.62104l5.91572,-12.11565c0.18947,-0.31578 0.45613,-0.47367 0.79999,-0.47367c0.2456,0 0.45613,0.08772 0.63157,0.26315c0.18245,0.16842 0.27369,0.38246 0.27369,0.6421v12.92617c0,0.25262 -0.09123,0.46665 -0.27369,0.64209c-0.17544,0.17544 -0.38596,0.26315 -0.63157,0.26315c-0.25262,0 -0.46667,-0.08772 -0.64209,-0.26315c-0.17544,-0.17544 -0.26315,-0.38947 -0.26315,-0.64209v-10.48409l0.35789,-0.06315l-5.15783,10.50513c-0.18947,0.30175 -0.44561,0.45264 -0.76842,0.45264c-0.37895,0 -0.65613,-0.18245 -0.83155,-0.54735l-5.12626,-10.25252l0.36841,-0.09473v10.48409c0,0.25262 -0.0842,0.46665 -0.25262,0.64209c-0.16842,0.17544 -0.37895,0.26315 -0.63157,0.26315zM146.29935,223.95811c-0.26666,0 -0.4807,-0.0807 -0.64209,-0.24211c-0.16139,-0.16842 -0.24211,-0.38244 -0.24211,-0.64209v-8.54727c0,-0.26666 0.0807,-0.4807 0.24211,-0.64209c0.16139,-0.16139 0.37543,-0.24211 0.64209,-0.24211c0.26666,0 0.4807,0.0807 0.6421,0.24211c0.16139,0.16139 0.24211,0.37543 0.24211,0.64209v8.54727c0,0.25965 -0.0807,0.47368 -0.24209,0.6421c-0.16139,0.16139 -0.37543,0.24211 -0.64209,0.24211zM146.29935,211.86353c-0.31578,0 -0.59298,-0.11578 -0.83157,-0.34737c-0.23157,-0.23157 -0.34737,-0.50525 -0.34737,-0.82105c0,-0.33683 0.11579,-0.61403 0.34737,-0.83157c0.23859,-0.22456 0.51579,-0.33683 0.83157,-0.33683c0.30877,0 0.57895,0.11229 0.81052,0.33683c0.23859,0.21754 0.3579,0.49473 0.3579,0.83157c0,0.31578 -0.11578,0.58946 -0.34737,0.82105c-0.22456,0.23157 -0.49823,0.34737 -0.82105,0.34737zM160.99471,224.03178c-1.0035,0 -1.89822,-0.22806 -2.68416,-0.68419c-0.77893,-0.46316 -1.39297,-1.08771 -1.84208,-1.87367c-0.4421,-0.78596 -0.66315,-1.67366 -0.66315,-2.66312c0,-1.01753 0.21754,-1.92279 0.65263,-2.71576c0.43508,-0.79297 1.03156,-1.41051 1.78946,-1.85261c0.76491,-0.44913 1.63506,-0.67367 2.61049,-0.67367c0.75788,0 1.4456,0.14385 2.06313,0.43158c0.62455,0.28772 1.18244,0.71928 1.67366,1.29473c0.16139,0.18245 0.22106,0.37543 0.17894,0.57894c-0.04211,0.1965 -0.17193,0.36843 -0.38947,0.51579c-0.16139,0.1193 -0.34035,0.16141 -0.53683,0.12632c-0.18947,-0.04211 -0.36841,-0.14736 -0.53683,-0.31578c-0.65263,-0.71578 -1.47015,-1.07366 -2.4526,-1.07366c-0.66666,0 -1.25261,0.15438 -1.75787,0.46314c-0.49823,0.30877 -0.89123,0.74036 -1.17894,1.29473c-0.28071,0.55438 -0.42104,1.19647 -0.42104,1.92629c0,0.70175 0.14736,1.32631 0.4421,1.87367c0.30175,0.54735 0.71227,0.98244 1.23156,1.30524c0.51929,0.31578 1.12631,0.47368 1.82104,0.47368c0.44913,0 0.85263,-0.05614 1.21052,-0.16842c0.36492,-0.11229 0.69121,-0.29474 0.97893,-0.54737c0.18947,-0.14736 0.37895,-0.22806 0.56842,-0.24209c0.1965,-0.01403 0.37193,0.04211 0.52631,0.16842c0.1965,0.16139 0.30528,0.34737 0.32632,0.55789c0.02105,0.21053 -0.05263,0.38947 -0.22105,0.53683c-0.90526,0.84209 -2.03506,1.26315 -3.38943,1.26315zM173.96794,217.54766c0.01403,-0.77191 0.20702,-1.45963 0.57895,-2.06313c0.37193,-0.60351 0.86666,-1.08069 1.4842,-1.43157c0.62455,-0.35087 1.30876,-0.52631 2.05261,-0.52631c0.69473,0 1.21753,0.11229 1.56841,0.33683c0.35087,0.21754 0.48773,0.48773 0.41053,0.81052c-0.04912,0.17544 -0.12632,0.30877 -0.23157,0.39999c-0.10526,0.09123 -0.23508,0.14385 -0.38946,0.1579c-0.14736,0.00702 -0.31228,-0.00702 -0.49473,-0.04211c-0.77893,-0.12632 -1.47366,-0.10876 -2.08418,0.05264c-0.61052,0.16139 -1.09122,0.43859 -1.44209,0.83157c-0.35087,0.38596 -0.52631,0.87718 -0.52631,1.47366zM174.03109,223.95811c-0.28071,0 -0.49823,-0.07018 -0.65263,-0.21053c-0.14736,-0.14736 -0.22105,-0.36492 -0.22105,-0.65263v-8.58936c0,-0.27369 0.07369,-0.4842 0.22106,-0.63157c0.15438,-0.15438 0.37193,-0.23157 0.65263,-0.23157c0.28772,0 0.50174,0.07369 0.64209,0.22106c0.14736,0.14035 0.22106,0.35438 0.22106,0.64209v8.58938c0,0.27369 -0.07369,0.48771 -0.22105,0.6421c-0.14035,0.14736 -0.35438,0.22105 -0.64209,0.22105zM192.36611,224.03178c-1.01051,0 -1.90874,-0.22105 -2.6947,-0.66315c-0.78596,-0.44913 -1.40349,-1.06665 -1.85261,-1.85261c-0.4421,-0.78596 -0.66315,-1.68769 -0.66315,-2.70524c0,-1.03156 0.22105,-1.94032 0.66315,-2.72628c0.44913,-0.78596 1.06666,-1.39998 1.85262,-1.84208c0.78596,-0.44913 1.6842,-0.67367 2.6947,-0.67367c1.0035,0 1.89471,0.22456 2.67365,0.67367c0.77893,0.4421 1.39297,1.05613 1.84208,1.84208c0.45614,0.78596 0.68421,1.69471 0.68421,2.72628c0,1.01753 -0.22456,1.91928 -0.67367,2.70524c-0.4421,0.78596 -1.05262,1.40348 -1.83156,1.85261c-0.77893,0.4421 -1.67717,0.66316 -2.6947,0.66316zM192.36611,222.46339c0.67367,0 1.27367,-0.15439 1.79998,-0.46316c0.53334,-0.31578 0.95087,-0.74736 1.25261,-1.29473c0.30175,-0.54735 0.45264,-1.17894 0.45264,-1.89471c0,-0.71578 -0.15088,-1.35086 -0.45262,-1.90523c-0.30175,-0.55438 -0.71928,-0.98947 -1.25261,-1.30525c-0.52631,-0.31578 -1.12631,-0.47367 -1.79996,-0.47367c-0.6807,0 -1.28771,0.1579 -1.82104,0.47368c-0.52631,0.31578 -0.94033,0.75087 -1.24209,1.30525c-0.30175,0.55438 -0.45262,1.18946 -0.45262,1.90523c0,0.71578 0.15087,1.34736 0.45262,1.89471c0.30175,0.54735 0.71579,0.97893 1.2421,1.29473c0.53334,0.30877 1.14034,0.46316 1.82104,0.46316zM244.44599,224.03178c-0.98245,0 -1.86664,-0.22806 -2.65259,-0.68419c-0.78596,-0.46316 -1.41051,-1.08771 -1.87367,-1.87367c-0.45614,-0.79297 -0.68421,-1.68769 -0.68421,-2.68418c0,-0.99648 0.21403,-1.8877 0.64209,-2.67365c0.42807,-0.78596 1.01051,-1.407 1.74735,-1.86313c0.74385,-0.45614 1.58244,-0.68421 2.51577,-0.68421c0.77893,0 1.49121,0.16139 2.13682,0.4842c0.65263,0.31578 1.18595,0.75087 1.59999,1.30525v-5.24204c0,-0.26666 0.0842,-0.4807 0.25262,-0.64209c0.16842,-0.16842 0.37895,-0.25262 0.63158,-0.25262c0.26666,0 0.4807,0.0842 0.6421,0.25262c0.16139,0.16139 0.24211,0.37544 0.24211,0.6421v8.69462c0,0.98947 -0.23157,1.88068 -0.69472,2.67365c-0.45614,0.79297 -1.07719,1.41752 -1.86313,1.87367c-0.78596,0.44913 -1.66665,0.67367 -2.64207,0.67367zM244.44599,222.46339c0.67367,0 1.27016,-0.15788 1.78946,-0.47367c0.52631,-0.3228 0.94384,-0.7614 1.25261,-1.31577c0.30877,-0.5614 0.46316,-1.18946 0.46316,-1.88417c0,-0.70175 -0.15439,-1.32631 -0.46316,-1.87367c-0.30877,-0.54735 -0.7263,-0.98245 -1.25261,-1.30525c-0.51929,-0.3228 -1.11577,-0.4842 -1.78946,-0.4842c-0.65263,0 -1.24912,0.16141 -1.78946,0.4842c-0.53334,0.3228 -0.95438,0.75788 -1.26315,1.30525c-0.30877,0.54735 -0.46316,1.17192 -0.46316,1.87367c0,0.69473 0.15439,1.32279 0.46316,1.88419c0.30877,0.55438 0.72981,0.99298 1.26315,1.31577c0.54034,0.31578 1.13683,0.47368 1.78946,0.47368zM262.96821,224.05284c-0.8842,0 -1.67366,-0.18596 -2.36839,-0.55788c-0.68772,-0.37193 -1.23156,-0.91578 -1.63156,-1.63156c-0.39999,-0.71578 -0.6,-1.58945 -0.6,-2.62103v-4.73679c0,-0.25262 0.08421,-0.46314 0.25263,-0.63157c0.16842,-0.16842 0.37895,-0.25263 0.63157,-0.25263c0.25262,0 0.46314,0.08421 0.63157,0.25263c0.16842,0.16842 0.25263,0.37895 0.25263,0.63157v4.73679c0,0.72981 0.13684,1.3298 0.41053,1.79998c0.28071,0.47017 0.65613,0.82455 1.12631,1.06316c0.47017,0.23157 0.99999,0.34737 1.58945,0.34737c0.56842,0 1.07368,-0.11229 1.51578,-0.33684c0.44913,-0.23157 0.80702,-0.53332 1.07368,-0.90526c0.26666,-0.37895 0.39999,-0.807 0.39999,-1.28419h1.12631c-0.01403,0.77893 -0.21754,1.4842 -0.61052,2.11576c-0.38596,0.62455 -0.90877,1.11577 -1.56841,1.47366c-0.65964,0.35789 -1.40348,0.53683 -2.23155,0.53683zM267.11554,223.95811c-0.25262,0 -0.45964,-0.0807 -0.62104,-0.24211c-0.16139,-0.16842 -0.24209,-0.38244 -0.24209,-0.64209v-8.56832c0,-0.25965 0.0807,-0.47017 0.24211,-0.63157c0.16139,-0.16842 0.36843,-0.25263 0.62104,-0.25263c0.26666,0 0.4807,0.08421 0.64209,0.25263c0.16139,0.16139 0.24211,0.37192 0.24211,0.63157v8.56832c0,0.25965 -0.0807,0.47367 -0.24211,0.64209c-0.16139,0.16139 -0.37543,0.24211 -0.64209,0.24211zM285.67976,223.97916c-0.25263,0 -0.46316,-0.0842 -0.63158,-0.25262c-0.16842,-0.17544 -0.25263,-0.38596 -0.25263,-0.63158v-4.73679c0,-0.72981 -0.13684,-1.3298 -0.41052,-1.79996c-0.27368,-0.47719 -0.6456,-0.83157 -1.11577,-1.06314c-0.47017,-0.23157 -0.99999,-0.34737 -1.58945,-0.34737c-0.56842,0 -1.07717,0.11579 -1.5263,0.34737c-0.4421,0.22456 -0.79648,0.52631 -1.06314,0.90526c-0.25965,0.37193 -0.38947,0.79648 -0.38947,1.27368h-1.15788c0.01403,-0.79297 0.21403,-1.49823 0.6,-2.11576c0.39298,-0.62455 0.9228,-1.11578 1.58945,-1.47367c0.66666,-0.35789 1.41752,-0.53683 2.2526,-0.53683c0.86315,0 1.63857,0.18596 2.3263,0.55789c0.69473,0.37193 1.24209,0.91578 1.64208,1.63157c0.40701,0.71578 0.61052,1.58945 0.61052,2.62103v4.73677c0,0.2456 -0.0842,0.45614 -0.25262,0.63158c-0.16842,0.16842 -0.37895,0.25262 -0.63158,0.25262zM277.81669,223.97916c-0.26666,0 -0.4842,-0.0842 -0.65263,-0.25262c-0.16139,-0.17544 -0.24209,-0.38596 -0.24209,-0.63158v-8.56832c0,-0.26666 0.0807,-0.4807 0.24211,-0.64209c0.16842,-0.16139 0.38596,-0.24209 0.65263,-0.24209c0.25965,0 0.47017,0.0807 0.63158,0.24211c0.16842,0.16139 0.25263,0.37543 0.25263,0.64209v8.56832c0,0.2456 -0.08421,0.45614 -0.25263,0.63158c-0.16139,0.16842 -0.37193,0.25263 -0.63158,0.25263zM299.65459,224.03178c-0.95438,0 -1.79998,-0.22105 -2.53682,-0.66315c-0.73684,-0.44913 -1.31577,-1.06665 -1.73683,-1.85261c-0.42105,-0.78596 -0.63157,-1.68769 -0.63157,-2.70524c0,-1.03156 0.22105,-1.94032 0.66315,-2.72628c0.44913,-0.78596 1.06666,-1.39998 1.85262,-1.84208c0.78596,-0.44913 1.68418,-0.67367 2.6947,-0.67367c1.01753,0 1.91577,0.22456 2.6947,0.67367c0.77894,0.4421 1.38946,1.05613 1.83156,1.84208c0.44913,0.78596 0.67367,1.69471 0.67367,2.72628l-1.01051,0.14736c0,0.99648 -0.19299,1.87717 -0.57894,2.64209c-0.38596,0.75788 -0.91578,1.35437 -1.58945,1.78946c-0.67367,0.42807 -1.44911,0.6421 -2.32627,0.6421zM299.95984,228.16859c-0.93332,0 -1.78593,-0.18245 -2.55786,-0.54737c-0.77191,-0.35789 -1.41754,-0.87017 -1.93682,-1.53682c-0.16139,-0.18245 -0.22456,-0.37895 -0.18947,-0.58946c0.04211,-0.21053 0.1579,-0.38246 0.34737,-0.51579c0.1965,-0.14035 0.41053,-0.18596 0.6421,-0.13684c0.2386,0.04912 0.42456,0.16139 0.55789,0.33683c0.35087,0.4421 0.79297,0.78946 1.3263,1.0421c0.54034,0.25262 1.14735,0.37895 1.82104,0.37895c0.64561,0 1.23156,-0.15439 1.75787,-0.46316c0.52631,-0.30877 0.94735,-0.75437 1.26315,-1.33682c0.31578,-0.57543 0.47368,-1.27718 0.47368,-2.10524v-2.73682l0.58946,-1.47366l1.10525,0.32632v3.99995c0,1.0035 -0.22105,1.90874 -0.66315,2.71576c-0.43507,0.81403 -1.04559,1.45612 -1.83155,1.92629c-0.78596,0.47719 -1.68769,0.71578 -2.70524,0.71578zM299.95984,222.46339c0.6877,0 1.29122,-0.15439 1.8105,-0.46316c0.52631,-0.31578 0.94033,-0.74736 1.24209,-1.29473c0.30175,-0.54735 0.45262,-1.17894 0.45262,-1.89471c0,-0.71578 -0.15087,-1.35086 -0.45262,-1.90523c-0.30175,-0.55438 -0.71579,-0.98947 -1.2421,-1.30525c-0.51928,-0.31578 -1.1228,-0.47367 -1.8105,-0.47367c-0.6807,0 -1.2877,0.1579 -1.82102,0.47368c-0.52631,0.31578 -0.94033,0.75087 -1.24209,1.30525c-0.30175,0.55438 -0.45262,1.18946 -0.45262,1.90523c0,0.71578 0.15088,1.34736 0.45262,1.89471c0.30175,0.54735 0.71579,0.97893 1.2421,1.29473c0.53334,0.30877 1.14034,0.46316 1.82104,0.46316zM318.34337,224.03178c-1.02454,0 -1.94032,-0.22105 -2.74733,-0.66315c-0.80702,-0.44913 -1.43858,-1.06665 -1.89471,-1.85261c-0.44913,-0.78596 -0.67367,-1.68769 -0.67367,-2.70524c0,-1.03156 0.21403,-1.94032 0.6421,-2.72628c0.42807,-0.78596 1.02104,-1.39998 1.77892,-1.84208c0.76491,-0.44913 1.63857,-0.67367 2.62103,-0.67367c0.96841,0 1.80699,0.21754 2.51577,0.65263c0.70876,0.42807 1.25262,1.02454 1.63157,1.78946c0.37895,0.75788 0.56842,1.63506 0.56842,2.63155c0,0.22456 -0.07718,0.41052 -0.23157,0.55788c-0.14736,0.14035 -0.34035,0.21053 -0.57892,0.21053h-7.73675v-1.41052h7.74728l-0.78946,0.54737c0,-0.66666 -0.12632,-1.25962 -0.37895,-1.77892c-0.25263,-0.52631 -0.61052,-0.94033 -1.07368,-1.24209c-0.46316,-0.30175 -1.02102,-0.45262 -1.67366,-0.45262c-0.72281,0 -1.34385,0.16141 -1.86313,0.4842c-0.51928,0.31578 -0.91577,0.75788 -1.18944,1.3263c-0.26666,0.56842 -0.39999,1.21052 -0.39999,1.92629c0,0.71578 0.1579,1.35437 0.47368,1.91577c0.3228,0.55438 0.76491,0.99296 1.32631,1.31577c0.5614,0.3228 1.2035,0.4842 1.92629,0.4842c0.42105,0 0.84209,-0.07367 1.26315,-0.22103c0.42105,-0.15438 0.7614,-0.33334 1.02105,-0.53683c0.17544,-0.12632 0.36492,-0.19297 0.56842,-0.19999c0.2035,-0.00702 0.37895,0.05263 0.52631,0.17894c0.2035,0.17544 0.30877,0.36843 0.31578,0.57895c0.01403,0.21053 -0.07718,0.38947 -0.27368,0.53683c-0.41402,0.33683 -0.94384,0.61754 -1.58945,0.84209c-0.6386,0.21754 -1.24912,0.32632 -1.83156,0.32632zM335.44118,224.03178c-1.01051,0 -1.90874,-0.22105 -2.6947,-0.66315c-0.78596,-0.44913 -1.40349,-1.06665 -1.85262,-1.85261c-0.4421,-0.78596 -0.66315,-1.68769 -0.66315,-2.70524c0,-1.03156 0.22106,-1.94032 0.66316,-2.72628c0.44913,-0.78596 1.06665,-1.39998 1.85261,-1.84208c0.78596,-0.44913 1.6842,-0.67367 2.6947,-0.67367c1.0035,0 1.89471,0.22456 2.67365,0.67367c0.77894,0.4421 1.39297,1.05613 1.84208,1.84208c0.45613,0.78596 0.68421,1.69471 0.68421,2.72628c0,1.01753 -0.22456,1.91928 -0.67367,2.70524c-0.4421,0.78596 -1.05262,1.40348 -1.83156,1.85261c-0.77894,0.4421 -1.67717,0.66316 -2.6947,0.66316zM335.44118,222.46339c0.67367,0 1.27367,-0.15439 1.79998,-0.46316c0.53334,-0.31578 0.95087,-0.74736 1.25262,-1.29473c0.30175,-0.54735 0.45262,-1.17894 0.45262,-1.89471c0,-0.71578 -0.15087,-1.35086 -0.45262,-1.90523c-0.30175,-0.55438 -0.71928,-0.98947 -1.25261,-1.30525c-0.52631,-0.31578 -1.12631,-0.47367 -1.79996,-0.47367c-0.6807,0 -1.2877,0.1579 -1.82104,0.47368c-0.52631,0.31578 -0.94033,0.75087 -1.2421,1.30525c-0.30175,0.55438 -0.45262,1.18946 -0.45262,1.90523c0,0.71578 0.15088,1.34736 0.45262,1.89471c0.30175,0.54735 0.71579,0.97893 1.2421,1.29473c0.53334,0.30877 1.14034,0.46316 1.82104,0.46316zM357.79307,223.97916c-0.25263,0 -0.46314,-0.0842 -0.63157,-0.25262c-0.16842,-0.17544 -0.25263,-0.38596 -0.25263,-0.63158v-4.73679c0,-0.72981 -0.13684,-1.3298 -0.41053,-1.79996c-0.27368,-0.47719 -0.6456,-0.83157 -1.11577,-1.06314c-0.47017,-0.23157 -0.99999,-0.34737 -1.58945,-0.34737c-0.56842,0 -1.07717,0.11579 -1.52629,0.34737c-0.4421,0.22456 -0.79648,0.52631 -1.06314,0.90526c-0.25965,0.37193 -0.38947,0.79648 -0.38947,1.27368h-1.15789c0.01403,-0.79297 0.21402,-1.49823 0.6,-2.11576c0.39298,-0.62455 0.92281,-1.11578 1.58947,-1.47367c0.66666,-0.35789 1.41752,-0.53683 2.2526,-0.53683c0.86315,0 1.63857,0.18596 2.32629,0.55789c0.69473,0.37193 1.2421,0.91578 1.64208,1.63157c0.40701,0.71578 0.61052,1.58945 0.61052,2.62103v4.73677c0,0.2456 -0.08421,0.45614 -0.25263,0.63158c-0.16842,0.16842 -0.37895,0.25262 -0.63158,0.25262zM349.93001,223.97916c-0.26666,0 -0.4842,-0.0842 -0.65263,-0.25262c-0.16139,-0.17544 -0.24209,-0.38596 -0.24209,-0.63158v-8.56832c0,-0.26666 0.0807,-0.4807 0.24211,-0.64209c0.16842,-0.16139 0.38596,-0.24209 0.65263,-0.24209c0.25965,0 0.47017,0.0807 0.63158,0.24211c0.16842,0.16139 0.25262,0.37543 0.25262,0.64209v8.56832c0,0.2456 -0.0842,0.45614 -0.25262,0.63158c-0.16139,0.16842 -0.37193,0.25263 -0.63158,0.25263z" fill="#ffffff" fill-rule="nonzero" stroke="none" stroke-width="1" stroke-linecap="square" stroke-linejoin="miter"/></g></g></svg>