<svg version="1.1" xmlns="http://www.w3.org/2000/svg" xmlns:xlink="http://www.w3.org/1999/xlink" width="88.25" height="88.25" viewBox="0,0,88.25,88.25"><defs><radialGradient cx="240" cy="180" r="21.64286" gradientUnits="userSpaceOnUse" id="color-1"><stop offset="0" stop-color="#ffae00"/><stop offset="1" stop-color="#ffae00" stop-opacity="0"/></radialGradient></defs><g transform="translate(-195.875,-135.875)"><g data-paper-data="{&quot;isPaintingLayer&quot;:true}" fill-rule="nonzero" stroke-linejoin="miter" stroke-miterlimit="10" stroke-dasharray="" stroke-dashoffset="0" style="mix-blend-mode: normal"><path d="M218.35714,180c0,-11.95302 9.68984,-21.64286 21.64286,-21.64286c11.95302,0 21.64286,9.68984 21.64286,21.64286c0,11.95302 -9.68984,21.64286 -21.64286,21.64286c-11.95302,0 -21.64286,-9.68984 -21.64286,-21.64286z" fill="url(#color-1)" stroke="#8719ff" stroke-width="0" stroke-linecap="butt"/><path d="M195.875,224.125v-88.25h88.25v88.25z" fill="none" stroke="none" stroke-width="NaN" stroke-linecap="butt"/><path d="M214.64287,180.00002c0,-14.00436 11.35278,-25.35714 25.35714,-25.35714c14.00436,0 25.35714,11.35278 25.35714,25.35714c0,14.00436 -11.35278,25.35714 -25.35714,25.35714c-14.00436,0 -25.35714,-11.35278 -25.35714,-25.35714z" fill="none" stroke="#545454" stroke-width="1" stroke-linecap="butt"/><text transform="translate(234.81926,213.5463) scale(0.36433,0.36433)" font-size="40" xml:space="preserve" fill="#ffffff" fill-rule="nonzero" stroke="none" stroke-width="1" stroke-linecap="butt" stroke-linejoin="miter" stroke-miterlimit="10" stroke-dasharray="" stroke-dashoffset="0" font-family="Sans Serif" font-weight="normal" text-anchor="start" style="mix-blend-mode: normal"><tspan x="0" dy="0">D</tspan></text><g stroke="#ff7b00" stroke-width="1.5"><path d="M236.11261,192.36181l-9.23512,-17.90645c0,0 1.28971,-2.76606 3.66089,-4.95569c1.8718,-1.7285 4.75537,-2.81624 5.87306,-3.84838c1.67929,-1.55072 4.18854,-3.86789 4.18854,-3.86789c0,0 1.32904,0.62931 1.93503,1.31114c0.60599,0.68184 0.05522,0.70945 1.43502,2.48071c0.25828,0.33156 1.88574,0.6795 2.18655,1.03851c0.61938,0.73919 -0.02885,1.52543 0.69191,2.31281c0.43308,0.47311 1.47258,0.52134 1.91156,1.01328c0.6794,0.76137 0.75438,1.95999 1.37759,2.59536c0.68084,0.69412 1.60151,0.39806 2.10858,0.87396c0.80796,0.75827 0.87631,2.69443 0.87631,2.69443l-1.33404,0.88673c0,0 -4.27765,12.88088 -9.28073,15.47465c-2.39086,1.23951 -6.39511,-0.10318 -6.39511,-0.10318z" fill="#fff94d" stroke-linecap="butt"/><path d="M243.13798,166.23911l-3.28741,3.28741l3.88512,3.88512l-3.13798,3.13798l-4.78169,-2.6897" fill="none" stroke-linecap="round"/><path d="M245.90241,169.45179l-2.91385,2.91385" fill="none" stroke-linecap="round"/><path d="M249.26452,172.96335l-4.93112,4.93112" fill="none" stroke-linecap="round"/><path d="M236.26431,165.79083l4.10926,4.10926" fill="none" stroke-linecap="round"/><path d="M252.85077,176.10133l-5.67824,5.37939l-5.08055,-4.78169" fill="none" stroke-linecap="round"/><path d="M246.12063,188.70522v9.51139h-11.95421v-9.56337" fill="#fff94d" stroke-linecap="round"/></g><path d="M231.75057,217.2062c-0.76295,-0.7628 -0.58469,-1.10059 -0.58469,-2.17926c0,-3.23602 0,-7.66491 0,-12.57085c0,-1.01301 -0.1538,-1.3176 0.58469,-2.01101c0.73849,-0.69341 1.1009,-0.5847 2.17977,-0.5847c4.82987,0 9.26146,0 12.37595,0c1.03816,0 1.37213,-0.1789 2.07547,0.5847c0.70335,0.7636 0.58469,1.17627 0.58469,2.30336c0,4.75382 0,8.83095 0,12.18105c0,1.11669 0.17565,1.45885 -0.58469,2.27671c-0.76034,0.81787 -1.03731,0.5847 -2.07547,0.5847c-1.03816,0 -9.13935,0 -12.37595,0c-1.07887,0 -1.41682,0.17811 -2.17977,-0.5847z" fill="none" stroke="#ffffff" stroke-width="1.5" stroke-linecap="butt"/></g></g></svg>