<svg version="1.1" xmlns="http://www.w3.org/2000/svg" xmlns:xlink="http://www.w3.org/1999/xlink" width="152.57143" height="81.71429" viewBox="0,0,152.57143,81.71429"><defs><radialGradient cx="177.14627" cy="162.01232" r="67.87944" gradientUnits="userSpaceOnUse" id="color-1"><stop offset="0" stop-color="#000000"/><stop offset="1" stop-color="#1a0036"/></radialGradient></defs><g transform="translate(-163.71428,-139.14287)"><g data-paper-data="{&quot;isPaintingLayer&quot;:true}" fill-rule="nonzero" stroke-linecap="butt" stroke-linejoin="miter" stroke-miterlimit="10" stroke-dasharray="" stroke-dashoffset="0" style="mix-blend-mode: normal"><g><path d="M163.71428,220.85716v-81.71429h152.57143v81.71429z" fill="none" stroke="none" stroke-width="NaN"/><path d="M177.90729,145.33335c23.53221,0 111.40798,0 124.33333,0c4.02142,0 5.63884,3.2976 5.63884,7.31901c0,14.9251 0,48.11843 0,55.83334c0,3.60345 -2.03539,6.18099 -5.63884,6.18099c-14.94675,0 -130.12003,0 -130.12003,0c0,0 0,-51.443 0,-62.01433c0,-5.57133 2.1065,-7.31901 5.7867,-7.31901z" data-paper-data="{&quot;index&quot;:null}" fill="url(#color-1)" stroke="#ffffff" stroke-width="1"/><path d="M306.07392,151.01438c0,0 0,4.47694 0,6.2276" fill="none" stroke="#9100ff" stroke-width="0.5"/><path d="M177.77244,160.84768c19.92941,0 113.82298,0 124.9,0" fill="none" stroke="#9100ff" stroke-width="0.5"/><path d="M174.24066,151.24194c0,2.1292 0,4.86356 0,6.2" fill="none" stroke="#9100ff" stroke-width="0.5"/><path d="M302.60738,147.51433c0,0 -112.85217,0 -124.83489,0" fill="none" stroke="#9100ff" stroke-width="0.5"/><path d="M306.07239,151.14197c-1.98822,0 -3.6,-1.61177 -3.6,-3.6" fill="none" stroke="#9100ff" stroke-width="0.5"/><path d="M302.47238,160.64193c0,-1.98822 1.61177,-3.6 3.6,-3.6" data-paper-data="{&quot;index&quot;:null}" fill="none" stroke="#9100ff" stroke-width="0.5"/><path d="M174.37237,157.14197c1.98823,0 3.6,1.61177 3.6,3.6" data-paper-data="{&quot;index&quot;:null}" fill="none" stroke="#9100ff" stroke-width="0.5"/><path d="M177.97239,147.84195c0,1.98823 -1.61177,3.6 -3.6,3.6" data-paper-data="{&quot;index&quot;:null}" fill="none" stroke="#9100ff" stroke-width="0.5"/><path d="M173.97239,158.84195c1.1598,0 2.1,0.9402 2.1,2.1" data-paper-data="{&quot;index&quot;:null}" fill="none" stroke="#9100ff" stroke-width="0.5"/><path d="M176.07241,147.24194c0,1.1598 -0.9402,2.1 -2.1,2.1" data-paper-data="{&quot;index&quot;:null}" fill="none" stroke="#9100ff" stroke-width="0.5"/><path d="M304.07239,161.04197c0,-1.1598 0.9402,-2.1 2.1,-2.1" data-paper-data="{&quot;index&quot;:null}" fill="none" stroke="#9100ff" stroke-width="0.5"/><path d="M306.1724,149.44195c-1.1598,0 -2.1,-0.9402 -2.1,-2.1" data-paper-data="{&quot;index&quot;:null}" fill="none" stroke="#9100ff" stroke-width="0.5"/><path d="M305.29616,156.40309c0,-1.26808 0,-4.51094 0,-4.51094" fill="none" stroke="#9100ff" stroke-width="0.5"/><path d="M175.24066,156.54796c0,-0.96805 0,-2.94867 0,-4.49095" fill="none" stroke="#9100ff" stroke-width="0.5"/><path d="M301.92386,159.92368c-10.92653,0 -103.54453,0 -123.20319,0" fill="none" stroke="#9100ff" stroke-width="0.5"/><path d="M301.85965,148.43837c0,0 -111.31903,0 -123.13896,0" fill="none" stroke="#9100ff" stroke-width="0.5"/><path d="M306.07392,209.24199c0,-1.75066 0,-43.2276 0,-43.2276" fill="none" stroke="#9100ff" stroke-width="0.5"/><path d="M177.77244,212.84774c19.92941,0 113.82298,0 124.9,0" fill="none" stroke="#9100ff" stroke-width="0.5"/><path d="M174.24066,166.24195c0,2.1292 0,41.86356 0,43.2" fill="none" stroke="#9100ff" stroke-width="0.5"/><path d="M302.60733,162.51433c0,0 -112.85217,0 -124.83489,0" fill="none" stroke="#9100ff" stroke-width="0.5"/><path d="M306.07239,166.14197c-1.98822,0 -3.6,-1.61177 -3.6,-3.6" fill="none" stroke="#9100ff" stroke-width="0.5"/><path d="M302.47238,212.64197c0,-1.98822 1.61177,-3.6 3.6,-3.6" data-paper-data="{&quot;index&quot;:null}" fill="none" stroke="#9100ff" stroke-width="0.5"/><path d="M174.37237,209.14197c1.98823,0 3.6,1.61177 3.6,3.6" data-paper-data="{&quot;index&quot;:null}" fill="none" stroke="#9100ff" stroke-width="0.5"/><path d="M177.97239,162.84195c0,1.98823 -1.61177,3.6 -3.6,3.6" data-paper-data="{&quot;index&quot;:null}" fill="none" stroke="#9100ff" stroke-width="0.5"/><path d="M176.07241,212.94195c-1.1598,0 -2.1,-0.9402 -2.1,-2.1" data-paper-data="{&quot;index&quot;:null}" fill="none" stroke="#9100ff" stroke-width="0.5"/><path d="M173.97239,164.34195c0,-1.1598 0.9402,-2.1 2.1,-2.1" data-paper-data="{&quot;index&quot;:null}" fill="none" stroke="#9100ff" stroke-width="0.5"/><path d="M304.07239,213.04197c0,-1.1598 0.9402,-2.1 2.1,-2.1" data-paper-data="{&quot;index&quot;:null}" fill="none" stroke="#9100ff" stroke-width="0.5"/><path d="M304.07239,162.34195c1.1598,0 2.1,0.9402 2.1,2.1" data-paper-data="{&quot;index&quot;:null}" fill="none" stroke="#9100ff" stroke-width="0.5"/><path d="M305.29616,208.40309c0,-1.26808 0,-41.51094 0,-41.51094" fill="none" stroke="#9100ff" stroke-width="0.5"/><path d="M175.24066,208.54796c0,-0.96805 0,-39.94867 0,-41.49095" fill="none" stroke="#9100ff" stroke-width="0.5"/><path d="M301.92389,211.92368c-10.92653,0 -103.54453,0 -123.20319,0" fill="none" stroke="#9100ff" stroke-width="0.5"/><path d="M178.72069,163.43837c11.81993,0 123.13896,0 123.13896,0" fill="none" stroke="#9100ff" stroke-width="0.5"/></g><text transform="translate(177.64126,170.66042) scale(0.20814,0.20814)" font-size="40" xml:space="preserve" fill="#ffffff" fill-rule="nonzero" stroke="none" stroke-width="1" stroke-linecap="butt" stroke-linejoin="miter" stroke-miterlimit="10" stroke-dasharray="" stroke-dashoffset="0" font-family="Malgun Gothic" font-weight="normal" text-anchor="start" style="mix-blend-mode: normal"><tspan x="0" dy="0"> Lost 2 Max Hp</tspan><tspan x="0" dy="48px"> +1 Physical Dmg</tspan><tspan x="0" dy="48px">Small chance to heal when </tspan><tspan x="0" dy="48px">defeating an enemy</tspan></text><text transform="translate(178.42843,158.30677) scale(0.29005,0.29005)" font-size="40" xml:space="preserve" fill="#ffffff" fill-rule="nonzero" stroke="none" stroke-width="1" stroke-linecap="butt" stroke-linejoin="miter" stroke-miterlimit="10" stroke-dasharray="" stroke-dashoffset="0" font-family="Malgun Gothic" font-weight="normal" text-anchor="start" style="mix-blend-mode: normal"><tspan x="0" dy="0">Berserker</tspan></text></g></g></svg>