<svg version="1.1" xmlns="http://www.w3.org/2000/svg" xmlns:xlink="http://www.w3.org/1999/xlink" width="76.1392" height="76.1392" viewBox="0,0,76.1392,76.1392"><defs><radialGradient cx="240" cy="180" r="20.33785" gradientUnits="userSpaceOnUse" id="color-1"><stop offset="0" stop-color="#ffffff"/><stop offset="1" stop-color="#ffffff" stop-opacity="0"/></radialGradient><radialGradient cx="240" cy="180" r="20.33785" gradientUnits="userSpaceOnUse" id="color-2"><stop offset="0" stop-color="#ffffff" stop-opacity="0"/><stop offset="1" stop-color="#ffffff" stop-opacity="0"/></radialGradient><radialGradient cx="240" cy="180" r="24.37294" gradientUnits="userSpaceOnUse" id="color-3"><stop offset="0" stop-color="#ffd44a"/><stop offset="1" stop-color="#ffd44a" stop-opacity="0"/></radialGradient><radialGradient cx="240" cy="180" r="24.37294" gradientUnits="userSpaceOnUse" id="color-4"><stop offset="0" stop-color="#ffd44a"/><stop offset="1" stop-color="#ffd44a" stop-opacity="0"/></radialGradient><radialGradient cx="240.54782" cy="179.45218" r="10.82551" gradientUnits="userSpaceOnUse" id="color-5"><stop offset="0" stop-color="#ffee00"/><stop offset="1" stop-color="#ffee00" stop-opacity="0"/></radialGradient><radialGradient cx="240.54782" cy="179.45218" r="10.82551" gradientUnits="userSpaceOnUse" id="color-6"><stop offset="0" stop-color="#94fffd" stop-opacity="0"/><stop offset="1" stop-color="#94fffd" stop-opacity="0"/></radialGradient><radialGradient cx="247.82486" cy="179.25268" r="12.64151" gradientUnits="userSpaceOnUse" id="color-7"><stop offset="0" stop-color="#ffd200"/><stop offset="1" stop-color="#ffd200" stop-opacity="0"/></radialGradient><radialGradient cx="231.66011" cy="188.14417" r="9.44481" gradientUnits="userSpaceOnUse" id="color-8"><stop offset="0" stop-color="#ffd200"/><stop offset="1" stop-color="#ffd200" stop-opacity="0"/></radialGradient><radialGradient cx="238.57937" cy="170.29633" r="9.09629" gradientUnits="userSpaceOnUse" id="color-9"><stop offset="0" stop-color="#ffd200"/><stop offset="1" stop-color="#ffd200" stop-opacity="0"/></radialGradient><radialGradient cx="232.61773" cy="171.53471" r="6.48402" gradientUnits="userSpaceOnUse" id="color-10"><stop offset="0" stop-color="#ffd200"/><stop offset="1" stop-color="#ffd200" stop-opacity="0"/></radialGradient><radialGradient cx="228.26613" cy="178.41302" r="4.61812" gradientUnits="userSpaceOnUse" id="color-11"><stop offset="0" stop-color="#ffd200"/><stop offset="1" stop-color="#ffd200" stop-opacity="0"/></radialGradient><radialGradient cx="234.57693" cy="191.19448" r="5.17789" gradientUnits="userSpaceOnUse" id="color-12"><stop offset="0" stop-color="#ffd200"/><stop offset="1" stop-color="#ffd200" stop-opacity="0"/></radialGradient><radialGradient cx="252.58292" cy="181.4031" r="6.29743" gradientUnits="userSpaceOnUse" id="color-13"><stop offset="0" stop-color="#ffd200"/><stop offset="1" stop-color="#ffd200" stop-opacity="0"/></radialGradient><radialGradient cx="249.63638" cy="176.36052" r="2.19244" gradientUnits="userSpaceOnUse" id="color-14"><stop offset="0" stop-color="#ffd200"/><stop offset="1" stop-color="#ffd200" stop-opacity="0"/></radialGradient><radialGradient cx="252.53628" cy="175.57393" r="2.42568" gradientUnits="userSpaceOnUse" id="color-15"><stop offset="0" stop-color="#ffd200"/><stop offset="1" stop-color="#ffd200" stop-opacity="0"/></radialGradient><radialGradient cx="246.2941" cy="168.71031" r="5.45778" gradientUnits="userSpaceOnUse" id="color-16"><stop offset="0" stop-color="#ffd200"/><stop offset="1" stop-color="#ffd200" stop-opacity="0"/></radialGradient><radialGradient cx="236.86267" cy="175.33428" r="3.26534" gradientUnits="userSpaceOnUse" id="color-17"><stop offset="0" stop-color="#ffd200"/><stop offset="1" stop-color="#ffd200" stop-opacity="0"/></radialGradient><radialGradient cx="234.34369" cy="177.57336" r="2.65892" gradientUnits="userSpaceOnUse" id="color-18"><stop offset="0" stop-color="#ffd200"/><stop offset="1" stop-color="#ffd200" stop-opacity="0"/></radialGradient><radialGradient cx="231.74628" cy="184.61716" r="4.10499" gradientUnits="userSpaceOnUse" id="color-19"><stop offset="0" stop-color="#ffd200"/><stop offset="1" stop-color="#ffd200" stop-opacity="0"/></radialGradient><radialGradient cx="236.90931" cy="184.47722" r="4.24494" gradientUnits="userSpaceOnUse" id="color-20"><stop offset="0" stop-color="#ffd200"/><stop offset="1" stop-color="#ffd200" stop-opacity="0"/></radialGradient><radialGradient cx="235.50988" cy="187.13613" r="0.9796" gradientUnits="userSpaceOnUse" id="color-21"><stop offset="0" stop-color="#ffd200"/><stop offset="1" stop-color="#ffd200" stop-opacity="0"/></radialGradient><radialGradient cx="244.44203" cy="189.88834" r="3.94085" gradientUnits="userSpaceOnUse" id="color-22"><stop offset="0" stop-color="#ffd200"/><stop offset="1" stop-color="#ffd200" stop-opacity="0"/></radialGradient><radialGradient cx="248.01145" cy="193.48022" r="1.91255" gradientUnits="userSpaceOnUse" id="color-23"><stop offset="0" stop-color="#ffd200"/><stop offset="1" stop-color="#ffd200" stop-opacity="0"/></radialGradient><radialGradient cx="244.18634" cy="193.48022" r="2.89215" gradientUnits="userSpaceOnUse" id="color-24"><stop offset="0" stop-color="#ffd200"/><stop offset="1" stop-color="#ffd200" stop-opacity="0"/></radialGradient><radialGradient cx="235.1367" cy="193.7601" r="2.42568" gradientUnits="userSpaceOnUse" id="color-25"><stop offset="0" stop-color="#ffd200"/><stop offset="1" stop-color="#ffd200" stop-opacity="0"/></radialGradient><radialGradient cx="236.16295" cy="196.04583" r="0.69971" gradientUnits="userSpaceOnUse" id="color-26"><stop offset="0" stop-color="#ffd200"/><stop offset="1" stop-color="#ffd200" stop-opacity="0"/></radialGradient><radialGradient cx="250.19265" cy="190.30817" r="2.79886" gradientUnits="userSpaceOnUse" id="color-27"><stop offset="0" stop-color="#ffd200"/><stop offset="1" stop-color="#ffd200" stop-opacity="0"/></radialGradient><radialGradient cx="253.74911" cy="189.06602" r="1.86591" gradientUnits="userSpaceOnUse" id="color-28"><stop offset="0" stop-color="#ffd200"/><stop offset="1" stop-color="#ffd200" stop-opacity="0"/></radialGradient><radialGradient cx="235.41154" cy="183.78489" r="6.04431" gradientUnits="userSpaceOnUse" id="color-29"><stop offset="0" stop-color="#ffd200"/><stop offset="1" stop-color="#ffd200" stop-opacity="0"/></radialGradient><radialGradient cx="242.43567" cy="175.80763" r="6.43658" gradientUnits="userSpaceOnUse" id="color-30"><stop offset="0" stop-color="#ffd200"/><stop offset="1" stop-color="#ffd200" stop-opacity="0"/></radialGradient><radialGradient cx="243.78394" cy="184.51758" r="4.1483" gradientUnits="userSpaceOnUse" id="color-31"><stop offset="0" stop-color="#ffd200"/><stop offset="1" stop-color="#ffd200" stop-opacity="0"/></radialGradient><radialGradient cx="246.93115" cy="182.28091" r="3.3499" gradientUnits="userSpaceOnUse" id="color-32"><stop offset="0" stop-color="#ffd200"/><stop offset="1" stop-color="#ffd200" stop-opacity="0"/></radialGradient><radialGradient cx="246.82449" cy="177.64429" r="2.8073" gradientUnits="userSpaceOnUse" id="color-33"><stop offset="0" stop-color="#ffd200"/><stop offset="1" stop-color="#ffd200" stop-opacity="0"/></radialGradient><radialGradient cx="234.23063" cy="182.58433" r="2.78862" gradientUnits="userSpaceOnUse" id="color-34"><stop offset="0" stop-color="#ffd200"/><stop offset="1" stop-color="#ffd200" stop-opacity="0"/></radialGradient><radialGradient cx="237.0083" cy="184.23959" r="1.52241" gradientUnits="userSpaceOnUse" id="color-35"><stop offset="0" stop-color="#ffd200"/><stop offset="1" stop-color="#ffd200" stop-opacity="0"/></radialGradient><radialGradient cx="235.82981" cy="185.24452" r="1.3535" gradientUnits="userSpaceOnUse" id="color-36"><stop offset="0" stop-color="#ffd200"/><stop offset="1" stop-color="#ffd200" stop-opacity="0"/></radialGradient><radialGradient cx="240.70638" cy="187.12044" r="2.54799" gradientUnits="userSpaceOnUse" id="color-37"><stop offset="0" stop-color="#ffd200"/><stop offset="1" stop-color="#ffd200" stop-opacity="0"/></radialGradient><radialGradient cx="242.85334" cy="185.60216" r="3.3561" gradientUnits="userSpaceOnUse" id="color-38"><stop offset="0" stop-color="#ffd200"/><stop offset="1" stop-color="#ffd200" stop-opacity="0"/></radialGradient><radialGradient cx="243.56832" cy="181.3901" r="2.16595" gradientUnits="userSpaceOnUse" id="color-39"><stop offset="0" stop-color="#ffd200"/><stop offset="1" stop-color="#ffd200" stop-opacity="0"/></radialGradient><radialGradient cx="244.22228" cy="179.62036" r="1.20763" gradientUnits="userSpaceOnUse" id="color-40"><stop offset="0" stop-color="#ffd200"/><stop offset="1" stop-color="#ffd200" stop-opacity="0"/></radialGradient><radialGradient cx="241.02485" cy="176.88682" r="2.47764" gradientUnits="userSpaceOnUse" id="color-41"><stop offset="0" stop-color="#ffd200"/><stop offset="1" stop-color="#ffd200" stop-opacity="0"/></radialGradient><radialGradient cx="241.12599" cy="175.20479" r="0.5084" gradientUnits="userSpaceOnUse" id="color-42"><stop offset="0" stop-color="#ffd200"/><stop offset="1" stop-color="#ffd200" stop-opacity="0"/></radialGradient><radialGradient cx="236.39645" cy="176.30437" r="2.33817" gradientUnits="userSpaceOnUse" id="color-43"><stop offset="0" stop-color="#ffd200"/><stop offset="1" stop-color="#ffd200" stop-opacity="0"/></radialGradient><radialGradient cx="233.27962" cy="175.49689" r="1.16588" gradientUnits="userSpaceOnUse" id="color-44"><stop offset="0" stop-color="#ffd200"/><stop offset="1" stop-color="#ffd200" stop-opacity="0"/></radialGradient><radialGradient cx="235.05359" cy="174.41974" r="1.64969" gradientUnits="userSpaceOnUse" id="color-45"><stop offset="0" stop-color="#ffd200"/><stop offset="1" stop-color="#ffd200" stop-opacity="0"/></radialGradient><radialGradient cx="239.56451" cy="171.83495" r="1.81427" gradientUnits="userSpaceOnUse" id="color-46"><stop offset="0" stop-color="#ffd200"/><stop offset="1" stop-color="#ffd200" stop-opacity="0"/></radialGradient><radialGradient cx="238.45524" cy="170.97653" r="0.34568" gradientUnits="userSpaceOnUse" id="color-47"><stop offset="0" stop-color="#ffd200"/><stop offset="1" stop-color="#ffd200" stop-opacity="0"/></radialGradient><radialGradient cx="232.96369" cy="177.54775" r="1.17539" gradientUnits="userSpaceOnUse" id="color-48"><stop offset="0" stop-color="#ffd200"/><stop offset="1" stop-color="#ffd200" stop-opacity="0"/></radialGradient><radialGradient cx="231.46918" cy="179.06727" r="0.88343" gradientUnits="userSpaceOnUse" id="color-49"><stop offset="0" stop-color="#ffd200"/><stop offset="1" stop-color="#ffd200" stop-opacity="0"/></radialGradient><radialGradient cx="238.76515" cy="173.18062" r="12.64151" gradientUnits="userSpaceOnUse" id="color-50"><stop offset="0" stop-color="#ffd200"/><stop offset="1" stop-color="#ffd200" stop-opacity="0"/></radialGradient><radialGradient cx="250.51791" cy="187.4014" r="9.4448" gradientUnits="userSpaceOnUse" id="color-51"><stop offset="0" stop-color="#ffd200"/><stop offset="1" stop-color="#ffd200" stop-opacity="0"/></radialGradient><radialGradient cx="231.69215" cy="183.93553" r="9.09629" gradientUnits="userSpaceOnUse" id="color-52"><stop offset="0" stop-color="#ffd200"/><stop offset="1" stop-color="#ffd200" stop-opacity="0"/></radialGradient><radialGradient cx="234.02165" cy="189.5612" r="6.48402" gradientUnits="userSpaceOnUse" id="color-53"><stop offset="0" stop-color="#ffd200"/><stop offset="1" stop-color="#ffd200" stop-opacity="0"/></radialGradient><radialGradient cx="241.59139" cy="192.55229" r="4.61812" gradientUnits="userSpaceOnUse" id="color-54"><stop offset="0" stop-color="#ffd200"/><stop offset="1" stop-color="#ffd200" stop-opacity="0"/></radialGradient><radialGradient cx="252.97009" cy="183.96643" r="5.17789" gradientUnits="userSpaceOnUse" id="color-55"><stop offset="0" stop-color="#ffd200"/><stop offset="1" stop-color="#ffd200" stop-opacity="0"/></radialGradient><radialGradient cx="239.98955" cy="168.10477" r="6.29743" gradientUnits="userSpaceOnUse" id="color-56"><stop offset="0" stop-color="#ffd200"/><stop offset="1" stop-color="#ffd200" stop-opacity="0"/></radialGradient><radialGradient cx="235.58567" cy="171.94084" r="2.19244" gradientUnits="userSpaceOnUse" id="color-57"><stop offset="0" stop-color="#ffd200"/><stop offset="1" stop-color="#ffd200" stop-opacity="0"/></radialGradient><radialGradient cx="234.27156" cy="169.23876" r="2.42568" gradientUnits="userSpaceOnUse" id="color-58"><stop offset="0" stop-color="#ffd200"/><stop offset="1" stop-color="#ffd200" stop-opacity="0"/></radialGradient><radialGradient cx="228.69385" cy="176.65248" r="5.45778" gradientUnits="userSpaceOnUse" id="color-59"><stop offset="0" stop-color="#ffd200"/><stop offset="1" stop-color="#ffd200" stop-opacity="0"/></radialGradient><radialGradient cx="236.962" cy="184.68159" r="3.26534" gradientUnits="userSpaceOnUse" id="color-60"><stop offset="0" stop-color="#ffd200"/><stop offset="1" stop-color="#ffd200" stop-opacity="0"/></radialGradient><radialGradient cx="239.63196" cy="186.7383" r="2.65892" gradientUnits="userSpaceOnUse" id="color-61"><stop offset="0" stop-color="#ffd200"/><stop offset="1" stop-color="#ffd200" stop-opacity="0"/></radialGradient><radialGradient cx="245.93552" cy="182.929" r="4.24494" gradientUnits="userSpaceOnUse" id="color-62"><stop offset="0" stop-color="#ffd200"/><stop offset="1" stop-color="#ffd200" stop-opacity="0"/></radialGradient><radialGradient cx="248.80893" cy="183.80747" r="0.9796" gradientUnits="userSpaceOnUse" id="color-63"><stop offset="0" stop-color="#ffd200"/><stop offset="1" stop-color="#ffd200" stop-opacity="0"/></radialGradient><radialGradient cx="252.70775" cy="170.34138" r="1.91255" gradientUnits="userSpaceOnUse" id="color-64"><stop offset="0" stop-color="#ffd200"/><stop offset="1" stop-color="#ffd200" stop-opacity="0"/></radialGradient><radialGradient cx="253.42181" cy="174.09924" r="2.89215" gradientUnits="userSpaceOnUse" id="color-65"><stop offset="0" stop-color="#ffd200"/><stop offset="1" stop-color="#ffd200" stop-opacity="0"/></radialGradient><radialGradient cx="249.18429" cy="168.79066" r="2.79886" gradientUnits="userSpaceOnUse" id="color-66"><stop offset="0" stop-color="#ffd200"/><stop offset="1" stop-color="#ffd200" stop-opacity="0"/></radialGradient><radialGradient cx="247.30007" cy="165.5286" r="1.86591" gradientUnits="userSpaceOnUse" id="color-67"><stop offset="0" stop-color="#ffd200"/><stop offset="1" stop-color="#ffd200" stop-opacity="0"/></radialGradient><radialGradient cx="245.53496" cy="184.52968" r="6.04431" gradientUnits="userSpaceOnUse" id="color-68"><stop offset="0" stop-color="#ffd200"/><stop offset="1" stop-color="#ffd200" stop-opacity="0"/></radialGradient><radialGradient cx="236.38669" cy="179.11818" r="6.43658" gradientUnits="userSpaceOnUse" id="color-69"><stop offset="0" stop-color="#ffd200"/><stop offset="1" stop-color="#ffd200" stop-opacity="0"/></radialGradient><radialGradient cx="244.69184" cy="176.16768" r="4.1483" gradientUnits="userSpaceOnUse" id="color-70"><stop offset="0" stop-color="#ffd200"/><stop offset="1" stop-color="#ffd200" stop-opacity="0"/></radialGradient><radialGradient cx="241.90698" cy="173.49332" r="3.3499" gradientUnits="userSpaceOnUse" id="color-71"><stop offset="0" stop-color="#ffd200"/><stop offset="1" stop-color="#ffd200" stop-opacity="0"/></radialGradient><radialGradient cx="233.9419" cy="181.53557" r="2.17102" gradientUnits="userSpaceOnUse" id="color-72"><stop offset="0" stop-color="#ffd200"/><stop offset="1" stop-color="#ffd200" stop-opacity="0"/></radialGradient><radialGradient cx="244.57594" cy="185.91395" r="2.78862" gradientUnits="userSpaceOnUse" id="color-73"><stop offset="0" stop-color="#ffd200"/><stop offset="1" stop-color="#ffd200" stop-opacity="0"/></radialGradient><radialGradient cx="245.93108" cy="176.87946" r="3.35611" gradientUnits="userSpaceOnUse" id="color-74"><stop offset="0" stop-color="#ffd200"/><stop offset="1" stop-color="#ffd200" stop-opacity="0"/></radialGradient><radialGradient cx="239.79887" cy="176.65123" r="1.20763" gradientUnits="userSpaceOnUse" id="color-75"><stop offset="0" stop-color="#ffd200"/><stop offset="1" stop-color="#ffd200" stop-opacity="0"/></radialGradient><radialGradient cx="235.83977" cy="178.40281" r="2.74047" gradientUnits="userSpaceOnUse" id="color-76"><stop offset="0" stop-color="#ffd200"/><stop offset="1" stop-color="#ffd200" stop-opacity="0"/></radialGradient><radialGradient cx="237.71028" cy="180.30275" r="2.47764" gradientUnits="userSpaceOnUse" id="color-77"><stop offset="0" stop-color="#ffd200"/><stop offset="1" stop-color="#ffd200" stop-opacity="0"/></radialGradient><radialGradient cx="238.00207" cy="184.95852" r="2.33817" gradientUnits="userSpaceOnUse" id="color-78"><stop offset="0" stop-color="#ffd200"/><stop offset="1" stop-color="#ffd200" stop-opacity="0"/></radialGradient><radialGradient cx="237.79062" cy="188.1713" r="1.16588" gradientUnits="userSpaceOnUse" id="color-79"><stop offset="0" stop-color="#ffd200"/><stop offset="1" stop-color="#ffd200" stop-opacity="0"/></radialGradient><radialGradient cx="232.38356" cy="183.93049" r="0.34569" gradientUnits="userSpaceOnUse" id="color-80"><stop offset="0" stop-color="#ffd200"/><stop offset="1" stop-color="#ffd200" stop-opacity="0"/></radialGradient><radialGradient cx="233.71176" cy="175.77227" r="0.13994" gradientUnits="userSpaceOnUse" id="color-81"><stop offset="0" stop-color="#ffd200"/><stop offset="1" stop-color="#ffd200" stop-opacity="0"/></radialGradient><radialGradient cx="243.78765" cy="178.38454" r="0.13994" gradientUnits="userSpaceOnUse" id="color-82"><stop offset="0" stop-color="#ffd200"/><stop offset="1" stop-color="#ffd200" stop-opacity="0"/></radialGradient><radialGradient cx="238.37653" cy="187.90066" r="0.13994" gradientUnits="userSpaceOnUse" id="color-83"><stop offset="0" stop-color="#ffd200"/><stop offset="1" stop-color="#ffd200" stop-opacity="0"/></radialGradient><radialGradient cx="240" cy="180" r="14.58064" gradientUnits="userSpaceOnUse" id="color-84"><stop offset="0" stop-color="#ffd44a"/><stop offset="1" stop-color="#ffd44a" stop-opacity="0"/></radialGradient><radialGradient cx="240" cy="180" r="14.58065" gradientUnits="userSpaceOnUse" id="color-85"><stop offset="0" stop-color="#ffd44a"/><stop offset="1" stop-color="#ffd44a" stop-opacity="0"/></radialGradient><radialGradient cx="240" cy="180" r="33.0696" gradientUnits="userSpaceOnUse" id="color-86"><stop offset="0" stop-color="#ffffff"/><stop offset="1" stop-color="#ffffff" stop-opacity="0"/></radialGradient><radialGradient cx="240" cy="180" r="4.50071" gradientUnits="userSpaceOnUse" id="color-87"><stop offset="0" stop-color="#ffffff"/><stop offset="1" stop-color="#fffeaa"/></radialGradient></defs><g transform="translate(-201.9304,-141.9304)"><g data-paper-data="{&quot;isPaintingLayer&quot;:true}" fill-rule="nonzero" stroke-linejoin="miter" stroke-miterlimit="10" stroke-dasharray="" stroke-dashoffset="0" style="mix-blend-mode: normal"><path d="M219.66215,180c0,-11.23228 9.10556,-20.33785 20.33785,-20.33785c11.23228,0 20.33785,9.10556 20.33785,20.33785c0,11.23228 -9.10556,20.33785 -20.33785,20.33785c-11.23228,0 -20.33785,-9.10556 -20.33785,-20.33785z" fill="url(#color-1)" stroke="url(#color-2)" stroke-width="0" stroke-linecap="butt"/><path d="M215.62706,180c0,-13.4608 10.91214,-24.37294 24.37294,-24.37294c13.4608,0 24.37294,10.91214 24.37294,24.37294c0,13.4608 -10.91214,24.37294 -24.37294,24.37294c-13.4608,0 -24.37294,-10.91214 -24.37294,-24.37294z" fill="none" stroke="url(#color-3)" stroke-width="10" stroke-linecap="butt"/><path d="M215.62706,180c0,-13.4608 10.91214,-24.37294 24.37294,-24.37294c13.4608,0 24.37294,10.91214 24.37294,24.37294c0,13.4608 -10.91214,24.37294 -24.37294,24.37294c-13.4608,0 -24.37294,-10.91214 -24.37294,-24.37294z" fill="none" stroke="url(#color-4)" stroke-width="10" stroke-linecap="butt"/><path d="M229.72231,179.45218c0,-5.97877 4.84674,-10.82551 10.82551,-10.82551c5.97877,0 10.82551,4.84675 10.82551,10.82551c0,5.97877 -4.84675,10.82551 -10.82551,10.82551c-5.97877,0 -10.82551,-4.84674 -10.82551,-10.82551z" fill="url(#color-5)" stroke="url(#color-6)" stroke-width="0" stroke-linecap="butt"/><path d="M210.49469,208.25842v-56.51685h59.01063v56.51685z" fill="none" stroke="none" stroke-width="0" stroke-linecap="butt"/><path d="M254.96195,191.8942l-2.5694,-0.88321l-1.10546,-2.73872l-2.92915,-0.09768l-2.27097,-0.73074l0.75952,-2.07521l-1.53749,-2.86767l-2.38278,0.04791l-2.23846,-2.78309l1.10536,-1.21758l1.07035,-2.16891l0.95971,-2.66748l2.19984,1.11596l2.86529,-1.82947l1.69017,-3.67998l3.21063,-0.63608l-1.25285,-2.0711" fill="none" stroke="url(#color-7)" stroke-width="1" stroke-linecap="round"/><path d="M222.2153,182.65796h1.77261l2.17176,2.46574l2.83208,-1.81902l1.26859,-3.98674l3.21179,1.39493l2.9968,-2.00973l2.43978,1.82885l1.96564,-0.85948l0.23055,4.65739l-0.69916,2.3385l-1.12495,2.14695l1.0255,3.17212l-1.52716,1.73878l2.09089,1.43311l-0.55544,2.42584" fill="none" stroke="url(#color-8)" stroke-width="1" stroke-linecap="round"/><path d="M240.59448,179.39262l0.33997,-0.85965l0.04635,-1.27463l-0.917,-1.56152l-1.40883,-2.46451l0.32863,-5.05834l0.16829,-2.07666l-2.97395,-2.16763l1.80427,-2.72963" fill="none" stroke="url(#color-9)" stroke-width="1" stroke-linecap="round"/><path d="M239.10175,171.08934l-2.98073,1.25151l-5.1939,1.65847l1.63569,-2.48847l-1.77245,-2.44075l-2.95647,1.16323l-1.70019,-0.26353" fill="none" stroke="url(#color-10)" stroke-width="1" stroke-linecap="round"/><path d="M225.76052,173.7949l-1.61275,2.35985l3.60144,-0.09077l-0.21033,2.75392l3.09575,-1.65647l1.74987,2.79096l-1.89241,0.69554l1.80289,1.54274l-1.21663,0.84046" fill="none" stroke="url(#color-11)" stroke-width="1" stroke-linecap="round"/><path d="M229.39904,192.82714l2.80897,-1.81782l3.77757,0.68399l1.85029,-2.12316l1.91894,-0.00833" fill="none" stroke="url(#color-12)" stroke-width="1" stroke-linecap="round"/><path d="M258.88036,179.01944l-1.87899,-0.1048l-2.0908,2.47607l-3.63806,-0.35093l-1.43284,2.85176l-3.55419,-0.30064" fill="none" stroke="url(#color-13)" stroke-width="1" stroke-linecap="round"/><path d="M251.51003,178.55297l0.07782,-1.20957l-3.05226,-0.39797l-0.85067,-2.77735" fill="none" stroke="url(#color-14)" stroke-width="1" stroke-linecap="round"/><path d="M250.1106,177.34013l0.45148,-1.98435l3.05647,-1.54805l1.3434,0.64025" fill="none" stroke="url(#color-15)" stroke-width="1" stroke-linecap="round"/><path d="M245.63242,163.25254l-0.40761,3.11371l1.85139,1.23751l0.28719,2.1933l-0.61143,4.37104l-0.0933,-0.65307" fill="none" stroke="url(#color-16)" stroke-width="1" stroke-linecap="round"/><path d="M240.128,177.43342l-6.53067,-4.19829" fill="none" stroke="url(#color-17)" stroke-width="1" stroke-linecap="round"/><path d="M233.31744,174.91445l2.0525,1.67932v3.63851" fill="none" stroke="url(#color-18)" stroke-width="1" stroke-linecap="round"/><path d="M234.2504,180.51217l-1.04824,2.13667l1.45115,2.27301l-1.98893,1.00145l-3.51815,0.91087l-0.30696,1.88799" fill="none" stroke="url(#color-19)" stroke-width="1" stroke-linecap="round"/><path d="M235.46324,188.72215l1.58602,-2.0525l-1.02625,-2.14579l2.33238,-4.29158" fill="none" stroke="url(#color-20)" stroke-width="1" stroke-linecap="round"/><path d="M236.48948,187.22943l-1.9592,-0.18659" fill="none" stroke="url(#color-21)" stroke-width="1" stroke-linecap="round"/><path d="M240.50118,186.85624l2.89215,-0.83966l1.39943,2.98545l3.59012,0.76703l-2.0974,3.99103" fill="none" stroke="url(#color-22)" stroke-width="1" stroke-linecap="round"/><path d="M246.0989,192.64055l2.89215,0.65307l0.93295,1.02625" fill="none" stroke="url(#color-23)" stroke-width="1" stroke-linecap="round"/><path d="M243.57993,196.37237l-0.46648,-1.30613l2.14579,-4.47818" fill="none" stroke="url(#color-24)" stroke-width="1" stroke-linecap="round"/><path d="M237.51573,196.18578l-2.61227,-2.0525l-2.14579,-2.79886" fill="none" stroke="url(#color-25)" stroke-width="1" stroke-linecap="round"/><path d="M235.46324,196.37237l1.39943,-0.65307" fill="none" stroke="url(#color-26)" stroke-width="1" stroke-linecap="round"/><path d="M251.23014,193.10703l-2.07499,-1.71107l0.30238,-3.88665" fill="none" stroke="url(#color-27)" stroke-width="1" stroke-linecap="round"/><path d="M255.61502,188.25567l-0.27915,1.62069l-3.45267,-0.03467" fill="none" stroke="url(#color-28)" stroke-width="1" stroke-linecap="round"/><path d="M230.26486,177.98156l1.50177,-0.24098l1.26777,1.06126l1.47241,-0.72375l1.31419,-0.23763l0.17182,1.2251l1.51514,1.01109l1.16419,-0.65166l1.83905,0.78457l-0.22502,0.89267l0.043,1.35329l0.22904,1.57037l-1.3806,0.02862l-0.93296,1.65871l0.13513,2.26294l-1.41804,1.16034l1.16462,0.69269" data-paper-data="{&quot;index&quot;:null}" fill="none" stroke="url(#color-29)" stroke-width="1" stroke-linecap="round"/><path d="M248.87226,173.91264l-0.87547,0.46718l-1.72246,-0.64541l-0.91931,1.6448l0.42419,2.30335l-1.95391,0.15755l-0.9504,1.78241l-1.68698,-0.26022l-0.74428,0.94254l-1.34135,-2.23946l-0.27102,-1.33922l-0.01025,-1.35684l-1.34251,-1.29639l0.29598,-1.26126l-1.41037,-0.15673l-0.36502,-1.34448" data-paper-data="{&quot;index&quot;:null}" fill="none" stroke="url(#color-30)" stroke-width="1" stroke-linecap="round"/><path d="M240.65563,180.36928l0.05866,0.51417l0.31305,0.64174l0.86444,0.52953l1.34534,0.84589l1.17085,2.58486l0.4642,1.06999l2.04008,0.28676l-0.1717,1.82366" data-paper-data="{&quot;index&quot;:null}" fill="none" stroke="url(#color-31)" stroke-width="1" stroke-linecap="round"/><path d="M243.58125,184.07675l1.1423,-1.40369l2.1281,-2.18798l-0.152,1.66012l1.51866,0.73831l1.15358,-1.3537l0.90915,-0.31794" data-paper-data="{&quot;index&quot;:null}" fill="none" stroke="url(#color-32)" stroke-width="1" stroke-linecap="round"/><path d="M249.45723,179.22434l0.17456,-1.59055l-1.75478,0.99401l-0.62193,-1.41556l-1.09237,1.63401l-1.59981,-0.91723l0.75132,-0.84227l-1.29703,-0.28677l0.37937,-0.73575" data-paper-data="{&quot;index&quot;:null}" fill="none" stroke="url(#color-33)" stroke-width="1" stroke-linecap="round"/><path d="M231.72284,185.37295l0.95563,-0.44346l0.38003,-1.77394l1.88928,-0.78551l-0.04394,-1.78608l1.8346,-0.78824" data-paper-data="{&quot;index&quot;:null}" fill="none" stroke="url(#color-34)" stroke-width="1" stroke-linecap="round"/><path d="M235.48588,183.66084l0.28035,0.6179l1.61236,-0.60789l1.15212,1.1475" data-paper-data="{&quot;index&quot;:null}" fill="none" stroke="url(#color-35)" stroke-width="1" stroke-linecap="round"/><path d="M236.49669,183.89102l0.30001,1.09904l-1.10155,1.57011l-0.83223,0.03785" data-paper-data="{&quot;index&quot;:null}" fill="none" stroke="url(#color-36)" stroke-width="1" stroke-linecap="round"/><path d="M242.42128,189.66844l-0.61932,-1.64525l-1.24053,-0.12324l-0.7199,-1.00755l-0.85004,-2.31994l0.2182,0.29795" data-paper-data="{&quot;index&quot;:null}" fill="none" stroke="url(#color-37)" stroke-width="1" stroke-linecap="round"/><path d="M244.52864,188.95826l-1.38441,-0.98187l0.07698,-1.86944l-1.11732,-0.47224l-0.92585,-1.50455l1.46623,-1.0221l-0.51353,-0.862" data-paper-data="{&quot;index&quot;:null}" fill="none" stroke="url(#color-38)" stroke-width="1" stroke-linecap="round"/><path d="M245.73428,181.56624l-4.3319,-0.35228" data-paper-data="{&quot;index&quot;:null}" fill="none" stroke="url(#color-39)" stroke-width="1" stroke-linecap="round"/><path d="M245.42991,180.66308l-1.45629,-0.28844l-0.95895,-1.79702" data-paper-data="{&quot;index&quot;:null}" fill="none" stroke="url(#color-40)" stroke-width="1" stroke-linecap="round"/><path d="M240.73102,174.40919l-0.24237,1.43171l1.07239,0.7893l-0.02086,2.73427" data-paper-data="{&quot;index&quot;:null}" fill="none" stroke="url(#color-41)" stroke-width="1" stroke-linecap="round"/><path d="M241.6344,174.99268l-1.0168,0.42421" data-paper-data="{&quot;index&quot;:null}" fill="none" stroke="url(#color-42)" stroke-width="1" stroke-linecap="round"/><path d="M238.73462,176.65852l-1.2071,1.17694l-1.47799,-1.10564l-1.97527,0.56737l-0.01599,-2.5239" data-paper-data="{&quot;index&quot;:null}" fill="none" stroke="url(#color-43)" stroke-width="1" stroke-linecap="round"/><path d="M234.44549,175.27703l-1.60052,0.4397l-0.73125,-0.26096" data-paper-data="{&quot;index&quot;:null}" fill="none" stroke="url(#color-44)" stroke-width="1" stroke-linecap="round"/><path d="M234.70604,172.77005l0.57462,0.52214l0.12047,2.77725" data-paper-data="{&quot;index&quot;:null}" fill="none" stroke="url(#color-45)" stroke-width="1" stroke-linecap="round"/><path d="M237.75024,171.26395l1.83111,0.32522l1.79743,0.81678" data-paper-data="{&quot;index&quot;:null}" fill="none" stroke="url(#color-46)" stroke-width="1" stroke-linecap="round"/><path d="M238.19572,171.32222l0.51904,-0.69137" data-paper-data="{&quot;index&quot;:null}" fill="none" stroke="url(#color-47)" stroke-width="1" stroke-linecap="round"/><path d="M231.7883,176.39902l1.47577,0.2982l0.87501,1.99926" data-paper-data="{&quot;index&quot;:null}" fill="none" stroke="url(#color-48)" stroke-width="1" stroke-linecap="round"/><path d="M230.90128,179.9507l-0.28928,-0.87401l1.71436,-0.89285" data-paper-data="{&quot;index&quot;:null}" fill="none" stroke="url(#color-49)" stroke-width="1" stroke-linecap="round"/><path d="M249.85212,163.80913l-0.38804,2.68911l-2.48421,1.59728l0.45084,2.89589l-0.29396,2.36746l-2.18052,-0.35878l-2.53025,2.04578l0.49188,2.33195l-2.3163,2.71865l-1.40252,-0.85863l-2.33059,-0.64665l-2.79974,-0.44489l0.68569,-2.3695l-2.33219,-2.4734l-3.9308,-0.9735l-1.22425,-3.03546l-1.80082,1.61745" fill="none" stroke="url(#color-50)" stroke-width="1" stroke-linecap="round"/><path d="M246.89125,197.70432l-0.3309,-1.74145l2.01698,-2.59388l-2.31572,-2.44273l-4.15348,-0.50206l0.77085,-3.41573l-2.53384,-2.56895l1.34125,-2.7383l-1.21131,-1.77064l4.53249,-1.09592l2.42791,0.25033l2.31921,0.70439l2.92492,-1.59963l1.9933,1.17573l1.0176,-2.32167l2.48689,0.09283" fill="none" stroke="url(#color-51)" stroke-width="1" stroke-linecap="round"/><path d="M240.25237,180.25778l-0.90801,-0.17352l-1.26088,0.19241l-1.36289,1.19237l-2.1582,1.84413l-5.03077,0.62142l-2.07157,0.22233l-1.57436,3.32631l-3.01846,-1.263" fill="none" stroke="url(#color-52)" stroke-width="1" stroke-linecap="round"/><path d="M232.3737,183.2743l1.78594,2.69471l2.5989,4.79301l-2.75007,-1.1424l-2.06697,2.19692l1.69468,2.68735l0.05848,1.7195" fill="none" stroke="url(#color-53)" stroke-width="1" stroke-linecap="round"/><path d="M237.52219,195.87594l2.61943,1.14388l-0.76148,-3.52118l2.74477,-0.30746l-2.20526,-2.7321l2.41524,-2.24012l1.03658,1.7293l1.17906,-2.0592l1.05281,1.03835" fill="none" stroke="url(#color-54)" stroke-width="1" stroke-linecap="round"/><path d="M255.54065,188.74852l-2.31024,-2.42025l-0.03322,-3.83885l-2.43125,-1.42142l-0.3664,-1.88365" fill="none" stroke="url(#color-55)" stroke-width="1" stroke-linecap="round"/><path d="M236.47221,162.36301l0.24781,1.86552l2.82285,1.59182l0.33438,3.63961l3.06911,0.87529l0.36813,3.54783" fill="none" stroke="url(#color-56)" stroke-width="1" stroke-linecap="round"/><path d="M237.3898,169.69085l-1.20283,0.14935l0.17881,3.07289l-2.56973,1.35418" fill="none" stroke="url(#color-57)" stroke-width="1" stroke-linecap="round"/><path d="M236.45952,171.2921l-2.03375,-0.07312l-2.09141,-2.71376l0.37821,-1.43931" fill="none" stroke="url(#color-58)" stroke-width="1" stroke-linecap="round"/><path d="M223.45554,178.32136l3.13507,-0.18081l0.87014,-2.04986l2.10113,-0.69158l4.40834,-0.21529l-0.62417,0.21357" fill="none" stroke="url(#color-59)" stroke-width="1" stroke-linecap="round"/><path d="M238.41469,181.0818l-2.90537,7.19959" fill="none" stroke="url(#color-60)" stroke-width="1" stroke-linecap="round"/><path d="M237.21136,188.24287l1.26664,-2.3299l3.57456,-0.67922" fill="none" stroke="url(#color-61)" stroke-width="1" stroke-linecap="round"/><path d="M250.37578,183.55723l-2.31249,-1.17499l-1.91649,1.40877l-4.65154,-1.49025" fill="none" stroke="url(#color-62)" stroke-width="1" stroke-linecap="round"/><path d="M248.71772,182.82768l0.18242,1.9596" fill="none" stroke="url(#color-63)" stroke-width="1" stroke-linecap="round"/><path d="M252.23988,172.37705l0.10169,-2.96323l0.83405,-1.10813" fill="none" stroke="url(#color-64)" stroke-width="1" stroke-linecap="round"/><path d="M256.37633,174.15511l-1.19609,0.7021l-4.80002,-1.27211" fill="none" stroke="url(#color-65)" stroke-width="1" stroke-linecap="round"/><path d="M251.74028,167.24893l-1.29364,2.35793l-3.87478,0.42848" fill="none" stroke="url(#color-66)" stroke-width="1" stroke-linecap="round"/><path d="M246.15565,163.84676l1.64431,-0.0283l0.61047,3.39845" fill="none" stroke="url(#color-67)" stroke-width="1" stroke-linecap="round"/><path d="M240.7944,190.66923l-0.51708,-1.43039l0.80595,-1.4436l-0.98589,-1.31142l-0.47878,-1.24673l1.17149,-0.39749l0.71047,-1.67725l-0.85754,-1.02208l0.42747,-1.95318l0.91899,0.05442l1.32148,-0.29487l1.50001,-0.51817l0.28584,1.35098l1.80372,0.60692l2.19794,-0.55519l1.40465,1.17651l0.46311,-1.27346" data-paper-data="{&quot;index&quot;:null}" fill="none" stroke="url(#color-68)" stroke-width="1" stroke-linecap="round"/><path d="M233.32345,173.14849l0.6224,0.77287l-0.31253,1.81267l1.7875,0.59611l2.18367,-0.84672l0.51953,1.89015l1.92849,0.60096l0.05927,1.7059l1.06492,0.55525l-1.9497,1.73582l-1.26509,0.51626l-1.33107,0.26335l-1.02299,1.56092l-1.29434,-0.05533l0.10931,1.41484l-1.25271,0.60959" data-paper-data="{&quot;index&quot;:null}" fill="none" stroke="url(#color-69)" stroke-width="1" stroke-linecap="round"/><path d="M241.20045,180.01539l0.49418,-0.15361l0.57202,-0.42734l0.35885,-0.9481l0.57987,-1.4796l2.32085,-1.6328l0.96453,-0.65578l-0.09911,-2.05776l1.82365,-0.17176" data-paper-data="{&quot;index&quot;:null}" fill="none" stroke="url(#color-70)" stroke-width="1" stroke-linecap="round"/><path d="M244.29659,176.4491l-1.59226,-0.86019l-2.54679,-1.68224l1.65931,-0.16058l0.44184,-1.62979l-1.54525,-0.8806l-0.48207,-0.83382" data-paper-data="{&quot;index&quot;:null}" fill="none" stroke="url(#color-71)" stroke-width="1" stroke-linecap="round"/><path d="M231.41199,179.85125l1.77887,0.58645l1.02816,1.8872l1.57538,0.06125l0.67741,0.83374" data-paper-data="{&quot;index&quot;:null}" fill="none" stroke="url(#color-72)" stroke-width="1" stroke-linecap="round"/><path d="M247.7837,187.85709l-0.61406,-0.85604l-1.8137,-0.0422l-1.12439,-1.70943l-1.74648,0.37659l-1.11686,-1.65521" data-paper-data="{&quot;index&quot;:null}" fill="none" stroke="url(#color-73)" stroke-width="1" stroke-linecap="round"/><path d="M248.91544,174.6071l-0.70618,1.54336l-1.85095,0.27336l-0.25537,1.18584l-1.30527,1.19044l-1.27784,-1.24966l-0.75099,0.66542" data-paper-data="{&quot;index&quot;:null}" fill="none" stroke="url(#color-74)" stroke-width="1" stroke-linecap="round"/><path d="M240.59784,175.27018l-0.01152,1.48454l-1.58641,1.27756" data-paper-data="{&quot;index&quot;:null}" fill="none" stroke="url(#color-75)" stroke-width="1" stroke-linecap="round"/><path d="M238.48479,177.64243l-1.29966,0.29319l-0.48151,1.43081l-1.13499,-0.51555l-1.63243,-1.21411l-0.93095,0.52908" data-paper-data="{&quot;index&quot;:null}" fill="none" stroke="url(#color-76)" stroke-width="1" stroke-linecap="round"/><path d="M235.33104,181.05393l1.45178,-0.02916l0.57524,-1.20088l2.6901,-0.48993" data-paper-data="{&quot;index&quot;:null}" fill="none" stroke="url(#color-77)" stroke-width="1" stroke-linecap="round"/><path d="M237.91351,182.59534l1.38159,0.96617l-0.8103,1.65841l0.92613,1.83463l-2.47655,0.48686" data-paper-data="{&quot;index&quot;:null}" fill="none" stroke="url(#color-78)" stroke-width="1" stroke-linecap="round"/><path d="M237.35699,187.06696l0.73075,1.4903l-0.11987,0.76711" data-paper-data="{&quot;index&quot;:null}" fill="none" stroke="url(#color-79)" stroke-width="1" stroke-linecap="round"/><path d="M231.99551,183.74006l0.77611,0.38085" data-paper-data="{&quot;index&quot;:null}" fill="none" stroke="url(#color-80)" stroke-width="1" stroke-linecap="round"/><path d="M233.57182,175.77227c0,-0.07729 0.06265,-0.13994 0.13994,-0.13994c0.07729,0 0.13994,0.06265 0.13994,0.13994c0,0.07729 -0.06265,0.13994 -0.13994,0.13994c-0.07729,0 -0.13994,-0.06265 -0.13994,-0.13994z" fill="#ffffff" stroke="url(#color-81)" stroke-width="1" stroke-linecap="butt"/><path d="M243.64771,178.38454c0,-0.07729 0.06265,-0.13994 0.13994,-0.13994c0.07729,0 0.13994,0.06265 0.13994,0.13994c0,0.07729 -0.06265,0.13994 -0.13994,0.13994c-0.07729,0 -0.13994,-0.06265 -0.13994,-0.13994z" fill="#ffffff" stroke="url(#color-82)" stroke-width="1" stroke-linecap="butt"/><path d="M238.23659,187.90066c0,-0.07729 0.06265,-0.13994 0.13994,-0.13994c0.07729,0 0.13994,0.06265 0.13994,0.13994c0,0.07729 -0.06265,0.13994 -0.13994,0.13994c-0.07729,0 -0.13994,-0.06265 -0.13994,-0.13994z" fill="#ffffff" stroke="url(#color-83)" stroke-width="1" stroke-linecap="butt"/><path d="M225.41936,180c0,-8.05267 6.52798,-14.58064 14.58064,-14.58064c8.05267,0 14.58064,6.52798 14.58064,14.58064c0,8.05267 -6.52798,14.58064 -14.58064,14.58064c-8.05267,0 -14.58064,-6.52798 -14.58064,-14.58064z" fill="none" stroke="url(#color-84)" stroke-width="7" stroke-linecap="butt"/><path d="M225.41935,180c0,-8.05266 6.52798,-14.58065 14.58065,-14.58065c8.05266,0 14.58065,6.52798 14.58065,14.58065c0,8.05266 -6.52798,14.58065 -14.58065,14.58065c-8.05266,0 -14.58065,-6.52798 -14.58065,-14.58065z" fill="none" stroke="url(#color-85)" stroke-width="7" stroke-linecap="butt"/><path d="M213.09158,155.41656c0,-0.41422 0.33578,-0.75 0.75,-0.75c0.41422,0 0.75,0.33578 0.75,0.75c0,0.41422 -0.33578,0.75 -0.75,0.75c-0.41422,0 -0.75,-0.33578 -0.75,-0.75z" fill="#ffd500" stroke="none" stroke-width="0.5" stroke-linecap="butt"/><path d="M225.5545,159.52522c0,-0.41422 0.33578,-0.75 0.75,-0.75c0.41422,0 0.75,0.33578 0.75,0.75c0,0.41422 -0.33578,0.75 -0.75,0.75c-0.41422,0 -0.75,-0.33578 -0.75,-0.75z" fill="#ffd500" stroke="none" stroke-width="0.5" stroke-linecap="butt"/><path d="M251.98686,157.19698c0,-0.41422 0.33578,-0.75 0.75,-0.75c0.41422,0 0.75,0.33578 0.75,0.75c0,0.41422 -0.33578,0.75 -0.75,0.75c-0.41422,0 -0.75,-0.33578 -0.75,-0.75z" fill="#ffd500" stroke="none" stroke-width="0.5" stroke-linecap="butt"/><path d="M271.16058,187.87495c0,-0.41422 0.33578,-0.75 0.75,-0.75c0.41422,0 0.75,0.33578 0.75,0.75c0,0.41422 -0.33578,0.75 -0.75,0.75c-0.41422,0 -0.75,-0.33578 -0.75,-0.75z" fill="#ffd500" stroke="none" stroke-width="0.5" stroke-linecap="butt"/><path d="M250.34339,198.96832c0,-0.41422 0.33578,-0.75 0.75,-0.75c0.41422,0 0.75,0.33578 0.75,0.75c0,0.41422 -0.33578,0.75 -0.75,0.75c-0.41422,0 -0.75,-0.33578 -0.75,-0.75z" fill="#ffd500" stroke="none" stroke-width="0.5" stroke-linecap="butt"/><path d="M207.58946,180.20545c0,-0.27614 0.22386,-0.5 0.5,-0.5c0.27614,0 0.5,0.22386 0.5,0.5c0,0.27614 -0.22386,0.5 -0.5,0.5c-0.27614,0 -0.5,-0.22386 -0.5,-0.5z" fill="#ffd500" stroke="none" stroke-width="0.5" stroke-linecap="butt"/><path d="M218.81979,201.57046c0,-0.27614 0.22386,-0.5 0.5,-0.5c0.27614,0 0.5,0.22386 0.5,0.5c0,0.27614 -0.22386,0.5 -0.5,0.5c-0.27614,0 -0.5,-0.22386 -0.5,-0.5z" fill="#ffd500" stroke="none" stroke-width="0.5" stroke-linecap="butt"/><path d="M254.15423,209.103c0,-0.27614 0.22386,-0.5 0.5,-0.5c0.27614,0 0.5,0.22386 0.5,0.5c0,0.27614 -0.22386,0.5 -0.5,0.5c-0.27614,0 -0.5,-0.22386 -0.5,-0.5z" fill="#ffd500" stroke="none" stroke-width="0.5" stroke-linecap="butt"/><path d="M265.93237,168.83817c0,-0.27614 0.22386,-0.5 0.5,-0.5c0.27614,0 0.5,0.22386 0.5,0.5c0,0.27614 -0.22386,0.5 -0.5,0.5c-0.27614,0 -0.5,-0.22386 -0.5,-0.5z" fill="#ffd500" stroke="none" stroke-width="0.5" stroke-linecap="butt"/><path d="M260.72808,150.62313c0,-0.27614 0.22386,-0.5 0.5,-0.5c0.27614,0 0.5,0.22386 0.5,0.5c0,0.27614 -0.22386,0.5 -0.5,0.5c-0.27614,0 -0.5,-0.22386 -0.5,-0.5z" fill="#ffd500" stroke="none" stroke-width="0.5" stroke-linecap="butt"/><path d="M231.96748,164.86647c0,-0.27614 0.22386,-0.5 0.5,-0.5c0.27614,0 0.5,0.22386 0.5,0.5c0,0.27614 -0.22386,0.5 -0.5,0.5c-0.27614,0 -0.5,-0.22386 -0.5,-0.5z" fill="#ffd500" stroke="none" stroke-width="0.5" stroke-linecap="butt"/><path d="M221.96975,177.05548c0,-0.27614 0.22386,-0.5 0.5,-0.5c0.27614,0 0.5,0.22386 0.5,0.5c0,0.27614 -0.22386,0.5 -0.5,0.5c-0.27614,0 -0.5,-0.22386 -0.5,-0.5z" fill="#ffd500" stroke="none" stroke-width="0.5" stroke-linecap="butt"/><path d="M238.54133,199.927c0,-0.27614 0.22386,-0.5 0.5,-0.5c0.27614,0 0.5,0.22386 0.5,0.5c0,0.27614 -0.22386,0.5 -0.5,0.5c-0.27614,0 -0.5,-0.22386 -0.5,-0.5z" fill="#ffd500" stroke="none" stroke-width="0.5" stroke-linecap="butt"/><path d="M242.78694,210.60951c0,-0.27614 0.22386,-0.5 0.5,-0.5c0.27614,0 0.5,0.22386 0.5,0.5c0,0.27614 -0.22386,0.5 -0.5,0.5c-0.27614,0 -0.5,-0.22386 -0.5,-0.5z" fill="#ffd500" stroke="none" stroke-width="0.5" stroke-linecap="butt"/><path d="M261.96067,189.65536c0,-0.27614 0.22386,-0.5 0.5,-0.5c0.27614,0 0.5,0.22386 0.5,0.5c0,0.27614 -0.22386,0.5 -0.5,0.5c-0.27614,0 -0.5,-0.22386 -0.5,-0.5z" fill="#ffd500" stroke="none" stroke-width="0.5" stroke-linecap="butt"/><path d="M206.9304,180c0,-18.26383 14.80577,-33.0696 33.0696,-33.0696c18.26383,0 33.0696,14.80577 33.0696,33.0696c0,18.26383 -14.80577,33.0696 -33.0696,33.0696c-18.26383,0 -33.0696,-14.80577 -33.0696,-33.0696z" fill="none" stroke="url(#color-86)" stroke-width="10" stroke-linecap="butt"/><path d="M235.49929,180c0,-2.48567 2.01503,-4.50071 4.50071,-4.50071c2.48567,0 4.50071,2.01503 4.50071,4.50071c0,2.48567 -2.01503,4.50071 -4.50071,4.50071c-2.48567,0 -4.50071,-2.01503 -4.50071,-4.50071z" fill="url(#color-87)" stroke="none" stroke-width="0.5" stroke-linecap="butt"/></g></g></svg>