<svg version="1.1" xmlns="http://www.w3.org/2000/svg" xmlns:xlink="http://www.w3.org/1999/xlink" width="49.73723" height="33.42922" viewBox="0,0,49.73723,33.42922"><g transform="translate(-211.65524,-163.28545)"><g data-paper-data="{&quot;isPaintingLayer&quot;:true}" fill-rule="nonzero" stroke-miterlimit="10" stroke-dasharray="" stroke-dashoffset="0" style="mix-blend-mode: normal"><path d="M227.1107,183.07429c0,-2.81469 2.28176,-5.09645 5.09645,-5.09645c2.81469,0 5.09645,2.28176 5.09645,5.09645c0,2.81469 -2.28176,5.09645 -5.09645,5.09645c-2.81469,0 -5.09645,-2.28176 -5.09645,-5.09645z" fill="#faad32" stroke="#c78418" stroke-width="1.5" stroke-linecap="butt" stroke-linejoin="round"/><path d="M211.65524,180.00006c0,-9.23121 11.13405,-16.71461 24.86861,-16.71461c13.73454,0 24.86862,7.48337 24.86862,16.71461c0,9.23121 -11.13405,16.71461 -24.86862,16.71461c-13.73454,0 -24.86861,-7.48337 -24.86861,-16.71461z" fill="none" stroke="none" stroke-width="0" stroke-linecap="butt" stroke-linejoin="round"/><path d="M236.12539,186.29687c-2.01043,-1.48342 -2.54466,-4.2246 -1.318,-6.33621c0.08892,-0.15305 3.86516,-5.5767 3.97269,-5.72242c1.59095,-2.15616 4.62858,-2.61435 6.78474,-1.0234c1.99348,1.47091 2.53554,4.17843 1.34867,6.28263c-0.09686,0.17172 -3.88332,5.61333 -4.00336,5.77601c-1.59095,2.15616 -4.62858,2.61435 -6.78474,1.0234z" fill="#bfbfbf" stroke="none" stroke-width="0" stroke-linecap="butt" stroke-linejoin="miter"/><path d="M244.58718,168.48444l3.10689,2.28417l-3.18613,4.06349" fill="none" stroke="#ffffff" stroke-width="2.5" stroke-linecap="round" stroke-linejoin="miter"/><path d="M237.00864,185.07172c-1.37903,-1.01754 -1.74548,-2.89782 -0.90407,-4.34626c0.06099,-0.10499 3.78671,-5.39327 3.86047,-5.49323c1.0913,-1.479 3.17493,-1.79329 4.65392,-0.70199c1.3674,1.00896 1.73923,2.86615 0.9251,4.3095c-0.06644,0.11779 -3.79917,5.4184 -3.88151,5.52999c-1.0913,1.479 -3.17493,1.79329 -4.65392,0.70199z" fill="#33c2ff" stroke="none" stroke-width="0" stroke-linecap="butt" stroke-linejoin="miter"/><g fill="none" stroke="#99e0ff" stroke-width="1.5" stroke-linecap="round" stroke-linejoin="miter"><g><path d="M242.53886,177.42584l-2.47219,0.41031"/><path d="M242.97006,179.91297l-0.41031,-2.47219" data-paper-data="{&quot;index&quot;:null}"/></g><g><path d="M238.19998,180.4467l2.47219,-0.41031"/><path d="M240.69306,180.05133l0.41032,2.4722" data-paper-data="{&quot;index&quot;:null}"/></g></g></g></g></svg>