<svg version="1.1" xmlns="http://www.w3.org/2000/svg" xmlns:xlink="http://www.w3.org/1999/xlink" width="49.73722" height="33.42922" viewBox="0,0,49.73722,33.42922"><g transform="translate(-211.65524,-163.28545)"><g data-paper-data="{&quot;isPaintingLayer&quot;:true}" fill-rule="nonzero" stroke-linecap="butt" stroke-miterlimit="10" stroke-dasharray="" stroke-dashoffset="0" style="mix-blend-mode: normal"><path d="M227.1107,183.0743c0,-2.81469 2.28176,-5.09645 5.09645,-5.09645c2.81469,0 5.09645,2.28176 5.09645,5.09645c0,2.81469 -2.28176,5.09645 -5.09645,5.09645c-2.81469,0 -5.09645,-2.28176 -5.09645,-5.09645z" fill="#faad32" stroke="#c78418" stroke-width="1.5" stroke-linejoin="round"/><path d="M211.65524,180.00006c0,-9.23122 11.13405,-16.71461 24.86861,-16.71461c13.73454,0 24.86861,7.48338 24.86861,16.71461c0,9.23122 -11.13405,16.71461 -24.86861,16.71461c-13.73454,0 -24.86861,-7.48338 -24.86861,-16.71461z" fill="none" stroke="none" stroke-width="0" stroke-linejoin="round"/><g><path d="M240.76664,173.80616l10.25529,0.02868v12.32495l-10.10744,0.03406z" data-paper-data="{&quot;index&quot;:null}" fill="#f27d6d" stroke="#ffbbb3" stroke-width="2" stroke-linejoin="round"/><path d="M240.76664,173.80616l9.68334,0.02868v12.32495l-9.54373,0.03406z" data-paper-data="{&quot;index&quot;:null}" fill="none" stroke="#ffffff" stroke-width="1" stroke-linejoin="round"/><path d="M230.70577,180c0,-2.25065 1.82451,-4.07516 4.07516,-4.07516c2.25065,0 4.07516,1.82451 4.07516,4.07516c0,2.25065 -1.82451,4.07516 -4.07516,4.07516c-2.25065,0 -4.07516,-1.82451 -4.07516,-4.07516z" fill="none" stroke="#cc8029" stroke-width="1.5" stroke-linejoin="miter"/><path d="M241.45773,175.73837c0.00189,-0.00189 0.53406,1.78901 1.65761,2.88649c1.029,1.00513 2.65777,1.32491 2.65777,1.32491c0,0 0.25088,-2.1152 1.36126,-3.22835c0.98419,-0.98664 2.84287,-0.9868 2.84661,-0.98306c1.26732,1.26732 1.08631,7.43694 0,8.52325c-0.00646,0.00646 -0.40599,-1.89379 -1.50205,-2.99218c-1.00007,-1.00218 -2.70574,-1.21107 -2.70574,-1.21107c0,0 -0.23566,1.92816 -1.32181,2.98855c-1.06894,1.04359 -2.98862,1.21972 -2.99365,1.21469c-1.12556,-1.12556 -1.22807,-7.29518 0,-8.52325z" fill="#ff9a8c" stroke="none" stroke-width="0" stroke-linejoin="miter"/><path d="M235.23792,176.82363l3.19898,-4.37585l2.69408,0.33445v14.42912l-2.65524,0.34089l-3.2378,-4.3823z" data-paper-data="{&quot;index&quot;:null}" fill="#ffac4d" stroke="#cc8029" stroke-width="1.5" stroke-linejoin="round"/><path d="M250.34336,172.74794l2.99801,0.90935v12.6792l-2.96248,0.91554z" data-paper-data="{&quot;index&quot;:null}" fill="#ffac4d" stroke="#cc8029" stroke-width="1.5" stroke-linejoin="round"/></g></g></g></svg>