<svg version="1.1" xmlns="http://www.w3.org/2000/svg" xmlns:xlink="http://www.w3.org/1999/xlink" width="55.49335" height="46.38334" viewBox="0,0,55.49335,46.38334"><g transform="translate(-207.69832,-156.80833)"><g data-paper-data="{&quot;isPaintingLayer&quot;:true}" fill-rule="nonzero" stroke-linecap="butt" stroke-linejoin="miter" stroke-miterlimit="10" stroke-dasharray="" stroke-dashoffset="0" style="mix-blend-mode: normal"><path d="M216.80833,180c0,-12.8084 10.38327,-23.19167 23.19167,-23.19167c12.8084,0 23.19167,10.38327 23.19167,23.19167c0,12.8084 -10.38327,23.19167 -23.19167,23.19167c-12.8084,0 -23.19167,-10.38327 -23.19167,-23.19167z" fill="none" stroke="none" stroke-width="0"/><path d="M242.11067,171.44293c0,0 4.13164,-0.32529 6.46236,2.03219c2.3307,2.35748 2.03219,6.48674 2.03219,6.48674c0,0 0.32529,4.17535 -2.03219,6.5599c-2.35748,2.38455 -6.46236,2.03219 -6.46236,2.03219h-33.40916l-0.12193,-17.11103z" data-paper-data="{&quot;index&quot;:null}" fill="#808080" stroke="#333333" stroke-width="1.75"/><g fill="#4d4d4d" stroke="none" stroke-width="0"><path d="M238.83841,185.77669v-11.55338h2.32318v11.55338z"/><path d="M245.77669,181.16159h-11.55338v-2.32318h11.55338z"/><path d="M243.26337,184.9061l-8.16947,-8.16947l1.64273,-1.64273l8.16947,8.16947z"/><path d="M244.9061,176.73663l-8.16947,8.16947l-1.64273,-1.64273l8.16947,-8.16947z"/></g><path d="M236.7122,180c0,-1.8158 1.472,-3.2878 3.2878,-3.2878c1.8158,0 3.2878,1.472 3.2878,3.2878c0,1.8158 -1.472,3.2878 -3.2878,3.2878c-1.8158,0 -3.2878,-1.472 -3.2878,-3.2878z" fill="#808080" stroke="#4d4d4d" stroke-width="2"/></g></g></svg>