<svg version="1.1" xmlns="http://www.w3.org/2000/svg" xmlns:xlink="http://www.w3.org/1999/xlink" width="228.59167" height="108.86344" viewBox="0,0,228.59167,108.86344"><g transform="translate(-125.70425,-125.56828)"><g data-paper-data="{&quot;isPaintingLayer&quot;:true}" fill-rule="nonzero" stroke-miterlimit="10" stroke-dasharray="" stroke-dashoffset="0" style="mix-blend-mode: normal"><path d="M125.70426,234.43172v-108.86344h228.59167v108.86344z" fill="none" stroke="none" stroke-width="0" stroke-linecap="butt" stroke-linejoin="miter"/><text transform="translate(149.14319,157.87566) scale(0.44693,0.44693)" font-size="40" xml:space="preserve" fill="#ffffff" fill-rule="nonzero" stroke="#ffffff" stroke-width="2" stroke-linecap="butt" stroke-linejoin="round" stroke-miterlimit="10" stroke-dasharray="" stroke-dashoffset="0" font-family="Malgun Gothic" font-weight="normal" text-anchor="start" style="mix-blend-mode: normal"><tspan x="0" dy="0">Inventory</tspan></text><g stroke-linejoin="miter"><path d="M326.4167,150.20858c0,-4.05009 3.28325,-7.33333 7.33333,-7.33333c4.05009,0 7.33333,3.28325 7.33333,7.33333c0,4.05009 -3.28325,7.33333 -7.33333,7.33333c-4.05009,0 -7.33333,-3.28325 -7.33333,-7.33333z" fill="#80b3ff" stroke="none" stroke-width="0" stroke-linecap="butt"/><g fill="none" stroke="#ffffff"><path d="M326.57176,150.24191c0,-3.96444 3.21382,-7.17826 7.17826,-7.17826c3.96444,0 7.17826,3.21382 7.17826,7.17826c0,3.96444 -3.21382,7.17826 -7.17826,7.17826c-3.96444,0 -7.17826,-3.21382 -7.17826,-7.17826z" stroke-width="1.5" stroke-linecap="butt"/><g stroke-width="1" stroke-linecap="round"><path d="M326.62701,150.24191h14.24611"/><path d="M327.38669,146.83861h12.72679"/><path d="M327.38667,153.64521h12.72679" data-paper-data="{&quot;index&quot;:null}"/><path d="M333.75003,157.11486v-13.82928" data-paper-data="{&quot;index&quot;:null}"/><path d="M336.22749,143.70243c0,0 1.6516,2.01336 1.6516,6.48846c0,4.4751 -1.6516,6.59051 -1.6516,6.59051" data-paper-data="{&quot;index&quot;:null}"/><path d="M331.27261,156.7814c0,0 -1.6516,-2.11541 -1.6516,-6.59051c0,-4.4751 1.6516,-6.48846 1.6516,-6.48846" data-paper-data="{&quot;index&quot;:null}"/></g></g></g><text transform="translate(163.64294,176.12582) scale(0.20873,0.20873)" font-size="40" xml:space="preserve" fill="#ffffff" fill-rule="nonzero" stroke="#ffffff" stroke-width="2" stroke-linecap="butt" stroke-linejoin="round" stroke-miterlimit="10" stroke-dasharray="" stroke-dashoffset="0" font-family="Malgun Gothic" font-weight="normal" text-anchor="start" style="mix-blend-mode: normal"><tspan x="0" dy="0">select bought item</tspan><tspan x="0" dy="48px">by clicking it will be</tspan><tspan x="0" dy="48px">added to your hotbar</tspan><tspan x="0" dy="48px">click again to deselect it</tspan></text><text transform="translate(267.81129,154.87163) scale(0.23971,0.23971)" font-size="40" xml:space="preserve" fill="#ffffff" fill-rule="nonzero" stroke="#ffffff" stroke-width="2" stroke-linecap="butt" stroke-linejoin="round" stroke-miterlimit="10" stroke-dasharray="" stroke-dashoffset="0" font-family="Malgun Gothic" font-weight="normal" text-anchor="start" style="mix-blend-mode: normal"><tspan x="0" dy="0">bought</tspan></text><text transform="translate(264.47256,173.23464) scale(0.23971,0.23971)" font-size="40" xml:space="preserve" fill="#ffffff" fill-rule="nonzero" stroke="#ffffff" stroke-width="2" stroke-linecap="butt" stroke-linejoin="round" stroke-miterlimit="10" stroke-dasharray="" stroke-dashoffset="0" font-family="Malgun Gothic" font-weight="normal" text-anchor="start" style="mix-blend-mode: normal"><tspan x="0" dy="0">selected</tspan></text><text transform="translate(271.48389,191.26378) scale(0.23971,0.23971)" font-size="40" xml:space="preserve" fill="#ffffff" fill-rule="nonzero" stroke="#ffffff" stroke-width="2" stroke-linecap="butt" stroke-linejoin="round" stroke-miterlimit="10" stroke-dasharray="" stroke-dashoffset="0" font-family="Malgun Gothic" font-weight="normal" text-anchor="start" style="mix-blend-mode: normal"><tspan x="0" dy="0">locked</tspan></text><text transform="translate(264.80643,209.62679) scale(0.23971,0.23971)" font-size="40" xml:space="preserve" fill="#ffffff" fill-rule="nonzero" stroke="#ffffff" stroke-width="2" stroke-linecap="butt" stroke-linejoin="round" stroke-miterlimit="10" stroke-dasharray="" stroke-dashoffset="0" font-family="Malgun Gothic" font-weight="normal" text-anchor="start" style="mix-blend-mode: normal"><tspan x="0" dy="0">can buy</tspan></text><path d="M303.43588,188.49077c0,-3.73601 3.02864,-6.76464 6.76464,-6.76464c3.736,0 6.76464,3.02863 6.76464,6.76464c0,3.73601 -3.02864,6.76464 -6.76464,6.76464c-3.736,0 -6.76464,-3.02864 -6.76464,-6.76464z" fill="#999999" stroke="#993d3d" stroke-width="1.5" stroke-linecap="butt" stroke-linejoin="miter"/><path d="M303.43588,170.39986c0,-3.73601 3.02864,-6.76464 6.76464,-6.76464c3.736,0 6.76464,3.02864 6.76464,6.76464c0,3.73601 -3.02864,6.76464 -6.76464,6.76464c-3.736,0 -6.76464,-3.02863 -6.76464,-6.76464z" fill="#999999" stroke="#2e5999" stroke-width="1.5" stroke-linecap="butt" stroke-linejoin="miter"/><path d="M303.43588,152.30894c0,-3.73601 3.02864,-6.76464 6.76464,-6.76464c3.736,0 6.76464,3.02863 6.76464,6.76464c0,3.73601 -3.02864,6.76464 -6.76464,6.76464c-3.736,0 -6.76464,-3.02864 -6.76464,-6.76464z" fill="#999999" stroke="#333333" stroke-width="1.5" stroke-linecap="butt" stroke-linejoin="miter"/><path d="M303.43588,207.22361c0,-3.73601 3.02864,-6.76464 6.76464,-6.76464c3.736,0 6.76464,3.02863 6.76464,6.76464c0,3.73601 -3.02864,6.76464 -6.76464,6.76464c-3.736,0 -6.76464,-3.02864 -6.76464,-6.76464z" fill="#999999" stroke="#006629" stroke-width="1.5" stroke-linecap="butt" stroke-linejoin="miter"/></g></g></svg>