<svg version="1.1" xmlns="http://www.w3.org/2000/svg" xmlns:xlink="http://www.w3.org/1999/xlink" width="171.3" height="120.1" viewBox="0,0,171.3,120.1"><g transform="translate(-154.35,-119.95)"><g data-paper-data="{&quot;isPaintingLayer&quot;:true}" fill-rule="nonzero" stroke-linecap="butt" stroke-miterlimit="10" stroke-dasharray="" stroke-dashoffset="0" style="mix-blend-mode: normal"><path d="M154.35,240.05v-120.1h171.3v120.1z" fill="none" stroke="none" stroke-width="0" stroke-linejoin="miter"/><path d="M300.00572,139.71885c0,0 3.55619,-0.27998 5.56229,1.74915c2.00609,2.02913 1.74915,5.64625 1.74915,5.64625v65.77151c0,0 0.27998,3.59382 -1.74915,5.64625c-2.02913,2.05243 -5.56229,1.74915 -5.56229,1.74915h-119.90416c0,0 -3.61774,0.29456 -5.66724,-1.74915c-2.04951,-2.04371 -1.74915,-5.64625 -1.74915,-5.64625v-65.77151c0,0 -0.27998,-3.59382 1.74915,-5.64625c2.02913,-2.05243 5.56229,-1.74915 5.56229,-1.74915z" data-paper-data="{&quot;index&quot;:null}" fill="#b3a88f" stroke="#b3a88f" stroke-width="6" stroke-linejoin="miter"/><path d="M300.00572,139.71885c0,0 3.55619,-0.27998 5.56229,1.74915c2.00609,2.02913 1.74915,5.64625 1.74915,5.64625v65.77151c0,0 0.27998,3.59382 -1.74915,5.64625c-2.02913,2.05243 -5.56229,1.74915 -5.56229,1.74915h-119.90416c0,0 -3.61774,0.29456 -5.66724,-1.74915c-2.04951,-2.04371 -1.74915,-5.64625 -1.74915,-5.64625v-65.77151c0,0 -0.27998,-3.59382 1.74915,-5.64625c2.02913,-2.05243 5.56229,-1.74915 5.56229,-1.74915z" data-paper-data="{&quot;index&quot;:null}" fill="#b3a88f" stroke="#807459" stroke-width="2" stroke-linejoin="miter"/><path d="M244.35883,146.38313c0,0 3.01795,-0.2376 4.72042,1.48441c1.70246,1.72201 1.48441,4.79167 1.48441,4.79167v33.34826c0,0 0.2376,3.04988 -1.48441,4.79167c-1.72201,1.74179 -4.72042,1.48441 -4.72042,1.48441h-57.62661c0,0 -3.07018,0.24998 -4.80948,-1.48441c-1.73931,-1.73439 -1.48441,-4.79167 -1.48441,-4.79167v-33.34826c0,0 -0.2376,-3.04988 1.48441,-4.79167c1.72201,-1.74179 4.72042,-1.48441 4.72042,-1.48441z" data-paper-data="{&quot;index&quot;:null}" fill="#9da6f2" stroke="#807459" stroke-width="2" stroke-linejoin="miter"/><path d="M244.35883,146.38313c0,0 3.01795,-0.2376 4.72042,1.48441c1.70246,1.72201 1.48441,4.79167 1.48441,4.79167v33.34826c0,0 0.2376,3.04988 -1.48441,4.79167c-1.72201,1.74179 -4.72042,1.48441 -4.72042,1.48441h-57.62661c0,0 -3.07018,0.24998 -4.80948,-1.48441c-1.73931,-1.73439 -1.48441,-4.79167 -1.48441,-4.79167v-33.34826c0,0 -0.2376,-3.04988 1.48441,-4.79167c1.72201,-1.74179 4.72042,-1.48441 4.72042,-1.48441z" data-paper-data="{&quot;index&quot;:null}" fill="none" stroke="#807459" stroke-width="2" stroke-linejoin="miter"/><text transform="translate(254.46255,159.15424) scale(0.36702,0.36702)" font-size="40" xml:space="preserve" data-paper-data="{&quot;index&quot;:null}" fill="#ffffff" fill-rule="nonzero" stroke="#ffffff" stroke-width="2" stroke-linecap="butt" stroke-linejoin="round" stroke-miterlimit="10" stroke-dasharray="" stroke-dashoffset="0" font-family="Malgun Gothic" font-weight="normal" text-anchor="start" style="mix-blend-mode: normal"><tspan x="0" dy="0">TEAM</tspan></text><text transform="translate(181.18486,210.65424) scale(0.36702,0.36702)" font-size="40" xml:space="preserve" data-paper-data="{&quot;index&quot;:null}" fill="#ffffff" fill-rule="nonzero" stroke="#ffffff" stroke-width="2" stroke-linecap="butt" stroke-linejoin="round" stroke-miterlimit="10" stroke-dasharray="" stroke-dashoffset="0" font-family="Malgun Gothic" font-weight="normal" text-anchor="start" style="mix-blend-mode: normal"><tspan x="0" dy="0">+SPEED BONUS</tspan></text><text transform="translate(254.46255,176.15424) scale(0.36702,0.36702)" font-size="40" xml:space="preserve" data-paper-data="{&quot;index&quot;:null}" fill="#ffffff" fill-rule="nonzero" stroke="#ffffff" stroke-width="2" stroke-linecap="butt" stroke-linejoin="round" stroke-miterlimit="10" stroke-dasharray="" stroke-dashoffset="0" font-family="Malgun Gothic" font-weight="normal" text-anchor="start" style="mix-blend-mode: normal"><tspan x="0" dy="0">BLUE</tspan></text></g></g></svg>