<svg version="1.1" xmlns="http://www.w3.org/2000/svg" xmlns:xlink="http://www.w3.org/1999/xlink" width="130.8" height="127.6" viewBox="0,0,130.8,127.6"><g transform="translate(-174.6,-116.2)"><g data-paper-data="{&quot;isPaintingLayer&quot;:true}" fill-rule="nonzero" stroke-miterlimit="10" stroke-dasharray="" stroke-dashoffset="0" style="mix-blend-mode: normal"><path d="M174.6,243.8v-127.6h130.8v127.6z" fill="none" stroke="none" stroke-width="0" stroke-linecap="butt" stroke-linejoin="miter"/><path d="M274.00572,135.96885c0,0 3.55619,-0.27998 5.56229,1.74915c2.00609,2.02913 1.74915,5.64625 1.74915,5.64625v73.27151c0,0 0.27998,3.59382 -1.74915,5.64625c-2.02913,2.05243 -5.56229,1.74915 -5.56229,1.74915h-67.90416c0,0 -3.61774,0.29456 -5.66724,-1.74915c-2.04951,-2.04371 -1.74915,-5.64625 -1.74915,-5.64625v-73.27151c0,0 -0.27998,-3.59382 1.74915,-5.64625c2.02913,-2.05243 5.56229,-1.74915 5.56229,-1.74915z" data-paper-data="{&quot;index&quot;:null}" fill="#b3a88f" stroke="#ffffff" stroke-width="12" stroke-linecap="butt" stroke-linejoin="miter"/><path d="M274.00572,135.96885c0,0 3.55619,-0.27998 5.56229,1.74915c2.00609,2.02913 1.74915,5.64625 1.74915,5.64625v73.27151c0,0 0.27998,3.59382 -1.74915,5.64625c-2.02913,2.05243 -5.56229,1.74915 -5.56229,1.74915h-67.90416c0,0 -3.61774,0.29456 -5.66724,-1.74915c-2.04951,-2.04371 -1.74915,-5.64625 -1.74915,-5.64625v-73.27151c0,0 -0.27998,-3.59382 1.74915,-5.64625c2.02913,-2.05243 5.56229,-1.74915 5.56229,-1.74915z" data-paper-data="{&quot;index&quot;:null}" fill="#b3a88f" stroke="#807459" stroke-width="2" stroke-linecap="butt" stroke-linejoin="miter"/><text transform="translate(212.01472,217.61899) scale(0.36702,0.36702)" font-size="40" xml:space="preserve" fill="#ffffff" fill-rule="nonzero" stroke="#ffffff" stroke-width="2" stroke-linecap="butt" stroke-linejoin="round" stroke-miterlimit="10" stroke-dasharray="" stroke-dashoffset="0" font-family="Malgun Gothic" font-weight="normal" text-anchor="start" style="mix-blend-mode: normal"><tspan x="0" dy="0">SOLO AI</tspan></text><g><path d="M268.85884,142.63315c0,0 3.01795,-0.2376 4.72042,1.48441c1.70246,1.72201 1.48441,4.79167 1.48441,4.79167v44.84826c0,0 0.2376,3.04988 -1.48441,4.79167c-1.72201,1.74179 -4.72042,1.48441 -4.72042,1.48441h-57.62661c0,0 -3.07018,0.24998 -4.80948,-1.48441c-1.73931,-1.73439 -1.48441,-4.79167 -1.48441,-4.79167v-44.84826c0,0 -0.2376,-3.04988 1.48441,-4.79167c1.72201,-1.74179 4.72042,-1.48441 4.72042,-1.48441z" data-paper-data="{&quot;index&quot;:null}" fill="#73d99c" stroke="#807459" stroke-width="2" stroke-linecap="butt" stroke-linejoin="miter"/><g stroke="none" stroke-width="0" stroke-linecap="butt" stroke-linejoin="miter"><g data-paper-data="{&quot;index&quot;:null}"><path d="M244.70803,180.57685v-18.11084h18.11084v18.11084z" fill="#66cc8f"/><path d="M244.70803,161.02737v-18.11084h18.11084v18.11084z" fill="#66cc8f"/><path d="M264.25748,180.57685v-18.11084h10.49752v18.11084z" fill="#66cc8f"/><path d="M244.70803,200.12632v-18.11084h18.11084v18.11084z" fill="#66cc8f"/><path d="M264.25748,200.12632v-18.11084h10.49752c0,0 0,11.22075 0,14.4466c0,1.62462 -1.97008,3.66424 -3.27475,3.66424c-1.9376,0 -7.22277,0 -7.22277,0z" fill="#66cc8f"/><path d="M205.60907,180.57685v-18.11084h18.11084v18.11084z" fill="#66cc8f"/><path d="M205.60907,161.02737c0,0 0,-13.7926 0,-16.44134c0,-0.84404 1.08386,-1.6695 2.11991,-1.6695c2.84549,0 15.99093,0 15.99093,0v8.12007c0,0 0.43476,4.46208 -2.17168,7.3619c-2.60644,2.89981 -6.80833,2.62888 -6.80833,2.62888z" fill="#99764d"/><path d="M225.15855,180.57685v-18.11084h18.11084v18.11084z" fill="#66cc8f"/><path d="M225.15855,161.02737v-18.11084h18.11084v18.11084z" fill="#66cc8f"/><path d="M205.60907,195.52458c0,-3.31914 0,-13.50908 0,-13.50908h18.11084v18.11084c0,0 -10.84804,0 -14.1159,0c-1.73846,0 -3.99494,-2.66456 -3.99494,-4.60176z" fill="#66cc8f"/><path d="M225.15855,200.12632v-18.11084h18.11084v18.11084z" fill="#66cc8f"/></g><path d="M273.36604,161.02737c0,0 -4.20189,0.27093 -6.80833,-2.62888c-2.60644,-2.89981 -2.17168,-7.3619 -2.17168,-7.3619v-8.12007c0,0 4.45871,0 7.3042,0c1.03605,0 3.4915,3.11144 3.4915,3.95548c0,2.64874 0,14.15536 0,14.15536z" data-paper-data="{&quot;index&quot;:null}" fill="#99764d"/></g><g stroke-width="0.75"><g stroke-linejoin="round"><path d="M248.70918,154.97544c0,0 0.1595,2.02583 -0.99643,3.16864c-1.15593,1.1428 -3.21647,0.99643 -3.21647,0.99643h-7.99248c0,0 -2.04727,0.1595 -3.21647,-0.99643c-1.1692,-1.15593 -0.99643,-3.16864 -0.99643,-3.16864v-4.25649c0,0 -0.1678,-2.06089 0.99643,-3.22842c1.16423,-1.16753 3.21647,-0.99643 3.21647,-0.99643h7.99248c0,0 2.04727,-0.1595 3.21647,0.99643c1.1692,1.15593 0.99643,3.16864 0.99643,3.16864z" data-paper-data="{&quot;index&quot;:null}" fill="#faad32" stroke="#c78418" stroke-linecap="butt"/><path d="M246.40768,156.53376c0,0 0.07918,1.00577 -0.4947,1.57314c-0.57388,0.56737 -1.59688,0.4947 -1.59688,0.4947h-7.63214c0,0 -1.01641,0.07918 -1.59688,-0.4947c-0.58047,-0.57388 -0.4947,-1.57314 -0.4947,-1.57314v-0.31504c0,0 -0.0833,-1.02317 0.4947,-1.60282c0.578,-0.57964 1.59688,-0.4947 1.59688,-0.4947h7.63214c0,0 1.01641,-0.07918 1.59688,0.4947c0.58047,0.57388 0.4947,1.57314 0.4947,1.57314z" data-paper-data="{&quot;index&quot;:null}" fill="#ffffff" stroke="none" stroke-linecap="butt"/><path d="M249.14147,153.96676l-2.04216,0.5183l-1.00682,-1.98575l-11.21627,-0.00879l-0.97721,1.95706l-2.04039,-0.48082l0.43229,-3.24781c0,0 -0.1678,-2.06089 0.99643,-3.22842c1.16423,-1.16753 3.21647,-0.99643 3.21647,-0.99643h7.99248c0,0 2.04727,-0.1595 3.21647,0.99643c1.1692,1.15593 0.99643,3.16864 0.99643,3.16864z" data-paper-data="{&quot;index&quot;:null}" fill="#00b3b3" stroke="#008080" stroke-linecap="butt"/><path d="M241.61318,148.7977c0,0 3.37421,-3.1601 4.02563,-3.1601c0.57,0 1.39493,3.1601 1.39493,3.1601" data-paper-data="{&quot;index&quot;:null}" fill="#00b3b3" stroke="#008080" stroke-linecap="round"/><path d="M233.96632,148.7977c0,0 0.82493,-3.1601 1.39493,-3.1601c0.65142,0 4.02563,3.1601 4.02563,3.1601" data-paper-data="{&quot;index&quot;:null}" fill="#00b3b3" stroke="#008080" stroke-linecap="round"/><path d="M238.26211,155.44842c0,1.01795 -0.85649,1.84316 -1.91302,1.84316c-1.05653,0 -1.91302,-0.82521 -1.91302,-1.84316c0,-1.01795 0.85649,-1.84317 1.91302,-1.84317c1.05653,0 1.91302,0.82522 1.91302,1.84317z" fill="#262626" stroke="none" stroke-linecap="butt"/><path d="M236.62809,154.88314c0,0.40552 -0.3412,0.73426 -0.76209,0.73426c-0.42089,0 -0.76209,-0.32874 -0.76209,-0.73426c0,-0.40552 0.3412,-0.73426 0.76209,-0.73426c0.42089,0 0.76209,0.32874 0.76209,0.73426z" fill="#595959" stroke="none" stroke-linecap="butt"/><path d="M244.65098,153.60527c1.05654,0 1.91302,0.82522 1.91302,1.84317c0,1.01795 -0.85649,1.84316 -1.91302,1.84316c-1.05654,0 -1.91302,-0.82521 -1.91302,-1.84316c0,-1.01795 0.85649,-1.84317 1.91302,-1.84317z" data-paper-data="{&quot;index&quot;:null}" fill="#262626" stroke="none" stroke-linecap="butt"/><path d="M244.92996,154.88314c0,0.40552 -0.3412,0.73426 -0.76209,0.73426c-0.42089,0 -0.76209,-0.32874 -0.76209,-0.73426c0,-0.40552 0.3412,-0.73426 0.76209,-0.73426c0.42089,0 0.76209,0.32874 0.76209,0.73426z" data-paper-data="{&quot;index&quot;:null}" fill="#595959" stroke="none" stroke-linecap="butt"/></g><g stroke-linecap="butt"><path d="M242.7817,164.34411c1.61976,0 2.93283,1.31307 2.93283,2.93283c0,1.61976 -1.31307,2.93283 -2.93283,2.93283c-1.61976,0 -2.93283,-1.31307 -2.93283,-2.93283c0,-1.61976 1.31307,-2.93283 2.93283,-2.93283z" fill="#faad32" stroke="#c78418" stroke-linejoin="round"/><g><path d="M238.60958,160.02812c1.61976,0 2.93283,1.31307 2.93283,2.93283c0,1.61976 -1.31307,2.93283 -2.93283,2.93283c-1.61976,0 -2.93283,-1.31307 -2.93283,-2.93283c0,-1.61976 1.31307,-2.93283 2.93283,-2.93283z" fill="#faad32" stroke="#c78418" stroke-linejoin="round"/><path d="M238.53088,168.23056l0.6618,-2.66091l-0.44572,-2.63577l0.07918,-0.97568h3.11486l0.07683,1.00987l-0.44337,2.60159l0.65205,2.70071l-0.432,7.09208h-2.82192z" data-paper-data="{&quot;index&quot;:null}" fill="#637ea6" stroke="#335080" stroke-linejoin="round"/><path d="M240.3787,166.47293c1.41768,0 2.56694,0.69307 2.56694,1.54801c0,0.85494 -1.14926,1.54801 -2.56694,1.54801c-1.41768,0 -2.56694,-0.69307 -2.56694,-1.54801c0,-0.85494 1.14926,-1.54801 2.56694,-1.54801z" fill="#cce0ff" stroke="#85a1cc" stroke-linejoin="miter"/></g></g></g><g stroke-width="0.6" stroke-linejoin="round"><g><path d="M214.095,182.096c0,0 1.16664,-1.36603 2.60357,-1.35783c1.43693,0.00821 2.63346,1.38773 2.63346,1.38773l4.99606,4.99607c0,0 1.37945,1.18004 1.38774,2.63346c0.0083,1.45342 -1.35784,2.60357 -1.35784,2.60357l-2.66071,2.66071c0,0 -1.18336,1.39315 -2.64093,1.39521c-1.45757,0.00206 -2.63347,-1.38774 -2.63347,-1.38774l-4.99606,-4.99606c0,0 -1.37945,-1.18005 -1.38774,-2.63347c-0.0083,-1.45342 1.35784,-2.60356 1.35784,-2.60356z" data-paper-data="{&quot;index&quot;:null}" fill="#64eb46" stroke="#23ad03" stroke-linecap="butt"/><path d="M219.44901,195.17337l-2.84733,1.1034l-0.54104,-4.49176" fill="#64eb46" stroke="#23ad03" stroke-linecap="round"/><path d="M216.50776,182.56056c0,0 0.5792,-0.6782 1.29259,-0.67413c0.71339,0.00407 1.30744,0.68897 1.30744,0.68897l4.77081,4.77081c0,0 0.68485,0.58586 0.68897,1.30743c0.00412,0.72158 -0.67413,1.2926 -0.67413,1.2926l-0.19693,0.19693c0,0 -0.58751,0.69165 -1.31115,0.69268c-0.72364,0.00102 -1.30743,-0.68897 -1.30743,-0.68897l-4.77081,-4.77081c0,0 -0.68485,-0.58586 -0.68897,-1.30743c-0.00412,-0.72158 0.67413,-1.29259 0.67413,-1.29259z" data-paper-data="{&quot;index&quot;:null}" fill="#ffffff" stroke="none" stroke-linecap="butt"/><path d="M214.66899,190.39334l-4.49176,-0.54104l1.1034,-2.84733" data-paper-data="{&quot;index&quot;:null}" fill="#64eb46" stroke="#23ad03" stroke-linecap="round"/><path d="M220.92109,188.33074c0.63631,-0.63631 1.68754,-0.61677 2.34797,0.04367c0.66043,0.66043 0.67999,1.71166 0.04367,2.34797c-0.63631,0.63631 -1.68754,0.61677 -2.34798,-0.04366c-0.66043,-0.66043 -0.67998,-1.71166 -0.04367,-2.34798z" fill="#262626" stroke="none" stroke-linecap="butt"/><path d="M221.58914,189.70553c0.25349,-0.25349 0.67226,-0.24571 0.93536,0.01739c0.26309,0.26309 0.27088,0.68187 0.01739,0.93536c-0.25349,0.25349 -0.67226,0.24571 -0.93536,-0.01739c-0.26309,-0.26309 -0.27088,-0.68187 -0.01739,-0.93536z" fill="#595959" stroke="none" stroke-linecap="butt"/><path d="M215.77529,185.48923c-0.66044,-0.66044 -0.67998,-1.71166 -0.04366,-2.34797c0.63631,-0.63631 1.68755,-0.61676 2.34797,0.04367c0.66044,0.66044 0.67998,1.71166 0.04367,2.34797c-0.63631,0.63631 -1.68755,0.61676 -2.34798,-0.04367z" data-paper-data="{&quot;index&quot;:null}" fill="#262626" stroke="none" stroke-linecap="butt"/><path d="M216.39968,184.51606c0.25349,-0.25349 0.67227,-0.24571 0.93537,0.01739c0.26309,0.26309 0.27088,0.68188 0.01739,0.93537c-0.25349,0.25349 -0.67226,0.2457 -0.93536,-0.0174c-0.26309,-0.26309 -0.27089,-0.68187 -0.0174,-0.93536z" data-paper-data="{&quot;index&quot;:null}" fill="#595959" stroke="none" stroke-linecap="butt"/></g><g><path d="M224.10388,180.0699c-1.0125,-1.0125 -1.0125,-2.65409 0,-3.66659c1.0125,-1.0125 2.65409,-1.0125 3.66659,0c1.0125,1.0125 1.0125,2.65409 0,3.66659c-1.0125,1.0125 -2.65409,1.0125 -3.66659,0z" fill="#64eb46" stroke="#23ad03" stroke-linecap="butt"/><g><path d="M223.92402,185.10599c-1.0125,-1.0125 -1.0125,-2.65409 0,-3.66659c1.0125,-1.0125 2.65409,-1.0125 3.66659,0c1.0125,1.0125 1.0125,2.65409 0,3.66659c-1.0125,1.0125 -2.65409,1.0125 -3.66659,0z" fill="#64eb46" stroke="#23ad03" stroke-linecap="butt"/><path d="M225.22228,183.43638l-1.8404,-1.84039l6.30522,-6.30522l1.8404,1.8404z" fill="#808080" stroke="#595959" stroke-linecap="butt"/><path d="M228.45774,178.35285l1.36305,-1.36305" fill="none" stroke="#595959" stroke-linecap="round"/></g></g></g><g data-paper-data="{&quot;index&quot;:null}" stroke-width="0.6" stroke-linejoin="round"><g><path d="M258.02643,193.04111c0,0 -1.36604,-1.16663 -1.35784,-2.60356c0.00821,-1.43693 1.38774,-2.63347 1.38774,-2.63347l4.99606,-4.99606c0,0 1.18004,-1.37944 2.63346,-1.38773c1.45342,-0.0083 2.60357,1.35783 2.60357,1.35783l2.66071,2.66071c0,0 1.39315,1.18336 1.39521,2.64093c0.00206,1.45757 -1.38774,2.63346 -1.38774,2.63346l-4.99606,4.99606c0,0 -1.18004,1.37944 -2.63346,1.38774c-1.45342,0.0083 -2.60356,-1.35783 -2.60356,-1.35783z" data-paper-data="{&quot;index&quot;:null}" fill="#64eb46" stroke="#23ad03" stroke-linecap="butt"/><path d="M271.1038,187.6871l1.1034,2.84732l-4.49176,0.54104" fill="#64eb46" stroke="#23ad03" stroke-linecap="round"/><path d="M258.49097,190.62835c0,0 -0.6782,-0.57921 -0.67413,-1.2926c0.00407,-0.71339 0.68897,-1.30743 0.68897,-1.30743l4.77081,-4.77081c0,0 0.58585,-0.68485 1.30743,-0.68897c0.72158,-0.00412 1.2926,0.67413 1.2926,0.67413l0.19693,0.19693c0,0 0.69165,0.58751 0.69268,1.31115c0.00103,0.72364 -0.68897,1.30743 -0.68897,1.30743l-4.77081,4.77081c0,0 -0.58586,0.68484 -1.30744,0.68896c-0.72158,0.00412 -1.29259,-0.67413 -1.29259,-0.67413z" data-paper-data="{&quot;index&quot;:null}" fill="#ffffff" stroke="none" stroke-linecap="butt"/><path d="M266.32376,192.46711l-0.54104,4.49177l-2.84732,-1.1034" data-paper-data="{&quot;index&quot;:null}" fill="#64eb46" stroke="#23ad03" stroke-linecap="round"/><path d="M264.26114,186.21502c-0.63632,-0.63631 -0.61676,-1.68753 0.04367,-2.34797c0.66043,-0.66043 1.71165,-0.67998 2.34797,-0.04367c0.63632,0.63631 0.61677,1.68754 -0.04366,2.34797c-0.66043,0.66043 -1.71166,0.67998 -2.34798,0.04367z" fill="#262626" stroke="none" stroke-linecap="butt"/><path d="M265.63595,185.54697c-0.25349,-0.25349 -0.2457,-0.67226 0.0174,-0.93536c0.2631,-0.26309 0.68187,-0.27088 0.93536,-0.01739c0.25349,0.25349 0.2457,0.67226 -0.0174,0.93536c-0.2631,0.26309 -0.68187,0.27088 -0.93536,0.01739z" fill="#595959" stroke="none" stroke-linecap="butt"/><path d="M261.41967,191.36082c-0.66044,0.66044 -1.71166,0.67998 -2.34798,0.04367c-0.63632,-0.63631 -0.61676,-1.68754 0.04367,-2.34797c0.66044,-0.66044 1.71166,-0.67999 2.34798,-0.04367c0.63632,0.63631 0.61677,1.68755 -0.04366,2.34798z" data-paper-data="{&quot;index&quot;:null}" fill="#262626" stroke="none" stroke-linecap="butt"/><path d="M260.44648,190.73643c-0.25349,-0.25349 -0.24571,-0.67226 0.01739,-0.93536c0.2631,-0.26309 0.68188,-0.27089 0.93537,-0.0174c0.25349,0.25349 0.2457,0.67227 -0.0174,0.93537c-0.2631,0.26309 -0.68187,0.27088 -0.93536,0.01739z" data-paper-data="{&quot;index&quot;:null}" fill="#595959" stroke="none" stroke-linecap="butt"/></g><g><path d="M256.00032,183.03224c-1.0125,1.0125 -2.6541,1.0125 -3.6666,0c-1.0125,-1.0125 -1.0125,-2.6541 0,-3.6666c1.0125,-1.0125 2.6541,-1.0125 3.6666,0c1.0125,1.0125 1.0125,2.6541 0,3.6666z" fill="#64eb46" stroke="#23ad03" stroke-linecap="butt"/><g><path d="M261.0364,183.21209c-1.0125,1.0125 -2.65409,1.0125 -3.66659,0c-1.0125,-1.0125 -1.0125,-2.6541 0,-3.6666c1.0125,-1.0125 2.65409,-1.0125 3.66659,0c1.0125,1.0125 1.0125,2.6541 0,3.6666z" fill="#64eb46" stroke="#23ad03" stroke-linecap="butt"/><path d="M259.36681,181.91383l-1.8404,1.8404l-6.30522,-6.30522l1.84039,-1.84039z" fill="#808080" stroke="#595959" stroke-linecap="butt"/><path d="M254.28329,178.67837l-1.36305,-1.36305" fill="none" stroke="#595959" stroke-linecap="round"/></g></g></g><path d="M268.85884,142.63315c0,0 3.01795,-0.2376 4.72042,1.48441c1.70246,1.72201 1.48441,4.79167 1.48441,4.79167v44.84826c0,0 0.2376,3.04988 -1.48441,4.79167c-1.72201,1.74179 -4.72042,1.48441 -4.72042,1.48441h-57.62661c0,0 -3.07018,0.24998 -4.80948,-1.48441c-1.73931,-1.73439 -1.48441,-4.79167 -1.48441,-4.79167v-44.84826c0,0 -0.2376,-3.04988 1.48441,-4.79167c1.72201,-1.74179 4.72042,-1.48441 4.72042,-1.48441z" data-paper-data="{&quot;index&quot;:null}" fill="none" stroke="#807459" stroke-width="2" stroke-linecap="butt" stroke-linejoin="miter"/></g></g></g></svg>