<svg version="1.1" xmlns="http://www.w3.org/2000/svg" xmlns:xlink="http://www.w3.org/1999/xlink" width="49.73723" height="33.42922" viewBox="0,0,49.73723,33.42922"><g transform="translate(-211.65524,-163.28541)"><g data-paper-data="{&quot;isPaintingLayer&quot;:true}" fill-rule="nonzero" stroke-linecap="butt" stroke-linejoin="round" stroke-miterlimit="10" stroke-dasharray="" stroke-dashoffset="0" style="mix-blend-mode: normal"><path d="M227.1107,183.07426c0,-2.81469 2.28176,-5.09645 5.09645,-5.09645c2.81469,0 5.09645,2.28176 5.09645,5.09645c0,2.81469 -2.28176,5.09645 -5.09645,5.09645c-2.81469,0 -5.09645,-2.28176 -5.09645,-5.09645z" fill="#faad32" stroke="#c78418" stroke-width="1.5"/><path d="M211.65524,180.00003c0,-9.23121 11.13405,-16.71461 24.86861,-16.71461c13.73454,0 24.86862,7.48337 24.86862,16.71461c0,9.23121 -11.13405,16.71461 -24.86862,16.71461c-13.73454,0 -24.86861,-7.48337 -24.86861,-16.71461z" fill="none" stroke="none" stroke-width="0"/><path d="M230.16228,182.39733v-4.79463l5.83223,-0.46892l9.72459,1.18454l7.15684,-1.15161l1.85067,0.15v5.36658l-1.78801,0.1546l-7.21948,-1.15621l-10.00317,1.20357z" fill="#808080" stroke="#595959" stroke-width="1.5"/><path d="M239.28226,182.92456v-5.84908h11.22233v5.84908z" fill="#b37924" stroke="#80520d" stroke-width="1.5"/></g></g></svg>