<svg version="1.1" xmlns="http://www.w3.org/2000/svg" xmlns:xlink="http://www.w3.org/1999/xlink" width="130.8" height="127.6" viewBox="0,0,130.8,127.6"><g transform="translate(-174.6,-116.2)"><g data-paper-data="{&quot;isPaintingLayer&quot;:true}" fill-rule="nonzero" stroke-linecap="butt" stroke-miterlimit="10" stroke-dasharray="" stroke-dashoffset="0" style="mix-blend-mode: normal"><path d="M174.6,243.8v-127.6h130.8v127.6z" fill="none" stroke="none" stroke-width="0" stroke-linejoin="miter"/><path d="M274.00572,135.96885c0,0 3.55619,-0.27998 5.56229,1.74915c2.00609,2.02913 1.74915,5.64625 1.74915,5.64625v73.27151c0,0 0.27998,3.59382 -1.74915,5.64625c-2.02913,2.05243 -5.56229,1.74915 -5.56229,1.74915h-67.90416c0,0 -3.61774,0.29456 -5.66724,-1.74915c-2.04951,-2.04371 -1.74915,-5.64625 -1.74915,-5.64625v-73.27151c0,0 -0.27998,-3.59382 1.74915,-5.64625c2.02913,-2.05243 5.56229,-1.74915 5.56229,-1.74915z" data-paper-data="{&quot;index&quot;:null}" fill="#b3a88f" stroke="#b3a88f" stroke-width="6" stroke-linejoin="miter"/><path d="M274.00572,135.96885c0,0 3.55619,-0.27998 5.56229,1.74915c2.00609,2.02913 1.74915,5.64625 1.74915,5.64625v73.27151c0,0 0.27998,3.59382 -1.74915,5.64625c-2.02913,2.05243 -5.56229,1.74915 -5.56229,1.74915h-67.90416c0,0 -3.61774,0.29456 -5.66724,-1.74915c-2.04951,-2.04371 -1.74915,-5.64625 -1.74915,-5.64625v-73.27151c0,0 -0.27998,-3.59382 1.74915,-5.64625c2.02913,-2.05243 5.56229,-1.74915 5.56229,-1.74915z" data-paper-data="{&quot;index&quot;:null}" fill="#b3a88f" stroke="#807459" stroke-width="2" stroke-linejoin="miter"/><path d="M268.85883,142.63313c0,0 3.01795,-0.2376 4.72042,1.48441c1.70246,1.72201 1.48441,4.79167 1.48441,4.79167v44.84826c0,0 0.2376,3.04988 -1.48441,4.79167c-1.72201,1.74179 -4.72042,1.48441 -4.72042,1.48441h-57.62661c0,0 -3.07018,0.24998 -4.80948,-1.48441c-1.73931,-1.73439 -1.48441,-4.79167 -1.48441,-4.79167v-44.84826c0,0 -0.2376,-3.04988 1.48441,-4.79167c1.72201,-1.74179 4.72042,-1.48441 4.72042,-1.48441z" data-paper-data="{&quot;index&quot;:null}" fill="#b3b3b3" stroke="#807459" stroke-width="2" stroke-linejoin="miter"/><path d="M268.85883,142.63313c0,0 3.01795,-0.2376 4.72042,1.48441c1.70246,1.72201 1.48441,4.79167 1.48441,4.79167v44.84826c0,0 0.2376,3.04988 -1.48441,4.79167c-1.72201,1.74179 -4.72042,1.48441 -4.72042,1.48441h-57.62661c0,0 -3.07018,0.24998 -4.80948,-1.48441c-1.73931,-1.73439 -1.48441,-4.79167 -1.48441,-4.79167v-44.84826c0,0 -0.2376,-3.04988 1.48441,-4.79167c1.72201,-1.74179 4.72042,-1.48441 4.72042,-1.48441z" data-paper-data="{&quot;index&quot;:null}" fill="none" stroke="#807459" stroke-width="2" stroke-linejoin="miter"/><text transform="translate(208.95384,217.40424) scale(0.36702,0.36702)" font-size="40" xml:space="preserve" fill="#ffffff" fill-rule="nonzero" stroke="#ffffff" stroke-width="2" stroke-linecap="butt" stroke-linejoin="round" stroke-miterlimit="10" stroke-dasharray="" stroke-dashoffset="0" font-family="Malgun Gothic" font-weight="normal" text-anchor="start" style="mix-blend-mode: normal"><tspan x="0" dy="0">OPTIONS</tspan></text><g data-paper-data="{&quot;index&quot;:null}" stroke="#ffffff"><g fill="#ffffff" stroke-width="2.5" stroke-linejoin="round"><path d="M218.47723,166.3542l2.88163,-6.92394l40.16391,16.71554l-2.88163,6.92394z"/><path d="M235.1042,192.77277l-6.92394,-2.88163l16.71554,-40.16391l6.92394,2.88163z"/><path d="M221.31925,183.00704l-2.85835,-6.93358l40.21984,-16.5805l2.85835,6.93358z"/><path d="M251.75704,189.93075l-6.93358,2.85835l-16.5805,-40.21984l6.93358,-2.85835z"/></g><path d="M230.27901,161.49869c5.3855,-5.36876 14.10355,-5.35519 19.4723,0.03032c5.36876,5.3855 5.35519,14.10355 -0.03032,19.4723c-5.3855,5.36876 -14.10355,5.35519 -19.4723,-0.03032c-5.36876,-5.3855 -5.35519,-14.10355 0.03032,-19.4723z" fill="#b3b3b3" stroke-width="8" stroke-linejoin="miter"/></g></g></g></svg>