<svg version="1.1" xmlns="http://www.w3.org/2000/svg" xmlns:xlink="http://www.w3.org/1999/xlink" width="35" height="35" viewBox="0,0,35,35"><g transform="translate(-222.5,-162.5)"><g data-paper-data="{&quot;isPaintingLayer&quot;:true}" fill-rule="nonzero" stroke-linejoin="miter" stroke-miterlimit="10" stroke-dasharray="" stroke-dashoffset="0" style="mix-blend-mode: normal"><path d="M222.5,180c0,-9.66498 7.83502,-17.5 17.5,-17.5c9.66498,0 17.5,7.83502 17.5,17.5c0,9.66498 -7.83502,17.5 -17.5,17.5c-9.66498,0 -17.5,-7.83502 -17.5,-17.5z" fill="none" stroke="none" stroke-width="0" stroke-linecap="butt"/><path d="M230.83333,180c0,-5.06261 4.10406,-9.16667 9.16667,-9.16667c5.06261,0 9.16667,4.10406 9.16667,9.16667c0,5.06261 -4.10406,9.16667 -9.16667,9.16667c-5.06261,0 -9.16667,-4.10406 -9.16667,-9.16667z" fill="#808080" stroke="#333333" stroke-width="2" stroke-linecap="butt"/><path d="M235.28195,177.40134l-0.12813,-1.40937l6.08594,-0.25625l0.32032,1.98594l-3.77969,0.06406l-0.57657,2.56251l-2.37032,-0.32032z" fill="#808080" stroke="#4d4d4d" stroke-width="1.25" stroke-linecap="round"/><path d="M244.70597,184.39923l-5.72969,0.2315l-0.23151,-2.25715l2.48865,-0.23151v-1.9099l3.29891,0.11575z" data-paper-data="{&quot;index&quot;:null}" fill="#808080" stroke="#4d4d4d" stroke-width="1.25" stroke-linecap="round"/></g></g></svg>