<svg version="1.1" xmlns="http://www.w3.org/2000/svg" xmlns:xlink="http://www.w3.org/1999/xlink" width="49.73723" height="33.42922" viewBox="0,0,49.73723,33.42922"><g transform="translate(-211.65524,-163.28545)"><g data-paper-data="{&quot;isPaintingLayer&quot;:true}" fill-rule="nonzero" stroke-miterlimit="10" stroke-dasharray="" stroke-dashoffset="0" style="mix-blend-mode: normal"><path d="M211.65524,180.00006c0,-9.23121 11.13405,-16.71461 24.86861,-16.71461c13.73454,0 24.86862,7.48337 24.86862,16.71461c0,9.23121 -11.13405,16.71461 -24.86862,16.71461c-13.73454,0 -24.86861,-7.48337 -24.86861,-16.71461z" fill="none" stroke="none" stroke-width="0" stroke-linecap="butt" stroke-linejoin="round"/><path d="M227.1107,183.0743c0,-2.81469 2.28176,-5.09645 5.09645,-5.09645c2.81469,0 5.09645,2.28176 5.09645,5.09645c0,2.81469 -2.28176,5.09645 -5.09645,5.09645c-2.81469,0 -5.09645,-2.28176 -5.09645,-5.09645z" fill="#faad32" stroke="#c78418" stroke-width="1.5" stroke-linecap="butt" stroke-linejoin="round"/><path d="M233.13362,176.85565l11.14789,0.92089l7.20211,-1.93812l1.74058,0.1304v8.06296l-1.68165,0.13439l-7.26102,-1.94212l-11.4099,0.93743z" data-paper-data="{&quot;index&quot;:null}" fill="#808080" stroke="#595959" stroke-width="1.5" stroke-linecap="butt" stroke-linejoin="round"/><path d="M253.13513,180.0003h-6.40194" fill="none" stroke="#595959" stroke-width="1.5" stroke-linecap="round" stroke-linejoin="miter"/><path d="M241.40692,182.54265v-5.08465l5.72687,-0.65303v6.3907z" fill="#b37924" stroke="#80520d" stroke-width="1.5" stroke-linecap="butt" stroke-linejoin="round"/><path d="M229.47087,182.71584v-5.43103l4.04661,-0.69751l1.88405,3.33185l-1.88405,3.4942z" data-paper-data="{&quot;index&quot;:null}" fill="#808080" stroke="#595959" stroke-width="1.5" stroke-linecap="butt" stroke-linejoin="round"/></g></g></svg>