<svg version="1.1" xmlns="http://www.w3.org/2000/svg" xmlns:xlink="http://www.w3.org/1999/xlink" width="228.59167" height="98.84725" viewBox="0,0,228.59167,98.84725"><g transform="translate(-125.70417,-130.57638)"><g data-paper-data="{&quot;isPaintingLayer&quot;:true}" fill-rule="nonzero" stroke-miterlimit="10" stroke-dasharray="" stroke-dashoffset="0" style="mix-blend-mode: normal"><path d="M125.70417,229.42363v-98.84725h228.59167v98.84725z" fill="none" stroke="none" stroke-width="0" stroke-linecap="butt" stroke-linejoin="miter"/><text transform="translate(182.86533,158.51565) scale(0.53356,0.53356)" font-size="40" xml:space="preserve" fill="#ffffff" fill-rule="nonzero" stroke="#ffffff" stroke-width="2" stroke-linecap="butt" stroke-linejoin="round" stroke-miterlimit="10" stroke-dasharray="" stroke-dashoffset="0" font-family="Malgun Gothic" font-weight="normal" text-anchor="start" style="mix-blend-mode: normal"><tspan x="0" dy="0">W     /   ▲</tspan></text><text transform="translate(164.74966,180.40542) scale(0.53356,0.53356)" font-size="40" xml:space="preserve" fill="#ffffff" fill-rule="nonzero" stroke="#ffffff" stroke-width="2" stroke-linecap="butt" stroke-linejoin="round" stroke-miterlimit="10" stroke-dasharray="" stroke-dashoffset="0" font-family="Malgun Gothic" font-weight="normal" text-anchor="start" style="mix-blend-mode: normal"><tspan x="0" dy="0">A S D /  ◄▼►</tspan></text><text transform="translate(167.88398,199.7117) scale(0.27063,0.27063)" font-size="40" xml:space="preserve" fill="#ffffff" fill-rule="nonzero" stroke="#ffffff" stroke-width="2" stroke-linecap="butt" stroke-linejoin="round" stroke-miterlimit="10" stroke-dasharray="" stroke-dashoffset="0" font-family="Malgun Gothic" font-weight="normal" text-anchor="start" style="mix-blend-mode: normal"><tspan x="0" dy="0">Make sure you have choosen</tspan><tspan x="0" dy="48px">english keyboard language</tspan></text><path d="M332.43562,166.46767l2.30301,-5.02353l2.65343,4.82151l-1.52144,0.2153l0.55509,2.67309l-2.69644,0.18426l0.25353,-2.80838z" fill="#ffffff" stroke="#ffffff" stroke-width="1" stroke-linecap="round" stroke-linejoin="miter"/><path d="M317.22722,150.58746l5.42478,1.05421l-4.06035,3.715l-0.5678,-1.42784l-2.46697,1.16944l-0.81456,-2.57706l2.78902,-0.41547z" fill="#ffffff" stroke="#ffffff" stroke-width="1" stroke-linecap="round" stroke-linejoin="miter"/><g stroke-linejoin="miter"><path d="M326.41667,150.20858c0,-4.05009 3.28325,-7.33333 7.33333,-7.33333c4.05009,0 7.33333,3.28325 7.33333,7.33333c0,4.05009 -3.28325,7.33333 -7.33333,7.33333c-4.05009,0 -7.33333,-3.28325 -7.33333,-7.33333z" fill="#80b3ff" stroke="none" stroke-width="0" stroke-linecap="butt"/><g fill="none" stroke="#ffffff"><path d="M326.57174,150.24191c0,-3.96444 3.21382,-7.17826 7.17826,-7.17826c3.96444,0 7.17826,3.21382 7.17826,7.17826c0,3.96444 -3.21382,7.17826 -7.17826,7.17826c-3.96444,0 -7.17826,-3.21382 -7.17826,-7.17826z" stroke-width="1.5" stroke-linecap="butt"/><g stroke-width="1" stroke-linecap="round"><path d="M326.62694,150.24191h14.24611"/><path d="M327.3866,146.83861h12.72679"/><path d="M327.3866,153.64521h12.72679" data-paper-data="{&quot;index&quot;:null}"/><path d="M333.75,157.11486v-13.82928" data-paper-data="{&quot;index&quot;:null}"/><path d="M336.2274,143.70243c0,0 1.6516,2.01336 1.6516,6.48846c0,4.4751 -1.6516,6.59051 -1.6516,6.59051" data-paper-data="{&quot;index&quot;:null}"/><path d="M331.2726,156.7814c0,0 -1.6516,-2.11541 -1.6516,-6.59051c0,-4.4751 1.6516,-6.48846 1.6516,-6.48846" data-paper-data="{&quot;index&quot;:null}"/></g></g></g></g></g></svg>