<svg version="1.1" xmlns="http://www.w3.org/2000/svg" xmlns:xlink="http://www.w3.org/1999/xlink" width="45.77215" height="38.47836" viewBox="0,0,45.77215,38.47836"><g transform="translate(-217.11395,-160.76082)"><g data-paper-data="{&quot;isPaintingLayer&quot;:true}" fill-rule="nonzero" stroke-linejoin="round" stroke-miterlimit="10" stroke-dasharray="" stroke-dashoffset="0" style="mix-blend-mode: normal"><path d="M217.13818,172.01048c0,0 -0.46565,-5.4248 2.68564,-8.54032c3.15131,-3.11552 8.66924,-2.68564 8.66924,-2.68564h23.01393c0,0 5.53134,-0.46117 8.66924,2.68564c3.13791,3.1468 2.68564,8.70146 2.68564,8.70146v15.8215c0,0 0.46565,5.4248 -2.68564,8.54032c-3.15131,3.11552 -8.66924,2.68564 -8.66924,2.68564h-23.01393c0,0 -5.55372,0.3945 -8.66924,-2.68564c-3.11552,-3.08015 -2.68564,-8.54032 -2.68564,-8.54032z" data-paper-data="{&quot;index&quot;:null}" fill="none" stroke="none" stroke-width="0" stroke-linecap="butt"/><path d="M254.26527,183.7514c0,0 0.27716,3.52034 -1.73152,5.50622c-2.00869,1.98587 -5.58934,1.73152 -5.58934,1.73152h-13.88874c0,0 -3.5576,0.27716 -5.58934,-1.73152c-2.03174,-2.00868 -1.73152,-5.50622 -1.73152,-5.50622v-7.39661c0,0 -0.29159,-3.58126 1.73152,-5.61011c2.02312,-2.02885 5.58934,-1.73152 5.58934,-1.73152h13.88874c0,0 3.5576,-0.27716 5.58934,1.73152c2.03174,2.00868 1.73152,5.50622 1.73152,5.50622z" data-paper-data="{&quot;index&quot;:null}" fill="#faad32" stroke="#c78418" stroke-width="1.5" stroke-linecap="butt"/><path d="M254.26527,179.74498h-28.53046v-4.30995l28.53046,-0.06054z" data-paper-data="{&quot;index&quot;:null}" fill="#ffe14d" stroke="#e6bf00" stroke-width="1.5" stroke-linecap="butt"/><path d="M228.64623,173.01618l2.424,-5.49138l6.99544,5.49138" fill="#faad32" stroke="#c78418" stroke-width="1.5" stroke-linecap="round"/><path d="M250.26589,186.45935c0,0 0.1376,1.74775 -0.85965,2.73368c-0.99725,0.98593 -2.77494,0.85965 -2.77494,0.85965h-13.26256c0,0 -1.76624,0.1376 -2.77494,-0.85965c-1.0087,-0.99725 -0.85965,-2.73368 -0.85965,-2.73368v-0.54746c0,0 -0.14476,-1.77799 0.85965,-2.78526c1.00441,-1.00726 2.77494,-0.85965 2.77494,-0.85965h13.26256c0,0 1.76624,-0.1376 2.77494,0.85965c1.0087,0.99725 0.85965,2.73368 0.85965,2.73368z" data-paper-data="{&quot;index&quot;:null}" fill="#ffffff" stroke="none" stroke-width="0" stroke-linecap="butt"/><path d="M241.93438,173.01618l6.99544,-5.49138l2.424,5.49138" data-paper-data="{&quot;index&quot;:null}" fill="#faad32" stroke="#c78418" stroke-width="1.5" stroke-linecap="round"/><path d="M236.11114,184.57337c0,1.76892 -1.48834,3.20291 -3.32431,3.20291c-1.83596,0 -3.32431,-1.43399 -3.32431,-3.20291c0,-1.76892 1.48834,-3.20292 3.32431,-3.20292c1.83596,0 3.32431,1.434 3.32431,3.20292z" fill="#262626" stroke="none" stroke-width="0" stroke-linecap="butt"/><path d="M233.27165,183.59103c0,0.70469 -0.59291,1.27595 -1.32431,1.27595c-0.73139,0 -1.32431,-0.57126 -1.32431,-1.27595c0,-0.70469 0.59291,-1.27595 1.32431,-1.27595c0.73139,0 1.32431,0.57126 1.32431,1.27595z" fill="#595959" stroke="none" stroke-width="0" stroke-linecap="butt"/><path d="M247.21323,181.37046c1.83597,0 3.32431,1.434 3.32431,3.20292c0,1.76892 -1.48835,3.20291 -3.32431,3.20291c-1.83597,0 -3.32431,-1.43399 -3.32431,-3.20291c0,-1.76892 1.48835,-3.20292 3.32431,-3.20292z" data-paper-data="{&quot;index&quot;:null}" fill="#262626" stroke="none" stroke-width="0" stroke-linecap="butt"/><path d="M247.69803,183.59103c0,0.70469 -0.59291,1.27595 -1.32431,1.27595c-0.73139,0 -1.32431,-0.57126 -1.32431,-1.27595c0,-0.70469 0.59291,-1.27595 1.32431,-1.27595c0.73139,0 1.32431,0.57126 1.32431,1.27595z" data-paper-data="{&quot;index&quot;:null}" fill="#595959" stroke="none" stroke-width="0" stroke-linecap="butt"/></g></g></svg>