<svg version="1.1" xmlns="http://www.w3.org/2000/svg" xmlns:xlink="http://www.w3.org/1999/xlink" width="349.70627" height="130.66517" viewBox="0,0,349.70627,130.66517"><g transform="translate(-65.14686,-114.66741)"><g data-paper-data="{&quot;isPaintingLayer&quot;:true}" fill-rule="nonzero" stroke-miterlimit="10" stroke-dasharray="" stroke-dashoffset="0" style="mix-blend-mode: normal"><path d="M65.14686,245.33258v-130.66517h349.70627v130.66517z" fill="none" stroke="none" stroke-width="0" stroke-linecap="butt" stroke-linejoin="miter"/><path d="M376.32616,142.39085c0,0 7.09426,-0.55853 11.09623,3.48938c4.00195,4.04792 3.48938,11.26372 3.48938,11.26372v45.7121c0,0 0.55853,7.16932 -3.48938,11.26372c-4.04792,4.0944 -11.09623,3.48938 -11.09623,3.48938h-272.43825c0,0 -7.21704,0.58762 -11.30559,-3.48938c-4.08858,-4.07701 -3.48938,-11.26372 -3.48938,-11.26372v-45.7121c0,0 -0.55853,-7.16932 3.48938,-11.26372c4.04792,-4.0944 11.09623,-3.48938 11.09623,-3.48938z" data-paper-data="{&quot;index&quot;:null}" fill="#b3a88f" stroke="#b3a88f" stroke-width="6" stroke-linecap="butt" stroke-linejoin="miter"/><path d="M376.32616,142.39085c0,0 7.09426,-0.55853 11.09623,3.48938c4.00195,4.04792 3.48938,11.26372 3.48938,11.26372v45.7121c0,0 0.55853,7.16932 -3.48938,11.26372c-4.04792,4.0944 -11.09623,3.48938 -11.09623,3.48938h-272.43825c0,0 -7.21704,0.58762 -11.30559,-3.48938c-4.08858,-4.07701 -3.48938,-11.26372 -3.48938,-11.26372v-45.7121c0,0 -0.55853,-7.16932 3.48938,-11.26372c4.04792,-4.0944 11.09623,-3.48938 11.09623,-3.48938z" data-paper-data="{&quot;index&quot;:null}" fill="#b3a88f" stroke="#807459" stroke-width="2" stroke-linecap="butt" stroke-linejoin="miter"/><text transform="translate(232.09572,163.86501) scale(0.45131,0.45131)" font-size="40" xml:space="preserve" fill="#ffffff" fill-rule="nonzero" stroke="#ffffff" stroke-width="2" stroke-linecap="butt" stroke-linejoin="round" stroke-miterlimit="10" stroke-dasharray="" stroke-dashoffset="0" font-family="Malgun Gothic" font-weight="normal" text-anchor="start" style="mix-blend-mode: normal"><tspan x="0" dy="0">CHAOS :0 ☁</tspan></text><text transform="translate(179.59571,185.41572) scale(0.45131,0.45131)" font-size="40" xml:space="preserve" fill="#ffffff" fill-rule="nonzero" stroke="#ffffff" stroke-width="2" stroke-linecap="butt" stroke-linejoin="round" stroke-miterlimit="10" stroke-dasharray="" stroke-dashoffset="0" font-family="Malgun Gothic" font-weight="normal" text-anchor="start" style="mix-blend-mode: normal"><tspan x="0" dy="0">Players</tspan></text><text transform="translate(179.59571,206.96644) scale(0.45131,0.45131)" font-size="40" xml:space="preserve" fill="#ffffff" fill-rule="nonzero" stroke="#ffffff" stroke-width="2" stroke-linecap="butt" stroke-linejoin="round" stroke-miterlimit="10" stroke-dasharray="" stroke-dashoffset="0" font-family="Malgun Gothic" font-weight="normal" text-anchor="start" style="mix-blend-mode: normal"><tspan x="0" dy="0">Room ID</tspan></text><g><path d="M163.85883,151.26011c0,0 3.01795,-0.2376 4.72042,1.48441c1.70246,1.72201 1.48441,4.79167 1.48441,4.79167v44.84826c0,0 0.2376,3.04988 -1.48441,4.79167c-1.72201,1.74179 -4.72042,1.48441 -4.72042,1.48441h-57.62661c0,0 -3.07018,0.24998 -4.80948,-1.48441c-1.73931,-1.73439 -1.48441,-4.79167 -1.48441,-4.79167v-44.84826c0,0 -0.2376,-3.04988 1.48441,-4.79167c1.72201,-1.74179 4.72042,-1.48441 4.72042,-1.48441z" data-paper-data="{&quot;index&quot;:null}" fill="#b9c3fa" stroke="#807459" stroke-width="2" stroke-linecap="butt" stroke-linejoin="miter"/><g data-paper-data="{&quot;index&quot;:null}" fill="#a4afeb" stroke="none" stroke-width="0" stroke-linecap="butt" stroke-linejoin="miter"><path d="M112.54521,189.20379v-18.11084h18.11084v18.11084z"/><path d="M112.54521,169.65431v-18.11084h18.11084v18.11084z"/><path d="M100.60904,189.20379v-18.11084h10.49752v18.11084z"/><path d="M100.60903,169.65431c0,0 0,-11.35842 0,-14.5663c0,-1.58243 2.42994,-3.54454 3.89977,-3.54454c1.91181,0 6.59776,0 6.59776,0v18.11084z"/><path d="M112.54521,208.75328v-18.11084h18.11084v18.11084z"/><path d="M103.88379,208.75328c-1.30467,0 -3.27475,-2.03961 -3.27475,-3.66424c0,-3.22584 0,-14.4466 0,-14.4466h10.49752v18.11084c0,0 -5.28517,0 -7.22277,0z"/><path d="M151.64417,189.20379v-18.11084h18.11084v18.11084z"/><path d="M151.64417,169.65431v-18.11084c0,0 13.14544,0 15.99093,0c1.03605,0 2.11991,0.82546 2.11991,1.6695c0,2.64873 0,16.44134 0,16.44134z"/><path d="M132.09469,189.20379v-18.11084h18.11084v18.11084z"/><path d="M132.09469,169.65431v-18.11084h18.11084v18.11084z"/><path d="M165.76006,208.75328c-3.26786,0 -14.11589,0 -14.11589,0v-18.11084h18.11084c0,0 0,10.18994 0,13.50908c0,1.9372 -2.25649,4.60176 -3.99495,4.60176z"/><path d="M132.09469,208.75328v-18.11084h18.11084v18.11084z"/></g><g stroke-linejoin="miter"><path d="M160.41585,177.88228v20.07318" fill="none" stroke="#dae4f2" stroke-width="17.5" stroke-linecap="round"/><path d="M163.68942,208.26495c-3.22847,0 -11.94045,0 -11.94045,0v-20.58698h17.49893c0,0 0,12.57525 0,16.26371c0,1.9017 -3.35574,4.32327 -5.55848,4.32327z" fill="#dae4f2" stroke="none" stroke-width="0" stroke-linecap="butt"/></g><g stroke="none" stroke-linecap="butt" stroke-linejoin="miter"><path d="M150.85323,184.20398c-9.55989,-4.81728 -23.87116,-12.36758 -23.38454,-13.45131c0.46964,-1.04594 14.59915,4.20746 24.53081,8.12071c4.32445,1.70391 4.11252,4.9709 3.43838,6.47226c-0.67414,1.50136 -0.90062,0.71474 -4.58465,-1.14166z" fill="#ff9466" stroke-width="0"/><path d="M129.16373,196.66353c-0.67414,-1.50136 0.39932,-3.44585 4.54812,-5.30875c2.01983,-0.90695 9.88707,-4.09285 17.50719,-6.95051c4.30797,-1.61555 4.34118,-2.64663 4.39411,-1.56549c0.04576,0.93457 0.68757,3.73811 -2.87122,5.61218c-7.12762,3.75342 -14.59122,7.44377 -16.58881,8.34073c-4.14881,1.8629 -6.31526,1.3732 -6.9894,-0.12816z" data-paper-data="{&quot;index&quot;:null}" fill="#ff9466" stroke-width="0"/><g data-paper-data="{&quot;index&quot;:null}"><path d="M134.04084,196.64596c-0.17097,-0.52838 0.83267,-1.32631 2.24169,-1.78223c1.40902,-0.45592 2.68985,-0.39718 2.86082,0.1312c0.17097,0.52838 -0.83266,1.32631 -2.24168,1.78223c-1.40902,0.45592 -2.68985,0.39718 -2.86082,-0.1312z" fill="#4d4d4d" stroke-width="0"/><path d="M134.3322,191.05479c1.27692,-0.75012 2.54009,-0.97003 2.82139,-0.49119c0.2813,0.47885 -0.52582,1.47511 -1.80273,2.22523c-1.27692,0.75012 -2.5401,0.97003 -2.82139,0.49119c-0.2813,-0.47885 0.52582,-1.47511 1.80274,-2.22523z" data-paper-data="{&quot;index&quot;:null}" fill="#4d4d4d" stroke-width="0"/><path d="M126.74759,197.89849c-0.54028,-1.20324 1.63434,-3.35175 3.91415,-4.37544c1.22771,-0.55127 3.32182,-1.15167 5.07754,-1.40051c1.50458,-0.21325 2.40531,1.97403 1.18549,2.98917c-1.34045,1.11553 -3.11291,2.23268 -4.30652,2.76864c-2.27981,1.02368 -5.33039,1.22138 -5.87066,0.01814z" fill="#e65c5c" stroke-width="NaN"/><path d="M129.67775,196.58279c-0.22037,-0.49079 0.66195,-1.36505 1.97073,-1.95272c1.30878,-0.58767 2.54841,-0.6662 2.76878,-0.17541c0.22037,0.49079 -0.66195,1.36505 -1.97073,1.95272c-1.30878,0.58767 -2.54841,0.6662 -2.76878,0.17541z" fill="#4d4d4d" stroke-width="0"/></g></g><g stroke="none" stroke-linecap="butt" stroke-linejoin="miter"><path d="M105.05544,190.09074c-0.28351,-1.62116 1.23589,-3.24128 5.71575,-4.02473c2.181,-0.38142 21.8541,-1.98024 22.0643,-1.09004c0.25234,1.06868 -18.88063,6.58357 -21.03762,6.96079c-4.47986,0.78345 -6.45892,-0.22486 -6.74243,-1.84602z" data-paper-data="{&quot;index&quot;:null}" fill="#ff9466" stroke-width="0"/><g data-paper-data="{&quot;index&quot;:null}"><path d="M109.78657,191.27517c-0.03554,-0.55421 1.13373,-1.08032 2.61164,-1.17508c1.47791,-0.09476 2.7048,0.2777 2.74034,0.83192c0.03554,0.55421 -1.13374,1.08032 -2.61165,1.17508c-1.47791,0.09476 -2.70479,-0.2777 -2.74033,-0.83191z" fill="#4d4d4d" stroke-width="0"/><path d="M111.44631,185.92808c1.42236,-0.41244 2.70078,-0.31439 2.85545,0.21899c0.15466,0.53338 -0.873,1.30012 -2.29536,1.71256c-1.42236,0.41244 -2.70078,0.31439 -2.85544,-0.21899c-0.15466,-0.53338 0.873,-1.30012 2.29535,-1.71256z" data-paper-data="{&quot;index&quot;:null}" fill="#4d4d4d" stroke-width="0"/><path d="M102.40953,190.69243c-0.22722,-1.29925 2.40966,-2.84585 4.87139,-3.27636c1.32567,-0.23183 3.50316,-0.29785 5.26608,-0.10651c1.51075,0.16397 1.84489,2.50573 0.41258,3.18909c-1.57395,0.75094 -3.56699,1.39703 -4.85585,1.62242c-2.46173,0.43051 -5.46699,-0.12939 -5.6942,-1.42864z" fill="#e65c5c" stroke-width="NaN"/><path d="M105.57351,190.13911c-0.09268,-0.52996 0.97783,-1.15992 2.39104,-1.40707c1.41322,-0.24714 2.63398,-0.01788 2.72666,0.51208c0.09268,0.52996 -0.97783,1.15992 -2.39104,1.40706c-1.41322,0.24714 -2.63398,0.01788 -2.72666,-0.51207z" fill="#4d4d4d" stroke-width="0"/></g></g><g stroke="none" stroke-linecap="butt" stroke-linejoin="miter"><path d="M158.71484,155.92136c0.28351,1.62116 -1.23589,3.24128 -5.71575,4.02473c-2.181,0.38142 -21.85409,1.98023 -22.0643,1.09003c-0.25234,-1.06868 18.88062,-6.58356 21.03762,-6.96078c4.47986,-0.78345 6.45892,0.22486 6.74243,1.84603z" data-paper-data="{&quot;index&quot;:null}" fill="#ff9466" stroke-width="0"/><g data-paper-data="{&quot;index&quot;:null}"><path d="M153.98371,154.73693c0.03553,0.55421 -1.13374,1.08032 -2.61165,1.17508c-1.47791,0.09476 -2.70479,-0.2777 -2.74033,-0.83192c-0.03554,-0.55421 1.13374,-1.08032 2.61165,-1.17508c1.47791,-0.09476 2.7048,0.2777 2.74033,0.83192z" fill="#4d4d4d" stroke-width="0"/><path d="M152.32396,160.08401c-1.42236,0.41244 -2.70078,0.31439 -2.85545,-0.21899c-0.15466,-0.53338 0.873,-1.30012 2.29536,-1.71256c1.42235,-0.41244 2.70077,-0.31439 2.85544,0.21899c0.15467,0.53338 -0.873,1.30012 -2.29535,1.71256z" data-paper-data="{&quot;index&quot;:null}" fill="#4d4d4d" stroke-width="0"/><path d="M161.36075,155.31967c0.22722,1.29925 -2.40966,2.84584 -4.87139,3.27635c-1.32567,0.23183 -3.50317,0.29785 -5.26608,0.10652c-1.51075,-0.16397 -1.84489,-2.50573 -0.41258,-3.18909c1.57395,-0.75094 3.56698,-1.39702 4.85584,-1.62241c2.46173,-0.43051 5.46699,0.12939 5.69421,1.42863z" fill="#e65c5c" stroke-width="NaN"/><path d="M158.19677,155.87299c0.09268,0.52996 -0.97783,1.15993 -2.39105,1.40707c-1.41321,0.24714 -2.63399,0.01788 -2.72667,-0.51208c-0.09268,-0.52996 0.97783,-1.15992 2.39105,-1.40707c1.41321,-0.24714 2.63399,-0.01788 2.72667,0.51208z" fill="#4d4d4d" stroke-width="0"/></g></g><g><g stroke-width="0.6" stroke-linejoin="round"><path d="M121.35271,158.84853c0,0 1.76759,0.69159 2.25694,2.12883c0.48934,1.43723 -0.47346,3.10935 -0.47346,3.10935l-3.25739,6.71719c0,0 -0.70033,1.78561 -2.14833,2.29715c-1.448,0.51153 -3.06914,-0.45396 -3.06914,-0.45396l-3.57731,-1.73477c0,0 -1.80044,-0.6989 -2.30719,-2.15319c-0.50674,-1.45431 0.47346,-3.10936 0.47346,-3.10936l3.2574,-6.71719c0,0 0.70033,-1.78561 2.14833,-2.29715c1.448,-0.51153 3.06914,0.45396 3.06914,0.45396z" data-paper-data="{&quot;index&quot;:null}" fill="#faad32" stroke="#c78418" stroke-linecap="butt"/><path d="M121.72439,161.4179c0,0 0.87756,0.34336 1.12051,1.05691c0.24295,0.71355 -0.23505,1.5437 -0.23505,1.5437l-3.11053,6.41435c0,0 -0.3477,0.8865 -1.06659,1.14046c-0.71889,0.25396 -1.52374,-0.22538 -1.52374,-0.22538l-0.26478,-0.1284c0,0 -0.89386,-0.34699 -1.14546,-1.06901c-0.25159,-0.72201 0.23505,-1.5437 0.23505,-1.5437l3.11053,-6.41435c0,0 0.3477,-0.8865 1.06659,-1.14046c0.71889,-0.25396 1.52374,0.22537 1.52374,0.22537z" data-paper-data="{&quot;index&quot;:null}" fill="#ffffff" stroke="none" stroke-linecap="butt"/><path d="M120.68116,158.07412l-0.39669,1.92755l-2.07923,0.03688l-4.57866,9.42301l1.24652,1.6189l-1.23568,1.51887l-2.5534,-1.68699c0,0 -1.80044,-0.6989 -2.30719,-2.15319c-0.50674,-1.45431 0.47346,-3.10936 0.47346,-3.10936l3.2574,-6.71719c0,0 0.70033,-1.78561 2.14833,-2.29715c1.448,-0.51153 3.06914,0.45396 3.06914,0.45396z" data-paper-data="{&quot;index&quot;:null}" fill="#00b3b3" stroke="#008080" stroke-linecap="butt"/><path d="M113.26868,162.29451c0,0 -1.28068,-4.12374 -1.0152,-4.67122c0.2323,-0.47904 3.22438,0.11557 3.22438,0.11557" data-paper-data="{&quot;index&quot;:null}" fill="#00b3b3" stroke="#008080" stroke-linecap="round"/><path d="M110.15215,168.72122c0,0 -2.31966,-1.98122 -2.08736,-2.46026c0.26549,-0.54748 4.29655,-2.09538 4.29655,-2.09538" data-paper-data="{&quot;index&quot;:null}" fill="#00b3b3" stroke="#008080" stroke-linecap="round"/><path d="M117.49247,167.82143c0.85553,0.41487 1.2,1.47102 0.7694,2.35897c-0.4306,0.88795 -1.4732,1.27146 -2.32873,0.85659c-0.85553,-0.41487 -1.20001,-1.47103 -0.76941,-2.35898c0.4306,-0.88795 1.47322,-1.27146 2.32874,-0.85658z" fill="#262626" stroke="none" stroke-linecap="butt"/><path d="M116.35142,168.96433c0.34082,0.16528 0.47805,0.58601 0.30651,0.93975c-0.17154,0.35374 -0.58689,0.50652 -0.92771,0.34124c-0.34082,-0.16528 -0.47804,-0.58601 -0.3065,-0.93974c0.17154,-0.35374 0.58688,-0.50652 0.92771,-0.34124z" fill="#595959" stroke="none" stroke-linecap="butt"/><path d="M118.54724,161.70079c0.4306,-0.88795 1.47322,-1.27146 2.32874,-0.85658c0.85553,0.41487 1.2,1.47103 0.7694,2.35898c-0.4306,0.88795 -1.4732,1.27146 -2.32874,0.85658c-0.85553,-0.41487 -1.2,-1.47103 -0.7694,-2.35898z" data-paper-data="{&quot;index&quot;:null}" fill="#262626" stroke="none" stroke-linecap="butt"/><path d="M119.7349,161.98712c0.34082,0.16528 0.47805,0.58601 0.30651,0.93974c-0.17154,0.35374 -0.58688,0.50652 -0.92771,0.34124c-0.34082,-0.16528 -0.47805,-0.58601 -0.30651,-0.93974c0.17154,-0.35374 0.58688,-0.50652 0.92771,-0.34124z" data-paper-data="{&quot;index&quot;:null}" fill="#595959" stroke="none" stroke-linecap="butt"/></g><g><path d="M129.76884,167.89709c0.66014,-1.3613 2.29885,-1.92971 3.66015,-1.26956c1.3613,0.66014 1.92971,2.29885 1.26956,3.66015c-0.66014,1.3613 -2.29884,1.92971 -3.66014,1.26956c-1.3613,-0.66014 -1.92971,-2.29884 -1.26956,-3.66014z" fill="#faad32" stroke="#c78418" stroke-width="0.6" stroke-linecap="butt" stroke-linejoin="round"/><g><path d="M122.16205,170.03272c0.66014,-1.3613 2.29885,-1.92971 3.66015,-1.26956c1.3613,0.66014 1.92971,2.29885 1.26957,3.66015c-0.66014,1.3613 -2.29885,1.92971 -3.66015,1.26957c-1.3613,-0.66014 -1.92971,-2.29885 -1.26956,-3.66015z" fill="#faad32" stroke="#c78418" stroke-width="0.6" stroke-linecap="butt" stroke-linejoin="round"/><g fill="none" stroke="#595959" stroke-width="0.6" stroke-linecap="round" stroke-linejoin="miter"><path d="M135.02376,170.95547l-0.4111,0.84773"/><path d="M132.29291,176.58684l0.4111,-0.84773"/></g><g fill="none" stroke="#595959" stroke-width="0.6" stroke-linecap="round" stroke-linejoin="miter"><path d="M128.66575,167.87225l-0.41109,0.84774"/><path d="M126.34601,172.65589l-0.4111,0.84774"/></g><path d="M137.14011,175.45957c-0.34867,0.71901 -1.67477,0.79586 -2.96193,0.17168c-1.28716,-0.62419 -2.04796,-1.71307 -1.6993,-2.43206c0.34867,-0.71901 1.67477,-0.79586 2.96193,-0.17168c1.28716,0.62419 2.04796,1.71306 1.6993,2.43206z" fill="#cc5252" stroke="#992e2e" stroke-width="0.6" stroke-linecap="butt" stroke-linejoin="miter"/><path d="M123.34051,170.81821l1.61414,-3.3286l1.1566,0.30549l4.61005,2.60795l4.63911,1.89522l0.80817,0.4736l-1.73644,3.58079l-0.84486,-0.3255l-4.38823,-2.48496l-5.03301,-2.05794z" fill="#808080" stroke="#595959" stroke-width="0.6" stroke-linecap="butt" stroke-linejoin="round"/><path d="M127.13555,170.60803c-0.34867,0.71901 -1.1785,1.03652 -1.85347,0.7092c-0.67497,-0.32732 -0.93949,-1.17553 -0.59082,-1.89454c0.34867,-0.71901 1.1785,-1.03653 1.85347,-0.70921c0.67497,0.32732 0.93949,1.17553 0.59082,1.89454z" fill="#4d4d4d" stroke="#595959" stroke-width="0.4" stroke-linecap="butt" stroke-linejoin="miter"/><path d="M133.61466,173.74997c-0.15407,0.31769 -1.42255,0.02069 -2.83325,-0.66341c-1.41071,-0.6841 -2.42942,-1.49622 -2.27535,-1.81392c0.15407,-0.31769 1.42255,-0.02068 2.83326,0.66342c1.41071,0.6841 2.42941,1.49621 2.27534,1.81392z" fill="#cc5252" stroke="none" stroke-width="0.6" stroke-linecap="butt" stroke-linejoin="miter"/></g></g></g><path d="M163.85883,151.26011c0,0 3.01795,-0.2376 4.72042,1.48441c1.70246,1.72201 1.48441,4.79167 1.48441,4.79167v44.84826c0,0 0.2376,3.04988 -1.48441,4.79167c-1.72201,1.74179 -4.72042,1.48441 -4.72042,1.48441h-57.62661c0,0 -3.07018,0.24998 -4.80948,-1.48441c-1.73931,-1.73439 -1.48441,-4.79167 -1.48441,-4.79167v-44.84826c0,0 -0.2376,-3.04988 1.48441,-4.79167c1.72201,-1.74179 4.72042,-1.48441 4.72042,-1.48441z" data-paper-data="{&quot;index&quot;:null}" fill="none" stroke="#807459" stroke-width="2" stroke-linecap="butt" stroke-linejoin="miter"/></g></g></g></svg>