<svg version="1.1" xmlns="http://www.w3.org/2000/svg" xmlns:xlink="http://www.w3.org/1999/xlink" width="130.8" height="127.6" viewBox="0,0,130.8,127.6"><g transform="translate(-174.6,-116.2)"><g data-paper-data="{&quot;isPaintingLayer&quot;:true}" fill-rule="nonzero" stroke-miterlimit="10" stroke-dasharray="" stroke-dashoffset="0" style="mix-blend-mode: normal"><path d="M174.6,243.8v-127.6h130.8v127.6z" fill="none" stroke="none" stroke-width="0" stroke-linecap="butt" stroke-linejoin="miter"/><path d="M274.00572,135.96885c0,0 3.55619,-0.27998 5.56229,1.74915c2.00609,2.02913 1.74915,5.64625 1.74915,5.64625v73.27151c0,0 0.27998,3.59382 -1.74915,5.64625c-2.02913,2.05243 -5.56229,1.74915 -5.56229,1.74915h-67.90416c0,0 -3.61774,0.29456 -5.66724,-1.74915c-2.04951,-2.04371 -1.74915,-5.64625 -1.74915,-5.64625v-73.27151c0,0 -0.27998,-3.59382 1.74915,-5.64625c2.02913,-2.05243 5.56229,-1.74915 5.56229,-1.74915z" data-paper-data="{&quot;index&quot;:null}" fill="#b3a88f" stroke="#ffffff" stroke-width="12" stroke-linecap="butt" stroke-linejoin="miter"/><path d="M274.00572,135.96885c0,0 3.55619,-0.27998 5.56229,1.74915c2.00609,2.02913 1.74915,5.64625 1.74915,5.64625v73.27151c0,0 0.27998,3.59382 -1.74915,5.64625c-2.02913,2.05243 -5.56229,1.74915 -5.56229,1.74915h-67.90416c0,0 -3.61774,0.29456 -5.66724,-1.74915c-2.04951,-2.04371 -1.74915,-5.64625 -1.74915,-5.64625v-73.27151c0,0 -0.27998,-3.59382 1.74915,-5.64625c2.02913,-2.05243 5.56229,-1.74915 5.56229,-1.74915z" data-paper-data="{&quot;index&quot;:null}" fill="#b3a88f" stroke="#807459" stroke-width="2" stroke-linecap="butt" stroke-linejoin="miter"/><text transform="translate(204.03371,216.30305) scale(0.28782,0.28782)" font-size="40" xml:space="preserve" fill="#ffffff" fill-rule="nonzero" stroke="#ffffff" stroke-width="2" stroke-linecap="butt" stroke-linejoin="round" stroke-miterlimit="10" stroke-dasharray="" stroke-dashoffset="0" font-family="Malgun Gothic" font-weight="normal" text-anchor="start" style="mix-blend-mode: normal"><tspan x="0" dy="0">INFECTION ☁</tspan></text><g><path d="M268.85883,142.63313c0,0 3.01795,-0.2376 4.72042,1.48441c1.70246,1.72201 1.48441,4.79167 1.48441,4.79167v44.84826c0,0 0.2376,3.04988 -1.48441,4.79167c-1.72201,1.74179 -4.72042,1.48441 -4.72042,1.48441h-57.62661c0,0 -3.07018,0.24998 -4.80948,-1.48441c-1.73931,-1.73439 -1.48441,-4.79167 -1.48441,-4.79167v-44.84826c0,0 -0.2376,-3.04988 1.48441,-4.79167c1.72201,-1.74179 4.72042,-1.48441 4.72042,-1.48441z" data-paper-data="{&quot;index&quot;:null}" fill="#cccccc" stroke="#807459" stroke-width="2" stroke-linecap="butt" stroke-linejoin="miter"/><g fill="#b3b3b3" stroke="none" stroke-width="0" stroke-linecap="butt" stroke-linejoin="miter"><path d="M244.70799,180.57681v-18.11084h18.11084v18.11084z"/><path d="M244.70799,161.02733v-18.11084h18.11084v18.11084z"/><path d="M264.25748,180.57681v-18.11084h10.49752v18.11084z"/><path d="M264.25748,161.02733v-18.11084c0,0 4.68595,0 6.59776,0c1.46983,0 3.89977,1.96211 3.89977,3.54454c0,3.20788 0,14.5663 0,14.5663z"/><path d="M244.70799,200.1263v-18.11084h18.11084v18.11084z"/><path d="M264.25748,200.1263v-18.11084h10.49752c0,0 0,11.22076 0,14.4466c0,1.62463 -1.97008,3.66424 -3.27475,3.66424c-1.9376,0 -7.22277,0 -7.22277,0z"/><path d="M205.60903,180.57681v-18.11084h18.11084v18.11084z"/><path d="M205.60903,161.02733c0,0 0,-13.79261 0,-16.44134c0,-0.84404 1.08386,-1.6695 2.11991,-1.6695c2.84549,0 15.99093,0 15.99093,0v18.11084z"/><path d="M225.15851,180.57681v-18.11084h18.11084v18.11084z"/><path d="M225.15851,161.02733v-18.11084h18.11084v18.11084z"/><path d="M205.60903,195.52454c0,-3.31914 0,-13.50908 0,-13.50908h18.11084v18.11084c0,0 -10.84803,0 -14.11589,0c-1.73846,0 -3.99495,-2.66456 -3.99495,-4.60176z"/><path d="M225.15851,200.1263v-18.11084h18.11084v18.11084z"/></g><g stroke="none" stroke-width="0" stroke-linecap="butt" stroke-linejoin="miter"><path d="M205.245,195.83705c0,-3.50557 0,-14.55774 0,-14.55774h19.21237v19.21237c0,0 -10.70165,0 -14.22839,0c-2.0873,0 -4.98398,-2.6724 -4.98398,-4.65463z" fill="#996e2e"/><path d="M206.86407,198.87259v-15.97423h15.97423v15.97423z" fill="#cc9b52"/><path d="M205.70787,198.39175l16.64959,-16.64959l1.63705,1.63704l-16.64959,16.64959z" fill="#996e2e"/><path d="M222.35746,200.0288l-16.64959,-16.64959l1.63705,-1.63704l16.64959,16.64959z" data-paper-data="{&quot;index&quot;:null}" fill="#996e2e"/></g><path d="M268.85883,142.63313c0,0 3.01795,-0.2376 4.72042,1.48441c1.70246,1.72201 1.48441,4.79167 1.48441,4.79167v44.84826c0,0 0.2376,3.04988 -1.48441,4.79167c-1.72201,1.74179 -4.72042,1.48441 -4.72042,1.48441h-57.62661c0,0 -3.07018,0.24998 -4.80948,-1.48441c-1.73931,-1.73439 -1.48441,-4.79167 -1.48441,-4.79167v-44.84826c0,0 -0.2376,-3.04988 1.48441,-4.79167c1.72201,-1.74179 4.72042,-1.48441 4.72042,-1.48441z" data-paper-data="{&quot;index&quot;:null}" fill="none" stroke="#807459" stroke-width="2" stroke-linecap="butt" stroke-linejoin="miter"/><g stroke-width="0.6" stroke-linejoin="round"><path d="M266.2073,163.02495c0,0 -1.51165,0.97056 -2.88489,0.54742c-1.37324,-0.42315 -2.12001,-2.08961 -2.12001,-2.08961l-3.33893,-6.22679c0,0 -0.97954,-1.52836 -0.56742,-2.92215c0.41211,-1.39379 2.05236,-2.10003 2.05236,-2.10003l3.31614,-1.77819c0,0 1.5355,-0.99169 2.93146,-0.57241c1.39596,0.41928 2.12,2.08962 2.12,2.08962l3.33893,6.22678c0,0 0.97953,1.52837 0.56742,2.92215c-0.41211,1.39379 -2.05236,2.10002 -2.05236,2.10002z" data-paper-data="{&quot;index&quot;:null}" fill="#64eb46" stroke="#23ad03" stroke-linecap="butt"/><path d="M268.42604,161.93146l-6.97878,-12.93303l1.19626,-0.64551c0,0 1.55208,-1.00818 2.96664,-0.58738c1.41456,0.42082 2.1521,2.11014 2.1521,2.11014l3.39729,6.29585c0,0 0.99586,1.54488 0.58229,2.95722c-0.41356,1.41235 -2.07246,2.13178 -2.07246,2.13178z" data-paper-data="{&quot;index&quot;:null}" fill="#c79750" stroke="#946a2c" stroke-linecap="butt"/><path d="M264.86129,148.95828l3.04472,-0.2334l-0.78022,4.45644" fill="#c79750" stroke="#946a2c" stroke-linecap="round"/><path d="M264.03177,161.8829c0,0 -0.7505,0.48186 -1.43226,0.27179c-0.68177,-0.21007 -1.05252,-1.03744 -1.05252,-1.03744l-3.1884,-5.94604c0,0 -0.4863,-0.75879 -0.28171,-1.45076c0.2046,-0.69198 1.01894,-1.04261 1.01894,-1.04261l0.24544,-0.13161c0,0 0.76233,-0.49234 1.45539,-0.28418c0.69305,0.20816 1.05252,1.03743 1.05252,1.03743l3.1884,5.94604c0,0 0.4863,0.75879 0.28171,1.45076c-0.2046,0.69198 -1.01894,1.0426 -1.01894,1.0426z" data-paper-data="{&quot;index&quot;:null}" fill="#ffffff" stroke="none" stroke-linecap="butt"/><path d="M268.05584,154.91581l4.14371,1.81612l-1.87923,2.40693" data-paper-data="{&quot;index&quot;:null}" fill="#c79750" stroke="#946a2c" stroke-linecap="round"/><path d="M261.47443,155.08346c-0.79306,0.42525 -1.79378,0.10273 -2.23515,-0.72039c-0.44137,-0.82312 -0.15628,-1.83514 0.6368,-2.26039c0.79306,-0.42525 1.79378,-0.10273 2.23516,0.72039c0.44137,0.82312 0.15627,1.83514 -0.63679,2.2604z" fill="#262626" stroke="none" stroke-linecap="butt"/><path d="M261.23222,153.57426c-0.31593,0.16941 -0.71458,0.04093 -0.89042,-0.28698c-0.17583,-0.3279 -0.06226,-0.73106 0.25368,-0.90047c0.31593,-0.16941 0.71458,-0.04093 0.89042,0.28698c0.17583,0.3279 0.06226,0.73106 -0.25368,0.90047z" fill="#595959" stroke="none" stroke-linecap="butt"/><path d="M265.5794,159.29091c0.44138,0.82313 0.15627,1.83514 -0.6368,2.26039c-0.79306,0.42525 -1.79379,0.10272 -2.23515,-0.72039c-0.44138,-0.82313 -0.15627,-1.83514 0.6368,-2.26039c0.79306,-0.42525 1.79379,-0.10272 2.23516,0.7204z" data-paper-data="{&quot;index&quot;:null}" fill="#262626" stroke="none" stroke-linecap="butt"/><path d="M264.7004,160.04209c-0.31593,0.16941 -0.71459,0.04093 -0.89043,-0.28698c-0.17583,-0.3279 -0.06225,-0.73107 0.25369,-0.90048c0.31593,-0.16941 0.71458,-0.04093 0.89042,0.28698c0.17583,0.3279 0.06226,0.73106 -0.25368,0.90047z" data-paper-data="{&quot;index&quot;:null}" fill="#595959" stroke="none" stroke-linecap="butt"/><g><path d="M256.03998,162.0719c0.67667,1.26192 0.20223,2.83345 -1.05969,3.51012c-1.26192,0.67667 -2.83345,0.20223 -3.51012,-1.05969c-0.67667,-1.26192 -0.20223,-2.83345 1.05969,-3.51012c1.26192,-0.67667 2.83345,-0.20223 3.51012,1.05969z" fill="#64eb46" stroke="#23ad03" stroke-linecap="butt"/><g><path d="M257.66764,157.30271c0.67667,1.26192 0.20223,2.83345 -1.05969,3.51012c-1.26192,0.67667 -2.83345,0.20223 -3.51012,-1.05969c-0.67667,-1.26192 -0.20223,-2.83345 1.05969,-3.51012c1.26192,-0.67667 2.83345,-0.20223 3.51012,1.05969z" fill="#64eb46" stroke="#23ad03" stroke-linecap="butt"/><path d="M255.94226,158.52586l1.22997,2.29375l-7.85843,4.21386l-1.22996,-2.29376z" fill="#808080" stroke="#595959" stroke-linecap="butt"/><path d="M249.67684,163.3683l1.69882,-0.91094" fill="none" stroke="#595959" stroke-linecap="round"/></g></g></g><g stroke-width="0.6" stroke-linejoin="round"><path d="M260.01245,192.23387c0,0 -1.75519,-0.38261 -2.42701,-1.65284c-0.67181,-1.27024 -0.02149,-2.97665 -0.02149,-2.97665l2.04202,-6.76398c0,0 0.38808,-1.77335 1.66505,-2.4675c1.27697,-0.69416 2.93618,-0.03371 2.93618,-0.03371l3.60224,1.0875c0,0 1.78699,0.38453 2.47761,1.6681c0.69062,1.28357 0.02148,2.97665 0.02148,2.97665l-2.04201,6.76398c0,0 -0.38809,1.77336 -1.66505,2.4675c-1.27697,0.69416 -2.93617,0.03371 -2.93617,0.03371z" data-paper-data="{&quot;index&quot;:null}" fill="#64eb46" stroke="#23ad03" stroke-linecap="butt"/><path d="M262.35454,193.02955l4.21029,-14.07978l1.30233,0.38944c0,0 1.81038,0.38459 2.51307,1.68239c0.70268,1.29781 0.02967,3.01386 0.02967,3.01386l-2.04959,6.85409c0,0 -0.38822,1.79657 -1.67933,2.50281c-1.29111,0.70625 -2.97284,0.04194 -2.97284,0.04194z" data-paper-data="{&quot;index&quot;:null}" fill="#c79750" stroke="#946a2c" stroke-linecap="butt"/><path d="M269.00731,181.33547l2.31798,1.9879l-3.70288,2.59948" fill="#c79750" stroke="#946a2c" stroke-linecap="round"/><path d="M259.28166,189.88799c0,0 -0.87141,-0.18996 -1.20494,-0.82058c-0.33354,-0.63063 -0.01066,-1.47783 -0.01066,-1.47783l1.94995,-6.45902c0,0 0.19268,-0.88041 0.82664,-1.22504c0.63398,-0.34463 1.45773,-0.01674 1.45773,-0.01674l0.26662,0.08049c0,0 0.88719,0.19092 1.23006,0.82817c0.34287,0.63726 0.01067,1.47782 0.01067,1.47782l-1.94995,6.45902c0,0 -0.19268,0.88041 -0.82664,1.22504c-0.63398,0.34463 -1.45772,0.01673 -1.45772,0.01673z" data-paper-data="{&quot;index&quot;:null}" fill="#ffffff" stroke="none" stroke-linecap="butt"/><path d="M267.05358,187.80696l1.64585,4.21424l-3.03077,0.37314" data-paper-data="{&quot;index&quot;:null}" fill="#c79750" stroke="#946a2c" stroke-linecap="round"/><path d="M262.28128,183.27174c-0.86148,-0.26008 -1.34103,-1.19575 -1.0711,-2.08988c0.26993,-0.89413 1.18713,-1.40815 2.04862,-1.14805c0.86148,0.26008 1.34103,1.19575 1.0711,2.08989c-0.26993,0.89413 -1.18714,1.40814 -2.04862,1.14807z" fill="#262626" stroke="none" stroke-linecap="butt"/><path d="M263.17717,182.03331c-0.34319,-0.10361 -0.53423,-0.47634 -0.4267,-0.83254c0.10753,-0.35619 0.47291,-0.56096 0.81611,-0.45735c0.34319,0.10361 0.53423,0.47634 0.4267,0.83254c-0.10753,0.35619 -0.47291,0.56096 -0.81611,0.45735z" fill="#595959" stroke="none" stroke-linecap="butt"/><path d="M262.20882,189.14951c-0.26994,0.89415 -1.18714,1.40814 -2.04862,1.14805c-0.86148,-0.26008 -1.34103,-1.19577 -1.0711,-2.08988c0.26994,-0.89415 1.18714,-1.40814 2.04862,-1.14805c0.86148,0.26008 1.34103,1.19577 1.0711,2.0899z" data-paper-data="{&quot;index&quot;:null}" fill="#262626" stroke="none" stroke-linecap="butt"/><path d="M261.0561,189.05913c-0.34319,-0.10361 -0.53424,-0.47635 -0.4267,-0.83255c0.10753,-0.35619 0.47293,-0.56096 0.81612,-0.45735c0.34319,0.10361 0.53423,0.47634 0.4267,0.83254c-0.10753,0.35619 -0.47291,0.56096 -0.81611,0.45735z" data-paper-data="{&quot;index&quot;:null}" fill="#595959" stroke="none" stroke-linecap="butt"/><g><path d="M253.49697,184.37059c-0.41383,1.37079 -1.86056,2.14655 -3.23134,1.73272c-1.37079,-0.41383 -2.14655,-1.86056 -1.73272,-3.23134c0.41383,-1.37079 1.86056,-2.14655 3.23134,-1.73272c1.37079,0.41383 2.14655,1.86056 1.73272,3.23134z" fill="#64eb46" stroke="#23ad03" stroke-linecap="butt"/><g><path d="M258.02023,182.14919c-0.41383,1.37079 -1.86056,2.14655 -3.23134,1.73272c-1.37079,-0.41383 -2.14655,-1.86056 -1.73272,-3.23134c0.41383,-1.37079 1.86056,-2.14655 3.23134,-1.73272c1.37079,0.41383 2.14655,1.86056 1.73272,3.23134z" fill="#64eb46" stroke="#23ad03" stroke-linecap="butt"/><path d="M255.9353,181.79405l-0.75221,2.49164l-8.5364,-2.5771l0.75222,-2.49165z" fill="#808080" stroke="#595959" stroke-linecap="butt"/><path d="M248.08086,180.78786l1.84538,0.55711" fill="none" stroke="#595959" stroke-linecap="round"/></g></g></g><g><g stroke-width="0.6" stroke-linejoin="round"><path d="M219.18943,161.69469c0,0 1.89222,-0.14898 2.95965,0.93071c1.06742,1.07969 0.93071,3.00433 0.93071,3.00433v7.46534c0,0 0.14898,1.91225 -0.93071,3.00433c-1.07969,1.09208 -2.95965,0.93071 -2.95965,0.93071h-3.97575c0,0 -1.92496,0.15673 -3.01549,-0.93071c-1.09053,-1.08745 -0.93071,-3.00433 -0.93071,-3.00433v-7.46534c0,0 -0.14898,-1.91225 0.93071,-3.00433c1.07969,-1.09208 2.95965,-0.93071 2.95965,-0.93071z" data-paper-data="{&quot;index&quot;:null}" fill="#faad32" stroke="#c78418" stroke-linecap="butt"/><path d="M220.64498,163.8444c0,0 0.93943,-0.07396 1.46938,0.46207c0.52995,0.53603 0.46207,1.49156 0.46207,1.49156v7.12876c0,0 0.07396,0.94937 -0.46207,1.49156c-0.53603,0.54219 -1.46938,0.46207 -1.46938,0.46207h-0.29427c0,0 -0.95569,0.07781 -1.49711,-0.46207c-0.54141,-0.53988 -0.46207,-1.49156 -0.46207,-1.49156v-7.12876c0,0 -0.07396,-0.94937 0.46207,-1.49156c0.53603,-0.54219 1.46938,-0.46207 1.46938,-0.46207z" data-paper-data="{&quot;index&quot;:null}" fill="#ffffff" stroke="none" stroke-linecap="butt"/><path d="M218.24729,161.29091l0.48412,1.90747l-1.85477,0.94042l-0.00821,10.4765l1.82798,0.91276l-0.44911,1.90582l-3.0336,-0.40378c0,0 -1.92496,0.15673 -3.01549,-0.93071c-1.09053,-1.08745 -0.93071,-3.00433 -0.93071,-3.00433v-7.46534c0,0 -0.14898,-1.91225 0.93071,-3.00433c1.07969,-1.09208 2.95965,-0.93071 2.95965,-0.93071z" data-paper-data="{&quot;index&quot;:null}" fill="#00b3b3" stroke="#008080" stroke-linecap="butt"/><path d="M213.41915,168.32267c0,0 -2.95167,-3.15166 -2.95167,-3.76012c0,-0.5324 2.95167,-1.30292 2.95167,-1.30292" data-paper-data="{&quot;index&quot;:null}" fill="#00b3b3" stroke="#008080" stroke-linecap="round"/><path d="M213.41915,175.46518c0,0 -2.95167,-0.77052 -2.95167,-1.30292c0,-0.60846 2.95167,-3.76012 2.95167,-3.76012" data-paper-data="{&quot;index&quot;:null}" fill="#00b3b3" stroke="#008080" stroke-linecap="round"/><path d="M219.63125,171.45272c0.95081,0 1.7216,0.8 1.7216,1.78685c0,0.98685 -0.77078,1.78685 -1.7216,1.78685c-0.95081,0 -1.7216,-0.8 -1.7216,-1.78685c0,-0.98685 0.77079,-1.78685 1.7216,-1.78685z" fill="#262626" stroke="none" stroke-linecap="butt"/><path d="M219.10323,172.97897c0.37878,0 0.68584,0.3187 0.68584,0.71183c0,0.39313 -0.30706,0.71183 -0.68584,0.71183c-0.37878,0 -0.68584,-0.3187 -0.68584,-0.71183c0,-0.39313 0.30706,-0.71183 0.68584,-0.71183z" fill="#595959" stroke="none" stroke-linecap="butt"/><path d="M217.90966,165.48523c0,-0.98685 0.77079,-1.78685 1.7216,-1.78685c0.95081,0 1.7216,0.8 1.7216,1.78685c0,0.98685 -0.77078,1.78685 -1.7216,1.78685c-0.95081,0 -1.7216,-0.8 -1.7216,-1.78685z" data-paper-data="{&quot;index&quot;:null}" fill="#262626" stroke="none" stroke-linecap="butt"/><path d="M219.10323,165.22465c0.37878,0 0.68584,0.3187 0.68584,0.71183c0,0.39313 -0.30706,0.71183 -0.68584,0.71183c-0.37878,0 -0.68584,-0.3187 -0.68584,-0.71183c0,-0.39313 0.30706,-0.71183 0.68584,-0.71183z" data-paper-data="{&quot;index&quot;:null}" fill="#595959" stroke="none" stroke-linecap="butt"/></g><g><path d="M230.71034,166.16418c0,-1.51292 1.22647,-2.73939 2.73939,-2.73939c1.51292,0 2.73939,1.22647 2.73939,2.73939c0,1.51292 -1.22647,2.73939 -2.73939,2.73939c-1.51292,0 -2.73939,-1.22647 -2.73939,-2.73939z" fill="#faad32" stroke="#c78418" stroke-width="0.6" stroke-linecap="butt" stroke-linejoin="round"/><g><path d="M224.79773,171.4049c0,-1.51292 1.22647,-2.73939 2.73939,-2.73939c1.51292,0 2.73939,1.22647 2.73939,2.73939c0,1.51292 -1.22647,2.73939 -2.73939,2.73939c-1.51292,0 -2.73939,-1.22647 -2.73939,-2.73939z" fill="#faad32" stroke="#c78418" stroke-width="0.6" stroke-linecap="butt" stroke-linejoin="round"/><g fill="none" stroke="#595959" stroke-width="0.6" stroke-linecap="round" stroke-linejoin="miter"><path d="M236.77311,166.62316v0.94215"/><path d="M236.77311,172.88174v-0.94215"/></g><g fill="none" stroke="#595959" stroke-width="0.6" stroke-linecap="round" stroke-linejoin="miter"><path d="M229.70696,166.62316v0.94215"/><path d="M229.70696,172.88174v-0.94215"/></g><path d="M240.64267,169.75245c0,0.79909 -1.15967,1.44687 -2.59019,1.44687c-1.43052,0 -2.59019,-0.64779 -2.59019,-1.44687c0,-0.79909 1.15967,-1.44687 2.59019,-1.44687c1.43052,0 2.59019,0.64779 2.59019,1.44687z" fill="#cc5252" stroke="#992e2e" stroke-width="0.6" stroke-linecap="butt" stroke-linejoin="miter"/><path d="M226.20082,171.59747v-3.69933l1.17399,-0.22979l5.286,0.33506l5.00114,-0.31892l0.93383,0.0735v3.97961l-0.90222,0.07576l-5.03274,-0.32118l-5.42657,0.34438z" fill="#808080" stroke="#595959" stroke-width="0.6" stroke-linecap="butt" stroke-linejoin="round"/><path d="M229.52383,169.75245c0,0.79909 -0.60812,1.44687 -1.35827,1.44687c-0.75015,0 -1.35827,-0.64779 -1.35827,-1.44687c0,-0.79909 0.60812,-1.44687 1.35827,-1.44687c0.75015,0 1.35827,0.64779 1.35827,1.44687z" fill="#4d4d4d" stroke="#595959" stroke-width="0.4" stroke-linecap="butt" stroke-linejoin="miter"/><path d="M236.72457,169.75245c0,0.35308 -1.27097,0.63932 -2.83879,0.63932c-1.56783,0 -2.8388,-0.28623 -2.8388,-0.63932c0,-0.35308 1.27097,-0.63932 2.8388,-0.63932c1.56783,0 2.83879,0.28623 2.83879,0.63932z" fill="#cc5252" stroke="none" stroke-width="0.6" stroke-linecap="butt" stroke-linejoin="miter"/></g></g></g></g></g></g></svg>