<svg version="1.1" xmlns="http://www.w3.org/2000/svg" xmlns:xlink="http://www.w3.org/1999/xlink" width="105.61904" height="105.61904" viewBox="0,0,105.61904,105.61904"><g transform="translate(-187.1905,-127.19049)"><g data-paper-data="{&quot;isPaintingLayer&quot;:true}" fill-rule="nonzero" stroke-linecap="butt" stroke-miterlimit="10" stroke-dasharray="" stroke-dashoffset="0" style="mix-blend-mode: normal"><path d="M187.19051,180.00002c0,-29.16592 23.64362,-52.80952 52.80952,-52.80952c29.16592,0 52.80952,23.64361 52.80952,52.80952c0,29.16592 -23.64361,52.80952 -52.80952,52.80952c-29.16592,0 -52.80952,-23.64361 -52.80952,-52.80952z" fill="none" stroke="none" stroke-width="0" stroke-linejoin="miter"/><path d="M227.1107,183.07429c0,-2.81469 2.28176,-5.09645 5.09645,-5.09645c2.81469,0 5.09645,2.28176 5.09645,5.09645c0,2.81469 -2.28176,5.09645 -5.09645,5.09645c-2.81469,0 -5.09645,-2.28176 -5.09645,-5.09645z" fill="#faad32" stroke="#c78418" stroke-width="1.5" stroke-linejoin="round"/><path d="M236.12539,186.29687c-2.01043,-1.48342 -2.54466,-4.2246 -1.318,-6.33621c0.08892,-0.15305 3.86516,-5.5767 3.97269,-5.72242c1.59095,-2.15616 4.62858,-2.61435 6.78474,-1.0234c1.99348,1.47091 2.53554,4.17843 1.34867,6.28263c-0.09686,0.17172 -3.88332,5.61333 -4.00336,5.77601c-1.59095,2.15616 -4.62858,2.61435 -6.78474,1.0234z" fill="#bfbfbf" stroke="none" stroke-width="0" stroke-linejoin="miter"/><path d="M237.00864,185.07172c-1.37903,-1.01754 -1.74548,-2.89782 -0.90407,-4.34626c0.06099,-0.10499 3.78671,-5.39327 3.86047,-5.49323c1.0913,-1.479 3.17493,-1.79329 4.65392,-0.70199c1.3674,1.00896 1.73923,2.86615 0.9251,4.3095c-0.06644,0.11779 -3.79917,5.4184 -3.88151,5.52999c-1.0913,1.479 -3.17493,1.79329 -4.65392,0.70199z" fill="#ffad33" stroke="none" stroke-width="0" stroke-linejoin="miter"/><path d="M244.04193,175.6567c-0.63546,-0.46888 -0.80432,-1.33532 -0.4166,-2.00276c0.0281,-0.04838 1.74492,-2.48523 1.77891,-2.53129c0.50287,-0.68153 1.46301,-0.82635 2.14453,-0.32348c0.6301,0.46493 0.80144,1.32073 0.42629,1.98583c-0.03062,0.05428 -1.75066,2.49681 -1.78861,2.54823c-0.50287,0.68153 -1.46301,0.82635 -2.14453,0.32348z" fill="#ffffff" stroke="none" stroke-width="0" stroke-linejoin="miter"/></g></g></svg>