<svg version="1.1" xmlns="http://www.w3.org/2000/svg" xmlns:xlink="http://www.w3.org/1999/xlink" width="49.73723" height="33.42922" viewBox="0,0,49.73723,33.42922"><g transform="translate(-211.65524,-163.28545)"><g data-paper-data="{&quot;isPaintingLayer&quot;:true}" fill-rule="nonzero" stroke-miterlimit="10" stroke-dasharray="" stroke-dashoffset="0" style="mix-blend-mode: normal"><path d="M211.65524,180.00006c0,-9.23121 11.13405,-16.71461 24.86861,-16.71461c13.73454,0 24.86862,7.48337 24.86862,16.71461c0,9.23121 -11.13405,16.71461 -24.86862,16.71461c-13.73454,0 -24.86861,-7.48337 -24.86861,-16.71461z" data-paper-data="{&quot;index&quot;:null}" fill="none" stroke="none" stroke-width="0" stroke-linecap="butt" stroke-linejoin="round"/><path d="M227.1107,183.0743c0,-2.81469 2.28176,-5.09645 5.09645,-5.09645c2.81469,0 5.09645,2.28176 5.09645,5.09645c0,2.81469 -2.28176,5.09645 -5.09645,5.09645c-2.81469,0 -5.09645,-2.28176 -5.09645,-5.09645z" fill="#faad32" stroke="#c78418" stroke-width="1.5" stroke-linecap="butt" stroke-linejoin="round"/><g data-paper-data="{&quot;index&quot;:null}" fill="none" stroke="#cc9d52" stroke-width="3" stroke-linecap="round" stroke-linejoin="miter"><g data-paper-data="{&quot;index&quot;:null}"><path d="M241.27323,176.16448l2.37314,-2.35931"/><path d="M237.20498,176.16448l2.37314,-2.35931"/><path d="M235.50988,173.80517l-2.37314,2.35931"/></g><g data-paper-data="{&quot;index&quot;:null}"><path d="M243.64637,186.19495l-2.37314,-2.3593"/><path d="M239.57812,186.19495l-2.37314,-2.3593"/><path d="M235.50988,186.19494l-2.37314,-2.3593"/></g></g><g data-paper-data="{&quot;index&quot;:null}" fill="none" stroke="#ffc466" stroke-width="1.5" stroke-linecap="round" stroke-linejoin="miter"><g data-paper-data="{&quot;index&quot;:null}"><path d="M241.27323,176.16448l2.37314,-2.35931"/><path d="M237.20498,176.16448l2.37314,-2.35931"/><path d="M235.50988,173.80517l-2.37314,2.35931"/></g><g data-paper-data="{&quot;index&quot;:null}"><path d="M243.64637,186.19495l-2.37314,-2.3593"/><path d="M239.57812,186.19495l-2.37314,-2.3593"/><path d="M235.50988,186.19494l-2.37314,-2.3593"/></g></g><path d="M230.77844,184.00696l-1.25061,-4.0565l1.25299,-3.96913l13.40921,0.34983v7.32115z" data-paper-data="{&quot;index&quot;:null}" fill="#6cd998" stroke="#42a66a" stroke-width="1.5" stroke-linecap="butt" stroke-linejoin="round"/><path d="M232.99095,181.75377l-0.66032,-1.77878l0.66158,-1.74047l11.68374,0.1534v3.21033z" data-paper-data="{&quot;index&quot;:null}" fill="#79f2f2" stroke="#47b392" stroke-width="1.5" stroke-linecap="butt" stroke-linejoin="round"/><path d="M244.00316,183.8598v-7.73642l4.5216,-0.65564l0.02641,9.05281z" data-paper-data="{&quot;index&quot;:null}" fill="#6cd998" stroke="#42a66a" stroke-width="1.5" stroke-linecap="butt" stroke-linejoin="round"/></g></g></svg>