<svg version="1.1" xmlns="http://www.w3.org/2000/svg" xmlns:xlink="http://www.w3.org/1999/xlink" width="228.59167" height="108.86344" viewBox="0,0,228.59167,108.86344"><g transform="translate(-125.70423,-125.56828)"><g data-paper-data="{&quot;isPaintingLayer&quot;:true}" fill-rule="nonzero" stroke-miterlimit="10" stroke-dasharray="" stroke-dashoffset="0" style="mix-blend-mode: normal"><path d="M125.70424,234.43172v-108.86344h228.59167v108.86344z" fill="none" stroke="none" stroke-width="0" stroke-linecap="butt" stroke-linejoin="miter"/><text transform="translate(149.14317,157.87566) scale(0.44693,0.44693)" font-size="40" xml:space="preserve" fill="#ffffff" fill-rule="nonzero" stroke="#ffffff" stroke-width="2" stroke-linecap="butt" stroke-linejoin="round" stroke-miterlimit="10" stroke-dasharray="" stroke-dashoffset="0" font-family="Malgun Gothic" font-weight="normal" text-anchor="start" style="mix-blend-mode: normal"><tspan x="0" dy="0">Shop</tspan></text><text transform="translate(171.17879,215.95116) scale(0.24767,0.24767)" font-size="40" xml:space="preserve" fill="#ffffff" fill-rule="nonzero" stroke="#ffffff" stroke-width="2" stroke-linecap="butt" stroke-linejoin="round" stroke-miterlimit="10" stroke-dasharray="" stroke-dashoffset="0" font-family="Malgun Gothic" font-weight="normal" text-anchor="start" style="mix-blend-mode: normal"><tspan x="0" dy="0">Price</tspan></text><g stroke-linejoin="miter"><path d="M326.4167,150.20858c0,-4.05009 3.28325,-7.33333 7.33333,-7.33333c4.05009,0 7.33333,3.28325 7.33333,7.33333c0,4.05009 -3.28325,7.33333 -7.33333,7.33333c-4.05009,0 -7.33333,-3.28325 -7.33333,-7.33333z" fill="#80b3ff" stroke="none" stroke-width="0" stroke-linecap="butt"/><g fill="none" stroke="#ffffff"><path d="M326.57174,150.24191c0,-3.96444 3.21382,-7.17826 7.17826,-7.17826c3.96444,0 7.17826,3.21382 7.17826,7.17826c0,3.96444 -3.21382,7.17826 -7.17826,7.17826c-3.96444,0 -7.17826,-3.21382 -7.17826,-7.17826z" stroke-width="1.5" stroke-linecap="butt"/><g stroke-width="1" stroke-linecap="round"><path d="M326.62699,150.24191h14.24611"/><path d="M327.38667,146.83861h12.72679"/><path d="M340.11345,153.64521h-12.72679" data-paper-data="{&quot;index&quot;:null}"/><path d="M333.75001,157.11486v-13.82928" data-paper-data="{&quot;index&quot;:null}"/><path d="M336.22747,143.70243c0,0 1.6516,2.01336 1.6516,6.48846c0,4.4751 -1.6516,6.59051 -1.6516,6.59051" data-paper-data="{&quot;index&quot;:null}"/><path d="M331.27261,156.7814c0,0 -1.6516,-2.11541 -1.6516,-6.59051c0,-4.4751 1.6516,-6.48846 1.6516,-6.48846" data-paper-data="{&quot;index&quot;:null}"/></g></g></g><path d="M202.10544,213.72117h76.4569" fill="none" stroke="#cca000" stroke-width="11" stroke-linecap="round" stroke-linejoin="miter"/><path d="M202.10544,213.72117h76.4569" fill="none" stroke="#ffd333" stroke-width="8" stroke-linecap="round" stroke-linejoin="miter"/><path d="M206.77968,213.41504l-14.69041,6.00971h-20.03238" fill="none" stroke="#ffffff" stroke-width="1" stroke-linecap="round" stroke-linejoin="miter"/><text transform="translate(163.64292,177.24111) scale(0.23971,0.23971)" font-size="40" xml:space="preserve" fill="#ffffff" fill-rule="nonzero" stroke="#ffffff" stroke-width="2" stroke-linecap="butt" stroke-linejoin="round" stroke-miterlimit="10" stroke-dasharray="" stroke-dashoffset="0" font-family="Malgun Gothic" font-weight="normal" text-anchor="start" style="mix-blend-mode: normal"><tspan x="0" dy="0">hover your mouse to</tspan><tspan x="0" dy="48px">see weapon stats and price</tspan><tspan x="0" dy="48px">tap on icon to buy</tspan></text><text transform="translate(239.41767,150.28377) scale(0.23971,0.23971)" font-size="40" xml:space="preserve" fill="#ffffff" fill-rule="nonzero" stroke="#ffffff" stroke-width="2" stroke-linecap="butt" stroke-linejoin="round" stroke-miterlimit="10" stroke-dasharray="" stroke-dashoffset="0" font-family="Malgun Gothic" font-weight="normal" text-anchor="start" style="mix-blend-mode: normal"><tspan x="0" dy="0">collect money by</tspan><tspan x="0" dy="48px">killing enemy</tspan></text></g></g></svg>