<svg version="1.1" xmlns="http://www.w3.org/2000/svg" xmlns:xlink="http://www.w3.org/1999/xlink" width="49.73722" height="33.42922" viewBox="0,0,49.73722,33.42922"><g transform="translate(-211.65524,-163.2854)"><g data-paper-data="{&quot;isPaintingLayer&quot;:true}" fill-rule="nonzero" stroke-linecap="butt" stroke-miterlimit="10" stroke-dasharray="" stroke-dashoffset="0" style="mix-blend-mode: normal"><path d="M227.1107,183.07425c0,-2.81469 2.28176,-5.09645 5.09645,-5.09645c2.81469,0 5.09645,2.28176 5.09645,5.09645c0,2.81469 -2.28176,5.09645 -5.09645,5.09645c-2.81469,0 -5.09645,-2.28176 -5.09645,-5.09645z" fill="#faad32" stroke="#c78418" stroke-width="1.5" stroke-linejoin="round"/><path d="M211.65524,180.00001c0,-9.23122 11.13405,-16.71461 24.86861,-16.71461c13.73454,0 24.86861,7.48338 24.86861,16.71461c0,9.23122 -11.13405,16.71461 -24.86861,16.71461c-13.73454,0 -24.86861,-7.48338 -24.86861,-16.71461z" fill="none" stroke="none" stroke-width="0" stroke-linejoin="round"/><path d="M241.36429,183.211l-4.62393,-1.15002l-4.58024,0.77454l-1.69546,-0.1376v-5.41277l1.75488,-0.13351l4.52084,0.77045l4.6931,-1.13308l12.32409,0.75069v4.90372z" data-paper-data="{&quot;index&quot;:null}" fill="#597db3" stroke="#335080" stroke-width="1.5" stroke-linejoin="round"/><path d="M238.30999,180c0,-2.46354 1.20436,-4.46064 2.69001,-4.46064c1.48565,0 2.69001,1.9971 2.69001,4.46064c0,2.46354 -1.20436,4.46064 -2.69001,4.46064c-1.48565,0 -2.69001,-1.9971 -2.69001,-4.46064z" fill="#cce0ff" stroke="#85a1cc" stroke-width="1.5" stroke-linejoin="miter"/></g></g></svg>