<svg version="1.1" xmlns="http://www.w3.org/2000/svg" xmlns:xlink="http://www.w3.org/1999/xlink" width="105.61904" height="105.61904" viewBox="0,0,105.61904,105.61904"><g transform="translate(-187.19053,-127.19053)"><g data-paper-data="{&quot;isPaintingLayer&quot;:true}" fill-rule="nonzero" stroke-linecap="butt" stroke-miterlimit="10" stroke-dasharray="" stroke-dashoffset="0" style="mix-blend-mode: normal"><path d="M187.19054,180.00005c0,-29.16592 23.64362,-52.80952 52.80952,-52.80952c29.16592,0 52.80952,23.64361 52.80952,52.80952c0,29.16592 -23.64361,52.80952 -52.80952,52.80952c-29.16592,0 -52.80952,-23.64361 -52.80952,-52.80952z" fill="none" stroke="none" stroke-width="0" stroke-linejoin="miter"/><path d="M227.1107,183.0743c0,-2.81469 2.28176,-5.09645 5.09645,-5.09645c2.81469,0 5.09645,2.28176 5.09645,5.09645c0,2.81469 -2.28176,5.09645 -5.09645,5.09645c-2.81469,0 -5.09645,-2.28176 -5.09645,-5.09645z" fill="#faad32" stroke="#c78418" stroke-width="1.5" stroke-linejoin="round"/><path d="M237.94057,181.50986l-5.42314,1.11096l-4.44739,0.11616v-5.47332l4.51244,0.11888l5.35812,1.10824z" data-paper-data="{&quot;index&quot;:null}" fill="#808080" stroke="#595959" stroke-width="1.5" stroke-linejoin="round"/><path d="M240.41229,178.33022l16.5257,-0.38961v4.1197l-16.52565,-0.38961z" data-paper-data="{&quot;index&quot;:null}" fill="#808080" stroke="#595959" stroke-width="1.5" stroke-linejoin="round"/><path d="M235.51053,183.45002v-6.90002l7.13761,-0.20659v7.31318z" data-paper-data="{&quot;index&quot;:null}" fill="#b37924" stroke="#80520d" stroke-width="1.5" stroke-linejoin="round"/><path d="M233.63615,178.83647l6.31834,-0.46616l4.39922,0.05109v3.15899l-4.33222,0.05265l-6.38533,-0.46773z" data-paper-data="{&quot;index&quot;:null}" fill="#808080" stroke="#595959" stroke-width="1.5" stroke-linejoin="round"/></g></g></svg>