<svg version="1.1" xmlns="http://www.w3.org/2000/svg" xmlns:xlink="http://www.w3.org/1999/xlink" width="219.54446" height="219.54446" viewBox="0,0,219.54446,219.54446"><g transform="translate(-130.22779,-70.22777)"><g data-paper-data="{&quot;isPaintingLayer&quot;:true}" fill-rule="nonzero" stroke="none" stroke-width="0" stroke-linecap="butt" stroke-linejoin="miter" stroke-miterlimit="10" stroke-dasharray="" stroke-dashoffset="0" style="mix-blend-mode: normal"><path d="M130.22779,180c0,-60.62552 49.14671,-109.77223 109.77223,-109.77223c60.62552,0 109.77223,49.14671 109.77223,109.77223c0,60.62552 -49.14671,109.77223 -109.77223,109.77223c-60.62552,0 -109.77223,-49.14671 -109.77223,-109.77223z" fill="none"/><path d="M219.80511,200.1949v-40.38981h40.38981v40.38981z" fill="#99876b"/><path d="M223.20884,196.79114v-33.58233h33.58233v33.58233z" fill="#ccbca3"/><g fill="#99876b"><path d="M236.21898,180c0,-2.0882 1.69282,-3.78102 3.78102,-3.78102c2.0882,0 3.78102,1.69282 3.78102,3.78102c0,2.0882 -1.69282,3.78102 -3.78102,3.78102c-2.0882,0 -3.78102,-1.69282 -3.78102,-3.78102z"/><path d="M236.21898,169.09322c0,-2.0882 1.69282,-3.78102 3.78102,-3.78102c2.0882,0 3.78102,1.69282 3.78102,3.78102c0,2.0882 -1.69282,3.78102 -3.78102,3.78102c-2.0882,0 -3.78102,-1.69282 -3.78102,-3.78102z"/><path d="M236.21898,190.90678c0,-2.0882 1.69282,-3.78102 3.78102,-3.78102c2.0882,0 3.78102,1.69282 3.78102,3.78102c0,2.0882 -1.69282,3.78102 -3.78102,3.78102c-2.0882,0 -3.78102,-1.69282 -3.78102,-3.78102z"/><path d="M247.12577,180c0,-2.0882 1.69282,-3.78102 3.78102,-3.78102c2.0882,0 3.78102,1.69282 3.78102,3.78102c0,2.0882 -1.69282,3.78102 -3.78102,3.78102c-2.0882,0 -3.78102,-1.69282 -3.78102,-3.78102z"/><path d="M247.12577,169.09322c0,-2.0882 1.69282,-3.78102 3.78102,-3.78102c2.0882,0 3.78102,1.69282 3.78102,3.78102c0,2.0882 -1.69282,3.78102 -3.78102,3.78102c-2.0882,0 -3.78102,-1.69282 -3.78102,-3.78102z"/><path d="M247.12577,190.90678c0,-2.0882 1.69282,-3.78102 3.78102,-3.78102c2.0882,0 3.78102,1.69282 3.78102,3.78102c0,2.0882 -1.69282,3.78102 -3.78102,3.78102c-2.0882,0 -3.78102,-1.69282 -3.78102,-3.78102z"/><path d="M225.3122,180c0,-2.0882 1.69282,-3.78102 3.78102,-3.78102c2.0882,0 3.78102,1.69282 3.78102,3.78102c0,2.0882 -1.69282,3.78102 -3.78102,3.78102c-2.0882,0 -3.78102,-1.69282 -3.78102,-3.78102z"/><path d="M225.3122,169.09322c0,-2.0882 1.69282,-3.78102 3.78102,-3.78102c2.0882,0 3.78102,1.69282 3.78102,3.78102c0,2.0882 -1.69282,3.78102 -3.78102,3.78102c-2.0882,0 -3.78102,-1.69282 -3.78102,-3.78102z"/><path d="M225.3122,190.90678c0,-2.0882 1.69282,-3.78102 3.78102,-3.78102c2.0882,0 3.78102,1.69282 3.78102,3.78102c0,2.0882 -1.69282,3.78102 -3.78102,3.78102c-2.0882,0 -3.78102,-1.69282 -3.78102,-3.78102z"/></g></g></g></svg>