<svg version="1.1" xmlns="http://www.w3.org/2000/svg" xmlns:xlink="http://www.w3.org/1999/xlink" width="228.59167" height="98.84725" viewBox="0,0,228.59167,98.84725"><defs><linearGradient x1="-163685.92284" y1="-54784.60572" x2="133224.65458" y2="44729.14815" gradientUnits="userSpaceOnUse" id="color-1"><stop offset="0" stop-color="#ffffff"/><stop offset="1" stop-color="#ffffff" stop-opacity="0"/></linearGradient></defs><g transform="translate(-125.70417,-130.57638)"><g data-paper-data="{&quot;isPaintingLayer&quot;:true}" fill-rule="nonzero" stroke-miterlimit="10" stroke-dasharray="" stroke-dashoffset="0" style="mix-blend-mode: normal"><path d="M298.1065,198.06958c-20.32328,4.54609 -47.08851,-3.36786 -60.33541,-20.22225c-13.24692,-16.8544 -6.16908,-32.33865 15.2575,-37.13153c21.42658,-4.79289 47.04424,3.31156 60.33541,20.22225c13.29117,16.9107 5.06578,32.58544 -15.2575,37.13153z" data-paper-data="{&quot;index&quot;:null}" fill="url(#color-1)" stroke="none" stroke-width="NaN" stroke-linecap="butt" stroke-linejoin="miter"/><path d="M125.70417,229.42363v-98.84725h228.59167v98.84725z" fill="none" stroke="none" stroke-width="0" stroke-linecap="butt" stroke-linejoin="miter"/><path d="M332.43562,166.46767l2.30301,-5.02353l2.65343,4.82151l-1.52144,0.2153l0.55509,2.67309l-2.69644,0.18426l0.25353,-2.80838z" fill="#ffffff" stroke="#ffffff" stroke-width="1" stroke-linecap="round" stroke-linejoin="miter"/><path d="M317.22722,150.58746l5.42478,1.05421l-4.06035,3.715l-0.5678,-1.42784l-2.46697,1.16944l-0.81456,-2.57706l2.78902,-0.41547z" fill="#ffffff" stroke="#ffffff" stroke-width="1" stroke-linecap="round" stroke-linejoin="miter"/><g stroke-linejoin="miter"><path d="M326.41667,150.20858c0,-4.05009 3.28325,-7.33333 7.33333,-7.33333c4.05009,0 7.33333,3.28325 7.33333,7.33333c0,4.05009 -3.28325,7.33333 -7.33333,7.33333c-4.05009,0 -7.33333,-3.28325 -7.33333,-7.33333z" fill="#80b3ff" stroke="none" stroke-width="0" stroke-linecap="butt"/><g fill="none" stroke="#ffffff"><path d="M326.57174,150.24191c0,-3.96444 3.21382,-7.17826 7.17826,-7.17826c3.96444,0 7.17826,3.21382 7.17826,7.17826c0,3.96444 -3.21382,7.17826 -7.17826,7.17826c-3.96444,0 -7.17826,-3.21382 -7.17826,-7.17826z" stroke-width="1.5" stroke-linecap="butt"/><g stroke-width="1" stroke-linecap="round"><path d="M340.87305,150.24191h-14.24611"/><path d="M340.11339,146.83861h-12.72679"/><path d="M340.11339,153.64521h-12.72679" data-paper-data="{&quot;index&quot;:null}"/><path d="M333.75,157.11486v-13.82928" data-paper-data="{&quot;index&quot;:null}"/><path d="M336.2274,143.70243c0,0 1.6516,2.01336 1.6516,6.48846c0,4.4751 -1.6516,6.59051 -1.6516,6.59051" data-paper-data="{&quot;index&quot;:null}"/><path d="M331.2726,156.7814c0,0 -1.6516,-2.11541 -1.6516,-6.59051c0,-4.4751 1.6516,-6.48846 1.6516,-6.48846" data-paper-data="{&quot;index&quot;:null}"/></g></g></g><text transform="translate(149.1432,157.87566) scale(0.44693,0.44693)" font-size="40" xml:space="preserve" fill="#ffffff" fill-rule="nonzero" stroke="#ffffff" stroke-width="2" stroke-linecap="butt" stroke-linejoin="round" stroke-miterlimit="10" stroke-dasharray="" stroke-dashoffset="0" font-family="Malgun Gothic" font-weight="normal" text-anchor="start" style="mix-blend-mode: normal"><tspan x="0" dy="0">Teams</tspan></text><text transform="translate(151.04817,174.64176) scale(0.28303,0.28303)" font-size="40" xml:space="preserve" fill="#ffffff" fill-rule="nonzero" stroke="#ffffff" stroke-width="2" stroke-linecap="butt" stroke-linejoin="round" stroke-miterlimit="10" stroke-dasharray="" stroke-dashoffset="0" font-family="Malgun Gothic" font-weight="normal" text-anchor="start" style="mix-blend-mode: normal"><tspan x="0" dy="0">join teams and</tspan><tspan x="0" dy="48px">work together</tspan></text><text transform="translate(166.938,213.79157) scale(0.2501,0.2501)" font-size="40" xml:space="preserve" fill="#ffffff" fill-rule="nonzero" stroke="#ffffff" stroke-width="2" stroke-linecap="butt" stroke-linejoin="round" stroke-miterlimit="10" stroke-dasharray="" stroke-dashoffset="0" font-family="Malgun Gothic" font-weight="normal" text-anchor="start" style="mix-blend-mode: normal"><tspan x="0" dy="0">every team gives individual buff</tspan></text><g stroke-width="1"><g stroke-linejoin="round"><path d="M252.22569,146.70631c0,0 2.50391,0.6306 3.41047,2.48643c0.90655,1.85583 -0.10641,4.2773 -0.10641,4.2773l-3.24555,9.62311c0,0 -0.63931,2.52973 -2.50585,3.46805c-1.86654,0.93834 -4.21974,-0.08698 -4.21974,-0.08698l-5.1249,-1.72846c0,0 -2.54949,-0.63484 -3.48245,-2.5107c-0.93296,-1.87587 0.10641,-4.2773 0.10641,-4.2773l3.24555,-9.62311c0,0 0.63931,-2.52973 2.50585,-3.46805c1.86654,-0.93834 4.21974,0.08698 4.21974,0.08698z" data-paper-data="{&quot;index&quot;:null}" fill="#faad32" stroke="#c78418" stroke-linecap="butt"/><path d="M249.44976,145.77008l-6.66708,19.76791l-2.98623,-1.00717l6.62514,-19.78206z" data-paper-data="{&quot;index&quot;:null}" fill="#fa4b7f" stroke="#c72858" stroke-linecap="butt"/><path d="M238.80084,161.94835l-3.23836,-2.96275l5.43952,-3.5637" fill="#faad32" stroke="#c78418" stroke-linecap="round"/><path d="M253.16736,150.11016c0,0 1.24312,0.31309 1.69319,1.23445c0.45008,0.92136 -0.05283,2.12355 -0.05283,2.12355l-3.09924,9.18923c0,0 -0.31741,1.25594 -1.24408,1.72179c-0.92668,0.46586 -2.09496,-0.0432 -2.09496,-0.0432l-0.37932,-0.12792c0,0 -1.26575,-0.31518 -1.72895,-1.24649c-0.46318,-0.9313 0.05283,-2.12355 0.05283,-2.12355l3.09924,-9.18923c0,0 0.31741,-1.25594 1.24408,-1.72179c0.92668,-0.46586 2.09496,0.0432 2.09496,0.0432z" data-paper-data="{&quot;index&quot;:null}" fill="#ffffff" stroke="none" stroke-linecap="butt"/><path d="M241.90606,152.74137l-2.17011,-6.13018l4.37127,-0.39627" data-paper-data="{&quot;index&quot;:null}" fill="#faad32" stroke="#c78418" stroke-linecap="round"/><path d="M248.55289,159.47685c1.22564,0.41337 1.8714,1.77969 1.44237,3.05178c-0.42903,1.27208 -1.77041,1.96822 -2.99604,1.55485c-1.22564,-0.41337 -1.8714,-1.77969 -1.44237,-3.05178c0.42903,-1.27208 1.77041,-1.96822 2.99604,-1.55485z" fill="#262626" stroke="none" stroke-linecap="butt"/><path d="M247.20873,161.2147c0.48825,0.16468 0.74551,0.70899 0.5746,1.21575c-0.17091,0.50676 -0.70528,0.78409 -1.19354,0.61941c-0.48825,-0.16468 -0.74551,-0.70899 -0.5746,-1.21575c0.17091,-0.50676 0.70528,-0.78409 1.19354,-0.61941z" fill="#595959" stroke="none" stroke-linecap="butt"/><path d="M248.92807,151.03608c0.42903,-1.27208 1.77041,-1.96822 2.99604,-1.55485c1.22564,0.41337 1.8714,1.77971 1.44237,3.05178c-0.42903,1.27208 -1.77041,1.96822 -2.99604,1.55485c-1.22564,-0.41337 -1.8714,-1.77971 -1.44237,-3.05178z" data-paper-data="{&quot;index&quot;:null}" fill="#262626" stroke="none" stroke-linecap="butt"/><path d="M250.57992,151.21908c0.48825,0.16468 0.74551,0.70899 0.5746,1.21575c-0.17091,0.50676 -0.70528,0.78409 -1.19354,0.61941c-0.48825,-0.16468 -0.74551,-0.70899 -0.5746,-1.21575c0.17091,-0.50676 0.70528,-0.78409 1.19354,-0.61941z" data-paper-data="{&quot;index&quot;:null}" fill="#595959" stroke="none" stroke-linecap="butt"/></g><g stroke-linecap="butt"><path d="M261.14961,157.76321c0.65775,-1.95022 2.77191,-2.99797 4.72213,-2.34021c1.95022,0.65775 2.99797,2.77191 2.34021,4.72213c-0.65775,1.95022 -2.77191,2.99797 -4.72213,2.34021c-1.95022,-0.65775 -2.99797,-2.77191 -2.34021,-4.72213z" fill="#faad32" stroke="#c78418" stroke-linejoin="round"/><g><path d="M253.69981,160.81508c0.65775,-1.95022 2.77191,-2.99797 4.72213,-2.34021c1.95022,0.65775 2.99797,2.77191 2.34021,4.72213c-0.65775,1.95022 -2.77191,2.99797 -4.72213,2.34021c-1.95022,-0.65775 -2.99797,-2.77191 -2.34021,-4.72213z" fill="#faad32" stroke="#c78418" stroke-linejoin="round"/><path d="M263.54375,164.24066l-2.93503,-1.87734l-3.35451,-0.53367l-1.14258,-0.49153l1.26487,-3.75034l1.2471,0.31757l2.95232,1.59027l3.51649,0.31162l8.36357,3.40007l-1.14591,3.39763z" data-paper-data="{&quot;index&quot;:null}" fill="#637ea6" stroke="#335080" stroke-linejoin="round"/><path d="M262.17787,161.30212c0.57569,-1.70692 1.87684,-2.80921 2.9062,-2.46204c1.02936,0.34718 1.39714,2.01234 0.82145,3.71926c-0.57569,1.70692 -1.87684,2.80921 -2.9062,2.46204c-1.02936,-0.34718 -1.39714,-2.01234 -0.82145,-3.71926z" fill="#cce0ff" stroke="#85a1cc" stroke-linejoin="miter"/></g></g></g><g stroke-width="1" stroke-linejoin="round"><g><path d="M303.12938,194.27909c0,0 -2.66359,-0.12841 -3.95951,-1.82271c-1.29591,-1.6943 -0.76356,-4.35235 -0.76356,-4.35235l1.32577,-10.40426c0,0 0.13198,-2.6915 1.83064,-4.02178c1.69868,-1.33026 4.29008,-0.77151 4.29008,-0.77151l5.54091,0.70606c0,0 2.7106,0.12341 4.03733,1.83263c1.32672,1.70921 0.76356,4.35235 0.76356,4.35235l-1.32577,10.40426c0,0 -0.13198,2.6915 -1.83064,4.02178c-1.69868,1.33026 -4.29008,0.77151 -4.29008,0.77151z" data-paper-data="{&quot;index&quot;:null}" fill="#faad32" stroke="#c78418" stroke-linecap="butt"/><path d="M306.13066,194.66152l2.72341,-21.3726l3.22865,0.41141l-2.67805,21.37838z" data-paper-data="{&quot;index&quot;:null}" fill="#616ff2" stroke="#3947bf" stroke-linecap="butt"/><path d="M313.61679,176.11222l3.88229,2.34004l-4.78144,4.71621" fill="#faad32" stroke="#c78418" stroke-linecap="round"/><path d="M301.48258,191.02461c0,0 -1.32241,-0.06376 -1.96578,-0.90493c-0.64338,-0.84117 -0.37909,-2.16081 -0.37909,-2.16081l1.26599,-9.93518c0,0 0.06552,-1.33625 0.90886,-1.99669c0.84334,-0.66044 2.1299,-0.38304 2.1299,-0.38304l0.41011,0.05226c0,0 1.34574,0.06128 2.00443,0.90985c0.65868,0.84857 0.37909,2.16081 0.37909,2.16081l-1.26599,9.93518c0,0 -0.06552,1.33625 -0.90886,1.99669c-0.84334,0.66044 -2.1299,0.38304 -2.1299,0.38304z" data-paper-data="{&quot;index&quot;:null}" fill="#ffffff" stroke="none" stroke-linecap="butt"/><path d="M312.34835,186.06658l3.44592,5.76458l-4.34507,1.29166" data-paper-data="{&quot;index&quot;:null}" fill="#faad32" stroke="#c78418" stroke-linecap="round"/><path d="M304.24655,180.60109c-1.32512,-0.16885 -2.25728,-1.42068 -2.08202,-2.79602c0.17525,-1.37534 1.39154,-2.3534 2.71667,-2.18455c1.32512,0.16885 2.25728,1.42068 2.08204,2.79602c-0.17525,1.37534 -1.39156,2.3534 -2.71667,2.18455z" fill="#262626" stroke="none" stroke-linecap="butt"/><path d="M305.25349,178.56776c-0.52789,-0.06726 -0.89924,-0.56596 -0.82941,-1.11385c0.06981,-0.54789 0.55435,-0.93753 1.08224,-0.87027c0.52789,0.06726 0.89924,0.56596 0.82941,1.11385c-0.06981,0.54789 -0.55435,0.93753 -1.08224,0.87027z" fill="#595959" stroke="none" stroke-linecap="butt"/><path d="M305.58614,189.22357c-0.17526,1.37536 -1.39156,2.3534 -2.71667,2.18455c-1.32512,-0.16885 -2.25728,-1.42068 -2.08202,-2.79602c0.17526,-1.37536 1.39154,-2.3534 2.71667,-2.18455c1.32512,0.16885 2.25728,1.42068 2.08204,2.79602z" data-paper-data="{&quot;index&quot;:null}" fill="#262626" stroke="none" stroke-linecap="butt"/><path d="M303.8764,189.37477c-0.52789,-0.06726 -0.89924,-0.56596 -0.82941,-1.11385c0.06981,-0.54789 0.55435,-0.93753 1.08224,-0.87027c0.52789,0.06726 0.89924,0.56596 0.82941,1.11385c-0.06981,0.54789 -0.55435,0.93753 -1.08224,0.87027z" data-paper-data="{&quot;index&quot;:null}" fill="#595959" stroke="none" stroke-linecap="butt"/></g><g><path d="M293.2465,185.31211c-0.26868,2.10852 -2.19578,3.60001 -4.30432,3.33134c-2.10852,-0.26868 -3.60001,-2.19578 -3.33134,-4.30432c0.26868,-2.10852 2.19578,-3.60001 4.30432,-3.33134c2.10852,0.26868 3.60001,2.19578 3.33134,4.30432z" fill="#faad32" stroke="#c78418" stroke-linecap="butt"/><g><path d="M298.52315,180.35432c-0.26868,2.10852 -2.19578,3.60001 -4.30432,3.33134c-2.10852,-0.26868 -3.60001,-2.19578 -3.33134,-4.30432c0.26868,-2.10852 2.19578,-3.60001 4.30432,-3.33134c2.10852,0.26868 3.60001,2.19578 3.33134,4.30432z" fill="#faad32" stroke="#c78418" stroke-linecap="butt"/><path d="M295.38359,180.3472l-0.48837,3.83261l-13.13057,-1.67317l0.48837,-3.83261z" fill="#808080" stroke="#595959" stroke-linecap="butt"/><path d="M286.47628,181.16771l-2.83854,-0.36169" fill="none" stroke="#595959" stroke-linecap="round"/></g></g></g></g></g></svg>