<svg version="1.1" xmlns="http://www.w3.org/2000/svg" xmlns:xlink="http://www.w3.org/1999/xlink" width="30.05905" height="25.59757" viewBox="0,0,30.05905,25.59757"><g transform="translate(-224.96918,-168.24789)"><g data-paper-data="{&quot;isPaintingLayer&quot;:true}" fill-rule="nonzero" stroke-miterlimit="10" stroke-dasharray="" stroke-dashoffset="0" style="mix-blend-mode: normal"><path d="M254.26526,183.75141c0,0 0.27716,3.52034 -1.73152,5.50622c-2.00869,1.98587 -5.58934,1.73152 -5.58934,1.73152h-13.88874c0,0 -3.5576,0.27716 -5.58934,-1.73152c-2.03174,-2.00868 -1.73152,-5.50622 -1.73152,-5.50622v-7.39661c0,0 -0.29159,-3.58126 1.73152,-5.61011c2.02312,-2.02885 5.58934,-1.73152 5.58934,-1.73152h13.88874c0,0 3.5576,-0.27716 5.58934,1.73152c2.03174,2.00868 1.73152,5.50622 1.73152,5.50622z" data-paper-data="{&quot;index&quot;:null}" fill="#bf301d" stroke="#bf301d" stroke-width="1.5" stroke-linecap="butt" stroke-linejoin="round"/><g fill="#facdc8" stroke="none" stroke-width="0" stroke-linecap="butt" stroke-linejoin="miter"><path d="M245.65394,184.19382c1.27062,0 2.30066,0.53598 2.30066,1.19715c0,0.66117 -1.03004,3.02484 -2.30066,3.02484c-1.27062,0 -2.30066,-2.36367 -2.30066,-3.02484c0,-0.66117 1.03004,-1.19715 2.30066,-1.19715z" data-paper-data="{&quot;index&quot;:null}"/><path d="M236.64678,185.39096c0,0.66117 -1.03005,3.02484 -2.30067,3.02484c-1.27062,0 -2.30066,-2.36367 -2.30066,-3.02484c0,-0.66117 1.03004,-1.19715 2.30066,-1.19715c1.27062,0 2.30067,0.53598 2.30067,1.19715z" data-paper-data="{&quot;index&quot;:null}"/><path d="M240.36491,185.29044c0,0.66117 -1.03004,3.02484 -2.30066,3.02484c-1.27062,0 -2.30066,-2.36368 -2.30066,-3.02484c0,-0.66117 1.03004,-1.19714 2.30066,-1.19714c1.27062,0 2.30066,0.53597 2.30066,1.19714z" data-paper-data="{&quot;index&quot;:null}"/><path d="M241.9358,184.0933c1.27062,0 2.30067,0.53597 2.30067,1.19714c0,0.66117 -1.03005,3.02484 -2.30067,3.02484c-1.27062,0 -2.30066,-2.36368 -2.30066,-3.02484c0,-0.66117 1.03004,-1.19714 2.30066,-1.19714z" data-paper-data="{&quot;index&quot;:null}"/></g><path d="M232.41296,193.84546c-1.35981,0 -4.18569,-6.06034 -4.18569,-7.2562c0,-1.19585 1.10235,-5.47108 2.46216,-5.47108c1.35981,0 2.46217,4.27522 2.46217,5.47108c0,1.19585 0.62116,7.2562 -0.73865,7.2562z" data-paper-data="{&quot;index&quot;:null}" fill="#ffffff" stroke="none" stroke-width="0" stroke-linecap="butt" stroke-linejoin="miter"/><path d="M246.84844,186.58926c0,-1.19585 1.10235,-5.47108 2.46217,-5.47108c1.35981,0 2.46216,4.27522 2.46216,5.47108c0,1.19585 -2.82587,7.2562 -4.18569,7.2562c-1.35981,0 -0.73865,-6.06034 -0.73865,-7.2562z" data-paper-data="{&quot;index&quot;:null}" fill="#ffffff" stroke="none" stroke-width="0" stroke-linecap="butt" stroke-linejoin="miter"/><path d="M254.26526,183.75141c0,0 0.27716,3.52034 -1.73152,5.50622c-0.21009,0.20771 -2.95406,-3.45515 -5.58934,-3.99576c-2.63528,-0.5406 -11.25644,-0.53999 -13.88874,0c-2.63229,0.53999 -5.4269,4.15635 -5.58934,3.99576c-2.03174,-2.00868 -1.73152,-5.50622 -1.73152,-5.50622v-7.39661c0,0 -0.29159,-3.58126 1.73152,-5.61011c2.02312,-2.02885 5.58934,-1.73152 5.58934,-1.73152h13.88874c0,0 3.5576,-0.27716 5.58934,1.73152c2.03174,2.00868 1.73152,5.50622 1.73152,5.50622z" data-paper-data="{&quot;index&quot;:null}" fill="#f25c49" stroke="#bf301d" stroke-width="1.5" stroke-linecap="butt" stroke-linejoin="round"/><g data-paper-data="{&quot;index&quot;:null}" fill="#ffffff" stroke="none" stroke-width="0" stroke-linecap="round" stroke-linejoin="miter"><path d="M240.09091,182.4394l-4.72727,-0.81818l-0.90909,-1.45455l4.09091,0.54545l-3.45455,-3.36364l-4.72727,0.72727l0.81818,-1.18182l5.18182,-1.27273l3.72727,4.72727z"/><path d="M239.90909,180.34849l3.72727,-4.72727l5.18182,1.27273l0.81818,1.18182l-4.72727,-0.72727l-3.45455,3.36364l4.09091,-0.54545l-0.90909,1.45455l-4.72727,0.81818z" data-paper-data="{&quot;index&quot;:null}"/></g><path d="M234.74749,182.7552c0,1.76892 -1.48834,3.20291 -3.32431,3.20291c-1.83596,0 -3.32431,-1.43399 -3.32431,-3.20291c0,-1.76892 1.48834,-3.20292 3.32431,-3.20292c1.83596,0 3.32431,1.434 3.32431,3.20292z" fill="#262626" stroke="none" stroke-width="0" stroke-linecap="butt" stroke-linejoin="round"/><path d="M248.57685,179.55229c1.83597,0 3.32431,1.434 3.32431,3.20292c0,1.76892 -1.48835,3.20291 -3.32431,3.20291c-1.83597,0 -3.32431,-1.43399 -3.32431,-3.20291c0,-1.76892 1.48835,-3.20292 3.32431,-3.20292z" data-paper-data="{&quot;index&quot;:null}" fill="#262626" stroke="none" stroke-width="0" stroke-linecap="butt" stroke-linejoin="round"/><path d="M239.17347,175.07576l0.82653,-1.73563l0.82653,1.73563l-0.82653,1.73563z" fill="#ffffff" stroke="none" stroke-width="0" stroke-linecap="butt" stroke-linejoin="miter"/></g></g></svg>