<svg version="1.1" xmlns="http://www.w3.org/2000/svg" xmlns:xlink="http://www.w3.org/1999/xlink" width="49.73723" height="33.42922" viewBox="0,0,49.73723,33.42922"><g transform="translate(-211.65524,-163.28545)"><g data-paper-data="{&quot;isPaintingLayer&quot;:true}" fill-rule="nonzero" stroke-miterlimit="10" stroke-dasharray="" stroke-dashoffset="0" style="mix-blend-mode: normal"><path d="M211.65524,180.00006c0,-9.23121 11.13405,-16.71461 24.86861,-16.71461c13.73454,0 24.86862,7.48337 24.86862,16.71461c0,9.23121 -11.13405,16.71461 -24.86862,16.71461c-13.73454,0 -24.86861,-7.48337 -24.86861,-16.71461z" fill="none" stroke="none" stroke-width="0" stroke-linecap="butt" stroke-linejoin="round"/><path d="M227.1107,183.0743c0,-2.81469 2.28176,-5.09645 5.09645,-5.09645c2.81469,0 5.09645,2.28176 5.09645,5.09645c0,2.81469 -2.28176,5.09645 -5.09645,5.09645c-2.81469,0 -5.09645,-2.28176 -5.09645,-5.09645z" fill="#faad32" stroke="#c78418" stroke-width="1.5" stroke-linecap="butt" stroke-linejoin="round"/><path d="M230.63377,182.7898v-5.59432l1.77253,-0.44717l1.62676,1.33495l4.73779,-1.15509l13.70048,0.59438v4.94015l-13.64335,0.59811l-4.80029,-1.15859l-1.61906,1.3364z" data-paper-data="{&quot;index&quot;:null}" fill="#e673aa" stroke="#bf437f" stroke-width="1.5" stroke-linecap="butt" stroke-linejoin="round"/><path d="M244.61509,176.6636v6.67281" fill="none" stroke="#bf437f" stroke-width="1.5" stroke-linecap="round" stroke-linejoin="miter"/><path d="M248.4648,176.89369v6.21261" fill="none" stroke="#bf437f" stroke-width="1.5" stroke-linecap="round" stroke-linejoin="miter"/><path d="M235.2475,180h-4.363" fill="none" stroke="#bf437f" stroke-width="1.5" stroke-linecap="round" stroke-linejoin="miter"/><path d="M234.6621,180c0,-2.78932 2.52858,-3.74715 4.97092,-3.74715c2.44234,0 4.97092,0.95783 4.97092,3.74715c0,2.78932 -2.52858,3.74715 -4.97092,3.74715c-2.44234,0 -4.97092,-0.95783 -4.97092,-3.74715z" fill="#ace6c2" stroke="#6bb386" stroke-width="1.5" stroke-linecap="butt" stroke-linejoin="miter"/></g></g></svg>