<svg version="1.1" xmlns="http://www.w3.org/2000/svg" xmlns:xlink="http://www.w3.org/1999/xlink" width="105.61904" height="105.61904" viewBox="0,0,105.61904,105.61904"><g transform="translate(-187.1905,-127.19049)"><g data-paper-data="{&quot;isPaintingLayer&quot;:true}" fill-rule="nonzero" stroke-linecap="butt" stroke-miterlimit="10" stroke-dasharray="" stroke-dashoffset="0" style="mix-blend-mode: normal"><path d="M187.19051,180.00002c0,-29.16592 23.64362,-52.80952 52.80952,-52.80952c29.16592,0 52.80952,23.64361 52.80952,52.80952c0,29.16592 -23.64361,52.80952 -52.80952,52.80952c-29.16592,0 -52.80952,-23.64361 -52.80952,-52.80952z" fill="none" stroke="none" stroke-width="0" stroke-linejoin="miter"/><path d="M227.1107,183.07429c0,-2.81469 2.28176,-5.09645 5.09645,-5.09645c2.81469,0 5.09645,2.28176 5.09645,5.09645c0,2.81469 -2.28176,5.09645 -5.09645,5.09645c-2.81469,0 -5.09645,-2.28176 -5.09645,-5.09645z" fill="#faad32" stroke="#c78418" stroke-width="1.5" stroke-linejoin="round"/><path d="M230.46466,183.08712v-6.1913l1.84331,-0.44426l1.42482,1.32517l12.24906,-0.4761l4.10417,-0.31563l3.08821,0.14134v5.7302l-3.02879,0.14567l-4.16357,-0.31996l-12.25466,-0.47582l-1.41682,1.32686z" data-paper-data="{&quot;index&quot;:null}" fill="#637ea6" stroke="#335080" stroke-width="1.5" stroke-linejoin="round"/><path d="M234.77021,182.41413v-4.84486l5.95155,-0.73038l4.67469,0.31651v5.67256l-4.64128,0.33324z" data-paper-data="{&quot;index&quot;:null}" fill="#cce0ff" stroke="#85a1cc" stroke-width="1.5" stroke-linejoin="round"/></g></g></svg>