<svg version="1.1" xmlns="http://www.w3.org/2000/svg" xmlns:xlink="http://www.w3.org/1999/xlink" width="49.73723" height="33.42922" viewBox="0,0,49.73723,33.42922"><g transform="translate(-211.65524,-163.28545)"><g data-paper-data="{&quot;isPaintingLayer&quot;:true}" fill-rule="nonzero" stroke-miterlimit="10" stroke-dasharray="" stroke-dashoffset="0" style="mix-blend-mode: normal"><path d="M227.1107,183.07429c0,-2.81469 2.28176,-5.09645 5.09645,-5.09645c2.81469,0 5.09645,2.28176 5.09645,5.09645c0,2.81469 -2.28176,5.09645 -5.09645,5.09645c-2.81469,0 -5.09645,-2.28176 -5.09645,-5.09645z" fill="#faad32" stroke="#c78418" stroke-width="1.5" stroke-linecap="butt" stroke-linejoin="round"/><path d="M211.65524,180.00006c0,-9.23121 11.13405,-16.71461 24.86861,-16.71461c13.73454,0 24.86862,7.48337 24.86862,16.71461c0,9.23121 -11.13405,16.71461 -24.86862,16.71461c-13.73454,0 -24.86861,-7.48337 -24.86861,-16.71461z" fill="none" stroke="none" stroke-width="0" stroke-linecap="butt" stroke-linejoin="round"/><path d="M232.23756,180.10017c0,-4.07964 3.3072,-7.38684 7.38684,-7.38684c4.07964,0 7.38684,3.3072 7.38684,7.38684c0,4.07964 -3.3072,7.38684 -7.38684,7.38684c-4.07964,0 -7.38684,-3.3072 -7.38684,-7.38684z" fill="#262626" stroke="none" stroke-width="0" stroke-linecap="butt" stroke-linejoin="miter"/><path d="M245.57144,174.27834c0,0 1.81757,-3.43202 2.87962,-3.75602c1.24758,-0.38061 3.88122,1.00161 3.88122,1.00161" fill="none" stroke="#ffffff" stroke-width="1.5" stroke-linecap="round" stroke-linejoin="miter"/><path d="M241.78428,173.72752l1.85914,-1.85914l4.33798,4.33798l-1.85914,1.85914z" fill="#262626" stroke="none" stroke-width="0" stroke-linecap="butt" stroke-linejoin="miter"/></g></g></svg>