<svg version="1.1" xmlns="http://www.w3.org/2000/svg" xmlns:xlink="http://www.w3.org/1999/xlink" width="105.61904" height="105.61904" viewBox="0,0,105.61904,105.61904"><g transform="translate(-187.1905,-127.19049)"><g data-paper-data="{&quot;isPaintingLayer&quot;:true}" fill-rule="nonzero" stroke-miterlimit="10" stroke-dasharray="" stroke-dashoffset="0" style="mix-blend-mode: normal"><path d="M187.19051,180.00002c0,-29.16592 23.64362,-52.80952 52.80952,-52.80952c29.16592,0 52.80952,23.64361 52.80952,52.80952c0,29.16592 -23.64361,52.80952 -52.80952,52.80952c-29.16592,0 -52.80952,-23.64361 -52.80952,-52.80952z" fill="none" stroke="none" stroke-width="0" stroke-linecap="butt" stroke-linejoin="miter"/><path d="M231.23595,190.14954l0.66738,-8.11939h5.265l-0.66738,8.11939z" fill="#ffcc4d" stroke="#cc9e29" stroke-width="1.5" stroke-linecap="butt" stroke-linejoin="round"/><path d="M227.1107,183.07429c0,-2.81469 2.28176,-5.09645 5.09645,-5.09645c2.81469,0 5.09645,2.28176 5.09645,5.09645c0,2.81469 -2.28176,5.09645 -5.09645,5.09645c-2.81469,0 -5.09645,-2.28176 -5.09645,-5.09645z" fill="#faad32" stroke="#c78418" stroke-width="1.5" stroke-linecap="butt" stroke-linejoin="round"/><path d="M231.23595,182.5581v-4.56023h18.30644v4.56023z" fill="#33302a" stroke="#cc9e29" stroke-width="3" stroke-linecap="butt" stroke-linejoin="round"/><path d="M231.23595,182.5581v-4.56023h18.30644v4.56023z" fill="#33302a" stroke="#ffcc4d" stroke-width="1" stroke-linecap="butt" stroke-linejoin="round"/><path d="M243.66092,179.33864h3.95745" fill="none" stroke="#cc9e29" stroke-width="1" stroke-linecap="round" stroke-linejoin="round"/><path d="M245.1052,180.85834c0,0 -2.10633,0.08925 -3.26767,-0.16222c-0.99907,-0.21634 -1.91251,-0.9502 -3.02906,-0.94659c-1.11655,0.00361 -1.48325,0.93514 -2.64962,0.96442c-1.16637,0.02928 -2.59879,-0.92104 -2.59879,-0.92104" data-paper-data="{&quot;index&quot;:null}" fill="none" stroke="#ffcc4d" stroke-width="1" stroke-linecap="round" stroke-linejoin="miter"/></g></g></svg>