<svg version="1.1" xmlns="http://www.w3.org/2000/svg" xmlns:xlink="http://www.w3.org/1999/xlink" width="130.8" height="127.6" viewBox="0,0,130.8,127.6"><g transform="translate(-174.6,-116.2)"><g data-paper-data="{&quot;isPaintingLayer&quot;:true}" fill-rule="nonzero" stroke-miterlimit="10" stroke-dasharray="" stroke-dashoffset="0" style="mix-blend-mode: normal"><path d="M174.6,243.8v-127.6h130.8v127.6z" fill="none" stroke="none" stroke-width="0" stroke-linecap="butt" stroke-linejoin="miter"/><path d="M274.00572,135.96885c0,0 3.55619,-0.27998 5.56229,1.74915c2.00609,2.02913 1.74915,5.64625 1.74915,5.64625v73.27151c0,0 0.27998,3.59382 -1.74915,5.64625c-2.02913,2.05243 -5.56229,1.74915 -5.56229,1.74915h-67.90416c0,0 -3.61774,0.29456 -5.66724,-1.74915c-2.04951,-2.04371 -1.74915,-5.64625 -1.74915,-5.64625v-73.27151c0,0 -0.27998,-3.59382 1.74915,-5.64625c2.02913,-2.05243 5.56229,-1.74915 5.56229,-1.74915z" data-paper-data="{&quot;index&quot;:null}" fill="#b3a88f" stroke="#b3a88f" stroke-width="6" stroke-linecap="butt" stroke-linejoin="miter"/><path d="M274.00572,135.96885c0,0 3.55619,-0.27998 5.56229,1.74915c2.00609,2.02913 1.74915,5.64625 1.74915,5.64625v73.27151c0,0 0.27998,3.59382 -1.74915,5.64625c-2.02913,2.05243 -5.56229,1.74915 -5.56229,1.74915h-67.90416c0,0 -3.61774,0.29456 -5.66724,-1.74915c-2.04951,-2.04371 -1.74915,-5.64625 -1.74915,-5.64625v-73.27151c0,0 -0.27998,-3.59382 1.74915,-5.64625c2.02913,-2.05243 5.56229,-1.74915 5.56229,-1.74915z" data-paper-data="{&quot;index&quot;:null}" fill="#b3a88f" stroke="#807459" stroke-width="2" stroke-linecap="butt" stroke-linejoin="miter"/><text transform="translate(205.17247,216.55252) scale(0.30861,0.30861)" font-size="40" xml:space="preserve" fill="#ffffff" fill-rule="nonzero" stroke="#ffffff" stroke-width="2" stroke-linecap="butt" stroke-linejoin="round" stroke-miterlimit="10" stroke-dasharray="" stroke-dashoffset="0" font-family="Malgun Gothic" font-weight="normal" text-anchor="start" style="mix-blend-mode: normal"><tspan x="0" dy="0">CHAOS :0 ☁</tspan></text><g><path d="M268.85883,142.63313c0,0 3.01795,-0.2376 4.72042,1.48441c1.70246,1.72201 1.48441,4.79167 1.48441,4.79167v44.84826c0,0 0.2376,3.04988 -1.48441,4.79167c-1.72201,1.74179 -4.72042,1.48441 -4.72042,1.48441h-57.62661c0,0 -3.07018,0.24998 -4.80948,-1.48441c-1.73931,-1.73439 -1.48441,-4.79167 -1.48441,-4.79167v-44.84826c0,0 -0.2376,-3.04988 1.48441,-4.79167c1.72201,-1.74179 4.72042,-1.48441 4.72042,-1.48441z" data-paper-data="{&quot;index&quot;:null}" fill="#b9c3fa" stroke="#807459" stroke-width="2" stroke-linecap="butt" stroke-linejoin="miter"/><g data-paper-data="{&quot;index&quot;:null}" fill="#a4afeb" stroke="none" stroke-width="0" stroke-linecap="butt" stroke-linejoin="miter"><path d="M217.54521,180.57681v-18.11084h18.11084v18.11084z"/><path d="M217.54521,161.02733v-18.11084h18.11084v18.11084z"/><path d="M205.60904,180.57681v-18.11084h10.49752v18.11084z"/><path d="M205.60903,161.02733c0,0 0,-11.35842 0,-14.5663c0,-1.58243 2.42994,-3.54454 3.89977,-3.54454c1.91181,0 6.59776,0 6.59776,0v18.11084z"/><path d="M217.54521,200.1263v-18.11084h18.11084v18.11084z"/><path d="M208.88379,200.1263c-1.30467,0 -3.27475,-2.03961 -3.27475,-3.66424c0,-3.22584 0,-14.4466 0,-14.4466h10.49752v18.11084c0,0 -5.28517,0 -7.22277,0z"/><path d="M256.64417,180.57681v-18.11084h18.11084v18.11084z"/><path d="M256.64417,161.02733v-18.11084c0,0 13.14544,0 15.99093,0c1.03605,0 2.11991,0.82546 2.11991,1.6695c0,2.64873 0,16.44134 0,16.44134z"/><path d="M237.09469,180.57681v-18.11084h18.11084v18.11084z"/><path d="M237.09469,161.02733v-18.11084h18.11084v18.11084z"/><path d="M270.76006,200.1263c-3.26786,0 -14.11589,0 -14.11589,0v-18.11084h18.11084c0,0 0,10.18994 0,13.50908c0,1.9372 -2.25649,4.60176 -3.99495,4.60176z"/><path d="M237.09469,200.1263v-18.11084h18.11084v18.11084z"/></g><g stroke-linejoin="miter"><path d="M265.41584,189.32848v-20.07318" fill="none" stroke="#dae4f2" stroke-width="17.5" stroke-linecap="round"/><path d="M268.68941,199.63797c-3.22847,0 -11.94045,0 -11.94045,0v-20.58698h17.49893c0,0 0,12.57525 0,16.26371c0,1.9017 -3.35574,4.32327 -5.55848,4.32327z" fill="#dae4f2" stroke="none" stroke-width="0" stroke-linecap="butt"/></g><g stroke="none" stroke-linecap="butt" stroke-linejoin="miter"><path d="M260.43788,176.71866c0.67414,-1.50136 0.88607,-4.76835 -3.43839,-6.47227c-9.93165,-3.91325 -24.06116,-9.16665 -24.53081,-8.12071c-0.48662,1.08373 13.82464,8.63403 23.38454,13.45132c3.68403,1.8564 3.91052,2.64302 4.58466,1.14166z" fill="#ff9466" stroke-width="0"/><path d="M234.16373,188.03655c-0.67414,-1.50136 0.39932,-3.44585 4.54812,-5.30875c2.01983,-0.90694 9.88707,-4.09286 17.50719,-6.95052c4.30796,-1.61555 4.34118,-2.64663 4.39411,-1.56549c0.04576,0.93457 0.68757,3.73811 -2.87122,5.61218c-7.12762,3.75342 -14.59121,7.44377 -16.58881,8.34073c-4.1488,1.8629 -6.31526,1.3732 -6.9894,-0.12816z" data-paper-data="{&quot;index&quot;:null}" fill="#ff9466" stroke-width="0"/><g data-paper-data="{&quot;index&quot;:null}"><path d="M239.04083,188.01898c-0.17097,-0.52838 0.83267,-1.32632 2.24168,-1.78223c1.40902,-0.45592 2.68985,-0.39718 2.86082,0.1312c0.17097,0.52838 -0.83267,1.32632 -2.24168,1.78223c-1.40902,0.45592 -2.68985,0.39718 -2.86082,-0.1312z" fill="#4d4d4d" stroke-width="0"/><path d="M239.33219,182.42781c1.27692,-0.75012 2.5401,-0.97003 2.82139,-0.49119c0.28129,0.47884 -0.52582,1.47511 -1.80273,2.22523c-1.27692,0.75012 -2.5401,0.97003 -2.82139,0.49119c-0.28129,-0.47884 0.52582,-1.47511 1.80273,-2.22523z" data-paper-data="{&quot;index&quot;:null}" fill="#4d4d4d" stroke-width="0"/><path d="M231.74759,189.27151c-0.54028,-1.20323 1.63433,-3.35175 3.91414,-4.37543c1.22771,-0.55127 3.32183,-1.15167 5.07754,-1.40051c1.50458,-0.21325 2.40531,1.97403 1.18549,2.98917c-1.34045,1.11553 -3.11291,2.23268 -4.30652,2.76864c-2.27981,1.02368 -5.33038,1.22137 -5.87066,0.01814z" fill="#e65c5c" stroke-width="none"/><path d="M234.67775,187.95581c-0.22038,-0.49079 0.66195,-1.36506 1.97073,-1.95273c1.30878,-0.58767 2.54841,-0.6662 2.76878,-0.17541c0.22038,0.49079 -0.66195,1.36506 -1.97073,1.95273c-1.30878,0.58767 -2.54841,0.6662 -2.76878,0.17541z" fill="#4d4d4d" stroke-width="0"/></g></g><g stroke="none" stroke-linecap="butt" stroke-linejoin="miter"><path d="M210.05543,181.46376c-0.28351,-1.62116 1.23589,-3.24128 5.71575,-4.02473c2.181,-0.38142 21.8541,-1.98024 22.0643,-1.09003c0.25234,1.06868 -18.88062,6.58357 -21.03762,6.96079c-4.47986,0.78344 -6.45892,-0.22486 -6.74243,-1.84603z" data-paper-data="{&quot;index&quot;:null}" fill="#ff9466" stroke-width="0"/><g data-paper-data="{&quot;index&quot;:null}"><path d="M214.78657,182.64818c-0.03554,-0.55422 1.13374,-1.08032 2.61165,-1.17508c1.47791,-0.09476 2.7048,0.2777 2.74033,0.83191c0.03554,0.55422 -1.13374,1.08032 -2.61165,1.17508c-1.47791,0.09476 -2.7048,-0.2777 -2.74033,-0.83191z" fill="#4d4d4d" stroke-width="0"/><path d="M216.44631,177.3011c1.42235,-0.41244 2.70078,-0.31439 2.85544,0.21899c0.15466,0.53338 -0.873,1.30012 -2.29535,1.71256c-1.42235,0.41244 -2.70078,0.31439 -2.85544,-0.21899c-0.15466,-0.53338 0.873,-1.30012 2.29535,-1.71256z" data-paper-data="{&quot;index&quot;:null}" fill="#4d4d4d" stroke-width="0"/><path d="M207.40953,182.06545c-0.22721,-1.29925 2.40966,-2.84585 4.87139,-3.27636c1.32568,-0.23184 3.50316,-0.29786 5.26607,-0.10652c1.51075,0.16397 1.84489,2.50573 0.41258,3.18909c-1.57395,0.75094 -3.56699,1.39702 -4.85585,1.62242c-2.46173,0.43051 -5.46699,-0.12939 -5.6942,-1.42863z" fill="#e65c5c" stroke-width="none"/><path d="M210.57351,181.51213c-0.09268,-0.52996 0.97783,-1.15992 2.39104,-1.40707c1.41322,-0.24714 2.63399,-0.01788 2.72667,0.51208c0.09268,0.52996 -0.97783,1.15992 -2.39104,1.40707c-1.41322,0.24714 -2.63399,0.01788 -2.72667,-0.51208z" fill="#4d4d4d" stroke-width="0"/></g></g><g stroke="none" stroke-linecap="butt" stroke-linejoin="miter"><path d="M263.71484,147.29438c0.28351,1.62116 -1.23589,3.24128 -5.71575,4.02473c-2.181,0.38142 -21.8541,1.98024 -22.0643,1.09003c-0.25234,-1.06868 18.88062,-6.58357 21.03762,-6.96079c4.47986,-0.78344 6.45892,0.22486 6.74243,1.84603z" data-paper-data="{&quot;index&quot;:null}" fill="#ff9466" stroke-width="0"/><g data-paper-data="{&quot;index&quot;:null}"><path d="M258.9837,146.10995c0.03554,0.55422 -1.13374,1.08032 -2.61165,1.17508c-1.47791,0.09476 -2.7048,-0.2777 -2.74033,-0.83191c-0.03554,-0.55422 1.13374,-1.08032 2.61165,-1.17508c1.47791,-0.09476 2.7048,0.2777 2.74033,0.83191z" fill="#4d4d4d" stroke-width="0"/><path d="M257.32396,151.45704c-1.42235,0.41244 -2.70078,0.31439 -2.85544,-0.21899c-0.15466,-0.53338 0.873,-1.30012 2.29535,-1.71256c1.42235,-0.41244 2.70078,-0.31439 2.85544,0.21899c0.15466,0.53338 -0.873,1.30012 -2.29535,1.71256z" data-paper-data="{&quot;index&quot;:null}" fill="#4d4d4d" stroke-width="0"/><path d="M266.36074,146.69269c0.22721,1.29925 -2.40966,2.84585 -4.87139,3.27636c-1.32568,0.23184 -3.50316,0.29786 -5.26607,0.10652c-1.51075,-0.16397 -1.84489,-2.50573 -0.41258,-3.18909c1.57395,-0.75094 3.56699,-1.39702 4.85585,-1.62242c2.46173,-0.43051 5.46699,0.12939 5.6942,1.42863z" fill="#e65c5c" stroke-width="none"/><path d="M263.19677,147.24601c0.09268,0.52996 -0.97783,1.15992 -2.39104,1.40707c-1.41322,0.24714 -2.63399,0.01788 -2.72667,-0.51208c-0.09268,-0.52996 0.97783,-1.15992 2.39104,-1.40707c1.41322,-0.24714 2.63399,-0.01788 2.72667,0.51208z" fill="#4d4d4d" stroke-width="0"/></g></g><g><g stroke-width="0.6" stroke-linejoin="round"><path d="M226.3527,150.22155c0,0 1.76759,0.69159 2.25694,2.12884c0.48934,1.43724 -0.47346,3.10935 -0.47346,3.10935l-3.25739,6.71719c0,0 -0.70033,1.78561 -2.14833,2.29715c-1.448,0.51153 -3.06914,-0.45396 -3.06914,-0.45396l-3.57731,-1.73476c0,0 -1.80044,-0.6989 -2.30719,-2.1532c-0.50675,-1.45431 0.47346,-3.10935 0.47346,-3.10935l3.25739,-6.71719c0,0 0.70033,-1.78561 2.14833,-2.29715c1.448,-0.51153 3.06914,0.45396 3.06914,0.45396z" data-paper-data="{&quot;index&quot;:null}" fill="#faad32" stroke="#c78418" stroke-linecap="butt"/><path d="M226.72439,152.79092c0,0 0.87756,0.34336 1.12051,1.0569c0.24295,0.71355 -0.23506,1.5437 -0.23506,1.5437l-3.11053,6.41435c0,0 -0.3477,0.8865 -1.06658,1.14046c-0.71889,0.25396 -1.52375,-0.22538 -1.52375,-0.22538l-0.26477,-0.1284c0,0 -0.89387,-0.34699 -1.14546,-1.06901c-0.25158,-0.72201 0.23506,-1.5437 0.23506,-1.5437l3.11053,-6.41435c0,0 0.3477,-0.8865 1.06658,-1.14046c0.71889,-0.25396 1.52375,0.22538 1.52375,0.22538z" data-paper-data="{&quot;index&quot;:null}" fill="#ffffff" stroke="none" stroke-linecap="butt"/><path d="M225.68116,149.44714l-0.39669,1.92755l-2.07923,0.03688l-4.57866,9.42301l1.24652,1.6189l-1.23568,1.51886l-2.5534,-1.68699c0,0 -1.80044,-0.6989 -2.30719,-2.1532c-0.50675,-1.45431 0.47346,-3.10935 0.47346,-3.10935l3.25739,-6.71719c0,0 0.70033,-1.78561 2.14833,-2.29715c1.448,-0.51153 3.06914,0.45396 3.06914,0.45396z" data-paper-data="{&quot;index&quot;:null}" fill="#00b3b3" stroke="#008080" stroke-linecap="butt"/><path d="M218.26867,153.66752c0,0 -1.28068,-4.12373 -1.01519,-4.67121c0.2323,-0.47904 3.22437,0.11557 3.22437,0.11557" data-paper-data="{&quot;index&quot;:null}" fill="#00b3b3" stroke="#008080" stroke-linecap="round"/><path d="M215.15215,160.09423c0,0 -2.31966,-1.98122 -2.08735,-2.46026c0.2655,-0.54748 4.29654,-2.09538 4.29654,-2.09538" data-paper-data="{&quot;index&quot;:null}" fill="#00b3b3" stroke="#008080" stroke-linecap="round"/><path d="M222.49247,159.19444c0.85553,0.41487 1.2,1.47103 0.7694,2.35898c-0.4306,0.88795 -1.4732,1.27146 -2.32874,0.85659c-0.85553,-0.41487 -1.2,-1.47103 -0.7694,-2.35898c0.4306,-0.88795 1.47321,-1.27146 2.32874,-0.85659z" fill="#262626" stroke="none" stroke-linecap="butt"/><path d="M221.35142,160.33735c0.34082,0.16527 0.47805,0.58601 0.30651,0.93975c-0.17154,0.35373 -0.58688,0.50651 -0.92771,0.34124c-0.34082,-0.16527 -0.47805,-0.58601 -0.30651,-0.93975c0.17154,-0.35373 0.58688,-0.50651 0.92771,-0.34124z" fill="#595959" stroke="none" stroke-linecap="butt"/><path d="M223.54724,153.0738c0.4306,-0.88795 1.47321,-1.27146 2.32874,-0.85659c0.85553,0.41487 1.2,1.47103 0.7694,2.35898c-0.4306,0.88795 -1.4732,1.27146 -2.32874,0.85659c-0.85553,-0.41487 -1.2,-1.47103 -0.7694,-2.35898z" data-paper-data="{&quot;index&quot;:null}" fill="#262626" stroke="none" stroke-linecap="butt"/><path d="M224.73489,153.36014c0.34082,0.16527 0.47805,0.58601 0.30651,0.93975c-0.17154,0.35373 -0.58688,0.50651 -0.92771,0.34124c-0.34082,-0.16527 -0.47805,-0.58601 -0.30651,-0.93975c0.17154,-0.35373 0.58688,-0.50651 0.92771,-0.34124z" data-paper-data="{&quot;index&quot;:null}" fill="#595959" stroke="none" stroke-linecap="butt"/></g><g><path d="M234.76884,159.2701c0.66014,-1.3613 2.29885,-1.92971 3.66015,-1.26956c1.3613,0.66014 1.92971,2.29885 1.26956,3.66015c-0.66014,1.3613 -2.29885,1.92971 -3.66015,1.26956c-1.3613,-0.66014 -1.92971,-2.29885 -1.26956,-3.66015z" fill="#faad32" stroke="#c78418" stroke-width="0.6" stroke-linecap="butt" stroke-linejoin="round"/><g><path d="M227.16205,161.40574c0.66014,-1.3613 2.29885,-1.92971 3.66015,-1.26956c1.3613,0.66014 1.92971,2.29885 1.26956,3.66015c-0.66014,1.3613 -2.29885,1.92971 -3.66015,1.26956c-1.3613,-0.66014 -1.92971,-2.29885 -1.26956,-3.66015z" fill="#faad32" stroke="#c78418" stroke-width="0.6" stroke-linecap="butt" stroke-linejoin="round"/><g fill="none" stroke="#595959" stroke-width="0.6" stroke-linecap="round" stroke-linejoin="miter"><path d="M239.61266,163.17622l0.4111,-0.84773"/><path d="M237.29291,167.95986l0.4111,-0.84773"/></g><g fill="none" stroke="#595959" stroke-width="0.6" stroke-linecap="round" stroke-linejoin="miter"><path d="M233.66574,159.24527l-0.4111,0.84773"/><path d="M230.9349,164.87664l0.4111,-0.84773"/></g><path d="M242.1401,166.83259c-0.34867,0.719 -1.67477,0.79586 -2.96193,0.17168c-1.28716,-0.62419 -2.04796,-1.71307 -1.69929,-2.43206c0.34867,-0.719 1.67477,-0.79586 2.96193,-0.17168c1.28716,0.62419 2.04796,1.71307 1.69929,2.43206z" fill="#cc5252" stroke="#992e2e" stroke-width="0.6" stroke-linecap="butt" stroke-linejoin="miter"/><path d="M228.3405,162.19123l1.61415,-3.3286l1.1566,0.30549l4.61006,2.60795l4.6391,1.89522l0.80817,0.4736l-1.73644,3.58079l-0.84486,-0.3255l-4.38824,-2.48496l-5.03301,-2.05794z" fill="#808080" stroke="#595959" stroke-width="0.6" stroke-linecap="butt" stroke-linejoin="round"/><path d="M232.13554,161.98105c-0.34867,0.719 -1.1785,1.03653 -1.85347,0.70921c-0.67497,-0.32732 -0.9395,-1.17553 -0.59083,-1.89454c0.34867,-0.719 1.1785,-1.03653 1.85347,-0.70921c0.67497,0.32732 0.9395,1.17553 0.59083,1.89454z" fill="#4d4d4d" stroke="#595959" stroke-width="0.4" stroke-linecap="butt" stroke-linejoin="miter"/><path d="M238.61466,165.12299c-0.15406,0.3177 -1.42255,0.02068 -2.83325,-0.66341c-1.41071,-0.68409 -2.42941,-1.49622 -2.27535,-1.81391c0.15406,-0.3177 1.42255,-0.02068 2.83326,0.66342c1.41071,0.68409 2.4294,1.49621 2.27534,1.81391z" fill="#cc5252" stroke="none" stroke-width="0.6" stroke-linecap="butt" stroke-linejoin="miter"/></g></g></g><path d="M268.85883,142.63313c0,0 3.01795,-0.2376 4.72042,1.48441c1.70246,1.72201 1.48441,4.79167 1.48441,4.79167v44.84826c0,0 0.2376,3.04988 -1.48441,4.79167c-1.72201,1.74179 -4.72042,1.48441 -4.72042,1.48441h-57.62661c0,0 -3.07018,0.24998 -4.80948,-1.48441c-1.73931,-1.73439 -1.48441,-4.79167 -1.48441,-4.79167v-44.84826c0,0 -0.2376,-3.04988 1.48441,-4.79167c1.72201,-1.74179 4.72042,-1.48441 4.72042,-1.48441z" data-paper-data="{&quot;index&quot;:null}" fill="none" stroke="#807459" stroke-width="2" stroke-linecap="butt" stroke-linejoin="miter"/></g></g></g></svg>