<svg version="1.1" xmlns="http://www.w3.org/2000/svg" xmlns:xlink="http://www.w3.org/1999/xlink" width="49.73722" height="64.479" viewBox="0,0,49.73722,64.479"><g transform="translate(-211.65524,-147.76057)"><g data-paper-data="{&quot;isPaintingLayer&quot;:true}" fill-rule="nonzero" stroke-miterlimit="10" stroke-dasharray="" stroke-dashoffset="0" style="mix-blend-mode: normal"><g stroke-linejoin="miter"><path d="M226.16124,173.85203c0.62506,-0.2525 6.63632,1.84609 6.63632,2.39032c0,0.54211 -5.95858,2.66409 -6.63632,2.39032c-0.72917,-0.29455 -0.09578,-1.39606 -0.0658,-2.47433c0.02876,-1.0346 -0.57408,-2.04782 0.0658,-2.3063z" data-paper-data="{&quot;index&quot;:null}" fill="#cccccc" stroke="none" stroke-width="0" stroke-linecap="butt"/><path d="M249.51753,176.24399h-20.49138" fill="none" stroke="#b37924" stroke-width="2" stroke-linecap="round"/><path d="M246.12998,174.01644l7.12947,2.26512l-7.12947,2.26512z" fill="#666666" stroke="none" stroke-width="0" stroke-linecap="butt"/></g><path d="M211.65524,180.00007c0,-17.80538 11.13405,-32.2395 24.86861,-32.2395c13.73454,0 24.86861,14.43411 24.86861,32.2395c0,17.80538 -11.13405,32.2395 -24.86861,32.2395c-13.73454,0 -24.86861,-14.43411 -24.86861,-32.2395z" fill="none" stroke="none" stroke-width="0" stroke-linecap="butt" stroke-linejoin="round"/><path d="M235.48019,194.01684l-6.88604,-17.73086l6.88604,-17.81485" data-paper-data="{&quot;index&quot;:null}" fill="none" stroke="#ffffff" stroke-width="1.5" stroke-linecap="round" stroke-linejoin="miter"/><path d="M243.8938,176.15528c0,10.26039 -6.26004,18.02319 -6.26004,18.02319l-2.59414,1.08042l-1.087,-1.20729c0,0 6.51044,-7.92678 6.51044,-17.89633c0,-9.96955 -6.51044,-17.71873 -6.51044,-17.71873l1.09276,-1.20748l2.58838,1.08061c0,0 6.26004,7.58521 6.26004,17.84559z" data-paper-data="{&quot;index&quot;:null}" fill="#b37924" stroke="#80520d" stroke-width="1.5" stroke-linecap="butt" stroke-linejoin="round"/><path d="M227.1107,183.07431c0,-2.81469 2.28176,-5.09645 5.09645,-5.09645c2.81469,0 5.09645,2.28176 5.09645,5.09645c0,2.81469 -2.28176,5.09645 -5.09645,5.09645c-2.81469,0 -5.09645,-2.28176 -5.09645,-5.09645z" fill="#faad32" stroke="#c78418" stroke-width="1.5" stroke-linecap="butt" stroke-linejoin="round"/></g></g></svg>