<svg version="1.1" xmlns="http://www.w3.org/2000/svg" xmlns:xlink="http://www.w3.org/1999/xlink" width="49.78245" height="41.84961" viewBox="0,0,49.78245,41.84961"><g transform="translate(-215.10878,-159.0752)"><g data-paper-data="{&quot;isPaintingLayer&quot;:true}" fill-rule="nonzero" stroke-linejoin="round" stroke-miterlimit="10" stroke-dasharray="" stroke-dashoffset="0" style="mix-blend-mode: normal"><path d="M264.86488,188.69344c0,0 0.46754,5.93856 -2.92094,9.28857c-3.38848,3.35 -9.42879,2.92094 -9.42879,2.92094h-25.03028c0,0 -6.00138,0.46754 -9.42879,-2.92094c-3.42739,-3.38848 -2.92094,-9.28857 -2.92094,-9.28857v-17.20769c0,0 -0.4919,-6.04133 2.92094,-9.46383c3.41282,-3.42252 9.42879,-2.92094 9.42879,-2.92094h25.03028c0,0 6.00138,-0.46754 9.42879,2.92094c3.42739,3.38848 2.92094,9.28857 2.92094,9.28857z" data-paper-data="{&quot;index&quot;:null}" fill="none" stroke="none" stroke-width="0" stroke-linecap="butt"/><path d="M254.26526,183.75141c0,0 0.27716,3.52034 -1.73152,5.50622c-2.00869,1.98587 -5.58934,1.73152 -5.58934,1.73152h-13.88874c0,0 -3.5576,0.27716 -5.58934,-1.73152c-2.03174,-2.00868 -1.73152,-5.50622 -1.73152,-5.50622v-7.39661c0,0 -0.29159,-3.58126 1.73152,-5.61011c2.02312,-2.02885 5.58934,-1.73152 5.58934,-1.73152h13.88874c0,0 3.5576,-0.27716 5.58934,1.73152c2.03174,2.00868 1.73152,5.50622 1.73152,5.50622z" data-paper-data="{&quot;index&quot;:null}" fill="#faad32" stroke="#c78418" stroke-width="1.5" stroke-linecap="butt"/><path d="M250.26588,186.45936c0,0 0.1376,1.74775 -0.85965,2.73368c-0.99725,0.98593 -2.77494,0.85965 -2.77494,0.85965h-13.26256c0,0 -1.76624,0.1376 -2.77494,-0.85965c-1.0087,-0.99725 -0.85965,-2.73368 -0.85965,-2.73368v-0.54746c0,0 -0.14476,-1.77799 0.85965,-2.78526c1.00441,-1.00726 2.77494,-0.85965 2.77494,-0.85965h13.26256c0,0 1.76624,-0.1376 2.77494,0.85965c1.0087,0.99725 0.85965,2.73368 0.85965,2.73368z" data-paper-data="{&quot;index&quot;:null}" fill="#ffffff" stroke="none" stroke-width="0" stroke-linecap="butt"/><path d="M255.51645,182.4986l-4.04872,0.90067l-1.74958,-3.95068l-19.4908,-0.01528l-1.69812,4.02583l-4.04564,-0.96054l1.2512,-6.1438l-0.93514,-8.27678l8.256,0.93515l6.9027,-5.33334l6.98604,5.33334l8.256,-0.93515l-0.93515,8.17289z" data-paper-data="{&quot;index&quot;:null}" fill="#00b3b3" stroke="#008080" stroke-width="1.5" stroke-linecap="butt"/><path d="M241.93437,173.01619c0,0 5.86345,-5.49138 6.99544,-5.49138c0.9905,0 2.424,5.49138 2.424,5.49138" data-paper-data="{&quot;index&quot;:null}" fill="#00b3b3" stroke="#008080" stroke-width="1.5" stroke-linecap="round"/><path d="M228.64622,173.01619c0,0 1.4335,-5.49138 2.424,-5.49138c1.13199,0 6.99544,5.49138 6.99544,5.49138" data-paper-data="{&quot;index&quot;:null}" fill="#00b3b3" stroke="#008080" stroke-width="1.5" stroke-linecap="round"/><path d="M236.11113,184.57338c0,1.76892 -1.48834,3.20291 -3.32431,3.20291c-1.83596,0 -3.32431,-1.43399 -3.32431,-3.20291c0,-1.76892 1.48834,-3.20292 3.32431,-3.20292c1.83596,0 3.32431,1.434 3.32431,3.20292z" fill="#262626" stroke="none" stroke-width="0" stroke-linecap="butt"/><path d="M233.27164,183.59104c0,0.70469 -0.59291,1.27595 -1.32431,1.27595c-0.73139,0 -1.32431,-0.57126 -1.32431,-1.27595c0,-0.70469 0.59291,-1.27595 1.32431,-1.27595c0.73139,0 1.32431,0.57126 1.32431,1.27595z" fill="#595959" stroke="none" stroke-width="0" stroke-linecap="butt"/><path d="M247.21322,181.37047c1.83597,0 3.32431,1.434 3.32431,3.20292c0,1.76892 -1.48835,3.20291 -3.32431,3.20291c-1.83597,0 -3.32431,-1.43399 -3.32431,-3.20291c0,-1.76892 1.48835,-3.20292 3.32431,-3.20292z" data-paper-data="{&quot;index&quot;:null}" fill="#262626" stroke="none" stroke-width="0" stroke-linecap="butt"/><path d="M247.69802,183.59104c0,0.70469 -0.59291,1.27595 -1.32431,1.27595c-0.73139,0 -1.32431,-0.57126 -1.32431,-1.27595c0,-0.70469 0.59291,-1.27595 1.32431,-1.27595c0.73139,0 1.32431,0.57126 1.32431,1.27595z" data-paper-data="{&quot;index&quot;:null}" fill="#595959" stroke="none" stroke-width="0" stroke-linecap="butt"/></g></g></svg>