<svg version="1.1" xmlns="http://www.w3.org/2000/svg" xmlns:xlink="http://www.w3.org/1999/xlink" width="349.70627" height="130.66517" viewBox="0,0,349.70627,130.66517"><g transform="translate(-65.14686,-114.66741)"><g data-paper-data="{&quot;isPaintingLayer&quot;:true}" fill-rule="nonzero" stroke-miterlimit="10" stroke-dasharray="" stroke-dashoffset="0" style="mix-blend-mode: normal"><path d="M65.14686,245.33258v-130.66517h349.70627v130.66517z" fill="none" stroke="none" stroke-width="0" stroke-linecap="butt" stroke-linejoin="miter"/><path d="M376.32616,142.39085c0,0 7.09426,-0.55853 11.09623,3.48938c4.00195,4.04792 3.48938,11.26372 3.48938,11.26372v45.7121c0,0 0.55853,7.16932 -3.48938,11.26372c-4.04792,4.0944 -11.09623,3.48938 -11.09623,3.48938h-272.43825c0,0 -7.21704,0.58762 -11.30559,-3.48938c-4.08858,-4.07701 -3.48938,-11.26372 -3.48938,-11.26372v-45.7121c0,0 -0.55853,-7.16932 3.48938,-11.26372c4.04792,-4.0944 11.09623,-3.48938 11.09623,-3.48938z" data-paper-data="{&quot;index&quot;:null}" fill="#b3a88f" stroke="#b3a88f" stroke-width="6" stroke-linecap="butt" stroke-linejoin="miter"/><path d="M376.32616,142.39085c0,0 7.09426,-0.55853 11.09623,3.48938c4.00195,4.04792 3.48938,11.26372 3.48938,11.26372v45.7121c0,0 0.55853,7.16932 -3.48938,11.26372c-4.04792,4.0944 -11.09623,3.48938 -11.09623,3.48938h-272.43825c0,0 -7.21704,0.58762 -11.30559,-3.48938c-4.08858,-4.07701 -3.48938,-11.26372 -3.48938,-11.26372v-45.7121c0,0 -0.55853,-7.16932 3.48938,-11.26372c4.04792,-4.0944 11.09623,-3.48938 11.09623,-3.48938z" data-paper-data="{&quot;index&quot;:null}" fill="#b3a88f" stroke="#807459" stroke-width="2" stroke-linecap="butt" stroke-linejoin="miter"/><text transform="translate(232.09572,163.86501) scale(0.45131,0.45131)" font-size="40" xml:space="preserve" fill="#ffffff" fill-rule="nonzero" stroke="#ffffff" stroke-width="2" stroke-linecap="butt" stroke-linejoin="round" stroke-miterlimit="10" stroke-dasharray="" stroke-dashoffset="0" font-family="Malgun Gothic" font-weight="normal" text-anchor="start" style="mix-blend-mode: normal"><tspan x="0" dy="0">SANDBOX ☁</tspan></text><text transform="translate(179.59571,185.41572) scale(0.45131,0.45131)" font-size="40" xml:space="preserve" fill="#ffffff" fill-rule="nonzero" stroke="#ffffff" stroke-width="2" stroke-linecap="butt" stroke-linejoin="round" stroke-miterlimit="10" stroke-dasharray="" stroke-dashoffset="0" font-family="Malgun Gothic" font-weight="normal" text-anchor="start" style="mix-blend-mode: normal"><tspan x="0" dy="0">Players</tspan></text><text transform="translate(179.59571,206.96644) scale(0.45131,0.45131)" font-size="40" xml:space="preserve" fill="#ffffff" fill-rule="nonzero" stroke="#ffffff" stroke-width="2" stroke-linecap="butt" stroke-linejoin="round" stroke-miterlimit="10" stroke-dasharray="" stroke-dashoffset="0" font-family="Malgun Gothic" font-weight="normal" text-anchor="start" style="mix-blend-mode: normal"><tspan x="0" dy="0">Room ID</tspan></text><g><path d="M163.85883,151.26011c0,0 3.01795,-0.2376 4.72042,1.48441c1.70246,1.72201 1.48441,4.79167 1.48441,4.79167v44.84826c0,0 0.2376,3.04988 -1.48441,4.79167c-1.72201,1.74179 -4.72042,1.48441 -4.72042,1.48441h-57.62661c0,0 -3.07018,0.24998 -4.80948,-1.48441c-1.73931,-1.73439 -1.48441,-4.79167 -1.48441,-4.79167v-44.84826c0,0 -0.2376,-3.04988 1.48441,-4.79167c1.72201,-1.74179 4.72042,-1.48441 4.72042,-1.48441z" data-paper-data="{&quot;index&quot;:null}" fill="#f2db9d" stroke="#807459" stroke-width="2" stroke-linecap="butt" stroke-linejoin="miter"/><g stroke-linejoin="miter"><g fill="#e6cc8a" stroke="none" stroke-width="0" stroke-linecap="butt"><path d="M139.70799,189.20379v-18.11084h18.11084v18.11084z"/><path d="M139.70799,169.65431v-18.11084h18.11084v18.11084z"/><path d="M159.25748,189.20379v-18.11084h10.49752v18.11084z"/><path d="M159.25748,169.65431v-18.11084c0,0 4.68595,0 6.59776,0c1.46983,0 3.89977,1.96211 3.89977,3.54454c0,3.20788 0,14.5663 0,14.5663z"/><path d="M139.70799,208.75328v-18.11084h18.11084v18.11084z"/><path d="M159.25748,208.75328v-18.11084h10.49752c0,0 0,11.22076 0,14.4466c0,1.62463 -1.97008,3.66424 -3.27475,3.66424c-1.9376,0 -7.22277,0 -7.22277,0z"/><path d="M100.60903,189.20379v-18.11084h18.11084v18.11084z"/><path d="M100.60903,169.65431c0,0 0,-13.79261 0,-16.44134c0,-0.84404 1.08386,-1.6695 2.11991,-1.6695c2.84549,0 15.99093,0 15.99093,0v18.11084z"/><path d="M120.15851,189.20379v-18.11084h18.11084v18.11084z"/><path d="M120.15851,169.65431v-18.11084h18.11084v18.11084z"/><path d="M100.60903,204.15152c0,-3.31914 0,-13.50908 0,-13.50908h18.11084v18.11084c0,0 -10.84803,0 -14.11589,0c-1.73846,0 -3.99495,-2.66456 -3.99495,-4.60176z"/><path d="M120.15851,208.75328v-18.11084h18.11084v18.11084z"/></g><path d="M170.03794,157.48698c0,3.13642 0,11.6 0,11.6c0,0 -11.20009,1.32993 -11.4,-8c-0.12714,-5.93371 3.6167,-9 7.2,-9c1.84748,0 4.2,3.26006 4.2,5.4z" data-paper-data="{&quot;index&quot;:null}" fill="#4d8079" stroke="none" stroke-width="0" stroke-linecap="butt"/><g><path d="M107.93437,199.30675h22.89379" fill="none" stroke="#4d8079" stroke-width="17" stroke-linecap="round"/><path d="M100.1,202.48698c0,-3.13642 0,-11.6 0,-11.6h20v17c0,0 -12.2167,0 -15.8,0c-1.84748,0 -4.2,-3.26006 -4.2,-5.4z" fill="#4d8079" stroke="none" stroke-width="0" stroke-linecap="butt"/></g></g><path d="M163.85883,151.26011c0,0 3.01795,-0.2376 4.72042,1.48441c1.70246,1.72201 1.48441,4.79167 1.48441,4.79167v44.84826c0,0 0.2376,3.04988 -1.48441,4.79167c-1.72201,1.74179 -4.72042,1.48441 -4.72042,1.48441h-57.62661c0,0 -3.07018,0.24998 -4.80948,-1.48441c-1.73931,-1.73439 -1.48441,-4.79167 -1.48441,-4.79167v-44.84826c0,0 -0.2376,-3.04988 1.48441,-4.79167c1.72201,-1.74179 4.72042,-1.48441 4.72042,-1.48441z" data-paper-data="{&quot;index&quot;:null}" fill="none" stroke="#807459" stroke-width="2" stroke-linecap="butt" stroke-linejoin="miter"/><g><g stroke-width="0.6" stroke-linejoin="round"><path d="M121.12498,159.81962c0,0 1.53754,1.14885 1.62871,2.68143c0.09116,1.53258 -1.29646,2.90421 -1.29646,2.90421l-4.97928,5.67403c0,0 -1.16221,1.55276 -2.71123,1.66266c-1.54902,0.1099 -2.87024,-1.26666 -2.87024,-1.26666l-3.02177,-2.65178c0,0 -1.56761,-1.1648 -1.67115,-2.71867c-0.10355,-1.55388 1.29646,-2.90421 1.29646,-2.90421l4.97928,-5.67403c0,0 1.16221,-1.55276 2.71123,-1.66266c1.54902,-0.1099 2.87024,1.26666 2.87024,1.26666z" data-paper-data="{&quot;index&quot;:null}" fill="#faad32" stroke="#c78418" stroke-linecap="butt"/><path d="M120.79744,162.42433c0,0 0.76335,0.57038 0.80861,1.33125c0.04526,0.76088 -0.64366,1.44185 -0.64366,1.44185l-4.75478,5.41821c0,0 -0.57701,0.77091 -1.34605,0.82546c-0.76904,0.05456 -1.42499,-0.62887 -1.42499,-0.62887l-0.22365,-0.19628c0,0 -0.77827,-0.57829 -0.82968,-1.34975c-0.05141,-0.77145 0.64366,-1.44185 0.64366,-1.44185l4.75478,-5.41821c0,0 0.57701,-0.77091 1.34605,-0.82546c0.76904,-0.05456 1.42499,0.62887 1.42499,0.62887z" data-paper-data="{&quot;index&quot;:null}" fill="#ffffff" stroke="none" stroke-linecap="butt"/><path d="M121.42284,159.211l-0.8817,2.1193l-2.03696,-0.52234l-6.99393,7.95718l0.78056,1.91297l-1.95912,1.17157l-3.37981,-2.96597c0,0 -1.34025,-2.41529 -1.44379,-3.96916c-0.10355,-1.55388 1.91,-1.78578 1.91,-1.78578l4.97928,-5.67403c0,0 -0.02643,-2.01585 1.52259,-2.12575c1.54902,-0.1099 4.08061,0.87881 4.08061,0.87881z" data-paper-data="{&quot;index&quot;:null}" fill="#333333" stroke="#262626" stroke-linecap="butt"/><path d="M112.3185,161.00851c0,0 -0.1413,-4.36414 0.26453,-4.8266c0.3551,-0.40465 3.11245,0.97844 3.11245,0.97844" data-paper-data="{&quot;index&quot;:null}" fill="#333333" stroke="#262626" stroke-linecap="round"/><path d="M107.55454,166.43716c0,0 -1.72949,-2.55436 -1.37438,-2.95901c0.40583,-0.46246 4.75137,-0.88915 4.75137,-0.88915" data-paper-data="{&quot;index&quot;:null}" fill="#333333" stroke="#262626" stroke-linecap="round"/><path d="M114.95231,167.53088c0.72266,0.63418 0.77492,1.75632 0.11669,2.50638c-0.65821,0.75005 -1.77764,0.84399 -2.5003,0.20981c-0.72266,-0.63418 -0.77492,-1.75632 -0.11669,-2.50638c0.65821,-0.75005 1.77764,-0.84399 2.5003,-0.20981z" fill="#262626" stroke="none" stroke-linecap="butt"/><path d="M113.533,168.33873c0.28789,0.25264 0.30871,0.69967 0.04648,0.99847c-0.26221,0.2988 -0.70816,0.33622 -0.99605,0.08359c-0.28789,-0.25264 -0.30871,-0.69967 -0.04648,-0.99847c0.26221,-0.2988 0.70816,-0.33622 0.99605,-0.08359z" fill="#595959" stroke="none" stroke-linecap="butt"/><path d="M117.62404,161.84702c0.65822,-0.75006 1.77764,-0.84399 2.5003,-0.20981c0.72266,0.63418 0.77491,1.75632 0.11669,2.50638c-0.65822,0.75006 -1.77764,0.84399 -2.5003,0.20981c-0.72266,-0.63418 -0.77491,-1.75632 -0.11669,-2.50638z" data-paper-data="{&quot;index&quot;:null}" fill="#262626" stroke="none" stroke-linecap="butt"/><path d="M118.70502,162.44506c0.28789,0.25264 0.30871,0.69967 0.04648,0.99847c-0.26221,0.2988 -0.70816,0.33622 -0.99605,0.08359c-0.28789,-0.25264 -0.30871,-0.69967 -0.04648,-0.99847c0.26221,-0.2988 0.70816,-0.33622 0.99605,-0.08359z" data-paper-data="{&quot;index&quot;:null}" fill="#595959" stroke="none" stroke-linecap="butt"/></g><g><path d="M111.55179,179.08268l3.18354,-3.07778l2.15093,1.88756l-3.18354,3.07778z" fill="#ffcc4d" stroke="#cc9e29" stroke-width="0.6" stroke-linecap="butt" stroke-linejoin="round"/><path d="M112.40304,174.71324c1.0091,-1.1499 2.75932,-1.26404 3.90921,-0.25494c1.1499,1.0091 1.26404,2.75932 0.25494,3.90921c-1.0091,1.1499 -2.75932,1.26404 -3.90921,0.25494c-1.1499,-1.0091 -1.26404,-2.75932 -0.25494,-3.90921z" fill="#faad32" stroke="#c78418" stroke-width="0.6" stroke-linecap="butt" stroke-linejoin="round"/><path d="M114.27341,175.98131l1.6349,-1.86301l7.4788,6.56308l-1.6349,1.86301z" fill="#33302a" stroke="#cc9e29" stroke-width="1.2" stroke-linecap="butt" stroke-linejoin="round"/><path d="M114.27341,175.98131l1.6349,-1.86301l7.4788,6.56308l-1.6349,1.86301z" fill="#33302a" stroke="#ffcc4d" stroke-width="0.6" stroke-linecap="butt" stroke-linejoin="round"/><path d="M122.1204,180.53934l-1.61675,-1.41879" fill="none" stroke="#cc9e29" stroke-width="0.6" stroke-linecap="round" stroke-linejoin="round"/><path d="M120.54886,180.25919c0,0 -0.8925,-0.71868 -1.2768,-1.23778c-0.33059,-0.44656 -0.44066,-1.07385 -0.89811,-1.47266c-0.45744,-0.39882 -0.94122,-0.14973 -1.42822,-0.55592c-0.487,-0.40619 -0.73149,-1.30797 -0.73149,-1.30797" data-paper-data="{&quot;index&quot;:null}" fill="none" stroke="#ffcc4d" stroke-width="0.6" stroke-linecap="round" stroke-linejoin="miter"/></g><g data-paper-data="{&quot;index&quot;:null}"><path d="M132.24846,165.29977l-2.63825,3.55631l-2.15093,-1.88756l2.63825,-3.55631z" fill="#ffcc4d" stroke="#cc9e29" stroke-width="0.6" stroke-linecap="butt" stroke-linejoin="round"/><path d="M129.78487,164.5688c1.1499,1.0091 1.26404,2.75932 0.25494,3.90921c-1.0091,1.1499 -2.75932,1.26404 -3.90921,0.25494c-1.1499,-1.0091 -1.26404,-2.75932 -0.25494,-3.90921c1.0091,-1.1499 2.75932,-1.26404 3.90921,-0.25494z" fill="#faad32" stroke="#c78418" stroke-width="0.6" stroke-linecap="butt" stroke-linejoin="round"/><path d="M134.85471,173.07664l-1.6349,1.86301l-7.4788,-6.56308l1.6349,-1.86301z" fill="#33302a" stroke="#cc9e29" stroke-width="1.2" stroke-linecap="butt" stroke-linejoin="round"/><path d="M134.85471,173.07664l-1.6349,1.86301l-7.4788,-6.56308l1.6349,-1.86301z" fill="#33302a" stroke="#ffcc4d" stroke-width="0.6" stroke-linecap="butt" stroke-linejoin="round"/><path d="M132.91447,173.70212l-1.61675,-1.41879" fill="none" stroke="#cc9e29" stroke-width="0.6" stroke-linecap="round" stroke-linejoin="round"/><path d="M127.33402,168.47646c0,0 0.9259,0.1253 1.3919,0.55542c0.46601,0.43012 0.28185,0.94215 0.7367,1.34392c0.45485,0.40177 1.09112,0.42945 1.57684,0.69923c0.5646,0.31362 1.39312,1.10522 1.39312,1.10522" data-paper-data="{&quot;index&quot;:null}" fill="none" stroke="#ffcc4d" stroke-width="0.6" stroke-linecap="round" stroke-linejoin="miter"/></g></g><g><g><path d="M152.72098,183.2778c-0.76369,1.23563 -2.38446,1.61821 -3.62009,0.85452c-1.23563,-0.76369 -1.61821,-2.38446 -0.85452,-3.62009c0.76369,-1.23563 2.38446,-1.61821 3.62009,-0.85452c1.23563,0.76369 1.61821,2.38446 0.85452,3.62009z" fill="#faad32" stroke="#c78418" stroke-width="0.6" stroke-linecap="butt" stroke-linejoin="round"/><g data-paper-data="{&quot;index&quot;:null}" fill="none" stroke="#cc9d52" stroke-width="2" stroke-linecap="round" stroke-linejoin="miter"><g data-paper-data="{&quot;index&quot;:null}"><path d="M142.94703,182.86038l1.68192,-0.39184"/><path d="M146.41488,183.57234l-1.68192,0.39184"/><path d="M148.20081,184.67615l-1.68192,0.39184"/></g><g data-paper-data="{&quot;index&quot;:null}"><path d="M146.71032,179.10095l-0.40166,-1.6796"/><path d="M148.09459,178.52516l0.40166,1.6796"/><path d="M149.88051,179.62897l0.40166,1.6796"/></g></g><g data-paper-data="{&quot;index&quot;:null}" fill="none" stroke="#ffc466" stroke-width="0.6" stroke-linecap="round" stroke-linejoin="miter"><g data-paper-data="{&quot;index&quot;:null}"><path d="M142.94703,182.86038l1.68192,-0.39184"/><path d="M146.41488,183.57234l-1.68192,0.39184"/><path d="M148.20081,184.67615l-1.68192,0.39184"/></g><g data-paper-data="{&quot;index&quot;:null}"><path d="M146.71032,179.10095l-0.40166,-1.6796"/><path d="M148.09459,178.52516l0.40166,1.6796"/><path d="M149.88051,179.62897l0.40166,1.6796"/></g></g><path d="M151.36393,181.87323l-0.55162,2.12009l-1.62697,1.40245l-5.79162,-3.7918l1.9864,-3.21393z" data-paper-data="{&quot;index&quot;:null}" fill="#6cd998" stroke="#42a66a" stroke-width="0.6" stroke-linecap="butt" stroke-linejoin="round"/><path d="M149.78131,182.26205l-0.19275,0.96003l-0.76265,0.58456l-5.08746,-3.23741l0.87103,-1.40931z" data-paper-data="{&quot;index&quot;:null}" fill="#79f2f2" stroke="#47b392" stroke-width="0.6" stroke-linecap="butt" stroke-linejoin="round"/><path d="M145.51845,178.34966l-2.09907,3.39623l-2.16284,-0.93899l2.44464,-3.98128z" data-paper-data="{&quot;index&quot;:null}" fill="#6cd998" stroke="#42a66a" stroke-width="0.6" stroke-linecap="butt" stroke-linejoin="round"/></g><path d="M146.01566,193.39063c-0.76369,1.23563 -2.38446,1.61821 -3.62009,0.85452c-1.23563,-0.76369 -1.61821,-2.38446 -0.85452,-3.62009c0.76369,-1.23563 2.38446,-1.61821 3.62009,-0.85452c1.23563,0.76369 1.61821,2.38446 0.85452,3.62009z" fill="#faad32" stroke="#c78418" stroke-width="0.6" stroke-linecap="butt" stroke-linejoin="round"/><g stroke-width="0.6" stroke-linejoin="round"><path d="M152.97098,194.66853c0,0 -1.6206,-0.83348 -1.94739,-2.25409c-0.32678,-1.42062 0.75639,-2.92348 0.75639,-2.92348l3.76833,-6.09705c0,0 0.84358,-1.63696 2.27664,-1.98388c1.43305,-0.34691 2.88699,0.73384 2.88699,0.73384l3.24705,2.00687c0,0 1.65126,0.84367 1.99299,2.28227c0.34173,1.43861 -0.75639,2.92348 -0.75639,2.92348l-3.76833,6.09705c0,0 -0.84358,1.63696 -2.27664,1.98388c-1.43305,0.34691 -2.88699,-0.73384 -2.88699,-0.73384z" data-paper-data="{&quot;index&quot;:null}" fill="#faad32" stroke="#c78418" stroke-linecap="butt"/><path d="M152.86733,192.1781c0,0 -0.80458,-0.4138 -0.96682,-1.11909c-0.16224,-0.70529 0.37552,-1.45142 0.37552,-1.45142l3.59843,-5.82217c0,0 0.41882,-0.8127 1.13028,-0.98493c0.71147,-0.17224 1.43331,0.36433 1.43331,0.36433l0.24033,0.14854c0,0 0.8198,0.41886 0.98946,1.13308c0.16966,0.71422 -0.37552,1.45142 -0.37552,1.45142l-3.59843,5.82217c0,0 -0.41882,0.8127 -1.13028,0.98493c-0.71147,0.17224 -1.43331,-0.36433 -1.43331,-0.36433z" data-paper-data="{&quot;index&quot;:null}" fill="#ffffff" stroke="none" stroke-linecap="butt"/><path d="M152.78796,195.2853l0.49169,-2.12321l1.98952,0.1682l5.29501,-8.55217l-1.0322,-1.66819l1.64979,-1.40558l3.63179,2.24466c0,0 1.63537,2.05034 1.97711,3.48894c0.34173,1.43861 -1.50704,1.97293 -1.50704,1.97293l-3.76833,6.09705c0,0 0.3423,1.88331 -1.09076,2.23022c-1.43305,0.34691 -3.95918,-0.18003 -3.95918,-0.18003z" data-paper-data="{&quot;index&quot;:null}" fill="#333333" stroke="#262626" stroke-linecap="butt"/><path d="M161.02931,192.16807c0,0 0.81978,4.06395 0.51265,4.56089c-0.26875,0.43482 -3.06837,-0.42582 -3.06837,-0.42582" data-paper-data="{&quot;index&quot;:null}" fill="#333333" stroke="#262626" stroke-linecap="round"/><path d="M164.63469,186.33468c0,0 2.02173,2.11923 1.75298,2.55405c-0.30713,0.49694 -4.3087,1.581 -4.3087,1.581" data-paper-data="{&quot;index&quot;:null}" fill="#333333" stroke="#262626" stroke-linecap="round"/><path d="M157.53577,186.47599c-0.77654,-0.47995 -1.00223,-1.52239 -0.50409,-2.32837c0.49813,-0.80597 1.53147,-1.07027 2.30801,-0.59032c0.77654,0.47995 1.00223,1.52239 0.5041,2.32837c-0.49813,0.80597 -1.53147,1.07027 -2.30802,0.59032z" fill="#262626" stroke="none" stroke-linecap="butt"/><path d="M158.73743,185.496c-0.30936,-0.1912 -0.39927,-0.60648 -0.20082,-0.92756c0.19844,-0.32107 0.61009,-0.42636 0.91945,-0.23517c0.30936,0.1912 0.39927,0.60648 0.20082,0.92756c-0.19844,0.32107 -0.61009,0.42636 -0.91945,0.23517z" fill="#595959" stroke="none" stroke-linecap="butt"/><path d="M155.92958,192.21873c-0.49814,0.80598 -1.53147,1.07027 -2.30802,0.59032c-0.77654,-0.47995 -1.00223,-1.5224 -0.50409,-2.32837c0.49814,-0.80598 1.53147,-1.07027 2.30801,-0.59032c0.77654,0.47995 1.00223,1.5224 0.5041,2.32837z" data-paper-data="{&quot;index&quot;:null}" fill="#262626" stroke="none" stroke-linecap="butt"/><path d="M154.82322,191.82907c-0.30936,-0.1912 -0.39927,-0.60648 -0.20082,-0.92756c0.19844,-0.32107 0.61009,-0.42636 0.91945,-0.23517c0.30936,0.1912 0.39927,0.60648 0.20082,0.92756c-0.19844,0.32107 -0.61009,0.42636 -0.91945,0.23517z" data-paper-data="{&quot;index&quot;:null}" fill="#595959" stroke="none" stroke-linecap="butt"/></g><g stroke-linejoin="miter"><path d="M148.43928,189.87915c1.79093,1.1069 2.34544,3.45606 1.23855,5.24699c-1.1069,1.79093 -3.45606,2.34544 -5.24699,1.23855c-1.79093,-1.1069 -2.34544,-3.45606 -1.23855,-5.24699c1.1069,-1.79093 3.45606,-2.34544 5.24699,-1.23855z" fill="#262626" stroke="none" stroke-width="0" stroke-linecap="butt"/><path d="M147.37723,197.31222c0,0 1.01348,1.72909 0.86756,2.28322c-0.17141,0.65095 -1.49277,1.43206 -1.49277,1.43206" fill="none" stroke="#ffffff" stroke-width="0.6" stroke-linecap="round"/><path d="M148.64657,195.79913l0.31172,1.32058l-3.08133,0.72735l-0.31172,-1.32057z" fill="#262626" stroke="none" stroke-width="0" stroke-linecap="butt"/></g></g></g></g></g></svg>