<svg version="1.1" xmlns="http://www.w3.org/2000/svg" xmlns:xlink="http://www.w3.org/1999/xlink" width="105.61904" height="105.61904" viewBox="0,0,105.61904,105.61904"><g transform="translate(-187.19049,-127.19048)"><g data-paper-data="{&quot;isPaintingLayer&quot;:true}" fill-rule="nonzero" stroke-miterlimit="10" stroke-dasharray="" stroke-dashoffset="0" style="mix-blend-mode: normal"><path d="M187.1905,180.00001c0,-29.16592 23.64362,-52.80952 52.80952,-52.80952c29.16592,0 52.80952,23.64361 52.80952,52.80952c0,29.16592 -23.64361,52.80952 -52.80952,52.80952c-29.16592,0 -52.80952,-23.64361 -52.80952,-52.80952z" fill="none" stroke="none" stroke-width="0" stroke-linecap="butt" stroke-linejoin="miter"/><path d="M254.26527,183.75141c0,0 0.27716,3.52034 -1.73152,5.50622c-2.00869,1.98587 -5.58934,1.73152 -5.58934,1.73152h-13.88874c0,0 -3.5576,0.27716 -5.58934,-1.73152c-2.03174,-2.00868 -1.73152,-5.50622 -1.73152,-5.50622v-7.39661c0,0 -0.29159,-3.58126 1.73152,-5.61011c2.02312,-2.02885 5.58934,-1.73152 5.58934,-1.73152h13.88874c0,0 3.5576,-0.27716 5.58934,1.73152c2.03174,2.00868 1.73152,5.50622 1.73152,5.50622z" data-paper-data="{&quot;index&quot;:null}" fill="#faad32" stroke="#c78418" stroke-width="1.5" stroke-linecap="butt" stroke-linejoin="round"/><path d="M250.26589,186.45937c0,0 0.1376,1.74775 -0.85965,2.73368c-0.99725,0.98593 -2.77494,0.85965 -2.77494,0.85965h-13.26256c0,0 -1.76624,0.1376 -2.77494,-0.85965c-1.0087,-0.99725 -0.85965,-2.73368 -0.85965,-2.73368v-0.54746c0,0 -0.14476,-1.77799 0.85965,-2.78526c1.00441,-1.00726 2.77494,-0.85965 2.77494,-0.85965h13.26256c0,0 1.76624,-0.1376 2.77494,0.85965c1.0087,0.99725 0.85965,2.73368 0.85965,2.73368z" data-paper-data="{&quot;index&quot;:null}" fill="#ffffff" stroke="none" stroke-width="0" stroke-linecap="butt" stroke-linejoin="round"/><path d="M255.46835,183.42475l-4.00061,1.35256l-1.74958,-3.45068l-19.4908,-0.01528l-1.69812,3.40083l-3.99753,-1.28743v-8.27301c0,0 1.71355,-4.78435 3.73666,-6.8132c2.02312,-2.02885 4.78728,0.47414 4.78728,0.47414h13.88874c0,0 2.75554,-2.48282 4.78728,-0.47414c2.03174,2.00868 3.73666,6.70931 3.73666,6.70931z" data-paper-data="{&quot;index&quot;:null}" fill="#333333" stroke="#262626" stroke-width="1.5" stroke-linecap="butt" stroke-linejoin="round"/><path d="M241.93438,173.0162c0,0 5.86345,-5.49138 6.99544,-5.49138c0.9905,0 2.424,5.49138 2.424,5.49138" data-paper-data="{&quot;index&quot;:null}" fill="#333333" stroke="#262626" stroke-width="1.5" stroke-linecap="round" stroke-linejoin="round"/><path d="M228.64623,173.0162c0,0 1.4335,-5.49138 2.424,-5.49138c1.13199,0 6.99544,5.49138 6.99544,5.49138" data-paper-data="{&quot;index&quot;:null}" fill="#333333" stroke="#262626" stroke-width="1.5" stroke-linecap="round" stroke-linejoin="round"/><path d="M236.11114,184.57338c0,1.76892 -1.48834,3.20291 -3.32431,3.20291c-1.83596,0 -3.32431,-1.43399 -3.32431,-3.20291c0,-1.76892 1.48834,-3.20292 3.32431,-3.20292c1.83596,0 3.32431,1.434 3.32431,3.20292z" fill="#262626" stroke="none" stroke-width="0" stroke-linecap="butt" stroke-linejoin="round"/><path d="M233.27165,183.59104c0,0.70469 -0.59291,1.27595 -1.32431,1.27595c-0.73139,0 -1.32431,-0.57126 -1.32431,-1.27595c0,-0.70469 0.59291,-1.27595 1.32431,-1.27595c0.73139,0 1.32431,0.57126 1.32431,1.27595z" fill="#595959" stroke="none" stroke-width="0" stroke-linecap="butt" stroke-linejoin="round"/><path d="M247.21323,181.37048c1.83597,0 3.32431,1.434 3.32431,3.20292c0,1.76892 -1.48835,3.20291 -3.32431,3.20291c-1.83597,0 -3.32431,-1.43399 -3.32431,-3.20291c0,-1.76892 1.48835,-3.20292 3.32431,-3.20292z" data-paper-data="{&quot;index&quot;:null}" fill="#262626" stroke="none" stroke-width="0" stroke-linecap="butt" stroke-linejoin="round"/><path d="M247.69803,183.59104c0,0.70469 -0.59291,1.27595 -1.32431,1.27595c-0.73139,0 -1.32431,-0.57126 -1.32431,-1.27595c0,-0.70469 0.59291,-1.27595 1.32431,-1.27595c0.73139,0 1.32431,0.57126 1.32431,1.27595z" data-paper-data="{&quot;index&quot;:null}" fill="#595959" stroke="none" stroke-width="0" stroke-linecap="butt" stroke-linejoin="round"/></g></g></svg>