<svg version="1.1" xmlns="http://www.w3.org/2000/svg" xmlns:xlink="http://www.w3.org/1999/xlink" width="49.73723" height="33.42922" viewBox="0,0,49.73723,33.42922"><g transform="translate(-211.65524,-163.28545)"><g data-paper-data="{&quot;isPaintingLayer&quot;:true}" fill-rule="nonzero" stroke-miterlimit="10" stroke-dasharray="" stroke-dashoffset="0" style="mix-blend-mode: normal"><path d="M231.23595,190.14954l0.66738,-8.11939h5.265l-0.66738,8.11939z" fill="#ffcc4d" stroke="#cc9e29" stroke-width="1.5" stroke-linecap="butt" stroke-linejoin="round"/><path d="M227.1107,183.07429c0,-2.81469 2.28176,-5.09645 5.09645,-5.09645c2.81469,0 5.09645,2.28176 5.09645,5.09645c0,2.81469 -2.28176,5.09645 -5.09645,5.09645c-2.81469,0 -5.09645,-2.28176 -5.09645,-5.09645z" fill="#faad32" stroke="#c78418" stroke-width="1.5" stroke-linecap="butt" stroke-linejoin="round"/><path d="M211.65524,180.00006c0,-9.23121 11.13405,-16.71461 24.86861,-16.71461c13.73454,0 24.86862,7.48337 24.86862,16.71461c0,9.23121 -11.13405,16.71461 -24.86862,16.71461c-13.73454,0 -24.86861,-7.48337 -24.86861,-16.71461z" fill="none" stroke="none" stroke-width="0" stroke-linecap="butt" stroke-linejoin="round"/><path d="M231.23595,182.5581v-4.56023h18.30644v4.56023z" fill="#33302a" stroke="#cc9e29" stroke-width="3" stroke-linecap="butt" stroke-linejoin="round"/><path d="M231.23595,182.5581v-4.56023h18.30644v4.56023z" fill="#33302a" stroke="#ffcc4d" stroke-width="1" stroke-linecap="butt" stroke-linejoin="round"/><path d="M243.66092,179.33864h3.95745" fill="none" stroke="#cc9e29" stroke-width="1" stroke-linecap="round" stroke-linejoin="round"/><path d="M245.1052,180.85834c0,0 -2.10633,0.08925 -3.26767,-0.16222c-0.99907,-0.21634 -1.91251,-0.9502 -3.02906,-0.94659c-1.11655,0.00361 -1.48325,0.93514 -2.64962,0.96442c-1.16637,0.02928 -2.59879,-0.92104 -2.59879,-0.92104" data-paper-data="{&quot;index&quot;:null}" fill="none" stroke="#ffcc4d" stroke-width="1" stroke-linecap="round" stroke-linejoin="miter"/></g></g></svg>