<svg version="1.1" xmlns="http://www.w3.org/2000/svg" xmlns:xlink="http://www.w3.org/1999/xlink" width="60.31054" height="22.31924" viewBox="0,0,60.31054,22.31924"><g transform="translate(-209.84473,-168.84038)"><g data-paper-data="{&quot;isPaintingLayer&quot;:true}" stroke-miterlimit="10" stroke-dasharray="" stroke-dashoffset="0" style="mix-blend-mode: normal"><path d="M261.53179,168.85896c0,0 4.18685,-0.32963 6.54871,2.05935c2.36185,2.38898 2.05935,6.64755 2.05935,6.64755v4.86828c0,0 0.32963,4.23114 -2.05935,6.64755c-2.38898,2.41641 -6.54871,2.05935 -6.54871,2.05935h-42.93727c0,0 -4.2593,0.3468 -6.67227,-2.05935c-2.41296,-2.40614 -2.05935,-6.64755 -2.05935,-6.64755v-4.86828c0,0 -0.32963,-4.23114 2.05935,-6.64755c2.38898,-2.41641 6.54871,-2.05935 6.54871,-2.05935z" data-paper-data="{&quot;index&quot;:null}" fill="#ffffff" fill-rule="nonzero" stroke="none" stroke-width="0" stroke-linecap="butt" stroke-linejoin="miter"/><path d="M227.74811,178.25063c0,0.1408 -0.01083,0.28158 -0.02167,0.42238c-0.37905,4.31042 -6.47644,7.70026 -6.47644,7.70026c0,0 -6.09739,-3.38985 -6.47644,-7.70026c-0.01082,-0.1408 -0.02167,-0.28158 -0.02167,-0.42238c0,-2.09023 1.70034,-3.79057 3.79057,-3.79057c1.06136,0 2.02524,0.4332 2.70754,1.14799c0.6823,-0.71479 1.64618,-1.14799 2.70754,-1.14799c2.09023,0 3.79057,1.70034 3.79057,3.79057" fill="#ff6680" fill-rule="evenodd" stroke="#ff6680" stroke-width="0.5" stroke-linecap="round" stroke-linejoin="round"/><path d="M239.79683,184.71808l-3.64935,1.91787c-0.32016,0.16936 -0.69523,-0.10286 -0.63414,-0.46014l0.69678,-4.06385c0.02474,-0.14152 -0.02242,-0.28613 -0.12528,-0.38666l-2.95258,-2.87757c-0.25906,-0.25288 -0.11599,-0.69291 0.24205,-0.7455l4.0801,-0.59237c0.14229,-0.02088 0.26525,-0.10981 0.32867,-0.23896l1.82506,-3.69729c0.16008,-0.3248 0.62331,-0.3248 0.78416,0l1.82429,3.69729c0.06341,0.12914 0.18637,0.21808 0.32867,0.23896l4.0801,0.59237c0.35805,0.05258 0.50189,0.49262 0.24205,0.7455l-2.9518,2.87757c-0.10363,0.10054 -0.15003,0.24514 -0.12605,0.38666l0.69677,4.06385c0.06187,0.35728 -0.3132,0.6295 -0.63336,0.46014l-3.64935,-1.91787c-0.1276,-0.06728 -0.27917,-0.06728 -0.40677,0z" fill="#ffbf00" fill-rule="evenodd" stroke="#ffbf00" stroke-width="0.5" stroke-linecap="butt" stroke-linejoin="miter"/><path d="M257.13459,178.86398c-0.59602,-0.50038 -0.97128,-1.2583 -0.97128,-2.09715c0,-1.53059 1.23624,-2.76683 2.76682,-2.76683c1.52323,0 2.75947,1.23624 2.75947,2.76683c0,0.84624 -0.36793,1.59681 -0.97138,2.09721c0.75792,0.36057 1.41282,0.93454 1.90584,1.65566c0.55925,0.82416 0.91246,1.847 0.96398,2.95815c0.01472,0.10302 0.01472,0.20604 0.01472,0.30906c0,2.95079 -9.35275,2.95079 -9.35275,0c0,-2.21493 1.18473,-4.11344 2.88456,-4.92289z" fill="#4c97ff" fill-rule="evenodd" stroke="#4c97ff" stroke-width="0.5" stroke-linecap="round" stroke-linejoin="round"/></g></g></svg>