<svg version="1.1" xmlns="http://www.w3.org/2000/svg" xmlns:xlink="http://www.w3.org/1999/xlink" width="228.59167" height="98.84725" viewBox="0,0,228.59167,98.84725"><defs><linearGradient x1="-95421.80676" y1="-40525.32858" x2="77885.7355" y2="33167.51379" gradientUnits="userSpaceOnUse" id="color-1"><stop offset="0" stop-color="#ffffff"/><stop offset="1" stop-color="#ffffff" stop-opacity="0"/></linearGradient></defs><g transform="translate(-125.70417,-130.57638)"><g data-paper-data="{&quot;isPaintingLayer&quot;:true}" fill-rule="nonzero" stroke-miterlimit="10" stroke-dasharray="" stroke-dashoffset="0" style="mix-blend-mode: normal"><path d="M125.70417,229.42363v-98.84725h228.59167v98.84725z" fill="none" stroke="none" stroke-width="0" stroke-linecap="butt" stroke-linejoin="miter"/><path d="M332.43562,166.46767l2.30301,-5.02353l2.65343,4.82151l-1.52144,0.2153l0.55509,2.67309l-2.69644,0.18426l0.25353,-2.80838z" fill="#ffffff" stroke="#ffffff" stroke-width="1" stroke-linecap="round" stroke-linejoin="miter"/><path d="M317.22722,150.58746l5.42478,1.05421l-4.06035,3.715l-0.5678,-1.42784l-2.46697,1.16944l-0.81456,-2.57706l2.78902,-0.41547z" fill="#ffffff" stroke="#ffffff" stroke-width="1" stroke-linecap="round" stroke-linejoin="miter"/><g stroke-linejoin="miter"><path d="M326.41667,150.20858c0,-4.05009 3.28325,-7.33333 7.33333,-7.33333c4.05009,0 7.33333,3.28325 7.33333,7.33333c0,4.05009 -3.28325,7.33333 -7.33333,7.33333c-4.05009,0 -7.33333,-3.28325 -7.33333,-7.33333z" fill="#80b3ff" stroke="none" stroke-width="0" stroke-linecap="butt"/><g fill="none" stroke="#ffffff"><path d="M326.57174,150.24191c0,-3.96444 3.21382,-7.17826 7.17826,-7.17826c3.96444,0 7.17826,3.21382 7.17826,7.17826c0,3.96444 -3.21382,7.17826 -7.17826,7.17826c-3.96444,0 -7.17826,-3.21382 -7.17826,-7.17826z" stroke-width="1.5" stroke-linecap="butt"/><g stroke-width="1" stroke-linecap="round"><path d="M326.62694,150.24191h14.24611"/><path d="M327.3866,146.83861h12.72679"/><path d="M327.3866,153.64521h12.72679" data-paper-data="{&quot;index&quot;:null}"/><path d="M333.75,157.11486v-13.82928" data-paper-data="{&quot;index&quot;:null}"/><path d="M336.2274,143.70243c0,0 1.6516,2.01336 1.6516,6.48846c0,4.4751 -1.6516,6.59051 -1.6516,6.59051" data-paper-data="{&quot;index&quot;:null}"/><path d="M331.2726,156.7814c0,0 -1.6516,-2.11541 -1.6516,-6.59051c0,-4.4751 1.6516,-6.48846 1.6516,-6.48846" data-paper-data="{&quot;index&quot;:null}"/></g></g></g><text transform="translate(149.1432,157.87566) scale(0.44693,0.44693)" font-size="40" xml:space="preserve" fill="#ffffff" fill-rule="nonzero" stroke="#ffffff" stroke-width="2" stroke-linecap="butt" stroke-linejoin="round" stroke-miterlimit="10" stroke-dasharray="" stroke-dashoffset="0" font-family="Malgun Gothic" font-weight="normal" text-anchor="start" style="mix-blend-mode: normal"><tspan x="0" dy="0">Solo AI</tspan></text><text transform="translate(151.04817,174.64176) scale(0.28303,0.28303)" font-size="40" xml:space="preserve" fill="#ffffff" fill-rule="nonzero" stroke="#ffffff" stroke-width="2" stroke-linecap="butt" stroke-linejoin="round" stroke-miterlimit="10" stroke-dasharray="" stroke-dashoffset="0" font-family="Malgun Gothic" font-weight="normal" text-anchor="start" style="mix-blend-mode: normal"><tspan x="0" dy="0">fight along AI bots</tspan><tspan x="0" dy="48px">even offline :]</tspan></text><text transform="translate(168.94123,213.79157) scale(0.2501,0.2501)" font-size="40" xml:space="preserve" fill="#ffffff" fill-rule="nonzero" stroke="#ffffff" stroke-width="2" stroke-linecap="butt" stroke-linejoin="round" stroke-miterlimit="10" stroke-dasharray="" stroke-dashoffset="0" font-family="Malgun Gothic" font-weight="normal" text-anchor="start" style="mix-blend-mode: normal"><tspan x="0" dy="0">this is not so easy as you think</tspan></text><path d="M294.15469,195.715c-12.9271,5.92921 -28.64907,0.30715 -35.21795,-14.97517c-6.56888,-15.28232 -0.76417,-30.77792 12.86471,-37.02902c13.62888,-6.2511 28.62712,-0.3582 35.21795,14.97517c6.59083,15.33338 0.0624,31.09981 -12.86471,37.02902z" fill="url(#color-1)" stroke="none" stroke-width="NaN" stroke-linecap="butt" stroke-linejoin="miter"/><g data-paper-data="{&quot;index&quot;:null}" stroke-width="1" stroke-linejoin="round"><path d="M296.28285,168.88885c0,0 -0.16556,3.18418 -2.1972,4.72604c-2.03165,1.54184 -5.2074,0.89332 -5.2074,0.89332l-12.43404,-1.63212c0,0 -3.21755,-0.16995 -4.80044,-2.20698c-1.58287,-2.03705 -0.90309,-5.13298 -0.90309,-5.13298l0.8692,-6.62188c0,0 0.1598,-3.24042 2.20943,-4.81904c2.04963,-1.57862 5.2074,-0.89332 5.2074,-0.89332l12.43404,1.63212c0,0 3.21755,0.16995 4.80044,2.20698c1.58287,2.03705 0.90309,5.13298 0.90309,5.13298z" data-paper-data="{&quot;index&quot;:null}" fill="#4ee02d" stroke="#31ad15" stroke-linecap="butt"/><path d="M292.38415,170.84319c0,0 -0.08217,1.58086 -1.09084,2.34634c-1.00867,0.76547 -2.58532,0.44352 -2.58532,0.44352l-11.87345,-1.55854c0,0 -1.59742,-0.08436 -2.38327,-1.09571c-0.78586,-1.01134 -0.44837,-2.54835 -0.44837,-2.54835l0.06434,-0.49012c0,0 0.07934,-1.60876 1.0969,-2.39251c1.01759,-0.78374 2.58532,-0.44352 2.58532,-0.44352l11.87345,1.55854c0,0 1.59742,0.08436 2.38327,1.09571c0.78586,1.01134 0.44837,2.54835 0.44837,2.54835z" data-paper-data="{&quot;index&quot;:null}" fill="#ffffff" stroke="none" stroke-linecap="butt"/><path d="M279.93363,167.49133c-0.20788,1.58364 -1.70883,2.69252 -3.35252,2.47679c-1.64364,-0.21574 -2.8076,-1.67444 -2.59973,-3.25809c0.20788,-1.58364 1.70883,-2.69252 3.35252,-2.47679c1.64364,0.21574 2.8076,1.67444 2.59973,3.2581z" fill="#262626" stroke="none" stroke-linecap="butt"/><path d="M277.507,166.2782c-0.0828,0.63089 -0.68076,1.07263 -1.33555,0.98668c-0.65478,-0.08596 -1.11846,-0.66707 -1.03565,-1.29793c0.0828,-0.63089 0.68076,-1.07263 1.33555,-0.98668c0.65478,0.08596 1.11846,0.66707 1.03565,1.29793z" fill="#595959" stroke="none" stroke-linecap="butt"/><path d="M290.24927,165.92857c1.64366,0.21576 2.8076,1.67444 2.59973,3.2581c-0.20788,1.58364 -1.70883,2.69252 -3.35252,2.47679c-1.64366,-0.21576 -2.8076,-1.67444 -2.59973,-3.25809c0.20788,-1.58364 1.70885,-2.69253 3.35252,-2.47679z" data-paper-data="{&quot;index&quot;:null}" fill="#262626" stroke="none" stroke-linecap="butt"/><path d="M290.42234,167.97355c-0.0828,0.63089 -0.68076,1.07263 -1.33555,0.98668c-0.65478,-0.08596 -1.11846,-0.66707 -1.03565,-1.29793c0.0828,-0.63089 0.68076,-1.07263 1.33555,-0.98668c0.65478,0.08596 1.11846,0.66707 1.03565,1.29793z" data-paper-data="{&quot;index&quot;:null}" fill="#595959" stroke="none" stroke-linecap="butt"/><path d="M286.50506,157.82899c0,0 5.89461,-4.22717 6.90806,-4.09415c0.88674,0.11641 1.52478,5.20108 1.52478,5.20108" data-paper-data="{&quot;index&quot;:null}" fill="#4ee02d" stroke="#31ad15" stroke-linecap="round"/><path d="M274.6087,156.26743c0,0 1.92868,-4.74776 2.81543,-4.63137c1.01344,0.13303 5.61742,5.73828 5.61742,5.73828" data-paper-data="{&quot;index&quot;:null}" fill="#4ee02d" stroke="#31ad15" stroke-linecap="round"/><g fill="#4ee02d" stroke="#31ad15" stroke-linecap="butt"><path d="M300.02831,175.67115c2.51988,0.33075 4.29451,2.64167 3.96374,5.16155c-0.33075,2.51988 -2.64167,4.29451 -5.16155,3.96374c-2.51988,-0.33075 -4.29451,-2.64167 -3.96374,-5.16155c0.33075,-2.51988 2.64167,-4.29451 5.16155,-3.96374z"/><g><path d="M264.32003,170.86607c2.51988,0.33075 4.29451,2.64167 3.96374,5.16155c-0.33075,2.51988 -2.64167,4.29451 -5.16155,3.96374c-2.51988,-0.33075 -4.29451,-2.64167 -3.96374,-5.16155c0.33075,-2.51988 2.64167,-4.29451 5.16155,-3.96374z"/></g></g></g></g></g></svg>