<svg version="1.1" xmlns="http://www.w3.org/2000/svg" xmlns:xlink="http://www.w3.org/1999/xlink" width="119.07927" height="66.49819" viewBox="0,0,119.07927,66.49819"><g transform="translate(-180.46037,-146.75091)"><g data-paper-data="{&quot;isPaintingLayer&quot;:true}" fill-rule="nonzero" stroke-linecap="butt" stroke-miterlimit="10" stroke-dasharray="" stroke-dashoffset="0" style="mix-blend-mode: normal"><path d="M180.46037,213.2491v-66.49819h119.07927v66.49819z" data-paper-data="{&quot;index&quot;:null}" fill="none" stroke="none" stroke-width="0" stroke-linejoin="miter"/><path d="M275.25313,162.15999c0,0 3.09981,-0.24405 4.84847,1.52468c1.74864,1.76873 1.52468,4.92165 1.52468,4.92165v22.78736c0,0 0.24405,3.13262 -1.52468,4.92165c-1.76873,1.78904 -4.84847,1.52468 -4.84847,1.52468h-70.41273c0,0 -3.15347,0.25676 -4.93995,-1.52468c-1.78649,-1.78144 -1.52468,-4.92165 -1.52468,-4.92165v-22.78736c0,0 -0.24405,-3.13262 1.52468,-4.92165c1.76873,-1.78904 4.84847,-1.52468 4.84847,-1.52468z" data-paper-data="{&quot;index&quot;:null}" fill="#b3a88f" stroke="#b3a88f" stroke-width="6" stroke-linejoin="miter"/><path d="M275.25313,162.15999c0,0 3.09981,-0.24405 4.84847,1.52468c1.74864,1.76873 1.52468,4.92165 1.52468,4.92165v22.78736c0,0 0.24405,3.13262 -1.52468,4.92165c-1.76873,1.78904 -4.84847,1.52468 -4.84847,1.52468h-70.41273c0,0 -3.15347,0.25676 -4.93995,-1.52468c-1.78649,-1.78144 -1.52468,-4.92165 -1.52468,-4.92165v-22.78736c0,0 -0.24405,-3.13262 1.52468,-4.92165c1.76873,-1.78904 4.84847,-1.52468 4.84847,-1.52468z" data-paper-data="{&quot;index&quot;:null}" fill="#b3a88f" stroke="#807459" stroke-width="2" stroke-linejoin="miter"/><text transform="translate(205.4055,178.40424) scale(0.36702,0.36702)" font-size="40" xml:space="preserve" fill="#ffffff" fill-rule="nonzero" stroke="#ffffff" stroke-width="2" stroke-linecap="butt" stroke-linejoin="round" stroke-miterlimit="10" stroke-dasharray="" stroke-dashoffset="0" font-family="Malgun Gothic" font-weight="normal" text-anchor="start" style="mix-blend-mode: normal"><tspan x="0" dy="0">GRAPHICS</tspan></text><path d="M222.4,193.33333c-2.39323,0 -4.33333,-1.9401 -4.33333,-4.33333c0,-2.39323 1.9401,-4.33333 4.33333,-4.33333c2.39323,0 4.33333,1.9401 4.33333,4.33333c0,2.39323 -1.9401,4.33333 -4.33333,4.33333z" data-paper-data="{&quot;index&quot;:null}" fill="#807459" stroke="none" stroke-width="NaN" stroke-linejoin="miter"/><path d="M253.06667,189c0,-2.39323 1.9401,-4.33333 4.33333,-4.33333c2.39323,0 4.33333,1.9401 4.33333,4.33333c0,2.39323 -1.9401,4.33333 -4.33333,4.33333c-2.39323,0 -4.33333,-1.9401 -4.33333,-4.33333z" fill="#807459" stroke="none" stroke-width="NaN" stroke-linejoin="miter"/><path d="M240,193.33333c-2.39323,0 -4.33333,-1.9401 -4.33333,-4.33333c0,-2.39323 1.9401,-4.33333 4.33333,-4.33333c2.39323,0 4.33333,1.9401 4.33333,4.33333c0,2.39323 -1.9401,4.33333 -4.33333,4.33333z" data-paper-data="{&quot;index&quot;:null}" fill="#ffffff" stroke="none" stroke-width="NaN" stroke-linejoin="miter"/><path d="M208.16137,189.02948l0.80704,3.41928l-1.29005,0.00243l-4.14679,-3.47268l4.13154,-3.42726l1.29005,-0.00243z" data-paper-data="{&quot;index&quot;:null}" fill="#ffffff" stroke="#ffffff" stroke-width="2" stroke-linejoin="round"/><path d="M271.04685,185.54882l1.29005,0.00243l4.13154,3.42726l-4.14679,3.47268l-1.29005,-0.00243l0.80704,-3.41928z" data-paper-data="{&quot;index&quot;:null}" fill="#ffffff" stroke="#ffffff" stroke-width="2" stroke-linejoin="round"/></g></g></svg>