<svg version="1.1" xmlns="http://www.w3.org/2000/svg" xmlns:xlink="http://www.w3.org/1999/xlink" width="35" height="35" viewBox="0,0,35,35"><g transform="translate(-222.5,-162.5)"><g data-paper-data="{&quot;isPaintingLayer&quot;:true}" fill-rule="nonzero" stroke-linejoin="miter" stroke-miterlimit="10" stroke-dasharray="" stroke-dashoffset="0" style="mix-blend-mode: normal"><path d="M222.5,180c0,-9.66498 7.83502,-17.5 17.5,-17.5c9.66498,0 17.5,7.83502 17.5,17.5c0,9.66498 -7.83502,17.5 -17.5,17.5c-9.66498,0 -17.5,-7.83502 -17.5,-17.5z" fill="none" stroke="none" stroke-width="0" stroke-linecap="butt"/><path d="M230.83333,180c0,-5.06261 4.10406,-9.16667 9.16667,-9.16667c5.06261,0 9.16667,4.10406 9.16667,9.16667c0,5.06261 -4.10406,9.16667 -9.16667,9.16667c-5.06261,0 -9.16667,-4.10406 -9.16667,-9.16667z" fill="#808080" stroke="#333333" stroke-width="2" stroke-linecap="butt"/><path d="M235.14327,177.31199l-0.13224,-1.45464l6.28143,-0.26448l0.33061,2.04973l-3.9011,0.06612l-0.59509,2.64482l-2.44645,-0.33061z" fill="#808080" stroke="#4d4d4d" stroke-width="1.25" stroke-linecap="round"/><path d="M239.59987,180.35321l3.40488,-0.11947v1.97125l2.56859,0.23894l-0.23894,2.32965l-5.91373,-0.23893z" data-paper-data="{&quot;index&quot;:null}" fill="#808080" stroke="#4d4d4d" stroke-width="1.25" stroke-linecap="round"/></g></g></svg>