<svg version="1.1" xmlns="http://www.w3.org/2000/svg" xmlns:xlink="http://www.w3.org/1999/xlink" width="105.61904" height="105.61904" viewBox="0,0,105.61904,105.61904"><g transform="translate(-187.19053,-127.19052)"><g data-paper-data="{&quot;isPaintingLayer&quot;:true}" fill-rule="nonzero" stroke-miterlimit="10" stroke-dasharray="" stroke-dashoffset="0" style="mix-blend-mode: normal"><path d="M187.19054,180.00005c0,-29.16592 23.64362,-52.80952 52.80952,-52.80952c29.16592,0 52.80952,23.64361 52.80952,52.80952c0,29.16592 -23.64361,52.80952 -52.80952,52.80952c-29.16592,0 -52.80952,-23.64361 -52.80952,-52.80952z" fill="none" stroke="none" stroke-width="0" stroke-linecap="butt" stroke-linejoin="miter"/><path d="M227.1107,183.0743c0,-2.81469 2.28176,-5.09645 5.09645,-5.09645c2.81469,0 5.09645,2.28176 5.09645,5.09645c0,2.81469 -2.28176,5.09645 -5.09645,5.09645c-2.81469,0 -5.09645,-2.28176 -5.09645,-5.09645z" fill="#faad32" stroke="#c78418" stroke-width="1.5" stroke-linecap="butt" stroke-linejoin="round"/><g stroke-width="1.5"><path d="M241.19404,181.76013l-11.76134,1.19438l-1.36266,-0.63464v-4.63909l1.4497,-0.63192l11.67434,1.19166z" data-paper-data="{&quot;index&quot;:null}" fill="#808080" stroke="#595959" stroke-linecap="butt" stroke-linejoin="round"/><path d="M251.09838,182.31106l-12.43796,-0.3673v-3.92086l12.438,-0.33303z" data-paper-data="{&quot;index&quot;:null}" fill="#808080" stroke="#595959" stroke-linecap="butt" stroke-linejoin="round"/><path d="M248.92621,177.4139v5.1722" fill="none" stroke="#9e6919" stroke-linecap="round" stroke-linejoin="miter"/><path d="M240.83422,182.5861v-5.1722" fill="none" stroke="#9e6919" stroke-linecap="round" stroke-linejoin="miter"/><path d="M236.24599,177.4139v5.1722" fill="none" stroke="#9e6919" stroke-linecap="round" stroke-linejoin="miter"/><path d="M233.74331,180.00001h-3.00321" fill="none" stroke="#595959" stroke-linecap="round" stroke-linejoin="miter"/></g></g></g></svg>