<svg version="1.1" xmlns="http://www.w3.org/2000/svg" xmlns:xlink="http://www.w3.org/1999/xlink" width="49.73723" height="33.42922" viewBox="0,0,49.73723,33.42922"><g transform="translate(-211.65524,-163.28545)"><g data-paper-data="{&quot;isPaintingLayer&quot;:true}" fill-rule="nonzero" stroke-miterlimit="10" stroke-dasharray="" stroke-dashoffset="0" style="mix-blend-mode: normal"><path d="M236.52385,163.28545c13.73457,0 24.86862,7.4834 24.86862,16.71461c0,9.23124 -11.13408,16.71461 -24.86862,16.71461c-13.73456,0 -24.86861,-7.4834 -24.86861,-16.71461c0,-9.23124 11.13407,-16.71461 24.86861,-16.71461z" data-paper-data="{&quot;index&quot;:null}" fill="none" stroke="none" stroke-width="0" stroke-linecap="butt" stroke-linejoin="round"/><path d="M227.1107,183.0743c0,-2.81469 2.28176,-5.09645 5.09645,-5.09645c2.81469,0 5.09645,2.28176 5.09645,5.09645c0,2.81469 -2.28176,5.09645 -5.09645,5.09645c-2.81469,0 -5.09645,-2.28176 -5.09645,-5.09645z" fill="#faad32" stroke="#c78418" stroke-width="1.5" stroke-linecap="butt" stroke-linejoin="round"/><g><g fill="none" stroke-linecap="round" stroke-linejoin="miter"><g stroke="#cc9d52" stroke-width="3"><path d="M247.09091,177.04244l-1.91872,-1.9394"/><path d="M247.09091,182.95756l-1.91872,1.9394" data-paper-data="{&quot;index&quot;:null}"/></g><g stroke="#ffc466" stroke-width="1.5"><path d="M247.09091,177.04244l-1.91872,-1.9394"/><path d="M247.09091,182.95756l-1.91872,1.9394" data-paper-data="{&quot;index&quot;:null}"/></g></g><path d="M230.46466,182.94128v-5.89957l1.84331,-0.42333l1.59167,1.09588l12.58261,-0.28682l3.60377,-0.38026l3.08821,0.29367v5.30121l-3.02879,0.29779l-3.66317,-0.38437l-12.58821,-0.28655l-1.58367,1.09749z" data-paper-data="{&quot;index&quot;:null}" fill="#6cd998" stroke="#42a66a" stroke-width="1.5" stroke-linecap="butt" stroke-linejoin="round"/><path d="M235.20806,182.3v-4.61657l5.95155,-1.01393l4.23684,0.61956v5.40527l-4.20343,0.6355z" data-paper-data="{&quot;index&quot;:null}" fill="#79f2f2" stroke="#47b392" stroke-width="1.5" stroke-linecap="butt" stroke-linejoin="round"/></g></g></g></svg>