<svg version="1.1" xmlns="http://www.w3.org/2000/svg" xmlns:xlink="http://www.w3.org/1999/xlink" width="35" height="35" viewBox="0,0,35,35"><g transform="translate(-222.5,-162.5)"><g data-paper-data="{&quot;isPaintingLayer&quot;:true}" fill-rule="nonzero" stroke-linecap="butt" stroke-linejoin="miter" stroke-miterlimit="10" stroke-dasharray="" stroke-dashoffset="0" style="mix-blend-mode: normal"><path d="M222.5,180c0,-9.66498 7.83502,-17.5 17.5,-17.5c9.66498,0 17.5,7.83502 17.5,17.5c0,9.66498 -7.83502,17.5 -17.5,17.5c-9.66498,0 -17.5,-7.83502 -17.5,-17.5z" fill="none" stroke="none" stroke-width="0"/><path d="M230.83333,180c0,-5.06261 4.10406,-9.16667 9.16667,-9.16667c5.06261,0 9.16667,4.10406 9.16667,9.16667c0,5.06261 -4.10406,9.16667 -9.16667,9.16667c-5.06261,0 -9.16667,-4.10406 -9.16667,-9.16667z" fill="#808080" stroke="#333333" stroke-width="2"/><path d="M240,183.40994c-3.08844,0 -4.38761,-3.40994 -4.38761,-3.40994c0,0 1.29917,-3.40994 4.38761,-3.40994c3.08844,0 4.38761,3.40994 4.38761,3.40994c0,0 -1.29917,3.40994 -4.38761,3.40994z" fill="#808080" stroke="#4d4d4d" stroke-width="2"/><path d="M241.40994,180c0,1.27701 -1.40994,1.81419 -1.40994,1.81419c0,0 -1.40994,-0.53718 -1.40994,-1.81419c0,-1.27701 1.40994,-1.81419 1.40994,-1.81419c0,0 1.40994,0.53718 1.40994,1.81419z" fill="#4d4d4d" stroke="none" stroke-width="0"/></g></g></svg>