<svg version="1.1" xmlns="http://www.w3.org/2000/svg" xmlns:xlink="http://www.w3.org/1999/xlink" width="228.59167" height="98.84725" viewBox="0,0,228.59167,98.84725"><defs><linearGradient x1="-42813.07996" y1="112273.95547" x2="35212.88807" y2="-90730.88042" gradientUnits="userSpaceOnUse" id="color-1"><stop offset="0" stop-color="#ffffff"/><stop offset="1" stop-color="#ffffff" stop-opacity="0"/></linearGradient></defs><g transform="translate(-125.70417,-130.57638)"><g data-paper-data="{&quot;isPaintingLayer&quot;:true}" fill-rule="nonzero" stroke-miterlimit="10" stroke-dasharray="" stroke-dashoffset="0" style="mix-blend-mode: normal"><path d="M125.70417,229.42363v-98.84725h228.59167v98.84725z" fill="none" stroke="none" stroke-width="0" stroke-linecap="butt" stroke-linejoin="miter"/><path d="M332.43562,166.46767l2.30301,-5.02353l2.65343,4.82151l-1.52144,0.2153l0.55509,2.67309l-2.69644,0.18426l0.25353,-2.80838z" fill="#ffffff" stroke="#ffffff" stroke-width="1" stroke-linecap="round" stroke-linejoin="miter"/><path d="M317.22722,150.58746l5.42478,1.05421l-4.06035,3.715l-0.5678,-1.42784l-2.46697,1.16944l-0.81456,-2.57706l2.78902,-0.41547z" fill="#ffffff" stroke="#ffffff" stroke-width="1" stroke-linecap="round" stroke-linejoin="miter"/><g stroke-linejoin="miter"><path d="M326.41667,150.20858c0,-4.05009 3.28325,-7.33333 7.33333,-7.33333c4.05009,0 7.33333,3.28325 7.33333,7.33333c0,4.05009 -3.28325,7.33333 -7.33333,7.33333c-4.05009,0 -7.33333,-3.28325 -7.33333,-7.33333z" fill="#80b3ff" stroke="none" stroke-width="0" stroke-linecap="butt"/><g fill="none" stroke="#ffffff"><path d="M326.57174,150.24191c0,-3.96444 3.21382,-7.17826 7.17826,-7.17826c3.96444,0 7.17826,3.21382 7.17826,7.17826c0,3.96444 -3.21382,7.17826 -7.17826,7.17826c-3.96444,0 -7.17826,-3.21382 -7.17826,-7.17826z" stroke-width="1.5" stroke-linecap="butt"/><g stroke-width="1" stroke-linecap="round"><path d="M340.87305,150.24191h-14.24611"/><path d="M340.11339,146.83861h-12.72679"/><path d="M340.11339,153.64521h-12.72679" data-paper-data="{&quot;index&quot;:null}"/><path d="M333.75,157.11486v-13.82928" data-paper-data="{&quot;index&quot;:null}"/><path d="M336.2274,143.70243c0,0 1.6516,2.01336 1.6516,6.48846c0,4.4751 -1.6516,6.59051 -1.6516,6.59051" data-paper-data="{&quot;index&quot;:null}"/><path d="M331.2726,156.7814c0,0 -1.6516,-2.11541 -1.6516,-6.59051c0,-4.4751 1.6516,-6.48846 1.6516,-6.48846" data-paper-data="{&quot;index&quot;:null}"/></g></g></g><text transform="translate(149.1432,157.87566) scale(0.44693,0.44693)" font-size="40" xml:space="preserve" fill="#ffffff" fill-rule="nonzero" stroke="#ffffff" stroke-width="2" stroke-linecap="butt" stroke-linejoin="round" stroke-miterlimit="10" stroke-dasharray="" stroke-dashoffset="0" font-family="Malgun Gothic" font-weight="normal" text-anchor="start" style="mix-blend-mode: normal"><tspan x="0" dy="0">Sandbox</tspan></text><text transform="translate(151.04817,174.64176) scale(0.28303,0.28303)" font-size="40" xml:space="preserve" fill="#ffffff" fill-rule="nonzero" stroke="#ffffff" stroke-width="2" stroke-linecap="butt" stroke-linejoin="round" stroke-miterlimit="10" stroke-dasharray="" stroke-dashoffset="0" font-family="Malgun Gothic" font-weight="normal" text-anchor="start" style="mix-blend-mode: normal"><tspan x="0" dy="0">every weapon</tspan><tspan x="0" dy="48px">is free, have fun</tspan></text><text transform="translate(165.93638,213.69983) scale(0.23629,0.23629)" font-size="40" xml:space="preserve" fill="#ffffff" fill-rule="nonzero" stroke="#ffffff" stroke-width="2" stroke-linecap="butt" stroke-linejoin="round" stroke-miterlimit="10" stroke-dasharray="" stroke-dashoffset="0" font-family="Malgun Gothic" font-weight="normal" text-anchor="start" style="mix-blend-mode: normal"><tspan x="0" dy="0">assemble most powerful inventory</tspan></text><path d="M302.35354,156.48619c6.27785,15.14224 0.32521,33.55826 -15.85571,41.25276c-16.18092,7.6945 -32.58766,0.89512 -39.20632,-15.06915c-6.61866,-15.96427 -0.37926,-33.53255 15.85571,-41.25276c16.23498,-7.72021 32.92847,-0.07309 39.20632,15.06915z" fill="url(#color-1)" stroke="none" stroke-width="NaN" stroke-linecap="butt" stroke-linejoin="miter"/><g stroke-width="1" stroke-linejoin="round"><g><path d="M291.57324,165.66971c0,0 -1.10843,3.04741 -3.54301,3.94237c-2.43458,0.89494 -5.33006,-0.68063 -5.33006,-0.68063l-11.60665,-5.28689c0,0 -3.07855,-1.12261 -4.01183,-3.57465c-0.93328,-2.45203 0.64899,-5.2606 0.64899,-5.2606l2.81559,-6.18126c0,0 1.11956,-3.10381 3.58256,-4.02918c2.463,-0.92536 5.33006,0.68063 5.33006,0.68063l11.60665,5.28689c0,0 3.07855,1.12261 4.01183,3.57465c0.93328,2.45203 -0.64899,5.2606 -0.64899,5.2606z" data-paper-data="{&quot;index&quot;:null}" fill="#faad32" stroke="#c78418" stroke-linecap="butt"/><path d="M287.2002,166.41031c0,0 -0.55031,1.51296 -1.759,1.95727c-1.20869,0.44432 -2.64622,-0.33791 -2.64622,-0.33791l-11.08335,-5.04852c0,0 -1.5284,-0.55734 -1.99175,-1.77471c-0.46335,-1.21736 0.3222,-2.61174 0.3222,-2.61174l0.2084,-0.45751c0,0 0.55584,-1.54094 1.77864,-2.00037c1.2228,-0.45942 2.64622,0.33791 2.64622,0.33791l11.08335,5.04852c0,0 1.5284,0.55734 1.99175,1.77471c0.46335,1.21736 -0.3222,2.61174 -0.3222,2.61174z" data-paper-data="{&quot;index&quot;:null}" fill="#ffffff" stroke="none" stroke-linecap="butt"/><path d="M292.70299,165.85468l-3.85813,-0.39256l-0.14857,-3.54968l-16.2824,-7.43213l-2.71366,2.19563l-2.85062,-2.59759l3.1492,-6.91365c0,0 3.2532,-3.34595 5.71619,-4.27131c2.463,-0.92536 3.82019,2.21856 3.82019,2.21856l11.60665,5.28689c0,0 3.24788,-1.02594 4.18116,1.42609c0.93328,2.45203 0.56871,7.02929 0.56871,7.02929z" data-paper-data="{&quot;index&quot;:null}" fill="#333333" stroke="#262626" stroke-linecap="butt"/><path d="M285.35494,152.00454c0,0 6.99036,-2.3571 7.93635,-1.9262c0.82775,0.37705 -0.06464,5.5118 -0.06464,5.5118" data-paper-data="{&quot;index&quot;:null}" fill="#333333" stroke="#262626" stroke-linecap="round"/><path d="M274.25018,146.94629c0,0 3.28831,-4.04341 4.11605,-3.66636c0.94599,0.4309 3.75566,7.25196 3.75566,7.25196" data-paper-data="{&quot;index&quot;:null}" fill="#333333" stroke="#262626" stroke-linecap="round"/><path d="M276.08916,159.44607c-0.67335,1.47826 -2.46301,2.11008 -3.99731,1.4112c-1.53429,-0.69887 -2.23222,-2.4638 -1.55887,-3.94206c0.67335,-1.47826 2.46301,-2.11009 3.99731,-1.41121c1.53429,0.69887 2.23222,2.46381 1.55886,3.94207z" fill="#262626" stroke="none" stroke-linecap="butt"/><path d="M274.09017,157.54426c-0.26824,0.5889 -0.98119,0.8406 -1.59242,0.56218c-0.61121,-0.27841 -0.88925,-0.98151 -0.62101,-1.5704c0.26824,-0.5889 0.98119,-0.8406 1.59242,-0.56218c0.61121,0.27841 0.88925,0.98151 0.62101,1.5704z" fill="#595959" stroke="none" stroke-linecap="butt"/><path d="M286.58627,160.99556c1.5343,0.69888 2.23222,2.46381 1.55886,3.94207c-0.67335,1.47826 -2.46301,2.11008 -3.99731,1.4112c-1.5343,-0.69888 -2.23222,-2.4638 -1.55887,-3.94206c0.67335,-1.47826 2.46302,-2.11009 3.99731,-1.41121z" data-paper-data="{&quot;index&quot;:null}" fill="#262626" stroke="none" stroke-linecap="butt"/><path d="M286.14612,163.03581c-0.26824,0.5889 -0.98119,0.8406 -1.59242,0.56218c-0.61121,-0.27841 -0.88925,-0.98151 -0.62101,-1.5704c0.26824,-0.5889 0.98119,-0.8406 1.59242,-0.56218c0.61121,0.27841 0.88925,0.98151 0.62101,1.5704z" data-paper-data="{&quot;index&quot;:null}" fill="#595959" stroke="none" stroke-linecap="butt"/></g><g data-paper-data="{&quot;index&quot;:null}" stroke-linecap="butt"><path d="M291.4009,178.1461c-0.51667,2.53256 -2.98858,4.16677 -5.52114,3.65009c-2.53256,-0.51667 -4.16677,-2.98858 -3.65009,-5.52114c0.51667,-2.53256 2.98858,-4.16677 5.52114,-3.65009c2.53256,0.51667 4.16677,2.98858 3.65009,5.52114z" fill="#faad32" stroke="#c78418"/><path d="M281.70891,193.68944l-2.19025,-0.44684l0.03842,-1.87414l1.06114,-4.47077l2.56444,0.52317l-0.7603,4.49588z" data-paper-data="{&quot;index&quot;:null}" fill="#ccf0ff" stroke="#85b7cc"/><path d="M277.72431,190.58542l0.19724,4.00574l-1.47486,0.13865l-1.58024,-4.81257l3.9818,-4.32748l1.06669,1.22113z" data-paper-data="{&quot;index&quot;:null}" fill="#47b3b3" stroke="#268080"/><path d="M283.87131,187.61804l1.45979,-0.70569l1.96841,5.54141l-3.33914,3.80895l-1.30268,-0.7053l1.75061,-3.60835z" data-paper-data="{&quot;index&quot;:null}" fill="#47b3b3" stroke="#268080"/><path d="M288.05028,176.87838l-2.47611,6.1527l-5.44481,-1.11081l0.13435,-6.63323l1.43168,-2.16119l5.88295,1.2002z" data-paper-data="{&quot;index&quot;:null}" fill="#47b3b3" stroke="#268080"/><path d="M283.84608,189.23668l-4.56044,-0.93039l-1.19217,-2.20197l1.68984,-4.53375l6.24336,1.27373l-0.19538,4.80089z" data-paper-data="{&quot;index&quot;:null}" fill="#ccf0ff" stroke="#85b7cc"/></g><g data-paper-data="{&quot;index&quot;:null}" stroke-linecap="butt"><path d="M264.21191,163.93592c2.07624,1.5395 2.51135,4.47065 0.97186,6.54689c-1.5395,2.07624 -4.47065,2.51135 -6.54689,0.97186c-2.07624,-1.5395 -2.51135,-4.47065 -0.97186,-6.54689c1.5395,-2.07624 4.47065,-2.51135 6.54689,-0.97186z" fill="#faad32" stroke="#c78418"/><path d="M261.2942,164.39205l7.86116,5.8355l-4.87343,6.57252l-7.8326,-5.79615z" data-paper-data="{&quot;index&quot;:null}" fill="#b37924" stroke="#80520d"/><path d="M260.59601,175.60755l-6.94092,9.35844l-1.77869,-1.31887l6.90487,-9.31645z" data-paper-data="{&quot;index&quot;:null}" fill="#808080" stroke="#595959"/><path d="M258.23078,173.85376l-6.94092,9.35844l-1.77869,-1.31887l6.90487,-9.31645z" data-paper-data="{&quot;index&quot;:null}" fill="#808080" stroke="#595959"/><path d="M262.96125,177.36134l-6.94092,9.35844l-1.77869,-1.31887l6.90487,-9.31645z" data-paper-data="{&quot;index&quot;:null}" fill="#808080" stroke="#595959"/><path d="M255.96729,170.03191l9.34067,6.92866l-2.00244,2.70058l-9.29999,-6.89103z" data-paper-data="{&quot;index&quot;:null}" fill="#808080" stroke="#595959"/></g></g></g></g></svg>