<svg version="1.1" xmlns="http://www.w3.org/2000/svg" xmlns:xlink="http://www.w3.org/1999/xlink" width="105.61904" height="105.61904" viewBox="0,0,105.61904,105.61904"><g transform="translate(-187.1905,-127.1905)"><g data-paper-data="{&quot;isPaintingLayer&quot;:true}" fill-rule="nonzero" stroke-miterlimit="10" stroke-dasharray="" stroke-dashoffset="0" style="mix-blend-mode: normal"><path d="M187.1905,180.00002c0,-29.16592 23.64362,-52.80952 52.80952,-52.80952c29.16592,0 52.80952,23.64361 52.80952,52.80952c0,29.16592 -23.64361,52.80952 -52.80952,52.80952c-29.16592,0 -52.80952,-23.64361 -52.80952,-52.80952z" fill="none" stroke="none" stroke-width="0" stroke-linecap="butt" stroke-linejoin="miter"/><path d="M227.1107,183.07428c0,-2.81469 2.28176,-5.09645 5.09645,-5.09645c2.81469,0 5.09645,2.28176 5.09645,5.09645c0,2.81469 -2.28176,5.09645 -5.09645,5.09645c-2.81469,0 -5.09645,-2.28176 -5.09645,-5.09645z" fill="#faad32" stroke="#c78418" stroke-width="1.5" stroke-linecap="butt" stroke-linejoin="round"/><path d="M240.92954,181.89654v-3.79302l1.46856,-0.46892l3.93186,0.18293l6.67148,-0.65081l1.72516,0.15v5.36658l-1.66675,0.1546l-6.72987,-0.65541l-4.19155,0.20196z" fill="#808080" stroke="#595959" stroke-width="1.5" stroke-linecap="butt" stroke-linejoin="round"/><path d="M231.01901,182.67418v-5.34828l8.16719,-0.626l3.05514,0.626v5.34828l-3.05514,0.626z" data-paper-data="{&quot;index&quot;:null}" fill="#b37924" stroke="#80520d" stroke-width="1.5" stroke-linecap="butt" stroke-linejoin="round"/><path d="M248.43312,179.98935h3.78919" fill="none" stroke="#595959" stroke-width="1" stroke-linecap="round" stroke-linejoin="round"/></g></g></svg>