<svg version="1.1" xmlns="http://www.w3.org/2000/svg" xmlns:xlink="http://www.w3.org/1999/xlink" width="130.8" height="127.6" viewBox="0,0,130.8,127.6"><g transform="translate(-174.6,-116.2)"><g data-paper-data="{&quot;isPaintingLayer&quot;:true}" fill-rule="nonzero" stroke-miterlimit="10" stroke-dasharray="" stroke-dashoffset="0" style="mix-blend-mode: normal"><path d="M174.6,243.8v-127.6h130.8v127.6z" fill="none" stroke="none" stroke-width="0" stroke-linecap="butt" stroke-linejoin="miter"/><path d="M274.00572,135.96885c0,0 3.55619,-0.27998 5.56229,1.74915c2.00609,2.02913 1.74915,5.64625 1.74915,5.64625v73.27151c0,0 0.27998,3.59382 -1.74915,5.64625c-2.02913,2.05243 -5.56229,1.74915 -5.56229,1.74915h-67.90416c0,0 -3.61774,0.29456 -5.66724,-1.74915c-2.04951,-2.04371 -1.74915,-5.64625 -1.74915,-5.64625v-73.27151c0,0 -0.27998,-3.59382 1.74915,-5.64625c2.02913,-2.05243 5.56229,-1.74915 5.56229,-1.74915z" data-paper-data="{&quot;index&quot;:null}" fill="none" stroke="#ffffff" stroke-width="12" stroke-linecap="butt" stroke-linejoin="miter"/><path d="M274.00572,135.96885c0,0 3.55619,-0.27998 5.56229,1.74915c2.00609,2.02913 1.74915,5.64625 1.74915,5.64625v73.27151c0,0 0.27998,3.59382 -1.74915,5.64625c-2.02913,2.05243 -5.56229,1.74915 -5.56229,1.74915h-67.90416c0,0 -3.61774,0.29456 -5.66724,-1.74915c-2.04951,-2.04371 -1.74915,-5.64625 -1.74915,-5.64625v-73.27151c0,0 -0.27998,-3.59382 1.74915,-5.64625c2.02913,-2.05243 5.56229,-1.74915 5.56229,-1.74915z" data-paper-data="{&quot;index&quot;:null}" fill="#b3a88f" stroke="#807459" stroke-width="2" stroke-linecap="butt" stroke-linejoin="miter"/><g><path d="M268.85883,142.63313c0,0 3.01795,-0.2376 4.72042,1.48441c1.70246,1.72201 1.48441,4.79167 1.48441,4.79167v44.84826c0,0 0.2376,3.04988 -1.48441,4.79167c-1.72201,1.74179 -4.72042,1.48441 -4.72042,1.48441h-57.62661c0,0 -3.07018,0.24998 -4.80948,-1.48441c-1.73931,-1.73439 -1.48441,-4.79167 -1.48441,-4.79167v-44.84826c0,0 -0.2376,-3.04988 1.48441,-4.79167c1.72201,-1.74179 4.72042,-1.48441 4.72042,-1.48441z" data-paper-data="{&quot;index&quot;:null}" fill="#f2db9d" stroke="#807459" stroke-width="2" stroke-linecap="butt" stroke-linejoin="miter"/><g stroke-linejoin="miter"><g fill="#e6cc8a" stroke="none" stroke-width="0" stroke-linecap="butt"><path d="M244.70799,180.57681v-18.11084h18.11084v18.11084z"/><path d="M244.70799,161.02733v-18.11084h18.11084v18.11084z"/><path d="M264.25748,180.57681v-18.11084h10.49752v18.11084z"/><path d="M264.25748,161.02733v-18.11084c0,0 4.68595,0 6.59776,0c1.46983,0 3.89977,1.96211 3.89977,3.54454c0,3.20788 0,14.5663 0,14.5663z"/><path d="M244.70799,200.1263v-18.11084h18.11084v18.11084z"/><path d="M264.25748,200.1263v-18.11084h10.49752c0,0 0,11.22076 0,14.4466c0,1.62463 -1.97008,3.66424 -3.27475,3.66424c-1.9376,0 -7.22277,0 -7.22277,0z"/><path d="M205.60903,180.57681v-18.11084h18.11084v18.11084z"/><path d="M205.60903,161.02733c0,0 0,-13.79261 0,-16.44134c0,-0.84404 1.08386,-1.6695 2.11991,-1.6695c2.84549,0 15.99093,0 15.99093,0v18.11084z"/><path d="M225.15851,180.57681v-18.11084h18.11084v18.11084z"/><path d="M225.15851,161.02733v-18.11084h18.11084v18.11084z"/><path d="M205.60903,195.52454c0,-3.31914 0,-13.50908 0,-13.50908h18.11084v18.11084c0,0 -10.84803,0 -14.11589,0c-1.73846,0 -3.99495,-2.66456 -3.99495,-4.60176z"/><path d="M225.15851,200.1263v-18.11084h18.11084v18.11084z"/></g><path d="M275.03794,148.86c0,3.13642 0,11.6 0,11.6c0,0 -11.20009,1.32993 -11.4,-8c-0.12714,-5.93371 3.6167,-9 7.2,-9c1.84748,0 4.2,3.26006 4.2,5.4z" data-paper-data="{&quot;index&quot;:null}" fill="#4d8079" stroke="none" stroke-width="0" stroke-linecap="butt"/><g><path d="M212.93437,190.67977h22.89379" fill="none" stroke="#4d8079" stroke-width="17" stroke-linecap="round"/><path d="M205.1,193.86c0,-3.13642 0,-11.6 0,-11.6h20v17c0,0 -12.2167,0 -15.8,0c-1.84748,0 -4.2,-3.26006 -4.2,-5.4z" fill="#4d8079" stroke="none" stroke-width="0" stroke-linecap="butt"/></g></g><path d="M268.85883,142.63313c0,0 3.01795,-0.2376 4.72042,1.48441c1.70246,1.72201 1.48441,4.79167 1.48441,4.79167v44.84826c0,0 0.2376,3.04988 -1.48441,4.79167c-1.72201,1.74179 -4.72042,1.48441 -4.72042,1.48441h-57.62661c0,0 -3.07018,0.24998 -4.80948,-1.48441c-1.73931,-1.73439 -1.48441,-4.79167 -1.48441,-4.79167v-44.84826c0,0 -0.2376,-3.04988 1.48441,-4.79167c1.72201,-1.74179 4.72042,-1.48441 4.72042,-1.48441z" data-paper-data="{&quot;index&quot;:null}" fill="none" stroke="#807459" stroke-width="2" stroke-linecap="butt" stroke-linejoin="miter"/><g><g stroke-width="0.6" stroke-linejoin="round"><path d="M226.12498,151.19264c0,0 1.53754,1.14885 1.62871,2.68143c0.09116,1.53258 -1.29646,2.90421 -1.29646,2.90421l-4.97928,5.67403c0,0 -1.16221,1.55276 -2.71123,1.66266c-1.54902,0.1099 -2.87024,-1.26666 -2.87024,-1.26666l-3.02177,-2.65178c0,0 -1.56761,-1.1648 -1.67115,-2.71867c-0.10355,-1.55388 1.29646,-2.90421 1.29646,-2.90421l4.97928,-5.67403c0,0 1.16221,-1.55276 2.71123,-1.66266c1.54902,-0.1099 2.87024,1.26666 2.87024,1.26666z" data-paper-data="{&quot;index&quot;:null}" fill="#faad32" stroke="#c78418" stroke-linecap="butt"/><path d="M225.79744,153.79735c0,0 0.76335,0.57038 0.80861,1.33125c0.04526,0.76088 -0.64366,1.44185 -0.64366,1.44185l-4.75478,5.41821c0,0 -0.57701,0.77091 -1.34605,0.82546c-0.76904,0.05456 -1.42499,-0.62887 -1.42499,-0.62887l-0.22365,-0.19628c0,0 -0.77827,-0.57829 -0.82968,-1.34975c-0.05141,-0.77145 0.64366,-1.44185 0.64366,-1.44185l4.75478,-5.41821c0,0 0.57701,-0.77091 1.34605,-0.82546c0.76904,-0.05456 1.42499,0.62887 1.42499,0.62887z" data-paper-data="{&quot;index&quot;:null}" fill="#ffffff" stroke="none" stroke-linecap="butt"/><path d="M226.42284,150.58402l-0.8817,2.1193l-2.03696,-0.52234l-6.99393,7.95718l0.78056,1.91297l-1.95912,1.17157l-3.37981,-2.96597c0,0 -1.34025,-2.41529 -1.44379,-3.96916c-0.10355,-1.55388 1.91,-1.78578 1.91,-1.78578l4.97928,-5.67403c0,0 -0.02643,-2.01585 1.52259,-2.12575c1.54902,-0.1099 4.08061,0.87881 4.08061,0.87881z" data-paper-data="{&quot;index&quot;:null}" fill="#333333" stroke="#262626" stroke-linecap="butt"/><path d="M217.3185,152.38153c0,0 -0.1413,-4.36414 0.26453,-4.8266c0.3551,-0.40465 3.11245,0.97844 3.11245,0.97844" data-paper-data="{&quot;index&quot;:null}" fill="#333333" stroke="#262626" stroke-linecap="round"/><path d="M212.55454,157.81018c0,0 -1.72949,-2.55436 -1.37438,-2.95901c0.40583,-0.46246 4.75137,-0.88915 4.75137,-0.88915" data-paper-data="{&quot;index&quot;:null}" fill="#333333" stroke="#262626" stroke-linecap="round"/><path d="M219.95231,158.9039c0.72266,0.63418 0.77492,1.75632 0.11669,2.50638c-0.65821,0.75005 -1.77764,0.84399 -2.5003,0.20981c-0.72266,-0.63418 -0.77492,-1.75632 -0.11669,-2.50638c0.65821,-0.75005 1.77764,-0.84399 2.5003,-0.20981z" fill="#262626" stroke="none" stroke-linecap="butt"/><path d="M218.533,159.71175c0.28789,0.25264 0.30871,0.69967 0.04648,0.99847c-0.26221,0.2988 -0.70816,0.33622 -0.99605,0.08359c-0.28789,-0.25264 -0.30871,-0.69967 -0.04648,-0.99847c0.26221,-0.2988 0.70816,-0.33622 0.99605,-0.08359z" fill="#595959" stroke="none" stroke-linecap="butt"/><path d="M222.62404,153.22004c0.65822,-0.75006 1.77764,-0.84399 2.5003,-0.20981c0.72266,0.63418 0.77491,1.75632 0.11669,2.50638c-0.65822,0.75006 -1.77764,0.84399 -2.5003,0.20981c-0.72266,-0.63418 -0.77491,-1.75632 -0.11669,-2.50638z" data-paper-data="{&quot;index&quot;:null}" fill="#262626" stroke="none" stroke-linecap="butt"/><path d="M223.70502,153.81808c0.28789,0.25264 0.30871,0.69967 0.04648,0.99847c-0.26221,0.2988 -0.70816,0.33622 -0.99605,0.08359c-0.28789,-0.25264 -0.30871,-0.69967 -0.04648,-0.99847c0.26221,-0.2988 0.70816,-0.33622 0.99605,-0.08359z" data-paper-data="{&quot;index&quot;:null}" fill="#595959" stroke="none" stroke-linecap="butt"/></g><g><path d="M216.55179,170.4557l3.18354,-3.07778l2.15093,1.88756l-3.18354,3.07778z" fill="#ffcc4d" stroke="#cc9e29" stroke-width="0.6" stroke-linecap="butt" stroke-linejoin="round"/><path d="M217.40304,166.08626c1.0091,-1.1499 2.75932,-1.26404 3.90921,-0.25494c1.1499,1.0091 1.26404,2.75932 0.25494,3.90921c-1.0091,1.1499 -2.75932,1.26404 -3.90921,0.25494c-1.1499,-1.0091 -1.26404,-2.75932 -0.25494,-3.90921z" fill="#faad32" stroke="#c78418" stroke-width="0.6" stroke-linecap="butt" stroke-linejoin="round"/><path d="M219.27341,167.35433l1.6349,-1.86301l7.4788,6.56308l-1.6349,1.86301z" fill="#33302a" stroke="#cc9e29" stroke-width="1.2" stroke-linecap="butt" stroke-linejoin="round"/><path d="M219.27341,167.35433l1.6349,-1.86301l7.4788,6.56308l-1.6349,1.86301z" fill="#33302a" stroke="#ffcc4d" stroke-width="0.6" stroke-linecap="butt" stroke-linejoin="round"/><path d="M225.50365,170.49357l1.61675,1.41879" fill="none" stroke="#cc9e29" stroke-width="0.6" stroke-linecap="round" stroke-linejoin="round"/><path d="M225.54886,171.63221c0,0 -0.8925,-0.71868 -1.2768,-1.23778c-0.33059,-0.44656 -0.44066,-1.07385 -0.89811,-1.47266c-0.45744,-0.39882 -0.94122,-0.14973 -1.42822,-0.55592c-0.487,-0.40619 -0.73149,-1.30797 -0.73149,-1.30797" data-paper-data="{&quot;index&quot;:null}" fill="none" stroke="#ffcc4d" stroke-width="0.6" stroke-linecap="round" stroke-linejoin="miter"/></g><g data-paper-data="{&quot;index&quot;:null}"><path d="M237.24846,156.67279l-2.63825,3.55631l-2.15093,-1.88756l2.63825,-3.55631z" fill="#ffcc4d" stroke="#cc9e29" stroke-width="0.6" stroke-linecap="butt" stroke-linejoin="round"/><path d="M234.78487,155.94182c1.1499,1.0091 1.26404,2.75932 0.25494,3.90921c-1.0091,1.1499 -2.75932,1.26404 -3.90921,0.25494c-1.1499,-1.0091 -1.26404,-2.75932 -0.25494,-3.90921c1.0091,-1.1499 2.75932,-1.26404 3.90921,-0.25494z" fill="#faad32" stroke="#c78418" stroke-width="0.6" stroke-linecap="butt" stroke-linejoin="round"/><path d="M239.85471,164.44966l-1.6349,1.86301l-7.4788,-6.56308l1.6349,-1.86301z" fill="#33302a" stroke="#cc9e29" stroke-width="1.2" stroke-linecap="butt" stroke-linejoin="round"/><path d="M239.85471,164.44966l-1.6349,1.86301l-7.4788,-6.56308l1.6349,-1.86301z" fill="#33302a" stroke="#ffcc4d" stroke-width="0.6" stroke-linecap="butt" stroke-linejoin="round"/><path d="M236.29772,163.65635l1.61675,1.41879" fill="none" stroke="#cc9e29" stroke-width="0.6" stroke-linecap="round" stroke-linejoin="round"/><path d="M232.33402,159.84948c0,0 0.9259,0.1253 1.3919,0.55542c0.46601,0.43012 0.28185,0.94215 0.7367,1.34392c0.45485,0.40177 1.09112,0.42945 1.57684,0.69923c0.5646,0.31362 1.39312,1.10522 1.39312,1.10522" data-paper-data="{&quot;index&quot;:null}" fill="none" stroke="#ffcc4d" stroke-width="0.6" stroke-linecap="round" stroke-linejoin="miter"/></g></g><g><g><path d="M257.72098,174.65082c-0.76369,1.23563 -2.38446,1.61821 -3.62009,0.85452c-1.23563,-0.76369 -1.61821,-2.38446 -0.85452,-3.62009c0.76369,-1.23563 2.38446,-1.61821 3.62009,-0.85452c1.23563,0.76369 1.61821,2.38446 0.85452,3.62009z" fill="#faad32" stroke="#c78418" stroke-width="0.6" stroke-linecap="butt" stroke-linejoin="round"/><g data-paper-data="{&quot;index&quot;:null}" fill="none" stroke="#cc9d52" stroke-width="2" stroke-linecap="round" stroke-linejoin="miter"><g data-paper-data="{&quot;index&quot;:null}"><path d="M249.62895,173.84156l-1.68192,0.39184"/><path d="M251.41488,174.94536l-1.68192,0.39184"/><path d="M253.20081,176.04917l-1.68192,0.39184"/></g><g data-paper-data="{&quot;index&quot;:null}"><path d="M251.30866,168.79437l0.40166,1.6796"/><path d="M253.09459,169.89818l0.40166,1.6796"/><path d="M254.88051,171.00199l0.40166,1.6796"/></g></g><g data-paper-data="{&quot;index&quot;:null}" fill="none" stroke="#ffc466" stroke-width="0.6" stroke-linecap="round" stroke-linejoin="miter"><g data-paper-data="{&quot;index&quot;:null}"><path d="M249.62895,173.84156l-1.68192,0.39184"/><path d="M251.41488,174.94536l-1.68192,0.39184"/><path d="M253.20081,176.04917l-1.68192,0.39184"/></g><g data-paper-data="{&quot;index&quot;:null}"><path d="M251.30866,168.79437l0.40166,1.6796"/><path d="M253.09459,169.89818l0.40166,1.6796"/><path d="M254.88051,171.00199l0.40166,1.6796"/></g></g><path d="M256.36393,173.24625l-0.55162,2.12009l-1.62697,1.40245l-5.79162,-3.7918l1.9864,-3.21393z" data-paper-data="{&quot;index&quot;:null}" fill="#6cd998" stroke="#42a66a" stroke-width="0.6" stroke-linecap="butt" stroke-linejoin="round"/><path d="M254.78131,173.63507l-0.19275,0.96003l-0.76265,0.58456l-5.08746,-3.23741l0.87103,-1.40931z" data-paper-data="{&quot;index&quot;:null}" fill="#79f2f2" stroke="#47b392" stroke-width="0.6" stroke-linecap="butt" stroke-linejoin="round"/><path d="M250.51845,169.72268l-2.09907,3.39623l-2.16284,-0.93899l2.44464,-3.98128z" data-paper-data="{&quot;index&quot;:null}" fill="#6cd998" stroke="#42a66a" stroke-width="0.6" stroke-linecap="butt" stroke-linejoin="round"/></g><path d="M251.01566,184.76365c-0.76369,1.23563 -2.38446,1.61821 -3.62009,0.85452c-1.23563,-0.76369 -1.61821,-2.38446 -0.85452,-3.62009c0.76369,-1.23563 2.38446,-1.61821 3.62009,-0.85452c1.23563,0.76369 1.61821,2.38446 0.85452,3.62009z" fill="#faad32" stroke="#c78418" stroke-width="0.6" stroke-linecap="butt" stroke-linejoin="round"/><g stroke-width="0.6" stroke-linejoin="round"><path d="M257.97098,186.04155c0,0 -1.6206,-0.83348 -1.94739,-2.25409c-0.32678,-1.42062 0.75639,-2.92348 0.75639,-2.92348l3.76833,-6.09705c0,0 0.84358,-1.63696 2.27664,-1.98388c1.43305,-0.34691 2.88699,0.73384 2.88699,0.73384l3.24705,2.00687c0,0 1.65126,0.84367 1.99299,2.28227c0.34173,1.43861 -0.75639,2.92348 -0.75639,2.92348l-3.76833,6.09705c0,0 -0.84358,1.63696 -2.27664,1.98388c-1.43305,0.34691 -2.88699,-0.73384 -2.88699,-0.73384z" data-paper-data="{&quot;index&quot;:null}" fill="#faad32" stroke="#c78418" stroke-linecap="butt"/><path d="M257.86733,183.55112c0,0 -0.80458,-0.4138 -0.96682,-1.11909c-0.16224,-0.70529 0.37552,-1.45142 0.37552,-1.45142l3.59843,-5.82217c0,0 0.41882,-0.8127 1.13028,-0.98493c0.71147,-0.17224 1.43331,0.36433 1.43331,0.36433l0.24033,0.14854c0,0 0.8198,0.41886 0.98946,1.13308c0.16966,0.71422 -0.37552,1.45142 -0.37552,1.45142l-3.59843,5.82217c0,0 -0.41882,0.8127 -1.13028,0.98493c-0.71147,0.17224 -1.43331,-0.36433 -1.43331,-0.36433z" data-paper-data="{&quot;index&quot;:null}" fill="#ffffff" stroke="none" stroke-linecap="butt"/><path d="M257.78796,186.65832l0.49169,-2.12321l1.98952,0.1682l5.29501,-8.55217l-1.0322,-1.66819l1.64979,-1.40558l3.63179,2.24466c0,0 1.63537,2.05034 1.97711,3.48894c0.34173,1.43861 -1.50704,1.97293 -1.50704,1.97293l-3.76833,6.09705c0,0 0.3423,1.88331 -1.09076,2.23022c-1.43305,0.34691 -3.95918,-0.18003 -3.95918,-0.18003z" data-paper-data="{&quot;index&quot;:null}" fill="#333333" stroke="#262626" stroke-linecap="butt"/><path d="M266.02931,183.54109c0,0 0.81978,4.06395 0.51265,4.56089c-0.26875,0.43482 -3.06837,-0.42582 -3.06837,-0.42582" data-paper-data="{&quot;index&quot;:null}" fill="#333333" stroke="#262626" stroke-linecap="round"/><path d="M269.63469,177.7077c0,0 2.02173,2.11923 1.75298,2.55405c-0.30713,0.49694 -4.3087,1.581 -4.3087,1.581" data-paper-data="{&quot;index&quot;:null}" fill="#333333" stroke="#262626" stroke-linecap="round"/><path d="M262.53577,177.84901c-0.77654,-0.47995 -1.00223,-1.52239 -0.50409,-2.32837c0.49813,-0.80597 1.53147,-1.07027 2.30801,-0.59032c0.77654,0.47995 1.00223,1.52239 0.5041,2.32837c-0.49813,0.80597 -1.53147,1.07027 -2.30802,0.59032z" fill="#262626" stroke="none" stroke-linecap="butt"/><path d="M263.73743,176.86902c-0.30936,-0.1912 -0.39927,-0.60648 -0.20082,-0.92756c0.19844,-0.32107 0.61009,-0.42636 0.91945,-0.23517c0.30936,0.1912 0.39927,0.60648 0.20082,0.92756c-0.19844,0.32107 -0.61009,0.42636 -0.91945,0.23517z" fill="#595959" stroke="none" stroke-linecap="butt"/><path d="M260.92958,183.59175c-0.49814,0.80598 -1.53147,1.07027 -2.30802,0.59032c-0.77654,-0.47995 -1.00223,-1.5224 -0.50409,-2.32837c0.49814,-0.80598 1.53147,-1.07027 2.30801,-0.59032c0.77654,0.47995 1.00223,1.5224 0.5041,2.32837z" data-paper-data="{&quot;index&quot;:null}" fill="#262626" stroke="none" stroke-linecap="butt"/><path d="M259.82322,183.20209c-0.30936,-0.1912 -0.39927,-0.60648 -0.20082,-0.92756c0.19844,-0.32107 0.61009,-0.42636 0.91945,-0.23517c0.30936,0.1912 0.39927,0.60648 0.20082,0.92756c-0.19844,0.32107 -0.61009,0.42636 -0.91945,0.23517z" data-paper-data="{&quot;index&quot;:null}" fill="#595959" stroke="none" stroke-linecap="butt"/></g><g stroke-linejoin="miter"><path d="M253.43928,181.25217c1.79093,1.1069 2.34544,3.45606 1.23855,5.24699c-1.1069,1.79093 -3.45606,2.34544 -5.24699,1.23855c-1.79093,-1.1069 -2.34544,-3.45606 -1.23855,-5.24699c1.1069,-1.79093 3.45606,-2.34544 5.24699,-1.23855z" fill="#262626" stroke="none" stroke-width="0" stroke-linecap="butt"/><path d="M252.37723,188.68524c0,0 1.01348,1.72909 0.86756,2.28322c-0.17141,0.65095 -1.49277,1.43206 -1.49277,1.43206" fill="none" stroke="#ffffff" stroke-width="0.6" stroke-linecap="round"/><path d="M253.64657,187.17215l0.31172,1.32058l-3.08133,0.72735l-0.31172,-1.32057z" fill="#262626" stroke="none" stroke-width="0" stroke-linecap="butt"/></g></g></g><text transform="translate(205.53837,216.73605) scale(0.29493,0.29493)" font-size="40" xml:space="preserve" fill="#ffffff" fill-rule="nonzero" stroke="#ffffff" stroke-width="2" stroke-linecap="butt" stroke-linejoin="round" stroke-miterlimit="10" stroke-dasharray="" stroke-dashoffset="0" font-family="Malgun Gothic" font-weight="normal" text-anchor="start" style="mix-blend-mode: normal"><tspan x="0" dy="0">SANDBOX ☁</tspan></text></g></g></svg>