<svg version="1.1" xmlns="http://www.w3.org/2000/svg" xmlns:xlink="http://www.w3.org/1999/xlink" width="315.44124" height="97.35424" viewBox="0,0,315.44124,97.35424"><g transform="translate(-82.27938,-131.32288)"><g data-paper-data="{&quot;isPaintingLayer&quot;:true}" fill-rule="nonzero" stroke-linecap="butt" stroke-miterlimit="10" stroke-dasharray="" stroke-dashoffset="0" style="mix-blend-mode: normal"><path d="M249.55012,191.69336l-126.36844,23.56921l107.26821,-46.95592l126.36844,-23.56921z" fill="#ffffff" stroke="#cc9900" stroke-width="6" stroke-linejoin="miter"/><g fill="#ffc619" stroke="#cc9900" stroke-width="3" stroke-linejoin="miter"><path d="M134.0004,197.31981l1.09956,-41.81539l21.89963,-20.62022l-1.09956,41.81539z"/><path d="M323.0004,225.1158l1.09956,-41.81538l21.89963,-20.62023l-1.09956,41.81539z"/></g><path d="M84.18893,199.77628l9.641,-39.55253h301.98115l-9.641,39.55253z" fill="#cc9900" stroke="#cc9900" stroke-width="3" stroke-linejoin="miter"/><path d="M104.92867,206.49251l12.91519,-52.98497h257.22747l-12.91519,52.98497z" fill="#ffc619" stroke="#cc9900" stroke-width="3" stroke-linejoin="miter"/><path d="M249.55012,191.69336l-126.36844,23.56921l107.26821,-46.95592l126.36844,-23.56921z" fill="#ffffff" stroke="none" stroke-width="0" stroke-linejoin="miter"/><text transform="translate(130.64744,174.80631) rotate(0.01483) scale(0.70936,0.43045) skewX(-5.40487)" font-size="40" xml:space="preserve" fill="#ffffff" fill-rule="nonzero" stroke="#cc9900" stroke-width="10" stroke-linecap="butt" stroke-linejoin="round" stroke-miterlimit="10" stroke-dasharray="" stroke-dashoffset="0" font-family="Malgun Gothic" font-weight="normal" text-anchor="start" style="mix-blend-mode: normal"><tspan x="0" dy="0"> ZOMBIE TEAM</tspan><tspan x="0" dy="48px">WON THE GAME</tspan></text><text transform="translate(130.64744,174.80631) rotate(0.01483) scale(0.70936,0.43045) skewX(-5.40487)" font-size="40" xml:space="preserve" fill="#ffffff" fill-rule="nonzero" stroke="#ffffff" stroke-width="2" stroke-linecap="butt" stroke-linejoin="round" stroke-miterlimit="10" stroke-dasharray="" stroke-dashoffset="0" font-family="Malgun Gothic" font-weight="normal" text-anchor="start" style="mix-blend-mode: normal"><tspan x="0" dy="0"> ZOMBIE TEAM</tspan><tspan x="0" dy="48px">WON THE GAME</tspan></text></g></g></svg>