<svg version="1.1" xmlns="http://www.w3.org/2000/svg" xmlns:xlink="http://www.w3.org/1999/xlink" width="105.61904" height="105.61904" viewBox="0,0,105.61904,105.61904"><g transform="translate(-187.1905,-127.19049)"><g data-paper-data="{&quot;isPaintingLayer&quot;:true}" fill-rule="nonzero" stroke-miterlimit="10" stroke-dasharray="" stroke-dashoffset="0" style="mix-blend-mode: normal"><path d="M187.19051,180.00002c0,-29.16592 23.64362,-52.80952 52.80952,-52.80952c29.16592,0 52.80952,23.64361 52.80952,52.80952c0,29.16592 -23.64361,52.80952 -52.80952,52.80952c-29.16592,0 -52.80952,-23.64361 -52.80952,-52.80952z" fill="none" stroke="none" stroke-width="0" stroke-linecap="butt" stroke-linejoin="miter"/><path d="M236.50095,169.85058l0.66738,8.11939h-5.265l-0.66738,-8.11939z" data-paper-data="{&quot;index&quot;:null}" fill="#ffcc4d" stroke="#cc9e29" stroke-width="1.5" stroke-linecap="butt" stroke-linejoin="round"/><path d="M232.20715,171.82938c2.81469,0 5.09645,2.28176 5.09645,5.09645c0,2.81469 -2.28176,5.09645 -5.09645,5.09645c-2.81469,0 -5.09645,-2.28176 -5.09645,-5.09645c0,-2.81469 2.28176,-5.09645 5.09645,-5.09645z" data-paper-data="{&quot;index&quot;:null}" fill="#faad32" stroke="#c78418" stroke-width="1.5" stroke-linecap="butt" stroke-linejoin="round"/><path d="M249.54239,177.44202v4.56023h-18.30644v-4.56023z" data-paper-data="{&quot;index&quot;:null}" fill="#33302a" stroke="#cc9e29" stroke-width="3" stroke-linecap="butt" stroke-linejoin="round"/><path d="M249.54239,177.44202v4.56023h-18.30644v-4.56023z" data-paper-data="{&quot;index&quot;:null}" fill="#33302a" stroke="#ffcc4d" stroke-width="1" stroke-linecap="butt" stroke-linejoin="round"/><path d="M247.61837,180.66147h-3.95745" data-paper-data="{&quot;index&quot;:null}" fill="none" stroke="#cc9e29" stroke-width="1" stroke-linecap="round" stroke-linejoin="round"/><path d="M233.56007,180.20722c0,0 1.43241,-0.95032 2.59879,-0.92104c1.16637,0.02928 1.53306,0.9608 2.64962,0.96442c1.11656,0.00361 2.02999,-0.73025 3.02906,-0.94659c1.16134,-0.25147 3.26767,-0.16223 3.26767,-0.16223" data-paper-data="{&quot;index&quot;:null}" fill="none" stroke="#ffcc4d" stroke-width="1" stroke-linecap="round" stroke-linejoin="miter"/></g></g></svg>