<svg version="1.1" xmlns="http://www.w3.org/2000/svg" xmlns:xlink="http://www.w3.org/1999/xlink" width="130.8" height="127.6" viewBox="0,0,130.8,127.6"><g transform="translate(-174.6,-116.2)"><g data-paper-data="{&quot;isPaintingLayer&quot;:true}" fill-rule="nonzero" stroke-miterlimit="10" stroke-dasharray="" stroke-dashoffset="0" style="mix-blend-mode: normal"><path d="M174.6,243.8v-127.6h130.8v127.6z" fill="none" stroke="none" stroke-width="0" stroke-linecap="butt" stroke-linejoin="miter"/><path d="M274.00572,135.96885c0,0 3.55619,-0.27998 5.56229,1.74915c2.00609,2.02913 1.74915,5.64625 1.74915,5.64625v73.27151c0,0 0.27998,3.59382 -1.74915,5.64625c-2.02913,2.05243 -5.56229,1.74915 -5.56229,1.74915h-67.90416c0,0 -3.61774,0.29456 -5.66724,-1.74915c-2.04951,-2.04371 -1.74915,-5.64625 -1.74915,-5.64625v-73.27151c0,0 -0.27998,-3.59382 1.74915,-5.64625c2.02913,-2.05243 5.56229,-1.74915 5.56229,-1.74915z" data-paper-data="{&quot;index&quot;:null}" fill="#b3a88f" stroke="#ffffff" stroke-width="12" stroke-linecap="butt" stroke-linejoin="miter"/><path d="M274.00572,135.96885c0,0 3.55619,-0.27998 5.56229,1.74915c2.00609,2.02913 1.74915,5.64625 1.74915,5.64625v73.27151c0,0 0.27998,3.59382 -1.74915,5.64625c-2.02913,2.05243 -5.56229,1.74915 -5.56229,1.74915h-67.90416c0,0 -3.61774,0.29456 -5.66724,-1.74915c-2.04951,-2.04371 -1.74915,-5.64625 -1.74915,-5.64625v-73.27151c0,0 -0.27998,-3.59382 1.74915,-5.64625c2.02913,-2.05243 5.56229,-1.74915 5.56229,-1.74915z" data-paper-data="{&quot;index&quot;:null}" fill="#b3a88f" stroke="#807459" stroke-width="2" stroke-linecap="butt" stroke-linejoin="miter"/><text transform="translate(208.98794,217.61899) scale(0.36702,0.36702)" font-size="40" xml:space="preserve" fill="#ffffff" fill-rule="nonzero" stroke="#ffffff" stroke-width="2" stroke-linecap="butt" stroke-linejoin="round" stroke-miterlimit="10" stroke-dasharray="" stroke-dashoffset="0" font-family="Malgun Gothic" font-weight="normal" text-anchor="start" style="mix-blend-mode: normal"><tspan x="0" dy="0">TEAMS ☁</tspan></text><g><path d="M268.85883,142.63313c0,0 3.01795,-0.2376 4.72042,1.48441c1.70246,1.72201 1.48441,4.79167 1.48441,4.79167v44.84826c0,0 0.2376,3.04988 -1.48441,4.79167c-1.72201,1.74179 -4.72042,1.48441 -4.72042,1.48441h-57.62661c0,0 -3.07018,0.24998 -4.80948,-1.48441c-1.73931,-1.73439 -1.48441,-4.79167 -1.48441,-4.79167v-44.84826c0,0 -0.2376,-3.04988 1.48441,-4.79167c1.72201,-1.74179 4.72042,-1.48441 4.72042,-1.48441z" data-paper-data="{&quot;index&quot;:null}" fill="#f2db9d" stroke="#807459" stroke-width="2" stroke-linecap="butt" stroke-linejoin="miter"/><g fill="#e6cc8a" stroke="none" stroke-width="0" stroke-linecap="butt" stroke-linejoin="miter"><path d="M244.70799,180.57681v-18.11084h18.11084v18.11084z"/><path d="M244.70799,161.02733v-18.11084h18.11084v18.11084z"/><path d="M264.25748,180.57681v-18.11084h10.49752v18.11084z"/><path d="M264.25748,161.02733v-18.11084c0,0 4.68595,0 6.59776,0c1.46983,0 3.89977,1.96211 3.89977,3.54454c0,3.20788 0,14.5663 0,14.5663z"/><path d="M244.70799,200.1263v-18.11084h18.11084v18.11084z"/><path d="M264.25748,200.1263v-18.11084h10.49752c0,0 0,11.22076 0,14.4466c0,1.62463 -1.97008,3.66424 -3.27475,3.66424c-1.9376,0 -7.22277,0 -7.22277,0z"/><path d="M205.60903,180.57681v-18.11084h18.11084v18.11084z"/><path d="M205.60903,161.02733c0,0 0,-13.79261 0,-16.44134c0,-0.84404 1.08386,-1.6695 2.11991,-1.6695c2.84549,0 15.99093,0 15.99093,0v18.11084z"/><path d="M225.15851,180.57681v-18.11084h18.11084v18.11084z"/><path d="M225.15851,161.02733v-18.11084h18.11084v18.11084z"/><path d="M205.60903,195.52454c0,-3.31914 0,-13.50908 0,-13.50908h18.11084v18.11084c0,0 -10.84803,0 -14.11589,0c-1.73846,0 -3.99495,-2.66456 -3.99495,-4.60176z"/><path d="M225.15851,200.1263v-18.11084h18.11084v18.11084z"/></g><g stroke-width="0.6"><g stroke-linejoin="round"><path d="M226.83656,149.66031c0,0 1.69897,0.42788 2.3141,1.68711c0.61512,1.25923 -0.0722,2.90227 -0.0722,2.90227l-2.2022,6.52955c0,0 -0.43379,1.71649 -1.70029,2.35317c-1.2665,0.63669 -2.86321,-0.05902 -2.86321,-0.05902l-3.47739,-1.17281c0,0 -1.7299,-0.43076 -2.36294,-1.70358c-0.63304,-1.27283 0.0722,-2.90227 0.0722,-2.90227l2.2022,-6.52955c0,0 0.43379,-1.71649 1.70029,-2.35317c1.2665,-0.63669 2.86321,0.05902 2.86321,0.05902z" data-paper-data="{&quot;index&quot;:null}" fill="#faad32" stroke="#c78418" stroke-linecap="butt"/><path d="M224.95301,149.02505l-4.5238,13.41308l-2.02624,-0.68339l4.49534,-13.42268z" data-paper-data="{&quot;index&quot;:null}" fill="#fa4b7f" stroke="#c72858" stroke-linecap="butt"/><path d="M217.72742,160.00246l-2.19732,-2.01031l3.69087,-2.41807" fill="#faad32" stroke="#c78418" stroke-linecap="round"/><path d="M227.47551,151.96992c0,0 0.84349,0.21244 1.14888,0.83761c0.30539,0.62517 -0.03585,1.44089 -0.03585,1.44089l-2.10292,6.23515c0,0 -0.21537,0.85219 -0.84414,1.16828c-0.62878,0.3161 -1.42149,-0.02931 -1.42149,-0.02931l-0.25738,-0.0868c0,0 -0.85885,-0.21386 -1.17314,-0.84578c-0.31428,-0.63191 0.03585,-1.44089 0.03585,-1.44089l2.10292,-6.23515c0,0 0.21537,-0.85219 0.84414,-1.16828c0.62878,-0.3161 1.42149,0.02931 1.42149,0.02931z" data-paper-data="{&quot;index&quot;:null}" fill="#ffffff" stroke="none" stroke-linecap="butt"/><path d="M219.8344,153.75527l-1.47248,-4.1595l2.96603,-0.26888" data-paper-data="{&quot;index&quot;:null}" fill="#faad32" stroke="#c78418" stroke-linecap="round"/><path d="M224.34446,158.32548c0.83163,0.28048 1.2698,1.20757 0.97869,2.07072c-0.29111,0.86314 -1.20127,1.33549 -2.0329,1.05501c-0.83163,-0.28048 -1.2698,-1.20757 -0.97869,-2.07072c0.29111,-0.86314 1.20127,-1.33549 2.0329,-1.05501z" fill="#262626" stroke="none" stroke-linecap="butt"/><path d="M223.43241,159.50466c0.33129,0.11174 0.50585,0.48107 0.38988,0.82492c-0.11597,0.34385 -0.47855,0.53203 -0.80985,0.42029c-0.33129,-0.11174 -0.50585,-0.48107 -0.38988,-0.82492c0.11597,-0.34385 0.47855,-0.53203 0.80985,-0.42029z" fill="#595959" stroke="none" stroke-linecap="butt"/><path d="M224.59903,152.59818c0.29111,-0.86314 1.20127,-1.33549 2.0329,-1.05501c0.83163,0.28048 1.2698,1.20758 0.97869,2.07072c-0.29111,0.86314 -1.20127,1.33549 -2.0329,1.05501c-0.83163,-0.28048 -1.2698,-1.20758 -0.97869,-2.07072z" data-paper-data="{&quot;index&quot;:null}" fill="#262626" stroke="none" stroke-linecap="butt"/><path d="M225.71986,152.72235c0.33129,0.11174 0.50585,0.48107 0.38988,0.82492c-0.11597,0.34385 -0.47855,0.53203 -0.80985,0.42029c-0.33129,-0.11174 -0.50585,-0.48107 -0.38988,-0.82492c0.11597,-0.34385 0.47855,-0.53203 0.80985,-0.42029z" data-paper-data="{&quot;index&quot;:null}" fill="#595959" stroke="none" stroke-linecap="butt"/></g><g stroke-linecap="butt"><path d="M232.89169,157.16273c0.4463,-1.32328 1.88082,-2.03421 3.2041,-1.5879c1.32328,0.4463 2.03421,1.88082 1.5879,3.2041c-0.4463,1.32328 -1.88082,2.03421 -3.2041,1.5879c-1.32328,-0.4463 -2.03421,-1.88082 -1.5879,-3.2041z" fill="#faad32" stroke="#c78418" stroke-linejoin="round"/><g><path d="M227.83679,159.23351c0.4463,-1.32328 1.88082,-2.03421 3.2041,-1.5879c1.32328,0.4463 2.03421,1.88082 1.5879,3.2041c-0.4463,1.32328 -1.88082,2.03421 -3.2041,1.5879c-1.32328,-0.4463 -2.03421,-1.88082 -1.5879,-3.2041z" fill="#faad32" stroke="#c78418" stroke-linejoin="round"/><path d="M234.51618,161.55786l-1.9915,-1.27383l-2.27613,-0.36211l-0.77527,-0.33352l0.85825,-2.54471l0.84619,0.21548l2.00323,1.07904l2.38604,0.21144l5.67492,2.30704l-0.77753,2.30539z" data-paper-data="{&quot;index&quot;:null}" fill="#637ea6" stroke="#335080" stroke-linejoin="round"/><path d="M233.58939,159.56398c0.39062,-1.15819 1.27349,-1.90613 1.97194,-1.67056c0.69845,0.23557 0.948,1.36543 0.55738,2.52362c-0.39062,1.15819 -1.27349,1.90613 -1.97194,1.67056c-0.69845,-0.23557 -0.948,-1.36543 -0.55738,-2.52362z" fill="#cce0ff" stroke="#85a1cc" stroke-linejoin="miter"/></g></g></g><g stroke="none" stroke-width="0" stroke-linecap="butt" stroke-linejoin="miter"><path d="M263.11614,162.03419v-19.21237c0,0 4.10645,0 8.22303,0c1.54037,0 4.11057,3.00217 4.03201,4.50595c-0.25757,4.93028 0.04744,14.70642 0.04744,14.70642z" fill="#996e2e"/><path d="M264.73521,160.41514v-15.97423c0,0 6.62283,0 8.63777,0c1.08452,0 2.0175,2.53185 1.94993,3.79884c-0.21749,4.07801 -0.44285,8.15702 -0.0829,12.17539z" fill="#cc9b52"/><path d="M265.21605,161.57134l-1.63705,-1.63704l11.76746,-12.13724c-0.06098,1.15044 -0.12429,2.30114 -0.17662,3.45071z" fill="#996e2e"/><path d="M265.21605,143.2847l9.86834,10.23812c-0.03026,1.08473 -0.04286,2.16765 -0.02652,3.24757l-11.47887,-11.84865z" data-paper-data="{&quot;index&quot;:null}" fill="#996e2e"/></g><g stroke-width="0.6" stroke-linejoin="round"><g><path d="M262.67599,180.9738c0,0 -1.80732,-0.08713 -2.68664,-1.23676c-0.87931,-1.14963 -0.5181,-2.95319 -0.5181,-2.95319l0.89957,-7.05958c0,0 0.08955,-1.82626 1.24214,-2.72889c1.1526,-0.90262 2.91094,-0.52349 2.91094,-0.52349l3.75966,0.47908c0,0 1.83922,0.08374 2.73944,1.24349c0.90022,1.15975 0.5181,2.95319 0.5181,2.95319l-0.89957,7.05958c0,0 -0.08955,1.82626 -1.24214,2.72889c-1.1526,0.90262 -2.91094,0.52349 -2.91094,0.52349z" data-paper-data="{&quot;index&quot;:null}" fill="#faad32" stroke="#c78418" stroke-linecap="butt"/><path d="M264.71244,181.23329l1.84791,-14.50191l2.19073,0.27915l-1.81713,14.50583z" data-paper-data="{&quot;index&quot;:null}" fill="#616ff2" stroke="#3947bf" stroke-linecap="butt"/><path d="M269.79199,168.64707l2.63424,1.58778l-3.24434,3.20008" fill="#faad32" stroke="#c78418" stroke-linecap="round"/><path d="M261.55859,178.76554c0,0 -0.89729,-0.04326 -1.33384,-0.61402c-0.43655,-0.57076 -0.25722,-1.46617 -0.25722,-1.46617l0.85901,-6.7413c0,0 0.04446,-0.90668 0.61669,-1.35481c0.57223,-0.44813 1.4452,-0.2599 1.4452,-0.2599l0.27827,0.03546c0,0 0.91312,0.04158 1.36006,0.61736c0.44693,0.57578 0.25722,1.46617 0.25722,1.46617l-0.85901,6.7413c0,0 -0.04446,0.90668 -0.61669,1.35481c-0.57223,0.44813 -1.4452,0.2599 -1.4452,0.2599z" data-paper-data="{&quot;index&quot;:null}" fill="#ffffff" stroke="none" stroke-linecap="butt"/><path d="M268.93132,175.40138l2.33815,3.91143l-2.94825,0.87643" data-paper-data="{&quot;index&quot;:null}" fill="#faad32" stroke="#c78418" stroke-linecap="round"/><path d="M263.43402,171.69289c-0.89913,-0.11457 -1.53163,-0.96397 -1.41271,-1.89718c0.11891,-0.93321 0.9442,-1.59685 1.84334,-1.48228c0.89913,0.11457 1.53163,0.96397 1.41272,1.89718c-0.11891,0.93321 -0.94421,1.59685 -1.84334,1.48228z" fill="#262626" stroke="none" stroke-linecap="butt"/><path d="M264.11726,170.31322c-0.35819,-0.04564 -0.61016,-0.38402 -0.56278,-0.75578c0.04737,-0.37176 0.37614,-0.63614 0.73433,-0.5905c0.35819,0.04564 0.61016,0.38402 0.56278,0.75578c-0.04737,0.37176 -0.37614,0.63614 -0.73433,0.5905z" fill="#595959" stroke="none" stroke-linecap="butt"/><path d="M264.34297,177.54349c-0.11892,0.93322 -0.94421,1.59685 -1.84334,1.48228c-0.89913,-0.11457 -1.53163,-0.96397 -1.41271,-1.89718c0.11892,-0.93322 0.9442,-1.59685 1.84334,-1.48228c0.89913,0.11457 1.53163,0.96397 1.41272,1.89718z" data-paper-data="{&quot;index&quot;:null}" fill="#262626" stroke="none" stroke-linecap="butt"/><path d="M263.18286,177.64608c-0.35819,-0.04564 -0.61016,-0.38402 -0.56278,-0.75578c0.04737,-0.37176 0.37614,-0.63614 0.73433,-0.5905c0.35819,0.04564 0.61016,0.38402 0.56278,0.75578c-0.04737,0.37176 -0.37614,0.63614 -0.73433,0.5905z" data-paper-data="{&quot;index&quot;:null}" fill="#595959" stroke="none" stroke-linecap="butt"/></g><g><path d="M255.97018,174.88945c-0.18231,1.43069 -1.4899,2.44271 -2.9206,2.26041c-1.43069,-0.18231 -2.44271,-1.4899 -2.26041,-2.9206c0.18231,-1.43069 1.4899,-2.44271 2.9206,-2.26041c1.43069,0.18231 2.44271,1.4899 2.26041,2.9206z" fill="#faad32" stroke="#c78418" stroke-linecap="butt"/><g><path d="M259.55053,171.52545c-0.18231,1.43069 -1.4899,2.44271 -2.9206,2.26041c-1.43069,-0.18231 -2.44271,-1.4899 -2.26041,-2.9206c0.18231,-1.43069 1.4899,-2.44271 2.9206,-2.26041c1.43069,0.18231 2.44271,1.4899 2.26041,2.9206z" fill="#faad32" stroke="#c78418" stroke-linecap="butt"/><path d="M257.42025,171.52062l-0.33137,2.60053l-8.90946,-1.13529l0.33137,-2.60053z" fill="#808080" stroke="#595959" stroke-linecap="butt"/><path d="M251.37639,172.07736l-1.92603,-0.24542" fill="none" stroke="#595959" stroke-linecap="round"/></g></g></g><g><g stroke-width="0.6" stroke-linejoin="round"><path d="M216.30626,181.13405c0,0 1.65034,-0.58819 2.86142,0.11702c1.21107,0.70522 1.55248,2.4532 1.55248,2.4532l1.79682,6.65253c0,0 0.59301,1.66819 -0.10627,2.90122c-0.69928,1.23305 -2.4134,1.54174 -2.4134,1.54174l-3.54288,0.95692c0,0 -1.67765,0.60298 -2.91118,-0.10358c-1.23353,-0.70657 -1.55248,-2.4532 -1.55248,-2.4532l-1.79682,-6.65253c0,0 -0.59301,-1.66819 0.10627,-2.90122c0.69928,-1.23305 2.4134,-1.54174 2.4134,-1.54174z" data-paper-data="{&quot;index&quot;:null}" fill="#faad32" stroke="#c78418" stroke-linecap="butt"/><path d="M214.38723,181.65237l3.69105,13.66571l-2.06441,0.55758l-3.72004,-13.65788z" data-paper-data="{&quot;index&quot;:null}" fill="#fa4b7f" stroke="#c72858" stroke-linecap="butt"/><path d="M214.47862,194.79407l-2.94389,-0.45063l1.72528,-4.06116" fill="#faad32" stroke="#c78418" stroke-linecap="round"/><path d="M218.12074,182.69937c0,0 0.81935,-0.29201 1.42061,0.05811c0.60126,0.35012 0.77076,1.21794 0.77076,1.21794l1.7158,6.35259c0,0 0.29441,0.82821 -0.05276,1.44037c-0.34717,0.61217 -1.19818,0.76541 -1.19818,0.76541l-0.26222,0.07083c0,0 -0.83291,0.29937 -1.44532,-0.05142c-0.6124,-0.35079 -0.77076,-1.21794 -0.77076,-1.21794l-1.7158,-6.35259c0,0 -0.29441,-0.82821 0.05276,-1.44037c0.34717,-0.61217 1.19818,-0.76541 1.19818,-0.76541z" data-paper-data="{&quot;index&quot;:null}" fill="#ffffff" stroke="none" stroke-linecap="butt"/><path d="M212.7595,188.42922l-3.53532,-2.64029l2.31671,-1.8715" data-paper-data="{&quot;index&quot;:null}" fill="#faad32" stroke="#c78418" stroke-linecap="round"/><path d="M219.0486,189.7233c0.84729,-0.22885 1.7267,0.29853 1.96423,1.17793c0.23752,0.8794 -0.25679,1.77782 -1.10408,2.00667c-0.84729,0.22885 -1.7267,-0.29853 -1.96423,-1.17793c-0.23752,-0.8794 0.25679,-1.77782 1.10408,-2.00667z" fill="#262626" stroke="none" stroke-linecap="butt"/><path d="M218.94544,191.21047c0.33753,-0.09116 0.68787,0.11893 0.78249,0.46926c0.09462,0.35033 -0.10229,0.70824 -0.43983,0.7994c-0.33753,0.09116 -0.68787,-0.11893 -0.78249,-0.46926c-0.09462,-0.35033 0.10229,-0.70824 0.43983,-0.7994z" fill="#595959" stroke="none" stroke-linecap="butt"/><path d="M216.07816,184.81991c-0.23752,-0.8794 0.25679,-1.77782 1.10408,-2.00667c0.84729,-0.22885 1.72671,0.29853 1.96423,1.17793c0.23752,0.8794 -0.25679,1.77782 -1.10408,2.00667c-0.84729,0.22885 -1.72671,-0.29853 -1.96423,-1.17793z" data-paper-data="{&quot;index&quot;:null}" fill="#262626" stroke="none" stroke-linecap="butt"/><path d="M217.07906,184.30042c0.33753,-0.09116 0.68787,0.11893 0.78249,0.46926c0.09462,0.35033 -0.10229,0.70824 -0.43983,0.7994c-0.33753,0.09116 -0.68787,-0.11893 -0.78249,-0.46926c-0.09462,-0.35033 0.10229,-0.70824 0.43983,-0.7994z" data-paper-data="{&quot;index&quot;:null}" fill="#595959" stroke="none" stroke-linecap="butt"/></g><g stroke-linecap="butt"><path d="M225.50915,184.00767c-0.36414,-1.3482 0.43359,-2.73633 1.7818,-3.10046c1.3482,-0.36414 2.73633,0.43359 3.10046,1.7818c0.36414,1.3482 -0.43359,2.73633 -1.7818,3.10046c-1.3482,0.36414 -2.73633,-0.43359 -3.10046,-1.7818z" fill="#faad32" stroke="#c78418" stroke-width="0.6" stroke-linejoin="round"/><g fill="none" stroke="none" stroke-width="1" stroke-linejoin="miter" font-family="sans-serif" font-weight="normal" font-size="12" text-anchor="start"/></g><path d="M222.84943,188.44952c-0.2635,-1.45226 0.70019,-2.84315 2.15245,-3.10665c1.45226,-0.2635 2.84315,0.70019 3.10665,2.15245c0.2635,1.45226 -0.70019,2.84315 -2.15245,3.10665c-1.45226,0.2635 -2.84315,-0.70019 -3.10665,-2.15245z" fill="#faad32" stroke="#c78418" stroke-width="0.6" stroke-linecap="butt" stroke-linejoin="round"/><path d="M229.8691,186.54822l-0.35508,-1.95704l0.71382,-0.37942l2.0458,-0.27369l3.38127,-0.96034l0.90415,-0.08411l0.50239,2.76892l-0.8455,0.2358l-3.53368,0.29185l-2.14375,0.49659z" fill="#808080" stroke="#595959" stroke-width="0.6" stroke-linecap="butt" stroke-linejoin="round"/><path d="M224.82849,187.87721l-0.50068,-2.75948l4.15532,-1.08756l1.63492,0.03698l0.50068,2.75948l-1.51772,0.60899z" data-paper-data="{&quot;index&quot;:null}" fill="#b37924" stroke="#80520d" stroke-width="0.6" stroke-linecap="butt" stroke-linejoin="round"/><path d="M235.51715,184.50702l-1.95506,0.35472" fill="none" stroke="#595959" stroke-width="0.6" stroke-linecap="round" stroke-linejoin="round"/></g><path d="M268.85883,142.63313c0,0 3.01795,-0.2376 4.72042,1.48441c1.70246,1.72201 1.48441,4.79167 1.48441,4.79167v44.84826c0,0 0.2376,3.04988 -1.48441,4.79167c-1.72201,1.74179 -4.72042,1.48441 -4.72042,1.48441h-57.62661c0,0 -3.07018,0.24998 -4.80948,-1.48441c-1.73931,-1.73439 -1.48441,-4.79167 -1.48441,-4.79167v-44.84826c0,0 -0.2376,-3.04988 1.48441,-4.79167c1.72201,-1.74179 4.72042,-1.48441 4.72042,-1.48441z" data-paper-data="{&quot;index&quot;:null}" fill="none" stroke="#807459" stroke-width="2" stroke-linecap="butt" stroke-linejoin="miter"/></g></g></g></svg>