<svg version="1.1" xmlns="http://www.w3.org/2000/svg" xmlns:xlink="http://www.w3.org/1999/xlink" width="349.70627" height="130.66517" viewBox="0,0,349.70627,130.66517"><g transform="translate(-65.14687,-114.6674)"><g data-paper-data="{&quot;isPaintingLayer&quot;:true}" fill-rule="nonzero" stroke-linecap="butt" stroke-miterlimit="10" stroke-dasharray="" stroke-dashoffset="0" style="mix-blend-mode: normal"><path d="M65.14687,245.33258v-130.66517h349.70627v130.66517z" fill="none" stroke="none" stroke-width="0" stroke-linejoin="miter"/><path d="M376.32617,142.39085c0,0 7.09426,-0.55853 11.09623,3.48938c4.00195,4.04792 3.48938,11.26372 3.48938,11.26372v45.7121c0,0 0.55853,7.16932 -3.48938,11.26372c-4.04792,4.0944 -11.09623,3.48938 -11.09623,3.48938h-272.43825c0,0 -7.21704,0.58762 -11.30559,-3.48938c-4.08858,-4.07701 -3.48938,-11.26372 -3.48938,-11.26372v-45.7121c0,0 -0.55853,-7.16932 3.48938,-11.26372c4.04792,-4.0944 11.09623,-3.48938 11.09623,-3.48938z" data-paper-data="{&quot;index&quot;:null}" fill="#b3a88f" stroke="#b3a88f" stroke-width="6" stroke-linejoin="miter"/><path d="M376.32617,142.39085c0,0 7.09426,-0.55853 11.09623,3.48938c4.00195,4.04792 3.48938,11.26372 3.48938,11.26372v45.7121c0,0 0.55853,7.16932 -3.48938,11.26372c-4.04792,4.0944 -11.09623,3.48938 -11.09623,3.48938h-272.43825c0,0 -7.21704,0.58762 -11.30559,-3.48938c-4.08858,-4.07701 -3.48938,-11.26372 -3.48938,-11.26372v-45.7121c0,0 -0.55853,-7.16932 3.48938,-11.26372c4.04792,-4.0944 11.09623,-3.48938 11.09623,-3.48938z" data-paper-data="{&quot;index&quot;:null}" fill="#b3a88f" stroke="#807459" stroke-width="2" stroke-linejoin="miter"/><path d="M164.19219,151.07742c0,0 3.01795,-0.2376 4.72042,1.48441c1.70246,1.72201 1.48441,4.79167 1.48441,4.79167v44.84826c0,0 0.2376,3.04988 -1.48441,4.79167c-1.72201,1.74179 -4.72042,1.48441 -4.72042,1.48441h-57.62661c0,0 -3.07018,0.24998 -4.80948,-1.48441c-1.73931,-1.73439 -1.48441,-4.79167 -1.48441,-4.79167v-44.84826c0,0 -0.2376,-3.04988 1.48441,-4.79167c1.72201,-1.74179 4.72042,-1.48441 4.72042,-1.48441z" data-paper-data="{&quot;index&quot;:null}" fill="none" stroke="#807459" stroke-width="2" stroke-linejoin="miter"/><text transform="translate(179.59572,185.41572) scale(0.45131,0.45131)" font-size="40" xml:space="preserve" fill="#807459" fill-rule="nonzero" stroke="#807459" stroke-width="2" stroke-linecap="butt" stroke-linejoin="round" stroke-miterlimit="10" stroke-dasharray="" stroke-dashoffset="0" font-family="Malgun Gothic" font-weight="normal" text-anchor="start" style="mix-blend-mode: normal"><tspan x="0" dy="0">Players</tspan></text><text transform="translate(179.59572,206.96644) scale(0.45131,0.45131)" font-size="40" xml:space="preserve" fill="#807459" fill-rule="nonzero" stroke="#807459" stroke-width="2" stroke-linecap="butt" stroke-linejoin="round" stroke-miterlimit="10" stroke-dasharray="" stroke-dashoffset="0" font-family="Malgun Gothic" font-weight="normal" text-anchor="start" style="mix-blend-mode: normal"><tspan x="0" dy="0">Room ID</tspan></text></g></g></svg>