<svg version="1.1" xmlns="http://www.w3.org/2000/svg" xmlns:xlink="http://www.w3.org/1999/xlink" width="349.70627" height="130.66517" viewBox="0,0,349.70627,130.66517"><g transform="translate(-65.14686,-114.66741)"><g data-paper-data="{&quot;isPaintingLayer&quot;:true}" fill-rule="nonzero" stroke-miterlimit="10" stroke-dasharray="" stroke-dashoffset="0" style="mix-blend-mode: normal"><path d="M65.14686,245.33258v-130.66517h349.70627v130.66517z" fill="none" stroke="none" stroke-width="0" stroke-linecap="butt" stroke-linejoin="miter"/><path d="M376.32616,142.39085c0,0 7.09426,-0.55853 11.09623,3.48938c4.00195,4.04792 3.48938,11.26372 3.48938,11.26372v45.7121c0,0 0.55853,7.16932 -3.48938,11.26372c-4.04792,4.0944 -11.09623,3.48938 -11.09623,3.48938h-272.43825c0,0 -7.21704,0.58762 -11.30559,-3.48938c-4.08858,-4.07701 -3.48938,-11.26372 -3.48938,-11.26372v-45.7121c0,0 -0.55853,-7.16932 3.48938,-11.26372c4.04792,-4.0944 11.09623,-3.48938 11.09623,-3.48938z" data-paper-data="{&quot;index&quot;:null}" fill="#b3a88f" stroke="#b3a88f" stroke-width="6" stroke-linecap="butt" stroke-linejoin="miter"/><path d="M376.32616,142.39085c0,0 7.09426,-0.55853 11.09623,3.48938c4.00195,4.04792 3.48938,11.26372 3.48938,11.26372v45.7121c0,0 0.55853,7.16932 -3.48938,11.26372c-4.04792,4.0944 -11.09623,3.48938 -11.09623,3.48938h-272.43825c0,0 -7.21704,0.58762 -11.30559,-3.48938c-4.08858,-4.07701 -3.48938,-11.26372 -3.48938,-11.26372v-45.7121c0,0 -0.55853,-7.16932 3.48938,-11.26372c4.04792,-4.0944 11.09623,-3.48938 11.09623,-3.48938z" data-paper-data="{&quot;index&quot;:null}" fill="#b3a88f" stroke="#807459" stroke-width="2" stroke-linecap="butt" stroke-linejoin="miter"/><g><path d="M163.85883,151.2601c0,0 3.01795,-0.2376 4.72042,1.48441c1.70246,1.72201 1.48441,4.79167 1.48441,4.79167v44.84826c0,0 0.2376,3.04988 -1.48441,4.79167c-1.72201,1.74179 -4.72042,1.48441 -4.72042,1.48441h-57.62661c0,0 -3.07018,0.24998 -4.80948,-1.48441c-1.73931,-1.73439 -1.48441,-4.79167 -1.48441,-4.79167v-44.84826c0,0 -0.2376,-3.04988 1.48441,-4.79167c1.72201,-1.74179 4.72042,-1.48441 4.72042,-1.48441z" data-paper-data="{&quot;index&quot;:null}" fill="#73d99c" stroke="#807459" stroke-width="2" stroke-linecap="butt" stroke-linejoin="miter"/><g data-paper-data="{&quot;index&quot;:null}" fill="#66cc8f" stroke="none" stroke-width="0" stroke-linecap="butt" stroke-linejoin="miter"><path d="M139.70802,189.20381v-18.11084h18.11084v18.11084z"/><path d="M139.70802,169.65432v-18.11084h18.11084v18.11084z"/><path d="M159.25747,189.20381v-18.11084h10.49752v18.11084z"/><path d="M159.25747,169.65432v-18.11084c0,0 4.68595,0 6.59775,0c1.46982,0 3.89977,1.96211 3.89977,3.54454c0,3.20788 0,14.5663 0,14.5663z"/><path d="M139.70802,208.75327v-18.11084h18.11084v18.11084z"/><path d="M159.25747,208.75327v-18.11084h10.49752c0,0 0,11.22075 0,14.4466c0,1.62462 -1.97008,3.66424 -3.27475,3.66424c-1.9376,0 -7.22277,0 -7.22277,0z"/><path d="M100.60906,189.20381v-18.11084h18.11084v18.11084z"/><path d="M100.60906,169.65432c0,0 0,-13.7926 0,-16.44134c0,-0.84404 1.08386,-1.6695 2.11991,-1.6695c2.84549,0 15.99093,0 15.99093,0v18.11084z"/><path d="M120.15854,189.20381v-18.11084h18.11084v18.11084z"/><path d="M120.15854,169.65432v-18.11084h18.11084v18.11084z"/><path d="M100.60906,204.15153c0,-3.31914 0,-13.50908 0,-13.50908h18.11084v18.11084c0,0 -10.84804,0 -14.1159,0c-1.73846,0 -3.99494,-2.66456 -3.99494,-4.60176z"/><path d="M120.15854,208.75327v-18.11084h18.11084v18.11084z"/></g><path d="M163.85883,151.2601c0,0 3.01795,-0.2376 4.72042,1.48441c1.70246,1.72201 1.48441,4.79167 1.48441,4.79167v44.84826c0,0 0.2376,3.04988 -1.48441,4.79167c-1.72201,1.74179 -4.72042,1.48441 -4.72042,1.48441h-57.62661c0,0 -3.07018,0.24998 -4.80948,-1.48441c-1.73931,-1.73439 -1.48441,-4.79167 -1.48441,-4.79167v-44.84826c0,0 -0.2376,-3.04988 1.48441,-4.79167c1.72201,-1.74179 4.72042,-1.48441 4.72042,-1.48441z" data-paper-data="{&quot;index&quot;:null}" fill="none" stroke="#807459" stroke-width="2" stroke-linecap="butt" stroke-linejoin="miter"/><g stroke-width="0.6" stroke-linejoin="round"><g><path d="M161.18956,172.4886c0,0 -1.19122,1.39482 -2.65842,1.38645c-1.4672,-0.00838 -2.68895,-1.41698 -2.68895,-1.41698l-5.10133,-5.10133c0,0 -1.40851,-1.2049 -1.41698,-2.68895c-0.00847,-1.48405 1.38645,-2.65842 1.38645,-2.65842l2.71677,-2.71677c0,0 1.2083,-1.42249 2.69658,-1.42461c1.48829,-0.00211 2.68895,1.41698 2.68895,1.41698l5.10133,5.10133c0,0 1.40851,1.2049 1.41698,2.68895c0.00847,1.48405 -1.38645,2.65842 -1.38645,2.65842z" data-paper-data="{&quot;index&quot;:null}" fill="#faad32" stroke="#c78418" stroke-linecap="butt"/><path d="M158.72597,172.01427c0,0 -0.59141,0.69248 -1.31983,0.68833c-0.72842,-0.00416 -1.33498,-0.70348 -1.33498,-0.70348l-4.87133,-4.87133c0,0 -0.69928,-0.59821 -0.70348,-1.33498c-0.00421,-0.73678 0.68833,-1.31983 0.68833,-1.31983l0.20108,-0.20108c0,0 0.59989,-0.70622 1.33878,-0.70728c0.73888,-0.00105 1.33498,0.70348 1.33498,0.70348l4.87133,4.87133c0,0 0.69928,0.59821 0.70348,1.33498c0.00421,0.73678 -0.68833,1.31983 -0.68833,1.31983z" data-paper-data="{&quot;index&quot;:null}" fill="#ffffff" stroke="none" stroke-linecap="butt"/><path d="M161.75145,172.81051l-1.96622,-0.97263l0.62481,-1.91005l-7.15335,-7.16458l-1.87284,0.62541l-0.99542,-1.94116l3.03867,-3.03867c0,0 2.38668,-1.1279 3.87496,-1.13001c1.48829,-0.00211 1.58421,1.93252 1.58421,1.93252l5.10133,5.10133c0,0 1.92405,0.10017 1.93252,1.58421c0.00847,1.48405 -1.09185,3.8368 -1.09185,3.8368z" data-paper-data="{&quot;index&quot;:null}" fill="#333333" stroke="#262626" stroke-linecap="butt"/><path d="M160.60348,164.01644c0,0 4.17062,0.13666 4.5864,0.55244c0.36381,0.36381 -1.12665,2.90731 -1.12665,2.90731" data-paper-data="{&quot;index&quot;:null}" fill="#333333" stroke="#262626" stroke-linecap="round"/><path d="M155.72274,159.1357c0,0 2.54351,-1.49045 2.90731,-1.12665c0.41578,0.41578 0.55244,4.5864 0.55244,4.5864" data-paper-data="{&quot;index&quot;:null}" fill="#333333" stroke="#262626" stroke-linecap="round"/><path d="M154.21965,166.12251c-0.64973,0.64973 -1.72309,0.62976 -2.39745,-0.04459c-0.67435,-0.67435 -0.69432,-1.74772 -0.04459,-2.39745c0.64973,-0.64973 1.72309,-0.62976 2.39745,0.04459c0.67435,0.67435 0.69431,1.74773 0.04459,2.39745z" fill="#262626" stroke="none" stroke-linecap="butt"/><path d="M153.53752,164.71876c-0.25883,0.25883 -0.68643,0.25088 -0.95507,-0.01776c-0.26864,-0.26864 -0.27659,-0.69625 -0.01776,-0.95507c0.25883,-0.25883 0.68643,-0.25088 0.95507,0.01776c0.26864,0.26864 0.27659,0.69625 0.01776,0.95507z" fill="#595959" stroke="none" stroke-linecap="butt"/><path d="M159.47388,169.02387c0.67435,0.67435 0.69431,1.74773 0.04459,2.39745c-0.64973,0.64973 -1.7231,0.62976 -2.39745,-0.04459c-0.67435,-0.67435 -0.69432,-1.74772 -0.04459,-2.39745c0.64973,-0.64973 1.7231,-0.62976 2.39745,0.04459z" data-paper-data="{&quot;index&quot;:null}" fill="#262626" stroke="none" stroke-linecap="butt"/><path d="M158.83633,170.01756c-0.25883,0.25883 -0.68643,0.25088 -0.95507,-0.01776c-0.26864,-0.26864 -0.27659,-0.69625 -0.01776,-0.95507c0.25883,-0.25883 0.68643,-0.25088 0.95507,0.01776c0.26864,0.26864 0.27659,0.69625 0.01776,0.95507z" data-paper-data="{&quot;index&quot;:null}" fill="#595959" stroke="none" stroke-linecap="butt"/></g><g><path d="M151.33123,175.04174c1.03256,1.03256 1.03256,2.70667 0,3.73922c-1.03256,1.03256 -2.70667,1.03256 -3.73922,0c-1.03256,-1.03256 -1.03256,-2.70667 0,-3.73922c1.03256,-1.03256 2.70667,-1.03256 3.73922,0z" fill="#faad32" stroke="#c78418" stroke-linecap="butt"/><g><path d="M151.33123,169.64501c1.03256,1.03256 1.03256,2.70667 0,3.73922c-1.03256,1.03256 -2.70667,1.03256 -3.73922,0c-1.03256,-1.03256 -1.03256,-2.70667 0,-3.73922c1.03256,-1.03256 2.70667,-1.03256 3.73922,0z" fill="#faad32" stroke="#c78418" stroke-linecap="butt"/><path d="M150.00726,171.3477l1.87685,1.87685l-6.43011,6.43011l-1.87685,-1.87685z" fill="#808080" stroke="#595959" stroke-linecap="butt"/><path d="M145.31765,177.92197l1.39005,-1.39005" fill="none" stroke="#595959" stroke-linecap="round"/></g></g></g><g stroke-width="0.6" stroke-linejoin="round"><g><path d="M121.73683,162.94126c0,0 1.33245,1.13796 1.32445,2.53955c-0.00801,1.40159 -1.35361,2.56871 -1.35361,2.56871l-4.87321,4.87321c0,0 -1.15102,1.34552 -2.56871,1.35361c-1.41769,0.00809 -2.53955,-1.32445 -2.53955,-1.32445l-2.59528,-2.59528c0,0 -1.35889,-1.15426 -1.3609,-2.57599c-0.00201,-1.42173 1.35361,-2.56871 1.35361,-2.56871l4.87321,-4.87321c0,0 1.15102,-1.34552 2.56871,-1.35361c1.41769,-0.00809 2.53955,1.32445 2.53955,1.32445z" data-paper-data="{&quot;index&quot;:null}" fill="#faad32" stroke="#c78418" stroke-linecap="butt"/><path d="M120.41572,161.27679l-10.35475,10.35475c0,0 -5.16275,-5.45405 -4.85737,-5.84965c0.70385,-0.91179 3.6516,-0.8379 3.6516,-0.8379l1.24891,-3.64099l3.6243,-1.23222c0,0 -0.05231,-2.94691 0.8379,-3.6516c0.44619,-0.3532 5.84943,4.8576 5.84943,4.8576z" data-paper-data="{&quot;index&quot;:null}" fill="#c79750" stroke="#946a2c" stroke-linecap="butt"/><path d="M121.2837,165.29469c0,0 0.66153,0.56496 0.65755,1.26081c-0.00397,0.69585 -0.67202,1.27528 -0.67202,1.27528l-4.6535,4.6535c0,0 -0.57145,0.66801 -1.27528,0.67202c-0.70383,0.00401 -1.26081,-0.65755 -1.26081,-0.65755l-0.19209,-0.19209c0,0 -0.67464,-0.57306 -0.67565,-1.2789c-0.00101,-0.70585 0.67202,-1.27528 0.67202,-1.27528l4.6535,-4.6535c0,0 0.57145,-0.66801 1.27528,-0.67202c0.70383,-0.00401 1.26081,0.65755 1.26081,0.65755z" data-paper-data="{&quot;index&quot;:null}" fill="#ffffff" stroke="none" stroke-linecap="butt"/><path d="M113.64352,163.50114c0,0 0.13055,-3.98412 0.52774,-4.38131c0.34755,-0.34755 2.77731,1.07626 2.77731,1.07626" data-paper-data="{&quot;index&quot;:null}" fill="#c79750" stroke="#946a2c" stroke-linecap="round"/><path d="M108.98104,168.16362c0,0 -1.42381,-2.42976 -1.07626,-2.77731c0.39718,-0.39718 4.38131,-0.52774 4.38131,-0.52774" data-paper-data="{&quot;index&quot;:null}" fill="#c79750" stroke="#946a2c" stroke-linecap="round"/><path d="M115.65542,169.59949c0.62067,0.62067 0.6016,1.64604 -0.0426,2.29024c-0.64419,0.64419 -1.66957,0.66327 -2.29024,0.0426c-0.62067,-0.62067 -0.60161,-1.64605 0.0426,-2.29024c0.64419,-0.64419 1.66957,-0.66327 2.29024,-0.0426z" data-paper-data="{&quot;index&quot;:null}" fill="#262626" stroke="none" stroke-linecap="butt"/><path d="M114.31442,170.25112c0.24726,0.24726 0.23967,0.65574 -0.01696,0.91237c-0.25663,0.25663 -0.66511,0.26422 -0.91237,0.01696c-0.24726,-0.24726 -0.23967,-0.65574 0.01696,-0.91237c0.25663,-0.25663 0.66511,-0.26422 0.91237,-0.01696z" data-paper-data="{&quot;index&quot;:null}" fill="#595959" stroke="none" stroke-linecap="butt"/><path d="M118.42703,164.58023c0.64419,-0.64419 1.66957,-0.66327 2.29024,-0.0426c0.62067,0.62067 0.6016,1.64604 -0.0426,2.29024c-0.64419,0.64419 -1.66957,0.66327 -2.29024,0.0426c-0.62067,-0.62067 -0.60161,-1.64605 0.0426,-2.29024z" data-paper-data="{&quot;index&quot;:null}" fill="#262626" stroke="none" stroke-linecap="butt"/><path d="M119.37629,165.18927c0.24726,0.24726 0.23967,0.65574 -0.01696,0.91237c-0.25663,0.25663 -0.66511,0.26422 -0.91237,0.01696c-0.24726,-0.24726 -0.23967,-0.65574 0.01696,-0.91237c0.25663,-0.25663 0.66511,-0.26422 0.91237,-0.01696z" data-paper-data="{&quot;index&quot;:null}" fill="#595959" stroke="none" stroke-linecap="butt"/></g><g stroke-linecap="butt"><path d="M124.91206,171.70061c1.25831,-1.25831 3.29844,-1.25831 4.55676,0c1.25831,1.25831 1.25831,3.29844 0,4.55676c-1.25831,1.25831 -3.29844,1.25831 -4.55676,0c-1.25831,-1.25831 -1.25831,-3.29844 0,-4.55676z" fill="#faad32" stroke="#c78418"/><g><path d="M118.3763,172.63428c1.25831,-1.25831 3.29844,-1.25831 4.55676,0c1.25831,1.25831 1.25831,3.29844 0,4.55676c-1.25831,1.25831 -3.29844,1.25831 -4.55676,0c-1.25831,-1.25831 -1.25831,-3.29844 0,-4.55676z" fill="#faad32" stroke="#c78418"/><path d="M128.76133,181.6907l-2.14368,-2.29338l1.27415,-1.27415l2.30692,2.16472l0.73364,1.06176l-1.08824,1.08824z" data-paper-data="{&quot;index&quot;:null}" fill="#ccf0ff" stroke="#85b7cc"/><path d="M128.26276,177.8063l0.14897,-1.10631l3.92989,0.97351l0.9197,3.36392l-0.89968,0.48036l-1.40764,-2.37544z" data-paper-data="{&quot;index&quot;:null}" fill="#47b3b3" stroke="#268080"/><path d="M127.63304,182.46328l2.37544,1.40764l-0.48036,0.89968l-3.36392,-0.9197l-0.97351,-3.92989l1.10631,-0.14897z" data-paper-data="{&quot;index&quot;:null}" fill="#47b3b3" stroke="#268080"/><path d="M119.12123,173.54575l2.92296,-2.92296l1.64281,0.69762l2.5957,3.75855l-2.70528,2.70528l-3.75816,-2.59344z" data-paper-data="{&quot;index&quot;:null}" fill="#47b3b3" stroke="#268080"/><path d="M125.18167,180.53181l-1.93504,-2.68304l3.10204,-3.10204l2.69189,1.9622l0.15137,1.71728l-2.26587,2.26587z" data-paper-data="{&quot;index&quot;:null}" fill="#ccf0ff" stroke="#85b7cc"/></g></g></g><g fill="#8c8c8c" stroke="#3d3d3d" stroke-width="1.5" stroke-linecap="butt" stroke-linejoin="miter"><path d="M119.7393,198.83435c0,-3.73042 3.0241,-6.75452 6.75452,-6.75452c3.73042,0 6.75452,3.0241 6.75452,6.75452c0,3.73042 -3.0241,6.75452 -6.75452,6.75452c-3.73042,0 -6.75452,-3.0241 -6.75452,-6.75452z"/><path d="M102.72698,198.83435c0,-3.73042 3.0241,-6.75452 6.75452,-6.75452c3.73042,0 6.75452,3.0241 6.75452,6.75452c0,3.73042 -3.0241,6.75452 -6.75452,6.75452c-3.73042,0 -6.75452,-3.0241 -6.75452,-6.75452z"/><path d="M136.75163,198.83435c0,-3.73042 3.0241,-6.75452 6.75452,-6.75452c3.73042,0 6.75452,3.0241 6.75452,6.75452c0,3.73042 -3.0241,6.75452 -6.75452,6.75452c-3.73042,0 -6.75452,-3.0241 -6.75452,-6.75452z"/><path d="M153.76395,198.83435c0,-3.73042 3.0241,-6.75452 6.75452,-6.75452c3.73042,0 6.75452,3.0241 6.75452,6.75452c0,3.73042 -3.0241,6.75452 -6.75452,6.75452c-3.73042,0 -6.75452,-3.0241 -6.75452,-6.75452z"/></g><g stroke-width="0.5" stroke-linecap="butt" stroke-linejoin="round"><path d="M105.65019,196.52078l1.72263,-1.72263l0.63649,0.38926l0.02773,0.76514l3.54058,3.27565l1.22974,1.0541l0.81992,0.89858l-1.59434,1.59434l-0.88325,-0.80219l-1.06943,-1.24747l-3.27728,-3.54206l-0.76338,-0.02503z" data-paper-data="{&quot;index&quot;:null}" fill="#597db3" stroke="#335080"/><path d="M107.03539,197.53148l1.34801,-1.34801l1.85915,1.45271l1.2126,1.38873l-1.57831,1.57831l-1.38409,-1.19865z" data-paper-data="{&quot;index&quot;:null}" fill="#cce0ff" stroke="#85a1cc"/></g><g stroke-width="0.5"><path d="M121.84211,196.08961l1.91966,-1.91966l0.76168,0.45479l0.10013,1.0163l2.02211,1.22939l4.49729,4.90521l-1.69519,1.69519l-4.88688,-4.47641l-1.24963,-2.04476l-1.01415,-0.09699z" data-paper-data="{&quot;index&quot;:null}" fill="#e673aa" stroke="#bf437f" stroke-linecap="butt" stroke-linejoin="round"/><path d="M128.74191,198.78506l-2.28974,2.28974" fill="none" stroke="#bf437f" stroke-linecap="round" stroke-linejoin="miter"/><path d="M129.98397,200.18502l-2.13183,2.13183" fill="none" stroke="#bf437f" stroke-linecap="round" stroke-linejoin="miter"/><path d="M122.88546,195.21834l1.49714,1.49714" fill="none" stroke="#bf437f" stroke-linecap="round" stroke-linejoin="miter"/><path d="M124.18172,196.51461c0.95714,-0.95714 2.15348,-0.41815 2.99156,0.41994c0.83807,0.83807 1.37708,2.03443 0.41994,2.99156c-0.95714,0.95714 -2.15348,0.41815 -2.99156,-0.41994c-0.83807,-0.83807 -1.37708,-2.03443 -0.41994,-2.99156z" fill="#ace6c2" stroke="#6bb386" stroke-linecap="butt" stroke-linejoin="miter"/></g><g stroke-width="0.5" stroke-linecap="butt" stroke-linejoin="round"><path d="M141.60635,198.11067l-2.01701,-1.33113l-1.40872,-1.33701l1.68956,-1.68956l1.35625,1.42964l1.31189,1.9961z" data-paper-data="{&quot;index&quot;:null}" fill="#ffcc4d" stroke="#cc9e29"/><path d="M143.38952,197.85349l5.22158,4.98105l-1.34901,1.34901l-4.98103,-5.22157z" data-paper-data="{&quot;index&quot;:null}" fill="#ffcc4d" stroke="#cc9e29"/><path d="M140.25731,197.95945l2.12997,-2.12997l2.26708,2.13954l-2.2575,2.2575z" data-paper-data="{&quot;index&quot;:null}" fill="#b37924" stroke="#80520d"/><path d="M141.10287,195.95669l2.09431,1.80651l1.34222,1.37377l-0.97515,0.97515l-1.35356,-1.32106l-1.8267,-2.11547z" data-paper-data="{&quot;index&quot;:null}" fill="#ffcc4d" stroke="#cc9e29"/></g><g stroke-width="0.5" stroke-linejoin="miter"><path d="M156.33139,199.62968c0,-1.73896 1.40971,-3.14866 3.14866,-3.14866c1.73895,0 3.14866,1.40971 3.14866,3.14866c0,1.73896 -1.40971,3.14866 -3.14866,3.14866c-1.73895,0 -3.14866,-1.4097 -3.14866,-3.14866z" fill="#262626" stroke="none" stroke-linecap="butt"/><path d="M162.01499,197.14811c0,0 0.77474,-1.46291 1.22744,-1.60102c0.53179,-0.16224 1.65438,0.42694 1.65438,0.42694" fill="none" stroke="#ffffff" stroke-linecap="round"/><path d="M160.40071,196.91332l0.79246,-0.79246l1.84908,1.84907l-0.79246,0.79246z" fill="#262626" stroke="none" stroke-linecap="butt"/></g></g><text transform="translate(232.09571,163.86501) scale(0.45131,0.45131)" font-size="40" xml:space="preserve" fill="#ffffff" fill-rule="nonzero" stroke="#ffffff" stroke-width="2" stroke-linecap="butt" stroke-linejoin="round" stroke-miterlimit="10" stroke-dasharray="" stroke-dashoffset="0" font-family="Malgun Gothic" font-weight="normal" text-anchor="start" style="mix-blend-mode: normal"><tspan x="0" dy="0">RANDOM ☁</tspan></text><text transform="translate(179.59571,185.41572) scale(0.45131,0.45131)" font-size="40" xml:space="preserve" fill="#ffffff" fill-rule="nonzero" stroke="#ffffff" stroke-width="2" stroke-linecap="butt" stroke-linejoin="round" stroke-miterlimit="10" stroke-dasharray="" stroke-dashoffset="0" font-family="Malgun Gothic" font-weight="normal" text-anchor="start" style="mix-blend-mode: normal"><tspan x="0" dy="0">Players</tspan></text><text transform="translate(179.59571,206.96644) scale(0.45131,0.45131)" font-size="40" xml:space="preserve" fill="#ffffff" fill-rule="nonzero" stroke="#ffffff" stroke-width="2" stroke-linecap="butt" stroke-linejoin="round" stroke-miterlimit="10" stroke-dasharray="" stroke-dashoffset="0" font-family="Malgun Gothic" font-weight="normal" text-anchor="start" style="mix-blend-mode: normal"><tspan x="0" dy="0">Room ID</tspan></text></g></g></svg>