<svg version="1.1" xmlns="http://www.w3.org/2000/svg" xmlns:xlink="http://www.w3.org/1999/xlink" width="49.73722" height="33.42922" viewBox="0,0,49.73722,33.42922"><g transform="translate(-211.65524,-163.28545)"><g data-paper-data="{&quot;isPaintingLayer&quot;:true}" fill-rule="nonzero" stroke-linecap="butt" stroke-linejoin="round" stroke-miterlimit="10" stroke-dasharray="" stroke-dashoffset="0" style="mix-blend-mode: normal"><path d="M227.1107,183.0743c0,-2.81469 2.28176,-5.09645 5.09645,-5.09645c2.81469,0 5.09645,2.28176 5.09645,5.09645c0,2.81469 -2.28176,5.09645 -5.09645,5.09645c-2.81469,0 -5.09645,-2.28176 -5.09645,-5.09645z" fill="#faad32" stroke="#c78418" stroke-width="1.5"/><path d="M211.65524,180.00006c0,-9.23122 11.13405,-16.71461 24.86861,-16.71461c13.73454,0 24.86861,7.48338 24.86861,16.71461c0,9.23122 -11.13405,16.71461 -24.86861,16.71461c-13.73454,0 -24.86861,-7.48338 -24.86861,-16.71461z" data-paper-data="{&quot;index&quot;:null}" fill="none" stroke="none" stroke-width="0"/><path d="M248.85474,181.58833l-4.96256,-0.16743v-2.85011l5.00126,-0.15903l2.00805,0.36697v2.43424z" data-paper-data="{&quot;index&quot;:null}" fill="#ccf0ff" stroke="#85b7cc" stroke-width="1.5"/><path d="M243.95265,177.80149l-1.07073,-1.40396l5.48414,-3.30653l4.79097,2.7337l-0.46898,1.54348l-4.23115,-1.08242z" data-paper-data="{&quot;index&quot;:null}" fill="#47b3b3" stroke="#268080" stroke-width="1.5"/><path d="M248.4569,183.71434l4.23115,-1.08242l0.46898,1.54348l-4.79097,2.7337l-5.48414,-3.30653l1.07073,-1.40396z" data-paper-data="{&quot;index&quot;:null}" fill="#47b3b3" stroke="#268080" stroke-width="1.5"/><path d="M228.96328,183.26057v-6.53831l2.61762,-1.05714l7.10684,1.30058v6.05136l-7.10386,1.30266z" data-paper-data="{&quot;index&quot;:null}" fill="#47b3b3" stroke="#268080" stroke-width="1.5"/><path d="M243.55497,184.2958l-5.16503,-0.83659v-6.93887l5.20531,-0.81613l2.08997,1.75136v5.06847z" data-paper-data="{&quot;index&quot;:null}" fill="#ccf0ff" stroke="#85b7cc" stroke-width="1.5"/></g></g></svg>