<svg version="1.1" xmlns="http://www.w3.org/2000/svg" xmlns:xlink="http://www.w3.org/1999/xlink" width="105.61904" height="105.61904" viewBox="0,0,105.61904,105.61904"><g transform="translate(-187.19049,-127.19048)"><g data-paper-data="{&quot;isPaintingLayer&quot;:true}" fill-rule="nonzero" stroke-miterlimit="10" stroke-dasharray="" stroke-dashoffset="0" style="mix-blend-mode: normal"><path d="M187.1905,180.00001c0,-29.16592 23.64362,-52.80952 52.80952,-52.80952c29.16592,0 52.80952,23.64361 52.80952,52.80952c0,29.16592 -23.64361,52.80952 -52.80952,52.80952c-29.16592,0 -52.80952,-23.64361 -52.80952,-52.80952z" fill="none" stroke="none" stroke-width="0" stroke-linecap="butt" stroke-linejoin="miter"/><path d="M227.1107,183.07428c0,-2.81469 2.28176,-5.09645 5.09645,-5.09645c2.81469,0 5.09645,2.28176 5.09645,5.09645c0,2.81469 -2.28176,5.09645 -5.09645,5.09645c-2.81469,0 -5.09645,-2.28176 -5.09645,-5.09645z" fill="#faad32" stroke="#c78418" stroke-width="1.5" stroke-linecap="butt" stroke-linejoin="round"/><g fill="none" stroke="#595959" stroke-width="1.5" stroke-linecap="round" stroke-linejoin="miter"><path d="M249.39006,174.17818v1.75281"/><path d="M249.39006,185.82184v-1.75281"/></g><g fill="none" stroke="#595959" stroke-width="1.5" stroke-linecap="round" stroke-linejoin="miter"><path d="M236.24398,174.17818v1.75281"/><path d="M236.24398,185.82184v-1.75281"/></g><path d="M256.5891,180.00001c0,1.48665 -2.15748,2.69181 -4.81886,2.69181c-2.66138,0 -4.81886,-1.20516 -4.81886,-2.69181c0,-1.48665 2.15748,-2.69181 4.81886,-2.69181c2.66138,0 4.81886,1.20516 4.81886,2.69181z" fill="#cc5252" stroke="#992e2e" stroke-width="1.5" stroke-linecap="butt" stroke-linejoin="miter"/><path d="M229.72105,183.43253v-6.88235l2.18412,-0.4275l9.83423,0.62335l9.30427,-0.59333l1.73733,0.13675v7.40378l-1.67851,0.14095l-9.36307,-0.59753l-10.09575,0.6407z" fill="#808080" stroke="#595959" stroke-width="1.5" stroke-linecap="butt" stroke-linejoin="round"/><path d="M235.90327,180.00001c0,1.48665 -1.13136,2.69181 -2.52696,2.69181c-1.3956,0 -2.52697,-1.20516 -2.52697,-2.69181c0,-1.48665 1.13136,-2.69181 2.52697,-2.69181c1.3956,0 2.52696,1.20516 2.52696,2.69181z" fill="#4d4d4d" stroke="#595959" stroke-width="1" stroke-linecap="butt" stroke-linejoin="miter"/><path d="M249.29975,180.00001c0,0.65689 -2.36455,1.18941 -5.28138,1.18941c-2.91683,0 -5.28139,-0.53251 -5.28139,-1.18941c0,-0.65689 2.36456,-1.18941 5.28139,-1.18941c2.91683,0 5.28138,0.53251 5.28138,1.18941z" fill="#cc5252" stroke="none" stroke-width="0" stroke-linecap="butt" stroke-linejoin="miter"/></g></g></svg>