<svg version="1.1" xmlns="http://www.w3.org/2000/svg" xmlns:xlink="http://www.w3.org/1999/xlink" width="349.70627" height="130.66517" viewBox="0,0,349.70627,130.66517"><g transform="translate(-65.14686,-114.66741)"><g data-paper-data="{&quot;isPaintingLayer&quot;:true}" fill-rule="nonzero" stroke-miterlimit="10" stroke-dasharray="" stroke-dashoffset="0" style="mix-blend-mode: normal"><path d="M65.14686,245.33258v-130.66517h349.70627v130.66517z" fill="none" stroke="none" stroke-width="0" stroke-linecap="butt" stroke-linejoin="miter"/><path d="M376.32616,142.39085c0,0 7.09426,-0.55853 11.09623,3.48938c4.00195,4.04792 3.48938,11.26372 3.48938,11.26372v45.7121c0,0 0.55853,7.16932 -3.48938,11.26372c-4.04792,4.0944 -11.09623,3.48938 -11.09623,3.48938h-272.43825c0,0 -7.21704,0.58762 -11.30559,-3.48938c-4.08858,-4.07701 -3.48938,-11.26372 -3.48938,-11.26372v-45.7121c0,0 -0.55853,-7.16932 3.48938,-11.26372c4.04792,-4.0944 11.09623,-3.48938 11.09623,-3.48938z" data-paper-data="{&quot;index&quot;:null}" fill="#b3a88f" stroke="#ffffff" stroke-width="12" stroke-linecap="butt" stroke-linejoin="miter"/><path d="M376.32616,142.39085c0,0 7.09426,-0.55853 11.09623,3.48938c4.00195,4.04792 3.48938,11.26372 3.48938,11.26372v45.7121c0,0 0.55853,7.16932 -3.48938,11.26372c-4.04792,4.0944 -11.09623,3.48938 -11.09623,3.48938h-272.43825c0,0 -7.21704,0.58762 -11.30559,-3.48938c-4.08858,-4.07701 -3.48938,-11.26372 -3.48938,-11.26372v-45.7121c0,0 -0.55853,-7.16932 3.48938,-11.26372c4.04792,-4.0944 11.09623,-3.48938 11.09623,-3.48938z" data-paper-data="{&quot;index&quot;:null}" fill="#b3a88f" stroke="#807459" stroke-width="2" stroke-linecap="butt" stroke-linejoin="miter"/><g><path d="M164.19218,151.07742c0,0 3.01795,-0.2376 4.72042,1.48441c1.70246,1.72201 1.48441,4.79167 1.48441,4.79167v44.84826c0,0 0.2376,3.04988 -1.48441,4.79167c-1.72201,1.74179 -4.72042,1.48441 -4.72042,1.48441h-57.62661c0,0 -3.07018,0.24998 -4.80948,-1.48441c-1.73931,-1.73439 -1.48441,-4.79167 -1.48441,-4.79167v-44.84826c0,0 -0.2376,-3.04988 1.48441,-4.79167c1.72201,-1.74179 4.72042,-1.48441 4.72042,-1.48441z" data-paper-data="{&quot;index&quot;:null}" fill="#cccccc" stroke="#807459" stroke-width="2" stroke-linecap="butt" stroke-linejoin="miter"/><g><g fill="#b3b3b3" stroke="none" stroke-width="0" stroke-linecap="butt" stroke-linejoin="miter"><path d="M140.04133,189.0211v-18.11084h18.11084v18.11084z"/><path d="M140.04133,169.47162v-18.11084h18.11084v18.11084z"/><path d="M159.59083,189.0211v-18.11084h10.49752v18.11084z"/><path d="M159.59083,169.47162v-18.11084c0,0 4.68595,0 6.59776,0c1.46983,0 3.89977,1.96211 3.89977,3.54454c0,3.20788 0,14.5663 0,14.5663z"/><path d="M140.04133,208.57059v-18.11084h18.11084v18.11084z"/><path d="M159.59083,208.57059v-18.11084h10.49752c0,0 0,11.22076 0,14.4466c0,1.62463 -1.97008,3.66424 -3.27475,3.66424c-1.9376,0 -7.22277,0 -7.22277,0z"/><path d="M100.94237,189.0211v-18.11084h18.11084v18.11084z"/><path d="M100.94237,169.47162c0,0 0,-13.79261 0,-16.44134c0,-0.84404 1.08386,-1.6695 2.11991,-1.6695c2.84549,0 15.99093,0 15.99093,0v18.11084z"/><path d="M120.49185,189.0211v-18.11084h18.11084v18.11084z"/><path d="M120.49185,169.47162v-18.11084h18.11084v18.11084z"/><path d="M100.94237,203.96883c0,-3.31914 0,-13.50908 0,-13.50908h18.11084v18.11084c0,0 -10.84803,0 -14.11589,0c-1.73846,0 -3.99495,-2.66456 -3.99495,-4.60176z"/><path d="M120.49185,208.57059v-18.11084h18.11084v18.11084z"/></g><g><g stroke-linejoin="round"><path d="M149.19883,198.9095c0,0 -1.65675,-1.00019 -1.9003,-2.52893c-0.24353,-1.52873 1.0127,-3.0427 1.0127,-3.0427l4.43318,-6.18734c0,0 1.01209,-1.67335 2.55546,-1.93733c1.54337,-0.26397 3.00567,0.98616 3.00567,0.98616l3.29514,2.36094c0,0 1.6885,1.01321 1.94658,2.56208c0.25808,1.54888 -1.0127,3.0427 -1.0127,3.0427l-4.43318,6.18734c0,0 -1.01209,1.67335 -2.55546,1.93733c-1.54337,0.26397 -3.00567,-0.98616 -3.00567,-0.98616z" data-paper-data="{&quot;index&quot;:null}" fill="#faad32" stroke="#c78418" stroke-width="0.75" stroke-linecap="butt"/><path d="M149.26903,196.26345c0,0 -0.82253,-0.49657 -0.94344,-1.25554c-0.12091,-0.75897 0.50277,-1.51061 0.50277,-1.51061l4.23331,-5.90839c0,0 0.50247,-0.83077 1.26871,-0.96182c0.76624,-0.13105 1.49223,0.4896 1.49223,0.4896l0.24389,0.17474c0,0 0.83829,0.50303 0.96642,1.272c0.12813,0.76897 -0.50277,1.51061 -0.50277,1.51061l-4.23331,5.90839c0,0 -0.50247,0.83077 -1.26871,0.96182c-0.76624,0.13105 -1.49223,-0.4896 -1.49223,-0.4896z" data-paper-data="{&quot;index&quot;:null}" fill="#ffffff" stroke="none" stroke-width="0" stroke-linecap="butt"/><path d="M149.35759,199.86679l0.89108,-2.09116l2.31846,0.4816l6.22812,-8.67815l-1.25146,-2.04152l1.71925,-1.49571l2.33765,2.51845l3.98574,2.22529l-3.05186,3.3795l0.17268,4.77747l-4.60586,1.40987l-2.21865,3.97649l-3.34248,-3.02533z" data-paper-data="{&quot;index&quot;:null}" fill="#00b3b3" stroke="#008080" stroke-width="0.75" stroke-linecap="butt"/><path d="M157.91722,196.84277c0,0 0.57481,4.36493 0.21348,4.86923c-0.31616,0.44126 -3.2201,-0.67293 -3.2201,-0.67293" data-paper-data="{&quot;index&quot;:null}" fill="#00b3b3" stroke="#008080" stroke-width="0.75" stroke-linecap="round"/><path d="M162.15871,190.92299c0,0 1.98881,2.39142 1.67265,2.83268c-0.36132,0.5043 -4.67927,1.36362 -4.67927,1.36362" data-paper-data="{&quot;index&quot;:null}" fill="#00b3b3" stroke="#008080" stroke-width="0.75" stroke-linecap="round"/><path d="M154.6273,190.55959c-0.78804,-0.56462 -0.95181,-1.68539 -0.36578,-2.5033c0.58603,-0.81791 1.69993,-1.02324 2.48797,-0.45862c0.78804,0.56462 0.95181,1.68539 0.36578,2.50331c-0.58603,0.81791 -1.69993,1.02324 -2.48798,0.45861z" fill="#262626" stroke="none" stroke-width="0.75" stroke-linecap="butt"/><path d="M155.97128,189.60817c-0.31393,-0.22493 -0.37917,-0.67141 -0.14572,-0.99725c0.23345,-0.32583 0.6772,-0.40763 0.99114,-0.1827c0.31393,0.22493 0.37917,0.67141 0.14572,0.99725c-0.23345,0.32583 -0.6772,0.40763 -0.99114,0.1827z" fill="#595959" stroke="none" stroke-width="0" stroke-linecap="butt"/><path d="M152.51048,196.52784c-0.58603,0.81791 -1.69993,1.02324 -2.48798,0.45861c-0.78804,-0.56462 -0.9518,-1.68539 -0.36578,-2.5033c0.58603,-0.81791 1.69993,-1.02324 2.48797,-0.45862c0.78804,0.56462 0.95181,1.6854 0.36578,2.50331z" data-paper-data="{&quot;index&quot;:null}" fill="#262626" stroke="none" stroke-width="0" stroke-linecap="butt"/><path d="M151.36649,196.03503c-0.31393,-0.22493 -0.37917,-0.67141 -0.14572,-0.99725c0.23345,-0.32583 0.6772,-0.40763 0.99114,-0.1827c0.31393,0.22493 0.37917,0.67141 0.14572,0.99725c-0.23345,0.32583 -0.6772,0.40763 -0.99114,0.1827z" data-paper-data="{&quot;index&quot;:null}" fill="#595959" stroke="none" stroke-width="0" stroke-linecap="butt"/></g><g><path d="M157.21153,181.18548c-0.89843,1.25393 -2.64326,1.54211 -3.89718,0.64369c-1.25393,-0.89843 -1.54211,-2.64326 -0.64369,-3.89718c0.89843,-1.25393 2.64326,-1.54211 3.89718,-0.64369c1.25393,0.89843 1.54211,2.64326 0.64369,3.89718z" fill="#faad32" stroke="#c78418" stroke-width="1.5" stroke-linecap="butt" stroke-linejoin="round"/><path d="M153.97822,180.87398c-1.30219,1.81746 -3.83116,2.23516 -5.64862,0.93297c-1.81746,-1.30219 -2.23516,-3.83116 -0.93297,-5.64862c1.30219,-1.81746 3.83116,-2.23516 5.64862,-0.93297c1.81746,1.30219 2.23516,3.83116 0.93297,5.64862z" fill="#000000" stroke="none" stroke-width="0" stroke-linecap="butt" stroke-linejoin="miter"/><path d="M146.17978,179.21149c0,0 -1.90519,0.94879 -2.48175,0.75413c-0.67728,-0.22866 -1.40935,-1.68507 -1.40935,-1.68507" fill="none" stroke="#ffffff" stroke-width="0.75" stroke-linecap="round" stroke-linejoin="miter"/><path d="M147.69113,180.66571l-1.42166,0.23481l-0.54789,-3.31719l1.42166,-0.23481z" fill="#000000" stroke="none" stroke-width="0" stroke-linecap="butt" stroke-linejoin="miter"/></g><g fill="#faad32" stroke="#c78418" stroke-width="0.75" stroke-linecap="butt" stroke-linejoin="round"><path d="M144.76646,196.20253c-0.89843,1.25393 -2.64326,1.54211 -3.89718,0.64369c-1.25393,-0.89843 -1.54211,-2.64326 -0.64369,-3.89718c0.89843,-1.25393 2.64326,-1.54211 3.89718,-0.64369c1.25393,0.89843 1.54211,2.64326 0.64369,3.89718z"/></g></g><g stroke-linejoin="round"><path d="M123.77297,160.94528c0,0 1.09203,1.59771 0.67897,3.08959c-0.41307,1.49188 -2.18445,2.34772 -2.18445,2.34772l-6.60172,3.78862c0,0 -1.61543,1.1022 -3.1291,0.70164c-1.51368,-0.40056 -2.32505,-2.14494 -2.32505,-2.14494l-2.01768,-3.51582c0,0 -1.11551,-1.62274 -0.70731,-3.13898c0.40821,-1.51625 2.18445,-2.34772 2.18445,-2.34772l6.60172,-3.78862c0,0 1.61543,-1.1022 3.1291,-0.70164c1.51368,0.40056 2.32505,2.14494 2.32505,2.14494z" data-paper-data="{&quot;index&quot;:null}" fill="#faad32" stroke="#c78418" stroke-width="0.75" stroke-linecap="butt"/><path d="M122.47517,158.68384l-13.56135,7.78264l-0.71987,-1.25438c0,0 -1.11551,-1.62274 -0.70731,-3.13898c0.40821,-1.51625 2.18445,-2.34772 2.18445,-2.34772l6.60172,-3.78862c0,0 1.61543,-1.1022 3.1291,-0.70164c1.51368,0.40056 2.32505,2.14494 2.32505,2.14494z" data-paper-data="{&quot;index&quot;:null}" fill="#c79750" stroke="#946a2c" stroke-width="0.75" stroke-linecap="butt"/><path d="M122.61064,163.32341c0,0 0.54217,0.79322 0.33709,1.53389c-0.20508,0.74068 -1.08451,1.16557 -1.08451,1.16557l-6.30408,3.61781c0,0 -0.80201,0.54721 -1.55351,0.34834c-0.7515,-0.19887 -1.15432,-1.0649 -1.15432,-1.0649l-0.14934,-0.26023c0,0 -0.55382,-0.80564 -0.35116,-1.55841c0.20266,-0.75277 1.08451,-1.16557 1.08451,-1.16557l6.30408,-3.61781c0,0 0.80201,-0.54721 1.55351,-0.34834c0.7515,0.19887 1.15432,1.0649 1.15432,1.0649z" data-paper-data="{&quot;index&quot;:null}" fill="#ffffff" stroke="none" stroke-width="0" stroke-linecap="butt"/><path d="M115.36802,166.28814c0.48253,0.84082 0.16625,1.92843 -0.70644,2.42926c-0.87268,0.50082 -1.97131,0.2252 -2.45384,-0.61562c-0.48253,-0.84082 -0.16625,-1.92843 0.70644,-2.42926c0.87268,-0.50082 1.97131,-0.2252 2.45385,0.61562z" fill="#262626" stroke="none" stroke-width="0" stroke-linecap="butt"/><path d="M113.75036,166.59577c0.19223,0.33496 0.06623,0.76823 -0.28142,0.96775c-0.34765,0.19951 -0.78531,0.08971 -0.97754,-0.24525c-0.19223,-0.33496 -0.06623,-0.76823 0.28142,-0.96775c0.34765,-0.19951 0.78531,-0.08971 0.97754,0.24525z" fill="#595959" stroke="none" stroke-width="0" stroke-linecap="butt"/><path d="M119.77146,161.73723c0.87269,-0.50082 1.97131,-0.2252 2.45385,0.61562c0.48253,0.84082 0.16625,1.92843 -0.70644,2.42926c-0.87269,0.50082 -1.97131,0.2252 -2.45384,-0.61562c-0.48253,-0.84082 -0.16625,-1.92844 0.70644,-2.42926z" data-paper-data="{&quot;index&quot;:null}" fill="#262626" stroke="none" stroke-width="0" stroke-linecap="butt"/><path d="M120.60763,162.66049c0.19223,0.33496 0.06623,0.76823 -0.28142,0.96775c-0.34765,0.19951 -0.78531,0.08971 -0.97754,-0.24525c-0.19223,-0.33496 -0.06623,-0.76823 0.28142,-0.96775c0.34765,-0.19951 0.78531,-0.08971 0.97754,0.24525z" data-paper-data="{&quot;index&quot;:null}" fill="#595959" stroke="none" stroke-width="0" stroke-linecap="butt"/><path d="M114.98335,159.20619c0,0 1.28911,-4.20966 1.82718,-4.51845c0.47081,-0.27019 2.65015,1.94899 2.65015,1.94899" data-paper-data="{&quot;index&quot;:null}" fill="#c79750" stroke="#946a2c" stroke-width="0.75" stroke-linecap="round"/><path d="M108.66711,162.83098c0,0 -0.81657,-3.00125 -0.34576,-3.27144c0.53807,-0.30879 4.82309,0.70197 4.82309,0.70197" data-paper-data="{&quot;index&quot;:null}" fill="#c79750" stroke="#946a2c" stroke-width="0.75" stroke-linecap="round"/><g stroke-width="0.75" stroke-linecap="butt"><path d="M122.83818,171.67715c1.3379,-0.7678 3.04492,-0.30564 3.81272,1.03226c0.7678,1.3379 0.30564,3.04492 -1.03226,3.81272c-1.3379,0.7678 -3.04492,0.30564 -3.81272,-1.03226c-0.7678,-1.3379 -0.30564,-3.04492 1.03226,-3.81272z" fill="#faad32" stroke="#c78418"/><g><path d="M118.33002,170.42793c1.3379,-0.7678 3.04492,-0.30564 3.81272,1.03226c0.7678,1.3379 0.30564,3.04492 -1.03226,3.81272c-1.3379,0.7678 -3.04492,0.30564 -3.81272,-1.03226c-0.7678,-1.3379 -0.30564,-3.04492 1.03226,-3.81272z" fill="#faad32" stroke="#c78418"/><path d="M119.48421,171.69378l2.27903,-1.3079l1.81383,2.64431l2.08966,4.9455l2.49966,3.08771l0.43353,0.92059l-2.55089,1.46391l-0.56123,-0.80772l-1.41978,-3.74702l-3.30079,-4.42648z" fill="#808080" stroke="#595959"/><path d="M121.72139,176.17259l2.78024,-1.59553l3.06127,5.3343l-2.78024,1.59553z" fill="#b37924" stroke="#80520d"/></g></g></g><g stroke="none" stroke-width="0" stroke-linecap="butt" stroke-linejoin="miter"><path d="M100.57834,204.28134c0,-3.50557 0,-14.55774 0,-14.55774h19.21237v19.21237c0,0 -10.70165,0 -14.22839,0c-2.0873,0 -4.98398,-2.6724 -4.98398,-4.65463z" fill="#996e2e"/><path d="M102.19742,207.31688v-15.97423h15.97423v15.97423z" fill="#cc9b52"/><path d="M101.04122,206.83604l16.64959,-16.64959l1.63705,1.63704l-16.64959,16.64959z" fill="#996e2e"/><path d="M117.6908,208.47309l-16.64959,-16.64959l1.63705,-1.63704l16.64959,16.64959z" data-paper-data="{&quot;index&quot;:null}" fill="#996e2e"/></g></g><path d="M164.19218,151.07742c0,0 3.01795,-0.2376 4.72042,1.48441c1.70246,1.72201 1.48441,4.79167 1.48441,4.79167v44.84826c0,0 0.2376,3.04988 -1.48441,4.79167c-1.72201,1.74179 -4.72042,1.48441 -4.72042,1.48441h-57.62661c0,0 -3.07018,0.24998 -4.80948,-1.48441c-1.73931,-1.73439 -1.48441,-4.79167 -1.48441,-4.79167v-44.84826c0,0 -0.2376,-3.04988 1.48441,-4.79167c1.72201,-1.74179 4.72042,-1.48441 4.72042,-1.48441z" data-paper-data="{&quot;index&quot;:null}" fill="none" stroke="#807459" stroke-width="2" stroke-linecap="butt" stroke-linejoin="miter"/></g><text transform="translate(232.09571,163.86501) scale(0.45131,0.45131)" font-size="40" xml:space="preserve" fill="#ffffff" fill-rule="nonzero" stroke="#ffffff" stroke-width="2" stroke-linecap="butt" stroke-linejoin="round" stroke-miterlimit="10" stroke-dasharray="" stroke-dashoffset="0" font-family="Malgun Gothic" font-weight="normal" text-anchor="start" style="mix-blend-mode: normal"><tspan x="0" dy="0">RUMBLE ☁</tspan></text><text transform="translate(179.59571,185.41572) scale(0.45131,0.45131)" font-size="40" xml:space="preserve" fill="#ffffff" fill-rule="nonzero" stroke="#ffffff" stroke-width="2" stroke-linecap="butt" stroke-linejoin="round" stroke-miterlimit="10" stroke-dasharray="" stroke-dashoffset="0" font-family="Malgun Gothic" font-weight="normal" text-anchor="start" style="mix-blend-mode: normal"><tspan x="0" dy="0">Players</tspan></text><text transform="translate(179.59571,206.96644) scale(0.45131,0.45131)" font-size="40" xml:space="preserve" fill="#ffffff" fill-rule="nonzero" stroke="#ffffff" stroke-width="2" stroke-linecap="butt" stroke-linejoin="round" stroke-miterlimit="10" stroke-dasharray="" stroke-dashoffset="0" font-family="Malgun Gothic" font-weight="normal" text-anchor="start" style="mix-blend-mode: normal"><tspan x="0" dy="0">Room ID</tspan></text></g></g></svg>