<svg version="1.1" xmlns="http://www.w3.org/2000/svg" xmlns:xlink="http://www.w3.org/1999/xlink" width="105.61904" height="105.61904" viewBox="0,0,105.61904,105.61904"><g transform="translate(-187.1905,-127.19049)"><g data-paper-data="{&quot;isPaintingLayer&quot;:true}" fill-rule="nonzero" stroke-miterlimit="10" stroke-dasharray="" stroke-dashoffset="0" style="mix-blend-mode: normal"><path d="M187.19051,180.00002c0,-29.16592 23.64362,-52.80952 52.80952,-52.80952c29.16592,0 52.80952,23.64361 52.80952,52.80952c0,29.16592 -23.64361,52.80952 -52.80952,52.80952c-29.16592,0 -52.80952,-23.64361 -52.80952,-52.80952z" fill="none" stroke="none" stroke-width="0" stroke-linecap="butt" stroke-linejoin="miter"/><path d="M238.19286,176.11047h5.25454v1.43098h-5.21821z" fill="#808080" stroke="#595959" stroke-width="1.5" stroke-linecap="butt" stroke-linejoin="round"/><path d="M227.1107,183.0743c0,-2.81469 2.28176,-5.09645 5.09645,-5.09645c2.81469,0 5.09645,2.28176 5.09645,5.09645c0,2.81469 -2.28176,5.09645 -5.09645,5.09645c-2.81469,0 -5.09645,-2.28176 -5.09645,-5.09645z" fill="#faad32" stroke="#c78418" stroke-width="1.5" stroke-linecap="butt" stroke-linejoin="round"/><path d="M233.25261,182.84146v-5.68285l3.65543,0.63598l1.18481,-0.11774h13.75454v4.64637h-13.6712l-1.23172,-0.146z" fill="#999999" stroke="#595959" stroke-width="1.5" stroke-linecap="butt" stroke-linejoin="round"/><path d="M246.8054,180.00003h3.18919" fill="none" stroke="#595959" stroke-width="1" stroke-linecap="round" stroke-linejoin="round"/></g></g></svg>