<svg version="1.1" xmlns="http://www.w3.org/2000/svg" xmlns:xlink="http://www.w3.org/1999/xlink" width="228.59167" height="98.84725" viewBox="0,0,228.59167,98.84725"><defs><linearGradient x1="-111828.23474" y1="-42918.18529" x2="91176.60115" y2="35107.78274" gradientUnits="userSpaceOnUse" id="color-1"><stop offset="0" stop-color="#ffffff"/><stop offset="1" stop-color="#ffffff" stop-opacity="0"/></linearGradient></defs><g transform="translate(-125.70417,-130.57638)"><g data-paper-data="{&quot;isPaintingLayer&quot;:true}" fill-rule="nonzero" stroke-miterlimit="10" stroke-dasharray="" stroke-dashoffset="0" style="mix-blend-mode: normal"><path d="M289.23454,197.24821c-15.14224,6.27785 -33.55826,0.32521 -41.25276,-15.85571c-7.6945,-16.18092 -0.89512,-32.58766 15.06915,-39.20632c15.96427,-6.61866 33.53255,-0.37926 41.25276,15.85571c7.72021,16.23498 0.07309,32.92847 -15.06915,39.20632z" fill="url(#color-1)" stroke="none" stroke-width="NaN" stroke-linecap="butt" stroke-linejoin="miter"/><path d="M125.70417,229.42363v-98.84725h228.59167v98.84725z" fill="none" stroke="none" stroke-width="0" stroke-linecap="butt" stroke-linejoin="miter"/><path d="M332.43562,166.46767l2.30301,-5.02353l2.65343,4.82151l-1.52144,0.2153l0.55509,2.67309l-2.69644,0.18426l0.25353,-2.80838z" fill="#ffffff" stroke="#ffffff" stroke-width="1" stroke-linecap="round" stroke-linejoin="miter"/><path d="M317.22722,150.58746l5.42478,1.05421l-4.06035,3.715l-0.5678,-1.42784l-2.46697,1.16944l-0.81456,-2.57706l2.78902,-0.41547z" fill="#ffffff" stroke="#ffffff" stroke-width="1" stroke-linecap="round" stroke-linejoin="miter"/><g stroke-linejoin="miter"><path d="M326.41667,150.20858c0,-4.05009 3.28325,-7.33333 7.33333,-7.33333c4.05009,0 7.33333,3.28325 7.33333,7.33333c0,4.05009 -3.28325,7.33333 -7.33333,7.33333c-4.05009,0 -7.33333,-3.28325 -7.33333,-7.33333z" fill="#80b3ff" stroke="none" stroke-width="0" stroke-linecap="butt"/><g fill="none" stroke="#ffffff"><path d="M326.57174,150.24191c0,-3.96444 3.21382,-7.17826 7.17826,-7.17826c3.96444,0 7.17826,3.21382 7.17826,7.17826c0,3.96444 -3.21382,7.17826 -7.17826,7.17826c-3.96444,0 -7.17826,-3.21382 -7.17826,-7.17826z" stroke-width="1.5" stroke-linecap="butt"/><g stroke-width="1" stroke-linecap="round"><path d="M326.62694,150.24191h14.24611"/><path d="M327.3866,146.83861h12.72679"/><path d="M327.3866,153.64521h12.72679" data-paper-data="{&quot;index&quot;:null}"/><path d="M333.75,157.11486v-13.82928" data-paper-data="{&quot;index&quot;:null}"/><path d="M336.2274,143.70243c0,0 1.6516,2.01336 1.6516,6.48846c0,4.4751 -1.6516,6.59051 -1.6516,6.59051" data-paper-data="{&quot;index&quot;:null}"/><path d="M331.2726,156.7814c0,0 -1.6516,-2.11541 -1.6516,-6.59051c0,-4.4751 1.6516,-6.48846 1.6516,-6.48846" data-paper-data="{&quot;index&quot;:null}"/></g></g></g><text transform="translate(149.1432,157.87566) scale(0.44693,0.44693)" font-size="40" xml:space="preserve" fill="#ffffff" fill-rule="nonzero" stroke="#ffffff" stroke-width="2" stroke-linecap="butt" stroke-linejoin="round" stroke-miterlimit="10" stroke-dasharray="" stroke-dashoffset="0" font-family="Malgun Gothic" font-weight="normal" text-anchor="start" style="mix-blend-mode: normal"><tspan x="0" dy="0">Rumble</tspan></text><text transform="translate(151.04817,174.64176) scale(0.28303,0.28303)" font-size="40" xml:space="preserve" fill="#ffffff" fill-rule="nonzero" stroke="#ffffff" stroke-width="2" stroke-linecap="butt" stroke-linejoin="round" stroke-miterlimit="10" stroke-dasharray="" stroke-dashoffset="0" font-family="Malgun Gothic" font-weight="normal" text-anchor="start" style="mix-blend-mode: normal"><tspan x="0" dy="0">each for himself</tspan><tspan x="0" dy="48px">endless game</tspan></text><text transform="translate(165.22645,213.66787) scale(0.2501,0.2501)" font-size="40" xml:space="preserve" fill="#ffffff" fill-rule="nonzero" stroke="#ffffff" stroke-width="2" stroke-linecap="butt" stroke-linejoin="round" stroke-miterlimit="10" stroke-dasharray="" stroke-dashoffset="0" font-family="Malgun Gothic" font-weight="normal" text-anchor="start" style="mix-blend-mode: normal"><tspan x="0" dy="0">collect money by beating enemy</tspan></text><g data-paper-data="{&quot;index&quot;:null}" stroke-width="1" stroke-linejoin="round"><path d="M290.1552,175.3365c0,0 -2.5472,1.91786 -5.03378,1.35061c-2.48658,-0.56727 -4.02881,-3.41815 -4.02881,-3.41815l-6.73361,-10.57959c0,0 -1.93593,-2.5756 -1.39089,-5.0971c0.54506,-2.5215 3.35483,-3.98851 3.35483,-3.98851l5.63427,-3.58606c0,0 2.58661,-1.9584 5.11293,-1.40096c2.52632,0.55744 4.02881,3.41815 4.02881,3.41815l6.73361,10.57959c0,0 1.93593,2.5756 1.39089,5.0971c-0.54506,2.5215 -3.35483,3.98851 -3.35483,3.98851z" data-paper-data="{&quot;index&quot;:null}" fill="#faad32" stroke="#c78418" stroke-linecap="butt"/><path d="M293.77932,173.0299l-13.83225,-21.73276l2.01021,-1.27943c0,0 2.58661,-1.9584 5.11293,-1.40096c2.52632,0.55744 4.02881,3.41815 4.02881,3.41815l6.73361,10.57959c0,0 1.93593,2.5756 1.39089,5.0971c-0.54506,2.5215 -3.35483,3.98851 -3.35483,3.98851z" data-paper-data="{&quot;index&quot;:null}" fill="#c79750" stroke="#946a2c" stroke-linecap="butt"/><path d="M286.15346,173.60291c0,0 -1.2646,0.95219 -2.49912,0.67054c-1.23452,-0.28165 -2.00019,-1.697 -2.00019,-1.697l-6.43002,-10.10261c0,0 -0.96114,-1.2787 -0.69053,-2.53056c0.2706,-1.25186 1.66555,-1.98017 1.66555,-1.98017l0.41703,-0.26542c0,0 1.28417,-0.97227 2.53841,-0.69555c1.25425,0.27676 2.00019,1.697 2.00019,1.697l6.43002,10.10261c0,0 0.96114,1.2787 0.69053,2.53056c-0.2706,1.25186 -1.66555,1.98017 -1.66555,1.98017z" data-paper-data="{&quot;index&quot;:null}" fill="#ffffff" stroke="none" stroke-linecap="butt"/><path d="M280.72756,161.90633c-1.34746,0.85761 -3.16135,0.41912 -4.0515,-0.97941c-0.89011,-1.3985 -0.51938,-3.22748 0.82808,-4.0851c1.34746,-0.85761 3.16135,-0.41912 4.0515,0.97941c0.89011,1.3985 0.51938,3.22748 -0.82808,4.08511z" fill="#262626" stroke="none" stroke-linecap="butt"/><path d="M280.0992,159.26712c-0.53679,0.34166 -1.2594,0.16696 -1.614,-0.39017c-0.35458,-0.55713 -0.20689,-1.28574 0.32989,-1.62738c0.53679,-0.34166 1.2594,-0.16696 1.614,0.39017c0.35458,0.55713 0.20689,1.28574 -0.32989,1.62738z" fill="#595959" stroke="none" stroke-linecap="butt"/><path d="M288.54988,168.81038c0.89011,1.39852 0.51938,3.22748 -0.82808,4.08511c-1.34746,0.85761 -3.16135,0.41912 -4.0515,-0.97941c-0.89011,-1.39852 -0.51938,-3.22748 0.82808,-4.0851c1.34746,-0.85761 3.16137,-0.41911 4.0515,0.97941z" data-paper-data="{&quot;index&quot;:null}" fill="#262626" stroke="none" stroke-linecap="butt"/><path d="M287.09341,170.25626c-0.53679,0.34166 -1.2594,0.16696 -1.614,-0.39017c-0.35458,-0.55713 -0.20689,-1.28574 0.32989,-1.62738c0.53679,-0.34166 1.2594,-0.16696 1.614,0.39017c0.35458,0.55713 0.20689,1.28574 -0.32989,1.62738z" data-paper-data="{&quot;index&quot;:null}" fill="#595959" stroke="none" stroke-linecap="butt"/><path d="M292.35432,160.73891c0,0 7.02572,1.80405 7.57456,2.66635c0.4802,0.7545 -3.0078,4.5088 -3.0078,4.5088" data-paper-data="{&quot;index&quot;:null}" fill="#c79750" stroke="#946a2c" stroke-linecap="round"/><path d="M285.91191,150.6168c0,0 4.878,-1.5704 5.35822,-0.8159c0.54882,0.86229 -0.79144,7.99105 -0.79144,7.99105" data-paper-data="{&quot;index&quot;:null}" fill="#c79750" stroke="#946a2c" stroke-linecap="round"/><g stroke-linecap="butt"><path d="M272.42167,174.6077c1.36464,2.14405 0.73278,4.98841 -1.41128,6.35304c-2.14405,1.36464 -4.98841,0.73278 -6.35304,-1.41128c-1.36464,-2.14405 -0.73278,-4.98841 1.41128,-6.35304c2.14405,-1.36464 4.98841,-0.73278 6.35304,1.41128z" fill="#faad32" stroke="#c78418"/><g><path d="M274.13753,167.09369c1.36464,2.14405 0.73278,4.98841 -1.41128,6.35304c-2.14405,1.36464 -4.98841,0.73278 -6.35304,-1.41128c-1.36464,-2.14405 -0.73278,-4.98841 1.41128,-6.35304c2.14405,-1.36464 4.98841,-0.73278 6.35304,1.41128z" fill="#faad32" stroke="#c78418"/><path d="M272.1412,169.08882l2.32456,3.65226l-4.21529,3.18479l-7.98187,3.81241l-4.8933,4.34703l-1.48244,0.78298l-2.60183,-4.08792l1.28705,-0.98465l6.05991,-2.61945l7.03627,-5.76659z" fill="#808080" stroke="#595959"/><path d="M264.93856,173.10878l2.83576,4.45546l-8.5485,5.44087l-2.83576,-4.45546z" fill="#b37924" stroke="#80520d"/></g></g></g></g></g></svg>