<svg version="1.1" xmlns="http://www.w3.org/2000/svg" xmlns:xlink="http://www.w3.org/1999/xlink" width="130.8" height="127.6" viewBox="0,0,130.8,127.6"><g transform="translate(-174.6,-116.2)"><g data-paper-data="{&quot;isPaintingLayer&quot;:true}" fill-rule="nonzero" stroke-miterlimit="10" stroke-dasharray="" stroke-dashoffset="0" style="mix-blend-mode: normal"><path d="M174.6,243.8v-127.6h130.8v127.6z" fill="none" stroke="none" stroke-width="0" stroke-linecap="butt" stroke-linejoin="miter"/><path d="M274.00572,135.96885c0,0 3.55619,-0.27998 5.56229,1.74915c2.00609,2.02913 1.74915,5.64625 1.74915,5.64625v73.27151c0,0 0.27998,3.59382 -1.74915,5.64625c-2.02913,2.05243 -5.56229,1.74915 -5.56229,1.74915h-67.90416c0,0 -3.61774,0.29456 -5.66724,-1.74915c-2.04951,-2.04371 -1.74915,-5.64625 -1.74915,-5.64625v-73.27151c0,0 -0.27998,-3.59382 1.74915,-5.64625c2.02913,-2.05243 5.56229,-1.74915 5.56229,-1.74915z" data-paper-data="{&quot;index&quot;:null}" fill="#b3a88f" stroke="#b3a88f" stroke-width="6" stroke-linecap="butt" stroke-linejoin="miter"/><path d="M274.00572,135.96885c0,0 3.55619,-0.27998 5.56229,1.74915c2.00609,2.02913 1.74915,5.64625 1.74915,5.64625v73.27151c0,0 0.27998,3.59382 -1.74915,5.64625c-2.02913,2.05243 -5.56229,1.74915 -5.56229,1.74915h-67.90416c0,0 -3.61774,0.29456 -5.66724,-1.74915c-2.04951,-2.04371 -1.74915,-5.64625 -1.74915,-5.64625v-73.27151c0,0 -0.27998,-3.59382 1.74915,-5.64625c2.02913,-2.05243 5.56229,-1.74915 5.56229,-1.74915z" data-paper-data="{&quot;index&quot;:null}" fill="#b3a88f" stroke="#807459" stroke-width="2" stroke-linecap="butt" stroke-linejoin="miter"/><path d="M268.85883,142.63313c0,0 3.01795,-0.2376 4.72042,1.48441c1.70246,1.72201 1.48441,4.79167 1.48441,4.79167v44.84826c0,0 0.2376,3.04988 -1.48441,4.79167c-1.72201,1.74179 -4.72042,1.48441 -4.72042,1.48441h-57.62661c0,0 -3.07018,0.24998 -4.80948,-1.48441c-1.73931,-1.73439 -1.48441,-4.79167 -1.48441,-4.79167v-44.84826c0,0 -0.2376,-3.04988 1.48441,-4.79167c1.72201,-1.74179 4.72042,-1.48441 4.72042,-1.48441z" data-paper-data="{&quot;index&quot;:null}" fill="#b3b3b3" stroke="#807459" stroke-width="2" stroke-linecap="butt" stroke-linejoin="miter"/><path d="M268.85883,142.63313c0,0 3.01795,-0.2376 4.72042,1.48441c1.70246,1.72201 1.48441,4.79167 1.48441,4.79167v44.84826c0,0 0.2376,3.04988 -1.48441,4.79167c-1.72201,1.74179 -4.72042,1.48441 -4.72042,1.48441h-57.62661c0,0 -3.07018,0.24998 -4.80948,-1.48441c-1.73931,-1.73439 -1.48441,-4.79167 -1.48441,-4.79167v-44.84826c0,0 -0.2376,-3.04988 1.48441,-4.79167c1.72201,-1.74179 4.72042,-1.48441 4.72042,-1.48441z" data-paper-data="{&quot;index&quot;:null}" fill="none" stroke="#807459" stroke-width="2" stroke-linecap="butt" stroke-linejoin="miter"/><text transform="translate(210.82836,217.61899) scale(0.36702,0.36702)" font-size="40" xml:space="preserve" fill="#ffffff" fill-rule="nonzero" stroke="#ffffff" stroke-width="2" stroke-linecap="butt" stroke-linejoin="round" stroke-miterlimit="10" stroke-dasharray="" stroke-dashoffset="0" font-family="Malgun Gothic" font-weight="normal" text-anchor="start" style="mix-blend-mode: normal"><tspan x="0" dy="0">SERVERS</tspan></text><g stroke-linejoin="miter"><g fill="#9a9a9a" stroke="#656565" stroke-width="1.5" stroke-linecap="butt"><path d="M220.48209,173.51534v-13.66675h20.25229v13.66675z"/><path d="M234.39733,173.51534v-16.4001h20.25229v16.4001z"/><path d="M226.44576,174.63891v-22.82472h20.25229v22.82472z"/></g><g fill="#52cbcc" stroke="#656565" stroke-width="1" stroke-linecap="butt"><path d="M240.14876,158.83563v-4.11111h4.11111v4.11111z"/><path d="M240.14876,165.50229v-4.11111h4.11111v4.11111z"/><path d="M240.14876,172.16896v-4.11111h4.11111v4.11111z"/></g><g fill="#939393" stroke="#656565" stroke-width="1" stroke-linecap="butt"><path d="M229.92653,158.83563v-4.11111h7.88889v4.11111z"/><path d="M229.92653,165.50229v-4.11111h7.88889v4.11111z"/><path d="M229.92653,172.16896v-4.11111h7.88889v4.11111z"/></g><g fill="none" stroke="#4e4080" stroke-width="1" stroke-linecap="round"><path d="M227.70431,183.94674c0,0 -2.53832,0.88889 -4.22222,0.88889c-1.6839,0 -3.11112,-0.88889 -3.11112,-0.88889c0,0 -2.09381,-1.62557 -1.22221,-3.55555c0.8716,-1.92999 4.33333,-3.33334 4.33333,-3.33334"/><path d="M226.23904,182.83247c0,0 -1.59551,0.55873 -2.65396,0.55873c-1.05845,0 -1.95556,-0.55873 -1.95556,-0.55873c0,0 -1.31916,-0.91855 -0.77129,-2.13168c0.54787,-1.21314 2.72685,-2.19849 2.72685,-2.19849"/></g><g data-paper-data="{&quot;index&quot;:null}" fill="none" stroke="#4d7281" stroke-width="1" stroke-linecap="round"><path d="M257.3633,168.34856c0,0 3.70901,0.69552 5.05774,3.25871c1.34873,2.5632 -0.24357,5.89037 -0.24357,5.89037c0,0 -1.14303,1.93597 -2.76759,2.63161c-1.62455,0.69564 -4.30732,0.39789 -4.30732,0.39789"/><path d="M257.75513,170.1345c0,0 2.36147,0.59231 3.20924,2.20346c0.84778,1.61115 -0.1832,3.54739 -0.1832,3.54739c0,0 -0.71848,1.21689 -1.73962,1.65416c-1.02115,0.43726 -2.70746,0.2501 -2.70746,0.2501"/></g><g fill="none" stroke="#4d7281" stroke-width="1" stroke-linecap="round"><path d="M231.48209,177.83563c0,0 -7.0006,-2.2606 -10.55555,-7.55656c-1.68847,-2.51537 -4.11178,-9.05098 -1.55555,-11.35091c1.74281,-1.56807 6,-1.21765 6,-1.21765"/><path d="M232.70431,176.39119c0,0 -8.29474,-2.39766 -12.50687,-8.01472c-2.0006,-2.66788 -4.87189,-9.59974 -1.84312,-12.03912c2.06499,-1.66314 7.10917,-1.29148 7.10917,-1.29148"/></g><g fill="none" stroke="#4e4080" stroke-width="1" stroke-linecap="round"><path d="M247.81542,152.50229c0,0 9.8254,-0.2493 10.11111,8.44444c0.16887,5.13838 -9.33333,14.44444 -9.33333,14.44444"/><path d="M247.81542,154.72452c0,0 7.88234,-0.2493 8.11155,8.44444c0.13547,5.13838 -7.48759,14.44444 -7.48759,14.44444"/></g><path d="M258.70431,180.79693c0,5.12398 -7.94777,12.38888 -17.88889,12.38888c-9.94112,0 -16.66667,-4.37602 -16.66667,-9.49999c0,-5.12398 3.72555,-7.61111 13.66667,-7.61111c2.67049,0 7.71174,-6.36055 13.60656,-5.02794c5.89482,1.33261 7.28233,8.02058 7.28233,9.75016z" fill="#f3b762" stroke="#bf8739" stroke-width="1.5" stroke-linecap="butt"/><path d="M228.81542,180.83563l-1.83334,-5.33334" fill="none" stroke="#bf9f72" stroke-width="2.5" stroke-linecap="round"/><path d="M254.81543,167.36088l-2.72223,7.9192" data-paper-data="{&quot;index&quot;:null}" fill="none" stroke="#cccccc" stroke-width="2.5" stroke-linecap="round"/><path d="M248.14875,187.44674c0,1.19662 -2.18883,2.16667 -4.88889,2.16667c-2.70006,0 -4.88889,-0.97006 -4.88889,-2.16667c0,-1.19662 2.18883,-2.16666 4.88889,-2.16666c2.70006,0 4.88889,0.97005 4.88889,2.16666z" fill="#eab05e" stroke="none" stroke-width="0" stroke-linecap="butt"/><path d="M248.81542,177.1134c0,0.88979 -1.36802,1.61111 -3.05555,1.61111c-1.68753,0 -3.05555,-0.72132 -3.05555,-1.61111c0,-0.88979 1.36802,-1.61111 3.05555,-1.61111c1.68753,0 3.05555,0.72132 3.05555,1.61111z" fill="#eab05e" stroke="none" stroke-width="0" stroke-linecap="butt"/><path d="M252.31542,180.05784c1.81026,0 3.27777,0.77108 3.27777,1.72223c0,0.95116 -1.46751,1.72222 -3.27777,1.72222c-1.81026,0 -3.27778,-0.77106 -3.27778,-1.72222c0,-0.95116 1.46752,-1.72223 3.27778,-1.72223z" fill="#eab05e" stroke="none" stroke-width="0" stroke-linecap="butt"/><path d="M234.25987,185.28008c0,0.85911 -1.54213,1.55555 -3.44445,1.55555c-1.90231,0 -3.44445,-0.69645 -3.44445,-1.55555c0,-0.85911 1.54213,-1.55556 3.44445,-1.55556c1.90231,0 3.44445,0.69645 3.44445,1.55556z" fill="#eab05e" stroke="none" stroke-width="0" stroke-linecap="butt"/><path d="M240.14875,181.28007c0,0.73638 -1.19391,1.33334 -2.66666,1.33334c-1.47276,0 -2.66666,-0.59696 -2.66666,-1.33334c0,-0.73638 1.19391,-1.33333 2.66666,-1.33333c1.47276,0 2.66666,0.59695 2.66666,1.33333z" fill="#eab05e" stroke="none" stroke-width="0" stroke-linecap="butt"/><path d="M258.59979,167.86869l-0.81519,3.18468l-4.19799,-1.07456l0.81519,-3.18468z" data-paper-data="{&quot;index&quot;:null}" fill="#ffeb66" stroke="none" stroke-width="0" stroke-linecap="butt"/><path d="M223.62402,179.49782l-0.81518,-3.18468l4.19798,-1.07456l0.81519,3.18468z" data-paper-data="{&quot;index&quot;:null}" fill="#ffeb66" stroke="none" stroke-width="0" stroke-linecap="butt"/></g></g></g></svg>