<svg version="1.1" xmlns="http://www.w3.org/2000/svg" xmlns:xlink="http://www.w3.org/1999/xlink" width="105.61904" height="105.61904" viewBox="0,0,105.61904,105.61904"><g transform="translate(-187.19051,-127.1905)"><g data-paper-data="{&quot;isPaintingLayer&quot;:true}" fill-rule="nonzero" stroke-linecap="butt" stroke-miterlimit="10" stroke-dasharray="" stroke-dashoffset="0" style="mix-blend-mode: normal"><path d="M187.19052,180.00003c0,-29.16592 23.64362,-52.80952 52.80952,-52.80952c29.16592,0 52.80952,23.64361 52.80952,52.80952c0,29.16592 -23.64361,52.80952 -52.80952,52.80952c-29.16592,0 -52.80952,-23.64361 -52.80952,-52.80952z" fill="none" stroke="none" stroke-width="0" stroke-linejoin="miter"/><path d="M227.1107,183.07431c0,-2.81469 2.28176,-5.09645 5.09645,-5.09645c2.81469,0 5.09645,2.28176 5.09645,5.09645c0,2.81469 -2.28176,5.09645 -5.09645,5.09645c-2.81469,0 -5.09645,-2.28176 -5.09645,-5.09645z" fill="#faad32" stroke="#c78418" stroke-width="1.5" stroke-linejoin="round"/><path d="M229.40214,185.33069l0.00575,-10.66137h8.91016l0.01015,10.61087z" data-paper-data="{&quot;index&quot;:null}" fill="#b37924" stroke="#80520d" stroke-width="1.5" stroke-linejoin="round"/><path d="M239.66559,178.667l12.68808,0.00156v2.41131l-12.62797,0.00275z" data-paper-data="{&quot;index&quot;:null}" fill="#808080" stroke="#595959" stroke-width="1" stroke-linejoin="round"/><path d="M239.66559,181.87347l12.68808,0.00156v2.41131l-12.62797,0.00275z" data-paper-data="{&quot;index&quot;:null}" fill="#808080" stroke="#595959" stroke-width="1" stroke-linejoin="round"/><path d="M239.66559,175.46053l12.68808,0.00156v2.41131l-12.62797,0.00275z" data-paper-data="{&quot;index&quot;:null}" fill="#808080" stroke="#595959" stroke-width="1" stroke-linejoin="round"/><path d="M237.79059,186.3323l0.00236,-12.66458h3.66109l0.00417,12.60459z" data-paper-data="{&quot;index&quot;:null}" fill="#808080" stroke="#595959" stroke-width="1.5" stroke-linejoin="round"/></g></g></svg>