<svg version="1.1" xmlns="http://www.w3.org/2000/svg" xmlns:xlink="http://www.w3.org/1999/xlink" width="105.61904" height="105.61904" viewBox="0,0,105.61904,105.61904"><g transform="translate(-187.19047,-127.19047)"><g data-paper-data="{&quot;isPaintingLayer&quot;:true}" fill-rule="nonzero" stroke-miterlimit="10" stroke-dasharray="" stroke-dashoffset="0" style="mix-blend-mode: normal"><path d="M187.19048,180c0,-29.16592 23.64362,-52.80952 52.80952,-52.80952c29.16592,0 52.80952,23.64361 52.80952,52.80952c0,29.16592 -23.64361,52.80952 -52.80952,52.80952c-29.16592,0 -52.80952,-23.64361 -52.80952,-52.80952z" fill="none" stroke="none" stroke-width="0" stroke-linecap="butt" stroke-linejoin="miter"/><path d="M211.65524,180.00002c0,-9.23121 11.13405,-16.71461 24.86861,-16.71461c13.73454,0 24.86862,7.48337 24.86862,16.71461c0,9.23121 -11.13405,16.71461 -24.86862,16.71461c-13.73454,0 -24.86861,-7.48337 -24.86861,-16.71461z" fill="none" stroke="none" stroke-width="0" stroke-linecap="butt" stroke-linejoin="round"/><path d="M227.1107,183.07426c0,-2.81469 2.28176,-5.09645 5.09645,-5.09645c2.81469,0 5.09645,2.28176 5.09645,5.09645c0,2.81469 -2.28176,5.09645 -5.09645,5.09645c-2.81469,0 -5.09645,-2.28176 -5.09645,-5.09645z" fill="#faad32" stroke="#c78418" stroke-width="1.5" stroke-linecap="butt" stroke-linejoin="round"/><path d="M231.23595,182.55809v-5.11618h17.52811v5.11618z" fill="#808080" stroke="#595959" stroke-width="1.5" stroke-linecap="butt" stroke-linejoin="round"/><path d="M242.79908,179.98935h3.78919" fill="none" stroke="#595959" stroke-width="1" stroke-linecap="round" stroke-linejoin="round"/></g></g></svg>