<svg version="1.1" xmlns="http://www.w3.org/2000/svg" xmlns:xlink="http://www.w3.org/1999/xlink" width="49.73723" height="33.42922" viewBox="0,0,49.73723,33.42922"><g transform="translate(-211.65524,-163.28545)"><g data-paper-data="{&quot;isPaintingLayer&quot;:true}" fill-rule="nonzero" stroke-linecap="butt" stroke-linejoin="round" stroke-miterlimit="10" stroke-dasharray="" stroke-dashoffset="0" style="mix-blend-mode: normal"><path d="M211.65524,180.00006c0,-9.23121 11.13405,-16.71461 24.86861,-16.71461c13.73454,0 24.86862,7.48337 24.86862,16.71461c0,9.23121 -11.13405,16.71461 -24.86862,16.71461c-13.73454,0 -24.86861,-7.48337 -24.86861,-16.71461z" fill="none" stroke="none" stroke-width="0"/><path d="M227.1107,183.0743c0,-2.81469 2.28176,-5.09645 5.09645,-5.09645c2.81469,0 5.09645,2.28176 5.09645,5.09645c0,2.81469 -2.28176,5.09645 -5.09645,5.09645c-2.81469,0 -5.09645,-2.28176 -5.09645,-5.09645z" fill="#faad32" stroke="#c78418" stroke-width="1.5"/><path d="M229.40214,185.33068l0.00575,-10.66137h8.91016l0.01015,10.61087z" data-paper-data="{&quot;index&quot;:null}" fill="#b37924" stroke="#80520d" stroke-width="1.5"/><path d="M239.66559,178.66699l12.68808,0.00156v2.41131l-12.62797,0.00275z" data-paper-data="{&quot;index&quot;:null}" fill="#808080" stroke="#595959" stroke-width="1"/><path d="M239.66559,181.87346l12.68808,0.00156v2.41131l-12.62797,0.00275z" data-paper-data="{&quot;index&quot;:null}" fill="#808080" stroke="#595959" stroke-width="1"/><path d="M239.66559,175.46052l12.68808,0.00156v2.41131l-12.62797,0.00275z" data-paper-data="{&quot;index&quot;:null}" fill="#808080" stroke="#595959" stroke-width="1"/><path d="M237.79059,186.33229l0.00236,-12.66458h3.66109l0.00417,12.60459z" data-paper-data="{&quot;index&quot;:null}" fill="#808080" stroke="#595959" stroke-width="1.5"/></g></g></svg>