<svg version="1.1" xmlns="http://www.w3.org/2000/svg" xmlns:xlink="http://www.w3.org/1999/xlink" width="49.73722" height="33.42922" viewBox="0,0,49.73722,33.42922"><g transform="translate(-211.65524,-163.28544)"><g data-paper-data="{&quot;isPaintingLayer&quot;:true}" fill-rule="nonzero" stroke-linecap="butt" stroke-linejoin="round" stroke-miterlimit="10" stroke-dasharray="" stroke-dashoffset="0" style="mix-blend-mode: normal"><path d="M227.1107,183.07429c0,-2.81469 2.28176,-5.09645 5.09645,-5.09645c2.81469,0 5.09645,2.28176 5.09645,5.09645c0,2.81469 -2.28176,5.09645 -5.09645,5.09645c-2.81469,0 -5.09645,-2.28176 -5.09645,-5.09645z" fill="#faad32" stroke="#c78418" stroke-width="1.5"/><path d="M211.65524,180.00005c0,-9.23122 11.13405,-16.71461 24.86861,-16.71461c13.73454,0 24.86861,7.48338 24.86861,16.71461c0,9.23122 -11.13405,16.71461 -24.86861,16.71461c-13.73454,0 -24.86861,-7.48338 -24.86861,-16.71461z" fill="none" stroke="none" stroke-width="0"/><path d="M230.46466,183.08711v-6.1913l1.84331,-0.44426l1.42482,1.32517l12.24906,-0.4761l4.10417,-0.31563l3.08821,0.14134v5.7302l-3.02879,0.14567l-4.16357,-0.31996l-12.25466,-0.47582l-1.41682,1.32686z" data-paper-data="{&quot;index&quot;:null}" fill="#597db3" stroke="#335080" stroke-width="1.5"/><path d="M234.77021,182.41412v-4.84486l5.95155,-0.73038l4.67469,0.31651v5.67256l-4.64128,0.33324z" data-paper-data="{&quot;index&quot;:null}" fill="#cce0ff" stroke="#85a1cc" stroke-width="1.5"/></g></g></svg>