<svg version="1.1" xmlns="http://www.w3.org/2000/svg" xmlns:xlink="http://www.w3.org/1999/xlink" width="148.53334" height="143.98226" viewBox="0,0,148.53334,143.98226"><g transform="translate(-165.73334,-100.9126)"><g data-paper-data="{&quot;isPaintingLayer&quot;:true}" fill-rule="nonzero" stroke-miterlimit="10" stroke-dasharray="" stroke-dashoffset="0" style="mix-blend-mode: normal"><g stroke="none" stroke-width="0" stroke-linecap="butt" stroke-linejoin="miter"><path d="M165.73334,229.29064v-98.58119h148.53334v98.58119z" fill="#cccccc"/><g fill="#b3b3b3"><g><path d="M280.67104,195.57902v-15.07115h15.07115v15.07115z"/><path d="M280.67104,227.75256v-15.07115h15.07115v15.07115z"/><path d="M280.67104,211.66579v-15.07115h15.07115v15.07115z"/><path d="M280.67104,163.40544v-15.07115h15.07115v15.07115z"/><path d="M280.67104,147.31869v-15.07115h15.07115v15.07115z"/><path d="M280.67104,179.49224v-15.07115h15.07115v15.07115z"/><path d="M264.58429,195.57902v-15.07115h15.07115v15.07115z"/><path d="M264.58429,227.75256v-15.07115h15.07115v15.07115z"/><path d="M264.58429,211.66579v-15.07115h15.07115v15.07115z"/><path d="M264.58429,163.40544v-15.07115h15.07115v15.07115z"/><path d="M264.58429,147.31869v-15.07115h15.07115v15.07115z"/><path d="M264.58429,179.49224v-15.07115h15.07115v15.07115z"/><path d="M296.75781,195.57902v-15.07115h15.07115v15.07115z"/><path d="M296.75781,227.75256v-15.07115h15.07115v15.07115z"/><path d="M296.75781,211.66579v-15.07115h15.07115v15.07115z"/><path d="M296.75781,163.40544v-15.07115h15.07115v15.07115z"/><path d="M296.75781,147.31869v-15.07115h15.07115v15.07115z"/><path d="M296.75781,179.49224v-15.07115h15.07115v15.07115z"/></g><g><path d="M232.51814,195.57902v-15.07115h15.07115v15.07115z"/><path d="M232.51814,227.75256v-15.07115h15.07115v15.07115z"/><path d="M232.51814,211.66579v-15.07115h15.07115v15.07115z"/><path d="M232.51814,163.40544v-15.07115h15.07115v15.07115z"/><path d="M232.51814,147.31869v-15.07115h15.07115v15.07115z"/><path d="M232.51814,179.49224v-15.07115h15.07115v15.07115z"/></g><g><path d="M168.17106,195.57902v-15.07115h15.07115v15.07115z"/><path d="M168.17106,227.75256v-15.07115h15.07115v15.07115z"/><path d="M168.17106,211.66579v-15.07115h15.07115v15.07115z"/><path d="M168.17106,163.40544v-15.07115h15.07115v15.07115z"/><path d="M168.17106,147.31869v-15.07115h15.07115v15.07115z"/><path d="M168.17106,179.49224v-15.07115h15.07115v15.07115z"/></g><g><path d="M200.3446,195.57902v-15.07115h15.07115v15.07115z"/><path d="M200.3446,227.75256v-15.07115h15.07115v15.07115z"/><path d="M200.3446,211.66579v-15.07115h15.07115v15.07115z"/><path d="M200.3446,163.40544v-15.07115h15.07115v15.07115z"/><path d="M200.3446,147.31869v-15.07115h15.07115v15.07115z"/><path d="M200.3446,179.49224v-15.07115h15.07115v15.07115z"/></g><g><path d="M216.43137,195.57902v-15.07115h15.07115v15.07115z"/><path d="M216.43137,227.75256v-15.07115h15.07115v15.07115z"/><path d="M216.43137,211.66579v-15.07115h15.07115v15.07115z"/><path d="M216.43137,163.40544v-15.07115h15.07115v15.07115z"/><path d="M216.43137,147.31869v-15.07115h15.07115v15.07115z"/><path d="M216.43137,179.49224v-15.07115h15.07115v15.07115z"/></g><g><path d="M248.6049,195.57902v-15.07115h15.07115v15.07115z"/><path d="M248.6049,227.75256v-15.07115h15.07115v15.07115z"/><path d="M248.6049,211.66579v-15.07115h15.07115v15.07115z"/><path d="M248.6049,163.40544v-15.07115h15.07115v15.07115z"/><path d="M248.6049,147.31869v-15.07115h15.07115v15.07115z"/><path d="M248.6049,179.49224v-15.07115h15.07115v15.07115z"/></g><g><path d="M184.25783,195.57902v-15.07115h15.07115v15.07115z"/><path d="M184.25783,227.75256v-15.07115h15.07115v15.07115z"/><path d="M184.25783,211.66579v-15.07115h15.07115v15.07115z"/><path d="M184.25783,163.40544v-15.07115h15.07115v15.07115z"/><path d="M184.25783,147.31869v-15.07115h15.07115v15.07115z"/><path d="M184.25783,179.49224v-15.07115h15.07115v15.07115z"/></g></g></g><g stroke-width="0.7"><g stroke-linejoin="round"><path d="M274.69803,211.73134c0,0 -1.50997,-0.91158 -1.73194,-2.30488c-0.22195,-1.39329 0.92298,-2.77313 0.92298,-2.77313l4.04042,-5.63917c0,0 0.92242,-1.5251 2.32906,-1.76569c1.40663,-0.24058 2.73938,0.89879 2.73938,0.89879l3.00321,2.15177c0,0 1.53891,0.92344 1.77412,2.33509c0.23522,1.41166 -0.92298,2.77313 -0.92298,2.77313l-4.04042,5.63917c0,0 -0.92242,1.5251 -2.32906,1.76569c-1.40663,0.24058 -2.73938,-0.89879 -2.73938,-0.89879z" data-paper-data="{&quot;index&quot;:null}" fill="#faad32" stroke="#c78418" stroke-linecap="butt"/><path d="M274.762,209.31971c0,0 -0.74966,-0.45258 -0.85986,-1.1443c-0.1102,-0.69173 0.45823,-1.37678 0.45823,-1.37678l3.85826,-5.38493c0,0 0.45795,-0.75717 1.15631,-0.87661c0.69835,-0.11944 1.36003,0.44622 1.36003,0.44622l0.22228,0.15926c0,0 0.76402,0.45846 0.8808,1.15931c0.11678,0.70084 -0.45823,1.37678 -0.45823,1.37678l-3.85826,5.38493c0,0 -0.45795,0.75717 -1.15631,0.87661c-0.69835,0.11944 -1.36003,-0.44622 -1.36003,-0.44622z" data-paper-data="{&quot;index&quot;:null}" fill="#ffffff" stroke="none" stroke-linecap="butt"/><path d="M274.84273,212.60383l0.81213,-1.90589l2.11306,0.43893l5.67634,-7.90931l-1.14059,-1.86065l1.56693,-1.3632l2.13055,2.29533l3.63262,2.02814l-2.78148,3.08009l0.15738,4.35421l-4.1978,1.28496l-2.02209,3.62419l-3.04635,-2.7573z" data-paper-data="{&quot;index&quot;:null}" fill="#00b3b3" stroke="#008080" stroke-linecap="butt"/><path d="M282.64402,209.8477c0,0 0.52388,3.97822 0.19457,4.43784c-0.28815,0.40217 -2.93481,-0.61331 -2.93481,-0.61331" data-paper-data="{&quot;index&quot;:null}" fill="#00b3b3" stroke="#008080" stroke-linecap="round"/><path d="M286.50972,204.45239c0,0 1.81261,2.17955 1.52446,2.58172c-0.32931,0.45962 -4.26471,1.24281 -4.26471,1.24281" data-paper-data="{&quot;index&quot;:null}" fill="#00b3b3" stroke="#008080" stroke-linecap="round"/><path d="M279.64557,204.1212c-0.71822,-0.5146 -0.86748,-1.53607 -0.33337,-2.28152c0.53411,-0.74545 1.54932,-0.93259 2.26755,-0.41799c0.71822,0.5146 0.86748,1.53607 0.33337,2.28153c-0.53411,0.74545 -1.54932,0.93259 -2.26756,0.41798z" fill="#262626" stroke="none" stroke-linecap="butt"/><path d="M280.87047,203.25406c-0.28612,-0.205 -0.34558,-0.61193 -0.13281,-0.9089c0.21277,-0.29696 0.6172,-0.37152 0.90333,-0.16651c0.28612,0.205 0.34558,0.61193 0.13281,0.9089c-0.21277,0.29696 -0.6172,0.37152 -0.90333,0.16651z" fill="#595959" stroke="none" stroke-linecap="butt"/><path d="M277.71629,209.56068c-0.53411,0.74545 -1.54932,0.93259 -2.26756,0.41798c-0.71822,-0.5146 -0.86747,-1.53607 -0.33337,-2.28152c0.53411,-0.74545 1.54932,-0.93259 2.26755,-0.41799c0.71822,0.5146 0.86748,1.53608 0.33337,2.28153z" data-paper-data="{&quot;index&quot;:null}" fill="#262626" stroke="none" stroke-linecap="butt"/><path d="M276.67363,209.11154c-0.28612,-0.205 -0.34558,-0.61193 -0.13281,-0.9089c0.21277,-0.29696 0.6172,-0.37152 0.90333,-0.16651c0.28612,0.205 0.34558,0.61193 0.13281,0.9089c-0.21277,0.29696 -0.6172,0.37152 -0.90333,0.16651z" data-paper-data="{&quot;index&quot;:null}" fill="#595959" stroke="none" stroke-linecap="butt"/></g><g><path d="M282.00084,195.57759c-0.81883,1.14284 -2.40908,1.40549 -3.55191,0.58666c-1.14284,-0.81883 -1.40549,-2.40908 -0.58666,-3.55191c0.81883,-1.14284 2.40908,-1.40549 3.55191,-0.58666c1.14284,0.81883 1.40549,2.40908 0.58666,3.55191z" fill="#faad32" stroke="#c78418" stroke-linecap="butt" stroke-linejoin="round"/><path d="M279.05399,195.29369c-1.18682,1.65644 -3.49174,2.03714 -5.14818,0.85031c-1.65644,-1.18682 -2.03714,-3.49174 -0.85031,-5.14818c1.18682,-1.65644 3.49174,-2.03714 5.14818,-0.85031c1.65644,1.18682 2.03714,3.49174 0.85031,5.14818z" fill="#000000" stroke="none" stroke-linecap="butt" stroke-linejoin="miter"/><path d="M271.94644,193.77847c0,0 -1.7364,0.86473 -2.26188,0.68732c-0.61728,-0.2084 -1.28449,-1.53578 -1.28449,-1.53578" fill="none" stroke="#ffffff" stroke-linecap="round" stroke-linejoin="miter"/><path d="M273.32391,195.10387l-1.29571,0.21401l-0.49935,-3.0233l1.29571,-0.21401z" fill="#000000" stroke="none" stroke-linecap="butt" stroke-linejoin="miter"/></g><g fill="#faad32" stroke="#c78418" stroke-linecap="butt" stroke-linejoin="round"><path d="M270.65836,209.26421c-0.81883,1.14284 -2.40908,1.40549 -3.55191,0.58666c-1.14284,-0.81883 -1.40549,-2.40908 -0.58666,-3.55191c0.81883,-1.14284 2.40908,-1.40549 3.55191,-0.58666c1.14284,0.81883 1.40549,2.40908 0.58666,3.55191z"/></g></g><g stroke-width="0.7" stroke-linejoin="round"><path d="M228.1255,147.45761c0,0 1.17918,1.31169 0.98592,2.70925c-0.19327,1.39756 -1.69034,2.38431 -1.69034,2.38431l-5.50713,4.21864c0,0 -1.32647,1.1905 -2.74221,1.01116c-1.41574,-0.17935 -2.35906,-1.65738 -2.35906,-1.65738l-2.24668,-2.93288c0,0 -1.20341,-1.33146 -1.01747,-2.75045c0.18594,-1.41899 1.69034,-2.38431 1.69034,-2.38431l5.50713,-4.21864c0,0 1.32647,-1.1905 2.74221,-1.01116c1.41574,0.17935 2.35906,1.65738 2.35906,1.65738z" data-paper-data="{&quot;index&quot;:null}" fill="#faad32" stroke="#c78418" stroke-linecap="butt"/><path d="M226.6804,145.5711l-11.31283,8.66597l-0.80157,-1.0464c0,0 -1.20341,-1.33146 -1.01747,-2.75045c0.18594,-1.41899 1.69034,-2.38431 1.69034,-2.38431l5.50713,-4.21864c0,0 1.32647,-1.1905 2.74221,-1.01116c1.41574,0.17935 2.35906,1.65738 2.35906,1.65738z" data-paper-data="{&quot;index&quot;:null}" fill="#c79750" stroke="#946a2c" stroke-linecap="butt"/><path d="M227.36221,149.74615c0,0 0.58544,0.65121 0.48948,1.34506c-0.09596,0.69385 -0.8392,1.18374 -0.8392,1.18374l-5.25884,4.02844c0,0 -0.65855,0.59105 -1.36143,0.50201c-0.70288,-0.08904 -1.1712,-0.82283 -1.1712,-0.82283l-0.16629,-0.21708c0,0 -0.59745,-0.66103 -0.50515,-1.36551c0.09232,-0.70449 0.8392,-1.18374 0.8392,-1.18374l5.25884,-4.02844c0,0 0.65855,-0.59105 1.36143,-0.50201c0.70288,0.08904 1.1712,0.82283 1.1712,0.82283z" data-paper-data="{&quot;index&quot;:null}" fill="#ffffff" stroke="none" stroke-linecap="butt"/><path d="M221.17675,153.29773c0.5373,0.70141 0.38271,1.72208 -0.34528,2.27976c-0.72798,0.55766 -1.75371,0.44114 -2.29101,-0.26027c-0.5373,-0.70141 -0.38271,-1.72208 0.34528,-2.27976c0.72798,-0.55766 1.75371,-0.44114 2.29102,0.26027z" fill="#262626" stroke="none" stroke-linecap="butt"/><path d="M219.75246,153.77069c0.21405,0.27942 0.15246,0.68603 -0.13755,0.90819c-0.29001,0.22215 -0.69863,0.17573 -0.91267,-0.10369c-0.21405,-0.27942 -0.15246,-0.68603 0.13755,-0.90819c0.29001,-0.22215 0.69863,-0.17573 0.91267,0.10369z" fill="#595959" stroke="none" stroke-linecap="butt"/><path d="M224.60606,148.65553c0.72799,-0.55766 1.75371,-0.44114 2.29102,0.26027c0.5373,0.70141 0.38271,1.72208 -0.34528,2.27976c-0.72799,0.55766 -1.75371,0.44114 -2.29101,-0.26027c-0.5373,-0.70141 -0.38271,-1.72209 0.34528,-2.27976z" data-paper-data="{&quot;index&quot;:null}" fill="#262626" stroke="none" stroke-linecap="butt"/><path d="M225.47278,149.38878c0.21405,0.27942 0.15246,0.68603 -0.13755,0.90819c-0.29001,0.22215 -0.69863,0.17573 -0.91267,-0.10369c-0.21405,-0.27942 -0.15246,-0.68603 0.13755,-0.90819c0.29001,-0.22215 0.69863,-0.17573 0.91267,0.10369z" data-paper-data="{&quot;index&quot;:null}" fill="#595959" stroke="none" stroke-linecap="butt"/><path d="M219.97533,146.94635c0,0 0.65698,-3.95841 1.10584,-4.30226c0.39275,-0.30085 2.62913,1.44116 2.62913,1.44116" data-paper-data="{&quot;index&quot;:null}" fill="#c79750" stroke="#946a2c" stroke-linecap="round"/><path d="M214.70634,150.98255c0,0 -1.09957,-2.61285 -0.70682,-2.91371c0.44886,-0.34384 4.44179,0.0526 4.44179,0.0526" data-paper-data="{&quot;index&quot;:null}" fill="#c79750" stroke="#946a2c" stroke-linecap="round"/><g stroke-linecap="butt"><path d="M228.57504,157.2654c1.11607,-0.85495 2.7139,-0.64326 3.56885,0.47281c0.85495,1.11607 0.64326,2.7139 -0.47281,3.56885c-1.11607,0.85495 -2.7139,0.64326 -3.56885,-0.47281c-0.85495,-1.11607 -0.64326,-2.7139 0.47281,-3.56885z" fill="#faad32" stroke="#c78418"/><g><path d="M224.35177,156.68046c1.11607,-0.85495 2.7139,-0.64326 3.56885,0.47281c0.85495,1.11607 0.64326,2.7139 -0.47281,3.56885c-1.11607,0.85495 -2.7139,0.64326 -3.56885,-0.47281c-0.85495,-1.11607 -0.64326,-2.7139 0.47281,-3.56885z" fill="#faad32" stroke="#c78418"/><path d="M225.54709,157.68486l1.90116,-1.45635l1.95744,2.17015l2.4841,4.21576l2.63048,2.48801l0.50265,0.77938l-2.12794,1.63006l-0.60441,-0.66202l-1.73442,-3.21384l-3.51565,-3.60085z" fill="#808080" stroke="#595959"/><path d="M228.10817,161.46123l2.31926,-1.77662l3.40873,4.44986l-2.31926,1.77662z" fill="#b37924" stroke="#80520d"/></g></g></g><g data-paper-data="{&quot;index&quot;:null}" fill="none" stroke="#666666" stroke-width="17" stroke-linecap="round" stroke-linejoin="miter"><path d="M288.02815,155.77977h-32.29379"/><path d="M288.28794,155.70639v-46.29379"/></g><g data-paper-data="{&quot;index&quot;:null}" fill="none" stroke="#666666" stroke-width="17" stroke-linecap="round" stroke-linejoin="miter"><path d="M239.92284,220.10107v16.29379"/><path d="M239.84947,220.09129"/></g><g stroke="none" stroke-width="0" stroke-linecap="butt" stroke-linejoin="miter"><g><path d="M199.47204,180.44676v-17.06368h17.06368v17.06368z" fill="#996e2e"/><path d="M200.91003,179.00876v-14.1877h14.1877v14.1877z" fill="#cc9b52"/><path d="M199.88313,178.5817l14.78753,-14.78753l1.45396,1.45396l-14.78753,14.78753z" fill="#996e2e"/><path d="M214.67066,180.03566l-14.78753,-14.78753l1.45396,-1.45396l14.78753,14.78753z" data-paper-data="{&quot;index&quot;:null}" fill="#996e2e"/></g><g><path d="M183.13096,180.44676v-17.06368h17.06368v17.06368z" fill="#996e2e"/><path d="M184.56895,179.00876v-14.1877h14.1877v14.1877z" fill="#cc9b52"/><path d="M183.54206,178.5817l14.78753,-14.78753l1.45396,1.45396l-14.78753,14.78753z" fill="#996e2e"/><path d="M198.32959,180.03566l-14.78753,-14.78753l1.45396,-1.45396l14.78753,14.78753z" data-paper-data="{&quot;index&quot;:null}" fill="#996e2e"/></g></g><g stroke="none" stroke-width="0" stroke-linecap="butt" stroke-linejoin="miter"><g><path d="M183.22204,164.19673v-17.06368h17.06368v17.06368z" fill="#996e2e"/><path d="M184.66003,162.75876v-14.1877h14.1877v14.1877z" fill="#cc9b52"/><path d="M183.63313,162.33166l14.78753,-14.78753l1.45396,1.45396l-14.78753,14.78753z" fill="#996e2e"/><path d="M198.42066,163.78564l-14.78753,-14.78753l1.45396,-1.45396l14.78753,14.78753z" data-paper-data="{&quot;index&quot;:null}" fill="#996e2e"/></g><g><path d="M166.88096,164.19673v-17.06368h17.06368v17.06368z" fill="#996e2e"/><path d="M168.31895,162.75876v-14.1877h14.1877v14.1877z" fill="#cc9b52"/><path d="M167.29206,162.33166l14.78753,-14.78753l1.45396,1.45396l-14.78753,14.78753z" fill="#996e2e"/><path d="M182.07959,163.78564l-14.78753,-14.78753l1.45396,-1.45396l14.78753,14.78753z" data-paper-data="{&quot;index&quot;:null}" fill="#996e2e"/></g></g><g><g stroke-width="0.7"><g stroke-linejoin="round"><path d="M198.16399,198.03817c0,0 1.5891,-0.7378 2.86002,-0.1472c1.27092,0.5906 1.77197,2.29967 1.77197,2.29967l2.40232,6.45862c0,0 0.74424,1.60643 0.16157,2.89867c-0.58267,1.29225 -2.26103,1.75761 -2.26103,1.75761l-3.43961,1.27938c0,0 -1.61494,0.75504 -2.90833,0.16517c-1.2934,-0.58988 -1.77197,-2.29968 -1.77197,-2.29968l-2.40232,-6.45861c0,0 -0.74424,-1.60643 -0.16157,-2.89867c0.58267,-1.29225 2.26103,-1.75761 2.26103,-1.75761z" data-paper-data="{&quot;index&quot;:null}" fill="#faad32" stroke="#c78418" stroke-linecap="butt"/><path d="M197.60312,211.80851l-2.9729,-0.17739l1.34364,-4.20289" fill="#faad32" stroke="#c78418" stroke-linecap="round"/><path d="M200.11502,199.4296c0,0 0.78895,-0.36628 1.41992,-0.07308c0.63097,0.29321 0.87973,1.14173 0.87973,1.14173l2.29399,6.16742c0,0 0.36949,0.79755 0.08022,1.43911c-0.28927,0.64156 -1.12253,0.87259 -1.12253,0.87259l-0.25459,0.09469c0,0 -0.80177,0.37486 -1.44391,0.08201c-0.64213,-0.29285 -0.87973,-1.14172 -0.87973,-1.14172l-2.29399,-6.16741c0,0 -0.36949,-0.79755 -0.08022,-1.43911c0.28927,-0.64156 1.12254,-0.87259 1.12254,-0.87259z" data-paper-data="{&quot;index&quot;:null}" fill="#ffffff" stroke="none" stroke-linecap="butt"/><path d="M195.3047,205.62919l-3.76362,-2.30321l2.13436,-2.07706" data-paper-data="{&quot;index&quot;:null}" fill="#faad32" stroke="#c78418" stroke-linecap="round"/><path d="M201.6863,206.33813c0.8226,-0.30597 1.74688,0.13812 2.06443,0.99188c0.31756,0.85376 -0.09184,1.79393 -0.91444,2.09989c-0.8226,0.30597 -1.74688,-0.13812 -2.06443,-0.99188c-0.31756,-0.85376 0.09184,-1.79393 0.91444,-2.09989z" fill="#262626" stroke="none" stroke-linecap="butt"/><path d="M201.72064,207.82846c0.3277,-0.12188 0.69591,0.05503 0.82241,0.39514c0.12651,0.34011 -0.03658,0.71465 -0.36429,0.83654c-0.3277,0.12188 -0.6959,-0.05503 -0.82241,-0.39514c-0.12651,-0.34011 0.03658,-0.71465 0.36428,-0.83654z" fill="#595959" stroke="none" stroke-linecap="butt"/><path d="M198.27657,201.72937c-0.31756,-0.85376 0.09184,-1.79392 0.91444,-2.09988c0.8226,-0.30597 1.74688,0.13812 2.06443,0.99188c0.31756,0.85376 -0.09184,1.79392 -0.91444,2.09988c-0.8226,0.30597 -1.74688,-0.13812 -2.06443,-0.99188z" data-paper-data="{&quot;index&quot;:null}" fill="#262626" stroke="none" stroke-linecap="butt"/><path d="M199.22534,201.11984c0.3277,-0.12188 0.69591,0.05503 0.82241,0.39514c0.12651,0.34011 -0.03658,0.71465 -0.36429,0.83654c-0.3277,0.12188 -0.69591,-0.05503 -0.82241,-0.39514c-0.12651,-0.34011 0.03658,-0.71465 0.36429,-0.83654z" data-paper-data="{&quot;index&quot;:null}" fill="#595959" stroke="none" stroke-linecap="butt"/></g><g stroke-linecap="butt"><path d="M207.59256,200.05138c-0.48685,-1.30891 0.17955,-2.76465 1.48846,-3.25149c1.30891,-0.48685 2.76465,0.17954 3.25149,1.48846c0.48685,1.30891 -0.17955,2.76465 -1.48846,3.25149c-1.30891,0.48685 -2.76465,-0.17954 -3.25149,-1.48846z" fill="#faad32" stroke="#c78418" stroke-linejoin="round"/><g><path d="M204.97073,204.84368c-0.48685,-1.30891 0.17955,-2.76465 1.48847,-3.25149c1.30891,-0.48685 2.76465,0.17955 3.25149,1.48847c0.48685,1.30891 -0.17955,2.76464 -1.48847,3.25148c-1.30891,0.48685 -2.76465,-0.17954 -3.25149,-1.48846z" fill="#faad32" stroke="#c78418" stroke-linejoin="round"/><path d="M211.62266,202.44187l-2.34915,0.26501l-1.99595,1.15241l-0.81222,0.22928l-0.93623,-2.51706l0.79297,-0.36563l2.23557,-0.42368l1.98642,-1.33866l5.86085,-1.78257l0.84819,2.28034z" data-paper-data="{&quot;index&quot;:null}" fill="#637ea6" stroke="#335080" stroke-linejoin="round"/><path d="M209.64694,201.47697c-0.42612,-1.14561 -0.21149,-2.28263 0.47937,-2.53959c0.69087,-0.25697 1.59635,0.46342 2.02247,1.60903c0.42612,1.14561 0.21149,2.28262 -0.47937,2.53958c-0.69087,0.25697 -1.59635,-0.46342 -2.02246,-1.60902z" fill="#cce0ff" stroke="#85a1cc" stroke-linejoin="miter"/></g></g></g><g fill="none" stroke="#e6efff" stroke-width="2.5" stroke-linecap="round" stroke-linejoin="miter"><path d="M254.0385,186.03348l-3.77904,1.161"/><path d="M225.22126,195.69969l3.77904,-1.161"/></g></g><g stroke-linecap="round" stroke-linejoin="miter"><g fill="#ffffff" stroke="#ffffff" stroke-width="10"><path d="M253.18496,161.15976c0.0429,-3.55569 4.48836,-3.76916 4.48836,-3.76916c0,0 -1.32534,-2.54677 0.7038,-4.28068c1.99704,-1.70648 4.66913,0.3 4.66913,0.3c0,0 -0.23522,-3.5464 3.76906,-4.99995c4.07196,-1.47813 7.09607,2.69617 7.09607,2.69617c0,0 3.2048,-3.32959 6.83061,-0.8769c3.39818,2.29871 1.49995,5.99216 1.49995,5.99216c0,0 4.29221,1.19085 4.29221,5.3691c0,4.57825 -4.69221,4.58451 -4.69221,4.58451h-24.23013c0,0 -4.48601,-0.11166 -4.42685,-5.01525z"/></g><g fill="#5964b3" stroke="#5964b3" stroke-width="5"><path d="M253.18496,161.15974c0.0429,-3.55569 4.48836,-3.76915 4.48836,-3.76915c0,0 -1.32534,-2.54677 0.7038,-4.28068c1.99704,-1.70648 4.66913,0.3 4.66913,0.3c0,0 -0.23522,-3.54639 3.76906,-4.99995c4.07196,-1.47813 7.09607,2.69617 7.09607,2.69617c0,0 3.2048,-3.32959 6.83061,-0.8769c3.39818,2.29871 1.49995,5.99216 1.49995,5.99216c0,0 4.29221,1.19087 4.29221,5.36911c0,4.57824 -4.69221,4.5845 -4.69221,4.5845h-24.23013c0,0 -4.48601,-0.11167 -4.42685,-5.01526z"/></g><g fill="#ffffff" stroke="#ffffff" stroke-width="0"><path d="M253.18496,161.15974c0.0429,-3.55569 4.48836,-3.76915 4.48836,-3.76915c0,0 -1.32534,-2.54677 0.7038,-4.28068c1.99704,-1.70648 4.66913,0.3 4.66913,0.3c0,0 -0.23522,-3.54639 3.76906,-4.99995c4.07196,-1.47813 7.09607,2.69617 7.09607,2.69617c0,0 3.2048,-3.32959 6.83061,-0.8769c3.39818,2.29871 1.49995,5.99216 1.49995,5.99216c0,0 4.29221,1.19087 4.29221,5.36911c0,4.57824 -4.69221,4.5845 -4.69221,4.5845h-24.23013c0,0 -4.48601,-0.11167 -4.42685,-5.01526z"/></g></g></g></g></svg>