<svg version="1.1" xmlns="http://www.w3.org/2000/svg" xmlns:xlink="http://www.w3.org/1999/xlink" width="314.78415" height="133.57535" viewBox="0,0,314.78415,133.57535"><g transform="translate(-82.60793,-113.21232)"><g data-paper-data="{&quot;isPaintingLayer&quot;:true}" fill-rule="nonzero" stroke-linecap="butt" stroke-miterlimit="10" stroke-dasharray="" stroke-dashoffset="0" style="mix-blend-mode: normal"><path d="M82.60793,246.78766v-133.57535h314.78415v133.57535z" fill="none" stroke="none" stroke-width="0" stroke-linejoin="miter"/><path d="M350.54491,137.3023c0,0 8.05412,-0.6341 12.59756,3.9615c4.54342,4.59561 3.9615,12.78771 3.9615,12.78771v51.89699c0,0 0.6341,8.13934 -3.9615,12.78771c-4.59561,4.64838 -12.59756,3.9615 -12.59756,3.9615h-220.84684c0,0 -8.19351,0.66713 -12.83525,-3.9615c-4.64177,-4.62863 -3.9615,-12.78771 -3.9615,-12.78771v-51.89699c0,0 -0.6341,-8.13934 3.9615,-12.78771c4.59561,-4.64838 12.59756,-3.9615 12.59756,-3.9615z" data-paper-data="{&quot;index&quot;:null}" fill="#b3a88f" stroke="#b3a88f" stroke-width="6" stroke-linejoin="miter"/><path d="M350.54491,137.3023c0,0 8.05412,-0.6341 12.59756,3.9615c4.54342,4.59561 3.9615,12.78771 3.9615,12.78771v51.89699c0,0 0.6341,8.13934 -3.9615,12.78771c-4.59561,4.64838 -12.59756,3.9615 -12.59756,3.9615h-220.84684c0,0 -8.19351,0.66713 -12.83525,-3.9615c-4.64177,-4.62863 -3.9615,-12.78771 -3.9615,-12.78771v-51.89699c0,0 -0.6341,-8.13934 3.9615,-12.78771c4.59561,-4.64838 12.59756,-3.9615 12.59756,-3.9615z" data-paper-data="{&quot;index&quot;:null}" fill="#b3a88f" stroke="#807459" stroke-width="2" stroke-linejoin="miter"/><text transform="translate(133.13978,171.55957) scale(0.69291,0.69291)" font-size="40" xml:space="preserve" fill="#ffffff" fill-rule="nonzero" stroke="#ffffff" stroke-width="2" stroke-linecap="butt" stroke-linejoin="round" stroke-miterlimit="10" stroke-dasharray="" stroke-dashoffset="0" font-family="Malgun Gothic" font-weight="normal" text-anchor="start" style="mix-blend-mode: normal"><tspan x="0" dy="0">YOU CAN'T JOIN</tspan></text><text transform="translate(141.48992,205.07035) scale(0.69291,0.69291)" font-size="40" xml:space="preserve" fill="#ffffff" fill-rule="nonzero" stroke="#ffffff" stroke-width="2" stroke-linecap="butt" stroke-linejoin="round" stroke-miterlimit="10" stroke-dasharray="" stroke-dashoffset="0" font-family="Malgun Gothic" font-weight="normal" text-anchor="start" style="mix-blend-mode: normal"><tspan x="0" dy="0">SERVER IS FULL</tspan></text></g></g></svg>