<svg version="1.1" xmlns="http://www.w3.org/2000/svg" xmlns:xlink="http://www.w3.org/1999/xlink" width="35" height="35" viewBox="0,0,35,35"><g transform="translate(-222.5,-162.5)"><g data-paper-data="{&quot;isPaintingLayer&quot;:true}" fill-rule="nonzero" stroke-linejoin="miter" stroke-miterlimit="10" stroke-dasharray="" stroke-dashoffset="0" style="mix-blend-mode: normal"><path d="M222.5,180c0,-9.66498 7.83502,-17.5 17.5,-17.5c9.66498,0 17.5,7.83502 17.5,17.5c0,9.66498 -7.83502,17.5 -17.5,17.5c-9.66498,0 -17.5,-7.83502 -17.5,-17.5z" fill="none" stroke="none" stroke-width="0" stroke-linecap="butt"/><path d="M230.83333,180c0,-5.06261 4.10406,-9.16667 9.16667,-9.16667c5.06261,0 9.16667,4.10406 9.16667,9.16667c0,5.06261 -4.10406,9.16667 -9.16667,9.16667c-5.06261,0 -9.16667,-4.10406 -9.16667,-9.16667z" fill="#808080" stroke="#333333" stroke-width="2" stroke-linecap="butt"/><path d="M236.03281,179.12102l-0.19008,-2.09088l9.02883,-0.38017l0.47521,2.94626l-5.60738,0.09504l-0.85537,3.80162l-3.51649,-0.47521z" fill="#808080" stroke="#4d4d4d" stroke-width="2" stroke-linecap="round"/></g></g></svg>