<svg version="1.1" xmlns="http://www.w3.org/2000/svg" xmlns:xlink="http://www.w3.org/1999/xlink" width="31.68739" height="7.13719" viewBox="0,0,31.68739,7.13719"><g transform="translate(-224.24997,-176.42401)"><g data-paper-data="{&quot;isPaintingLayer&quot;:true}" fill="#ffffff" fill-rule="nonzero" stroke="none" stroke-linecap="butt" stroke-linejoin="miter" stroke-miterlimit="10" stroke-dasharray="" stroke-dashoffset="0" style="mix-blend-mode: normal"><g stroke-width="0.185"><path d="M231.64997,179.7225v0.4314c0,0.6131 -0.4971,1.11 -1.11,1.11h-1.2643v1.1873c0,0.613 -0.4971,1.11 -1.11,1.11h-0.4316c-0.6129,0 -1.11,-0.497 -1.11,-1.11v-1.1873h-1.2641c-0.6131,0 -1.11,-0.4969 -1.11,-1.11v-0.4314c0,-0.6131 0.4969,-1.11 1.11,-1.11h1.2641v-1.0638c0,-0.613 0.4971,-1.1099 1.11,-1.1099h0.4316c0.6129,0 1.11,0.4969 1.11,1.1099v1.0638h1.2643c0.6129,0 1.11,0.4969 1.11,1.11zM231.27997,179.7225c0,-0.4081 -0.3319,-0.74 -0.74,-0.74h-1.2643h-0.37v-0.37v-1.0638c0,-0.4081 -0.3319,-0.7399 -0.74,-0.7399h-0.4316c-0.4081,0 -0.74,0.3318 -0.74,0.7399v1.0638v0.37h-0.37h-1.2641c-0.4081,0 -0.74,0.3319 -0.74,0.74v0.4314c0,0.4081 0.3319,0.74 0.74,0.74h1.2641h0.37v0.37v1.1873c0,0.4082 0.3319,0.74 0.74,0.74h0.4316c0.4081,0 0.74,-0.3318 0.74,-0.74v-1.1873v-0.37h0.37h1.2643c0.4081,0 0.74,-0.3319 0.74,-0.74z"/><path d="M230.90997,179.4302v0.7237c0,0.2041 -0.1659,0.37 -0.37,0.37h-1.2643h-0.74v0.1427v0.5973v1.1873c0,0.2041 -0.1659,0.37 -0.37,0.37h-0.4316c-0.2041,0 -0.37,-0.1659 -0.37,-0.37v-1.1873v-0.4294v-0.3106h-0.74h-1.2641c-0.2041,0 -0.37,-0.1659 -0.37,-0.37v-0.569c1.9734,0.4279 3.9466,-0.5828 5.92,-0.1547z"/><path d="M228.30457,177.782v-0.4192c0,-0.0718 0.0518,-0.13 0.1157,-0.13c0.0638,0 0.1156,0.0582 0.1156,0.13v0.4192c0,0.0718 -0.0518,0.1301 -0.1156,0.1301c-0.0639,0 -0.1157,-0.0585 -0.1157,-0.1301z"/><path d="M228.42027,178.0179c0.0318,0 0.0608,0.0154 0.0817,0.0402c0.0209,0.0249 0.0339,0.0592 0.0339,0.0971c0,0.0379 -0.013,0.0721 -0.0339,0.0971c-0.0209,0.0248 -0.0499,0.0401 -0.0817,0.0401c-0.0319,0 -0.0609,-0.0153 -0.0818,-0.0401c-0.0209,-0.025 -0.0339,-0.0592 -0.0339,-0.0971c0,-0.0379 0.013,-0.0722 0.0339,-0.0971c0.0209,-0.0248 0.0499,-0.0402 0.0818,-0.0402z"/></g><text transform="translate(233.07108,181.81845) scale(0.12401,0.12401)" font-size="40" xml:space="preserve" fill="#ffffff" fill-rule="nonzero" stroke="none" stroke-width="1" stroke-linecap="butt" stroke-linejoin="miter" stroke-miterlimit="10" stroke-dasharray="" stroke-dashoffset="0" font-family="Sans Serif" font-weight="normal" text-anchor="start" style="mix-blend-mode: normal"><tspan x="0" dy="0">生命恢复+</tspan></text></g></g></svg>