<svg version="1.1" xmlns="http://www.w3.org/2000/svg" xmlns:xlink="http://www.w3.org/1999/xlink" width="57.07798" height="15.94693" viewBox="0,0,57.07798,15.94693"><g transform="translate(-231,-171.05308)"><g data-paper-data="{&quot;isPaintingLayer&quot;:true}" fill-rule="nonzero" stroke="none" stroke-width="1" stroke-linecap="butt" stroke-linejoin="miter" stroke-miterlimit="10" stroke-dasharray="" stroke-dashoffset="0" style="mix-blend-mode: normal"><path d="M231.031,173.03101c-0.017,0.017 -0.031,0.017 -0.031,0c0,-0.017 0.014,-0.031 0.031,-0.031c0.017,0 0.017,0.014 0,0.031zM240.032,173.03101c-0.018,0.017 -0.046,0.017 -0.063,0c-0.017,-0.017 -0.003,-0.031 0.031,-0.031c0.034,0 0.05,0.014 0.032,0.031zM249,175.06201v9.938c0,1.1 -0.9,2 -2,2h-14c-0.962,0 -1.772,-0.689 -1.959,-1.599c-0.027,-0.13 -0.041,-0.263 -0.041,-0.401v-9.937c0,-0.138 0.01,-0.262 0.029,-0.373c0.075,-0.444 0.295,-0.672 0.596,-0.659c0.226,0.009 0.497,0.154 0.789,0.446l3.086,3.086l3.086,-3.086c0.778,-0.778 2.05,-0.778 2.828,0l3.086,3.086l3.086,-3.086c0.777,-0.778 1.414,-0.515 1.414,0.585zM249,173.03101c0,0.017 -0.013,0.017 -0.031,0c-0.018,-0.017 -0.018,-0.031 0,-0.031c0.017,0 0.031,0.014 0.031,0.031z" fill="#39b54a"/><text transform="translate(257.69205,183.68262) scale(0.25009,0.25009)" font-size="40" xml:space="preserve" fill="#ffffff" fill-rule="nonzero" stroke="none" stroke-width="1" stroke-linecap="butt" stroke-linejoin="miter" stroke-miterlimit="10" stroke-dasharray="" stroke-dashoffset="0" font-family="Pixel" font-weight="normal" text-anchor="start" style="mix-blend-mode: normal"><tspan x="0" dy="0">第三队</tspan></text></g></g></svg>