<svg version="1.1" xmlns="http://www.w3.org/2000/svg" xmlns:xlink="http://www.w3.org/1999/xlink" width="5" height="6"><g transform="translate(-238.125,-176.75)"><g data-paper-data="{&quot;isPaintingLayer&quot;:true}" fill="none" fill-rule="nonzero" stroke="none" stroke-width="0.5" stroke-linecap="none" stroke-linejoin="miter" stroke-miterlimit="10" stroke-dasharray="" stroke-dashoffset="0" font-family="none" font-weight="none" font-size="none" text-anchor="none" style="mix-blend-mode: normal"><path d="" fill="#000000" stroke="none" stroke-linecap="butt"/><g><path d="M238.125,180.25c0,-1.38071 1.11929,-2.5 2.5,-2.5c1.38071,0 2.5,1.11929 2.5,2.5c0,1.38071 -1.11929,2.5 -2.5,2.5c-1.38071,0 -2.5,-1.11929 -2.5,-2.5z" fill="#000000" stroke="none" stroke-linecap="butt"/><path d="M239.25,179.375l-0.875,-2.375" fill="none" stroke="#ff0000" stroke-linecap="round"/><path d="M242.875,177.5l-1.625,1.75" fill="none" stroke="#ff0000" stroke-linecap="round"/><path d="M240.75,179.625c0,0 0,-0.25 0.25,-0.25c0.15123,0 0.21098,0.09148 0.23458,0.16377c0.07561,-0.06796 0.16353,-0.12533 0.25838,-0.17081l-0.04474,-0.04474l0.25,-0.25c0.04524,-0.04524 0.10774,-0.07322 0.17678,-0.07322c0.13807,0 0.25,0.11193 0.25,0.25v0.25h-0.00484c-0.08882,1.13788 -1.37016,1.62777 -1.37016,0.125z" data-paper-data="{&quot;origPos&quot;:null}" fill="#ab0000" stroke="none" stroke-linecap="butt"/><path d="M239.24776,179.33274c0.95495,0.49214 -0.87276,1.62111 -0.87276,-0.45774c0,0 0,-0.25 0.25,-0.25c0.25,0 0.25,0.25 0.25,0.25c0,0.1983 0.03654,0.36305 0.08753,0.49731l0.11653,-0.10948c0.0295,0.00983 0.05732,0.02013 0.08353,0.03084l0.03741,-0.06867c0,0 0.03354,0.04472 0.04776,0.10774z" fill="#ab0000" stroke="none" stroke-linecap="butt"/></g></g></g></svg>