<svg version="1.1" xmlns="http://www.w3.org/2000/svg" xmlns:xlink="http://www.w3.org/1999/xlink" width="32.27412" height="6.94456" viewBox="0,0,32.27412,6.94456"><g transform="translate(-223.95661,-176.09368)"><g data-paper-data="{&quot;isPaintingLayer&quot;:true}" fill="#ffffff" fill-rule="nonzero" stroke="none" stroke-linecap="butt" stroke-linejoin="miter" stroke-miterlimit="10" stroke-dasharray="" stroke-dashoffset="0" style="mix-blend-mode: normal"><g stroke-width="0.29915"><path d="M228.74181,181.37503c0.3147,0.315 0.3138,0.8241 -0.0015,1.1394c-0.3141,0.3141 -0.8232,0.315 -1.1379,0.0003c-0.3138,-0.3138 -0.3156,-0.8259 -0.0015,-1.14c0.3153,-0.3153 0.8271,-0.3135 1.1409,0.0003z"/><path d="M230.93251,180.25823l-0.7497,0.75c-0.5444,-0.525 -1.2567,-0.814 -2.0118,-0.8143c-0.7559,-0.0012 -1.4667,0.2854 -2.0084,0.8071l-0.7473,-0.7472c1.5313,-1.4901 3.9838,-1.4883 5.5172,0.0044z"/><path d="M232.39141,178.79933l-0.7481,0.7482c-1.9272,-1.8856 -5.0174,-1.8895 -6.9397,-0.0084l-0.747,-0.747c2.3352,-2.2936 6.0958,-2.2903 8.4348,0.0072z"/></g><text transform="translate(233.36445,181.48812) scale(0.12401,0.12401)" font-size="40" xml:space="preserve" fill="#ffffff" fill-rule="nonzero" stroke="none" stroke-width="1" stroke-linecap="butt" stroke-linejoin="miter" stroke-miterlimit="10" stroke-dasharray="" stroke-dashoffset="0" font-family="Sans Serif" font-weight="normal" text-anchor="start" style="mix-blend-mode: normal"><tspan x="0" dy="0">武器射程+</tspan></text></g></g></svg>