<svg version="1.1" xmlns="http://www.w3.org/2000/svg" xmlns:xlink="http://www.w3.org/1999/xlink" width="480.37668" height="322.9666" viewBox="0,0,480.37668,322.9666"><g transform="translate(28.21539,-44.87874)"><g data-paper-data="{&quot;isPaintingLayer&quot;:true}" fill="#ffffff" fill-rule="nonzero" stroke="none" stroke-width="1" stroke-linecap="butt" stroke-linejoin="miter" stroke-miterlimit="10" stroke-dasharray="" stroke-dashoffset="0" style="mix-blend-mode: normal"><path d="M225.889,268.6715l-16.959,3.211l-0.352,0.066l-0.922,-4.876l-2.461,-13.01l-16.961,3.211l-0.349,0.066l-0.923,-4.873l-2.464,-13.01l-16.957,3.211l-0.35,0.067l-3.386,-17.883l-3.387,-17.887l-3.387,-17.883l-3.385,-17.884l-1.693,-8.942l-1.693,-8.943l17.31,-3.276l-3.386,-17.884l17.306,-3.279v-0.001l-3.385,-17.884l17.309,-3.275l17.309,-3.277l17.308,-3.278l17.309,-3.276l17.31,-3.278l17.307,-3.277l17.311,-3.276l3.384,17.885l3.387,17.885l3.385,17.884l3.387,17.882l-17.307,3.277l-17.311,3.276l-17.31,3.278l-17.307,3.277l3.387,17.886l17.307,-3.277l17.31,-3.277l17.309,-3.279l17.308,-3.276l3.385,17.887l3.387,17.879l3.386,17.882l3.385,17.887l-17.308,3.277l-17.309,3.278l-17.307,3.277l-17.31,3.277l-17.309,3.278z"/><text transform="translate(48.35989,129.34625) rotate(78.33736) scale(7.23333,7.23333)" font-size="40" xml:space="preserve" fill="#ffffff" fill-rule="nonzero" stroke="none" stroke-width="1" stroke-linecap="butt" stroke-linejoin="miter" stroke-miterlimit="10" stroke-dasharray="" stroke-dashoffset="0" font-family="Pixel" font-weight="normal" text-anchor="start" style="mix-blend-mode: normal"><tspan x="0" dy="0">Y</tspan></text></g></g></svg>