<svg version="1.1" xmlns="http://www.w3.org/2000/svg" xmlns:xlink="http://www.w3.org/1999/xlink" width="5.90367" height="8.0001" viewBox="0,0,5.90367,8.0001"><g transform="translate(-236.72133,-173.74991)"><g data-paper-data="{&quot;isPaintingLayer&quot;:true}" fill="none" fill-rule="nonzero" stroke="none" stroke-width="0.5" stroke-linecap="butt" stroke-linejoin="miter" stroke-miterlimit="10" stroke-dasharray="" stroke-dashoffset="0" font-family="none" font-weight="none" font-size="none" text-anchor="none" style="mix-blend-mode: normal"><path d="M237.625,179.25c0,-1.38071 1.11929,-2.5 2.5,-2.5c1.38071,0 2.5,1.11929 2.5,2.5c0,1.38071 -1.11929,2.5 -2.5,2.5c-1.38071,0 -2.5,-1.11929 -2.5,-2.5z" fill="#000000"/><path d="M242.58338,178.375h0.04162l0,0.25c0,0.13807 -0.11193,0.25 -0.25,0.25c-0.0998,0 -0.18594,-0.05848 -0.22603,-0.14304l-0.05415,-0.1083c-0.00391,0.00147 -0.00815,0.0033 -0.01271,0.00547c-0.12398,0.18598 -0.29255,0.33249 -0.48081,0.37072c-0.26595,0.22604 -0.5446,0.47381 -0.6013,0.50014c-0.11061,0.05137 -0.33153,-0.03968 -0.56814,-0.1701c-0.2249,-0.05477 -0.46789,-0.15215 -0.70252,-0.26972c-0.15833,-0.03341 -0.32757,-0.098 -0.4826,-0.18192c-0.55857,0.5537 -0.79134,-0.46455 -0.8536,-1.00326h-0.01813c0,0 0,-0.064 0,-0.12724c-0.8329,-0.57944 -1.625,-1.37965 -1.625,-2.24776v-0.125c0,0 -0.10315,-0.01682 0.08183,-0.18499c0.18499,-0.16817 0.41817,0.18499 0.41817,0.18499v0.125c0,0.89246 1.37531,1.90815 2.3618,2.40139c0,0 0.05975,0.02987 0.10204,0.08962c0.35187,-0.06419 0.94073,-0.44505 1.3146,-0.2463c0.354,-0.12798 0.97157,-2.54194 0.97157,-3.30721c0,-0.10417 0,-0.20833 0,-0.3125v-0.125c0,0 0.08595,-0.31319 0.32457,-0.23862c0.23862,0.07457 0.17543,0.23862 0.17543,0.23862c0,0.10417 0,0.33333 0,0.4375c0,0.46445 -0.20007,1.74691 -0.56488,2.69685c0.05011,-0.01424 0.12587,-0.02284 0.1952,0.0211c0.03555,-0.01942 0.07632,-0.03046 0.11968,-0.03046c0.13807,0 0.25,0.11193 0.25,0.25v0.25l-0.06411,0c0.12463,0.32437 0.23661,0.54852 0.14749,0.75zM241.83963,177.36622c0.04819,0.06873 0.04557,0.13839 0.0295,0.19262c0.00615,-0.00048 0.01222,-0.00086 0.01823,-0.00116l-0.0063,-0.28802c-0.0136,0.0327 -0.02741,0.0649 -0.04143,0.09656zM240.6921,178.12206c0.02455,0.01583 0.04605,0.03289 0.06468,0.051c0.00341,-0.0122 0.00799,-0.02445 0.01401,-0.03657c-0.02609,-0.00496 -0.05244,-0.00984 -0.07869,-0.01443z" fill="#00ffff"/></g></g></svg>