<svg version="1.1" xmlns="http://www.w3.org/2000/svg" xmlns:xlink="http://www.w3.org/1999/xlink" width="183.118" height="30.5" viewBox="0,0,183.118,30.5"><g transform="translate(-107.632,-160.75)"><g data-paper-data="{&quot;isPaintingLayer&quot;:true}" fill="#ffffff" fill-rule="nonzero" stroke="none" stroke-width="1" stroke-linecap="butt" stroke-linejoin="miter" stroke-miterlimit="10" stroke-dasharray="" stroke-dashoffset="0" style="mix-blend-mode: normal"><path d="M107.632,184.186v-8.396h0.959v8.396z"/><path d="M117.132,184.186l-5.037,-6.74v6.74h-0.959v-8.396h0.995l5.038,6.753v-6.753h0.947v8.396z"/><path d="M121.635,176.714v2.95h3.922v0.924h-3.922v3.598h-0.959v-8.396h5.337v0.924z"/><path d="M135.431,179.988c0,2.362 -1.943,4.245 -4.39,4.245c-2.458,0 -4.401,-1.883 -4.401,-4.245c0,-2.375 1.943,-4.222 4.401,-4.222c2.447,0.001 4.39,1.859 4.39,4.222zM127.611,179.988c0,1.847 1.559,3.322 3.43,3.322c1.871,0 3.406,-1.476 3.406,-3.322c0,-1.846 -1.535,-3.311 -3.406,-3.311c-1.871,0 -3.43,1.465 -3.43,3.311z"/><path d="M141.206,182.063l-0.936,2.123h-1.02l3.766,-8.396h0.996l3.754,8.396h-1.043l-0.936,-2.123zM143.485,176.882l-1.871,4.258h3.766z"/><path d="M152.629,175.79c1.691,0 2.71,0.78 2.71,2.1c0,0.983 -0.564,1.69 -1.547,1.895c1.211,0.18 1.919,0.972 1.919,2.122c0,1.428 -1.127,2.279 -3.022,2.279h-3.598v-8.396zM150.051,179.412h2.53c1.127,0 1.787,-0.491 1.787,-1.367c0,-0.852 -0.66,-1.331 -1.787,-1.331h-2.53zM150.051,183.273h2.53c1.367,0 2.159,-0.539 2.159,-1.498c0,-0.912 -0.792,-1.451 -2.159,-1.451h-2.53z"/><path d="M165.682,179.988c0,2.362 -1.943,4.245 -4.39,4.245c-2.458,0 -4.402,-1.883 -4.402,-4.245c0,-2.375 1.943,-4.222 4.402,-4.222c2.448,0.001 4.39,1.859 4.39,4.222zM157.863,179.988c0,1.847 1.559,3.322 3.43,3.322c1.871,0 3.406,-1.476 3.406,-3.322c0,-1.846 -1.535,-3.311 -3.406,-3.311c-1.871,0 -3.43,1.465 -3.43,3.311z"/><path d="M174.299,180.731c0,2.183 -1.319,3.502 -3.514,3.502c-2.207,0 -3.538,-1.319 -3.538,-3.502v-4.941h0.959v4.941c0,1.632 0.983,2.579 2.579,2.579c1.595,0 2.554,-0.947 2.554,-2.579v-4.941h0.959v4.941z"/><path d="M179.209,176.714v7.472h-0.959v-7.472h-2.734v-0.924h6.44v0.924z"/><path d="M189.193,176.714v7.472h-0.959v-7.472h-2.734v-0.924h6.44v0.924z"/><path d="M199.355,184.186v-3.694h-5.061v3.693h-0.959v-8.395h0.959v3.79h5.061v-3.79h0.959v8.396z"/><path d="M203.822,176.714v2.759h4.233v0.923h-4.233v2.878h4.893v0.912h-5.853v-8.396h5.697v0.924z"/><path d="M214.693,182.063l-0.936,2.123h-1.02l3.766,-8.396h0.996l3.754,8.396h-1.043l-0.936,-2.123zM216.972,176.882l-1.871,4.258h3.766z"/><path d="M226.332,181.512c-0.18,0.012 -0.372,0.023 -0.564,0.023h-2.23v2.65h-0.959v-8.395h3.19c2.099,0 3.311,1.032 3.311,2.818c0,1.392 -0.672,2.327 -1.883,2.723l1.967,2.854h-1.091zM225.768,180.611c1.523,0 2.387,-0.671 2.387,-1.979c0,-1.271 -0.863,-1.919 -2.387,-1.919h-2.23v3.897h2.23z"/><path d="M232.213,176.714v2.759h4.233v0.923h-4.233v2.878h4.893v0.912h-5.853v-8.396h5.697v0.924z"/><path d="M245.062,184.186l-5.037,-6.74v6.74h-0.959v-8.396h0.995l5.038,6.753v-6.753h0.947v8.396z"/><path d="M249.337,182.063l-0.936,2.123h-1.02l3.767,-8.396h0.996l3.754,8.396h-1.044l-0.935,-2.123zM251.616,176.882l-1.872,4.258h3.766z"/><text transform="translate(190,186) scale(0.5,0.5)" font-size="40" xml:space="preserve" fill="#ffffff" fill-rule="nonzero" stroke="none" stroke-width="1" stroke-linecap="butt" stroke-linejoin="miter" stroke-miterlimit="10" stroke-dasharray="" stroke-dashoffset="0" font-family="Pixel" font-weight="normal" text-anchor="start" style="mix-blend-mode: normal"><tspan x="0" dy="0">离开竞技场</tspan></text></g></g></svg>