<?xml version="1.0" encoding="iso-8859-1"?>
<!-- Generator: Adobe Illustrator 19.0.0, SVG Export Plug-In . SVG Version: 6.00 Build 0)  -->
<svg version="1.1" xmlns="http://www.w3.org/2000/svg" xmlns:xlink="http://www.w3.org/1999/xlink" x="0px" y="0px"
	 viewBox="0 0 64 8" style="enable-background:new 0 0 64 8;" xml:space="preserve">
<g id="Layer_3_copy_39">
	<g id="XMLID_866_">
		<path id="XMLID_867_" d="M10.377,2.633H9.495L8.84,0.023h1.167L10.377,2.633z M11.839,2.633h-0.873l-0.532-2.609h1.177
			L11.839,2.633z"/>
		<path id="XMLID_870_" d="M19.016,1.925v1.341l-0.463,0.447l0.463,0.447v1.342l-1.391,1.342h-5.101V0.583h5.101L19.016,1.925z
			 M16.697,2.372h-2.319v0.447h2.319l0.231-0.223L16.697,2.372z M14.378,4.608v0.448h2.319l0.231-0.224l-0.231-0.224H14.378z"/>
		<path id="XMLID_874_" d="M21.334,0.583h3.71l1.391,1.342v4.92h-1.855V5.503h-2.782v1.342h-1.855v-4.92L21.334,0.583z
			 M24.117,2.372h-1.855l-0.464,0.447v0.895h2.782V2.819L24.117,2.372z"/>
		<path id="XMLID_877_" d="M29.218,3.713v3.131h-1.855V0.583h1.391l3.247,3.13v-3.13h1.853v6.262h-1.39L29.218,3.713z"/>
		<path id="XMLID_879_" d="M34.783,0.583h5.102l1.391,1.342v3.578l-1.391,1.342h-5.102V0.583z M36.638,2.372v2.684h2.319
			l0.464-0.448V2.819l-0.464-0.447H36.638z"/>
		<path id="XMLID_882_" d="M44.058,6.845h-1.854V0.583h1.854V6.845z"/>
		<path id="XMLID_884_" d="M49.159,2.372v4.473h-1.855V2.372h-2.318V0.583h6.492v1.789H49.159z"/>
		<path id="XMLID_886_" d="M52.388,0.023h1.177l-0.531,2.609H52.16L52.388,0.023z M53.991,0.023h1.168l-0.655,2.609h-0.883
			L53.991,0.023z"/>
	</g>
</g>
<g id="Layer_1">
</g>
</svg>
