<svg xmlns="http://www.w3.org/2000/svg" xmlns:xlink="http://www.w3.org/1999/xlink" version="1.1" width="25" height="33" viewBox="-0.5 -0.5 25 33">
  <defs>
    <linearGradient id="grad_1" y2="1" x2="0">
      <stop offset="0" stop-color="#FFFFFF" stop-opacity="1"/>
      <stop offset="1" stop-color="#FEFEFE" stop-opacity="1"/>
    </linearGradient>
    <linearGradient id="grad_2" y2="1" x2="0">
      <stop offset="0" stop-color="#FFFFFF" stop-opacity="1"/>
      <stop offset="1" stop-color="#FEFEFE" stop-opacity="1"/>
    </linearGradient>
    <linearGradient id="grad_3" y2="1" x2="0">
      <stop offset="0" stop-color="#FFFFFF" stop-opacity="1"/>
      <stop offset="1" stop-color="#FEFEFE" stop-opacity="1"/>
    </linearGradient>
  <linearGradient id="grad_1-,0,0,1,-4,0" y2="23.168" x2="3.648" x1="3.648" y1="8.832" gradientUnits="userSpaceOnUse">
      <stop offset="0" stop-color="#FFFFFF" stop-opacity="1"/>
      <stop offset="1" stop-color="#FEFEFE" stop-opacity="1"/>
    </linearGradient><linearGradient id="grad_2-,0,0,1,-4,0" y2="11.137" x2="1.146" x1="1.146" y1="6.136" gradientUnits="userSpaceOnUse">
      <stop offset="0" stop-color="#FFFFFF" stop-opacity="1"/>
      <stop offset="1" stop-color="#FEFEFE" stop-opacity="1"/>
    </linearGradient><linearGradient id="grad_3-,0,0,1,-4,0" y2="24.1" x2="17.133" x1="17.133" y1="19.08" gradientUnits="userSpaceOnUse">
      <stop offset="0" stop-color="#FFFFFF" stop-opacity="1"/>
      <stop offset="1" stop-color="#FEFEFE" stop-opacity="1"/>
    </linearGradient></defs>
  <!-- Exported by Scratch - http://scratch.mit.edu/ -->
  <path id="ID0.038571294862776995" fill="none" d="M 0 0 L 24 0 L 24 32 L 0 32 L 0 0 Z " stroke-width="1"/>
  <g id="ID0.09379005059599876">
    <path id="ID0.4825664642266929" fill="url(#grad_1-,0,0,1,-4,0)" d="M 20.352 15.795 C 20.352 11.089 16.614 8.832 12.001 8.832 C 7.388 8.832 3.648 11.089 3.648 15.795 C 3.648 18.75 5.126 19.969 7.368 20.467 L 7.368 23.168 L 16.633 23.168 L 16.633 20.467 C 18.873 19.969 20.352 18.751 20.352 15.795 Z M 8.737 18.756 C 7.534 18.756 6.56 17.808 6.56 16.642 C 6.56 15.474 7.534 14.528 8.737 14.528 C 9.938 14.528 10.913 15.474 10.913 16.642 C 10.913 17.808 9.938 18.756 8.737 18.756 Z M 11.089 19.012 C 11.089 17.395 12.001 16.082 12.001 16.082 C 12.001 16.082 12.913 17.395 12.913 19.012 L 11.089 19.012 Z M 13.088 16.642 C 13.088 15.474 14.061 14.528 15.264 14.528 C 16.465 14.528 17.44 15.474 17.44 16.642 C 17.44 17.808 16.465 18.756 15.264 18.756 C 14.061 18.756 13.088 17.808 13.088 16.642 Z " stroke-width="1"/>
    <path id="ID0.27131140884011984" fill="url(#grad_2-,0,0,1,-4,0)" d="M 4.741 11.137 C 5.358 10.405 6.142 9.804 7.078 9.348 L 7.229 6.136 L 5.996 8.632 L 3.05 7.2 L 4.302 9.694 L 1.146 9.923 L 4.741 11.137 Z " stroke-width="1"/>
    <path id="ID0.8123148195445538" fill="url(#grad_3-,0,0,1,-4,0)" d="M 19.859 20.415 L 21.414 19.545 L 19.957 19.08 C 19.344 19.927 18.411 20.512 17.133 20.858 L 17.133 23.285 L 17.774 21.566 L 22.35 24.1 L 19.859 20.415 Z " stroke-width="1"/>
  </g>
</svg>