<svg version="1.1" xmlns="http://www.w3.org/2000/svg" xmlns:xlink="http://www.w3.org/1999/xlink" width="31.62051" height="6.94456" viewBox="0,0,31.62051,6.94456"><g transform="translate(-224.73536,-176.16234)"><g data-paper-data="{&quot;isPaintingLayer&quot;:true}" fill="#ffffff" fill-rule="nonzero" stroke="none" stroke-linecap="butt" stroke-linejoin="miter" stroke-miterlimit="10" stroke-dasharray="" stroke-dashoffset="0" style="mix-blend-mode: normal"><g stroke-width="1.19565"><g><path d="M227.04416,179.1742h2.0529v3.2546h-2.0529z"/><path d="M227.04416,178.9052c0,-0.5739 1.0259,-1.9501 1.0259,-1.9501c0,0 1.0258,1.375 1.0258,1.9501"/></g><g><g><path d="M224.73536,179.1742h2.0529v3.2546h-2.0529z"/><path d="M224.73536,178.9052c0,-0.5739 1.0258,-1.9501 1.0258,-1.9501c0,0 1.0259,1.375 1.0259,1.9501"/></g><g><path d="M229.38166,179.1742h2.0529v3.2546h-2.0529z"/><path d="M229.38166,178.9052c0,-0.5739 1.0259,-1.9501 1.0259,-1.9501c0,0 1.0258,1.375 1.0258,1.9501"/></g></g></g><text transform="translate(233.48959,181.55678) scale(0.12401,0.12401)" font-size="40" xml:space="preserve" fill="#ffffff" fill-rule="nonzero" stroke="none" stroke-width="1" stroke-linecap="butt" stroke-linejoin="miter" stroke-miterlimit="10" stroke-dasharray="" stroke-dashoffset="0" font-family="Sans Serif" font-weight="normal" text-anchor="start" style="mix-blend-mode: normal"><tspan x="0" dy="0">武器弹药+</tspan></text></g></g></svg>