<svg version="1.1" xmlns="http://www.w3.org/2000/svg" xmlns:xlink="http://www.w3.org/1999/xlink" width="7.50607" height="8.62992" viewBox="0,0,7.50607,8.62992"><g transform="translate(-236.86893,-173.37008)"><g data-paper-data="{&quot;isPaintingLayer&quot;:true}" fill="none" fill-rule="nonzero" stroke="none" stroke-width="0.5" stroke-linecap="butt" stroke-linejoin="miter" stroke-miterlimit="10" stroke-dasharray="" stroke-dashoffset="0" font-family="none" font-weight="none" font-size="none" text-anchor="none" style="mix-blend-mode: normal"><path d="M237.75,179.5c0,-1.38071 1.11929,-2.5 2.5,-2.5c1.38071,0 2.5,1.11929 2.5,2.5c0,1.38071 -1.11929,2.5 -2.5,2.5c-1.38071,0 -2.5,-1.11929 -2.5,-2.5z" fill="#000000"/><path d="M241.625,179.625h-0.13313c-0.14015,0.03987 -2.01006,1.23151 -2.2223,0h-0.01957l0,-0.13172c-0.08283,-0.02926 -0.16822,-0.07753 -0.25259,-0.14041c-0.06632,1.28157 -1.38111,0.6055 -0.84602,-0.46467c0,0 0.03036,-0.06071 0.09107,-0.10305c0.02893,-0.08435 0.06692,-0.18024 0.11475,-0.28915c-0.0329,-0.08194 -0.05925,-0.16453 -0.07759,-0.246h-0.02962v-0.25c0,-0.0316 0.00586,-0.06183 0.01656,-0.08966c0.00728,-0.02142 0.01775,-0.04434 0.03283,-0.06596c-0.60727,-0.65548 -0.89571,-1.54938 -1.03524,-2.42128c-0.01863,-0.2137 -0.19806,-0.36256 -0.30025,-0.5613l-0.0625,-0.125c0,0 -0.1185,-0.20105 0.09718,-0.32748c0.21567,-0.12643 0.35004,0.10387 0.35004,0.10387l0.0625,0.125c0.12177,0.25474 0.32565,0.44905 0.35115,0.74149c-0.16407,0.82089 0.57345,1.92789 1.29606,2.45844l0.13989,-0.13989l0.16197,0.16197c0.06183,-0.01154 0.12662,-0.01466 0.19248,-0.00939c0.62262,-0.05708 1.50434,-0.20155 1.88444,-0.28405l0.08686,-0.17372c0.04009,-0.08456 0.12623,-0.14304 0.22603,-0.14304c0.10403,0 0.19322,0.06354 0.23087,0.15393c0.77493,-0.71303 1.98579,-1.93268 1.89413,-1.96643c0,-0.52325 -0.00104,-1.13056 -0.22361,-1.5757l-0.125,-0.34861c0,0 0.1118,-0.22361 0.33541,-0.1118c0.22361,0.1118 0.1118,0.33541 0.1118,0.33541l0.125,-0.09861c0.25535,0.51069 0.27639,1.21856 0.27639,1.7993c-0.11539,0.65636 -0.79344,1.43083 -1.5,2.03389c0,0.048 0,0.10006 0,0.15361c0,0.15395 0,0.32019 0,0.4375c0,0.24242 -0.01366,0.4399 -0.03879,0.59939c0.36745,0.15704 0.10863,0.77439 -0.08407,1.04745c0.00511,0.03809 0.00041,0.08243 -0.02002,0.13352c-0.09285,0.23212 -0.32497,0.13927 -0.32497,0.13927l-0.07479,-0.47575c-0.04653,0.01027 -0.08236,-0.00636 -0.08236,-0.00636h-0.125c-0.10028,0 -0.19025,-0.00772 -0.27285,-0.02044c-0.03958,0.08585 -0.12641,0.14544 -0.22715,0.14544zM238.49873,179.3884c-0.08023,0.32846 -0.01048,0.53458 0,0zM242.49917,179.24647c0.00113,0.01931 -0.00062,0.03985 -0.00592,0.06165c0.09073,-0.07134 0.17638,-0.14163 0.16716,-0.17001c-0.04774,0.05639 -0.10199,0.0909 -0.16124,0.10835zM240.40928,178.28709c-0.0159,0.00233 -0.03181,0.0046 -0.04772,0.00681c0.00202,0.00588 0.00382,0.01187 0.0054,0.01794c0.01415,-0.00827 0.02825,-0.01652 0.04232,-0.02475z" fill="#00ffff"/></g></g></svg>