<svg version="1.1" xmlns="http://www.w3.org/2000/svg" xmlns:xlink="http://www.w3.org/1999/xlink" width="13.99088" height="17.12738" viewBox="0,0,13.99088,17.12738"><g transform="translate(-232.66265,-189.31642)"><g data-paper-data="{&quot;isPaintingLayer&quot;:true}" fill="#562d00" fill-rule="nonzero" stroke="none" stroke-width="0" stroke-linejoin="miter" stroke-miterlimit="10" stroke-dasharray="" stroke-dashoffset="0" style="mix-blend-mode: normal"><path d="M244.32464,190.73408c2.50864,1.9851 3.07331,11.41903 1.28898,14.37177c-1.47077,2.4339 -10.76913,0.80322 -10.76913,0.80322l0.58569,-2.691c0,0 6.45467,1.58798 7.49127,-0.47699c1.23341,-2.45705 -0.41611,-9.54828 -0.41611,-9.54828c0,0 -1.12542,-4.78895 1.81928,-2.45874z" stroke-linecap="butt"/><path d="M238.02497,189.80624c1.69766,0 5.07513,0.31016 5.07513,0.31016l-0.62919,2.71892c0,0 -2.81684,-0.2162 -4.30308,-0.2162c-1.42139,0 -3.88508,0.84681 -3.88508,0.84681l-0.68626,-2.63526c0,0 3.00795,-1.02444 4.4285,-1.02444z" stroke-linecap="butt"/><path d="M236.39456,189.31643l-0.49927,16.83335l-3.23264,-0.2261c0,0 0.75145,-4.21611 0.76698,-6.28163c0.02204,-2.93109 -0.19276,-10.09022 -0.19276,-10.09022z" stroke-linecap="round"/></g></g></svg>