<svg version="1.1" xmlns="http://www.w3.org/2000/svg" xmlns:xlink="http://www.w3.org/1999/xlink" width="32.69003" height="10.6198" viewBox="0,0,32.69003,10.6198"><g transform="translate(-240.16379,-174.78097)"><g data-paper-data="{&quot;isPaintingLayer&quot;:true}" fill-rule="nonzero" stroke-linecap="butt" stroke-linejoin="miter" stroke-miterlimit="10" stroke-dasharray="" stroke-dashoffset="0" style="mix-blend-mode: normal"><path d="M240.16504,183.7338c0.04607,-1.13059 0.28619,-7.02301 0.34993,-8.58703c0.0099,-0.24295 0.1794,-0.37477 0.41105,-0.36533c1.52625,0.0622 17.44161,0.71076 20.26951,0.826c0.27703,0.01129 0.42081,0.2051 0.41146,0.43438c-0.03829,0.93956 -0.29527,7.24575 -0.3615,8.87091c-0.00991,0.24309 -0.13114,0.37673 -0.34513,0.36801c-2.54489,-0.10371 -19.00557,-0.77449 -20.4343,-0.83271c-0.19514,-0.00795 -0.31591,-0.34909 -0.30103,-0.71424z" fill-opacity="0.82353" fill="#000000" stroke="none" stroke-width="0"/><text transform="translate(242.11983,181.43553) rotate(2.33321) scale(0.14247,0.14247)" font-size="40" xml:space="preserve" fill="#d6d6d6" fill-rule="nonzero" stroke="#d6d6d6" stroke-width="2" stroke-linecap="butt" stroke-linejoin="miter" stroke-miterlimit="10" stroke-dasharray="" stroke-dashoffset="0" font-family="Sans Serif" font-weight="normal" text-anchor="start" style="mix-blend-mode: normal"><tspan x="0" dy="0">模运算</tspan></text><path d="M263.22294,184.70525c-0.04099,-1.13077 -0.25465,-7.02423 -0.31135,-8.58853c-0.00881,-0.24298 0.06088,-0.38422 0.16652,-0.38804c0.69595,-0.02522 7.95311,-0.28831 9.24259,-0.33505c0.12632,-0.00457 0.20218,0.18058 0.21048,0.40991c0.03407,0.93972 0.26271,7.247 0.32162,8.87246c0.0088,0.24313 -0.03887,0.38342 -0.13646,0.38697c-1.16041,0.04206 -8.66625,0.31415 -9.31773,0.33778c-0.08899,0.00323 -0.16246,-0.33026 -0.17571,-0.69547z" fill-opacity="0.82353" fill="#b0963f" stroke="none" stroke-width="0"/><text transform="translate(266.43711,182.37471) rotate(-2.07562) scale(0.14247,0.14247)" font-size="40" xml:space="preserve" fill="#fffc78" fill-rule="nonzero" stroke="#fffc78" stroke-width="2" stroke-linecap="butt" stroke-linejoin="miter" stroke-miterlimit="10" stroke-dasharray="" stroke-dashoffset="0" font-family="Sans Serif" font-weight="normal" text-anchor="start" style="mix-blend-mode: normal"><tspan x="0" dy="0">S</tspan></text></g></g></svg>