<svg version="1.1" xmlns="http://www.w3.org/2000/svg" xmlns:xlink="http://www.w3.org/1999/xlink" width="487.98799" height="373.87387" viewBox="0,0,487.98799,373.87387"><g transform="translate(3.99399,6.9369)"><g data-paper-data="{&quot;isPaintingLayer&quot;:true}" fill-rule="nonzero" stroke-linejoin="miter" stroke-miterlimit="10" stroke-dasharray="" stroke-dashoffset="0" style="mix-blend-mode: normal"><path d="M-3.99399,366.93697v-373.87387h487.98799v373.87387z" fill-opacity="0.70196" fill="#000000" stroke="none" stroke-width="0" stroke-linecap="butt"/><text transform="translate(4.00601,27.66367) scale(0.67335,0.67335)" font-size="40" xml:space="preserve" fill="#ffffff" fill-rule="nonzero" stroke="#ffffff" stroke-width="3" stroke-linecap="butt" stroke-linejoin="miter" stroke-miterlimit="10" stroke-dasharray="" stroke-dashoffset="0" font-family="Sans Serif" font-weight="normal" text-anchor="start" style="mix-blend-mode: normal"><tspan x="0" dy="0">第     年</tspan></text><text transform="translate(98.63065,28.89191) scale(0.5,0.5)" font-size="40" xml:space="preserve" fill="#ffffff" fill-rule="nonzero" stroke="none" stroke-width="1" stroke-linecap="butt" stroke-linejoin="miter" stroke-miterlimit="10" stroke-dasharray="" stroke-dashoffset="0" font-family="Sans Serif" font-weight="normal" text-anchor="start" style="mix-blend-mode: normal"><tspan x="0" dy="0">零保护行动</tspan></text><text transform="translate(2.29732,54.87026) scale(0.34348,0.34348)" font-size="40" xml:space="preserve" fill="#ffffff" fill-rule="nonzero" stroke="#ffffff" stroke-width="1" stroke-linecap="butt" stroke-linejoin="miter" stroke-miterlimit="10" stroke-dasharray="" stroke-dashoffset="0" font-family="Sans Serif" font-weight="normal" text-anchor="start" style="mix-blend-mode: normal"><tspan x="0" dy="0">有件事不知当讲不当讲……</tspan><tspan x="0" dy="48px">零保护团体的人说，上次的工作是对零的严重歧视……</tspan><tspan x="0" dy="48px">所以这次，咱们必须只把零送到OUTBOX(输出栏)。</tspan><tspan x="0" dy="48px">你问其他字母的保护团体会不会也来这套？</tspan><tspan x="0" dy="48px">公司高层发话了，只要遇到这种事，</tspan><tspan x="0" dy="48px">就全都交给你来处理。</tspan></text><path d="M46.38095,35.32965l-6.35421,-2.50617l-2.4817,-3.93162l9.06678,-11.69009l5.18163,-7.0592l-2.78739,-4.13676l0.8847,-4.76082l8.90304,6.05066l-5.90603,11.54493l-9.50742,9.46997l8.47464,1.12319l1.63525,-4.3832l-7.95033,-5.47174l-4.23802,-7.84435l0.66096,-7.86906l8.17189,-2.6104l0.74081,4.98391l-4.98821,1.83909l2.07202,7.0112l10.48773,10.59871l-0.64029,2.50385l-1.59077,4.89495l-4.45068,2.43979z" fill="#ffffff" stroke="none" stroke-width="0" stroke-linecap="round"/></g></g></svg>