<svg version="1.1" xmlns="http://www.w3.org/2000/svg" xmlns:xlink="http://www.w3.org/1999/xlink" width="191.07482" height="78.68" viewBox="0,0,191.07482,78.68"><g transform="translate(-143.9626,-148.65999)"><g data-paper-data="{&quot;isPaintingLayer&quot;:true}" fill="#e0d4bd" fill-rule="nonzero" stroke="none" stroke-width="0" stroke-linecap="butt" stroke-linejoin="miter" stroke-miterlimit="10" stroke-dasharray="" stroke-dashoffset="0" style="mix-blend-mode: normal"><path d="M319.02493,155.07032c-0.00928,2.93582 -0.05298,19.9838 -0.05298,19.9838l16.06547,13.73358l-16.13838,12.06837c0,0 -0.0421,13.20698 -0.06325,19.95258c-0.00189,0.60234 -0.60126,3.44322 -2.07205,4.75427c-1.86748,1.66468 -4.78527,1.78129 -5.7841,1.77696c-25.45239,-0.11026 -141.57221,-0.60719 -163.4761,-0.70377c-2.2963,-0.01016 -3.54676,-1.52884 -3.54092,-3.37779c0.02392,-7.57658 0.18442,-58.4291 0.22579,-71.53432c0.00618,-1.96027 0.96791,-3.07174 2.74167,-3.06397c19.78186,0.0872 141.00175,0.62176 165.77971,0.73104c1.64438,0.00725 6.32446,2.73475 6.31516,5.67915z"/></g></g></svg>