<svg version="1.1" xmlns="http://www.w3.org/2000/svg" xmlns:xlink="http://www.w3.org/1999/xlink" width="79.36752" height="53.93024" viewBox="0,0,79.36752,53.93024"><g transform="translate(-130.5759,-253.88865)"><g data-paper-data="{&quot;isPaintingLayer&quot;:true}" fill-rule="nonzero" stroke-linejoin="miter" stroke-miterlimit="10" stroke-dasharray="" stroke-dashoffset="0" style="mix-blend-mode: normal"><path d="M134.69578,297.09437l3.92293,-39.39139l68.60667,6.83244l-3.92293,39.39139z" fill="#f9ef98" stroke="none" stroke-width="0" stroke-linecap="butt"/><path d="M135.19762,297.47443l0.50614,-9.44798l4.88606,-0.20893l1.87923,-9.72469l8.35508,-0.7874l-1.02115,8.20617l8.33715,-0.06547l2.72468,-15.42215l10.74516,-0.14606l0.0637,13.63139l10.43094,0.01536l2.84614,-15.94948l11.85454,0.35471l-0.71161,11.94785l9.62633,0.38787l-2.36199,23.95738z" fill="#948d5a" stroke="none" stroke-width="0" stroke-linecap="butt"/><path d="M135.37711,264.85606l-2.53518,-4.62946l11.57365,-6.33795l2.53518,4.62946z" fill-opacity="0.29804" fill="#fafafa" stroke="none" stroke-width="0" stroke-linecap="butt"/><path d="M130.5759,290.78696l4.43015,-2.86929l7.17321,11.07538l-4.43015,2.86929z" fill-opacity="0.29804" fill="#fafafa" stroke="none" stroke-width="0" stroke-linecap="butt"/><path d="M198.98921,307.81889l-4.07493,-3.35469l8.38673,-10.18733l4.07493,3.35469z" fill-opacity="0.29804" fill="#fafafa" stroke="none" stroke-width="0" stroke-linecap="butt"/><path d="M209.94342,272.48557l-4.73653,2.32902l-5.82256,-11.84132l4.73653,-2.32902z" fill-opacity="0.29804" fill="#fafafa" stroke="none" stroke-width="0" stroke-linecap="butt"/><path d="M145.65788,281.10918l-0.67486,4.72399" fill="none" stroke="#f9ef98" stroke-width="1.5" stroke-linecap="round"/><path d="M147.68245,280.43432l-0.50614,5.39884" fill="none" stroke="#f9ef98" stroke-width="1.5" stroke-linecap="round"/><path d="M163.37284,280.94046l1.181,-7.42341" fill="none" stroke="#f9ef98" stroke-width="1.5" stroke-linecap="round"/><path d="M165.3974,281.27789l1.181,-8.26698" fill="none" stroke="#f9ef98" stroke-width="1.5" stroke-linecap="round"/><path d="M187.49892,270.81763l-2.02457,9.61669" fill="none" stroke="#f9ef98" stroke-width="1.5" stroke-linecap="round"/><path d="M189.86092,270.81763l-2.02457,10.12283" fill="none" stroke="#f9ef98" stroke-width="1.5" stroke-linecap="round"/></g></g></svg>