<svg version="1.1" xmlns="http://www.w3.org/2000/svg" xmlns:xlink="http://www.w3.org/1999/xlink" width="38.10576" height="10.58248" viewBox="0,0,38.10576,10.58248"><g transform="translate(-240.16609,-175.19954)"><g data-paper-data="{&quot;isPaintingLayer&quot;:true}" fill-rule="nonzero" stroke-linecap="butt" stroke-linejoin="miter" stroke-miterlimit="10" stroke-dasharray="" stroke-dashoffset="0" style="mix-blend-mode: normal"><path d="M240.1661,184.17546c0,-1.13153 0,-7.02884 0,-8.59416c0,-0.24315 0.20542,-0.38176 0.49583,-0.38176c1.91342,0 21.86608,0 25.41133,0c0.34731,0 0.53714,0.1878 0.53714,0.41727c0,0.94034 0,7.25176 0,8.87827c0,0.24329 -0.14492,0.38176 -0.41319,0.38176c-3.19046,0 -23.82676,0 -25.61793,0c-0.24464,0 -0.41319,-0.33594 -0.41319,-0.70139z" fill-opacity="0.82353" fill="#000000" stroke="none" stroke-width="0"/><text transform="translate(242.02568,181.79949) scale(0.14247,0.14247)" font-size="40" xml:space="preserve" fill="#d6d6d6" fill-rule="nonzero" stroke="#d6d6d6" stroke-width="2" stroke-linecap="butt" stroke-linejoin="miter" stroke-miterlimit="10" stroke-dasharray="" stroke-dashoffset="0" font-family="Sans Serif" font-weight="normal" text-anchor="start" style="mix-blend-mode: normal"><tspan x="0" dy="0">复印楼层</tspan></text><path d="M268.42998,184.83723c0.02909,-1.13115 0.18072,-7.02652 0.22097,-8.59132c0.00625,-0.24307 0.08455,-0.37971 0.19022,-0.37699c0.69618,0.0179 7.95571,0.20462 9.2456,0.2378c0.12636,0.00325 0.19061,0.19276 0.1847,0.42216c-0.02418,0.94003 -0.18646,7.24936 -0.22828,8.87534c-0.00626,0.24321 -0.06254,0.38028 -0.16016,0.37777c-1.1608,-0.02986 -8.66907,-0.22297 -9.32077,-0.23973c-0.08901,-0.00229 -0.1417,-0.3397 -0.13231,-0.70503z" fill-opacity="0.82353" fill="#943900" stroke="none" stroke-width="0"/><text transform="translate(271.35149,182.70337) rotate(1.47416) scale(0.14247,0.14247)" font-size="40" xml:space="preserve" fill="#e08f45" fill-rule="nonzero" stroke="#e08f45" stroke-width="2" stroke-linecap="butt" stroke-linejoin="miter" stroke-miterlimit="10" stroke-dasharray="" stroke-dashoffset="0" font-family="Sans Serif" font-weight="normal" text-anchor="start" style="mix-blend-mode: normal"><tspan x="0" dy="0">C</tspan></text></g></g></svg>