<svg version="1.1" xmlns="http://www.w3.org/2000/svg" xmlns:xlink="http://www.w3.org/1999/xlink" width="49.90586" height="11.25792" viewBox="0,0,49.90586,11.25792"><g transform="translate(-240.23158,-175.15715)"><g data-paper-data="{&quot;isPaintingLayer&quot;:true}" fill-rule="nonzero" stroke-linecap="butt" stroke-linejoin="miter" stroke-miterlimit="10" stroke-dasharray="" stroke-dashoffset="0" style="mix-blend-mode: normal"><path d="M240.2316,184.13307c0,-1.13153 0,-7.02884 0,-8.59416c0,-0.24315 0.29605,-0.38176 0.71458,-0.38176c2.75758,0 31.51292,0 36.62227,0c0.50053,0 0.77412,0.1878 0.77412,0.41727c0,0.94034 0,7.25176 0,8.87827c0,0.24329 -0.20885,0.38176 -0.59549,0.38176c-4.59802,0 -34.33862,0 -36.92001,0c-0.35257,0 -0.59549,-0.33594 -0.59549,-0.70139z" fill-opacity="0.82353" fill="#000000" stroke="none" stroke-width="0"/><text transform="translate(242.09118,181.75708) scale(0.14247,0.14247)" font-size="40" xml:space="preserve" fill="#d6d6d6" fill-rule="nonzero" stroke="#d6d6d6" stroke-width="2" stroke-linecap="butt" stroke-linejoin="miter" stroke-miterlimit="10" stroke-dasharray="" stroke-dashoffset="0" font-family="Sans Serif" font-weight="normal" text-anchor="start" style="mix-blend-mode: normal"><tspan x="0" dy="0">繁忙的收发室</tspan></text><path d="M280.21086,185.37374c0.04065,-1.1308 0.25249,-7.0243 0.30872,-8.58861c0.00873,-0.24299 0.08843,-0.37883 0.19406,-0.37503c0.69596,0.02502 7.9532,0.28588 9.24269,0.33223c0.12632,0.00454 0.18863,0.1947 0.18038,0.42402c-0.03378,0.93973 -0.2605,7.24708 -0.31892,8.87254c-0.00874,0.24313 -0.06642,0.37962 -0.164,0.37611c-1.16045,-0.04171 -8.66635,-0.31151 -9.31784,-0.33493c-0.08898,-0.0032 -0.13822,-0.34113 -0.12509,-0.70634z" fill-opacity="0.82353" fill="#943900" stroke="none" stroke-width="0"/><text transform="translate(283.15402,183.26983) rotate(2.05862) scale(0.14247,0.14247)" font-size="40" xml:space="preserve" fill="#e08f45" fill-rule="nonzero" stroke="#e08f45" stroke-width="2" stroke-linecap="butt" stroke-linejoin="miter" stroke-miterlimit="10" stroke-dasharray="" stroke-dashoffset="0" font-family="Sans Serif" font-weight="normal" text-anchor="start" style="mix-blend-mode: normal"><tspan x="0" dy="0">C</tspan></text></g></g></svg>