<svg version="1.1" xmlns="http://www.w3.org/2000/svg" xmlns:xlink="http://www.w3.org/1999/xlink" width="32.5779" height="32.48503" viewBox="0,0,32.5779,32.48503"><g transform="translate(-223.71105,-163.75748)"><g data-paper-data="{&quot;isPaintingLayer&quot;:true}" fill-rule="nonzero" stroke="none" stroke-width="0" stroke-linecap="butt" stroke-linejoin="miter" stroke-miterlimit="10" stroke-dasharray="" stroke-dashoffset="0" style="mix-blend-mode: normal"><path d="M223.71105,193.8881c0,-3.79835 0,-23.5946 0,-28.84909c0,-0.81619 0.25306,-1.28152 0.61084,-1.28152c2.35723,0 26.93778,0 31.30532,0c0.42786,0 0.66174,0.63042 0.66174,1.40073c0,3.15657 0,24.34287 0,29.80278c0,0.81669 -0.17853,1.28152 -0.50903,1.28152c-3.93046,0 -29.35323,0 -31.55984,0c-0.30138,0 -0.50903,-1.12771 -0.50903,-2.35442z" fill="#ff6666"/><path d="M231.68117,187.09269c0,-1.93983 0,-12.04984 0,-14.73333c0,-0.41683 0.12924,-0.65448 0.31195,-0.65448c1.20384,0 13.75722,0 15.98773,0c0.21851,0 0.33795,0.32197 0.33795,0.71536c0,1.61207 0,12.43198 0,15.22038c0,0.41708 -0.09117,0.65448 -0.25996,0.65448c-2.0073,0 -14.99079,0 -16.11772,0c-0.15391,0 -0.25996,-0.57593 -0.25996,-1.20241z" fill="#8c0f0f"/></g></g></svg>