<svg version="1.1" xmlns="http://www.w3.org/2000/svg" xmlns:xlink="http://www.w3.org/1999/xlink" width="43.77292" height="10.00722" viewBox="0,0,43.77292,10.00722"><g transform="translate(-240.10091,-174.79607)"><g data-paper-data="{&quot;isPaintingLayer&quot;:true}" fill-rule="nonzero" stroke-linecap="butt" stroke-linejoin="miter" stroke-miterlimit="10" stroke-dasharray="" stroke-dashoffset="0" style="mix-blend-mode: normal"><path d="M240.10093,183.89162c0,-1.13153 0,-7.02884 0,-8.59416c0,-0.24315 0.25203,-0.38176 0.60833,-0.38176c2.34756,0 26.82731,0 31.17695,0c0.42611,0 0.65901,0.1878 0.65901,0.41727c0,0.94034 0,7.25176 0,8.87827c0,0.24329 -0.1778,0.38176 -0.50694,0.38176c-3.91435,0 -29.23286,0 -31.43043,0c-0.30015,0 -0.50694,-0.33594 -0.50694,-0.70139z" fill-opacity="0.82353" fill="#000000" stroke="none" stroke-width="0"/><text transform="translate(241.96053,181.51563) scale(0.14247,0.14247)" font-size="40" xml:space="preserve" fill="#d6d6d6" fill-rule="nonzero" stroke="#d6d6d6" stroke-width="2" stroke-linecap="butt" stroke-linejoin="miter" stroke-miterlimit="10" stroke-dasharray="" stroke-dashoffset="0" font-family="Sans Serif" font-weight="normal" text-anchor="start" style="mix-blend-mode: normal"><tspan x="0" dy="0">乘法研讨会</tspan></text><path d="M274.24293,184.10777c-0.04099,-1.13077 -0.25465,-7.02423 -0.31135,-8.58853c-0.00881,-0.24298 0.06088,-0.38422 0.16652,-0.38804c0.69595,-0.02522 7.95311,-0.28831 9.24259,-0.33505c0.12632,-0.00457 0.20218,0.18058 0.21048,0.40991c0.03407,0.93972 0.26271,7.247 0.32162,8.87246c0.0088,0.24313 -0.03887,0.38342 -0.13646,0.38697c-1.16041,0.04206 -8.66625,0.31415 -9.31773,0.33778c-0.08899,0.00323 -0.16246,-0.33026 -0.17571,-0.69547z" fill-opacity="0.82353" fill="#b0963f" stroke="none" stroke-width="0"/><text transform="translate(277.4571,181.77723) rotate(-2.07523) scale(0.14247,0.14247)" font-size="40" xml:space="preserve" fill="#fffc78" fill-rule="nonzero" stroke="#fffc78" stroke-width="2" stroke-linecap="butt" stroke-linejoin="miter" stroke-miterlimit="10" stroke-dasharray="" stroke-dashoffset="0" font-family="Sans Serif" font-weight="normal" text-anchor="start" style="mix-blend-mode: normal"><tspan x="0" dy="0">S</tspan></text></g></g></svg>