<svg version="1.1" xmlns="http://www.w3.org/2000/svg" xmlns:xlink="http://www.w3.org/1999/xlink" width="59.99248" height="79.84562" viewBox="0,0,59.99248,79.84562"><g transform="translate(-147.15043,-238.71874)"><g data-paper-data="{&quot;isPaintingLayer&quot;:true}" fill-rule="nonzero" stroke="none" stroke-width="0" stroke-linecap="butt" stroke-linejoin="miter" stroke-miterlimit="10" stroke-dasharray="" stroke-dashoffset="0" style="mix-blend-mode: normal"><path d="M151.91349,246.92201l45.55523,-2.89239l5.8127,68.76176l-45.55523,2.89239z" fill="#f9ef98"/><path d="M188.74837,242.01048l4.76081,-3.29174l9.49558,10.31489l-4.76081,3.29174z" fill-opacity="0.29804" fill="#fafafa"/><path d="M158.32071,241.7286l4.13858,3.87229l-11.17028,8.96675l-4.13858,-3.87229z" fill-opacity="0.29804" fill="#fafafa"/><path d="M152.50071,312.04947l3.00693,-4.58999l13.24062,6.51489l-3.00693,4.58999z" fill-opacity="0.29804" fill="#fafafa"/><path d="M194.83459,316.78026l-3.58507,-4.2668l12.30832,-7.76751l3.58507,4.2668z" fill-opacity="0.29804" fill="#fafafa"/><path d="M166.84848,287.66664l-9.04347,-15.37112l9.84347,-1.02888l5.4,6.6l8.38911,-0.43115l4.21089,-7.76885l9.26224,-0.7834l-6.66224,17.5834z" fill="#898353"/><path d="M176.88394,297.92834l-0.60891,-8.59565l3.71928,-0.26801l1.27558,8.51232l2.20664,-0.15919l-4.23797,5.56207l-5.04265,-4.58541z" fill="#898353"/><path d="M159.74106,264.78549l-0.60891,-8.59565l3.71928,-0.26801l1.27558,8.51232l2.20664,-0.15919l-4.23797,5.56207l-5.04265,-4.58541z" fill="#898353"/><path d="M187.24109,263.9233l-0.60891,-7.87498l3.71928,-0.24554l1.27558,7.79864l2.20664,-0.14585l-4.23797,5.09574l-5.04265,-4.20096z" fill="#898353"/><path d="M178.33264,312.02543c-1.29113,-0.73162 -2.22075,-5.01606 -1.61275,-6.4965c0.50116,-1.22029 4.87956,-1.13392 4.87956,-1.13392l-0.07716,1.27523c0,0 -2.61337,-0.34011 -2.94174,0.68019c-0.39071,1.21403 0.6077,4.38807 0.6077,4.38807c0,0 0.65994,2.14575 -0.85562,1.28694z" fill="#898353"/><path d="M181.28644,312.00284c-0.77822,0.1207 -2.33839,0.28416 -2.33839,0.28416l0.09966,-1.69419c0,0 1.32695,0.02979 2.00826,-0.07588c0.65158,-0.10107 1.68573,-0.4578 1.68573,-0.4578l0.56291,1.55215c0,0 -1.36697,0.29057 -2.01817,0.39157z" fill="#898353"/><path d="M185.98105,255.39515l-1.12856,-9.44806l1.60913,-0.17211l1.12856,9.44806z" fill="#898353"/><path d="M191.08251,254.50713c-1.0507,1.13174 -1.02069,-0.96642 -1.02069,-0.96642c0,0 0.06282,-3.10884 -0.5544,-4.11768c-0.51874,-0.84784 -2.6058,0.07007 -2.6058,0.07007l-0.37175,-1.13744c0,0 3.61327,-1.09982 4.32368,-0.11108c0.86185,1.19952 1.12405,5.29841 0.22894,6.26256z" fill="#898353"/><path d="M188.62533,255.17587c-0.56488,0.06041 -1.76958,0.11609 -1.76958,0.11609l0.09269,-1.5377c0,0 0.94445,0.08195 1.50964,0.02149c0.59099,-0.06322 1.68519,-0.39982 1.68519,-0.39982l0.49151,1.51181c0,0 -1.33438,0.21591 -2.00944,0.28812z" fill="#898353"/><path d="M162.32423,247.49248c0,0 0.21291,3.37286 0.52151,5.09251c0.22422,1.24945 0.95139,0.61364 0.95139,0.61364l0.2211,1.22069c0,0 -1.93472,0.9007 -2.10134,-0.02776c-0.30489,-1.69897 -1.18893,-6.63289 -1.18893,-6.63289z" fill="#898353"/><path d="M157.28363,248.67816c0.98252,-1.19142 1.0756,0.9049 1.0756,0.9049c0,0 0.11962,3.10718 0.79494,4.07808c0.56757,0.81596 2.5972,-0.22277 2.5972,-0.22277l0.43781,1.11369c0,0 -3.54255,1.30982 -4.30972,0.36445c-0.93071,-1.14692 -1.43284,-5.22338 -0.59581,-6.23836z" fill="#898353"/><path d="M159.69736,247.86647c0.56036,-0.09344 1.75972,-0.21967 1.75972,-0.21967l-0.00235,1.54049c0,0 -0.94762,-0.02642 -1.5083,0.06707c-0.58626,0.09777 -1.65884,0.49796 -1.65884,0.49796l-0.57933,-1.48039c0,0 1.31941,-0.29379 1.98908,-0.40546z" fill="#898353"/></g></g></svg>