<svg version="1.1" xmlns="http://www.w3.org/2000/svg" xmlns:xlink="http://www.w3.org/1999/xlink" width="43.46843" height="9.76966" viewBox="0,0,43.46843,9.76966"><g transform="translate(-240.1009,-175.5219)"><g data-paper-data="{&quot;isPaintingLayer&quot;:true}" fill-rule="nonzero" stroke-linecap="butt" stroke-linejoin="miter" stroke-miterlimit="10" stroke-dasharray="" stroke-dashoffset="0" style="mix-blend-mode: normal"><path d="M240.10093,184.55829c0,-1.13153 0,-7.02884 0,-8.59416c0,-0.24315 0.25203,-0.38176 0.60833,-0.38176c2.34756,0 26.82731,0 31.17695,0c0.42611,0 0.65901,0.1878 0.65901,0.41727c0,0.94034 0,7.25176 0,8.87827c0,0.24329 -0.1778,0.38176 -0.50694,0.38176c-3.91435,0 -29.23286,0 -31.43043,0c-0.30015,0 -0.50694,-0.33594 -0.50694,-0.70139z" fill-opacity="0.82353" fill="#000000" stroke="none" stroke-width="0"/><text transform="translate(241.96053,182.1823) scale(0.14247,0.14247)" font-size="40" xml:space="preserve" fill="#d6d6d6" fill-rule="nonzero" stroke="#d6d6d6" stroke-width="2" stroke-linecap="butt" stroke-linejoin="miter" stroke-miterlimit="10" stroke-dasharray="" stroke-dashoffset="0" font-family="Sans Serif" font-weight="normal" text-anchor="start" style="mix-blend-mode: normal"><tspan x="0" dy="0">专属休息室</tspan></text><path d="M273.85967,184.49558c0.0113,-1.13146 0.07018,-7.02849 0.08582,-8.59374c0.00243,-0.24313 0.07857,-0.381 0.18427,-0.37993c0.69637,0.00696 7.95794,0.07947 9.2482,0.09236c0.1264,0.00127 0.19362,0.18973 0.19132,0.4192c-0.00939,0.94029 -0.07242,7.2514 -0.08868,8.87784c-0.00244,0.24328 -0.05654,0.38121 -0.15419,0.38025c-1.16111,-0.0116 -8.67151,-0.08661 -9.32339,-0.09311c-0.08904,-0.00089 -0.14703,-0.33741 -0.14339,-0.70285z" fill-opacity="0.82353" fill="#b06040" stroke="none" stroke-width="0"/><text transform="translate(276.74727,182.31604) rotate(0.57308) scale(0.14247,0.14247)" font-size="40" xml:space="preserve" fill="#ffa878" fill-rule="nonzero" stroke="#ffa878" stroke-width="2" stroke-linecap="butt" stroke-linejoin="miter" stroke-miterlimit="10" stroke-dasharray="" stroke-dashoffset="0" font-family="Sans Serif" font-weight="normal" text-anchor="start" style="mix-blend-mode: normal"><tspan x="0" dy="0">A</tspan></text></g></g></svg>