<svg version="1.1" xmlns="http://www.w3.org/2000/svg" xmlns:xlink="http://www.w3.org/1999/xlink" width="56.20086" height="77.99004" viewBox="0,0,56.20086,77.99004"><g transform="translate(-295.58249,-237.71163)"><g data-paper-data="{&quot;isPaintingLayer&quot;:true}" fill-rule="nonzero" stroke-linecap="butt" stroke-linejoin="miter" stroke-miterlimit="10" stroke-dasharray="" stroke-dashoffset="0" style="mix-blend-mode: normal"><path d="M300.57371,243.27912l45.64696,-0.01781l1.4709,68.99134l-45.64696,0.01781z" fill="#f9ef98" stroke="none" stroke-width="0"/><path d="M337.64479,240.69702l4.95866,-2.98539l8.82715,10.8924l-4.95866,2.98539z" fill-opacity="0.29804" fill="#fafafa" stroke="none" stroke-width="0"/><path d="M307.29527,238.49952l3.88651,4.12523l-11.71279,8.24551l-3.8865,-4.12524z" fill-opacity="0.29804" fill="#fafafa" stroke="none" stroke-width="0"/><path d="M297.05838,308.31429l3.29001,-4.39152l12.80407,7.33579l-3.29002,4.39152z" fill-opacity="0.29804" fill="#fafafa" stroke="none" stroke-width="0"/><path d="M339.01031,315.70167l-3.30925,-4.4841l12.77304,-6.97697l3.30925,4.48409z" fill-opacity="0.29804" fill="#fafafa" stroke="none" stroke-width="0"/><text transform="translate(312.15971,258.46127) rotate(-19.1768) scale(0.22928,0.22928)" font-size="40" xml:space="preserve" fill="#898353" fill-rule="nonzero" stroke="#898353" stroke-width="3" stroke-linecap="butt" stroke-linejoin="miter" stroke-miterlimit="10" stroke-dasharray="" stroke-dashoffset="0" font-family="Sans Serif" font-weight="normal" text-anchor="start" style="mix-blend-mode: normal"><tspan x="0" dy="0">[?]</tspan></text><path d="M326.76077,272.43551l-7.3377,-10.70576l2.75549,-1.86274l8.13067,9.96688l1.79451,-1.29396l-0.68692,6.95882l-6.69914,-1.25532z" fill="#898353" stroke="none" stroke-width="0"/><path d="M324.02543,290.22344l7.98225,-10.27214l3.21263,2.10197l-7.51943,10.58906l1.83838,1.23084l-6.76173,1.78212l-1.15885,-6.7165z" fill="#898353" stroke="none" stroke-width="0"/><path d="M330.34137,279.47725c0,-2.00333 1.62402,-3.62735 3.62735,-3.62735c2.00333,0 3.62735,1.62402 3.62735,3.62735c0,2.00333 -1.62402,3.62735 -3.62735,3.62735c-2.00333,0 -3.62735,-1.62402 -3.62735,-3.62735z" fill="#898353" stroke="none" stroke-width="0"/><g fill="#898353" stroke="none" stroke-width="1"><path d="M317.25667,304.52007v1.81682c-0.98206,0 -1.96413,-0.14731 -2.89708,-0.44193c-0.09821,-0.0491 -0.19641,-0.0491 -0.29462,-0.09821c-0.24552,-0.09821 -0.44193,-0.29462 -0.54013,-0.54013c-0.0491,-0.09821 -0.0491,-0.14731 -0.09821,-0.24552c-0.34372,-0.98206 -0.63834,-2.01323 -0.83475,-3.0935v0c-0.68744,0 -1.22758,-0.54013 -1.22758,-1.22758c0,-0.68744 0.54013,-1.22758 1.22758,-1.22758c0.68744,0 1.22758,0.54013 1.22758,1.22758c0,0.29462 -0.09821,0.54013 -0.24552,0.73655c0.09821,0 0.14731,0 0.24552,0c1.22758,0 2.30785,-0.63834 2.89708,-1.5713c-0.54013,-0.24552 -0.93296,-0.73655 -0.93296,-1.37489c0,-0.83475 0.63834,-1.47309 1.47309,-1.47309v4.46838z"/><path d="M320.00392,305.89496c-0.88386,0.29462 -1.86592,0.44193 -2.84798,0.44193v-9.32959c0.83475,0 1.47309,0.63834 1.47309,1.47309c0,0.63834 -0.39283,1.12937 -0.93296,1.37489c0.63834,0.93296 1.66951,1.5713 2.89708,1.5713c0.09821,0 0.14731,0 0.24552,0c-0.14731,-0.19641 -0.24552,-0.44193 -0.24552,-0.73655c0,-0.68744 0.49103,-1.22758 1.17848,-1.22758c0.68744,0 1.22758,0.54013 1.22758,1.22758c0,0.68744 -0.54013,1.22758 -1.22758,1.22758v0c-0.19641,1.08027 -0.44193,2.11143 -0.83475,3.0935c-0.0491,0.09821 -0.0491,0.14731 -0.09821,0.24552c-0.09821,0.24552 -0.29462,0.44193 -0.54013,0.54013c-0.09821,0.0491 -0.19641,0.09821 -0.29462,0.09821z"/></g></g></g></svg>