<svg version="1.1" xmlns="http://www.w3.org/2000/svg" xmlns:xlink="http://www.w3.org/1999/xlink" width="487.98799" height="373.87387" viewBox="0,0,487.98799,373.87387"><g transform="translate(3.994,6.9369)"><g data-paper-data="{&quot;isPaintingLayer&quot;:true}" fill-rule="nonzero" stroke-linejoin="miter" stroke-miterlimit="10" stroke-dasharray="" stroke-dashoffset="0" style="mix-blend-mode: normal"><path d="M-3.994,366.93697v-373.87387h487.98799v373.87387z" fill-opacity="0.70196" fill="#000000" stroke="none" stroke-width="0" stroke-linecap="butt"/><text transform="translate(4.00601,27.66368) scale(0.67335,0.67335)" font-size="40" xml:space="preserve" fill="#ffffff" fill-rule="nonzero" stroke="#ffffff" stroke-width="3" stroke-linecap="butt" stroke-linejoin="miter" stroke-miterlimit="10" stroke-dasharray="" stroke-dashoffset="0" font-family="Sans Serif" font-weight="normal" text-anchor="start" style="mix-blend-mode: normal"><tspan x="0" dy="0">第     年</tspan></text><text transform="translate(98.63065,28.89191) scale(0.5,0.5)" font-size="40" xml:space="preserve" fill="#ffffff" fill-rule="nonzero" stroke="none" stroke-width="1" stroke-linecap="butt" stroke-linejoin="miter" stroke-miterlimit="10" stroke-dasharray="" stroke-dashoffset="0" font-family="Sans Serif" font-weight="normal" text-anchor="start" style="mix-blend-mode: normal"><tspan x="0" dy="0">反转字符串</tspan></text><text transform="translate(2.29732,54.87027) scale(0.34348,0.34348)" font-size="40" xml:space="preserve" fill="#ffffff" fill-rule="nonzero" stroke="#ffffff" stroke-width="1" stroke-linecap="butt" stroke-linejoin="miter" stroke-miterlimit="10" stroke-dasharray="" stroke-dashoffset="0" font-family="Sans Serif" font-weight="normal" text-anchor="start" style="mix-blend-mode: normal"><tspan x="0" dy="0">。啰哈</tspan><tspan x="0" dy="48px">？吗好你</tspan><tspan x="0" dy="48px">！哈哈</tspan><tspan x="0" dy="48px">哈哈！好现在该认真了。</tspan><tspan x="0" dy="48px"> </tspan><tspan x="0" dy="48px">对于INBOX中的每个零结尾字符串，将其反转后送到OUTBOX里。</tspan></text><path d="M45.58316,3.67089l2.79158,4.51924l-1.32909,5.65509l-6.56714,13.4599l9.47638,0.06267l-0.01518,4.94002l-16.62064,0.20814l8.70096,-18.48573l1.04656,-3.85008l-2.41018,-1.11331l-3.08413,0.87554l-2.53237,2.94426l-4.24431,-1.78318l4.32767,-5.11101l5.56837,-2.45956z" fill="#ffffff" stroke="none" stroke-width="0" stroke-linecap="round"/><path d="M50.8693,4.09669l15.37647,-0.49525l-2.10301,4.88884l-9.43166,0.08204l-0.29455,6.43096l8.91186,0.55423l2.41887,5.08553l-0.0268,7.17333l-3.81242,4.89169l-12.14698,0.20068l1.74377,-4.23577l8.65381,-0.38259l1.45534,-6.67429l-1.51809,-1.2252l-9.70134,-0.66264z" fill="#ffffff" stroke="none" stroke-width="0" stroke-linecap="round"/></g></g></svg>