<svg version="1.1" xmlns="http://www.w3.org/2000/svg" xmlns:xlink="http://www.w3.org/1999/xlink" width="19.97039" height="23.08689" viewBox="0,0,19.97039,23.08689"><defs><radialGradient cx="242.1796" cy="180.45011" r="7.39329" gradientUnits="userSpaceOnUse" id="color-1"><stop offset="0" stop-color="#ff6666"/><stop offset="1" stop-color="#ff6666" stop-opacity="0.70196"/></radialGradient></defs><g transform="translate(-230.0148,-168.45656)"><g data-paper-data="{&quot;isPaintingLayer&quot;:true}" fill="url(#color-1)" fill-rule="nonzero" stroke="none" stroke-width="0" stroke-linecap="butt" stroke-linejoin="miter" stroke-miterlimit="10" stroke-dasharray="" stroke-dashoffset="0" style="mix-blend-mode: normal"><path d="M234.78631,180.45011c0,-0.55126 -3.47834,-3.51494 -3.36391,-4.03177c0.20507,-0.92628 4.12254,0.63928 4.63914,-0.12044c0.39351,-0.57869 -0.70018,-5.39557 -0.16264,-5.84087c0.48631,-0.40288 2.59218,3.55229 3.17162,3.28335c0.26311,-0.12212 3.43258,-5.28382 3.86739,-5.28382c0.64897,0 -1.59559,5.78569 -0.31353,5.72429c1.14717,-0.05494 5.10541,-1.40037 5.14912,-0.74624c0.07137,1.06814 -4.06365,4.48116 -3.32919,5.16217c0.56771,0.5264 5.59645,1.29677 5.54043,1.87519c-0.08962,0.92526 -4.77237,-0.25879 -5.06267,0.12981c-0.55415,0.74178 3.68376,6.539 2.90676,6.79652c-1.00835,0.33418 -5.00059,-4.5165 -5.73992,-3.79575c-1.48191,1.44468 1.71831,6.92014 0.29291,6.92014c-0.3021,0 -3.02015,-6.40285 -4.0624,-5.37963c-1.03124,1.01242 -0.58796,6.77385 -1.06962,6.38124c-1.26463,-1.03084 -0.10225,-7.13817 -0.87999,-7.04655c-3.19866,0.37681 -4.98865,-0.03595 -6.273,-0.00858c-0.8131,0.01733 4.6895,-3.15961 4.6895,-4.01904z"/></g></g></svg>