<svg version="1.1" xmlns="http://www.w3.org/2000/svg" xmlns:xlink="http://www.w3.org/1999/xlink" width="57.13205" height="27.3274" viewBox="0,0,57.13205,27.3274"><g transform="translate(-208.00011,-166.37508)"><g data-paper-data="{&quot;isPaintingLayer&quot;:true}" fill-rule="nonzero" stroke="none" stroke-width="0" stroke-linejoin="miter" stroke-miterlimit="10" stroke-dasharray="" stroke-dashoffset="0" style="mix-blend-mode: normal"><path d="M208.00011,191.65008c0,-3.18624 0,-19.79228 0,-24.2c0,-0.68466 0.27383,-1.075 0.66095,-1.075c2.55064,0 29.14793,0 33.8738,0c0.46297,0 0.71603,0.52883 0.71603,1.175c0,2.64788 0,20.41996 0,25c0,0.68508 -0.19318,1.075 -0.55078,1.075c-4.25294,0 -31.76156,0 -34.14921,0c-0.32611,0 -0.55079,-0.94598 -0.55079,-1.975z" fill="#e0b975" stroke-linecap="butt"/><path d="M245.5539,192.28754c0,-2.2827 0,-14.17968 0,-17.33748c0,-0.49051 0.15209,-0.77016 0.3671,-0.77016c1.41662,0 16.18873,0 18.81348,0c0.25713,0 0.39768,0.37887 0.39768,0.8418c0,1.89701 0,14.62937 0,17.91062c0,0.49081 -0.10729,0.77016 -0.30591,0.77016c-2.36208,0 -17.64033,0 -18.96644,0c-0.18112,0 -0.30591,-0.67772 -0.30591,-1.41494z" fill="#e0b975" stroke-linecap="butt"/><g fill="#997e50"><path d="M224.0301,177.87133c0,0 -0.72879,4.91591 0.10498,6.61923c0.70073,1.43152 4.38808,0.33067 4.38808,0.33067l0.39594,1.8655c0,0 -6.28566,1.13044 -7.2799,-0.55683c-1.20619,-2.04697 -0.82448,-8.5869 0.87135,-9.96306c1.99061,-1.61538 1.51956,1.70451 1.51956,1.70451z" stroke-linecap="butt"/><path d="M231.84328,187.03276v-14.22539h2.48544v14.22539z" stroke-linecap="butt"/><path d="M239.78532,186.5239c-1.80861,1.51543 -1.3806,-1.59904 -1.3806,-1.59904c0,0 0.66216,-4.61175 -0.0954,-6.20969c-0.63667,-1.34296 -3.98687,-0.31021 -3.98687,-0.31021l-0.35974,-1.75009c0,0 5.71095,-1.06048 6.61428,0.52238c1.0959,1.92031 0.74908,8.05564 -0.79169,9.34664z" stroke-linecap="butt"/><path d="M235.91604,187.12723c-0.87248,0 -2.71994,-0.1088 -2.71994,-0.1088l0.42151,-2.27126c0,0 1.42544,0.27201 2.29844,0.27201c0.91284,0 2.64291,-0.32641 2.64291,-0.32641l0.4742,2.32568c0,0 -2.0744,0.1088 -3.1171,0.1088z" stroke-linecap="butt"/><path d="M230.03809,176.86228l0.07628,8.20121l0.99085,0.41129l-0.44488,1.75833c0,0 -1.38729,-0.29778 -1.70855,-0.52651c-0.52883,-0.37651 -1.19621,-1.5945 -1.19621,-1.5945c0,0 -0.36665,-8.17539 0.58106,-8.86485c0.8107,-0.58976 1.70142,0.61503 1.70142,0.61503z" stroke-linecap="butt"/><path d="M211.7468,176.59958c0.80615,-0.81318 2.33016,-1.47363 3.72991,-1.50244c1.39975,-0.02881 4.51868,1.33266 4.51868,1.33266c0,0 0.09468,1.17471 -0.07006,1.41943c-0.20319,0.30184 -1.05809,0.25646 -1.05809,0.25646c0,0 -1.77778,-0.85224 -3.18339,-0.79249c-0.91027,0.03869 -1.66445,0.93459 -1.67867,1.08741c-0.02074,0.22284 0.81293,1.12423 1.91374,1.59643c1.12186,0.48123 3.56739,1.30027 3.81643,1.91504c0.25463,0.62859 0.20642,2.34722 0.20642,2.34722c0,0 -0.67899,1.25767 -1.16941,1.60246c-0.64471,0.45327 -2.36417,0.88186 -2.36417,0.88186l-5.25588,-0.26735c0,0 -0.10907,-0.80043 0.05922,-1.06165c0.13706,-0.21275 0.87621,-0.39035 0.87621,-0.39035c0,0 5.1796,0.7124 5.30625,-1.11075c0.14577,-2.09822 -2.90353,-2.31057 -2.90353,-2.31057c0,0 -2.57648,-1.22059 -3.07827,-2.13565c-0.37589,-0.68549 -0.47155,-2.05454 0.3346,-2.86771z" stroke-linecap="round"/></g></g></g></svg>