<svg version="1.1" xmlns="http://www.w3.org/2000/svg" xmlns:xlink="http://www.w3.org/1999/xlink" width="487.98799" height="373.87387" viewBox="0,0,487.98799,373.87387"><g transform="translate(3.99399,6.9369)"><g data-paper-data="{&quot;isPaintingLayer&quot;:true}" fill-rule="nonzero" stroke-linejoin="miter" stroke-miterlimit="10" stroke-dasharray="" stroke-dashoffset="0" style="mix-blend-mode: normal"><path d="M-3.99399,366.93697v-373.87387h487.98799v373.87387z" fill-opacity="0.70196" fill="#000000" stroke="none" stroke-width="0" stroke-linecap="butt"/><text transform="translate(4.00601,27.66367) scale(0.67335,0.67335)" font-size="40" xml:space="preserve" fill="#ffffff" fill-rule="nonzero" stroke="#ffffff" stroke-width="3" stroke-linecap="butt" stroke-linejoin="miter" stroke-miterlimit="10" stroke-dasharray="" stroke-dashoffset="0" font-family="Sans Serif" font-weight="normal" text-anchor="start" style="mix-blend-mode: normal"><tspan x="0" dy="0">第     年</tspan></text><text transform="translate(98.63065,28.89191) scale(0.5,0.5)" font-size="40" xml:space="preserve" fill="#ffffff" fill-rule="nonzero" stroke="none" stroke-width="1" stroke-linecap="butt" stroke-linejoin="miter" stroke-miterlimit="10" stroke-dasharray="" stroke-dashoffset="0" font-family="Sans Serif" font-weight="normal" text-anchor="start" style="mix-blend-mode: normal"><tspan x="0" dy="0">均衡之间</tspan></text><text transform="translate(2.29732,54.87026) scale(0.34348,0.34348)" font-size="40" xml:space="preserve" fill="#ffffff" fill-rule="nonzero" stroke="#ffffff" stroke-width="1" stroke-linecap="butt" stroke-linejoin="miter" stroke-miterlimit="10" stroke-dasharray="" stroke-dashoffset="0" font-family="Sans Serif" font-weight="normal" text-anchor="start" style="mix-blend-mode: normal"><tspan x="0" dy="0">有时候一个数比零一个数大。</tspan><tspan x="0" dy="48px">有时候……</tspan><tspan x="0" dy="48px">它们两个居然一样！</tspan><tspan x="0" dy="48px">你问我是怎么知道的？……我曾经读过一本伟大的书。</tspan><tspan x="0" dy="48px">《哪个数是你？致志存高远的零！》</tspan><tspan x="0" dy="48px">别着急，我一会就借给你。</tspan><tspan x="0" dy="48px">从INBOX(输入栏)取出两个数字。如果它们相等，任意选一个放到OUTBOX(输</tspan><tspan x="0" dy="48px">出栏)，否则继续比较下一项。</tspan></text><path d="M43.48479,3.4124l-3.84643,29.70801h-4.56765l3.36563,-24.5316l-5.52926,1.12531l1.44241,-4.27616l4.12294,-2.15793z" fill="#ffffff" stroke="none" stroke-width="0" stroke-linecap="round"/><path d="M46.92791,8.61508l6.62874,-6.38209l10.27359,4.0021l-1.0587,20.90465l-9.66462,7.16707l-7.93714,-4.96876zM58.63663,25.41485l0.54971,-17.22368l-3.70374,-1.64963l-4.5685,3.21278l-1.59176,16.13392l3.12142,3.22648z" fill="#ffffff" stroke="none" stroke-width="0" stroke-linecap="butt"/></g></g></svg>