<svg version="1.1" xmlns="http://www.w3.org/2000/svg" xmlns:xlink="http://www.w3.org/1999/xlink" width="12.24804" height="17.61127" viewBox="0,0,12.24804,17.61127"><g transform="translate(-233.62598,-188.94437)"><g data-paper-data="{&quot;isPaintingLayer&quot;:true}" fill="#562d00" fill-rule="nonzero" stroke="none" stroke-width="0" stroke-linecap="butt" stroke-linejoin="miter" stroke-miterlimit="10" stroke-dasharray="" stroke-dashoffset="0" style="mix-blend-mode: normal"><path d="M235.54196,205.67929c-2.22573,-3.81773 -2.59497,-11.95319 -0.67101,-15.13699c1.58586,-2.62436 10.89301,-1.22549 10.89301,-1.22549l-0.63152,2.90158c0,0 -6.95977,-1.71224 -8.07749,0.51432c-1.32993,2.64932 0.44867,10.29546 0.44867,10.29546c0,0 1.21349,5.1637 -1.96164,2.65114z"/><path d="M236.86233,206.34531l0.67843,-2.93168c0,0 2.84122,-0.06095 4.44376,-0.06095c1.53262,0 0.36621,-4.14784 0.36621,-4.14784l2.87687,-1.43233c0,0 0.59327,-0.01494 0.64146,1.54846c0.06471,2.09886 -0.50694,6.00427 -1.51949,6.7221c-1.3224,0.93748 -7.48724,0.30225 -7.48724,0.30225z"/><path d="M244.7204,200.42441c-1.83051,0 -5.47228,-0.33443 -5.47228,-0.33443l0.67843,-2.93168c0,0 3.03727,0.23312 4.63981,0.23312c1.53262,0 1.68573,3.03301 0.15402,3.03301z"/></g></g></svg>