<svg version="1.1" xmlns="http://www.w3.org/2000/svg" xmlns:xlink="http://www.w3.org/1999/xlink" width="37.78043" height="10.10917" viewBox="0,0,37.78043,10.10917"><g transform="translate(-176.18442,-174.03932)"><g data-paper-data="{&quot;isPaintingLayer&quot;:true}" fill-rule="nonzero" stroke-linecap="butt" stroke-linejoin="miter" stroke-miterlimit="10" stroke-dasharray="" stroke-dashoffset="0" style="mix-blend-mode: normal"><path d="M187.4352,183.18344c0.01146,-1.13147 0.07119,-7.02847 0.08705,-8.59372c0.00247,-0.24314 0.20927,-0.37966 0.49967,-0.37672c1.91332,0.01939 21.86496,0.22148 25.41002,0.25739c0.34729,0.00352 0.53521,0.19323 0.53289,0.42269c-0.00952,0.94029 -0.07346,7.25139 -0.08993,8.87782c-0.00246,0.24328 -0.14878,0.38027 -0.41704,0.37755c-3.1903,-0.03231 -23.82554,-0.24134 -25.61662,-0.25949c-0.24463,-0.00248 -0.40977,-0.34011 -0.40606,-0.70554z" fill-opacity="0.82353" fill="#000000" stroke="none" stroke-width="0"/><text transform="translate(189.31875,180.82641) rotate(0.58112) scale(0.14247,0.14247)" font-size="40" xml:space="preserve" fill="#d6d6d6" fill-rule="nonzero" stroke="#d6d6d6" stroke-width="2" stroke-linecap="butt" stroke-linejoin="miter" stroke-miterlimit="10" stroke-dasharray="" stroke-dashoffset="0" font-family="Sans Serif" font-weight="normal" text-anchor="start" style="mix-blend-mode: normal"><tspan x="0" dy="0">数位炸弹</tspan></text><path d="M176.18645,183.00349c0.03964,-1.13082 0.24619,-7.02453 0.30103,-8.5889c0.00851,-0.24299 0.08809,-0.37891 0.19373,-0.3752c0.69598,0.0244 7.95345,0.27876 9.24299,0.32397c0.12632,0.00444 0.18881,0.19452 0.18076,0.42386c-0.03293,0.93976 -0.25402,7.24731 -0.311,8.87284c-0.00854,0.24314 -0.06607,0.37968 -0.16367,0.37627c-1.16046,-0.04068 -8.66662,-0.30377 -9.31813,-0.32659c-0.08899,-0.00312 -0.13853,-0.34099 -0.12574,-0.70622z" fill-opacity="0.82353" fill="#b0963f" stroke="none" stroke-width="0"/><text transform="translate(178.05841,180.90775) rotate(2.00716) scale(0.14247,0.14247)" font-size="40" xml:space="preserve" fill="#fffc78" fill-rule="nonzero" stroke="#fffc78" stroke-width="2" stroke-linecap="butt" stroke-linejoin="miter" stroke-miterlimit="10" stroke-dasharray="" stroke-dashoffset="0" font-family="Sans Serif" font-weight="normal" text-anchor="start" style="mix-blend-mode: normal"><tspan x="0" dy="0">SS</tspan></text></g></g></svg>