<svg version="1.1" xmlns="http://www.w3.org/2000/svg" xmlns:xlink="http://www.w3.org/1999/xlink" width="487.98799" height="373.87387" viewBox="0,0,487.98799,373.87387"><g transform="translate(3.994,6.93693)"><g data-paper-data="{&quot;isPaintingLayer&quot;:true}" fill-rule="nonzero" stroke-linejoin="miter" stroke-miterlimit="10" stroke-dasharray="" stroke-dashoffset="0" style="mix-blend-mode: normal"><path d="M-3.994,366.93694v-373.87387h487.98799v373.87387z" fill-opacity="0.70196" fill="#000000" stroke="none" stroke-width="0" stroke-linecap="butt"/><text transform="translate(4.00601,27.66368) scale(0.67335,0.67335)" font-size="40" xml:space="preserve" fill="#ffffff" fill-rule="nonzero" stroke="#ffffff" stroke-width="3" stroke-linecap="butt" stroke-linejoin="miter" stroke-miterlimit="10" stroke-dasharray="" stroke-dashoffset="0" font-family="Sans Serif" font-weight="normal" text-anchor="start" style="mix-blend-mode: normal"><tspan x="0" dy="0">第     年</tspan></text><text transform="translate(98.63065,28.8919) scale(0.5,0.5)" font-size="40" xml:space="preserve" fill="#ffffff" fill-rule="nonzero" stroke="none" stroke-width="1" stroke-linecap="butt" stroke-linejoin="miter" stroke-miterlimit="10" stroke-dasharray="" stroke-dashoffset="0" font-family="Sans Serif" font-weight="normal" text-anchor="start" style="mix-blend-mode: normal"><tspan x="0" dy="0">加运算走廊</tspan></text><text transform="translate(2.29732,54.87026) scale(0.34348,0.34348)" font-size="40" xml:space="preserve" fill="#ffffff" fill-rule="nonzero" stroke="#ffffff" stroke-width="1" stroke-linecap="butt" stroke-linejoin="miter" stroke-miterlimit="10" stroke-dasharray="" stroke-dashoffset="0" font-family="Sans Serif" font-weight="normal" text-anchor="start" style="mix-blend-mode: normal"><tspan x="0" dy="0">减法？我上学的时候可没学过这东西。你学过？</tspan><tspan x="0" dy="48px">咱俩绝对是绝佳的拍档！</tspan><tspan x="0" dy="48px">从INBOX(输入栏)取出两项，先用前面的减去后面的，输出到OUTBOX(输出栏)</tspan><tspan x="0" dy="48px">再用后面的减去前面的，输出到OUTBOX(输出栏)。</tspan></text><path d="M45.35538,35.99245l9.41725,-26.58667l-6.17288,-1.08062l-4.16838,5.30193l7.89803,4.60177l-1.58855,3.27962l-10.32187,-4.78908l3.36803,-10.9403l5.63723,-3.09473c0,0 8.34292,2.65853 8.64077,2.72507c0.5634,0.12588 0.64098,4.87508 0.64098,4.87508l-6.6714,23.45037z" fill="#ffffff" stroke="none" stroke-width="0" stroke-linecap="round"/><g stroke="none" stroke-width="0"><path d="M207.24943,161.64331c0,-2.2827 0,-14.17968 0,-17.33748c0,-0.49051 0.15209,-0.77016 0.3671,-0.77016c1.41662,0 16.18873,0 18.81348,0c0.25713,0 0.39768,0.37887 0.39768,0.8418c0,1.89701 0,14.62937 0,17.91062c0,0.49081 -0.10729,0.77016 -0.30591,0.77016c-2.36208,0 -17.64033,0 -18.96644,0c-0.18112,0 -0.30591,-0.67772 -0.30591,-1.41494z" fill="#e0b975" stroke-linecap="butt"/><path d="M219.5296,145.55639l-2.04453,15.79097h-2.42788l1.78897,-13.03951l-2.93902,0.59815l0.7667,-2.27295l2.1915,-1.14702z" fill="#af905b" stroke-linecap="round"/></g><text transform="translate(102.88065,158.6161) scale(0.32167,0.32167)" font-size="40" xml:space="preserve" fill="#ffffff" fill-rule="nonzero" stroke="none" stroke-width="1" stroke-linecap="butt" stroke-linejoin="miter" stroke-miterlimit="10" stroke-dasharray="" stroke-dashoffset="0" font-family="Sans Serif" font-weight="normal" text-anchor="start" style="mix-blend-mode: normal"><tspan x="0" dy="0">相减：用手上的减       地毯上的。(结果保留在手上)</tspan></text><path d="M78.99943,161.97661c0,-2.2827 0,-14.17968 0,-17.33748c0,-0.49051 0.15209,-0.77016 0.3671,-0.77016c1.41662,0 16.18873,0 18.81348,0c0.25713,0 0.39768,0.37887 0.39768,0.8418c0,1.89701 0,14.62937 0,17.91062c0,0.49081 -0.10729,0.77016 -0.30591,0.77016c-2.36208,0 -17.64033,0 -18.96644,0c-0.18112,0 -0.30591,-0.67772 -0.30591,-1.41494z" fill="#e6bd77" stroke="none" stroke-width="0" stroke-linecap="butt"/><path d="M92.02958,145.63974l-2.04453,15.79097h-2.42788l1.78897,-13.03951l-2.93902,0.59815l0.7667,-2.27295l2.1915,-1.14702z" fill="#af905b" stroke="none" stroke-width="0" stroke-linecap="round"/><path d="M25.50011,161.15006c0,-3.18624 0,-19.79228 0,-24.2c0,-0.68466 0.39815,-1.075 0.96101,-1.075c3.70857,0 42.38041,0 49.25173,0c0.67314,0 1.04109,0.52883 1.04109,1.175c0,2.64788 0,20.41996 0,25c0,0.68508 -0.28088,1.075 -0.80084,1.075c-6.18368,0 -46.18056,0 -49.65215,0c-0.47416,0 -0.80084,-0.94598 -0.80084,-1.975z" fill="#e0b975" stroke="none" stroke-width="0" stroke-linecap="butt"/><path d="M48.66413,146.98519c0,0 -0.89132,6.01224 0.12839,8.09542c0.85701,1.75077 5.36669,0.40441 5.36669,0.40441l0.48424,2.28154c0,0 -7.68747,1.38255 -8.90344,-0.68101c-1.47519,-2.50348 -1.00835,-10.50192 1.06568,-12.18499c2.43455,-1.97564 1.85845,2.08464 1.85845,2.08464z" fill="#af905b" stroke="none" stroke-width="0" stroke-linecap="butt"/><path d="M58.21976,158.18978v-17.39788h3.03973v17.39788z" fill="#af905b" stroke="none" stroke-width="0" stroke-linecap="butt"/><path d="M67.93302,157.56741c-2.21196,1.85339 -1.6885,-1.95565 -1.6885,-1.95565c0,0 0.80983,-5.64025 -0.11667,-7.59455c-0.77866,-1.64246 -4.87601,-0.37939 -4.87601,-0.37939l-0.43997,-2.14039c0,0 6.98459,-1.29699 8.08937,0.63888c1.3403,2.34857 0.91614,9.85218 -0.96825,11.43109z" fill="#af905b" stroke="none" stroke-width="0" stroke-linecap="butt"/><path d="M63.20082,158.3053c-1.06706,0 -3.32653,-0.13306 -3.32653,-0.13306l0.51551,-2.77779c0,0 1.74334,0.33267 2.81103,0.33267c1.11642,0 3.23232,-0.3992 3.23232,-0.3992l0.57996,2.84435c0,0 -2.53703,0.13306 -3.81226,0.13306z" fill="#af905b" stroke="none" stroke-width="0" stroke-linecap="butt"/><path d="M56.012,145.75112l0.09329,10.03021l1.21182,0.50301l-0.54409,2.15047c0,0 -1.69668,-0.36419 -2.08959,-0.64393c-0.64677,-0.46048 -1.46298,-1.9501 -1.46298,-1.9501c0,0 -0.44842,-9.99864 0.71065,-10.84185c0.9915,-0.72129 2.08086,0.75219 2.08086,0.75219z" fill="#af905b" stroke="none" stroke-width="0" stroke-linecap="butt"/><path d="M33.64144,145.42984c0.98593,-0.99453 2.84982,-1.80227 4.56174,-1.83751c1.71192,-0.03524 5.52642,1.62987 5.52642,1.62987c0,0 0.11579,1.43669 -0.08568,1.73598c-0.2485,0.36915 -1.29406,0.31365 -1.29406,0.31365c0,0 -2.17425,-1.0423 -3.89334,-0.96923c-1.11327,0.04732 -2.03565,1.14302 -2.05304,1.32992c-0.02536,0.27254 0.99423,1.37495 2.34054,1.95246c1.37205,0.58855 4.36297,1.59025 4.66755,2.34212c0.31142,0.76877 0.25245,2.87069 0.25245,2.87069c0,0 -0.83042,1.53815 -1.43021,1.95984c-0.78849,0.55436 -2.89142,1.07853 -2.89142,1.07853l-6.42803,-0.32697c0,0 -0.13339,-0.97894 0.07243,-1.29842c0.16763,-0.2602 1.07162,-0.47741 1.07162,-0.47741c0,0 6.33473,0.87128 6.48963,-1.35846c0.17828,-2.56616 -3.55106,-2.82587 -3.55106,-2.82587c0,0 -3.15108,-1.4928 -3.76477,-2.61193c-0.45972,-0.83836 -0.57671,-2.51273 0.40922,-3.50726z" fill="#af905b" stroke="none" stroke-width="0" stroke-linecap="round"/></g></g></svg>