<svg version="1.1" xmlns="http://www.w3.org/2000/svg" xmlns:xlink="http://www.w3.org/1999/xlink" width="226.08164" height="67.21208" viewBox="0,0,226.08164,67.21208"><defs><radialGradient cx="239.35678" cy="173.18168" r="12.08644" gradientUnits="userSpaceOnUse" id="color-1"><stop offset="0" stop-color="#ffe9b8"/><stop offset="1" stop-color="#c6a679"/></radialGradient></defs><g transform="translate(-35.75733,-139.27755)"><g data-paper-data="{&quot;isPaintingLayer&quot;:true}" fill-rule="nonzero" stroke-linejoin="miter" stroke-miterlimit="10" stroke-dasharray="" stroke-dashoffset="0" style="mix-blend-mode: normal"><path d="M221.33897,191.48963l2.5,-2.75l37.5,6.25l-0.34099,9.31224l-1.40901,2.18776l-39.05322,-0.36352z" fill="#412f2f" stroke="none" stroke-width="0" stroke-linecap="butt"/><path d="M234.17063,187.17052l-7.5667,-1.24105c0,0 -1.32774,-1.34487 -1.41305,-1.84231c-0.1283,-0.74812 0.71813,-2.20984 0.71813,-2.20984l9.53374,1.37672" fill="#000000" stroke="none" stroke-width="0" stroke-linecap="round"/><path d="M223.25004,184.98592c-0.23471,-0.11206 1.27743,-1.0602 0.75276,-1.16077c-0.75367,-0.14447 -1.38437,0.6688 -1.51539,-0.13107c-0.14153,-0.86405 0.37559,-0.28141 1.04975,-0.80405c0.34167,-0.26488 -1.05876,-0.62508 -0.97878,-0.78072c0.37265,-0.72518 2.87222,0.63975 2.87222,0.63975l0.20663,1.22638c0,0 -0.80686,1.76493 -2.38719,1.01048z" fill="#f0cc85" stroke="none" stroke-width="0" stroke-linecap="butt"/><path d="M245.60013,181.11249l5.83687,8.47057l-4.45505,0.47476l-3.92829,-6.40806" fill="#000000" stroke="none" stroke-width="0" stroke-linecap="round"/><path d="M233.05528,189.65528c0,0 -0.5,-2.42314 -0.5,-3.54953c0,-1.06072 0.5,-3.02367 0.5,-3.02367c0,0 5.1932,-0.13146 7.4,-0.13146c2.29011,0 6.1,-0.06573 6.1,-0.06573c0,0 0.4,2.48144 0.4,3.61526c0,1.12287 -0.4,3.15514 -0.4,3.15514c0,0 -3.84173,0.26293 -6.1,0.26293c-2.24161,0 -7.4,-0.26293 -7.4,-0.26293z" fill="#000000" stroke="none" stroke-width="NaN" stroke-linecap="butt"/><path d="M236.45528,189.58487l0.3,-7.2h6.4l0.4,7.2c0,0 -2.42512,0.8 -3.6,0.8c-1.19155,0 -3.5,-0.8 -3.5,-0.8z" fill="#c2a068" stroke="none" stroke-width="0" stroke-linecap="butt"/><path d="M238.46083,187.72598l1.44444,-3.55556l1.66667,3.22222l-1.44444,1.77778z" fill="#000000" stroke="none" stroke-width="0" stroke-linecap="butt"/><path d="M226.87036,173.38168c0,-6.67516 5.81128,-12.28644 12.48644,-12.28644c6.67516,0 12.68644,5.41128 12.68644,12.08644c0,6.67516 -6.01128,12.08644 -12.68644,12.08644c-6.67516,0 -12.48644,-5.21128 -12.48644,-11.88644z" fill="url(#color-1)" stroke="none" stroke-width="0" stroke-linecap="butt"/><path d="M235.114,163.53463c0,0.27614 -0.22385,0.5 -0.49999,0.5h-0.18701c-0.142,0.1 -0.313,0.1 -0.313,0.1c-1.51923,-0.0082 -3.08327,1.36992 -4.34275,2.12875l-0.49295,0.29577c-0.07668,0.04784 -0.16726,0.07548 -0.2643,0.07548c-0.27614,0 -0.5,-0.22386 -0.5,-0.5c0,-0.16566 0.08057,-0.3125 0.20466,-0.40349l0.39534,-0.29651l0.02944,0.03924l0.02824,-0.01694c1.88999,-2.68431 5.77008,-4.73135 8.88092,-4.71992l0.0614,-0.01228v-0.0901h0.5c0.27614,0 0.5,0.22386 0.5,0.5c0,0.24578 -0.17732,0.45013 -0.41102,0.49211l-0.49092,0.09819l-0.00457,-0.02288l-0.04422,0.03015c-0.02336,0.0001 -0.04668,0.00031 -0.06997,0.00062c-0.44519,0.74243 -2.53132,1.09788 -3.19359,1.36606l-0.02403,0.00961c0.143,0.08799 0.23833,0.24594 0.23833,0.42615zM233.7342,162.97761c-0.01851,0.01015 -0.03699,0.02036 -0.05545,0.03061c0.02083,-0.00327 0.04169,-0.00656 0.0626,-0.0099c-0.00253,-0.00697 -0.00491,-0.01387 -0.00715,-0.02071z" fill="#000000" stroke="none" stroke-width="0.5" stroke-linecap="butt"/><path d="M245.85392,163.88139l-0.03993,0.05324l-0.39534,-0.29651c-0.12409,-0.09098 -0.20466,-0.23783 -0.20466,-0.40349c0,-0.16888 0.08372,-0.3182 0.21192,-0.40872c0.08907,-0.41355 0.46245,-0.39719 0.56178,-0.38521c0.17835,-0.14556 0.42436,-0.09636 0.42436,-0.09636c1.21849,0.3049 2.5898,1.86815 3.38012,3.22568c1.29697,1.68396 2.35351,3.65161 2.61211,4.86656c0.07777,0.38886 0.14953,0.74843 0.18553,1.12477c0.08587,0.14016 0.17015,0.279 0.25293,0.41604l-0.32875,0.95725c0,0 -0.3,0.4 -0.7,0.1c-0.2461,-0.18458 -0.22723,-0.40701 -0.17627,-0.55084c-0.02373,-0.08362 -0.02373,-0.14916 -0.02373,-0.14916v-0.3c0.0003,-0.05569 -0.00066,-0.11052 -0.00274,-0.16465c-1.03298,-1.69751 -2.35223,-3.65186 -4.07302,-4.67462c-0.20561,-0.04052 -0.41423,-0.06186 -0.62425,-0.06073c0,0 -0.5,0 -0.5,-0.5c0,-0.05129 0.00526,-0.09732 0.01471,-0.13863c-0.03182,-0.09197 -0.03505,-0.2068 0.02106,-0.34707c0.1857,-0.46424 0.64993,-0.27854 0.64993,-0.27854c0.25629,0.10515 0.50481,0.22727 0.74592,0.36418c-0.67967,-0.72656 -1.42288,-1.56728 -1.99169,-2.35318z" fill="#000000" stroke="none" stroke-width="0.5" stroke-linecap="butt"/><path d="M235.014,173.23463l4.6,0.9" fill="none" stroke="#000000" stroke-width="1" stroke-linecap="round"/><path d="M248.614,176.18463c0,2.34721 -2.14609,3.95 -5.3,3.25c-2.10274,-0.4667 -3.7,-2.50279 -3.7,-4.85c0,-2.34721 2.49105,-3.28778 4.6,-2.85c3.85391,0.8 4.4,2.10279 4.4,4.45z" fill="#ffffff" stroke="#000000" stroke-width="1" stroke-linecap="butt"/><path d="M248.914,175.93463l5.6,0.4v1.2" fill="none" stroke="#000000" stroke-width="1" stroke-linecap="round"/><path d="M234.71397,173.38463c0,2.07107 -1.7237,3.75 -3.85,3.75c-2.1263,0 -3.85,-1.67893 -3.85,-3.75c0,-2.07107 1.7237,-3.75 3.85,-3.75c2.1263,0 3.85,1.67893 3.85,3.75z" fill="#ffffff" stroke="none" stroke-width="0" stroke-linecap="butt"/><path d="M227.10998,172.40518c0,0 -0.19162,4.48357 4.14271,4.36011c2.49389,-0.07103 4.73928,-4.75596 0.98991,-6.22356c-4.11271,-1.6124 -5.12123,1.7614 -5.12123,1.7614c0,0 0.05072,-4.35299 5.04958,-2.87785c5.03511,1.02157 2.94276,8.3569 -0.8756,8.35501c-5.30947,-0.00263 -4.18537,-5.37511 -4.18537,-5.37511z" fill="#000000" stroke="none" stroke-width="0" stroke-linecap="round"/><path d="M223.08897,202.98963l1.5,-14.25l37.25,0.75l-0.75,14.5z" fill="#664949" stroke="none" stroke-width="0" stroke-linecap="butt"/><path d="M202.72889,144.37556c-0.00885,2.33481 -0.05053,11.3372 -0.05053,11.3372l17.69044,14.28472l-17.76,13.63792c0,0 -0.05806,12.63252 -0.06964,15.69008c-0.00265,0.70094 -2.70495,2.5422 -3.71238,2.5385c-12.06651,-0.04437 -137.33504,-0.4912 -159.69216,-0.57339c-2.19017,-0.00808 -3.38284,-1.21586 -3.37727,-2.6863c0.02281,-6.02552 0.17591,-46.46764 0.21536,-56.88999c0.0059,-1.55897 0.92317,-2.4429 2.61496,-2.43672c20.11975,0.07395 150.2571,0.55247 161.55254,0.59401c1.54276,0.00567 2.59755,2.16227 2.58867,4.5039z" fill="#db5a44" stroke="none" stroke-width="0" stroke-linecap="butt"/><text transform="translate(53.64968,158.18119) scale(0.28843,0.28843)" font-size="40" xml:space="preserve" fill="#812828" fill-rule="nonzero" stroke="#812828" stroke-width="3" stroke-linecap="butt" stroke-linejoin="miter" stroke-miterlimit="10" stroke-dasharray="" stroke-dashoffset="0" font-family="Sans Serif" font-weight="normal" text-anchor="start" style="mix-blend-mode: normal"><tspan x="0" dy="0">             (输出栏)内容错误！</tspan></text><text transform="translate(46.5815,159.35572) scale(0.27692,0.32901)" font-size="40" xml:space="preserve" fill="#812828" fill-rule="nonzero" stroke="#812828" stroke-width="4" stroke-linecap="butt" stroke-linejoin="miter" stroke-miterlimit="10" stroke-dasharray="" stroke-dashoffset="0" font-family="Sans Serif" font-weight="normal" text-anchor="start" style="mix-blend-mode: normal"><tspan x="0" dy="0">OUTBOX</tspan></text><text transform="translate(64.98301,173.18119) scale(0.28843,0.28843)" font-size="40" xml:space="preserve" fill="#812828" fill-rule="nonzero" stroke="#812828" stroke-width="3" stroke-linecap="butt" stroke-linejoin="miter" stroke-miterlimit="10" stroke-dasharray="" stroke-dashoffset="0" font-family="Sans Serif" font-weight="normal" text-anchor="start" style="mix-blend-mode: normal"><tspan x="0" dy="0">公司高层想要的是</tspan></text><text transform="translate(54.98301,189.18119) scale(0.28843,0.28843)" font-size="40" xml:space="preserve" fill="#812828" fill-rule="nonzero" stroke="#812828" stroke-width="3" stroke-linecap="butt" stroke-linejoin="miter" stroke-miterlimit="10" stroke-dasharray="" stroke-dashoffset="0" font-family="Sans Serif" font-weight="normal" text-anchor="start" style="mix-blend-mode: normal"><tspan x="0" dy="0">但你却送进去了       。</tspan></text></g></g></svg>