<svg version="1.1" xmlns="http://www.w3.org/2000/svg" xmlns:xlink="http://www.w3.org/1999/xlink" width="103" height="29.25" viewBox="0,0,103,29.25"><g transform="translate(-188.5,-165.375)"><g data-paper-data="{&quot;isPaintingLayer&quot;:true}" fill-rule="nonzero" stroke-linejoin="miter" stroke-miterlimit="10" stroke-dasharray="" stroke-dashoffset="0" style="mix-blend-mode: normal"><path d="M203,180.125l74,-0.25" fill="none" stroke="#3d6600" stroke-width="29" stroke-linecap="round"/><path d="M249,179.875h28" fill="none" stroke="#8bc916" stroke-width="29" stroke-linecap="round"/><path d="M271.7209,170.58605l5.87062,2.44734l-0.60497,12.7835l-5.52264,4.38277l-0.04202,-3.30929l3.76601,-2.96912l0.36338,-8.57327l-4.17853,-1.56887z" fill="#577f0e" stroke="none" stroke-width="0" stroke-linecap="butt"/><path d="M258.45767,189.91395l-5.87062,-2.44734l0.60497,-12.7835l5.52264,-4.38277l0.04201,3.30929l-3.76601,2.96912l-0.36338,8.57327l4.17853,1.56887z" fill="#577f0e" stroke="none" stroke-width="0" stroke-linecap="butt"/><path d="M260.23295,184.28066l-0.1212,-7.04764l1.3528,-0.9379l1.1211,0.87653l7.22611,-0.08584l0.44702,8.42693l-2.93168,-0.23876l1.10267,-6.1527l-5.84758,-0.03979l-0.41128,5.65431z" fill="#577f0e" stroke="none" stroke-width="0" stroke-linecap="butt"/><path d="M205.23295,184.28066l-0.1212,-7.04764l1.3528,-0.9379l1.1211,0.87653l7.22611,-0.08584l0.44702,8.42693l-2.93168,-0.23876l1.10267,-6.1527l-5.84758,-0.03979l-0.41128,5.65431z" fill="#577f0e" stroke="none" stroke-width="0" stroke-linecap="butt"/></g></g></svg>