<svg version="1.1" xmlns="http://www.w3.org/2000/svg" xmlns:xlink="http://www.w3.org/1999/xlink" width="37.92372" height="10.07962" viewBox="0,0,37.92372,10.07962"><g transform="translate(-240.17633,-174.77997)"><g data-paper-data="{&quot;isPaintingLayer&quot;:true}" fill-rule="nonzero" stroke-linecap="butt" stroke-linejoin="miter" stroke-miterlimit="10" stroke-dasharray="" stroke-dashoffset="0" style="mix-blend-mode: normal"><path d="M240.17634,183.88425c0,-1.13153 0,-7.02884 0,-8.59416c0,-0.24315 0.20542,-0.38176 0.49583,-0.38176c1.91342,0 21.86608,0 25.41133,0c0.34731,0 0.53714,0.1878 0.53714,0.41727c0,0.94034 0,7.25176 0,8.87827c0,0.24329 -0.14492,0.38176 -0.41319,0.38176c-3.19046,0 -23.82676,0 -25.61793,0c-0.24464,0 -0.41319,-0.33594 -0.41319,-0.70139z" fill-opacity="0.82353" fill="#000000" stroke="none" stroke-width="0"/><text transform="translate(242.03592,181.50826) scale(0.14247,0.14247)" font-size="40" xml:space="preserve" fill="#d6d6d6" fill-rule="nonzero" stroke="#d6d6d6" stroke-width="2" stroke-linecap="butt" stroke-linejoin="miter" stroke-miterlimit="10" stroke-dasharray="" stroke-dashoffset="0" font-family="Sans Serif" font-weight="normal" text-anchor="start" style="mix-blend-mode: normal"><tspan x="0" dy="0">均衡之间</tspan></text><path d="M268.10476,183.73921c0.05011,-1.13041 0.31127,-7.02194 0.38059,-8.58573c0.01077,-0.24291 0.09159,-0.37807 0.1972,-0.37339c0.69573,0.03084 7.95053,0.35243 9.23958,0.40958c0.12628,0.0056 0.18699,0.19627 0.17682,0.42552c-0.04165,0.93942 -0.32115,7.24464 -0.39319,8.86957c-0.01079,0.24305 -0.06959,0.37905 -0.16715,0.37473c-1.16004,-0.05143 -8.66343,-0.38405 -9.31471,-0.4129c-0.08896,-0.00394 -0.13537,-0.34227 -0.11919,-0.70737z" fill-opacity="0.82353" fill="#939470" stroke="none" stroke-width="0"/><text transform="translate(271.06543,181.66001) rotate(2.53919) scale(0.14247,0.14247)" font-size="40" xml:space="preserve" fill="#dadca7" fill-rule="nonzero" stroke="#d5d7a3" stroke-width="2" stroke-linecap="butt" stroke-linejoin="miter" stroke-miterlimit="10" stroke-dasharray="" stroke-dashoffset="0" font-family="Sans Serif" font-weight="normal" text-anchor="start" style="mix-blend-mode: normal"><tspan x="0" dy="0">B</tspan></text></g></g></svg>