<svg version="1.1" xmlns="http://www.w3.org/2000/svg" xmlns:xlink="http://www.w3.org/1999/xlink" width="43.68884" height="10.8886" viewBox="0,0,43.68884,10.8886"><g transform="translate(-240.0907,-175.20638)"><g data-paper-data="{&quot;isPaintingLayer&quot;:true}" fill-rule="nonzero" stroke-linecap="butt" stroke-linejoin="miter" stroke-miterlimit="10" stroke-dasharray="" stroke-dashoffset="0" style="mix-blend-mode: normal"><path d="M240.09072,184.1823c0,-1.13153 0,-7.02884 0,-8.59416c0,-0.24315 0.25203,-0.38176 0.60833,-0.38176c2.34756,0 26.82731,0 31.17695,0c0.42611,0 0.65901,0.1878 0.65901,0.41727c0,0.94034 0,7.25176 0,8.87827c0,0.24329 -0.1778,0.38176 -0.50694,0.38176c-3.91435,0 -29.23286,0 -31.43043,0c-0.30015,0 -0.50694,-0.33594 -0.50694,-0.70139z" fill-opacity="0.82353" fill="#000000" stroke="none" stroke-width="0"/><text transform="translate(241.95029,181.80631) scale(0.14247,0.14247)" font-size="40" xml:space="preserve" fill="#d6d6d6" fill-rule="nonzero" stroke="#d6d6d6" stroke-width="2" stroke-linecap="butt" stroke-linejoin="miter" stroke-miterlimit="10" stroke-dasharray="" stroke-dashoffset="0" font-family="Sans Serif" font-weight="normal" text-anchor="start" style="mix-blend-mode: normal"><tspan x="0" dy="0">扰码处理器</tspan></text><path d="M273.82604,185.02275c0.04435,-1.13065 0.27546,-7.02344 0.33681,-8.58756c0.00952,-0.24296 0.08966,-0.37853 0.19529,-0.37438c0.69588,0.02729 7.95222,0.31188 9.24155,0.36246c0.12631,0.00496 0.18799,0.19531 0.17899,0.42461c-0.03686,0.93962 -0.2842,7.24619 -0.34795,8.87146c-0.00955,0.24311 -0.06766,0.3794 -0.16524,0.37558c-1.16028,-0.04551 -8.66527,-0.33987 -9.31669,-0.36541c-0.08898,-0.00349 -0.13711,-0.34158 -0.12279,-0.70675z" fill-opacity="0.82353" fill="#939470" stroke="none" stroke-width="0"/><text transform="translate(276.77607,182.92848) rotate(2.24665) scale(0.14247,0.14247)" font-size="40" xml:space="preserve" fill="#dadca7" fill-rule="nonzero" stroke="#dadca7" stroke-width="2" stroke-linecap="butt" stroke-linejoin="miter" stroke-miterlimit="10" stroke-dasharray="" stroke-dashoffset="0" font-family="Sans Serif" font-weight="normal" text-anchor="start" style="mix-blend-mode: normal"><tspan x="0" dy="0">B</tspan></text></g></g></svg>