<svg version="1.1" xmlns="http://www.w3.org/2000/svg" xmlns:xlink="http://www.w3.org/1999/xlink" width="43.59205" height="9.86667" viewBox="0,0,43.59205,9.86667"><g transform="translate(-240.26757,-174.47631)"><g data-paper-data="{&quot;isPaintingLayer&quot;:true}" fill-rule="nonzero" stroke-linecap="butt" stroke-linejoin="miter" stroke-miterlimit="10" stroke-dasharray="" stroke-dashoffset="0" style="mix-blend-mode: normal"><path d="M240.26759,183.6416c0,-1.13153 0,-7.02884 0,-8.59416c0,-0.24315 0.25203,-0.38176 0.60833,-0.38176c2.34756,0 26.82731,0 31.17695,0c0.42611,0 0.65901,0.1878 0.65901,0.41727c0,0.94034 0,7.25176 0,8.87827c0,0.24329 -0.1778,0.38176 -0.50694,0.38176c-3.91435,0 -29.23286,0 -31.43043,0c-0.30015,0 -0.50694,-0.33594 -0.50694,-0.70139z" fill-opacity="0.82353" fill="#000000" stroke="none" stroke-width="0"/><text transform="translate(242.12719,181.26561) scale(0.14247,0.14247)" font-size="40" xml:space="preserve" fill="#d6d6d6" fill-rule="nonzero" stroke="#d6d6d6" stroke-width="2" stroke-linecap="butt" stroke-linejoin="miter" stroke-miterlimit="10" stroke-dasharray="" stroke-dashoffset="0" font-family="Sans Serif" font-weight="normal" text-anchor="start" style="mix-blend-mode: normal"><tspan x="0" dy="0">绝对正能量</tspan></text><path d="M274.23045,183.62702c-0.02116,-1.13132 -0.13147,-7.02761 -0.16074,-8.59266c-0.00455,-0.24311 0.06761,-0.38309 0.1733,-0.38506c0.69629,-0.01302 7.95695,-0.14885 9.24704,-0.17297c0.12638,-0.00236 0.19898,0.1841 0.20327,0.41354c0.01758,0.94018 0.13562,7.2505 0.16603,8.87673c0.00454,0.24325 -0.04558,0.38268 -0.14323,0.38451c-1.16097,0.02171 -8.67042,0.16217 -9.32222,0.17438c-0.08903,0.00167 -0.15665,-0.33306 -0.16349,-0.69845z" fill-opacity="0.82353" fill="#939470" stroke="none" stroke-width="0"/><text transform="translate(277.05433,181.36554) rotate(-1.07075) scale(0.14247,0.14247)" font-size="40" xml:space="preserve" fill="#dadca7" fill-rule="nonzero" stroke="#d5d7a3" stroke-width="2" stroke-linecap="butt" stroke-linejoin="miter" stroke-miterlimit="10" stroke-dasharray="" stroke-dashoffset="0" font-family="Sans Serif" font-weight="normal" text-anchor="start" style="mix-blend-mode: normal"><tspan x="0" dy="0">B</tspan></text></g></g></svg>