<svg version="1.1" xmlns="http://www.w3.org/2000/svg" xmlns:xlink="http://www.w3.org/1999/xlink" width="138.07483" height="78.68" viewBox="0,0,138.07483,78.68"><g transform="translate(-186.9626,-148.65999)"><g data-paper-data="{&quot;isPaintingLayer&quot;:true}" fill="#e0d4bd" fill-rule="nonzero" stroke="none" stroke-width="0" stroke-linecap="butt" stroke-linejoin="miter" stroke-miterlimit="10" stroke-dasharray="" stroke-dashoffset="0" style="mix-blend-mode: normal"><path d="M306.08737,155.07032c-0.00631,2.93582 -0.03606,19.9838 -0.03606,19.9838l18.98612,13.73358l-19.03573,12.06837c0,0 -0.02864,13.20698 -0.04304,19.95258c-0.00128,0.60234 -0.40913,3.44322 -1.40996,4.75427c-1.27077,1.66468 -3.25624,1.78129 -3.93591,1.77696c-17.3196,-0.11026 -96.33572,-0.60719 -111.24067,-0.70377c-1.56256,-0.01016 -2.41347,-1.52884 -2.40949,-3.37779c0.01627,-7.57658 0.12549,-58.4291 0.15364,-71.53432c0.00421,-1.96027 0.65863,-3.07174 1.86563,-3.06397c13.46097,0.0872 95.94754,0.62176 112.8082,0.73104c1.11895,0.00725 4.30361,2.73475 4.29728,5.67915z"/></g></g></svg>