<svg version="1.1" xmlns="http://www.w3.org/2000/svg" xmlns:xlink="http://www.w3.org/1999/xlink" width="41.6059" height="10.36812" viewBox="0,0,41.6059,10.36812"><g transform="translate(-172.95896,-173.88038)"><g data-paper-data="{&quot;isPaintingLayer&quot;:true}" fill-rule="nonzero" stroke-linecap="butt" stroke-linejoin="miter" stroke-miterlimit="10" stroke-dasharray="" stroke-dashoffset="0" style="mix-blend-mode: normal"><path d="M188.0352,183.28345c0.01146,-1.13147 0.07119,-7.02847 0.08705,-8.59372c0.00247,-0.24314 0.20927,-0.37966 0.49967,-0.37672c1.91332,0.01939 21.86496,0.22148 25.41002,0.25739c0.34729,0.00352 0.53521,0.19323 0.53289,0.42269c-0.00952,0.94029 -0.07346,7.25139 -0.08993,8.87782c-0.00246,0.24328 -0.14878,0.38027 -0.41704,0.37755c-3.1903,-0.03231 -23.82554,-0.24134 -25.61662,-0.25949c-0.24463,-0.00248 -0.40977,-0.34011 -0.40606,-0.70554z" fill-opacity="0.82353" fill="#000000" stroke="none" stroke-width="0"/><text transform="translate(189.91875,180.92642) rotate(0.58112) scale(0.14247,0.14247)" font-size="40" xml:space="preserve" fill="#d6d6d6" fill-rule="nonzero" stroke="#d6d6d6" stroke-width="2" stroke-linecap="butt" stroke-linejoin="miter" stroke-miterlimit="10" stroke-dasharray="" stroke-dashoffset="0" font-family="Sans Serif" font-weight="normal" text-anchor="start" style="mix-blend-mode: normal"><tspan x="0" dy="0">字母排序</tspan></text><path d="M172.96123,182.83856c0.04811,-1.13049 0.29885,-7.0225 0.36542,-8.58641c0.01033,-0.24292 0.11485,-0.37735 0.2543,-0.37159c0.91868,0.03792 10.49839,0.43322 12.20055,0.50347c0.16675,0.00689 0.24992,0.19826 0.24015,0.42753c-0.03998,0.93949 -0.30835,7.24522 -0.37753,8.87027c-0.01036,0.24307 -0.08579,0.37855 -0.21461,0.37324c-1.53178,-0.06322 -11.43976,-0.47208 -12.29974,-0.50755c-0.11747,-0.00484 -0.1841,-0.34382 -0.16858,-0.70894z" fill-opacity="0.82353" fill="#b0963f" stroke="none" stroke-width="0"/><text transform="translate(174.90248,180.83723) rotate(2.00716) scale(0.14247,0.14247)" font-size="40" xml:space="preserve" fill="#fffc78" fill-rule="nonzero" stroke="#fffc78" stroke-width="2" stroke-linecap="butt" stroke-linejoin="miter" stroke-miterlimit="10" stroke-dasharray="" stroke-dashoffset="0" font-family="Sans Serif" font-weight="normal" text-anchor="start" style="mix-blend-mode: normal"><tspan x="0" dy="0">SSS</tspan></text></g></g></svg>