<svg version="1.1" xmlns="http://www.w3.org/2000/svg" xmlns:xlink="http://www.w3.org/1999/xlink" width="487.98799" height="373.87387" viewBox="0,0,487.98799,373.87387"><g transform="translate(3.994,6.9369)"><g data-paper-data="{&quot;isPaintingLayer&quot;:true}" fill-rule="nonzero" stroke-linejoin="miter" stroke-miterlimit="10" stroke-dasharray="" stroke-dashoffset="0" style="mix-blend-mode: normal"><path d="M-3.994,366.93697v-373.87387h487.98799v373.87387z" fill-opacity="0.70196" fill="#000000" stroke="none" stroke-width="0" stroke-linecap="butt"/><text transform="translate(4.00601,27.66368) scale(0.67335,0.67335)" font-size="40" xml:space="preserve" fill="#ffffff" fill-rule="nonzero" stroke="#ffffff" stroke-width="3" stroke-linecap="butt" stroke-linejoin="miter" stroke-miterlimit="10" stroke-dasharray="" stroke-dashoffset="0" font-family="Sans Serif" font-weight="normal" text-anchor="start" style="mix-blend-mode: normal"><tspan x="0" dy="0">第     年</tspan></text><text transform="translate(98.63065,28.89191) scale(0.5,0.5)" font-size="40" xml:space="preserve" fill="#ffffff" fill-rule="nonzero" stroke="none" stroke-width="1" stroke-linecap="butt" stroke-linejoin="miter" stroke-miterlimit="10" stroke-dasharray="" stroke-dashoffset="0" font-family="Sans Serif" font-weight="normal" text-anchor="start" style="mix-blend-mode: normal"><tspan x="0" dy="0">计时器</tspan></text><text transform="translate(2.29732,54.87027) scale(0.34348,0.34348)" font-size="40" xml:space="preserve" fill="#ffffff" fill-rule="nonzero" stroke="#ffffff" stroke-width="1" stroke-linecap="butt" stroke-linejoin="miter" stroke-miterlimit="10" stroke-dasharray="" stroke-dashoffset="0" font-family="Sans Serif" font-weight="normal" text-anchor="start" style="mix-blend-mode: normal"><tspan x="0" dy="0">欢迎再次回到公司！</tspan><tspan x="0" dy="48px">滴答，滴答。</tspan><tspan x="0" dy="48px">时间分秒不争地流逝，让我们赶紧去干活吧！</tspan><tspan x="0" dy="48px">哦，天哪。</tspan><tspan x="0" dy="48px">我爱死你的新发型了。</tspan><tspan x="0" dy="48px">对于INBOX(输入栏)中的每一个数字，把它和到0之间的每一个数(包括它本身和</tspan><tspan x="0" dy="48px">0)都送进OUTBOX(输出栏)。</tspan><tspan x="0" dy="48px">这其实就是一个计时器！你现在又能使用两个新命令了！</tspan><tspan x="0" dy="48px">它们能把指定地毯上的数加或减，然后放回地毯和你的手里。碰！</tspan></text><path d="M43.48479,3.4124l-3.84643,29.70801h-4.56765l3.36563,-24.5316l-5.52926,1.12531l1.44241,-4.27616l4.12294,-2.15793z" fill="#ffffff" stroke="none" stroke-width="0" stroke-linecap="round"/><g stroke="none" stroke-width="0" stroke-linecap="butt"><path d="M17.14301,236.50722c0,-3.18624 0,-19.79228 0,-24.2c0,-0.68466 0.39815,-1.075 0.96101,-1.075c3.70857,0 42.38041,0 49.25173,0c0.67314,0 1.04109,0.52883 1.04109,1.175c0,2.64788 0,20.41996 0,25c0,0.68508 -0.28088,1.075 -0.80084,1.075c-6.18368,0 -46.18056,0 -49.65215,0c-0.47416,0 -0.80084,-0.94598 -0.80084,-1.975z" fill="#e0a575"/><path d="M70.49942,237.12691c0,-2.2827 0,-14.17968 0,-17.33748c0,-0.49051 0.15209,-0.77016 0.3671,-0.77016c1.41662,0 16.18873,0 18.81348,0c0.25713,0 0.39768,0.37887 0.39768,0.8418c0,1.89701 0,14.62937 0,17.91062c0,0.49081 -0.10729,0.77016 -0.30591,0.77016c-2.36208,0 -17.64033,0 -18.96644,0c-0.18112,0 -0.30591,-0.67772 -0.30591,-1.41494z" fill="#e0a575"/><g fill="#a17654"><path d="M55.92856,223.44976c0,0 2.81869,0.29726 4.54497,0.29726c1.80507,0 5.22615,-0.35671 5.22615,-0.35671l-0.02686,2.93307c0,0 -2.79504,-0.63569 -4.8569,-0.63569c-1.72528,0 -4.99745,0.34206 -4.99745,0.34206z"/><path d="M62.16618,219.83057c0,0 -0.29726,2.8187 -0.29726,4.54498c0,1.80507 0.35671,5.22614 0.35671,5.22614l-2.93307,-0.02684c0,0 0.63569,-2.79504 0.63569,-4.85692c0,-1.72528 -0.34206,-4.99745 -0.34206,-4.99745z"/></g><g fill="#a17654"><path d="M20.00551,230.15684v-10.9928h1.92064v10.9928z"/><path d="M26.14279,229.76361c-1.39762,1.17106 -1.06688,-1.23568 -1.06688,-1.23568c0,0 0.51169,-3.56378 -0.07372,-4.7986c-0.492,-1.03778 -3.08089,-0.23971 -3.08089,-0.23971l-0.27799,-1.3524c0,0 4.4132,-0.8195 5.11124,0.40367c0.84686,1.48394 0.57886,6.22508 -0.61179,7.2227z"/><path d="M23.15277,230.22984c-0.67422,0 -2.10186,-0.08407 -2.10186,-0.08407l0.32572,-1.75514c0,0 1.10152,0.2102 1.77614,0.2102c0.7054,0 2.04233,-0.25223 2.04233,-0.25223l0.36645,1.79719c0,0 -1.60301,0.08407 -2.40877,0.08407z"/><path d="M30.03477,223.34806c0,0 -0.56318,3.79882 0.08112,5.11507c0.5415,1.10622 3.39093,0.25552 3.39093,0.25552l0.30596,1.44159c0,0 -4.8573,0.87356 -5.62561,-0.4303c-0.93209,-1.58182 -0.63712,-6.63561 0.67335,-7.69906c1.53826,-1.2483 1.17426,1.31718 1.17426,1.31718z"/><path d="M34.6775,222.56831l0.05895,6.33756l0.76568,0.31782l-0.34378,1.35877c0,0 -1.07204,-0.23011 -1.3203,-0.40687c-0.40866,-0.29095 -0.92438,-1.23216 -0.92438,-1.23216c0,0 -0.28333,-6.31761 0.44902,-6.85039c0.62647,-0.45575 1.31479,0.47527 1.31479,0.47527z"/></g><g fill="#a17654"><path d="M48.78624,222.51257v10.18566h-1.88439v-10.18566z"/><path d="M52.92322,222.87699c1.16818,0.92438 1.43112,5.31739 0.60024,6.69237c-0.68488,1.13337 -5.01477,0.37404 -5.01477,0.37404l0.27274,-1.25309c0,0 2.54003,0.73947 3.02273,-0.22211c0.57435,-1.14415 0.07232,-4.44626 0.07232,-4.44626c0,0 -0.3245,-2.23002 1.04674,-1.14494z"/><path d="M49.98971,222.44492c0.79054,0 2.3633,0.0779 2.3633,0.0779l-0.35952,1.66523c0,0 -1.3117,-0.23372 -2.00378,-0.23372c-0.66188,0 -1.74261,0.19476 -1.74261,0.19476l-0.31957,-1.62627c0,0 1.40069,-0.0779 2.06218,-0.0779z"/><path d="M35.80644,230.15176v-7.96262h1.83753v7.96262z"/><path d="M40.78307,230.15176c0,0 0.25165,-5.04664 -0.30841,-6.19079c-0.4707,-0.96158 -2.8307,-0.22211 -2.8307,-0.22211l-0.38282,-1.25309c0,0 4.2222,-0.75934 4.89005,0.37404c0.81022,1.37498 0.16315,7.29197 0.16315,7.29197z"/><path d="M44.69446,230.15176c0,0 0.25165,-5.04664 -0.30841,-6.19079c-0.4707,-0.96158 -2.8307,-0.22211 -2.8307,-0.22211l-0.38282,-1.25309c0,0 4.2222,-0.75934 4.89005,0.37404c0.81022,1.37498 0.16315,7.29197 0.16315,7.29197z"/></g></g><g stroke="none" stroke-width="0" stroke-linecap="butt"><path d="M17.14301,270.50722c0,-3.18624 0,-19.79228 0,-24.2c0,-0.68466 0.39815,-1.075 0.96101,-1.075c3.70857,0 42.38041,0 49.25173,0c0.67314,0 1.04109,0.52883 1.04109,1.175c0,2.64788 0,20.41996 0,25c0,0.68508 -0.28088,1.075 -0.80084,1.075c-6.18368,0 -46.18056,0 -49.65215,0c-0.47416,0 -0.80084,-0.94598 -0.80084,-1.975z" fill="#e0a575"/><path d="M70.49942,271.12691c0,-2.2827 0,-14.17968 0,-17.33748c0,-0.49051 0.15209,-0.77016 0.3671,-0.77016c1.41662,0 16.18873,0 18.81348,0c0.25713,0 0.39768,0.37887 0.39768,0.8418c0,1.89701 0,14.62937 0,17.91062c0,0.49081 -0.10729,0.77016 -0.30591,0.77016c-2.36208,0 -17.64033,0 -18.96644,0c-0.18112,0 -0.30591,-0.67772 -0.30591,-1.41494z" fill="#e0a575"/><path d="M55.92856,257.44976c0,0 2.81869,0.29726 4.54497,0.29726c1.80507,0 5.22615,-0.35671 5.22615,-0.35671l-0.02686,2.93307c0,0 -2.79504,-0.63569 -4.8569,-0.63569c-1.72528,0 -4.99745,0.34206 -4.99745,0.34206z" fill="#a17654"/><g fill="#a17654"><path d="M20.00551,264.15684v-10.9928h1.92064v10.9928z"/><path d="M26.14279,263.76361c-1.39762,1.17106 -1.06688,-1.23568 -1.06688,-1.23568c0,0 0.51169,-3.56378 -0.07372,-4.7986c-0.492,-1.03778 -3.08089,-0.23971 -3.08089,-0.23971l-0.27799,-1.3524c0,0 4.4132,-0.8195 5.11124,0.40367c0.84686,1.48394 0.57886,6.22508 -0.61179,7.2227z"/><path d="M23.15277,264.22984c-0.67422,0 -2.10186,-0.08407 -2.10186,-0.08407l0.32572,-1.75514c0,0 1.10152,0.2102 1.77614,0.2102c0.7054,0 2.04233,-0.25223 2.04233,-0.25223l0.36645,1.79719c0,0 -1.60301,0.08407 -2.40877,0.08407z"/><path d="M30.03477,257.34806c0,0 -0.56318,3.79882 0.08112,5.11507c0.5415,1.10622 3.39093,0.25552 3.39093,0.25552l0.30596,1.44159c0,0 -4.8573,0.87356 -5.62561,-0.4303c-0.93209,-1.58182 -0.63712,-6.63561 0.67335,-7.69906c1.53826,-1.2483 1.17426,1.31718 1.17426,1.31718z"/><path d="M34.6775,256.56831l0.05895,6.33756l0.76568,0.31782l-0.34378,1.35877c0,0 -1.07204,-0.23011 -1.3203,-0.40687c-0.40866,-0.29095 -0.92438,-1.23216 -0.92438,-1.23216c0,0 -0.28333,-6.31761 0.44902,-6.85039c0.62647,-0.45575 1.31479,0.47527 1.31479,0.47527z"/></g><g fill="#a17654"><path d="M48.78624,256.51257v10.18566h-1.88439v-10.18566z"/><path d="M52.92322,256.87699c1.16818,0.92438 1.43112,5.31739 0.60024,6.69237c-0.68488,1.13337 -5.01477,0.37404 -5.01477,0.37404l0.27274,-1.25309c0,0 2.54003,0.73947 3.02273,-0.22211c0.57435,-1.14415 0.07232,-4.44626 0.07232,-4.44626c0,0 -0.3245,-2.23002 1.04674,-1.14494z"/><path d="M49.98971,256.44492c0.79054,0 2.3633,0.0779 2.3633,0.0779l-0.35952,1.66523c0,0 -1.3117,-0.23372 -2.00378,-0.23372c-0.66188,0 -1.74261,0.19476 -1.74261,0.19476l-0.31957,-1.62627c0,0 1.40069,-0.0779 2.06218,-0.0779z"/><path d="M35.80644,264.15176v-7.96262h1.83753v7.96262z"/><path d="M40.78307,264.15176c0,0 0.25165,-5.04664 -0.30841,-6.19079c-0.4707,-0.96158 -2.8307,-0.22211 -2.8307,-0.22211l-0.38282,-1.25309c0,0 4.2222,-0.75934 4.89005,0.37404c0.81022,1.37498 0.16315,7.29197 0.16315,7.29197z"/><path d="M44.69446,264.15176c0,0 0.25165,-5.04664 -0.30841,-6.19079c-0.4707,-0.96158 -2.8307,-0.22211 -2.8307,-0.22211l-0.38282,-1.25309c0,0 4.2222,-0.75934 4.89005,0.37404c0.81022,1.37498 0.16315,7.29197 0.16315,7.29197z"/></g></g><text transform="translate(94,249.50234) scale(0.34583,0.34583)" font-size="40" xml:space="preserve" fill="#ffffff" fill-rule="nonzero" stroke="none" stroke-width="1" stroke-linecap="butt" stroke-linejoin="miter" stroke-miterlimit="10" stroke-dasharray="" stroke-dashoffset="0" font-family="Sans Serif" font-weight="normal" text-anchor="start" style="mix-blend-mode: normal"><tspan x="0" dy="0">把指定地毯上的数加1或减1，然后放回地毯和你的手里。</tspan></text><g fill="#ffffff" stroke="none" stroke-width="0" stroke-linecap="round"><path d="M61.06577,1.89257l-3.74939,31.46964h-4.96271l3.65674,-27.82568z"/><path d="M45.33589,11.77438l3.00786,-5.93226l4.32174,-2.79356l-2.98319,8.41957l-0.25753,4.737l15.83453,-0.85665l-0.82093,4.50922l-20.69764,0.57452z"/></g></g></g></svg>