<svg version="1.1" xmlns="http://www.w3.org/2000/svg" xmlns:xlink="http://www.w3.org/1999/xlink" width="43.97141" height="9.99708" viewBox="0,0,43.97141,9.99708"><g transform="translate(-239.63424,-174.87265)"><g data-paper-data="{&quot;isPaintingLayer&quot;:true}" fill-rule="nonzero" stroke-linecap="butt" stroke-linejoin="miter" stroke-miterlimit="10" stroke-dasharray="" stroke-dashoffset="0" style="mix-blend-mode: normal"><path d="M239.63426,183.99162c0,-1.13153 0,-7.02884 0,-8.59416c0,-0.24315 0.25203,-0.38176 0.60833,-0.38176c2.34756,0 26.82731,0 31.17695,0c0.42611,0 0.65901,0.1878 0.65901,0.41727c0,0.94034 0,7.25176 0,8.87827c0,0.24329 -0.1778,0.38176 -0.50694,0.38176c-3.91435,0 -29.23286,0 -31.43043,0c-0.30015,0 -0.50694,-0.33594 -0.50694,-0.70139z" fill-opacity="0.82353" fill="#000000" stroke="none" stroke-width="0"/><text transform="translate(241.49386,181.61562) scale(0.14247,0.14247)" font-size="40" xml:space="preserve" fill="#d6d6d6" fill-rule="nonzero" stroke="#d6d6d6" stroke-width="2" stroke-linecap="butt" stroke-linejoin="miter" stroke-miterlimit="10" stroke-dasharray="" stroke-dashoffset="0" font-family="Sans Serif" font-weight="normal" text-anchor="start" style="mix-blend-mode: normal"><tspan x="0" dy="0">反转字符串</tspan></text><path d="M273.68645,183.83683c0.03964,-1.13082 0.24619,-7.02453 0.30103,-8.5889c0.00851,-0.24299 0.08809,-0.37891 0.19373,-0.3752c0.69598,0.0244 7.95345,0.27876 9.24299,0.32397c0.12632,0.00444 0.18881,0.19452 0.18076,0.42386c-0.03293,0.93976 -0.25402,7.24731 -0.311,8.87284c-0.00854,0.24314 -0.06607,0.37968 -0.16367,0.37627c-1.16046,-0.04068 -8.66662,-0.30377 -9.31813,-0.32659c-0.08899,-0.00312 -0.13853,-0.34099 -0.12574,-0.70622z" fill-opacity="0.82353" fill="#b0963f" stroke="none" stroke-width="0"/><text transform="translate(275.55841,181.74109) rotate(2.00716) scale(0.14247,0.14247)" font-size="40" xml:space="preserve" fill="#fffc78" fill-rule="nonzero" stroke="#fffc78" stroke-width="2" stroke-linecap="butt" stroke-linejoin="miter" stroke-miterlimit="10" stroke-dasharray="" stroke-dashoffset="0" font-family="Sans Serif" font-weight="normal" text-anchor="start" style="mix-blend-mode: normal"><tspan x="0" dy="0">SS</tspan></text></g></g></svg>