<svg version="1.1" xmlns="http://www.w3.org/2000/svg" xmlns:xlink="http://www.w3.org/1999/xlink" width="27.3279" height="27.25" viewBox="0,0,27.3279,27.25"><g transform="translate(-226.33605,-166.375)"><g data-paper-data="{&quot;isPaintingLayer&quot;:true}" fill-rule="nonzero" stroke-linecap="butt" stroke-linejoin="miter" stroke-miterlimit="10" stroke-dasharray="" stroke-dashoffset="0" style="mix-blend-mode: normal"><path d="M226.33605,191.65c0,-3.18624 0,-19.79228 0,-24.2c0,-0.68466 0.21228,-1.075 0.5124,-1.075c1.97736,0 22.5967,0 26.2604,0c0.35891,0 0.5551,0.52883 0.5551,1.175c0,2.64788 0,20.41996 0,25c0,0.68508 -0.14976,1.075 -0.427,1.075c-3.29706,0 -24.62289,0 -26.4739,0c-0.25281,0 -0.427,-0.94598 -0.427,-1.975z" fill="#8ac916" stroke="none" stroke-width="0"/><path d="M238.34028,185.50694l0.38889,-9.9125l-1.20139,0.01667l2.58333,-5.83333l2.58333,5.83333l-1.07639,-0.02361l0.07639,9.85694z" fill="#344c08" stroke="none" stroke-width="0"/><path d="M248.99728,179.38399c0,3.22308 0,6.73295 0,8.12382c0,0.39333 -0.10122,0.61719 -0.28861,0.61719c-2.22846,0 -16.64246,0 -17.89354,0c-0.17087,0 -0.28861,-0.54312 -0.28861,-1.13391c0,-1.01297 0,-4.38842 0,-7.62903" fill="none" stroke="#344c08" stroke-width="2.5"/></g></g></svg>