<svg version="1.1" xmlns="http://www.w3.org/2000/svg" xmlns:xlink="http://www.w3.org/1999/xlink" width="43.61358" height="9.89811" viewBox="0,0,43.61358,9.89811"><g transform="translate(-239.93427,-174.28371)"><g data-paper-data="{&quot;isPaintingLayer&quot;:true}" fill-rule="nonzero" stroke-linecap="butt" stroke-linejoin="miter" stroke-miterlimit="10" stroke-dasharray="" stroke-dashoffset="0" style="mix-blend-mode: normal"><path d="M239.93429,183.47497c0,-1.13153 0,-7.02884 0,-8.59416c0,-0.24315 0.25203,-0.38176 0.60833,-0.38176c2.34756,0 26.82731,0 31.17695,0c0.42611,0 0.65901,0.1878 0.65901,0.41727c0,0.94034 0,7.25176 0,8.87827c0,0.24329 -0.1778,0.38176 -0.50694,0.38176c-3.91435,0 -29.23286,0 -31.43043,0c-0.30015,0 -0.50694,-0.33594 -0.50694,-0.70139z" fill-opacity="0.82353" fill="#000000" stroke="none" stroke-width="0"/><text transform="translate(241.79387,181.09898) scale(0.14247,0.14247)" font-size="40" xml:space="preserve" fill="#d6d6d6" fill-rule="nonzero" stroke="#d6d6d6" stroke-width="2" stroke-linecap="butt" stroke-linejoin="miter" stroke-miterlimit="10" stroke-dasharray="" stroke-dashoffset="0" font-family="Sans Serif" font-weight="normal" text-anchor="start" style="mix-blend-mode: normal"><tspan x="0" dy="0">加运算走廊</tspan></text><path d="M273.91787,183.48423c-0.02726,-1.13119 -0.16935,-7.0268 -0.20706,-8.59167c-0.00586,-0.24308 0.06554,-0.38345 0.17122,-0.38599c0.69621,-0.01678 7.95603,-0.19174 9.24597,-0.22282c0.12637,-0.00304 0.19997,0.18303 0.20549,0.41244c0.02265,0.94007 0.17471,7.24965 0.21389,8.8757c0.00585,0.24322 -0.04352,0.38292 -0.14115,0.38528c-1.16084,0.02797 -8.66942,0.20892 -9.32115,0.22464c-0.08902,0.00215 -0.15844,-0.33222 -0.16725,-0.69757z" fill-opacity="0.82353" fill="#939470" stroke="none" stroke-width="0"/><text transform="translate(276.72952,181.20756) rotate(-1.37953) scale(0.14247,0.14247)" font-size="40" xml:space="preserve" fill="#dadca7" fill-rule="nonzero" stroke="#d5d7a3" stroke-width="2" stroke-linecap="butt" stroke-linejoin="miter" stroke-miterlimit="10" stroke-dasharray="" stroke-dashoffset="0" font-family="Sans Serif" font-weight="normal" text-anchor="start" style="mix-blend-mode: normal"><tspan x="0" dy="0">B</tspan></text></g></g></svg>