<svg version="1.1" xmlns="http://www.w3.org/2000/svg" xmlns:xlink="http://www.w3.org/1999/xlink" width="59.32946" height="79.65436" viewBox="0,0,59.32946,79.65436"><g transform="translate(-294.45463,-237.18956)"><g data-paper-data="{&quot;isPaintingLayer&quot;:true}" fill-rule="nonzero" stroke-linejoin="miter" stroke-miterlimit="10" stroke-dasharray="" stroke-dashoffset="0" style="mix-blend-mode: normal"><path d="M303.57774,241.37034l45.47769,3.92748l-4.49747,68.8603l-45.47769,-3.92748z" fill="#f9ef98" stroke="none" stroke-width="0" stroke-linecap="butt"/><path d="M340.73326,242.00192l5.19813,-2.54565l7.8527,11.61456l-5.19813,2.54565z" fill-opacity="0.29804" fill="#fafafa" stroke="none" stroke-width="0" stroke-linecap="butt"/><path d="M310.68724,237.18956l3.51543,4.4457l-12.38161,7.20233l-3.51542,-4.44571z" fill-opacity="0.29804" fill="#fafafa" stroke="none" stroke-width="0" stroke-linecap="butt"/><path d="M294.45463,305.85832l3.65725,-4.09073l12.12213,8.41498l-3.65726,4.09073z" fill-opacity="0.29804" fill="#fafafa" stroke="none" stroke-width="0" stroke-linecap="butt"/><path d="M335.61109,316.84392l-2.90931,-4.75334l13.32826,-5.8469l2.90931,4.75333z" fill-opacity="0.29804" fill="#fafafa" stroke="none" stroke-width="0" stroke-linecap="butt"/><g fill="none" stroke="#898353" stroke-width="1"><path d="M310.73965,270.14249c0.1391,-0.9232 1.00027,-1.55881 1.92347,-1.41971c0.9232,0.1391 1.55882,1.00026 1.41972,1.92346c-0.1391,0.9232 -1.00027,1.55883 -1.92347,1.41972c-0.9232,-0.1391 -1.55882,-1.00027 -1.41972,-1.92347z" stroke-linecap="butt"/><path d="M314.68424,267.54196l0.53492,-0.28804" stroke-linecap="round"/><path d="M315.03978,270.48323l0.42958,0.00329" stroke-linecap="round"/><path d="M314.62338,273.24674l0.73492,1.64675" stroke-linecap="round"/><path d="M311.59817,273.34388l-0.09052,0.60076" stroke-linecap="round"/><path d="M308.91199,269.55991l0.54974,0.02139" stroke-linecap="round"/><path d="M311.81291,266.61779l-0.09875,-0.56784" stroke-linecap="round"/></g><g fill="none" stroke="#898353" stroke-width="1"><path d="M308.87566,285.16267c0.1391,-0.9232 1.00027,-1.55881 1.92347,-1.41971c0.9232,0.1391 1.55882,1.00027 1.41972,1.92346c-0.1391,0.9232 -1.00027,1.55882 -1.92346,1.41972c-0.9232,-0.1391 -1.55883,-1.00027 -1.41972,-1.92347z" stroke-linecap="butt"/><path d="M312.82025,282.56214l0.53493,-0.28803" stroke-linecap="round"/><path d="M313.1758,285.50341l0.42958,0.0033" stroke-linecap="round"/><path d="M312.75939,288.26693l0.73492,1.64675" stroke-linecap="round"/><path d="M309.73418,288.36406l-0.09052,0.60077" stroke-linecap="round"/><path d="M307.048,284.58009l0.54974,0.02139" stroke-linecap="round"/><path d="M309.94893,281.63797l-0.09876,-0.56784" stroke-linecap="round"/></g><text transform="translate(318.06941,274.17615) rotate(2.47973) scale(0.22928,0.22928)" font-size="40" xml:space="preserve" fill="#898353" fill-rule="nonzero" stroke="#898353" stroke-width="3" stroke-linecap="butt" stroke-linejoin="miter" stroke-miterlimit="10" stroke-dasharray="" stroke-dashoffset="0" font-family="Sans Serif" font-weight="normal" text-anchor="start" style="mix-blend-mode: normal"><tspan x="0" dy="0">体积！</tspan></text><text transform="translate(316.39924,290.67459) rotate(5.04028) scale(0.22928,0.22928)" font-size="40" xml:space="preserve" fill="#898353" fill-rule="nonzero" stroke="#898353" stroke-width="3" stroke-linecap="butt" stroke-linejoin="miter" stroke-miterlimit="10" stroke-dasharray="" stroke-dashoffset="0" font-family="Sans Serif" font-weight="normal" text-anchor="start" style="mix-blend-mode: normal"><tspan x="0" dy="0">速度！</tspan></text></g></g></svg>