<svg version="1.1" xmlns="http://www.w3.org/2000/svg" xmlns:xlink="http://www.w3.org/1999/xlink" width="487.98799" height="373.87387" viewBox="0,0,487.98799,373.87387"><g transform="translate(3.99399,6.9369)"><g data-paper-data="{&quot;isPaintingLayer&quot;:true}" fill-rule="nonzero" stroke-linejoin="miter" stroke-miterlimit="10" stroke-dasharray="" stroke-dashoffset="0" style="mix-blend-mode: normal"><path d="M-3.99399,366.93697v-373.87387h487.98799v373.87387z" fill-opacity="0.70196" fill="#000000" stroke="none" stroke-width="0" stroke-linecap="butt"/><text transform="translate(4.00601,27.66367) scale(0.67335,0.67335)" font-size="40" xml:space="preserve" fill="#ffffff" fill-rule="nonzero" stroke="#ffffff" stroke-width="3" stroke-linecap="butt" stroke-linejoin="miter" stroke-miterlimit="10" stroke-dasharray="" stroke-dashoffset="0" font-family="Sans Serif" font-weight="normal" text-anchor="start" style="mix-blend-mode: normal"><tspan x="0" dy="0">第     年</tspan></text><text transform="translate(98.63065,28.89191) scale(0.5,0.5)" font-size="40" xml:space="preserve" fill="#ffffff" fill-rule="nonzero" stroke="none" stroke-width="1" stroke-linecap="butt" stroke-linejoin="miter" stroke-miterlimit="10" stroke-dasharray="" stroke-dashoffset="0" font-family="Sans Serif" font-weight="normal" text-anchor="start" style="mix-blend-mode: normal"><tspan x="0" dy="0">三倍扩大器</tspan></text><text transform="translate(2.29732,54.87026) scale(0.34348,0.34348)" font-size="40" xml:space="preserve" fill="#ffffff" fill-rule="nonzero" stroke="#ffffff" stroke-width="1" stroke-linecap="butt" stroke-linejoin="miter" stroke-miterlimit="10" stroke-dasharray="" stroke-dashoffset="0" font-family="Sans Serif" font-weight="normal" text-anchor="start" style="mix-blend-mode: normal"><tspan x="0" dy="0">你是谁？</tspan><tspan x="0" dy="48px">这可是只开放给那些有更高追求员工的特别楼层。</tspan><tspan x="0" dy="48px">就是你吗？太好了，不过……</tspan><tspan x="0" dy="48px">你来的太晚了！</tspan><tspan x="0" dy="48px">我等你整整七年。你现在必须做出改变！</tspan><tspan x="0" dy="48px">我要看到你在这里把工作效率提升一倍！</tspan><tspan x="0" dy="48px">现在开始我会严格审查你的每一项表现！</tspan><tspan x="0" dy="48px">把每个输入项扩大三倍后输出到OUTBOX(输出栏)。</tspan></text><path d="M51.35821,0.38602l-10.63252,30.01761l6.96948,1.22007l4.70631,-5.98614l-8.91726,-5.19561l1.79355,-3.70285l13.77084,4.70145l-4.03789,13.29299l-8.24645,3.25888c0,0 -9.41955,-3.00161 -9.75584,-3.07673c-0.6361,-0.14213 -0.7237,-5.5042 -0.7237,-5.5042l9.64929,-26.00615z" fill="#ffffff" stroke="none" stroke-width="0" stroke-linecap="round"/></g></g></svg>