<svg version="1.1" xmlns="http://www.w3.org/2000/svg" xmlns:xlink="http://www.w3.org/1999/xlink" width="43.46019" height="10.34852" viewBox="0,0,43.46019,10.34852"><g transform="translate(-240.08765,-175.42629)"><g data-paper-data="{&quot;isPaintingLayer&quot;:true}" fill-rule="nonzero" stroke-linecap="butt" stroke-linejoin="miter" stroke-miterlimit="10" stroke-dasharray="" stroke-dashoffset="0" style="mix-blend-mode: normal"><path d="M240.08781,184.39064c0.01943,-1.13136 0.12067,-7.0278 0.14754,-8.59289c0.00417,-0.24311 0.25855,-0.37738 0.61479,-0.37126c2.34721,0.0403 26.82336,0.46055 31.17236,0.53522c0.42605,0.00732 0.65569,0.19909 0.65175,0.42852c-0.01614,0.9402 -0.12449,7.25069 -0.15241,8.87696c-0.00418,0.24325 -0.18433,0.37865 -0.51342,0.373c-3.91377,-0.0672 -29.22855,-0.50184 -31.4258,-0.53957c-0.30011,-0.00515 -0.5011,-0.34459 -0.49482,-0.70999z" fill-opacity="0.82353" fill="#000000" stroke="none" stroke-width="0"/><text transform="translate(241.98789,182.04693) rotate(0.98332) scale(0.14247,0.14247)" font-size="40" xml:space="preserve" fill="#d6d6d6" fill-rule="nonzero" stroke="#d6d6d6" stroke-width="2" stroke-linecap="butt" stroke-linejoin="miter" stroke-miterlimit="10" stroke-dasharray="" stroke-dashoffset="0" font-family="Sans Serif" font-weight="normal" text-anchor="start" style="mix-blend-mode: normal"><tspan x="0" dy="0">零保护行动</tspan></text><path d="M273.91787,185.07723c-0.02726,-1.13119 -0.16935,-7.0268 -0.20706,-8.59167c-0.00586,-0.24308 0.06554,-0.38345 0.17122,-0.38599c0.69621,-0.01678 7.95603,-0.19174 9.24597,-0.22282c0.12637,-0.00304 0.19997,0.18303 0.20549,0.41244c0.02265,0.94007 0.17471,7.24965 0.21389,8.8757c0.00585,0.24322 -0.04352,0.38292 -0.14115,0.38528c-1.16084,0.02797 -8.66942,0.20892 -9.32115,0.22464c-0.08902,0.00215 -0.15844,-0.33222 -0.16725,-0.69757z" fill-opacity="0.82353" fill="#939470" stroke="none" stroke-width="0"/><text transform="translate(276.72952,182.80056) rotate(-1.37953) scale(0.14247,0.14247)" font-size="40" xml:space="preserve" fill="#dadca7" fill-rule="nonzero" stroke="#d5d7a3" stroke-width="2" stroke-linecap="butt" stroke-linejoin="miter" stroke-miterlimit="10" stroke-dasharray="" stroke-dashoffset="0" font-family="Sans Serif" font-weight="normal" text-anchor="start" style="mix-blend-mode: normal"><tspan x="0" dy="0">B</tspan></text></g></g></svg>