<svg version="1.1" xmlns="http://www.w3.org/2000/svg" xmlns:xlink="http://www.w3.org/1999/xlink" width="64" height="27.25" viewBox="0,0,64,27.25"><g transform="translate(-208,-166.375)"><g data-paper-data="{&quot;isPaintingLayer&quot;:true}" fill-rule="nonzero" stroke="none" stroke-width="0" stroke-linecap="butt" stroke-linejoin="miter" stroke-miterlimit="10" stroke-dasharray="" stroke-dashoffset="0" style="mix-blend-mode: normal"><path d="M208,191.65c0,-3.18624 0,-19.79228 0,-24.2c0,-0.68466 0.49716,-1.075 1.2,-1.075c4.63084,0 52.91987,0 61.5,0c0.84054,0 1.3,0.52883 1.3,1.175c0,2.64788 0,20.41996 0,25c0,0.68508 -0.35074,1.075 -1,1.075c-7.72148,0 -57.66507,0 -62,0c-0.59207,0 -1,-0.94598 -1,-1.975z" fill="#8ac916"/><path d="M208.5,181.65v-5.5h5.3v5.5z" fill="#344c08"/><path d="M213.6,186.55v-14.8l3.8,7.5z" fill="#344c08"/><path d="M219.8,185.65v-10.3h2.4v10.3z" fill="#344c08"/><path d="M224.4,185.75v-10.4h2.4v10.4z" fill="#344c08"/><path d="M230.9,185.75c0,0 0.32868,-6.59143 -0.40282,-8.08581c-0.61478,-1.25592 -3.69718,-0.2901 -3.69718,-0.2901l-0.5,-1.63667c0,0 5.51463,-0.99177 6.38691,0.48853c1.05823,1.79587 0.21309,9.52406 0.21309,9.52406z" fill="#344c08"/><path d="M234.74269,185.67866v-13.30352h2.4v13.30352z" fill="#344c08"/><path d="M241.07848,183.70727c0,0 0.63939,-4.3129 -0.09211,-5.80728c-0.61478,-1.25592 -3.84981,-0.2901 -3.84981,-0.2901l-0.34737,-1.63667c0,0 5.51463,-0.99177 6.38691,0.48853c1.05823,1.79587 0.72334,7.53359 -0.76447,8.74093c-1.74644,1.41723 -1.33315,-1.49541 -1.33315,-1.49541z" fill="#344c08"/><path d="M236.04901,185.66526l0.40701,-2.12409c0,0 1.37643,0.25438 2.21942,0.25438c0.88145,0 2.55205,-0.30526 2.55205,-0.30526l0.45789,2.17496c0,0 -2.00309,0.10175 -3.00994,0.10175c-0.84249,0 -2.62643,-0.10175 -2.62643,-0.10175z" fill="#344c08"/><path d="M250.53197,183.42521c0,0 0.63939,-4.3129 -0.09211,-5.80728c-0.61478,-1.25592 -3.84981,-0.2901 -3.84981,-0.2901l-0.34737,-1.63667c0,0 5.51463,-0.99177 6.38691,0.48853c1.05823,1.79587 0.72334,7.53359 -0.76447,8.74093c-1.74644,1.41723 -1.33315,-1.49541 -1.33315,-1.49541z" fill="#344c08"/><path d="M247.53572,177.48601c0,0 -0.63939,4.3129 0.09211,5.80728c0.61478,1.25592 3.84981,0.2901 3.84981,0.2901l0.34737,1.63667c0,0 -5.51463,0.99177 -6.38691,-0.48853c-1.05823,-1.79587 -0.72334,-7.53359 0.76446,-8.74094c1.74644,-1.41723 1.33316,1.49541 1.33316,1.49541z" fill="#344c08"/><path d="M253.20218,185.18598l5.31538,-9.56173l3.04346,0.14351l-5.72966,9.6653z" fill="#344c08"/><path d="M261.82711,185.21464l-5.48563,-9.56173l-3.14094,0.14352l5.91318,9.6653z" fill="#344c08"/></g></g></svg>