<svg version="1.1" xmlns="http://www.w3.org/2000/svg" xmlns:xlink="http://www.w3.org/1999/xlink" width="11.34655" height="17.11425" viewBox="0,0,11.34655,17.11425"><g transform="translate(-234.32672,-171.44287)"><g data-paper-data="{&quot;isPaintingLayer&quot;:true}" fill="#426b7f" fill-rule="nonzero" stroke="none" stroke-width="0" stroke-linejoin="miter" stroke-miterlimit="10" stroke-dasharray="" stroke-dashoffset="0" style="mix-blend-mode: normal"><path d="M240.1436,171.44289c1.69766,0 5.07513,0.31016 5.07513,0.31016l-0.62919,2.71892c0,0 -2.81684,-0.2162 -4.30308,-0.2162c-1.42139,0 -3.88508,0.84681 -3.88508,0.84681l-0.68626,-2.63526c0,0 3.00795,-1.02444 4.4285,-1.02444z" stroke-linecap="butt"/><path d="M238.05864,171.58945l-0.49927,16.83335l-3.23264,-0.2261c0,0 0.75145,-4.21611 0.76698,-6.28163c0.02204,-2.93109 -0.19276,-10.09022 -0.19276,-10.09022z" stroke-linecap="round"/><path d="M241.2448,188.55712c-1.69766,0 -5.07513,-0.31016 -5.07513,-0.31016l0.62919,-2.71892c0,0 2.81684,0.2162 4.30308,0.2162c1.42139,0 3.88508,-0.84681 3.88508,-0.84681l0.68626,2.63526c0,0 -3.00795,1.02444 -4.4285,1.02444z" stroke-linecap="butt"/><path d="M237.77996,177.98835c1.69766,0 5.07513,0.31016 5.07513,0.31016l-0.62919,2.71892c0,0 -2.81684,-0.2162 -4.30308,-0.2162c-1.42139,0 -1.56339,-2.81289 -0.14284,-2.81289z" stroke-linecap="butt"/></g></g></svg>