<svg version="1.1" xmlns="http://www.w3.org/2000/svg" xmlns:xlink="http://www.w3.org/1999/xlink" width="487.98799" height="373.87387" viewBox="0,0,487.98799,373.87387"><g transform="translate(3.994,6.9369)"><g data-paper-data="{&quot;isPaintingLayer&quot;:true}" fill-rule="nonzero" stroke-linejoin="miter" stroke-miterlimit="10" stroke-dasharray="" stroke-dashoffset="0" style="mix-blend-mode: normal"><path d="M-3.994,366.93697v-373.87387h487.98799v373.87387z" fill-opacity="0.70196" fill="#000000" stroke="none" stroke-width="0" stroke-linecap="butt"/><text transform="translate(4.00601,27.66368) scale(0.67335,0.67335)" font-size="40" xml:space="preserve" fill="#ffffff" fill-rule="nonzero" stroke="#ffffff" stroke-width="3" stroke-linecap="butt" stroke-linejoin="miter" stroke-miterlimit="10" stroke-dasharray="" stroke-dashoffset="0" font-family="Sans Serif" font-weight="normal" text-anchor="start" style="mix-blend-mode: normal"><tspan x="0" dy="0">第     年</tspan></text><text transform="translate(98.63065,28.89191) scale(0.5,0.5)" font-size="40" xml:space="preserve" fill="#ffffff" fill-rule="nonzero" stroke="none" stroke-width="1" stroke-linecap="butt" stroke-linejoin="miter" stroke-miterlimit="10" stroke-dasharray="" stroke-dashoffset="0" font-family="Sans Serif" font-weight="normal" text-anchor="start" style="mix-blend-mode: normal"><tspan x="0" dy="0">最小的数字</tspan></text><text transform="translate(2.29732,54.87027) scale(0.34348,0.34348)" font-size="40" xml:space="preserve" fill="#ffffff" fill-rule="nonzero" stroke="#ffffff" stroke-width="1" stroke-linecap="butt" stroke-linejoin="miter" stroke-miterlimit="10" stroke-dasharray="" stroke-dashoffset="0" font-family="Sans Serif" font-weight="normal" text-anchor="start" style="mix-blend-mode: normal"><tspan x="0" dy="0">为了响应“低碳生活”，高层已经决定从现在开始只要最小的数字！</tspan><tspan x="0" dy="48px">这是一场公开演习。而且结果会直接拉去销毁。</tspan><tspan x="0" dy="48px"> </tspan><tspan x="0" dy="48px">把INBOX(输入栏)中的每个零结尾字符串里最小数送到OUTBOX(输出栏)里。</tspan><tspan x="0" dy="48px">你不会得到空串。</tspan><tspan x="0" dy="48px">”零结尾字符串“是什么？要不你再玩玩16关？</tspan></text><path d="M43.48479,3.4124l-3.84643,29.70801h-4.56765l3.36563,-24.5316l-5.52926,1.12531l1.44241,-4.27616l4.12294,-2.15793z" fill="#ffffff" stroke="none" stroke-width="0" stroke-linecap="round"/><path d="M50.38096,35.32966l-6.35421,-2.50617l-2.4817,-3.93162l9.06678,-11.69009l5.18163,-7.0592l-2.78739,-4.13676l0.8847,-4.76082l8.90304,6.05066l-5.90603,11.54493l-9.50742,9.46997l8.47464,1.12319l1.63525,-4.3832l-7.95033,-5.47174l-4.23802,-7.84435l0.66096,-7.86906l8.17189,-2.6104l0.74081,4.98391l-4.98821,1.83909l2.07202,7.0112l10.48773,10.59871l-0.64029,2.50385l-1.59077,4.89495l-4.45068,2.43979z" fill="#ffffff" stroke="none" stroke-width="0" stroke-linecap="round"/></g></g></svg>