<svg version="1.1" xmlns="http://www.w3.org/2000/svg" xmlns:xlink="http://www.w3.org/1999/xlink" width="490.18304" height="373.87387" viewBox="0,0,490.18304,373.87387"><g transform="translate(3.99399,6.93693)"><g data-paper-data="{&quot;isPaintingLayer&quot;:true}" fill-rule="nonzero" stroke-linejoin="miter" stroke-miterlimit="10" stroke-dasharray="" stroke-dashoffset="0" style="mix-blend-mode: normal"><path d="M-3.99399,366.93694v-373.87387h487.98799v373.87387z" fill-opacity="0.70196" fill="#000000" stroke="none" stroke-width="0" stroke-linecap="butt"/><path d="M22.00602,228.68337v-4.5h72v4.5z" fill="#47680b" stroke="none" stroke-width="0" stroke-linecap="butt"/><g stroke="none" stroke-width="0" stroke-linecap="butt"><path d="M35.34386,123.1335c0,-3.18624 0,-19.79228 0,-24.2c0,-0.68466 0.49716,-1.075 1.2,-1.075c4.63084,0 52.91987,0 61.5,0c0.84054,0 1.3,0.52883 1.3,1.175c0,2.64788 0,20.41996 0,25c0,0.68508 -0.35074,1.075 -1,1.075c-7.72148,0 -57.66507,0 -62,0c-0.59207,0 -1,-0.94598 -1,-1.975z" fill="#8ac916"/><path d="M35.84386,113.13351v-5.5h5.3v5.5z" fill="#344c08"/><path d="M40.94386,118.03351v-14.8l3.8,7.5z" fill="#344c08"/><path d="M47.14386,117.13351v-10.3h2.4v10.3z" fill="#344c08"/><path d="M51.74387,117.23351v-10.4h2.4v10.4z" fill="#344c08"/><path d="M58.24387,117.23351c0,0 0.32868,-6.59143 -0.40282,-8.08581c-0.61478,-1.25592 -3.69718,-0.2901 -3.69718,-0.2901l-0.5,-1.63667c0,0 5.51463,-0.99177 6.38691,0.48853c1.05823,1.79587 0.21309,9.52406 0.21309,9.52406z" fill="#344c08"/><path d="M62.08655,117.16217v-13.30352h2.4v13.30352z" fill="#344c08"/><path d="M68.42234,115.19078c0,0 0.63939,-4.3129 -0.09211,-5.80728c-0.61478,-1.25592 -3.84981,-0.2901 -3.84981,-0.2901l-0.34737,-1.63667c0,0 5.51463,-0.99177 6.38691,0.48853c1.05823,1.79587 0.72334,7.53359 -0.76447,8.74093c-1.74644,1.41723 -1.33315,-1.49541 -1.33315,-1.49541z" fill="#344c08"/><path d="M63.39287,117.14877l0.40701,-2.12409c0,0 1.37643,0.25438 2.21942,0.25438c0.88145,0 2.55205,-0.30526 2.55205,-0.30526l0.45789,2.17496c0,0 -2.00309,0.10175 -3.00994,0.10175c-0.84249,0 -2.62643,-0.10175 -2.62643,-0.10175z" fill="#344c08"/><path d="M77.87583,114.90872c0,0 0.63939,-4.3129 -0.09211,-5.80728c-0.61478,-1.25592 -3.84981,-0.2901 -3.84981,-0.2901l-0.34737,-1.63667c0,0 5.51463,-0.99177 6.38691,0.48853c1.05823,1.79587 0.72334,7.53359 -0.76447,8.74093c-1.74644,1.41723 -1.33315,-1.49541 -1.33315,-1.49541z" fill="#344c08"/><path d="M74.87958,108.96952c0,0 -0.63939,4.3129 0.09211,5.80728c0.61478,1.25592 3.84981,0.2901 3.84981,0.2901l0.34737,1.63667c0,0 -5.51463,0.99177 -6.38691,-0.48853c-1.05823,-1.79587 -0.72334,-7.53359 0.76446,-8.74094c1.74644,-1.41723 1.33316,1.49541 1.33316,1.49541z" fill="#344c08"/><path d="M80.54604,116.66949l5.31538,-9.56173l3.04346,0.14351l-5.72966,9.6653z" fill="#344c08"/><path d="M86.45759,116.94524l-5.91318,-9.6653l3.14094,-0.14352l5.48563,9.56173z" fill="#344c08"/></g><text transform="translate(4.00601,27.66365) scale(0.67335,0.67335)" font-size="40" xml:space="preserve" fill="#ffffff" fill-rule="nonzero" stroke="#ffffff" stroke-width="3" stroke-linecap="butt" stroke-linejoin="miter" stroke-miterlimit="10" stroke-dasharray="" stroke-dashoffset="0" font-family="Sans Serif" font-weight="normal" text-anchor="start" style="mix-blend-mode: normal"><tspan x="0" dy="0">第     年</tspan></text><path d="M53.23479,3.41239l-3.84643,29.70801h-4.56765l3.36563,-24.5316l-5.52926,1.12531l1.44241,-4.27616l4.12294,-2.15793z" fill="#ffffff" stroke="none" stroke-width="0" stroke-linecap="round"/><text transform="translate(98.63065,28.89191) scale(0.5,0.5)" font-size="40" xml:space="preserve" fill="#ffffff" fill-rule="nonzero" stroke="none" stroke-width="1" stroke-linecap="butt" stroke-linejoin="miter" stroke-miterlimit="10" stroke-dasharray="" stroke-dashoffset="0" font-family="Sans Serif" font-weight="normal" text-anchor="start" style="mix-blend-mode: normal"><tspan x="0" dy="0">收发室</tspan></text><text transform="translate(102.63065,115.6161) scale(0.32167,0.32167)" font-size="40" xml:space="preserve" fill="#ffffff" fill-rule="nonzero" stroke="none" stroke-width="1" stroke-linecap="butt" stroke-linejoin="miter" stroke-miterlimit="10" stroke-dasharray="" stroke-dashoffset="0" font-family="Sans Serif" font-weight="normal" text-anchor="start" style="mix-blend-mode: normal"><tspan x="0" dy="0">用于取走输入栏（左侧）的内容</tspan></text><g stroke="none" stroke-width="0" stroke-linecap="butt"><path d="M27.00002,167.65004c0,-3.18624 0,-19.79228 0,-24.2c0,-0.68466 0.56103,-1.075 1.35418,-1.075c5.22581,0 59.719,0 69.4015,0c0.94853,0 1.46702,0.52883 1.46702,1.175c0,2.64788 0,20.41996 0,25c0,0.68508 -0.3958,1.075 -1.12848,1.075c-8.71353,0 -65.07386,0 -69.96574,0c-0.66814,0 -1.12848,-0.94598 -1.12848,-1.975z" fill="#8ac916"/><path d="M89.90603,158.75561v-5.5h4.3v5.5z" fill="#344c08"/><path d="M93.90603,163.24445v-14.8l3.8,7.5z" fill="#344c08"/><path d="M59.40108,161.6787v-13.30352h2.4v13.30352z" fill="#344c08"/><path d="M65.73686,159.70729c0,0 0.63939,-4.3129 -0.09211,-5.80728c-0.61478,-1.25592 -3.84981,-0.2901 -3.84981,-0.2901l-0.34737,-1.63667c0,0 5.51463,-0.99177 6.38691,0.48853c1.05823,1.79587 0.72334,7.53359 -0.76447,8.74093c-1.74644,1.41723 -1.33315,-1.49541 -1.33315,-1.49541z" fill="#344c08"/><path d="M60.7074,161.66529l0.40701,-2.12408c0,0 1.37643,0.25438 2.21942,0.25438c0.88145,0 2.55205,-0.30526 2.55205,-0.30526l0.45789,2.17496c0,0 -2.00309,0.10175 -3.00994,0.10175c-0.84249,0 -2.62643,-0.10175 -2.62643,-0.10175z" fill="#344c08"/><path d="M75.19034,159.42523c0,0 0.63939,-4.3129 -0.09211,-5.80728c-0.61478,-1.25592 -3.84981,-0.2901 -3.84981,-0.2901l-0.34737,-1.63667c0,0 5.51463,-0.99177 6.38691,0.48853c1.05823,1.79587 0.72334,7.53359 -0.76447,8.74093c-1.74645,1.41723 -1.33316,-1.49541 -1.33316,-1.49541z" fill="#344c08"/><path d="M72.1941,153.48603c0,0 -0.63939,4.3129 0.09211,5.80728c0.61478,1.25592 3.84981,0.2901 3.84981,0.2901l0.34737,1.63667c0,0 -5.51463,0.99177 -6.38691,-0.48853c-1.05823,-1.79587 -0.72334,-7.53359 0.76447,-8.74093c1.74644,-1.41723 1.33316,1.49541 1.33316,1.49541z" fill="#344c08"/><path d="M77.86056,161.18603l5.31538,-9.56173l3.04346,0.14352l-5.72966,9.6653z" fill="#344c08"/><path d="M83.77209,161.46177l-5.91318,-9.6653l3.14094,-0.14352l5.48564,9.56173z" fill="#344c08"/><path d="M38.02053,159.43526c0,0 0.63939,-4.3129 -0.09211,-5.80728c-0.61478,-1.25592 -3.84981,-0.2901 -3.84981,-0.2901l-0.34737,-1.63667c0,0 5.51463,-0.99177 6.38691,0.48853c1.05823,1.79587 0.72334,7.53359 -0.76447,8.74094c-1.74644,1.41723 -1.33316,-1.49542 -1.33316,-1.49542z" fill="#344c08"/><path d="M35.02429,153.49606c0,0 -0.63939,4.3129 0.09211,5.80728c0.61478,1.25592 3.84981,0.2901 3.84981,0.2901l0.34737,1.63667c0,0 -5.51463,0.99177 -6.38691,-0.48853c-1.05823,-1.79587 -0.72334,-7.53359 0.76447,-8.74094c1.74644,-1.41723 1.33316,1.49542 1.33316,1.49542z" fill="#344c08"/><path d="M50.56685,151.30515v10.4h-2.4v-10.4z" fill="#344c08"/><path d="M44.06685,151.30515c0,0 -0.32868,6.59143 0.40282,8.08581c0.61478,1.25592 3.69718,0.2901 3.69718,0.2901l0.5,1.63667c0,0 -5.51463,0.99177 -6.38691,-0.48853c-1.05823,-1.79587 -0.21309,-9.52406 -0.21309,-9.52406z" fill="#344c08"/><path d="M53.65699,161.46293v-13.30352h2.4v13.30352z" fill="#344c08"/><path d="M50.91563,154.15085l0.57902,-2.12409c0,0 1.95815,0.25438 3.15741,0.25438c1.25398,0 3.63062,-0.30526 3.63062,-0.30526l0.65141,2.17496c0,0 -2.61179,-0.20896 -4.04417,-0.20896c-1.19855,0 -3.9743,0.20896 -3.9743,0.20896z" fill="#344c08"/></g><text transform="translate(102.63066,158.61611) scale(0.32167,0.32167)" font-size="40" xml:space="preserve" fill="#ffffff" fill-rule="nonzero" stroke="none" stroke-width="1" stroke-linecap="butt" stroke-linejoin="miter" stroke-miterlimit="10" stroke-dasharray="" stroke-dashoffset="0" font-family="Sans Serif" font-weight="normal" text-anchor="start" style="mix-blend-mode: normal"><tspan x="0" dy="0">用于将手上的项目放入输出栏（右侧）</tspan></text><text transform="translate(397.71475,18.22225) scale(0.5,0.5)" font-size="40" xml:space="preserve" fill="#ffffff" fill-rule="nonzero" stroke="none" stroke-width="1" stroke-linecap="butt" stroke-linejoin="miter" stroke-miterlimit="10" stroke-dasharray="" stroke-dashoffset="0" font-family="Sans Serif" font-weight="normal" text-anchor="start" style="mix-blend-mode: normal"><tspan x="0" dy="0">单击退出</tspan></text><text transform="translate(4.80183,51.37176) scale(0.34348,0.34348)" font-size="40" xml:space="preserve" fill="#ffffff" fill-rule="nonzero" stroke="#ffffff" stroke-width="1" stroke-linecap="butt" stroke-linejoin="miter" stroke-miterlimit="10" stroke-dasharray="" stroke-dashoffset="0" font-family="Sans Serif" font-weight="normal" text-anchor="start" style="mix-blend-mode: normal"><tspan x="0" dy="0">你需要将左边INBOX(输入栏)的三个数字依次移到OUTBOX(输出栏)中。</tspan><tspan x="0" dy="48px">拖动模块栏(       )到程序栏(&lt;/&gt;)。使用拖动到外部删除程序栏的一个积木。</tspan><tspan x="0" dy="48px">程序栏理论上是无限大的，使用滚轮操作。运行程序时会有高亮提示程序进度。</tspan></text><text transform="translate(142.80184,190.87178) scale(0.34348,0.34348)" font-size="40" xml:space="preserve" fill="#ffffff" fill-rule="nonzero" stroke="#ffffff" stroke-width="1" stroke-linecap="butt" stroke-linejoin="miter" stroke-miterlimit="10" stroke-dasharray="" stroke-dashoffset="0" font-family="Sans Serif" font-weight="normal" text-anchor="start" style="mix-blend-mode: normal"><tspan x="0" dy="0">另外我要隆重介绍下面的小可爱</tspan></text><path d="M37.46107,238.48336c0,-3.18624 0,-19.79228 0,-24.2c0,-0.68466 0.05498,-1.075 0.13271,-1.075c0.51213,0 5.85252,0 6.80142,0c0.09296,0 0.14377,0.52883 0.14377,1.175c0,2.64788 0,20.41996 0,25c0,0.68508 -0.03879,1.075 -0.11059,1.075c-0.85394,0 -6.3773,0 -6.85671,0c-0.06548,0 -0.11059,-0.94598 -0.11059,-1.975z" fill="#8ac916" stroke="none" stroke-width="0" stroke-linecap="butt"/><text transform="translate(99.30185,231.87179) scale(0.34348,0.34348)" font-size="40" xml:space="preserve" fill="#ffffff" fill-rule="nonzero" stroke="#ffffff" stroke-width="1" stroke-linecap="butt" stroke-linejoin="miter" stroke-miterlimit="10" stroke-dasharray="" stroke-dashoffset="0" font-family="Sans Serif" font-weight="normal" text-anchor="start" style="mix-blend-mode: normal"><tspan x="0" dy="0">这东西只是决定你卖力的程度。拖到最左面是最快速度的。</tspan></text><path d="M36.50274,287.31669c0,-3.18624 0,-19.79228 0,-24.2c0,-0.68466 0.21228,-1.075 0.5124,-1.075c1.97736,0 22.5967,0 26.2604,0c0.35891,0 0.5551,0.52883 0.5551,1.175c0,2.64788 0,20.41996 0,25c0,0.68508 -0.14976,1.075 -0.427,1.075c-3.29706,0 -24.62289,0 -26.4739,0c-0.25281,0 -0.427,-0.94598 -0.427,-1.975z" fill="#8ac916" stroke="none" stroke-width="0" stroke-linecap="butt"/><path d="M41.83335,284.00002v-9.83333l7.83333,-5.83333l7.83333,5.83333v9.83333z" fill="#344c08" stroke="none" stroke-width="0" stroke-linecap="butt"/><text transform="translate(3.63519,303.20511) scale(0.34348,0.34348)" font-size="40" xml:space="preserve" fill="#ffffff" fill-rule="nonzero" stroke="#ffffff" stroke-width="1" stroke-linecap="butt" stroke-linejoin="miter" stroke-miterlimit="10" stroke-dasharray="" stroke-dashoffset="0" font-family="Sans Serif" font-weight="normal" text-anchor="start" style="mix-blend-mode: normal"><tspan x="0" dy="0">回到主页。天哪</tspan><tspan x="0" dy="48px">，你难道不想要</tspan><tspan x="0" dy="48px">   工资了吗？</tspan></text><path d="M168.33608,290.65001c0,-3.18624 0,-19.79228 0,-24.2c0,-0.68466 0.21228,-1.075 0.5124,-1.075c1.97736,0 22.5967,0 26.2604,0c0.35891,0 0.5551,0.52883 0.5551,1.175c0,2.64788 0,20.41996 0,25c0,0.68508 -0.14976,1.075 -0.427,1.075c-3.29706,0 -24.62289,0 -26.4739,0c-0.25281,0 -0.427,-0.94598 -0.427,-1.975z" fill="#ff6666" stroke="none" stroke-width="0" stroke-linecap="butt"/><path d="M175.0218,284.94971c0,-1.62722 0,-10.10798 0,-12.35902c0,-0.34966 0.10841,-0.54901 0.26168,-0.54901c1.00984,0 11.54021,0 13.41127,0c0.1833,0 0.28349,0.27008 0.28349,0.60008c0,1.35228 0,10.42854 0,12.76758c0,0.34987 -0.07648,0.54901 -0.21807,0.54901c-1.68382,0 -12.57499,0 -13.52031,0c-0.12911,0 -0.21807,-0.48312 -0.21807,-1.00864z" fill="#8c0f0f" stroke="none" stroke-width="0" stroke-linecap="butt"/><path d="M157.83605,288.15003c0,-3.18624 0,-19.79228 0,-24.2c0,-0.68466 0.21228,-1.075 0.5124,-1.075c1.97736,0 22.5967,0 26.2604,0c0.35891,0 0.5551,0.52883 0.5551,1.175c0,2.64788 0,20.41996 0,25c0,0.68508 -0.14976,1.075 -0.427,1.075c-3.29706,0 -24.62289,0 -26.4739,0c-0.25281,0 -0.427,-0.94598 -0.427,-1.975z" fill="#8ac916" stroke="none" stroke-width="0" stroke-linecap="butt"/><path d="M166.32295,283.6271c0,-2.72868 0,-12.90067 0,-14.5c0,-0.41417 0.24106,-0.61456 0.53675,-0.43577c1.22018,0.73778 9.46405,5.72245 11.63022,7.03223c0.33138,0.20037 0.42334,0.27192 0.03843,0.52256c-2.32723,1.51541 -10.72775,7.09162 -11.80384,7.79232c-0.22672,0.14763 -0.40157,0.01662 -0.40157,-0.41133z" fill="#344c08" stroke="none" stroke-width="0" stroke-linecap="butt"/><text transform="translate(136.63519,314.20511) scale(0.34348,0.34348)" font-size="40" xml:space="preserve" fill="#ffffff" fill-rule="nonzero" stroke="#ffffff" stroke-width="1" stroke-linecap="butt" stroke-linejoin="miter" stroke-miterlimit="10" stroke-dasharray="" stroke-dashoffset="0" font-family="Sans Serif" font-weight="normal" text-anchor="start" style="mix-blend-mode: normal"><tspan x="0" dy="0">开始 / 结束。</tspan><tspan x="0" dy="48px">业绩考核99。</tspan></text><path d="M284.33607,288.15001c0,-3.18624 0,-19.79228 0,-24.2c0,-0.68466 0.21228,-1.075 0.5124,-1.075c1.97736,0 22.5967,0 26.2604,0c0.35891,0 0.5551,0.52883 0.5551,1.175c0,2.64788 0,20.41996 0,25c0,0.68508 -0.14976,1.075 -0.427,1.075c-3.29706,0 -24.62289,0 -26.4739,0c-0.25281,0 -0.427,-0.94598 -0.427,-1.975z" fill="#8ac916" stroke="none" stroke-width="0" stroke-linecap="butt"/><path d="M301.87334,267.33327l1.80808,2.92707l-0.86084,3.66275l-3.50347,5.09285l-2.5121,-0.125l2.76053,-4.84803l0.67785,-2.49366l-1.56105,-0.72108l-1.99756,0.56708l-1.64019,1.90697l-2.749,-1.15495l2.80299,-3.31035l3.60658,-1.59303z" fill="#344c08" stroke="none" stroke-width="0" stroke-linecap="round"/><path d="M296.68752,284.08751v-3h2.625v3z" fill="#344c08" stroke="none" stroke-width="0" stroke-linecap="butt"/><text transform="translate(249.13519,305.70511) scale(0.34348,0.34348)" font-size="40" xml:space="preserve" fill="#ffffff" fill-rule="nonzero" stroke="#ffffff" stroke-width="1" stroke-linecap="butt" stroke-linejoin="miter" stroke-miterlimit="10" stroke-dasharray="" stroke-dashoffset="0" font-family="Sans Serif" font-weight="normal" text-anchor="start" style="mix-blend-mode: normal"><tspan x="0" dy="0">对那一关的帮助。</tspan><tspan x="0" dy="48px">你想想你刚才怎么</tspan><tspan x="0" dy="48px">       进来的？</tspan></text><text transform="translate(376.6487,306.70511) scale(0.34348,0.34348)" font-size="40" xml:space="preserve" fill="#ffffff" fill-rule="nonzero" stroke="#ffffff" stroke-width="1" stroke-linecap="butt" stroke-linejoin="miter" stroke-miterlimit="10" stroke-dasharray="" stroke-dashoffset="0" font-family="Sans Serif" font-weight="normal" text-anchor="start" style="mix-blend-mode: normal"><tspan x="0" dy="0">上传/保存。</tspan><tspan x="0" dy="48px">相当于存档</tspan><tspan x="0" dy="48px">       码！</tspan></text><path d="M80.34386,68.45677c0,-1.46211 0,-9.08234 0,-11.10496c0,-0.31418 0.15443,-0.4933 0.37275,-0.4933c1.43847,0 16.43841,0 19.10365,0c0.2611,0 0.40382,0.24267 0.40382,0.53919c0,1.21507 0,9.37037 0,11.47207c0,0.31437 -0.10895,0.4933 -0.31063,0.4933c-2.39851,0 -17.91241,0 -19.25896,0c-0.18391,0 -0.31063,-0.43409 -0.31063,-0.90629z" fill-opacity="0.07451" fill="#ffffff" stroke="#ffffff" stroke-width="1.5" stroke-linecap="butt"/><g stroke-linecap="butt"><path d="M394.33605,287.65c0,-3.18624 0,-19.79228 0,-24.2c0,-0.68466 0.21228,-1.075 0.5124,-1.075c1.97736,0 22.5967,0 26.2604,0c0.35891,0 0.5551,0.52883 0.5551,1.175c0,2.64788 0,20.41996 0,25c0,0.68508 -0.14976,1.075 -0.427,1.075c-3.29706,0 -24.62289,0 -26.4739,0c-0.25281,0 -0.427,-0.94598 -0.427,-1.975z" fill="#8ac916" stroke="none" stroke-width="0"/><path d="M406.34028,281.50694l0.38889,-9.9125l-1.20139,0.01667l2.58333,-5.83333l2.58333,5.83333l-1.07639,-0.02361l0.07639,9.85694z" fill="#344c08" stroke="none" stroke-width="0"/><path d="M416.99728,275.38399c0,3.22308 0,6.73295 0,8.12382c0,0.39333 -0.10122,0.61719 -0.28861,0.61719c-2.22846,0 -16.64246,0 -17.89354,0c-0.17087,0 -0.28861,-0.54312 -0.28861,-1.13391c0,-1.01297 0,-4.38842 0,-7.62903" fill="none" stroke="#344c08" stroke-width="2.5"/></g></g></g></svg>