<svg version="1.1" xmlns="http://www.w3.org/2000/svg" xmlns:xlink="http://www.w3.org/1999/xlink" width="31.94818" height="10.26677" viewBox="0,0,31.94818,10.26677"><g transform="translate(-240.37648,-174.8547)"><g data-paper-data="{&quot;isPaintingLayer&quot;:true}" fill-rule="nonzero" stroke-linecap="butt" stroke-linejoin="miter" stroke-miterlimit="10" stroke-dasharray="" stroke-dashoffset="0" style="mix-blend-mode: normal"><path d="M240.37649,184.13727c0,-1.13153 0,-7.02884 0,-8.59416c0,-0.24315 0.16399,-0.38176 0.39583,-0.38176c1.52752,0 17.45609,0 20.28633,0c0.27726,0 0.42881,0.1878 0.42881,0.41727c0,0.94034 0,7.25176 0,8.87827c0,0.24329 -0.11569,0.38176 -0.32986,0.38176c-2.547,0 -19.02134,0 -20.45126,0c-0.1953,0 -0.32986,-0.33594 -0.32986,-0.70139z" fill-opacity="0.82353" fill="#000000" stroke="none" stroke-width="0"/><path d="M262.69661,184.43142c-0.0744,-1.12908 -0.46213,-7.01363 -0.56505,-8.57556c-0.01599,-0.24262 0.0495,-0.38585 0.15497,-0.3928c0.6949,-0.04579 7.94112,-0.52325 9.22865,-0.60808c0.12613,-0.00831 0.20742,0.17454 0.22251,0.40351c0.06183,0.93831 0.47679,7.23607 0.58373,8.85906c0.016,0.24276 -0.02753,0.3844 -0.12496,0.39082c-1.15868,0.07635 -8.65318,0.57016 -9.30368,0.61303c-0.08885,0.00585 -0.17215,-0.32533 -0.19618,-0.68998z" fill-opacity="0.82353" fill="#943900" stroke="none" stroke-width="0"/><text transform="translate(242.23606,181.7613) scale(0.14247,0.14247)" font-size="40" xml:space="preserve" fill="#d6d6d6" fill-rule="nonzero" stroke="#d6d6d6" stroke-width="2" stroke-linecap="butt" stroke-linejoin="miter" stroke-miterlimit="10" stroke-dasharray="" stroke-dashoffset="0" font-family="Sans Serif" font-weight="normal" text-anchor="start" style="mix-blend-mode: normal"><tspan x="0" dy="0">收发室</tspan></text><text transform="translate(265.4109,182.0395) rotate(-3.76981) scale(0.14247,0.14247)" font-size="40" xml:space="preserve" fill="#e08f45" fill-rule="nonzero" stroke="#e08f45" stroke-width="2" stroke-linecap="butt" stroke-linejoin="miter" stroke-miterlimit="10" stroke-dasharray="" stroke-dashoffset="0" font-family="Sans Serif" font-weight="normal" text-anchor="start" style="mix-blend-mode: normal"><tspan x="0" dy="0">C</tspan></text></g></g></svg>