<svg version="1.1" xmlns="http://www.w3.org/2000/svg" xmlns:xlink="http://www.w3.org/1999/xlink" width="43.99487" height="10.65543" viewBox="0,0,43.99487,10.65543"><g transform="translate(-239.92708,-174.12934)"><g data-paper-data="{&quot;isPaintingLayer&quot;:true}" fill-rule="nonzero" stroke-linecap="butt" stroke-linejoin="miter" stroke-miterlimit="10" stroke-dasharray="" stroke-dashoffset="0" style="mix-blend-mode: normal"><path d="M240.10852,184.09416c-0.02388,-1.13128 -0.14833,-7.02727 -0.18136,-8.59225c-0.00513,-0.2431 0.24392,-0.38699 0.60014,-0.39451c2.34704,-0.04954 26.82134,-0.56613 31.17001,-0.65792c0.42602,-0.00899 0.66283,0.17385 0.66767,0.40327c0.01984,0.94013 0.15303,7.25015 0.18736,8.87629c0.00513,0.24324 -0.1697,0.38543 -0.49877,0.39237c-3.91348,0.0826 -29.22635,0.61689 -31.42343,0.66327c-0.30008,0.00633 -0.51392,-0.32517 -0.52163,-0.69054z" fill-opacity="0.82353" fill="#000000" stroke="none" stroke-width="0"/><text transform="translate(241.91757,181.67947) rotate(-1.20857) scale(0.14247,0.14247)" font-size="40" xml:space="preserve" fill="#d6d6d6" fill-rule="nonzero" stroke="#d6d6d6" stroke-width="2" stroke-linecap="butt" stroke-linejoin="miter" stroke-miterlimit="10" stroke-dasharray="" stroke-dashoffset="0" font-family="Sans Serif" font-weight="normal" text-anchor="start" style="mix-blend-mode: normal"><tspan x="0" dy="0">零扑灭行动</tspan></text><path d="M274.29197,183.32985c-0.02726,-1.1312 -0.16935,-7.0268 -0.20706,-8.59167c-0.00586,-0.24308 0.06554,-0.38345 0.17121,-0.38599c0.69621,-0.01678 7.95603,-0.19174 9.24597,-0.22282c0.12637,-0.00305 0.19997,0.18303 0.20549,0.41244c0.02265,0.94007 0.17471,7.24965 0.2139,8.8757c0.00586,0.24322 -0.04353,0.38292 -0.14115,0.38528c-1.16085,0.02797 -8.66942,0.20893 -9.32115,0.22464c-0.08901,0.00214 -0.15844,-0.33222 -0.16725,-0.69757z" fill-opacity="0.82353" fill="#943900" stroke="none" stroke-width="0"/><text transform="translate(277.10362,181.05318) rotate(-1.37953) scale(0.14247,0.14247)" font-size="40" xml:space="preserve" fill="#e08f45" fill-rule="nonzero" stroke="#e08f45" stroke-width="2" stroke-linecap="butt" stroke-linejoin="miter" stroke-miterlimit="10" stroke-dasharray="" stroke-dashoffset="0" font-family="Sans Serif" font-weight="normal" text-anchor="start" style="mix-blend-mode: normal"><tspan x="0" dy="0">C</tspan></text></g></g></svg>