<svg version="1.1" xmlns="http://www.w3.org/2000/svg" xmlns:xlink="http://www.w3.org/1999/xlink" width="487.98799" height="373.87387" viewBox="0,0,487.98799,373.87387"><g transform="translate(3.994,6.9369)"><g data-paper-data="{&quot;isPaintingLayer&quot;:true}" fill-rule="nonzero" stroke-linejoin="miter" stroke-miterlimit="10" stroke-dasharray="" stroke-dashoffset="0" style="mix-blend-mode: normal"><path d="M-3.994,366.93697v-373.87387h487.98799v373.87387z" fill-opacity="0.70196" fill="#000000" stroke="none" stroke-width="0" stroke-linecap="butt"/><text transform="translate(4.00601,27.66368) scale(0.67335,0.67335)" font-size="40" xml:space="preserve" fill="#ffffff" fill-rule="nonzero" stroke="#ffffff" stroke-width="3" stroke-linecap="butt" stroke-linejoin="miter" stroke-miterlimit="10" stroke-dasharray="" stroke-dashoffset="0" font-family="Sans Serif" font-weight="normal" text-anchor="start" style="mix-blend-mode: normal"><tspan x="0" dy="0">第     年</tspan></text><text transform="translate(98.63065,28.89191) scale(0.5,0.5)" font-size="40" xml:space="preserve" fill="#ffffff" fill-rule="nonzero" stroke="none" stroke-width="1" stroke-linecap="butt" stroke-linejoin="miter" stroke-miterlimit="10" stroke-dasharray="" stroke-dashoffset="0" font-family="Sans Serif" font-weight="normal" text-anchor="start" style="mix-blend-mode: normal"><tspan x="0" dy="0">模运算</tspan></text><text transform="translate(2.29732,54.87027) scale(0.34348,0.34348)" font-size="40" xml:space="preserve" fill="#ffffff" fill-rule="nonzero" stroke="#ffffff" stroke-width="1" stroke-linecap="butt" stroke-linejoin="miter" stroke-miterlimit="10" stroke-dasharray="" stroke-dashoffset="0" font-family="Sans Serif" font-weight="normal" text-anchor="start" style="mix-blend-mode: normal"><tspan x="0" dy="0">你一天能有多少时间用于工作？</tspan><tspan x="0" dy="48px">太少了！</tspan><tspan x="0" dy="48px">总会余下几个小时不工作，令人悲哀。</tspan><tspan x="0" dy="48px">还好我们还有这些自愿的夜班来塞下更多时间用于工作！</tspan><tspan x="0" dy="48px"> </tspan><tspan x="0" dy="48px">对于INBOX(输入栏)中的每两个数，将第一个除以第二个得到的余数送到OUTB</tspan><tspan x="0" dy="48px">OX(输出栏)里。</tspan><tspan x="0" dy="48px">别担心，其实你并不需要做除法。现在也暂时先不必担心负数。</tspan></text><path d="M43.48479,3.4124l-3.84643,29.70801h-4.56765l3.36563,-24.5316l-5.52926,1.12531l1.44241,-4.27616l4.12294,-2.15793z" fill="#ffffff" stroke="none" stroke-width="0" stroke-linecap="round"/><path d="M49.35539,35.99246l9.41725,-26.58667l-6.17288,-1.08062l-4.16838,5.30193l7.89803,4.60177l-1.58855,3.27962l-10.32187,-4.78908l3.36803,-10.9403l5.63723,-3.09473c0,0 8.34292,2.65853 8.64077,2.72507c0.5634,0.12588 0.64098,4.87508 0.64098,4.87508l-6.6714,23.45037z" fill="#ffffff" stroke="none" stroke-width="0" stroke-linecap="round"/></g></g></svg>