<svg version="1.1" xmlns="http://www.w3.org/2000/svg" xmlns:xlink="http://www.w3.org/1999/xlink" width="32.3279" height="32.23575" viewBox="0,0,32.3279,32.23575"><g transform="translate(-223.83605,-163.88213)"><g data-paper-data="{&quot;isPaintingLayer&quot;:true}" fill-rule="nonzero" stroke="none" stroke-width="0" stroke-linecap="butt" stroke-linejoin="miter" stroke-miterlimit="10" stroke-dasharray="" stroke-dashoffset="0" style="mix-blend-mode: normal"><path d="M223.83605,193.78152c0,-3.7692 0,-23.41354 0,-28.62771c0,-0.80993 0.25112,-1.27169 0.60615,-1.27169c2.33914,0 26.73106,0 31.06509,0c0.42458,0 0.65666,0.62559 0.65666,1.38998c0,3.13234 0,24.15606 0,29.57408c0,0.81042 -0.17716,1.27169 -0.50513,1.27169c-3.9003,0 -29.12797,0 -31.31765,0c-0.29906,0 -0.50513,-1.11906 -0.50513,-2.33635z" fill="#8ac916"/><path d="M233.8757,188.43107c0,-3.22793 0,-15.26102 0,-17.15297c0,-0.48995 0.28517,-0.727 0.63496,-0.5155c1.44343,0.87277 11.19562,6.76945 13.75812,8.31887c0.39201,0.23703 0.5008,0.32167 0.04546,0.61817c-2.75303,1.79267 -12.69053,8.38913 -13.96351,9.21803c-0.2682,0.17464 -0.47504,0.01966 -0.47504,-0.48659z" fill="#344c08"/></g></g></svg>