<svg version="1.1" xmlns="http://www.w3.org/2000/svg" xmlns:xlink="http://www.w3.org/1999/xlink" width="487.98799" height="373.87387" viewBox="0,0,487.98799,373.87387"><g transform="translate(3.994,6.93693)"><g data-paper-data="{&quot;isPaintingLayer&quot;:true}" fill-rule="nonzero" stroke-linejoin="miter" stroke-miterlimit="10" stroke-dasharray="" stroke-dashoffset="0" style="mix-blend-mode: normal"><path d="M-3.994,366.93695v-373.87387h487.98799v373.87387z" fill-opacity="0.70196" fill="#000000" stroke="none" stroke-width="0" stroke-linecap="butt"/><text transform="translate(4.00601,27.66368) scale(0.67335,0.67335)" font-size="40" xml:space="preserve" fill="#ffffff" fill-rule="nonzero" stroke="#ffffff" stroke-width="3" stroke-linecap="butt" stroke-linejoin="miter" stroke-miterlimit="10" stroke-dasharray="" stroke-dashoffset="0" font-family="Sans Serif" font-weight="normal" text-anchor="start" style="mix-blend-mode: normal"><tspan x="0" dy="0">第     年</tspan></text><text transform="translate(98.63065,28.89191) scale(0.5,0.5)" font-size="40" xml:space="preserve" fill="#ffffff" fill-rule="nonzero" stroke="none" stroke-width="1" stroke-linecap="butt" stroke-linejoin="miter" stroke-miterlimit="10" stroke-dasharray="" stroke-dashoffset="0" font-family="Sans Serif" font-weight="normal" text-anchor="start" style="mix-blend-mode: normal"><tspan x="0" dy="0">绝对正能量</tspan></text><text transform="translate(2.29732,54.87027) scale(0.34348,0.34348)" font-size="40" xml:space="preserve" fill="#ffffff" fill-rule="nonzero" stroke="#ffffff" stroke-width="1" stroke-linecap="butt" stroke-linejoin="miter" stroke-miterlimit="10" stroke-dasharray="" stroke-dashoffset="0" font-family="Sans Serif" font-weight="normal" text-anchor="start" style="mix-blend-mode: normal"><tspan x="0" dy="0">听好了。</tspan><tspan x="0" dy="48px">积极端正的工作态度能够创造最大的生产力！</tspan><tspan x="0" dy="48px">所以每个人都必须给我做到这一点。注意保持微笑。</tspan><tspan x="0" dy="48px">领导们都看着你呢。</tspan><tspan x="0" dy="48px">把INBOX(输入栏)的每个东西都送进OUTBOX(输出栏)。</tspan><tspan x="0" dy="48px">但是！如果是负数，请先去掉它的负号。</tspan></text><path d="M43.48479,3.4124l-3.84643,29.70801h-4.56765l3.36563,-24.5316l-5.52926,1.12531l1.44241,-4.27616l4.12294,-2.15793z" fill="#ffffff" stroke="none" stroke-width="0" stroke-linecap="round"/><g stroke-linecap="butt"><path d="M29.47812,207.11672c0,-3.18624 0,-19.79228 0,-24.2c0,-0.68466 0.39815,-1.075 0.96101,-1.075c3.70857,0 42.38041,0 49.25173,0c0.67314,0 1.04109,0.52883 1.04109,1.175c0,2.64788 0,20.41996 0,25c0,0.68508 -0.28088,1.075 -0.80084,1.075c-6.18368,0 -46.18056,0 -49.65215,0c-0.47416,0 -0.80084,-0.94598 -0.80084,-1.975z" fill="#69a9c9" stroke="none" stroke-width="0"/><path d="M68.92946,194.00425v13.30352h-2.46121v-13.30352z" fill="#426b7f" stroke="none" stroke-width="0"/><path d="M74.33279,194.48021c1.52576,1.20734 1.86919,6.94506 0.78397,8.74093c-0.89452,1.4803 -6.54981,0.48853 -6.54981,0.48853l0.35623,-1.63667c0,0 3.31754,0.96582 3.948,-0.2901c0.75016,-1.49438 0.09446,-5.80728 0.09446,-5.80728c0,0 -0.42383,-2.91264 1.36715,-1.49541z" fill="#426b7f" stroke="none" stroke-width="0"/><path d="M70.50131,193.91588c1.03253,0 3.08671,0.10175 3.08671,0.10175l-0.46957,2.17496c0,0 -1.71321,-0.30526 -2.61714,-0.30526c-0.86449,0 -2.27603,0.25438 -2.27603,0.25438l-0.41739,-2.12408c0,0 1.82944,-0.10175 2.69342,-0.10175z" fill="#426b7f" stroke="none" stroke-width="0"/><path d="M38.61275,199.41151c0,0 -0.09871,-5.47632 0.26586,-5.97638c0.13707,-0.18802 1.80897,0.06287 1.80897,0.06287c0,0 0.44471,1.1691 0.41259,1.80453c0.19349,2.15805 0.76319,9.63191 -0.41907,11.40219c-0.97452,1.45921 -6.87195,0.33701 -6.87195,0.33701l0.41475,-1.62798c0,0 3.44981,1.04223 4.14206,-0.19877c0.82368,-1.47663 0.2468,-5.80347 0.2468,-5.80347z" fill="#426b7f" stroke="none" stroke-width="0"/><path d="M50.83771,193.54025v10.4h-2.4v-10.4z" fill="#426b7f" stroke="none" stroke-width="0"/><path d="M44.3377,193.54025c0,0 -0.32868,6.59143 0.40282,8.08581c0.61478,1.25592 3.69718,0.2901 3.69718,0.2901l0.5,1.63667c0,0 -5.51463,0.99177 -6.38691,-0.48853c-1.05823,-1.79587 -0.21309,-9.52406 -0.21309,-9.52406z" fill="#426b7f" stroke="none" stroke-width="0"/><path d="M51.9765,203.9818v-10.4h2.4v10.4z" fill="#426b7f" stroke="none" stroke-width="0"/><path d="M58.4765,203.9818c0,0 0.32868,-6.59143 -0.40282,-8.08581c-0.61478,-1.25592 -3.69718,-0.2901 -3.69718,-0.2901l-0.5,-1.63667c0,0 5.51463,-0.99177 6.38691,0.48853c1.05823,1.79587 0.21309,9.52406 0.21309,9.52406z" fill="#426b7f" stroke="none" stroke-width="0"/><path d="M63.58517,203.9818c0,0 0.32868,-6.59143 -0.40282,-8.08581c-0.61478,-1.25592 -3.69718,-0.2901 -3.69718,-0.2901l-0.5,-1.63667c0,0 5.51463,-0.99177 6.38691,0.48853c1.05823,1.79587 0.21309,9.52406 0.21309,9.52406z" fill="#426b7f" stroke="none" stroke-width="0"/><text transform="translate(42.36382,190.49736) scale(0.24813,0.24813)" font-size="40" xml:space="preserve" fill="#426b7f" fill-rule="nonzero" stroke="#426b7f" stroke-width="1" stroke-linecap="butt" stroke-linejoin="miter" stroke-miterlimit="10" stroke-dasharray="" stroke-dashoffset="0" font-family="Sans Serif" font-weight="normal" text-anchor="start" style="mix-blend-mode: normal"><tspan x="0" dy="0">if &lt;0</tspan></text><path d="M82.83274,207.94325c0,-2.2827 0,-14.17968 0,-17.33748c0,-0.49051 0.15209,-0.77016 0.3671,-0.77016c1.41663,0 16.18872,0 18.81347,0c0.25713,0 0.39768,0.37887 0.39768,0.8418c0,1.89701 0,14.62937 0,17.91062c0,0.49081 -0.10729,0.77016 -0.3059,0.77016c-2.36208,0 -17.64034,0 -18.96644,0c-0.18112,0 -0.3059,-0.67773 -0.3059,-1.41494z" fill="#69a9c9" stroke="none" stroke-width="0"/></g><text transform="translate(105.88065,203.41613) scale(0.32167,0.32167)" font-size="40" xml:space="preserve" fill="#ffffff" fill-rule="nonzero" stroke="none" stroke-width="1" stroke-linecap="butt" stroke-linejoin="miter" stroke-miterlimit="10" stroke-dasharray="" stroke-dashoffset="0" font-family="Sans Serif" font-weight="normal" text-anchor="start" style="mix-blend-mode: normal"><tspan x="0" dy="0">负跳转：只有手上拿着负数时才能跳转。否则继续运行下一行。</tspan></text><path d="M57.58314,3.67087l2.79158,4.51924l-1.32909,5.65509l-6.56714,13.4599l9.47638,0.06267l-0.01518,4.94002l-16.62064,0.20814l8.70096,-18.48573l1.04656,-3.85008l-2.41018,-1.11331l-3.08413,0.87554l-2.53237,2.94426l-4.24431,-1.78318l4.32767,-5.11101l5.56837,-2.45956z" fill="#ffffff" stroke="none" stroke-width="0" stroke-linecap="round"/></g></g></svg>