<svg version="1.1" xmlns="http://www.w3.org/2000/svg" xmlns:xlink="http://www.w3.org/1999/xlink" width="72.93467" height="27.30963" viewBox="0,0,72.93467,27.30963"><g transform="translate(-208.14301,-166.23222)"><g data-paper-data="{&quot;isPaintingLayer&quot;:true}" fill-rule="nonzero" stroke="none" stroke-width="0" stroke-linecap="butt" stroke-linejoin="miter" stroke-miterlimit="10" stroke-dasharray="" stroke-dashoffset="0" style="mix-blend-mode: normal"><path d="M208.14301,191.50722c0,-3.18624 0,-19.79228 0,-24.2c0,-0.68466 0.39815,-1.075 0.96101,-1.075c3.70857,0 42.38041,0 49.25173,0c0.67314,0 1.04109,0.52883 1.04109,1.175c0,2.64788 0,20.41996 0,25c0,0.68508 -0.28088,1.075 -0.80084,1.075c-6.18368,0 -46.18056,0 -49.65215,0c-0.47416,0 -0.80084,-0.94598 -0.80084,-1.975z" fill="#e0a575"/><path d="M261.49942,192.12691c0,-2.2827 0,-14.17968 0,-17.33748c0,-0.49051 0.15209,-0.77016 0.3671,-0.77016c1.41662,0 16.18873,0 18.81348,0c0.25713,0 0.39768,0.37887 0.39768,0.8418c0,1.89701 0,14.62937 0,17.91062c0,0.49081 -0.10729,0.77016 -0.30591,0.77016c-2.36208,0 -17.64033,0 -18.96644,0c-0.18112,0 -0.30591,-0.67772 -0.30591,-1.41494z" fill="#e0a575"/><g fill="#a17654"><path d="M246.92856,178.44976c0,0 2.81869,0.29726 4.54497,0.29726c1.80507,0 5.22615,-0.35671 5.22615,-0.35671l-0.02686,2.93307c0,0 -2.79504,-0.63569 -4.8569,-0.63569c-1.72528,0 -4.99745,0.34206 -4.99745,0.34206z"/><path d="M253.16617,174.83057c0,0 -0.29726,2.8187 -0.29726,4.54498c0,1.80507 0.35671,5.22614 0.35671,5.22614l-2.93307,-0.02684c0,0 0.63569,-2.79504 0.63569,-4.85692c0,-1.72528 -0.34206,-4.99745 -0.34206,-4.99745z"/></g><g fill="#a17654"><path d="M211.00551,185.15684v-10.9928h1.92064v10.9928z"/><path d="M217.14279,184.76361c-1.39762,1.17106 -1.06688,-1.23568 -1.06688,-1.23568c0,0 0.51169,-3.56378 -0.07372,-4.7986c-0.492,-1.03778 -3.08089,-0.23971 -3.08089,-0.23971l-0.27799,-1.3524c0,0 4.4132,-0.8195 5.11124,0.40367c0.84686,1.48394 0.57886,6.22508 -0.61179,7.2227z"/><path d="M214.15277,185.22984c-0.67422,0 -2.10186,-0.08407 -2.10186,-0.08407l0.32572,-1.75514c0,0 1.10152,0.2102 1.77614,0.2102c0.7054,0 2.04233,-0.25223 2.04233,-0.25223l0.36645,1.79719c0,0 -1.60301,0.08407 -2.40877,0.08407z"/><path d="M221.03477,178.34806c0,0 -0.56318,3.79882 0.08112,5.11507c0.5415,1.10622 3.39093,0.25552 3.39093,0.25552l0.30596,1.44159c0,0 -4.8573,0.87356 -5.62561,-0.4303c-0.93209,-1.58182 -0.63712,-6.63561 0.67335,-7.69906c1.53826,-1.2483 1.17426,1.31718 1.17426,1.31718z"/><path d="M225.6775,177.56831l0.05895,6.33756l0.76568,0.31782l-0.34378,1.35877c0,0 -1.07204,-0.23011 -1.3203,-0.40687c-0.40866,-0.29095 -0.92438,-1.23216 -0.92438,-1.23216c0,0 -0.28333,-6.31761 0.44902,-6.85039c0.62647,-0.45575 1.31479,0.47527 1.31479,0.47527z"/></g><g fill="#a17654"><path d="M239.78624,177.51257v10.18566h-1.88439v-10.18566z"/><path d="M243.92322,177.87699c1.16818,0.92438 1.43112,5.31739 0.60024,6.69237c-0.68488,1.13337 -5.01477,0.37404 -5.01477,0.37404l0.27274,-1.25309c0,0 2.54003,0.73947 3.02273,-0.22211c0.57435,-1.14415 0.07232,-4.44626 0.07232,-4.44626c0,0 -0.3245,-2.23002 1.04674,-1.14494z"/><path d="M240.98971,177.44492c0.79054,0 2.3633,0.0779 2.3633,0.0779l-0.35952,1.66523c0,0 -1.3117,-0.23372 -2.00378,-0.23372c-0.66188,0 -1.74261,0.19476 -1.74261,0.19476l-0.31957,-1.62627c0,0 1.40069,-0.0779 2.06218,-0.0779z"/><path d="M226.80644,185.15176v-7.96262h1.83753v7.96262z"/><path d="M231.78307,185.15176c0,0 0.25165,-5.04664 -0.30841,-6.19079c-0.4707,-0.96158 -2.8307,-0.22211 -2.8307,-0.22211l-0.38282,-1.25309c0,0 4.2222,-0.75934 4.89005,0.37404c0.81022,1.37498 0.16315,7.29197 0.16315,7.29197z"/><path d="M235.69446,185.15176c0,0 0.25165,-5.04664 -0.30841,-6.19079c-0.4707,-0.96158 -2.8307,-0.22211 -2.8307,-0.22211l-0.38282,-1.25309c0,0 4.2222,-0.75934 4.89005,0.37404c0.81022,1.37498 0.16315,7.29197 0.16315,7.29197z"/></g></g></g></svg>