<svg version="1.1" xmlns="http://www.w3.org/2000/svg" xmlns:xlink="http://www.w3.org/1999/xlink" width="33.27794" height="9.96713" viewBox="0,0,33.27794,9.96713"><g transform="translate(-239.7914,-175.32444)"><g data-paper-data="{&quot;isPaintingLayer&quot;:true}" fill-rule="nonzero" stroke-linecap="butt" stroke-linejoin="miter" stroke-miterlimit="10" stroke-dasharray="" stroke-dashoffset="0" style="mix-blend-mode: normal"><path d="M239.79141,184.30036c0,-1.13153 0,-7.02884 0,-8.59416c0,-0.24315 0.16399,-0.38176 0.39583,-0.38176c1.52752,0 17.45609,0 20.28633,0c0.27726,0 0.42881,0.1878 0.42881,0.41727c0,0.94034 0,7.25176 0,8.87827c0,0.24329 -0.11569,0.38176 -0.32986,0.38176c-2.547,0 -19.02134,0 -20.45126,0c-0.1953,0 -0.32986,-0.33594 -0.32986,-0.70139z" fill-opacity="0.82353" fill="#000000" stroke="none" stroke-width="0"/><text transform="translate(241.651,181.92439) scale(0.14247,0.14247)" font-size="40" xml:space="preserve" fill="#d6d6d6" fill-rule="nonzero" stroke="#d6d6d6" stroke-width="2" stroke-linecap="butt" stroke-linejoin="miter" stroke-miterlimit="10" stroke-dasharray="" stroke-dashoffset="0" font-family="Sans Serif" font-weight="normal" text-anchor="start" style="mix-blend-mode: normal"><tspan x="0" dy="0">计时器</tspan></text><path d="M263.35968,184.49559c0.0113,-1.13146 0.07018,-7.02849 0.08582,-8.59374c0.00243,-0.24313 0.07857,-0.381 0.18427,-0.37993c0.69637,0.00696 7.95794,0.07947 9.2482,0.09236c0.1264,0.00127 0.19362,0.18973 0.19132,0.4192c-0.00939,0.94029 -0.07242,7.2514 -0.08868,8.87784c-0.00244,0.24328 -0.05654,0.38121 -0.15419,0.38025c-1.16111,-0.0116 -8.67151,-0.08661 -9.32339,-0.09311c-0.08904,-0.00089 -0.14703,-0.33741 -0.14339,-0.70285z" fill-opacity="0.82353" fill="#b06040" stroke="none" stroke-width="0"/><text transform="translate(266.24728,182.31605) rotate(0.57308) scale(0.14247,0.14247)" font-size="40" xml:space="preserve" fill="#ffa878" fill-rule="nonzero" stroke="#ffa878" stroke-width="2" stroke-linecap="butt" stroke-linejoin="miter" stroke-miterlimit="10" stroke-dasharray="" stroke-dashoffset="0" font-family="Sans Serif" font-weight="normal" text-anchor="start" style="mix-blend-mode: normal"><tspan x="0" dy="0">A</tspan></text></g></g></svg>