<svg version="1.1" xmlns="http://www.w3.org/2000/svg" xmlns:xlink="http://www.w3.org/1999/xlink" width="5.21182" height="19.12389" viewBox="0,0,5.21182,19.12389"><g transform="translate(-236.89409,-188.18806)"><g data-paper-data="{&quot;isPaintingLayer&quot;:true}" fill="#562d00" fill-rule="nonzero" stroke="none" stroke-width="0" stroke-linejoin="miter" stroke-miterlimit="10" stroke-dasharray="" stroke-dashoffset="0" style="mix-blend-mode: normal"><path d="M240.85516,190.60462c0,0 -0.1411,3.60679 -0.1513,6.38845c-0.00937,2.55504 0.09234,9.67953 0.09234,9.67953l-3.02601,-0.21582c0,0 0.24001,-4.02442 0.25484,-5.99603c0.02104,-2.79782 -0.184,-9.63145 -0.184,-9.63145z" stroke-linecap="round"/><path d="M237.26154,188.18807l4.84437,0.29605l-0.60058,2.59531l-4.10743,-0.20637c0,0 -0.23251,-2.685 -0.13634,-2.685z" stroke-linecap="butt"/><path d="M241.74736,207.31194l-4.85327,-0.03673l0.46102,-2.62369l4.11259,-0.01344c0,0 0.37567,2.66873 0.27965,2.67387z" stroke-linecap="butt"/></g></g></svg>