<svg version="1.1" xmlns="http://www.w3.org/2000/svg" xmlns:xlink="http://www.w3.org/1999/xlink" width="126.5279" height="27.25" viewBox="0,0,126.5279,27.25"><g transform="translate(-158.53605,-166.375)"><g data-paper-data="{&quot;isPaintingLayer&quot;:true}" fill-rule="nonzero" stroke-linecap="butt" stroke-linejoin="miter" stroke-miterlimit="10" stroke-dasharray="" stroke-dashoffset="0" style="mix-blend-mode: normal"><path d="M158.53605,191.65c0,-3.18624 0,-19.79228 0,-24.2c0,-0.68466 0.98285,-1.075 2.3724,-1.075c9.15516,0 104.62249,0 121.58539,0c1.66175,0 2.57011,0.52883 2.57011,1.175c0,2.64788 0,20.41996 0,25c0,0.68508 -0.69339,1.075 -1.977,1.075c-15.26535,0 -114.00373,0 -122.57388,0c-1.17051,0 -1.977,-0.94598 -1.977,-1.975z" fill="#8ac916" stroke="none" stroke-width="0"/><path d="M265.84653,178.27153l9.9125,0.38889l-0.01667,-1.20139l5.83333,2.58333l-5.83333,2.58333l0.02361,-1.07639l-9.85694,0.07639z" fill="#344c08" stroke="none" stroke-width="0"/><text transform="translate(163.9,184.71008) scale(0.38125,0.38125)" font-size="40" xml:space="preserve" fill="#344c08" fill-rule="nonzero" stroke="#344c08" stroke-width="2" stroke-linecap="butt" stroke-linejoin="miter" stroke-miterlimit="10" stroke-dasharray="" stroke-dashoffset="0" font-family="Sans Serif" font-weight="normal" text-anchor="start" style="mix-blend-mode: normal"><tspan x="0" dy="0">前往电梯</tspan></text></g></g></svg>