<svg version="1.1" xmlns="http://www.w3.org/2000/svg" xmlns:xlink="http://www.w3.org/1999/xlink" width="23.37501" height="12.14597" viewBox="0,0,23.37501,12.14597"><g transform="translate(-228.59378,-181.11249)"><g data-paper-data="{&quot;isPaintingLayer&quot;:true}" fill-rule="nonzero" stroke="none" stroke-width="0" stroke-linejoin="miter" stroke-miterlimit="10" stroke-dasharray="" stroke-dashoffset="0" style="mix-blend-mode: normal"><path d="M234.26195,184.52477l-2.4414,6.40806l-2.76878,-0.47476l3.62758,-8.47057" fill="#000000" stroke-linecap="round"/><path d="M231.69452,192.61394c-0.1334,0.22328 -0.93682,-1.37048 -1.08574,-0.85744c-0.21393,0.73697 0.53716,1.44056 -0.27142,1.49663c-0.87346,0.06057 -0.24526,-0.40013 -0.70295,-1.11997c-0.23196,-0.36482 -0.72082,0.99605 -0.86835,0.90194c-0.68738,-0.43847 0.90406,-2.80029 0.90406,-2.80029l1.24028,-0.09169c0,0 1.68225,0.96748 0.78412,2.47081z" fill="#f0cc85" stroke-linecap="butt"/><path d="M247.22467,181.11249l4.2123,8.47057l-3.21508,0.47476l-2.83493,-6.40806" fill="#000000" stroke-linecap="round"/><path d="M248.36824,191.73893c-1.04291,-1.50333 0.91051,-2.47081 0.91051,-2.47081l1.4402,0.09169c0,0 1.84796,2.36182 1.04979,2.80029c-0.17132,0.09411 -0.73897,-1.26676 -1.00833,-0.90194c-0.53147,0.71984 0.19799,1.18053 -0.81626,1.11997c-0.93891,-0.05607 -0.06676,-0.75966 -0.31516,-1.49664c-0.17292,-0.51303 -1.10585,1.08072 -1.26074,0.85745z" fill="#f0cc85" stroke-linecap="butt"/></g></g></svg>