<svg version="1.1" xmlns="http://www.w3.org/2000/svg" xmlns:xlink="http://www.w3.org/1999/xlink" width="17.80826" height="18.18925" viewBox="0,0,17.80826,18.18925"><g transform="translate(-231.1087,-170.90724)"><g data-paper-data="{&quot;isPaintingLayer&quot;:true}" fill-rule="nonzero" stroke="none" stroke-width="0" stroke-linecap="butt" stroke-linejoin="miter" stroke-miterlimit="10" stroke-dasharray="" stroke-dashoffset="0" style="mix-blend-mode: normal"><path d="M231.12419,185.43922c0.14267,-1.83475 0.88623,-11.39716 1.08359,-13.93529c0.03066,-0.39426 0.17038,-0.60952 0.3432,-0.59608c1.13863,0.08854 13.01205,1.0118 15.12174,1.17585c0.20667,0.01607 0.29597,0.32938 0.26703,0.70146c-0.11856,1.52476 -0.91433,11.7586 -1.11941,14.39596c-0.03068,0.3945 -0.13437,0.61232 -0.29402,0.5999c-1.89858,-0.14763 -14.17881,-1.10252 -15.24468,-1.1854c-0.14557,-0.01132 -0.20353,-0.56386 -0.15745,-1.15641z" fill="#587f0e"/><path d="M232.09608,186.75419c0.14267,-1.83475 0.88623,-11.39717 1.08359,-13.93529c0.03066,-0.39426 0.17038,-0.60952 0.3432,-0.59608c1.13864,0.08854 13.01205,1.0118 15.12174,1.17585c0.20667,0.01607 0.29597,0.32938 0.26703,0.70146c-0.11856,1.52476 -0.91433,11.7586 -1.11941,14.39596c-0.03068,0.3945 -0.13437,0.61232 -0.29402,0.5999c-1.89858,-0.14763 -14.17881,-1.10252 -15.24468,-1.1854c-0.14558,-0.01132 -0.20353,-0.56386 -0.15745,-1.15641z" fill="#8ac916"/><path d="M231.12419,185.43921c0.14267,-1.83475 0.88623,-11.39716 1.08359,-13.93529c0.03066,-0.39426 0.17038,-0.60952 0.3432,-0.59608c1.13863,0.08854 13.01205,1.0118 15.12174,1.17585c0.20667,0.01607 0.29597,0.32938 0.26703,0.70146c-0.11856,1.52476 -0.91433,11.7586 -1.11941,14.39596c-0.03068,0.3945 -0.13437,0.61232 -0.29402,0.5999c-1.89858,-0.14763 -14.17881,-1.10252 -15.24468,-1.1854c-0.14557,-0.01132 -0.20353,-0.56386 -0.15745,-1.15641z" fill="#426b7f"/><path d="M232.09608,186.75419c0.14267,-1.83475 0.88623,-11.39717 1.08359,-13.93529c0.03066,-0.39426 0.17038,-0.60952 0.3432,-0.59608c1.13864,0.08854 13.01205,1.0118 15.12174,1.17585c0.20667,0.01607 0.29597,0.32938 0.26703,0.70146c-0.11856,1.52476 -0.91433,11.7586 -1.11941,14.39596c-0.03068,0.3945 -0.13437,0.61232 -0.29402,0.5999c-1.89858,-0.14763 -14.17881,-1.10252 -15.24468,-1.1854c-0.14558,-0.01132 -0.20353,-0.56386 -0.15745,-1.15641z" fill="#69a9c9"/></g></g></svg>