<svg version="1.1" xmlns="http://www.w3.org/2000/svg" xmlns:xlink="http://www.w3.org/1999/xlink" width="72.2227" height="27.25" viewBox="0,0,72.2227,27.25"><g transform="translate(-208,-166.375)"><g data-paper-data="{&quot;isPaintingLayer&quot;:true}" fill-rule="nonzero" stroke="none" stroke-width="0" stroke-linecap="butt" stroke-linejoin="miter" stroke-miterlimit="10" stroke-dasharray="" stroke-dashoffset="0" style="mix-blend-mode: normal"><path d="M208,191.65c0,-3.18624 0,-19.79228 0,-24.2c0,-0.68466 0.56103,-1.075 1.35418,-1.075c5.22581,0 59.719,0 69.4015,0c0.94853,0 1.46702,0.52883 1.46702,1.175c0,2.64788 0,20.41996 0,25c0,0.68508 -0.3958,1.075 -1.12848,1.075c-8.71353,0 -65.07386,0 -69.96574,0c-0.66814,0 -1.12848,-0.94598 -1.12848,-1.975z" fill="#8ac916"/><path d="M270.906,182.75557v-5.5h4.3v5.5z" fill="#344c08"/><path d="M274.906,187.24443v-14.8l3.8,7.5z" fill="#344c08"/><path d="M240.40105,185.67866v-13.30352h2.4v13.30352z" fill="#344c08"/><path d="M246.73685,183.70727c0,0 0.63939,-4.3129 -0.09211,-5.80728c-0.61478,-1.25592 -3.84981,-0.2901 -3.84981,-0.2901l-0.34737,-1.63667c0,0 5.51463,-0.99177 6.38691,0.48853c1.05823,1.79587 0.72334,7.53359 -0.76447,8.74093c-1.74644,1.41723 -1.33315,-1.49541 -1.33315,-1.49541z" fill="#344c08"/><path d="M241.70738,185.66526l0.40701,-2.12408c0,0 1.37643,0.25438 2.21942,0.25438c0.88145,0 2.55205,-0.30526 2.55205,-0.30526l0.45789,2.17496c0,0 -2.00309,0.10175 -3.00994,0.10175c-0.84249,0 -2.62643,-0.10175 -2.62643,-0.10175z" fill="#344c08"/><path d="M256.19034,183.42522c0,0 0.63939,-4.3129 -0.09211,-5.80728c-0.61478,-1.25592 -3.84981,-0.2901 -3.84981,-0.2901l-0.34737,-1.63667c0,0 5.51463,-0.99177 6.38691,0.48853c1.05823,1.79587 0.72334,7.53359 -0.76447,8.74093c-1.74645,1.41723 -1.33316,-1.49541 -1.33316,-1.49541z" fill="#344c08"/><path d="M253.19409,177.48601c0,0 -0.63939,4.3129 0.09211,5.80728c0.61478,1.25592 3.84981,0.2901 3.84981,0.2901l0.34737,1.63667c0,0 -5.51463,0.99177 -6.38691,-0.48853c-1.05823,-1.79587 -0.72334,-7.53359 0.76447,-8.74093c1.74644,-1.41723 1.33316,1.49541 1.33316,1.49541z" fill="#344c08"/><path d="M258.86054,185.18599l5.31538,-9.56173l3.04346,0.14352l-5.72966,9.6653z" fill="#344c08"/><path d="M264.77208,185.46174l-5.91318,-9.6653l3.14094,-0.14352l5.48564,9.56173z" fill="#344c08"/><path d="M219.02051,183.43525c0,0 0.63939,-4.3129 -0.09211,-5.80728c-0.61478,-1.25592 -3.84981,-0.2901 -3.84981,-0.2901l-0.34737,-1.63667c0,0 5.51463,-0.99177 6.38691,0.48853c1.05823,1.79587 0.72334,7.53359 -0.76447,8.74094c-1.74644,1.41723 -1.33316,-1.49542 -1.33316,-1.49542z" fill="#344c08"/><path d="M216.02426,177.49604c0,0 -0.63939,4.3129 0.09211,5.80728c0.61478,1.25592 3.84981,0.2901 3.84981,0.2901l0.34737,1.63667c0,0 -5.51463,0.99177 -6.38691,-0.48853c-1.05823,-1.79587 -0.72334,-7.53359 0.76447,-8.74094c1.74644,-1.41723 1.33316,1.49542 1.33316,1.49542z" fill="#344c08"/><path d="M231.56682,175.30512v10.4h-2.4v-10.4z" fill="#344c08"/><path d="M225.06682,175.30512c0,0 -0.32868,6.59143 0.40282,8.08581c0.61478,1.25592 3.69718,0.2901 3.69718,0.2901l0.5,1.63667c0,0 -5.51463,0.99177 -6.38691,-0.48853c-1.05823,-1.79587 -0.21309,-9.52406 -0.21309,-9.52406z" fill="#344c08"/><path d="M234.65696,185.46293v-13.30352h2.4v13.30352z" fill="#344c08"/><path d="M231.9156,178.15082l0.57902,-2.12409c0,0 1.95815,0.25438 3.15741,0.25438c1.25398,0 3.63062,-0.30526 3.63062,-0.30526l0.65141,2.17496c0,0 -2.61179,-0.20896 -4.04417,-0.20896c-1.19855,0 -3.9743,0.20896 -3.9743,0.20896z" fill="#344c08"/></g></g></svg>