<svg version="1.1" xmlns="http://www.w3.org/2000/svg" xmlns:xlink="http://www.w3.org/1999/xlink" width="49.12394" height="10.34606" viewBox="0,0,49.12394,10.34606"><g transform="translate(-240.18956,-174.38538)"><g data-paper-data="{&quot;isPaintingLayer&quot;:true}" fill-rule="nonzero" stroke-linecap="butt" stroke-linejoin="miter" stroke-miterlimit="10" stroke-dasharray="" stroke-dashoffset="0" style="mix-blend-mode: normal"><path d="M240.34632,184.04095c-0.02063,-1.13134 -0.12817,-7.02767 -0.15671,-8.59273c-0.00443,-0.24311 0.28904,-0.38709 0.7075,-0.39473c2.75712,-0.05028 31.50768,-0.57462 36.61618,-0.66778c0.50045,-0.00913 0.77742,0.17365 0.7816,0.40309c0.01715,0.94018 0.13223,7.25055 0.16189,8.87679c0.00444,0.24325 -0.20185,0.3855 -0.58843,0.39255c-4.59726,0.08384 -34.33291,0.62614 -36.91387,0.67321c-0.35251,0.00643 -0.60152,-0.32503 -0.60818,-0.69042z" fill-opacity="0.82353" fill="#000000" stroke="none" stroke-width="0"/><text transform="translate(242.16227,181.63146) rotate(-1.04568) scale(0.14247,0.14247)" font-size="40" xml:space="preserve" fill="#d6d6d6" fill-rule="nonzero" stroke="#d6d6d6" stroke-width="2" stroke-linecap="butt" stroke-linejoin="miter" stroke-miterlimit="10" stroke-dasharray="" stroke-dashoffset="0" font-family="Sans Serif" font-weight="normal" text-anchor="start" style="mix-blend-mode: normal"><tspan x="0" dy="0">零结尾字符串</tspan></text><path d="M279.60383,183.70576c0.0113,-1.13146 0.07018,-7.02849 0.08582,-8.59374c0.00243,-0.24313 0.07857,-0.381 0.18427,-0.37993c0.69637,0.00696 7.95794,0.07947 9.2482,0.09236c0.1264,0.00127 0.19362,0.18973 0.19132,0.4192c-0.00939,0.94029 -0.07242,7.2514 -0.08868,8.87784c-0.00244,0.24328 -0.05654,0.38121 -0.15419,0.38025c-1.16111,-0.0116 -8.67151,-0.08661 -9.32339,-0.09311c-0.08904,-0.00089 -0.14703,-0.33741 -0.14339,-0.70285z" fill-opacity="0.82353" fill="#b06040" stroke="none" stroke-width="0"/><text transform="translate(282.49143,181.52622) rotate(0.57308) scale(0.14247,0.14247)" font-size="40" xml:space="preserve" fill="#ffa878" fill-rule="nonzero" stroke="#ffa878" stroke-width="2" stroke-linecap="butt" stroke-linejoin="miter" stroke-miterlimit="10" stroke-dasharray="" stroke-dashoffset="0" font-family="Sans Serif" font-weight="normal" text-anchor="start" style="mix-blend-mode: normal"><tspan x="0" dy="0">A</tspan></text></g></g></svg>