<svg version="1.1" xmlns="http://www.w3.org/2000/svg" xmlns:xlink="http://www.w3.org/1999/xlink" width="25.31348" height="34.12707" viewBox="0,0,25.31348,34.12707"><defs><radialGradient cx="239.35677" cy="173.28168" r="12.08644" gradientUnits="userSpaceOnUse" id="color-1"><stop offset="0" stop-color="#ffdb8f"/><stop offset="1" stop-color="#ad8b5a"/></radialGradient></defs><g transform="translate(-226.87032,-159.4578)"><g data-paper-data="{&quot;isPaintingLayer&quot;:true}" fill-rule="nonzero" stroke-linejoin="miter" stroke-miterlimit="10" stroke-dasharray="" stroke-dashoffset="0" style="mix-blend-mode: normal"><path d="M233.05525,193.18487c0,0 -0.5,-3.68638 -0.5,-5.4c0,-1.61371 0.5,-4.6 0.5,-4.6c0,0 5.1932,-0.2 7.4,-0.2c2.29011,0 6.1,-0.1 6.1,-0.1c0,0 0.4,3.77508 0.4,5.5c0,1.70825 -0.4,4.8 -0.4,4.8c0,0 -3.84173,0.4 -6.1,0.4c-2.24161,0 -7.4,-0.4 -7.4,-0.4z" fill="#000000" stroke="none" stroke-width="NaN" stroke-linecap="butt"/><path d="M236.45525,189.58487l0.3,-7.2h6.4l0.4,7.2c0,0 -2.42512,0.8 -3.6,0.8c-1.19155,0 -3.5,-0.8 -3.5,-0.8z" fill="#c2a068" stroke="none" stroke-width="0" stroke-linecap="butt"/><path d="M238.46081,187.72598l1.44444,-3.55556l1.66667,3.22222l-1.44444,1.77778z" fill="#000000" stroke="none" stroke-width="0" stroke-linecap="butt"/><path d="M226.87032,173.48168c0,-6.67516 5.81128,-12.28644 12.48644,-12.28644c6.67516,0 12.68644,5.41128 12.68644,12.08644c0,6.67516 -6.01128,12.08644 -12.68644,12.08644c-6.67516,0 -12.48644,-5.21128 -12.48644,-11.88644z" fill="url(#color-1)" stroke="none" stroke-width="0" stroke-linecap="butt"/><path d="M240.15834,174.79002c0,2.58745 -2.03927,4.68497 -4.55484,4.68497c-2.51557,0 -4.55484,-2.09753 -4.55484,-4.68497c0,-2.58745 2.03928,-4.68497 4.55484,-4.68497c2.51557,0 4.55484,2.09754 4.55484,4.68497z" fill-opacity="0.7098" fill="#ffffff" stroke="#000000" stroke-width="1.5" stroke-linecap="butt"/><path d="M251.4338,172.15974c0,2.072 -1.5026,3.83766 -3.3517,3.7517c-2.15109,-0.1 -3.3517,-1.6797 -3.3517,-3.7517c0,-2.072 0.70061,-3.6517 3.3517,-3.7517c1.84977,-0.06977 3.3517,1.6797 3.3517,3.7517z" fill-opacity="0.7098" fill="#ffffff" stroke="#000000" stroke-width="1.5" stroke-linecap="butt"/><path d="M234.31363,174.7744c0,-0.5592 0.45333,-1.01254 1.01254,-1.01254c0.5592,0 1.01253,0.45333 1.01253,1.01254c0,0.5592 -0.45333,1.01253 -1.01253,1.01253c-0.5592,0 -1.01254,-0.45333 -1.01254,-1.01253z" fill="#000000" stroke="none" stroke-width="0.5" stroke-linecap="butt"/><path d="M244.1294,163.35365c-0.16783,0.4021 -0.83403,0.27641 -1.26768,0.31888c-1.42351,0.13942 -4.28483,-0.40755 -5.61632,-0.88115c-0.24846,-0.08837 -0.60253,-0.19444 -0.90106,-0.36914c-0.215,0.1064 -0.43424,0.2291 -0.65876,0.37002c-0.9326,0.58535 -1.89807,1.23162 -2.80327,1.90586c-0.50145,0.71371 -1.01299,1.43843 -1.84458,1.90543l-0.44892,0.3928c-0.0122,0.01079 -0.02483,0.02109 -0.03787,0.03088c-0.27133,1.4765 -0.67915,3.05773 -1.51096,3.68915l-0.02497,0.00579l0.00367,0.00661l-0.53878,0.29932c-0.08984,0.05218 -0.19425,0.08206 -0.30563,0.08206c-0.33656,0 -0.6094,-0.27284 -0.6094,-0.6094c0,-0.03809 0.00349,-0.07536 0.01018,-0.11151l0.11999,-0.71996l0.13071,0.02179c0.12879,-1.45672 0.67677,-2.75213 1.50036,-3.87566c0.07426,-0.2886 0.1516,-0.57591 0.227,-0.8602h-0.16004c-0.33656,0 -0.6094,-0.27284 -0.6094,-0.6094c0,-0.33656 0.27284,-0.6094 0.6094,-0.6094h0.5018c0.55354,-1.25073 2.19518,-1.69543 3.33624,-2.35528c0.41037,-0.23731 1.19494,-1.10319 1.57782,-1.2149c0.04802,-0.01401 0.09646,-0.02528 0.14526,-0.03425l-0.00788,-0.02627l0.59583,-0.17875c0.05941,-0.01932 0.12282,-0.02977 0.18868,-0.02977c0.00477,0 0.00952,0.00005 0.01427,0.00016c0.03441,-0.12395 0.11984,-0.25042 0.29918,-0.35005c0.53271,-0.29595 0.82866,0.23676 0.82866,0.23676c0.14024,0.55238 0.61436,0.17137 1.17361,0.17407c1.05795,0.0051 2.17867,0.33996 3.1645,0.69675l0.24415,0.06659c0.04939,-0.00754 0.09859,-0.01545 0.14757,-0.02377c0,0 0.39184,-0.06531 0.59552,0.2259c0.29685,0.05697 0.59754,0.10521 0.90598,0.13448l0.50247,0.06262c0,0 0.6047,0.07558 0.52911,0.68028c-0.04092,0.32732 -0.23686,0.45532 -0.40802,0.50387c0.2356,0.34929 0.54782,0.69834 0.40156,1.04877zM236.32855,160.86163c-0.02449,-0.01501 -0.04855,-0.03045 -0.07217,-0.04632c-0.00266,0.00452 -0.00537,0.00899 -0.00814,0.01343l-0.03059,0.05098c0.03565,-0.00753 0.07277,-0.0134 0.11089,-0.01808zM231.57635,163.50003c0.12824,-0.0574 0.25817,-0.1214 0.38879,-0.19112c0.10791,-0.07437 0.21707,-0.14725 0.32738,-0.21863c-0.25704,0.12795 -0.50148,0.26303 -0.71616,0.40975z" fill="#000000" stroke="none" stroke-width="0.5" stroke-linecap="butt"/><path d="M247.31363,172.1744c0,-0.44875 0.36379,-0.81254 0.81253,-0.81254c0.44875,0 0.81253,0.36379 0.81253,0.81254c0,0.44875 -0.36379,0.81253 -0.81253,0.81253c-0.44875,0 -0.81253,-0.36378 -0.81253,-0.81253z" fill="#000000" stroke="none" stroke-width="0.5" stroke-linecap="butt"/><path d="M245.7271,178.57339c0,0 -1.48781,1.02553 -2.66091,1.24769c-1.17971,0.22341 -3.48273,-0.02473 -3.48273,-0.02473" fill="none" stroke="#000000" stroke-width="0.5" stroke-linecap="round"/></g></g></svg>