<svg version="1.1" xmlns="http://www.w3.org/2000/svg" xmlns:xlink="http://www.w3.org/1999/xlink" width="29.62501" height="16.38597" viewBox="0,0,29.62501,16.38597"><g transform="translate(-224.68749,-172.30202)"><g data-paper-data="{&quot;isPaintingLayer&quot;:true}" fill-rule="nonzero" stroke-width="0" stroke-linejoin="miter" stroke-miterlimit="10" stroke-dasharray="" stroke-dashoffset="0" style="mix-blend-mode: normal"><path d="M250.22693,183.57298l3.62758,-8.47057l-2.76878,-0.47476l-4.9414,6.53306c0,0 -1.78495,6.62136 -1.2496,6.93768c0.75107,0.44378 5.3322,-4.52541 5.3322,-4.52541z" fill="#000000" stroke="#000000" stroke-linecap="round"/><path d="M251.21176,172.94654c0.1334,-0.22328 0.93682,1.37048 1.08574,0.85744c0.21393,-0.73697 -0.53716,-1.44056 0.27142,-1.49663c0.87346,-0.06057 0.24526,0.40013 0.70295,1.11997c0.23196,0.36482 0.72082,-0.99605 0.86835,-0.90194c0.68738,0.43847 -0.90406,2.80029 -0.90406,2.80029l-1.24028,0.09169c0,0 -1.68225,-0.96748 -0.78412,-2.47081z" fill="#f0cc85" stroke="none" stroke-linecap="butt"/><path d="M229.43161,183.94799l-4.2123,-8.47057l3.21508,-0.47476l5.08493,6.28306c0,0 1.48417,6.90006 0.74456,7.38176c-0.58776,0.3828 -4.83227,-4.71949 -4.83227,-4.71949z" fill="#000000" stroke="none" stroke-linecap="round"/><path d="M228.28804,173.44655c1.04291,1.50333 -0.91051,2.47081 -0.91051,2.47081l-1.4402,-0.09169c0,0 -1.84796,-2.36182 -1.04979,-2.80029c0.17132,-0.09411 0.73897,1.26676 1.00833,0.90194c0.53147,-0.71984 -0.19799,-1.18053 0.81626,-1.11997c0.93891,0.05607 0.06676,0.75966 0.31516,1.49664c0.17292,0.51303 1.10585,-1.08072 1.26074,-0.85745z" fill="#f0cc85" stroke="none" stroke-linecap="butt"/></g></g></svg>