<svg version="1.1" xmlns="http://www.w3.org/2000/svg" xmlns:xlink="http://www.w3.org/1999/xlink" width="501.5823" height="403.9967" viewBox="0,0,501.5823,403.9967"><defs><linearGradient x1="243.23502" y1="-15.49834" x2="243.23502" y2="367.50166" gradientUnits="userSpaceOnUse" id="color-1"><stop offset="0" stop-color="#d69c78"/><stop offset="1" stop-color="#83604a"/></linearGradient><linearGradient x1="145.235" y1="-17.49834" x2="145.235" y2="367.50166" gradientUnits="userSpaceOnUse" id="color-2"><stop offset="0" stop-color="#d69c78"/><stop offset="1" stop-color="#83604a"/></linearGradient><linearGradient x1="179.73503" y1="-17.49834" x2="179.73503" y2="364.50166" gradientUnits="userSpaceOnUse" id="color-3"><stop offset="0" stop-color="#d69c78"/><stop offset="1" stop-color="#83604a"/></linearGradient><linearGradient x1="206.23503" y1="-16.49834" x2="206.23503" y2="355.50166" gradientUnits="userSpaceOnUse" id="color-4"><stop offset="0" stop-color="#d69c78"/><stop offset="1" stop-color="#83604a"/></linearGradient><linearGradient x1="272.73502" y1="-17.49834" x2="272.73502" y2="362.50166" gradientUnits="userSpaceOnUse" id="color-5"><stop offset="0" stop-color="#d69c78"/><stop offset="1" stop-color="#83604a"/></linearGradient><linearGradient x1="339.23502" y1="-19.49834" x2="339.23502" y2="367.50166" gradientUnits="userSpaceOnUse" id="color-6"><stop offset="0" stop-color="#d69c78"/><stop offset="1" stop-color="#83604a"/></linearGradient><linearGradient x1="303.23502" y1="-19.49834" x2="303.23502" y2="345.50166" gradientUnits="userSpaceOnUse" id="color-7"><stop offset="0" stop-color="#d69c78"/><stop offset="1" stop-color="#83604a"/></linearGradient><linearGradient x1="243.23503" y1="-14.74834" x2="243.23503" y2="365.25166" gradientUnits="userSpaceOnUse" id="color-8"><stop offset="0" stop-color="#d69c78"/><stop offset="1" stop-color="#83604a"/></linearGradient></defs><g transform="translate(13.79114,21.99834)"><g data-paper-data="{&quot;isPaintingLayer&quot;:true}" fill-rule="nonzero" stroke-linejoin="miter" stroke-miterlimit="10" stroke-dasharray="" stroke-dashoffset="0" style="mix-blend-mode: normal"><path d="M-0.75748,381.99836v-393.39339h484.98498v393.39339z" fill="#d0baac" stroke="none" stroke-width="3.5" stroke-linecap="butt"/><path d="M-0.75748,381.99836c0,0 -36.44953,-199.06367 51,-244.39339c13.50113,-6.99835 13.94617,31.1848 32.80113,16.53825c3.65173,-2.83667 24.20313,-54.35156 41.20682,-56.57745c50.42051,-6.60034 63.32843,-69.3006 143.47605,-58.90546c23.20643,3.00987 41.39934,63.31833 71.83521,76.00591c29.33095,12.22698 49.27445,-47.28194 75.66596,-46.05853c32.78338,1.51972 60.98155,25.57915 68.9998,61.99728c8.01825,36.41814 0,251.39339 0,251.39339z" fill="#ffffff" stroke="none" stroke-width="3.5" stroke-linecap="butt"/><path d="M36.23502,367.50166l153.51497,-383l95.13772,2l165.34731,381z" fill="#83604a" stroke="url(#color-1)" stroke-width="3.5" stroke-linecap="butt"/><g fill="none" stroke-width="5" stroke-linecap="round"><path d="M202.98503,-17.49834l-120.75,385" stroke="url(#color-2)"/><path d="M218.98502,-16.99834l-83.75,387.5" stroke="url(#color-3)"/><path d="M191.23503,368.50166l42,-385.25" stroke="url(#color-4)"/><path d="M254.23503,-17.49834l32,390" stroke="url(#color-5)"/><path d="M277.23502,-19.49834l124,387" stroke="url(#color-6)"/><path d="M267.23502,-19.49834l73,392" stroke="url(#color-7)"/><path d="M243.73503,-17.74835l-0.5,383" stroke="url(#color-8)"/></g><g fill="#e9a279" stroke="none" stroke-width="0" stroke-linecap="butt"><path d="M33.84768,230.24769l4.11298,-73.4274l9.56357,-2.79072l-0.79772,27.99131l58.96412,22.71747l0.23735,12.0772l-59.60047,-20.79411l-0.9826,34.47873z"/><path d="M134.33225,208.0025l2.8583,-15.43907l-0.1079,-16.54014l-30.37394,8.7922l2.51067,-13.83648l28.92717,-7.64521l5.17673,-23.15026l7.52015,-0.83511l-1.67673,22.47067l31.50874,-2.39132l-0.5859,49.56816l-11.56609,0.4155l3.89137,-39.46333l-23.10332,3.88301l-0.41603,26.98346l-3.74148,15.42748z"/><g><path d="M201.88859,152.0736l2.05007,-7.61552l17.69146,5.57924l-1.84507,6.85397z"/><path d="M218.30734,159.38179l3.93537,6.83461l-19.20671,4.29526l-1.50404,-5.87371z"/><path d="M229.28815,153.44509l-2.1124,8.84228l-4.70511,-7.01215l2.66309,-7.94741l6.01552,-11.39068l6.3101,-1.49406l-6.4889,12.21318l33.97317,-0.23264l-2.4899,10.61315l-5.33084,1.68382l1.71641,-6.81644z"/><path d="M227.44173,170.38357l10.16433,-8.52692l2.62256,-6.39461l8.07986,-0.62084l-3.73826,7.25948l19.76786,10.0652l-2.84472,4.97795l-18.86243,-10.74097l-9.41207,8.10181z"/><path d="M213.85084,212.40775l21.5052,-27.57079l7.64307,1.32676l-7.63917,10.7047l23.60947,13.88776l-2.89556,5.90674l-24.31833,-13.59549l-9.62618,12.34089z"/><path d="M209.51353,199.21912l2.9776,-24.43359l48.31605,3.39178l-0.71805,17.25208l-7.06578,1.04384l-0.7765,-13.44293l-31.66548,-0.09584l-5.49177,16.51815z"/></g><path d="M388.24299,223.18503l6.98733,-31.6908l-17.39033,21.61532l-1.04886,-9.63475l14.58202,-14.98917l-24.56233,2.65182l0.07935,-7.26466l29.53847,-4.76538l7.42676,-22.52945l7.56581,-0.09202l-3.87693,22.19712l15.77781,3.22752l3.50441,-13.19567l34.11779,5.26491l-13.16235,52.25771l11.41355,0.90878l5.946,10.47948l-26.38304,-8.66591l12.4385,-49.33557l-15.7651,-1.40706l-10.64557,49.04141l-9.22044,-0.17889l-0.87016,-5.47321l5.13416,-2.35843l2.90163,-29.3768l-13.52967,-2.67058l8.9925,24.3553l-9.4482,3.97695l-4.12196,-22.77577l-9.52492,32.56449z"/><g><path d="M287.16797,153.22912l3.03435,-8.20569l18.97994,7.9513l-2.73091,7.38513z"/><path d="M331.309,171.4664l-0.10181,-5.27193l15.00451,-2.26173l0.09163,4.74474z"/><path d="M282.98479,171.17826l3.03435,-8.20569l18.97994,7.9513l-2.73091,7.38513z"/><path d="M300.84466,185.80913l4.1556,8.75515l-21.8308,20.10968l-3.11929,-5.95897z"/><path d="M296.95219,217.86106l27.6742,-69.2355l34.11135,5.96073l4.3428,7.06889l-33.40616,-4.49905l-16.35403,42.47836z"/><path d="M324.07728,189.42335l6.93145,-23.53543l22.65746,7.25577l1.72188,5.03819l-1.34968,13.16462l-4.29558,0.23376l-0.07771,-13.27222l-13.56626,-3.51297l-8.8573,15.47648z"/><path d="M324.24859,191.91366l0.65253,-5.40221l1.95576,2.69179l2.24048,-1.38286l15.93603,3.11536l4.57472,-4.12301l4.35817,4.52557l-6.57934,5.14105z"/><path d="M330.2519,183.00299l2.53057,-4.8323l19.77908,4.35366l-2.27753,4.34907z"/><path d="M334.97195,191.87906l6.42313,5.44225l-4.07312,19.58257l-4.84229,4.17092l-6.38269,-6.08526l4.07899,-0.68988z"/><path d="M327.11337,199.3891l5.20994,-0.1606l-12.74891,11.7438l-3.12171,-5.00887z"/><path d="M352.1706,216.47913l-7.84908,-1.1211l-1.57251,-12.03448l3.94835,-0.32336z"/></g></g><g fill="#f7f3f0" stroke="none" stroke-width="0"><path d="M228.98613,347.70897c-4.97526,-3.97629 -6.00841,-22.7635 -2.42759,-28.62484c2.95161,-4.83138 21.44776,-1.49524 21.44776,-1.49524l-1.19202,5.35179c0,0 -10.84426,-3.21407 -12.9279,0.88699c-2.4793,4.87977 -0.40133,19.00794 -0.40133,19.00794c0,0 1.34115,9.54094 -4.49891,4.87337z" stroke-linecap="butt"/><path d="M241.51906,349.617c-3.37984,-0.01639 -10.10236,-0.38206 -10.10236,-0.38206l1.57157,-7.11203c0,0 5.60315,1.02642 8.56208,1.04075c2.82983,0.01373 7.45434,-0.79658 7.45434,-0.79658l1.33255,6.95954c0,0 -5.99007,0.30407 -8.8182,0.29037z" stroke-linecap="butt"/><path d="M336.55544,349.40247c-4.72883,-4.33229 -4.4926,-23.27719 -0.49754,-28.92303c3.29306,-4.65374 21.64922,-0.04762 21.64922,-0.04762l-1.56055,5.29591c0,0 -10.67686,-3.96455 -13.04836,0.01437c-2.8218,4.73439 -1.69234,19.0694 -1.69234,19.0694c0,0 0.70032,9.6764 -4.85042,4.59098z" stroke-linecap="butt"/><path d="M349.01746,352.16939c-3.39447,-0.24569 -10.12357,-1.06898 -10.12357,-1.06898l2.06126,-7.03865c0,0 5.55966,1.4112 8.5314,1.62629c2.84209,0.20571 7.54315,-0.29474 7.54315,-0.29474l0.86679,7.0824c0,0 -6.03863,-0.10077 -8.87904,-0.30635z" stroke-linecap="butt"/><path d="M333.74296,331.06803c0,0 15.45202,1.48936 19.05678,-0.13238c3.02954,-1.36298 1.14765,-8.95742 1.14765,-8.95742l3.91007,-1.0441c0,0 1.6365,13.50991 -1.9529,15.47537c-4.3546,2.38445 -22.41359,-0.47947 -22.41359,-0.47947z" stroke-linecap="butt"/><path d="M142.67113,281.03098l5.13858,70.65053l-13.57127,0.435c0,0 1.32396,-17.96287 0.5028,-26.61243c-1.16522,-12.27421 -5.13104,-42.13902 -5.13104,-42.13902z" stroke-linecap="round"/><path d="M182.53565,279.70793c0,0 2.23309,30.04236 3.57613,42.29839c0.94644,8.63672 5.68408,25.97831 5.68408,25.97831l-12.50497,2.23775l-9.16596,-70.23771z" stroke-linecap="round"/><path d="M183.19674,278.8732l-14.74783,72.00998l-13.18054,0.61277l14.87569,-71.80084z" stroke-linecap="butt"/><path d="M143.32079,281.85933l25.74586,68.64359l-13.07854,1.25287l-26.8764,-67.77099z" stroke-linecap="butt"/><path d="M221.27192,318.0573c0,0 -1.61578,14.5454 -1.18073,19.80795c0.34698,4.19703 3.58708,9.30009 3.58708,9.30009l-10.66075,1.81932l0.7653,-31.11157z" stroke-linecap="butt"/><path d="M201.35002,323.72262c0,0 -2.32624,13.40915 -0.15833,18.12846c1.82199,3.96623 11.99092,1.20076 11.99092,1.20076l0.95831,5.13382c0,0 -17.28431,2.67149 -19.8926,-2.01469c-3.16432,-5.68518 -1.67887,-23.5638 3.05645,-27.21705c5.55847,-4.28836 4.04527,4.76871 4.04527,4.76871z" stroke-linecap="butt"/><path d="M217.19459,317.99883l-1.4331,6.5969c0,0 -4.27557,-0.89945 -6.9061,-0.96413c-2.75051,-0.06767 -7.98699,0.75666 -7.98699,0.75666l-1.26188,-6.82203c0,0 6.25837,-0.16375 9.40021,-0.08648c2.62896,0.06467 8.18789,0.51911 8.18789,0.51911z" stroke-linecap="butt"/><path d="M253.99372,349.28321l-0.03524,-43.3637l7.82296,-0.00637l0.03524,43.3637z" stroke-linecap="butt"/><path d="M274.64041,342.84054c0,0 2.07271,-14.05986 -0.31561,-18.92897c-2.00725,-4.09214 -12.54948,-0.9354 -12.54948,-0.9354l-1.1366,-5.33391c0,0 17.97267,-3.24734 20.81983,1.57548c3.45413,5.85094 2.37773,24.55431 -2.4687,28.49365c-5.68889,4.62419 -4.34944,-4.87085 -4.34944,-4.87085z" stroke-linecap="butt"/><path d="M286.58113,349.37104l2.01265,-30.85971l7.48432,-0.16583l-1.68283,31.39692z" stroke-linecap="butt"/><path d="M300.42441,349.95454l0.78001,-32.39148l7.73194,0.24226l-0.78001,32.39148z" stroke-linecap="butt"/><path d="M321.36508,350.61067c0,0 1.55324,-20.49627 -0.69129,-25.22446c-1.88643,-3.97369 -11.88921,-1.27676 -11.88921,-1.27676l-1.48807,-5.148c0,0 17.84055,-2.53227 20.53968,2.16629c3.27454,5.70017 -0.02781,29.68483 -0.02781,29.68483z" stroke-linecap="butt"/><path d="M145.48134,249.9697l2.27948,22.27813l-5.2237,0.50858l-2.27948,-22.27813z" stroke-linecap="butt"/><path d="M131.33382,251.34711c0,0 0.72934,14.18932 2.64902,17.23547c1.61336,2.56007 8.11066,-0.16204 8.11066,-0.16204l1.44699,3.4c0,0 -11.78546,3.29308 -14.00849,0.30694c-2.69691,-3.62272 -2.55129,-20.35659 -2.55129,-20.35659z" stroke-linecap="butt"/><path d="M346.46692,253.17926l-2.87781,22.20876l-5.20151,-0.7l2.87781,-22.20875z" stroke-linecap="butt"/><path d="M332.37947,251.28341c0,0 -2.53626,13.97985 -1.36441,17.3844c0.98486,2.86127 7.93262,1.69783 7.93262,1.69783l0.63076,3.64088c0,0 -12.22628,0.50943 -13.70717,-2.9061c-1.79657,-4.14366 2.1736,-20.40037 2.1736,-20.40037z" stroke-linecap="butt"/><path d="M150.14189,271.80421l-0.98072,-21.89748l5.05326,-0.22632l0.98072,21.89748z" stroke-linecap="butt"/><path d="M163.82783,271.19124c0,0 0.07047,-13.90944 -1.61064,-16.98692c-1.41287,-2.5864 -7.81187,-0.26217 -7.81187,-0.26217l-1.20711,-3.3989c0,0 11.51769,-2.60823 13.49388,0.42632c2.39749,3.68147 1.3468,20.03308 1.3468,20.03308z" stroke-linecap="butt"/><path d="M174.58429,270.70951c0,0 0.07047,-13.90943 -1.61065,-16.98691c-1.41287,-2.5864 -7.81187,-0.26218 -7.81187,-0.26218l-1.20711,-3.3989c0,0 11.51769,-2.60823 13.49388,0.42632c2.39749,3.68147 1.34679,20.03308 1.34679,20.03308z" stroke-linecap="butt"/><path d="M199.3718,250.59428c0,0 -1.4022,9.46277 -1.24347,12.9107c0.1266,2.74984 2.12144,6.16048 2.12144,6.16048l-7.00714,0.93427l1.24156,-20.30432z" stroke-linecap="butt"/><path d="M186.22347,253.82003c0,0 -1.83919,8.70362 -0.53557,11.83803c1.09561,2.63424 7.80403,1.0702 7.80403,1.0702l0.50361,3.37633c0,0 -11.35407,1.33303 -12.94612,-1.79023c-1.93145,-3.78909 -0.53495,-15.43226 2.64533,-17.70574c3.73311,-2.66871 2.52875,3.21142 2.52875,3.21142z" stroke-linecap="butt"/><path d="M196.70981,250.4589l-1.09339,4.27504c0,0 -2.77144,-0.68944 -4.48819,-0.79441c-1.79508,-0.10977 -5.23528,0.30386 -5.23528,0.30386l-0.66165,-4.48633c0,0 4.09197,0.04222 6.14242,0.1676c1.71575,0.10491 5.33607,0.53427 5.33607,0.53427z" stroke-linecap="butt"/><path d="M202.09071,269.97956l0.98479,-21.15593l5.04915,0.27171l-0.98478,21.15594z" stroke-linecap="butt"/><path d="M215.76551,270.71545c0,0 1.31563,-13.37123 -0.0818,-16.49395c-1.17447,-2.62442 -7.75071,-1.00871 -7.75071,-1.00871l-0.89692,-3.38597c0,0 11.69568,-1.39315 13.39063,1.71687c2.05626,3.77301 -0.45354,19.39821 -0.45354,19.39821z" stroke-linecap="butt"/><path d="M103.81271,233.58946l1.96722,44.0275l-8.87934,0.08014c0,0 1.21919,-11.15705 0.85282,-16.54992c-0.51988,-7.65278 -2.52384,-26.2889 -2.52384,-26.2889z" stroke-linecap="round"/><path d="M122.1887,231.93866c0,0 0.86791,18.72227 1.50437,26.36623c0.4485,5.38664 3.20367,16.24223 3.20367,16.24223l-8.21785,1.21669l-4.60782,-43.8272z" stroke-linecap="round"/><path d="M104.31756,250.34418c4.63959,-0.35192 13.93134,-0.24272 13.93134,-0.24272l-1.18139,7.22502c0,0 -7.74102,0.0198 -11.80277,0.32788c-3.88454,0.29464 -4.82936,-7.01571 -0.94711,-7.31018z" stroke-linecap="butt"/><path d="M248.67722,223.59258l-3.61707,45.36097l-6.93013,0.34114l2.93249,-45.52857z" stroke-linecap="round"/><path d="M265.01922,225.16701l1.80146,8.06986l-4.83801,7.63942l-9.60054,10.39203l13.92539,17.55536l-9.48182,0.68148l-13.89176,-17.71602l11.56311,-13.2031l3.5022,-5.12879l-2.97706,-2.8662l-4.9823,-0.28479l-5.22557,3.03901l3.08189,-9.16724l9.99933,-1.70792z" stroke-linecap="round"/><path d="M364.39152,276.52246c-2.98417,-3.18608 -1.83903,-16.03149 1.16586,-19.65556c2.47688,-2.98726 14.69554,1.0931 14.69554,1.0931l-1.33442,3.51316c0,0 -7.04016,-3.24573 -8.85652,-0.66858c-2.16124,3.06649 -2.13987,12.8542 -2.13987,12.8542c0,0 -0.02773,6.60366 -3.53058,2.8637z" stroke-linecap="butt"/><path d="M372.70546,279.04817c-2.29103,-0.34321 -6.81518,-1.25176 -6.81518,-1.25176l1.76484,-4.66988c0,0 3.69992,1.24679 5.70563,1.54724c1.9182,0.28735 5.13476,0.1921 5.13476,0.1921l0.22009,4.85178c0,0 -4.09312,-0.3823 -6.01018,-0.66948z" stroke-linecap="butt"/><path d="M307.41921,270.41865c-3.35412,-2.91683 -3.53035,-16.04727 -0.86361,-20.03072c2.19814,-3.28349 14.99908,-0.42137 14.99908,-0.42137l-0.98624,3.69732c0,0 -7.46871,-2.55534 -9.04046,0.24404c-1.87018,3.33091 -0.83047,13.24283 -0.83047,13.24283c0,0 0.65882,6.69184 -3.2783,3.26793z" stroke-linecap="butt"/><path d="M268.30427,267.78529c-3.57344,-3.10755 -3.76118,-17.09651 -0.92007,-21.34042c2.34187,-3.49816 15.97978,-0.44892 15.97978,-0.44892l-1.05072,3.93908c0,0 -7.95705,-2.72242 -9.63157,0.25999c-1.99245,3.54869 -0.88476,14.10869 -0.88476,14.10869c0,0 0.70189,7.12939 -3.49267,3.4816z" stroke-linecap="butt"/><path d="M277.55614,269.58952c-2.51038,-0.11648 -7.49329,-0.59559 -7.49329,-0.59559l1.38701,-5.23507c0,0 4.13093,0.93545 6.32867,1.03742c2.10186,0.09751 5.56243,-0.36172 5.56243,-0.36172l0.77519,5.21139c0,0 -4.45942,0.04103 -6.56005,-0.05643z" stroke-linecap="butt"/><path d="M265.87778,254.30521c0,0 11.4346,0.80408 14.06452,-0.46193c2.21025,-1.06402 0.67595,-6.63399 0.67595,-6.63399l2.86632,-0.84544c0,0 1.4662,9.94125 -1.14579,11.46068c-3.16883,1.84335 -16.55407,0.07445 -16.55407,0.07445z" stroke-linecap="butt"/><path d="M287.91169,247.97837l6.95368,-2.08434l9.55695,1.96494l-2.32027,3.81017l-5.59725,-1.76647l-4.52724,1.66523l-0.50443,3.051l4.46261,1.11399l5.20112,1.4833l2.88377,8.61436l-7.1636,5.58722l-10.50622,-0.78598l1.92627,-3.30257l7.50189,-0.17722l3.43965,-5.19828l-6.0054,-2.39973l-6.68351,-4.23687z" stroke-linecap="round"/><path d="M322.12581,271.20999c-2.7474,3.02649 -14.45433,-0.04104 -14.45433,-0.04104l1.57004,-3.6338c0,0 7.50739,2.13409 9.54037,-0.49204c2.41899,-3.12475 1.86695,-14.13134 1.86695,-14.13134c0,0 -4.60553,-3.70602 0.98973,-3.05452c5.99748,0.69833 2.70813,18.90626 0.48725,21.35274z" stroke-linecap="butt"/><path d="M349.31748,275.8535c-3.35412,-2.91683 -3.53035,-16.04727 -0.8636,-20.03072c2.19814,-3.28348 14.99906,-0.42139 14.99906,-0.42139l-0.98624,3.69733c0,0 -7.46872,-2.55534 -9.04047,0.24404c-1.87018,3.33091 -0.83046,13.24283 -0.83046,13.24283c0,0 0.65882,6.69184 -3.27831,3.26793z" stroke-linecap="butt"/><path d="M381.91654,279.33461c-2.91825,-3.23441 -1.53689,-16.02971 1.52864,-19.5898c2.52686,-2.9345 14.64225,1.36383 14.64225,1.36383l-1.39673,3.48045c0,0 -6.96402,-3.36931 -8.82421,-0.83169c-2.21339,3.01943 -2.37403,12.78558 -2.37403,12.78558c0,0 -0.15042,6.58832 -3.5759,2.79165z" stroke-linecap="butt"/><path d="M390.16491,282.00922c-2.2795,-0.38503 -6.77661,-1.37565 -6.77661,-1.37565l1.8477,-4.6266c0,0 3.66844,1.31277 5.66405,1.64984c1.90854,0.32236 5.11967,0.28712 5.11967,0.28712l0.12941,4.845c0,0 -4.07681,-0.45755 -5.98424,-0.77972z" stroke-linecap="butt"/><path d="M381.19707,266.75554c0,0 10.3526,2.00353 12.89471,1.13935c2.13645,-0.72629 1.35366,-5.983 1.35366,-5.983l2.7113,-0.45387c0,0 0.23542,9.24091 -2.31847,10.33849c-3.09833,1.33156 -15.12512,-1.76954 -15.12512,-1.76954z" stroke-linecap="butt"/></g><g stroke-linecap="butt"><g stroke="none" stroke-width="0"><g><g fill="#426b7f"><path d="M375.65694,111.34964c0.66733,-3.72052 4.14533,-23.11111 5.0685,-28.25792c0.1434,-0.79946 0.69007,-1.17187 1.34731,-1.05399c4.33043,0.77674 49.48689,8.87625 57.51042,10.3154c0.78601,0.14098 1.1049,0.83555 0.96957,1.59007c-0.55458,3.09188 -4.2768,23.84404 -5.23606,29.19208c-0.14348,0.79995 -0.55313,1.19642 -1.16028,1.08753c-7.22058,-1.29513 -53.92425,-9.67215 -57.97797,-10.39925c-0.55367,-0.09931 -0.737,-1.27233 -0.52148,-2.47391z"/><path d="M437.95412,123.51979c0.47809,-2.66547 2.96983,-16.55736 3.6312,-20.24468c0.10273,-0.57276 0.3389,-0.86745 0.58997,-0.82242c1.65416,0.2967 18.90331,3.3906 21.96818,3.94033c0.30025,0.05385 0.38502,0.52569 0.28806,1.06624c-0.39731,2.2151 -3.064,17.08247 -3.75124,20.91393c-0.1028,0.57311 -0.28659,0.87683 -0.51852,0.83524c-2.75816,-0.49472 -20.59831,-3.69463 -22.14678,-3.97237c-0.2115,-0.03794 -0.21527,-0.85543 -0.06086,-1.71627z"/><path d="M425.57863,99.09228l-2.78632,15.53429l-2.87392,-0.51548l2.78633,-15.53429z"/><path d="M431.78833,100.77975c1.52873,1.72934 0.72804,8.50111 -0.91529,10.37082c-1.35455,1.54118 -7.75043,-0.80136 -7.75043,-0.80136l0.75875,-1.8365c0,0 3.67156,1.82261 4.67077,0.48814c1.18894,-1.58784 1.32659,-6.76127 1.32659,-6.76127c0,0 0.11513,-3.48981 1.90959,-1.45982z"/><path d="M427.43256,99.31833c1.20567,0.21625 3.58299,0.76531 3.58299,0.76531l-1.00384,2.44131c0,0 -1.93655,-0.71527 -2.99205,-0.90459c-1.00946,-0.18106 -2.71096,-0.17966 -2.71096,-0.17966l-0.0425,-2.56767c0,0 2.15752,0.26434 3.16637,0.4453z"/><path d="M389.04583,99.05667c0,0 1.03171,-6.41528 1.56215,-6.92283c0.19943,-0.19084 2.09914,0.45229 2.09914,0.45229c0,0 0.27441,1.45828 0.10383,2.19353c-0.22605,2.56044 -1.12616,11.40686 -2.87743,13.22638c-1.44356,1.49979 -8.09485,-1.04575 -8.09485,-1.04575l0.82527,-1.8141c0,0 3.80999,1.93953 4.87824,0.63542c1.27107,-1.55172 1.50368,-6.72493 1.50368,-6.72493z"/><path d="M404.55037,94.76132l-2.1782,12.1439l-2.80243,-0.50267l2.1782,-12.1439z"/><path d="M396.96044,93.39994c0,0 -1.76432,7.62786 -1.22314,9.52603c0.45483,1.59528 4.25637,1.1131 4.25637,1.1131l0.24105,2.01583c0,0 -6.64706,0.00308 -7.35556,-1.90814c-0.85955,-2.31865 1.74591,-11.16571 1.74591,-11.16571z"/><path d="M403.69322,107.19225l2.1782,-12.1439l2.80244,0.50266l-2.1782,12.14391z"/><path d="M411.28316,108.55362c0,0 1.76432,-7.62786 1.22314,-9.52603c-0.45483,-1.59527 -4.25637,-1.11309 -4.25637,-1.11309l-0.24105,-2.01584c0,0 6.64706,-0.00308 7.35557,1.90814c0.85955,2.31865 -1.74591,11.16572 -1.74591,11.16572z"/><path d="M417.24848,109.62359c0,0 1.76432,-7.62786 1.22315,-9.52603c-0.45483,-1.59528 -4.25637,-1.1131 -4.25637,-1.1131l-0.24105,-2.01583c0,0 6.64706,-0.00308 7.35557,1.90813c0.85955,2.31865 -1.74592,11.16572 -1.74592,11.16572z"/></g><g><path d="M374.29525,109.75382c0.66734,-3.72052 4.14533,-23.11111 5.0685,-28.25793c0.1434,-0.79946 0.69007,-1.17186 1.34731,-1.05398c4.33043,0.77674 49.48688,8.87625 57.51041,10.31539c0.78601,0.14098 1.1049,0.83555 0.96957,1.59008c-0.55458,3.09188 -4.2768,23.84403 -5.23605,29.19207c-0.14348,0.79995 -0.55313,1.19643 -1.16028,1.08754c-7.22058,-1.29513 -53.92426,-9.67215 -57.97798,-10.39925c-0.55367,-0.09931 -0.737,-1.27233 -0.52148,-2.47391z" fill="#69a9c9"/><path d="M436.59244,121.92397c0.47809,-2.66547 2.96983,-16.55737 3.6312,-20.24468c0.10273,-0.57275 0.3389,-0.86744 0.58996,-0.82241c1.65416,0.2967 18.90332,3.3906 21.96819,3.94033c0.30025,0.05385 0.38501,0.52569 0.28805,1.06624c-0.39731,2.2151 -3.064,17.08246 -3.75124,20.91392c-0.1028,0.57311 -0.28659,0.87683 -0.51851,0.83524c-2.75816,-0.49472 -20.59831,-3.69463 -22.14679,-3.97237c-0.2115,-0.03794 -0.21526,-0.85543 -0.06086,-1.71627z" fill="#69a9c9"/><path d="M424.21695,97.49647l-2.78632,15.53429l-2.87392,-0.51549l2.78632,-15.53429z" fill="#426b7f"/><path d="M430.42664,99.18392c1.52873,1.72934 0.72803,8.50112 -0.91529,10.37083c-1.35455,1.54118 -7.75043,-0.80136 -7.75043,-0.80136l0.75875,-1.8365c0,0 3.67156,1.8226 4.67077,0.48813c1.18894,-1.58784 1.32659,-6.76127 1.32659,-6.76127c0,0 0.11513,-3.48981 1.9096,-1.45982z" fill="#426b7f"/><path d="M426.07088,97.72251c1.20567,0.21625 3.58299,0.7653 3.58299,0.7653l-1.00384,2.44131c0,0 -1.93655,-0.71526 -2.99205,-0.90458c-1.00946,-0.18106 -2.71096,-0.17966 -2.71096,-0.17966l-0.04251,-2.56767c0,0 2.15752,0.26434 3.16637,0.44531z" fill="#426b7f"/><path d="M387.68415,97.46085c0,0 1.03171,-6.41528 1.56214,-6.92283c0.19943,-0.19084 2.09914,0.45229 2.09914,0.45229c0,0 0.27442,1.45828 0.10383,2.19353c-0.22605,2.56044 -1.12617,11.40686 -2.87744,13.22637c-1.44356,1.4998 -8.09484,-1.04575 -8.09484,-1.04575l0.82527,-1.8141c0,0 3.80999,1.93953 4.87824,0.63542c1.27106,-1.55172 1.50367,-6.72492 1.50367,-6.72492z" fill="#426b7f"/><path d="M403.18869,93.1655l-2.1782,12.14391l-2.80244,-0.50267l2.1782,-12.1439z" fill="#426b7f"/><path d="M395.59876,91.80412c0,0 -1.76432,7.62786 -1.22314,9.52603c0.45483,1.59528 4.25637,1.1131 4.25637,1.1131l0.24105,2.01583c0,0 -6.64706,0.00308 -7.35557,-1.90814c-0.85954,-2.31865 1.74592,-11.16572 1.74592,-11.16572z" fill="#426b7f"/><path d="M402.33153,105.59643l2.1782,-12.1439l2.80244,0.50266l-2.1782,12.14391z" fill="#426b7f"/><path d="M409.92148,106.95781c0,0 1.76432,-7.62786 1.22315,-9.52603c-0.45483,-1.59527 -4.25638,-1.11309 -4.25638,-1.11309l-0.24105,-2.01583c0,0 6.64706,-0.00308 7.35557,1.90814c0.85955,2.31864 -1.74592,11.16571 -1.74592,11.16571z" fill="#426b7f"/><path d="M415.8868,108.02777c0,0 1.76432,-7.62786 1.22314,-9.52603c-0.45483,-1.59527 -4.25637,-1.11309 -4.25637,-1.11309l-0.24105,-2.01584c0,0 6.64706,-0.00308 7.35557,1.90814c0.85955,2.31865 -1.74592,11.16572 -1.74592,11.16572z" fill="#426b7f"/></g></g><path d="M450.30288,119.27489c0,0 1.35489,-6.10777 0.95792,-8.33694c-0.33364,-1.87345 -3.44792,-0.87189 -3.44792,-0.87189l-0.02223,-2.38767c0,0 5.19136,-0.76877 5.71886,1.45688c0.63994,2.70011 -0.69371,10.88675 -2.26288,12.44153c-1.84194,1.82505 -0.94377,-2.30192 -0.94377,-2.30192z" fill="#426b7f"/><path d="M448.64426,110.40483c0,0 -1.35489,6.10777 -0.95792,8.33694c0.33364,1.87345 3.44792,0.87189 3.44792,0.87189l0.02223,2.38767c0,0 -5.19136,0.76877 -5.71886,-1.45688c-0.63994,-2.70011 0.69371,-10.88675 2.26288,-12.44153c1.84194,-1.82505 0.94377,2.30192 0.94377,2.30192z" fill="#426b7f"/></g><g stroke="none" stroke-width="0"><g fill="#344c08"><path d="M361.73236,92.95645c0.56007,-3.3286 3.479,-20.67664 4.25377,-25.2813c0.12035,-0.71526 0.77506,-1.02442 1.60365,-0.885c5.45931,0.91857 62.38738,10.49714 72.50251,12.19908c0.99091,0.16673 1.43961,0.81033 1.32603,1.48537c-0.46544,2.76619 -3.58933,21.33237 -4.39439,26.11705c-0.12042,0.7157 -0.60245,1.05346 -1.36786,0.92467c-9.10287,-1.53162 -67.98149,-11.43839 -73.09195,-12.29827c-0.69799,-0.11744 -1.01263,-1.18661 -0.83175,-2.2616z"/><path d="M429.01254,94.72194l0.96677,-5.74575l4.49213,0.75583l-0.96677,5.74575z"/><path d="M432.40224,100.11448l2.60148,-15.46129l2.65148,8.50306z"/><path d="M396.63077,92.41362l2.33844,-13.89794l2.50723,0.42186l-2.33843,13.89795z"/><path d="M403.59619,91.46782c0,0 1.42607,-4.39322 0.92455,-6.08296c-0.42149,-1.4201 -3.97083,-0.97976 -3.97083,-0.97976l-0.0752,-1.77086c0,0 5.93536,-0.06675 6.58641,1.63302c0.78983,2.06213 -0.56857,7.99735 -2.33507,8.99711c-2.07359,1.17357 -1.12986,-1.79656 -1.12986,-1.79656z"/><path d="M397.99783,92.62923l0.79856,-2.14745c0,0 1.39321,0.50769 2.27388,0.65587c0.92084,0.15493 2.71974,0.12968 2.71974,0.12968l0.09605,2.35263c0,0 -2.11048,-0.2458 -3.16232,-0.42278c-0.88013,-0.14809 -2.7259,-0.56796 -2.7259,-0.56796z"/><path d="M413.52165,92.83485c0,0 1.42606,-4.39322 0.92455,-6.08295c-0.42149,-1.4201 -3.97083,-0.97977 -3.97083,-0.97977l-0.0752,-1.77086c0,0 5.93537,-0.06676 6.58642,1.63302c0.78983,2.06213 -0.56857,7.99735 -2.33507,8.99712c-2.0736,1.17357 -1.12987,-1.79656 -1.12987,-1.79656z"/><path d="M411.4355,86.1036c0,0 -1.42606,4.39322 -0.92455,6.08296c0.42149,1.4201 3.97084,0.97977 3.97084,0.97977l0.0752,1.77086c0,0 -5.93536,0.06674 -6.58641,-1.63303c-0.78983,-2.06213 0.56856,-7.99735 2.33507,-8.99711c2.07359,-1.17357 1.12987,1.79656 1.12987,1.79656z"/><path d="M416.00167,95.14366l7.2336,-9.05465l3.15422,0.6849l-7.6846,9.09003z"/><path d="M422.12887,96.47084l-4.47846,-11.13655l3.30651,0.40217l4.05003,10.95321z"/><path d="M374.68924,86.31178c0,0 1.42607,-4.39322 0.92456,-6.08296c-0.42149,-1.4201 -3.97084,-0.97977 -3.97084,-0.97977l-0.0752,-1.77086c0,0 5.93536,-0.06675 6.58642,1.63302c0.78983,2.06213 -0.56856,7.99735 -2.33507,8.99713c-2.07359,1.17358 -1.12987,-1.79657 -1.12987,-1.79657z"/><path d="M372.60308,79.58053c0,0 -1.42607,4.39322 -0.92456,6.08296c0.42149,1.4201 3.97083,0.97976 3.97083,0.97976l0.07521,1.77085c0,0 -5.93537,0.06676 -6.58642,-1.63302c-0.78983,-2.06213 0.56856,-7.99735 2.33508,-8.99713c2.07359,-1.17357 1.12986,1.79658 1.12986,1.79658z"/><path d="M389.22523,80.02372l-1.82807,10.86469l-2.50723,-0.42186l1.82806,-10.86469z"/><path d="M382.43479,78.88119c0,0 -1.50198,6.82817 -1.00047,8.5179c0.42149,1.4201 3.81138,0.95294 3.81138,0.95294l0.23466,1.79769c0,0 -5.93537,0.06675 -6.58643,-1.63302c-0.78984,-2.06213 1.45149,-9.98708 1.45149,-9.98708z"/><path d="M390.66794,91.17858l2.33844,-13.89795l2.50723,0.42186l-2.33844,13.89795z"/><path d="M389.08938,83.05789l0.97826,-2.11722c0,0 2.00093,0.60995 3.25377,0.82074c1.31001,0.22042 3.8465,0.31928 3.8465,0.31928l0.29822,2.38665c0,0 -2.69177,-0.67738 -4.18815,-0.92916c-1.25211,-0.21068 -4.18861,-0.48029 -4.18861,-0.48029z"/></g><g><path d="M360.65798,90.53908c0.56007,-3.3286 3.47899,-20.67664 4.25376,-25.2813c0.12035,-0.71526 0.77506,-1.02442 1.60365,-0.885c5.45931,0.91857 62.38738,10.49714 72.50251,12.19909c0.99091,0.16673 1.43961,0.81032 1.32603,1.48536c-0.46544,2.76619 -3.58933,21.33237 -4.39439,26.11705c-0.12042,0.71569 -0.60244,1.05345 -1.36786,0.92467c-9.10287,-1.53162 -67.9815,-11.4384 -73.09195,-12.29827c-0.69799,-0.11744 -1.01262,-1.18661 -0.83174,-2.2616z" fill="#8ac916"/><path d="M427.93815,92.30457l0.96677,-5.74575l4.49214,0.75583l-0.96677,5.74575z" fill="#344c08"/><path d="M431.32785,97.6971l2.60148,-15.4613l2.65148,8.50306z" fill="#344c08"/><path d="M395.55638,89.99624l2.33844,-13.89795l2.50723,0.42186l-2.33843,13.89795z" fill="#344c08"/><path d="M402.5218,89.05045c0,0 1.42606,-4.39322 0.92455,-6.08296c-0.42149,-1.4201 -3.97084,-0.97976 -3.97084,-0.97976l-0.0752,-1.77086c0,0 5.93536,-0.06675 6.58642,1.63302c0.78983,2.06213 -0.56857,7.99735 -2.33507,8.99712c-2.07359,1.17357 -1.12986,-1.79656 -1.12986,-1.79656z" fill="#344c08"/><path d="M396.92344,90.21186l0.79856,-2.14745c0,0 1.39321,0.50769 2.27387,0.65587c0.92084,0.15493 2.71974,0.12968 2.71974,0.12968l0.09605,2.35263c0,0 -2.11048,-0.2458 -3.16231,-0.42278c-0.88013,-0.14809 -2.7259,-0.56796 -2.7259,-0.56796z" fill="#344c08"/><path d="M412.44726,90.41748c0,0 1.42606,-4.39322 0.92455,-6.08295c-0.42149,-1.4201 -3.97084,-0.97977 -3.97084,-0.97977l-0.0752,-1.77086c0,0 5.93537,-0.06676 6.58642,1.63302c0.78983,2.06213 -0.56856,7.99735 -2.33507,8.99712c-2.0736,1.17357 -1.12987,-1.79657 -1.12987,-1.79657z" fill="#344c08"/><path d="M410.36111,83.68623c0,0 -1.42606,4.39322 -0.92455,6.08296c0.42149,1.4201 3.97084,0.97977 3.97084,0.97977l0.0752,1.77085c0,0 -5.93536,0.06675 -6.58642,-1.63302c-0.78983,-2.06213 0.56856,-7.99736 2.33507,-8.99712c2.07359,-1.17357 1.12987,1.79657 1.12987,1.79657z" fill="#344c08"/><path d="M414.92728,92.72628l7.23361,-9.05465l3.15421,0.68491l-7.6846,9.09003z" fill="#344c08"/><path d="M421.05449,94.05347l-4.47847,-11.13655l3.30652,0.40217l4.05003,10.9532z" fill="#344c08"/><path d="M373.61485,83.89441c0,0 1.42607,-4.39322 0.92455,-6.08296c-0.42149,-1.4201 -3.97084,-0.97977 -3.97084,-0.97977l-0.0752,-1.77086c0,0 5.93537,-0.06675 6.58642,1.63302c0.78983,2.06213 -0.56856,7.99735 -2.33508,8.99713c-2.07359,1.17358 -1.12987,-1.79658 -1.12987,-1.79658z" fill="#344c08"/><path d="M371.52869,77.16316c0,0 -1.42607,4.39322 -0.92456,6.08295c0.42149,1.4201 3.97084,0.97976 3.97084,0.97976l0.07521,1.77085c0,0 -5.93536,0.06676 -6.58642,-1.63302c-0.78983,-2.06213 0.56856,-7.99735 2.33507,-8.99713c2.07359,-1.17357 1.12986,1.79658 1.12986,1.79658z" fill="#344c08"/><path d="M388.15084,77.60633l-1.82807,10.86469l-2.50723,-0.42186l1.82806,-10.8647z" fill="#344c08"/><path d="M381.3604,76.46381c0,0 -1.50198,6.82817 -1.00047,8.5179c0.42149,1.4201 3.81138,0.95294 3.81138,0.95294l0.23466,1.79768c0,0 -5.93536,0.06675 -6.58642,-1.63302c-0.78983,-2.06213 1.45149,-9.98708 1.45149,-9.98708z" fill="#344c08"/><path d="M389.59355,88.76121l2.33844,-13.89795l2.50723,0.42185l-2.33844,13.89795z" fill="#344c08"/><path d="M388.01499,80.64051l0.97825,-2.11722c0,0 2.00093,0.60995 3.25378,0.82074c1.31001,0.22042 3.8465,0.31928 3.8465,0.31928l0.29822,2.38665c0,0 -2.69177,-0.67738 -4.18815,-0.92916c-1.25211,-0.21068 -4.1886,-0.48029 -4.1886,-0.48029z" fill="#344c08"/></g></g><g><g fill="#7f4242"><path d="M356.12318,76.12314c0.54017,-3.14964 3.3555,-19.56496 4.10276,-23.92205c0.11607,-0.67679 0.57583,-0.99514 1.13222,-0.89972c3.66598,0.62874 41.89365,7.18498 48.68605,8.34992c0.66541,0.11412 0.93948,0.69925 0.82993,1.338c-0.44891,2.61747 -3.46192,20.18543 -4.23839,24.71287c-0.11615,0.67721 -0.4599,1.01504 -0.97389,0.92688c-6.11265,-1.04835 -45.65016,-7.82925 -49.08187,-8.4178c-0.46872,-0.08039 -0.63127,-1.07088 -0.45681,-2.08808z" stroke="none" stroke-width="0"/><path d="M408.86793,86.01022c0.387,-2.25648 2.40395,-14.01681 2.93932,-17.13834c0.08317,-0.48487 0.28091,-0.73553 0.49345,-0.69908c1.40035,0.24017 16.00279,2.74457 18.5974,3.18956c0.25418,0.0436 0.32888,0.44194 0.2504,0.89955c-0.32161,1.87522 -2.4802,14.46135 -3.03649,17.70491c-0.08321,0.48517 -0.23663,0.74312 -0.43297,0.70945c-2.33495,-0.40046 -17.43772,-2.99067 -18.7486,-3.21549c-0.17903,-0.03071 -0.1875,-0.72179 -0.06252,-1.45055z" stroke="none" stroke-width="0"/><path d="M360.79671,71.40766c0.31745,-1.85095 1.97192,-11.49775 2.41107,-14.05828c0.06822,-0.39774 0.20956,-0.60692 0.3544,-0.58208c0.95432,0.16367 8.98805,1.54151 10.75625,1.84475c0.08494,0.01457 0.63521,0.56029 1.05761,1.18999c0.43906,0.6545 0.74856,1.39711 0.71575,1.58843c-0.26382,1.53822 -1.7393,10.14139 -2.19561,12.80203c-0.06826,0.39798 -0.17939,0.61209 -0.31318,0.58915c-1.59124,-0.27291 -11.88363,-2.0381 -12.77697,-2.19132c-0.12201,-0.02093 -0.11183,-0.58489 -0.0093,-1.18266z" stroke="#7f4242" stroke-width="2"/><path d="M367.3888,74.92272c0.21645,-1.26211 1.3446,-7.84 1.64405,-9.58596c0.04651,-0.27121 0.14288,-0.41384 0.24165,-0.3969c0.65073,0.11161 6.12872,1.05112 7.3344,1.25789c0.05791,0.00994 0.43311,0.38205 0.72115,0.8114c0.29939,0.44629 0.51043,0.95266 0.48805,1.08311c-0.17989,1.04886 -1.18597,6.91514 -1.49713,8.72935c-0.04654,0.27137 -0.12232,0.41737 -0.21355,0.40172c-1.08502,-0.18609 -8.10313,-1.38972 -8.71227,-1.4942c-0.08321,-0.01427 -0.07625,-0.39881 -0.00634,-0.80643z" stroke="#7f4242" stroke-width="2"/><g stroke="none" stroke-width="0"><path d="M381.56284,66.29036c-0.99425,-1.1076 -0.51124,-5.47803 0.5392,-6.69173c0.86586,-1.00043 5.0015,0.47862 5.0015,0.47862l-0.48023,1.18793c0,0 -2.37641,-1.15719 -3.01416,-0.29179c-0.75884,1.0297 -0.82216,4.36628 -0.82216,4.36628c0,0 -0.05708,2.25084 -1.22415,0.9507z"/><path d="M384.37867,67.21129c-0.77849,-0.13351 -2.31411,-0.47586 -2.31411,-0.47586l0.63528,-1.57913c0,0 1.25222,0.45168 1.93376,0.56857c0.6518,0.11179 1.74895,0.10252 1.74895,0.10252l0.04003,1.65546c0,0 -1.39249,-0.15985 -2.0439,-0.27157z"/><path d="M391.28707,66.61186c0,0 1.03977,-3.1691 0.68149,-4.3904c-0.30112,-1.02641 -2.86511,-0.71654 -2.86511,-0.71654l-0.05027,-1.27891c0,0 4.28609,-0.03467 4.75234,1.19422c0.56565,1.49087 -0.42879,5.7736 -1.70667,6.49151c-1.50001,0.84271 -0.8118,-1.29989 -0.8118,-1.29989z"/><path d="M389.79603,61.74647c0,0 -1.03978,3.16909 -0.6815,4.39039c0.30112,1.02642 2.86511,0.71655 2.86511,0.71655l0.05027,1.27891c0,0 -4.28609,0.03467 -4.75234,-1.19422c-0.56565,-1.49087 0.42879,-5.7736 1.70667,-6.49152c1.50001,-0.84271 0.81179,1.29989 0.81179,1.29989z"/><path d="M396.68208,61.31879l-1.61383,9.40981l-1.74085,-0.29856l1.61383,-9.40981z"/><path d="M400.44626,62.3109c0.93273,1.03905 0.47961,5.13911 -0.50583,6.27772c-0.81228,0.93852 -4.69205,-0.449 -4.69205,-0.449l0.45051,-1.11444c0,0 2.2294,1.08559 2.82768,0.27374c0.71189,-0.966 0.77129,-4.09613 0.77129,-4.09613c0,0 0.05354,-2.11157 1.14841,-0.89189z"/><path d="M397.80461,61.44698c0.73032,0.12526 2.17094,0.44641 2.17094,0.44641l-0.59598,1.48143c0,0 -1.17476,-0.42374 -1.81412,-0.53339c-0.61146,-0.10487 -1.64073,-0.09617 -1.64073,-0.09617l-0.03756,-1.55303c0,0 1.30634,0.14997 1.91744,0.25477z"/><path d="M406.05689,64.0069c0,0 0.6204,-0.3531 0.89015,-0.43106c0.25514,-0.07375 0.68696,-0.02477 0.68696,-0.02477l-1.24404,7.25364c0,0 -0.59156,0.89373 -0.98017,1.13472c-0.23609,0.1464 -1.16163,0.23097 -1.16163,0.23097l-0.04444,-1.44431l0.68809,-0.21804l1.16508,-6.50116z"/><path d="M402.81105,62.81168c1.25262,-0.7313 0.66953,1.11315 0.66953,1.11315c0,0 -0.88059,2.72823 -0.58816,3.77602c0.24577,0.88059 2.38151,0.60211 2.38151,0.60211l0.03576,1.09876c0,0 -3.56789,0.0502 -3.95014,-1.00361c-0.46375,-1.27844 0.3844,-4.96343 1.45151,-5.58641z"/><path d="M402.41127,71.9111c-0.52823,-0.09059 -1.63541,-0.34841 -1.63541,-0.34841l0.49144,-1.33373c0,0 0.83471,0.31298 1.36325,0.40363c0.55266,0.09479 1.63406,0.07645 1.63406,0.07645l0.04518,1.45973c0,0 -1.26722,-0.14941 -1.8985,-0.25768z"/></g><path d="M395.7657,81.8767c0,0 1.01724,-3.10042 0.66672,-4.29526c-0.2946,-1.00417 -2.80303,-0.70101 -2.80303,-0.70101l-0.04918,-1.25119c0,0 4.1932,-0.03393 4.64936,1.16833c0.55339,1.45855 -0.41951,5.64849 -1.66969,6.35085c-1.46752,0.82445 -0.79419,-1.27172 -0.79419,-1.27172z" stroke="none" stroke-width="0"/><path d="M394.30693,77.11673c0,0 -1.01724,3.10043 -0.66672,4.29526c0.2946,1.00417 2.80302,0.70102 2.80302,0.70102l0.04918,1.25119c0,0 -4.19321,0.03393 -4.64936,-1.16834c-0.55339,-1.45855 0.41951,-5.64849 1.6697,-6.35085c1.46751,-0.82444 0.79419,1.27172 0.79419,1.27172z" stroke="none" stroke-width="0"/><path d="M387.08949,81.81765l1.68299,-9.81304l1.7703,0.30361l-1.68299,9.81305z" stroke="none" stroke-width="0"/><path d="M385.99243,76.07724l0.69581,-1.49353c0,0 1.4122,0.43536 2.29681,0.58707c0.92497,0.15864 2.71666,0.23413 2.71666,0.23413l0.20535,1.68672c0,0 -1.90009,-0.48455 -2.95665,-0.66575c-0.88409,-0.15162 -2.95799,-0.34863 -2.95799,-0.34863z" stroke="none" stroke-width="0"/></g><g><path d="M355.0488,74.51155c0.54017,-3.14964 3.35549,-19.56496 4.10276,-23.92205c0.11607,-0.67679 0.57583,-0.99514 1.13222,-0.89972c3.66598,0.62874 41.89365,7.18498 48.68605,8.34992c0.66541,0.11412 0.93948,0.69925 0.82993,1.338c-0.44891,2.61747 -3.46192,20.18543 -4.23839,24.71286c-0.11615,0.67721 -0.4599,1.01504 -0.97389,0.92688c-6.11266,-1.04835 -45.65016,-7.82926 -49.08188,-8.41781c-0.46871,-0.08039 -0.63126,-1.07088 -0.4568,-2.08808z" fill="#c96969" stroke="none" stroke-width="0"/><path d="M407.79354,84.39864c0.387,-2.25648 2.40395,-14.01681 2.93932,-17.13834c0.08317,-0.48487 0.28091,-0.73553 0.49345,-0.69908c1.40035,0.24017 16.00279,2.74457 18.5974,3.18956c0.25418,0.0436 0.32889,0.44194 0.25041,0.89955c-0.32161,1.87522 -2.4802,14.46134 -3.03649,17.70491c-0.08321,0.48518 -0.23662,0.74312 -0.43296,0.70945c-2.33495,-0.40045 -17.43772,-2.99066 -18.7486,-3.21549c-0.17903,-0.03071 -0.1875,-0.72179 -0.06251,-1.45054z" fill="#c96969" stroke="none" stroke-width="0"/><path d="M359.72232,69.79607c0.31745,-1.85095 1.97192,-11.49775 2.41107,-14.05828c0.06822,-0.39774 0.20956,-0.60692 0.3544,-0.58208c0.95432,0.16367 8.98805,1.54151 10.75625,1.84476c0.08494,0.01457 0.63521,0.56029 1.05761,1.18998c0.43906,0.6545 0.74856,1.39711 0.71575,1.58843c-0.26382,1.53822 -1.7393,10.14138 -2.19561,12.80202c-0.06826,0.39798 -0.17939,0.6121 -0.31319,0.58916c-1.59124,-0.27291 -11.88362,-2.03811 -12.77697,-2.19132c-0.12201,-0.02093 -0.11183,-0.58489 -0.0093,-1.18266z" fill="#c96969" stroke="#7f4242" stroke-width="2"/><path d="M366.31441,73.31114c0.21645,-1.26211 1.3446,-7.84 1.64405,-9.58596c0.04651,-0.27121 0.14289,-0.41385 0.24166,-0.3969c0.65073,0.11161 6.12871,1.05112 7.33439,1.25789c0.05791,0.00994 0.43311,0.38205 0.72115,0.81141c0.29939,0.44629 0.51044,0.95266 0.48806,1.08311c-0.17989,1.04886 -1.18598,6.91514 -1.49714,8.72935c-0.04654,0.27137 -0.12232,0.41737 -0.21355,0.40172c-1.08502,-0.18609 -8.10313,-1.38973 -8.71227,-1.4942c-0.08321,-0.01427 -0.07625,-0.39881 -0.00634,-0.80643z" fill="#c96969" stroke="#7f4242" stroke-width="2"/><g fill="#7f4242" stroke="none" stroke-width="0"><path d="M380.48846,64.67878c-0.99425,-1.1076 -0.51125,-5.47803 0.5392,-6.69173c0.86586,-1.00043 5.0015,0.47862 5.0015,0.47862l-0.48023,1.18793c0,0 -2.37641,-1.15718 -3.01416,-0.29179c-0.75884,1.0297 -0.82216,4.36627 -0.82216,4.36627c0,0 -0.05707,2.25084 -1.22415,0.9507z"/><path d="M383.30428,65.5997c-0.77849,-0.13351 -2.31411,-0.47586 -2.31411,-0.47586l0.63528,-1.57912c0,0 1.25222,0.45169 1.93376,0.56857c0.6518,0.11179 1.74895,0.10252 1.74895,0.10252l0.04003,1.65545c0,0 -1.39249,-0.15984 -2.0439,-0.27156z"/><path d="M390.21268,65.00028c0,0 1.03977,-3.16909 0.68149,-4.3904c-0.30112,-1.02641 -2.86511,-0.71655 -2.86511,-0.71655l-0.05027,-1.27891c0,0 4.28609,-0.03467 4.75234,1.19422c0.56565,1.49087 -0.42879,5.7736 -1.70667,6.49151c-1.50001,0.84271 -0.8118,-1.29989 -0.8118,-1.29989z"/><path d="M388.72164,60.13488c0,0 -1.03978,3.16909 -0.6815,4.3904c0.30112,1.02642 2.86511,0.71654 2.86511,0.71654l0.05027,1.27891c0,0 -4.28609,0.03467 -4.75234,-1.19422c-0.56565,-1.49087 0.42879,-5.77361 1.70667,-6.49152c1.50001,-0.84271 0.81179,1.2999 0.81179,1.2999z"/><path d="M395.60769,59.70721l-1.61384,9.40981l-1.74085,-0.29857l1.61384,-9.40981z"/><path d="M399.37187,60.69931c0.93273,1.03905 0.47961,5.13911 -0.50583,6.27772c-0.81229,0.93852 -4.69206,-0.449 -4.69206,-0.449l0.45052,-1.11443c0,0 2.2294,1.08559 2.82768,0.27373c0.71188,-0.966 0.77128,-4.09612 0.77128,-4.09612c0,0 0.05354,-2.11157 1.14841,-0.89189z"/><path d="M396.73022,59.8354c0.73032,0.12526 2.17094,0.4464 2.17094,0.4464l-0.59598,1.48144c0,0 -1.17476,-0.42374 -1.81412,-0.53339c-0.61146,-0.10487 -1.64073,-0.09617 -1.64073,-0.09617l-0.03756,-1.55303c0,0 1.30633,0.14997 1.91744,0.25477z"/><path d="M404.9825,62.39532c0,0 0.6204,-0.3531 0.89015,-0.43107c0.25514,-0.07375 0.68696,-0.02476 0.68696,-0.02476l-1.24404,7.25364c0,0 -0.59156,0.89373 -0.98017,1.13472c-0.23609,0.1464 -1.16163,0.23096 -1.16163,0.23096l-0.04444,-1.4443l0.68809,-0.21804l1.16509,-6.50116z"/><path d="M401.73666,61.2001c1.25261,-0.7313 0.66953,1.11315 0.66953,1.11315c0,0 -0.88058,2.72823 -0.58816,3.77602c0.24577,0.88059 2.3815,0.60211 2.3815,0.60211l0.03576,1.09876c0,0 -3.56789,0.0502 -3.95014,-1.0036c-0.46375,-1.27844 0.3844,-4.96343 1.45151,-5.58642z"/><path d="M401.33688,70.29951c-0.52823,-0.09059 -1.63541,-0.3484 -1.63541,-0.3484l0.49144,-1.33374c0,0 0.83471,0.31298 1.36325,0.40362c0.55266,0.09479 1.63406,0.07645 1.63406,0.07645l0.04518,1.45972c0,0 -1.26722,-0.14941 -1.8985,-0.25768z"/></g><path d="M394.69131,80.26513c0,0 1.01725,-3.10042 0.66672,-4.29526c-0.2946,-1.00417 -2.80303,-0.70102 -2.80303,-0.70102l-0.04918,-1.2512c0,0 4.1932,-0.03393 4.64936,1.16834c0.55339,1.45855 -0.4195,5.64849 -1.66969,6.35085c-1.46751,0.82444 -0.7942,-1.27172 -0.7942,-1.27172z" fill="#7f4242" stroke="none" stroke-width="0"/><path d="M393.23255,75.50514c0,0 -1.01725,3.10043 -0.66673,4.29527c0.29461,1.00417 2.80303,0.70101 2.80303,0.70101l0.04918,1.25119c0,0 -4.1932,0.03393 -4.64936,-1.16834c-0.55339,-1.45855 0.4195,-5.64849 1.66969,-6.35084c1.46751,-0.82444 0.79419,1.27172 0.79419,1.27172z" fill="#7f4242" stroke="none" stroke-width="0"/><path d="M386.0151,80.20607l1.68299,-9.81305l1.7703,0.30362l-1.68299,9.81304z" fill="#7f4242" stroke="none" stroke-width="0"/><path d="M384.91804,74.46566l0.69581,-1.49354c0,0 1.4122,0.43535 2.29681,0.58707c0.92497,0.15864 2.71666,0.23414 2.71666,0.23414l0.20535,1.68672c0,0 -1.90009,-0.48455 -2.95665,-0.66575c-0.88409,-0.15162 -2.95799,-0.34864 -2.95799,-0.34864z" fill="#7f4242" stroke="none" stroke-width="0"/></g></g><g stroke="none" stroke-width="0"><g fill="#5f4631"><path d="M347.13474,62.64794c0.49614,-2.95511 3.08193,-18.35653 3.76828,-22.44451c0.10661,-0.635 0.53667,-0.93502 1.0587,-0.84737c3.43954,0.57747 39.30611,6.59923 45.67897,7.66918c0.6243,0.10482 0.88322,0.65258 0.7826,1.25188c-0.41232,2.45579 -3.17967,18.93868 -3.89285,23.18648c-0.10667,0.63539 -0.4279,0.95328 -0.91014,0.87232c-5.73511,-0.96289 -42.83058,-7.19096 -46.05034,-7.73154c-0.43977,-0.07383 -0.59544,-1.00206 -0.4352,-1.95643z"/><path d="M396.52415,71.53101c0.35545,-2.11712 2.20798,-13.15107 2.69969,-16.0798c0.07638,-0.45493 0.26099,-0.69061 0.46039,-0.65713c1.31386,0.22058 15.01439,2.52081 17.44874,2.92952c0.23847,0.04003 0.30984,0.41331 0.23775,0.84267c-0.29539,1.7594 -2.278,13.56814 -2.78894,16.61137c-0.07642,0.45521 -0.21943,0.69759 -0.40364,0.66666c-2.19074,-0.36781 -16.36069,-2.74686 -17.5906,-2.95334c-0.16798,-0.02821 -0.17818,-0.6762 -0.06339,-1.35994z"/><g><path d="M385.13999,56.57712c0,0 2.56793,0.71461 4.16898,0.98342c1.67413,0.28107 4.90259,0.48295 4.90259,0.48295l-0.48163,2.71612c0,0 -2.4933,-1.02481 -4.40559,-1.34586c-1.60013,-0.26865 -4.68819,-0.46093 -4.68819,-0.46093z"/><path d="M391.48867,54.19177c0,0 -0.71461,2.56793 -0.98342,4.16899c-0.28107,1.67413 -0.48294,4.90259 -0.48294,4.90259l-2.71613,-0.48162c0,0 1.0248,-2.4933 1.34587,-4.40561c0.26864,-1.60012 0.46093,-4.68819 0.46093,-4.68819z"/></g><g><path d="M350.77844,57.20395l1.71173,-10.19537l1.78131,0.29907l-1.71173,10.19538z"/><path d="M356.53175,57.79492c-1.47859,0.86847 -0.79707,-1.31217 -0.79707,-1.31217c0,0 1.02951,-3.22558 0.67884,-4.46198c-0.29471,-1.03911 -2.82007,-0.70206 -2.82007,-0.70206l-0.04724,-1.29758c0,0 4.22067,-0.07285 4.67761,1.17028c0.55436,1.50815 -0.43246,5.86365 -1.69208,6.6035z"/><path d="M353.68602,57.76172c-0.62531,-0.10498 -1.9363,-0.40526 -1.9363,-0.40526l0.57539,-1.5771c0,0 0.98888,0.36648 1.61457,0.47152c0.65423,0.10984 1.93346,0.08409 1.93346,0.08409l0.06002,1.72388c0,0 -1.49982,-0.17164 -2.24713,-0.29711z"/><path d="M361.14039,52.45078c0,0 -1.11386,3.43555 -0.72125,4.75665c0.32997,1.11029 3.10516,0.765 3.10516,0.765l0.05929,1.38466c0,0 -4.64097,0.05384 -5.15052,-1.27507c-0.61817,-1.61221 0.44235,-6.25347 1.82335,-7.03572c1.62105,-0.91822 0.88397,1.40447 0.88397,1.40447z"/><path d="M365.56775,52.45054l-0.93217,5.88701l0.66065,0.41399l-0.53042,1.20667c0,0 -0.95845,-0.38035 -1.16117,-0.58294c-0.33371,-0.33347 -0.66546,-1.28671 -0.66546,-1.28671c0,0 0.72096,-5.90345 1.48314,-6.28353c0.652,-0.32513 1.14541,0.64552 1.14541,0.64552z"/></g><g><path d="M378.66172,54.59576l-1.58605,9.44679l-1.7477,-0.29343l1.58605,-9.44678z"/><path d="M382.44185,55.57794c0.9395,1.03923 0.49931,5.15451 -0.4854,6.30036c-0.81168,0.9445 -4.70924,-0.43396 -4.70924,-0.43396l0.44808,-1.11972c0,0 2.24063,1.08135 2.83805,0.26468c0.71084,-0.97172 0.75942,-4.11247 0.75942,-4.11247c0,0 0.04629,-2.11877 1.14909,-0.89889z"/><path d="M379.78841,54.72042c0.73319,0.12311 2.17973,0.44026 2.17973,0.44026l-0.59274,1.48845c0,0 -1.18015,-0.42102 -1.82203,-0.52878c-0.61387,-0.10306 -1.64652,-0.09071 -1.64652,-0.09071l-0.04315,-1.55806c0,0 1.31121,0.14586 1.92471,0.24886z"/><path d="M365.43395,59.65966l1.23988,-7.385l1.70424,0.28612l-1.23989,7.38501z"/><path d="M370.04957,60.4346c0,0 1.01923,-4.64136 0.67795,-5.78972c-0.28682,-0.96513 -2.59078,-0.64678 -2.59078,-0.64678l-0.15992,-1.2218c0,0 4.03416,-0.0468 4.47708,1.10836c0.53734,1.4014 -0.98415,6.7884 -0.98415,6.7884z"/><path d="M373.67722,61.04366c0,0 1.01923,-4.64136 0.67795,-5.78972c-0.28682,-0.96513 -2.59077,-0.64678 -2.59077,-0.64678l-0.15993,-1.2218c0,0 4.03416,-0.0468 4.47708,1.10836c0.53734,1.4014 -0.98415,6.78841 -0.98415,6.78841z"/></g></g><g><path d="M346.77661,61.21543c0.49614,-2.95511 3.08194,-18.35653 3.76828,-22.44451c0.10661,-0.635 0.53666,-0.93502 1.05869,-0.84737c3.43955,0.57747 39.30611,6.59923 45.67897,7.66918c0.6243,0.10482 0.88322,0.65258 0.78261,1.25188c-0.41232,2.4558 -3.17967,18.93868 -3.89286,23.18648c-0.10667,0.63539 -0.4279,0.95328 -0.91014,0.87232c-5.73511,-0.96289 -42.83058,-7.19096 -46.05034,-7.73154c-0.43977,-0.07383 -0.59544,-1.00206 -0.43521,-1.95643z" fill="#e0a575"/><path d="M396.16601,70.09849c0.35545,-2.11712 2.20798,-13.15108 2.69969,-16.07981c0.07638,-0.45493 0.26099,-0.69061 0.46039,-0.65713c1.31386,0.22058 15.01438,2.52081 17.44874,2.92952c0.23847,0.04003 0.30984,0.41331 0.23776,0.84266c-0.29539,1.7594 -2.27799,13.56815 -2.78893,16.61137c-0.07642,0.45521 -0.21944,0.69758 -0.40365,0.66665c-2.19074,-0.36781 -16.36069,-2.74685 -17.5906,-2.95334c-0.16798,-0.02821 -0.17819,-0.67619 -0.06339,-1.35993z" fill="#e0a575"/><g fill="#a17654"><path d="M384.78185,55.1446c0,0 2.56794,0.71461 4.16899,0.98341c1.67413,0.28107 4.90258,0.48296 4.90258,0.48296l-0.48163,2.71612c0,0 -2.49329,-1.02481 -4.40559,-1.34586c-1.60013,-0.26865 -4.6882,-0.46093 -4.6882,-0.46093z"/><path d="M391.13055,52.75925c0,0 -0.71461,2.56794 -0.98342,4.16899c-0.28107,1.67413 -0.48295,4.90258 -0.48295,4.90258l-2.71612,-0.48162c0,0 1.0248,-2.49329 1.34587,-4.40561c0.26864,-1.60012 0.46092,-4.6882 0.46092,-4.6882z"/></g><g fill="#a17654"><path d="M350.42031,55.77143l1.71173,-10.19538l1.78132,0.29907l-1.71173,10.19538z"/><path d="M356.17362,56.36239c-1.47859,0.86848 -0.79708,-1.31217 -0.79708,-1.31217c0,0 1.0295,-3.22558 0.67883,-4.46198c-0.29471,-1.03911 -2.82007,-0.70206 -2.82007,-0.70206l-0.04724,-1.29758c0,0 4.22067,-0.07286 4.67761,1.17028c0.55436,1.50815 -0.43246,5.86365 -1.69209,6.6035z"/><path d="M353.32789,56.3292c-0.62531,-0.10498 -1.9363,-0.40526 -1.9363,-0.40526l0.57539,-1.5771c0,0 0.98888,0.36647 1.61457,0.47151c0.65423,0.10984 1.93345,0.0841 1.93345,0.0841l0.06002,1.72388c0,0 -1.49982,-0.17165 -2.24713,-0.29711z"/><path d="M360.78227,51.01826c0,0 -1.11386,3.43555 -0.72125,4.75665c0.32997,1.11029 3.10516,0.765 3.10516,0.765l0.0593,1.38466c0,0 -4.64097,0.05384 -5.15052,-1.27508c-0.61817,-1.61221 0.44235,-6.25347 1.82336,-7.03571c1.62105,-0.91822 0.88397,1.40448 0.88397,1.40448z"/><path d="M365.20962,51.01802l-0.93217,5.887l0.66065,0.41399l-0.53042,1.20667c0,0 -0.95844,-0.38035 -1.16116,-0.58294c-0.33371,-0.33347 -0.66546,-1.28671 -0.66546,-1.28671c0,0 0.72097,-5.90344 1.48314,-6.28354c0.652,-0.32513 1.1454,0.64552 1.1454,0.64552z"/></g><g fill="#a17654"><path d="M378.30358,53.16325l-1.58605,9.44679l-1.74769,-0.29343l1.58605,-9.44679z"/><path d="M382.08372,54.14542c0.9395,1.03923 0.49931,5.15451 -0.4854,6.30036c-0.81168,0.9445 -4.70924,-0.43396 -4.70924,-0.43396l0.44808,-1.11973c0,0 2.24063,1.08134 2.83805,0.26468c0.71085,-0.97172 0.75942,-4.11246 0.75942,-4.11246c0,0 0.04628,-2.11878 1.14909,-0.89889z"/><path d="M379.43028,53.2879c0.7332,0.12311 2.17974,0.44025 2.17974,0.44025l-0.59274,1.48845c0,0 -1.18015,-0.42102 -1.82203,-0.52878c-0.61387,-0.10306 -1.64652,-0.09072 -1.64652,-0.09072l-0.04316,-1.55806c0,0 1.31121,0.14586 1.92472,0.24886z"/><path d="M365.07581,58.22715l1.23989,-7.385l1.70424,0.28612l-1.23989,7.385z"/><path d="M369.69144,59.00208c0,0 1.01923,-4.64137 0.67795,-5.78973c-0.28682,-0.96513 -2.59077,-0.64677 -2.59077,-0.64677l-0.15992,-1.2218c0,0 4.03416,-0.04681 4.47707,1.10835c0.53734,1.4014 -0.98415,6.78841 -0.98415,6.78841z"/><path d="M373.3191,59.61114c0,0 1.01923,-4.64137 0.67795,-5.78973c-0.28683,-0.96513 -2.59077,-0.64678 -2.59077,-0.64678l-0.15993,-1.2218c0,0 4.03416,-0.04681 4.47707,1.10835c0.53734,1.4014 -0.98414,6.78841 -0.98414,6.78841z"/></g></g></g><g stroke="none" stroke-width="0"><g fill="#344c08"><path d="M337.24272,48.33476c0.57889,-3.42174 3.59595,-21.2552 4.39676,-25.98872c0.12439,-0.73526 0.72921,-1.06413 1.484,-0.93644c4.97312,0.84135 56.83138,9.61471 66.0457,11.17358c0.90267,0.15272 1.30001,0.80411 1.18261,1.49804c-0.48108,2.84359 -3.70998,21.92928 -4.5421,26.84785c-0.12447,0.73572 -0.57198,1.09073 -1.26923,0.97276c-8.29221,-1.40287 -61.92732,-10.47684 -66.58266,-11.26443c-0.63583,-0.10757 -0.90204,-1.19759 -0.71509,-2.30266z"/><path d="M339.59652,37.68647l0.99927,-5.90653l5.69174,0.96292l-0.99926,5.90653z"/><path d="M344.18322,43.87523l2.68892,-15.89392l2.71823,8.74475z"/><path d="M351.005,44.03515l1.87135,-11.06132l2.5774,0.43605l-1.87135,11.06131z"/><path d="M355.92684,44.97827l1.88953,-11.1687l2.57739,0.43604l-1.88952,11.16871z"/><path d="M362.90728,46.15924c0,0 1.55054,-7.01891 1.03648,-8.75665c-0.43204,-1.46044 -3.91775,-0.98326 -3.91775,-0.98326l-0.23959,-1.84849c0,0 6.10242,-0.06315 6.77023,1.68504c0.81017,2.12087 -1.50153,10.26674 -1.50153,10.26674z"/><path d="M367.04696,46.78078l2.41704,-14.28684l2.5774,0.43605l-2.41705,14.28684z"/><path d="M374.20922,45.81479c0,0 1.47023,-4.51552 0.95618,-6.25326c-0.43204,-1.46044 -4.08166,-1.01099 -4.08166,-1.01099l-0.07569,-1.82076c0,0 6.10243,-0.06315 6.77023,1.68504c0.81017,2.12087 -0.59193,8.22185 -2.40907,9.24811c-2.13301,1.20468 -1.15999,-1.84815 -1.15999,-1.84815z"/><path d="M368.45227,47.00372l0.82301,-2.20714c0,0 1.43195,0.52326 2.33725,0.67642c0.9466,0.16015 2.79614,0.13584 2.79614,0.13584l0.09658,2.41892c0,0 -2.16963,-0.25466 -3.2509,-0.43759c-0.90476,-0.15306 -2.80207,-0.58646 -2.80207,-0.58646z"/><path d="M384.41271,47.22944c0,0 1.47024,-4.51551 0.95618,-6.25325c-0.43204,-1.46044 -4.08166,-1.011 -4.08166,-1.011l-0.07569,-1.82076c0,0 6.10243,-0.06315 6.77024,1.68504c0.81016,2.12087 -0.59193,8.22185 -2.40907,9.24811c-2.13301,1.20468 -1.16,-1.84815 -1.16,-1.84815z"/><path d="M382.27405,40.30688c0,0 -1.47023,4.51552 -0.95617,6.25325c0.43204,1.46044 4.08166,1.01099 4.08166,1.01099l0.07569,1.82076c0,0 -6.10242,0.06315 -6.77023,-1.68504c-0.81016,-2.12087 0.59193,-8.22184 2.40905,-9.24812c2.13301,-1.20468 1.16001,1.84815 1.16001,1.84815z"/><path d="M386.96037,49.60549l7.44548,-9.30275l3.24234,0.70707l-7.9092,9.33871z"/><path d="M393.25876,50.97566l-4.59422,-11.45404l3.39918,0.41654l4.15387,11.26513z"/></g><g><path d="M335.63114,46.36505c0.57889,-3.42174 3.59595,-21.2552 4.39676,-25.98871c0.12439,-0.73526 0.72922,-1.06413 1.48401,-0.93644c4.97312,0.84135 56.83138,9.61471 66.04571,11.17359c0.90267,0.15272 1.30002,0.80411 1.18261,1.49804c-0.48108,2.84359 -3.70999,21.92927 -4.54211,26.84784c-0.12447,0.73572 -0.57198,1.09073 -1.26923,0.97277c-8.2922,-1.40287 -61.92731,-10.47684 -66.58265,-11.26442c-0.63583,-0.10757 -0.90205,-1.19759 -0.71509,-2.30266z" fill="#8ac916"/><path d="M337.98493,35.71675l0.99926,-5.90653l5.69175,0.96293l-0.99927,5.90653z" fill="#344c08"/><path d="M342.57163,41.90552l2.68892,-15.89392l2.71824,8.74475z" fill="#344c08"/><path d="M349.39342,42.06543l1.87135,-11.06131l2.57739,0.43604l-1.87134,11.06132z" fill="#344c08"/><path d="M354.31526,43.00858l1.88952,-11.16871l2.57739,0.43604l-1.88952,11.16871z" fill="#344c08"/><path d="M361.2957,44.18952c0,0 1.55053,-7.01891 1.03647,-8.75664c-0.43204,-1.46044 -3.91774,-0.98327 -3.91774,-0.98327l-0.2396,-1.84849c0,0 6.10242,-0.06315 6.77023,1.68504c0.81017,2.12087 -1.50153,10.26674 -1.50153,10.26674z" fill="#344c08"/><path d="M365.43538,44.81105l2.41704,-14.28684l2.5774,0.43604l-2.41704,14.28684z" fill="#344c08"/><path d="M372.59764,43.84507c0,0 1.47023,-4.51551 0.95617,-6.25325c-0.43204,-1.46044 -4.08166,-1.011 -4.08166,-1.011l-0.07569,-1.82075c0,0 6.10243,-0.06315 6.77023,1.68504c0.81017,2.12087 -0.59193,8.22185 -2.40907,9.24811c-2.13301,1.20468 -1.15999,-1.84815 -1.15999,-1.84815z" fill="#344c08"/><path d="M366.84069,45.03401l0.82301,-2.20714c0,0 1.43194,0.52326 2.33724,0.67642c0.9466,0.16015 2.79614,0.13584 2.79614,0.13584l0.09658,2.41892c0,0 -2.16963,-0.25466 -3.2509,-0.43759c-0.90476,-0.15306 -2.80207,-0.58646 -2.80207,-0.58646z" fill="#344c08"/><path d="M382.80113,45.25972c0,0 1.47024,-4.51551 0.95618,-6.25325c-0.43204,-1.46044 -4.08167,-1.011 -4.08167,-1.011l-0.07569,-1.82076c0,0 6.10243,-0.06315 6.77024,1.68504c0.81016,2.12087 -0.59193,8.22185 -2.40907,9.24811c-2.13301,1.20468 -1.15999,-1.84815 -1.15999,-1.84815z" fill="#344c08"/><path d="M380.66246,38.33715c0,0 -1.47023,4.51551 -0.95617,6.25325c0.43204,1.46044 4.08166,1.011 4.08166,1.011l0.07569,1.82075c0,0 -6.10242,0.06315 -6.77023,-1.68503c-0.81016,-2.12087 0.59193,-8.22185 2.40905,-9.24813c2.13301,-1.20468 1.16001,1.84815 1.16001,1.84815z" fill="#344c08"/><path d="M385.34879,47.63577l7.44549,-9.30275l3.24233,0.70707l-7.9092,9.33871z" fill="#344c08"/><path d="M391.64718,49.00594l-4.59421,-11.45403l3.39917,0.41653l4.15387,11.26513z" fill="#344c08"/></g></g><g stroke="none" stroke-width="0"><path d="M451.48624,94.33483c0,0 8.76137,-31.52048 -10.13723,-55.64115c-12.97314,-16.55788 -42.13119,-9.01423 -42.13119,-9.01423l1.91692,4.11199l-9.44527,-2.52722l3.01379,-8.17653l2.63292,2.75915c0,0 24.80177,-11.50017 47.33963,8.39363c25.29272,22.32547 10.49035,62.21435 10.49035,62.21435z" fill="#426b7f"/><path d="M448.54165,95.22631c0,0 8.76137,-31.52047 -10.13723,-55.64115c-12.97314,-16.55788 -42.13119,-9.01423 -42.13119,-9.01423l1.91692,4.11199l-9.44527,-2.52722l3.01379,-8.17654l2.63293,2.75916c0,0 24.80176,-11.50017 47.33963,8.39363c25.29272,22.32547 10.49035,62.21435 10.49035,62.21435z" fill="#69a9c9"/></g></g><path d="M-13.79114,97.10165l1,-45.5l67,-66.5l35,1.5z" fill="#00b5ff" stroke="none" stroke-width="0" stroke-linecap="butt"/><text transform="translate(10.229,58.4407) rotate(-45.44283) scale(0.5,0.5)" font-size="40" xml:space="preserve" fill="#ffffff" fill-rule="nonzero" stroke="none" stroke-width="1" stroke-linecap="butt" stroke-linejoin="miter" stroke-miterlimit="10" stroke-dasharray="" stroke-dashoffset="0" font-family="Sans Serif" font-weight="normal" text-anchor="start" style="mix-blend-mode: normal"><tspan x="0" dy="0">y XRJ</tspan></text><path d="M334.68397,49.43335l5.66007,-30.88866l47.22097,8.41721c0,0 35.68646,-14.95445 58.90731,8.16879c14.92676,14.86401 18.62875,47.504 18.05676,69.88931c-0.34308,13.4265 -3.2908,23.16389 -3.2908,23.16389l-86.86219,-15.62198c0,0 3.46809,-12.71722 1.27203,-13.90786c-4.10346,-2.22478 -11.31598,-1.80975 -14.86443,-4.06478c-2.17149,-1.37998 2.75281,-14.04911 0.79372,-15.32959c-1.90839,-1.24735 -4.37054,-0.44894 -6.03358,-1.59527c-2.27844,-1.57052 1.98929,-9.66634 0.18137,-10.92403c-2.1222,-1.47631 -6.20698,-0.72982 -7.51259,-1.71405c-5.91722,-4.46066 -0.92533,-12.32317 -0.92533,-12.32317z" fill-opacity="0.41176" fill="#afafaf" stroke="none" stroke-width="0" stroke-linecap="butt"/></g></g></svg>