<svg version="1.1" xmlns="http://www.w3.org/2000/svg" xmlns:xlink="http://www.w3.org/1999/xlink" width="487.98799" height="373.87387" viewBox="0,0,487.98799,373.87387"><g transform="translate(3.99399,6.9369)"><g data-paper-data="{&quot;isPaintingLayer&quot;:true}" fill-rule="nonzero" stroke-linejoin="miter" stroke-miterlimit="10" stroke-dasharray="" stroke-dashoffset="0" style="mix-blend-mode: normal"><path d="M-3.99399,366.93697v-373.87387h487.98799v373.87387z" fill-opacity="0.70196" fill="#000000" stroke="none" stroke-width="0" stroke-linecap="butt"/><text transform="translate(4.00601,27.66367) scale(0.67335,0.67335)" font-size="40" xml:space="preserve" fill="#ffffff" fill-rule="nonzero" stroke="#ffffff" stroke-width="3" stroke-linecap="butt" stroke-linejoin="miter" stroke-miterlimit="10" stroke-dasharray="" stroke-dashoffset="0" font-family="Sans Serif" font-weight="normal" text-anchor="start" style="mix-blend-mode: normal"><tspan x="0" dy="0">第     年</tspan></text><text transform="translate(98.63065,28.89191) scale(0.5,0.5)" font-size="40" xml:space="preserve" fill="#ffffff" fill-rule="nonzero" stroke="none" stroke-width="1" stroke-linecap="butt" stroke-linejoin="miter" stroke-miterlimit="10" stroke-dasharray="" stroke-dashoffset="0" font-family="Sans Serif" font-weight="normal" text-anchor="start" style="mix-blend-mode: normal"><tspan x="0" dy="0">多雨之夏</tspan></text><text transform="translate(2.29732,54.87026) scale(0.34348,0.34348)" font-size="40" xml:space="preserve" fill="#ffffff" fill-rule="nonzero" stroke="#ffffff" stroke-width="1" stroke-linecap="butt" stroke-linejoin="miter" stroke-miterlimit="10" stroke-dasharray="" stroke-dashoffset="0" font-family="Sans Serif" font-weight="normal" text-anchor="start" style="mix-blend-mode: normal"><tspan x="0" dy="0">欧耶！欢迎参加我的私家积雨云！</tspan><tspan x="0" dy="48px">你听我说……其实我对数学不太在行……</tspan><tspan x="0" dy="48px">因为我只有三根手指。</tspan><tspan x="0" dy="48px">但是要完成这些工作并不需要什么高深的数学知识。</tspan><tspan x="0" dy="48px">将每两个输入项相加送入OUTBOX(输出栏)中。新的指令！</tspan></text><g stroke="none" stroke-width="0"><path d="M207.24942,161.6433c0,-2.2827 0,-14.17968 0,-17.33748c0,-0.49051 0.15209,-0.77016 0.3671,-0.77016c1.41662,0 16.18873,0 18.81348,0c0.25713,0 0.39768,0.37887 0.39768,0.8418c0,1.89701 0,14.62937 0,17.91062c0,0.49081 -0.10729,0.77016 -0.30591,0.77016c-2.36208,0 -17.64033,0 -18.96644,0c-0.18112,0 -0.30591,-0.67772 -0.30591,-1.41494z" fill="#e0b975" stroke-linecap="butt"/><path d="M219.52958,145.55639l-2.04453,15.79097h-2.42788l1.78897,-13.03951l-2.93902,0.59815l0.7667,-2.27295l2.1915,-1.14702z" fill="#af905b" stroke-linecap="round"/></g><text transform="translate(102.88064,158.6161) scale(0.32167,0.32167)" font-size="40" xml:space="preserve" fill="#ffffff" fill-rule="nonzero" stroke="none" stroke-width="1" stroke-linecap="butt" stroke-linejoin="miter" stroke-miterlimit="10" stroke-dasharray="" stroke-dashoffset="0" font-family="Sans Serif" font-weight="normal" text-anchor="start" style="mix-blend-mode: normal"><tspan x="0" dy="0">相加：把手上的和       地毯上的相加。(结果保留在手上)</tspan></text><path d="M38.27265,4.09667l20.9731,-0.49525l-2.86845,4.88884l-12.86454,0.08204l-0.40176,6.43096l12.15554,0.55423l3.29927,5.08553l-0.03655,7.17333l-5.20004,4.89169l-16.56816,0.20068l2.37846,-4.23577l11.80357,-0.38259l1.98504,-6.67429l-2.07063,-1.2252l-13.23237,-0.66264z" fill="#ffffff" stroke="none" stroke-width="0" stroke-linecap="round"/><path d="M25.50009,161.15007c0,-3.18624 0,-19.79228 0,-24.2c0,-0.68466 0.39815,-1.075 0.96101,-1.075c3.70857,0 42.38041,0 49.25173,0c0.67314,0 1.04109,0.52883 1.04109,1.175c0,2.64788 0,20.41996 0,25c0,0.68508 -0.28088,1.075 -0.80084,1.075c-6.18368,0 -46.18056,0 -49.65215,0c-0.47416,0 -0.80084,-0.94598 -0.80084,-1.975z" fill="#e0b975" stroke="none" stroke-width="0" stroke-linecap="butt"/><path d="M78.99942,161.97661c0,-2.2827 0,-14.17968 0,-17.33748c0,-0.49051 0.15209,-0.77016 0.3671,-0.77016c1.41662,0 16.18873,0 18.81348,0c0.25713,0 0.39768,0.37887 0.39768,0.8418c0,1.89701 0,14.62937 0,17.91062c0,0.49081 -0.10729,0.77016 -0.30591,0.77016c-2.36208,0 -17.64033,0 -18.96644,0c-0.18112,0 -0.30591,-0.67772 -0.30591,-1.41494z" fill="#e6bd77" stroke="none" stroke-width="0" stroke-linecap="butt"/><g fill="#af905b" stroke="none" stroke-width="0" stroke-linecap="butt"><path d="M36.26411,147.18517c0,0 -0.89132,6.01224 0.12839,8.09542c0.85701,1.75077 5.36669,0.40441 5.36669,0.40441l0.48424,2.28154c0,0 -7.68747,1.38255 -8.90344,-0.68101c-1.47519,-2.50348 -1.00835,-10.50192 1.06568,-12.18499c2.43455,-1.97564 1.85845,2.08464 1.85845,2.08464z"/><path d="M53.98854,157.978v-17.39789h3.21867v17.39789z"/><path d="M66.80108,158.18977v-17.39788h3.21868v17.39788z"/><path d="M46.92216,157.35562c-1.99533,-1.57891 -2.44446,-9.08252 -1.02525,-11.43109c1.16982,-1.93587 8.56561,-0.63888 8.56561,-0.63888l-0.46587,2.14039c0,0 -4.33857,-1.26307 -5.16307,0.37939c-0.98104,1.9543 -0.12354,7.59455 -0.12354,7.59455c0,0 0.55428,3.80903 -1.7879,1.95565z"/><path d="M59.7347,157.5674c-1.99533,-1.57891 -2.44446,-9.08252 -1.02525,-11.43109c1.16982,-1.93587 8.56561,-0.63888 8.56561,-0.63888l-0.46587,2.14039c0,0 -4.33857,-1.26307 -5.16307,0.37939c-0.98104,1.9543 -0.12354,7.59455 -0.12354,7.59455c0,0 0.55428,3.80904 -1.7879,1.95565z"/><path d="M51.9329,158.09354c-1.3503,0 -4.0367,-0.13305 -4.0367,-0.13305l0.6141,-2.84436c0,0 2.24047,0.3992 3.42261,0.3992c1.13055,0 2.97652,-0.33267 2.97652,-0.33267l0.54585,2.77779c0,0 -2.39248,0.13306 -3.52237,0.13306z"/><path d="M64.74543,158.30532c-1.3503,0 -4.0367,-0.13306 -4.0367,-0.13306l0.6141,-2.84435c0,0 2.24047,0.3992 3.42261,0.3992c1.13055,0 2.97652,-0.33267 2.97652,-0.33267l0.54586,2.77779c0,0 -2.39249,0.13306 -3.52237,0.13306z"/><path d="M38.2728,144.3921c1.3503,0 4.03669,0.13306 4.03669,0.13306l-0.61409,2.84435c0,0 -2.24047,-0.3992 -3.42261,-0.3992c-1.13055,0 -2.97652,0.33267 -2.97652,0.33267l-0.54585,-2.77779c0,0 2.39248,-0.13306 3.52237,-0.13306z"/><path d="M43.69531,145.70111l0.09329,10.03021l1.21182,0.50301l-0.54409,2.15047c0,0 -1.69668,-0.36419 -2.08959,-0.64393c-0.64677,-0.46048 -1.46298,-1.9501 -1.46298,-1.9501v-11.17682c0,0 0.92572,-0.17424 1.37732,0.00164c0.47747,0.18594 1.41419,1.08552 1.41419,1.08552z"/></g><path d="M92.02955,145.63974l-2.04453,15.79097h-2.42788l1.78897,-13.03951l-2.93902,0.59815l0.7667,-2.27295l2.1915,-1.14702z" fill="#af905b" stroke="none" stroke-width="0" stroke-linecap="round"/></g></g></svg>