<svg version="1.1" xmlns="http://www.w3.org/2000/svg" xmlns:xlink="http://www.w3.org/1999/xlink" width="27.3279" height="27.25" viewBox="0,0,27.3279,27.25"><g transform="translate(-226.33605,-166.375)"><g data-paper-data="{&quot;isPaintingLayer&quot;:true}" fill-rule="nonzero" stroke="none" stroke-width="0" stroke-linejoin="miter" stroke-miterlimit="10" stroke-dasharray="" stroke-dashoffset="0" style="mix-blend-mode: normal"><path d="M226.33605,191.65c0,-3.18624 0,-19.79228 0,-24.2c0,-0.68466 0.21228,-1.075 0.5124,-1.075c1.97736,0 22.5967,0 26.2604,0c0.35891,0 0.5551,0.52883 0.5551,1.175c0,2.64788 0,20.41996 0,25c0,0.68508 -0.14976,1.075 -0.427,1.075c-3.29706,0 -24.62289,0 -26.4739,0c-0.25281,0 -0.427,-0.94598 -0.427,-1.975z" fill="#8ac916" stroke-linecap="butt"/><path d="M243.87334,170.83326l1.80808,2.92707l-0.86084,3.66275l-3.50347,5.09285l-2.5121,-0.125l2.76053,-4.84803l0.67785,-2.49366l-1.56105,-0.72108l-1.99756,0.56708l-1.64019,1.90697l-2.749,-1.15495l2.80299,-3.31035l3.60658,-1.59303z" fill="#344c08" stroke-linecap="round"/><path d="M238.6875,187.5875v-3h2.625v3z" fill="#344c08" stroke-linecap="butt"/></g></g></svg>