<svg version="1.1" xmlns="http://www.w3.org/2000/svg" xmlns:xlink="http://www.w3.org/1999/xlink" width="37.24901" height="10.44144" viewBox="0,0,37.24901,10.44144"><g transform="translate(-240.17837,-174.53524)"><g data-paper-data="{&quot;isPaintingLayer&quot;:true}" fill-rule="nonzero" stroke-linecap="butt" stroke-linejoin="miter" stroke-miterlimit="10" stroke-dasharray="" stroke-dashoffset="0" style="mix-blend-mode: normal"><path d="M240.17838,184.2753c0,-1.13153 0,-7.02884 0,-8.59416c0,-0.24315 0.20542,-0.38176 0.49583,-0.38176c1.91342,0 21.86608,0 25.41133,0c0.34731,0 0.53714,0.1878 0.53714,0.41727c0,0.94034 0,7.25176 0,8.87827c0,0.24329 -0.14492,0.38176 -0.41319,0.38176c-3.19046,0 -23.82676,0 -25.61793,0c-0.24464,0 -0.41319,-0.33594 -0.41319,-0.70139z" fill-opacity="0.82353" fill="#000000" stroke="none" stroke-width="0"/><text transform="translate(242.03796,181.89932) scale(0.14247,0.14247)" font-size="40" xml:space="preserve" fill="#d6d6d6" fill-rule="nonzero" stroke="#d6d6d6" stroke-width="2" stroke-linecap="butt" stroke-linejoin="miter" stroke-miterlimit="10" stroke-dasharray="" stroke-dashoffset="0" font-family="Sans Serif" font-weight="normal" text-anchor="start" style="mix-blend-mode: normal"><tspan x="0" dy="0">多雨之夏</tspan></text><path d="M267.7974,183.73576c-0.02726,-1.1312 -0.16935,-7.0268 -0.20706,-8.59167c-0.00586,-0.24308 0.06554,-0.38345 0.17121,-0.38599c0.69621,-0.01678 7.95603,-0.19174 9.24597,-0.22282c0.12637,-0.00305 0.19997,0.18303 0.20549,0.41244c0.02265,0.94007 0.17471,7.24965 0.2139,8.8757c0.00586,0.24322 -0.04353,0.38292 -0.14115,0.38528c-1.16085,0.02797 -8.66942,0.20893 -9.32115,0.22464c-0.08901,0.00214 -0.15844,-0.33222 -0.16725,-0.69757z" fill-opacity="0.82353" fill="#943900" stroke="none" stroke-width="0"/><text transform="translate(270.60905,181.45909) rotate(-1.37981) scale(0.14247,0.14247)" font-size="40" xml:space="preserve" fill="#e08f45" fill-rule="nonzero" stroke="#e08f45" stroke-width="2" stroke-linecap="butt" stroke-linejoin="miter" stroke-miterlimit="10" stroke-dasharray="" stroke-dashoffset="0" font-family="Sans Serif" font-weight="normal" text-anchor="start" style="mix-blend-mode: normal"><tspan x="0" dy="0">C</tspan></text></g></g></svg>