<svg version="1.1" xmlns="http://www.w3.org/2000/svg" xmlns:xlink="http://www.w3.org/1999/xlink" width="72.93287" height="29.5056" viewBox="0,0,72.93287,29.5056"><g transform="translate(-208.14477,-164.3859)"><g data-paper-data="{&quot;isPaintingLayer&quot;:true}" fill-rule="nonzero" stroke-linecap="butt" stroke-linejoin="miter" stroke-miterlimit="10" stroke-dasharray="" stroke-dashoffset="0" style="mix-blend-mode: normal"><path d="M208.14477,191.65004c0,-3.18624 0,-19.79228 0,-24.2c0,-0.68466 0.39815,-1.075 0.96101,-1.075c3.70857,0 42.38041,0 49.25173,0c0.67314,0 1.04109,0.52883 1.04109,1.175c0,2.64788 0,20.41996 0,25c0,0.68508 -0.28088,1.075 -0.80084,1.075c-6.18368,0 -46.18056,0 -49.65215,0c-0.47416,0 -0.80084,-0.94598 -0.80084,-1.975z" fill="#69a9c9" stroke="none" stroke-width="0"/><path d="M247.59611,178.53756v13.30352h-2.46121v-13.30352z" fill="#426b7f" stroke="none" stroke-width="0"/><path d="M252.99944,179.01352c1.52576,1.20734 1.86919,6.94506 0.78397,8.74093c-0.89452,1.4803 -6.54981,0.48853 -6.54981,0.48853l0.35623,-1.63667c0,0 3.31754,0.96582 3.948,-0.2901c0.75016,-1.49438 0.09446,-5.80728 0.09446,-5.80728c0,0 -0.42383,-2.91264 1.36715,-1.49541z" fill="#426b7f" stroke="none" stroke-width="0"/><path d="M249.16796,178.4492c1.03253,0 3.08671,0.10175 3.08671,0.10175l-0.46957,2.17496c0,0 -1.71321,-0.30526 -2.61714,-0.30526c-0.86449,0 -2.27603,0.25438 -2.27603,0.25438l-0.41739,-2.12408c0,0 1.82944,-0.10175 2.69342,-0.10175z" fill="#426b7f" stroke="none" stroke-width="0"/><path d="M217.27941,183.94483c0,0 -0.09871,-5.47632 0.26586,-5.97638c0.13707,-0.18802 1.80897,0.06287 1.80897,0.06287c0,0 0.44471,1.1691 0.41259,1.80453c0.19349,2.15805 0.76319,9.63191 -0.41907,11.40219c-0.97452,1.45921 -6.87195,0.33701 -6.87195,0.33701l0.41475,-1.62798c0,0 3.44981,1.04223 4.14206,-0.19877c0.82368,-1.47663 0.2468,-5.80347 0.2468,-5.80347z" fill="#426b7f" stroke="none" stroke-width="0"/><path d="M229.50435,178.07357v10.4h-2.4v-10.4z" fill="#426b7f" stroke="none" stroke-width="0"/><path d="M223.00435,178.07357c0,0 -0.32868,6.59143 0.40282,8.08581c0.61478,1.25592 3.69718,0.2901 3.69718,0.2901l0.5,1.63667c0,0 -5.51463,0.99177 -6.38691,-0.48853c-1.05823,-1.79587 -0.21309,-9.52406 -0.21309,-9.52406z" fill="#426b7f" stroke="none" stroke-width="0"/><path d="M230.64314,188.51512v-10.4h2.4v10.4z" fill="#426b7f" stroke="none" stroke-width="0"/><path d="M237.14314,188.51512c0,0 0.32868,-6.59143 -0.40282,-8.08581c-0.61478,-1.25592 -3.69718,-0.2901 -3.69718,-0.2901l-0.5,-1.63667c0,0 5.51463,-0.99177 6.38691,0.48853c1.05823,1.79587 0.21309,9.52406 0.21309,9.52406z" fill="#426b7f" stroke="none" stroke-width="0"/><path d="M242.25182,188.51512c0,0 0.32868,-6.59143 -0.40282,-8.08581c-0.61478,-1.25592 -3.69718,-0.2901 -3.69718,-0.2901l-0.5,-1.63667c0,0 5.51463,-0.99177 6.38691,0.48853c1.05823,1.79587 0.21309,9.52406 0.21309,9.52406z" fill="#426b7f" stroke="none" stroke-width="0"/><text transform="translate(221.03048,175.03068) scale(0.24813,0.24813)" font-size="40" xml:space="preserve" fill="#426b7f" fill-rule="nonzero" stroke="#426b7f" stroke-width="1" stroke-linecap="butt" stroke-linejoin="miter" stroke-miterlimit="10" stroke-dasharray="" stroke-dashoffset="0" font-family="Sans Serif" font-weight="normal" text-anchor="start" style="mix-blend-mode: normal"><tspan x="0" dy="0">if 0</tspan></text><path d="M261.49939,192.47656c0,-2.2827 0,-14.17968 0,-17.33748c0,-0.49051 0.15209,-0.77016 0.3671,-0.77016c1.41663,0 16.18872,0 18.81347,0c0.25713,0 0.39768,0.37887 0.39768,0.8418c0,1.89701 0,14.62937 0,17.91062c0,0.49081 -0.10729,0.77016 -0.3059,0.77016c-2.36208,0 -17.64034,0 -18.96644,0c-0.18112,0 -0.3059,-0.67773 -0.3059,-1.41494z" fill="#69a9c9" stroke="none" stroke-width="0"/></g></g></svg>