<svg version="1.1" xmlns="http://www.w3.org/2000/svg" xmlns:xlink="http://www.w3.org/1999/xlink" width="22.73375" height="22.89529" viewBox="0,0,22.73375,22.89529"><g transform="translate(-227.9109,-167.71902)"><g data-paper-data="{&quot;isPaintingLayer&quot;:true}" fill-rule="nonzero" stroke="none" stroke-width="0" stroke-linecap="butt" stroke-linejoin="miter" stroke-miterlimit="10" stroke-dasharray="" stroke-dashoffset="0" style="mix-blend-mode: normal"><path d="M227.9109,187.40905c0,-2.48218 0,-15.41881 0,-18.85257c0,-0.53337 0.16537,-0.83746 0.39918,-0.83746c1.54042,0 17.60355,0 20.45769,0c0.2796,0 0.43244,0.41197 0.43244,0.91536c0,2.06278 0,15.9078 0,19.4758c0,0.5337 -0.11667,0.83746 -0.33265,0.83746c-2.56851,0 -19.18202,0 -20.62401,0c-0.19694,0 -0.33265,-0.73695 -0.33265,-1.53859z" fill="#587f0e"/><path d="M229.35535,189.07572c0,-2.48218 0,-15.41882 0,-18.85257c0,-0.53337 0.16537,-0.83746 0.39918,-0.83746c1.54043,0 17.60355,0 20.45769,0c0.2796,0 0.43244,0.41198 0.43244,0.91536c0,2.06278 0,15.9078 0,19.4758c0,0.5337 -0.11667,0.83746 -0.33265,0.83746c-2.56852,0 -19.18202,0 -20.62401,0c-0.19695,0 -0.33265,-0.73695 -0.33265,-1.53859z" fill="#8ac916"/></g></g></svg>