<svg version="1.1" xmlns="http://www.w3.org/2000/svg" xmlns:xlink="http://www.w3.org/1999/xlink" width="38.11186" height="11.26597" viewBox="0,0,38.11186,11.26597"><g transform="translate(-239.34233,-174.35943)"><g data-paper-data="{&quot;isPaintingLayer&quot;:true}" fill-rule="nonzero" stroke-linecap="butt" stroke-linejoin="miter" stroke-miterlimit="10" stroke-dasharray="" stroke-dashoffset="0" style="mix-blend-mode: normal"><path d="M239.68489,184.94082c-0.04506,-1.13063 -0.2799,-7.02326 -0.34223,-8.58734c-0.00968,-0.24296 0.19005,-0.38964 0.48023,-0.4012c1.9119,-0.07619 21.84874,-0.87073 25.39117,-1.01191c0.34703,-0.01383 0.54419,0.16626 0.55333,0.39555c0.03745,0.93959 0.28877,7.24601 0.35354,8.87123c0.00969,0.2431 -0.1296,0.38723 -0.39766,0.39791c-3.18793,0.12705 -23.80786,0.94881 -25.59761,1.02013c-0.24445,0.00974 -0.42624,-0.31922 -0.44079,-0.68438z" fill-opacity="0.82353" fill="#000000" stroke="none" stroke-width="0"/><text transform="translate(241.44838,182.49267) rotate(-2.28289) scale(0.14247,0.14247)" font-size="40" xml:space="preserve" fill="#d6d6d6" fill-rule="nonzero" stroke="#d6d6d6" stroke-width="2" stroke-linecap="butt" stroke-linejoin="miter" stroke-miterlimit="10" stroke-dasharray="" stroke-dashoffset="0" font-family="Sans Serif" font-weight="normal" text-anchor="start" style="mix-blend-mode: normal"><tspan x="0" dy="0">库存报告</tspan></text><path d="M267.82325,183.68903c-0.04321,-1.13069 -0.26847,-7.02371 -0.32825,-8.5879c-0.00929,-0.24296 0.06013,-0.38434 0.16576,-0.38837c0.6959,-0.02659 7.95253,-0.30396 9.24192,-0.35323c0.12631,-0.00482 0.20254,0.18018 0.21129,0.4095c0.03592,0.93965 0.27697,7.24647 0.33908,8.87181c0.00927,0.24311 -0.03811,0.3835 -0.1357,0.38724c-1.16033,0.04434 -8.66561,0.3312 -9.31705,0.35612c-0.08898,0.0034 -0.16311,-0.32994 -0.17708,-0.69513z" fill-opacity="0.82353" fill="#b0963f" stroke="none" stroke-width="0"/><text transform="translate(269.53684,181.46193) rotate(-2.18908) scale(0.14247,0.14247)" font-size="40" xml:space="preserve" fill="#fffc78" fill-rule="nonzero" stroke="#fffc78" stroke-width="2" stroke-linecap="butt" stroke-linejoin="miter" stroke-miterlimit="10" stroke-dasharray="" stroke-dashoffset="0" font-family="Sans Serif" font-weight="normal" text-anchor="start" style="mix-blend-mode: normal"><tspan x="0" dy="0">SS</tspan></text></g></g></svg>