<svg version="1.1" xmlns="http://www.w3.org/2000/svg" xmlns:xlink="http://www.w3.org/1999/xlink" width="37.3279" height="20.625" viewBox="0,0,37.3279,20.625"><g transform="translate(-221.33605,-169.6875)"><g data-paper-data="{&quot;isPaintingLayer&quot;:true}" fill-rule="nonzero" stroke="none" stroke-width="0" stroke-linecap="butt" stroke-linejoin="miter" stroke-miterlimit="10" stroke-dasharray="" stroke-dashoffset="0" style="mix-blend-mode: normal"><path d="M221.33606,188.81766c0,-2.4116 0,-14.9804 0,-18.31651c0,-0.51821 0.28996,-0.81365 0.6999,-0.81365c2.70093,0 30.86543,0 35.86977,0c0.49025,0 0.75822,0.40026 0.75822,0.88933c0,2.00413 0,15.45547 0,18.92202c0,0.51852 -0.20456,0.81365 -0.58325,0.81365c-4.50355,0 -33.63305,0 -36.1614,0c-0.34532,0 -0.58325,-0.71599 -0.58325,-1.49484z" fill="#302a27"/><path d="M234.79949,184.67332c0,0 11.50486,2.4076 11.44027,-4.62508c-0.05301,-5.7713 -9.53458,-3.6729 -9.53458,-3.6729l0.01667,1.20139l-5.83333,-2.58333l5.83333,-2.58333l-0.02361,1.07639c0,0 12.39181,-1.61127 12.41323,6.40927c0.02779,10.40605 -14.46538,7.24161 -14.46538,7.24161z" fill="#4e4239"/></g></g></svg>