<svg version="1.1" xmlns="http://www.w3.org/2000/svg" xmlns:xlink="http://www.w3.org/1999/xlink" width="26.52973" height="21.34443" viewBox="0,0,26.52973,21.34443"><g transform="translate(-211.00178,-148.4374)"><g data-paper-data="{&quot;isPaintingLayer&quot;:true}" fill-rule="nonzero" stroke-linecap="butt" stroke-linejoin="miter" stroke-miterlimit="10" stroke-dasharray="" stroke-dashoffset="0" style="mix-blend-mode: normal"><path d="M211.00186,168.81678c0.01146,-1.13147 0.07119,-7.02847 0.08705,-8.59372c0.00247,-0.24314 0.20927,-0.37966 0.49967,-0.37672c1.91332,0.01939 21.86496,0.22148 25.41002,0.25739c0.34729,0.00352 0.53521,0.19323 0.53289,0.42269c-0.00952,0.94029 -0.07346,7.25139 -0.08993,8.87782c-0.00246,0.24328 -0.14878,0.38027 -0.41704,0.37755c-3.1903,-0.03231 -23.82554,-0.24134 -25.61662,-0.25949c-0.24463,-0.00248 -0.40977,-0.34011 -0.40606,-0.70554z" fill-opacity="0.82353" fill="#000000" stroke="none" stroke-width="0"/><text transform="translate(212.88541,166.45975) rotate(0.58112) scale(0.14247,0.14247)" font-size="40" xml:space="preserve" fill="#d6d6d6" fill-rule="nonzero" stroke="#d6d6d6" stroke-width="2" stroke-linecap="butt" stroke-linejoin="miter" stroke-miterlimit="10" stroke-dasharray="" stroke-dashoffset="0" font-family="Sans Serif" font-weight="normal" text-anchor="start" style="mix-blend-mode: normal"><tspan x="0" dy="0">最终程序</tspan></text><path d="M218.06507,157.40861c0.01843,-1.13137 0.11442,-7.02792 0.13992,-8.59305c0.00396,-0.24311 0.10491,-0.38023 0.24446,-0.37813c0.91936,0.01379 10.50614,0.15751 12.20956,0.18306c0.16687,0.00251 0.25504,0.19163 0.25128,0.42108c-0.01531,0.94022 -0.11807,7.25081 -0.14457,8.87713c-0.00398,0.24326 -0.07582,0.38067 -0.20474,0.37874c-1.53292,-0.02299 -11.44821,-0.17164 -12.30882,-0.18453c-0.11756,-0.00176 -0.19307,-0.33887 -0.18713,-0.70427z" fill-opacity="0.82353" fill="#b0963f" stroke="none" stroke-width="0"/><text transform="translate(219.95311,155.35702) rotate(0.50316) scale(0.14247,0.14247)" font-size="40" xml:space="preserve" fill="#fffc78" fill-rule="nonzero" stroke="#fffc78" stroke-width="2" stroke-linecap="butt" stroke-linejoin="miter" stroke-miterlimit="10" stroke-dasharray="" stroke-dashoffset="0" font-family="Sans Serif" font-weight="normal" text-anchor="start" style="mix-blend-mode: normal"><tspan x="0" dy="0">SSS</tspan></text></g></g></svg>