<svg version="1.1" xmlns="http://www.w3.org/2000/svg" xmlns:xlink="http://www.w3.org/1999/xlink" width="170.07483" height="78.68" viewBox="0,0,170.07483,78.68"><g transform="translate(-154.96259,-148.65999)"><g data-paper-data="{&quot;isPaintingLayer&quot;:true}" fill="#e0d4bd" fill-rule="nonzero" stroke="none" stroke-width="0" stroke-linecap="butt" stroke-linejoin="miter" stroke-miterlimit="10" stroke-dasharray="" stroke-dashoffset="0" style="mix-blend-mode: normal"><path d="M306.07317,155.07032c-0.00801,2.93582 -0.04574,19.9838 -0.04574,19.9838l19.00999,13.73358l-19.07293,12.06837c0,0 -0.03633,13.20698 -0.0546,19.95258c-0.00163,0.60234 -0.51899,3.44322 -1.78855,4.75427c-1.61198,1.66468 -4.13056,1.78129 -4.99273,1.77696c-21.97003,-0.11026 -122.20251,-0.60719 -141.10955,-0.70377c-1.98212,-0.01016 -3.0615,-1.52884 -3.05645,-3.37779c0.02064,-7.57658 0.15919,-58.4291 0.19489,-71.53432c0.00534,-1.96027 0.83548,-3.07174 2.36656,-3.06397c17.07533,0.0872 121.7101,0.62176 143.09797,0.73104c1.4194,0.00725 5.45916,2.73475 5.45113,5.67915z"/></g></g></svg>