<svg version="1.1" xmlns="http://www.w3.org/2000/svg" xmlns:xlink="http://www.w3.org/1999/xlink" width="40.8063" height="10.33421" viewBox="0,0,40.8063,10.33421"><g transform="translate(-172.95894,-173.88038)"><g data-paper-data="{&quot;isPaintingLayer&quot;:true}" fill-rule="nonzero" stroke-linecap="butt" stroke-linejoin="miter" stroke-miterlimit="10" stroke-dasharray="" stroke-dashoffset="0" style="mix-blend-mode: normal"><path d="M187.31938,183.5207c-0.02029,-1.13135 -0.12603,-7.0277 -0.15409,-8.59278c-0.00435,-0.24311 0.19854,-0.38538 0.4889,-0.39059c1.91311,-0.0343 21.86257,-0.39205 25.40724,-0.45562c0.34725,-0.00622 0.54042,0.17814 0.54454,0.40757c0.01686,0.94019 0.13001,7.2506 0.15918,8.87685c0.00437,0.24325 -0.13805,0.38429 -0.40628,0.3891c-3.18995,0.05721 -23.82293,0.42721 -25.61382,0.45931c-0.2446,0.00438 -0.41915,-0.32848 -0.42569,-0.69387z" fill-opacity="0.82353" fill="#000000" stroke="none" stroke-width="0"/><text transform="translate(189.13606,181.11175) rotate(-1.02659) scale(0.14247,0.14247)" font-size="40" xml:space="preserve" fill="#d6d6d6" fill-rule="nonzero" stroke="#d6d6d6" stroke-width="2" stroke-linecap="butt" stroke-linejoin="miter" stroke-miterlimit="10" stroke-dasharray="" stroke-dashoffset="0" font-family="Sans Serif" font-weight="normal" text-anchor="start" style="mix-blend-mode: normal"><tspan x="0" dy="0">质数工厂</tspan></text><path d="M172.96122,182.83856c0.04811,-1.13049 0.29885,-7.0225 0.36542,-8.58641c0.01033,-0.24292 0.11485,-0.37735 0.2543,-0.37159c0.91868,0.03792 10.49839,0.43322 12.20055,0.50347c0.16675,0.00689 0.24992,0.19826 0.24015,0.42753c-0.03998,0.93949 -0.30835,7.24522 -0.37753,8.87027c-0.01036,0.24307 -0.08579,0.37855 -0.21461,0.37324c-1.53178,-0.06322 -11.43976,-0.47208 -12.29974,-0.50755c-0.11747,-0.00484 -0.1841,-0.34382 -0.16858,-0.70894z" fill-opacity="0.82353" fill="#b0963f" stroke="none" stroke-width="0"/><text transform="translate(174.90247,180.83723) rotate(2.00723) scale(0.14247,0.14247)" font-size="40" xml:space="preserve" fill="#fffc78" fill-rule="nonzero" stroke="#fffc78" stroke-width="2" stroke-linecap="butt" stroke-linejoin="miter" stroke-miterlimit="10" stroke-dasharray="" stroke-dashoffset="0" font-family="Sans Serif" font-weight="normal" text-anchor="start" style="mix-blend-mode: normal"><tspan x="0" dy="0">SSS</tspan></text></g></g></svg>