<svg version="1.1" xmlns="http://www.w3.org/2000/svg" xmlns:xlink="http://www.w3.org/1999/xlink" width="575.73392" height="429.15135" viewBox="0,0,575.73392,429.15135"><g transform="translate(47.86696,34.57567)"><g data-paper-data="{&quot;isPaintingLayer&quot;:true}" fill-rule="nonzero" stroke="none" stroke-width="0" stroke-linejoin="miter" stroke-miterlimit="10" stroke-dasharray="" stroke-dashoffset="0" style="mix-blend-mode: normal"><path d="M-47.86696,394.57567v-429.15135h575.73392v429.15135z" fill="#000000" stroke-linecap="butt"/><g fill="#fff8f2"><path d="M113.82905,140.6213l0.12498,22.3941l-5.2484,0.00352l-0.12498,-22.3941z" stroke-linecap="butt"/><path d="M99.61465,140.63082c0,0 -0.63955,14.19365 0.97808,17.41041c1.3595,2.70345 8.08861,0.61923 8.08861,0.61923l1.11308,3.52347c0,0 -12.04767,2.14363 -13.97301,-1.04258c-2.33576,-3.86544 -0.58044,-20.50763 -0.58044,-20.50763z" stroke-linecap="butt"/><path d="M116.39287,163.50457l-0.13034,-21.91904l5.05824,-0.03008l0.13034,21.91904z" stroke-linecap="butt"/><path d="M130.09229,163.42309c0,0 0.61012,-13.89623 -0.95032,-17.03662c-1.31145,-2.63927 -7.79581,-0.56508 -7.79581,-0.56508l-1.07432,-3.44318c0,0 11.61022,-2.15937 13.46718,0.94957c2.25284,3.77172 0.56848,20.07025 0.56848,20.07025z" stroke-linecap="butt"/><path d="M140.85933,163.35912c0,0 0.61012,-13.89622 -0.95033,-17.03661c-1.31145,-2.63927 -7.79581,-0.56509 -7.79581,-0.56509l-1.07432,-3.44318c0,0 11.61022,-2.15937 13.46718,0.94957c2.25284,3.77172 0.56847,20.07025 0.56847,20.07025z" stroke-linecap="butt"/><path d="M166.33228,143.08111c0,0 -0.91251,9.52248 -0.57624,12.95764c0.26819,2.73966 2.43621,6.04292 2.43621,6.04292l-6.94966,1.29426l0.19317,-20.34133z" stroke-linecap="butt"/><path d="M153.36773,146.98038c0,0 -1.38805,8.78686 0.07542,11.84989c1.22995,2.57426 7.84883,0.66646 7.84883,0.66646l0.677,3.34588c0,0 -11.27025,1.91659 -13.0212,-1.12044c-2.12422,-3.68448 -1.32981,-15.38417 1.72904,-17.81857c3.59057,-2.85761 2.69094,3.07679 2.69094,3.07679z" stroke-linecap="butt"/><path d="M163.66686,143.08314l-0.87155,4.32573c0,0 -2.8033,-0.54565 -4.52318,-0.56198c-1.79835,-0.01709 -5.21266,0.57335 -5.21266,0.57335l-0.89205,-4.44625c0,0 4.0887,-0.16879 6.14289,-0.14927c1.71888,0.01632 5.35652,0.25847 5.35652,0.25847z" stroke-linecap="butt"/><path d="M170.24694,163.96711l-0.10716,-21.17857l5.05645,0.01106l0.10717,21.17858z" stroke-linecap="butt"/><path d="M183.9415,163.99704c0,0 0.62457,-13.42127 -0.932,-16.4678c-1.30821,-2.56038 -7.7924,-0.60781 -7.7924,-0.60781l-1.07029,-3.33523c0,0 11.60831,-1.99424 13.46133,1.02427c2.24804,3.66198 0.54708,19.39579 0.54708,19.39579z" stroke-linecap="butt"/><path d="M73.58719,119.34843l-0.9846,44.06043l-8.86478,-0.51447c0,0 1.96336,-11.0504 1.95884,-16.4557c-0.0064,-7.67042 -0.75828,-26.39888 -0.75828,-26.39888z" stroke-linecap="round"/><path d="M92.03248,118.93151c0,0 -0.38739,18.73838 -0.26409,26.4078c0.08689,5.40459 2.10915,16.42026 2.10915,16.42026l-8.28087,0.66382l-1.66348,-44.03735z" stroke-linecap="round"/><path d="M72.96929,136.09936c4.65274,-0.04053 13.91634,0.69045 13.91634,0.69045l-1.66242,7.12972c0,0 -7.72498,-0.49846 -11.79824,-0.46299c-3.89555,0.03393 -4.34886,-7.32327 -0.45561,-7.35718z" stroke-linecap="butt"/><path d="M316.43584,143.77422l0.4728,22.38945l-5.24771,0.08504l-0.4728,-22.38944z" stroke-linecap="butt"/><path d="M302.22328,144.00452c0,0 -0.419,14.20187 1.24839,17.39312c1.40132,2.682 8.09725,0.49352 8.09725,0.49352l1.16768,3.50577c0,0 -12.01292,2.3305 -13.98751,-0.82543c-2.39553,-3.82871 -0.89891,-20.49614 -0.89891,-20.49614z" stroke-linecap="butt"/><path d="M220.02296,119.61932l-4.26766,45.30439l-6.93432,0.24165l3.58556,-45.4818z" stroke-linecap="round"/><path d="M236.34066,121.42812l1.68546,8.09488l-4.94715,7.56921l-9.74868,10.25318l13.67202,17.75339l-9.49063,0.54534l-13.63609,-17.91355l11.75139,-13.0358l3.57544,-5.078l-2.93562,-2.90863l-4.9777,-0.35626l-5.26864,2.9637l3.21313,-9.12207l10.02281,-1.56424z" stroke-linecap="round"/><path d="M338.97712,164.98862c-3.30651,-2.85015 -3.53591,-15.74446 -0.93406,-19.66794c2.14465,-3.23406 14.72838,-0.47817 14.72838,-0.47817l-0.95268,3.63529c0,0 -7.34579,-2.4775 -8.87735,0.27843c-1.82237,3.27922 -0.75874,13.00899 -0.75874,13.00899c0,0 0.67571,6.56906 -3.20552,3.22342z" stroke-linecap="butt"/><path d="M347.51276,166.61453c-2.31455,-0.09727 -6.90973,-0.51883 -6.90973,-0.51883l1.25747,-4.83127c0,0 3.81166,0.84566 5.83796,0.9308c1.93789,0.08143 5.12602,-0.35584 5.12602,-0.35584l0.73555,4.80075c0,0 -4.11056,0.05579 -6.0473,-0.0256z" stroke-linecap="butt"/><path d="M279.01446,165.23183c-3.54095,-2.68695 -4.59135,-15.7765 -2.19586,-19.92872c1.97456,-3.42261 14.9377,-1.41946 14.9377,-1.41946l-0.73779,3.75481c0,0 -7.62232,-2.05221 -9.00413,0.84564c-1.64418,3.44808 0.05343,13.26874 0.05343,13.26874c0,0 1.10307,6.6331 -3.05337,3.47902z" stroke-linecap="butt"/><path d="M241.52519,166.17658c-3.71984,-2.93073 -4.58527,-16.89416 -1.95317,-21.27076c2.16959,-3.60754 15.93925,-1.22278 15.93925,-1.22278l-0.8586,3.98537c0,0 -8.07963,-2.33362 -9.60766,0.72644c-1.81814,3.64107 -0.2,14.13499 -0.2,14.13499c0,0 1.04656,7.087 -3.31984,3.64676z" stroke-linecap="butt"/><path d="M250.85363,167.53034c-2.51308,0.00531 -7.51334,-0.23176 -7.51334,-0.23176l1.13168,-5.29613c0,0 4.17141,0.73416 6.37151,0.7295c2.10411,-0.00446 5.53836,-0.63085 5.53836,-0.63085l1.02683,5.16771c0,0 -4.45219,0.25709 -6.55508,0.26154z" stroke-linecap="butt"/><path d="M238.4483,152.82994c0,0 11.46013,0.24901 14.02561,-1.14297c2.15609,-1.16988 0.35366,-6.65895 0.35366,-6.65895l2.82198,-0.98335c0,0 1.94624,9.85851 -0.58906,11.50274c-3.07577,1.99475 -16.53102,0.87658 -16.53102,0.87658z" stroke-linecap="butt"/><path d="M293.74111,165.04188c-2.53972,3.20276 -14.42497,0.92179 -14.42497,0.92179l1.32453,-3.7303c0,0 7.63286,1.62931 9.48641,-1.1264c2.20549,-3.27893 0.92158,-14.2243 0.92158,-14.2243c0,0 -4.84214,-3.39104 0.78409,-3.11366c6.03067,0.29731 3.96138,18.68389 1.90838,21.27287z" stroke-linecap="butt"/><path d="M322.41755,165.67881c-3.64568,-2.54303 -5.21929,-15.58003 -2.99194,-19.82483c1.83595,-3.49891 14.86888,-2.01637 14.86888,-2.01637l-0.58687,3.78134c0,0 -7.69838,-1.7454 -8.96307,1.20545c-1.50481,3.51114 0.58461,13.25596 0.58461,13.25596c0,0 1.36775,6.58362 -2.91164,3.59848z" stroke-linecap="butt"/><path d="M358.3375,165.28901c-3.42782,-2.68842 -4.2523,-15.53163 -1.83992,-19.56302c1.98849,-3.32299 14.66002,-1.15723 14.66002,-1.15723l-0.78171,3.66788c0,0 -7.43718,-2.13029 -8.83659,0.68778c-1.66512,3.35312 -0.15526,13.00319 -0.15526,13.00319c0,0 0.97713,6.51719 -3.04652,3.36142z" stroke-linecap="butt"/><path d="M366.92151,166.5154c-2.31177,0.00998 -6.912,-0.19794 -6.912,-0.19794l1.03028,-4.87422c0,0 3.83877,0.66688 5.86262,0.65813c1.93556,-0.00837 5.09347,-0.59158 5.09347,-0.59158l0.95507,4.75169c0,0 -4.09505,0.24553 -6.02948,0.2539z" stroke-linecap="butt"/><path d="M355.48001,153.01769c0,0 10.54268,0.20578 12.89983,-1.07991c1.981,-1.08054 0.31182,-6.1263 0.31182,-6.1263l2.59393,-0.91031c0,0 1.81039,9.06489 -0.5185,10.58257c-2.82536,1.84122 -15.20509,0.83996 -15.20509,0.83996z" stroke-linecap="butt"/><path d="M263.79016,243.35122c-4.97526,-3.7364 -6.00841,-21.39017 -2.42759,-26.8979c2.95161,-4.5399 21.44776,-1.40503 21.44776,-1.40503l-1.19202,5.02892c0,0 -10.84426,-3.02016 -12.9279,0.83348c-2.4793,4.58537 -0.40133,17.86119 -0.40133,17.86119c0,0 1.34115,8.96533 -4.49891,4.57936z" stroke-linecap="butt"/><path d="M276.32308,245.14414c-3.37984,-0.0154 -10.10236,-0.35901 -10.10236,-0.35901l1.57157,-6.68296c0,0 5.60315,0.9645 8.56208,0.97796c2.82983,0.0129 7.45434,-0.74852 7.45434,-0.74852l1.33255,6.53967c0,0 -5.99007,0.28573 -8.8182,0.27285z" stroke-linecap="butt"/><path d="M371.93751,244.5738c-5.04181,-3.96367 -6.23371,-22.87251 -2.6754,-28.80332c2.93305,-4.88863 21.58409,-1.6787 21.58409,-1.6787l-1.15708,5.39844c0,0 -10.94523,-3.14881 -13.01019,0.99749c-2.45705,4.93355 -0.2507,19.14271 -0.2507,19.14271c0,0 1.42742,9.59613 -4.49071,4.9434z" stroke-linecap="butt"/><path d="M384.5726,246.39386c-3.40333,0.01077 -10.17534,-0.30316 -10.17534,-0.30316l1.52506,-7.17395c0,0 5.65019,0.98828 8.62969,0.97885c2.84951,-0.00902 7.4995,-0.86226 7.4995,-0.86226l1.39797,6.99696c0,0 -6.02906,0.35451 -8.87688,0.36353z" stroke-linecap="butt"/><path d="M367.75158,226.50338c0,0 15.52031,0.32085 18.99263,-1.56789c2.91823,-1.58737 0.46947,-9.01843 0.46947,-9.01843l3.82028,-1.33575c0,0 2.64979,13.3482 -0.78132,15.57852c-4.16256,2.70578 -22.386,1.2107 -22.386,1.2107z" stroke-linecap="butt"/><path d="M182.75585,174.05428l-1.4512,70.82229l-13.55294,-0.82844c0,0 2.98802,-17.76202 2.97446,-26.45046c-0.01919,-12.32938 -1.19167,-42.43353 -1.19167,-42.43353z" stroke-linecap="round"/><path d="M222.57074,176.4427c0,0 -0.56925,30.11986 -0.37132,42.44767c0.13949,8.6873 3.24458,26.39421 3.24458,26.39421l-12.65884,1.06562l-2.59712,-70.78563z" stroke-linecap="round"/><path d="M223.30656,175.67302l-21.37787,70.32725l-13.18043,-0.61512l21.48573,-70.10713z" stroke-linecap="butt"/><path d="M183.32568,174.93944l19.25342,70.73965l-13.13837,0.03169l-20.46018,-69.97592z" stroke-linecap="butt"/><path d="M255.1091,214.19198c0,0 -1.17306,14.58778 -0.57831,19.83468c0.47435,4.18455 3.86801,9.1868 3.86801,9.1868l-10.60055,2.14241l-0.1804,-31.12046z" stroke-linecap="butt"/><path d="M235.36853,220.46001c0,0 -1.91772,13.47364 0.39259,18.1249c1.94166,3.90904 12.02187,0.83585 12.02187,0.83585l1.11386,5.10233c0,0 -17.19515,3.19545 -19.94463,-1.40931c-3.33561,-5.58641 -2.3941,-23.50191 2.22803,-27.29735c5.4256,-4.45528 4.1883,4.64359 4.1883,4.64359z" stroke-linecap="butt"/><path d="M251.03186,214.25741l-1.23199,6.6374c0,0 -4.30093,-0.76912 -6.93221,-0.75384c-2.7513,0.01594 -7.96031,0.999 -7.96031,0.999l-1.46859,-6.78054c0,0 6.2505,-0.35384 9.39324,-0.37207c2.62971,-0.01524 8.19988,0.27008 8.19988,0.27008z" stroke-linecap="butt"/><path d="M288.29775,245.81033l-0.03524,-43.3637l7.82296,-0.00637l0.03524,43.3637z" stroke-linecap="butt"/><path d="M308.94443,239.36766c0,0 2.07271,-14.05986 -0.31561,-18.92897c-2.00725,-4.09214 -12.54948,-0.9354 -12.54948,-0.9354l-1.1366,-5.33391c0,0 17.97267,-3.24734 20.81983,1.57548c3.45413,5.85094 2.37773,24.55431 -2.4687,28.49365c-5.68889,4.62419 -4.34944,-4.87085 -4.34944,-4.87085z" stroke-linecap="butt"/><path d="M322.78235,245.26301l-0.76992,-30.91569l7.4391,-0.83803l1.1467,31.42107z" stroke-linecap="butt"/><path d="M334.84719,245.0264l-0.4697,-32.39747l7.73553,-0.05609l0.4697,32.39747z" stroke-linecap="butt"/><path d="M355.79759,244.8745c0,0 0.76168,-20.54092 -1.66352,-25.17904c-2.03827,-3.89799 -11.9296,-0.81732 -11.9296,-0.81732l-1.68549,-5.08679c0,0 17.72963,-3.21838 20.60794,1.3726c3.49192,5.56965 1.11696,29.66382 1.11696,29.66382z" stroke-linecap="butt"/><path d="M259.70348,148.74068c0.53751,-4.97492 2.69998,-5.84717 6.26463,-6.07065c3.52655,-0.2211 8.53887,2.16909 8.53887,2.16909l-2.02461,3.34734c0,0 -8.99493,-4.41186 -9.25673,1.60236c-0.08863,2.03607 10.14835,4.13724 10.95902,7.45248c0.81067,3.31524 -0.86762,6.07378 -3.90283,8.00283c-3.03521,1.92905 -11.3292,1.67805 -11.3292,1.67805l1.38454,-4.54517c0,0 5.3127,1.21921 8.17323,-0.78699c2.86053,-2.0062 0.77518,-6.10532 -3.86146,-6.27458c-4.26167,-0.15557 -5.48296,-1.59985 -4.94546,-6.57477z" stroke-linecap="round"/><path d="M245.72413,105.83816c-10.96879,-6.99383 -24.75475,9.1762 -24.75475,9.1762c0,0 15.49186,-24.26661 28.60174,-15.9076c13.10988,8.35901 6.60324,33.12649 6.60324,33.12649c0,0 0.51855,-19.40126 -10.45023,-26.39509z" stroke-linecap="butt"/><path d="M255.81155,132.19312l-6.5,-12.375l7.125,3.875l7.625,-5.375z" stroke-linecap="butt"/></g><g fill-opacity="0.47059" fill="#ffffff" stroke-linecap="butt"><path d="M215.88198,191.30165l37.59028,-40.77086h27.19297l-43.98862,40.77086l46.388,41.40789l-25.49401,-0.44476z"/><path d="M409.23198,192.83458l-37.59028,40.27486h-27.19297l43.98862,-40.27486l-46.388,-40.90414l25.49401,0.43937z"/><path d="M315.05633,138.73389h20.79462l-28.79255,105.25274l-19.09566,1.16118z"/></g></g></g></svg>