<svg version="1.1" xmlns="http://www.w3.org/2000/svg" xmlns:xlink="http://www.w3.org/1999/xlink" width="487.98799" height="373.87387" viewBox="0,0,487.98799,373.87387"><g transform="translate(3.994,6.9369)"><g data-paper-data="{&quot;isPaintingLayer&quot;:true}" fill-rule="nonzero" stroke-linejoin="miter" stroke-miterlimit="10" stroke-dasharray="" stroke-dashoffset="0" style="mix-blend-mode: normal"><path d="M-3.994,366.93697v-373.87387h487.98799v373.87387z" fill-opacity="0.70196" fill="#000000" stroke="none" stroke-width="0" stroke-linecap="butt"/><text transform="translate(4.00601,27.66368) scale(0.67335,0.67335)" font-size="40" xml:space="preserve" fill="#ffffff" fill-rule="nonzero" stroke="#ffffff" stroke-width="3" stroke-linecap="butt" stroke-linejoin="miter" stroke-miterlimit="10" stroke-dasharray="" stroke-dashoffset="0" font-family="Sans Serif" font-weight="normal" text-anchor="start" style="mix-blend-mode: normal"><tspan x="0" dy="0">第     年</tspan></text><text transform="translate(98.63065,28.89191) scale(0.5,0.5)" font-size="40" xml:space="preserve" fill="#ffffff" fill-rule="nonzero" stroke="none" stroke-width="1" stroke-linecap="butt" stroke-linejoin="miter" stroke-miterlimit="10" stroke-dasharray="" stroke-dashoffset="0" font-family="Sans Serif" font-weight="normal" text-anchor="start" style="mix-blend-mode: normal"><tspan x="0" dy="0">排序楼层</tspan></text><text transform="translate(2.29732,54.87027) scale(0.34348,0.34348)" font-size="40" xml:space="preserve" fill="#ffffff" fill-rule="nonzero" stroke="#ffffff" stroke-width="1" stroke-linecap="butt" stroke-linejoin="miter" stroke-miterlimit="10" stroke-dasharray="" stroke-dashoffset="0" font-family="Sans Serif" font-weight="normal" text-anchor="start" style="mix-blend-mode: normal"><tspan x="0" dy="0">嘿快看看这间崭新的办公室！</tspan><tspan x="0" dy="48px">我们真是共同爬上了企业阶梯的更高层！</tspan><tspan x="0" dy="48px">谢谢你，我的监管技能真是得心应手。</tspan><tspan x="0" dy="48px">你的技能也挺好的。</tspan><tspan x="0" dy="48px">不管你在那边用的是什么技能。</tspan><tspan x="0" dy="48px">那么你准备好了吗？</tspan><tspan x="0" dy="48px"> </tspan><tspan x="0" dy="48px">INBOX中每个零结尾字符串，将其内容排序，从最小的到最大的依次放入OUT</tspan><tspan x="0" dy="48px">BOX。</tspan></text><path d="M45.65922,3.5758l2.877,4.65753l-6.14885,9.35716l5.98727,8.81613l-1.79306,6.1719l-3.29158,1.45915l-8.0583,0.35837l-4.38651,-1.65401l0.87341,-3.92782l3.71337,1.5025l3.19742,-0.02576l3.44903,-3.41535l-4.28497,-8.68842l5.27222,-7.90295l-2.48393,-1.14738l-6.81126,1.32258l-0.62353,-3.99721l7.4711,-3.02864z" fill="#ffffff" stroke="none" stroke-width="0" stroke-linecap="round"/><g fill="#ffffff" stroke="none" stroke-width="0" stroke-linecap="round"><path d="M61.06578,1.89258l-3.74939,31.46964h-4.96271l3.65674,-27.82568z"/><path d="M45.3359,11.77439l3.00786,-5.93226l4.32174,-2.79356l-2.98319,8.41957l-0.25753,4.737l15.83453,-0.85665l-0.82093,4.50922l-20.69764,0.57452z"/></g></g></g></svg>