<svg version="1.1" xmlns="http://www.w3.org/2000/svg" xmlns:xlink="http://www.w3.org/1999/xlink" width="12.26666" height="18.2778" viewBox="0,0,12.26666,18.2778"><g transform="translate(-232.99167,-189.2361)"><g data-paper-data="{&quot;isPaintingLayer&quot;:true}" fill="#562d00" fill-rule="nonzero" stroke="none" stroke-width="0" stroke-linejoin="miter" stroke-miterlimit="10" stroke-dasharray="" stroke-dashoffset="0" style="mix-blend-mode: normal"><path d="M237.15332,189.59101l-0.55676,17.92289l-3.60489,-0.24073c0,0 0.83798,-4.489 0.8553,-6.68821c0.02458,-3.1208 -0.21495,-10.74331 -0.21495,-10.74331z" stroke-linecap="round"/><path d="M244.65944,189.48674c0,0 -0.22403,7.6225 -0.20104,10.74331c0.0162,2.19921 0.79993,6.68821 0.79993,6.68821l-3.3715,0.24073l-0.52072,-17.92289z" stroke-linecap="round"/><path d="M236.84255,196.40408c1.89315,0 5.65954,0.33024 5.65954,0.33024l-0.70164,2.8949c0,0 -3.14121,-0.23019 -4.79858,-0.23019c-1.58506,0 -1.74342,-2.99495 -0.15929,-2.99495z" stroke-linecap="butt"/></g></g></svg>