<svg version="1.1" xmlns="http://www.w3.org/2000/svg" xmlns:xlink="http://www.w3.org/1999/xlink" width="17.82922" height="18.21114" viewBox="0,0,17.82922,18.21114"><g transform="translate(-231.09824,-170.89631)"><g data-paper-data="{&quot;isPaintingLayer&quot;:true}" fill-rule="nonzero" stroke="none" stroke-width="0" stroke-linecap="butt" stroke-linejoin="miter" stroke-miterlimit="10" stroke-dasharray="" stroke-dashoffset="0" style="mix-blend-mode: normal"><path d="M231.1138,185.44361c0.14312,-1.8367 0.889,-11.40921 1.08698,-13.95004c0.03075,-0.39467 0.17065,-0.61015 0.34366,-0.59667c1.13983,0.08882 13.02582,1.01497 15.13775,1.17953c0.20689,0.01612 0.29624,0.32977 0.26721,0.70226c-0.11893,1.52636 -0.9172,11.77104 -1.12292,14.4112c-0.03077,0.39491 -0.13461,0.61295 -0.29443,0.6005c-1.90058,-0.14809 -14.19381,-1.10598 -15.26081,-1.18912c-0.14573,-0.01136 -0.20365,-0.56449 -0.15743,-1.15767z" fill="#587f0e"/><path d="M232.08653,186.76015c0.14312,-1.8367 0.889,-11.40922 1.08698,-13.95004c0.03075,-0.39467 0.17065,-0.61015 0.34366,-0.59667c1.13984,0.08882 13.02582,1.01497 15.13775,1.17953c0.20689,0.01612 0.29624,0.32978 0.26721,0.70226c-0.11893,1.52636 -0.9172,11.77104 -1.12292,14.4112c-0.03077,0.39491 -0.13461,0.61295 -0.29443,0.6005c-1.90059,-0.14809 -14.19381,-1.10598 -15.26081,-1.18912c-0.14574,-0.01136 -0.20365,-0.56449 -0.15743,-1.15767z" fill="#8ac916"/></g></g></svg>