<svg version="1.1" xmlns="http://www.w3.org/2000/svg" xmlns:xlink="http://www.w3.org/1999/xlink" width="487.98799" height="373.87387" viewBox="0,0,487.98799,373.87387"><g transform="translate(3.99399,6.9369)"><g data-paper-data="{&quot;isPaintingLayer&quot;:true}" fill-rule="nonzero" stroke-linejoin="miter" stroke-miterlimit="10" stroke-dasharray="" stroke-dashoffset="0" style="mix-blend-mode: normal"><path d="M-3.99399,366.93697v-373.87387h487.98799v373.87387z" fill-opacity="0.70196" fill="#000000" stroke="none" stroke-width="0" stroke-linecap="butt"/><text transform="translate(4.00601,27.66367) scale(0.67335,0.67335)" font-size="40" xml:space="preserve" fill="#ffffff" fill-rule="nonzero" stroke="#ffffff" stroke-width="3" stroke-linecap="butt" stroke-linejoin="miter" stroke-miterlimit="10" stroke-dasharray="" stroke-dashoffset="0" font-family="Sans Serif" font-weight="normal" text-anchor="start" style="mix-blend-mode: normal"><tspan x="0" dy="0">第     年</tspan></text><text transform="translate(98.63065,28.89191) scale(0.5,0.5)" font-size="40" xml:space="preserve" fill="#ffffff" fill-rule="nonzero" stroke="none" stroke-width="1" stroke-linecap="butt" stroke-linejoin="miter" stroke-miterlimit="10" stroke-dasharray="" stroke-dashoffset="0" font-family="Sans Serif" font-weight="normal" text-anchor="start" style="mix-blend-mode: normal"><tspan x="0" dy="0">零扑灭行动</tspan></text><text transform="translate(2.29732,54.87026) scale(0.34348,0.34348)" font-size="40" xml:space="preserve" fill="#ffffff" fill-rule="nonzero" stroke="#ffffff" stroke-width="1" stroke-linecap="butt" stroke-linejoin="miter" stroke-miterlimit="10" stroke-dasharray="" stroke-dashoffset="0" font-family="Sans Serif" font-weight="normal" text-anchor="start" style="mix-blend-mode: normal"><tspan x="0" dy="0">你觉得再干五年你能爬到哪？要么十年。我拿到我们顶头上司写给你的字条。</tspan><tspan x="0" dy="48px">上面说……从现在开始，公司要密切注意你的一举一动！</tspan><tspan x="0" dy="48px">这可是个绝佳的机会！</tspan><tspan x="0" dy="48px">将所有非0的数送到OUTBOX(输出栏)中。</tspan><tspan x="0" dy="48px">现在你有权使用新指令！</tspan></text><g stroke-linecap="butt"><path d="M26.47811,162.31671c0,-3.18624 0,-19.79228 0,-24.2c0,-0.68466 0.39815,-1.075 0.96101,-1.075c3.70857,0 42.38041,0 49.25173,0c0.67314,0 1.04109,0.52883 1.04109,1.175c0,2.64788 0,20.41996 0,25c0,0.68508 -0.28088,1.075 -0.80084,1.075c-6.18368,0 -46.18056,0 -49.65215,0c-0.47416,0 -0.80084,-0.94598 -0.80084,-1.975z" fill="#69a9c9" stroke="none" stroke-width="0"/><path d="M65.92945,149.20423v13.30352h-2.46121v-13.30352z" fill="#426b7f" stroke="none" stroke-width="0"/><path d="M71.33278,149.68019c1.52576,1.20734 1.86919,6.94506 0.78397,8.74093c-0.89452,1.4803 -6.54981,0.48853 -6.54981,0.48853l0.35623,-1.63667c0,0 3.31754,0.96582 3.948,-0.2901c0.75016,-1.49438 0.09446,-5.80728 0.09446,-5.80728c0,0 -0.42383,-2.91264 1.36715,-1.49541z" fill="#426b7f" stroke="none" stroke-width="0"/><path d="M67.5013,149.11587c1.03253,0 3.08671,0.10175 3.08671,0.10175l-0.46957,2.17496c0,0 -1.71321,-0.30526 -2.61714,-0.30526c-0.86449,0 -2.27603,0.25438 -2.27603,0.25438l-0.41739,-2.12408c0,0 1.82944,-0.10175 2.69342,-0.10175z" fill="#426b7f" stroke="none" stroke-width="0"/><path d="M35.61275,154.6115c0,0 -0.09871,-5.47632 0.26586,-5.97638c0.13707,-0.18802 1.80897,0.06287 1.80897,0.06287c0,0 0.44471,1.1691 0.41259,1.80453c0.19349,2.15805 0.76319,9.63191 -0.41907,11.40219c-0.97452,1.45921 -6.87195,0.33701 -6.87195,0.33701l0.41475,-1.62798c0,0 3.44981,1.04223 4.14206,-0.19877c0.82368,-1.47663 0.2468,-5.80347 0.2468,-5.80347z" fill="#426b7f" stroke="none" stroke-width="0"/><path d="M47.8377,148.74024v10.4h-2.4v-10.4z" fill="#426b7f" stroke="none" stroke-width="0"/><path d="M41.33769,148.74024c0,0 -0.32868,6.59143 0.40282,8.08581c0.61478,1.25592 3.69718,0.2901 3.69718,0.2901l0.5,1.63667c0,0 -5.51463,0.99177 -6.38691,-0.48853c-1.05823,-1.79587 -0.21309,-9.52406 -0.21309,-9.52406z" fill="#426b7f" stroke="none" stroke-width="0"/><path d="M48.97649,159.18179v-10.4h2.4v10.4z" fill="#426b7f" stroke="none" stroke-width="0"/><path d="M55.47649,159.18179c0,0 0.32868,-6.59143 -0.40282,-8.08581c-0.61478,-1.25592 -3.69718,-0.2901 -3.69718,-0.2901l-0.5,-1.63667c0,0 5.51463,-0.99177 6.38691,0.48853c1.05823,1.79587 0.21309,9.52406 0.21309,9.52406z" fill="#426b7f" stroke="none" stroke-width="0"/><path d="M60.58516,159.18179c0,0 0.32868,-6.59143 -0.40282,-8.08581c-0.61478,-1.25592 -3.69718,-0.2901 -3.69718,-0.2901l-0.5,-1.63667c0,0 5.51463,-0.99177 6.38691,0.48853c1.05823,1.79587 0.21309,9.52406 0.21309,9.52406z" fill="#426b7f" stroke="none" stroke-width="0"/><text transform="translate(39.36382,145.69735) scale(0.24813,0.24813)" font-size="40" xml:space="preserve" fill="#426b7f" fill-rule="nonzero" stroke="#426b7f" stroke-width="1" stroke-linecap="butt" stroke-linejoin="miter" stroke-miterlimit="10" stroke-dasharray="" stroke-dashoffset="0" font-family="Sans Serif" font-weight="normal" text-anchor="start" style="mix-blend-mode: normal"><tspan x="0" dy="0">if 0</tspan></text><path d="M79.83273,163.14323c0,-2.2827 0,-14.17968 0,-17.33748c0,-0.49051 0.15209,-0.77016 0.3671,-0.77016c1.41663,0 16.18872,0 18.81347,0c0.25713,0 0.39768,0.37887 0.39768,0.8418c0,1.89701 0,14.62937 0,17.91062c0,0.49081 -0.10729,0.77016 -0.3059,0.77016c-2.36208,0 -17.64034,0 -18.96644,0c-0.18112,0 -0.3059,-0.67773 -0.3059,-1.41494z" fill="#69a9c9" stroke="none" stroke-width="0"/></g><text transform="translate(102.88065,158.61611) scale(0.32167,0.32167)" font-size="40" xml:space="preserve" fill="#ffffff" fill-rule="nonzero" stroke="none" stroke-width="1" stroke-linecap="butt" stroke-linejoin="miter" stroke-miterlimit="10" stroke-dasharray="" stroke-dashoffset="0" font-family="Sans Serif" font-weight="normal" text-anchor="start" style="mix-blend-mode: normal"><tspan x="0" dy="0">零跳转：只有手上拿着0时才能跳转。否则继续运行下一行。</tspan></text><path d="M51.50492,3.3103l8.73789,2.83951l-9.02004,28.38879l-5.66268,-0.19462l8.74643,-24.62847l-7.76973,-0.96393l-2.45865,4.03496l-3.5499,-0.55412l0.56727,-2.29794l1.41947,-4.49499l4.05734,-2.26836z" fill="#ffffff" stroke="none" stroke-width="0" stroke-linecap="round"/></g></g></svg>