<svg version="1.1" xmlns="http://www.w3.org/2000/svg" xmlns:xlink="http://www.w3.org/1999/xlink" width="13.05704" height="16.63758" viewBox="0,0,13.05704,16.63758"><g transform="translate(-233.34648,-189.43122)"><g data-paper-data="{&quot;isPaintingLayer&quot;:true}" fill="#562d00" fill-rule="nonzero" stroke="none" stroke-width="0" stroke-linecap="butt" stroke-linejoin="miter" stroke-miterlimit="10" stroke-dasharray="" stroke-dashoffset="0" style="mix-blend-mode: normal"><path d="M235.67537,205.14094c-2.50864,-1.9851 -3.07331,-11.41903 -1.28898,-14.37177c1.47077,-2.4339 10.76913,-0.80322 10.76913,-0.80322l-0.58569,2.691c0,0 -6.45467,-1.58798 -7.49127,0.47699c-1.23341,2.45705 0.41611,9.54828 0.41611,9.54828c0,0 1.12542,4.78895 -1.81928,2.45874z"/><path d="M241.97504,206.06878c-1.69766,0 -5.07513,-0.31016 -5.07513,-0.31016l0.62919,-2.71892c0,0 2.81684,0.2162 4.30308,0.2162c1.42139,0 3.88508,-0.84681 3.88508,-0.84681l0.68626,2.63526c0,0 -3.00795,1.02444 -4.4285,1.02444z"/></g></g></svg>