<svg version="1.1" xmlns="http://www.w3.org/2000/svg" xmlns:xlink="http://www.w3.org/1999/xlink" width="37.68886" height="10.41209" viewBox="0,0,37.68886,10.41209"><g transform="translate(-239.67633,-174.00687)"><g data-paper-data="{&quot;isPaintingLayer&quot;:true}" fill-rule="nonzero" stroke-linecap="butt" stroke-linejoin="miter" stroke-miterlimit="10" stroke-dasharray="" stroke-dashoffset="0" style="mix-blend-mode: normal"><path d="M239.67634,183.71758c0,-1.13153 0,-7.02884 0,-8.59416c0,-0.24315 0.20542,-0.38176 0.49583,-0.38176c1.91342,0 21.86608,0 25.41133,0c0.34731,0 0.53714,0.1878 0.53714,0.41727c0,0.94034 0,7.25176 0,8.87827c0,0.24329 -0.14492,0.38176 -0.41319,0.38176c-3.19046,0 -23.82676,0 -25.61793,0c-0.24464,0 -0.41319,-0.33594 -0.41319,-0.70139z" fill-opacity="0.82353" fill="#000000" stroke="none" stroke-width="0"/><text transform="translate(241.53591,181.34159) scale(0.14247,0.14247)" font-size="40" xml:space="preserve" fill="#d6d6d6" fill-rule="nonzero" stroke="#d6d6d6" stroke-width="2" stroke-linecap="butt" stroke-linejoin="miter" stroke-miterlimit="10" stroke-dasharray="" stroke-dashoffset="0" font-family="Sans Serif" font-weight="normal" text-anchor="start" style="mix-blend-mode: normal"><tspan x="0" dy="0">最大值室</tspan></text><path d="M267.73771,183.60435c-0.07706,-1.12889 -0.47867,-7.01252 -0.58526,-8.57422c-0.01656,-0.24258 0.04859,-0.38597 0.15406,-0.39316c0.6948,-0.04743 7.93986,-0.54196 9.22718,-0.62982c0.12611,-0.0086 0.20784,0.17404 0.22346,0.40299c0.06403,0.93816 0.49384,7.23493 0.60459,8.85767c0.01656,0.24273 -0.02661,0.38446 -0.12404,0.39112c-1.15848,0.07907 -8.65181,0.59054 -9.30221,0.63495c-0.08884,0.00607 -0.17292,-0.32491 -0.19781,-0.68952z" fill-opacity="0.82353" fill="#939470" stroke="none" stroke-width="0"/><text transform="translate(270.44637,181.20605) rotate(-3.90455) scale(0.14247,0.14247)" font-size="40" xml:space="preserve" fill="#dadca7" fill-rule="nonzero" stroke="#d5d7a3" stroke-width="2" stroke-linecap="butt" stroke-linejoin="miter" stroke-miterlimit="10" stroke-dasharray="" stroke-dashoffset="0" font-family="Sans Serif" font-weight="normal" text-anchor="start" style="mix-blend-mode: normal"><tspan x="0" dy="0">B</tspan></text></g></g></svg>