<svg version="1.1" xmlns="http://www.w3.org/2000/svg" xmlns:xlink="http://www.w3.org/1999/xlink" width="34.125" height="34.125" viewBox="0,0,34.125,34.125"><g transform="translate(-222.9375,-162.9375)"><g data-paper-data="{&quot;isPaintingLayer&quot;:true}" fill="#8ac916" fill-rule="nonzero" stroke-linecap="butt" stroke-linejoin="miter" stroke-miterlimit="10" stroke-dasharray="" stroke-dashoffset="0" style="mix-blend-mode: normal"><path d="M255.5625,180c0,8.59493 -6.96757,15.5625 -15.5625,15.5625c-8.59493,0 -15.5625,-6.96757 -15.5625,-15.5625c0,-8.59493 6.96757,-15.5625 15.5625,-15.5625c8.59493,0 15.5625,6.96757 15.5625,15.5625z" stroke-opacity="0.50196" stroke="#354d08" stroke-width="3"/><g stroke="#608b0f" stroke-width="1"><path d="M231.91581,185.85934c0,-1.87246 0,-11.63134 0,-14.22162c0,-0.40236 0.10365,-0.63175 0.25017,-0.63175c0.96542,0 9.09249,0 10.88123,0c0.08592,0 0.71865,0.44355 1.23988,0.99116c0.54178,0.56919 0.9711,1.2468 0.9711,1.44034c0,1.55608 0,10.25922 0,12.95077c0,0.4026 -0.07312,0.63175 -0.20847,0.63175c-1.60973,0 -12.0217,0 -12.92542,0c-0.12343,0 -0.20847,-0.55593 -0.20847,-1.16065z"/><path d="M238.98638,188.20262c0,-1.27678 0,-7.9311 0,-9.69734c0,-0.27436 0.07067,-0.43077 0.17058,-0.43077c0.65829,0 6.19993,0 7.41962,0c0.05859,0 0.49002,0.30245 0.84544,0.67584c0.36943,0.38812 0.66217,0.85016 0.66217,0.98213c0,1.06105 0,6.99549 0,8.83078c0,0.27452 -0.04986,0.43077 -0.14215,0.43077c-1.09763,0 -8.19728,0 -8.8135,0c-0.08417,0 -0.14215,-0.37907 -0.14215,-0.79142z"/></g></g></g></svg>