<svg version="1.1" xmlns="http://www.w3.org/2000/svg" xmlns:xlink="http://www.w3.org/1999/xlink" width="33.18966" height="11.9418" viewBox="0,0,33.18966,11.9418"><g transform="translate(-180.85109,-171.03933)"><g data-paper-data="{&quot;isPaintingLayer&quot;:true}" fill-rule="nonzero" stroke-linecap="butt" stroke-linejoin="miter" stroke-miterlimit="10" stroke-dasharray="" stroke-dashoffset="0" style="mix-blend-mode: normal"><path d="M192.59837,181.43379c0.04607,-1.13059 0.28619,-7.02301 0.34993,-8.58703c0.0099,-0.24295 0.1794,-0.37477 0.41105,-0.36533c1.52625,0.0622 17.44161,0.71076 20.26951,0.826c0.27703,0.01129 0.42081,0.2051 0.41146,0.43438c-0.03829,0.93956 -0.29527,7.24575 -0.3615,8.87091c-0.00991,0.24309 -0.13114,0.37673 -0.34513,0.36801c-2.54489,-0.10371 -19.00557,-0.77449 -20.4343,-0.83271c-0.19514,-0.00795 -0.31591,-0.34909 -0.30103,-0.71424z" fill-opacity="0.82353" fill="#000000" stroke="none" stroke-width="0"/><text transform="translate(194.55316,179.13551) rotate(2.33321) scale(0.14247,0.14247)" font-size="40" xml:space="preserve" fill="#d6d6d6" fill-rule="nonzero" stroke="#d6d6d6" stroke-width="2" stroke-linecap="butt" stroke-linejoin="miter" stroke-miterlimit="10" stroke-dasharray="" stroke-dashoffset="0" font-family="Sans Serif" font-weight="normal" text-anchor="start" style="mix-blend-mode: normal"><tspan x="0" dy="0">三排序</tspan></text><path d="M180.85312,180.0035c0.03964,-1.13082 0.24619,-7.02453 0.30103,-8.5889c0.00851,-0.24299 0.08809,-0.37891 0.19373,-0.3752c0.69598,0.0244 7.95345,0.27876 9.24299,0.32397c0.12632,0.00444 0.18881,0.19452 0.18076,0.42386c-0.03293,0.93976 -0.25402,7.24731 -0.311,8.87284c-0.00854,0.24314 -0.06607,0.37968 -0.16367,0.37627c-1.16046,-0.04068 -8.66662,-0.30377 -9.31813,-0.32659c-0.08899,-0.00312 -0.13853,-0.34099 -0.12574,-0.70622z" fill-opacity="0.82353" fill="#b0963f" stroke="none" stroke-width="0"/><text transform="translate(182.72508,177.90776) rotate(2.00716) scale(0.14247,0.14247)" font-size="40" xml:space="preserve" fill="#fffc78" fill-rule="nonzero" stroke="#fffc78" stroke-width="2" stroke-linecap="butt" stroke-linejoin="miter" stroke-miterlimit="10" stroke-dasharray="" stroke-dashoffset="0" font-family="Sans Serif" font-weight="normal" text-anchor="start" style="mix-blend-mode: normal"><tspan x="0" dy="0">SS</tspan></text></g></g></svg>