<svg version="1.1" xmlns="http://www.w3.org/2000/svg" xmlns:xlink="http://www.w3.org/1999/xlink" width="49.28306" height="10.3189" viewBox="0,0,49.28306,10.3189"><g transform="translate(-239.9041,-174.9152)"><g data-paper-data="{&quot;isPaintingLayer&quot;:true}" fill-rule="nonzero" stroke-linecap="butt" stroke-linejoin="miter" stroke-miterlimit="10" stroke-dasharray="" stroke-dashoffset="0" style="mix-blend-mode: normal"><path d="M239.90415,183.88561c0.00842,-1.13149 0.0523,-7.02865 0.06395,-8.59392c0.00181,-0.24315 0.29888,-0.37954 0.7174,-0.37644c2.7575,0.02053 31.51204,0.2345 36.62125,0.27253c0.50052,0.00372 0.7727,0.19356 0.77099,0.42302c-0.007,0.94031 -0.05397,7.25155 -0.06606,8.87802c-0.0018,0.24329 -0.21168,0.38019 -0.59832,0.37732c-4.59789,-0.03422 -34.33766,-0.25554 -36.91898,-0.27475c-0.35256,-0.00263 -0.59298,-0.34037 -0.59026,-0.7058z" fill-opacity="0.82353" fill="#000000" stroke="none" stroke-width="0"/><text transform="translate(241.78136,181.52353) rotate(0.4263) scale(0.14247,0.14247)" font-size="40" xml:space="preserve" fill="#d6d6d6" fill-rule="nonzero" stroke="#d6d6d6" stroke-width="2" stroke-linecap="butt" stroke-linejoin="miter" stroke-miterlimit="10" stroke-dasharray="" stroke-dashoffset="0" font-family="Sans Serif" font-weight="normal" text-anchor="start" style="mix-blend-mode: normal"><tspan x="0" dy="0">斐波那契参上</tspan></text><path d="M279.55627,184.53858c-0.04099,-1.13077 -0.25465,-7.02423 -0.31135,-8.58853c-0.00881,-0.24298 0.06088,-0.38422 0.16652,-0.38804c0.69595,-0.02522 7.95311,-0.28831 9.24259,-0.33505c0.12632,-0.00457 0.20218,0.18058 0.21048,0.40991c0.03407,0.93972 0.26271,7.247 0.32162,8.87246c0.0088,0.24313 -0.03887,0.38342 -0.13646,0.38697c-1.16041,0.04206 -8.66625,0.31415 -9.31773,0.33778c-0.08899,0.00323 -0.16246,-0.33026 -0.17571,-0.69547z" fill-opacity="0.82353" fill="#b0963f" stroke="none" stroke-width="0"/><text transform="translate(282.77044,182.20804) rotate(-2.07562) scale(0.14247,0.14247)" font-size="40" xml:space="preserve" fill="#fffc78" fill-rule="nonzero" stroke="#fffc78" stroke-width="2" stroke-linecap="butt" stroke-linejoin="miter" stroke-miterlimit="10" stroke-dasharray="" stroke-dashoffset="0" font-family="Sans Serif" font-weight="normal" text-anchor="start" style="mix-blend-mode: normal"><tspan x="0" dy="0">S</tspan></text></g></g></svg>