<svg version="1.1" xmlns="http://www.w3.org/2000/svg" xmlns:xlink="http://www.w3.org/1999/xlink" width="487.98799" height="373.87387" viewBox="0,0,487.98799,373.87387"><g transform="translate(3.99399,6.9369)"><g data-paper-data="{&quot;isPaintingLayer&quot;:true}" fill-rule="nonzero" stroke-linejoin="miter" stroke-miterlimit="10" stroke-dasharray="" stroke-dashoffset="0" style="mix-blend-mode: normal"><path d="M-3.99399,366.93697v-373.87387h487.98799v373.87387z" fill-opacity="0.70196" fill="#000000" stroke="none" stroke-width="0" stroke-linecap="butt"/><text transform="translate(4.00601,27.66367) scale(0.67335,0.67335)" font-size="40" xml:space="preserve" fill="#ffffff" fill-rule="nonzero" stroke="#ffffff" stroke-width="3" stroke-linecap="butt" stroke-linejoin="miter" stroke-miterlimit="10" stroke-dasharray="" stroke-dashoffset="0" font-family="Sans Serif" font-weight="normal" text-anchor="start" style="mix-blend-mode: normal"><tspan x="0" dy="0">第     年</tspan></text><text transform="translate(98.63065,28.89191) scale(0.5,0.5)" font-size="40" xml:space="preserve" fill="#ffffff" fill-rule="nonzero" stroke="none" stroke-width="1" stroke-linecap="butt" stroke-linejoin="miter" stroke-miterlimit="10" stroke-dasharray="" stroke-dashoffset="0" font-family="Sans Serif" font-weight="normal" text-anchor="start" style="mix-blend-mode: normal"><tspan x="0" dy="0">扰码处理器</tspan></text><text transform="translate(2.29732,54.87026) scale(0.34348,0.34348)" font-size="40" xml:space="preserve" fill="#ffffff" fill-rule="nonzero" stroke="#ffffff" stroke-width="1" stroke-linecap="butt" stroke-linejoin="miter" stroke-miterlimit="10" stroke-dasharray="" stroke-dashoffset="0" font-family="Sans Serif" font-weight="normal" text-anchor="start" style="mix-blend-mode: normal"><tspan x="0" dy="0">从INBOX(输入栏)中去处两项，交换并输出到OUTBOX(输出栏)中。重复直到</tspan><tspan x="0" dy="48px">清空INBOX(输入栏)。</tspan><tspan x="0" dy="48px">例如：输入3，6，A，B，老板想要的结果：6，3，B，A</tspan></text><path d="M53.06576,1.89256l-3.74939,31.46964h-4.96271l3.65674,-27.82568z" fill="#ffffff" stroke="none" stroke-width="0" stroke-linecap="round"/><path d="M37.33588,11.77437l3.00786,-5.93226l4.32174,-2.79356l-2.98319,8.41957l-0.25753,4.737l15.83453,-0.85665l-0.82093,4.50922l-20.69764,0.57452z" fill="#ffffff" stroke="none" stroke-width="0" stroke-linecap="round"/><g stroke="none" stroke-width="0"><path d="M260.74942,189.6433c0,-2.2827 0,-14.17968 0,-17.33748c0,-0.49051 0.15209,-0.77016 0.3671,-0.77016c1.41662,0 16.18873,0 18.81348,0c0.25713,0 0.39768,0.37887 0.39768,0.8418c0,1.89701 0,14.62937 0,17.91062c0,0.49081 -0.10729,0.77016 -0.30591,0.77016c-2.36208,0 -17.64033,0 -18.96644,0c-0.18112,0 -0.30591,-0.67772 -0.30591,-1.41494z" fill="#c96969" stroke-linecap="butt"/><path d="M273.02955,173.55639l-2.04453,15.79097h-2.42788l1.78897,-13.03951l-2.93902,0.59815l0.7667,-2.27295l2.1915,-1.14702z" fill="#7f4242" stroke-linecap="round"/></g><g stroke-linecap="butt"><path d="M25.50008,192.6501c0,-3.18624 0,-19.79228 0,-24.2c0,-0.68466 0.39815,-1.075 0.96101,-1.075c3.70857,0 42.38041,0 49.25173,0c0.67314,0 1.04109,0.52883 1.04109,1.175c0,2.64788 0,20.41996 0,25c0,0.68508 -0.28088,1.075 -0.80084,1.075c-6.18368,0 -46.18056,0 -49.65215,0c-0.47416,0 -0.80084,-0.94598 -0.80084,-1.975z" fill="#c96969" stroke="none" stroke-width="0"/><path d="M78.99942,193.47661c0,-2.2827 0,-14.17968 0,-17.33748c0,-0.49051 0.15209,-0.77016 0.3671,-0.77016c1.41662,0 16.18873,0 18.81348,0c0.25713,0 0.39768,0.37887 0.39768,0.8418c0,1.89701 0,14.62937 0,17.91062c0,0.49081 -0.10729,0.77016 -0.30591,0.77016c-2.36208,0 -17.64033,0 -18.96644,0c-0.18112,0 -0.30591,-0.67772 -0.30591,-1.41494z" fill="#c96969" stroke="none" stroke-width="0"/><path d="M29.29806,187.22845c0,-1.87246 0,-11.63134 0,-14.22162c0,-0.40236 0.10365,-0.63175 0.25017,-0.63175c0.96542,0 9.09249,0 10.88123,0c0.08592,0 0.71865,0.44355 1.23988,0.99116c0.54178,0.56919 0.9711,1.2468 0.9711,1.44034c0,1.55608 0,10.25922 0,12.95077c0,0.4026 -0.07312,0.63175 -0.20847,0.63175c-1.60973,0 -12.0217,0 -12.92542,0c-0.12343,0 -0.20847,-0.55593 -0.20847,-1.16065z" fill="#c96969" stroke="#7f4242" stroke-width="1"/><path d="M36.36863,189.5717c0,-1.27678 0,-7.9311 0,-9.69734c0,-0.27436 0.07067,-0.43077 0.17058,-0.43077c0.65829,0 6.19993,0 7.41962,0c0.05859,0 0.49002,0.30245 0.84544,0.67584c0.36943,0.38812 0.66217,0.85016 0.66217,0.98213c0,1.06105 0,6.99549 0,8.83078c0,0.27452 -0.04986,0.43077 -0.14215,0.43077c-1.09763,0 -8.19728,0 -8.8135,0c-0.08417,0 -0.14215,-0.37907 -0.14215,-0.79142z" fill="#c96969" stroke="#7f4242" stroke-width="1"/><g fill="#7f4242" stroke="none" stroke-width="0"><path d="M48.84276,178.69969c-1.16374,-0.92087 -1.42568,-5.29717 -0.59795,-6.66693c0.68227,-1.12906 4.99571,-0.37261 4.99571,-0.37261l-0.27171,1.24833c0,0 -2.53037,-0.73666 -3.01124,0.22127c-0.57217,1.1398 -0.07205,4.42936 -0.07205,4.42936c0,0 0.32327,2.22155 -1.04276,1.14059z"/><path d="M51.76511,179.13008c-0.78754,0 -2.35431,-0.07761 -2.35431,-0.07761l0.35815,-1.6589c0,0 1.30671,0.23283 1.99616,0.23283c0.65937,0 1.73599,-0.19402 1.73599,-0.19402l0.31835,1.62009c0,0 -1.39536,0.07761 -2.05434,0.07761z"/><path d="M58.45306,177.37667c0,0 0.48768,-3.28956 -0.07025,-4.42936c-0.46891,-0.95792 -2.93635,-0.22127 -2.93635,-0.22127l-0.26495,-1.24833c0,0 4.20615,-0.75645 4.87146,0.37261c0.80714,1.36976 0.55171,5.74606 -0.58308,6.66694c-1.33205,1.08096 -1.01684,-1.1406 -1.01684,-1.1406z"/><path d="M56.16778,172.84668c0,0 -0.48768,3.28956 0.07025,4.42936c0.46891,0.95792 2.93635,0.22127 2.93635,0.22127l0.26495,1.24833c0,0 -4.20615,0.75645 -4.87146,-0.37261c-0.80714,-1.36976 -0.55171,-5.74606 0.58308,-6.66694c1.33205,-1.08096 1.01684,1.1406 1.01684,1.1406z"/><path d="M62.86271,171.26582v9.51914h-1.76108v-9.51914z"/><path d="M66.72902,171.60639c1.09173,0.86389 1.33747,4.96944 0.56096,6.25445c-0.64006,1.0592 -4.68662,0.34956 -4.68662,0.34956l0.2549,-1.1711c0,0 2.37382,0.69108 2.82494,-0.20758c0.53677,-1.06928 0.06759,-4.15531 0.06759,-4.15531c0,0 -0.30327,-2.08409 0.97824,-1.07002z"/><path d="M63.98744,171.2026c0.73881,0 2.20865,0.0728 2.20865,0.0728l-0.336,1.55627c0,0 -1.22586,-0.21842 -1.87266,-0.21842c-0.61857,0 -1.62858,0.18202 -1.62858,0.18202l-0.29866,-1.51985c0,0 1.30903,-0.0728 1.92724,-0.0728z"/><path d="M72.52852,172.32743c0,0 0.55016,-0.45156 0.80211,-0.57364c0.2383,-0.11547 0.67091,-0.14012 0.67091,-0.14012v7.33792c0,0 -0.4307,0.97798 -0.77198,1.2803c-0.20733,0.18366 -1.10263,0.42276 -1.10263,0.42276l-0.2871,-1.41185l0.63945,-0.33024l0.04923,-6.58514z"/><path d="M69.13733,171.69996c1.10771,-0.92978 0.84557,0.98106 0.84557,0.98106c0,0 -0.40554,2.82948 0.05842,3.80987c0.38994,0.82395 2.44181,0.19032 2.44181,0.19032l0.22033,1.07374c0,0 -3.49775,0.65066 -4.05101,-0.3205c-0.6712,-1.17818 -0.45879,-4.94242 0.48488,-5.73449z"/><path d="M70.27809,180.70945c-0.53437,0 -1.66586,-0.06675 -1.66586,-0.06675l0.25815,-1.39351c0,0 0.87303,0.16688 1.40771,0.16688c0.55908,0 1.61869,-0.20027 1.61869,-0.20027l0.29042,1.42688c0,0 -1.27049,0.06675 -1.90911,0.06675z"/></g><path d="M65.427,191.62281c0,0 0.47711,-3.21828 -0.06873,-4.33338c-0.45875,-0.93716 -2.87272,-0.21647 -2.87272,-0.21647l-0.25921,-1.22128c0,0 4.115,-0.74006 4.7659,0.36454c0.78965,1.34007 0.53975,5.62155 -0.57045,6.52247c-1.30319,1.05753 -0.9948,-1.11588 -0.9948,-1.11588z" fill="#7f4242" stroke="none" stroke-width="0"/><path d="M63.19122,187.19097c0,0 -0.47711,3.21828 0.06873,4.33338c0.45875,0.93716 2.87272,0.21647 2.87272,0.21647l0.25921,1.22128c0,0 -4.115,0.74006 -4.7659,-0.36454c-0.78965,-1.34007 -0.53975,-5.62155 0.57045,-6.52247c1.30319,-1.05753 0.9948,1.11588 0.9948,1.11588z" fill="#7f4242" stroke="none" stroke-width="0"/><path d="M56.89084,193.02709v-9.92706h1.79087v9.92706z" fill="#7f4242" stroke="none" stroke-width="0"/><path d="M54.84525,187.57079l0.43206,-1.58499c0,0 1.46117,0.18982 2.35605,0.18982c0.93572,0 2.70916,-0.22778 2.70916,-0.22778l0.48608,1.62295c0,0 -1.94891,-0.15593 -3.01775,-0.15593c-0.89436,0 -2.96561,0.15593 -2.96561,0.15593z" fill="#7f4242" stroke="none" stroke-width="0"/></g><path d="M92.02955,177.13974l-2.04453,15.79097h-2.42788l1.78897,-13.03951l-2.93902,0.59815l0.7667,-2.27295l2.1915,-1.14702z" fill="#7f4242" stroke="none" stroke-width="0" stroke-linecap="round"/><text transform="translate(104.38064,187.6161) scale(0.32167,0.32167)" font-size="40" xml:space="preserve" fill="#ffffff" fill-rule="nonzero" stroke="none" stroke-width="1" stroke-linecap="butt" stroke-linejoin="miter" stroke-miterlimit="10" stroke-dasharray="" stroke-dashoffset="0" font-family="Sans Serif" font-weight="normal" text-anchor="start" style="mix-blend-mode: normal"><tspan x="0" dy="0">粘贴：把手上的东西粘贴到       处格子 。</tspan></text></g></g></svg>