<svg version="1.1" xmlns="http://www.w3.org/2000/svg" xmlns:xlink="http://www.w3.org/1999/xlink" width="38.63784" height="10.68578" viewBox="0,0,38.63784,10.68578"><g transform="translate(-239.84233,-173.60629)"><g data-paper-data="{&quot;isPaintingLayer&quot;:true}" fill-rule="nonzero" stroke-linecap="butt" stroke-linejoin="miter" stroke-miterlimit="10" stroke-dasharray="" stroke-dashoffset="0" style="mix-blend-mode: normal"><path d="M240.18489,183.60749c-0.04506,-1.13063 -0.2799,-7.02326 -0.34223,-8.58734c-0.00968,-0.24296 0.19005,-0.38964 0.48023,-0.4012c1.9119,-0.07619 21.84874,-0.87073 25.39117,-1.01191c0.34703,-0.01383 0.54419,0.16626 0.55333,0.39555c0.03745,0.93959 0.28877,7.24601 0.35354,8.87123c0.00969,0.2431 -0.1296,0.38723 -0.39766,0.39791c-3.18793,0.12705 -23.80786,0.94881 -25.59761,1.02013c-0.24445,0.00974 -0.42624,-0.31922 -0.44079,-0.68438z" fill-opacity="0.82353" fill="#000000" stroke="none" stroke-width="0"/><text transform="translate(241.94838,181.15934) rotate(-2.28289) scale(0.14247,0.14247)" font-size="40" xml:space="preserve" fill="#d6d6d6" fill-rule="nonzero" stroke="#d6d6d6" stroke-width="2" stroke-linecap="butt" stroke-linejoin="miter" stroke-miterlimit="10" stroke-dasharray="" stroke-dashoffset="0" font-family="Sans Serif" font-weight="normal" text-anchor="start" style="mix-blend-mode: normal"><tspan x="0" dy="0">存储楼层</tspan></text><path d="M268.7705,183.20576c0.0113,-1.13146 0.07018,-7.02849 0.08582,-8.59374c0.00243,-0.24313 0.07857,-0.381 0.18427,-0.37993c0.69637,0.00696 7.95794,0.07947 9.2482,0.09236c0.1264,0.00127 0.19362,0.18973 0.19132,0.4192c-0.00939,0.94029 -0.07242,7.2514 -0.08868,8.87784c-0.00244,0.24328 -0.05654,0.38121 -0.15419,0.38025c-1.16111,-0.0116 -8.67151,-0.08661 -9.32339,-0.09311c-0.08904,-0.00089 -0.14703,-0.33741 -0.14339,-0.70285z" fill-opacity="0.82353" fill="#b06040" stroke="none" stroke-width="0"/><text transform="translate(271.6581,181.02622) rotate(0.57308) scale(0.14247,0.14247)" font-size="40" xml:space="preserve" fill="#ffa878" fill-rule="nonzero" stroke="#ffa878" stroke-width="2" stroke-linecap="butt" stroke-linejoin="miter" stroke-miterlimit="10" stroke-dasharray="" stroke-dashoffset="0" font-family="Sans Serif" font-weight="normal" text-anchor="start" style="mix-blend-mode: normal"><tspan x="0" dy="0">A</tspan></text></g></g></svg>