<svg version="1.1" xmlns="http://www.w3.org/2000/svg" xmlns:xlink="http://www.w3.org/1999/xlink" width="487.98799" height="373.87387" viewBox="0,0,487.98799,373.87387"><g transform="translate(3.994,6.9369)"><g data-paper-data="{&quot;isPaintingLayer&quot;:true}" fill-rule="nonzero" stroke-linejoin="miter" stroke-miterlimit="10" stroke-dasharray="" stroke-dashoffset="0" style="mix-blend-mode: normal"><path d="M-3.994,366.93697v-373.87387h487.98799v373.87387z" fill-opacity="0.70196" fill="#000000" stroke="none" stroke-width="0" stroke-linecap="butt"/><text transform="translate(4.00601,27.66368) scale(0.67335,0.67335)" font-size="40" xml:space="preserve" fill="#ffffff" fill-rule="nonzero" stroke="#ffffff" stroke-width="3" stroke-linecap="butt" stroke-linejoin="miter" stroke-miterlimit="10" stroke-dasharray="" stroke-dashoffset="0" font-family="Sans Serif" font-weight="normal" text-anchor="start" style="mix-blend-mode: normal"><tspan x="0" dy="0">第     年</tspan></text><text transform="translate(98.63065,28.89191) scale(0.5,0.5)" font-size="40" xml:space="preserve" fill="#ffffff" fill-rule="nonzero" stroke="none" stroke-width="1" stroke-linecap="butt" stroke-linejoin="miter" stroke-miterlimit="10" stroke-dasharray="" stroke-dashoffset="0" font-family="Sans Serif" font-weight="normal" text-anchor="start" style="mix-blend-mode: normal"><tspan x="0" dy="0">质数工厂</tspan></text><text transform="translate(2.29732,54.87027) scale(0.34348,0.34348)" font-size="40" xml:space="preserve" fill="#ffffff" fill-rule="nonzero" stroke="#ffffff" stroke-width="1" stroke-linecap="butt" stroke-linejoin="miter" stroke-miterlimit="10" stroke-dasharray="" stroke-dashoffset="0" font-family="Sans Serif" font-weight="normal" text-anchor="start" style="mix-blend-mode: normal"><tspan x="0" dy="0">是你确定你是该来这儿的吗？</tspan><tspan x="0" dy="48px">这个任务超级难！</tspan><tspan x="0" dy="48px">我也不懂该怎么搞。</tspan><tspan x="0" dy="48px">质因子是啥？</tspan><tspan x="0" dy="48px">我记得把它记在这儿了……</tspan><tspan x="0" dy="48px">那是一些互异的质数，它们的乘积就是原来的数字。</tspan><tspan x="0" dy="48px">例如6的质因子是2和3！</tspan><tspan x="0" dy="48px">8的质因子是2和2和2！</tspan><tspan x="0" dy="48px">5的质因子是5！是的，质数只有一个质因子！</tspan><tspan x="0" dy="48px"> </tspan><tspan x="0" dy="48px">对于每个INBOX的数，将它的质因子从小到大排序发送到OUTBOX中。</tspan><tspan x="0" dy="48px">你不用考虑所有的质数，因为我给你的INBOX中所有数都小于等于30。</tspan></text><path d="M45.65922,3.5758l2.877,4.65753l-6.14885,9.35716l5.98727,8.81613l-1.79306,6.1719l-3.29158,1.45915l-8.0583,0.35837l-4.38651,-1.65401l0.87341,-3.92782l3.71337,1.5025l3.19742,-0.02576l3.44903,-3.41535l-4.28497,-8.68842l5.27222,-7.90295l-2.48393,-1.14738l-6.81126,1.32258l-0.62353,-3.99721l7.4711,-3.02864z" fill="#ffffff" stroke="none" stroke-width="0" stroke-linecap="round"/><path d="M61.65922,3.5758l2.877,4.65753l-6.14885,9.35716l5.98727,8.81613l-1.79306,6.1719l-3.29158,1.45915l-8.0583,0.35837l-4.38651,-1.65401l0.87341,-3.92782l3.71337,1.5025l3.19742,-0.02576l3.44903,-3.41535l-4.28497,-8.68842l5.27222,-7.90295l-2.48393,-1.14738l-6.81126,1.32258l-0.62353,-3.99721l7.4711,-3.02864z" fill="#ffffff" stroke="none" stroke-width="0" stroke-linecap="round"/></g></g></svg>