<svg version="1.1" xmlns="http://www.w3.org/2000/svg" xmlns:xlink="http://www.w3.org/1999/xlink" width="38.22381" height="10.94806" viewBox="0,0,38.22381,10.94806"><g transform="translate(-240.34232,-173.844)"><g data-paper-data="{&quot;isPaintingLayer&quot;:true}" fill-rule="nonzero" stroke-linecap="butt" stroke-linejoin="miter" stroke-miterlimit="10" stroke-dasharray="" stroke-dashoffset="0" style="mix-blend-mode: normal"><path d="M240.68489,184.10748c-0.04506,-1.13063 -0.2799,-7.02326 -0.34223,-8.58734c-0.00968,-0.24296 0.19005,-0.38964 0.48023,-0.4012c1.9119,-0.07619 21.84874,-0.87073 25.39117,-1.01191c0.34703,-0.01383 0.54419,0.16626 0.55333,0.39555c0.03745,0.93959 0.28877,7.24601 0.35354,8.87123c0.00969,0.2431 -0.1296,0.38723 -0.39766,0.39791c-3.18793,0.12705 -23.80786,0.94881 -25.59761,1.02013c-0.24445,0.00974 -0.42624,-0.31922 -0.44079,-0.68438z" fill-opacity="0.82353" fill="#000000" stroke="none" stroke-width="0"/><text transform="translate(242.44838,181.65931) rotate(-2.28289) scale(0.14247,0.14247)" font-size="40" xml:space="preserve" fill="#d6d6d6" fill-rule="nonzero" stroke="#d6d6d6" stroke-width="2" stroke-linecap="butt" stroke-linejoin="miter" stroke-miterlimit="10" stroke-dasharray="" stroke-dashoffset="0" font-family="Sans Serif" font-weight="normal" text-anchor="start" style="mix-blend-mode: normal"><tspan x="0" dy="0">小试除法</tspan></text><path d="M268.54643,182.8015c0.05349,-1.13025 0.33226,-7.02099 0.40627,-8.58456c0.01149,-0.24287 0.09272,-0.3778 0.19831,-0.37279c0.69563,0.03293 7.94944,0.37622 9.23832,0.43722c0.12626,0.00598 0.18641,0.19682 0.17555,0.42604c-0.04445,0.93929 -0.34282,7.24365 -0.41972,8.86836c-0.01151,0.24302 -0.07072,0.37884 -0.16827,0.37424c-1.15987,-0.0549 -8.66225,-0.40996 -9.31343,-0.44077c-0.08895,-0.00421 -0.13434,-0.34266 -0.11707,-0.7077z" fill-opacity="0.82353" fill="#b0963f" stroke="none" stroke-width="0"/><text transform="translate(271.94383,180.74724) rotate(2.71009) scale(0.14247,0.14247)" font-size="40" xml:space="preserve" fill="#fffc78" fill-rule="nonzero" stroke="#fffc78" stroke-width="2" stroke-linecap="butt" stroke-linejoin="miter" stroke-miterlimit="10" stroke-dasharray="" stroke-dashoffset="0" font-family="Sans Serif" font-weight="normal" text-anchor="start" style="mix-blend-mode: normal"><tspan x="0" dy="0">S</tspan></text></g></g></svg>