<svg version="1.1" xmlns="http://www.w3.org/2000/svg" xmlns:xlink="http://www.w3.org/1999/xlink" width="487.98799" height="373.87387" viewBox="0,0,487.98799,373.87387"><g transform="translate(3.994,6.93693)"><g data-paper-data="{&quot;isPaintingLayer&quot;:true}" fill-rule="nonzero" stroke-linejoin="miter" stroke-miterlimit="10" stroke-dasharray="" stroke-dashoffset="0" style="mix-blend-mode: normal"><path d="M-3.994,366.93694v-373.87387h487.98799v373.87387z" fill-opacity="0.70196" fill="#000000" stroke="none" stroke-width="0" stroke-linecap="butt"/><text transform="translate(4.00601,27.66364) scale(0.67335,0.67335)" font-size="40" xml:space="preserve" fill="#ffffff" fill-rule="nonzero" stroke="#ffffff" stroke-width="3" stroke-linecap="butt" stroke-linejoin="miter" stroke-miterlimit="10" stroke-dasharray="" stroke-dashoffset="0" font-family="Sans Serif" font-weight="normal" text-anchor="start" style="mix-blend-mode: normal"><tspan x="0" dy="0">第     年</tspan></text><text transform="translate(98.63064,28.8919) scale(0.5,0.5)" font-size="40" xml:space="preserve" fill="#ffffff" fill-rule="nonzero" stroke="none" stroke-width="1" stroke-linecap="butt" stroke-linejoin="miter" stroke-miterlimit="10" stroke-dasharray="" stroke-dashoffset="0" font-family="Sans Serif" font-weight="normal" text-anchor="start" style="mix-blend-mode: normal"><tspan x="0" dy="0">复印楼层</tspan></text><text transform="translate(2.29731,54.87023) scale(0.34348,0.34348)" font-size="40" xml:space="preserve" fill="#ffffff" fill-rule="nonzero" stroke="#ffffff" stroke-width="1" stroke-linecap="butt" stroke-linejoin="miter" stroke-miterlimit="10" stroke-dasharray="" stroke-dashoffset="0" font-family="Sans Serif" font-weight="normal" text-anchor="start" style="mix-blend-mode: normal"><tspan x="0" dy="0">天哪，INBOX(输入栏)已经疯了！</tspan><tspan x="0" dy="48px">但这并不意味着你可以给我偷懒！</tspan><tspan x="0" dy="48px">暂时先不管INBOX(输入栏)。</tspan><tspan x="0" dy="48px">给你一个新的代码和地毯。记住！你只有使用权，他们还是公司的。</tspan><tspan x="0" dy="48px">负责管理的员工已经把你需要的放到地毯上了。你所做的只有……把它捡起来。</tspan><tspan x="0" dy="48px">在地毯上拿起X、R、J、并放到OUTBOX(输出栏)中。</tspan></text><text transform="translate(103.88063,187.11608) scale(0.32167,0.32167)" font-size="40" xml:space="preserve" fill="#ffffff" fill-rule="nonzero" stroke="none" stroke-width="1" stroke-linecap="butt" stroke-linejoin="miter" stroke-miterlimit="10" stroke-dasharray="" stroke-dashoffset="0" font-family="Sans Serif" font-weight="normal" text-anchor="start" style="mix-blend-mode: normal"><tspan x="0" dy="0">复制：从       处地毯拷贝到手上。（注意：起始地毯为0）</tspan></text><g><path d="M25.0001,192.65009c0,-3.18624 0,-19.79228 0,-24.2c0,-0.68466 0.39815,-1.075 0.96101,-1.075c3.70857,0 42.38041,0 49.25173,0c0.67314,0 1.04109,0.52883 1.04109,1.175c0,2.64788 0,20.41996 0,25c0,0.68508 -0.28088,1.075 -0.80084,1.075c-6.18368,0 -46.18056,0 -49.65215,0c-0.47416,0 -0.80084,-0.94598 -0.80084,-1.975z" fill="#c96969" stroke="none" stroke-width="0" stroke-linecap="butt"/><path d="M30.51293,187.60465c0,-2.13211 0,-13.24426 0,-16.19374c0,-0.45815 0.11802,-0.71935 0.28486,-0.71935c1.09929,0 10.35335,0 12.39014,0c0.09784,0 0.8183,0.50506 1.41181,1.1286c0.61691,0.64812 1.10576,1.4197 1.10576,1.64007c0,1.77186 0,11.68187 0,14.74666c0,0.45843 -0.08326,0.71935 -0.23738,0.71935c-1.83295,0 -13.68876,0 -14.7178,0c-0.14055,0 -0.23738,-0.63302 -0.23738,-1.3216z" fill="none" stroke="#7f4242" stroke-width="1" stroke-linecap="butt"/><path d="M78.49943,193.47664c0,-2.2827 0,-14.17968 0,-17.33748c0,-0.49051 0.15209,-0.77016 0.3671,-0.77016c1.41662,0 16.18873,0 18.81348,0c0.25713,0 0.39768,0.37887 0.39768,0.8418c0,1.89701 0,14.62937 0,17.91062c0,0.49081 -0.10729,0.77016 -0.30591,0.77016c-2.36208,0 -17.64033,0 -18.96644,0c-0.18112,0 -0.30591,-0.67772 -0.30591,-1.41494z" fill="#c96969" stroke="none" stroke-width="0" stroke-linecap="butt"/><path d="M28.79807,189.28818c0,-2.13211 0,-13.24426 0,-16.19374c0,-0.45815 0.11802,-0.71935 0.28486,-0.71935c1.09929,0 10.35335,0 12.39014,0c0.09784,0 0.8183,0.50506 1.41181,1.1286c0.61691,0.64812 1.10576,1.4197 1.10576,1.64007c0,1.77186 0,11.68187 0,14.74666c0,0.45843 -0.08326,0.71935 -0.23738,0.71935c-1.83295,0 -13.68876,0 -14.7178,0c-0.14055,0 -0.23738,-0.63302 -0.23738,-1.3216z" fill="#c96969" stroke="#7f4242" stroke-width="1" stroke-linecap="butt"/><path d="M30.61709,178.23129h11.27138" fill="none" stroke="#7f4242" stroke-width="1" stroke-linecap="round"/><path d="M41.83183,182.98905h-11.27138" fill="none" stroke="#7f4242" stroke-width="1" stroke-linecap="round"/><path d="M30.787,187.52025h11.27138" fill="none" stroke="#7f4242" stroke-width="1" stroke-linecap="round"/><path d="M49.97136,190.66129c0,0 -0.60369,0.52411 -0.88015,0.66581c-0.26148,0.13402 -0.73618,0.16263 -0.73618,0.16263v-8.51697c0,0 0.47259,-1.13514 0.84708,-1.48603c0.22749,-0.21317 1.2099,-0.49069 1.2099,-0.49069l0.31502,1.63871l-0.70167,0.3833l-0.05401,7.64323z" fill="#7f4242" stroke="none" stroke-width="0" stroke-linecap="butt"/><path d="M51.30889,180.93415c0.26151,0 0.81525,0.0755 0.81525,0.0755l-0.12634,1.57607c0,0 -0.42725,-0.18876 -0.68891,-0.18876c-0.2736,0 -0.79216,0.2265 -0.79216,0.2265l-0.14213,-1.61383c0,0 0.62177,-0.0755 0.93429,-0.0755z" fill="#7f4242" stroke="none" stroke-width="0" stroke-linecap="butt"/><path d="M49.1634,186.08269c-0.6357,0 -1.98178,-0.0755 -1.98178,-0.0755l0.30712,-1.57607c0,0 1.03859,0.18876 1.67467,0.18876c0.66509,0 1.92565,-0.2265 1.92565,-0.2265l0.3455,1.61383c0,0 -1.51142,0.0755 -2.27114,0.0755z" fill="#7f4242" stroke="none" stroke-width="0" stroke-linecap="butt"/><path d="M52.92332,191.13094c-1.13576,-0.92929 -1.39141,-5.34562 -0.58358,-6.72791c0.66588,-1.13939 4.87562,-0.37603 4.87562,-0.37603l-0.26517,1.25975c0,0 -2.46955,-0.74339 -2.93886,0.22328c-0.55841,1.15022 -0.07031,4.46987 -0.07031,4.46987c0,0 0.3155,2.24186 -1.0177,1.15102z" fill="#7f4242" stroke="none" stroke-width="0" stroke-linecap="butt"/><path d="M61.37174,189.84648c0,0 0.49479,-3.33751 -0.07128,-4.49392c-0.47574,-0.97189 -2.97915,-0.22449 -2.97915,-0.22449l-0.26881,-1.26653c0,0 4.26746,-0.76747 4.94247,0.37805c0.8189,1.38972 0.55975,5.82982 -0.59158,6.76412c-1.35147,1.09671 -1.03166,-1.15722 -1.03166,-1.15722z" fill="#7f4242" stroke="none" stroke-width="0" stroke-linecap="butt"/><path d="M59.05311,185.25047c0,0 -0.49479,3.33751 0.07128,4.49392c0.47574,0.97189 2.97915,0.22449 2.97915,0.22449l0.26881,1.26653c0,0 -4.26746,0.76747 -4.94247,-0.37805c-0.8189,-1.38972 -0.55975,-5.82982 0.59158,-6.76412c1.35147,-1.09671 1.03166,1.15722 1.03166,1.15722z" fill="#7f4242" stroke="none" stroke-width="0" stroke-linecap="butt"/><path d="M64.04559,191.37171v-7.71418h1.7802v7.71418z" fill="#7f4242" stroke="none" stroke-width="0" stroke-linecap="butt"/><path d="M68.86695,191.37171c0,0 0.2438,-4.88918 -0.29879,-5.99763c-0.45601,-0.93158 -2.74238,-0.21518 -2.74238,-0.21518l-0.37087,-1.214c0,0 4.09047,-0.73565 4.73748,0.36237c0.78494,1.33209 0.15806,7.06445 0.15806,7.06445z" fill="#7f4242" stroke="none" stroke-width="0" stroke-linecap="butt"/><path d="M72.65631,191.37171c0,0 0.2438,-4.88918 -0.29879,-5.99763c-0.45601,-0.93158 -2.74238,-0.21518 -2.74238,-0.21518l-0.37087,-1.214c0,0 4.09047,-0.73565 4.73748,0.36237c0.78494,1.33209 0.15806,7.06445 0.15806,7.06445z" fill="#7f4242" stroke="none" stroke-width="0" stroke-linecap="butt"/><g fill="#7f4242" stroke="none" stroke-width="0" stroke-linecap="butt"><path d="M48.34271,178.69965c-1.16374,-0.92087 -1.42568,-5.29718 -0.59795,-6.66693c0.68228,-1.12906 4.9957,-0.37261 4.9957,-0.37261l-0.2717,1.24833c0,0 -2.53037,-0.73665 -3.01124,0.22127c-0.57217,1.1398 -0.07205,4.42936 -0.07205,4.42936c0,0 0.32326,2.22155 -1.04276,1.14059z"/><path d="M51.26507,179.13007c-0.78753,0 -2.35431,-0.07761 -2.35431,-0.07761l0.35815,-1.6589c0,0 1.30671,0.23283 1.99616,0.23283c0.65937,0 1.73598,-0.19402 1.73598,-0.19402l0.31835,1.62009c0,0 -1.39536,0.07761 -2.05434,0.07761z"/><path d="M57.95306,177.37663c0,0 0.48768,-3.28956 -0.07026,-4.42936c-0.46891,-0.95792 -2.93635,-0.22127 -2.93635,-0.22127l-0.26494,-1.24833c0,0 4.20615,-0.75646 4.87146,0.37261c0.80714,1.36975 0.55171,5.74607 -0.58308,6.66694c-1.33205,1.08096 -1.01684,-1.14059 -1.01684,-1.14059z"/><path d="M55.66773,172.84664c0,0 -0.48768,3.28956 0.07026,4.42936c0.46891,0.95792 2.93634,0.22126 2.93634,0.22126l0.26495,1.24833c0,0 -4.20615,0.75645 -4.87146,-0.37261c-0.80714,-1.36975 -0.55171,-5.74606 0.58308,-6.66693c1.33205,-1.08096 1.01683,1.14059 1.01683,1.14059z"/><path d="M62.36272,171.26578v9.51915h-1.76108v-9.51915z"/><path d="M66.22898,171.60637c1.09173,0.8639 1.33747,4.96944 0.56096,6.25445c-0.64006,1.0592 -4.68662,0.34956 -4.68662,0.34956l0.2549,-1.1711c0,0 2.37381,0.69108 2.82493,-0.20757c0.53677,-1.06928 0.0676,-4.15532 0.0676,-4.15532c0,0 -0.30327,-2.08409 0.97824,-1.07002z"/><path d="M63.48743,171.20256c0.73881,0 2.20864,0.0728 2.20864,0.0728l-0.33599,1.55627c0,0 -1.22586,-0.21843 -1.87266,-0.21843c-0.61857,0 -1.62858,0.18202 -1.62858,0.18202l-0.29866,-1.51986c0,0 1.30902,-0.0728 1.92723,-0.0728z"/><path d="M72.02848,172.32744c0,0 0.55016,-0.45156 0.80211,-0.57364c0.2383,-0.11547 0.67091,-0.14012 0.67091,-0.14012v7.33791c0,0 -0.4307,0.97798 -0.77198,1.2803c-0.20733,0.18365 -1.10262,0.42276 -1.10262,0.42276l-0.2871,-1.41185l0.63945,-0.33024l0.04923,-6.58513z"/><path d="M68.63732,171.69995c1.10771,-0.92978 0.84557,0.98106 0.84557,0.98106c0,0 -0.40554,2.82948 0.05842,3.80987c0.38994,0.82395 2.44181,0.19032 2.44181,0.19032l0.22033,1.07375c0,0 -3.49775,0.65066 -4.05101,-0.3205c-0.6712,-1.17818 -0.4588,-4.94242 0.48488,-5.73449z"/><path d="M69.77805,180.70939c-0.53437,0 -1.66586,-0.06676 -1.66586,-0.06676l0.25815,-1.39351c0,0 0.87303,0.16688 1.40771,0.16688c0.55908,0 1.61868,-0.20027 1.61868,-0.20027l0.29042,1.42688c0,0 -1.2705,0.06676 -1.90911,0.06676z"/></g></g><path d="M54.6592,3.57578l2.877,4.65753l-6.14885,9.35716l5.98727,8.81613l-1.79306,6.1719l-3.29158,1.45915l-8.0583,0.35837l-4.38651,-1.65401l0.87341,-3.92782l3.71337,1.5025l3.19742,-0.02576l3.44903,-3.41535l-4.28497,-8.68842l5.27222,-7.90295l-2.48393,-1.14738l-6.81126,1.32258l-0.62353,-3.99721l7.4711,-3.02864z" fill="#ffffff" stroke="none" stroke-width="0" stroke-linecap="round"/><path d="M91.27954,177.88973l-2.04453,15.79097h-2.42788l1.78897,-13.03951l-2.93902,0.59815l0.7667,-2.27295l2.1915,-1.14702z" fill="#7f4242" stroke="none" stroke-width="0" stroke-linecap="round"/><g stroke="none" stroke-width="0"><path d="M156.9994,190.14326c0,-2.2827 0,-14.17968 0,-17.33748c0,-0.49051 0.15209,-0.77016 0.3671,-0.77016c1.41662,0 16.18873,0 18.81348,0c0.25713,0 0.39768,0.37887 0.39768,0.8418c0,1.89701 0,14.62937 0,17.91062c0,0.49081 -0.10729,0.77016 -0.30591,0.77016c-2.36208,0 -17.64033,0 -18.96644,0c-0.18112,0 -0.30591,-0.67772 -0.30591,-1.41494z" fill="#c96969" stroke-linecap="butt"/><path d="M169.27954,174.05639l-2.04453,15.79097h-2.42788l1.78897,-13.03951l-2.93902,0.59815l0.7667,-2.27295l2.1915,-1.14702z" fill="#7f4242" stroke-linecap="round"/></g></g></g></svg>