<svg version="1.1" xmlns="http://www.w3.org/2000/svg" xmlns:xlink="http://www.w3.org/1999/xlink" width="57.13205" height="27.3274" viewBox="0,0,57.13205,27.3274"><g transform="translate(-208.0001,-166.37508)"><g data-paper-data="{&quot;isPaintingLayer&quot;:true}" fill-rule="nonzero" stroke="none" stroke-width="0" stroke-linecap="butt" stroke-linejoin="miter" stroke-miterlimit="10" stroke-dasharray="" stroke-dashoffset="0" style="mix-blend-mode: normal"><path d="M208.00011,191.65008c0,-3.18624 0,-19.79228 0,-24.2c0,-0.68466 0.27384,-1.075 0.66095,-1.075c2.55064,0 29.14793,0 33.87381,0c0.46296,0 0.71603,0.52883 0.71603,1.175c0,2.64788 0,20.41996 0,25c0,0.68508 -0.19317,1.075 -0.55078,1.075c-4.25295,0 -31.76155,0 -34.1492,0c-0.32611,0 -0.5508,-0.94598 -0.5508,-1.975z" fill="#e0b975"/><path d="M245.5539,192.28754c0,-2.2827 0,-14.17968 0,-17.33748c0,-0.49051 0.15209,-0.77016 0.3671,-0.77016c1.41662,0 16.18873,0 18.81348,0c0.25713,0 0.39768,0.37887 0.39768,0.8418c0,1.89701 0,14.62937 0,17.91062c0,0.49081 -0.10729,0.77016 -0.30591,0.77016c-2.36208,0 -17.64033,0 -18.96644,0c-0.18112,0 -0.30591,-0.67772 -0.30591,-1.41494z" fill="#e0b975"/><g fill="#997e50"><path d="M212.95329,178.20931c0,0 -0.74017,4.99268 0.10662,6.72259c0.71168,1.45387 4.4566,0.33583 4.4566,0.33583l0.40212,1.89463c0,0 -6.38382,1.1481 -7.39358,-0.56552c-1.22503,-2.07894 -0.83735,-8.72099 0.88496,-10.11865c2.0217,-1.64061 1.54329,1.73112 1.54329,1.73112z"/><path d="M227.67199,187.17187v-14.44754h2.67284v14.44754z"/><path d="M238.31176,187.34773v-14.44753h2.67285v14.44753z"/><path d="M221.80394,186.65503c-1.65696,-1.31116 -2.02993,-7.5423 -0.85139,-9.49259c0.97144,-1.60758 7.11304,-0.53054 7.11304,-0.53054l-0.38687,1.77742c0,0 -3.60283,-1.04888 -4.28751,0.31505c-0.81467,1.62289 -0.10259,6.30666 -0.10259,6.30666c0,0 0.46028,3.16309 -1.48471,1.62401z"/><path d="M232.44372,186.8309c-1.65696,-1.31116 -2.02993,-7.5423 -0.85139,-9.49259c0.97144,-1.60758 7.11304,-0.53054 7.11304,-0.53054l-0.38687,1.77742c0,0 -3.60283,-1.04888 -4.28751,0.31505c-0.81467,1.62289 -0.10259,6.30666 -0.10259,6.30666c0,0 0.46028,3.1631 -1.48471,1.62401z"/><path d="M225.96495,187.26782c-1.12131,0 -3.35215,-0.11049 -3.35215,-0.11049l0.50996,-2.36201c0,0 1.86053,0.3315 2.8422,0.3315c0.93883,0 2.47176,-0.27626 2.47176,-0.27626l0.45328,2.30673c0,0 -1.98676,0.1105 -2.92504,0.1105z"/><path d="M236.60472,187.44368c-1.12131,0 -3.35215,-0.1105 -3.35215,-0.1105l0.50996,-2.362c0,0 1.86053,0.3315 2.8422,0.3315c0.93883,0 2.47176,-0.27626 2.47176,-0.27626l0.45329,2.30673c0,0 -1.98677,0.1105 -2.92504,0.1105z"/><path d="M214.62135,175.88989c1.12131,0 3.35214,0.1105 3.35214,0.1105l-0.50995,2.362c0,0 -1.86053,-0.3315 -2.8422,-0.3315c-0.93883,0 -2.47176,0.27626 -2.47176,0.27626l-0.45328,-2.30673c0,0 1.98676,-0.1105 2.92504,-0.1105z"/><path d="M219.12431,176.97692l0.07747,8.32928l1.00632,0.41771l-0.45182,1.78579c0,0 -1.40896,-0.30243 -1.73523,-0.53473c-0.53709,-0.38239 -1.21489,-1.6194 -1.21489,-1.6194v-9.28144c0,0 0.76874,-0.14469 1.14375,0.00136c0.3965,0.15441 1.17437,0.90144 1.17437,0.90144z"/></g></g></g></svg>