<svg version="1.1" xmlns="http://www.w3.org/2000/svg" xmlns:xlink="http://www.w3.org/1999/xlink" width="79.36752" height="53.93024" viewBox="0,0,79.36752,53.93024"><g transform="translate(-278.24067,-228.15509)"><g data-paper-data="{&quot;isPaintingLayer&quot;:true}" fill-rule="nonzero" stroke-linecap="butt" stroke-linejoin="miter" stroke-miterlimit="10" stroke-dasharray="" stroke-dashoffset="0" style="mix-blend-mode: normal"><path d="M282.36055,271.36081l3.92293,-39.39139l68.60667,6.83244l-3.92293,39.39139z" fill="#f9ef98" stroke="none" stroke-width="0"/><path d="M283.04188,239.1225l-2.53518,-4.62946l11.57365,-6.33795l2.53518,4.62946z" fill-opacity="0.29804" fill="#fafafa" stroke="none" stroke-width="0"/><path d="M278.24067,265.0534l4.43015,-2.86929l7.17321,11.07538l-4.43015,2.86929z" fill-opacity="0.29804" fill="#fafafa" stroke="none" stroke-width="0"/><path d="M346.65398,282.08533l-4.07493,-3.35469l8.38673,-10.18733l4.07493,3.35469z" fill-opacity="0.29804" fill="#fafafa" stroke="none" stroke-width="0"/><path d="M357.60819,246.75201l-4.73653,2.32902l-5.82256,-11.84132l4.73653,-2.32902z" fill-opacity="0.29804" fill="#fafafa" stroke="none" stroke-width="0"/><text transform="translate(294.04886,254.62932) scale(0.22928,0.22928)" font-size="40" xml:space="preserve" fill="#898353" fill-rule="nonzero" stroke="#898353" stroke-width="3" stroke-linecap="butt" stroke-linejoin="miter" stroke-miterlimit="10" stroke-dasharray="" stroke-dashoffset="0" font-family="Sans Serif" font-weight="normal" text-anchor="start" style="mix-blend-mode: normal"><tspan x="0" dy="0">欢迎新员工 ! </tspan></text><path d="M327.10707,262.36515c0,-1.41198 1.14463,-2.55661 2.55661,-2.55661c1.41198,0 2.55661,1.14463 2.55661,2.55661c0,1.41198 -1.14463,2.55661 -2.55661,2.55661c-1.41198,0 -2.55661,-1.14463 -2.55661,-2.55661z" fill="#898353" stroke="#898353" stroke-width="1.5"/><path d="M336.50881,263.27233c0,-1.63972 1.32925,-2.96897 2.96897,-2.96897c1.63972,0 2.96897,1.32925 2.96897,2.96897c0,1.63972 -1.32925,2.96897 -2.96897,2.96897c-1.63972,0 -2.96897,-1.32925 -2.96897,-2.96897z" fill="#898353" stroke="#898353" stroke-width="1.5"/><path d="M323.52036,266.44041l0.97359,-1.81921c0,0 3.18036,3.13981 8.52657,4.59797c2.84439,0.7758 9.25956,-1.66183 9.25956,-1.66183l-0.10669,2.16787c0,0 -6.77821,3.04872 -9.6552,2.36987c-4.43043,-1.04539 -8.54329,-5.10922 -8.54329,-5.10922z" fill="#898353" stroke="#898353" stroke-width="0"/><text transform="translate(289.58998,241.82376) rotate(2.00448) scale(0.11574,0.11574)" font-size="40" xml:space="preserve" fill="#898353" fill-rule="nonzero" stroke="none" stroke-width="1" stroke-linecap="butt" stroke-linejoin="miter" stroke-miterlimit="10" stroke-dasharray="" stroke-dashoffset="0" font-family="Sans Serif" font-weight="normal" text-anchor="start" style="mix-blend-mode: normal"><tspan x="0" dy="0">拖动背景快速翻页/滚轮翻页</tspan></text></g></g></svg>