<svg version="1.1" xmlns="http://www.w3.org/2000/svg" xmlns:xlink="http://www.w3.org/1999/xlink" width="32.94626" height="10.71403" viewBox="0,0,32.94626,10.71403"><g transform="translate(-238.43047,-175.11431)"><g data-paper-data="{&quot;isPaintingLayer&quot;:true}" fill-rule="nonzero" stroke-linecap="butt" stroke-linejoin="miter" stroke-miterlimit="10" stroke-dasharray="" stroke-dashoffset="0" style="mix-blend-mode: normal"><path d="M238.43171,184.06714c0.04607,-1.13059 0.28619,-7.02301 0.34993,-8.58703c0.0099,-0.24295 0.1794,-0.37477 0.41105,-0.36533c1.52625,0.0622 17.44161,0.71076 20.26951,0.826c0.27703,0.01129 0.42081,0.2051 0.41146,0.43438c-0.03829,0.93956 -0.29527,7.24575 -0.3615,8.87091c-0.00991,0.24309 -0.13114,0.37673 -0.34513,0.36801c-2.54489,-0.10371 -19.00557,-0.77449 -20.4343,-0.83271c-0.19514,-0.00795 -0.31591,-0.34909 -0.30103,-0.71424z" fill-opacity="0.82353" fill="#000000" stroke="none" stroke-width="0"/><text transform="translate(240.3865,181.76885) rotate(2.33321) scale(0.14247,0.14247)" font-size="40" xml:space="preserve" fill="#d6d6d6" fill-rule="nonzero" stroke="#d6d6d6" stroke-width="2" stroke-linecap="butt" stroke-linejoin="miter" stroke-miterlimit="10" stroke-dasharray="" stroke-dashoffset="0" font-family="Sans Serif" font-weight="normal" text-anchor="start" style="mix-blend-mode: normal"><tspan x="0" dy="0">数据链</tspan></text><path d="M261.66706,185.03236c0.0113,-1.13146 0.07018,-7.02849 0.08582,-8.59374c0.00243,-0.24313 0.07857,-0.381 0.18427,-0.37993c0.69637,0.00696 7.95794,0.07947 9.2482,0.09236c0.1264,0.00127 0.19362,0.18973 0.19132,0.4192c-0.00939,0.94029 -0.07242,7.2514 -0.08868,8.87784c-0.00244,0.24328 -0.05654,0.38121 -0.15419,0.38025c-1.16111,-0.0116 -8.67151,-0.08661 -9.32339,-0.09311c-0.08904,-0.00089 -0.14703,-0.33741 -0.14339,-0.70285z" fill-opacity="0.82353" fill="#b06040" stroke="none" stroke-width="0"/><text transform="translate(264.55466,182.85282) rotate(0.57308) scale(0.14247,0.14247)" font-size="40" xml:space="preserve" fill="#ffa878" fill-rule="nonzero" stroke="#ffa878" stroke-width="2" stroke-linecap="butt" stroke-linejoin="miter" stroke-miterlimit="10" stroke-dasharray="" stroke-dashoffset="0" font-family="Sans Serif" font-weight="normal" text-anchor="start" style="mix-blend-mode: normal"><tspan x="0" dy="0">A</tspan></text></g></g></svg>