<svg version="1.1" xmlns="http://www.w3.org/2000/svg" xmlns:xlink="http://www.w3.org/1999/xlink" width="487.98799" height="373.87387" viewBox="0,0,487.98799,373.87387"><g transform="translate(3.994,6.93691)"><g data-paper-data="{&quot;isPaintingLayer&quot;:true}" fill-rule="nonzero" stroke="none" stroke-width="0" stroke-linejoin="miter" stroke-miterlimit="10" stroke-dasharray="" stroke-dashoffset="0" style="mix-blend-mode: normal"><path d="M-3.994,366.93697v-373.87387h487.98799v373.87387z" fill-opacity="0.70196" fill="#000000" stroke-linecap="butt"/><g><path d="M183.16093,152.37411c0,-3.86446 0,-24.00528 0,-29.35125c0,-0.83039 0.25746,-1.30383 0.62148,-1.30383c2.39826,0 27.40668,0 31.85024,0c0.4353,0 0.67326,0.64139 0.67326,1.42511c0,3.21151 0,24.76658 0,30.32154c0,0.83091 -0.18164,1.30383 -0.5179,1.30383c-3.99887,0 -29.86416,0 -32.10917,0c-0.30661,0 -0.5179,-1.14735 -0.5179,-2.39541z" fill="#587f0e" stroke-linecap="butt"/><path d="M183.16093,269.87415c0,-3.86446 0,-24.00528 0,-29.35125c0,-0.83039 0.25746,-1.30383 0.62148,-1.30383c2.39826,0 27.40668,0 31.85024,0c0.4353,0 0.67326,0.64139 0.67326,1.42511c0,3.21151 0,24.76658 0,30.32154c0,0.83091 -0.18164,1.30383 -0.5179,1.30383c-3.99887,0 -29.86416,0 -32.10917,0c-0.30661,0 -0.5179,-1.14735 -0.5179,-2.39541z" fill="#587f0e" stroke-linecap="butt"/><path d="M183.16093,191.37419c0,-3.86446 0,-24.00528 0,-29.35125c0,-0.83039 0.25746,-1.30383 0.62148,-1.30383c2.39826,0 27.40668,0 31.85024,0c0.4353,0 0.67326,0.64139 0.67326,1.42511c0,3.21151 0,24.76658 0,30.32154c0,0.83091 -0.18164,1.30383 -0.5179,1.30383c-3.99887,0 -29.86416,0 -32.10917,0c-0.30661,0 -0.5179,-1.14735 -0.5179,-2.39541z" fill="#587f0e" stroke-linecap="butt"/><path d="M183.16093,230.62419c0,-3.86446 0,-24.00528 0,-29.35125c0,-0.83039 0.25746,-1.30383 0.62148,-1.30383c2.39826,0 27.40668,0 31.85024,0c0.4353,0 0.67326,0.64139 0.67326,1.42511c0,3.21151 0,24.76658 0,30.32154c0,0.83091 -0.18164,1.30383 -0.5179,1.30383c-3.99887,0 -29.86416,0 -32.10917,0c-0.30661,0 -0.5179,-1.14735 -0.5179,-2.39541z" fill="#587f0e" stroke-linecap="butt"/><path d="M222.41093,152.37411c0,-3.86446 0,-24.00528 0,-29.35125c0,-0.83039 0.25746,-1.30383 0.62148,-1.30383c2.39826,0 27.40668,0 31.85024,0c0.4353,0 0.67326,0.64139 0.67326,1.42511c0,3.21151 0,24.76658 0,30.32154c0,0.83091 -0.18164,1.30383 -0.5179,1.30383c-3.99887,0 -29.86416,0 -32.10917,0c-0.30661,0 -0.5179,-1.14735 -0.5179,-2.39541z" fill="#587f0e" stroke-linecap="butt"/><path d="M222.41093,269.87415c0,-3.86446 0,-24.00528 0,-29.35125c0,-0.83039 0.25746,-1.30383 0.62148,-1.30383c2.39826,0 27.40668,0 31.85024,0c0.4353,0 0.67326,0.64139 0.67326,1.42511c0,3.21151 0,24.76658 0,30.32154c0,0.83091 -0.18164,1.30383 -0.5179,1.30383c-3.99887,0 -29.86416,0 -32.10917,0c-0.30661,0 -0.5179,-1.14735 -0.5179,-2.39541z" fill="#587f0e" stroke-linecap="butt"/><path d="M222.41093,191.37419c0,-3.86446 0,-24.00528 0,-29.35125c0,-0.83039 0.25746,-1.30383 0.62148,-1.30383c2.39826,0 27.40668,0 31.85024,0c0.4353,0 0.67326,0.64139 0.67326,1.42511c0,3.21151 0,24.76658 0,30.32154c0,0.83091 -0.18164,1.30383 -0.5179,1.30383c-3.99887,0 -29.86416,0 -32.10917,0c-0.30661,0 -0.5179,-1.14735 -0.5179,-2.39541z" fill="#587f0e" stroke-linecap="butt"/><path d="M222.41093,230.62419c0,-3.86446 0,-24.00528 0,-29.35125c0,-0.83039 0.25746,-1.30383 0.62148,-1.30383c2.39826,0 27.40668,0 31.85024,0c0.4353,0 0.67326,0.64139 0.67326,1.42511c0,3.21151 0,24.76658 0,30.32154c0,0.83091 -0.18164,1.30383 -0.5179,1.30383c-3.99887,0 -29.86416,0 -32.10917,0c-0.30661,0 -0.5179,-1.14735 -0.5179,-2.39541z" fill="#587f0e" stroke-linecap="butt"/><path d="M261.91092,152.37411c0,-3.86446 0,-24.00528 0,-29.35125c0,-0.83039 0.25746,-1.30383 0.62148,-1.30383c2.39826,0 27.40668,0 31.85024,0c0.4353,0 0.67326,0.64139 0.67326,1.42511c0,3.21151 0,24.76658 0,30.32154c0,0.83091 -0.18164,1.30383 -0.5179,1.30383c-3.99887,0 -29.86416,0 -32.10917,0c-0.30662,0 -0.5179,-1.14735 -0.5179,-2.39541z" fill="#587f0e" stroke-linecap="butt"/><path d="M261.91092,269.87415c0,-3.86446 0,-24.00528 0,-29.35125c0,-0.83039 0.25746,-1.30383 0.62148,-1.30383c2.39826,0 27.40668,0 31.85024,0c0.4353,0 0.67326,0.64139 0.67326,1.42511c0,3.21151 0,24.76658 0,30.32154c0,0.83091 -0.18164,1.30383 -0.5179,1.30383c-3.99887,0 -29.86416,0 -32.10917,0c-0.30662,0 -0.5179,-1.14735 -0.5179,-2.39541z" fill="#587f0e" stroke-linecap="butt"/><path d="M261.91092,191.37419c0,-3.86446 0,-24.00528 0,-29.35125c0,-0.83039 0.25746,-1.30383 0.62148,-1.30383c2.39826,0 27.40668,0 31.85024,0c0.4353,0 0.67326,0.64139 0.67326,1.42511c0,3.21151 0,24.76658 0,30.32154c0,0.83091 -0.18164,1.30383 -0.5179,1.30383c-3.99887,0 -29.86416,0 -32.10917,0c-0.30662,0 -0.5179,-1.14735 -0.5179,-2.39541z" fill="#587f0e" stroke-linecap="butt"/><path d="M261.91092,230.62419c0,-3.86446 0,-24.00528 0,-29.35125c0,-0.83039 0.25746,-1.30383 0.62148,-1.30383c2.39826,0 27.40668,0 31.85024,0c0.4353,0 0.67326,0.64139 0.67326,1.42511c0,3.21151 0,24.76658 0,30.32154c0,0.83091 -0.18164,1.30383 -0.5179,1.30383c-3.99887,0 -29.86416,0 -32.10917,0c-0.30662,0 -0.5179,-1.14735 -0.5179,-2.39541z" fill="#587f0e" stroke-linecap="butt"/><path d="M185.40977,154.96895c0,-3.86446 0,-24.0053 0,-29.35124c0,-0.83039 0.25746,-1.30383 0.62148,-1.30383c2.39827,0 27.40668,0 31.85024,0c0.4353,0 0.67326,0.64141 0.67326,1.42511c0,3.2115 0,24.76658 0,30.32154c0,0.83091 -0.18164,1.30383 -0.5179,1.30383c-3.99889,0 -29.86416,0 -32.10917,0c-0.30663,0 -0.5179,-1.14735 -0.5179,-2.39541z" fill="#8ac916" stroke-linecap="butt"/><path d="M185.40977,272.46898c0,-3.86446 0,-24.0053 0,-29.35124c0,-0.83039 0.25746,-1.30383 0.62148,-1.30383c2.39827,0 27.40668,0 31.85024,0c0.4353,0 0.67326,0.64141 0.67326,1.42511c0,3.2115 0,24.76658 0,30.32154c0,0.83091 -0.18164,1.30383 -0.5179,1.30383c-3.99889,0 -29.86416,0 -32.10917,0c-0.30663,0 -0.5179,-1.14735 -0.5179,-2.39541z" fill="#8ac916" stroke-linecap="butt"/><path d="M185.40977,193.96902c0,-3.86446 0,-24.0053 0,-29.35124c0,-0.83039 0.25746,-1.30383 0.62148,-1.30383c2.39827,0 27.40668,0 31.85024,0c0.4353,0 0.67326,0.64141 0.67326,1.42511c0,3.2115 0,24.76658 0,30.32154c0,0.83091 -0.18164,1.30383 -0.5179,1.30383c-3.99889,0 -29.86416,0 -32.10917,0c-0.30663,0 -0.5179,-1.14735 -0.5179,-2.39541z" fill="#8ac916" stroke-linecap="butt"/><path d="M185.40977,233.21902c0,-3.86446 0,-24.0053 0,-29.35124c0,-0.83039 0.25746,-1.30383 0.62148,-1.30383c2.39827,0 27.40668,0 31.85024,0c0.4353,0 0.67326,0.64141 0.67326,1.42511c0,3.2115 0,24.76658 0,30.32154c0,0.83091 -0.18164,1.30383 -0.5179,1.30383c-3.99889,0 -29.86416,0 -32.10917,0c-0.30663,0 -0.5179,-1.14735 -0.5179,-2.39541z" fill="#8ac916" stroke-linecap="butt"/><path d="M224.65977,154.96895c0,-3.86446 0,-24.0053 0,-29.35124c0,-0.83039 0.25746,-1.30383 0.62148,-1.30383c2.39827,0 27.40667,0 31.85023,0c0.43531,0 0.67326,0.64141 0.67326,1.42511c0,3.2115 0,24.76658 0,30.32154c0,0.83091 -0.18164,1.30383 -0.5179,1.30383c-3.99889,0 -29.86416,0 -32.10917,0c-0.30663,0 -0.5179,-1.14735 -0.5179,-2.39541z" fill="#8ac916" stroke-linecap="butt"/><path d="M224.65977,272.46898c0,-3.86446 0,-24.0053 0,-29.35124c0,-0.83039 0.25746,-1.30383 0.62148,-1.30383c2.39827,0 27.40667,0 31.85023,0c0.43531,0 0.67326,0.64141 0.67326,1.42511c0,3.2115 0,24.76658 0,30.32154c0,0.83091 -0.18164,1.30383 -0.5179,1.30383c-3.99889,0 -29.86416,0 -32.10917,0c-0.30663,0 -0.5179,-1.14735 -0.5179,-2.39541z" fill="#8ac916" stroke-linecap="butt"/><path d="M224.65977,193.96902c0,-3.86446 0,-24.0053 0,-29.35124c0,-0.83039 0.25746,-1.30383 0.62148,-1.30383c2.39827,0 27.40667,0 31.85023,0c0.43531,0 0.67326,0.64141 0.67326,1.42511c0,3.2115 0,24.76658 0,30.32154c0,0.83091 -0.18164,1.30383 -0.5179,1.30383c-3.99889,0 -29.86416,0 -32.10917,0c-0.30663,0 -0.5179,-1.14735 -0.5179,-2.39541z" fill="#8ac916" stroke-linecap="butt"/><path d="M224.65977,233.21902c0,-3.86446 0,-24.0053 0,-29.35124c0,-0.83039 0.25746,-1.30383 0.62148,-1.30383c2.39827,0 27.40667,0 31.85023,0c0.43531,0 0.67326,0.64141 0.67326,1.42511c0,3.2115 0,24.76658 0,30.32154c0,0.83091 -0.18164,1.30383 -0.5179,1.30383c-3.99889,0 -29.86416,0 -32.10917,0c-0.30663,0 -0.5179,-1.14735 -0.5179,-2.39541z" fill="#8ac916" stroke-linecap="butt"/><path d="M264.15977,154.96895c0,-3.86446 0,-24.0053 0,-29.35124c0,-0.83039 0.25746,-1.30383 0.62147,-1.30383c2.39827,0 27.40668,0 31.85024,0c0.43531,0 0.67326,0.64141 0.67326,1.42511c0,3.2115 0,24.76658 0,30.32154c0,0.83091 -0.18164,1.30383 -0.5179,1.30383c-3.99889,0 -29.86417,0 -32.10917,0c-0.30663,0 -0.5179,-1.14735 -0.5179,-2.39541z" fill="#8ac916" stroke-linecap="butt"/><path d="M264.15977,272.46898c0,-3.86446 0,-24.0053 0,-29.35124c0,-0.83039 0.25746,-1.30383 0.62147,-1.30383c2.39827,0 27.40668,0 31.85024,0c0.43531,0 0.67326,0.64141 0.67326,1.42511c0,3.2115 0,24.76658 0,30.32154c0,0.83091 -0.18164,1.30383 -0.5179,1.30383c-3.99889,0 -29.86417,0 -32.10917,0c-0.30663,0 -0.5179,-1.14735 -0.5179,-2.39541z" fill="#8ac916" stroke-linecap="butt"/><path d="M264.15977,193.96902c0,-3.86446 0,-24.0053 0,-29.35124c0,-0.83039 0.25746,-1.30383 0.62147,-1.30383c2.39827,0 27.40668,0 31.85024,0c0.43531,0 0.67326,0.64141 0.67326,1.42511c0,3.2115 0,24.76658 0,30.32154c0,0.83091 -0.18164,1.30383 -0.5179,1.30383c-3.99889,0 -29.86417,0 -32.10917,0c-0.30663,0 -0.5179,-1.14735 -0.5179,-2.39541z" fill="#8ac916" stroke-linecap="butt"/><path d="M264.15977,233.21902c0,-3.86446 0,-24.0053 0,-29.35124c0,-0.83039 0.25746,-1.30383 0.62147,-1.30383c2.39827,0 27.40668,0 31.85024,0c0.43531,0 0.67326,0.64141 0.67326,1.42511c0,3.2115 0,24.76658 0,30.32154c0,0.83091 -0.18164,1.30383 -0.5179,1.30383c-3.99889,0 -29.86417,0 -32.10917,0c-0.30663,0 -0.5179,-1.14735 -0.5179,-2.39541z" fill="#8ac916" stroke-linecap="butt"/><path d="M204.843,130.65305l-2.43123,18.77766h-2.88709l2.12733,-15.50579l-3.4949,0.71128l0.91171,-2.70285l2.606,-1.36397z" fill="#344c08" stroke-linecap="round"/><path d="M244.12336,130.08328l1.80808,2.92707l-0.86084,3.66275l-4.25347,8.71785l6.13776,0.04059l-0.00983,3.1996l-10.76503,0.13481l5.63553,-11.97303l0.67785,-2.49366l-1.56105,-0.72108l-1.99756,0.56708l-1.64019,1.90697l-2.749,-1.15495l2.80299,-3.31035l3.60658,-1.59303z" fill="#344c08" stroke-linecap="round"/><path d="M284.251,129.86007l1.80808,2.92707l-3.86431,5.8806l3.76276,5.54059l-1.12687,3.87879l-2.06863,0.91702l-5.06432,0.22522l-2.75675,-1.03948l0.5489,-2.46848l2.33371,0.94426l2.00945,-0.01619l2.16758,-2.14641l-2.69293,-5.46033l3.31338,-4.96669l-1.56105,-0.72108l-4.28061,0.83119l-0.39186,-2.51209l4.69529,-1.90338z" fill="#344c08" stroke-linecap="round"/><path d="M205.3197,169.72128l-2.18123,18.30767h-2.88709l2.12733,-16.18777z" fill="#344c08" stroke-linecap="round"/><path d="M196.16875,175.47009l1.74984,-3.45113l2.5142,-1.62517l-1.73549,4.89814l-0.14982,2.75578l9.21184,-0.49836l-0.47758,2.62327l-12.04099,0.33423z" fill="#344c08" stroke-linecap="round"/><path d="M234.64136,172.20311l11.54975,-0.27273l-1.57964,2.69225l-7.08442,0.04518l-0.22125,3.54149l6.69398,0.30521l1.81689,2.80057l-0.02013,3.95031l-2.86363,2.69382l-9.12398,0.11051l1.3098,-2.33261l6.50015,-0.21069l1.09315,-3.67549l-1.14028,-0.67471l-7.28698,-0.36491z" fill="#344c08" stroke-linecap="round"/><path d="M282.96178,168.00768l-5.65035,15.952l3.70373,0.64837l2.50103,-3.18116l-4.73882,-2.76106l0.95313,-1.96777l7.31812,2.49845l-2.14582,7.06418l-4.38234,1.73184c0,0 -5.00575,-1.59512 -5.18446,-1.63504c-0.33804,-0.07553 -0.38459,-2.92505 -0.38459,-2.92505l5.12784,-13.82022z" fill="#344c08" stroke-linecap="round"/><path d="M202.14319,210.069l5.02032,1.63143l-5.18243,16.31067l-3.25347,-0.11182l5.02523,-14.15019l-4.46407,-0.55382l-1.41261,2.31827l-2.03958,-0.31837l0.32592,-1.32027l0.81555,-2.58258l2.33113,-1.30328z" fill="#344c08" stroke-linecap="round"/><path d="M239.00604,228.91715l-3.53155,-1.39288l-1.37928,-2.18512l5.03914,-6.49713l2.87985,-3.92337l-1.54918,-2.29913l0.4917,-2.64597l4.94814,3.36284l-3.28246,6.41645l-5.28404,5.26323l4.71004,0.62425l0.90884,-2.4361l-4.41864,-3.04109l-2.35541,-4.35974l0.36735,-4.37347l4.54178,-1.45081l0.41173,2.76996l-2.77235,1.02213l1.15159,3.89669l5.82888,5.89056l-0.35586,1.39159l-0.88412,2.72052l-2.4736,1.35599z" fill="#344c08" stroke-linecap="round"/><path d="M278.03826,229.99253l5.65035,-15.952l-3.70373,-0.64837l-2.50103,3.18116l4.73882,2.76106l-0.95313,1.96777l-6.19312,-2.87345l2.02082,-6.56418l3.38234,-1.85684c0,0 5.00575,1.59512 5.18446,1.63504c0.33804,0.07553 0.38459,2.92505 0.38459,2.92505l-4.00284,14.07022z" fill="#344c08" stroke-linecap="round"/><path d="M236.17312,254.096l3.78785,-3.90274l5.87062,2.44734l-0.60497,12.7835l-5.52264,4.38277l-4.53551,-3.03847zM242.86382,264.36924l0.31412,-10.53253l-2.11642,-1.00877l-2.61057,1.96466l-0.90958,9.86613l1.78367,1.97304z" fill="#344c08" stroke-linecap="butt"/><path d="M270.86404,261.25757l3.17279,-1.6671l3.21082,3.54297l11.06114,-11.58933l2.05021,2.73229l-13.11359,12.83569l-4.61282,-3.46552z" fill="#344c08" stroke-linecap="round"/><path d="M197.18284,253.89895l2.62115,0.78853l-2.74938,3.94737l14.66296,-0.88318l-0.3744,3.39538l-18.34586,0.38774z" fill="#344c08" stroke-linecap="round"/></g><path d="M183.24722,106.70844c0,-3.47571 0,-21.59042 0,-26.39858c0,-0.74686 0.88944,-1.17266 2.14698,-1.17266c8.28526,0 94.68153,0 110.0327,0c1.50385,0 2.32592,0.57688 2.32592,1.28175c0,2.88844 0,22.27512 0,27.27125c0,0.74732 -0.62753,1.17266 -1.78917,1.17266c-13.8149,0 -103.17143,0 -110.92722,0c-1.05931,0 -1.78917,-1.03193 -1.78917,-2.15444z" fill-opacity="0.11373" fill="#ffffff" stroke-linecap="butt"/><path d="M204.00004,55.93049c0,-4.77767 0,-29.67791 0,-36.28715c0,-1.02663 0.59701,-1.61193 1.441,-1.61193c5.56089,0 63.54811,0 73.85144,0c1.00935,0 1.56108,0.79296 1.56108,1.76188c0,3.97041 0,30.6191 0,37.48672c0,1.02726 -0.42117,1.61193 -1.20083,1.61193c-9.27224,0 -69.24631,0 -74.45186,0c-0.71099,0 -1.20083,-1.41847 -1.20083,-2.96145z" fill="#69a9c9" stroke-linecap="butt"/><path d="M263.37311,29.54084v19.94821h-3.69051v-19.94821z" fill="#426b7f" stroke-linecap="butt"/><path d="M271.47524,30.25453c2.28783,1.81037 2.80279,10.4139 1.17554,13.10675c-1.3413,2.21966 -9.82124,0.73254 -9.82124,0.73254l0.53416,-2.45414c0,0 4.97455,1.44822 5.9199,-0.435c1.12484,-2.24078 0.14164,-8.70784 0.14164,-8.70784c0,0 -0.63552,-4.36741 2.05,-2.24232z" fill="#426b7f" stroke-linecap="butt"/><path d="M265.73005,29.40835c1.54825,0 4.62843,0.15257 4.62843,0.15257l-0.70411,3.26128c0,0 -2.56891,-0.45773 -3.92432,-0.45773c-1.29628,0 -3.41284,0.38143 -3.41284,0.38143l-0.62586,-3.18499c0,0 2.74319,-0.15257 4.0387,-0.15257z" fill="#426b7f" stroke-linecap="butt"/><path d="M217.91416,37.64888c0,0 -0.14801,-8.21157 0.39865,-8.9614c0.20553,-0.28193 2.71249,0.09427 2.71249,0.09427c0,0 0.66683,1.75303 0.61867,2.70584c0.29013,3.23593 1.14438,14.44275 -0.62838,17.09723c-1.46126,2.18804 -10.30428,0.50534 -10.30428,0.50534l0.6219,-2.44111c0,0 5.17288,1.56279 6.21089,-0.29805c1.23508,-2.21416 0.37007,-8.70212 0.37007,-8.70212z" fill="#426b7f" stroke-linecap="butt"/><path d="M236.24508,28.8451v15.59448h-3.59873v-15.59448z" fill="#426b7f" stroke-linecap="butt"/><path d="M226.49853,28.8451c0,0 -0.49285,9.88364 0.60402,12.12442c0.92184,1.88321 5.54381,0.435 5.54381,0.435l0.74973,2.45414c0,0 -8.26902,1.48713 -9.57697,-0.73254c-1.58678,-2.69285 -0.31952,-14.28103 -0.31952,-14.28103z" fill="#426b7f" stroke-linecap="butt"/><path d="M237.95266,44.50188v-15.59448h3.59873v15.59448z" fill="#426b7f" stroke-linecap="butt"/><path d="M247.69921,44.50188c0,0 0.49285,-9.88364 -0.60402,-12.12442c-0.92184,-1.88321 -5.54381,-0.435 -5.54381,-0.435l-0.74973,-2.45414c0,0 8.26902,-1.48713 9.57697,0.73254c1.58678,2.69285 0.31952,14.28103 0.31952,14.28103z" fill="#426b7f" stroke-linecap="butt"/><path d="M255.35951,44.50188c0,0 0.49285,-9.88364 -0.60402,-12.12442c-0.92184,-1.88321 -5.54381,-0.435 -5.54381,-0.435l-0.74973,-2.45414c0,0 8.26902,-1.48713 9.57697,0.73254c1.58678,2.69285 0.31952,14.28103 0.31952,14.28103z" fill="#426b7f" stroke-linecap="butt"/></g></g></svg>