<svg version="1.1" xmlns="http://www.w3.org/2000/svg" xmlns:xlink="http://www.w3.org/1999/xlink" width="59.67336" height="27.25" viewBox="0,0,59.67336,27.25"><g transform="translate(-194.93605,-166.375)"><g data-paper-data="{&quot;isPaintingLayer&quot;:true}" fill-rule="nonzero" stroke-linecap="butt" stroke-linejoin="miter" stroke-miterlimit="10" stroke-dasharray="" stroke-dashoffset="0" style="mix-blend-mode: normal"><path d="M194.93605,191.65c0,-3.18624 0,-19.79228 0,-24.2c0,-0.68466 0.46353,-1.075 1.11888,-1.075c4.31778,0 49.34228,0 57.34236,0c0.78372,0 1.21212,0.52883 1.21212,1.175c0,2.64788 0,20.41996 0,25c0,0.68508 -0.32702,1.075 -0.9324,1.075c-7.19948,0 -53.76668,0 -57.80855,0c-0.55204,0 -0.9324,-0.94598 -0.9324,-1.975z" fill="#c78552" stroke="none" stroke-width="0"/><path d="M201.95751,184.74046c0,0 11.50486,2.4076 11.44027,-4.62508c-0.05301,-5.7713 -9.53458,-3.6729 -9.53458,-3.6729l0.01667,1.20139l-5.83333,-2.58333l5.83333,-2.58333l-0.02361,1.07639c0,0 12.39181,-1.61127 12.41323,6.40927c0.02779,10.40605 -14.46538,7.24161 -14.46538,7.24161z" fill="#875a37" stroke="none" stroke-width="0"/><text transform="translate(220.13636,184.575) scale(0.38125,0.38125)" font-size="40" xml:space="preserve" fill="#875a37" fill-rule="nonzero" stroke="#875a37" stroke-width="2" stroke-linecap="butt" stroke-linejoin="miter" stroke-miterlimit="10" stroke-dasharray="" stroke-dashoffset="0" font-family="Sans Serif" font-weight="normal" text-anchor="start" style="mix-blend-mode: normal"><tspan x="0" dy="0">返回</tspan></text></g></g></svg>