<svg version="1.1" xmlns="http://www.w3.org/2000/svg" xmlns:xlink="http://www.w3.org/1999/xlink" width="258.90166" height="422.70554" viewBox="0,0,258.90166,422.70554"><defs><linearGradient x1="110.54917" y1="173.11832" x2="240.04218" y2="173.11832" gradientUnits="userSpaceOnUse" id="color-1"><stop offset="0" stop-color="#8cb567" stop-opacity="0.41961"/><stop offset="1" stop-color="#8cb567"/></linearGradient><linearGradient x1="369.45083" y1="173.5935" x2="239.95784" y2="173.5935" gradientUnits="userSpaceOnUse" id="color-2"><stop offset="0" stop-color="#8cb567" stop-opacity="0"/><stop offset="1" stop-color="#8cb567"/></linearGradient></defs><g transform="translate(-110.54917,30.72775)"><g data-paper-data="{&quot;isPaintingLayer&quot;:true}" fill-rule="nonzero" stroke-linejoin="miter" stroke-miterlimit="10" stroke-dasharray="" stroke-dashoffset="0" style="mix-blend-mode: normal"><path d="M111.1806,379.29305v-410.0208h258.23723v410.0208z" fill="#8cb567" stroke="none" stroke-width="0" stroke-linecap="butt"/><g fill="none" stroke="#7ca05b" stroke-width="2.5" stroke-linecap="round"><path d="M114.98535,-27.5593v408.24563"/><path d="M296.98534,386.09326v-408.24563"/><path d="M205.98536,381.45875v-408.24563"/><path d="M160.58532,-25.08756v408.24563"/><path d="M342.58536,-19.68064v408.24563"/><path d="M251.58536,383.93048v-408.24563"/><path d="M137.78535,381.92219v-408.24563"/><path d="M319.78532,-20.9165v408.24563"/><path d="M228.78535,-25.55102v408.24563"/><path d="M183.38535,384.39393v-408.24563"/><path d="M365.38536,-18.44475v408.24563"/><path d="M274.38533,385.16637v-408.24563"/><path d="M119.38535,380.68632v-408.24563"/><path d="M301.38533,386.09327v-408.24563"/><path d="M210.38535,381.45875v-408.24563"/><path d="M164.98536,-25.08758v408.24563"/><path d="M346.98536,-19.68064v408.24563"/><path d="M255.98534,383.93048v-408.24563"/><path d="M142.18534,-26.32345v408.24563"/><path d="M324.18536,-20.9165v408.24563"/><path d="M233.18536,382.69462v-408.24563"/><path d="M187.78535,-23.85172v408.24563"/><path d="M278.78532,-23.07927v408.24563"/><path d="M123.78535,-26.94138v408.24563"/><path d="M305.78532,386.71121v-408.24563"/><path d="M214.78535,382.07668v-408.24563"/><path d="M169.38535,383.77602v-408.24563"/><path d="M351.38536,-19.0627v408.24563"/><path d="M260.38533,384.54842v-408.24563"/><path d="M146.58532,382.54013v-408.24563"/><path d="M328.58535,387.94707v-408.24563"/><path d="M237.58536,-24.93309v408.24563"/><path d="M192.18536,-23.23376v408.24563"/><path d="M283.18536,-22.46134v408.24563"/><path d="M128.58532,-26.01448v408.24563"/><path d="M310.58535,-20.60754v408.24563"/><path d="M219.58536,383.00359v-408.24563"/><path d="M174.18536,384.7029v-408.24563"/><path d="M356.18536,390.10984v-408.24563"/><path d="M265.18536,-22.7703v408.24563"/><path d="M151.38535,383.46703v-408.24563"/><path d="M333.38533,388.87397v-408.24563"/><path d="M242.38535,-24.0062v408.24563"/><path d="M196.98536,-22.30689v408.24563"/><path d="M287.98534,386.71121v-408.24563"/><path d="M133.38535,382.8491v-408.24563"/><path d="M315.38533,388.25603v-408.24563"/><path d="M224.38535,-24.62412v408.24563"/><path d="M178.98536,385.32084v-408.24563"/><path d="M360.98536,390.72779v-408.24563"/><path d="M269.98534,386.09326v-408.24563"/><path d="M156.18534,384.08498v-408.24563"/><path d="M338.18536,389.4919v-408.24563"/><path d="M247.18536,-23.38824v408.24563"/><path d="M201.78535,386.55671v-408.24563"/><path d="M292.78532,-20.9165v408.24563"/></g><g stroke="none" stroke-width="0" stroke-linecap="butt"><path d="M110.54917,376.43667v-406.63669h129.493v406.63672z" fill="url(#color-1)"/><path d="M369.45083,-29.72485v406.63672h-129.49299v-406.63669z" fill="url(#color-2)"/></g><path d="M211.98,381.70001v-388h6.52v388z" fill="#709052" stroke="none" stroke-width="none" stroke-linecap="butt"/></g></g></svg>