<svg version="1.1" xmlns="http://www.w3.org/2000/svg" xmlns:xlink="http://www.w3.org/1999/xlink" width="488.67853" height="373.87387" viewBox="0,0,488.67853,373.87387"><g transform="translate(3.994,6.9369)"><g data-paper-data="{&quot;isPaintingLayer&quot;:true}" fill-rule="nonzero" stroke-linejoin="miter" stroke-miterlimit="10" stroke-dasharray="" stroke-dashoffset="0" style="mix-blend-mode: normal"><path d="M-3.994,366.93697v-373.87387h487.98799v373.87387z" fill-opacity="0.70196" fill="#000000" stroke="none" stroke-width="0" stroke-linecap="butt"/><text transform="translate(4.00601,27.66362) scale(0.67335,0.67335)" font-size="40" xml:space="preserve" fill="#ffffff" fill-rule="nonzero" stroke="#ffffff" stroke-width="3" stroke-linecap="butt" stroke-linejoin="miter" stroke-miterlimit="10" stroke-dasharray="" stroke-dashoffset="0" font-family="Sans Serif" font-weight="normal" text-anchor="start" style="mix-blend-mode: normal"><tspan x="0" dy="0">第     年</tspan></text><text transform="translate(98.63063,28.89189) scale(0.5,0.5)" font-size="40" xml:space="preserve" fill="#ffffff" fill-rule="nonzero" stroke="none" stroke-width="1" stroke-linecap="butt" stroke-linejoin="miter" stroke-miterlimit="10" stroke-dasharray="" stroke-dashoffset="0" font-family="Sans Serif" font-weight="normal" text-anchor="start" style="mix-blend-mode: normal"><tspan x="0" dy="0">繁忙的收发室</tspan></text><text transform="translate(102.63063,196.61608) scale(0.32167,0.32167)" font-size="40" xml:space="preserve" fill="#ffffff" fill-rule="nonzero" stroke="none" stroke-width="1" stroke-linecap="butt" stroke-linejoin="miter" stroke-miterlimit="10" stroke-dasharray="" stroke-dashoffset="0" font-family="Sans Serif" font-weight="normal" text-anchor="start" style="mix-blend-mode: normal"><tspan x="0" dy="0">(含参数)跳转：跳转到        行的最后。</tspan><tspan x="0" dy="48px">点击修改参数。参数范围为0到总行数。</tspan></text><path d="M52.58313,3.67086l2.79158,4.51924l-1.32909,5.65509l-6.56714,13.4599l9.47638,0.06267l-0.01518,4.94002l-16.62064,0.20814l8.70096,-18.48573l1.04656,-3.85008l-2.41018,-1.11331l-3.08413,0.87554l-2.53237,2.94426l-4.24431,-1.78318l4.32767,-5.11101l5.56837,-2.45956z" fill="#ffffff" stroke="none" stroke-width="0" stroke-linecap="round"/><g stroke="none" stroke-width="0" stroke-linecap="butt"><path d="M25.00003,199.65004c0,-3.18624 0,-19.79228 0,-24.2c0,-0.68466 0.39815,-1.075 0.96101,-1.075c3.70857,0 42.38041,0 49.25173,0c0.67314,0 1.04109,0.52883 1.04109,1.175c0,2.64788 0,20.41996 0,25c0,0.68508 -0.28088,1.075 -0.80084,1.075c-6.18368,0 -46.18056,0 -49.65215,0c-0.47416,0 -0.80084,-0.94598 -0.80084,-1.975z" fill="#69a9c9"/><path d="M78.49939,200.47658c0,-2.2827 0,-14.17968 0,-17.33748c0,-0.49051 0.15209,-0.77016 0.3671,-0.77016c1.41662,0 16.18873,0 18.81348,0c0.25713,0 0.39768,0.37887 0.39768,0.8418c0,1.89701 0,14.62937 0,17.91062c0,0.49081 -0.10729,0.77016 -0.30591,0.77016c-2.36208,0 -17.64033,0 -18.96644,0c-0.18112,0 -0.30591,-0.67772 -0.30591,-1.41494z" fill="#69a9c9"/><path d="M64.5961,182.05071v13.30352h-2.46121v-13.30352z" fill="#426b7f"/><path d="M69.99943,182.52666c1.52576,1.20734 1.86919,6.94506 0.78397,8.74093c-0.89452,1.4803 -6.54981,0.48853 -6.54981,0.48853l0.35623,-1.63667c0,0 3.31754,0.96582 3.948,-0.2901c0.75016,-1.49438 0.09446,-5.80728 0.09446,-5.80728c0,0 -0.42383,-2.91264 1.36715,-1.49541z" fill="#426b7f"/><path d="M66.16795,181.96235c1.03253,0 3.08671,0.10175 3.08671,0.10175l-0.46957,2.17496c0,0 -1.71321,-0.30526 -2.61714,-0.30526c-0.86449,0 -2.27603,0.25438 -2.27603,0.25438l-0.41739,-2.12408c0,0 1.82944,-0.10175 2.69342,-0.10175z" fill="#426b7f"/><path d="M34.2794,187.45797c0,0 -0.09871,-5.47632 0.26586,-5.97638c0.13707,-0.18802 1.80897,0.06287 1.80897,0.06287c0,0 0.44471,1.1691 0.41259,1.80453c0.19349,2.15805 0.76319,9.63191 -0.41907,11.40219c-0.97452,1.45921 -6.87195,0.33701 -6.87195,0.33701l0.41475,-1.62798c0,0 3.44981,1.04223 4.14206,-0.19877c0.82368,-1.47663 0.2468,-5.80347 0.2468,-5.80347z" fill="#426b7f"/><path d="M46.50434,181.58672v10.4h-2.4v-10.4z" fill="#426b7f"/><path d="M40.00434,181.58672c0,0 -0.32868,6.59143 0.40282,8.08581c0.61478,1.25592 3.69718,0.2901 3.69718,0.2901l0.5,1.63667c0,0 -5.51463,0.99177 -6.38691,-0.48853c-1.05823,-1.79587 -0.21309,-9.52406 -0.21309,-9.52406z" fill="#426b7f"/><path d="M47.64313,192.02826v-10.4h2.4v10.4z" fill="#426b7f"/><path d="M54.14313,192.02826c0,0 0.32868,-6.59143 -0.40282,-8.08581c-0.61478,-1.25592 -3.69718,-0.2901 -3.69718,-0.2901l-0.5,-1.63667c0,0 5.51463,-0.99177 6.38691,0.48853c1.05823,1.79587 0.21309,9.52406 0.21309,9.52406z" fill="#426b7f"/><path d="M59.25181,192.02826c0,0 0.32868,-6.59143 -0.40282,-8.08581c-0.61478,-1.25592 -3.69718,-0.2901 -3.69718,-0.2901l-0.5,-1.63667c0,0 5.51463,-0.99177 6.38691,0.48853c1.05823,1.79587 0.21309,9.52406 0.21309,9.52406z" fill="#426b7f"/></g><path d="M91.27953,184.38972l-2.04453,15.79097h-2.42788l1.78897,-13.03951l-2.93902,0.59815l0.7667,-2.27295l2.1915,-1.14702z" fill="#426b7f" stroke="none" stroke-width="0" stroke-linecap="round"/><path d="M228.9994,200.47659c0,-2.2827 0,-14.17968 0,-17.33748c0,-0.49051 0.15209,-0.77016 0.3671,-0.77016c1.41662,0 16.18873,0 18.81348,0c0.25713,0 0.39768,0.37887 0.39768,0.8418c0,1.89701 0,14.62937 0,17.91062c0,0.49081 -0.10729,0.77016 -0.30591,0.77016c-2.36208,0 -17.64033,0 -18.96644,0c-0.18112,0 -0.30591,-0.67772 -0.30591,-1.41494z" fill="#69a9c9" stroke="none" stroke-width="0" stroke-linecap="butt"/><path d="M241.27953,184.38972l-2.04453,15.79097h-2.42788l1.78897,-13.03951l-2.93902,0.59815l0.7667,-2.27295l2.1915,-1.14702z" fill="#426b7f" stroke="none" stroke-width="0" stroke-linecap="round"/><text transform="translate(1.29731,55.87025) scale(0.34348,0.34348)" font-size="40" xml:space="preserve" fill="#ffffff" fill-rule="nonzero" stroke="#ffffff" stroke-width="1" stroke-linecap="butt" stroke-linejoin="miter" stroke-miterlimit="10" stroke-dasharray="" stroke-dashoffset="0" font-family="Sans Serif" font-weight="normal" text-anchor="start" style="mix-blend-mode: normal"><tspan x="0" dy="0">看到你能爬到这个位置，我真替你的升职感到高兴。可是没几个人能活着干到</tspan><tspan x="0" dy="48px">这，他们全都承受不住压力放弃了。但是我敢明确的告诉你，管理INBOX(输入</tspan><tspan x="0" dy="48px">栏)和OUTBOX(输出栏)的前途是不可限量的！</tspan><tspan x="0" dy="48px">好啦，来看一下你的新工作吧。</tspan></text><text transform="translate(3.29731,247.87025) scale(0.34348,0.34348)" font-size="40" xml:space="preserve" fill="#ffffff" fill-rule="nonzero" stroke="#ffffff" stroke-width="1" stroke-linecap="butt" stroke-linejoin="miter" stroke-miterlimit="10" stroke-dasharray="" stroke-dashoffset="0" font-family="Sans Serif" font-weight="normal" text-anchor="start" style="mix-blend-mode: normal"><tspan x="0" dy="0">补充说明！</tspan><tspan x="0" dy="48px">拖动程序栏&lt;/&gt;到程序栏以外的任何地方将会删除此程序！</tspan><tspan x="0" dy="48px">代码可以进行插入操作！</tspan><tspan x="0" dy="48px">不要试图偷懒！公司在你进行完工作后会验证以防你的代码只能应对一种情况！</tspan></text></g></g></svg>