<svg version="1.1" xmlns="http://www.w3.org/2000/svg" xmlns:xlink="http://www.w3.org/1999/xlink" width="487.98799" height="378.09692" viewBox="0,0,487.98799,378.09692"><g transform="translate(3.99399,6.9369)"><g data-paper-data="{&quot;isPaintingLayer&quot;:true}" fill-rule="nonzero" stroke-linejoin="miter" stroke-miterlimit="10" stroke-dasharray="" stroke-dashoffset="0" style="mix-blend-mode: normal"><path d="M-3.99399,366.93697v-373.87387h487.98799v373.87387z" fill-opacity="0.70196" fill="#000000" stroke="none" stroke-width="0" stroke-linecap="butt"/><path d="M97.78092,352.37677l16.53443,-334.55064l278.90374,16.19716l-16.53443,334.55064z" fill="#888674" stroke="none" stroke-width="0" stroke-linecap="butt"/><path d="M93.10139,364.15366l5.51144,-334.91363l279.2858,7.00635l-5.51144,334.91364z" fill="#eee9c7" stroke="none" stroke-width="0" stroke-linecap="butt"/><g fill="#7eb614" stroke="none" stroke-width="0"><path d="M230.82242,81.43831c0,0 -2.44204,2.10458 -3.55892,2.67191c-1.05636,0.53659 -2.97099,0.64499 -2.97099,0.64499l0.12502,-34.34411c0,0 1.92235,-4.57044 3.4376,-5.97988c0.92047,-0.85625 4.88605,-1.96091 4.88605,-1.96091l1.24624,6.61261l-2.83506,1.53533l-0.32998,30.82002z" stroke-linecap="butt"/><path d="M236.35761,42.52468c1.05452,0.00384 3.28633,0.31641 3.28633,0.31641l-0.53259,6.35354c0,0 -1.72008,-0.76744 -2.77522,-0.77128c-1.10327,-0.00402 -3.19765,0.90172 -3.19765,0.90172l-0.54945,-6.50974c0,0 2.50835,-0.29531 3.76857,-0.29073z" stroke-linecap="butt"/><path d="M227.63159,62.9636c-2.56342,-0.00933 -7.99028,-0.33354 -7.99028,-0.33354l1.26157,-6.35089c0,0 4.18527,0.77641 6.75022,0.78575c2.68194,0.00977 7.76838,-0.88508 7.76838,-0.88508l1.36952,6.51273c0,0 -6.09581,0.28226 -9.15933,0.27111z" stroke-linecap="butt"/><path d="M240.3701,84.44662l0.10356,-28.44842l6.62876,0.02412l-0.10356,28.44842z" stroke-linecap="butt"/><path d="M276.71299,84.28818l0.10356,-28.44842l6.62876,0.02412l-0.10356,28.44842z" stroke-linecap="butt"/><path d="M250.79795,84.03391l0.10138,-27.8524l6.42748,0.0234l-0.10138,27.8524z" stroke-linecap="butt"/><path d="M268.2057,84.09729c0,0 0.94451,-17.64939 -0.99997,-21.65865c-1.63421,-3.36948 -9.89865,-0.81297 -9.89865,-0.81297l-1.3231,-4.38807c0,0 14.77849,-2.60231 17.10012,1.37061c2.81655,4.81987 0.47783,25.5086 0.47783,25.5086z" stroke-linecap="butt"/><path d="M287.42067,60.47752c0.69302,-6.4142 3.4811,-7.5388 8.07704,-7.82694c4.54681,-0.28506 11.00923,2.79663 11.00923,2.79663l-2.61035,4.31575c0,0 -11.59724,-5.68824 -11.93478,2.06594c-0.11427,2.62512 13.08435,5.33417 14.12955,9.60854c1.0452,4.27437 -1.11863,7.83097 -5.03195,10.31811c-3.91332,2.48714 -14.60683,2.16352 -14.60683,2.16352l1.7851,-5.86012c0,0 6.84971,1.57194 10.53781,-1.01467c3.68811,-2.58661 0.99944,-7.87164 -4.97861,-8.08987c-5.4946,-0.20058 -7.06923,-2.0627 -6.37622,-8.4769z" stroke-linecap="round"/><path d="M308.91729,83.65332l0.13181,-36.20996l6.5324,0.02378l-0.13181,36.20996z" stroke-linecap="butt"/><path d="M325.98864,62.54295c-1.66088,-3.4245 -10.47567,-0.82775 -10.47567,-0.82775l-0.92926,-4.45819c0,0 15.01973,-2.64479 17.37926,1.39298c2.86254,4.89855 0.53381,27.18557 0.53381,27.18557l-6.43093,-2.25239c0,0 1.89902,-16.96554 -0.0772,-21.04023z" stroke-linecap="butt"/><path d="M353.02514,74.83227c0,0 5.61584,-9.84963 8.1656,-13.07308c2.24649,-2.84005 7.83868,-8.01345 7.83868,-8.01345l-0.55007,8.51704c0,0 -3.64492,4.72576 -5.71774,7.61115c-2.7326,3.80381 -9.25248,13.22757 -9.25248,13.22757c0,0 -3.96384,-4.68171 -6.47566,-6.50966c-1.52447,-1.10942 -7.17458,-3.42413 -7.17458,-3.42413l7.05617,-6.14192z" stroke-linecap="butt"/></g><text transform="translate(119.26243,75.65447) rotate(0.70467) scale(0.68098,0.68098)" font-size="40" xml:space="preserve" fill="#7eb614" fill-rule="nonzero" stroke="#7eb614" stroke-width="3" stroke-linecap="butt" stroke-linejoin="miter" stroke-miterlimit="10" stroke-dasharray="" stroke-dashoffset="0" font-family="Sans Serif" font-weight="normal" text-anchor="start" style="mix-blend-mode: normal"><tspan x="0" dy="0">第      年</tspan></text><text transform="translate(116.75,142.66655) scale(0.3791,0.37909)" font-size="40" xml:space="preserve" fill="#7eb614" fill-rule="nonzero" stroke="#7eb614" stroke-width="1" stroke-linecap="butt" stroke-linejoin="miter" stroke-miterlimit="10" stroke-dasharray="" stroke-dashoffset="0" font-family="Sans Serif" font-weight="normal" text-anchor="start" style="mix-blend-mode: normal"><tspan x="0" dy="0">你当前程序使用了       行代码</tspan></text><text transform="translate(115.25,183.66656) scale(0.3791,0.37909)" font-size="40" xml:space="preserve" fill="#7eb614" fill-rule="nonzero" stroke="#7eb614" stroke-width="1" stroke-linecap="butt" stroke-linejoin="miter" stroke-miterlimit="10" stroke-dasharray="" stroke-dashoffset="0" font-family="Sans Serif" font-weight="normal" text-anchor="start" style="mix-blend-mode: normal"><tspan x="0" dy="0">你当前程序进行了       步运算</tspan></text><text transform="translate(176.75,160.64625) scale(0.28131,0.2813)" font-size="40" xml:space="preserve" fill="#7eb614" fill-rule="nonzero" stroke="#7eb614" stroke-width="1" stroke-linecap="butt" stroke-linejoin="miter" stroke-miterlimit="10" stroke-dasharray="" stroke-dashoffset="0" font-family="Sans Serif" font-weight="normal" text-anchor="start" style="mix-blend-mode: normal"><tspan x="0" dy="0">此关卡至少需要       行代码</tspan></text><text transform="translate(115.21061,286.23112) rotate(1.16875) scale(0.38829,0.38829)" font-size="40" xml:space="preserve" fill-opacity="0.23529" fill="#808080" fill-rule="nonzero" stroke-opacity="0.23922" stroke="#808080" stroke-width="3" stroke-linecap="butt" stroke-linejoin="miter" stroke-miterlimit="10" stroke-dasharray="" stroke-dashoffset="0" font-family="Sans Serif" font-weight="normal" text-anchor="start" style="mix-blend-mode: normal"><tspan x="0" dy="0">            注意，这些诊断非常具有挑战！</tspan><tspan x="0" dy="46.150000000000006px">而且在大多数情况下你难以一箭双雕！</tspan></text></g></g></svg>