<svg version="1.1" xmlns="http://www.w3.org/2000/svg" xmlns:xlink="http://www.w3.org/1999/xlink" width="487.98799" height="373.87387" viewBox="0,0,487.98799,373.87387"><g transform="translate(3.99399,6.93689)"><g data-paper-data="{&quot;isPaintingLayer&quot;:true}" fill-rule="nonzero" stroke-linejoin="miter" stroke-miterlimit="10" stroke-dasharray="" stroke-dashoffset="0" style="mix-blend-mode: normal"><path d="M-3.99399,366.93699v-373.87387h487.98799v373.87387z" fill-opacity="0.70196" fill="#000000" stroke="none" stroke-width="0" stroke-linecap="butt"/><text transform="translate(4.00601,27.6637) scale(0.67335,0.67335)" font-size="40" xml:space="preserve" fill="#ffffff" fill-rule="nonzero" stroke="#ffffff" stroke-width="3" stroke-linecap="butt" stroke-linejoin="miter" stroke-miterlimit="10" stroke-dasharray="" stroke-dashoffset="0" font-family="Sans Serif" font-weight="normal" text-anchor="start" style="mix-blend-mode: normal"><tspan x="0" dy="0">第     年</tspan></text><text transform="translate(98.63067,28.89193) scale(0.5,0.5)" font-size="40" xml:space="preserve" fill="#ffffff" fill-rule="nonzero" stroke="none" stroke-width="1" stroke-linecap="butt" stroke-linejoin="miter" stroke-miterlimit="10" stroke-dasharray="" stroke-dashoffset="0" font-family="Sans Serif" font-weight="normal" text-anchor="start" style="mix-blend-mode: normal"><tspan x="0" dy="0">重设坐标</tspan></text><text transform="translate(2.29732,54.87029) scale(0.34348,0.34348)" font-size="40" xml:space="preserve" fill="#ffffff" fill-rule="nonzero" stroke="#ffffff" stroke-width="1" stroke-linecap="butt" stroke-linejoin="miter" stroke-miterlimit="10" stroke-dasharray="" stroke-dashoffset="0" font-family="Sans Serif" font-weight="normal" text-anchor="start" style="mix-blend-mode: normal"><tspan x="0" dy="0">兵七进一！</tspan><tspan x="0" dy="48px">将！</tspan><tspan x="0" dy="48px">绝杀，无解！</tspan><tspan x="0" dy="48px"> </tspan><tspan x="0" dy="48px">是的，我又赢了。</tspan><tspan x="0" dy="48px">我发现这种游戏只有和我所知最厉害的人玩才最有意思。</tspan><tspan x="0" dy="48px">也就是我自己。</tspan><tspan x="0" dy="48px"> </tspan><tspan x="0" dy="48px">INBOX中拿出每个数字，把对应地址的坐标发送到OUTBOX，先列后行。</tspan><tspan x="0" dy="48px">例如7号地毯的在2列1行。你需要发送2，1</tspan></text><path d="M62.58318,3.67091l2.79158,4.51924l-1.32909,5.65509l-6.56714,13.4599l9.47638,0.06267l-0.01518,4.94002l-16.62064,0.20814l8.70096,-18.48573l1.04656,-3.85008l-2.41018,-1.11331l-3.08413,0.87554l-2.53237,2.94426l-4.24431,-1.78318l4.32767,-5.11101l5.56837,-2.45956z" fill="#ffffff" stroke="none" stroke-width="0" stroke-linecap="round"/><path d="M45.65924,3.57582l2.877,4.65753l-6.14885,9.35716l5.98727,8.81613l-1.79306,6.1719l-3.29158,1.45915l-8.0583,0.35837l-4.38651,-1.65401l0.87341,-3.92782l3.71337,1.5025l3.19742,-0.02576l3.44903,-3.41535l-4.28497,-8.68842l5.27222,-7.90295l-2.48393,-1.14738l-6.81126,1.32258l-0.62353,-3.99721l7.4711,-3.02864z" fill="#ffffff" stroke="none" stroke-width="0" stroke-linecap="round"/></g></g></svg>