<svg version="1.1" xmlns="http://www.w3.org/2000/svg" xmlns:xlink="http://www.w3.org/1999/xlink" width="49.87573" height="10.37122" viewBox="0,0,49.87573,10.37122"><g transform="translate(-239.72991,-175.33185)"><g data-paper-data="{&quot;isPaintingLayer&quot;:true}" fill-rule="nonzero" stroke-linecap="butt" stroke-linejoin="miter" stroke-miterlimit="10" stroke-dasharray="" stroke-dashoffset="0" style="mix-blend-mode: normal"><path d="M239.72997,184.30226c0.00842,-1.13149 0.0523,-7.02865 0.06395,-8.59392c0.00181,-0.24315 0.29888,-0.37954 0.7174,-0.37644c2.7575,0.02053 31.51204,0.2345 36.62125,0.27253c0.50052,0.00372 0.7727,0.19356 0.77099,0.42302c-0.007,0.94031 -0.05397,7.25155 -0.06606,8.87802c-0.0018,0.24329 -0.21168,0.38019 -0.59832,0.37732c-4.59789,-0.03422 -34.33766,-0.25554 -36.91898,-0.27475c-0.35256,-0.00263 -0.59298,-0.34037 -0.59026,-0.7058z" fill-opacity="0.82353" fill="#000000" stroke="none" stroke-width="0"/><text transform="translate(241.60718,181.94018) rotate(0.4263) scale(0.14247,0.14247)" font-size="40" xml:space="preserve" fill="#d6d6d6" fill-rule="nonzero" stroke="#d6d6d6" stroke-width="2" stroke-linecap="butt" stroke-linejoin="miter" stroke-miterlimit="10" stroke-dasharray="" stroke-dashoffset="0" font-family="Sans Serif" font-weight="normal" text-anchor="start" style="mix-blend-mode: normal"><tspan x="0" dy="0">删除元音字母</tspan></text><path d="M279.68645,184.67016c0.03964,-1.13082 0.24619,-7.02453 0.30103,-8.5889c0.00851,-0.24299 0.08809,-0.37891 0.19373,-0.3752c0.69598,0.0244 7.95345,0.27876 9.24299,0.32397c0.12632,0.00444 0.18881,0.19452 0.18076,0.42386c-0.03293,0.93976 -0.25402,7.24731 -0.311,8.87284c-0.00854,0.24314 -0.06607,0.37968 -0.16367,0.37627c-1.16046,-0.04068 -8.66662,-0.30377 -9.31813,-0.32659c-0.08899,-0.00312 -0.13853,-0.34099 -0.12574,-0.70622z" fill-opacity="0.82353" fill="#b0963f" stroke="none" stroke-width="0"/><text transform="translate(281.55841,182.57442) rotate(2.00716) scale(0.14247,0.14247)" font-size="40" xml:space="preserve" fill="#fffc78" fill-rule="nonzero" stroke="#fffc78" stroke-width="2" stroke-linecap="butt" stroke-linejoin="miter" stroke-miterlimit="10" stroke-dasharray="" stroke-dashoffset="0" font-family="Sans Serif" font-weight="normal" text-anchor="start" style="mix-blend-mode: normal"><tspan x="0" dy="0">SS</tspan></text></g></g></svg>