<svg version="1.1" xmlns="http://www.w3.org/2000/svg" xmlns:xlink="http://www.w3.org/1999/xlink" width="13.20082" height="17.53281" viewBox="0,0,13.20082,17.53281"><g transform="translate(-233.48036,-171.18359)"><g data-paper-data="{&quot;isPaintingLayer&quot;:true}" fill="#426b7f" fill-rule="nonzero" stroke="none" stroke-width="0" stroke-linecap="butt" stroke-linejoin="miter" stroke-miterlimit="10" stroke-dasharray="" stroke-dashoffset="0" style="mix-blend-mode: normal"><path d="M235.24024,187.35589c-3.20144,-2.1853 -1.05652,-16.00096 -1.05652,-16.00096l2.73962,0.77023c0,0 -1.78876,11.69047 0.92741,13.23066c3.23189,1.83262 7.00875,-1.52677 7.00875,-1.52677c0,0 2.35311,-0.23777 -0.71195,4.13752c0,0 -5.02341,2.04052 -8.90731,-0.61067z"/><path d="M244.56539,187.38438l-1.14024,-2.21785c0,0 0.60589,-3.68129 0.55132,-5.58404c-0.06685,-2.33086 -0.92312,-7.37924 -0.92312,-7.37924l3.4663,-1.01966c0,0 0.35934,8.86906 0.00607,11.79766c-0.28191,2.33707 -1.96033,4.40313 -1.96033,4.40313z"/></g></g></svg>