<svg version="1.1" xmlns="http://www.w3.org/2000/svg" xmlns:xlink="http://www.w3.org/1999/xlink" width="79.36752" height="53.93024" viewBox="0,0,79.36752,53.93024"><defs><linearGradient x1="145.99092" y1="264.46171" x2="182.43312" y2="264.46171" gradientUnits="userSpaceOnUse" id="color-1"><stop offset="0" stop-color="#d6cc82" stop-opacity="0"/><stop offset="1" stop-color="#d6cc82"/></linearGradient></defs><g transform="translate(-131.75689,-228.91899)"><g data-paper-data="{&quot;isPaintingLayer&quot;:true}" fill-rule="nonzero" stroke-linecap="butt" stroke-linejoin="miter" stroke-miterlimit="10" stroke-dasharray="" stroke-dashoffset="0" style="mix-blend-mode: normal"><path d="M135.87677,272.12471l3.92293,-39.39139l68.60667,6.83244l-3.92293,39.39139z" fill="#f9ef98" stroke="none" stroke-width="0"/><path d="M136.5581,239.8864l-2.53518,-4.62946l11.57365,-6.33795l2.53518,4.62946z" fill-opacity="0.29804" fill="#fafafa" stroke="none" stroke-width="0"/><path d="M131.75689,265.8173l4.43015,-2.86929l7.17321,11.07538l-4.43015,2.86929z" fill-opacity="0.29804" fill="#fafafa" stroke="none" stroke-width="0"/><path d="M200.1702,282.84923l-4.07493,-3.35469l8.38673,-10.18733l4.07493,3.35469z" fill-opacity="0.29804" fill="#fafafa" stroke="none" stroke-width="0"/><path d="M211.12441,247.51591l-4.73653,2.32902l-5.82256,-11.84132l4.73653,-2.32902z" fill-opacity="0.29804" fill="#fafafa" stroke="none" stroke-width="0"/><path d="M188.14129,250.63134c-1.23014,3.29354 -3.82934,5.36514 -5.80546,4.62706c-1.97612,-0.73809 -2.58086,-4.00636 -1.35071,-7.2999c1.23014,-3.29354 3.82934,-5.36514 5.80546,-4.62706c1.97612,0.73809 2.58086,4.00636 1.35071,7.2999z" fill="none" stroke="#d6cc82" stroke-width="1.5"/><path d="M186.60028,254.38761c0,-4.92208 3.99013,-8.91222 8.91222,-8.91222c4.92208,0 8.91222,3.99013 8.91222,8.91222c0,4.92208 -3.99013,8.91222 -8.91222,8.91222c-4.92208,0 -8.91222,-3.99013 -8.91222,-8.91222z" fill="#898353" stroke="none" stroke-width="0"/><path d="M183.5281,249.36631c-0.8075,2.32235 -2.5917,3.81222 -3.98511,3.32772c-1.39341,-0.4845 -1.86838,-2.75991 -1.06088,-5.08226c0.8075,-2.32235 2.5917,-3.81222 3.98511,-3.32772c1.39341,0.4845 1.86838,2.75991 1.06088,5.08226z" fill="none" stroke="#d6cc82" stroke-width="1.5"/><path d="M181.76223,255.66078c0,-2.67199 2.16607,-4.83806 4.83806,-4.83806c2.67199,0 4.83806,2.16607 4.83806,4.83806c0,2.67199 -2.16607,4.83806 -4.83806,4.83806c-2.67199,0 -4.83806,-2.16607 -4.83806,-4.83806z" fill="#948d5a" stroke="none" stroke-width="0"/><path d="M183.54467,255.91542c0,0.56252 -0.85503,1.01854 -1.90976,1.01854c-1.05473,0 -1.90976,-0.45602 -1.90976,-1.01854c0,-0.56252 0.85503,-1.01854 1.90976,-1.01854c1.05473,0 1.90976,0.45602 1.90976,1.01854z" fill="#898353" stroke="none" stroke-width="0"/><path d="M149.02777,270.45105l-4.38656,-6.0737l37.79191,-5.90499z" fill="url(#color-1)" stroke="none" stroke-width="0"/><text transform="translate(144.4725,247.71686) scale(0.23313,0.23313)" font-size="40" xml:space="preserve" fill="#948d5a" fill-rule="nonzero" stroke="#948d5a" stroke-width="3" stroke-linecap="butt" stroke-linejoin="miter" stroke-miterlimit="10" stroke-dasharray="" stroke-dashoffset="0" font-family="Sans Serif" font-weight="normal" text-anchor="start" style="mix-blend-mode: normal"><tspan x="0" dy="0">POND</tspan></text></g></g></svg>