<svg version="1.1" xmlns="http://www.w3.org/2000/svg" xmlns:xlink="http://www.w3.org/1999/xlink" width="88.96819" height="15.32661" viewBox="0,0,88.96819,15.32661"><g transform="translate(-174.60894,-171.2148)"><g data-paper-data="{&quot;isPaintingLayer&quot;:true}" stroke-linejoin="miter" stroke-miterlimit="10" stroke-dasharray="" stroke-dashoffset="0" style="mix-blend-mode: normal"><path d="M227.97849,182.88265c-1.04125,0.10421 -2.02614,-1.21815 -2.19982,-2.95357c-0.17368,-1.73542 0.52963,-3.22673 1.57089,-3.33093c1.04125,-0.10421 2.02614,1.21815 2.19982,2.95356c0.17368,1.73542 -0.52964,3.22673 -1.57089,3.33093z" fill="#f9bf2c" fill-rule="nonzero" stroke="#000000" stroke-width="1.5" stroke-linecap="butt"/><path d="M230.62489,182.81351c-1.19126,0.13661 -2.32206,-1.19242 -2.52573,-2.96846c-0.20367,-1.77604 0.59692,-3.32656 1.78818,-3.46317c1.19126,-0.13661 2.32206,1.19242 2.52573,2.96846c0.20367,1.77604 -0.59692,3.32656 -1.78818,3.46317z" fill="#f9bf2c" fill-rule="nonzero" stroke="#000000" stroke-width="1.5" stroke-linecap="butt"/><path d="M245.92044,173.24027l-0.19729,11.594l-14.02648,-2.67139c0,0 -0.63548,-1.66735 -0.69269,-2.49491c-0.06111,-0.88378 0.33698,-2.65019 0.33698,-2.65019z" fill="#f9bf2c" fill-rule="evenodd" stroke="#000000" stroke-width="1" stroke-linecap="butt"/><path d="M235.52325,176.99327c-0.20051,0.29284 -1.25876,2.10028 -1.33606,2.35597c-0.10448,0.34847 0.9407,2.01833 1.24155,2.18847c0.13326,-0.23211 0.69355,-1.97178 0.81327,-2.35292c0.18762,-0.61262 -0.61471,-2.10496 -0.72364,-2.193zM242.12104,182.89765c0.00263,-0.02687 -0.24827,0.63683 -0.24827,0.63683l0.98549,0.19702l-0.73882,-0.83803zM243.25687,180.92398c-0.04529,-0.20439 -0.65892,0.9312 -0.65892,0.9312l0.85893,1.08893c-0.10168,-0.671 -0.16964,-1.34669 -0.20359,-2.02449zM238.69442,176.49005c-0.32078,0.15647 -0.51558,0.66792 -0.68663,1.00886c-0.20408,0.39838 -0.37883,0.81111 -0.52289,1.2349c0.23151,0.77217 0.60352,1.49499 1.09735,2.13215c0.37517,-0.70875 0.70494,-1.44062 0.98733,-2.19118c-0.00343,-0.17014 -0.75405,-1.77999 -0.87915,-2.18513zM240.17951,179.88501c-0.41738,0.62508 -0.70428,1.328 -0.8435,2.06661c0.35018,0.50756 0.91801,1.27558 1.56292,1.33875c0.14577,-0.29821 0.27807,-0.71529 0.41745,-1.02016c0.20933,-0.45476 0.11696,-0.42462 -0.15474,-0.8411c-0.30099,-0.53132 -0.62875,-1.04702 -0.98204,-1.5451zM241.95583,177.06576c-0.53323,0.45978 -0.93909,1.04912 -1.17845,1.71126c0.29644,0.74658 0.72015,1.43607 1.25229,2.0378c0.13198,-0.17798 1.03446,-1.71833 1.10414,-1.89638c-0.17377,-0.31846 -0.43219,-0.56282 -0.62768,-0.89547c-0.16379,-0.33004 -0.34719,-0.64998 -0.5492,-0.95811zM243.26482,177.17088l0.2468,-1.95525c-0.36347,0.20622 -0.66318,0.50849 -0.8663,0.87371c0.08905,0.41615 0.3056,0.79419 0.61951,1.08155zM244.70971,174.25787c0.03282,0.02805 0.06343,0.05858 0.09152,0.09136c0.09368,0.12071 -0.07722,0.1934 -0.32926,1.08406c-0.12361,0.44181 -0.22418,0.88977 -0.30128,1.34202c-0.14047,0.94632 -0.20422,1.90244 -0.19064,2.85904c-0.04555,1.23295 0.14065,2.46351 0.54892,3.6278c0.17692,0.33883 0.38033,0.66314 0.60833,0.96993c-1.25348,-0.21021 -2.57238,-0.54238 -3.8215,-0.81747c-0.12294,-0.02711 -4.9016,-0.70523 -3.17626,-0.73718c0.14258,-0.59393 -0.16995,-0.83957 -0.48132,-1.34332c-0.19395,-0.3979 -0.42612,-0.776 -0.69323,-1.12896c-0.32427,0.65298 -0.55633,1.34781 -0.68958,2.0646c2.8525,0.89335 -2.37449,-0.40844 -2.52353,-0.54864l0.54236,0.03304c-0.23043,-0.33506 -0.42368,-0.83428 -0.77119,-1.05119l-0.26619,0.83l0.45749,0.23272c-1.01354,-0.14652 -1.25946,-0.31328 -1.35458,-1.3937c0.01953,0.03072 0.04079,0.06031 0.06366,0.08863c0.01118,0.01918 0.01308,0.07161 0.06337,0.09161c0.05029,0.02 0.05484,0.05561 0.07163,0.08941c0.55486,-0.61598 0.52593,-1.55975 -0.06562,-2.14059l-0.14326,1.33941c-0.10831,-0.49365 -0.07952,-1.00752 0.08327,-1.48596c0.16717,-0.69099 0.14545,-0.84887 0.82425,-0.9572c-0.03689,0.33086 0.06271,0.66247 0.27579,0.91827c0.26994,-0.1504 0.47744,-0.67869 0.63791,-0.99354c-0.08899,-0.11723 0.04519,-0.04079 -0.19125,-0.09912c0.84895,-0.32561 1.72677,-0.57033 2.62175,-0.73087c-0.0472,0.34912 0.05548,0.70192 0.28266,0.97118l0.49597,-0.86778c0.14081,-0.39114 0.09676,-0.12616 -0.041,-0.29943l2.14718,-0.64573c0.14397,0.67934 0.39329,1.33197 0.73894,1.93426c0.46284,-0.48837 0.86543,-1.03051 1.19914,-1.61479l-0.2213,-0.59239l-0.22378,-0.04403c1.21281,-0.44993 2.45709,-0.80995 3.72276,-1.07718z" fill="#f29600" fill-rule="evenodd" stroke="none" stroke-width="1" stroke-linecap="butt"/><path d="M246.24708,172.73166c0.04195,-2.00907 4.97679,-1.88282 6.03122,-0.438c0.17223,0.07595 0.32508,0.16055 0.45258,0.25437c0.93532,-0.18962 2.36468,0.03001 2.34166,0.5758c0.02509,0.04841 0.04501,0.09975 0.05912,0.15326c0.8652,0.33564 1.67328,0.9442 2.27189,1.72129c1.88937,-0.91466 6.10119,1.7135 6.02545,3.50939c0.0644,0.12426 0.09479,0.26796 0.08013,0.41763c-0.00881,0.08995 -0.03318,0.17463 -0.07015,0.25163c0.19786,0.78615 0.19802,1.5437 -0.09682,1.67591l-0.06275,0.09979c-0.14442,0.24075 -0.41872,0.39015 -0.71669,0.36097c-0.21975,-0.02153 -0.40802,-0.13584 -0.52981,-0.30035c-0.22014,0.15684 -0.45629,0.32424 -0.70081,0.49653c-0.41947,1.16932 -1.76348,2.43062 -3.0096,2.66928c-0.04084,0.03949 -0.08606,0.0743 -0.13477,0.1037c-0.48891,0.4492 -1.90106,0.27978 -2.66938,-0.15121c-0.01856,-0.01041 -0.03795,-0.02272 -0.05809,-0.03679c-0.55118,1.07811 -2.53652,1.87053 -4.12509,1.41715c-0.64409,0.80029 -3.19079,1.29832 -3.98108,0.87497c-3.01826,-1.61681 -3.57145,-10.39492 -1.10715,-13.57195c-0.0005,-0.02685 -0.00046,-0.05464 0.00015,-0.08337zM253.17514,174.73221c-1.42437,0.55089 -3.45796,1.58764 -2.2411,-0.23134c0.1207,-0.18044 0.24943,-0.34319 0.38499,-0.48906c-1.47963,-0.46987 -2.91312,-1.98302 -4.33491,1.26403c-0.74864,1.70971 -1.29993,8.57412 1.01555,9.75409c0.59453,0.30297 1.35182,-0.08468 1.99096,-0.36325c-0.64226,-0.68629 -1.79194,-2.08472 -0.20607,-2.24343c1.2816,-0.12826 1.53836,2.23663 3.33234,1.76246c0.5499,-0.14534 0.907,-1.06184 1.20596,-1.41907c-0.54267,-0.40792 -0.81336,-0.88096 -0.4276,-1.34764c-0.01764,-0.36416 0.17857,-0.56088 0.73965,-0.39035c0.25308,0.07692 0.42507,0.23958 0.56755,0.43863c0.9143,0.48408 2.13001,1.30346 3.08544,0.7651c0.91672,-0.51655 1.26212,-2.10112 2.19144,-2.79066c0.12572,-0.09328 0.52488,-0.22991 0.98487,-0.32257c-0.16403,-0.48358 -0.32316,-0.99251 -0.57424,-1.43919c-0.10077,-0.13007 -0.20477,-0.25699 -0.31353,-0.37594c-0.02014,-0.01209 -0.03964,-0.02509 -0.05844,-0.03892c-1.83074,0.18479 -5.0277,-0.88265 -6.45024,-2.02092c-0.05286,0.01212 -0.10449,0.01781 -0.1547,0.01775c0.04222,-0.02775 0.07959,-0.0744 0.09843,-0.15156c0.05932,-0.24286 -0.18354,-0.30217 -0.18354,-0.30217c-0.18782,-0.03549 -0.39615,-0.01926 -0.57708,0.05091c-0.02759,-0.04064 -0.05289,-0.08312 -0.07571,-0.12688z" fill="#000000" fill-rule="nonzero" stroke="none" stroke-width="0.5" stroke-linecap="butt"/><path d="M253.24485,174.80945c0.18093,-0.07018 0.39519,-0.08676 0.58302,-0.05128c0,0 0.24486,0.05935 0.18554,0.30222c-0.01884,0.07716 -0.05725,0.12378 -0.09948,0.15153c0.05021,0.00006 0.10359,-0.00557 0.15643,-0.01769c1.42253,1.13827 4.66388,2.2386 6.49462,2.0538c0.0188,0.01385 0.03844,0.02721 0.05858,0.03931c0.10876,0.11897 0.21371,0.24886 0.31448,0.37893c0.25108,0.44667 0.41198,0.96557 0.57602,1.44915c-0.46,0.09266 -0.85905,0.23115 -0.98478,0.32444c-0.92932,0.68954 -1.28127,2.30077 -2.19799,2.81732c-0.95542,0.53836 -2.18407,-0.26618 -3.09837,-0.75026c-0.14248,-0.19904 -0.31932,-0.35842 -0.5724,-0.43533c-0.56108,-0.17052 -0.78118,0.03325 -0.76355,0.3974c-0.38575,0.46668 -0.10898,0.93912 0.43368,1.34704c-0.29896,0.35723 -0.67178,1.27372 -1.22168,1.41907c-1.79398,0.47416 -2.08429,-1.91213 -3.36589,-1.78386c-1.58586,0.15871 -0.36418,1.48959 0.27808,2.17588c-0.63914,0.27856 -1.46388,0.73955 -2.05841,0.43658c-2.31548,-1.17997 -1.76933,-8.10521 -1.02069,-9.81492c1.42178,-3.24704 2.87705,-1.75253 4.35668,-1.28266c-0.13556,0.14587 -0.21962,0.39798 -0.34033,0.57842c-1.21686,1.81899 0.78573,0.68903 2.2101,0.13814c0.02282,0.04375 0.04871,0.08617 0.0763,0.12681z" data-paper-data="{&quot;noHover&quot;:false,&quot;origItem&quot;:[&quot;Path&quot;,{&quot;applyMatrix&quot;:true,&quot;segments&quot;:[[[233.52155,139.16775],[0.04357,-0.02316],[0.56192,1.42005]],[[233.3076,141.41058],[1.82837,1.20271],[-0.18137,-0.1193]],[[232.81557,141.0294],[0.14692,0.13442],[-0.45838,1.48323]],[[234.11318,145.35437],[-3.25797,-1.39655],[1.71547,0.73535]],[[243.8591,144.26319],[-1.16197,2.32456],[0.29835,-0.59686]],[[243.48042,142.27511],[0.28351,0.63696],[-0.68129,0.64756]],[[241.23866,142.49858],[0.17101,1.58458],[-0.1382,-1.28057]],[[242.97522,139.15267],[0.48806,1.79025],[-0.1496,-0.54876]],[[241.54684,137.95775],[0.35954,0.29618],[-0.4037,0.54582]],[[240.20256,138.39579],[0.46966,0.38212],[-0.36401,0.02046]],[[239.80648,137.65919],[-0.16616,0.56239],[0.07495,-0.25367]],[[240.24069,137.08825],[-0.19793,0.14402],[0.47697,-0.91803]],[[240.98183,133.99698],[0.54576,0.95122],[-0.52365,-0.91269]],[[238.17425,131.82725],[0.69673,0.92394],[-0.09425,-0.12499]],[[237.84405,130.84491],[0.09623,0.45927],[-0.48229,0.16778]],[[236.40936,131.4303],[0.44471,-0.25454],[-0.12928,0.10178]],[[236.03585,131.74674],[0.11812,-0.10968],[-0.01193,0.02023]],[[235.99738,131.80548],[0.0137,-0.01891],[0.19899,1.82925]],[[234.02656,138.2712],[1.1272,-1.43132],[0.01253,0.05276]],[[234.04551,138.42576],[-0.00033,-0.05021],[-0.02808,-0.042]],[[233.89319,138.32851],[0.0773,0.01824],[-0.24331,-0.05743]],[[233.59244,138.51439],[0,0],[-0.03403,0.18809]],[[233.64784,139.09107],[-0.07158,-0.18038],[-0.04042,0.0279]]],&quot;closed&quot;:true}]}" fill="#ffffff" fill-rule="nonzero" stroke="none" stroke-width="0.5" stroke-linecap="butt"/><g><path d="M227.62538,178.00795l-0.24238,3.58242l-51.0961,-0.05455l-1.18587,-0.4624l0.35864,-1.53373l2.01417,-0.53466c0,0 50.11395,-0.95076 50.15156,-0.99709z" fill="#f9bf2c" fill-rule="evenodd" stroke="none" stroke-width="1" stroke-linecap="butt"/><path d="M227.57108,182.19155l-49.28179,-0.7935l-2.90062,-0.93807l0.07603,-1.42201l1.63085,-0.98456c0,0 0.3358,0.00488 0.66666,0.0097c0.96389,0.01403 5.65789,0.08235 5.65789,0.08235l43.77165,-0.18754" fill="none" fill-rule="nonzero" stroke="#000000" stroke-width="1.5" stroke-linecap="round"/></g></g></g></svg>