<svg version="1.1" xmlns="http://www.w3.org/2000/svg" xmlns:xlink="http://www.w3.org/1999/xlink" width="39.43703" height="8.73882" viewBox="0,0,39.43703,8.73882"><g transform="translate(-239.06407,-176.49288)"><g data-paper-data="{&quot;isPaintingLayer&quot;:true}" fill="#fafafa" fill-rule="nonzero" stroke-miterlimit="10" stroke-dasharray="" stroke-dashoffset="0" style="mix-blend-mode: normal"><path d="M244.99817,178.01903c2.53412,0.52157 8.49864,1.34739 11.13684,1.66115c1.20783,-0.54876 4.46401,0.84747 4.59688,1.33704c0.35134,1.93236 3.49714,1.65659 3.28881,1.9231c-4.67762,2.88746 -14.73415,2.037 -22.8591,0.11436" data-paper-data="{&quot;origPos&quot;:null,&quot;origRot&quot;:0}" stroke="#000000" stroke-width="0.84" stroke-linecap="round" stroke-linejoin="round"/><path d="M259.16486,179.56416c10.17562,-2.30011 18.65062,-0.71302 18.8802,0.6764c0.6397,3.25353 -7.23384,4.76763 -23.85034,4.51593" data-paper-data="{&quot;origPos&quot;:null,&quot;origRot&quot;:0}" stroke="#000000" stroke-width="0.84" stroke-linecap="round" stroke-linejoin="round"/><path d="M239.06407,179.80538c0,-1.82944 1.48306,-3.3125 3.3125,-3.3125c1.82944,0 3.3125,1.48306 3.3125,3.3125c0,1.82944 -1.48306,3.3125 -3.3125,3.3125c-1.82944,0 -3.3125,-1.48306 -3.3125,-3.3125z" data-paper-data="{&quot;origPos&quot;:null}" stroke="none" stroke-width="0" stroke-linecap="butt" stroke-linejoin="miter"/></g></g></svg>