<svg version="1.1" xmlns="http://www.w3.org/2000/svg" xmlns:xlink="http://www.w3.org/1999/xlink" width="48.7902" height="57.97384" viewBox="0,0,48.7902,57.97384"><g transform="translate(-216.06498,-125.86328)"><g data-paper-data="{&quot;isPaintingLayer&quot;:true}" fill-rule="nonzero" stroke-linejoin="miter" stroke-miterlimit="10" stroke-dasharray="" stroke-dashoffset="0" style="mix-blend-mode: normal"><path d="M264.35518,162.00504c0,11.7814 -10.6982,21.33208 -23.8951,21.33208c-13.1969,0 -23.8951,-9.55071 -23.8951,-21.33208c0,-11.7814 10.6982,-21.33208 23.8951,-21.33208c13.1969,0 23.8951,9.55068 23.8951,21.33208z" fill="#ffffff" stroke="#000000" stroke-width="1" stroke-linecap="butt"/><path d="M233.29966,155.50175c0,2.54484 -1.58512,4.60785 -3.54045,4.60785c-1.95534,0 -3.54048,-2.06301 -3.54048,-4.60785c0,-2.54484 1.58512,-4.60785 3.54048,-4.60785c1.95534,0 3.54045,2.06301 3.54045,4.60785z" fill="#208bde" stroke="#000000" stroke-width="0.5" stroke-linecap="butt"/><path d="M252.74638,155.4779c0,2.54484 -1.58512,4.60785 -3.54048,4.60785c-1.95534,0 -3.54045,-2.06301 -3.54045,-4.60785c0,-2.54484 1.58512,-4.60785 3.54045,-4.60785c1.95534,0 3.54048,2.06301 3.54048,4.60785z" fill="#208bde" stroke="#000000" stroke-width="0.5" stroke-linecap="butt"/><path d="M226.64597,155.19456c0,-0.83784 0.73384,-1.51702 1.63913,-1.51702c0.90528,0 1.63913,0.67917 1.63913,1.51702c0,0.83784 -0.73384,1.51702 -1.63913,1.51702c-0.90528,0 -1.63913,-0.67917 -1.63913,-1.51702z" fill="#ffffff" stroke="#000000" stroke-width="0.5" stroke-linecap="butt"/><path d="M246.45039,155.39934c0,-0.83784 0.73384,-1.51702 1.63913,-1.51702c0.90528,0 1.63913,0.67917 1.63913,1.51702c0,0.83784 -0.73384,1.51702 -1.63913,1.51702c-0.90528,0 -1.63913,-0.67917 -1.63913,-1.51702z" fill="#ffffff" stroke="#000000" stroke-width="0.5" stroke-linecap="butt"/><path d="M243.03591,165.38306c0,1.38552 -1.065,2.50872 -2.37875,2.50872c-1.31375,0 -2.37875,-1.1232 -2.37875,-2.50872c0,-1.38552 1.24792,-3.73777 2.60003,-5.68302c0.42252,-0.60786 2.15747,4.2975 2.15747,5.68302z" fill="#ffd200" stroke="#000000" stroke-width="0.5" stroke-linecap="butt"/><path d="M253.43599,171.78287c0,0 -2.53446,4.88487 -12.39673,5.15359c-9.55975,0.26046 -13.82477,-4.84641 -13.82477,-4.84641" fill="none" stroke="#0090ff" stroke-width="1.5" stroke-linecap="round"/><path d="M223.67402,170.55409c0,-1.24416 1.065,-2.25272 2.37875,-2.25272c1.31375,0 1.71489,0.59897 1.71489,1.84312c0,1.24416 1.59034,2.86711 0.2766,2.86711c-1.31375,0 -4.37025,-1.21337 -4.37025,-2.45752z" fill="#ff0012" stroke="#000000" stroke-width="0.5" stroke-linecap="butt"/><path d="M225.77617,162.97672c0,0.90482 -1.18884,1.63836 -2.65534,1.63836c-1.46652,0 -2.65534,-0.73351 -2.65534,-1.63836c0,-0.90482 1.18884,-1.63836 2.65534,-1.63836c1.46652,0 2.65534,0.73351 2.65534,1.63836z" fill="#ff7b84" stroke="#000000" stroke-width="0" stroke-linecap="butt"/><path d="M257.70734,163.53989c0,0.87655 -1.30291,1.58716 -2.91015,1.58716c-1.60724,0 -2.91015,-0.71059 -2.91015,-1.58716c0,-0.87655 1.30291,-1.58716 2.91015,-1.58716c1.60724,0 2.91015,0.71059 2.91015,1.58716z" fill="#ff7b84" stroke="#000000" stroke-width="0" stroke-linecap="butt"/><path d="M251.80854,132.50707c0,0 -2.33018,9.6253 -6.19581,9.6253c-4.3333,0 -9.48379,0 -11.83841,0c-2.433,0 -5.6426,-9.31809 -5.6426,-9.31809l2.32343,-2.55992l3.98301,5.63182l1.4383,0.61438l1.32768,-10.13728h5.42133l0.55319,9.83007l1.65958,0.51198l4.42558,-6.2462z" fill="#ffffff" stroke="#000000" stroke-width="1" stroke-linecap="round"/></g></g></svg>