<svg version="1.1" xmlns="http://www.w3.org/2000/svg" xmlns:xlink="http://www.w3.org/1999/xlink" width="36.68973" height="9.85977" viewBox="0,0,36.68973,9.85977"><g transform="translate(-237.93904,-173.44788)"><g data-paper-data="{&quot;isPaintingLayer&quot;:true}" fill="#fafafa" fill-rule="nonzero" stroke-miterlimit="10" stroke-dasharray="" stroke-dashoffset="0" style="mix-blend-mode: normal"><path d="M240.94425,176.87302c7.98011,-2.45544 17.95844,-3.96871 22.81668,-1.39672c0.22549,0.25216 -2.93167,0.18491 -3.15452,2.13626c-0.10022,0.49728 -3.257,2.10567 -4.49846,1.63794c-2.6117,0.48744 -8.5086,1.70568 -11.0027,2.39359" data-paper-data="{&quot;origRot&quot;:0,&quot;index&quot;:null}" stroke="#000000" stroke-width="0.84" stroke-linecap="round" stroke-linejoin="round"/><path d="M254.08074,173.86788c14.24445,0.86869 20.86585,2.90863 20.06294,6.10903c-0.30556,1.36966 -7.68518,2.38081 -16.21563,-0.59783" data-paper-data="{&quot;origRot&quot;:0,&quot;index&quot;:null}" stroke="#000000" stroke-width="0.84" stroke-linecap="round" stroke-linejoin="round"/><path d="M241.25154,176.68265c1.82944,0 3.3125,1.48306 3.3125,3.3125c0,1.82944 -1.48306,3.3125 -3.3125,3.3125c-1.82944,0 -3.3125,-1.48306 -3.3125,-3.3125c0,-1.82944 1.48306,-3.3125 3.3125,-3.3125z" data-paper-data="{&quot;index&quot;:null}" stroke="none" stroke-width="0" stroke-linecap="butt" stroke-linejoin="miter"/></g></g></svg>