<svg xmlns="http://www.w3.org/2000/svg" width="67.214" height="80.153" viewBox="0 0 67.214 80.153">
  <g id="组件_1_11" data-name="组件 1 – 11" transform="translate(0 13)">
    <g id="组_3" data-name="组 3" transform="translate(0 -13)">
      <path id="路径_1" data-name="路径 1" d="M458.5,344.206l11.558-.934L468.53,357.65l-2.49.789-2.438-.486-4.612-10.925Z" transform="translate(-455.801 -326.425)" fill="#f9bf2c" fill-rule="evenodd"/>
      <path id="路径_2" data-name="路径 2" d="M479.363,397.847c.134.366,1.753.563,2.159.565.377-.428.712-1.15,1.127-1.677.3-.378.745-.731,1.06-.569.2.1.113.719.01,1.051a11.972,11.972,0,0,1-.5,1.2,18.981,18.981,0,0,0-.839,2.33,18.051,18.051,0,0,0,1.983,15.2c3.5,5.683,9.5,8.266,15.931,9.051,9.942,1.21,20.887-3,23.61-13.384a22.522,22.522,0,0,0,.5-8.572,9.045,9.045,0,0,1-.218-1.8c.03-.313.153-.63.4-.7s.552.2.765.52a8.3,8.3,0,0,1,.9,2.882,24.1,24.1,0,0,1,.062,4.849c3.422-.339,2.939-5.616,2.185-7.895a19.4,19.4,0,0,0-5.845-8.037c-1.19-1.065-6.047,1.372-12.2-.888a7.548,7.548,0,0,1-3.357-2.2c-1.071.06-2.04.214-3.163.224-1.086.01-2.241-.19-3.25-.164-3.073,2.881-6.564,3.035-10.564,2.259a53.86,53.86,0,0,0-5.566-1.059c-.075,0-.253,0-.307,0a12.55,12.55,0,0,1-2.291.01,18.891,18.891,0,0,1-2.851-.567c-.176-.036-.362-.067-.564-.093Z" transform="translate(-464.589 -346.825)" fill="#fff" fill-rule="evenodd"/>
      <path id="路径_3" data-name="路径 3" d="M504.027,356.672a14.69,14.69,0,0,0,3.95,1.746c3.058.794,6.432.675,9.03-1.32a7.007,7.007,0,0,0,1.387-1.422c.78-1.064,1.532-.207,1.3.411a8.185,8.185,0,0,1-2.891,2.744,11.767,11.767,0,0,1-9.369.83,20.492,20.492,0,0,1-3.89-1.759c-.393-.274-2.827-.2-4.229-1.626-3.357-3.425,1.273-6.692,3.233-3.938.606.852.493,2.154,1.475,4.333Zm13.466-5.87c.682.254,2.769-.038,2.025,1.34-1.133,2.1-8.049,4.657-9.969,1.81-1.026-1.524-.633-4.119,1.509-4.64a4.12,4.12,0,0,1,2.867.5c-.877-4.089,1.686-5.725,3.549-4.744.385.2,1.549,1.394,1.21,1.753-.61.543-.613-.807-1.46-1.028a3.71,3.71,0,0,1,.449,1.786,1.85,1.85,0,0,0-.743.67l.822.518a5.209,5.209,0,0,1-.259,2.038Zm-10.622-2.262a4.32,4.32,0,0,1-.565,2.6c-1.7,2.172-4.371-.994-3.527-4.316.418-1.651,1.978-3.068,3.7-2.189.468.239,1.491,1.263,1.454,1.758-.043.563-.591.222-.817-.2a1.343,1.343,0,0,0-.8-.764,3.945,3.945,0,0,1,.451,1.855l-.754.688a4.49,4.49,0,0,0,.867.565Zm-14.059,3.651c.752,8.74,9.952,13.424,17.886,13.21,8.074-.219,16.729-5.716,16.427-14.621a12.893,12.893,0,0,0-5.626-9.919,19.2,19.2,0,0,0-5.24-2.583c-1.178-.414-1.91.1-3.123.271a26.187,26.187,0,0,1-7.382-.047c-1.6-.214-1.733-.463-3.322.159a17.47,17.47,0,0,0-4.948,2.78c-3.193,2.851-5.05,6.363-4.672,10.751Z" transform="translate(-470.832 -324.165)" fill="#fff" fill-rule="evenodd"/>
      <path id="路径_4" data-name="路径 4" d="M459.333,327.483c-.256.929-1.348.521-2.04.535a3.21,3.21,0,0,0-.538,2,1.884,1.884,0,0,0,1.248,1.4c3.245,1.066,13.5.089,10.353-3.519-.558.137-1.041.441-1.574.025-.207-.364.785-.949.8-2.109a2.488,2.488,0,0,0-1.158-1.866c-.553.038-.929.379-1.551.164-.284-.862,2.209-2.522.095-4.4a9.391,9.391,0,0,0-2.03-1.133c-1.151-.682-.87-.824-1.433-1.738-1.748.528-2.146,2.478-1.833,4.062.122.62.333,1.069-.149,1.606a5.528,5.528,0,0,0-1.681,2.356c-.416,1.863,1.115,1.93,1.494,2.612Z" transform="translate(-455.025 -314.832)" fill="#fff" fill-rule="evenodd"/>
      <path id="路径_5" data-name="路径 5" d="M515.639,320.664c-.028.964-1.243,3.4-2.274,3.544-1.2.164-2.911-2.149-3.18-2.752.991-1.883-.817-2.5-1.644-2.017-.764.438-1.35,2.244.939,2.463.239.894.588,1.938.876,2.814.546,1.664.663,1.489.693,2.921a24.21,24.21,0,0,0,10.039-.032c-.035-1.666-.075-.725.657-2.782.2-.553,1.021-2.68,1.021-2.68s1.153.053,1.489-.747a1.34,1.34,0,0,0-2.216-1.457c-.654.75-.187,1.133-.035,1.778-.409.725-2.269,2.931-3.118,2.642-1.186-.4-2.07-2.513-2.187-3.7.451-.491.889-.69.693-1.567a1.318,1.318,0,0,0-1.3-.974c-1.308.033-1.835,1.631-.454,2.54Z" transform="translate(-477.455 -315.392)" fill="#fff" fill-rule="evenodd"/>
      <path id="路径_6" data-name="路径 6" d="M463.6,355.572c.077-.117,1.484-1.061,2.112-.934.391.082,2.177.47,2.421.58-.14.316-1.7,1.519-2.057,1.449-.262-.052-2.164-.929-2.475-1.1Zm5.23-7.145.762-.817-.1,1s-.685-.185-.658-.185Zm-2.075-.936a20.288,20.288,0,0,0,1.995-.4l-1,.961s-1.19-.5-.991-.565Zm-3.964,4.973c.391-.164,1.92-1.068,2.089-1.088a18.94,18.94,0,0,1,2.277.769,6.552,6.552,0,0,1-2.015,1.3,9.209,9.209,0,0,1-1.28-.4c-.356-.137-.884-.281-1.071-.585Zm3.233-1.813a18.039,18.039,0,0,1,1.442-1.128c.388-.311.349-.4.822-.236.317.109.745.2,1.056.316,0,.648-.709,1.288-1.18,1.686a5.584,5.584,0,0,1-2.139-.638Zm-2.979-1.494a9.236,9.236,0,0,1,.9-.64c.312-.227.53-.508.83-.712.184.052,1.805.8,1.995.914a6.945,6.945,0,0,1-1.906,1.445,4.1,4.1,0,0,1-1.818-1.006Zm-1.038-.59a2.277,2.277,0,0,1-.954-.777l1.97.055a2.047,2.047,0,0,1-1.016.722Zm-2.025-1.868a26.359,26.359,0,0,0,1.435,3.6l.022-.227.568-.278a8.414,8.414,0,0,1,1.724,1.036,6.66,6.66,0,0,1-1.853.924l.852,2.074c.159-.154-.109-.172.294-.07l.912.409a1.247,1.247,0,0,1-.939.376,14.441,14.441,0,0,0,.983,2.538c.035-.241-.028-.1.08-.2.329.129.875.284,1.051.538a1.223,1.223,0,0,1-.887.364c.174.665.329.628,1.033.727a2.77,2.77,0,0,0,1.487-.062l-1.347-.012a1.548,1.548,0,0,1,2.124-.274c-.032.02-.067.028-.082.08s-.067.059-.085.072a.965.965,0,0,1-.082.072c1.066-.2,1.208-.461,1.255-1.484l-.187.478-.852-.184c.182-.367.66-.608.971-.87l.02.543c.125-.162.911-5.491.3-2.565a7.88,7.88,0,0,1-2.122-.485,6.83,6.83,0,0,1,1.056-.8c.471-.359.685-.694,1.29-.61.2,1.714.409-3.108.424-3.233.152-1.27.354-2.615.441-3.883a7.257,7.257,0,0,1-.906.7,9.863,9.863,0,0,1-3.557.9,17.757,17.757,0,0,1-2.864.089,13.238,13.238,0,0,1-1.365-.169c-.911-.164-1-.327-1.111-.222a.836.836,0,0,0-.082.1Z" transform="translate(-456.449 -327.31)" fill="#f29600" fill-rule="evenodd"/>
      <path id="路径_7" data-name="路径 7" d="M530.188,359.47a13.753,13.753,0,0,1-3.569-.991,4.121,4.121,0,0,0-2.866-.5c-2.141.521-2.535,3.116-1.509,4.64,1.92,2.847,8.836.294,9.969-1.81.745-1.377-1.342-1.086-2.025-1.34Z" transform="translate(-483.527 -332.833)" fill="#f29600" fill-rule="evenodd"/>
      <path id="路径_8" data-name="路径 8" d="M514.573,353.423a4.486,4.486,0,0,1-.867-.565l.754-.688a3.947,3.947,0,0,0-.451-1.855,1.344,1.344,0,0,1,.8.764c.227.418.775.76.817.2.037-.5-.986-1.519-1.454-1.758-1.719-.879-3.278.538-3.7,2.189-.844,3.322,1.825,6.488,3.527,4.316a4.318,4.318,0,0,0,.565-2.6Z" transform="translate(-478.534 -329.046)" fill="#0b308e" fill-rule="evenodd"/>
      <path id="路径_9" data-name="路径 9" d="M512,370c-.036.414-.168.309-.166.82-.364.127-.656.024-.892.179.031.015.642.263.672.277a19.489,19.489,0,0,0,3.8,1.714,11.766,11.766,0,0,0,9.369-.83,8.187,8.187,0,0,0,2.891-2.744c.227-.618-.526-1.474-1.305-.411a7.012,7.012,0,0,1-1.387,1.422c-2.6,1.995-5.972,2.114-9.03,1.32A14.684,14.684,0,0,1,512,370Z" transform="translate(-478.808 -337.492)" fill="#0b308e" fill-rule="evenodd"/>
      <path id="路径_10" data-name="路径 10" d="M530.323,355.024a13.754,13.754,0,0,0,3.569.991,5.21,5.21,0,0,0,.259-2.037l-.822-.518a1.85,1.85,0,0,1,.743-.67,3.711,3.711,0,0,0-.449-1.786c.846.222.849,1.571,1.459,1.028.339-.359-.825-1.549-1.21-1.753-1.863-.981-4.426.655-3.549,4.744Z" transform="translate(-487.232 -329.377)" fill="#0b308e" fill-rule="evenodd"/>
      <path id="路径_11" data-name="路径 11" d="M468.923,388.4c-2.209.511-.58,5.407.8,6.156-.03-.675-.657-5.835-.8-6.156Z" transform="translate(-459.898 -346.224)" fill="#fff" fill-rule="evenodd"/>
      <path id="路径_12" data-name="路径 12" d="M467.814,371.046c-.02,2.633,5.28,1.953,4.488-.388-.2-.236-.912.351-2.092.508a16.93,16.93,0,0,1-2.4-.12Z" transform="translate(-459.887 -338.414)" fill="#f9bf2c" fill-rule="evenodd"/>
      <path id="路径_13" data-name="路径 13" d="M469.236,376.757c-.231,2.209,4.687,1.759,3.691-.373-.266-.028-1.245.364-1.729.418-.6.07-1.633-.12-1.962-.045Z" transform="translate(-460.507 -340.95)" fill="#f9bf2c" fill-rule="evenodd"/>
      <g id="组_2" data-name="组 2" transform="translate(11.548 27.144)">
        <g id="组_1" data-name="组 1" transform="translate(8.833 10.855)">
          <path id="路径_14" data-name="路径 14" d="M553.1,436.681a25.039,25.039,0,0,0,8.4-2.7c1.614-1.125,1.278-2.269.889-3.967a38.411,38.411,0,0,0-1.148-4.388,6.522,6.522,0,0,1-2.491.767c-.172.436-.284,1.121-.421,1.612a19.363,19.363,0,0,1-1.733,4.236,18.755,18.755,0,0,1-3.492,4.446Z" transform="translate(-517.684 -400.55)" fill="#e40055" fill-rule="evenodd"/>
          <path id="路径_15" data-name="路径 15" d="M533.386,385.513a12.122,12.122,0,0,0,5.549,1.714,35.3,35.3,0,0,0,6.759-.359c0-.321-.782-1.056-1.048-1.317-.825-.8-.628-.54-.747-1.711a3.886,3.886,0,0,0-2.117-2.809c-.164.077-1.44,1.166-1.825,1.43a21.84,21.84,0,0,1-2.01,1.23,17.835,17.835,0,0,1-2.227,1.031c-.4.152-2.2.7-2.333.791Z" transform="translate(-509.034 -380.988)" fill="#e40055" fill-rule="evenodd"/>
          <path id="路径_16" data-name="路径 16" d="M490,385.3c.513.2,2.613.523,3.337.677,1.1.237,2.256.486,3.37.672a10.383,10.383,0,0,0,3.74-.01,11.732,11.732,0,0,0,2.889-1.084,17.551,17.551,0,0,0-2.456-.874,18.965,18.965,0,0,1-2.234-1.028,24.543,24.543,0,0,1-3.925-2.7,4.241,4.241,0,0,0-2.343,2.266c-.346.822-.386.74-1.156,1.133-.374.189-1.093.608-1.223.949Z" transform="translate(-490.002 -380.955)" fill="#e40055" fill-rule="evenodd"/>
        </g>
        <path id="路径_17" data-name="路径 17" d="M508.4,368.026c.06-.014.191-.056.191-.056s-.2-.525-.371-.991c-.981-2.179-.869-3.481-1.475-4.333-1.96-2.754-6.589.513-3.233,3.937,1.152,1.175,3,1.332,3.842,1.5A3.857,3.857,0,0,0,508.4,368.026Z" transform="translate(-486.577 -361.615)" fill="#e40055" fill-rule="evenodd"/>
        <path id="路径_18" data-name="路径 18" d="M488.664,440.249a20.429,20.429,0,0,1-3.056-3.42,32.513,32.513,0,0,1-2.386-4.1l.794,6.737a32.26,32.26,0,0,0,4.647.779Z" transform="translate(-478.195 -392.814)" fill="#e40055" fill-rule="evenodd"/>
        <path id="路径_19" data-name="路径 19" d="M474.927,432.724a17.78,17.78,0,0,0-.643,3.054,1.971,1.971,0,0,0,1.357,2.283Z" transform="translate(-474.265 -392.81)" fill="#e40055" fill-rule="evenodd"/>
      </g>
      <path id="路径_20" data-name="路径 20" d="M470.573,380.932l3.584-.159,3.875,40.116-.369.976-1.554-.132-.687-1.529s-4.8-39.247-4.849-39.272Z" transform="translate(-461.097 -342.876)" fill="#f9bf2c" fill-rule="evenodd"/>
      <path id="路径_21" data-name="路径 21" d="M465.9,380.315l.715,5.337a1.971,1.971,0,0,1-1.357-2.283,17.771,17.771,0,0,1,.643-3.053Zm43.59,7.073a18.757,18.757,0,0,0,3.492-4.446,19.364,19.364,0,0,0,1.733-4.236c.137-.49.249-1.175.421-1.611a6.521,6.521,0,0,0,2.491-.767,38.379,38.379,0,0,1,1.148,4.388c.388,1.7.725,2.842-.889,3.967a25.04,25.04,0,0,1-8.4,2.7Zm-39.224-7.068a32.494,32.494,0,0,0,2.386,4.1,20.428,20.428,0,0,0,3.056,3.419,32.242,32.242,0,0,1-4.647-.779Zm-7.551-24.882c.147.322.775,5.482.8,6.156-1.385-.749-3.013-5.646-.8-6.156Zm4.919,1.383a15.24,15.24,0,0,0,5.818.655c.844-.107,4.639.831,5.76,1.051,4,.777,7.491.622,10.564-2.259,1.009-.025,2.164.174,3.25.164,1.123-.01,2.092-.164,3.163-.224a7.548,7.548,0,0,0,3.357,2.2c6.149,2.261,11-.177,12.2.889a19.4,19.4,0,0,1,5.845,8.037c.755,2.279,1.238,7.556-2.185,7.895a24.1,24.1,0,0,0-.062-4.849,7.127,7.127,0,0,0-1.086-3.128c-.573-.622-.939-.2-.979.5a10.626,10.626,0,0,0,.224,1.726,22.522,22.522,0,0,1-.5,8.572c-2.722,10.388-13.668,14.594-23.61,13.384-6.435-.785-12.432-3.367-15.931-9.05a18.051,18.051,0,0,1-1.983-15.2,19,19,0,0,1,.839-2.331,5.517,5.517,0,0,0,.633-1.764c.035-.478-.129-.687-.58-.48-.79.356-1.2,1.614-1.746,2.236-.406,0-2.025-.2-2.159-.565Zm30.789-1.039c.132-.094,1.938-.64,2.333-.792a17.828,17.828,0,0,0,2.227-1.031,21.809,21.809,0,0,0,2.01-1.23c.386-.264,1.661-1.352,1.825-1.43a3.886,3.886,0,0,1,2.117,2.809c.12,1.17-.077.912.747,1.711.267.262,1.046,1,1.049,1.317a35.286,35.286,0,0,1-6.759.359,12.122,12.122,0,0,1-5.549-1.714Zm-24.352-.176c.13-.341.849-.76,1.223-.949.77-.393.809-.312,1.156-1.133a4.242,4.242,0,0,1,2.343-2.266,24.541,24.541,0,0,0,3.925,2.7,18.989,18.989,0,0,0,2.234,1.028,17.54,17.54,0,0,1,2.456.874,11.734,11.734,0,0,1-2.889,1.084,10.378,10.378,0,0,1-3.74.01c-1.113-.187-2.272-.436-3.37-.672-.725-.154-2.824-.481-3.337-.677Zm-10.138-3.6,1.6-.119c1.485,13.007,3.024,26.252,4.51,39.257-.01.491-.994.62-1.2.174Zm-1.514-2.944c.329-.075,1.36.115,1.962.045.483-.054,1.462-.446,1.729-.418,1,2.132-3.922,2.583-3.691.373Zm-.8-3.175a16.92,16.92,0,0,0,2.4.12c1.18-.157,1.89-.744,2.092-.508.792,2.341-4.508,3.021-4.488.388Zm14.054-4.6c-.378-4.388,1.479-7.9,4.672-10.751a17.467,17.467,0,0,1,4.948-2.78c1.589-.622,1.726-.373,3.322-.159a26.187,26.187,0,0,0,7.382.047c1.213-.172,1.945-.685,3.123-.271a19.2,19.2,0,0,1,5.24,2.583,12.892,12.892,0,0,1,5.626,9.919c.3,8.906-8.353,14.4-16.427,14.621-7.934.214-17.134-4.47-17.886-13.21ZM465.71,342.7c-.077,1.718-1.84,1.8-3.22,1.606-.694-.1-.846-.059-1.018-.725-.436-1.275-1-2.659-1.472-3.954-.951-2.356-1.766-4.745-2.7-7.125-.092-.362-.207-.389-.212-.777,1.464-.124,3.636.815,7.914-.3.655-.172,1.532-.588,2.125-.675l-.025.339c-.083,1.156-1.427,11.583-1.388,11.613ZM458,325.909c-.379-.682-1.91-.749-1.494-2.612a5.529,5.529,0,0,1,1.681-2.356c.483-.538.271-.986.149-1.606-.314-1.584.085-3.534,1.833-4.062.563.914.282,1.056,1.433,1.738a9.389,9.389,0,0,1,2.03,1.133c2.114,1.873-.379,3.534-.095,4.4.623.214,1-.127,1.552-.164a2.488,2.488,0,0,1,1.158,1.866c-.012,1.16-1,1.746-.8,2.109.533.416,1.017.112,1.574-.025,3.15,3.609-7.108,4.585-10.353,3.519a1.884,1.884,0,0,1-1.248-1.4,3.211,3.211,0,0,1,.538-2c.692-.015,1.783.394,2.04-.535Zm42.465-6.712c-.362.79-.809.62-1.462.812-.08.085-1.591,3.967-1.668,4.329a6.411,6.411,0,0,0-.01,1.133,24.213,24.213,0,0,1-10.039.033c-.03-1.432-.147-1.257-.693-2.921-.289-.877-.637-1.92-.876-2.814-2.289-.219-1.7-2.025-.939-2.463.827-.478,2.635.135,1.643,2.017.269.6,1.977,2.916,3.18,2.752,1.031-.142,2.246-2.58,2.274-3.544-1.382-.909-.854-2.508.454-2.54a1.318,1.318,0,0,1,1.3.974c.2.877-.242,1.076-.693,1.567.117,1.183,1,3.295,2.187,3.7.849.289,2.709-1.917,3.118-2.642-.152-.645-.608-1.019.035-1.778a1.317,1.317,0,0,1,2.189,1.392Zm-34.47,1.706a3.532,3.532,0,0,0-.518-3.2c-1.22-1.84-3.173-1.92-3.506-2.567-.274-.535.414-1.084-.172-1.661-.891-.879-6.141.879-5.145,6.032.132.685-.167.665-.615,1.218a4.829,4.829,0,0,0-1.265,2.812c-.062,1.407.4,1.049-.027,1.691-.894,1.342-1.5,3.03-.635,4.543.563.981.279.368.481,1.464.252,1.375.64.58,1.4,2.633.357.956.712,1.92,1.074,2.874l2.737,7.295c.286.777.4.683.209,1.492a2.668,2.668,0,0,0,1.111,2.789,2.235,2.235,0,0,0-.172,1.5,2.423,2.423,0,0,0,.922,1.37,1.17,1.17,0,0,1,.468.869,12.255,12.255,0,0,1,.167,1.519c-.929.5-2.383.705-2.69,3.258a7.47,7.47,0,0,0,1.288,4.692,8.614,8.614,0,0,0,2.341,2.416,1.141,1.141,0,0,1,.491.715l1.335,10.634c.045,1.252-2.585,7.486-1.631,9.879a3.869,3.869,0,0,0,1.352,1.636c2.343,1.646,1.694-.425,2.349,4.135.144,1.016.319,1.711,1.467,1.992a2.1,2.1,0,0,0,2.416-.9c.459-.772.052-2.122.057-3.063,2.095.306,4.125.655,6.236.894a5.581,5.581,0,0,1,2.692.792,29.583,29.583,0,0,0,14.726,2.672,25.444,25.444,0,0,0,10.8-3.217c1.088-.62,7.262-1.293,11.1-2.869,5.133-2.1,4.375-4.411,3.215-9.018-.227-.9-.454-1.9-.73-2.785-.361-1.143.217-1.491.46-2.659a11.389,11.389,0,0,0-.468-6.035,17.218,17.218,0,0,0-2.451-4.58,41.825,41.825,0,0,0-3.278-3.661c-.4-.561-.654-1.547-1.193-2.319-.311-.448-1.487-1.671-1.579-1.94a6.1,6.1,0,0,0-.914-2.6A4.951,4.951,0,0,0,508.122,350c.376-.854,2.57-2.7,3.4-6.926a14.525,14.525,0,0,0-5.564-14.287,22.928,22.928,0,0,0-3.133-1.97,31.938,31.938,0,0,0-3.638-1.444,2.656,2.656,0,0,1-.01-.824,11.32,11.32,0,0,1,1.25-3.272c.117-.164.309-.154.4-.214a2.918,2.918,0,1,0-4.438-2.961,2.549,2.549,0,0,0,.082,1.1l-1.063,1.133-.653-1.544a3.215,3.215,0,0,0,.481-1.1,2.917,2.917,0,1,0-5.768-.874c-.012.125-.025.264-.035.413a2.03,2.03,0,0,0,.52,1.641l-.64,1.246-1.021-1.173a2.822,2.822,0,0,0-.625-2.4l.005-.017a2.818,2.818,0,0,0-.605-.56,2.921,2.921,0,0,0-4.426,3.275c.339,1.034.725.984,1.435,1.609a.666.666,0,0,1,.1.167,23.373,23.373,0,0,1,1.225,3.556,1.712,1.712,0,0,1-.01,1.009c-.231.433-7.481,1.94-10.552,9.214a14.1,14.1,0,0,0,1.514,13.58c.316.459.8,1.006,1.056,1.432-.2.269-1.243.942-1.631,1.388-.284.326-1.1,1.666-1.173,1.723a10.733,10.733,0,0,0-1.7,1.2,4.325,4.325,0,0,0-1.2,1.7c-.852-.017-3.748-.538-4.316-1.076l-.386-3.815a2.353,2.353,0,0,0,.775-1.564c.045-.775-.277-1.059-.58-1.661a2.559,2.559,0,0,0,.4-2.707c-.331-.8-.4-.379-.281-1.412.054-.481.122-.964.177-1.444.234-2.055.5-4.154.687-6.211.045-.491.438-4.211.575-4.583.773-2.092-.012-1.713.369-2.881.67-2.052-1.168-3.5-1.235-3.691a3.389,3.389,0,0,0-.5-2.4,8.918,8.918,0,0,0-1.4-1.467Z" transform="translate(-453.691 -313.258)" fill="#231815" fill-rule="evenodd"/>
    </g>
  </g>
</svg>
