<svg version="1.1" xmlns="http://www.w3.org/2000/svg" xmlns:xlink="http://www.w3.org/1999/xlink" width="48.32662" height="278.97562" viewBox="0,0,48.32662,278.97562"><g transform="translate(-218.58873,207.01368)"><g data-paper-data="{&quot;isPaintingLayer&quot;:true}" stroke-linejoin="miter" stroke-miterlimit="10" stroke-dasharray="" stroke-dashoffset="0" style="mix-blend-mode: normal"><path d="M255.37884,-94.76697c0.32859,3.28318 -3.84097,6.38866 -9.31296,6.93629c-5.47199,0.54763 -10.17426,-1.66999 -10.50282,-4.9532c-0.32859,-3.28318 3.84097,-6.38866 9.31292,-6.93629c5.47199,-0.54763 10.17426,1.67002 10.50282,4.9532z" fill="#f9bf2c" fill-rule="nonzero" stroke="#000000" stroke-width="1.5" stroke-linecap="butt"/><path d="M255.16083,-103.11138c0.43075,3.75618 -3.75984,7.32173 -9.35991,7.96393c-5.60006,0.6422 -10.48904,-1.88216 -10.91979,-5.63834c-0.43075,-3.75618 3.75984,-7.32173 9.35991,-7.96393c5.60006,-0.6422 10.48904,1.88216 10.91979,5.63834z" fill="#f9bf2c" fill-rule="nonzero" stroke="#000000" stroke-width="1.5" stroke-linecap="butt"/><path d="M224.97527,-151.34006l36.55726,0.62208l-8.42321,44.22716c0,0 -5.25735,2.00374 -7.86675,2.18413c-2.78666,0.19269 -8.35636,-1.06254 -8.35636,-1.06254z" fill="#f9bf2c" fill-rule="evenodd" stroke="#000000" stroke-width="1" stroke-linecap="butt"/><path d="M236.80893,-118.55649c0.92336,0.63223 6.62243,3.96902 7.42865,4.21276c1.09877,0.32944 6.36403,-2.96614 6.90051,-3.91475c-0.73187,-0.42018 -6.21726,-2.18685 -7.41904,-2.56434c-1.93166,-0.59159 -6.63719,1.93825 -6.91479,2.28172zM255.42614,-139.36011c-0.08472,-0.00829 2.008,0.78282 2.008,0.78282l0.62123,-3.10737l-2.64241,2.32959zM249.20292,-142.94151c-0.64447,0.1428 2.93618,2.07765 2.93618,2.07765l3.43353,-2.70831c-2.11574,0.32061 -4.24627,0.5349 -6.38346,0.64194zM235.22221,-128.55557c0.49337,1.01146 2.10603,1.62568 3.18106,2.16503c1.25614,0.64349 2.55753,1.1945 3.89379,1.64873c2.43474,-0.72998 4.71388,-1.90297 6.72292,-3.46007c-2.23477,-1.18296 -4.54245,-2.22276 -6.90905,-3.11317c-0.53647,0.01082 -5.61252,2.37761 -6.88997,2.77206zM245.92693,-133.23823c1.97095,1.31605 4.18734,2.22068 6.51627,2.65966c1.6004,-1.10416 4.02206,-2.89459 4.22124,-4.92807c-0.94029,-0.45963 -2.25539,-0.87679 -3.21669,-1.31627c-1.43391,-0.66004 -1.33888,-0.36879 -2.65209,0.48791c-1.67531,0.94906 -3.30138,1.98252 -4.87188,3.09649zM237.0375,-138.83918c1.44974,1.68134 3.308,2.96106 5.39581,3.71579c2.35406,-0.93471 4.5281,-2.27072 6.42543,-3.94862c-0.56119,-0.41615 -5.4181,-3.26178 -5.97951,-3.48148c-1.00414,0.54792 -1.77464,1.36275 -2.82352,1.97915c-1.04066,0.51645 -2.04946,1.09473 -3.02103,1.73169zM237.36895,-142.96658l-6.16514,-0.77819c0.65024,1.14606 1.60333,2.09109 2.75491,2.73155c1.31217,-0.28079 2.50418,-0.96359 3.41026,-1.95339zM228.18389,-147.52249c0.08844,-0.10349 0.18471,-0.2 0.28807,-0.28857c0.38061,-0.29538 0.60981,0.24348 3.41817,1.0382c1.39308,0.38976 2.80555,0.70687 4.23155,0.94997c2.98386,0.44292 5.99862,0.64393 9.01489,0.60111c3.88764,0.14362 7.76774,-0.44349 11.43888,-1.73081c1.06837,-0.55785 2.09096,-1.19923 3.0583,-1.91814c-0.66282,3.95237 -1.71019,8.11102 -2.57758,12.04964c-0.08548,0.38764 -2.22367,15.45533 -2.32442,10.01512c-1.87273,-0.44957 -2.64726,0.53587 -4.23565,1.51766c-1.25463,0.61155 -2.44682,1.34361 -3.55974,2.18584c2.05892,1.02246 4.2498,1.75417 6.50993,2.17433c2.81684,-8.99427 -1.28786,7.48705 -1.72993,7.95699l0.10418,-1.71013c-1.05648,0.72657 -2.63058,1.33591 -3.31453,2.43165l2.61709,0.83933l0.73379,-1.44252c-0.46199,3.19581 -0.98781,3.97123 -4.3945,4.27115c0.09686,-0.06158 0.19016,-0.12862 0.27946,-0.20073c0.06048,-0.03525 0.22579,-0.04124 0.28886,-0.19981c0.06306,-0.15857 0.17534,-0.17292 0.28192,-0.22586c-1.94226,-1.74954 -4.91808,-1.65832 -6.74953,0.20691l4.22332,0.45172c-1.55654,0.34151 -3.17683,0.25074 -4.68541,-0.26256c-2.17877,-0.52711 -2.67659,-0.45862 -3.01817,-2.59896c1.04324,0.11632 2.08885,-0.19773 2.89541,-0.8696c-0.47423,-0.85115 -2.13999,-1.50542 -3.13275,-2.01141c-0.36964,0.2806 -0.12862,-0.14249 -0.31254,0.60303c-1.02669,-2.67684 -1.79832,-5.44471 -2.30452,-8.26669c1.10082,0.14883 2.21324,-0.17494 3.06225,-0.89126l-2.73621,-1.56385c-1.23331,-0.44399 -0.3978,-0.3051 -0.94414,0.12928l-2.03606,-6.77031c2.14204,-0.45395 4.19986,-1.24009 6.09895,-2.32997c-1.53989,-1.45939 -3.24932,-2.7288 -5.09162,-3.78103l-1.86788,0.69779l-0.13883,0.7056c-1.41868,-3.82413 -2.55387,-7.7475 -3.39648,-11.7383z" fill="#f29600" fill-rule="evenodd" stroke="none" stroke-width="1" stroke-linecap="butt"/><path d="M223.37156,-152.37c-6.33484,-0.13227 -5.93676,-15.69241 -1.38107,-19.01715c0.23948,-0.54306 0.50623,-1.02502 0.80206,-1.42704c-0.59789,-2.94917 0.09462,-7.45612 1.81557,-7.38353c0.15264,-0.07911 0.31452,-0.14192 0.48325,-0.18641c1.05831,-2.72808 2.97717,-5.27605 5.42743,-7.16354c-2.88403,-5.95741 5.40287,-19.23778 11.06552,-18.99896c0.39181,-0.20306 0.84491,-0.29888 1.31684,-0.25266c0.28362,0.02778 0.55063,0.10462 0.79342,0.22119c2.47882,-0.62388 4.86747,-0.62438 5.28434,0.30528l0.31465,0.19786c0.75911,0.45537 1.23019,1.32027 1.13818,2.25981c-0.06789,0.6929 -0.42832,1.28654 -0.94704,1.67055c0.49454,0.69413 1.02237,1.43874 1.56562,2.20974c3.687,1.32264 7.66403,5.56046 8.41656,9.48963c0.12452,0.12877 0.23428,0.27136 0.32698,0.42495c1.41638,1.54159 0.88218,5.99427 -0.47678,8.41687c-0.03282,0.05852 -0.07164,0.11966 -0.116,0.18316c3.39941,1.73794 5.898,7.99795 4.46844,13.0069c2.52341,2.03089 4.09376,10.06094 2.75888,12.55282c-5.09799,9.51693 -32.77642,11.26121 -42.79397,3.49098c-0.08466,0.00158 -0.17229,0.00145 -0.26288,-0.00047zM229.67954,-174.21499c1.73702,4.49121 2.67269,5.57003 -3.06277,1.73311c-0.56895,-0.38058 1.25122,4.54685 0.79128,4.11942c-1.48156,4.66545 -6.2527,9.18541 3.98564,13.66849c5.39092,2.36055 27.03522,4.09883 30.7558,-3.20215c0.9553,-1.87462 -0.26701,-4.26245 -1.14537,-6.27773c-2.16395,2.02512 -6.57337,5.6502 -7.0738,0.64976c-0.40442,-4.04104 7.05236,-4.85063 5.55725,-10.50726c-0.45827,-1.7339 -3.34811,-2.85988 -4.4745,-3.80253c-1.28622,1.7111 -2.77777,2.56462 -4.24927,1.34827c-1.14824,0.05562 -1.76852,-0.56305 -1.23082,-2.3322c0.24254,-0.79799 0.75542,-1.3403 1.38305,-1.78955c1.52636,-2.8829 4.10996,-6.71617 2.41245,-9.72876c-1.62874,-2.89053 -6.62508,-3.97961 -8.79928,-6.90987c-0.29412,-0.39641 -0.72493,-1.65501 -1.0171,-3.10541c-1.52479,0.51721 -3.1295,1.01896 -4.53794,1.81065c-0.41013,0.31774 -0.81032,0.64566 -1.18538,0.9886c-0.03812,0.0635 -0.07911,0.12499 -0.12272,0.18427c0.58266,5.77254 -2.7831,15.85293 -6.3722,20.33837c0.03822,0.16667 0.05616,0.32947 0.05597,0.48779c-0.0875,-0.13312 -0.23459,-0.25096 -0.47789,-0.31036c-0.76577,-0.18704 -0.95278,0.57872 -0.95278,0.57872c-0.1119,0.59222 -0.06073,1.24911 0.16053,1.8196c-0.12814,0.08699 -0.26209,0.16677 -0.40007,0.23872z" fill="#000000" fill-rule="nonzero" stroke="none" stroke-width="0.5" stroke-linecap="butt"/><path d="M229.92308,-174.4348c-0.22129,-0.57049 -0.27356,-1.24608 -0.16169,-1.83833c0,0 0.18714,-0.77207 0.95294,-0.58503c0.24329,0.0594 0.39029,0.18052 0.47779,0.31367c0.00019,-0.15832 -0.01756,-0.32663 -0.05578,-0.49324c3.5891,-4.48541 7.05857,-14.70577 6.47587,-20.47831c0.04367,-0.05928 0.0858,-0.12121 0.12395,-0.18471c0.37513,-0.34293 0.78469,-0.67385 1.19481,-0.99159c1.4084,-0.79169 3.04456,-1.29902 4.56934,-1.81626c0.29217,1.45043 0.72884,2.70869 1.023,3.10513c2.1742,2.93026 7.2546,4.04 8.88334,6.93052c1.69751,3.01255 -0.8393,6.88663 -2.36566,9.76953c-0.6276,0.44926 -1.13014,1.00685 -1.37265,1.80485c-0.53767,1.76915 0.10484,2.46315 1.25305,2.40756c1.4715,1.21632 2.96116,0.34363 4.24738,-1.36744c1.12639,0.94266 4.01619,2.1182 4.4745,3.8521c1.49508,5.65663 -6.02917,6.57201 -5.62472,10.61305c0.50043,5.0004 4.69685,1.1483 6.86081,-0.87682c0.87833,2.01528 2.33189,4.61579 1.37659,6.49041c-3.72059,7.30098 -25.55669,5.57891 -30.94761,3.21836c-10.2383,-4.48304 -5.52594,-9.07168 -4.04438,-13.73713c0.45995,0.42744 1.25488,0.69249 1.82383,1.0731c5.73549,3.8369 2.17259,-2.4775 0.43557,-6.96871c0.13795,-0.07195 0.2717,-0.15359 0.39985,-0.24058z" data-paper-data="{&quot;noHover&quot;:false,&quot;origItem&quot;:[&quot;Path&quot;,{&quot;applyMatrix&quot;:true,&quot;segments&quot;:[[[233.52155,139.16775],[0.04357,-0.02316],[0.56192,1.42005]],[[233.3076,141.41058],[1.82837,1.20271],[-0.18137,-0.1193]],[[232.81557,141.0294],[0.14692,0.13442],[-0.45838,1.48323]],[[234.11318,145.35437],[-3.25797,-1.39655],[1.71547,0.73535]],[[243.8591,144.26319],[-1.16197,2.32456],[0.29835,-0.59686]],[[243.48042,142.27511],[0.28351,0.63696],[-0.68129,0.64756]],[[241.23866,142.49858],[0.17101,1.58458],[-0.1382,-1.28057]],[[242.97522,139.15267],[0.48806,1.79025],[-0.1496,-0.54876]],[[241.54684,137.95775],[0.35954,0.29618],[-0.4037,0.54582]],[[240.20256,138.39579],[0.46966,0.38212],[-0.36401,0.02046]],[[239.80648,137.65919],[-0.16616,0.56239],[0.07495,-0.25367]],[[240.24069,137.08825],[-0.19793,0.14402],[0.47697,-0.91803]],[[240.98183,133.99698],[0.54576,0.95122],[-0.52365,-0.91269]],[[238.17425,131.82725],[0.69673,0.92394],[-0.09425,-0.12499]],[[237.84405,130.84491],[0.09623,0.45927],[-0.48229,0.16778]],[[236.40936,131.4303],[0.44471,-0.25454],[-0.12928,0.10178]],[[236.03585,131.74674],[0.11812,-0.10968],[-0.01193,0.02023]],[[235.99738,131.80548],[0.0137,-0.01891],[0.19899,1.82925]],[[234.02656,138.2712],[1.1272,-1.43132],[0.01253,0.05276]],[[234.04551,138.42576],[-0.00033,-0.05021],[-0.02808,-0.042]],[[233.89319,138.32851],[0.0773,0.01824],[-0.24331,-0.05743]],[[233.59244,138.51439],[0,0],[-0.03403,0.18809]],[[233.64784,139.09107],[-0.07158,-0.18038],[-0.04042,0.0279]]],&quot;closed&quot;:true}]}" fill="#ffffff" fill-rule="nonzero" stroke="none" stroke-width="0.5" stroke-linecap="butt"/><g><path d="M240.00833,-93.65357l11.2958,0.76425l-0.172,161.11207l-1.458,3.73919l-4.83603,-1.13083l-1.68585,-6.35092c0,0 -2.99786,-158.01523 -3.14395,-158.13382z" fill="#f9bf2c" fill-rule="evenodd" stroke="none" stroke-width="1" stroke-linecap="butt"/><path d="M253.19972,-93.48235l-2.502,155.39133l-2.95785,9.146l-4.48377,-0.23973l-3.10443,-5.14226c0,0 0.01539,-1.05882 0.03059,-2.10206c0.04424,-3.03926 0.25966,-17.84 0.25966,-17.84l-0.59134,-138.01721" fill="none" fill-rule="nonzero" stroke="#000000" stroke-width="1.5" stroke-linecap="round"/></g></g></g></svg>