<svg version="1.1" xmlns="http://www.w3.org/2000/svg" xmlns:xlink="http://www.w3.org/1999/xlink" width="74.06181" height="43.05971" viewBox="0,0,74.06181,43.05971"><g transform="translate(-200.95021,-182.0238)"><g data-paper-data="{&quot;isPaintingLayer&quot;:true}" fill-rule="nonzero" stroke-width="0.5" stroke-linejoin="miter" stroke-miterlimit="10" stroke-dasharray="" stroke-dashoffset="0" style="mix-blend-mode: normal"><path d="M200.95021,205.65085v0z" fill="#fafafa" stroke="#009e9e" stroke-linecap="butt"/><path d="M264.53161,203.23722c0,11.57778 -10.15533,20.96342 -22.68256,20.96342c-12.52723,0 -22.68256,-9.38564 -22.68256,-20.96342c0,-11.57778 10.15533,-20.96342 22.68256,-20.96342c12.52723,0 22.68256,9.38564 22.68256,20.96342z" fill="#fafafa" stroke="#000000" stroke-linecap="butt"/><path d="M235.20189,183.23319c0,0 0.06517,6.61131 -1.61784,7.62998c-1.78324,1.07933 -8.79832,-1.32546 -8.79832,-1.32546c0,0 3.27144,-3.06269 5.08164,-4.15834c1.64628,-0.99643 5.33452,-2.14618 5.33452,-2.14618z" fill="#ff0000" stroke="#000000" stroke-linecap="round"/><path d="M259.32386,189.94888c0,0 -7.01508,2.4048 -8.79831,1.32546c-1.68302,-1.01867 -1.61785,-7.62998 -1.61785,-7.62998c0,0 4.40122,1.24138 6.04879,2.23858c1.80932,1.09512 4.36738,4.06594 4.36738,4.06594z" data-paper-data="{&quot;index&quot;:null}" fill="#ff0000" stroke="#000000" stroke-linecap="round"/><path d="M233.32727,222.80117c0,0 -7.22594,1.94166 -11.01286,1.85843c-4.13568,-0.09089 -12.84725,-2.38283 -12.84725,-2.38283c0,0 5.95356,-3.21293 7.67022,-6.98958c1.54206,-3.39254 2.16224,-14.64184 2.16224,-14.64184c0,0 -0.34093,10.53697 3.53994,14.02566c1.18229,1.06282 2.48502,3.16133 4.21386,4.49131c2.93922,2.26112 6.27385,3.63887 6.27385,3.63887z" fill="#ff0000" stroke="#000000" stroke-linecap="round"/><path d="M256.74985,219.33622c1.72884,-1.32998 3.03157,-3.42848 4.21386,-4.4913c3.88088,-3.48869 3.53993,-14.02565 3.53993,-14.02565c0,0 0.62019,11.24929 2.16225,14.64184c1.71666,3.77666 7.67022,6.98957 7.67022,6.98957c0,0 -8.71156,2.29194 -12.84725,2.38283c-3.78693,0.08323 -11.01286,-1.85843 -11.01286,-1.85843c0,0 3.33463,-1.37774 6.27385,-3.63886z" data-paper-data="{&quot;index&quot;:null}" fill="#ff0000" stroke="#000000" stroke-linecap="round"/></g></g></svg>