<svg version="1.1" xmlns="http://www.w3.org/2000/svg" xmlns:xlink="http://www.w3.org/1999/xlink" width="96.04677" height="52.77477" viewBox="0,0,96.04677,52.77477"><g transform="translate(-186.75648,-180.77342)"><g data-paper-data="{&quot;isPaintingLayer&quot;:true}" fill-rule="nonzero" stroke-width="0.5" stroke-linejoin="miter" stroke-miterlimit="10" stroke-dasharray="" stroke-dashoffset="0" style="mix-blend-mode: normal"><path d="M270.08477,206.77213c0,14.22062 -12.47347,25.74871 -27.86027,25.74871c-15.3868,0 -27.86027,-11.52808 -27.86027,-25.74871c0,-14.22062 12.47347,-25.74871 27.86027,-25.74871c15.3868,0 27.86027,11.52808 27.86027,25.74871z" fill="#fafafa" stroke="#000000" stroke-linecap="butt"/><path d="M186.75648,209.64122v0z" fill="#fafafa" stroke="#009e9e" stroke-linecap="butt"/><path d="M234.06001,182.20182c0,0 0.08005,8.12047 -1.98714,9.37166c-2.19029,1.32571 -10.8067,-1.62802 -10.8067,-1.62802c0,0 4.01821,-3.76181 6.24162,-5.10756c2.02207,-1.22389 6.55222,-2.63608 6.55222,-2.63608z" fill="#ff0000" stroke="#000000" stroke-linecap="round"/><path d="M263.68826,190.45048c0,0 -8.6164,2.95373 -10.80669,1.62802c-2.0672,-1.2512 -1.98715,-9.37166 -1.98715,-9.37166c0,0 5.40588,1.52474 7.42953,2.74957c2.22233,1.3451 5.36431,4.99407 5.36431,4.99407z" data-paper-data="{&quot;index&quot;:null}" fill="#ff0000" stroke="#000000" stroke-linecap="round"/><path d="M231.60116,230.80191c0,0 -8.8754,2.38488 -13.52675,2.28265c-5.07972,-0.11164 -15.77987,-2.92676 -15.77987,-2.92676c0,0 7.31257,-3.94633 9.42109,-8.58508c1.89407,-4.16695 2.65581,-17.98411 2.65581,-17.98411c0,0 -0.41875,12.94222 4.34799,17.22727c1.45217,1.30543 3.05227,3.88296 5.17575,5.51653c3.61015,2.77726 7.70597,4.46951 7.70597,4.46951z" fill="#ff0000" stroke="#000000" stroke-linecap="round"/><path d="M260.52669,226.54602c2.12348,-1.63357 3.72359,-4.2111 5.17575,-5.51652c4.76676,-4.28505 4.34798,-17.22726 4.34798,-17.22726c0,0 0.76176,13.81715 2.65583,17.98411c2.10852,4.63875 9.42109,8.58507 9.42109,8.58507c0,0 -10.70013,2.81512 -15.77987,2.92676c-4.65137,0.10223 -13.52675,-2.28265 -13.52675,-2.28265c0,0 4.09582,-1.69223 7.70597,-4.46949z" data-paper-data="{&quot;index&quot;:null}" fill="#ff0000" stroke="#000000" stroke-linecap="round"/></g></g></svg>