<svg version="1.1" xmlns="http://www.w3.org/2000/svg" xmlns:xlink="http://www.w3.org/1999/xlink" width="48.7902" height="57.97384" viewBox="0,0,48.7902,57.97384"><g transform="translate(-217.89946,-173.22708)"><g data-paper-data="{&quot;isPaintingLayer&quot;:true}" fill-rule="nonzero" stroke-linejoin="miter" stroke-miterlimit="10" stroke-dasharray="" stroke-dashoffset="0" style="mix-blend-mode: normal"><path d="M242.29456,216.39124c-13.1969,0 -23.8951,-9.55068 -23.8951,-21.33208c0,-11.78137 10.6982,-21.33208 23.8951,-21.33208c13.1969,0 23.8951,9.55068 23.8951,21.33208c0,11.7814 -10.6982,21.33208 -23.8951,21.33208z" data-paper-data="{&quot;index&quot;:null}" fill="#ffffff" stroke="#000000" stroke-width="1" stroke-linecap="butt"/><path d="M231.67579,203.83013c-1.95536,0 -3.54048,-0.49599 -3.54048,-1.10783c0,-0.61183 1.58514,-1.10783 3.54048,-1.10783c1.95533,0 3.54045,0.49599 3.54045,1.10783c0,0.61183 -1.58511,1.10783 -3.54045,1.10783z" data-paper-data="{&quot;index&quot;:null}" fill="#208bde" stroke="#000000" stroke-width="0.5" stroke-linecap="butt"/><path d="M251.12248,203.83587c-1.95533,0 -3.54045,-0.49599 -3.54045,-1.10783c0,-0.61183 1.58511,-1.10783 3.54045,-1.10783c1.95536,0 3.54048,0.49599 3.54048,1.10783c0,0.61183 -1.58514,1.10783 -3.54048,1.10783z" data-paper-data="{&quot;index&quot;:null}" fill="#208bde" stroke="#000000" stroke-width="0.5" stroke-linecap="butt"/><path d="M242.71292,197.36416c-1.35211,-1.94525 -2.60003,-4.2975 -2.60003,-5.68302c0,-1.38552 1.065,-2.50872 2.37875,-2.50872c1.31375,0 2.37875,1.1232 2.37875,2.50872c0,1.38552 -1.73495,6.29088 -2.15747,5.68302z" data-paper-data="{&quot;index&quot;:null}" fill="#ffd200" stroke="#000000" stroke-width="0.5" stroke-linecap="butt"/><path d="M229.04897,184.97415c0,0 4.26502,-5.10687 13.82477,-4.84641c9.86227,0.26872 12.39673,5.15359 12.39673,5.15359" data-paper-data="{&quot;index&quot;:null}" fill="none" stroke="#0090ff" stroke-width="1.5" stroke-linecap="round"/><path d="M225.50849,186.51012c0,-1.24415 3.0565,-2.45752 4.37025,-2.45752c1.31374,0 -0.2766,1.62295 -0.2766,2.86711c0,1.24415 -0.40114,1.84312 -1.71489,1.84312c-1.31375,0 -2.37875,-1.00856 -2.37875,-2.25272z" data-paper-data="{&quot;index&quot;:null}" fill="#ff0012" stroke="#000000" stroke-width="0.5" stroke-linecap="butt"/><path d="M224.95531,195.72584c-1.4665,0 -2.65534,-0.73354 -2.65534,-1.63836c0,-0.90485 1.18882,-1.63836 2.65534,-1.63836c1.4665,0 2.65534,0.73354 2.65534,1.63836c0,0.90485 -1.18882,1.63836 -2.65534,1.63836z" data-paper-data="{&quot;index&quot;:null}" fill="#ff7b84" stroke="#000000" stroke-width="0" stroke-linecap="butt"/><path d="M256.63167,195.11147c-1.60724,0 -2.91015,-0.71061 -2.91015,-1.58716c0,-0.87657 1.30291,-1.58716 2.91015,-1.58716c1.60724,0 2.91015,0.71061 2.91015,1.58716c0,0.87657 -1.30291,1.58716 -2.91015,1.58716z" data-paper-data="{&quot;index&quot;:null}" fill="#ff7b84" stroke="#000000" stroke-width="0" stroke-linecap="butt"/><path d="M251.0983,226.60507l-4.42558,-6.2462l-1.65958,0.51198l-0.55319,9.83007h-5.42133l-1.32768,-10.13728l-1.4383,0.61438l-3.98301,5.63182l-2.32343,-2.55992c0,0 3.2096,-9.31809 5.6426,-9.31809c2.35462,0 7.50511,0 11.83841,0c3.86563,0 6.19581,9.6253 6.19581,9.6253z" data-paper-data="{&quot;index&quot;:null}" fill="#ffffff" stroke="#000000" stroke-width="1" stroke-linecap="round"/></g></g></svg>