<svg version="1.1" xmlns="http://www.w3.org/2000/svg" xmlns:xlink="http://www.w3.org/1999/xlink" width="24.7071" height="13.17985" viewBox="0,0,24.7071,13.17985"><g transform="translate(-237.46042,-177.49288)"><g data-paper-data="{&quot;isPaintingLayer&quot;:true}" fill="#fafafa" fill-rule="nonzero" stroke-miterlimit="10" stroke-dasharray="" stroke-dashoffset="0" style="mix-blend-mode: normal"><path d="M243.33546,180.10117c1.33688,1.29154 3.77953,3.34496 5.27173,4.50274c0.9864,-0.0343 2.38621,2.21703 2.2539,2.66148c-0.62927,1.69511 1.43464,2.54593 1.18924,2.69191c-4.1539,0.75413 -9.99325,-3.37745 -14.16991,-7.72254" data-paper-data="{&quot;origPos&quot;:null,&quot;origRot&quot;:0}" stroke="#000000" stroke-width="0.84" stroke-linecap="round" stroke-linejoin="round"/><path d="M248.22721,185.57895c5.92143,-5.22856 12.20042,-7.0394 12.91665,-5.94041c1.74593,2.54052 0.13317,4.86531 -10.56547,10.61419" data-paper-data="{&quot;origPos&quot;:null,&quot;origRot&quot;:0}" stroke="#000000" stroke-width="0.84" stroke-linecap="round" stroke-linejoin="round"/><path d="M237.93907,180.80538c0,-1.82944 1.48306,-3.3125 3.3125,-3.3125c1.82944,0 3.3125,1.48306 3.3125,3.3125c0,1.82944 -1.48306,3.3125 -3.3125,3.3125c-1.82944,0 -3.3125,-1.48306 -3.3125,-3.3125z" stroke="none" stroke-width="0" stroke-linecap="butt" stroke-linejoin="miter"/></g></g></svg>