<svg version="1.1" xmlns="http://www.w3.org/2000/svg" xmlns:xlink="http://www.w3.org/1999/xlink" width="254.25" height="49.34289" viewBox="0,0,254.25,49.34289"><g transform="translate(-230.25,-224.16667)"><g data-paper-data="{&quot;isPaintingLayer&quot;:true}" fill-rule="nonzero" stroke-linejoin="miter" stroke-miterlimit="10" stroke-dasharray="" stroke-dashoffset="0" style="mix-blend-mode: normal"><path d="M241.9,255.35c0.42482,-0.25982 0.95666,-0.27061 1.39167,-0.02825c0.43501,0.24236 0.70571,0.70029 0.70833,1.19825v12c-0.00262,0.49796 -0.27332,0.95589 -0.70833,1.19825c-0.43501,0.24236 -0.96685,0.23157 -1.39167,-0.02825l-5.9,-3.69h-2.62c-0.76215,0 -1.38,-0.61785 -1.38,-1.38v-4.24c0,-0.76215 0.61785,-1.38 1.38,-1.38h2.62z" data-paper-data="{&quot;origPos&quot;:null}" fill="none" stroke="#ff8c00" stroke-width="1.5" stroke-linecap="butt"/><path d="M231,270l16,-15" data-paper-data="{&quot;origPos&quot;:null}" fill="none" stroke="#ff8c00" stroke-width="1.5" stroke-linecap="round"/><path d="M479.5,226.66667c0,-1.38071 1.11929,-2.5 2.5,-2.5c1.38071,0 2.5,1.11929 2.5,2.5c0,1.38071 -1.11929,2.5 -2.5,2.5c-1.38071,0 -2.5,-1.11929 -2.5,-2.5z" fill="#fafafa" stroke="none" stroke-width="0.5" stroke-linecap="butt"/><text transform="translate(252.0451,267.50956) scale(0.5,0.5)" font-size="40" xml:space="preserve" fill="#ff8c00" fill-rule="nonzero" stroke="none" stroke-width="1" stroke-linecap="butt" stroke-linejoin="miter" stroke-miterlimit="10" stroke-dasharray="" stroke-dashoffset="0" font-family="Sans Serif" font-weight="normal" text-anchor="start" style="mix-blend-mode: normal"><tspan x="0" dy="0">音效</tspan></text></g></g></svg>