<svg version="1.1" xmlns="http://www.w3.org/2000/svg" xmlns:xlink="http://www.w3.org/1999/xlink" width="92.26137" height="11.7847" viewBox="0,0,92.26137,11.7847"><g transform="translate(-164.07333,-175.16189)"><g data-paper-data="{&quot;isPaintingLayer&quot;:true}" fill-rule="nonzero" stroke="none" stroke-linejoin="miter" stroke-miterlimit="10" stroke-dasharray="" stroke-dashoffset="0" style="mix-blend-mode: normal"><path d="M164.07333,181.45695v-2.91388h67.84213v2.91388z" fill="#ffc500" stroke-width="0" stroke-linecap="butt"/><path d="M233.78995,180.24259c0,1.22515 -0.73688,2.21834 -1.64586,2.21834c-0.90898,0 -1.64586,-0.99319 -1.64586,-2.21834c0,-1.22515 0.73687,-2.21833 1.64586,-2.21833c0.90898,0 1.64586,0.99318 1.64586,2.21833z" fill="#ffc500" stroke-width="0" stroke-linecap="butt"/><path d="M236.02487,180.45727c0,1.58084 -0.64076,2.86236 -1.43118,2.86236c-0.79042,0 -1.43118,-1.28152 -1.43118,-2.86236c0,-1.58084 0.64076,-2.86237 1.43118,-2.86237c0.79042,0 1.43118,1.28153 1.43118,2.86237z" fill="#ffc500" stroke-width="0" stroke-linecap="butt"/><path d="M235.02302,177.5949c0,0 5.20326,-1.17023 6.32762,-1.43945c1.86842,-0.44737 3.83378,-0.99356 3.83378,-0.99356c0,0 -1.27538,3.85755 -1.29902,5.79629c-0.02405,1.97258 1.1559,5.93941 1.1559,5.93941l-9.87516,-3.72107c0,0 0.90357,-2.19155 0.87841,-3.17283c-0.02216,-0.8644 -1.02153,-2.40878 -1.02153,-2.40878z" fill="#ffc500" stroke-width="0" stroke-linecap="round"/><path d="M256.33469,180.13351c0,0 -0.74744,0.93089 -1.48019,1.38809c-0.26525,0.1655 -0.72024,-0.01512 -1.19221,0.27937c-0.44917,0.28027 -0.71197,1.03081 -1.27354,1.3812c-0.46846,0.2923 -1.22415,0.17725 -1.72425,0.48929c-0.48248,0.30105 -0.57859,1.19197 -1.05178,1.48721c-0.06359,0.03968 -0.51815,0.1118 -0.58118,0.15113c-0.54807,0.34197 -1.71444,0.07193 -2.18651,0.36648c-1.21002,0.755 -1.42951,1.27031 -1.42951,1.27031c0,0 -1.72426,-3.49583 -1.71935,-5.38351c0.00521,-1.99912 1.74977,-6.29605 1.74977,-6.29605c0,0 1.47952,1.0705 2.57003,1.55788c0.46849,0.20938 1.15081,0.10506 1.96919,0.47082c0.51418,0.22981 1.00399,0.80389 1.56438,1.05434c0.60143,0.2688 1.27425,0.21432 1.84422,0.46906c0.51758,0.23132 0.90631,0.64438 1.32897,0.83328c0.9028,0.40349 1.61197,0.48111 1.61197,0.48111z" fill="#ffffff" stroke-width="0" stroke-linecap="round"/><path d="M236.17511,181.73673c0.1118,-0.22361 0.33541,-0.1118 0.33541,-0.1118l0.05259,0.02678c0.16929,0.07273 0.34285,0.13557 0.51765,0.19384c0.12436,0.05393 0.24777,0.1157 0.37038,0.18407c0.13096,-0.29665 0.32056,-0.52641 0.56545,-0.79584c-0.45851,-0.36143 -0.89002,-0.83545 -1.28955,-1.28839c-0.03809,0.12621 -0.06532,0.25466 -0.08024,0.38528l-0.09037,0.21261c0,0 -0.1118,0.22361 -0.33541,0.1118c-0.22361,-0.1118 -0.1118,-0.33541 -0.1118,-0.33541l0.04145,-0.05103c0.03425,-0.25694 0.10561,-0.50452 0.20673,-0.74283c-0.1612,-0.18138 -0.31633,-0.35129 -0.46499,-0.49941l-0.16478,-0.16478c0,0 -0.17678,-0.17678 0,-0.35355c0.17678,-0.17678 0.35355,0 0.35355,0l0.16478,0.16478c0.11081,0.11126 0.22932,0.24153 0.35432,0.38358c0.261,-0.42733 0.61089,-0.82165 0.99998,-1.18349c-0.11849,-0.05541 -0.23821,-0.10998 -0.35906,-0.17166l-0.22833,-0.22376c0,0 -0.17678,-0.17678 0,-0.35355c0.17678,-0.17678 0.35355,0 0.35355,0l0.16713,0.1717c0.1618,0.0785 0.31918,0.14439 0.47437,0.22015c0.56039,-0.46456 1.16251,-0.86877 1.67945,-1.214c0,0 0.20801,-0.13868 0.34669,0.06934c0.04876,0.07314 0.05466,0.13771 0.04181,0.19069l0.29095,-0.22249c0.32727,0.23405 0.6349,0.52168 0.93621,0.82868c0.80394,-0.78016 1.75884,-1.38349 3.05769,-1.62893c0,0 0.24572,-0.04607 0.29179,0.19965c0.04607,0.24572 -0.19965,0.29179 -0.19965,0.29179c-1.19058,0.22135 -2.07314,0.77241 -2.81471,1.48725c0.45572,0.4836 0.90827,0.98265 1.405,1.37539c0.27183,-0.19716 0.55315,-0.32658 0.84444,-0.35822c0,0 0.24876,-0.02488 0.27364,0.22388c0.02488,0.24876 -0.22388,0.27364 -0.22388,0.27364c-0.15649,0.01394 -0.31375,0.06998 -0.47094,0.15956c0.13456,0.08324 0.27289,0.15727 0.41578,0.22005c0,0 0.22845,0.10153 0.12692,0.32999c-0.10153,0.22845 -0.32999,0.12692 -0.32999,0.12692c-0.22033,-0.09889 -0.43,-0.22248 -0.63181,-0.36401c-0.37273,0.33956 -0.7409,0.82622 -1.09324,1.34404c0.41438,0.24305 0.88016,0.39314 1.43112,0.387c0,0 0.25,0 0.25,0.25c0,0.25 -0.25,0.25 -0.25,0.25c-0.67071,-0.00586 -1.21363,-0.20293 -1.68581,-0.50445c-0.28868,0.44156 -0.56427,0.88515 -0.82013,1.26223c0.98007,0.74355 2.04945,1.55698 2.96731,1.5434c0,0 0.25,0 0.25,0.25c0,0.25 -0.25,0.25 -0.25,0.25c-1.07737,-0.01206 -2.19519,-0.88344 -3.23959,-1.65996c-0.11407,0.15142 -0.22314,0.28225 -0.32653,0.38518c-0.14083,0.19852 -0.33257,0.41153 -0.444,0.64237c0.74516,0.63551 1.4968,1.20333 2.29118,1.39217c0,0 0.24254,0.06063 0.1819,0.30317c-0.06063,0.24254 -0.30317,0.1819 -0.30317,0.1819c-0.80775,-0.20953 -1.53998,-0.75471 -2.25986,-1.36541v0.0024c0,0 0,0.25 -0.25,0.25c-0.25,0 -0.25,-0.25 -0.25,-0.25v-0.13182c0.00244,-0.09532 0.01479,-0.1857 0.03519,-0.27226c-0.49877,-0.43544 -0.99815,-0.87439 -1.51937,-1.22609c-0.01747,0.16395 -0.02607,0.35308 -0.02607,0.57561v0.19773c0,0 0,0.25 -0.25,0.25c-0.25,0 -0.25,-0.25 -0.25,-0.25v-0.19773c0,-0.34502 0.02309,-0.62244 0.06851,-0.85631c-0.13209,-0.07244 -0.26587,-0.13798 -0.40168,-0.19526c-0.18136,-0.06045 -0.36114,-0.12646 -0.53691,-0.20162l-0.07923,-0.03913c0,0 -0.22361,-0.1118 -0.1118,-0.33541zM239.89892,182.93923c0.10113,-0.10154 0.2042,-0.22113 0.30928,-0.35463c-0.3524,-0.25351 -0.69437,-0.48125 -1.02125,-0.64428l-0.04197,-0.12796c-0.25142,-0.05149 -0.49696,-0.15849 -0.73596,-0.30377c-0.2547,0.25936 -0.43376,0.46093 -0.54277,0.77784c0.53924,0.36444 1.0658,0.83181 1.59254,1.29164c0.12358,-0.21887 0.28507,-0.42304 0.44013,-0.63885zM239.29877,181.26898c0.25,0 0.25,0.25 0.25,0.25l-0.00509,-0.00095c0.00329,0.01499 0.0053,0.03119 0.00575,0.0487c0.29233,0.16299 0.6097,0.38721 0.94186,0.63456c0.26297,-0.3747 0.53804,-0.80956 0.82618,-1.24619c-0.49388,-0.39928 -0.91787,-0.90088 -1.35436,-1.37954c-0.2962,0.41537 -0.59236,0.83614 -0.90647,1.24445c-0.10461,0.12239 -0.20263,0.22994 -0.29419,0.32678c0.13214,0.07017 0.26465,0.1242 0.39684,0.15798c0.03456,-0.02161 0.07992,-0.0358 0.13948,-0.0358zM238.66754,180.50599c0.32926,-0.42808 0.64075,-0.86555 0.95261,-1.2954c-0.45399,-0.46403 -0.94265,-0.87132 -1.55143,-1.09196c-0.00282,-0.00176 -0.00565,-0.00352 -0.00847,-0.00527c-0.45458,0.40168 -0.86106,0.84774 -1.12273,1.33245c0.42773,0.4965 0.90983,1.04876 1.40796,1.42917c0.10087,-0.11139 0.20827,-0.23289 0.32208,-0.369zM240.26618,176.88874c-0.01393,0.00189 -0.0288,0.0029 -0.04468,0.0029c-0.16724,0 -0.2226,-0.11187 -0.24093,-0.18594c-0.00961,0.00797 -0.01586,0.01213 -0.01586,0.01213c-0.43213,0.28755 -0.96259,0.63524 -1.47209,1.03602c0.52614,0.24329 0.96815,0.64897 1.38897,1.09919c0.34602,-0.46831 0.69865,-0.92155 1.08229,-1.33682c-0.22675,-0.2251 -0.45751,-0.43862 -0.6977,-0.62748zM240.21662,179.22238c0.43066,0.48439 0.85666,0.98281 1.34885,1.36261c0.34828,-0.51009 0.71505,-0.99967 1.10185,-1.37321c-0.47807,-0.40101 -0.91883,-0.88543 -1.36482,-1.35001c-0.38769,0.42074 -0.74026,0.8836 -1.08588,1.3606z" fill="#8e8c86" stroke-width="0.5" stroke-linecap="butt"/><path d="M249.80943,184.24743c-0.20801,-0.13868 -0.06934,-0.34669 -0.06934,-0.34669l0.14504,-0.19822c-0.03948,-1.22167 1.95433,-3.84215 2.79512,-4.68809c0,0 0.17678,-0.17678 0.35355,0c0.17678,0.17678 0,0.35355 0,0.35355c-0.86033,0.85436 -2.63924,3.25665 -2.67013,4.47943l-0.20756,0.33068c0,0 -0.13868,0.20801 -0.34669,0.06934z" fill="#8e8c86" stroke-width="0.5" stroke-linecap="butt"/><path d="M246.87197,185.68698c-0.23717,-0.07906 -0.15811,-0.31623 -0.15811,-0.31623l0.08815,-0.26445c0.25692,-0.77075 0.446,-1.5137 0.70234,-2.28272c0.3933,-1.57322 0.90085,-4.60155 2.20561,-5.59536c0,0 0.2,-0.15 0.35,0.05c0.15,0.2 -0.05,0.35 -0.05,0.35c-1.18261,0.87043 -1.67259,3.92331 -2.02555,5.33515c-0.25777,0.77332 -0.44941,1.52511 -0.70805,2.30104l-0.08815,0.26445c0,0 -0.07906,0.23717 -0.31623,0.15811z" fill="#8e8c86" stroke-width="0.5" stroke-linecap="butt"/><path d="M244.9236,184.73017c-0.25,0 -0.25,-0.25 -0.25,-0.25l0.0117,-0.16372c0.16766,-0.52856 0.30811,-1.06069 0.44458,-1.59785c0.92163,-1.85315 1.64166,-4.0462 2.01676,-6.04459c0,0 0.04903,-0.24515 0.29417,-0.19612c0.24515,0.04903 0.19612,0.29417 0.19612,0.29417c-0.42655,2.03174 -1.08848,4.23138 -2.03811,6.12001c-0.13018,0.53074 -0.27168,1.05439 -0.43691,1.57553l0.0117,0.01257c0,0 0,0.25 -0.25,0.25z" fill="#8e8c86" stroke-width="0.5" stroke-linecap="butt"/><path d="" fill="#515151" stroke-width="0.5" stroke-linecap="butt"/><g stroke-width="0.5" stroke-linecap="butt"><path d="M174.35004,176.11354c3.74639,-1.1197 3.9411,2.28082 3.50549,4.98112c-0.02851,0.17673 -0.08535,0.33111 -0.16609,0.46563c-0.17239,-0.05138 -0.34699,-0.09835 -0.52368,-0.14077c0.10205,-0.11068 0.17031,-0.24426 0.19616,-0.40449c0.35426,-2.196 0.53091,-5.56061 -2.83298,-4.43458c-1.3382,0.60632 -1.38451,3.15988 -1.54704,4.7285c-0.17227,0.03223 -0.34322,0.06894 -0.51272,0.11001c0.22295,-1.75684 0.20421,-4.53625 1.88088,-5.30542z" fill="#000000"/><path d="M174.51245,176.53324c3.3639,-1.12603 3.23986,2.32034 2.8856,4.51634c-0.02418,0.14987 -0.08641,0.27644 -0.17942,0.38277c-0.26379,-0.06484 -0.5323,-0.11951 -0.80518,-0.16353c-1.18302,-0.19085 -2.351,-0.16577 -3.46376,0.04621c0.16276,-1.58172 0.23244,-4.17904 1.56276,-4.78179z" data-paper-data="{&quot;noHover&quot;:false,&quot;origItem&quot;:[&quot;Path&quot;,{&quot;applyMatrix&quot;:true,&quot;segments&quot;:[[[452.59368,392.08432],[-0.07731,-3.03917],[0,0]],[[452.62695,392.08432],[0,0],[2.41153,0.01931]],[[461.11818,389.41095],[0,2.63547],[0,-4.44879]],[[454.11201,381.55737],[6.28325,-3.2948],[-2.63967,1.74972]]],&quot;closed&quot;:true}]}" fill="#ffffff"/></g><g data-paper-data="{&quot;index&quot;:null}" stroke-width="0.5" stroke-linecap="butt"><path d="M165.92162,178.7438c0.1695,0.04108 0.34046,0.07779 0.51273,0.11001c0.16252,1.56862 0.20883,4.12218 1.54703,4.7285c3.3639,1.12603 3.18725,-2.23857 2.83299,-4.43458c-0.02585,-0.16023 -0.09411,-0.29381 -0.19616,-0.40449c0.1767,-0.04243 0.3513,-0.08939 0.52369,-0.14077c0.08075,0.13451 0.13758,0.28891 0.16609,0.46563c0.43562,2.7003 0.24091,6.10081 -3.50549,4.98111c-1.67667,-0.76917 -1.65793,-3.54858 -1.88088,-5.30542z" fill="#000000"/><path d="M166.40213,178.84773c1.11276,0.21198 2.28074,0.23705 3.46376,0.0462c0.27288,-0.04402 0.54139,-0.09869 0.80518,-0.16353c0.09301,0.10634 0.15524,0.2329 0.17942,0.38277c0.35426,2.19601 0.4783,5.64237 -2.8856,4.51634c-1.33032,-0.60275 -1.4,-3.20006 -1.56276,-4.78178z" data-paper-data="{&quot;noHover&quot;:false,&quot;origItem&quot;:[&quot;Path&quot;,{&quot;applyMatrix&quot;:true,&quot;segments&quot;:[[[452.59368,392.08432],[-0.07731,-3.03917],[0,0]],[[452.62695,392.08432],[0,0],[2.41153,0.01931]],[[461.11818,389.41095],[0,2.63547],[0,-4.44879]],[[454.11201,381.55737],[6.28325,-3.2948],[-2.63967,1.74972]]],&quot;closed&quot;:true}]}" fill="#ffffff"/></g></g></g></svg>