<svg version="1.1" xmlns="http://www.w3.org/2000/svg" xmlns:xlink="http://www.w3.org/1999/xlink" width="32.92452" height="6.94456" viewBox="0,0,32.92452,6.94456"><g transform="translate(-223.63141,-176.09368)"><g data-paper-data="{&quot;isPaintingLayer&quot;:true}" fill="#ffffff" fill-rule="nonzero" stroke="none" stroke-linecap="butt" stroke-linejoin="miter" stroke-miterlimit="10" stroke-dasharray="" stroke-dashoffset="0" style="mix-blend-mode: normal"><g stroke-width="1.18676"><path d="M232.85491,181.18555c0,1.6757 -0.7417,1.6555 -1.6555,1.6555h-0.8996h-1.7576c-0.324,-0.1341 -0.591,-0.4522 -0.7488,-0.8747c-0.0962,-0.2563 -0.1567,-0.5471 -0.1567,-0.8592v-2.1895c0,-0.9993 0.559,-1.811 1.2461,-1.811h1.0764c0.6883,0 1.2461,0.8105 1.2461,1.811v0.6147c0.9102,0 1.6484,-0.0154 1.6496,1.6532z"/><path d="M227.04331,178.35385c0,0.2872 0.0119,0.5198 -1.0491,0.5198c-1.0598,0 -1.9178,-0.5198 -1.9178,-0.5198c0,0 0.8592,-0.5198 1.9178,-0.5198c1.061,0.0012 1.0491,0.2326 1.0491,0.5198z"/><path d="M227.15491,179.76375c0,0.2872 0.0142,0.5198 -1.2449,0.5198c-1.2592,0 -2.2786,-0.5198 -2.2786,-0.5198c0,0 1.0194,-0.5198 2.2786,-0.5198c1.2591,0 1.2449,0.2326 1.2449,0.5198z"/><path d="M227.15491,181.28405c0,0.2872 0.0083,0.5198 -0.7465,0.5198c-0.756,0 -1.3671,-0.5198 -1.3671,-0.5198c0,0 0.6123,-0.5187 1.3671,-0.5187c0.7548,0 0.7465,0.2315 0.7465,0.5187z"/></g><text transform="translate(233.68965,181.48812) scale(0.12401,0.12401)" font-size="40" xml:space="preserve" fill="#ffffff" fill-rule="nonzero" stroke="none" stroke-width="1" stroke-linecap="butt" stroke-linejoin="miter" stroke-miterlimit="10" stroke-dasharray="" stroke-dashoffset="0" font-family="Sans Serif" font-weight="normal" text-anchor="start" style="mix-blend-mode: normal"><tspan x="0" dy="0">移动速度+</tspan></text></g></g></svg>