<svg version="1.1" xmlns="http://www.w3.org/2000/svg" xmlns:xlink="http://www.w3.org/1999/xlink" width="113.082" height="8.396" viewBox="0,0,113.082,8.396"><g transform="translate(-142.865,-175)"><g data-paper-data="{&quot;isPaintingLayer&quot;:true}" fill="#ffffff" fill-rule="nonzero" stroke="none" stroke-width="1" stroke-linecap="butt" stroke-linejoin="miter" stroke-miterlimit="10" stroke-dasharray="" stroke-dashoffset="0" style="mix-blend-mode: normal"><g><path d="M143.825,175.924v2.758h4.233v0.923h-4.233v2.879h4.893v0.911h-5.853v-8.395h5.697v0.924z"/><path d="M156.674,183.396l-5.037,-6.74v6.74h-0.959v-8.396h0.995l5.038,6.752v-6.752h0.947v8.396z"/><path d="M162.771,175.924v7.472h-0.959v-7.472h-2.734v-0.924h6.44v0.924z"/><path d="M167.873,175.924v2.758h4.233v0.923h-4.233v2.879h4.893v0.911h-5.853v-8.395h5.697v0.924z"/><path d="M178.479,180.721c-0.18,0.012 -0.372,0.024 -0.564,0.024h-2.23v2.65h-0.959v-8.395h3.19c2.099,0 3.31,1.032 3.31,2.818c0,1.392 -0.671,2.327 -1.883,2.723l1.967,2.854h-1.091zM177.915,179.821c1.523,0 2.387,-0.671 2.387,-1.979c0,-1.271 -0.863,-1.919 -2.387,-1.919h-2.23v3.897h2.23z"/><path d="M189.243,175.924v7.472h-0.959v-7.472h-2.734v-0.924h6.44v0.924z"/><path d="M199.405,183.396v-3.694h-5.061v3.694h-0.959v-8.396h0.959v3.79h5.061v-3.79h0.959v8.396z"/><path d="M203.872,175.924v2.758h4.233v0.923h-4.233v2.879h4.893v0.911h-5.853v-8.395h5.697v0.924z"/><path d="M214.744,181.272l-0.936,2.123h-1.02l3.767,-8.395h0.996l3.754,8.396h-1.043l-0.936,-2.123h-4.582zM217.022,176.091l-1.871,4.258h3.766z"/><path d="M226.382,180.721c-0.18,0.012 -0.372,0.024 -0.564,0.024h-2.23v2.65h-0.959v-8.395h3.19c2.099,0 3.311,1.032 3.311,2.818c0,1.392 -0.672,2.327 -1.883,2.723l1.967,2.854h-1.093zM225.818,179.821c1.523,0 2.387,-0.671 2.387,-1.979c0,-1.271 -0.863,-1.919 -2.387,-1.919h-2.23v3.897h2.23z"/><path d="M232.263,175.924v2.758h4.233v0.923h-4.233v2.879h4.893v0.911h-5.852v-8.395h5.696v0.924z"/><path d="M245.112,183.396l-5.037,-6.74v6.74h-0.959v-8.396h0.995l5.038,6.752v-6.752h0.947v8.396z"/><path d="M249.387,181.272l-0.936,2.123h-1.02l3.767,-8.395h0.995l3.754,8.396h-1.043l-0.936,-2.123h-4.581zM251.666,176.091l-1.871,4.258h3.766z"/></g></g></g></svg>