<svg version="1.1" xmlns="http://www.w3.org/2000/svg" xmlns:xlink="http://www.w3.org/1999/xlink" width="22.08626" height="8.16603" viewBox="0,0,22.08626,8.16603"><g transform="translate(-229.075,-175.50696)"><g data-paper-data="{&quot;isPaintingLayer&quot;:true}" fill="#ffffff" fill-rule="nonzero" stroke="none" stroke-width="1" stroke-linecap="butt" stroke-linejoin="miter" stroke-miterlimit="10" stroke-dasharray="" stroke-dashoffset="0" style="mix-blend-mode: normal"><path d=""/><path d=""/><path d=""/><path d=""/><path d=""/><path d="M231.107,178.522v3.562h-0.707v-3.562h-1.325v-0.635h3.363v0.636h-1.331z"/><path d="M233.754,178.522v1.133h2.051v0.636h-2.051v1.157h2.363v0.636h-3.07v-4.197h2.998v0.636h-2.291z"/><path d="M237.576,181.137l-0.401,0.947h-0.738l1.854,-4.197h0.726l1.835,4.197h-0.756l-0.401,-0.947zM238.632,178.643l-0.792,1.864h1.583z"/><path d="M245.194,182.084l-0.006,-3.136l-1.326,2.698h-0.461l-1.325,-2.698v3.136h-0.666v-4.197h0.84l1.385,2.788l1.379,-2.788h0.834v4.197z"/><text transform="translate(247.60457,181.85021) scale(0.14582,0.14582)" font-size="40" xml:space="preserve" fill="#ffffff" fill-rule="nonzero" stroke="none" stroke-width="1" stroke-linecap="butt" stroke-linejoin="miter" stroke-miterlimit="10" stroke-dasharray="" stroke-dashoffset="0" font-family="Sans Serif" font-weight="normal" text-anchor="start" style="mix-blend-mode: normal"><tspan x="0" dy="0">2</tspan></text></g></g></svg>