<svg version="1.1" xmlns="http://www.w3.org/2000/svg" xmlns:xlink="http://www.w3.org/1999/xlink" width="6.875" height="6.125"><g transform="translate(-236.625,-176.375)"><g data-paper-data="{&quot;isPaintingLayer&quot;:true}" fill="none" fill-rule="nonzero" stroke="none" stroke-width="0.5" stroke-linecap="none" stroke-linejoin="miter" stroke-miterlimit="10" stroke-dasharray="" stroke-dashoffset="0" font-family="none" font-weight="none" font-size="none" text-anchor="none" style="mix-blend-mode: normal"><path d="" fill="#000000" stroke="none" stroke-linecap="butt"/><path d="" fill="#000000" stroke="none" stroke-linecap="butt"/><path d="" fill="#ab0000" stroke="none" stroke-linecap="butt"/><path d="" fill="#ab0000" stroke="none" stroke-linecap="butt"/><path d="M237.875,180c0,-1.38071 1.11929,-2.5 2.5,-2.5c1.38071,0 2.5,1.11929 2.5,2.5c0,1.38071 -1.11929,2.5 -2.5,2.5c-1.38071,0 -2.5,-1.11929 -2.5,-2.5z" fill="#000000" stroke="none" stroke-linecap="butt"/><path d="M241,178.75l2.25,-2" fill="none" stroke="#ff0000" stroke-linecap="round"/><path d="M239.125,178.625l-2.25,-2" fill="none" stroke="#ff0000" stroke-linecap="round"/><path d="M239.025,178.425l0.00685,0.02226c0.1261,0.02326 0.2755,0.06669 0.45113,0.1345l0.13572,0.07322c0,0 0.1313,-0.02998 0.1313,0.22002c0,0.01112 -0.00073,0.02169 -0.00212,0.03173c0.20413,0.38966 -0.74266,1.31279 -1.03753,0.4807c-0.28217,-0.33862 -0.43528,-0.87456 -0.00082,-0.95178c0.14438,-0.13898 0.31547,-0.01066 0.31547,-0.01066z" fill="#f10000" stroke="none" stroke-linecap="butt"/><path d="M240.25,178.875c0,-0.13807 0.11193,-0.25 0.25,-0.25c0.13807,0 0.25,0.11193 0.25,0.25c0,0.05176 -0.01573,0.09984 -0.04266,0.13973c0.01842,0.00614 0.02947,0.01166 0.02947,0.01166c0.02048,0.01024 0.05519,0.02327 0.10029,0.03825c-0.05333,-0.04585 -0.0871,-0.1138 -0.0871,-0.18964c0,-0.0998 0.05848,-0.18594 0.14304,-0.22603l0.12099,-0.06049c0.01757,-0.01525 0.30738,-0.38451 0.54847,-0.33848c0.48079,0.09181 0.85956,0.60883 0.6875,1.125c-0.31969,0.95906 -1.14206,0.39598 -1.7368,0.09861c0,0 -0.22361,-0.1118 -0.1118,-0.33541c0.00488,-0.00977 0.00998,-0.0189 0.01527,-0.02742c-0.0971,-0.03432 -0.16666,-0.12692 -0.16666,-0.23577zM241.75137,178.98729c0.01972,0.19526 -0.18269,0.25309 -0.18269,0.25309l-0.10959,-0.0012c0.28399,0.07361 0.54091,0.13582 0.54091,0.13582c0,0 -0.07466,-0.25865 -0.24863,-0.38771z" fill="#f10000" stroke="none" stroke-linecap="butt"/></g></g></svg>