<svg version="1.1" xmlns="http://www.w3.org/2000/svg" xmlns:xlink="http://www.w3.org/1999/xlink" width="63.33202" height="17.35839" viewBox="0,0,63.33202,17.35839"><g transform="translate(-208.334,-175.742)"><g data-paper-data="{&quot;isPaintingLayer&quot;:true}" fill="#ffffff" fill-rule="nonzero" stroke="none" stroke-width="1" stroke-linecap="butt" stroke-linejoin="miter" stroke-miterlimit="10" stroke-dasharray="" stroke-dashoffset="0" style="mix-blend-mode: normal"><path d="M216.585,184.197l-1.991,-6.548l-2.015,6.548h-1.463l-2.782,-8.395h1.523l2.039,6.825l2.027,-6.813l1.391,-0.012l2.039,6.825l2.027,-6.825h1.463l-2.806,8.395z"/><path d="M223.249,177.074v2.266h4.102v1.271h-4.102v2.314h4.726v1.271h-6.141v-8.395h5.997v1.271h-4.582z"/><path d="M230.892,182.303l-0.803,1.895h-1.475l3.706,-8.395h1.451l3.67,8.395h-1.511l-0.804,-1.895zM233.003,177.313l-1.583,3.73h3.167z"/><path d="M241.908,175.802c2.11,0 3.322,1.043 3.322,2.867c0,1.895 -1.212,2.997 -3.322,2.997h-1.932v2.531h-1.415v-8.395zM239.976,180.396h1.872c1.295,0 2.027,-0.552 2.027,-1.691c0,-1.103 -0.732,-1.631 -2.027,-1.631h-1.872z"/><path d="M254.84,180c0,2.398 -1.942,4.258 -4.449,4.258c-2.506,0 -4.449,-1.859 -4.449,-4.258c0,-2.411 1.943,-4.233 4.449,-4.233c2.506,0 4.449,1.835 4.449,4.233zM247.381,180c0,1.666 1.379,2.986 3.021,2.986c1.644,0 2.986,-1.32 2.986,-2.986c0,-1.667 -1.343,-2.962 -2.986,-2.962c-1.654,0 -3.021,1.295 -3.021,2.962z"/><path d="M262.246,184.197l-4.474,-6.02v6.02h-1.415v-8.395h1.391l4.498,6.032v-6.032h1.391v8.395z"/><path d="M271.559,176.606l-0.588,1.247c-0.912,-0.551 -1.823,-0.779 -2.459,-0.779c-0.828,0 -1.367,0.312 -1.367,0.875c0,1.835 4.533,0.852 4.521,3.873c0,1.5 -1.319,2.424 -3.166,2.424c-1.319,0 -2.566,-0.541 -3.43,-1.332l0.611,-1.223c0.863,0.791 1.942,1.223 2.842,1.223c0.984,0 1.571,-0.371 1.571,-1.02c0,-1.871 -4.533,-0.827 -4.533,-3.813c0,-1.439 1.235,-2.339 3.058,-2.339c1.092,0 2.159,0.348 2.94,0.864z"/><text transform="translate(231.6978,191.04901) scale(0.19537,0.19537)" font-size="40" xml:space="preserve" fill="#ffffff" fill-rule="nonzero" stroke="none" stroke-width="1" stroke-linecap="butt" stroke-linejoin="miter" stroke-miterlimit="10" stroke-dasharray="" stroke-dashoffset="0" font-family="Pixel" font-weight="normal" text-anchor="start" style="mix-blend-mode: normal"><tspan x="0" dy="0">武器</tspan></text></g></g></svg>