<svg xmlns="http://www.w3.org/2000/svg" xmlns:xlink="http://www.w3.org/1999/xlink" version="1.1" width="25" height="33" viewBox="-0.5 -0.5 25 33">
  <defs>
    <linearGradient id="grad_1" y2="1" x2="0">
      <stop offset="0" stop-color="#FFFFFF" stop-opacity="1"/>
      <stop offset="1" stop-color="#FEFEFE" stop-opacity="1"/>
    </linearGradient>
    <linearGradient id="grad_2" y2="1" x2="0">
      <stop offset="0" stop-color="#FFFFFF" stop-opacity="1"/>
      <stop offset="1" stop-color="#FEFEFE" stop-opacity="1"/>
    </linearGradient>
  <linearGradient id="grad_1-.7398989796638489,0,0,0.7398989796638489,0.05,4.05" y2="23.9925" x2="4.5597" x1="4.5597" y1="7.7843" gradientUnits="userSpaceOnUse">
      <stop offset="0" stop-color="#FFFFFF" stop-opacity="1"/>
      <stop offset="1" stop-color="#FEFEFE" stop-opacity="1"/>
    </linearGradient><linearGradient id="grad_2-.7398989796638489,0,0,0.7398989796638489,0.05,4.05" y2="18.1273" x2="10.4234" x1="10.4234" y1="11.8685" gradientUnits="userSpaceOnUse">
      <stop offset="0" stop-color="#FFFFFF" stop-opacity="1"/>
      <stop offset="1" stop-color="#FEFEFE" stop-opacity="1"/>
    </linearGradient></defs>
  <!-- Exported by Scratch - http://scratch.mit.edu/ -->
  <path id="ID0.38301805313676596" fill="none" d="M 0 0 L 24 0 L 24 32 L 0 32 L 0 0 Z " stroke-width="1"/>
  <path id="ID0.8620374747551978" fill="url(#grad_1-.7398989796638489,0,0,0.7398989796638489,0.05,4.05)" d="M 14.1725 9.7013 C 14.3878 9.4994 14.5246 9.213 14.5246 8.8941 C 14.5246 8.2807 14.0274 7.7843 13.4148 7.7843 L 10.3627 7.7843 C 9.7493 7.7843 9.2529 8.2807 9.2529 8.8941 C 9.2529 9.213 9.3897 9.4986 9.6051 9.7013 C 6.6765 10.6617 4.5597 13.4134 4.5597 16.6631 C 4.5597 20.711 7.8411 23.9925 11.8891 23.9925 C 15.9371 23.9925 19.2186 20.7103 19.2186 16.6631 C 19.2178 13.4127 17.101 10.6617 14.1725 9.7013 Z M 11.8884 22.3048 C 8.7727 22.3048 6.2467 19.7788 6.2467 16.6631 C 6.2467 13.5473 8.7727 11.0213 11.8884 11.0213 C 15.0041 11.0213 17.5301 13.5473 17.5301 16.6631 C 17.5301 19.7788 15.0041 22.3048 11.8884 22.3048 Z " stroke-width="0.7398989796638489"/>
  <path id="ID0.27613707818090916" fill="url(#grad_2-.7398989796638489,0,0,0.7398989796638489,0.05,4.05)" d="M 16.1421 16.1229 L 13.2476 16.1229 C 13.107 15.77 12.8332 15.4859 12.4892 15.3298 L 12.4892 12.4701 C 12.4892 12.1378 12.2199 11.8685 11.8876 11.8685 C 11.5554 11.8685 11.2861 12.1378 11.2861 12.4701 L 11.2861 15.3312 C 10.7778 15.5613 10.4234 16.0697 10.4234 16.6631 C 10.4234 17.4718 11.0797 18.1273 11.8876 18.1273 C 12.4566 18.1273 12.9442 17.7995 13.1869 17.3253 L 16.1413 17.3253 C 16.4735 17.3253 16.7429 17.0559 16.7429 16.7237 C 16.7436 16.3923 16.4743 16.1229 16.1421 16.1229 Z M 11.8884 17.4644 C 11.4459 17.4644 11.0878 17.1063 11.0878 16.6631 C 11.0878 16.2206 11.4459 15.8617 11.8884 15.8617 C 12.3316 15.8617 12.689 16.2206 12.689 16.6631 C 12.689 17.1063 12.3316 17.4644 11.8884 17.4644 Z " stroke-width="0.7398989796638489"/>
</svg>