<svg version="1.1" xmlns="http://www.w3.org/2000/svg" xmlns:xlink="http://www.w3.org/1999/xlink" width="86.172" height="25.30864" viewBox="0,0,86.172,25.30864"><defs><linearGradient x1="240.0015" y1="183.4863" x2="240.0015" y2="167.4858" gradientUnits="userSpaceOnUse" id="color-1"><stop offset="0" stop-color="#1a1a1a" stop-opacity="0.2"/><stop offset="1" stop-color="#000000" stop-opacity="0.2"/></linearGradient><linearGradient x1="198.429" y1="171.932" x2="198.429" y2="188.04" gradientUnits="userSpaceOnUse" id="color-2"><stop offset="0" stop-color="#f6faff"/><stop offset="1" stop-color="#e1e5ea"/></linearGradient><linearGradient x1="263.164" y1="171.931" x2="263.164" y2="188.04" gradientUnits="userSpaceOnUse" id="color-3"><stop offset="0" stop-color="#f6faff"/><stop offset="1" stop-color="#e1e5ea"/></linearGradient><linearGradient x1="247.627" y1="171.932" x2="247.627" y2="188.042" gradientUnits="userSpaceOnUse" id="color-4"><stop offset="0" stop-color="#f6faff"/><stop offset="1" stop-color="#e1e5ea"/></linearGradient><linearGradient x1="217.111" y1="171.93" x2="217.111" y2="188.039" gradientUnits="userSpaceOnUse" id="color-5"><stop offset="0" stop-color="#f6faff"/><stop offset="1" stop-color="#e1e5ea"/></linearGradient><linearGradient x1="232.853" y1="171.931" x2="232.853" y2="188.04" gradientUnits="userSpaceOnUse" id="color-6"><stop offset="0" stop-color="#f4f8fd"/><stop offset="1" stop-color="#e3e7eb"/></linearGradient></defs><g transform="translate(-196.914,-170.932)"><g data-paper-data="{&quot;isPaintingLayer&quot;:true}" fill-rule="nonzero" stroke="none" stroke-width="1" stroke-linecap="butt" stroke-linejoin="miter" stroke-miterlimit="10" stroke-dasharray="" stroke-dashoffset="0" style="mix-blend-mode: normal"><g><path d="M283.086,189.041h-1.494h-5.102h-0.699l-0.24,-0.656l-0.702,-1.918h-5.111l-0.722,1.925l-0.243,0.649h-0.693h-4.171h-0.747h-0.253h-1.261h-2.807h-0.495l-0.3,-0.395l-1.352,-1.774l-0.668,-0.805l0.036,-0.024l-3.046,-4v5.998v1h-1h-4.39h-0.379h-0.621h-0.379h-8.923l-1.695,0.027l0.015,-0.027h-1.87h-0.924h-0.873h-0.127h-5.297h-0.622l-0.275,-0.559l-1.861,-3.785h-0.905v3.344v1h-1h-3.539h-1.241h-0.253h-0.747h-4.354h-0.699l-0.24,-0.656l-0.702,-1.918h-5.111l-0.722,1.925l-0.243,0.649h-0.693h-4.918h-1.514l0.594,-1.393l2.64,-6.188l0.492,-1.152l3.739,-8.768l0.26,-0.608h0.66h4.918h0.67l0.255,0.619l2.566,6.225l0.586,1.422l1.817,4.409v-6.867v-1.724v-3.084v-1h1h7.515c3.619,0 6.154,1.382 7.227,3.809v-2.809v-1h1h3.412h1.747h8.006h0.609h0.391h0.609h4.091h0.497l0.3,0.396l3.654,4.823l0.001,0.002l0.583,0.769l0.789,1.042v-6.032v-1h1h4.366h1v1v11.808l1.521,-3.563l0.023,-0.055l0.001,-0.003l0.474,-1.11l3.186,-7.47l0.26,-0.607h0.66h4.918h0.67l0.255,0.619l2.27,5.506v-0.001l0.478,1.158l3.894,9.445zM208.118,180.974l-0.509,-1.389l-0.521,1.389zM225.878,177.793c0,-0.841 -0.363,-1.184 -1.252,-1.184h-1.734v2.412h1.734c0.889,0 1.252,-0.356 1.252,-1.228zM231.852,185.939v-5.246c-0.132,0.31 -0.284,0.606 -0.461,0.886l0.142,0.072l-0.7,0.701l-0.481,0.634l-0.08,-0.091c-0.065,0.058 -0.133,0.114 -0.201,0.169l1.782,2.875zM246.629,176.608h-0.609h-7.387v0.528h6.605h1v1v3.677v1h-1h-6.605v0.551h7.617h0.379v-1.829zM272.853,180.974l-0.509,-1.389l-0.521,1.389z" fill="url(#color-1)"/><g><path d="M213.371,179.578l3.489,8.462h-5.102l-0.942,-2.574h-6.504l-0.965,2.574h-4.918l2.64,-6.188c0.297,0.291 0.526,0.467 0.526,0.467c0,0 -0.073,-0.326 -0.246,-0.776c-0.02,-0.051 -0.055,-0.113 -0.077,-0.166l4.028,-9.445h4.918l2.902,7.04c-0.101,0.006 -0.197,0.021 -0.259,0.075c-0.035,0.047 -0.048,0.048 -0.061,0.102c-0.016,0.042 -0.016,0.105 -0.052,0.165c-0.052,0.126 -0.071,0.256 -0.071,0.256c0,0 0.095,0.087 0.213,0.149c0.102,0.062 0.327,0.004 0.444,-0.091c0.015,-0.014 0.022,-0.033 0.037,-0.05zM209.552,181.974l-1.931,-5.262l-1.977,5.262z" fill="url(#color-2)"/><path d="M281.595,188.04h-5.102l-0.942,-2.574h-6.504l-0.965,2.574h-4.918l3.212,-7.529c0.272,0.181 0.597,0.308 0.849,0.359c0.264,0.05 0.453,0.031 0.453,0.031c0,0 -0.082,-0.189 -0.227,-0.396c-0.073,-0.104 -0.164,-0.208 -0.27,-0.306c-0.102,-0.104 -0.229,-0.176 -0.35,-0.277c-0.051,-0.041 -0.106,-0.069 -0.16,-0.106l3.363,-7.885h4.918l2.456,5.957l-0.015,0.013c-0.22,0.207 -0.445,0.449 -0.586,0.671c-0.144,0.222 -0.214,0.414 -0.214,0.414c0,0 0.201,0.001 0.466,-0.064c0.199,-0.056 0.423,-0.174 0.64,-0.327zM274.287,181.974l-1.931,-5.262l-1.977,5.262z" fill="url(#color-3)"/><path d="M258.543,180.94v-9.008h4.366v16.11h-4.067l-1.352,-1.775c0.074,-0.051 0.139,-0.111 0.192,-0.175c0.104,-0.133 0.16,-0.271 0.16,-0.271c0,0 -0.122,-0.085 -0.283,-0.141c-0.157,-0.052 -0.348,-0.059 -0.524,-0.011l-5.018,-6.589v8.962h-4.39v-5.65c0.222,-0.121 0.453,-0.289 0.676,-0.467c0.297,-0.341 0.588,-0.687 0.672,-1.039c0.103,-0.335 0.117,-0.565 0.117,-0.565c0,0 -0.222,0.124 -0.471,0.32c-0.122,0.101 -0.248,0.223 -0.405,0.338c-0.152,0.117 -0.29,0.259 -0.43,0.402c-0.055,0.05 -0.104,0.104 -0.159,0.155v-9.604h4.091l3.654,4.823c-0.011,0.028 -0.023,0.055 -0.027,0.084c-0.045,0.133 -0.06,0.268 -0.075,0.404c-0.076,0.295 -0.061,0.61 -0.072,0.866c0.011,0.258 0.061,0.46 0.061,0.46c0,0 0.164,-0.108 0.347,-0.317c0.162,-0.168 0.267,-0.441 0.352,-0.726l2.586,3.414z" fill="url(#color-4)"/><path d="M228.715,182.776l3.264,5.263h-5.424l-2.137,-4.344h-2.527v4.344h-4.78v-12.181c0.066,-0.037 0.133,-0.063 0.199,-0.101c0.469,-0.289 0.901,-0.634 1.188,-0.947c0.29,-0.31 0.429,-0.576 0.429,-0.576c0,0 -0.076,0.017 -0.193,0.056c-0.111,0.048 -0.289,0.086 -0.478,0.165c-0.333,0.129 -0.744,0.33 -1.145,0.559v-3.084h7.515c4.321,0 6.802,2.069 6.802,5.723c0,1.525 -0.397,2.784 -1.135,3.756c-0.093,-0.106 -0.198,-0.205 -0.31,-0.295c-0.116,-0.084 -0.235,-0.168 -0.352,-0.23c-0.112,-0.066 -0.24,-0.122 -0.323,-0.147c-0.093,-0.027 -0.209,-0.065 -0.267,-0.113c-0.067,-0.038 -0.115,-0.055 -0.115,-0.055c0.016,0.007 -0.07,0.172 0.046,0.434c0.06,0.147 0.134,0.256 0.227,0.378c0.09,0.123 0.206,0.219 0.321,0.323c0.108,0.083 0.223,0.15 0.337,0.21c-0.332,0.332 -0.712,0.622 -1.142,0.862zM226.878,177.793c0,-1.403 -0.827,-2.184 -2.252,-2.184h-2.734v4.412h2.734c1.425,0 2.252,-0.782 2.252,-2.228z" fill="url(#color-5)"/><path d="M237.633,184.362h8.617v3.677h-8.923c0.056,-0.103 0.086,-0.215 0.102,-0.315c0.033,-0.241 -0.002,-0.406 -0.002,-0.406c0,0 -0.177,0.067 -0.359,0.172c-0.163,0.123 -0.39,0.236 -0.545,0.412c-0.049,0.045 -0.093,0.093 -0.139,0.138h-3.531v-16.109h3.414c-0.166,0.282 -0.304,0.59 -0.345,0.861c-0.036,0.148 -0.009,0.295 -0.014,0.381c0.005,0.092 0.019,0.146 0.019,0.146c0,0 0.05,-0.033 0.117,-0.093c0.064,-0.057 0.154,-0.139 0.262,-0.239c0.203,-0.193 0.448,-0.457 0.657,-0.774c0.056,-0.088 0.093,-0.186 0.139,-0.281h8.918v3.676h-8.387v2.528h7.605v3.677h-7.605z" fill="url(#color-6)"/></g></g><text transform="translate(198.15484,194.92491) scale(0.20242,0.20242)" font-size="22" xml:space="preserve" data-paper-data="{&quot;origPos&quot;:null}" fill="#7f7f7f" fill-rule="nonzero" stroke="none" stroke-width="1" stroke-linecap="butt" stroke-linejoin="miter" stroke-miterlimit="10" stroke-dasharray="" stroke-dashoffset="0" font-family="Pixel" font-weight="400" text-anchor="start" style="mix-blend-mode: normal"><tspan x="0" dy="0">v2.0(汉化)</tspan></text></g></g></svg>