<svg version="1.1" xmlns="http://www.w3.org/2000/svg" xmlns:xlink="http://www.w3.org/1999/xlink" width="443.133" height="217.72479" viewBox="0,0,443.133,217.72479"><g transform="translate(166.625,-136.40921)"><g data-paper-data="{&quot;isPaintingLayer&quot;:true}" fill="#000000" fill-rule="nonzero" stroke="none" stroke-width="1" stroke-linecap="butt" stroke-linejoin="miter" stroke-miterlimit="10" stroke-dasharray="" stroke-dashoffset="0" font-family="none" font-weight="none" font-size="none" text-anchor="none" style="mix-blend-mode: normal"><path d="M-163.272,335.94l0.754,0.754l-0.447,0.447l-0.754,-0.754zM-165.144,337.839l0.924,0.533l-0.316,0.547l-0.924,-0.533zM-160.973,334.592l0.533,0.924l-0.547,0.316l-0.533,-0.924zM-158.199,334.641c-0.078,0.055 -0.163,0.096 -0.238,0.157c-0.103,0.083 -0.185,0.183 -0.278,0.274l-0.021,0.006l-0.276,-1.03l0.61,-0.164zM-146.885,342.598l-0.002,0.001l0.001,-0.006zM-166.461,340.157l1.03,0.276l-0.164,0.61l-1.03,-0.276zM-155.736,333.929c-0.212,-0.011 -0.424,-0.015 -0.632,0.008v-0.071h0.632zM-153.014,352.169l0.533,0.924l-0.547,0.316l-0.533,-0.924zM-148.405,346.958l1.03,0.276l-0.164,0.61l-1.03,-0.276zM-158.264,353.388l0.632,-0.088v0.834h-0.632zM-146.866,344.632v0.632h-0.419c0.072,-0.204 0.121,-0.416 0.159,-0.632zM-149.463,349.081l0.924,0.533l-0.316,0.547l-0.924,-0.533zM-155.26,352.937l0.272,1.015l-0.61,0.164l-0.276,-1.03l0.227,-0.061l0.065,-0.009c0.112,-0.016 0.216,-0.049 0.322,-0.079zM-151.035,350.858l0.754,0.754l-0.447,0.447l-0.754,-0.754z"/><g data-paper-data="{&quot;origPos&quot;:null}"><path d="M233.007,140.811l-0.574,5.497c-0.198,1.897 -1.912,3.287 -3.809,3.089l-5.497,-0.574c-1.897,-0.198 -3.287,-1.912 -3.089,-3.809l0.574,-5.497c0.198,-1.897 1.912,-3.287 3.809,-3.089l5.497,0.574c1.897,0.198 3.287,1.912 3.089,3.809zM226.747,140.752c0.092,-0.878 -0.546,-1.664 -1.424,-1.756c-0.878,-0.092 -1.664,0.546 -1.756,1.424c-0.092,0.878 0.546,1.664 1.424,1.756c0.878,0.092 1.665,-0.546 1.756,-1.424zM229.476,145.406c0.092,-0.878 -0.546,-1.664 -1.424,-1.756c-0.878,-0.092 -1.664,0.546 -1.756,1.424c-0.092,0.878 0.546,1.664 1.424,1.756c0.879,0.092 1.665,-0.546 1.756,-1.424z"/><path d="M220.093,149.37c-0.075,-0.536 0.301,-1.031 0.843,-1.13c0.075,-0.007 0.144,0.012 0.216,0.02c0.237,0.193 0.499,0.344 0.774,0.472c0.065,0.109 0.11,0.232 0.128,0.365c0.074,0.536 -0.301,1.03 -0.843,1.13c-0.549,0.052 -1.045,-0.322 -1.118,-0.857zM219.506,149.256c0.133,0.164 0.482,0.641 0.567,1.257l-0.771,0.107c-0.085,-0.616 0.12,-1.17 0.204,-1.364zM224.349,154.523l-8.071,1.119c-1.09,0.151 -2.105,-0.616 -2.256,-1.706l-1.097,-7.909c-0.151,-1.09 0.616,-2.105 1.706,-2.256l5.361,-0.743l-0.205,1.963c-0.025,0.239 -0.025,0.477 -0.004,0.712c-0.235,0.006 -0.474,0.02 -0.717,0.054c-0.015,0.002 -0.03,0.005 -0.045,0.007c-0.015,0.002 -0.031,0.003 -0.046,0.005c-2.177,0.302 -3.795,1.612 -3.487,3.833c0.194,1.395 0.971,1.873 2.062,1.962l0.177,1.275l0.091,-0.013l4.282,-0.594l0.092,-0.013l-0.177,-1.275c0.859,-0.32 1.425,-0.849 1.475,-1.829l2.159,0.225l0.406,2.925c0.152,1.089 -0.616,2.104 -1.706,2.258zM217.855,148.667c0.549,-0.052 1.045,0.321 1.119,0.857c0.074,0.536 -0.302,1.031 -0.844,1.13c-0.549,0.052 -1.045,-0.322 -1.119,-0.857c-0.075,-0.536 0.301,-1.03 0.844,-1.13z"/><g><g><g><path d="M265.429,160.178c0.074,0.536 -0.301,1.03 -0.843,1.13c-0.549,0.052 -1.045,-0.322 -1.119,-0.857c-0.075,-0.536 0.301,-1.031 0.843,-1.13c0.549,-0.052 1.044,0.322 1.119,0.857zM262.881,160.337c0.133,0.164 0.482,0.641 0.567,1.257l-0.771,0.107c-0.085,-0.616 0.12,-1.17 0.204,-1.364zM262.349,160.606c0.074,0.536 -0.302,1.031 -0.844,1.13c-0.549,0.052 -1.045,-0.322 -1.119,-0.857c-0.075,-0.537 0.301,-1.031 0.843,-1.13c0.549,-0.052 1.045,0.321 1.12,0.857zM267.724,165.602l-8.071,1.119c-1.09,0.151 -2.105,-0.616 -2.256,-1.706l-1.097,-7.909c-0.151,-1.09 0.616,-2.105 1.706,-2.256l8.071,-1.119c1.09,-0.151 2.105,0.616 2.256,1.706l1.097,7.909c0.152,1.089 -0.616,2.104 -1.706,2.256zM266.84,159.577c-0.308,-2.221 -2.221,-3.042 -4.399,-2.74c-0.015,0.002 -0.03,0.005 -0.045,0.007c-0.015,0.002 -0.031,0.003 -0.046,0.005c-2.177,0.302 -3.795,1.612 -3.487,3.833c0.194,1.395 0.971,1.873 2.062,1.962l0.177,1.275l0.091,-0.013l4.282,-0.594l0.092,-0.013l-0.177,-1.275c1.026,-0.382 1.644,-1.054 1.45,-2.447z"/></g></g><g><path d="M276.382,151.892l-0.574,5.497c-0.198,1.897 -1.912,3.287 -3.809,3.089l-5.497,-0.574c-1.897,-0.198 -3.287,-1.912 -3.089,-3.809l0.574,-5.497c0.198,-1.897 1.912,-3.287 3.809,-3.089l5.497,0.574c1.897,0.198 3.287,1.912 3.089,3.809zM270.122,151.833c0.092,-0.878 -0.546,-1.664 -1.424,-1.756c-0.878,-0.092 -1.664,0.546 -1.756,1.424c-0.092,0.878 0.546,1.664 1.424,1.756c0.878,0.092 1.665,-0.546 1.756,-1.424zM272.851,156.487c0.092,-0.878 -0.546,-1.664 -1.424,-1.756c-0.878,-0.092 -1.664,0.546 -1.756,1.424c-0.092,0.878 0.546,1.664 1.424,1.756c0.879,0.092 1.665,-0.546 1.756,-1.424z"/></g></g><g><path d="M263.41579,165.67658l-0.27599,1.02965l-0.61045,-0.16362l0.27599,-1.02965z"/><path d="M261.28469,164.63574l-0.533,0.92316l-0.54731,-0.316l0.533,-0.92316z"/><path d="M259.5184,163.02373l-0.75366,0.75388l-0.44695,-0.44682l0.75366,-0.75388z"/><path d="M258.20744,161.04751l-0.92316,0.533l-0.316,-0.54731l0.92316,-0.533z"/><path d="M256.42684,159.08002l-0.16356,-0.61045l1.02965,-0.27588l0.16356,0.61045z"/><path d="M256.241,156.449v-0.632h1.066v0.632z"/><path d="M256.75697,153.82512l0.16356,-0.61045l1.02965,0.27588l-0.16356,0.61045z"/><path d="M257.92327,151.46112l0.316,-0.54731l0.92316,0.533l-0.316,0.54731z"/><path d="M259.65947,149.46919l0.44689,-0.44689l0.75377,0.75377l-0.44689,0.44689z"/><path d="M262.38758,148.90075l-0.533,-0.92316l0.54731,-0.316l0.533,0.92316z"/><path d="M264.65283,148.1568l-0.27588,-1.02965l0.61045,-0.16356l0.27588,1.02965z"/><path d="M267.007,148.013v-1.066h0.632v1.066z"/><path d="M269.33323,148.48545l0.27599,-1.02965l0.61045,0.16362l-0.27599,1.02965z"/><path d="M271.46498,149.52672l0.533,-0.92316l0.54731,0.316l-0.533,0.92316z"/><path d="M273.23766,151.11669l0.75377,-0.75377l0.44689,0.44689l-0.75377,0.75377z"/><path d="M274.54276,153.1128l0.92316,-0.533l0.316,0.54731l-0.92316,0.533z"/><path d="M276.32307,155.08121l0.16356,0.61045l-1.02965,0.27588l-0.16356,-0.61045z"/><path d="M275.442,158.345v-0.632h1.066v0.632z"/><path d="M275.98714,160.31041l-0.16356,0.61045l-1.02965,-0.27588l0.16356,-0.61045z"/><path d="M274.82669,162.70131l-0.316,0.54731l-0.92316,-0.533l0.316,-0.54731z"/><path d="M273.09036,164.69261l-0.44689,0.44689l-0.75377,-0.75377l0.44689,-0.44689z"/><path d="M270.88971,166.16401l-0.54731,0.316l-0.533,-0.92316l0.54731,-0.316z"/><path d="M268.39385,167.0097l-0.61045,0.16356l-0.27588,-1.02965l0.61045,-0.16356z"/><path d="M265.111,167.214v-1.066h0.632v1.066z"/></g></g></g></g></svg>