<svg version="1.1" xmlns="http://www.w3.org/2000/svg" xmlns:xlink="http://www.w3.org/1999/xlink" width="556" height="360" viewBox="0,0,556,360"><g transform="translate(-42.03089,-1.53396)"><g data-paper-data="{&quot;isPaintingLayer&quot;:true}" fill-rule="nonzero" stroke="none" stroke-linecap="butt" stroke-linejoin="miter" stroke-miterlimit="10" stroke-dasharray="" stroke-dashoffset="0" style="mix-blend-mode: normal"><path d="M42.03089,361.53396v-360h556v360z" fill="none" stroke-width="0"/><g><text transform="translate(157.45411,232.22347) scale(0.42277,0.42277)" font-size="40" xml:space="preserve" fill="#cfe3ff" fill-rule="nonzero" stroke="none" stroke-width="1" stroke-linecap="butt" stroke-linejoin="miter" stroke-miterlimit="10" stroke-dasharray="" stroke-dashoffset="0" font-family="Malgun Gothic" font-weight="normal" text-anchor="start" style="mix-blend-mode: normal"><tspan x="0" dy="0">to use spell attack </tspan><tspan x="0" dy="46.150000000000006px">(you need to grab them first)</tspan><tspan x="0" dy="46.150000000000006px">to use Heart potion</tspan><tspan x="0" dy="46.150000000000006px">to Enter the next room</tspan><tspan x="0" dy="46.150000000000006px">to Confirm your choice in the campfire</tspan><tspan x="0" dy="46.150000000000006px">to Quit the Trader's Shop</tspan><tspan x="0" dy="46.150000000000006px">to Dance for nothing :)</tspan></text><text transform="translate(136.93385,231.23056) scale(0.42277,0.42277)" font-size="40" xml:space="preserve" fill="#91beff" fill-rule="nonzero" stroke="none" stroke-width="1" stroke-linecap="butt" stroke-linejoin="miter" stroke-miterlimit="10" stroke-dasharray="" stroke-dashoffset="0" font-family="Malgun Gothic" font-weight="normal" text-anchor="start" style="mix-blend-mode: normal"><tspan x="0" dy="0">D</tspan><tspan x="0" dy="46.150000000000006px"> </tspan><tspan x="0" dy="46.150000000000006px">W</tspan><tspan x="0" dy="46.150000000000006px">E </tspan><tspan x="0" dy="46.150000000000006px">S</tspan><tspan x="0" dy="46.150000000000006px">Q</tspan><tspan x="0" dy="46.150000000000006px">F</tspan></text><text transform="translate(74.38015,212.00794) scale(0.39509,0.39509)" font-size="40" xml:space="preserve" fill="#00b5ff" fill-rule="nonzero" stroke="none" stroke-width="1" stroke-linecap="butt" stroke-linejoin="miter" stroke-miterlimit="10" stroke-dasharray="" stroke-dashoffset="0" font-family="Malgun Gothic" font-weight="normal" text-anchor="start" style="mix-blend-mode: normal"><tspan x="0" dy="0">Other control that already has a description in-game</tspan></text><path d="M65.53089,207.53396c0,-1.38071 1.11929,-2.5 2.5,-2.5c1.38071,0 2.5,1.11929 2.5,2.5c0,1.38071 -1.11929,2.5 -2.5,2.5c-1.38071,0 -2.5,-1.11929 -2.5,-2.5z" fill="#00b5ff" stroke-width="0.5"/></g><g><text transform="translate(157.45411,115.70924) scale(0.42277,0.42277)" font-size="40" xml:space="preserve" fill="#cfe3ff" fill-rule="nonzero" stroke="none" stroke-width="1" stroke-linecap="butt" stroke-linejoin="miter" stroke-miterlimit="10" stroke-dasharray="" stroke-dashoffset="0" font-family="Malgun Gothic" font-weight="normal" text-anchor="start" style="mix-blend-mode: normal"><tspan x="0" dy="0">to move</tspan><tspan x="0" dy="46.150000000000006px">to grab a weapon</tspan><tspan x="0" dy="46.150000000000006px">to attack enemies</tspan></text><text transform="translate(74.38015,114.71633) scale(0.42277,0.42277)" font-size="40" xml:space="preserve" fill="#91beff" fill-rule="nonzero" stroke="none" stroke-width="1" stroke-linecap="butt" stroke-linejoin="miter" stroke-miterlimit="10" stroke-dasharray="" stroke-dashoffset="0" font-family="Malgun Gothic" font-weight="normal" text-anchor="start" style="mix-blend-mode: normal"><tspan x="0" dy="0">Arrow key</tspan><tspan x="0" dy="46.150000000000006px">           S</tspan><tspan x="0" dy="46.150000000000006px">           A </tspan><tspan x="0" dy="46.150000000000006px">Use your mouse to view buff descriptions </tspan></text><text transform="translate(75.38015,95.92636) scale(0.39508,0.39508)" font-size="40" xml:space="preserve" fill="#00b5ff" fill-rule="nonzero" stroke="none" stroke-width="1" stroke-linecap="butt" stroke-linejoin="miter" stroke-miterlimit="10" stroke-dasharray="" stroke-dashoffset="0" font-family="Malgun Gothic" font-weight="normal" text-anchor="start" style="mix-blend-mode: normal"><tspan x="0" dy="0">The control you need to remember</tspan></text><path d="M65.53089,90.53396c0,-1.38071 1.11929,-2.5 2.5,-2.5c1.38071,0 2.5,1.11929 2.5,2.5c0,1.38071 -1.11929,2.5 -2.5,2.5c-1.38071,0 -2.5,-1.11929 -2.5,-2.5z" fill="#00b5ff" stroke-width="0.5"/></g><g fill="#00b5ff"><text transform="translate(75.0309,42.45341) scale(0.43989,0.43989)" font-size="40" xml:space="preserve" fill="#00b5ff" fill-rule="nonzero" stroke="none" stroke-width="1" stroke-linecap="butt" stroke-linejoin="miter" stroke-miterlimit="10" stroke-dasharray="" stroke-dashoffset="0" font-family="Malgun Gothic" font-weight="normal" text-anchor="start" style="mix-blend-mode: normal"><tspan x="0" dy="0">Your goal: go through the dungeon, collect buffs (Items)</tspan><tspan x="0" dy="46.150000000000006px">              and defeat the boss</tspan></text><path d="M65.53089,35.53396c0,-1.38071 1.11929,-2.5 2.5,-2.5c1.38071,0 2.5,1.11929 2.5,2.5c0,1.38071 -1.11929,2.5 -2.5,2.5c-1.38071,0 -2.5,-1.11929 -2.5,-2.5z" stroke-width="0.5"/></g></g></g></svg>