<svg version="1.1" xmlns="http://www.w3.org/2000/svg" xmlns:xlink="http://www.w3.org/1999/xlink" width="65.6" height="65.8" viewBox="0,0,65.6,65.8"><g transform="translate(-207.1,-147.3)"><g data-paper-data="{&quot;isPaintingLayer&quot;:true}" fill-rule="nonzero" stroke-linejoin="miter" stroke-miterlimit="10" stroke-dasharray="" stroke-dashoffset="0" style="mix-blend-mode: normal"><path d="M239.84627,195.14667c-1.38376,-0.01949 -1.52182,-0.48956 -2.48623,-1.48171c-2.89325,-2.97646 -6.85303,-7.05013 -11.23932,-11.56258c-0.90571,-0.93176 -1.3195,-1.07442 -1.26021,-2.37248c0.05929,-1.29806 0.48984,-1.52209 1.48218,-2.48668c4.44248,-4.31828 8.51863,-8.28047 11.38331,-11.06507c0.95489,-0.9282 1.10212,-1.39135 2.43176,-1.31784c1.32965,0.07351 1.58947,0.55916 2.59718,1.59586c4.25028,4.37253 7.89557,8.12265 10.89082,11.20405c0.99841,1.02713 1.46589,1.1848 1.49777,2.61687c0.03188,1.43207 -0.43135,1.46523 -1.38625,2.39343c-0.95489,0.9282 -8.40631,8.17129 -11.38331,11.06507c-0.99234,0.9646 -1.14394,1.43058 -2.5277,1.41109z" fill="#151723" stroke="#ffffff" stroke-width="1" stroke-linecap="butt"/><path d="M207.1,213.1v-65.4h65.4v65.4z" fill="none" stroke="none" stroke-width="0" stroke-linecap="butt"/><path d="M239.84626,194.89024c-1.38376,-0.01949 -1.52182,-0.48956 -2.48623,-1.48171c-2.89325,-2.97646 -6.85303,-7.05013 -11.23932,-11.56258c-0.90571,-0.93176 -1.3195,-1.07442 -1.26021,-2.37248c0.05929,-1.29806 0.48984,-1.52209 1.48218,-2.48668c4.44248,-4.31828 8.51863,-8.28047 11.38331,-11.06507c0.95489,-0.9282 1.10212,-1.39135 2.43176,-1.31784c1.32965,0.07351 1.58947,0.55916 2.59718,1.59586c4.25028,4.37253 7.89557,8.12265 10.89082,11.20405c0.99841,1.02713 1.46589,1.1848 1.49777,2.61687c0.03188,1.43207 -0.43135,1.46523 -1.38625,2.39343c-0.95489,0.9282 -8.40631,8.17129 -11.38331,11.06507c-0.99234,0.9646 -1.14394,1.43058 -2.5277,1.41109z" fill="none" stroke="#ffffff" stroke-width="1" stroke-linecap="butt"/><path d="M207.1,213.1v-65.4h65.4v65.4z" fill="none" stroke="none" stroke-width="0" stroke-linecap="butt"/><path d="M239.84626,195.14667c-1.38376,-0.01949 -1.52182,-0.48956 -2.48623,-1.48171c-2.89325,-2.97646 -6.85303,-7.05013 -11.23932,-11.56258c-0.90571,-0.93176 -1.3195,-1.07442 -1.26021,-2.37248c0.05929,-1.29806 0.48984,-1.52209 1.48218,-2.48668c4.44248,-4.31828 8.51863,-8.28047 11.38331,-11.06507c0.95489,-0.9282 1.10212,-1.39135 2.43176,-1.31784c1.32965,0.07351 1.58947,0.55916 2.59718,1.59586c4.25028,4.37253 7.89557,8.12265 10.89082,11.20405c0.99841,1.02713 1.46589,1.1848 1.49777,2.61687c0.03188,1.43207 -0.43135,1.46523 -1.38625,2.39343c-0.95489,0.9282 -8.40631,8.17129 -11.38331,11.06507c-0.99234,0.9646 -1.14394,1.43058 -2.5277,1.41109z" fill="none" stroke="#ffffff" stroke-width="1" stroke-linecap="butt"/><path d="M207.3,212.7v-65.4h65.4v65.4z" fill="none" stroke="none" stroke-width="0" stroke-linecap="butt"/><g stroke="#7d00ff" stroke-width="1.25"><path d="M237.25066,188.74283l-6.53149,-12.66426c0,0 0.91214,-1.95627 2.58914,-3.50489c1.32382,-1.22248 3.36322,-1.99178 4.15368,-2.72175c1.18768,-1.09675 2.96232,-2.73554 2.96232,-2.73554c0,0 0.93995,0.44508 1.36854,0.92729c0.42858,0.48222 0.03905,0.50175 1.01491,1.75446c0.18268,0.23449 1.33368,0.48056 1.54643,0.73449c0.43805,0.52279 -0.0204,1.07886 0.48935,1.63573c0.30629,0.3346 1.04147,0.36871 1.35194,0.71663c0.4805,0.53849 0.53353,1.3862 0.97429,1.83555c0.48153,0.49092 1.13265,0.28153 1.49129,0.6181c0.57144,0.53628 0.61977,1.90561 0.61977,1.90561l-0.94349,0.62715c0,0 -3.02534,9.10994 -6.56376,10.94436c-1.69093,0.87664 -4.52292,-0.07298 -4.52292,-0.07298z" fill="#dab2ff" stroke-linecap="butt"/><path d="M242.21932,170.26768l-2.325,2.325l2.74774,2.74774l-2.21932,2.21932l-3.38183,-1.90227" fill="#dab2ff" stroke-linecap="round"/><path d="M244.17444,172.53984l-2.0608,2.0608" fill="#dab2ff" stroke-linecap="round"/><path d="M243.25903,178.89938l3.29325,-3.87602" fill="#dab2ff" stroke-linecap="round"/><path d="M237.35796,169.95064l2.90627,2.90627" fill="#dab2ff" stroke-linecap="round"/><path d="M249.08864,177.2427l-4.01591,3.80456l-3.59319,-3.38183" fill="none" stroke-linecap="round"/><path d="M244.3288,186.15674v6.72688h-8.45456v-6.76365" fill="#dab2ff" stroke-linecap="round"/></g><path d="M243.27712,187.97522c0,-3.36894 2.73106,-6.1 6.1,-6.1c3.36894,0 6.1,2.73106 6.1,6.1c0,3.36894 -2.73106,6.1 -6.1,6.1c-3.36894,0 -6.1,-2.73106 -6.1,-6.1z" fill="#66f7ff" stroke="#336aff" stroke-width="1.5" stroke-linecap="butt"/><path d="M251.67712,188.37522h-2.5v-4" fill="none" stroke="#336aff" stroke-width="1.5" stroke-linecap="round"/></g></g></svg>