<svg version="1.1" xmlns="http://www.w3.org/2000/svg" xmlns:xlink="http://www.w3.org/1999/xlink" width="56.83333" height="56.83333" viewBox="0,0,56.83333,56.83333"><g transform="translate(-211.58345,-151.58336)"><g data-paper-data="{&quot;isPaintingLayer&quot;:true}" fill-rule="nonzero" stroke="none" stroke-width="0" stroke-linecap="butt" stroke-linejoin="miter" stroke-miterlimit="10" stroke-dasharray="" stroke-dashoffset="0" style="mix-blend-mode: normal"><path d="M211.58346,208.41669v-56.83333h56.83333v56.83333z" fill="none"/><path d="M232.76488,192.28926c0,0.91564 -1.17019,1.65792 -2.61369,1.65792c-1.4435,0 -2.61369,-0.74227 -2.61369,-1.65792c0,-0.91564 1.17019,-1.65792 2.61369,-1.65792c1.4435,0 2.61369,0.74227 2.61369,1.65792z" fill="#000000"/><path d="M242.57953,192.28925c0,0.91564 -1.17019,1.65792 -2.61369,1.65792c-1.4435,0 -2.61369,-0.74227 -2.61369,-1.65792c0,-0.91564 1.17019,-1.65792 2.61369,-1.65792c1.4435,0 2.61369,0.74227 2.61369,1.65792z" fill="#000000"/><path d="M252.28752,192.28925c0,0.91564 -1.17019,1.65792 -2.61369,1.65792c-1.4435,0 -2.61369,-0.74227 -2.61369,-1.65792c0,-0.91564 1.17019,-1.65792 2.61369,-1.65792c1.4435,0 2.61369,0.74227 2.61369,1.65792z" fill="#000000"/><path d="M237.88988,183.20675c0,0.91564 -1.17019,1.65792 -2.61369,1.65792c-1.4435,0 -2.61369,-0.74227 -2.61369,-1.65792c0,-0.91564 1.17019,-1.65792 2.61369,-1.65792c1.4435,0 2.61369,0.74227 2.61369,1.65792z" fill="#000000"/><path d="M247.70453,183.20675c0,0.91564 -1.17019,1.65792 -2.61368,1.65792c-1.4435,0 -2.61369,-0.74227 -2.61369,-1.65792c0,-0.91564 1.17019,-1.65792 2.61369,-1.65792c1.4435,0 2.61368,0.74227 2.61368,1.65792z" fill="#000000"/><path d="M257.41247,183.20675c0,0.91564 -1.17019,1.65792 -2.61369,1.65792c-1.4435,0 -2.61369,-0.74227 -2.61369,-1.65792c0,-0.91564 1.17019,-1.65792 2.61369,-1.65792c1.44349,0 2.61369,0.74227 2.61369,1.65792z" fill="#000000"/><path d="M232.88988,173.98009c0,0.91564 -1.17019,1.65792 -2.61369,1.65792c-1.4435,0 -2.61369,-0.74227 -2.61369,-1.65792c0,-0.91564 1.17019,-1.65792 2.61369,-1.65792c1.4435,0 2.61369,0.74227 2.61369,1.65792z" fill="#000000"/><path d="M242.70453,173.98009c0,0.91564 -1.17019,1.65792 -2.61368,1.65792c-1.4435,0 -2.61369,-0.74227 -2.61369,-1.65792c0,-0.91564 1.17019,-1.65792 2.61369,-1.65792c1.4435,0 2.61368,0.74227 2.61368,1.65792z" fill="#000000"/><path d="M252.41252,173.98009c0,0.91564 -1.17019,1.65792 -2.61369,1.65792c-1.44349,0 -2.61369,-0.74227 -2.61369,-1.65792c0,-0.91564 1.17019,-1.65792 2.61369,-1.65792c1.44349,0 2.61369,0.74227 2.61369,1.65792z" fill="#000000"/><path d="M227.78752,183.20675c0,0.91564 -1.17019,1.65792 -2.61369,1.65792c-1.44349,0 -2.61369,-0.74227 -2.61369,-1.65792c0,-0.91564 1.17019,-1.65792 2.61369,-1.65792c1.44349,0 2.61369,0.74227 2.61369,1.65792z" fill="#000000"/><path d="M226.8133,183.8795c0.05351,1.38335 -3.25142,1.35075 -3.23015,0c0.00533,-0.33856 1.61508,-15.33808 1.61508,-15.33808z" fill="#ffffff"/><path d="M231.74187,192.8795c0.05351,1.38335 -3.25142,1.35074 -3.23015,0c0.00533,-0.33856 1.61507,-15.33807 1.61507,-15.33807c0,0 1.60735,15.13832 1.61508,15.33807z" fill="#ffffff"/><path d="M231.71012,174.66521c0.05351,1.38335 -3.25142,1.35074 -3.23015,0c0.00533,-0.33856 1.50396,-15.33807 1.50396,-15.33807c0,0 1.71846,15.13832 1.72619,15.33807z" fill="#ffffff"/><path d="M237.02758,183.80806c0.05351,1.38335 -3.25142,1.35074 -3.23016,0c0.00533,-0.33856 1.61508,-15.33807 1.61508,-15.33807c0,0 1.60735,15.13832 1.61508,15.33807z" fill="#ffffff"/><path d="M241.59901,192.95092c0.05351,1.38335 -3.25142,1.35074 -3.23016,0c0.00533,-0.33856 1.61508,-15.33807 1.61508,-15.33807c0,0 1.60735,15.13832 1.61508,15.33807z" fill="#ffffff"/><path d="M241.67044,174.66521c0.05351,1.38335 -3.25142,1.35074 -3.23016,0c0.00533,-0.33856 1.61507,-15.33808 1.61507,-15.33808c0,0 1.38514,15.13832 1.39286,15.33808z" fill="#ffffff"/><path d="M246.74187,183.87949c0.05351,1.38335 -3.25142,1.35074 -3.23016,0c0.00533,-0.33856 1.61507,-15.33808 1.61507,-15.33808z" fill="#ffffff"/><path d="M248.04345,193.17315c0.00533,-0.33856 1.61507,-15.5603 1.61507,-15.5603c0,0 1.71847,15.47165 1.72619,15.67141c0.00369,0.09558 -0.65113,0.37398 -1.45049,0.36951c-0.87136,-0.00487 -1.89355,-0.30405 -1.89077,-0.48062z" fill="#ffffff"/><path d="M251.45616,174.55409c0.05351,1.38335 -3.25142,1.35074 -3.23015,0c0.00533,-0.33856 1.61507,-15.22697 1.61507,-15.22697c0,0 1.60735,15.02721 1.61508,15.22697z" fill="#ffffff"/><path d="M256.52758,183.76838c0.05351,1.38335 -3.25142,1.51741 -3.23015,0.16667c0.00533,-0.33856 1.61508,-15.39363 1.61508,-15.39363z" fill="#ffffff"/></g></g></svg>