<svg version="1.1" xmlns="http://www.w3.org/2000/svg" xmlns:xlink="http://www.w3.org/1999/xlink" width="65.4" height="65.4" viewBox="0,0,65.4,65.4"><g transform="translate(-207.1,-147.7)"><g data-paper-data="{&quot;isPaintingLayer&quot;:true}" fill-rule="nonzero" stroke-linejoin="miter" stroke-miterlimit="10" stroke-dasharray="" stroke-dashoffset="0" style="mix-blend-mode: normal"><path d="M239.84627,195.14667c-1.38376,-0.01949 -1.52182,-0.48956 -2.48623,-1.48171c-2.89325,-2.97646 -6.85303,-7.05013 -11.23932,-11.56258c-0.90571,-0.93176 -1.3195,-1.07442 -1.26021,-2.37248c0.05929,-1.29806 0.48984,-1.52209 1.48218,-2.48668c4.44248,-4.31828 8.51863,-8.28047 11.38331,-11.06507c0.95489,-0.9282 1.10212,-1.39135 2.43176,-1.31784c1.32965,0.07351 1.58947,0.55916 2.59718,1.59586c4.25028,4.37253 7.89557,8.12265 10.89082,11.20405c0.99841,1.02713 1.46589,1.1848 1.49777,2.61687c0.03188,1.43207 -0.43135,1.46523 -1.38625,2.39343c-0.95489,0.9282 -8.40631,8.17129 -11.38331,11.06507c-0.99234,0.9646 -1.14394,1.43058 -2.5277,1.41109z" fill="#151723" stroke="#ffffff" stroke-width="1" stroke-linecap="butt"/><path d="M239.84626,194.89024c-1.38376,-0.01949 -1.52182,-0.48956 -2.48623,-1.48171c-2.89325,-2.97646 -6.85303,-7.05013 -11.23932,-11.56258c-0.90571,-0.93176 -1.3195,-1.07442 -1.26021,-2.37248c0.05929,-1.29806 0.48984,-1.52209 1.48218,-2.48668c4.44248,-4.31828 8.51863,-8.28047 11.38331,-11.06507c0.95489,-0.9282 1.10212,-1.39135 2.43176,-1.31784c1.32965,0.07351 1.58947,0.55916 2.59718,1.59586c4.25028,4.37253 7.89557,8.12265 10.89082,11.20405c0.99841,1.02713 1.46589,1.1848 1.49777,2.61687c0.03188,1.43207 -0.43135,1.46523 -1.38625,2.39343c-0.95489,0.9282 -8.40631,8.17129 -11.38331,11.06507c-0.99234,0.9646 -1.14394,1.43058 -2.5277,1.41109z" fill="none" stroke="#ffffff" stroke-width="1" stroke-linecap="butt"/><path d="M207.1,213.1v-65.4h65.4v65.4z" fill="none" stroke="none" stroke-width="0" stroke-linecap="butt"/><g><path d="M240.18301,168.5141c0.0388,-0.36085 0.42883,-1.847 0.48047,-2.01074c0.19448,-0.61655 1.3195,-0.81125 2.51283,-0.43485c0.97394,0.3072 2.11579,0.82397 1.8086,1.7979c0,0 -0.46448,1.4415 -0.75268,1.58221c-0.51202,0.25001 -2.05549,-0.21104 -2.05549,-0.21104z" fill="none" stroke="#dfb035" stroke-width="1.5" stroke-linecap="butt"/><path d="M229.71676,188.1206c-2.46397,-4.22929 -1.03291,-9.65526 3.19639,-12.11922c1.2976,-0.75598 2.70786,-1.1453 4.11064,-1.19965c0.8221,-0.03185 1.70088,-6.82118 2.49368,-6.6293c0.67545,0.16347 5.00183,0.58259 5.33128,1.92928c0.22178,0.90656 -2.33824,6.30337 -1.8422,6.71134c0.79027,0.64996 1.48057,1.44882 2.02582,2.38471c2.46397,4.22929 1.03291,9.65526 -3.19639,12.11923c-4.22929,2.46397 -9.65526,1.03291 -12.11922,-3.19639z" fill="none" stroke="#e7e7e7" stroke-width="1.5" stroke-linecap="butt"/><path d="M244.7676,183.4725c-0.03369,4.04331 -3.33876,7.29374 -7.38206,7.26005c-4.04331,-0.03369 -7.29374,-3.33876 -7.26005,-7.38206" fill="#ff3030" stroke="#ff1919" stroke-width="1.5" stroke-linecap="butt"/><path d="M244.68413,183.21491c-0.00966,1.15861 -3.27606,2.0707 -7.29572,2.0372c-4.01967,-0.0335 -7.27042,-0.99989 -7.26077,-2.15851c0.00966,-1.15861 3.27606,-2.07069 7.29573,-2.03719c4.01967,0.0335 7.27042,0.99989 7.26076,2.1585z" fill="#ff3030" stroke="#ff1919" stroke-width="1.5" stroke-linecap="butt"/><path d="M248.31291,187.11313l-3.94172,2.09504l-1.78257,-9.75694l3.93434,-4.18278l4.78399,2.58997l1.78257,9.75694z" data-paper-data="{&quot;index&quot;:null}" fill="#ffffff" stroke="#725e5e" stroke-width="1" stroke-linecap="butt"/><path d="M248.72141,179.55459c1.4005,-0.13327 2.01842,1.48718 1.42854,3.12112c-0.34655,1.0375 -1.03776,1.93102 -1.96153,2.53562c-1.07944,-0.23754 -2.0436,-0.82878 -2.73558,-1.67746c-1.10458,-1.32436 -1.09966,-3.05901 0.27006,-3.43144c0.87095,-0.23682 1.70647,0.59638 1.70647,0.59638z" data-paper-data="{&quot;index&quot;:null}" fill="none" stroke="#e82c2c" stroke-width="1.5" stroke-linecap="butt"/><path d="M239.85822,167.68776c0,0 1.25343,0.76574 1.90027,0.89889c0.80889,0.1665 2.96182,0.56206 2.96182,0.56206c0,0 0.73324,1.49096 1.16846,2.60496c0.37375,0.95669 0.59304,3.52511 0.59304,3.52511" fill="none" stroke="#725e5e" stroke-width="1" stroke-linecap="round"/></g><g stroke="#7d00ff" stroke-width="1.25"><path d="M247.70083,192.91342l-4.54918,-8.82065c0,0 0.63531,-1.36254 1.80334,-2.44116c0.92204,-0.85145 2.34248,-1.38728 2.89304,-1.8957c0.82722,-0.76388 2.06325,-1.9053 2.06325,-1.9053c0,0 0.65467,0.31 0.95319,0.64586c0.29851,0.33587 0.0272,0.34947 0.70688,1.22198c0.12724,0.16332 0.92891,0.33471 1.07709,0.51157c0.3051,0.36413 -0.01421,0.75143 0.34083,1.13929c0.21333,0.23305 0.72538,0.25681 0.94162,0.49913c0.33467,0.37506 0.3716,0.96549 0.67859,1.27846c0.33539,0.34193 0.78889,0.19609 1.03868,0.43051c0.39801,0.37352 0.43167,1.32726 0.43167,1.32726l-0.65714,0.43681c0,0 -2.10715,6.34507 -4.57166,7.62275c-1.17774,0.61058 -3.15022,-0.05083 -3.15022,-0.05083z" fill="#dab2ff" stroke-linecap="butt"/><path d="M251.1615,180.04548l-1.61936,1.61937l1.9138,1.9138l-1.54576,1.54576l-2.35545,-1.32493" fill="#dab2ff" stroke-linecap="round"/><path d="M251.0879,183.06339l1.43534,-1.43535" fill="#dab2ff" stroke-linecap="round"/><path d="M251.88566,186.05746l2.29375,-2.69965" fill="#dab2ff" stroke-linecap="round"/><path d="M247.77556,179.82467l2.02422,2.02421" fill="#dab2ff" stroke-linecap="round"/><path d="M255.94598,184.90358l-2.79708,2.64988l-2.50266,-2.35545" fill="none" stroke-linecap="round"/><path d="M252.63075,191.11221v4.68527h-5.8886v-4.71088" fill="#dab2ff" stroke-linecap="round"/></g></g></g></svg>