<svg version="1.1" xmlns="http://www.w3.org/2000/svg" xmlns:xlink="http://www.w3.org/1999/xlink" width="26.37046" height="26.37046" viewBox="0,0,26.37046,26.37046"><defs><radialGradient cx="239.87761" cy="181.0131" r="4.91383" gradientUnits="userSpaceOnUse" id="color-1"><stop offset="0" stop-color="#ff3030"/><stop offset="1" stop-color="#ff3030" stop-opacity="0"/></radialGradient><radialGradient cx="239.87761" cy="181.0131" r="4.91383" gradientUnits="userSpaceOnUse" id="color-2"><stop offset="0" stop-color="#ff3030"/><stop offset="1" stop-color="#ff3030" stop-opacity="0"/></radialGradient><radialGradient cx="239.87761" cy="181.0131" r="4.91383" gradientUnits="userSpaceOnUse" id="color-3"><stop offset="0" stop-color="#ff3030"/><stop offset="1" stop-color="#ff3030" stop-opacity="0"/></radialGradient><radialGradient cx="239.87761" cy="181.0131" r="4.91383" gradientUnits="userSpaceOnUse" id="color-4"><stop offset="0" stop-color="#bb5b20"/><stop offset="1" stop-color="#bb5b20" stop-opacity="0"/></radialGradient><radialGradient cx="244.42764" cy="176.98436" r="1.77213" gradientUnits="userSpaceOnUse" id="color-5"><stop offset="0" stop-color="#ffffff"/><stop offset="1" stop-color="#ffffff" stop-opacity="0"/></radialGradient></defs><g transform="translate(-226.81477,-166.81477)"><g data-paper-data="{&quot;isPaintingLayer&quot;:true}" fill-rule="nonzero" stroke-linejoin="miter" stroke-miterlimit="10" stroke-dasharray="" stroke-dashoffset="0" style="mix-blend-mode: normal"><path d="" data-paper-data="{&quot;index&quot;:null}" fill="none" stroke="#cdcdcd" stroke-width="1.5" stroke-linecap="round"/><path d="" fill="none" stroke="#cdcdcd" stroke-width="1.5" stroke-linecap="round"/><path d="" data-paper-data="{&quot;index&quot;:null}" fill="none" stroke="#cdcdcd" stroke-width="1.5" stroke-linecap="round"/><path d="" fill="none" stroke="#cdcdcd" stroke-width="1.5" stroke-linecap="round"/><path d="" data-paper-data="{&quot;index&quot;:null}" fill="none" stroke="#cdcdcd" stroke-width="1.5" stroke-linecap="round"/><path d="" data-paper-data="{&quot;index&quot;:null}" fill="none" stroke="#cdcdcd" stroke-width="1.5" stroke-linecap="round"/><path d="" data-paper-data="{&quot;index&quot;:null}" fill="none" stroke="#cdcdcd" stroke-width="1.5" stroke-linecap="round"/><path d="" fill="none" stroke="#cdcdcd" stroke-width="1.5" stroke-linecap="round"/><path d="" data-paper-data="{&quot;index&quot;:null}" fill="none" stroke="#cdcdcd" stroke-width="1.5" stroke-linecap="round"/><path d="" data-paper-data="{&quot;index&quot;:null}" fill="none" stroke="#cdcdcd" stroke-width="1.5" stroke-linecap="round"/><path d="" fill="none" stroke="#cdcdcd" stroke-width="1.5" stroke-linecap="round"/><path d="" data-paper-data="{&quot;index&quot;:null}" fill="none" stroke="#cdcdcd" stroke-width="1.5" stroke-linecap="round"/><path d="M236.43377,177.50799c1.93582,-1.90198 5.04696,-1.87455 6.94894,0.06126c1.90198,1.93582 1.87455,5.04696 -0.06126,6.94894c-1.93582,1.90198 -5.04696,1.87455 -6.94894,-0.06126c-1.90198,-1.93582 -1.87455,-5.04696 0.06126,-6.94894z" fill="url(#color-1)" stroke="none" stroke-width="0" stroke-linecap="butt"/><path d="M236.43378,177.508c1.93582,-1.90198 5.04695,-1.87456 6.94894,0.06126c1.90198,1.93582 1.87456,5.04695 -0.06126,6.94894c-1.93582,1.90198 -5.04695,1.87456 -6.94894,-0.06126c-1.90198,-1.93582 -1.87456,-5.04695 0.06126,-6.94894z" fill="url(#color-2)" stroke="none" stroke-width="0" stroke-linecap="butt"/><path d="M236.43378,177.508c1.93582,-1.90198 5.04695,-1.87456 6.94894,0.06126c1.90198,1.93582 1.87456,5.04695 -0.06126,6.94894c-1.93582,1.90198 -5.04695,1.87456 -6.94894,-0.06126c-1.90198,-1.93582 -1.87456,-5.04695 0.06126,-6.94894z" fill="url(#color-3)" stroke="none" stroke-width="0" stroke-linecap="butt"/><path d="M236.43378,177.508c1.93582,-1.90198 5.04695,-1.87456 6.94894,0.06126c1.90198,1.93582 1.87456,5.04695 -0.06126,6.94894c-1.93582,1.90198 -5.04695,1.87456 -6.94894,-0.06126c-1.90198,-1.93582 -1.87456,-5.04695 0.06126,-6.94894z" fill="url(#color-4)" stroke="none" stroke-width="0" stroke-linecap="butt"/><path d="M237.55688,178.65108c1.30451,-1.28171 3.40104,-1.26322 4.68275,0.04128c1.28171,1.30451 1.26322,3.40104 -0.04128,4.68275c-1.30451,1.28171 -3.40104,1.26322 -4.68275,-0.04128c-1.28171,-1.30451 -1.26322,-3.40104 0.04128,-4.68275z" fill="#bb5b20" stroke="#ffffff" stroke-width="1.5" stroke-linecap="butt"/><path d="M226.81477,193.18523v-26.37046h26.37046v26.37046z" fill="none" stroke="none" stroke-width="0" stroke-linecap="butt"/><path d="M245.25094,177.56515l-1.46021,-0.09882l-0.10398,-1.20416" fill="none" stroke="#ffffff" stroke-width="0.5" stroke-linecap="round"/><path d="M244.74288,176.70122l-0.92527,0.96589l-1.18536,1.22143" fill="none" stroke="#ffffff" stroke-width="0.5" stroke-linecap="round"/><path d="M243.18565,175.72027c0.69813,-0.68593 1.82014,-0.67604 2.50607,0.02209c0.68593,0.69813 0.67604,1.82014 -0.02209,2.50607c-0.69813,0.68593 -1.82014,0.67604 -2.50607,-0.02209c-0.68593,-0.69813 -0.67604,-1.82014 0.02209,-2.50607z" fill="url(#color-5)" stroke="none" stroke-width="NaN" stroke-linecap="butt"/></g></g></svg>