<svg version="1.1" xmlns="http://www.w3.org/2000/svg" xmlns:xlink="http://www.w3.org/1999/xlink" width="91.6048" height="91.6048" viewBox="0,0,91.6048,91.6048"><g transform="translate(-194.1976,-134.1976)"><g data-paper-data="{&quot;isPaintingLayer&quot;:true}" fill-rule="nonzero" stroke-linejoin="miter" stroke-miterlimit="10" stroke-dasharray="" stroke-dashoffset="0" style="mix-blend-mode: normal"><path d="M194.1976,225.8024v-91.6048h91.6048v91.6048z" fill="none" stroke="none" stroke-width="NaN" stroke-linecap="butt"/><path d="M220.68663,159.09699c0,0 2.95568,-12.03786 4.43984,-12.2436c3.46305,-0.48006 8.23673,10.48634 8.23673,10.48634" fill="none" stroke="#3c0e47" stroke-width="5" stroke-linecap="round"/><path d="M243.56817,155.67665c0,0 2.95568,-12.03786 4.43984,-12.2436c3.46305,-0.48006 8.23673,10.48634 8.23673,10.48634" fill="none" stroke="#3c0e47" stroke-width="5" stroke-linecap="round"/><path d="M232.43808,214.22693l-4.18848,-0.80412l1.80564,-9.40523" data-paper-data="{&quot;index&quot;:null}" fill="none" stroke="#3c0e47" stroke-width="5.5" stroke-linecap="round"/><path d="M268.25428,207.59051l-3.80861,2.26072l-4.79596,-8.07969" fill="none" stroke="#3c0e47" stroke-width="5.5" stroke-linecap="round"/><path d="M222.89032,202.7777c-2.17313,-1.64368 -1.84435,-2.55053 -2.21841,-5.24896c-1.12219,-8.09531 -2.65806,-19.17478 -4.35935,-31.44763c-0.35129,-2.53418 -0.84166,-3.24283 0.7653,-5.23358c1.60696,-1.99076 2.55129,-1.84446 5.25023,-2.21859c12.08256,-1.67492 23.16876,-3.21171 30.96007,-4.29176c2.5971,-0.36002 3.37051,-0.92339 5.39483,0.74295c2.02431,1.66634 1.87059,2.73982 2.26145,5.5594c1.64854,11.89229 3.06242,22.0918 4.22418,30.47251c0.38725,2.79357 0.94531,3.58859 -0.67316,5.89826c-1.61847,2.30967 -2.39221,1.8224 -4.98931,2.18242c-2.5971,0.36002 -22.86327,3.16936 -30.96007,4.29176c-2.69894,0.37413 -3.48262,0.9369 -5.65575,-0.70678z" fill="#000000" stroke="#3c0e47" stroke-width="4.5" stroke-linecap="butt"/><path d="M225.15971,183.12051c-0.26129,-1.88491 1.0549,-3.62474 2.93982,-3.88603c1.88491,-0.26129 3.62474,1.0549 3.88603,2.93982c0.26129,1.88491 -1.0549,3.62474 -2.93982,3.88603c-1.88491,0.26129 -3.62474,-1.0549 -3.88603,-2.93982z" fill="#ffffff" stroke="none" stroke-width="0.5" stroke-linecap="butt"/><path d="M250.2975,179.33393c-0.26129,-1.88491 1.0549,-3.62474 2.93982,-3.88603c1.88491,-0.26129 3.62474,1.0549 3.88603,2.93982c0.26129,1.88491 -1.0549,3.62474 -2.93982,3.88603c-1.88491,0.26129 -3.62474,-1.0549 -3.88603,-2.93982z" fill="#ffffff" stroke="none" stroke-width="0.5" stroke-linecap="butt"/></g></g></svg>