<svg version="1.1" xmlns="http://www.w3.org/2000/svg" xmlns:xlink="http://www.w3.org/1999/xlink" width="122" height="122" viewBox="0,0,122,122"><g transform="translate(-179,-119)"><g data-paper-data="{&quot;isPaintingLayer&quot;:true}" fill-rule="nonzero" stroke-linejoin="miter" stroke-miterlimit="10" stroke-dasharray="" stroke-dashoffset="0" style="mix-blend-mode: normal"><path d="M222.325,205.1309c0,0 -5.1454,-0.50039 -9.03173,-5.23513c-5.88393,-7.16843 -7.83123,-12.63343 -9.45217,-22.9327c-1.37988,-8.76751 -0.3137,-20.35567 6.27337,-19.86852c3.72445,0.27545 6.23318,8.66419 5.64089,18.34358c-0.59228,9.67941 6.56965,29.69277 6.56965,29.69277z" fill="#cecece" stroke="#000000" stroke-width="2" stroke-linecap="butt"/><path d="M226.05549,155.7642c0,0 -9.34101,-7.83915 -8.89422,-9.33424c0.29582,-0.98992 11.74968,0.08224 11.74968,0.08224" fill="#cecece" stroke="#000000" stroke-width="2" stroke-linecap="round"/><path d="M230.54749,143.52595c0,0 -7.40937,-8.21179 -7.13177,-9.32191c0.32198,-1.28762 11.74967,0.08224 11.74967,0.08224" fill="#cecece" stroke="#000000" stroke-width="2" stroke-linecap="round"/><path d="M262.38868,148.39567c-0.0709,2.57796 0.54827,6.71357 1.44737,11.66224c0.69275,3.81286 -18.92986,7.46644 -18.09236,11.90403c0.33992,1.80107 21.15783,4.26746 21.47816,6.09257c2.88209,16.42142 4.46327,32.8941 -4.39207,32.83211c-12.55254,-0.08787 -28.46276,3.55337 -37.18568,-1.35857c-4.75005,-2.67478 -5.6979,-10.42436 -6.6585,-16.84956c-3.85698,-25.79846 15.30245,-58.95604 15.30245,-58.95604c0,0 2.2694,0.21537 5.49717,0.86055c8.02661,1.60442 22.88446,3.59465 22.60345,13.81266z" fill="#cecece" stroke="#000000" stroke-width="2" stroke-linecap="butt"/><path d="M237.34942,158.00439l5.94705,-10.27608" fill="none" stroke="#ffb0b0" stroke-width="1" stroke-linecap="round"/><path d="M264.10542,197.25848c-0.05769,8.24215 -4.49301,11.49283 -12.42056,11.43735c-7.92755,-0.05549 -14.33587,-2.70201 -14.27818,-10.94418c0.05769,-8.24216 5.86436,-15.56348 13.79191,-15.508c7.92754,0.05549 12.96453,6.77267 12.90685,15.01483z" fill="#e2e2e2" stroke="#000000" stroke-width="2" stroke-linecap="butt"/><path d="M266.51461,153.23325c0.08507,0.02622 0.17036,0.05236 0.25587,0.07841c7.64696,2.3301 17.63108,3.27497 11.42092,8.25986c-0.12845,0.10311 -0.26311,0.20635 -0.40415,0.30975c-1.83819,1.34767 -19.97189,4.93 -20.93575,9.24122c-0.45439,2.03245 16.98953,6.53951 15.83091,6.79339c-0.09633,0.0211 -0.87973,2.72713 -0.9904,2.74726c-5.893,1.07227 -31.65504,-5.24909 -32.65923,-7.77511c-2.44656,-6.15429 -0.08411,-16.18792 9.29881,-18.31139c9.38292,-2.12347 18.18301,-1.34338 18.18301,-1.34338z" fill="#e2e2e2" stroke="#000000" stroke-width="2" stroke-linecap="butt"/><path d="M279.4862,154.43197c-0.01563,2.23299 -2.33697,4.86363 -5.17766,4.84375c-2.84068,-0.01988 -5.12498,-2.68274 -5.10935,-4.91575c0.01563,-2.23299 2.6868,-2.35148 5.52748,-2.3316c2.84068,0.01988 4.77514,0.17058 4.75951,2.4036z" fill="#4d4d4d" stroke="#000000" stroke-width="2" stroke-linecap="butt"/><path d="M250.90965,171.44804l4.25342,-3.15902l0.70062,4.2448l3.04914,-2.82315l1.82542,3.94441l2.43981,-3.19686l2.10141,5.0844l3.35623,-4.27943l1.1123,5.23827l3.2048,-3.61255l0.46744,4.92252l-10.6182,-2.39855z" fill="#ffffff" stroke="#000000" stroke-width="0.5" stroke-linecap="butt"/><path d="M265.59435,165.31188l13.91846,-3.8955l1.02953,4.99552l-4.13326,-3.11441l-4.31156,1.4597l-1.27055,5.12572l-2.92482,-4.51173l-2.18264,4.89745l-2.1223,-3.36527l-1.87461,3.78455l-2.7054,-3.03987l-2.58459,3.24756l-2.06764,-2.54423z" data-paper-data="{&quot;index&quot;:null}" fill="#ffffff" stroke="#000000" stroke-width="0.5" stroke-linecap="butt"/><path d="M271.15052,177.85266c0,0 -3.53644,-2.49784 -6.47564,-2.53801c-5.42423,-0.07414 -13.1411,-3.9984 -13.1411,-3.9984" fill="none" stroke="#000000" stroke-width="2" stroke-linecap="round"/><path d="M266.58669,165.76464l0.78938,6.55991c0,0 -1.12679,0.61101 -1.92831,-0.29764c-0.97418,-1.10433 -3.38889,-5.41476 -3.38889,-5.41476" data-paper-data="{&quot;index&quot;:null}" fill="#ffffff" stroke="#000000" stroke-width="2" stroke-linecap="round"/><path d="M277.67371,162.03246c0,0 -0.13077,5.12802 -0.52118,6.54664c-0.32119,1.16721 -1.60246,1.11078 -1.60246,1.11078l-2.17267,-6.24131" fill="#ffffff" stroke="#000000" stroke-width="2" stroke-linecap="round"/><path d="M236.98011,156.8067l1.50064,1.44463" fill="none" stroke="#ffb0b0" stroke-width="1" stroke-linecap="round"/><path d="M237.74884,154.89994l1.50063,1.44462" fill="none" stroke="#ffb0b0" stroke-width="1" stroke-linecap="round"/><path d="M243.83,149.44503l-1.50064,-1.44462" fill="none" stroke="#ffb0b0" stroke-width="1" stroke-linecap="round"/><path d="M250.66382,170.78488c0,0 7.62119,-4.71051 11.28183,-4.92327c5.78457,-0.33618 15.05141,-3.56561 15.05141,-3.56561" fill="none" stroke="#000000" stroke-width="2" stroke-linecap="round"/><path d="M238.66534,150.19801l3.69575,3.79593" fill="none" stroke="#000000" stroke-width="1.5" stroke-linecap="round"/><path d="M260.10739,147.30864l-3.74852,3.74382" data-paper-data="{&quot;index&quot;:null}" fill="none" stroke="#000000" stroke-width="1.5" stroke-linecap="round"/><path d="M234.98992,211.41502c0,0 -1.60668,4.66483 -4.69979,4.9506c-1.68242,0.15543 -5.42333,-3.75136 -5.86582,-4.05295c-1.05525,-0.71924 3.52649,-5.69546 3.52649,-5.69546" fill="#cecece" stroke="#000000" stroke-width="2" stroke-linecap="round"/><path d="M268.41384,204.29936c0,0 4.20218,2.58527 3.80656,5.66628c-0.21519,1.67582 -4.84372,4.47475 -5.23456,4.84082c-0.93206,0.87301 -4.78938,-4.68363 -4.78938,-4.68363" fill="#cecece" stroke="#000000" stroke-width="2" stroke-linecap="round"/><path d="M239.72676,186.15162c0,0 -3.03548,3.88945 -6.05356,3.15449c-1.6416,-0.39975 -3.90979,-5.31021 -4.23026,-5.73925c-0.76423,-1.02315 5.18601,-4.24026 5.18601,-4.24026" fill="#cecece" stroke="#000000" stroke-width="2" stroke-linecap="round"/><path d="M267.29415,180.97053c0,0 4.51454,1.99021 4.54129,5.09637c0.01455,1.68952 -4.19064,5.09151 -4.52811,5.5073c-0.80477,0.99158 -5.38146,-3.98927 -5.38146,-3.98927" fill="#cecece" stroke="#000000" stroke-width="2" stroke-linecap="round"/><path d="M179,241v-122h122v122z" fill="none" stroke="none" stroke-width="NaN" stroke-linecap="butt"/><path d="M256.53599,147.06139l3.69574,3.79592" fill="none" stroke="#000000" stroke-width="1.5" stroke-linecap="round"/><path d="M242.76867,150.2375l-3.74851,3.74382" data-paper-data="{&quot;index&quot;:null}" fill="none" stroke="#000000" stroke-width="1.5" stroke-linecap="round"/></g></g></svg>