<svg version="1.1" xmlns="http://www.w3.org/2000/svg" xmlns:xlink="http://www.w3.org/1999/xlink" width="504.50106" height="379.33384" viewBox="0,0,504.50106,379.33384"><g transform="translate(18.25107,12.58384)"><g data-paper-data="{&quot;isPaintingLayer&quot;:true}" fill-rule="nonzero" stroke-linejoin="miter" stroke-miterlimit="10" stroke-dasharray="" stroke-dashoffset="0" style="mix-blend-mode: normal"><path d="M-6,366.5v-373h492v373z" fill="#174c17" stroke="#000000" stroke-width="0.5" stroke-linecap="butt"/><g stroke-width="2.5" stroke-linecap="butt"><path d="M3.05929,355.02312v-12.0405h4.37836v12.0405z" data-paper-data="{&quot;index&quot;:null}" fill="#5a2619" stroke="#923e29"/><path d="M-16.21046,342.98261l9.36761,-18.36936l21.40904,-0.00779l9.61376,18.37714z" data-paper-data="{&quot;index&quot;:null}" fill="#377d32" stroke="#35a32e"/><path d="M-13.15906,324.3315l17.49343,-35.46475l16.8902,35.46475z" data-paper-data="{&quot;index&quot;:null}" fill="#377d32" stroke="#35a32e"/></g><path d="M75.5,344.5v-329h329v329z" fill="#073307" stroke="none" stroke-width="0" stroke-linecap="butt"/><g fill="#1e6341" stroke="#000000" stroke-width="0" stroke-linecap="butt"><path d="M201.56666,138.45558v-37h37v37z"/><path d="M161.43333,178.54447v-37h37v37z"/><path d="M121.56666,138.45558v-37h37v37z"/><path d="M81.43333,178.54447v-37h37v37z"/><path d="M201.56666,58.45557v-37h37v37z"/><path d="M161.43333,98.54447v-37h37v37z"/><path d="M121.56666,58.45557v-37h37v37z"/><path d="M81.43333,98.54447v-37h37v37z"/><path d="M361.56666,138.45558v-37h37v37z"/><path d="M321.43333,178.54447v-37h37v37z"/><path d="M281.56666,138.45558v-37h37v37z"/><path d="M241.43333,178.54447v-37h37v37z"/><path d="M361.56666,58.45557v-37h37v37z"/><path d="M321.43333,98.54447v-37h37v37z"/><path d="M281.56666,58.45557v-37h37v37z"/><path d="M241.43333,98.54447v-37h37v37z"/><path d="M201.56666,298.45556v-37h37v37z"/><path d="M161.43333,338.54446v-37h37v37z"/><path d="M121.56666,298.45556v-37h37v37z"/><path d="M81.43333,338.54446v-37h37v37z"/><path d="M201.56666,218.45558v-37h37v37z"/><path d="M161.43333,258.54447v-37h37v37z"/><path d="M121.56666,218.45558v-37h37v37z"/><path d="M81.43333,258.54447v-37h37v37z"/><path d="M361.56666,298.45556v-37h37v37z"/><path d="M321.43333,338.54446v-37h37v37z"/><path d="M281.56666,298.45556v-37h37v37z"/><path d="M241.43333,338.54446v-37h37v37z"/><path d="M361.56666,218.45558v-37h37v37z"/><path d="M321.43333,258.54447v-37h37v37z"/><path d="M281.56666,218.45558v-37h37v37z"/><path d="M241.43333,258.54447v-37h37v37z"/></g><g fill="#2d510d" stroke="#000000" stroke-width="0" stroke-linecap="butt"><path d="M161.43333,138.54447v-37h37v37z"/><path d="M201.56667,178.45558v-37h37v37z"/><path d="M81.43333,138.54447v-37h37v37z"/><path d="M121.56667,178.45558v-37h37v37z"/><path d="M161.43333,58.54447v-37h37v37z"/><path d="M201.56667,98.45558v-37h37v37z"/><path d="M81.43333,58.54447v-37h37v37z"/><path d="M121.56667,98.45558v-37h37v37z"/><path d="M321.43333,138.54447v-37h37v37z"/><path d="M361.56667,178.45558v-37h37v37z"/><path d="M241.43333,138.54447v-37h37v37z"/><path d="M281.56667,178.45558v-37h37v37z"/><path d="M321.43333,58.54447v-37h37v37z"/><path d="M361.56667,98.45558v-37h37v37z"/><path d="M241.43333,58.54447v-37h37v37z"/><path d="M281.56667,98.45558v-37h37v37z"/><path d="M161.43333,298.54445v-37h37v37z"/><path d="M201.56667,338.45557v-37h37v37z"/><path d="M81.43333,298.54445v-37h37v37z"/><path d="M121.56667,338.45557v-37h37v37z"/><path d="M161.43333,218.54447v-37h37v37z"/><path d="M201.56667,258.45556v-37h37v37z"/><path d="M81.43333,218.54447v-37h37v37z"/><path d="M121.56667,258.45556v-37h37v37z"/><path d="M321.43333,298.54445v-37h37v37z"/><path d="M361.56667,338.45557v-37h37v37z"/><path d="M241.43333,298.54445v-37h37v37z"/><path d="M281.56667,338.45557v-37h37v37z"/><path d="M321.43333,218.54447v-37h37v37z"/><path d="M361.56667,258.45556v-37h37v37z"/><path d="M241.43333,218.54447v-37h37v37z"/><path d="M281.56667,258.45556v-37h37v37z"/></g><path d="M430.92371,262.45051v-22.97945h8.35616v22.97945z" data-paper-data="{&quot;index&quot;:null}" fill="#5a2619" stroke="#923e29" stroke-width="2.5" stroke-linecap="butt"/><path d="M410.03326,239.47106l11.9188,-23.3721l27.23962,-0.00991l12.23199,23.38201z" data-paper-data="{&quot;index&quot;:null}" fill="#377d32" stroke="#35a32e" stroke-width="2.5" stroke-linecap="butt"/><path d="M6.71775,239.7443c0,-5.17767 4.19733,-9.375 9.375,-9.375c3.0368,0 5.73635,1.44389 7.4496,3.68261c1.66452,-1.5115 3.87489,-2.43261 6.30041,-2.43261c5.17767,0 9.375,4.19733 9.375,9.375c0,0.38407 -0.0231,0.76275 -0.06798,1.13473c3.67669,1.2676 6.31798,4.75798 6.31798,8.86527c0,5.17767 -4.19733,9.375 -9.375,9.375c-11.46688,0 -17.90812,-0.625 -29.375,-0.625c-5.17767,0 -9.375,-4.19733 -9.375,-9.375c0,-5.17767 4.19733,-9.375 9.375,-9.375c0.02758,0 0.05513,0.00012 0.08265,0.00035c-0.05452,-0.40904 -0.08265,-0.82641 -0.08265,-1.25035z" fill="#377d32" stroke="#35a32e" stroke-width="2" stroke-linecap="butt"/><path d="M456.73196,310.65994c0.03052,-0.00026 0.06106,-0.0004 0.09163,-0.0004c5.74027,0 10.39367,4.6534 10.39367,10.39367c0,5.74027 -4.65341,10.39366 -10.39367,10.39366c-12.71285,0 -19.85397,0.69291 -32.56683,0.69291c-5.74027,0 -10.39367,-4.65341 -10.39367,-10.39367c0,-4.55358 2.92829,-8.42323 7.00448,-9.82856c-0.04976,-0.41238 -0.07537,-0.83221 -0.07537,-1.25802c0,-5.74027 4.6534,-10.39367 10.39367,-10.39367c2.68907,0 5.13961,1.0212 6.985,2.69693c1.8994,-2.48197 4.89229,-4.08276 8.25905,-4.08276c5.74027,0 10.39366,4.6534 10.39366,10.39367c0,0.47001 -0.0312,0.93274 -0.09163,1.38622z" data-paper-data="{&quot;index&quot;:null}" fill="#377d32" stroke="#35a32e" stroke-width="2" stroke-linecap="butt"/><g fill="none" stroke="#35a32e" stroke-width="2" stroke-linecap="round"><path d="M433.97923,134.95419c0,0 -2.81553,-1.30182 -5.37749,-0.69885c-1.9631,0.46202 -6.21742,3.42775 -6.21742,3.42775c0,0 1.43743,-6.43184 2.80372,-8.15726c1.54548,-1.95171 4.65732,-1.26492 4.65732,-1.26492" data-paper-data="{&quot;origRot&quot;:0,&quot;index&quot;:null}"/><path d="M422.07933,137.32364c0,0 0.07242,-7.70626 1.39606,-11.37512c0.44121,-1.22296 4.22942,-4.21756 4.22942,-4.21756" data-paper-data="{&quot;origRot&quot;:0,&quot;index&quot;:null}"/><path d="M412.5439,128.5331c0,0 3.04859,-0.92803 4.74197,0.89683c1.49703,1.61329 3.43306,7.91302 3.43306,7.91302c0,0 -4.47322,-2.62395 -6.46644,-2.93103c-2.60126,-0.40076 -5.30637,1.11726 -5.30637,1.11726" data-paper-data="{&quot;index&quot;:null,&quot;origRot&quot;:0}"/><path d="M414.16725,121.85577c0,0 4.01079,2.68918 4.5463,3.87389c1.60651,3.55411 2.28136,11.23111 2.28136,11.23111" data-paper-data="{&quot;index&quot;:null,&quot;origRot&quot;:0}"/></g><g fill="none" stroke="#3b7a36" stroke-width="2" stroke-linecap="round"><path d="M420.34482,295.35144c0,0 -2.81553,-1.38342 -5.37749,-0.74265c-1.9631,0.49098 -6.21742,3.64263 -6.21742,3.64263c0,0 1.43743,-6.83504 2.80372,-8.66862c1.54548,-2.07406 4.65732,-1.34422 4.65732,-1.34422" data-paper-data="{&quot;origRot&quot;:0,&quot;index&quot;:null}"/><path d="M408.44493,297.86943c0,0 0.07242,-8.18934 1.39606,-12.08819c0.44121,-1.29962 4.22942,-4.48195 4.22942,-4.48195" data-paper-data="{&quot;origRot&quot;:0,&quot;index&quot;:null}"/><path d="M398.90952,288.52784c0,0 3.04859,-0.98621 4.74197,0.95305c1.49703,1.71443 3.43306,8.40906 3.43306,8.40906c0,0 -4.47322,-2.78843 -6.46644,-3.11477c-2.60126,-0.42588 -5.30637,1.1873 -5.30637,1.1873" data-paper-data="{&quot;index&quot;:null,&quot;origRot&quot;:0}"/><path d="M400.53284,281.43192c0,0 4.01079,2.85776 4.5463,4.11674c1.60651,3.77691 2.28136,11.93516 2.28136,11.93516" data-paper-data="{&quot;index&quot;:null,&quot;origRot&quot;:0}"/></g><g fill="none" stroke="#3b7a36" stroke-width="2" stroke-linecap="round"><path d="M131.81443,354.21507c0,0 -2.81553,-1.38342 -5.37749,-0.74265c-1.9631,0.49098 -6.21742,3.64263 -6.21742,3.64263c0,0 1.43743,-6.83504 2.80372,-8.66862c1.54548,-2.07406 4.65732,-1.34421 4.65732,-1.34421" data-paper-data="{&quot;origRot&quot;:0,&quot;index&quot;:null}"/><path d="M119.91453,356.73306c0,0 0.07242,-8.18935 1.39606,-12.0882c0.44121,-1.29962 4.22942,-4.48195 4.22942,-4.48195" data-paper-data="{&quot;origRot&quot;:0,&quot;index&quot;:null}"/><path d="M110.37912,347.39147c0,0 3.04859,-0.98621 4.74197,0.95305c1.49703,1.71443 3.43306,8.40906 3.43306,8.40906c0,0 -4.47322,-2.78843 -6.46644,-3.11476c-2.60126,-0.42588 -5.30637,1.18729 -5.30637,1.18729" data-paper-data="{&quot;index&quot;:null,&quot;origRot&quot;:0}"/><path d="M112.00244,340.29555c0,0 4.01079,2.85776 4.5463,4.11674c1.60651,3.77691 2.28136,11.93516 2.28136,11.93516" data-paper-data="{&quot;index&quot;:null,&quot;origRot&quot;:0}"/></g><path d="M460.12634,179.71146c-3.78162,-3.49806 -8.48415,-8.4315 -7.03809,-10.43141c3.25082,-4.4959 10.49868,-14.04649 17.89649,-8.69741c2.95314,2.13531 9.68063,4.50326 11.18357,7.08827c2.04134,3.51106 0.59651,8.57089 -1.14028,11.5099z" data-paper-data="{&quot;index&quot;:null}" fill="#7d7d7d" stroke="#727272" stroke-width="2" stroke-linecap="butt"/><path d="M39.40528,291.51495c-2.11132,1.13152 -5.4844,2.38044 -6.51224,2.38044c-2.21387,0 -6.11681,-1.16769 -7.33046,-3.89916c-0.80639,-1.81486 0.53721,-6.35716 0.53721,-8.77754c0,-6.06319 7.96075,-6.24736 11.64557,-6.24736c2.80397,0 3.22609,8.95196 3.26767,13.23182" fill="#7d7d7d" stroke="#727272" stroke-width="2" stroke-linecap="butt"/><path d="M45.12883,292.03222c0,1.05623 0.58633,3.03842 0.23444,3.8304c-0.52962,1.19197 -2.23282,1.70154 -3.19892,1.70154c-0.6051,0 -3.07283,-0.99192 -3.53847,-1.51179c0,0 -0.69347,-7.42167 0.91455,-7.42167c1.60802,0 5.5884,2.34529 5.5884,3.40152z" data-paper-data="{&quot;index&quot;:null}" fill="#7d7d7d" stroke="#727272" stroke-width="2" stroke-linecap="butt"/><path d="M413.91569,215.74047l22.25762,-45.12329l21.49011,45.12329z" data-paper-data="{&quot;index&quot;:null}" fill="#377d32" stroke="#35a32e" stroke-width="2.5" stroke-linecap="butt"/><path d="M467.05448,284.60337c0,1.23358 0.712,3.5486 0.28469,4.47356c-0.64313,1.39211 -2.71138,1.98724 -3.88454,1.98724c-0.73479,0 -3.73143,-1.15847 -4.29687,-1.76563c0,0 -0.8421,-8.66783 1.11057,-8.66783c1.95267,0 6.78616,2.73908 6.78616,3.97266z" data-paper-data="{&quot;index&quot;:null}" fill="#7d7d7d" stroke="#727272" stroke-width="2" stroke-linecap="butt"/><g stroke-width="2.5" stroke-linecap="butt"><path d="M38.42371,185.95051v-22.97945h8.35616v22.97945z" data-paper-data="{&quot;index&quot;:null}" fill="#5a2619" stroke="#923e29"/><path d="M17.53326,162.97106l11.9188,-23.3721l27.23962,-0.00991l12.23199,23.38201z" data-paper-data="{&quot;index&quot;:null}" fill="#377d32" stroke="#35a32e"/><path d="M21.41569,139.24047l22.25762,-45.12329l21.49011,45.12329z" data-paper-data="{&quot;index&quot;:null}" fill="#377d32" stroke="#35a32e"/></g><g><path d="M63.79823,307.72208l-4.38538,5.28796l-4.74005,-4.94186" fill="none" stroke="#588429" stroke-width="2.5" stroke-linecap="round"/><path d="M56.01172,305.04297c0,-1.933 1.567,-3.5 3.5,-3.5c1.933,0 3.5,1.567 3.5,3.5c0,1.933 -1.567,3.5 -3.5,3.5c-1.933,0 -3.5,-1.567 -3.5,-3.5z" fill="#c7c7c7" stroke="none" stroke-width="0.5" stroke-linecap="butt"/></g><g><path d="M16.29823,187.72208l-4.38538,5.28796l-4.74005,-4.94186" fill="none" stroke="#588429" stroke-width="2.5" stroke-linecap="round"/><path d="M8.51172,185.04297c0,-1.933 1.567,-3.5 3.5,-3.5c1.933,0 3.5,1.567 3.5,3.5c0,1.933 -1.567,3.5 -3.5,3.5c-1.933,0 -3.5,-1.567 -3.5,-3.5z" fill="#c7c7c7" stroke="none" stroke-width="0.5" stroke-linecap="butt"/></g><g><path d="M73.79823,114.72208l-4.38538,5.28796l-4.74005,-4.94186" fill="none" stroke="#588429" stroke-width="2.5" stroke-linecap="round"/><path d="M66.01172,112.04297c0,-1.933 1.567,-3.5 3.5,-3.5c1.933,0 3.5,1.567 3.5,3.5c0,1.933 -1.567,3.5 -3.5,3.5c-1.933,0 -3.5,-1.567 -3.5,-3.5z" fill="#c7c7c7" stroke="none" stroke-width="0.5" stroke-linecap="butt"/></g><g><path d="M417.79823,157.22208l-4.38538,5.28796l-4.74005,-4.94186" fill="none" stroke="#588429" stroke-width="2.5" stroke-linecap="round"/><path d="M410.01172,154.54297c0,-1.933 1.567,-3.5 3.5,-3.5c1.933,0 3.5,1.567 3.5,3.5c0,1.933 -1.567,3.5 -3.5,3.5c-1.933,0 -3.5,-1.567 -3.5,-3.5z" fill="#c7c7c7" stroke="none" stroke-width="0.5" stroke-linecap="butt"/></g><g><path d="M475.29823,101.22208l-4.38538,5.28796l-4.74005,-4.94186" fill="none" stroke="#588429" stroke-width="2.5" stroke-linecap="round"/><path d="M467.51172,98.54297c0,-1.933 1.567,-3.5 3.5,-3.5c1.933,0 3.5,1.567 3.5,3.5c0,1.933 -1.567,3.5 -3.5,3.5c-1.933,0 -3.5,-1.567 -3.5,-3.5z" fill="#c7c7c7" stroke="none" stroke-width="0.5" stroke-linecap="butt"/></g><g><path d="M471.29823,343.72208l-4.38538,5.28796l-4.74005,-4.94186" fill="none" stroke="#588429" stroke-width="2.5" stroke-linecap="round"/><path d="M463.51172,341.04297c0,-1.933 1.567,-3.5 3.5,-3.5c1.933,0 3.5,1.567 3.5,3.5c0,1.933 -1.567,3.5 -3.5,3.5c-1.933,0 -3.5,-1.567 -3.5,-3.5z" fill="#c7c7c7" stroke="none" stroke-width="0.5" stroke-linecap="butt"/></g><g><path d="M473.79823,224.72208l-4.38538,5.28796l-4.74005,-4.94186" fill="none" stroke="#588429" stroke-width="2.5" stroke-linecap="round"/><path d="M466.01172,222.04297c0,-1.933 1.567,-3.5 3.5,-3.5c1.933,0 3.5,1.567 3.5,3.5c0,1.933 -1.567,3.5 -3.5,3.5c-1.933,0 -3.5,-1.567 -3.5,-3.5z" fill="#c7c7c7" stroke="none" stroke-width="0.5" stroke-linecap="butt"/></g><g><path d="M60.29823,221.22208l-4.38538,5.28796l-4.74005,-4.94186" fill="none" stroke="#588429" stroke-width="2.5" stroke-linecap="round"/><path d="M52.51172,218.54297c0,-1.933 1.567,-3.5 3.5,-3.5c1.933,0 3.5,1.567 3.5,3.5c0,1.933 -1.567,3.5 -3.5,3.5c-1.933,0 -3.5,-1.567 -3.5,-3.5z" fill="#c7c7c7" stroke="none" stroke-width="0.5" stroke-linecap="butt"/></g><g><path d="M40.79823,344.22208l-4.38538,5.28796l-4.74005,-4.94186" fill="none" stroke="#588429" stroke-width="2.5" stroke-linecap="round"/><path d="M33.01172,341.54297c0,-1.933 1.567,-3.5 3.5,-3.5c1.933,0 3.5,1.567 3.5,3.5c0,1.933 -1.567,3.5 -3.5,3.5c-1.933,0 -3.5,-1.567 -3.5,-3.5z" fill="#c7c7c7" stroke="none" stroke-width="0.5" stroke-linecap="butt"/></g><g fill="#35845e" stroke="#12733e" stroke-width="1" stroke-linecap="butt"><g><g><g><path d="M12.75134,37.10025c-0.53101,-0.8274 -0.14659,-3.26856 0.85861,-5.45248c1.00521,-2.18392 2.25054,-3.28359 2.78156,-2.45618c0.53102,0.8274 0.14659,3.26856 -0.85861,5.45248c-1.00521,2.18392 -2.25054,3.28359 -2.78156,2.45618z"/><path d="M18.62437,38.28148c-1.0837,-2.0529 -1.55757,-4.44023 -1.05841,-5.33224c0.49915,-0.89202 1.78231,0.04906 2.86601,2.10197c1.0837,2.0529 1.55757,4.44023 1.05841,5.33225c-0.49916,0.89202 -1.78231,-0.04906 -2.86601,-2.10196z" data-paper-data="{&quot;index&quot;:null}"/><path d="M12.80074,46.46388c-0.53101,-0.8274 -0.14661,-3.26856 0.8586,-5.45248c1.00521,-2.18392 2.25055,-3.28359 2.78157,-2.45619c0.53102,0.8274 0.14661,3.26857 -0.8586,5.45249c-1.00521,2.18392 -2.25055,3.28359 -2.78157,2.45618z"/><path d="M18.67377,47.64512c-1.0837,-2.0529 -1.55757,-4.44023 -1.05842,-5.33224c0.49916,-0.89202 1.78231,0.04907 2.86601,2.10197c1.0837,2.0529 1.55757,4.44022 1.05842,5.33224c-0.49916,0.89202 -1.78231,-0.04906 -2.86601,-2.10196z" data-paper-data="{&quot;index&quot;:null}"/></g><g><path d="M12.75134,55.85025c-0.53101,-0.8274 -0.14659,-3.26856 0.85861,-5.45248c1.00521,-2.18392 2.25054,-3.28359 2.78156,-2.45618c0.53102,0.8274 0.14659,3.26856 -0.85861,5.45248c-1.00521,2.18392 -2.25054,3.28359 -2.78156,2.45618z"/><path d="M18.62437,57.03148c-1.0837,-2.0529 -1.55757,-4.44023 -1.05841,-5.33224c0.49915,-0.89202 1.78231,0.04906 2.86601,2.10197c1.0837,2.0529 1.55757,4.44023 1.05841,5.33224c-0.49916,0.89202 -1.78231,-0.04906 -2.86601,-2.10196z" data-paper-data="{&quot;index&quot;:null}"/><path d="M12.80074,65.21388c-0.53101,-0.8274 -0.14661,-3.26856 0.8586,-5.45248c1.00521,-2.18392 2.25055,-3.28359 2.78157,-2.45618c0.53102,0.82741 0.14661,3.26857 -0.8586,5.45249c-1.00521,2.18392 -2.25055,3.28359 -2.78157,2.45618z"/><path d="M18.67377,66.39512c-1.0837,-2.0529 -1.55757,-4.44023 -1.05842,-5.33224c0.49916,-0.89202 1.78231,0.04907 2.86601,2.10197c1.0837,2.0529 1.55757,4.44022 1.05842,5.33224c-0.49916,0.89202 -1.78231,-0.04906 -2.86601,-2.10196z" data-paper-data="{&quot;index&quot;:null}"/></g></g><g><g><path d="M12.75134,-0.52475c-0.53101,-0.8274 -0.14659,-3.26856 0.85861,-5.45248c1.00521,-2.18392 2.25054,-3.28359 2.78156,-2.45618c0.53102,0.82741 0.14659,3.26856 -0.85861,5.45248c-1.00521,2.18392 -2.25054,3.28359 -2.78156,2.45619z"/><path d="M18.62437,0.65648c-1.0837,-2.0529 -1.55757,-4.44023 -1.05841,-5.33224c0.49915,-0.89201 1.78231,0.04906 2.86601,2.10197c1.0837,2.0529 1.55757,4.44023 1.05841,5.33225c-0.49916,0.89202 -1.78231,-0.04907 -2.86601,-2.10196z" data-paper-data="{&quot;index&quot;:null}"/><path d="M12.80074,8.83888c-0.53101,-0.82741 -0.14661,-3.26856 0.8586,-5.45248c1.00521,-2.18392 2.25055,-3.28359 2.78157,-2.45619c0.53102,0.8274 0.14661,3.26857 -0.8586,5.45249c-1.00521,2.18392 -2.25055,3.28358 -2.78157,2.45618z"/><path d="M18.67377,10.02012c-1.0837,-2.0529 -1.55757,-4.44023 -1.05842,-5.33224c0.49916,-0.89202 1.78231,0.04907 2.86601,2.10197c1.0837,2.0529 1.55757,4.44023 1.05842,5.33224c-0.49916,0.89202 -1.78231,-0.04906 -2.86601,-2.10196z" data-paper-data="{&quot;index&quot;:null}"/></g><g><path d="M12.75134,18.22525c-0.53101,-0.8274 -0.14659,-3.26856 0.85861,-5.45248c1.00521,-2.18392 2.25054,-3.28359 2.78156,-2.45619c0.53102,0.8274 0.14659,3.26856 -0.85861,5.45248c-1.00521,2.18392 -2.25054,3.28359 -2.78156,2.45619z"/><path d="M18.62437,19.40648c-1.0837,-2.0529 -1.55757,-4.44023 -1.05841,-5.33224c0.49915,-0.89202 1.78231,0.04906 2.86601,2.10197c1.0837,2.0529 1.55757,4.44023 1.05841,5.33224c-0.49916,0.89202 -1.78231,-0.04906 -2.86601,-2.10196z" data-paper-data="{&quot;index&quot;:null}"/><path d="M12.80074,27.58888c-0.53101,-0.8274 -0.14661,-3.26856 0.8586,-5.45248c1.00521,-2.18392 2.25055,-3.28359 2.78157,-2.45618c0.53102,0.8274 0.14661,3.26856 -0.8586,5.45248c-1.00521,2.18392 -2.25055,3.28359 -2.78157,2.45618z"/><path d="M18.67377,28.77011c-1.0837,-2.0529 -1.55757,-4.44023 -1.05842,-5.33224c0.49916,-0.89202 1.78231,0.04907 2.86601,2.10197c1.0837,2.0529 1.55757,4.44022 1.05842,5.33224c-0.49916,0.89202 -1.78231,-0.04906 -2.86601,-2.10196z" data-paper-data="{&quot;index&quot;:null}"/></g></g></g><g><g><g><path d="M12.75134,112.16275c-0.53101,-0.8274 -0.14659,-3.26856 0.85861,-5.45248c1.00521,-2.18392 2.25054,-3.28359 2.78156,-2.45619c0.53102,0.8274 0.14659,3.26856 -0.85861,5.45248c-1.00521,2.18392 -2.25054,3.28359 -2.78156,2.45619z"/><path d="M18.62437,113.34398c-1.0837,-2.0529 -1.55757,-4.44023 -1.05841,-5.33224c0.49915,-0.89202 1.78231,0.04906 2.86601,2.10196c1.0837,2.0529 1.55757,4.44023 1.05841,5.33225c-0.49916,0.89202 -1.78231,-0.04906 -2.86601,-2.10196z" data-paper-data="{&quot;index&quot;:null}"/><path d="M12.80074,121.52638c-0.53101,-0.8274 -0.14661,-3.26856 0.8586,-5.45248c1.00521,-2.18392 2.25055,-3.28359 2.78157,-2.45618c0.53102,0.8274 0.14661,3.26856 -0.8586,5.45248c-1.00521,2.18392 -2.25055,3.28358 -2.78157,2.45618z"/><path d="M18.67377,122.70762c-1.0837,-2.0529 -1.55757,-4.44023 -1.05842,-5.33224c0.49916,-0.89202 1.78231,0.04907 2.86601,2.10197c1.0837,2.0529 1.55757,4.44023 1.05842,5.33224c-0.49916,0.89201 -1.78231,-0.04907 -2.86601,-2.10197z" data-paper-data="{&quot;index&quot;:null}"/></g><g><path d="M12.75134,130.91275c-0.53101,-0.8274 -0.14659,-3.26856 0.85861,-5.45248c1.00521,-2.18392 2.25054,-3.28359 2.78156,-2.45619c0.53102,0.8274 0.14659,3.26856 -0.85861,5.45248c-1.00521,2.18392 -2.25054,3.28359 -2.78156,2.45619z"/><path d="M18.62437,132.09398c-1.0837,-2.0529 -1.55757,-4.44023 -1.05841,-5.33224c0.49915,-0.89201 1.78231,0.04907 2.86601,2.10197c1.0837,2.0529 1.55757,4.44023 1.05841,5.33225c-0.49916,0.89201 -1.78231,-0.04907 -2.86601,-2.10197z" data-paper-data="{&quot;index&quot;:null}"/><path d="M12.80074,140.27638c-0.53101,-0.8274 -0.14661,-3.26856 0.8586,-5.45248c1.00521,-2.18392 2.25055,-3.28359 2.78157,-2.45619c0.53102,0.8274 0.14661,3.26856 -0.8586,5.45248c-1.00521,2.18392 -2.25055,3.28358 -2.78157,2.45618z"/><path d="M18.67377,141.45762c-1.0837,-2.0529 -1.55757,-4.44023 -1.05842,-5.33224c0.49916,-0.89201 1.78231,0.04907 2.86601,2.10197c1.0837,2.0529 1.55757,4.44023 1.05842,5.33224c-0.49916,0.89201 -1.78231,-0.04907 -2.86601,-2.10197z" data-paper-data="{&quot;index&quot;:null}"/></g></g><g><g><path d="M12.75134,74.53775c-0.53101,-0.8274 -0.14659,-3.26856 0.85861,-5.45248c1.00521,-2.18392 2.25054,-3.28359 2.78156,-2.45619c0.53102,0.8274 0.14659,3.26856 -0.85861,5.45248c-1.00521,2.18392 -2.25054,3.28359 -2.78156,2.45619z"/><path d="M18.62437,75.71898c-1.0837,-2.0529 -1.55757,-4.44023 -1.05841,-5.33224c0.49915,-0.89202 1.78231,0.04906 2.86601,2.10196c1.0837,2.0529 1.55757,4.44023 1.05841,5.33225c-0.49916,0.89202 -1.78231,-0.04906 -2.86601,-2.10196z" data-paper-data="{&quot;index&quot;:null}"/><path d="M12.80074,83.90138c-0.53101,-0.8274 -0.14661,-3.26856 0.8586,-5.45248c1.00521,-2.18392 2.25055,-3.28359 2.78157,-2.45618c0.53102,0.8274 0.14661,3.26856 -0.8586,5.45248c-1.00521,2.18392 -2.25055,3.28359 -2.78157,2.45618z"/><path d="M18.67377,85.08262c-1.0837,-2.0529 -1.55757,-4.44023 -1.05842,-5.33224c0.49916,-0.89202 1.78231,0.04907 2.86601,2.10197c1.0837,2.0529 1.55757,4.44022 1.05842,5.33224c-0.49916,0.89202 -1.78231,-0.04906 -2.86601,-2.10196z" data-paper-data="{&quot;index&quot;:null}"/></g><g><path d="M12.75134,93.28775c-0.53101,-0.8274 -0.14659,-3.26856 0.85861,-5.45248c1.00521,-2.18392 2.25054,-3.28359 2.78156,-2.45619c0.53102,0.8274 0.14659,3.26856 -0.85861,5.45248c-1.00521,2.18392 -2.25054,3.28359 -2.78156,2.45619z"/><path d="M18.62437,94.46898c-1.0837,-2.0529 -1.55757,-4.44023 -1.05841,-5.33224c0.49915,-0.89202 1.78231,0.04906 2.86601,2.10196c1.0837,2.0529 1.55757,4.44023 1.05841,5.33225c-0.49916,0.89202 -1.78231,-0.04906 -2.86601,-2.10196z" data-paper-data="{&quot;index&quot;:null}"/><path d="M12.80074,102.65138c-0.53101,-0.8274 -0.14661,-3.26856 0.8586,-5.45248c1.00521,-2.18392 2.25055,-3.28359 2.78157,-2.45618c0.53102,0.8274 0.14661,3.26856 -0.8586,5.45248c-1.00521,2.18392 -2.25055,3.28359 -2.78157,2.45618z"/><path d="M18.67377,103.83262c-1.0837,-2.0529 -1.55757,-4.44023 -1.05842,-5.33224c0.49916,-0.89202 1.78231,0.04907 2.86601,2.10197c1.0837,2.0529 1.55757,4.44022 1.05842,5.33224c-0.49916,0.89202 -1.78231,-0.04906 -2.86601,-2.10196z" data-paper-data="{&quot;index&quot;:null}"/></g></g></g></g><g data-paper-data="{&quot;index&quot;:null}" fill="#35845e" stroke="#12733e" stroke-width="1" stroke-linecap="butt"><g><path d="M77.33369,2.01907c-1.0052,2.18392 -2.25056,3.28358 -2.78156,2.45618c-0.53101,-0.82741 -0.1466,-3.26856 0.8586,-5.45248c1.0052,-2.18393 2.25056,-3.28359 2.78156,-2.45619c0.53101,0.82741 0.1466,3.26856 -0.8586,5.45248z"/><path d="M83.29118,7.75845c-0.49916,0.89201 -1.78231,-0.04907 -2.86601,-2.10197c-1.0837,-2.0529 -1.55758,-4.44023 -1.05842,-5.33224c0.49916,-0.89202 1.78231,0.04906 2.86601,2.10196c1.0837,2.0529 1.55757,4.44023 1.05841,5.33225z" data-paper-data="{&quot;index&quot;:null}"/><path d="M77.38311,11.3827c-1.00521,2.18392 -2.25056,3.28358 -2.78157,2.45618c-0.53101,-0.8274 -0.1466,-3.26856 0.8586,-5.45248c1.0052,-2.18392 2.25056,-3.28359 2.78156,-2.45619c0.531,0.82741 0.1466,3.26857 -0.8586,5.45249z"/><path d="M83.34058,17.12208c-0.49916,0.89202 -1.78231,-0.04906 -2.86601,-2.10196c-1.0837,-2.0529 -1.55757,-4.44023 -1.05842,-5.33225c0.49914,-0.89202 1.78231,0.04907 2.86601,2.10197c1.0837,2.0529 1.55757,4.44023 1.05841,5.33224z" data-paper-data="{&quot;index&quot;:null}"/></g><g><path d="M74.55213,23.22525c-0.53101,-0.82741 -0.1466,-3.26856 0.8586,-5.45248c1.0052,-2.18393 2.25056,-3.28359 2.78156,-2.45619c0.53101,0.82741 0.1466,3.26856 -0.8586,5.45248c-1.0052,2.18392 -2.25056,3.28359 -2.78156,2.45619z"/><path d="M83.29118,26.50845c-0.49916,0.89201 -1.78231,-0.04907 -2.86601,-2.10197c-1.0837,-2.0529 -1.55758,-4.44023 -1.05842,-5.33224c0.49916,-0.89202 1.78231,0.04906 2.86601,2.10196c1.0837,2.0529 1.55757,4.44023 1.05841,5.33225z" data-paper-data="{&quot;index&quot;:null}"/><path d="M77.38311,30.1327c-1.00521,2.18392 -2.25056,3.28358 -2.78157,2.45618c-0.53101,-0.8274 -0.1466,-3.26856 0.8586,-5.45248c1.0052,-2.18392 2.25056,-3.28359 2.78156,-2.45619c0.531,0.82741 0.1466,3.26857 -0.8586,5.45249z"/><path d="M83.34058,35.87208c-0.49916,0.89202 -1.78231,-0.04906 -2.86601,-2.10196c-1.0837,-2.0529 -1.55757,-4.44023 -1.05842,-5.33225c0.49914,-0.89202 1.78231,0.04907 2.86601,2.10197c1.0837,2.0529 1.55757,4.44023 1.05841,5.33224z" data-paper-data="{&quot;index&quot;:null}"/></g></g><g data-paper-data="{&quot;index&quot;:null}" fill="#35845e" stroke="#12733e" stroke-width="1" stroke-linecap="butt"><g><g><g><path d="M459.46711,38.64406c-1.0052,-2.18392 -1.38962,-4.62508 -0.85861,-5.45248c0.531,-0.8274 1.77636,0.27226 2.78156,2.45618c1.0052,2.18392 1.38962,4.62508 0.85861,5.45248c-0.531,0.8274 -1.77636,-0.27226 -2.78156,-2.45618z"/><path d="M453.50963,44.38345c-0.49915,-0.89202 -0.02529,-3.27934 1.05841,-5.33224c1.0837,-2.0529 2.36686,-2.99398 2.86601,-2.10196c0.49915,0.89202 0.02528,3.27934 -1.05842,5.33225c-1.0837,2.0529 -2.36685,2.99398 -2.86601,2.10197z" data-paper-data="{&quot;index&quot;:null}"/><path d="M459.41769,48.0077c-1.0052,-2.18392 -1.3896,-4.62508 -0.8586,-5.45249c0.531,-0.8274 1.77636,0.27227 2.78156,2.45619c1.0052,2.18392 1.38962,4.62508 0.8586,5.45248c-0.531,0.8274 -1.77636,-0.27226 -2.78157,-2.45618z"/><path d="M453.46022,53.74708c-0.49915,-0.89202 -0.02528,-3.27934 1.05842,-5.33224c1.0837,-2.0529 2.36686,-2.99399 2.86601,-2.10197c0.49915,0.89202 0.02528,3.27934 -1.05842,5.33225c-1.0837,2.0529 -2.36685,2.99398 -2.86601,2.10197z" data-paper-data="{&quot;index&quot;:null}"/></g><g><path d="M459.46711,57.39406c-1.0052,-2.18392 -1.38962,-4.62507 -0.85861,-5.45248c0.531,-0.8274 1.77636,0.27227 2.78156,2.45619c1.0052,2.18392 1.38962,4.62507 0.85861,5.45248c-0.531,0.8274 -1.77636,-0.27227 -2.78156,-2.45619z"/><path d="M453.50963,63.13344c-0.49915,-0.89202 -0.02529,-3.27935 1.05841,-5.33224c1.0837,-2.0529 2.36686,-2.99398 2.86601,-2.10196c0.49915,0.89202 0.02528,3.27935 -1.05842,5.33225c-1.0837,2.0529 -2.36685,2.99398 -2.86601,2.10196z" data-paper-data="{&quot;index&quot;:null}"/><path d="M459.41769,66.7577c-1.0052,-2.18392 -1.3896,-4.62508 -0.8586,-5.45248c0.531,-0.8274 1.77636,0.27226 2.78156,2.45618c1.0052,2.18392 1.38962,4.62508 0.8586,5.45248c-0.531,0.8274 -1.77636,-0.27226 -2.78157,-2.45618z"/><path d="M453.46022,72.49708c-0.49915,-0.89202 -0.02528,-3.27934 1.05842,-5.33224c1.0837,-2.0529 2.36686,-2.99398 2.86601,-2.10197c0.49915,0.89202 0.02528,3.27935 -1.05842,5.33225c-1.0837,2.0529 -2.36685,2.99398 -2.86601,2.10196z" data-paper-data="{&quot;index&quot;:null}"/></g></g><g><g><path d="M459.46711,1.01906c-1.0052,-2.18392 -1.38962,-4.62507 -0.85861,-5.45248c0.531,-0.8274 1.77636,0.27226 2.78156,2.45618c1.0052,2.18392 1.38962,4.62507 0.85861,5.45248c-0.531,0.82741 -1.77636,-0.27226 -2.78156,-2.45618z"/><path d="M453.50963,6.75844c-0.49915,-0.89202 -0.02529,-3.27934 1.05841,-5.33224c1.0837,-2.0529 2.36686,-2.99398 2.86601,-2.10196c0.49915,0.89202 0.02528,3.27935 -1.05842,5.33225c-1.0837,2.0529 -2.36685,2.99398 -2.86601,2.10196z" data-paper-data="{&quot;index&quot;:null}"/><path d="M459.41769,10.3827c-1.0052,-2.18392 -1.3896,-4.62508 -0.8586,-5.45248c0.531,-0.82741 1.77636,0.27226 2.78156,2.45618c1.0052,2.18392 1.38962,4.62508 0.8586,5.45248c-0.531,0.8274 -1.77636,-0.27226 -2.78157,-2.45618z"/><path d="M453.46022,16.12208c-0.49915,-0.89202 -0.02528,-3.27934 1.05842,-5.33224c1.0837,-2.0529 2.36686,-2.99399 2.86601,-2.10197c0.49915,0.89202 0.02528,3.27934 -1.05842,5.33225c-1.0837,2.0529 -2.36685,2.99398 -2.86601,2.10197z" data-paper-data="{&quot;index&quot;:null}"/></g><g><path d="M459.46711,19.76906c-1.0052,-2.18392 -1.38962,-4.62508 -0.85861,-5.45248c0.531,-0.8274 1.77636,0.27227 2.78156,2.45619c1.0052,2.18392 1.38962,4.62508 0.85861,5.45248c-0.531,0.8274 -1.77636,-0.27227 -2.78156,-2.45619z"/><path d="M453.50963,25.50845c-0.49915,-0.89202 -0.02529,-3.27934 1.05841,-5.33224c1.0837,-2.0529 2.36686,-2.99398 2.86601,-2.10196c0.49915,0.89202 0.02528,3.27934 -1.05842,5.33225c-1.0837,2.0529 -2.36685,2.99398 -2.86601,2.10197z" data-paper-data="{&quot;index&quot;:null}"/><path d="M459.41769,29.1327c-1.0052,-2.18392 -1.3896,-4.62508 -0.8586,-5.45249c0.531,-0.8274 1.77636,0.27227 2.78156,2.45619c1.0052,2.18392 1.38962,4.62508 0.8586,5.45248c-0.531,0.8274 -1.77636,-0.27226 -2.78157,-2.45618z"/><path d="M453.46022,34.87208c-0.49915,-0.89202 -0.02528,-3.27934 1.05842,-5.33224c1.0837,-2.0529 2.36686,-2.99399 2.86601,-2.10197c0.49915,0.89202 0.02528,3.27934 -1.05842,5.33225c-1.0837,2.0529 -2.36685,2.99398 -2.86601,2.10197z" data-paper-data="{&quot;index&quot;:null}"/></g></g></g><g><g><g><path d="M459.46711,113.70656c-1.0052,-2.18392 -1.38962,-4.62507 -0.85861,-5.45248c0.531,-0.8274 1.77636,0.27227 2.78156,2.45619c1.0052,2.18392 1.38962,4.62507 0.85861,5.45248c-0.531,0.8274 -1.77636,-0.27227 -2.78156,-2.45619z"/><path d="M453.50963,119.44595c-0.49915,-0.89201 -0.02529,-3.27935 1.05841,-5.33224c1.0837,-2.0529 2.36687,-2.99398 2.86601,-2.10196c0.49915,0.89202 0.02528,3.27935 -1.05842,5.33225c-1.0837,2.0529 -2.36685,2.99398 -2.86601,2.10196z" data-paper-data="{&quot;index&quot;:null}"/><path d="M459.41769,123.0702c-1.0052,-2.18392 -1.3896,-4.62508 -0.8586,-5.45248c0.531,-0.8274 1.77636,0.27227 2.78156,2.45619c1.0052,2.18392 1.38962,4.62507 0.8586,5.45248c-0.531,0.8274 -1.77636,-0.27226 -2.78157,-2.45618z"/><path d="M453.46022,128.80958c-0.49915,-0.89201 -0.02528,-3.27934 1.05842,-5.33224c1.0837,-2.0529 2.36686,-2.99398 2.86601,-2.10197c0.49915,0.89201 0.02528,3.27935 -1.05842,5.33225c-1.0837,2.0529 -2.36685,2.99398 -2.86601,2.10197z" data-paper-data="{&quot;index&quot;:null}"/></g><g><path d="M459.46711,132.45656c-1.0052,-2.18392 -1.38962,-4.62508 -0.85861,-5.45248c0.531,-0.8274 1.77636,0.27227 2.78156,2.45619c1.0052,2.18392 1.38962,4.62508 0.85861,5.45248c-0.531,0.8274 -1.77636,-0.27227 -2.78156,-2.45619z"/><path d="M453.50963,138.19595c-0.49915,-0.89201 -0.02529,-3.27935 1.05841,-5.33224c1.0837,-2.0529 2.36687,-2.99398 2.86601,-2.10197c0.49915,0.89201 0.02528,3.27935 -1.05842,5.33225c-1.0837,2.0529 -2.36685,2.99398 -2.86601,2.10197z" data-paper-data="{&quot;index&quot;:null}"/><path d="M459.41769,141.8202c-1.0052,-2.18392 -1.3896,-4.62508 -0.8586,-5.45248c0.531,-0.8274 1.77636,0.27227 2.78156,2.45619c1.0052,2.18392 1.38962,4.62507 0.8586,5.45248c-0.531,0.8274 -1.77636,-0.27226 -2.78157,-2.45618z"/><path d="M453.46022,147.55958c-0.49915,-0.89201 -0.02528,-3.27934 1.05842,-5.33224c1.0837,-2.0529 2.36686,-2.99398 2.86601,-2.10197c0.49915,0.89201 0.02528,3.27935 -1.05842,5.33225c-1.0837,2.0529 -2.36685,2.99398 -2.86601,2.10197z" data-paper-data="{&quot;index&quot;:null}"/></g></g><g><g><path d="M459.46711,76.08156c-1.0052,-2.18392 -1.38962,-4.62507 -0.85861,-5.45248c0.531,-0.8274 1.77636,0.27227 2.78156,2.45619c1.0052,2.18392 1.38962,4.62507 0.85861,5.45248c-0.531,0.8274 -1.77636,-0.27227 -2.78156,-2.45619z"/><path d="M453.50963,81.82095c-0.49915,-0.89202 -0.02529,-3.27935 1.05841,-5.33224c1.0837,-2.0529 2.36687,-2.99398 2.86601,-2.10196c0.49915,0.89202 0.02528,3.27935 -1.05842,5.33225c-1.0837,2.0529 -2.36685,2.99398 -2.86601,2.10196z" data-paper-data="{&quot;index&quot;:null}"/><path d="M459.41769,85.4452c-1.0052,-2.18392 -1.3896,-4.62508 -0.8586,-5.45248c0.531,-0.8274 1.77636,0.27226 2.78156,2.45618c1.0052,2.18392 1.38962,4.62508 0.8586,5.45248c-0.531,0.8274 -1.77636,-0.27226 -2.78157,-2.45618z"/><path d="M453.46022,91.18458c-0.49915,-0.89202 -0.02528,-3.27934 1.05842,-5.33224c1.0837,-2.0529 2.36686,-2.99398 2.86601,-2.10197c0.49915,0.89202 0.02528,3.27935 -1.05842,5.33225c-1.0837,2.0529 -2.36685,2.99398 -2.86601,2.10196z" data-paper-data="{&quot;index&quot;:null}"/></g><g><path d="M459.46711,94.83156c-1.0052,-2.18392 -1.38962,-4.62507 -0.85861,-5.45248c0.531,-0.8274 1.77636,0.27227 2.78156,2.45619c1.0052,2.18392 1.38962,4.62507 0.85861,5.45248c-0.531,0.8274 -1.77636,-0.27227 -2.78156,-2.45619z"/><path d="M453.50963,100.57095c-0.49915,-0.89202 -0.02529,-3.27935 1.05841,-5.33224c1.0837,-2.0529 2.36687,-2.99398 2.86601,-2.10196c0.49915,0.89202 0.02528,3.27935 -1.05842,5.33225c-1.0837,2.0529 -2.36685,2.99398 -2.86601,2.10196z" data-paper-data="{&quot;index&quot;:null}"/><path d="M459.41769,104.1952c-1.0052,-2.18392 -1.3896,-4.62508 -0.8586,-5.45248c0.531,-0.8274 1.77636,0.27226 2.78156,2.45618c1.0052,2.18392 1.38962,4.62508 0.8586,5.45248c-0.531,0.8274 -1.77636,-0.27226 -2.78157,-2.45618z"/><path d="M453.46022,109.93458c-0.49915,-0.89202 -0.02528,-3.27934 1.05842,-5.33224c1.0837,-2.0529 2.36686,-2.99398 2.86601,-2.10197c0.49915,0.89202 0.02528,3.27935 -1.05842,5.33225c-1.0837,2.0529 -2.36685,2.99398 -2.86601,2.10196z" data-paper-data="{&quot;index&quot;:null}"/></g></g></g></g><g fill="#35845e" stroke="#12733e" stroke-width="1" stroke-linecap="butt"><g><path d="M427.92926,4.64406c-1.0052,-2.18392 -1.38962,-4.62507 -0.8586,-5.45248c0.531,-0.8274 1.77636,0.27226 2.78156,2.45619c1.0052,2.18392 1.38962,4.62508 0.8586,5.45248c-0.531,0.82741 -1.77636,-0.27226 -2.78156,-2.45618z"/><path d="M421.97179,10.38345c-0.49915,-0.89201 -0.02529,-3.27934 1.05841,-5.33224c1.0837,-2.0529 2.36686,-2.99398 2.86601,-2.10197c0.49915,0.89202 0.02528,3.27935 -1.05842,5.33225c-1.0837,2.0529 -2.36686,2.99398 -2.86601,2.10197z" data-paper-data="{&quot;index&quot;:null}"/><path d="M427.87985,14.0077c-1.0052,-2.18392 -1.38961,-4.62508 -0.85861,-5.45248c0.531,-0.82741 1.77636,0.27226 2.78156,2.45619c1.0052,2.18392 1.38962,4.62507 0.85861,5.45248c-0.531,0.82741 -1.77636,-0.27226 -2.78157,-2.45618z"/><path d="M421.92238,19.74708c-0.49915,-0.89202 -0.02529,-3.27934 1.05841,-5.33224c1.0837,-2.0529 2.36686,-2.99398 2.86601,-2.10197c0.49915,0.89201 0.02528,3.27934 -1.05842,5.33225c-1.0837,2.0529 -2.36685,2.99398 -2.86601,2.10197z" data-paper-data="{&quot;index&quot;:null}"/></g><g><path d="M427.92926,23.39406c-1.0052,-2.18392 -1.38962,-4.62507 -0.8586,-5.45248c0.531,-0.82741 1.77636,0.27226 2.78156,2.45618c1.0052,2.18392 1.38962,4.62508 0.8586,5.45248c-0.531,0.8274 -1.77636,-0.27227 -2.78156,-2.45619z"/><path d="M421.97179,29.13345c-0.49915,-0.89202 -0.02529,-3.27934 1.05841,-5.33224c1.0837,-2.0529 2.36686,-2.99398 2.86601,-2.10196c0.49915,0.89202 0.02528,3.27934 -1.05842,5.33224c-1.0837,2.0529 -2.36686,2.99398 -2.86601,2.10197z" data-paper-data="{&quot;index&quot;:null}"/><path d="M427.87985,32.7577c-1.0052,-2.18392 -1.38961,-4.62508 -0.85861,-5.45248c0.531,-0.8274 1.77636,0.27226 2.78156,2.45618c1.0052,2.18392 1.38962,4.62508 0.85861,5.45248c-0.531,0.8274 -1.77636,-0.27226 -2.78157,-2.45618z"/><path d="M421.92238,38.49708c-0.49915,-0.89202 -0.02529,-3.27934 1.05841,-5.33224c1.0837,-2.0529 2.36686,-2.99399 2.86601,-2.10197c0.49915,0.89202 0.02528,3.27934 -1.05842,5.33225c-1.0837,2.0529 -2.36685,2.99398 -2.86601,2.10196z" data-paper-data="{&quot;index&quot;:null}"/></g></g><g data-paper-data="{&quot;index&quot;:null}" fill="#35845e" stroke="#12733e" stroke-width="1" stroke-linecap="butt"><g><path d="M401.23205,-1.98095c-1.0052,-2.18392 -1.38961,-4.62508 -0.8586,-5.45248c0.531,-0.8274 1.77636,0.27227 2.78156,2.45619c1.0052,2.18392 1.3896,4.62508 0.8586,5.45248c-0.531,0.8274 -1.77636,-0.27227 -2.78156,-2.45619z"/><path d="M398.1406,1.65647c-1.0837,2.05291 -2.36686,2.99399 -2.86601,2.10197c-0.49915,-0.89201 -0.02529,-3.27934 1.05841,-5.33224c1.0837,-2.0529 2.36686,-2.99398 2.86601,-2.10197c0.49915,0.89202 0.02528,3.27935 -1.05842,5.33225z" data-paper-data="{&quot;index&quot;:null}"/><path d="M403.96421,9.83889c-0.53102,0.82741 -1.77637,-0.27226 -2.78157,-2.45618c-1.00521,-2.18392 -1.3896,-4.62509 -0.8586,-5.45249c0.531,-0.8274 1.77636,0.27227 2.78156,2.45619c1.0052,2.18392 1.38961,4.62508 0.8586,5.45248z"/><path d="M398.09118,11.02012c-1.0837,2.0529 -2.36686,2.99398 -2.86601,2.10196c-0.49915,-0.89202 -0.02528,-3.27934 1.05842,-5.33224c1.08369,-2.0529 2.36685,-2.99398 2.86601,-2.10197c0.49915,0.89202 0.02528,3.27935 -1.05842,5.33225z" data-paper-data="{&quot;index&quot;:null}"/></g><g><path d="M401.23205,16.76906c-1.0052,-2.18392 -1.38961,-4.62508 -0.8586,-5.45248c0.531,-0.8274 1.77636,0.27227 2.78156,2.45619c1.0052,2.18392 1.3896,4.62508 0.8586,5.45248c-0.531,0.8274 -1.77636,-0.27227 -2.78156,-2.45619z"/><path d="M398.1406,20.40648c-1.0837,2.05291 -2.36686,2.99399 -2.86601,2.10197c-0.49915,-0.89201 -0.02529,-3.27934 1.05841,-5.33224c1.0837,-2.0529 2.36686,-2.99398 2.86601,-2.10197c0.49915,0.89202 0.02528,3.27935 -1.05842,5.33225z" data-paper-data="{&quot;index&quot;:null}"/><path d="M403.96421,28.58889c-0.53102,0.82741 -1.77637,-0.27226 -2.78157,-2.45618c-1.00521,-2.18392 -1.3896,-4.62509 -0.8586,-5.45249c0.531,-0.8274 1.77636,0.27227 2.78156,2.45619c1.0052,2.18392 1.38961,4.62508 0.8586,5.45248z"/><path d="M398.09118,29.77013c-1.0837,2.0529 -2.36686,2.99398 -2.86601,2.10196c-0.49915,-0.89202 -0.02528,-3.27934 1.05842,-5.33224c1.08369,-2.0529 2.36685,-2.99398 2.86601,-2.10197c0.49915,0.89202 0.02528,3.27935 -1.05842,5.33225z" data-paper-data="{&quot;index&quot;:null}"/></g></g><g fill="#35845e" stroke="#12733e" stroke-width="1" stroke-linecap="butt"><g><path d="M427.92926,79.70656c-1.0052,-2.18392 -1.38962,-4.62507 -0.8586,-5.45248c0.531,-0.8274 1.77636,0.27227 2.78156,2.45619c1.0052,2.18392 1.38962,4.62507 0.8586,5.45248c-0.531,0.8274 -1.77636,-0.27227 -2.78156,-2.45619z"/><path d="M421.97179,85.44594c-0.49915,-0.89202 -0.02529,-3.27935 1.05841,-5.33224c1.0837,-2.0529 2.36687,-2.99398 2.86601,-2.10196c0.49915,0.89202 0.02528,3.27935 -1.05842,5.33225c-1.0837,2.0529 -2.36686,2.99398 -2.86601,2.10196z" data-paper-data="{&quot;index&quot;:null}"/><path d="M427.87985,89.0702c-1.0052,-2.18392 -1.38961,-4.62508 -0.85861,-5.45248c0.531,-0.8274 1.77636,0.27226 2.78156,2.45618c1.0052,2.18392 1.38962,4.62508 0.85861,5.45248c-0.531,0.8274 -1.77636,-0.27226 -2.78157,-2.45618z"/><path d="M421.92238,94.80958c-0.49915,-0.89202 -0.02529,-3.27934 1.05841,-5.33224c1.0837,-2.0529 2.36686,-2.99398 2.86601,-2.10197c0.49915,0.89202 0.02528,3.27935 -1.05842,5.33225c-1.0837,2.0529 -2.36685,2.99398 -2.86601,2.10196z" data-paper-data="{&quot;index&quot;:null}"/></g><g><path d="M427.92926,98.45656c-1.0052,-2.18392 -1.38962,-4.62507 -0.8586,-5.45248c0.531,-0.8274 1.77636,0.27227 2.78156,2.45619c1.0052,2.18392 1.38962,4.62507 0.8586,5.45248c-0.531,0.8274 -1.77636,-0.27227 -2.78156,-2.45619z"/><path d="M421.97179,104.19595c-0.49915,-0.89202 -0.02529,-3.27935 1.05841,-5.33224c1.0837,-2.0529 2.36687,-2.99398 2.86601,-2.10196c0.49915,0.89202 0.02528,3.27935 -1.05842,5.33225c-1.0837,2.0529 -2.36686,2.99398 -2.86601,2.10196z" data-paper-data="{&quot;index&quot;:null}"/><path d="M427.87985,107.8202c-1.0052,-2.18392 -1.38961,-4.62508 -0.85861,-5.45248c0.531,-0.8274 1.77636,0.27226 2.78156,2.45618c1.0052,2.18392 1.38962,4.62508 0.85861,5.45248c-0.531,0.8274 -1.77636,-0.27226 -2.78157,-2.45618z"/><path d="M421.92238,113.55958c-0.49915,-0.89202 -0.02529,-3.27934 1.05841,-5.33224c1.0837,-2.0529 2.36686,-2.99398 2.86601,-2.10197c0.49915,0.89202 0.02528,3.27935 -1.05842,5.33225c-1.0837,2.0529 -2.36685,2.99398 -2.86601,2.10196z" data-paper-data="{&quot;index&quot;:null}"/></g></g><g fill="#35845e" stroke="#12733e" stroke-width="1" stroke-linecap="butt"><g><path d="M427.92926,42.08156c-1.0052,-2.18392 -1.38962,-4.62508 -0.8586,-5.45248c0.531,-0.8274 1.77636,0.27227 2.78156,2.45619c1.0052,2.18392 1.38962,4.62508 0.8586,5.45248c-0.531,0.8274 -1.77636,-0.27226 -2.78156,-2.45618z"/><path d="M421.97179,47.82095c-0.49915,-0.89202 -0.02529,-3.27934 1.05841,-5.33224c1.0837,-2.0529 2.36687,-2.99398 2.86601,-2.10196c0.49915,0.89202 0.02528,3.27934 -1.05842,5.33225c-1.0837,2.0529 -2.36686,2.99398 -2.86601,2.10197z" data-paper-data="{&quot;index&quot;:null}"/><path d="M427.87985,51.4452c-1.0052,-2.18392 -1.38961,-4.62508 -0.85861,-5.45249c0.531,-0.8274 1.77636,0.27227 2.78156,2.45619c1.0052,2.18392 1.38962,4.62508 0.85861,5.45248c-0.531,0.8274 -1.77636,-0.27226 -2.78157,-2.45618z"/><path d="M421.92238,57.18458c-0.49915,-0.89202 -0.02529,-3.27934 1.05841,-5.33224c1.0837,-2.0529 2.36686,-2.99399 2.86601,-2.10197c0.49915,0.89202 0.02528,3.27934 -1.05842,5.33225c-1.0837,2.0529 -2.36685,2.99398 -2.86601,2.10197z" data-paper-data="{&quot;index&quot;:null}"/></g><g><path d="M427.92926,60.83156c-1.0052,-2.18392 -1.38962,-4.62508 -0.8586,-5.45248c0.531,-0.8274 1.77636,0.27226 2.78156,2.45618c1.0052,2.18392 1.38962,4.62508 0.8586,5.45248c-0.531,0.8274 -1.77636,-0.27226 -2.78156,-2.45618z"/><path d="M421.97179,66.57095c-0.49915,-0.89202 -0.02529,-3.27934 1.05841,-5.33224c1.0837,-2.0529 2.36687,-2.99398 2.86601,-2.10196c0.49915,0.89202 0.02528,3.27934 -1.05842,5.33225c-1.0837,2.0529 -2.36686,2.99398 -2.86601,2.10197z" data-paper-data="{&quot;index&quot;:null}"/><path d="M427.87985,70.1952c-1.0052,-2.18392 -1.38961,-4.62508 -0.85861,-5.45249c0.531,-0.8274 1.77636,0.27227 2.78156,2.45619c1.0052,2.18392 1.38962,4.62508 0.85861,5.45248c-0.531,0.8274 -1.77636,-0.27226 -2.78157,-2.45618z"/><path d="M421.92238,75.93458c-0.49915,-0.89202 -0.02529,-3.27934 1.05841,-5.33224c1.0837,-2.0529 2.36686,-2.99399 2.86601,-2.10197c0.49915,0.89202 0.02528,3.27935 -1.05842,5.33225c-1.0837,2.0529 -2.36685,2.99398 -2.86601,2.10196z" data-paper-data="{&quot;index&quot;:null}"/></g></g><g fill="#35845e" stroke="#12733e" stroke-width="1" stroke-linecap="butt"><g><g><path d="M41.33301,-3.89975c-0.53101,-0.8274 -0.1466,-3.26856 0.8586,-5.45248c1.00521,-2.18392 2.25056,-3.28359 2.78156,-2.45618c0.53102,0.82741 0.1466,3.26856 -0.85861,5.45248c-1.00521,2.18392 -2.25055,3.28359 -2.78156,2.45619z"/><path d="M47.20604,-2.71852c-1.0837,-2.0529 -1.55757,-4.44023 -1.05841,-5.33224c0.49916,-0.89202 1.78231,0.04907 2.86601,2.10197c1.0837,2.0529 1.55757,4.44023 1.05841,5.33225c-0.49916,0.89201 -1.78231,-0.04906 -2.86601,-2.10196z" data-paper-data="{&quot;index&quot;:null}"/><path d="M41.38242,5.46388c-0.53102,-0.82741 -0.14661,-3.26856 0.8586,-5.45248c1.00521,-2.18392 2.25055,-3.28359 2.78157,-2.45619c0.53102,0.8274 0.14661,3.26857 -0.8586,5.45249c-1.00521,2.18392 -2.25055,3.28359 -2.78157,2.45618z"/><path d="M47.25544,6.64511c-1.0837,-2.0529 -1.55757,-4.44023 -1.05841,-5.33224c0.49916,-0.89201 1.78232,0.04907 2.86602,2.10197c1.0837,2.0529 1.55757,4.44023 1.05841,5.33224c-0.49916,0.89201 -1.78231,-0.04907 -2.86601,-2.10197z" data-paper-data="{&quot;index&quot;:null}"/></g><g><path d="M41.33301,14.85025c-0.53101,-0.82741 -0.1466,-3.26856 0.8586,-5.45248c1.00521,-2.18392 2.25056,-3.28359 2.78156,-2.45618c0.53102,0.8274 0.1466,3.26856 -0.85861,5.45248c-1.00521,2.18392 -2.25055,3.28359 -2.78156,2.45618z"/><path d="M47.20604,16.03148c-1.0837,-2.0529 -1.55757,-4.44023 -1.05841,-5.33224c0.49916,-0.89201 1.78231,0.04907 2.86601,2.10197c1.0837,2.0529 1.55757,4.44023 1.05841,5.33225c-0.49916,0.89201 -1.78231,-0.04907 -2.86601,-2.10196z" data-paper-data="{&quot;index&quot;:null}"/><path d="M41.38242,24.21388c-0.53102,-0.8274 -0.14661,-3.26856 0.8586,-5.45248c1.00521,-2.18392 2.25055,-3.28359 2.78157,-2.45618c0.53102,0.82741 0.14661,3.26856 -0.8586,5.45248c-1.00521,2.18392 -2.25055,3.28358 -2.78157,2.45618z"/><path d="M47.25544,25.39512c-1.0837,-2.0529 -1.55757,-4.44023 -1.05841,-5.33224c0.49916,-0.89202 1.78232,0.04907 2.86602,2.10197c1.0837,2.0529 1.55757,4.44022 1.05841,5.33224c-0.49916,0.89202 -1.78231,-0.04906 -2.86601,-2.10196z" data-paper-data="{&quot;index&quot;:null}"/></g></g><g><g><path d="M41.33301,71.16275c-0.53101,-0.8274 -0.1466,-3.26856 0.8586,-5.45248c1.00521,-2.18392 2.25056,-3.28359 2.78156,-2.45618c0.53102,0.8274 0.1466,3.26856 -0.85861,5.45248c-1.00521,2.18392 -2.25055,3.28359 -2.78156,2.45619z"/><path d="M47.20604,72.34398c-1.0837,-2.0529 -1.55757,-4.44023 -1.05841,-5.33224c0.49916,-0.89202 1.78232,0.04906 2.86602,2.10196c1.0837,2.0529 1.55757,4.44023 1.05841,5.33225c-0.49916,0.89202 -1.78231,-0.04906 -2.86601,-2.10196z" data-paper-data="{&quot;index&quot;:null}"/><path d="M41.38242,80.52638c-0.53102,-0.8274 -0.14661,-3.26856 0.8586,-5.45248c1.00521,-2.18392 2.25055,-3.28359 2.78157,-2.45618c0.53102,0.8274 0.14661,3.26856 -0.8586,5.45248c-1.00521,2.18392 -2.25055,3.28359 -2.78157,2.45618z"/><path d="M47.25544,81.70762c-1.0837,-2.0529 -1.55757,-4.44023 -1.05841,-5.33224c0.49916,-0.89202 1.78232,0.04907 2.86602,2.10197c1.0837,2.0529 1.55757,4.44022 1.05841,5.33224c-0.49916,0.89202 -1.78231,-0.04906 -2.86601,-2.10196z" data-paper-data="{&quot;index&quot;:null}"/></g><g><path d="M41.33301,89.91275c-0.53101,-0.8274 -0.1466,-3.26856 0.8586,-5.45248c1.00521,-2.18392 2.25056,-3.28359 2.78156,-2.45619c0.53102,0.8274 0.1466,3.26856 -0.85861,5.45248c-1.00521,2.18392 -2.25055,3.28359 -2.78156,2.45619z"/><path d="M47.20604,91.09398c-1.0837,-2.0529 -1.55757,-4.44023 -1.05841,-5.33224c0.49916,-0.89202 1.78232,0.04906 2.86602,2.10196c1.0837,2.0529 1.55757,4.44023 1.05841,5.33225c-0.49916,0.89202 -1.78231,-0.04906 -2.86601,-2.10196z" data-paper-data="{&quot;index&quot;:null}"/><path d="M41.38242,99.27638c-0.53102,-0.8274 -0.14661,-3.26856 0.8586,-5.45248c1.00521,-2.18392 2.25055,-3.28359 2.78157,-2.45618c0.53102,0.8274 0.14661,3.26856 -0.8586,5.45248c-1.00521,2.18392 -2.25055,3.28359 -2.78157,2.45618z"/><path d="M47.25544,100.45762c-1.0837,-2.0529 -1.55757,-4.44023 -1.05841,-5.33224c0.49916,-0.89202 1.78232,0.04907 2.86602,2.10197c1.0837,2.0529 1.55757,4.44022 1.05841,5.33224c-0.49916,0.89202 -1.78231,-0.04906 -2.86601,-2.10196z" data-paper-data="{&quot;index&quot;:null}"/></g></g><g><g><path d="M41.33301,33.53775c-0.53101,-0.8274 -0.1466,-3.26856 0.8586,-5.45248c1.00521,-2.18392 2.25056,-3.28359 2.78156,-2.45619c0.53102,0.8274 0.1466,3.26856 -0.85861,5.45248c-1.00521,2.18392 -2.25055,3.28359 -2.78156,2.45619z"/><path d="M47.20604,34.71898c-1.0837,-2.0529 -1.55757,-4.44023 -1.05841,-5.33224c0.49916,-0.89202 1.78232,0.04906 2.86602,2.10197c1.0837,2.0529 1.55757,4.44023 1.05841,5.33225c-0.49916,0.89202 -1.78231,-0.04906 -2.86601,-2.10196z" data-paper-data="{&quot;index&quot;:null}"/><path d="M41.38242,42.90138c-0.53102,-0.8274 -0.14661,-3.26856 0.8586,-5.45248c1.00521,-2.18392 2.25055,-3.28359 2.78157,-2.45619c0.53102,0.8274 0.14661,3.26857 -0.8586,5.45249c-1.00521,2.18392 -2.25055,3.28359 -2.78157,2.45618z"/><path d="M47.25544,44.08261c-1.0837,-2.0529 -1.55757,-4.44023 -1.05841,-5.33224c0.49916,-0.89202 1.78232,0.04907 2.86602,2.10197c1.0837,2.0529 1.55757,4.44022 1.05841,5.33224c-0.49916,0.89202 -1.78231,-0.04906 -2.86601,-2.10196z" data-paper-data="{&quot;index&quot;:null}"/></g><g><path d="M41.33301,52.28775c-0.53101,-0.8274 -0.1466,-3.26856 0.8586,-5.45248c1.00521,-2.18392 2.25056,-3.28359 2.78156,-2.45618c0.53102,0.8274 0.1466,3.26856 -0.85861,5.45248c-1.00521,2.18392 -2.25055,3.28359 -2.78156,2.45618z"/><path d="M47.20604,53.46898c-1.0837,-2.0529 -1.55757,-4.44023 -1.05841,-5.33224c0.49916,-0.89202 1.78232,0.04906 2.86602,2.10197c1.0837,2.0529 1.55757,4.44023 1.05841,5.33225c-0.49916,0.89202 -1.78231,-0.04906 -2.86601,-2.10196z" data-paper-data="{&quot;index&quot;:null}"/><path d="M41.38242,61.65138c-0.53102,-0.8274 -0.14661,-3.26856 0.8586,-5.45248c1.00521,-2.18392 2.25055,-3.28359 2.78157,-2.45619c0.53102,0.8274 0.14661,3.26857 -0.8586,5.45249c-1.00521,2.18392 -2.25055,3.28359 -2.78157,2.45618z"/><path d="M47.25544,62.83262c-1.0837,-2.0529 -1.55757,-4.44023 -1.05841,-5.33224c0.49916,-0.89202 1.78232,0.04907 2.86602,2.10197c1.0837,2.0529 1.55757,4.44022 1.05841,5.33224c-0.49916,0.89202 -1.78231,-0.04906 -2.86601,-2.10196z" data-paper-data="{&quot;index&quot;:null}"/></g></g></g></g></g></svg>