<svg version="1.1" xmlns="http://www.w3.org/2000/svg" xmlns:xlink="http://www.w3.org/1999/xlink" width="56.83333" height="56.83333" viewBox="0,0,56.83333,56.83333"><g transform="translate(-211.58333,-151.58334)"><g data-paper-data="{&quot;isPaintingLayer&quot;:true}" fill-rule="nonzero" stroke-linecap="butt" stroke-linejoin="miter" stroke-miterlimit="10" stroke-dasharray="" stroke-dashoffset="0" style="mix-blend-mode: normal"><path d="M235.97978,191.7584v-7.5085h7.79215v7.5085z" data-paper-data="{&quot;index&quot;:null}" fill="#422918" stroke="#815130" stroke-width="2.5"/><path d="M227.7469,187.69924l5.83825,-9.43351l13.34294,-0.004l5.99167,9.43751z" data-paper-data="{&quot;index&quot;:null}" fill="#234820" stroke="#1fa416" stroke-width="2.5"/><path d="M229.28231,178.32104l10.90258,-18.21278l10.52663,18.21278z" data-paper-data="{&quot;index&quot;:null}" fill="#234820" stroke="#1fa416" stroke-width="2.5"/><path d="M246.56646,189.04823c1.17015,0 3.69819,0.05849 3.69819,1.98392c0,0.76862 0.42668,2.21108 0.1706,2.78741c-0.38541,0.86741 -1.62484,1.23822 -2.32787,1.23822c-0.44034,0 -2.23612,-0.72183 -2.57496,-1.10014c0,0 -0.1361,-4.90941 1.03406,-4.90941z" data-paper-data="{&quot;index&quot;:null}" fill="none" stroke="#909090" stroke-width="2"/><path d="M211.58333,208.41667v-56.83333h56.83333v56.83333z" fill="none" stroke="none" stroke-width="0"/></g></g></svg>