<svg version="1.1" xmlns="http://www.w3.org/2000/svg" xmlns:xlink="http://www.w3.org/1999/xlink" width="328.89009" height="48.83333" viewBox="0,0,328.89009,48.83333"><defs><linearGradient x1="451.46588" y1="180.01292" x2="538.85421" y2="180.01292" gradientUnits="userSpaceOnUse" id="color-1"><stop offset="0" stop-color="#8300ff"/><stop offset="1" stop-color="#8300ff" stop-opacity="0"/></linearGradient><linearGradient x1="451.46588" y1="180.18569" x2="538.85421" y2="180.18569" gradientUnits="userSpaceOnUse" id="color-2"><stop offset="0" stop-color="#8300ff"/><stop offset="1" stop-color="#8300ff" stop-opacity="0"/></linearGradient><linearGradient x1="451.46588" y1="179.84012" x2="538.85421" y2="179.84012" gradientUnits="userSpaceOnUse" id="color-3"><stop offset="0" stop-color="#8300ff"/><stop offset="1" stop-color="#8300ff" stop-opacity="0"/></linearGradient><radialGradient cx="240.00004" cy="180.00003" r="6.31139" gradientUnits="userSpaceOnUse" id="color-4"><stop offset="0" stop-color="#9a30ff"/><stop offset="1" stop-color="#9a30ff" stop-opacity="0"/></radialGradient><radialGradient cx="240.00004" cy="180.00003" r="6.31139" gradientUnits="userSpaceOnUse" id="color-5"><stop offset="0" stop-color="#9a30ff"/><stop offset="1" stop-color="#9a30ff" stop-opacity="0"/></radialGradient><radialGradient cx="240.00004" cy="180.00003" r="6.31139" gradientUnits="userSpaceOnUse" id="color-6"><stop offset="0" stop-color="#9a30ff"/><stop offset="1" stop-color="#9a30ff" stop-opacity="0"/></radialGradient><linearGradient x1="387.17843" y1="180.16349" x2="387.17843" y2="183.09354" gradientUnits="userSpaceOnUse" id="color-7"><stop offset="0" stop-color="#b566ff"/><stop offset="1" stop-color="#b566ff" stop-opacity="0"/></linearGradient><linearGradient x1="387.3451" y1="179.73619" x2="387.3451" y2="176.80616" gradientUnits="userSpaceOnUse" id="color-8"><stop offset="0" stop-color="#b566ff"/><stop offset="1" stop-color="#b566ff" stop-opacity="0"/></linearGradient><linearGradient x1="451.17175" y1="179.9626" x2="538.39343" y2="179.9626" gradientUnits="userSpaceOnUse" id="color-9"><stop offset="0" stop-color="#000000"/><stop offset="1" stop-color="#000000" stop-opacity="0"/></linearGradient></defs><g transform="translate(-228.82293,-156.76753)"><g data-paper-data="{&quot;isPaintingLayer&quot;:true}" fill-rule="nonzero" stroke-width="0" stroke-linecap="butt" stroke-linejoin="miter" stroke-miterlimit="10" stroke-dasharray="" stroke-dashoffset="0" style="mix-blend-mode: normal"><path d="M451.46588,181.23869v-2.45155h87.38833v2.45155z" fill="url(#color-1)" stroke="#000000"/><path d="M451.46588,181.23869v-2.10597h87.38833v2.10597z" fill="url(#color-2)" stroke="#000000"/><path d="M451.46588,180.8931v-2.10597h87.38833v2.10597z" fill="url(#color-3)" stroke="#000000"/><path d="M233.68863,180.00003c0,-3.48569 2.82571,-6.31139 6.31139,-6.31139c3.48569,0 6.31139,2.82571 6.31139,6.31139c0,3.48569 -2.82571,6.31139 -6.31139,6.31139c-3.48569,0 -6.31139,-2.82571 -6.31139,-6.31139z" fill="url(#color-4)" stroke="none"/><path d="M233.68863,180.00003c0,-3.48569 2.82571,-6.31139 6.31139,-6.31139c3.48569,0 6.31139,2.82571 6.31139,6.31139c0,3.48569 -2.82571,6.31139 -6.31139,6.31139c-3.48569,0 -6.31139,-2.82571 -6.31139,-6.31139z" fill="url(#color-5)" stroke="none"/><path d="M233.68863,180.00003c0,-3.48569 2.82571,-6.31139 6.31139,-6.31139c3.48569,0 6.31139,2.82571 6.31139,6.31139c0,3.48569 -2.82571,6.31139 -6.31139,6.31139c-3.48569,0 -6.31139,-2.82571 -6.31139,-6.31139z" fill="url(#color-6)" stroke="none"/><path d="M228.82294,191.17712v-22.35419h22.35419v22.35419z" fill="none" stroke="none"/><path d="M230.71303,205.60086v-48.83333h327v48.83333z" fill="none" stroke="none"/><path d="M240.17842,183.09354v-2.93004l199.83333,0.67147l94.16667,0.18312v2.07545z" fill="url(#color-7)" stroke="none"/><path d="M534.34507,176.80616v2.13649l-73,0.06104l-221,0.73251v-2.93004z" data-paper-data="{&quot;index&quot;:null}" fill="url(#color-8)" stroke="none"/><path d="M240.47919,181.01761v-2.10597h211.31686v2.10597z" fill="#000000" stroke="#000000"/><path d="M235.4004,180.00003c0,-2.5403 2.05932,-4.59962 4.59962,-4.59962c2.5403,0 4.59962,2.05932 4.59962,4.59962c0,2.5403 -2.05932,4.59962 -4.59962,4.59962c-2.5403,0 -4.59962,-2.05932 -4.59962,-4.59962z" fill="#000000" stroke="#bf7cff"/><path d="M451.17175,181.01557v-2.10597h87.22166v2.10597z" fill="url(#color-9)" stroke="#000000"/></g></g></svg>