<svg version="1.1" xmlns="http://www.w3.org/2000/svg" xmlns:xlink="http://www.w3.org/1999/xlink" width="65.4" height="65.4" viewBox="0,0,65.4,65.4"><g transform="translate(-207.3,-147.3)"><g data-paper-data="{&quot;isPaintingLayer&quot;:true}" fill-rule="nonzero" stroke-linejoin="miter" stroke-miterlimit="10" stroke-dasharray="" stroke-dashoffset="0" style="mix-blend-mode: normal"><path d="M239.84626,195.14667c-1.38376,-0.01949 -1.52182,-0.48956 -2.48623,-1.48171c-2.89325,-2.97646 -6.85303,-7.05013 -11.23932,-11.56258c-0.90571,-0.93176 -1.3195,-1.07442 -1.26021,-2.37248c0.05929,-1.29806 0.48984,-1.52209 1.48218,-2.48668c4.44248,-4.31828 8.51863,-8.28047 11.38331,-11.06507c0.95489,-0.9282 1.10212,-1.39135 2.43176,-1.31784c1.32965,0.07351 1.58947,0.55916 2.59718,1.59586c4.25028,4.37253 7.89557,8.12265 10.89082,11.20405c0.99841,1.02713 1.46589,1.1848 1.49777,2.61687c0.03188,1.43207 -0.43135,1.46523 -1.38625,2.39343c-0.95489,0.9282 -8.40631,8.17129 -11.38331,11.06507c-0.99234,0.9646 -1.14394,1.43058 -2.5277,1.41109z" fill="#131423" stroke="#ffffff" stroke-width="1" stroke-linecap="butt"/><path d="M239.84626,195.14667c-1.38376,-0.01949 -1.52182,-0.48956 -2.48623,-1.48171c-2.89325,-2.97646 -6.85303,-7.05013 -11.23932,-11.56258c-0.90571,-0.93176 -1.3195,-1.07442 -1.26021,-2.37248c0.05929,-1.29806 0.48984,-1.52209 1.48218,-2.48668c4.44248,-4.31828 8.51863,-8.28047 11.38331,-11.06507c0.95489,-0.9282 1.10212,-1.39135 2.43176,-1.31784c1.32965,0.07351 1.58947,0.55916 2.59718,1.59586c4.25028,4.37253 7.89557,8.12265 10.89082,11.20405c0.99841,1.02713 1.46589,1.1848 1.49777,2.61687c0.03188,1.43207 -0.43135,1.46523 -1.38625,2.39343c-0.95489,0.9282 -8.40631,8.17129 -11.38331,11.06507c-0.99234,0.9646 -1.14394,1.43058 -2.5277,1.41109z" fill="none" stroke="#ffffff" stroke-width="1" stroke-linecap="butt"/><path d="M207.3,212.7v-65.4h65.4v65.4z" fill="none" stroke="none" stroke-width="0" stroke-linecap="butt"/><path d="M227.1,193.8v-26h26v26z" fill="none" stroke="none" stroke-width="0" stroke-linecap="butt"/><g stroke="#ff7b00" stroke-width="1.5"><path d="M237.29178,188.41206l-6.43381,-12.47485c0,0 0.8985,-1.92702 2.55042,-3.45247c1.30402,-1.20419 3.31291,-1.96199 4.09157,-2.68104c1.16991,-1.08034 2.91802,-2.69463 2.91802,-2.69463c0,0 0.9259,0.43842 1.34807,0.91343c0.42217,0.47501 0.03847,0.49425 0.99973,1.72823c0.17994,0.23099 1.31373,0.47338 1.5233,0.7235c0.4315,0.51497 -0.0201,1.06272 0.48203,1.61126c0.30171,0.3296 1.0259,0.3632 1.33172,0.70592c0.47332,0.53042 0.52555,1.36546 0.95972,1.8081c0.47432,0.48357 1.11572,0.27732 1.46898,0.60886c0.56288,0.52826 0.6105,1.87712 0.6105,1.87712l-0.92938,0.61776c0,0 -2.9801,8.97369 -6.46559,10.78069c-1.66564,0.86353 -4.45527,-0.07188 -4.45527,-0.07188z" fill="#fff94d" stroke-linecap="butt"/><path d="M242.18613,170.21322l-2.29023,2.29023l2.70664,2.70664l-2.18613,2.18613l-3.33125,-1.87383" fill="none" stroke-linecap="round"/><path d="M244.11201,172.4514l-2.02998,2.02998" fill="none" stroke-linecap="round"/><path d="M246.45429,174.89778l-3.43535,3.43535" fill="none" stroke-linecap="round"/><path d="M237.39746,169.90092l2.86279,2.86279" fill="none" stroke-linecap="round"/><path d="M248.95272,177.08392l-3.95585,3.74765l-3.53945,-3.33125" fill="none" stroke-linecap="round"/><path d="M244.26405,185.86464v6.62628h-8.32811v-6.66249" fill="#fff94d" stroke-linecap="round"/></g><path d="M245.13217,188.83976c-0.45134,0.45113 -1.18334,0.45059 -1.63436,-0.00119c-0.45134,-0.45158 -0.45081,-1.18337 0.00119,-1.63471c1.78337,-1.78078 4.11685,-4.11074 4.11685,-4.11074c0.45158,-0.45102 1.18349,-0.45048 1.6346,0.00119c0,0 2.70027,2.70387 4.14403,4.14997c0.45113,0.45167 0.45048,1.18334 -0.00119,1.63469c-0.45167,0.45113 -1.18346,0.45059 -1.6346,-0.00119c-1.78066,-1.78337 -2.17133,-2.16995 -2.17133,-2.16995c0,0 -0.00658,5.75388 -0.00807,7.79722c-0.00047,0.63842 -0.51822,1.15554 -1.15664,1.15507c-0.63832,-0.00047 -1.15554,-0.51836 -1.15509,-1.15675c0.00178,-2.43719 0.00798,-7.80349 0.00798,-7.80349c0,0 -0.69684,0.69591 -2.14336,2.13989z" fill="#66ff13" stroke="#10cb0e" stroke-width="1.15823" stroke-linecap="butt"/></g></g></svg>