<svg version="1.1" xmlns="http://www.w3.org/2000/svg" xmlns:xlink="http://www.w3.org/1999/xlink" width="86.442" height="86.442" viewBox="0,0,86.442,86.442"><defs><linearGradient x1="213.61531" y1="182.31473" x2="253.02957" y2="203.82686" gradientUnits="userSpaceOnUse" id="color-1"><stop offset="0" stop-color="#ff22c0"/><stop offset="1" stop-color="#ff6a1a"/></linearGradient></defs><g transform="translate(-196.77901,-136.779)"><g data-paper-data="{&quot;isPaintingLayer&quot;:true}" fill-rule="nonzero" stroke-linejoin="miter" stroke-miterlimit="10" stroke-dasharray="" stroke-dashoffset="0" style="mix-blend-mode: normal"><path d="M259.17077,160.44951c0,0 -4.65733,9.62421 -10.22344,12.12121c-8.14689,3.65476 -7.58538,0.41201 -11.52285,2.19769c-3.93748,1.78565 -8.11372,4.68276 -9.35006,5.68155c-0.47471,0.3835 -4.59874,-0.68634 -5.53073,-0.84104c-1.54438,-0.25636 -3.93637,0.82759 -5.80218,-0.47313c-1.51906,-1.059 -2.99056,-2.09888 -2.99056,-2.09888" fill="none" stroke="#ffd0d0" stroke-width="2" stroke-linecap="round"/><path d="M211.48369,186.22025c0.64631,-1.18416 4.39152,0.76858 6.05156,-1.66065c1.66003,-2.4292 -3.39011,-4.11355 -1.78831,-4.57796c0.77841,-0.22569 1.89221,0.55947 2.9791,0.56395c1.90613,0.00784 2.75612,-0.73343 4.67175,-0.83517c1.66998,-0.08868 2.90893,0.92326 3.82141,0.5917c0.01956,0.5632 1.59725,0.67918 1.61421,1.21741c0.33837,10.74229 0.42781,16.62884 11.016,22.40783c2.90428,1.58514 8.52469,4.49372 12.41601,2.92699c-2.565,4.3316 -13.1257,3.61274 -21.04312,-1.22635c-11.01862,-6.73451 -19.73865,-19.40773 -19.73865,-19.40773z" fill="url(#color-1)" stroke="#ffffff" stroke-width="0.5" stroke-linecap="butt"/><path d="M277.29535,201.82909c-12.05587,20.59766 -38.52678,27.52212 -59.12444,15.46626c-20.59766,-12.05587 -27.52212,-38.52678 -15.46626,-59.12444c12.05587,-20.59766 38.52678,-27.52212 59.12444,-15.46626c20.59766,12.05587 27.52212,38.52678 15.46626,59.12444z" fill="none" stroke="none" stroke-width="0" stroke-linecap="butt"/></g></g></svg>