<svg version="1.1" xmlns="http://www.w3.org/2000/svg" xmlns:xlink="http://www.w3.org/1999/xlink" width="42.86718" height="42.86718" viewBox="0,0,42.86718,42.86718"><g transform="translate(-218.56641,-158.56641)"><g data-paper-data="{&quot;isPaintingLayer&quot;:true}" fill-rule="nonzero" stroke-linejoin="miter" stroke-miterlimit="10" stroke-dasharray="" stroke-dashoffset="0" style="mix-blend-mode: normal"><path d="M218.56641,201.43359v-42.86718h42.86718v42.86718z" fill="none" stroke="none" stroke-width="0" stroke-linecap="butt"/><path d="" data-paper-data="{&quot;index&quot;:null}" fill="none" stroke="#cdcdcd" stroke-width="1.5" stroke-linecap="round"/><path d="" fill="none" stroke="#cdcdcd" stroke-width="1.5" stroke-linecap="round"/><path d="" data-paper-data="{&quot;index&quot;:null}" fill="none" stroke="#cdcdcd" stroke-width="1.5" stroke-linecap="round"/><path d="" fill="none" stroke="#cdcdcd" stroke-width="1.5" stroke-linecap="round"/><path d="" data-paper-data="{&quot;index&quot;:null}" fill="none" stroke="#cdcdcd" stroke-width="1.5" stroke-linecap="round"/><path d="" data-paper-data="{&quot;index&quot;:null}" fill="none" stroke="#cdcdcd" stroke-width="1.5" stroke-linecap="round"/><path d="" data-paper-data="{&quot;index&quot;:null}" fill="none" stroke="#cdcdcd" stroke-width="1.5" stroke-linecap="round"/><path d="" fill="none" stroke="#cdcdcd" stroke-width="1.5" stroke-linecap="round"/><path d="" data-paper-data="{&quot;index&quot;:null}" fill="none" stroke="#cdcdcd" stroke-width="1.5" stroke-linecap="round"/><path d="" data-paper-data="{&quot;index&quot;:null}" fill="none" stroke="#cdcdcd" stroke-width="1.5" stroke-linecap="round"/><path d="" fill="none" stroke="#cdcdcd" stroke-width="1.5" stroke-linecap="round"/><path d="" data-paper-data="{&quot;index&quot;:null}" fill="none" stroke="#cdcdcd" stroke-width="1.5" stroke-linecap="round"/><path d="M242.77075,191.96832l-2.12964,-0.14687v-3.52491" data-paper-data="{&quot;index&quot;:null}" fill="none" stroke="#bd845e" stroke-width="2" stroke-linecap="round"/><path d="M238.29117,192.1152h-1.76246l0.14687,-4.33271" data-paper-data="{&quot;index&quot;:null}" fill="none" stroke="#bd845e" stroke-width="2" stroke-linecap="round"/><path d="M232.71364,182.323c0,-1.08659 0.26972,-3.09676 0.74902,-5.30921c0.98454,-4.54467 4.94623,-2.09482 7.17822,-2.09482c3.31859,0 4.09042,4.08545 4.09042,7.40403c0,3.31859 -2.69025,6.00883 -6.00883,6.00883c-3.31859,0 -6.00883,-2.69025 -6.00883,-6.00883z" fill="#4d3e34" stroke="#bd845e" stroke-width="2" stroke-linecap="butt"/><path d="M235.21919,180.57899c0,-1.2427 1.0074,-2.2501 2.2501,-2.2501c1.2427,0 2.2501,1.0074 2.2501,2.2501c0,1.2427 -1.0074,2.2501 -2.2501,2.2501c-1.2427,0 -2.2501,-1.0074 -2.2501,-2.2501z" fill="#ffffff" stroke="none" stroke-width="0.5" stroke-linecap="butt"/><path d="M240.67174,180.10191c0,-1.2427 1.0074,-2.2501 2.2501,-2.2501c1.2427,0 2.2501,1.0074 2.2501,2.2501c0,1.2427 -1.0074,2.2501 -2.2501,2.2501c-1.2427,0 -2.2501,-1.0074 -2.2501,-2.2501z" fill="#ffffff" stroke="none" stroke-width="0.5" stroke-linecap="butt"/><path d="M249.21017,173.04862c0,4.76779 -4.51309,3.74962 -10.72565,3.74962c-6.21257,0 -11.59766,0.84377 -11.59766,-3.92402c0,-3.10824 2.14045,-5.8328 5.35185,-7.35294c1.71463,-0.81163 3.73456,-2.84951 5.89701,-2.84951c6.21257,0 11.07445,5.60906 11.07445,10.37686z" fill="#281c14" stroke="#bc6327" stroke-width="2" stroke-linecap="butt"/><path d="M250.25054,168.04238c0.54805,1.01763 -2.19957,1.58076 -3.98044,2.53985c-1.23189,0.66344 -2.07183,-0.00508 -2.33145,-1.13969c-0.11569,-0.5056 0.30316,-1.52306 0.13422,-1.83675c-0.54805,-1.01763 1.73893,-1.33267 3.51978,-2.29177c1.78086,-0.95908 2.10983,1.71073 2.65788,2.72836z" fill="#281c14" stroke="#bc6327" stroke-width="2" stroke-linecap="butt"/><path d="M252.62702,165.37855c0.99657,2.71228 0.41191,5.42267 -1.30587,6.05383c-1.71778,0.63116 -3.91819,-1.05592 -4.91476,-3.7682c-0.99657,-2.71228 -0.41191,-5.42267 1.30587,-6.05383c1.71778,-0.63116 3.91819,1.05592 4.91476,3.7682z" fill="#281c14" stroke="#bc6327" stroke-width="2" stroke-linecap="butt"/><path d="M248.68696,164.59018l1.56961,2.79042" fill="none" stroke="#bc6327" stroke-width="2" stroke-linecap="round"/></g></g></svg>