<svg version="1.1" xmlns="http://www.w3.org/2000/svg" xmlns:xlink="http://www.w3.org/1999/xlink" width="40.54748" height="40.54748" viewBox="0,0,40.54748,40.54748"><defs><radialGradient cx="240" cy="180" r="6.93627" gradientUnits="userSpaceOnUse" id="color-1"><stop offset="0" stop-color="#ff0000"/><stop offset="1" stop-color="#ff0000" stop-opacity="0"/></radialGradient><radialGradient cx="240" cy="180" r="6.93628" gradientUnits="userSpaceOnUse" id="color-2"><stop offset="0" stop-color="#ff0000"/><stop offset="1" stop-color="#ff0000" stop-opacity="0"/></radialGradient><radialGradient cx="240" cy="180" r="6.93627" gradientUnits="userSpaceOnUse" id="color-3"><stop offset="0" stop-color="#ff0000"/><stop offset="1" stop-color="#ff0000" stop-opacity="0"/></radialGradient><radialGradient cx="240" cy="180" r="6.93627" gradientUnits="userSpaceOnUse" id="color-4"><stop offset="0" stop-color="#ff0000"/><stop offset="1" stop-color="#ff0000" stop-opacity="0"/></radialGradient></defs><g transform="translate(-219.94395,-157.22275)"><g data-paper-data="{&quot;isPaintingLayer&quot;:true}" fill-rule="nonzero" stroke-linejoin="miter" stroke-miterlimit="10" stroke-dasharray="" stroke-dashoffset="0" style="mix-blend-mode: normal"><path d="M233.06373,180c0,-3.83081 3.10546,-6.93627 6.93627,-6.93627c3.83081,0 6.93627,3.10546 6.93627,6.93627c0,3.83081 -3.10546,6.93627 -6.93627,6.93627c-3.83081,0 -6.93627,-3.10546 -6.93627,-6.93627z" fill="url(#color-1)" stroke="none" stroke-width="0" stroke-linecap="butt"/><path d="M233.06372,180c0,-3.83081 3.10547,-6.93628 6.93628,-6.93628c3.83081,0 6.93628,3.10547 6.93628,6.93628c0,3.83081 -3.10547,6.93628 -6.93628,6.93628c-3.83081,0 -6.93628,-3.10547 -6.93628,-6.93628z" fill="url(#color-2)" stroke="none" stroke-width="0" stroke-linecap="butt"/><path d="M233.06373,180c0,-3.83081 3.10546,-6.93627 6.93627,-6.93627c3.83081,0 6.93627,3.10546 6.93627,6.93627c0,3.83081 -3.10546,6.93627 -6.93627,6.93627c-3.83081,0 -6.93627,-3.10546 -6.93627,-6.93627z" fill="url(#color-3)" stroke="none" stroke-width="0" stroke-linecap="butt"/><path d="M233.06373,180c0,-3.83081 3.10546,-6.93627 6.93627,-6.93627c3.83081,0 6.93627,3.10546 6.93627,6.93627c0,3.83081 -3.10546,6.93627 -6.93627,6.93627c-3.83081,0 -6.93627,-3.10546 -6.93627,-6.93627z" fill="url(#color-4)" stroke="none" stroke-width="0" stroke-linecap="butt"/><path d="M235.72389,180c0,-2.36164 1.91448,-4.27611 4.27611,-4.27611c2.36164,0 4.27611,1.91448 4.27611,4.27611c0,2.36164 -1.91448,4.27611 -4.27611,4.27611c-2.36164,0 -4.27611,-1.91448 -4.27611,-4.27611z" fill="#000000" stroke="none" stroke-width="0.5" stroke-linecap="butt"/><path d="" data-paper-data="{&quot;index&quot;:null}" fill="none" stroke="#cdcdcd" stroke-width="1.5" stroke-linecap="round"/><path d="" fill="none" stroke="#cdcdcd" stroke-width="1.5" stroke-linecap="round"/><path d="" data-paper-data="{&quot;index&quot;:null}" fill="none" stroke="#cdcdcd" stroke-width="1.5" stroke-linecap="round"/><path d="" fill="none" stroke="#cdcdcd" stroke-width="1.5" stroke-linecap="round"/><path d="" data-paper-data="{&quot;index&quot;:null}" fill="none" stroke="#cdcdcd" stroke-width="1.5" stroke-linecap="round"/><path d="" data-paper-data="{&quot;index&quot;:null}" fill="none" stroke="#cdcdcd" stroke-width="1.5" stroke-linecap="round"/><path d="" data-paper-data="{&quot;index&quot;:null}" fill="none" stroke="#cdcdcd" stroke-width="1.5" stroke-linecap="round"/><path d="" fill="none" stroke="#cdcdcd" stroke-width="1.5" stroke-linecap="round"/><path d="" data-paper-data="{&quot;index&quot;:null}" fill="none" stroke="#cdcdcd" stroke-width="1.5" stroke-linecap="round"/><path d="" data-paper-data="{&quot;index&quot;:null}" fill="none" stroke="#cdcdcd" stroke-width="1.5" stroke-linecap="round"/><path d="" fill="none" stroke="#cdcdcd" stroke-width="1.5" stroke-linecap="round"/><path d="" data-paper-data="{&quot;index&quot;:null}" fill="none" stroke="#cdcdcd" stroke-width="1.5" stroke-linecap="round"/><path d="M219.94395,197.77023v-40.54748h40.54748v40.54748z" fill="none" stroke="none" stroke-width="0" stroke-linecap="butt"/></g></g></svg>