<svg version="1.1" xmlns="http://www.w3.org/2000/svg" xmlns:xlink="http://www.w3.org/1999/xlink" width="56.83333" height="56.83333" viewBox="0,0,56.83333,56.83333"><defs><radialGradient cx="240.00002" cy="180" r="19.41667" gradientUnits="userSpaceOnUse" id="color-1"><stop offset="0" stop-color="#000000"/><stop offset="1" stop-color="#000000" stop-opacity="0"/></radialGradient></defs><g transform="translate(-211.5834,-151.58336)"><g data-paper-data="{&quot;isPaintingLayer&quot;:true}" fill-rule="nonzero" stroke-linecap="butt" stroke-linejoin="miter" stroke-miterlimit="10" stroke-dasharray="" stroke-dashoffset="0" style="mix-blend-mode: normal"><path d="M220.58334,199.41667v-38.83333h38.83333v38.83333z" fill="url(#color-1)" stroke="#000000" stroke-width="0"/><path d="M211.58341,208.41669v-56.83333h56.83333v56.83333z" fill="none" stroke="none" stroke-width="0"/><path d="M234.0763,175.15422c0,-2.04417 1.65713,-3.70129 3.70129,-3.70129c1.19895,0 2.26474,0.57006 2.94114,1.45391c0.65716,-0.59675 1.88387,-0.75233 2.84147,-0.75233c2.04417,0 3.34726,1.44906 3.34726,3.49322c0,0.15163 -0.00912,0.30114 -0.02684,0.44799c1.45157,0.50045 2.49438,1.87847 2.49438,3.50006c0,2.04417 -1.78213,6.07629 -3.82629,6.07629c-4.52718,0 -7.07022,-0.24676 -11.5974,-0.24676c-2.04417,0 -3.57629,-4.03213 -3.57629,-6.07629c0,-2.04417 1.65713,-3.70129 3.70129,-3.70129c0.01089,0 0.02176,0.00005 0.03263,0.00014c-0.02153,-0.16149 -0.03263,-0.32627 -0.03263,-0.49365z" fill="#234820" stroke="#1fa416" stroke-width="2"/></g></g></svg>