<svg version="1.1" xmlns="http://www.w3.org/2000/svg" xmlns:xlink="http://www.w3.org/1999/xlink" width="190.83335" height="190.83335" viewBox="0,0,190.83335,190.83335"><defs><radialGradient cx="240.00002" cy="180.00002" r="65.4595" gradientUnits="userSpaceOnUse" id="color-1"><stop offset="0" stop-color="#ff5c5c"/><stop offset="1" stop-color="#ff5c5c" stop-opacity="0"/></radialGradient><radialGradient cx="240.00002" cy="180.00002" r="51.09034" gradientUnits="userSpaceOnUse" id="color-2"><stop offset="0" stop-color="#ff5c5c"/><stop offset="1" stop-color="#ff5c5c" stop-opacity="0"/></radialGradient><radialGradient cx="240.00002" cy="180.00002" r="51.09034" gradientUnits="userSpaceOnUse" id="color-3"><stop offset="0" stop-color="#94fffd" stop-opacity="0"/><stop offset="1" stop-color="#94fffd" stop-opacity="0"/></radialGradient><radialGradient cx="240.00003" cy="180.00003" r="85.41667" gradientUnits="userSpaceOnUse" id="color-4"><stop offset="0" stop-color="#ff5c5c"/><stop offset="1" stop-color="#ff5c5c" stop-opacity="0"/></radialGradient><radialGradient cx="240.00002" cy="180.00002" r="85.41667" gradientUnits="userSpaceOnUse" id="color-5"><stop offset="0" stop-color="#ff5c5c"/><stop offset="1" stop-color="#ff5c5c" stop-opacity="0"/></radialGradient><radialGradient cx="240.00002" cy="180.00002" r="85.41667" gradientUnits="userSpaceOnUse" id="color-6"><stop offset="0" stop-color="#ff5c5c"/><stop offset="1" stop-color="#ff5c5c" stop-opacity="0"/></radialGradient></defs><g transform="translate(-144.58334,-84.58334)"><g data-paper-data="{&quot;isPaintingLayer&quot;:true}" fill-rule="nonzero" stroke-linejoin="miter" stroke-miterlimit="10" stroke-dasharray="" stroke-dashoffset="0" style="mix-blend-mode: normal"><g fill="none" stroke="url(#color-1)" stroke-width="20" stroke-linecap="butt"><path d="M174.54052,180.00002c0,-36.15228 29.30722,-65.4595 65.4595,-65.4595c36.15228,0 65.4595,29.30722 65.4595,65.4595c0,36.15228 -29.30722,65.4595 -65.4595,65.4595c-36.15228,0 -65.4595,-29.30722 -65.4595,-65.4595z"/><path d="M174.54052,180.00002c0,-36.15228 29.30722,-65.4595 65.4595,-65.4595c36.15228,0 65.4595,29.30722 65.4595,65.4595c0,36.15228 -29.30722,65.4595 -65.4595,65.4595c-36.15228,0 -65.4595,-29.30722 -65.4595,-65.4595z"/><path d="M174.54052,180.00002c0,-36.15228 29.30722,-65.4595 65.4595,-65.4595c36.15228,0 65.4595,29.30722 65.4595,65.4595c0,36.15228 -29.30722,65.4595 -65.4595,65.4595c-36.15228,0 -65.4595,-29.30722 -65.4595,-65.4595z"/></g><path d="M188.90968,180.00002c0,-28.21642 22.87392,-51.09034 51.09034,-51.09034c28.21642,0 51.09034,22.87392 51.09034,51.09034c0,28.21642 -22.87392,51.09034 -51.09034,51.09034c-28.21642,0 -51.09034,-22.87392 -51.09034,-51.09034z" fill="url(#color-2)" stroke="url(#color-3)" stroke-width="0" stroke-linecap="butt"/><path d="M171.43699,180.00002c0,-37.86632 30.69671,-68.56303 68.56303,-68.56303c37.86632,0 68.56303,30.69671 68.56303,68.56303c0,37.86632 -30.69671,68.56303 -68.56303,68.56303c-37.86632,0 -68.56303,-30.69671 -68.56303,-68.56303z" fill="none" stroke="#ffffff" stroke-width="1.5" stroke-linecap="butt"/><path d="M289.7258,167.9567l-9.82884,68.18784l-87.48011,-76.36217l47.06223,-47.75572l26.18319,111.97708l-64.69156,11.5043l42.59258,-106.29957l60.52075,29.91933l-96.94171,59.59684l-31.94995,-60.23334z" fill="none" stroke="#ffffff" stroke-width="1.5" stroke-linecap="round"/><path d="M183.95789,153.35607c8.87227,-18.62841 26.75905,-32.13579 48.01914,-34.88094" fill="none" stroke="#ffffff" stroke-width="1.5" stroke-linecap="butt"/><path d="M248.2343,118.50279c21.08998,2.79684 38.83496,16.18831 47.71062,34.65008" fill="none" stroke="#ffffff" stroke-width="1.5" stroke-linecap="butt"/><path d="M300.8479,167.84118c0.78129,3.93183 1.19101,7.99748 1.19101,12.15884c0,4.0243 -0.38317,7.9591 -1.11502,11.76991" fill="none" stroke="#ffffff" stroke-width="1.5" stroke-linecap="butt"/><path d="M300.21987,194.97346c-0.20353,0.82126 -0.42342,1.63605 -0.65931,2.44403" fill="none" stroke="#ffffff" stroke-width="1.5" stroke-linecap="butt"/><path d="M298.60046,200.41839c-0.23718,0.68077 -0.48589,1.35614 -0.74589,2.02588" fill="none" stroke="#ffffff" stroke-width="1.5" stroke-linecap="butt"/><path d="M296.7363,205.13452c-3.36973,7.59525 -8.21986,14.38782 -14.1842,20.01154" fill="none" stroke="#ffffff" stroke-width="1.5" stroke-linecap="butt"/><path d="M270.23851,234.18344c-6.46453,3.61544 -13.64257,6.10751 -21.26985,7.21195l-9.80783,-7.16036l-9.05825,7.01867c-7.51993,-1.20564 -14.58835,-3.76276 -20.94828,-7.41437" fill="none" stroke="#ffffff" stroke-width="1.5" stroke-linecap="butt"/><path d="M199.61943,227.09959c-13.25881,-11.37795 -21.65829,-28.25786 -21.65829,-47.09957c0,-4.34862 0.44742,-8.59275 1.29874,-12.68885" fill="none" stroke="#ffffff" stroke-width="1.5" stroke-linecap="butt"/><path d="M200.65246,127.30269l4.13726,5.72852" fill="none" stroke="#ffffff" stroke-width="1.5" stroke-linecap="round"/><path d="M275.12319,131.7582l3.18251,-4.13726" fill="none" stroke="#ffffff" stroke-width="1.5" stroke-linecap="round"/><path d="M281.48821,130.48519l-4.13726,3.81901" fill="none" stroke="#ffffff" stroke-width="1.5" stroke-linecap="round"/><path d="M189.19544,206.22893l-3.18251,-1.90951l0.6365,-3.81901l-2.54601,-3.18251l0.6365,-2.54601l-1.90951,-2.22776l0.6365,-2.54601" fill="none" stroke="#ffffff" stroke-width="1.5" stroke-linecap="round"/><g fill="none" stroke-width="20" stroke-linecap="butt"><path d="M154.58336,180.00003c0,-47.17432 38.24235,-85.41667 85.41667,-85.41667c47.17432,0 85.41667,38.24235 85.41667,85.41667c0,47.17432 -38.24235,85.41667 -85.41667,85.41667c-47.17432,0 -85.41667,-38.24235 -85.41667,-85.41667z" stroke="url(#color-4)"/><path d="M154.58335,180.00002c0,-47.17432 38.24235,-85.41667 85.41667,-85.41667c47.17432,0 85.41667,38.24235 85.41667,85.41667c0,47.17432 -38.24235,85.41667 -85.41667,85.41667c-47.17432,0 -85.41667,-38.24235 -85.41667,-85.41667z" stroke="url(#color-5)"/><path d="M154.58335,180.00002c0,-47.17432 38.24235,-85.41667 85.41667,-85.41667c47.17432,0 85.41667,38.24235 85.41667,85.41667c0,47.17432 -38.24235,85.41667 -85.41667,85.41667c-47.17432,0 -85.41667,-38.24235 -85.41667,-85.41667z" stroke="url(#color-6)"/></g></g></g></svg>