<svg version="1.1" xmlns="http://www.w3.org/2000/svg" xmlns:xlink="http://www.w3.org/1999/xlink" width="56.83333" height="56.83333" viewBox="0,0,56.83333,56.83333"><g transform="translate(-211.58347,-151.58336)"><g data-paper-data="{&quot;isPaintingLayer&quot;:true}" fill-rule="nonzero" stroke-linejoin="miter" stroke-miterlimit="10" stroke-dasharray="" stroke-dashoffset="0" style="mix-blend-mode: normal"><path d="M211.58348,208.41669v-56.83333h56.83333v56.83333z" fill="none" stroke="none" stroke-width="0" stroke-linecap="butt"/><path d="M225.38989,180.3852c0,0 -0.31004,-2.74097 0.77273,-3.79617c1.08276,-1.0552 3.38096,-1.53855 6.599,-0.45678c7.44069,2.50125 16.43177,9.59213 16.93837,7.60601c0.47282,-1.85366 -0.30228,-4.16535 0.07317,-6.10784c0.20461,-1.05857 3.34801,-0.91863 4.50466,0.69493c0.59995,0.83694 -0.36907,3.56256 -0.36907,3.56256" data-paper-data="{&quot;index&quot;:null}" fill="none" stroke="#400071" stroke-width="1.5" stroke-linecap="round"/><path d="M249.62729,171.68973c0,0 -0.45318,1.48531 -1.32553,2.05855c-1.79933,1.1824 -5.94772,2.32687 -8.01468,2.80583c-1.59514,0.36963 -1.05071,-7.2288 -1.05071,-7.2288" data-paper-data="{&quot;index&quot;:null}" fill="none" stroke="#400071" stroke-width="1.5" stroke-linecap="round"/><path d="M231.17846,182.90862l-1.8923,-2.8084l3.38841,0.80231" fill="none" stroke="#400071" stroke-width="2" stroke-linecap="round"/><path d="M235.13805,175.06804l0.6534,-3.3228l1.82362,2.96637" fill="none" stroke="#400071" stroke-width="2" stroke-linecap="round"/><path d="M243.11569,175.4178l2.94057,-1.67957l-1.05055,3.31984" fill="none" stroke="#400071" stroke-width="2" stroke-linecap="round"/><path d="M249.26362,182.81986l2.94189,1.67726l-3.39261,0.78437" fill="none" stroke="#400071" stroke-width="2" stroke-linecap="round"/><path d="M248.71138,182.73218l1.38278,3.09125l-3.20067,-1.37136" fill="none" stroke="#400071" stroke-width="2" stroke-linecap="round"/><path d="M231.96647,185.34607l-3.39801,-0.07777l2.5871,-2.33855" data-paper-data="{&quot;index&quot;:null}" fill="none" stroke="#400071" stroke-width="2" stroke-linecap="round"/><path d="M232.99752,178.26465l-1.08457,-3.22122l3.08005,1.6356" data-paper-data="{&quot;index&quot;:null}" fill="none" stroke="#400071" stroke-width="2" stroke-linecap="round"/><path d="M247.57473,177.10411c-0.00538,0.20572 -0.02432,0.4079 -0.05598,0.6057c0.01336,0.00023 0.02672,0.00053 0.0401,0.00088c2.51248,0.06574 4.49597,2.1558 4.43023,4.66829c-0.06574,2.51248 -2.1558,4.49597 -4.66829,4.43023c-5.56436,-0.14559 -8.69794,0.07592 -14.2623,-0.06967c-2.51248,-0.06574 -4.49597,-2.1558 -4.43023,-4.66829c0.05215,-1.9931 1.37818,-3.65329 3.17839,-4.2217c-0.01706,-0.18107 -0.02346,-0.36512 -0.01859,-0.55149c0.06574,-2.51248 2.00499,-4.41742 4.51748,-4.35168c1.177,0.0308 2.38872,0.42728 3.17724,1.18187c0.85979,-1.0646 2.18809,-1.73098 3.66172,-1.69242c2.51248,0.06574 4.49597,2.1558 4.43023,4.66829z" data-paper-data="{&quot;index&quot;:null}" fill="#000000" stroke="#400071" stroke-width="2" stroke-linecap="butt"/></g></g></svg>