<svg version="1.1" xmlns="http://www.w3.org/2000/svg" xmlns:xlink="http://www.w3.org/1999/xlink" width="88.25" height="88.25" viewBox="0,0,88.25,88.25"><defs><linearGradient x1="272.12036" y1="-156.86129" x2="272.12036" y2="367.04086" gradientUnits="userSpaceOnUse" id="color-1"><stop offset="0" stop-color="#96b2ff"/><stop offset="1" stop-color="#96b2ff" stop-opacity="0"/></linearGradient><radialGradient cx="240" cy="180" r="21.64286" gradientUnits="userSpaceOnUse" id="color-2"><stop offset="0" stop-color="#ffeb00"/><stop offset="1" stop-color="#ffeb00" stop-opacity="0"/></radialGradient></defs><g transform="translate(-195.875,-135.875)"><g data-paper-data="{&quot;isPaintingLayer&quot;:true}" fill-rule="nonzero" stroke-linecap="butt" stroke-linejoin="miter" stroke-miterlimit="10" stroke-dasharray="" stroke-dashoffset="0" style="mix-blend-mode: normal"><path d="M214.43147,178.87301c0.16116,-14.07254 10.70712,-24.64363 24.94593,-24.33392c14.23881,0.30971 26.36132,10.61011 26.19141,25.4462c-0.16991,14.8361 -11.66277,25.80375 -26.77456,25.47505c-15.11179,-0.3287 -24.52394,-12.51479 -24.36278,-26.58733z" fill="url(#color-1)" stroke="#ffffff" stroke-width="1.5"/><path d="M218.35714,180c0,-11.95302 9.68984,-21.64286 21.64286,-21.64286c11.95302,0 21.64286,9.68984 21.64286,21.64286c0,11.95302 -9.68984,21.64286 -21.64286,21.64286c-11.95302,0 -21.64286,-9.68984 -21.64286,-21.64286z" fill="url(#color-2)" stroke="#8719ff" stroke-width="0"/><path d="M195.875,224.125v-88.25h88.25v88.25z" fill="none" stroke="none" stroke-width="NaN"/><path d="M214.64287,180.00002c0,-14.00436 11.35278,-25.35714 25.35714,-25.35714c14.00436,0 25.35714,11.35278 25.35714,25.35714c0,14.00436 -11.35278,25.35714 -25.35714,25.35714c-14.00436,0 -25.35714,-11.35278 -25.35714,-25.35714z" fill="none" stroke="#ffffff" stroke-width="1"/><path d="M232.24851,183.55016l0.94217,-19.24721l10.22928,-1.74975l-3.49949,14.80555l7.83102,0.98965l-8.03196,19.0984l0.04083,-13.02803z" fill="#ffeb00" stroke="#ff9300" stroke-width="1.5"/></g></g></svg>